M48
; DRILL file {KiCad 9.0.6-9.0.6~ubuntu25.10.1} date 2025-12-24T13:55:10+0900
; FORMAT={-:-/ absolute / metric / decimal}
; #@! TF.CreationDate,2025-12-24T13:55:10+09:00
; #@! TF.GenerationSoftware,Kicad,Pcbnew,9.0.6-9.0.6~ubuntu25.10.1
; #@! TF.FileFunction,Plated,1,2,PTH
FMAT,2
METRIC
; #@! TA.AperFunction,Plated,PTH,ViaDrill
T1C0.200
; #@! TA.AperFunction,Plated,PTH,ViaDrill
T2C0.300
; #@! TA.AperFunction,Plated,PTH,ComponentDrill
T3C0.800
; #@! TA.AperFunction,Plated,PTH,ComponentDrill
T4C1.000
%
G90
G05
T1
X112.626Y-92.606
X112.748Y-80.731
X113.971Y-80.685
X115.478Y-89.177
X115.986Y-83.208
X123.098Y-110.259
T2
X102.27Y-92.987
X104.81Y-131.976
X107.985Y-86.764
X111.287Y-104.29
X112.303Y-78.509
X112.938Y-93.749
X112.938Y-104.29
X113.7Y-112.164
X113.7Y-123.213
X113.7Y-132.23
X114.335Y-86.51
X115.732Y-91.717
X115.986Y-96.67
X121.32Y-72.921
X121.32Y-128.42
X123.733Y-86.51
X123.86Y-133.5
T3
X106.08Y-75.08
X106.08Y-77.62
X106.08Y-80.16
X106.08Y-82.7
X106.08Y-85.24
X106.08Y-87.78
X106.08Y-90.32
X106.08Y-92.86
X106.08Y-95.4
X106.08Y-97.94
X106.08Y-100.48
X106.08Y-103.02
X106.08Y-105.56
X106.08Y-108.1
X106.08Y-110.64
X106.08Y-113.18
X106.08Y-115.72
X106.08Y-118.26
X106.08Y-120.8
X106.08Y-123.34
X121.32Y-75.08
X121.32Y-77.62
X121.32Y-80.16
X121.32Y-82.7
X121.32Y-85.24
X121.32Y-87.78
X121.32Y-90.32
X121.32Y-92.86
X121.32Y-95.4
X121.32Y-97.94
X121.32Y-100.48
X121.32Y-103.02
X121.32Y-105.56
X121.32Y-108.1
X121.32Y-110.64
X121.32Y-113.18
X121.32Y-115.72
X121.32Y-118.26
X121.32Y-120.8
X121.32Y-123.34
T4
X109.89Y-75.08
X109.89Y-77.62
X109.89Y-80.16
X109.89Y-82.7
X109.89Y-85.24
X109.89Y-87.78
X109.89Y-90.32
X109.89Y-92.86
X109.89Y-95.4
X109.89Y-100.48
X109.89Y-103.02
X109.89Y-105.56
X109.89Y-108.1
X109.89Y-110.64
X109.89Y-113.18
X109.89Y-115.72
X109.89Y-118.26
X109.89Y-123.34
X109.89Y-125.88
X109.89Y-128.42
X109.89Y-130.96
X109.89Y-133.5
X117.51Y-75.08
X117.51Y-77.62
X117.51Y-80.16
X117.51Y-82.7
X117.51Y-85.24
X117.51Y-87.78
X117.51Y-90.32
X117.51Y-92.86
X117.51Y-95.4
X117.51Y-100.48
X117.51Y-103.02
X117.51Y-105.56
X117.51Y-108.1
X117.51Y-110.64
X117.51Y-113.18
X117.51Y-115.72
X117.51Y-118.26
X117.51Y-123.34
X117.51Y-125.88
X117.51Y-128.42
X117.51Y-130.96
X117.51Y-133.5
M30
