G04 #@! TF.GenerationSoftware,KiCad,Pcbnew,7.0.11+dfsg-1build4*
G04 #@! TF.CreationDate,2024-12-03T21:22:53+09:00*
G04 #@! TF.ProjectId,bionic-dct11,62696f6e-6963-42d6-9463-7431312e6b69,1*
G04 #@! TF.SameCoordinates,Original*
G04 #@! TF.FileFunction,Copper,L1,Top*
G04 #@! TF.FilePolarity,Positive*
%FSLAX46Y46*%
G04 Gerber Fmt 4.6, Leading zero omitted, Abs format (unit mm)*
G04 Created by KiCad (PCBNEW 7.0.11+dfsg-1build4) date 2024-12-03 21:22:53*
%MOMM*%
%LPD*%
G01*
G04 APERTURE LIST*
G04 Aperture macros list*
%AMRoundRect*
0 Rectangle with rounded corners*
0 $1 Rounding radius*
0 $2 $3 $4 $5 $6 $7 $8 $9 X,Y pos of 4 corners*
0 Add a 4 corners polygon primitive as box body*
4,1,4,$2,$3,$4,$5,$6,$7,$8,$9,$2,$3,0*
0 Add four circle primitives for the rounded corners*
1,1,$1+$1,$2,$3*
1,1,$1+$1,$4,$5*
1,1,$1+$1,$6,$7*
1,1,$1+$1,$8,$9*
0 Add four rect primitives between the rounded corners*
20,1,$1+$1,$2,$3,$4,$5,0*
20,1,$1+$1,$4,$5,$6,$7,0*
20,1,$1+$1,$6,$7,$8,$9,0*
20,1,$1+$1,$8,$9,$2,$3,0*%
G04 Aperture macros list end*
G04 #@! TA.AperFunction,SMDPad,CuDef*
%ADD10RoundRect,0.237500X0.237500X-0.300000X0.237500X0.300000X-0.237500X0.300000X-0.237500X-0.300000X0*%
G04 #@! TD*
G04 #@! TA.AperFunction,SMDPad,CuDef*
%ADD11RoundRect,0.237500X0.250000X0.237500X-0.250000X0.237500X-0.250000X-0.237500X0.250000X-0.237500X0*%
G04 #@! TD*
G04 #@! TA.AperFunction,SMDPad,CuDef*
%ADD12R,0.660400X1.625600*%
G04 #@! TD*
G04 #@! TA.AperFunction,ComponentPad*
%ADD13O,1.600000X1.600000*%
G04 #@! TD*
G04 #@! TA.AperFunction,ComponentPad*
%ADD14R,1.600000X1.600000*%
G04 #@! TD*
G04 #@! TA.AperFunction,SMDPad,CuDef*
%ADD15R,0.762000X0.711200*%
G04 #@! TD*
G04 #@! TA.AperFunction,ComponentPad*
%ADD16O,1.700000X1.700000*%
G04 #@! TD*
G04 #@! TA.AperFunction,ComponentPad*
%ADD17R,1.700000X1.700000*%
G04 #@! TD*
G04 #@! TA.AperFunction,ViaPad*
%ADD18C,0.600000*%
G04 #@! TD*
G04 #@! TA.AperFunction,Conductor*
%ADD19C,0.200000*%
G04 #@! TD*
G04 #@! TA.AperFunction,Conductor*
%ADD20C,0.600000*%
G04 #@! TD*
G04 APERTURE END LIST*
D10*
X123910800Y-73355000D03*
X123910800Y-75080000D03*
D11*
X108977500Y-71778000D03*
X110802500Y-71778000D03*
D12*
X113700000Y-130452000D03*
X112749999Y-128320000D03*
X114650001Y-128320000D03*
D13*
X121320000Y-75080000D03*
X121320000Y-77620000D03*
X121320000Y-80160000D03*
X121320000Y-82700000D03*
X121320000Y-85240000D03*
X121320000Y-87780000D03*
X121320000Y-90320000D03*
X121320000Y-92860000D03*
X121320000Y-95400000D03*
X121320000Y-97940000D03*
X121320000Y-100480000D03*
X121320000Y-103020000D03*
X121320000Y-105560000D03*
X121320000Y-108100000D03*
X121320000Y-110640000D03*
X121320000Y-113180000D03*
X121320000Y-115720000D03*
X121320000Y-118260000D03*
X121320000Y-120800000D03*
X121320000Y-123340000D03*
X106080000Y-123340000D03*
X106080000Y-120800000D03*
X106080000Y-118260000D03*
X106080000Y-115720000D03*
X106080000Y-113180000D03*
X106080000Y-110640000D03*
X106080000Y-108100000D03*
X106080000Y-105560000D03*
X106080000Y-103020000D03*
X106080000Y-100480000D03*
X106080000Y-97940000D03*
X106080000Y-95400000D03*
X106080000Y-92860000D03*
X106080000Y-90320000D03*
X106080000Y-87780000D03*
X106080000Y-85240000D03*
X106080000Y-82700000D03*
X106080000Y-80160000D03*
X106080000Y-77620000D03*
D14*
X106080000Y-75080000D03*
D15*
X114474700Y-71778000D03*
X112925300Y-71778000D03*
D16*
X109890000Y-133500000D03*
X109890000Y-130960000D03*
X109890000Y-128420000D03*
X109890000Y-125880000D03*
X109890000Y-123340000D03*
X109890000Y-120800000D03*
X109890000Y-118260000D03*
X109890000Y-115720000D03*
X109890000Y-113180000D03*
X109890000Y-110640000D03*
X109890000Y-108100000D03*
X109890000Y-105560000D03*
X109890000Y-103020000D03*
X109890000Y-100480000D03*
X109890000Y-97940000D03*
X109890000Y-95400000D03*
X109890000Y-92860000D03*
X109890000Y-90320000D03*
X109890000Y-87780000D03*
X109890000Y-85240000D03*
X109890000Y-82700000D03*
X109890000Y-80160000D03*
X109890000Y-77620000D03*
D17*
X109890000Y-75080000D03*
X117510000Y-75080000D03*
D16*
X117510000Y-77620000D03*
X117510000Y-80160000D03*
X117510000Y-82700000D03*
X117510000Y-85240000D03*
X117510000Y-87780000D03*
X117510000Y-90320000D03*
X117510000Y-92860000D03*
X117510000Y-95400000D03*
X117510000Y-97940000D03*
X117510000Y-100480000D03*
X117510000Y-103020000D03*
X117510000Y-105560000D03*
X117510000Y-108100000D03*
X117510000Y-110640000D03*
X117510000Y-113180000D03*
X117510000Y-115720000D03*
X117510000Y-118260000D03*
X117510000Y-120800000D03*
X117510000Y-123340000D03*
X117510000Y-125880000D03*
X117510000Y-128420000D03*
X117510000Y-130960000D03*
X117510000Y-133500000D03*
D18*
X111287000Y-104290000D03*
X112938000Y-93749000D03*
X114462000Y-93495000D03*
X113700000Y-123213000D03*
X114716000Y-101750000D03*
X114716000Y-98956000D03*
X115732000Y-91717000D03*
X113827000Y-80830000D03*
X114716000Y-105306000D03*
X121320000Y-128420000D03*
X121320000Y-72921000D03*
X113700000Y-112164000D03*
X112938000Y-104290000D03*
X113700000Y-132230000D03*
X123098000Y-110259000D03*
X115986000Y-83208000D03*
X115062000Y-90574000D03*
X113065000Y-80414000D03*
X112938000Y-92606000D03*
D19*
X121320000Y-97940000D02*
X124114000Y-100734000D01*
X124114000Y-100734000D02*
X124114000Y-112291000D01*
X121955000Y-114450000D02*
X118780000Y-114450000D01*
X124114000Y-112291000D02*
X121955000Y-114450000D01*
X118780000Y-114450000D02*
X117510000Y-115720000D01*
X123098000Y-110259000D02*
X123098000Y-105433000D01*
X123098000Y-105433000D02*
X121955000Y-104290000D01*
X121955000Y-104290000D02*
X118780000Y-104290000D01*
X118780000Y-104290000D02*
X117510000Y-103020000D01*
X121320000Y-82700000D02*
X119542000Y-84478000D01*
X119542000Y-84478000D02*
X119542000Y-95273000D01*
X119542000Y-95273000D02*
X118145000Y-96670000D01*
X118145000Y-96670000D02*
X117000950Y-96670000D01*
X117000950Y-96670000D02*
X115664700Y-98006250D01*
X115664700Y-98006250D02*
X115664700Y-107405300D01*
X115664700Y-107405300D02*
X109890000Y-113180000D01*
X113827000Y-80830000D02*
X113700000Y-80957000D01*
X113700000Y-80957000D02*
X113700000Y-106830000D01*
X113700000Y-106830000D02*
X109890000Y-110640000D01*
X109890000Y-82700000D02*
X110525000Y-82700000D01*
X108366000Y-97432000D02*
X108366000Y-108354000D01*
X110525000Y-82700000D02*
X111776000Y-83951000D01*
X108366000Y-108354000D02*
X106080000Y-110640000D01*
X111776000Y-83951000D02*
X111776000Y-95546000D01*
X111776000Y-95546000D02*
X110652000Y-96670000D01*
X110652000Y-96670000D02*
X109128000Y-96670000D01*
X109128000Y-96670000D02*
X108366000Y-97432000D01*
X106080000Y-115720000D02*
X107858000Y-113942000D01*
X107858000Y-113942000D02*
X107858000Y-110640000D01*
X107858000Y-110640000D02*
X109128000Y-109370000D01*
X112176000Y-79906000D02*
X109890000Y-77620000D01*
X109128000Y-109370000D02*
X110594314Y-109370000D01*
X110594314Y-109370000D02*
X112176000Y-107788314D01*
X112176000Y-107788314D02*
X112176000Y-79906000D01*
X109890000Y-87780000D02*
X111376000Y-89266000D01*
X111376000Y-89266000D02*
X111376000Y-93152000D01*
X107858000Y-95634950D02*
X107858000Y-103782000D01*
X111376000Y-93152000D02*
X110398000Y-94130000D01*
X110398000Y-94130000D02*
X109362950Y-94130000D01*
X109362950Y-94130000D02*
X107858000Y-95634950D01*
X107858000Y-103782000D02*
X106080000Y-105560000D01*
X106080000Y-75080000D02*
X107350000Y-76350000D01*
X107350000Y-76350000D02*
X110398000Y-76350000D01*
X110398000Y-76350000D02*
X114462000Y-80414000D01*
X114462000Y-80414000D02*
X114462000Y-92352000D01*
X114462000Y-92352000D02*
X117510000Y-95400000D01*
X121320000Y-77620000D02*
X123098000Y-79398000D01*
X123098000Y-79398000D02*
X123098000Y-82896314D01*
X119942000Y-84819650D02*
X119942000Y-97413000D01*
X123098000Y-82896314D02*
X122024314Y-83970000D01*
X122024314Y-83970000D02*
X120791650Y-83970000D01*
X120791650Y-83970000D02*
X119942000Y-84819650D01*
X119942000Y-97413000D02*
X118145000Y-99210000D01*
X118145000Y-99210000D02*
X116875000Y-99210000D01*
X116875000Y-99210000D02*
X116190400Y-99894600D01*
X116190400Y-99894600D02*
X116190400Y-111959600D01*
X116190400Y-111959600D02*
X109890000Y-118260000D01*
X109890000Y-85240000D02*
X107858000Y-85240000D01*
X105445000Y-86510000D02*
X103902000Y-88053000D01*
X107858000Y-85240000D02*
X106588000Y-86510000D01*
X106588000Y-86510000D02*
X105445000Y-86510000D01*
X103902000Y-88053000D02*
X103902000Y-105922000D01*
X103902000Y-105922000D02*
X106080000Y-108100000D01*
X115062000Y-90574000D02*
X115224000Y-90412000D01*
X115224000Y-90412000D02*
X115224000Y-82446000D01*
X115224000Y-82446000D02*
X117510000Y-80160000D01*
D20*
X117510000Y-133500000D02*
X121320000Y-133500000D01*
X125003000Y-76172200D02*
X123910800Y-75080000D01*
X121320000Y-133500000D02*
X125003000Y-129817000D01*
X125003000Y-129817000D02*
X125003000Y-76172200D01*
D19*
X114650001Y-128320000D02*
X114650001Y-128989001D01*
X114650001Y-128989001D02*
X116621000Y-130960000D01*
X116621000Y-130960000D02*
X117510000Y-130960000D01*
X112749999Y-128320000D02*
X112749999Y-133500000D01*
D20*
X109890000Y-133500000D02*
X117510000Y-133500000D01*
D19*
X114475000Y-71778000D02*
X114474700Y-71778000D01*
D20*
X123910800Y-75080000D02*
X121320000Y-75080000D01*
D19*
X114474700Y-71778000D02*
X118018000Y-71778000D01*
X118018000Y-71778000D02*
X121320000Y-75080000D01*
X112925000Y-71778000D02*
X112925300Y-71778000D01*
X112925300Y-71778000D02*
X110802500Y-71778000D01*
X107985000Y-81303000D02*
X107985000Y-82827000D01*
X107985000Y-82827000D02*
X106842000Y-83970000D01*
X105572000Y-83970000D02*
X103502000Y-86040000D01*
X106842000Y-83970000D02*
X105572000Y-83970000D01*
X103502000Y-110602000D02*
X106080000Y-113180000D01*
X109128000Y-80160000D02*
X107985000Y-81303000D01*
X103502000Y-86040000D02*
X103502000Y-110602000D01*
X109890000Y-80160000D02*
X109128000Y-80160000D01*
X108112000Y-92098000D02*
X109890000Y-90320000D01*
X104302000Y-95370150D02*
X105542150Y-94130000D01*
X106715000Y-94130000D02*
X108112000Y-92733000D01*
X106080000Y-103020000D02*
X104302000Y-101242000D01*
X104302000Y-101242000D02*
X104302000Y-95370150D01*
X105542150Y-94130000D02*
X106715000Y-94130000D01*
X108112000Y-92733000D02*
X108112000Y-92098000D01*
X107350000Y-99210000D02*
X106080000Y-100480000D01*
X107350000Y-95400000D02*
X107350000Y-99210000D01*
X109890000Y-92860000D02*
X107350000Y-95400000D01*
X109128000Y-123340000D02*
X109890000Y-123340000D01*
X106080000Y-120800000D02*
X106588000Y-120800000D01*
X109128000Y-123340000D02*
X109890000Y-123340000D01*
X106588000Y-120800000D02*
X109128000Y-123340000D01*
X106080000Y-120800000D02*
X106588000Y-120800000D01*
X109128000Y-125880000D02*
X109890000Y-125880000D01*
X106080000Y-123340000D02*
X106588000Y-123340000D01*
X109128000Y-125880000D02*
X109890000Y-125880000D01*
X106588000Y-123340000D02*
X109128000Y-125880000D01*
X106080000Y-123340000D02*
X106588000Y-123340000D01*
X118272000Y-125880000D02*
X117510000Y-125880000D01*
X118272000Y-125880000D02*
X117510000Y-125880000D01*
X121320000Y-123340000D02*
X120812000Y-123340000D01*
X121320000Y-123340000D02*
X120812000Y-123340000D01*
X120812000Y-123340000D02*
X118272000Y-125880000D01*
X121320000Y-120800000D02*
X120558000Y-120800000D01*
X118018000Y-118260000D02*
X117510000Y-118260000D01*
X118018000Y-118260000D02*
X117510000Y-118260000D01*
X121320000Y-120800000D02*
X120558000Y-120800000D01*
X120558000Y-120800000D02*
X118018000Y-118260000D01*
X121320000Y-108100000D02*
X117510000Y-108100000D01*
X121320000Y-105560000D02*
X117510000Y-105560000D01*
X121828000Y-101750000D02*
X123698000Y-103620000D01*
X118780000Y-101750000D02*
X121828000Y-101750000D01*
X123698000Y-103620000D02*
X123698000Y-110802000D01*
X123698000Y-110802000D02*
X121320000Y-113180000D01*
X117510000Y-100480000D02*
X118780000Y-101750000D01*
X119034000Y-89304000D02*
X118018000Y-90320000D01*
X118018000Y-90320000D02*
X117510000Y-90320000D01*
X115986000Y-83208000D02*
X116748000Y-83970000D01*
X118272000Y-83970000D02*
X119034000Y-84732000D01*
X116748000Y-83970000D02*
X118272000Y-83970000D01*
X119034000Y-84732000D02*
X119034000Y-89304000D01*
X113065000Y-80414000D02*
X112938000Y-80541000D01*
X112938000Y-80541000D02*
X112938000Y-92606000D01*
G04 #@! TA.AperFunction,Conductor*
G36*
X111721445Y-96263690D02*
G01*
X111764710Y-96306955D01*
X111775500Y-96351900D01*
X111775500Y-107581412D01*
X111756593Y-107639603D01*
X111746504Y-107651416D01*
X111213523Y-108184396D01*
X111159006Y-108212173D01*
X111098574Y-108202602D01*
X111055309Y-108159337D01*
X111044942Y-108105252D01*
X111045429Y-108100000D01*
X111025756Y-107887690D01*
X110967405Y-107682611D01*
X110872366Y-107491745D01*
X110743872Y-107321593D01*
X110685525Y-107268402D01*
X110586307Y-107177952D01*
X110586300Y-107177946D01*
X110405024Y-107065705D01*
X110405019Y-107065702D01*
X110206198Y-106988679D01*
X110206197Y-106988678D01*
X110206195Y-106988678D01*
X109996610Y-106949500D01*
X109783390Y-106949500D01*
X109573804Y-106988678D01*
X109374980Y-107065702D01*
X109374975Y-107065705D01*
X109193699Y-107177946D01*
X109193692Y-107177952D01*
X109036135Y-107321586D01*
X109036119Y-107321603D01*
X108944503Y-107442922D01*
X108894347Y-107477965D01*
X108833172Y-107476834D01*
X108784345Y-107439961D01*
X108766500Y-107383261D01*
X108766500Y-106276738D01*
X108785407Y-106218547D01*
X108834907Y-106182583D01*
X108896093Y-106182583D01*
X108944501Y-106217075D01*
X109036128Y-106338407D01*
X109036135Y-106338413D01*
X109193692Y-106482047D01*
X109193699Y-106482053D01*
X109227785Y-106503158D01*
X109374981Y-106594298D01*
X109573802Y-106671321D01*
X109783390Y-106710500D01*
X109996610Y-106710500D01*
X110206198Y-106671321D01*
X110405019Y-106594298D01*
X110586302Y-106482052D01*
X110743872Y-106338407D01*
X110872366Y-106168255D01*
X110967405Y-105977389D01*
X111025756Y-105772310D01*
X111045429Y-105560000D01*
X111025756Y-105347690D01*
X110967405Y-105142611D01*
X110872366Y-104951745D01*
X110743872Y-104781593D01*
X110657531Y-104702882D01*
X110586307Y-104637952D01*
X110586300Y-104637946D01*
X110405024Y-104525705D01*
X110405019Y-104525702D01*
X110353078Y-104505580D01*
X110206198Y-104448679D01*
X110206197Y-104448678D01*
X110206195Y-104448678D01*
X109996610Y-104409500D01*
X109783390Y-104409500D01*
X109573804Y-104448678D01*
X109374980Y-104525702D01*
X109374975Y-104525705D01*
X109193699Y-104637946D01*
X109193692Y-104637952D01*
X109036135Y-104781586D01*
X109036119Y-104781603D01*
X108944503Y-104902922D01*
X108894347Y-104937965D01*
X108833172Y-104936834D01*
X108784345Y-104899961D01*
X108766500Y-104843261D01*
X108766500Y-103736738D01*
X108785407Y-103678547D01*
X108834907Y-103642583D01*
X108896093Y-103642583D01*
X108944501Y-103677075D01*
X109036128Y-103798407D01*
X109036135Y-103798413D01*
X109193692Y-103942047D01*
X109193699Y-103942053D01*
X109297389Y-104006255D01*
X109374981Y-104054298D01*
X109573802Y-104131321D01*
X109783390Y-104170500D01*
X109996610Y-104170500D01*
X110206198Y-104131321D01*
X110405019Y-104054298D01*
X110586302Y-103942052D01*
X110743872Y-103798407D01*
X110872366Y-103628255D01*
X110967405Y-103437389D01*
X111025756Y-103232310D01*
X111045429Y-103020000D01*
X111025756Y-102807690D01*
X110967405Y-102602611D01*
X110872366Y-102411745D01*
X110743872Y-102241593D01*
X110657531Y-102162882D01*
X110586307Y-102097952D01*
X110586300Y-102097946D01*
X110405024Y-101985705D01*
X110405019Y-101985702D01*
X110206195Y-101908678D01*
X109996610Y-101869500D01*
X109783390Y-101869500D01*
X109573804Y-101908678D01*
X109374980Y-101985702D01*
X109374975Y-101985705D01*
X109193699Y-102097946D01*
X109193692Y-102097952D01*
X109036135Y-102241586D01*
X109036119Y-102241603D01*
X108944503Y-102362922D01*
X108894347Y-102397965D01*
X108833172Y-102396834D01*
X108784345Y-102359961D01*
X108766500Y-102303261D01*
X108766500Y-101196738D01*
X108785407Y-101138547D01*
X108834907Y-101102583D01*
X108896093Y-101102583D01*
X108944501Y-101137075D01*
X109036128Y-101258407D01*
X109036135Y-101258413D01*
X109193692Y-101402047D01*
X109193699Y-101402053D01*
X109297389Y-101466255D01*
X109374981Y-101514298D01*
X109573802Y-101591321D01*
X109783390Y-101630500D01*
X109996610Y-101630500D01*
X110206198Y-101591321D01*
X110405019Y-101514298D01*
X110586302Y-101402052D01*
X110743872Y-101258407D01*
X110872366Y-101088255D01*
X110967405Y-100897389D01*
X111025756Y-100692310D01*
X111045429Y-100480000D01*
X111025756Y-100267690D01*
X110967405Y-100062611D01*
X110872366Y-99871745D01*
X110743872Y-99701593D01*
X110631007Y-99598702D01*
X110586307Y-99557952D01*
X110586300Y-99557946D01*
X110405024Y-99445705D01*
X110405019Y-99445702D01*
X110206195Y-99368678D01*
X109996610Y-99329500D01*
X109783390Y-99329500D01*
X109573804Y-99368678D01*
X109374980Y-99445702D01*
X109374975Y-99445705D01*
X109193699Y-99557946D01*
X109193692Y-99557952D01*
X109036135Y-99701586D01*
X109036119Y-99701603D01*
X108944503Y-99822922D01*
X108894347Y-99857965D01*
X108833172Y-99856834D01*
X108784345Y-99819961D01*
X108766500Y-99763261D01*
X108766500Y-98656738D01*
X108785407Y-98598547D01*
X108834907Y-98562583D01*
X108896093Y-98562583D01*
X108944501Y-98597075D01*
X109036128Y-98718407D01*
X109039850Y-98721800D01*
X109193692Y-98862047D01*
X109193699Y-98862053D01*
X109297389Y-98926255D01*
X109374981Y-98974298D01*
X109573802Y-99051321D01*
X109783390Y-99090500D01*
X109996610Y-99090500D01*
X110206198Y-99051321D01*
X110405019Y-98974298D01*
X110586302Y-98862052D01*
X110743872Y-98718407D01*
X110872366Y-98548255D01*
X110967405Y-98357389D01*
X111025756Y-98152310D01*
X111045429Y-97940000D01*
X111025756Y-97727690D01*
X110967405Y-97522611D01*
X110872366Y-97331745D01*
X110769418Y-97195421D01*
X110766764Y-97191906D01*
X110746784Y-97134075D01*
X110764612Y-97075545D01*
X110813439Y-97038672D01*
X110815046Y-97038132D01*
X110836090Y-97031296D01*
X110855612Y-97017111D01*
X110868849Y-97009000D01*
X110890342Y-96998050D01*
X110907261Y-96981129D01*
X110907265Y-96981127D01*
X110912907Y-96975485D01*
X110912909Y-96975484D01*
X111606498Y-96281894D01*
X111661013Y-96254119D01*
X111721445Y-96263690D01*
G37*
G04 #@! TD.AperFunction*
G04 #@! TA.AperFunction,Conductor*
G36*
X113275780Y-93190106D02*
G01*
X113299195Y-93246634D01*
X113299500Y-93254402D01*
X113299500Y-106623099D01*
X113280593Y-106681290D01*
X113270504Y-106693103D01*
X112745504Y-107218103D01*
X112690987Y-107245880D01*
X112630555Y-107236309D01*
X112587290Y-107193044D01*
X112576500Y-107148099D01*
X112576500Y-93254402D01*
X112595407Y-93196211D01*
X112644907Y-93160247D01*
X112706093Y-93160247D01*
X112713369Y-93162931D01*
X112781238Y-93191044D01*
X112898809Y-93206522D01*
X112937999Y-93211682D01*
X112938000Y-93211682D01*
X112938001Y-93211682D01*
X112969352Y-93207554D01*
X113094762Y-93191044D01*
X113162616Y-93162937D01*
X113223610Y-93158137D01*
X113275780Y-93190106D01*
G37*
G04 #@! TD.AperFunction*
G04 #@! TA.AperFunction,Conductor*
G36*
X115761369Y-83764931D02*
G01*
X115829238Y-83793044D01*
X115986000Y-83813682D01*
X115992433Y-83814529D01*
X115992205Y-83816256D01*
X116042472Y-83832589D01*
X116054284Y-83842678D01*
X116487092Y-84275485D01*
X116505518Y-84293910D01*
X116509658Y-84298050D01*
X116531145Y-84308998D01*
X116544386Y-84317112D01*
X116563908Y-84331294D01*
X116563911Y-84331296D01*
X116578447Y-84336019D01*
X116584826Y-84338092D01*
X116634325Y-84374057D01*
X116653231Y-84432248D01*
X116634323Y-84490438D01*
X116633235Y-84491907D01*
X116527635Y-84631743D01*
X116527630Y-84631752D01*
X116432596Y-84822608D01*
X116374244Y-85027688D01*
X116356793Y-85216024D01*
X116354571Y-85240000D01*
X116374244Y-85452310D01*
X116428136Y-85641719D01*
X116432596Y-85657391D01*
X116521723Y-85836385D01*
X116527634Y-85848255D01*
X116656128Y-86018407D01*
X116704233Y-86062261D01*
X116813692Y-86162047D01*
X116813699Y-86162053D01*
X116884503Y-86205893D01*
X116994981Y-86274298D01*
X117193802Y-86351321D01*
X117403390Y-86390500D01*
X117616610Y-86390500D01*
X117826198Y-86351321D01*
X118025019Y-86274298D01*
X118206302Y-86162052D01*
X118363872Y-86018407D01*
X118455498Y-85897075D01*
X118505653Y-85862034D01*
X118566827Y-85863165D01*
X118615654Y-85900037D01*
X118633500Y-85956738D01*
X118633500Y-87063261D01*
X118614593Y-87121452D01*
X118565093Y-87157416D01*
X118503907Y-87157416D01*
X118455497Y-87122922D01*
X118363880Y-87001603D01*
X118363877Y-87001600D01*
X118363872Y-87001593D01*
X118279184Y-86924389D01*
X118206307Y-86857952D01*
X118206300Y-86857946D01*
X118025024Y-86745705D01*
X118025019Y-86745702D01*
X117826195Y-86668678D01*
X117616610Y-86629500D01*
X117403390Y-86629500D01*
X117193804Y-86668678D01*
X116994980Y-86745702D01*
X116994975Y-86745705D01*
X116813699Y-86857946D01*
X116813692Y-86857952D01*
X116656135Y-87001586D01*
X116656131Y-87001589D01*
X116656128Y-87001593D01*
X116656125Y-87001597D01*
X116527635Y-87171743D01*
X116527630Y-87171752D01*
X116432596Y-87362608D01*
X116374244Y-87567688D01*
X116358224Y-87740582D01*
X116354571Y-87780000D01*
X116374244Y-87992310D01*
X116432595Y-88197389D01*
X116527634Y-88388255D01*
X116656128Y-88558407D01*
X116656135Y-88558413D01*
X116813692Y-88702047D01*
X116813699Y-88702053D01*
X116917389Y-88766255D01*
X116994981Y-88814298D01*
X117193802Y-88891321D01*
X117403390Y-88930500D01*
X117616610Y-88930500D01*
X117826198Y-88891321D01*
X118025019Y-88814298D01*
X118206302Y-88702052D01*
X118363872Y-88558407D01*
X118455498Y-88437075D01*
X118505653Y-88402034D01*
X118566827Y-88403165D01*
X118615654Y-88440037D01*
X118633500Y-88496738D01*
X118633500Y-89097099D01*
X118614593Y-89155290D01*
X118604503Y-89167103D01*
X118360689Y-89410916D01*
X118306173Y-89438693D01*
X118245741Y-89429122D01*
X118223991Y-89414074D01*
X118206302Y-89397948D01*
X118025019Y-89285702D01*
X117826198Y-89208679D01*
X117826197Y-89208678D01*
X117826195Y-89208678D01*
X117616610Y-89169500D01*
X117403390Y-89169500D01*
X117193804Y-89208678D01*
X116994980Y-89285702D01*
X116994975Y-89285705D01*
X116813699Y-89397946D01*
X116813692Y-89397952D01*
X116656135Y-89541586D01*
X116656131Y-89541589D01*
X116656128Y-89541593D01*
X116656125Y-89541597D01*
X116527635Y-89711743D01*
X116527630Y-89711752D01*
X116432596Y-89902608D01*
X116374244Y-90107688D01*
X116354571Y-90320000D01*
X116363581Y-90417241D01*
X116374244Y-90532310D01*
X116432595Y-90737389D01*
X116527634Y-90928255D01*
X116656128Y-91098407D01*
X116656135Y-91098413D01*
X116813692Y-91242047D01*
X116813699Y-91242053D01*
X116917389Y-91306255D01*
X116994981Y-91354298D01*
X117193802Y-91431321D01*
X117403390Y-91470500D01*
X117616610Y-91470500D01*
X117826198Y-91431321D01*
X118025019Y-91354298D01*
X118206302Y-91242052D01*
X118363872Y-91098407D01*
X118492366Y-90928255D01*
X118587405Y-90737389D01*
X118645756Y-90532310D01*
X118665429Y-90320000D01*
X118662844Y-90292110D01*
X118676301Y-90232425D01*
X118691415Y-90212976D01*
X118972498Y-89931894D01*
X119027013Y-89904118D01*
X119087445Y-89913689D01*
X119130710Y-89956954D01*
X119141500Y-90001899D01*
X119141500Y-95066098D01*
X119122593Y-95124289D01*
X119112503Y-95136102D01*
X118830085Y-95418519D01*
X118775569Y-95446296D01*
X118715137Y-95436725D01*
X118671872Y-95393460D01*
X118661505Y-95357652D01*
X118645756Y-95187690D01*
X118587405Y-94982611D01*
X118492366Y-94791745D01*
X118363872Y-94621593D01*
X118266569Y-94532889D01*
X118206307Y-94477952D01*
X118206300Y-94477946D01*
X118025024Y-94365705D01*
X118025019Y-94365702D01*
X117939657Y-94332633D01*
X117826198Y-94288679D01*
X117826197Y-94288678D01*
X117826195Y-94288678D01*
X117616610Y-94249500D01*
X117403390Y-94249500D01*
X117193802Y-94288678D01*
X117089091Y-94329243D01*
X117028000Y-94332633D01*
X116983325Y-94306932D01*
X115536393Y-92860000D01*
X116354571Y-92860000D01*
X116374244Y-93072310D01*
X116432595Y-93277389D01*
X116527634Y-93468255D01*
X116656128Y-93638407D01*
X116656135Y-93638413D01*
X116813692Y-93782047D01*
X116813699Y-93782053D01*
X116917389Y-93846255D01*
X116994981Y-93894298D01*
X117193802Y-93971321D01*
X117403390Y-94010500D01*
X117616610Y-94010500D01*
X117826198Y-93971321D01*
X118025019Y-93894298D01*
X118206302Y-93782052D01*
X118363872Y-93638407D01*
X118492366Y-93468255D01*
X118587405Y-93277389D01*
X118645756Y-93072310D01*
X118665429Y-92860000D01*
X118645756Y-92647690D01*
X118587405Y-92442611D01*
X118492366Y-92251745D01*
X118363872Y-92081593D01*
X118270562Y-91996529D01*
X118206307Y-91937952D01*
X118206300Y-91937946D01*
X118025024Y-91825705D01*
X118025019Y-91825702D01*
X117826195Y-91748678D01*
X117616610Y-91709500D01*
X117403390Y-91709500D01*
X117193804Y-91748678D01*
X116994980Y-91825702D01*
X116994975Y-91825705D01*
X116813699Y-91937946D01*
X116813692Y-91937952D01*
X116656135Y-92081586D01*
X116656131Y-92081589D01*
X116656128Y-92081593D01*
X116656125Y-92081597D01*
X116527635Y-92251743D01*
X116527630Y-92251752D01*
X116432596Y-92442608D01*
X116374244Y-92647688D01*
X116369235Y-92701745D01*
X116354571Y-92860000D01*
X115536393Y-92860000D01*
X114891496Y-92215103D01*
X114863719Y-92160586D01*
X114862500Y-92145099D01*
X114862500Y-91266305D01*
X114881407Y-91208114D01*
X114930907Y-91172150D01*
X114974421Y-91168152D01*
X115062000Y-91179682D01*
X115062001Y-91179682D01*
X115093352Y-91175554D01*
X115218762Y-91159044D01*
X115364841Y-91098536D01*
X115490282Y-91002282D01*
X115586536Y-90876841D01*
X115647044Y-90730762D01*
X115667682Y-90574000D01*
X115647044Y-90417238D01*
X115647042Y-90417232D01*
X115632036Y-90381004D01*
X115624500Y-90343119D01*
X115624500Y-83856402D01*
X115643407Y-83798211D01*
X115692907Y-83762247D01*
X115754093Y-83762247D01*
X115761369Y-83764931D01*
G37*
G04 #@! TD.AperFunction*
G04 #@! TA.AperFunction,Conductor*
G36*
X125133875Y-70075805D02*
G01*
X125309097Y-70089594D01*
X125324430Y-70092023D01*
X125491550Y-70132145D01*
X125506317Y-70136943D01*
X125665104Y-70202715D01*
X125678926Y-70209758D01*
X125825469Y-70299560D01*
X125838032Y-70308688D01*
X125968717Y-70420303D01*
X125979699Y-70431285D01*
X126091311Y-70561967D01*
X126100440Y-70574532D01*
X126190238Y-70721068D01*
X126197287Y-70734902D01*
X126263054Y-70893678D01*
X126267855Y-70908453D01*
X126307975Y-71075564D01*
X126310405Y-71090907D01*
X126324195Y-71266123D01*
X126324500Y-71273891D01*
X126324500Y-137306108D01*
X126324195Y-137313876D01*
X126310405Y-137489092D01*
X126307975Y-137504435D01*
X126267855Y-137671546D01*
X126263054Y-137686321D01*
X126197287Y-137845097D01*
X126190234Y-137858939D01*
X126100442Y-138005465D01*
X126091311Y-138018032D01*
X125979699Y-138148714D01*
X125968714Y-138159699D01*
X125838032Y-138271311D01*
X125825465Y-138280442D01*
X125678939Y-138370234D01*
X125665097Y-138377287D01*
X125506321Y-138443054D01*
X125491546Y-138447855D01*
X125324435Y-138487975D01*
X125309092Y-138490405D01*
X125149743Y-138502946D01*
X125133874Y-138504195D01*
X125126108Y-138504500D01*
X102273892Y-138504500D01*
X102266125Y-138504195D01*
X102247014Y-138502691D01*
X102090907Y-138490405D01*
X102075564Y-138487975D01*
X101908453Y-138447855D01*
X101893678Y-138443054D01*
X101734902Y-138377287D01*
X101721068Y-138370238D01*
X101574532Y-138280440D01*
X101561967Y-138271311D01*
X101462706Y-138186535D01*
X101431282Y-138159696D01*
X101420303Y-138148717D01*
X101308688Y-138018032D01*
X101299560Y-138005469D01*
X101209758Y-137858926D01*
X101202715Y-137845104D01*
X101136943Y-137686317D01*
X101132144Y-137671546D01*
X101092024Y-137504435D01*
X101089594Y-137489097D01*
X101075805Y-137313875D01*
X101075500Y-137306108D01*
X101075500Y-130960000D01*
X108734571Y-130960000D01*
X108754244Y-131172310D01*
X108812595Y-131377389D01*
X108907634Y-131568255D01*
X109036128Y-131738407D01*
X109065080Y-131764800D01*
X109193692Y-131882047D01*
X109193699Y-131882053D01*
X109297389Y-131946255D01*
X109374981Y-131994298D01*
X109573802Y-132071321D01*
X109783390Y-132110500D01*
X109996610Y-132110500D01*
X110206198Y-132071321D01*
X110405019Y-131994298D01*
X110586302Y-131882052D01*
X110743872Y-131738407D01*
X110872366Y-131568255D01*
X110967405Y-131377389D01*
X111025756Y-131172310D01*
X111045429Y-130960000D01*
X111025756Y-130747690D01*
X110967405Y-130542611D01*
X110872366Y-130351745D01*
X110743872Y-130181593D01*
X110676132Y-130119839D01*
X110586307Y-130037952D01*
X110586300Y-130037946D01*
X110405024Y-129925705D01*
X110405019Y-129925702D01*
X110206195Y-129848678D01*
X109996610Y-129809500D01*
X109783390Y-129809500D01*
X109573804Y-129848678D01*
X109374980Y-129925702D01*
X109374975Y-129925705D01*
X109193699Y-130037946D01*
X109193692Y-130037952D01*
X109036135Y-130181586D01*
X109036131Y-130181589D01*
X109036128Y-130181593D01*
X109036125Y-130181597D01*
X108907635Y-130351743D01*
X108907630Y-130351752D01*
X108812596Y-130542608D01*
X108754244Y-130747688D01*
X108754244Y-130747690D01*
X108734571Y-130960000D01*
X101075500Y-130960000D01*
X101075500Y-128420000D01*
X108734571Y-128420000D01*
X108754244Y-128632310D01*
X108812595Y-128837389D01*
X108907634Y-129028255D01*
X109036128Y-129198407D01*
X109036135Y-129198413D01*
X109193692Y-129342047D01*
X109193699Y-129342053D01*
X109263071Y-129385006D01*
X109374981Y-129454298D01*
X109573802Y-129531321D01*
X109783390Y-129570500D01*
X109996610Y-129570500D01*
X110206198Y-129531321D01*
X110405019Y-129454298D01*
X110586302Y-129342052D01*
X110743872Y-129198407D01*
X110872366Y-129028255D01*
X110967405Y-128837389D01*
X111025756Y-128632310D01*
X111045429Y-128420000D01*
X111025756Y-128207690D01*
X110967405Y-128002611D01*
X110872366Y-127811745D01*
X110743872Y-127641593D01*
X110689623Y-127592139D01*
X110586307Y-127497952D01*
X110586300Y-127497946D01*
X110405024Y-127385705D01*
X110405019Y-127385702D01*
X110206195Y-127308678D01*
X109996610Y-127269500D01*
X109783390Y-127269500D01*
X109573804Y-127308678D01*
X109374980Y-127385702D01*
X109374975Y-127385705D01*
X109193699Y-127497946D01*
X109193692Y-127497952D01*
X109036135Y-127641586D01*
X109036131Y-127641589D01*
X109036128Y-127641593D01*
X109036125Y-127641597D01*
X108907635Y-127811743D01*
X108907630Y-127811752D01*
X108812596Y-128002608D01*
X108754244Y-128207688D01*
X108754244Y-128207690D01*
X108734571Y-128420000D01*
X101075500Y-128420000D01*
X101075500Y-123340000D01*
X104974785Y-123340000D01*
X104993603Y-123543083D01*
X105049418Y-123739250D01*
X105140327Y-123921821D01*
X105263236Y-124084579D01*
X105413959Y-124221981D01*
X105587363Y-124329348D01*
X105777544Y-124403024D01*
X105978024Y-124440500D01*
X106181976Y-124440500D01*
X106382456Y-124403024D01*
X106572637Y-124329348D01*
X106746041Y-124221981D01*
X106758597Y-124210534D01*
X106814337Y-124185303D01*
X106874263Y-124197654D01*
X106895298Y-124213691D01*
X108728240Y-126046632D01*
X108753457Y-126089543D01*
X108754243Y-126092308D01*
X108754244Y-126092310D01*
X108812595Y-126297389D01*
X108907634Y-126488255D01*
X109036128Y-126658407D01*
X109036135Y-126658413D01*
X109193692Y-126802047D01*
X109193699Y-126802053D01*
X109297389Y-126866255D01*
X109374981Y-126914298D01*
X109573802Y-126991321D01*
X109783390Y-127030500D01*
X109996610Y-127030500D01*
X110206198Y-126991321D01*
X110405019Y-126914298D01*
X110586302Y-126802052D01*
X110743872Y-126658407D01*
X110872366Y-126488255D01*
X110967405Y-126297389D01*
X111025756Y-126092310D01*
X111045429Y-125880000D01*
X116354571Y-125880000D01*
X116374244Y-126092310D01*
X116432595Y-126297389D01*
X116527634Y-126488255D01*
X116656128Y-126658407D01*
X116656135Y-126658413D01*
X116813692Y-126802047D01*
X116813699Y-126802053D01*
X116917389Y-126866255D01*
X116994981Y-126914298D01*
X117193802Y-126991321D01*
X117403390Y-127030500D01*
X117616610Y-127030500D01*
X117826198Y-126991321D01*
X118025019Y-126914298D01*
X118206302Y-126802052D01*
X118363872Y-126658407D01*
X118492366Y-126488255D01*
X118587405Y-126297389D01*
X118645756Y-126092310D01*
X118645756Y-126092303D01*
X118646542Y-126089543D01*
X118671757Y-126046634D01*
X120504703Y-124213688D01*
X120559218Y-124185913D01*
X120619650Y-124195484D01*
X120641396Y-124210529D01*
X120653959Y-124221981D01*
X120827363Y-124329348D01*
X121017544Y-124403024D01*
X121218024Y-124440500D01*
X121421976Y-124440500D01*
X121622456Y-124403024D01*
X121812637Y-124329348D01*
X121986041Y-124221981D01*
X122136764Y-124084579D01*
X122259673Y-123921821D01*
X122350582Y-123739250D01*
X122406397Y-123543083D01*
X122425215Y-123340000D01*
X122406397Y-123136917D01*
X122350582Y-122940750D01*
X122259673Y-122758179D01*
X122136764Y-122595421D01*
X121986041Y-122458019D01*
X121812637Y-122350652D01*
X121622456Y-122276976D01*
X121622455Y-122276975D01*
X121622453Y-122276975D01*
X121421976Y-122239500D01*
X121218024Y-122239500D01*
X121017546Y-122276975D01*
X120947632Y-122304059D01*
X120827363Y-122350652D01*
X120718678Y-122417947D01*
X120653959Y-122458019D01*
X120503237Y-122595420D01*
X120380328Y-122758177D01*
X120380323Y-122758186D01*
X120289419Y-122940747D01*
X120233603Y-123136917D01*
X120214935Y-123338375D01*
X120190739Y-123394573D01*
X120186361Y-123399244D01*
X118493561Y-125092044D01*
X118439044Y-125119821D01*
X118378612Y-125110250D01*
X118356862Y-125095203D01*
X118206302Y-124957948D01*
X118206301Y-124957947D01*
X118206300Y-124957946D01*
X118025024Y-124845705D01*
X118025019Y-124845702D01*
X117826195Y-124768678D01*
X117616610Y-124729500D01*
X117403390Y-124729500D01*
X117193804Y-124768678D01*
X116994980Y-124845702D01*
X116994975Y-124845705D01*
X116813699Y-124957946D01*
X116813692Y-124957952D01*
X116656135Y-125101586D01*
X116656131Y-125101589D01*
X116656128Y-125101593D01*
X116656125Y-125101597D01*
X116527635Y-125271743D01*
X116527630Y-125271752D01*
X116432596Y-125462608D01*
X116374244Y-125667688D01*
X116374244Y-125667690D01*
X116354571Y-125880000D01*
X111045429Y-125880000D01*
X111025756Y-125667690D01*
X110967405Y-125462611D01*
X110872366Y-125271745D01*
X110743872Y-125101593D01*
X110689623Y-125052139D01*
X110586307Y-124957952D01*
X110586300Y-124957946D01*
X110405024Y-124845705D01*
X110405019Y-124845702D01*
X110206195Y-124768678D01*
X109996610Y-124729500D01*
X109783390Y-124729500D01*
X109573804Y-124768678D01*
X109374980Y-124845702D01*
X109374975Y-124845705D01*
X109193699Y-124957946D01*
X109193698Y-124957947D01*
X109043137Y-125095203D01*
X108987396Y-125120433D01*
X108927470Y-125108081D01*
X108906437Y-125092045D01*
X108076445Y-124262053D01*
X107213637Y-123399244D01*
X107185861Y-123344728D01*
X107185064Y-123338375D01*
X107166397Y-123136917D01*
X107110582Y-122940750D01*
X107019673Y-122758179D01*
X106896764Y-122595421D01*
X106746041Y-122458019D01*
X106572637Y-122350652D01*
X106382456Y-122276976D01*
X106382455Y-122276975D01*
X106382453Y-122276975D01*
X106181976Y-122239500D01*
X105978024Y-122239500D01*
X105777546Y-122276975D01*
X105707632Y-122304059D01*
X105587363Y-122350652D01*
X105478678Y-122417947D01*
X105413959Y-122458019D01*
X105263237Y-122595420D01*
X105140328Y-122758177D01*
X105140323Y-122758186D01*
X105058450Y-122922611D01*
X105049418Y-122940750D01*
X104993603Y-123136917D01*
X104974785Y-123340000D01*
X101075500Y-123340000D01*
X101075500Y-120800000D01*
X104974785Y-120800000D01*
X104993603Y-121003083D01*
X105049418Y-121199250D01*
X105140327Y-121381821D01*
X105263236Y-121544579D01*
X105413959Y-121681981D01*
X105587363Y-121789348D01*
X105777544Y-121863024D01*
X105978024Y-121900500D01*
X106181976Y-121900500D01*
X106382456Y-121863024D01*
X106572637Y-121789348D01*
X106746041Y-121681981D01*
X106758597Y-121670534D01*
X106814337Y-121645303D01*
X106874263Y-121657654D01*
X106895298Y-121673691D01*
X108728240Y-123506632D01*
X108753457Y-123549543D01*
X108754243Y-123552308D01*
X108754244Y-123552310D01*
X108812595Y-123757389D01*
X108907634Y-123948255D01*
X109036128Y-124118407D01*
X109036135Y-124118413D01*
X109193692Y-124262047D01*
X109193699Y-124262053D01*
X109297389Y-124326255D01*
X109374981Y-124374298D01*
X109573802Y-124451321D01*
X109783390Y-124490500D01*
X109996610Y-124490500D01*
X110206198Y-124451321D01*
X110405019Y-124374298D01*
X110586302Y-124262052D01*
X110743872Y-124118407D01*
X110872366Y-123948255D01*
X110967405Y-123757389D01*
X111025756Y-123552310D01*
X111045429Y-123340000D01*
X116354571Y-123340000D01*
X116374244Y-123552310D01*
X116432595Y-123757389D01*
X116527634Y-123948255D01*
X116656128Y-124118407D01*
X116656135Y-124118413D01*
X116813692Y-124262047D01*
X116813699Y-124262053D01*
X116917389Y-124326255D01*
X116994981Y-124374298D01*
X117193802Y-124451321D01*
X117403390Y-124490500D01*
X117616610Y-124490500D01*
X117826198Y-124451321D01*
X118025019Y-124374298D01*
X118206302Y-124262052D01*
X118363872Y-124118407D01*
X118492366Y-123948255D01*
X118587405Y-123757389D01*
X118645756Y-123552310D01*
X118665429Y-123340000D01*
X118645756Y-123127690D01*
X118587405Y-122922611D01*
X118492366Y-122731745D01*
X118363872Y-122561593D01*
X118309623Y-122512139D01*
X118206307Y-122417952D01*
X118206300Y-122417946D01*
X118025024Y-122305705D01*
X118025019Y-122305702D01*
X117826195Y-122228678D01*
X117616610Y-122189500D01*
X117403390Y-122189500D01*
X117193804Y-122228678D01*
X116994980Y-122305702D01*
X116994975Y-122305705D01*
X116813699Y-122417946D01*
X116813692Y-122417952D01*
X116656135Y-122561586D01*
X116656131Y-122561589D01*
X116656128Y-122561593D01*
X116656125Y-122561597D01*
X116527635Y-122731743D01*
X116527630Y-122731752D01*
X116432596Y-122922608D01*
X116374244Y-123127688D01*
X116374244Y-123127690D01*
X116354571Y-123340000D01*
X111045429Y-123340000D01*
X111025756Y-123127690D01*
X110967405Y-122922611D01*
X110872366Y-122731745D01*
X110743872Y-122561593D01*
X110689623Y-122512139D01*
X110586307Y-122417952D01*
X110586300Y-122417946D01*
X110405024Y-122305705D01*
X110405019Y-122305702D01*
X110206195Y-122228678D01*
X109996610Y-122189500D01*
X109783390Y-122189500D01*
X109573804Y-122228678D01*
X109374980Y-122305702D01*
X109374975Y-122305705D01*
X109193699Y-122417946D01*
X109193698Y-122417947D01*
X109043137Y-122555203D01*
X108987396Y-122580433D01*
X108927470Y-122568081D01*
X108906437Y-122552045D01*
X108076445Y-121722053D01*
X107213638Y-120859245D01*
X107185861Y-120804728D01*
X107185268Y-120800000D01*
X108734571Y-120800000D01*
X108754244Y-121012310D01*
X108812595Y-121217389D01*
X108907634Y-121408255D01*
X109036128Y-121578407D01*
X109036135Y-121578413D01*
X109193692Y-121722047D01*
X109193699Y-121722053D01*
X109297389Y-121786255D01*
X109374981Y-121834298D01*
X109573802Y-121911321D01*
X109783390Y-121950500D01*
X109996610Y-121950500D01*
X110206198Y-121911321D01*
X110405019Y-121834298D01*
X110586302Y-121722052D01*
X110743872Y-121578407D01*
X110872366Y-121408255D01*
X110967405Y-121217389D01*
X111025756Y-121012310D01*
X111045429Y-120800000D01*
X116354571Y-120800000D01*
X116374244Y-121012310D01*
X116432595Y-121217389D01*
X116527634Y-121408255D01*
X116656128Y-121578407D01*
X116656135Y-121578413D01*
X116813692Y-121722047D01*
X116813699Y-121722053D01*
X116917389Y-121786255D01*
X116994981Y-121834298D01*
X117193802Y-121911321D01*
X117403390Y-121950500D01*
X117616610Y-121950500D01*
X117826198Y-121911321D01*
X118025019Y-121834298D01*
X118206302Y-121722052D01*
X118363872Y-121578407D01*
X118492366Y-121408255D01*
X118587405Y-121217389D01*
X118645756Y-121012310D01*
X118665429Y-120800000D01*
X118645756Y-120587690D01*
X118587405Y-120382611D01*
X118492366Y-120191745D01*
X118363872Y-120021593D01*
X118250260Y-119918021D01*
X118206307Y-119877952D01*
X118206300Y-119877946D01*
X118025024Y-119765705D01*
X118025019Y-119765702D01*
X117826195Y-119688678D01*
X117616610Y-119649500D01*
X117403390Y-119649500D01*
X117193804Y-119688678D01*
X116994980Y-119765702D01*
X116994975Y-119765705D01*
X116813699Y-119877946D01*
X116813692Y-119877952D01*
X116656135Y-120021586D01*
X116656131Y-120021589D01*
X116656128Y-120021593D01*
X116656125Y-120021597D01*
X116527635Y-120191743D01*
X116527630Y-120191752D01*
X116432596Y-120382608D01*
X116374244Y-120587688D01*
X116374244Y-120587690D01*
X116354571Y-120800000D01*
X111045429Y-120800000D01*
X111025756Y-120587690D01*
X110967405Y-120382611D01*
X110872366Y-120191745D01*
X110743872Y-120021593D01*
X110630260Y-119918021D01*
X110586307Y-119877952D01*
X110586300Y-119877946D01*
X110405024Y-119765705D01*
X110405019Y-119765702D01*
X110206195Y-119688678D01*
X109996610Y-119649500D01*
X109783390Y-119649500D01*
X109573804Y-119688678D01*
X109374980Y-119765702D01*
X109374975Y-119765705D01*
X109193699Y-119877946D01*
X109193692Y-119877952D01*
X109036135Y-120021586D01*
X109036131Y-120021589D01*
X109036128Y-120021593D01*
X109036125Y-120021597D01*
X108907635Y-120191743D01*
X108907630Y-120191752D01*
X108812596Y-120382608D01*
X108754244Y-120587688D01*
X108754244Y-120587690D01*
X108734571Y-120800000D01*
X107185268Y-120800000D01*
X107185064Y-120798375D01*
X107166397Y-120596917D01*
X107110582Y-120400750D01*
X107019673Y-120218179D01*
X106896764Y-120055421D01*
X106746041Y-119918019D01*
X106572637Y-119810652D01*
X106382456Y-119736976D01*
X106382455Y-119736975D01*
X106382453Y-119736975D01*
X106181976Y-119699500D01*
X105978024Y-119699500D01*
X105777546Y-119736975D01*
X105707632Y-119764059D01*
X105587363Y-119810652D01*
X105478676Y-119877948D01*
X105413959Y-119918019D01*
X105263237Y-120055420D01*
X105140328Y-120218177D01*
X105140323Y-120218186D01*
X105058450Y-120382611D01*
X105049418Y-120400750D01*
X104993603Y-120596917D01*
X104974785Y-120800000D01*
X101075500Y-120800000D01*
X101075500Y-118260000D01*
X104974785Y-118260000D01*
X104993603Y-118463083D01*
X105049418Y-118659250D01*
X105140327Y-118841821D01*
X105263236Y-119004579D01*
X105413959Y-119141981D01*
X105587363Y-119249348D01*
X105777544Y-119323024D01*
X105978024Y-119360500D01*
X106181976Y-119360500D01*
X106382456Y-119323024D01*
X106572637Y-119249348D01*
X106746041Y-119141981D01*
X106896764Y-119004579D01*
X107019673Y-118841821D01*
X107110582Y-118659250D01*
X107166397Y-118463083D01*
X107185215Y-118260000D01*
X107166397Y-118056917D01*
X107110582Y-117860750D01*
X107019673Y-117678179D01*
X106896764Y-117515421D01*
X106746041Y-117378019D01*
X106572637Y-117270652D01*
X106382456Y-117196976D01*
X106382455Y-117196975D01*
X106382453Y-117196975D01*
X106181976Y-117159500D01*
X105978024Y-117159500D01*
X105777546Y-117196975D01*
X105737353Y-117212546D01*
X105587363Y-117270652D01*
X105478676Y-117337948D01*
X105413959Y-117378019D01*
X105263237Y-117515420D01*
X105140328Y-117678177D01*
X105140323Y-117678186D01*
X105058450Y-117842611D01*
X105049418Y-117860750D01*
X104993603Y-118056917D01*
X104974785Y-118260000D01*
X101075500Y-118260000D01*
X101075500Y-110665437D01*
X103101500Y-110665437D01*
X103108953Y-110688374D01*
X103112579Y-110703474D01*
X103116354Y-110727306D01*
X103127301Y-110748788D01*
X103133247Y-110763142D01*
X103140703Y-110786088D01*
X103140702Y-110786088D01*
X103154884Y-110805608D01*
X103162997Y-110818847D01*
X103173950Y-110840342D01*
X103173951Y-110840343D01*
X103194030Y-110860423D01*
X103194031Y-110860423D01*
X103196513Y-110862905D01*
X103196516Y-110862909D01*
X104124107Y-111790500D01*
X105022663Y-112689056D01*
X105050440Y-112743573D01*
X105047880Y-112786152D01*
X104993603Y-112976915D01*
X104993603Y-112976917D01*
X104974785Y-113180000D01*
X104993603Y-113383083D01*
X105049418Y-113579250D01*
X105140327Y-113761821D01*
X105263236Y-113924579D01*
X105413959Y-114061981D01*
X105587363Y-114169348D01*
X105777544Y-114243024D01*
X105978024Y-114280500D01*
X106181976Y-114280500D01*
X106382456Y-114243024D01*
X106572637Y-114169348D01*
X106746041Y-114061981D01*
X106896764Y-113924579D01*
X107019673Y-113761821D01*
X107110582Y-113579250D01*
X107166397Y-113383083D01*
X107185215Y-113180000D01*
X107166397Y-112976917D01*
X107110582Y-112780750D01*
X107019673Y-112598179D01*
X106896764Y-112435421D01*
X106746041Y-112298019D01*
X106572637Y-112190652D01*
X106382456Y-112116976D01*
X106382455Y-112116975D01*
X106382453Y-112116975D01*
X106181976Y-112079500D01*
X105978024Y-112079500D01*
X105777552Y-112116974D01*
X105777546Y-112116975D01*
X105777544Y-112116976D01*
X105737352Y-112132546D01*
X105697738Y-112147892D01*
X105636647Y-112151281D01*
X105591973Y-112125580D01*
X103931496Y-110465103D01*
X103903719Y-110410586D01*
X103902500Y-110395099D01*
X103902500Y-106727900D01*
X103921407Y-106669709D01*
X103970907Y-106633745D01*
X104032093Y-106633745D01*
X104071503Y-106657895D01*
X104561706Y-107148099D01*
X105022663Y-107609056D01*
X105050440Y-107663573D01*
X105047880Y-107706152D01*
X104993603Y-107896915D01*
X104993603Y-107896917D01*
X104974785Y-108100000D01*
X104993603Y-108303083D01*
X105049418Y-108499250D01*
X105140327Y-108681821D01*
X105263236Y-108844579D01*
X105413959Y-108981981D01*
X105587363Y-109089348D01*
X105777544Y-109163024D01*
X105978024Y-109200500D01*
X106181976Y-109200500D01*
X106382456Y-109163024D01*
X106572637Y-109089348D01*
X106746041Y-108981981D01*
X106896764Y-108844579D01*
X107019673Y-108681821D01*
X107110582Y-108499250D01*
X107166397Y-108303083D01*
X107185215Y-108100000D01*
X107166397Y-107896917D01*
X107110582Y-107700750D01*
X107019673Y-107518179D01*
X106896764Y-107355421D01*
X106746041Y-107218019D01*
X106572637Y-107110652D01*
X106382456Y-107036976D01*
X106382455Y-107036975D01*
X106382453Y-107036975D01*
X106181976Y-106999500D01*
X105978024Y-106999500D01*
X105777544Y-107036975D01*
X105697739Y-107067892D01*
X105636648Y-107071282D01*
X105591973Y-107045581D01*
X104331496Y-105785103D01*
X104303719Y-105730586D01*
X104302500Y-105715099D01*
X104302500Y-102047901D01*
X104321407Y-101989710D01*
X104370907Y-101953746D01*
X104432093Y-101953746D01*
X104471504Y-101977897D01*
X105022663Y-102529056D01*
X105050440Y-102583573D01*
X105047880Y-102626152D01*
X104993603Y-102816915D01*
X104986989Y-102888290D01*
X104974785Y-103020000D01*
X104993603Y-103223083D01*
X105049418Y-103419250D01*
X105140327Y-103601821D01*
X105263236Y-103764579D01*
X105413959Y-103901981D01*
X105587363Y-104009348D01*
X105777544Y-104083024D01*
X105978024Y-104120500D01*
X106181976Y-104120500D01*
X106382456Y-104083024D01*
X106572637Y-104009348D01*
X106746041Y-103901981D01*
X106896764Y-103764579D01*
X107019673Y-103601821D01*
X107110582Y-103419250D01*
X107166397Y-103223083D01*
X107185215Y-103020000D01*
X107166397Y-102816917D01*
X107110582Y-102620750D01*
X107019673Y-102438179D01*
X106896764Y-102275421D01*
X106746041Y-102138019D01*
X106572637Y-102030652D01*
X106382456Y-101956976D01*
X106382455Y-101956975D01*
X106382453Y-101956975D01*
X106181976Y-101919500D01*
X105978024Y-101919500D01*
X105777552Y-101956974D01*
X105777546Y-101956975D01*
X105777544Y-101956976D01*
X105723539Y-101977897D01*
X105697738Y-101987892D01*
X105636647Y-101991281D01*
X105591973Y-101965580D01*
X104731496Y-101105103D01*
X104703719Y-101050586D01*
X104702500Y-101035099D01*
X104702500Y-95577049D01*
X104721407Y-95518858D01*
X104731490Y-95507052D01*
X104814110Y-95424432D01*
X104868623Y-95396656D01*
X104929056Y-95406227D01*
X104972320Y-95449491D01*
X104982689Y-95485302D01*
X104987391Y-95536043D01*
X104993603Y-95603083D01*
X105049418Y-95799250D01*
X105140327Y-95981821D01*
X105263236Y-96144579D01*
X105413959Y-96281981D01*
X105587363Y-96389348D01*
X105777544Y-96463024D01*
X105978024Y-96500500D01*
X106181976Y-96500500D01*
X106382456Y-96463024D01*
X106572637Y-96389348D01*
X106746041Y-96281981D01*
X106783805Y-96247554D01*
X106839545Y-96222324D01*
X106899470Y-96234676D01*
X106940691Y-96279892D01*
X106949500Y-96320716D01*
X106949500Y-97019283D01*
X106930593Y-97077474D01*
X106881093Y-97113438D01*
X106819907Y-97113438D01*
X106783805Y-97092445D01*
X106746043Y-97058021D01*
X106746041Y-97058019D01*
X106572637Y-96950652D01*
X106382456Y-96876976D01*
X106382455Y-96876975D01*
X106382453Y-96876975D01*
X106181976Y-96839500D01*
X105978024Y-96839500D01*
X105777546Y-96876975D01*
X105707632Y-96904059D01*
X105587363Y-96950652D01*
X105476520Y-97019283D01*
X105413959Y-97058019D01*
X105263237Y-97195420D01*
X105140328Y-97358177D01*
X105140323Y-97358186D01*
X105058450Y-97522611D01*
X105049418Y-97540750D01*
X104993603Y-97736917D01*
X104974785Y-97940000D01*
X104993603Y-98143083D01*
X105049418Y-98339250D01*
X105140327Y-98521821D01*
X105263236Y-98684579D01*
X105413959Y-98821981D01*
X105587363Y-98929348D01*
X105777544Y-99003024D01*
X105978024Y-99040500D01*
X106181976Y-99040500D01*
X106382456Y-99003024D01*
X106572637Y-98929348D01*
X106746041Y-98821981D01*
X106783805Y-98787554D01*
X106839545Y-98762324D01*
X106899470Y-98774676D01*
X106940691Y-98819892D01*
X106949500Y-98860716D01*
X106949500Y-99003099D01*
X106930593Y-99061290D01*
X106920503Y-99073103D01*
X106568025Y-99425580D01*
X106513509Y-99453357D01*
X106462260Y-99447891D01*
X106382456Y-99416976D01*
X106181976Y-99379500D01*
X105978024Y-99379500D01*
X105777546Y-99416975D01*
X105755334Y-99425580D01*
X105587363Y-99490652D01*
X105478676Y-99557948D01*
X105413959Y-99598019D01*
X105263237Y-99735420D01*
X105140328Y-99898177D01*
X105140323Y-99898186D01*
X105058450Y-100062611D01*
X105049418Y-100080750D01*
X104993603Y-100276917D01*
X104974785Y-100480000D01*
X104993603Y-100683083D01*
X105049418Y-100879250D01*
X105140327Y-101061821D01*
X105263236Y-101224579D01*
X105413959Y-101361981D01*
X105587363Y-101469348D01*
X105777544Y-101543024D01*
X105978024Y-101580500D01*
X106181976Y-101580500D01*
X106382456Y-101543024D01*
X106572637Y-101469348D01*
X106746041Y-101361981D01*
X106896764Y-101224579D01*
X107019673Y-101061821D01*
X107110582Y-100879250D01*
X107166397Y-100683083D01*
X107185215Y-100480000D01*
X107166397Y-100276917D01*
X107112118Y-100086148D01*
X107114379Y-100025010D01*
X107137336Y-99989056D01*
X107288497Y-99837896D01*
X107343013Y-99810119D01*
X107403445Y-99819691D01*
X107446710Y-99862955D01*
X107457500Y-99907900D01*
X107457500Y-103575098D01*
X107438593Y-103633289D01*
X107428504Y-103645102D01*
X106568025Y-104505580D01*
X106513508Y-104533357D01*
X106462259Y-104527891D01*
X106382460Y-104496977D01*
X106382447Y-104496974D01*
X106181976Y-104459500D01*
X105978024Y-104459500D01*
X105777546Y-104496975D01*
X105777541Y-104496977D01*
X105587363Y-104570652D01*
X105417792Y-104675646D01*
X105413959Y-104678019D01*
X105263237Y-104815420D01*
X105140328Y-104978177D01*
X105140323Y-104978186D01*
X105050040Y-105159500D01*
X105049418Y-105160750D01*
X104993603Y-105356917D01*
X104974785Y-105560000D01*
X104993603Y-105763083D01*
X105049418Y-105959250D01*
X105140327Y-106141821D01*
X105263236Y-106304579D01*
X105413959Y-106441981D01*
X105587363Y-106549348D01*
X105777544Y-106623024D01*
X105978024Y-106660500D01*
X106181976Y-106660500D01*
X106382456Y-106623024D01*
X106572637Y-106549348D01*
X106746041Y-106441981D01*
X106896764Y-106304579D01*
X107019673Y-106141821D01*
X107110582Y-105959250D01*
X107166397Y-105763083D01*
X107185215Y-105560000D01*
X107166397Y-105356917D01*
X107112118Y-105166148D01*
X107114379Y-105105010D01*
X107137333Y-105069058D01*
X107796497Y-104409895D01*
X107851013Y-104382119D01*
X107911445Y-104391690D01*
X107954710Y-104434955D01*
X107965500Y-104479900D01*
X107965500Y-108147098D01*
X107946593Y-108205289D01*
X107936504Y-108217102D01*
X106568025Y-109585580D01*
X106513508Y-109613357D01*
X106462259Y-109607891D01*
X106382460Y-109576977D01*
X106382447Y-109576974D01*
X106181976Y-109539500D01*
X105978024Y-109539500D01*
X105777546Y-109576975D01*
X105777541Y-109576977D01*
X105587363Y-109650652D01*
X105478678Y-109717947D01*
X105413959Y-109758019D01*
X105263237Y-109895420D01*
X105140328Y-110058177D01*
X105140323Y-110058186D01*
X105049419Y-110240747D01*
X105049418Y-110240750D01*
X104993603Y-110436917D01*
X104974785Y-110640000D01*
X104993603Y-110843083D01*
X105049418Y-111039250D01*
X105140327Y-111221821D01*
X105263236Y-111384579D01*
X105413959Y-111521981D01*
X105587363Y-111629348D01*
X105777544Y-111703024D01*
X105978024Y-111740500D01*
X106181976Y-111740500D01*
X106382456Y-111703024D01*
X106572637Y-111629348D01*
X106746041Y-111521981D01*
X106896764Y-111384579D01*
X107019673Y-111221821D01*
X107110582Y-111039250D01*
X107166397Y-110843083D01*
X107185215Y-110640000D01*
X107166397Y-110436917D01*
X107112118Y-110246148D01*
X107114379Y-110185010D01*
X107137333Y-110149058D01*
X108671483Y-108614909D01*
X108694050Y-108592342D01*
X108699560Y-108586832D01*
X108701741Y-108589013D01*
X108740058Y-108561159D01*
X108801243Y-108561143D01*
X108850752Y-108597094D01*
X108859296Y-108611178D01*
X108907630Y-108708248D01*
X108907635Y-108708256D01*
X109013235Y-108848092D01*
X109033214Y-108905923D01*
X109015385Y-108964454D01*
X108966558Y-109001326D01*
X108964829Y-109001906D01*
X108943910Y-109008703D01*
X108924393Y-109022884D01*
X108911150Y-109030999D01*
X108889658Y-109041950D01*
X108889656Y-109041951D01*
X108867090Y-109064516D01*
X108867091Y-109064517D01*
X107552516Y-110379091D01*
X107552515Y-110379092D01*
X107529950Y-110401658D01*
X107529948Y-110401660D01*
X107518997Y-110423151D01*
X107510887Y-110436385D01*
X107496706Y-110455906D01*
X107496701Y-110455915D01*
X107489249Y-110478852D01*
X107483305Y-110493202D01*
X107472355Y-110514691D01*
X107472352Y-110514701D01*
X107468577Y-110538529D01*
X107464953Y-110553624D01*
X107457501Y-110576562D01*
X107457500Y-110576569D01*
X107457500Y-113735098D01*
X107438593Y-113793289D01*
X107428504Y-113805102D01*
X106568025Y-114665580D01*
X106513508Y-114693357D01*
X106462259Y-114687891D01*
X106382460Y-114656977D01*
X106382447Y-114656974D01*
X106181976Y-114619500D01*
X105978024Y-114619500D01*
X105777546Y-114656975D01*
X105777541Y-114656977D01*
X105587363Y-114730652D01*
X105478676Y-114797948D01*
X105413959Y-114838019D01*
X105263237Y-114975420D01*
X105140328Y-115138177D01*
X105140323Y-115138186D01*
X105058450Y-115302611D01*
X105049418Y-115320750D01*
X104993603Y-115516917D01*
X104974785Y-115720000D01*
X104993603Y-115923083D01*
X105049418Y-116119250D01*
X105140327Y-116301821D01*
X105263236Y-116464579D01*
X105413959Y-116601981D01*
X105587363Y-116709348D01*
X105777544Y-116783024D01*
X105978024Y-116820500D01*
X106181976Y-116820500D01*
X106382456Y-116783024D01*
X106572637Y-116709348D01*
X106746041Y-116601981D01*
X106896764Y-116464579D01*
X107019673Y-116301821D01*
X107110582Y-116119250D01*
X107166397Y-115923083D01*
X107185215Y-115720000D01*
X108734571Y-115720000D01*
X108754244Y-115932310D01*
X108812595Y-116137389D01*
X108907634Y-116328255D01*
X109036128Y-116498407D01*
X109036135Y-116498413D01*
X109193692Y-116642047D01*
X109193699Y-116642053D01*
X109297389Y-116706255D01*
X109374981Y-116754298D01*
X109573802Y-116831321D01*
X109783390Y-116870500D01*
X109996610Y-116870500D01*
X110206198Y-116831321D01*
X110405019Y-116754298D01*
X110586302Y-116642052D01*
X110743872Y-116498407D01*
X110872366Y-116328255D01*
X110967405Y-116137389D01*
X111025756Y-115932310D01*
X111045429Y-115720000D01*
X111025756Y-115507690D01*
X110967405Y-115302611D01*
X110872366Y-115111745D01*
X110743872Y-114941593D01*
X110645286Y-114851719D01*
X110586307Y-114797952D01*
X110586300Y-114797946D01*
X110405024Y-114685705D01*
X110405019Y-114685702D01*
X110353078Y-114665580D01*
X110206198Y-114608679D01*
X110206197Y-114608678D01*
X110206195Y-114608678D01*
X109996610Y-114569500D01*
X109783390Y-114569500D01*
X109573804Y-114608678D01*
X109374980Y-114685702D01*
X109374975Y-114685705D01*
X109193699Y-114797946D01*
X109193692Y-114797952D01*
X109036135Y-114941586D01*
X109036131Y-114941589D01*
X109036128Y-114941593D01*
X109036125Y-114941597D01*
X108907635Y-115111743D01*
X108907630Y-115111752D01*
X108812596Y-115302608D01*
X108754244Y-115507688D01*
X108754244Y-115507690D01*
X108734571Y-115720000D01*
X107185215Y-115720000D01*
X107166397Y-115516917D01*
X107112118Y-115326148D01*
X107114379Y-115265010D01*
X107137333Y-115229058D01*
X108163484Y-114202909D01*
X108163484Y-114202908D01*
X108169127Y-114197266D01*
X108169133Y-114197257D01*
X108186050Y-114180342D01*
X108197004Y-114158841D01*
X108205110Y-114145613D01*
X108219296Y-114126089D01*
X108226750Y-114103146D01*
X108232691Y-114088802D01*
X108243646Y-114067304D01*
X108247421Y-114043467D01*
X108251046Y-114028371D01*
X108258500Y-114005433D01*
X108258500Y-113878567D01*
X108258500Y-110846900D01*
X108277407Y-110788709D01*
X108287496Y-110776897D01*
X108572368Y-110492024D01*
X108626885Y-110464246D01*
X108687317Y-110473817D01*
X108730582Y-110517082D01*
X108740949Y-110571160D01*
X108740449Y-110576567D01*
X108734571Y-110639999D01*
X108754244Y-110852311D01*
X108759426Y-110870522D01*
X108812595Y-111057389D01*
X108907634Y-111248255D01*
X109036128Y-111418407D01*
X109036135Y-111418413D01*
X109193692Y-111562047D01*
X109193699Y-111562053D01*
X109227785Y-111583158D01*
X109374981Y-111674298D01*
X109573802Y-111751321D01*
X109783390Y-111790500D01*
X109996610Y-111790500D01*
X110206198Y-111751321D01*
X110405019Y-111674298D01*
X110586302Y-111562052D01*
X110743872Y-111418407D01*
X110872366Y-111248255D01*
X110967405Y-111057389D01*
X111025756Y-110852310D01*
X111045429Y-110640000D01*
X111025756Y-110427690D01*
X110967405Y-110222611D01*
X110967401Y-110222604D01*
X110965752Y-110218344D01*
X110967132Y-110217809D01*
X110959019Y-110163364D01*
X110986648Y-110109743D01*
X114005484Y-107090909D01*
X114005485Y-107090906D01*
X114011127Y-107085265D01*
X114011129Y-107085261D01*
X114028050Y-107068342D01*
X114039004Y-107046841D01*
X114047110Y-107033613D01*
X114061296Y-107014089D01*
X114068750Y-106991146D01*
X114074691Y-106976802D01*
X114085646Y-106955304D01*
X114089421Y-106931467D01*
X114093046Y-106916371D01*
X114100500Y-106893433D01*
X114100500Y-106766567D01*
X114100500Y-92795900D01*
X114119407Y-92737709D01*
X114168907Y-92701745D01*
X114230093Y-92701745D01*
X114269501Y-92725894D01*
X115345557Y-93801950D01*
X116413348Y-94869741D01*
X116441125Y-94924258D01*
X116432904Y-94977818D01*
X116434249Y-94978339D01*
X116432598Y-94982598D01*
X116374244Y-95187688D01*
X116374244Y-95187689D01*
X116374244Y-95187690D01*
X116354571Y-95400000D01*
X116374244Y-95612310D01*
X116432595Y-95817389D01*
X116527634Y-96008255D01*
X116656128Y-96178407D01*
X116720759Y-96237326D01*
X116751024Y-96290500D01*
X116744253Y-96351309D01*
X116724066Y-96380490D01*
X115359216Y-97745341D01*
X115359215Y-97745342D01*
X115336650Y-97767908D01*
X115336648Y-97767910D01*
X115325697Y-97789401D01*
X115317587Y-97802635D01*
X115303406Y-97822156D01*
X115303401Y-97822165D01*
X115295949Y-97845102D01*
X115290005Y-97859452D01*
X115279055Y-97880941D01*
X115279052Y-97880951D01*
X115275277Y-97904779D01*
X115271653Y-97919874D01*
X115264201Y-97942812D01*
X115264200Y-97942819D01*
X115264200Y-107198398D01*
X115245293Y-107256589D01*
X115235204Y-107268402D01*
X110416673Y-112086932D01*
X110362156Y-112114709D01*
X110310907Y-112109243D01*
X110206198Y-112068679D01*
X110206197Y-112068678D01*
X110206195Y-112068678D01*
X109996610Y-112029500D01*
X109783390Y-112029500D01*
X109573804Y-112068678D01*
X109374980Y-112145702D01*
X109374975Y-112145705D01*
X109193699Y-112257946D01*
X109193692Y-112257952D01*
X109036135Y-112401586D01*
X109036131Y-112401589D01*
X109036128Y-112401593D01*
X109036125Y-112401597D01*
X108907635Y-112571743D01*
X108907630Y-112571752D01*
X108812596Y-112762608D01*
X108754244Y-112967688D01*
X108754244Y-112967690D01*
X108734571Y-113180000D01*
X108754244Y-113392310D01*
X108812595Y-113597389D01*
X108907634Y-113788255D01*
X109036128Y-113958407D01*
X109036135Y-113958413D01*
X109193692Y-114102047D01*
X109193699Y-114102053D01*
X109232519Y-114126089D01*
X109374981Y-114214298D01*
X109573802Y-114291321D01*
X109783390Y-114330500D01*
X109996610Y-114330500D01*
X110206198Y-114291321D01*
X110405019Y-114214298D01*
X110586302Y-114102052D01*
X110743872Y-113958407D01*
X110872366Y-113788255D01*
X110967405Y-113597389D01*
X111025756Y-113392310D01*
X111045429Y-113180000D01*
X111025756Y-112967690D01*
X110967405Y-112762611D01*
X110967401Y-112762604D01*
X110965752Y-112758344D01*
X110967132Y-112757809D01*
X110959019Y-112703364D01*
X110986648Y-112649743D01*
X115620897Y-108015494D01*
X115675413Y-107987719D01*
X115735845Y-107997290D01*
X115779110Y-108040555D01*
X115789900Y-108085500D01*
X115789900Y-111752698D01*
X115770993Y-111810889D01*
X115760904Y-111822702D01*
X110416673Y-117166932D01*
X110362156Y-117194709D01*
X110310907Y-117189243D01*
X110206198Y-117148679D01*
X110206197Y-117148678D01*
X110206195Y-117148678D01*
X109996610Y-117109500D01*
X109783390Y-117109500D01*
X109573804Y-117148678D01*
X109374980Y-117225702D01*
X109374975Y-117225705D01*
X109193699Y-117337946D01*
X109193692Y-117337952D01*
X109036135Y-117481586D01*
X109036131Y-117481589D01*
X109036128Y-117481593D01*
X109036125Y-117481597D01*
X108907635Y-117651743D01*
X108907630Y-117651752D01*
X108812596Y-117842608D01*
X108754244Y-118047688D01*
X108754244Y-118047690D01*
X108734571Y-118260000D01*
X108754244Y-118472310D01*
X108812595Y-118677389D01*
X108907634Y-118868255D01*
X109036128Y-119038407D01*
X109036135Y-119038413D01*
X109193692Y-119182047D01*
X109193699Y-119182053D01*
X109297389Y-119246255D01*
X109374981Y-119294298D01*
X109573802Y-119371321D01*
X109783390Y-119410500D01*
X109996610Y-119410500D01*
X110206198Y-119371321D01*
X110405019Y-119294298D01*
X110586302Y-119182052D01*
X110743872Y-119038407D01*
X110872366Y-118868255D01*
X110967405Y-118677389D01*
X111025756Y-118472310D01*
X111045429Y-118260000D01*
X116354571Y-118260000D01*
X116374244Y-118472310D01*
X116432595Y-118677389D01*
X116527634Y-118868255D01*
X116656128Y-119038407D01*
X116656135Y-119038413D01*
X116813692Y-119182047D01*
X116813699Y-119182053D01*
X116917389Y-119246255D01*
X116994981Y-119294298D01*
X117193802Y-119371321D01*
X117403390Y-119410500D01*
X117616610Y-119410500D01*
X117826198Y-119371321D01*
X118025019Y-119294298D01*
X118206302Y-119182052D01*
X118223990Y-119165926D01*
X118279729Y-119140695D01*
X118339655Y-119153046D01*
X118360691Y-119169083D01*
X120230896Y-121039288D01*
X120256112Y-121082198D01*
X120289417Y-121199248D01*
X120289418Y-121199250D01*
X120380327Y-121381821D01*
X120503236Y-121544579D01*
X120653959Y-121681981D01*
X120827363Y-121789348D01*
X121017544Y-121863024D01*
X121218024Y-121900500D01*
X121421976Y-121900500D01*
X121622456Y-121863024D01*
X121812637Y-121789348D01*
X121986041Y-121681981D01*
X122136764Y-121544579D01*
X122259673Y-121381821D01*
X122350582Y-121199250D01*
X122406397Y-121003083D01*
X122425215Y-120800000D01*
X122406397Y-120596917D01*
X122350582Y-120400750D01*
X122259673Y-120218179D01*
X122136764Y-120055421D01*
X121986041Y-119918019D01*
X121812637Y-119810652D01*
X121622456Y-119736976D01*
X121622455Y-119736975D01*
X121622453Y-119736975D01*
X121421976Y-119699500D01*
X121218024Y-119699500D01*
X121017546Y-119736975D01*
X120947632Y-119764059D01*
X120827363Y-119810652D01*
X120718670Y-119877952D01*
X120653956Y-119918021D01*
X120508528Y-120050595D01*
X120452787Y-120075825D01*
X120392861Y-120063472D01*
X120371829Y-120047437D01*
X118691418Y-118367025D01*
X118663641Y-118312508D01*
X118662845Y-118287884D01*
X118665429Y-118260004D01*
X118665429Y-118260003D01*
X118665429Y-118260000D01*
X120214785Y-118260000D01*
X120233603Y-118463083D01*
X120289418Y-118659250D01*
X120380327Y-118841821D01*
X120503236Y-119004579D01*
X120653959Y-119141981D01*
X120827363Y-119249348D01*
X121017544Y-119323024D01*
X121218024Y-119360500D01*
X121421976Y-119360500D01*
X121622456Y-119323024D01*
X121812637Y-119249348D01*
X121986041Y-119141981D01*
X122136764Y-119004579D01*
X122259673Y-118841821D01*
X122350582Y-118659250D01*
X122406397Y-118463083D01*
X122425215Y-118260000D01*
X122406397Y-118056917D01*
X122350582Y-117860750D01*
X122259673Y-117678179D01*
X122136764Y-117515421D01*
X121986041Y-117378019D01*
X121812637Y-117270652D01*
X121622456Y-117196976D01*
X121622455Y-117196975D01*
X121622453Y-117196975D01*
X121421976Y-117159500D01*
X121218024Y-117159500D01*
X121017546Y-117196975D01*
X120977353Y-117212546D01*
X120827363Y-117270652D01*
X120718676Y-117337948D01*
X120653959Y-117378019D01*
X120503237Y-117515420D01*
X120380328Y-117678177D01*
X120380323Y-117678186D01*
X120298450Y-117842611D01*
X120289418Y-117860750D01*
X120233603Y-118056917D01*
X120214785Y-118260000D01*
X118665429Y-118260000D01*
X118645756Y-118047690D01*
X118587405Y-117842611D01*
X118492366Y-117651745D01*
X118363872Y-117481593D01*
X118309623Y-117432139D01*
X118206307Y-117337952D01*
X118206300Y-117337946D01*
X118025024Y-117225705D01*
X118025019Y-117225702D01*
X117945016Y-117194709D01*
X117826198Y-117148679D01*
X117826197Y-117148678D01*
X117826195Y-117148678D01*
X117616610Y-117109500D01*
X117403390Y-117109500D01*
X117193804Y-117148678D01*
X116994980Y-117225702D01*
X116994975Y-117225705D01*
X116813699Y-117337946D01*
X116813692Y-117337952D01*
X116656135Y-117481586D01*
X116656131Y-117481589D01*
X116656128Y-117481593D01*
X116656125Y-117481597D01*
X116527635Y-117651743D01*
X116527630Y-117651752D01*
X116432596Y-117842608D01*
X116374244Y-118047688D01*
X116374244Y-118047690D01*
X116354571Y-118260000D01*
X111045429Y-118260000D01*
X111025756Y-118047690D01*
X110967405Y-117842611D01*
X110967401Y-117842604D01*
X110965752Y-117838344D01*
X110967132Y-117837809D01*
X110959019Y-117783364D01*
X110986648Y-117729743D01*
X115536392Y-113180000D01*
X116354571Y-113180000D01*
X116374244Y-113392310D01*
X116432595Y-113597389D01*
X116527634Y-113788255D01*
X116656128Y-113958407D01*
X116656135Y-113958413D01*
X116813692Y-114102047D01*
X116813699Y-114102053D01*
X116852519Y-114126089D01*
X116994981Y-114214298D01*
X117193802Y-114291321D01*
X117403390Y-114330500D01*
X117616610Y-114330500D01*
X117826198Y-114291321D01*
X118025019Y-114214298D01*
X118206302Y-114102052D01*
X118363872Y-113958407D01*
X118492366Y-113788255D01*
X118587405Y-113597389D01*
X118645756Y-113392310D01*
X118665429Y-113180000D01*
X118645756Y-112967690D01*
X118587405Y-112762611D01*
X118492366Y-112571745D01*
X118363872Y-112401593D01*
X118309623Y-112352139D01*
X118206307Y-112257952D01*
X118206300Y-112257946D01*
X118025024Y-112145705D01*
X118025019Y-112145702D01*
X117960618Y-112120753D01*
X117826198Y-112068679D01*
X117826197Y-112068678D01*
X117826195Y-112068678D01*
X117616610Y-112029500D01*
X117403390Y-112029500D01*
X117193804Y-112068678D01*
X116994980Y-112145702D01*
X116994975Y-112145705D01*
X116813699Y-112257946D01*
X116813692Y-112257952D01*
X116656135Y-112401586D01*
X116656131Y-112401589D01*
X116656128Y-112401593D01*
X116656125Y-112401597D01*
X116527635Y-112571743D01*
X116527630Y-112571752D01*
X116432596Y-112762608D01*
X116374244Y-112967688D01*
X116374244Y-112967690D01*
X116354571Y-113180000D01*
X115536392Y-113180000D01*
X116495883Y-112220509D01*
X116518450Y-112197942D01*
X116529402Y-112176443D01*
X116537515Y-112163205D01*
X116551696Y-112143690D01*
X116559151Y-112120742D01*
X116565090Y-112106402D01*
X116576046Y-112084904D01*
X116579821Y-112061065D01*
X116583443Y-112045982D01*
X116590900Y-112023033D01*
X116590900Y-111896167D01*
X116590900Y-111583158D01*
X116609807Y-111524967D01*
X116659307Y-111489003D01*
X116720493Y-111489003D01*
X116756595Y-111509995D01*
X116813693Y-111562047D01*
X116813698Y-111562052D01*
X116813699Y-111562053D01*
X116847785Y-111583158D01*
X116994981Y-111674298D01*
X117193802Y-111751321D01*
X117403390Y-111790500D01*
X117616610Y-111790500D01*
X117826198Y-111751321D01*
X118025019Y-111674298D01*
X118206302Y-111562052D01*
X118363872Y-111418407D01*
X118492366Y-111248255D01*
X118587405Y-111057389D01*
X118645756Y-110852310D01*
X118665429Y-110640000D01*
X118645756Y-110427690D01*
X118587405Y-110222611D01*
X118492366Y-110031745D01*
X118363872Y-109861593D01*
X118277531Y-109782882D01*
X118206307Y-109717952D01*
X118206300Y-109717946D01*
X118025024Y-109605705D01*
X118025019Y-109605702D01*
X117973078Y-109585580D01*
X117826198Y-109528679D01*
X117826197Y-109528678D01*
X117826195Y-109528678D01*
X117616610Y-109489500D01*
X117403390Y-109489500D01*
X117193804Y-109528678D01*
X116994980Y-109605702D01*
X116994975Y-109605705D01*
X116813699Y-109717946D01*
X116813698Y-109717947D01*
X116769743Y-109758018D01*
X116765454Y-109761929D01*
X116756596Y-109770004D01*
X116700855Y-109795234D01*
X116640929Y-109782882D01*
X116599709Y-109737666D01*
X116590900Y-109696842D01*
X116590900Y-109043158D01*
X116609807Y-108984967D01*
X116659307Y-108949003D01*
X116720493Y-108949003D01*
X116756595Y-108969995D01*
X116769743Y-108981981D01*
X116813698Y-109022052D01*
X116813699Y-109022053D01*
X116882281Y-109064517D01*
X116994981Y-109134298D01*
X117193802Y-109211321D01*
X117403390Y-109250500D01*
X117616610Y-109250500D01*
X117826198Y-109211321D01*
X118025019Y-109134298D01*
X118206302Y-109022052D01*
X118363872Y-108878407D01*
X118492366Y-108708255D01*
X118568492Y-108555372D01*
X118611354Y-108511710D01*
X118657113Y-108500500D01*
X120228742Y-108500500D01*
X120286933Y-108519407D01*
X120317362Y-108555371D01*
X120380327Y-108681821D01*
X120503236Y-108844579D01*
X120653959Y-108981981D01*
X120827363Y-109089348D01*
X121017544Y-109163024D01*
X121218024Y-109200500D01*
X121421976Y-109200500D01*
X121622456Y-109163024D01*
X121812637Y-109089348D01*
X121986041Y-108981981D01*
X122136764Y-108844579D01*
X122259673Y-108681821D01*
X122350582Y-108499250D01*
X122406397Y-108303083D01*
X122425215Y-108100000D01*
X122406397Y-107896917D01*
X122350582Y-107700750D01*
X122259673Y-107518179D01*
X122136764Y-107355421D01*
X121986041Y-107218019D01*
X121812637Y-107110652D01*
X121622456Y-107036976D01*
X121622455Y-107036975D01*
X121622453Y-107036975D01*
X121421976Y-106999500D01*
X121218024Y-106999500D01*
X121017546Y-107036975D01*
X120947632Y-107064059D01*
X120827363Y-107110652D01*
X120718678Y-107177947D01*
X120653959Y-107218019D01*
X120503237Y-107355420D01*
X120380328Y-107518177D01*
X120380323Y-107518186D01*
X120317363Y-107644628D01*
X120274500Y-107688291D01*
X120228742Y-107699500D01*
X118657113Y-107699500D01*
X118598922Y-107680593D01*
X118568492Y-107644628D01*
X118492369Y-107491752D01*
X118492366Y-107491745D01*
X118363872Y-107321593D01*
X118305525Y-107268402D01*
X118206307Y-107177952D01*
X118206300Y-107177946D01*
X118025024Y-107065705D01*
X118025019Y-107065702D01*
X117826198Y-106988679D01*
X117826197Y-106988678D01*
X117826195Y-106988678D01*
X117616610Y-106949500D01*
X117403390Y-106949500D01*
X117193804Y-106988678D01*
X116994980Y-107065702D01*
X116994975Y-107065705D01*
X116813699Y-107177946D01*
X116813698Y-107177947D01*
X116756596Y-107230004D01*
X116700855Y-107255234D01*
X116640929Y-107242882D01*
X116599709Y-107197666D01*
X116590900Y-107156842D01*
X116590900Y-106503158D01*
X116609807Y-106444967D01*
X116659307Y-106409003D01*
X116720493Y-106409003D01*
X116756595Y-106429995D01*
X116769743Y-106441981D01*
X116813698Y-106482052D01*
X116813699Y-106482053D01*
X116847785Y-106503158D01*
X116994981Y-106594298D01*
X117193802Y-106671321D01*
X117403390Y-106710500D01*
X117616610Y-106710500D01*
X117826198Y-106671321D01*
X118025019Y-106594298D01*
X118206302Y-106482052D01*
X118363872Y-106338407D01*
X118492366Y-106168255D01*
X118568492Y-106015372D01*
X118611354Y-105971710D01*
X118657113Y-105960500D01*
X120228742Y-105960500D01*
X120286933Y-105979407D01*
X120317362Y-106015371D01*
X120380327Y-106141821D01*
X120503236Y-106304579D01*
X120653959Y-106441981D01*
X120827363Y-106549348D01*
X121017544Y-106623024D01*
X121218024Y-106660500D01*
X121421976Y-106660500D01*
X121622456Y-106623024D01*
X121812637Y-106549348D01*
X121986041Y-106441981D01*
X122136764Y-106304579D01*
X122259673Y-106141821D01*
X122350582Y-105959250D01*
X122406397Y-105763083D01*
X122425215Y-105560000D01*
X122425214Y-105559997D01*
X122425549Y-105556391D01*
X122449745Y-105500194D01*
X122502352Y-105468950D01*
X122563277Y-105474596D01*
X122594126Y-105495519D01*
X122668505Y-105569897D01*
X122696281Y-105624412D01*
X122697500Y-105639899D01*
X122697500Y-109761929D01*
X122678593Y-109820120D01*
X122671276Y-109828687D01*
X122573462Y-109956160D01*
X122573462Y-109956161D01*
X122512957Y-110102233D01*
X122512955Y-110102240D01*
X122506885Y-110148351D01*
X122480544Y-110203576D01*
X122426773Y-110232770D01*
X122366111Y-110224784D01*
X122321729Y-110182666D01*
X122320111Y-110179556D01*
X122259673Y-110058179D01*
X122136764Y-109895421D01*
X121986041Y-109758019D01*
X121812637Y-109650652D01*
X121622456Y-109576976D01*
X121622455Y-109576975D01*
X121622453Y-109576975D01*
X121421976Y-109539500D01*
X121218024Y-109539500D01*
X121017546Y-109576975D01*
X121017541Y-109576977D01*
X120827363Y-109650652D01*
X120718678Y-109717947D01*
X120653959Y-109758019D01*
X120503237Y-109895420D01*
X120380328Y-110058177D01*
X120380323Y-110058186D01*
X120289419Y-110240747D01*
X120289418Y-110240750D01*
X120233603Y-110436917D01*
X120214785Y-110640000D01*
X120233603Y-110843083D01*
X120289418Y-111039250D01*
X120380327Y-111221821D01*
X120503236Y-111384579D01*
X120653959Y-111521981D01*
X120827363Y-111629348D01*
X121017544Y-111703024D01*
X121218024Y-111740500D01*
X121421976Y-111740500D01*
X121622456Y-111703024D01*
X121812637Y-111629348D01*
X121986041Y-111521981D01*
X122136764Y-111384579D01*
X122259673Y-111221821D01*
X122350582Y-111039250D01*
X122406397Y-110843083D01*
X122424338Y-110649454D01*
X122448534Y-110593259D01*
X122501141Y-110562015D01*
X122562065Y-110567661D01*
X122601458Y-110598324D01*
X122652955Y-110665437D01*
X122669718Y-110687282D01*
X122795159Y-110783536D01*
X122909233Y-110830787D01*
X122955758Y-110870522D01*
X122970042Y-110930017D01*
X122946628Y-110986545D01*
X122941351Y-110992254D01*
X121808025Y-112125580D01*
X121753508Y-112153357D01*
X121702259Y-112147891D01*
X121622460Y-112116977D01*
X121622447Y-112116974D01*
X121421976Y-112079500D01*
X121218024Y-112079500D01*
X121017546Y-112116975D01*
X121017541Y-112116977D01*
X120827363Y-112190652D01*
X120718676Y-112257948D01*
X120653959Y-112298019D01*
X120503237Y-112435420D01*
X120380328Y-112598177D01*
X120380323Y-112598186D01*
X120289419Y-112780747D01*
X120289418Y-112780750D01*
X120233603Y-112976917D01*
X120214785Y-113180000D01*
X120233603Y-113383083D01*
X120289418Y-113579250D01*
X120380327Y-113761821D01*
X120477759Y-113890842D01*
X120497737Y-113948670D01*
X120479908Y-114007201D01*
X120431082Y-114044073D01*
X120398754Y-114049500D01*
X118744403Y-114049500D01*
X118744379Y-114049501D01*
X118716563Y-114049501D01*
X118693626Y-114056954D01*
X118678524Y-114060580D01*
X118654693Y-114064354D01*
X118633198Y-114075306D01*
X118618853Y-114081248D01*
X118595911Y-114088703D01*
X118576393Y-114102884D01*
X118563150Y-114110999D01*
X118541658Y-114121950D01*
X118541656Y-114121951D01*
X118519089Y-114144518D01*
X118036673Y-114626932D01*
X117982157Y-114654709D01*
X117930908Y-114649243D01*
X117826197Y-114608678D01*
X117616610Y-114569500D01*
X117403390Y-114569500D01*
X117193804Y-114608678D01*
X116994980Y-114685702D01*
X116994975Y-114685705D01*
X116813699Y-114797946D01*
X116813692Y-114797952D01*
X116656135Y-114941586D01*
X116656131Y-114941589D01*
X116656128Y-114941593D01*
X116656125Y-114941597D01*
X116527635Y-115111743D01*
X116527630Y-115111752D01*
X116432596Y-115302608D01*
X116374244Y-115507688D01*
X116374244Y-115507690D01*
X116354571Y-115720000D01*
X116374244Y-115932310D01*
X116432595Y-116137389D01*
X116527634Y-116328255D01*
X116656128Y-116498407D01*
X116656135Y-116498413D01*
X116813692Y-116642047D01*
X116813699Y-116642053D01*
X116917389Y-116706255D01*
X116994981Y-116754298D01*
X117193802Y-116831321D01*
X117403390Y-116870500D01*
X117616610Y-116870500D01*
X117826198Y-116831321D01*
X118025019Y-116754298D01*
X118206302Y-116642052D01*
X118363872Y-116498407D01*
X118492366Y-116328255D01*
X118587405Y-116137389D01*
X118645756Y-115932310D01*
X118665429Y-115720000D01*
X118645756Y-115507690D01*
X118587405Y-115302611D01*
X118587401Y-115302604D01*
X118585752Y-115298344D01*
X118587132Y-115297809D01*
X118579019Y-115243364D01*
X118606651Y-115189741D01*
X118916897Y-114879496D01*
X118971413Y-114851719D01*
X118986900Y-114850500D01*
X120398754Y-114850500D01*
X120456945Y-114869407D01*
X120492909Y-114918907D01*
X120492909Y-114980093D01*
X120477760Y-115009155D01*
X120408783Y-115100496D01*
X120380328Y-115138177D01*
X120380323Y-115138186D01*
X120298450Y-115302611D01*
X120289418Y-115320750D01*
X120233603Y-115516917D01*
X120214785Y-115720000D01*
X120233603Y-115923083D01*
X120289418Y-116119250D01*
X120380327Y-116301821D01*
X120503236Y-116464579D01*
X120653959Y-116601981D01*
X120827363Y-116709348D01*
X121017544Y-116783024D01*
X121218024Y-116820500D01*
X121421976Y-116820500D01*
X121622456Y-116783024D01*
X121812637Y-116709348D01*
X121986041Y-116601981D01*
X122136764Y-116464579D01*
X122259673Y-116301821D01*
X122350582Y-116119250D01*
X122406397Y-115923083D01*
X122425215Y-115720000D01*
X122406397Y-115516917D01*
X122350582Y-115320750D01*
X122259673Y-115138179D01*
X122136764Y-114975421D01*
X122127385Y-114966871D01*
X122097121Y-114913699D01*
X122103890Y-114852889D01*
X122135893Y-114813617D01*
X122139085Y-114811297D01*
X122139090Y-114811296D01*
X122158613Y-114797110D01*
X122171849Y-114789000D01*
X122193342Y-114778050D01*
X122210261Y-114761129D01*
X122210265Y-114761127D01*
X122215907Y-114755485D01*
X122215909Y-114755484D01*
X124233498Y-112737894D01*
X124288013Y-112710119D01*
X124348445Y-112719690D01*
X124391710Y-112762955D01*
X124402500Y-112807900D01*
X124402500Y-129527257D01*
X124383593Y-129585448D01*
X124373504Y-129597261D01*
X121100261Y-132870504D01*
X121045744Y-132898281D01*
X121030257Y-132899500D01*
X118547518Y-132899500D01*
X118489327Y-132880593D01*
X118468516Y-132860163D01*
X118363872Y-132721593D01*
X118309623Y-132672139D01*
X118206307Y-132577952D01*
X118206300Y-132577946D01*
X118025024Y-132465705D01*
X118025019Y-132465702D01*
X117826195Y-132388678D01*
X117616610Y-132349500D01*
X117403390Y-132349500D01*
X117193804Y-132388678D01*
X116994980Y-132465702D01*
X116994975Y-132465705D01*
X116813699Y-132577946D01*
X116813692Y-132577952D01*
X116656135Y-132721586D01*
X116656131Y-132721589D01*
X116656128Y-132721593D01*
X116551484Y-132860161D01*
X116501329Y-132895204D01*
X116472482Y-132899500D01*
X113249499Y-132899500D01*
X113191308Y-132880593D01*
X113155344Y-132831093D01*
X113150499Y-132800500D01*
X113150499Y-131856579D01*
X113169406Y-131798388D01*
X113218906Y-131762424D01*
X113260081Y-131758146D01*
X113321976Y-131764800D01*
X113449999Y-131764800D01*
X113450000Y-131764799D01*
X113950000Y-131764799D01*
X113950001Y-131764800D01*
X114078024Y-131764800D01*
X114137570Y-131758398D01*
X114137581Y-131758396D01*
X114272288Y-131708153D01*
X114272290Y-131708152D01*
X114387384Y-131621992D01*
X114387392Y-131621984D01*
X114473552Y-131506890D01*
X114473553Y-131506888D01*
X114523796Y-131372181D01*
X114523798Y-131372170D01*
X114530200Y-131312624D01*
X114530200Y-130702001D01*
X114530199Y-130702000D01*
X113950001Y-130702000D01*
X113950000Y-130702001D01*
X113950000Y-131764799D01*
X113450000Y-131764799D01*
X113450000Y-130201999D01*
X113950000Y-130201999D01*
X113950001Y-130202000D01*
X114530199Y-130202000D01*
X114530200Y-130201999D01*
X114530200Y-129674600D01*
X114549107Y-129616409D01*
X114598607Y-129580445D01*
X114659793Y-129580445D01*
X114699201Y-129604594D01*
X116360091Y-131265484D01*
X116360094Y-131265486D01*
X116360093Y-131265486D01*
X116382655Y-131288047D01*
X116382658Y-131288050D01*
X116382661Y-131288051D01*
X116385897Y-131290403D01*
X116421859Y-131339905D01*
X116422923Y-131343399D01*
X116432594Y-131377388D01*
X116497077Y-131506888D01*
X116527634Y-131568255D01*
X116656128Y-131738407D01*
X116685080Y-131764800D01*
X116813692Y-131882047D01*
X116813699Y-131882053D01*
X116917389Y-131946255D01*
X116994981Y-131994298D01*
X117193802Y-132071321D01*
X117403390Y-132110500D01*
X117616610Y-132110500D01*
X117826198Y-132071321D01*
X118025019Y-131994298D01*
X118206302Y-131882052D01*
X118363872Y-131738407D01*
X118492366Y-131568255D01*
X118587405Y-131377389D01*
X118645756Y-131172310D01*
X118665429Y-130960000D01*
X118645756Y-130747690D01*
X118587405Y-130542611D01*
X118492366Y-130351745D01*
X118363872Y-130181593D01*
X118296132Y-130119839D01*
X118206307Y-130037952D01*
X118206300Y-130037946D01*
X118025024Y-129925705D01*
X118025019Y-129925702D01*
X117826195Y-129848678D01*
X117616610Y-129809500D01*
X117403390Y-129809500D01*
X117193804Y-129848678D01*
X116994980Y-129925702D01*
X116994975Y-129925705D01*
X116813699Y-130037946D01*
X116813692Y-130037952D01*
X116656135Y-130181586D01*
X116656131Y-130181589D01*
X116656128Y-130181593D01*
X116656125Y-130181596D01*
X116656123Y-130181599D01*
X116618354Y-130231612D01*
X116568197Y-130266654D01*
X116507022Y-130265523D01*
X116469347Y-130241954D01*
X115309696Y-129082303D01*
X115281919Y-129027786D01*
X115280700Y-129012299D01*
X115280700Y-128420000D01*
X116354571Y-128420000D01*
X116374244Y-128632310D01*
X116432595Y-128837389D01*
X116527634Y-129028255D01*
X116656128Y-129198407D01*
X116656135Y-129198413D01*
X116813692Y-129342047D01*
X116813699Y-129342053D01*
X116883071Y-129385006D01*
X116994981Y-129454298D01*
X117193802Y-129531321D01*
X117403390Y-129570500D01*
X117616610Y-129570500D01*
X117826198Y-129531321D01*
X118025019Y-129454298D01*
X118206302Y-129342052D01*
X118363872Y-129198407D01*
X118492366Y-129028255D01*
X118587405Y-128837389D01*
X118645756Y-128632310D01*
X118665429Y-128420000D01*
X118645756Y-128207690D01*
X118587405Y-128002611D01*
X118492366Y-127811745D01*
X118363872Y-127641593D01*
X118309623Y-127592139D01*
X118206307Y-127497952D01*
X118206300Y-127497946D01*
X118025024Y-127385705D01*
X118025019Y-127385702D01*
X117826195Y-127308678D01*
X117616610Y-127269500D01*
X117403390Y-127269500D01*
X117193804Y-127308678D01*
X116994980Y-127385702D01*
X116994975Y-127385705D01*
X116813699Y-127497946D01*
X116813692Y-127497952D01*
X116656135Y-127641586D01*
X116656131Y-127641589D01*
X116656128Y-127641593D01*
X116656125Y-127641597D01*
X116527635Y-127811743D01*
X116527630Y-127811752D01*
X116432596Y-128002608D01*
X116374244Y-128207688D01*
X116374244Y-128207690D01*
X116354571Y-128420000D01*
X115280700Y-128420000D01*
X115280700Y-127462339D01*
X115280700Y-127462336D01*
X115277786Y-127437209D01*
X115232407Y-127334435D01*
X115152966Y-127254994D01*
X115050192Y-127209615D01*
X115050191Y-127209614D01*
X115050189Y-127209614D01*
X115025069Y-127206700D01*
X114274940Y-127206700D01*
X114274937Y-127206701D01*
X114249810Y-127209614D01*
X114147036Y-127254994D01*
X114067595Y-127334435D01*
X114022215Y-127437211D01*
X114019301Y-127462330D01*
X114019301Y-127462332D01*
X114019302Y-129040200D01*
X114000395Y-129098391D01*
X113965343Y-129123857D01*
X113950000Y-129139201D01*
X113950000Y-130201999D01*
X113450000Y-130201999D01*
X113450000Y-129139201D01*
X113435704Y-129124905D01*
X113421508Y-129120293D01*
X113385544Y-129070793D01*
X113380699Y-129040200D01*
X113380698Y-127462339D01*
X113380698Y-127462336D01*
X113377784Y-127437209D01*
X113332405Y-127334435D01*
X113252964Y-127254994D01*
X113150190Y-127209615D01*
X113150189Y-127209614D01*
X113150187Y-127209614D01*
X113125067Y-127206700D01*
X112374938Y-127206700D01*
X112374935Y-127206701D01*
X112349808Y-127209614D01*
X112247034Y-127254994D01*
X112167593Y-127334435D01*
X112122213Y-127437211D01*
X112119299Y-127462330D01*
X112119299Y-129177660D01*
X112119300Y-129177663D01*
X112122213Y-129202790D01*
X112147555Y-129260185D01*
X112167593Y-129305565D01*
X112247034Y-129385006D01*
X112290487Y-129404192D01*
X112336082Y-129444991D01*
X112349499Y-129494756D01*
X112349499Y-132800500D01*
X112330592Y-132858691D01*
X112281092Y-132894655D01*
X112250499Y-132899500D01*
X110927518Y-132899500D01*
X110869327Y-132880593D01*
X110848516Y-132860163D01*
X110743872Y-132721593D01*
X110689623Y-132672139D01*
X110586307Y-132577952D01*
X110586300Y-132577946D01*
X110405024Y-132465705D01*
X110405019Y-132465702D01*
X110206195Y-132388678D01*
X109996610Y-132349500D01*
X109783390Y-132349500D01*
X109573804Y-132388678D01*
X109374980Y-132465702D01*
X109374975Y-132465705D01*
X109193699Y-132577946D01*
X109193692Y-132577952D01*
X109036135Y-132721586D01*
X109036131Y-132721589D01*
X109036128Y-132721593D01*
X109036125Y-132721597D01*
X108907635Y-132891743D01*
X108907630Y-132891752D01*
X108812596Y-133082608D01*
X108754244Y-133287688D01*
X108754244Y-133287690D01*
X108734571Y-133500000D01*
X108754244Y-133712310D01*
X108808198Y-133901937D01*
X108812596Y-133917391D01*
X108903772Y-134100500D01*
X108907634Y-134108255D01*
X109036128Y-134278407D01*
X109036135Y-134278413D01*
X109193692Y-134422047D01*
X109193699Y-134422053D01*
X109297389Y-134486255D01*
X109374981Y-134534298D01*
X109573802Y-134611321D01*
X109783390Y-134650500D01*
X109996610Y-134650500D01*
X110206198Y-134611321D01*
X110405019Y-134534298D01*
X110586302Y-134422052D01*
X110743872Y-134278407D01*
X110848515Y-134139838D01*
X110898671Y-134104796D01*
X110927518Y-134100500D01*
X116472482Y-134100500D01*
X116530673Y-134119407D01*
X116551483Y-134139836D01*
X116656128Y-134278407D01*
X116656135Y-134278413D01*
X116813692Y-134422047D01*
X116813699Y-134422053D01*
X116917389Y-134486255D01*
X116994981Y-134534298D01*
X117193802Y-134611321D01*
X117403390Y-134650500D01*
X117616610Y-134650500D01*
X117826198Y-134611321D01*
X118025019Y-134534298D01*
X118206302Y-134422052D01*
X118363872Y-134278407D01*
X118468515Y-134139838D01*
X118518671Y-134104796D01*
X118547518Y-134100500D01*
X121274150Y-134100500D01*
X121287072Y-134101347D01*
X121319999Y-134105682D01*
X121320000Y-134105682D01*
X121320001Y-134105682D01*
X121359361Y-134100500D01*
X121476762Y-134085044D01*
X121622841Y-134024536D01*
X121651869Y-134002262D01*
X121748280Y-133928284D01*
X121748282Y-133928282D01*
X121768498Y-133901933D01*
X121777028Y-133892205D01*
X125395205Y-130274028D01*
X125404937Y-130265496D01*
X125431282Y-130245282D01*
X125431284Y-130245280D01*
X125480152Y-130181593D01*
X125527536Y-130119841D01*
X125588044Y-129973762D01*
X125594371Y-129925702D01*
X125608683Y-129817000D01*
X125604347Y-129784065D01*
X125603500Y-129771143D01*
X125603500Y-76218049D01*
X125604347Y-76205127D01*
X125608682Y-76172200D01*
X125608682Y-76172199D01*
X125591872Y-76044516D01*
X125588044Y-76015438D01*
X125576970Y-75988704D01*
X125527537Y-75869361D01*
X125527535Y-75869357D01*
X125455450Y-75775414D01*
X125431286Y-75743923D01*
X125431285Y-75743922D01*
X125431282Y-75743918D01*
X125431277Y-75743914D01*
X125431276Y-75743913D01*
X125404936Y-75723702D01*
X125395199Y-75715164D01*
X124715296Y-75035261D01*
X124687519Y-74980744D01*
X124686300Y-74965257D01*
X124686300Y-74737883D01*
X124686300Y-74737882D01*
X124675917Y-74651423D01*
X124621662Y-74513842D01*
X124540634Y-74406990D01*
X124520540Y-74349201D01*
X124538251Y-74290635D01*
X124567548Y-74262912D01*
X124608835Y-74237446D01*
X124730746Y-74115535D01*
X124821251Y-73968806D01*
X124875481Y-73805148D01*
X124885800Y-73704155D01*
X124885800Y-73605001D01*
X124885799Y-73605000D01*
X122935802Y-73605000D01*
X122935801Y-73605001D01*
X122935801Y-73704154D01*
X122946117Y-73805142D01*
X122946120Y-73805154D01*
X123000348Y-73968806D01*
X123090853Y-74115535D01*
X123212762Y-74237444D01*
X123254052Y-74262912D01*
X123293654Y-74309553D01*
X123298277Y-74370563D01*
X123280964Y-74406991D01*
X123255692Y-74440318D01*
X123205466Y-74475261D01*
X123176808Y-74479500D01*
X122294863Y-74479500D01*
X122236672Y-74460593D01*
X122215861Y-74440163D01*
X122136764Y-74335421D01*
X121986041Y-74198019D01*
X121812637Y-74090652D01*
X121622456Y-74016976D01*
X121622455Y-74016975D01*
X121622453Y-74016975D01*
X121421976Y-73979500D01*
X121218024Y-73979500D01*
X121017544Y-74016975D01*
X120937739Y-74047892D01*
X120876648Y-74051282D01*
X120831973Y-74025581D01*
X119911391Y-73104999D01*
X122935800Y-73104999D01*
X122935801Y-73105000D01*
X123660799Y-73105000D01*
X123660800Y-73104999D01*
X124160800Y-73104999D01*
X124160801Y-73105000D01*
X124885798Y-73105000D01*
X124885799Y-73104999D01*
X124885799Y-73005845D01*
X124875482Y-72904857D01*
X124875479Y-72904845D01*
X124821251Y-72741193D01*
X124730746Y-72594464D01*
X124608835Y-72472553D01*
X124462106Y-72382048D01*
X124298448Y-72327818D01*
X124197455Y-72317500D01*
X124160801Y-72317500D01*
X124160800Y-72317501D01*
X124160800Y-73104999D01*
X123660800Y-73104999D01*
X123660800Y-72317500D01*
X123624157Y-72317500D01*
X123624151Y-72317501D01*
X123523157Y-72327817D01*
X123523145Y-72327820D01*
X123359493Y-72382048D01*
X123212764Y-72472553D01*
X123090853Y-72594464D01*
X123000348Y-72741193D01*
X122946118Y-72904851D01*
X122935800Y-73005844D01*
X122935800Y-73104999D01*
X119911391Y-73104999D01*
X119711237Y-72904845D01*
X118278909Y-71472516D01*
X118278905Y-71472513D01*
X118276423Y-71470031D01*
X118276423Y-71470030D01*
X118256343Y-71449951D01*
X118256342Y-71449950D01*
X118234847Y-71438997D01*
X118221608Y-71430884D01*
X118209770Y-71422284D01*
X118202090Y-71416704D01*
X118202088Y-71416703D01*
X118179142Y-71409247D01*
X118164788Y-71403301D01*
X118143306Y-71392354D01*
X118119474Y-71388579D01*
X118104374Y-71384953D01*
X118081437Y-71377500D01*
X118081433Y-71377500D01*
X118049519Y-71377500D01*
X115228872Y-71377500D01*
X115170681Y-71358593D01*
X115138307Y-71318488D01*
X115133504Y-71307610D01*
X115107906Y-71249635D01*
X115028465Y-71170194D01*
X114925691Y-71124815D01*
X114925690Y-71124814D01*
X114925688Y-71124814D01*
X114900568Y-71121900D01*
X114048839Y-71121900D01*
X114048836Y-71121901D01*
X114023709Y-71124814D01*
X113920935Y-71170194D01*
X113841494Y-71249635D01*
X113796115Y-71352409D01*
X113796114Y-71352411D01*
X113793108Y-71359221D01*
X113791084Y-71358327D01*
X113763411Y-71400580D01*
X113706204Y-71422284D01*
X113701409Y-71422400D01*
X113698591Y-71422400D01*
X113640400Y-71403493D01*
X113607909Y-71358773D01*
X113606893Y-71359222D01*
X113604813Y-71354512D01*
X113604436Y-71353993D01*
X113604127Y-71352959D01*
X113603885Y-71352411D01*
X113603885Y-71352409D01*
X113558506Y-71249635D01*
X113479065Y-71170194D01*
X113376291Y-71124815D01*
X113376290Y-71124814D01*
X113376288Y-71124814D01*
X113351168Y-71121900D01*
X112499439Y-71121900D01*
X112499436Y-71121901D01*
X112474309Y-71124814D01*
X112371535Y-71170194D01*
X112292094Y-71249635D01*
X112284814Y-71266124D01*
X112261693Y-71318488D01*
X112220892Y-71364084D01*
X112171128Y-71377500D01*
X111633921Y-71377500D01*
X111575730Y-71358593D01*
X111541824Y-71314819D01*
X111525862Y-71274342D01*
X111436500Y-71156500D01*
X111318658Y-71067138D01*
X111181079Y-71012883D01*
X111094620Y-71002500D01*
X111094618Y-71002500D01*
X110510382Y-71002500D01*
X110510379Y-71002500D01*
X110423920Y-71012883D01*
X110286341Y-71067138D01*
X110168503Y-71156497D01*
X110168496Y-71156504D01*
X110079455Y-71273922D01*
X110029229Y-71308864D01*
X109968056Y-71307610D01*
X109919304Y-71270639D01*
X109906596Y-71245239D01*
X109900450Y-71226692D01*
X109809946Y-71079964D01*
X109688035Y-70958053D01*
X109541306Y-70867548D01*
X109377648Y-70813318D01*
X109276655Y-70803000D01*
X109227501Y-70803000D01*
X109227500Y-70803001D01*
X109227500Y-72752998D01*
X109227501Y-72752999D01*
X109276654Y-72752999D01*
X109377642Y-72742682D01*
X109377654Y-72742679D01*
X109541306Y-72688451D01*
X109688035Y-72597946D01*
X109809946Y-72476035D01*
X109900451Y-72329306D01*
X109906596Y-72310761D01*
X109942845Y-72261469D01*
X110001144Y-72242899D01*
X110059225Y-72262142D01*
X110079456Y-72282078D01*
X110115270Y-72329306D01*
X110168500Y-72399500D01*
X110286342Y-72488862D01*
X110423923Y-72543117D01*
X110510382Y-72553500D01*
X110510384Y-72553500D01*
X111094616Y-72553500D01*
X111094618Y-72553500D01*
X111181077Y-72543117D01*
X111318658Y-72488862D01*
X111436500Y-72399500D01*
X111525862Y-72281658D01*
X111541824Y-72241180D01*
X111580760Y-72193984D01*
X111633921Y-72178500D01*
X112171128Y-72178500D01*
X112229319Y-72197407D01*
X112261691Y-72237510D01*
X112292094Y-72306365D01*
X112371535Y-72385806D01*
X112474309Y-72431185D01*
X112499435Y-72434100D01*
X113351164Y-72434099D01*
X113376291Y-72431185D01*
X113479065Y-72385806D01*
X113558506Y-72306365D01*
X113603885Y-72203591D01*
X113603885Y-72203588D01*
X113606892Y-72196779D01*
X113608915Y-72197672D01*
X113636589Y-72155420D01*
X113693796Y-72133716D01*
X113698591Y-72133600D01*
X113701409Y-72133600D01*
X113759600Y-72152507D01*
X113792090Y-72197226D01*
X113793107Y-72196778D01*
X113795186Y-72201487D01*
X113795564Y-72202007D01*
X113795872Y-72203040D01*
X113796114Y-72203590D01*
X113796115Y-72203591D01*
X113841494Y-72306365D01*
X113920935Y-72385806D01*
X114023709Y-72431185D01*
X114048835Y-72434100D01*
X114900564Y-72434099D01*
X114925691Y-72431185D01*
X115028465Y-72385806D01*
X115107906Y-72306365D01*
X115138307Y-72237510D01*
X115179108Y-72191916D01*
X115228872Y-72178500D01*
X117811099Y-72178500D01*
X117869290Y-72197407D01*
X117881103Y-72207496D01*
X120262663Y-74589056D01*
X120290440Y-74643573D01*
X120287880Y-74686152D01*
X120233603Y-74876915D01*
X120233603Y-74876917D01*
X120214785Y-75080000D01*
X120233603Y-75283083D01*
X120289418Y-75479250D01*
X120380327Y-75661821D01*
X120503236Y-75824579D01*
X120653959Y-75961981D01*
X120827363Y-76069348D01*
X121017544Y-76143024D01*
X121218024Y-76180500D01*
X121421976Y-76180500D01*
X121622456Y-76143024D01*
X121812637Y-76069348D01*
X121986041Y-75961981D01*
X122136764Y-75824579D01*
X122215860Y-75719837D01*
X122266016Y-75684796D01*
X122294863Y-75680500D01*
X123176808Y-75680500D01*
X123234999Y-75699407D01*
X123255691Y-75719680D01*
X123289300Y-75764000D01*
X123407142Y-75853362D01*
X123544723Y-75907617D01*
X123631182Y-75918000D01*
X123858557Y-75918000D01*
X123916748Y-75936907D01*
X123928561Y-75946996D01*
X124373504Y-76391939D01*
X124401281Y-76446456D01*
X124402500Y-76461943D01*
X124402500Y-100217099D01*
X124383593Y-100275290D01*
X124334093Y-100311254D01*
X124272907Y-100311254D01*
X124233496Y-100287103D01*
X122377336Y-98430943D01*
X122349559Y-98376426D01*
X122352118Y-98333848D01*
X122406397Y-98143083D01*
X122425215Y-97940000D01*
X122406397Y-97736917D01*
X122350582Y-97540750D01*
X122259673Y-97358179D01*
X122136764Y-97195421D01*
X121986041Y-97058019D01*
X121812637Y-96950652D01*
X121622456Y-96876976D01*
X121622455Y-96876975D01*
X121622453Y-96876975D01*
X121421976Y-96839500D01*
X121218024Y-96839500D01*
X121017546Y-96876975D01*
X120947632Y-96904059D01*
X120827363Y-96950652D01*
X120653959Y-97058019D01*
X120508194Y-97190900D01*
X120452454Y-97216130D01*
X120392529Y-97203778D01*
X120351309Y-97158561D01*
X120342500Y-97117738D01*
X120342500Y-96222261D01*
X120361407Y-96164070D01*
X120410907Y-96128106D01*
X120472093Y-96128106D01*
X120508191Y-96149096D01*
X120653959Y-96281981D01*
X120827363Y-96389348D01*
X121017544Y-96463024D01*
X121218024Y-96500500D01*
X121421976Y-96500500D01*
X121622456Y-96463024D01*
X121812637Y-96389348D01*
X121986041Y-96281981D01*
X122136764Y-96144579D01*
X122259673Y-95981821D01*
X122350582Y-95799250D01*
X122406397Y-95603083D01*
X122425215Y-95400000D01*
X122406397Y-95196917D01*
X122350582Y-95000750D01*
X122259673Y-94818179D01*
X122136764Y-94655421D01*
X121986041Y-94518019D01*
X121812637Y-94410652D01*
X121622456Y-94336976D01*
X121622455Y-94336975D01*
X121622453Y-94336975D01*
X121421976Y-94299500D01*
X121218024Y-94299500D01*
X121017546Y-94336975D01*
X120977353Y-94352546D01*
X120827363Y-94410652D01*
X120653959Y-94518019D01*
X120508194Y-94650900D01*
X120452454Y-94676130D01*
X120392529Y-94663778D01*
X120351309Y-94618561D01*
X120342500Y-94577738D01*
X120342500Y-93682261D01*
X120361407Y-93624070D01*
X120410907Y-93588106D01*
X120472093Y-93588106D01*
X120508191Y-93609096D01*
X120653959Y-93741981D01*
X120827363Y-93849348D01*
X121017544Y-93923024D01*
X121218024Y-93960500D01*
X121421976Y-93960500D01*
X121622456Y-93923024D01*
X121812637Y-93849348D01*
X121986041Y-93741981D01*
X122136764Y-93604579D01*
X122259673Y-93441821D01*
X122350582Y-93259250D01*
X122406397Y-93063083D01*
X122425215Y-92860000D01*
X122406397Y-92656917D01*
X122350582Y-92460750D01*
X122259673Y-92278179D01*
X122136764Y-92115421D01*
X121986041Y-91978019D01*
X121812637Y-91870652D01*
X121622456Y-91796976D01*
X121622455Y-91796975D01*
X121622453Y-91796975D01*
X121421976Y-91759500D01*
X121218024Y-91759500D01*
X121017546Y-91796975D01*
X120947632Y-91824059D01*
X120827363Y-91870652D01*
X120653959Y-91978019D01*
X120508194Y-92110900D01*
X120452454Y-92136130D01*
X120392529Y-92123778D01*
X120351309Y-92078561D01*
X120342500Y-92037738D01*
X120342500Y-91142261D01*
X120361407Y-91084070D01*
X120410907Y-91048106D01*
X120472093Y-91048106D01*
X120508191Y-91069096D01*
X120653959Y-91201981D01*
X120827363Y-91309348D01*
X121017544Y-91383024D01*
X121218024Y-91420500D01*
X121421976Y-91420500D01*
X121622456Y-91383024D01*
X121812637Y-91309348D01*
X121986041Y-91201981D01*
X122136764Y-91064579D01*
X122259673Y-90901821D01*
X122350582Y-90719250D01*
X122406397Y-90523083D01*
X122425215Y-90320000D01*
X122406397Y-90116917D01*
X122350582Y-89920750D01*
X122259673Y-89738179D01*
X122136764Y-89575421D01*
X121986041Y-89438019D01*
X121812637Y-89330652D01*
X121622456Y-89256976D01*
X121622455Y-89256975D01*
X121622453Y-89256975D01*
X121421976Y-89219500D01*
X121218024Y-89219500D01*
X121017546Y-89256975D01*
X120947632Y-89284059D01*
X120827363Y-89330652D01*
X120653959Y-89438019D01*
X120508194Y-89570900D01*
X120452454Y-89596130D01*
X120392529Y-89583778D01*
X120351309Y-89538561D01*
X120342500Y-89497738D01*
X120342500Y-88602261D01*
X120361407Y-88544070D01*
X120410907Y-88508106D01*
X120472093Y-88508106D01*
X120508191Y-88529096D01*
X120653959Y-88661981D01*
X120827363Y-88769348D01*
X121017544Y-88843024D01*
X121218024Y-88880500D01*
X121421976Y-88880500D01*
X121622456Y-88843024D01*
X121812637Y-88769348D01*
X121986041Y-88661981D01*
X122136764Y-88524579D01*
X122259673Y-88361821D01*
X122350582Y-88179250D01*
X122406397Y-87983083D01*
X122425215Y-87780000D01*
X122406397Y-87576917D01*
X122350582Y-87380750D01*
X122259673Y-87198179D01*
X122136764Y-87035421D01*
X121986041Y-86898019D01*
X121812637Y-86790652D01*
X121622456Y-86716976D01*
X121622455Y-86716975D01*
X121622453Y-86716975D01*
X121421976Y-86679500D01*
X121218024Y-86679500D01*
X121017546Y-86716975D01*
X120947632Y-86744059D01*
X120827363Y-86790652D01*
X120653959Y-86898019D01*
X120508194Y-87030900D01*
X120452454Y-87056130D01*
X120392529Y-87043778D01*
X120351309Y-86998561D01*
X120342500Y-86957738D01*
X120342500Y-86062261D01*
X120361407Y-86004070D01*
X120410907Y-85968106D01*
X120472093Y-85968106D01*
X120508191Y-85989096D01*
X120653959Y-86121981D01*
X120827363Y-86229348D01*
X121017544Y-86303024D01*
X121218024Y-86340500D01*
X121421976Y-86340500D01*
X121622456Y-86303024D01*
X121812637Y-86229348D01*
X121986041Y-86121981D01*
X122136764Y-85984579D01*
X122259673Y-85821821D01*
X122350582Y-85639250D01*
X122406397Y-85443083D01*
X122425215Y-85240000D01*
X122406397Y-85036917D01*
X122350582Y-84840750D01*
X122259673Y-84658179D01*
X122136764Y-84495421D01*
X122136760Y-84495417D01*
X122135285Y-84493464D01*
X122115306Y-84435633D01*
X122133135Y-84377102D01*
X122169355Y-84345588D01*
X122171126Y-84344685D01*
X122185465Y-84338748D01*
X122208404Y-84331296D01*
X122227926Y-84317111D01*
X122241163Y-84309000D01*
X122262656Y-84298050D01*
X122279575Y-84281129D01*
X122279579Y-84281127D01*
X122285220Y-84275485D01*
X122285223Y-84275484D01*
X123403483Y-83157223D01*
X123426050Y-83134656D01*
X123437002Y-83113157D01*
X123445115Y-83099919D01*
X123459296Y-83080404D01*
X123466751Y-83057458D01*
X123472695Y-83043109D01*
X123483646Y-83021618D01*
X123487419Y-82997787D01*
X123491048Y-82982678D01*
X123498498Y-82959749D01*
X123498499Y-82959748D01*
X123498499Y-82931935D01*
X123498500Y-82931910D01*
X123498500Y-79334569D01*
X123498500Y-79334567D01*
X123491041Y-79311611D01*
X123487421Y-79296534D01*
X123483646Y-79272696D01*
X123472693Y-79251201D01*
X123466752Y-79236861D01*
X123459296Y-79213911D01*
X123459294Y-79213908D01*
X123445112Y-79194386D01*
X123436997Y-79181143D01*
X123426050Y-79159658D01*
X123426048Y-79159656D01*
X123403486Y-79137093D01*
X123403486Y-79137094D01*
X123403484Y-79137091D01*
X122377336Y-78110943D01*
X122349559Y-78056426D01*
X122352118Y-78013848D01*
X122406397Y-77823083D01*
X122425215Y-77620000D01*
X122406397Y-77416917D01*
X122350582Y-77220750D01*
X122259673Y-77038179D01*
X122136764Y-76875421D01*
X121986041Y-76738019D01*
X121812637Y-76630652D01*
X121622456Y-76556976D01*
X121622455Y-76556975D01*
X121622453Y-76556975D01*
X121421976Y-76519500D01*
X121218024Y-76519500D01*
X121017546Y-76556975D01*
X120993055Y-76566463D01*
X120827363Y-76630652D01*
X120657792Y-76735646D01*
X120653959Y-76738019D01*
X120503237Y-76875420D01*
X120380328Y-77038177D01*
X120380323Y-77038186D01*
X120298450Y-77202611D01*
X120289418Y-77220750D01*
X120233603Y-77416917D01*
X120214785Y-77620000D01*
X120233603Y-77823083D01*
X120289418Y-78019250D01*
X120380327Y-78201821D01*
X120503236Y-78364579D01*
X120653959Y-78501981D01*
X120827363Y-78609348D01*
X121017544Y-78683024D01*
X121218024Y-78720500D01*
X121421976Y-78720500D01*
X121622456Y-78683024D01*
X121702259Y-78652107D01*
X121763351Y-78648718D01*
X121808026Y-78674419D01*
X122668504Y-79534897D01*
X122696281Y-79589414D01*
X122697500Y-79604901D01*
X122697500Y-82689413D01*
X122678593Y-82747604D01*
X122668503Y-82759417D01*
X122588180Y-82839739D01*
X122533663Y-82867516D01*
X122473231Y-82857944D01*
X122429967Y-82814680D01*
X122419599Y-82760602D01*
X122425215Y-82700000D01*
X122406397Y-82496917D01*
X122350582Y-82300750D01*
X122259673Y-82118179D01*
X122136764Y-81955421D01*
X121986041Y-81818019D01*
X121812637Y-81710652D01*
X121622456Y-81636976D01*
X121622455Y-81636975D01*
X121622453Y-81636975D01*
X121421976Y-81599500D01*
X121218024Y-81599500D01*
X121017546Y-81636975D01*
X120947632Y-81664059D01*
X120827363Y-81710652D01*
X120718676Y-81777948D01*
X120653959Y-81818019D01*
X120503237Y-81955420D01*
X120380328Y-82118177D01*
X120380323Y-82118186D01*
X120298450Y-82282611D01*
X120289418Y-82300750D01*
X120233603Y-82496917D01*
X120214785Y-82700000D01*
X120233603Y-82903083D01*
X120249726Y-82959748D01*
X120287880Y-83093845D01*
X120285619Y-83154989D01*
X120262663Y-83190942D01*
X119236516Y-84217091D01*
X119236515Y-84217090D01*
X119236506Y-84217101D01*
X119230997Y-84222609D01*
X119176478Y-84250382D01*
X119116047Y-84240805D01*
X119090996Y-84222603D01*
X118956289Y-84087896D01*
X118532909Y-83664516D01*
X118532905Y-83664513D01*
X118530423Y-83662031D01*
X118530423Y-83662030D01*
X118510343Y-83641951D01*
X118510342Y-83641950D01*
X118488847Y-83630997D01*
X118475608Y-83622884D01*
X118456089Y-83608703D01*
X118435173Y-83601907D01*
X118385674Y-83565942D01*
X118366768Y-83507751D01*
X118385677Y-83449561D01*
X118386765Y-83448092D01*
X118389418Y-83444579D01*
X118492366Y-83308255D01*
X118587405Y-83117389D01*
X118645756Y-82912310D01*
X118665429Y-82700000D01*
X118645756Y-82487690D01*
X118587405Y-82282611D01*
X118492366Y-82091745D01*
X118363872Y-81921593D01*
X118309623Y-81872139D01*
X118206307Y-81777952D01*
X118206300Y-81777946D01*
X118025024Y-81665705D01*
X118025019Y-81665702D01*
X117826195Y-81588678D01*
X117616610Y-81549500D01*
X117403390Y-81549500D01*
X117193804Y-81588678D01*
X116994980Y-81665702D01*
X116994975Y-81665705D01*
X116813699Y-81777946D01*
X116813692Y-81777952D01*
X116656135Y-81921586D01*
X116656131Y-81921589D01*
X116656128Y-81921593D01*
X116656125Y-81921597D01*
X116527635Y-82091743D01*
X116527630Y-82091752D01*
X116432596Y-82282608D01*
X116374244Y-82487688D01*
X116366008Y-82576573D01*
X116341812Y-82632771D01*
X116289204Y-82664014D01*
X116229545Y-82658902D01*
X116142767Y-82622957D01*
X116142758Y-82622955D01*
X115986001Y-82602318D01*
X115985999Y-82602318D01*
X115869867Y-82617607D01*
X115809706Y-82606457D01*
X115767589Y-82562075D01*
X115759603Y-82501413D01*
X115786939Y-82449452D01*
X116983326Y-81253065D01*
X117037841Y-81225290D01*
X117089090Y-81230756D01*
X117193802Y-81271321D01*
X117403390Y-81310500D01*
X117616610Y-81310500D01*
X117826198Y-81271321D01*
X118025019Y-81194298D01*
X118206302Y-81082052D01*
X118363872Y-80938407D01*
X118492366Y-80768255D01*
X118587405Y-80577389D01*
X118645756Y-80372310D01*
X118665429Y-80160000D01*
X120214785Y-80160000D01*
X120233603Y-80363083D01*
X120289418Y-80559250D01*
X120380327Y-80741821D01*
X120503236Y-80904579D01*
X120653959Y-81041981D01*
X120827363Y-81149348D01*
X121017544Y-81223024D01*
X121218024Y-81260500D01*
X121421976Y-81260500D01*
X121622456Y-81223024D01*
X121812637Y-81149348D01*
X121986041Y-81041981D01*
X122136764Y-80904579D01*
X122259673Y-80741821D01*
X122350582Y-80559250D01*
X122406397Y-80363083D01*
X122425215Y-80160000D01*
X122406397Y-79956917D01*
X122350582Y-79760750D01*
X122259673Y-79578179D01*
X122136764Y-79415421D01*
X121986041Y-79278019D01*
X121812637Y-79170652D01*
X121622456Y-79096976D01*
X121622455Y-79096975D01*
X121622453Y-79096975D01*
X121421976Y-79059500D01*
X121218024Y-79059500D01*
X121017546Y-79096975D01*
X120947632Y-79124059D01*
X120827363Y-79170652D01*
X120718676Y-79237948D01*
X120653959Y-79278019D01*
X120503237Y-79415420D01*
X120380328Y-79578177D01*
X120380323Y-79578186D01*
X120289419Y-79760747D01*
X120289418Y-79760750D01*
X120233603Y-79956917D01*
X120214785Y-80160000D01*
X118665429Y-80160000D01*
X118645756Y-79947690D01*
X118587405Y-79742611D01*
X118492366Y-79551745D01*
X118363872Y-79381593D01*
X118270548Y-79296516D01*
X118206307Y-79237952D01*
X118206300Y-79237946D01*
X118025024Y-79125705D01*
X118025019Y-79125702D01*
X117826195Y-79048678D01*
X117616610Y-79009500D01*
X117403390Y-79009500D01*
X117193804Y-79048678D01*
X116994980Y-79125702D01*
X116994975Y-79125705D01*
X116813699Y-79237946D01*
X116813692Y-79237952D01*
X116656135Y-79381586D01*
X116656131Y-79381589D01*
X116656128Y-79381593D01*
X116656125Y-79381597D01*
X116527635Y-79551743D01*
X116527630Y-79551752D01*
X116442901Y-79721913D01*
X116432595Y-79742611D01*
X116427873Y-79759208D01*
X116374244Y-79947688D01*
X116354571Y-80160000D01*
X116374244Y-80372311D01*
X116432598Y-80577401D01*
X116434249Y-80581661D01*
X116432870Y-80582195D01*
X116440977Y-80636647D01*
X116413348Y-80690257D01*
X115031504Y-82072102D01*
X114976987Y-82099879D01*
X114916555Y-82090308D01*
X114873290Y-82047043D01*
X114862500Y-82002098D01*
X114862500Y-80350569D01*
X114862500Y-80350567D01*
X114855042Y-80327613D01*
X114851418Y-80312514D01*
X114847646Y-80288699D01*
X114847646Y-80288696D01*
X114847644Y-80288693D01*
X114847644Y-80288691D01*
X114836694Y-80267201D01*
X114830749Y-80252851D01*
X114823296Y-80229910D01*
X114809115Y-80210391D01*
X114800998Y-80197145D01*
X114790050Y-80175658D01*
X114790048Y-80175656D01*
X114767486Y-80153093D01*
X114767486Y-80153094D01*
X114767484Y-80153091D01*
X111066111Y-76451718D01*
X111038334Y-76397201D01*
X111047905Y-76336769D01*
X111076789Y-76302458D01*
X111097189Y-76287187D01*
X111097192Y-76287184D01*
X111183352Y-76172090D01*
X111183353Y-76172088D01*
X111233596Y-76037381D01*
X111233598Y-76037370D01*
X111240000Y-75977824D01*
X116159999Y-75977824D01*
X116166401Y-76037370D01*
X116166403Y-76037381D01*
X116216646Y-76172088D01*
X116216647Y-76172090D01*
X116302807Y-76287184D01*
X116302815Y-76287192D01*
X116417909Y-76373352D01*
X116417911Y-76373353D01*
X116552618Y-76423596D01*
X116552629Y-76423598D01*
X116612176Y-76430000D01*
X116898500Y-76430000D01*
X116956691Y-76448907D01*
X116992655Y-76498407D01*
X116992655Y-76559593D01*
X116956691Y-76609093D01*
X116950617Y-76613171D01*
X116813699Y-76697946D01*
X116813692Y-76697952D01*
X116656135Y-76841586D01*
X116656131Y-76841589D01*
X116656128Y-76841593D01*
X116656125Y-76841597D01*
X116527635Y-77011743D01*
X116527630Y-77011752D01*
X116432596Y-77202608D01*
X116374244Y-77407688D01*
X116374244Y-77407690D01*
X116354571Y-77620000D01*
X116374244Y-77832310D01*
X116432595Y-78037389D01*
X116527634Y-78228255D01*
X116656128Y-78398407D01*
X116656135Y-78398413D01*
X116813692Y-78542047D01*
X116813699Y-78542053D01*
X116917389Y-78606255D01*
X116994981Y-78654298D01*
X117193802Y-78731321D01*
X117403390Y-78770500D01*
X117616610Y-78770500D01*
X117826198Y-78731321D01*
X118025019Y-78654298D01*
X118206302Y-78542052D01*
X118363872Y-78398407D01*
X118492366Y-78228255D01*
X118587405Y-78037389D01*
X118645756Y-77832310D01*
X118665429Y-77620000D01*
X118645756Y-77407690D01*
X118587405Y-77202611D01*
X118492366Y-77011745D01*
X118363872Y-76841593D01*
X118284688Y-76769407D01*
X118206307Y-76697952D01*
X118206300Y-76697946D01*
X118069383Y-76613171D01*
X118029862Y-76566463D01*
X118025343Y-76505444D01*
X118057553Y-76453424D01*
X118114189Y-76430270D01*
X118121500Y-76430000D01*
X118407824Y-76430000D01*
X118467370Y-76423598D01*
X118467381Y-76423596D01*
X118602088Y-76373353D01*
X118602090Y-76373352D01*
X118717184Y-76287192D01*
X118717192Y-76287184D01*
X118803352Y-76172090D01*
X118803353Y-76172088D01*
X118853596Y-76037381D01*
X118853598Y-76037370D01*
X118860000Y-75977824D01*
X118860000Y-75330001D01*
X118859999Y-75330000D01*
X117943686Y-75330000D01*
X117969493Y-75289844D01*
X118010000Y-75151889D01*
X118010000Y-75008111D01*
X117969493Y-74870156D01*
X117943686Y-74830000D01*
X118859999Y-74830000D01*
X118860000Y-74829999D01*
X118860000Y-74182175D01*
X118853598Y-74122629D01*
X118853596Y-74122618D01*
X118803353Y-73987911D01*
X118803352Y-73987909D01*
X118717192Y-73872815D01*
X118717184Y-73872807D01*
X118602090Y-73786647D01*
X118602088Y-73786646D01*
X118467381Y-73736403D01*
X118467370Y-73736401D01*
X118407824Y-73730000D01*
X117760001Y-73730000D01*
X117760000Y-73730001D01*
X117760000Y-74644498D01*
X117652315Y-74595320D01*
X117545763Y-74580000D01*
X117474237Y-74580000D01*
X117367685Y-74595320D01*
X117260000Y-74644498D01*
X117260000Y-73730001D01*
X117259999Y-73730000D01*
X116612176Y-73730000D01*
X116552629Y-73736401D01*
X116552618Y-73736403D01*
X116417911Y-73786646D01*
X116417909Y-73786647D01*
X116302815Y-73872807D01*
X116302807Y-73872815D01*
X116216647Y-73987909D01*
X116216646Y-73987911D01*
X116166403Y-74122618D01*
X116166401Y-74122629D01*
X116160000Y-74182175D01*
X116160000Y-74829999D01*
X116160001Y-74830000D01*
X117076314Y-74830000D01*
X117050507Y-74870156D01*
X117010000Y-75008111D01*
X117010000Y-75151889D01*
X117050507Y-75289844D01*
X117076314Y-75330000D01*
X116160001Y-75330000D01*
X116160000Y-75330001D01*
X116160000Y-75977824D01*
X116159999Y-75977824D01*
X111240000Y-75977824D01*
X111240000Y-75330001D01*
X111239999Y-75330000D01*
X110323686Y-75330000D01*
X110349493Y-75289844D01*
X110390000Y-75151889D01*
X110390000Y-75008111D01*
X110349493Y-74870156D01*
X110323686Y-74830000D01*
X111239999Y-74830000D01*
X111240000Y-74829999D01*
X111240000Y-74182175D01*
X111233598Y-74122629D01*
X111233596Y-74122618D01*
X111183353Y-73987911D01*
X111183352Y-73987909D01*
X111097192Y-73872815D01*
X111097184Y-73872807D01*
X110982090Y-73786647D01*
X110982088Y-73786646D01*
X110847381Y-73736403D01*
X110847370Y-73736401D01*
X110787824Y-73730000D01*
X110140001Y-73730000D01*
X110140000Y-73730001D01*
X110140000Y-74644498D01*
X110032315Y-74595320D01*
X109925763Y-74580000D01*
X109854237Y-74580000D01*
X109747685Y-74595320D01*
X109640000Y-74644498D01*
X109640000Y-73730001D01*
X109639999Y-73730000D01*
X108992176Y-73730000D01*
X108932629Y-73736401D01*
X108932618Y-73736403D01*
X108797911Y-73786646D01*
X108797909Y-73786647D01*
X108682815Y-73872807D01*
X108682807Y-73872815D01*
X108596647Y-73987909D01*
X108596646Y-73987911D01*
X108546403Y-74122618D01*
X108546401Y-74122629D01*
X108540000Y-74182175D01*
X108540000Y-74829999D01*
X108540001Y-74830000D01*
X109456314Y-74830000D01*
X109430507Y-74870156D01*
X109390000Y-75008111D01*
X109390000Y-75151889D01*
X109430507Y-75289844D01*
X109456314Y-75330000D01*
X108540001Y-75330000D01*
X108540000Y-75330001D01*
X108540000Y-75850500D01*
X108521093Y-75908691D01*
X108471593Y-75944655D01*
X108441000Y-75949500D01*
X107556900Y-75949500D01*
X107498709Y-75930593D01*
X107486896Y-75920504D01*
X107209495Y-75643103D01*
X107181718Y-75588586D01*
X107180499Y-75573099D01*
X107180499Y-74235139D01*
X107180499Y-74235136D01*
X107177585Y-74210009D01*
X107132206Y-74107235D01*
X107052765Y-74027794D01*
X106949991Y-73982415D01*
X106949990Y-73982414D01*
X106949988Y-73982414D01*
X106924868Y-73979500D01*
X105235139Y-73979500D01*
X105235136Y-73979501D01*
X105210009Y-73982414D01*
X105107235Y-74027794D01*
X105027794Y-74107235D01*
X104982414Y-74210011D01*
X104979500Y-74235130D01*
X104979500Y-75924860D01*
X104979501Y-75924863D01*
X104982414Y-75949990D01*
X104994704Y-75977824D01*
X105027794Y-76052765D01*
X105107235Y-76132206D01*
X105210009Y-76177585D01*
X105235135Y-76180500D01*
X106573099Y-76180499D01*
X106631290Y-76199406D01*
X106643102Y-76209495D01*
X107021949Y-76588341D01*
X107021950Y-76588343D01*
X107111657Y-76678049D01*
X107111658Y-76678050D01*
X107133149Y-76689000D01*
X107146395Y-76697117D01*
X107165910Y-76711296D01*
X107165912Y-76711296D01*
X107165913Y-76711297D01*
X107188852Y-76718750D01*
X107203195Y-76724690D01*
X107224696Y-76735646D01*
X107248524Y-76739419D01*
X107263633Y-76743047D01*
X107272194Y-76745828D01*
X107286567Y-76750499D01*
X107314379Y-76750499D01*
X107314403Y-76750500D01*
X107318481Y-76750500D01*
X108906099Y-76750500D01*
X108964290Y-76769407D01*
X109000254Y-76818907D01*
X109000254Y-76880093D01*
X108985103Y-76909161D01*
X108907635Y-77011743D01*
X108907630Y-77011752D01*
X108812596Y-77202608D01*
X108754244Y-77407688D01*
X108754244Y-77407690D01*
X108734571Y-77620000D01*
X108754244Y-77832310D01*
X108812595Y-78037389D01*
X108907634Y-78228255D01*
X109036128Y-78398407D01*
X109036135Y-78398413D01*
X109193692Y-78542047D01*
X109193699Y-78542053D01*
X109297389Y-78606255D01*
X109374981Y-78654298D01*
X109573802Y-78731321D01*
X109783390Y-78770500D01*
X109996610Y-78770500D01*
X110206198Y-78731321D01*
X110310908Y-78690755D01*
X110371998Y-78687366D01*
X110416674Y-78713067D01*
X111746504Y-80042896D01*
X111774281Y-80097413D01*
X111775500Y-80112900D01*
X111775500Y-83145099D01*
X111756593Y-83203290D01*
X111707093Y-83239254D01*
X111645907Y-83239254D01*
X111606496Y-83215103D01*
X111066009Y-82674617D01*
X111038232Y-82620100D01*
X111037438Y-82613774D01*
X111025756Y-82487690D01*
X110967405Y-82282611D01*
X110872366Y-82091745D01*
X110743872Y-81921593D01*
X110689623Y-81872139D01*
X110586307Y-81777952D01*
X110586300Y-81777946D01*
X110405024Y-81665705D01*
X110405019Y-81665702D01*
X110206195Y-81588678D01*
X109996610Y-81549500D01*
X109783390Y-81549500D01*
X109573804Y-81588678D01*
X109374980Y-81665702D01*
X109374975Y-81665705D01*
X109193699Y-81777946D01*
X109193692Y-81777952D01*
X109036135Y-81921586D01*
X109036131Y-81921589D01*
X109036128Y-81921593D01*
X109036125Y-81921597D01*
X108907635Y-82091743D01*
X108907630Y-82091752D01*
X108812596Y-82282608D01*
X108754244Y-82487688D01*
X108734571Y-82700000D01*
X108754244Y-82912311D01*
X108767742Y-82959749D01*
X108812595Y-83117389D01*
X108907634Y-83308255D01*
X109036128Y-83478407D01*
X109068317Y-83507751D01*
X109193692Y-83622047D01*
X109193699Y-83622053D01*
X109262284Y-83664519D01*
X109374981Y-83734298D01*
X109573802Y-83811321D01*
X109783390Y-83850500D01*
X109996610Y-83850500D01*
X110206198Y-83811321D01*
X110405019Y-83734298D01*
X110586302Y-83622052D01*
X110670426Y-83545361D01*
X110726166Y-83520131D01*
X110786092Y-83532483D01*
X110807126Y-83548519D01*
X111346504Y-84087896D01*
X111374281Y-84142413D01*
X111375500Y-84157900D01*
X111375500Y-88460099D01*
X111356593Y-88518290D01*
X111307093Y-88554254D01*
X111245907Y-88554254D01*
X111206496Y-88530103D01*
X110986650Y-88310257D01*
X110958873Y-88255740D01*
X110967111Y-88202182D01*
X110965752Y-88201656D01*
X110967400Y-88197398D01*
X110967405Y-88197389D01*
X111025756Y-87992310D01*
X111045429Y-87780000D01*
X111025756Y-87567690D01*
X110967405Y-87362611D01*
X110872366Y-87171745D01*
X110743872Y-87001593D01*
X110659184Y-86924389D01*
X110586307Y-86857952D01*
X110586300Y-86857946D01*
X110405024Y-86745705D01*
X110405019Y-86745702D01*
X110206195Y-86668678D01*
X109996610Y-86629500D01*
X109783390Y-86629500D01*
X109573804Y-86668678D01*
X109374980Y-86745702D01*
X109374975Y-86745705D01*
X109193699Y-86857946D01*
X109193692Y-86857952D01*
X109036135Y-87001586D01*
X109036131Y-87001589D01*
X109036128Y-87001593D01*
X109036125Y-87001597D01*
X108907635Y-87171743D01*
X108907630Y-87171752D01*
X108812596Y-87362608D01*
X108754244Y-87567688D01*
X108738224Y-87740582D01*
X108734571Y-87780000D01*
X108754244Y-87992310D01*
X108812595Y-88197389D01*
X108907634Y-88388255D01*
X109036128Y-88558407D01*
X109036135Y-88558413D01*
X109193692Y-88702047D01*
X109193699Y-88702053D01*
X109297389Y-88766255D01*
X109374981Y-88814298D01*
X109573802Y-88891321D01*
X109783390Y-88930500D01*
X109996610Y-88930500D01*
X110206198Y-88891321D01*
X110310908Y-88850755D01*
X110371998Y-88847366D01*
X110416674Y-88873067D01*
X110946504Y-89402896D01*
X110974281Y-89457413D01*
X110975500Y-89472900D01*
X110975500Y-89552941D01*
X110956593Y-89611132D01*
X110907093Y-89647096D01*
X110845907Y-89647096D01*
X110797497Y-89612602D01*
X110743880Y-89541603D01*
X110743877Y-89541600D01*
X110743872Y-89541593D01*
X110630997Y-89438693D01*
X110586307Y-89397952D01*
X110586300Y-89397946D01*
X110405024Y-89285705D01*
X110405019Y-89285702D01*
X110206195Y-89208678D01*
X109996610Y-89169500D01*
X109783390Y-89169500D01*
X109573804Y-89208678D01*
X109374980Y-89285702D01*
X109374975Y-89285705D01*
X109193699Y-89397946D01*
X109193692Y-89397952D01*
X109036135Y-89541586D01*
X109036131Y-89541589D01*
X109036128Y-89541593D01*
X109036125Y-89541597D01*
X108907635Y-89711743D01*
X108907630Y-89711752D01*
X108812596Y-89902608D01*
X108754244Y-90107688D01*
X108734571Y-90320000D01*
X108754244Y-90532311D01*
X108812598Y-90737401D01*
X108814249Y-90741661D01*
X108812870Y-90742195D01*
X108820977Y-90796647D01*
X108793348Y-90850257D01*
X107806516Y-91837091D01*
X107806515Y-91837092D01*
X107783950Y-91859658D01*
X107783948Y-91859660D01*
X107772997Y-91881151D01*
X107764887Y-91894385D01*
X107750706Y-91913906D01*
X107750701Y-91913915D01*
X107743249Y-91936852D01*
X107737305Y-91951202D01*
X107726355Y-91972691D01*
X107726352Y-91972701D01*
X107722577Y-91996529D01*
X107718953Y-92011624D01*
X107711501Y-92034562D01*
X107711500Y-92034569D01*
X107711500Y-92526099D01*
X107692593Y-92584290D01*
X107682503Y-92596103D01*
X107537795Y-92740810D01*
X107483279Y-92768587D01*
X107422847Y-92759015D01*
X107379582Y-92715751D01*
X107369169Y-92679433D01*
X107365142Y-92633403D01*
X107306266Y-92413676D01*
X107210134Y-92207518D01*
X107079665Y-92021188D01*
X106918811Y-91860334D01*
X106732481Y-91729865D01*
X106526323Y-91633733D01*
X106337151Y-91583044D01*
X106285836Y-91549720D01*
X106263910Y-91492598D01*
X106279746Y-91433498D01*
X106327296Y-91394992D01*
X106344568Y-91390106D01*
X106382456Y-91383024D01*
X106572637Y-91309348D01*
X106746041Y-91201981D01*
X106896764Y-91064579D01*
X107019673Y-90901821D01*
X107110582Y-90719250D01*
X107166397Y-90523083D01*
X107185215Y-90320000D01*
X107166397Y-90116917D01*
X107110582Y-89920750D01*
X107019673Y-89738179D01*
X106896764Y-89575421D01*
X106746041Y-89438019D01*
X106572637Y-89330652D01*
X106382456Y-89256976D01*
X106382455Y-89256975D01*
X106382453Y-89256975D01*
X106181976Y-89219500D01*
X105978024Y-89219500D01*
X105777546Y-89256975D01*
X105707632Y-89284059D01*
X105587363Y-89330652D01*
X105413959Y-89438019D01*
X105263237Y-89575420D01*
X105140328Y-89738177D01*
X105140323Y-89738186D01*
X105049419Y-89920747D01*
X105049418Y-89920750D01*
X104993603Y-90116917D01*
X104974785Y-90320000D01*
X104993603Y-90523083D01*
X105049418Y-90719250D01*
X105140327Y-90901821D01*
X105263236Y-91064579D01*
X105413959Y-91201981D01*
X105587363Y-91309348D01*
X105777544Y-91383024D01*
X105815418Y-91390103D01*
X105869141Y-91419380D01*
X105895398Y-91474645D01*
X105884156Y-91534789D01*
X105839709Y-91576838D01*
X105822848Y-91583044D01*
X105633676Y-91633733D01*
X105427518Y-91729865D01*
X105241188Y-91860334D01*
X105080334Y-92021188D01*
X104949865Y-92207518D01*
X104853733Y-92413676D01*
X104801128Y-92610000D01*
X105764314Y-92610000D01*
X105752359Y-92621955D01*
X105694835Y-92734852D01*
X105675014Y-92860000D01*
X105694835Y-92985148D01*
X105752359Y-93098045D01*
X105764314Y-93110000D01*
X104801128Y-93110000D01*
X104853733Y-93306323D01*
X104949865Y-93512481D01*
X105080334Y-93698811D01*
X105173635Y-93792112D01*
X105201412Y-93846629D01*
X105191841Y-93907061D01*
X105173635Y-93932120D01*
X104471504Y-94634252D01*
X104416987Y-94662029D01*
X104356555Y-94652458D01*
X104313290Y-94609193D01*
X104302500Y-94564248D01*
X104302500Y-88259900D01*
X104321407Y-88201709D01*
X104331490Y-88189902D01*
X104805869Y-87715522D01*
X104860386Y-87687746D01*
X104920818Y-87697317D01*
X104964083Y-87740582D01*
X104974451Y-87776392D01*
X104974785Y-87779998D01*
X104974785Y-87780000D01*
X104993603Y-87983083D01*
X105049418Y-88179250D01*
X105140327Y-88361821D01*
X105263236Y-88524579D01*
X105413959Y-88661981D01*
X105587363Y-88769348D01*
X105777544Y-88843024D01*
X105978024Y-88880500D01*
X106181976Y-88880500D01*
X106382456Y-88843024D01*
X106572637Y-88769348D01*
X106746041Y-88661981D01*
X106896764Y-88524579D01*
X107019673Y-88361821D01*
X107110582Y-88179250D01*
X107166397Y-87983083D01*
X107185215Y-87780000D01*
X107166397Y-87576917D01*
X107110582Y-87380750D01*
X107019673Y-87198179D01*
X106896764Y-87035421D01*
X106891805Y-87030900D01*
X106833299Y-86977564D01*
X106803033Y-86924389D01*
X106809804Y-86863579D01*
X106829987Y-86834404D01*
X106848905Y-86815486D01*
X106848909Y-86815484D01*
X107994896Y-85669495D01*
X108049413Y-85641719D01*
X108064900Y-85640500D01*
X108742887Y-85640500D01*
X108801078Y-85659407D01*
X108831508Y-85695372D01*
X108907630Y-85848247D01*
X108907634Y-85848255D01*
X109036128Y-86018407D01*
X109084233Y-86062261D01*
X109193692Y-86162047D01*
X109193699Y-86162053D01*
X109264503Y-86205893D01*
X109374981Y-86274298D01*
X109573802Y-86351321D01*
X109783390Y-86390500D01*
X109996610Y-86390500D01*
X110206198Y-86351321D01*
X110405019Y-86274298D01*
X110586302Y-86162052D01*
X110743872Y-86018407D01*
X110872366Y-85848255D01*
X110967405Y-85657389D01*
X111025756Y-85452310D01*
X111045429Y-85240000D01*
X111025756Y-85027690D01*
X110967405Y-84822611D01*
X110872366Y-84631745D01*
X110743872Y-84461593D01*
X110671736Y-84395832D01*
X110586307Y-84317952D01*
X110586300Y-84317946D01*
X110405024Y-84205705D01*
X110405019Y-84205702D01*
X110206198Y-84128679D01*
X110206197Y-84128678D01*
X110206195Y-84128678D01*
X109996610Y-84089500D01*
X109783390Y-84089500D01*
X109573804Y-84128678D01*
X109374980Y-84205702D01*
X109374975Y-84205705D01*
X109193699Y-84317946D01*
X109193692Y-84317952D01*
X109036135Y-84461586D01*
X109036131Y-84461589D01*
X109036128Y-84461593D01*
X109036125Y-84461597D01*
X108907635Y-84631743D01*
X108907630Y-84631752D01*
X108831508Y-84784628D01*
X108788646Y-84828290D01*
X108742887Y-84839500D01*
X107822403Y-84839500D01*
X107822379Y-84839501D01*
X107794563Y-84839501D01*
X107771626Y-84846954D01*
X107756524Y-84850580D01*
X107732693Y-84854354D01*
X107711198Y-84865306D01*
X107696853Y-84871248D01*
X107673911Y-84878703D01*
X107654393Y-84892884D01*
X107641150Y-84900999D01*
X107619658Y-84911950D01*
X107619656Y-84911951D01*
X107597089Y-84934518D01*
X107343359Y-85188247D01*
X107288843Y-85216024D01*
X107228411Y-85206453D01*
X107185146Y-85163188D01*
X107174779Y-85127382D01*
X107166397Y-85036917D01*
X107110582Y-84840750D01*
X107019673Y-84658179D01*
X106909427Y-84512190D01*
X106889450Y-84454363D01*
X106907279Y-84395832D01*
X106956105Y-84358960D01*
X106960420Y-84357881D01*
X106967297Y-84355646D01*
X106967304Y-84355646D01*
X106988802Y-84344690D01*
X107003151Y-84338748D01*
X107026090Y-84331296D01*
X107045612Y-84317111D01*
X107058849Y-84309000D01*
X107080342Y-84298050D01*
X107097261Y-84281129D01*
X107097265Y-84281127D01*
X107102906Y-84275485D01*
X107102909Y-84275484D01*
X108290483Y-83087909D01*
X108313050Y-83065342D01*
X108324002Y-83043843D01*
X108332115Y-83030605D01*
X108346296Y-83011090D01*
X108353751Y-82988142D01*
X108359690Y-82973802D01*
X108370646Y-82952304D01*
X108374421Y-82928465D01*
X108378043Y-82913382D01*
X108385500Y-82890433D01*
X108385500Y-82763567D01*
X108385500Y-81509900D01*
X108404407Y-81451709D01*
X108414496Y-81439896D01*
X108660098Y-81194294D01*
X108906439Y-80947952D01*
X108960954Y-80920177D01*
X109021386Y-80929748D01*
X109043134Y-80944794D01*
X109174618Y-81064658D01*
X109193698Y-81082052D01*
X109193699Y-81082053D01*
X109290278Y-81141852D01*
X109374981Y-81194298D01*
X109573802Y-81271321D01*
X109783390Y-81310500D01*
X109996610Y-81310500D01*
X110206198Y-81271321D01*
X110405019Y-81194298D01*
X110586302Y-81082052D01*
X110743872Y-80938407D01*
X110872366Y-80768255D01*
X110967405Y-80577389D01*
X111025756Y-80372310D01*
X111045429Y-80160000D01*
X111025756Y-79947690D01*
X110967405Y-79742611D01*
X110872366Y-79551745D01*
X110743872Y-79381593D01*
X110650548Y-79296516D01*
X110586307Y-79237952D01*
X110586300Y-79237946D01*
X110405024Y-79125705D01*
X110405019Y-79125702D01*
X110206195Y-79048678D01*
X109996610Y-79009500D01*
X109783390Y-79009500D01*
X109573804Y-79048678D01*
X109374980Y-79125702D01*
X109374975Y-79125705D01*
X109193699Y-79237946D01*
X109193692Y-79237952D01*
X109036135Y-79381586D01*
X109036131Y-79381589D01*
X109036128Y-79381593D01*
X109036125Y-79381597D01*
X108907635Y-79551743D01*
X108907630Y-79551752D01*
X108822901Y-79721913D01*
X108812595Y-79742611D01*
X108807873Y-79759208D01*
X108753457Y-79950455D01*
X108728240Y-79993366D01*
X107679516Y-81042091D01*
X107679515Y-81042092D01*
X107656950Y-81064658D01*
X107656948Y-81064660D01*
X107645997Y-81086151D01*
X107637887Y-81099385D01*
X107623706Y-81118906D01*
X107623701Y-81118915D01*
X107616249Y-81141852D01*
X107610305Y-81156202D01*
X107599355Y-81177691D01*
X107599352Y-81177701D01*
X107595577Y-81201529D01*
X107591953Y-81216624D01*
X107584501Y-81239562D01*
X107584500Y-81239569D01*
X107584500Y-82620099D01*
X107565593Y-82678290D01*
X107555503Y-82690103D01*
X107342288Y-82903317D01*
X107287772Y-82931094D01*
X107227340Y-82921523D01*
X107184075Y-82878258D01*
X107173707Y-82824183D01*
X107185215Y-82700000D01*
X107166397Y-82496917D01*
X107110582Y-82300750D01*
X107019673Y-82118179D01*
X106896764Y-81955421D01*
X106746041Y-81818019D01*
X106572637Y-81710652D01*
X106382456Y-81636976D01*
X106382455Y-81636975D01*
X106382453Y-81636975D01*
X106181976Y-81599500D01*
X105978024Y-81599500D01*
X105777546Y-81636975D01*
X105707632Y-81664059D01*
X105587363Y-81710652D01*
X105478676Y-81777948D01*
X105413959Y-81818019D01*
X105263237Y-81955420D01*
X105140328Y-82118177D01*
X105140323Y-82118186D01*
X105058450Y-82282611D01*
X105049418Y-82300750D01*
X104993603Y-82496917D01*
X104974785Y-82700000D01*
X104993603Y-82903083D01*
X105049418Y-83099250D01*
X105140327Y-83281821D01*
X105263236Y-83444579D01*
X105263238Y-83444581D01*
X105263239Y-83444582D01*
X105326700Y-83502435D01*
X105356966Y-83555610D01*
X105350195Y-83616420D01*
X105330008Y-83645599D01*
X105311094Y-83664513D01*
X105311091Y-83664516D01*
X105311087Y-83664519D01*
X103196516Y-85779091D01*
X103196515Y-85779092D01*
X103173950Y-85801658D01*
X103173948Y-85801660D01*
X103162997Y-85823151D01*
X103154887Y-85836385D01*
X103140706Y-85855906D01*
X103140701Y-85855915D01*
X103133249Y-85878852D01*
X103127305Y-85893202D01*
X103116355Y-85914691D01*
X103116352Y-85914701D01*
X103112577Y-85938529D01*
X103108953Y-85953624D01*
X103101501Y-85976562D01*
X103101500Y-85976569D01*
X103101500Y-110665437D01*
X101075500Y-110665437D01*
X101075500Y-80160000D01*
X104974785Y-80160000D01*
X104993603Y-80363083D01*
X105049418Y-80559250D01*
X105140327Y-80741821D01*
X105263236Y-80904579D01*
X105413959Y-81041981D01*
X105587363Y-81149348D01*
X105777544Y-81223024D01*
X105978024Y-81260500D01*
X106181976Y-81260500D01*
X106382456Y-81223024D01*
X106572637Y-81149348D01*
X106746041Y-81041981D01*
X106896764Y-80904579D01*
X107019673Y-80741821D01*
X107110582Y-80559250D01*
X107166397Y-80363083D01*
X107185215Y-80160000D01*
X107166397Y-79956917D01*
X107110582Y-79760750D01*
X107019673Y-79578179D01*
X106896764Y-79415421D01*
X106746041Y-79278019D01*
X106572637Y-79170652D01*
X106382456Y-79096976D01*
X106382455Y-79096975D01*
X106382453Y-79096975D01*
X106181976Y-79059500D01*
X105978024Y-79059500D01*
X105777546Y-79096975D01*
X105707632Y-79124059D01*
X105587363Y-79170652D01*
X105478676Y-79237948D01*
X105413959Y-79278019D01*
X105263237Y-79415420D01*
X105140328Y-79578177D01*
X105140323Y-79578186D01*
X105049419Y-79760747D01*
X105049418Y-79760750D01*
X104993603Y-79956917D01*
X104974785Y-80160000D01*
X101075500Y-80160000D01*
X101075500Y-77620000D01*
X104974785Y-77620000D01*
X104993603Y-77823083D01*
X105049418Y-78019250D01*
X105140327Y-78201821D01*
X105263236Y-78364579D01*
X105413959Y-78501981D01*
X105587363Y-78609348D01*
X105777544Y-78683024D01*
X105978024Y-78720500D01*
X106181976Y-78720500D01*
X106382456Y-78683024D01*
X106572637Y-78609348D01*
X106746041Y-78501981D01*
X106896764Y-78364579D01*
X107019673Y-78201821D01*
X107110582Y-78019250D01*
X107166397Y-77823083D01*
X107185215Y-77620000D01*
X107166397Y-77416917D01*
X107110582Y-77220750D01*
X107019673Y-77038179D01*
X106896764Y-76875421D01*
X106746041Y-76738019D01*
X106572637Y-76630652D01*
X106382456Y-76556976D01*
X106382455Y-76556975D01*
X106382453Y-76556975D01*
X106181976Y-76519500D01*
X105978024Y-76519500D01*
X105777546Y-76556975D01*
X105753055Y-76566463D01*
X105587363Y-76630652D01*
X105417792Y-76735646D01*
X105413959Y-76738019D01*
X105263237Y-76875420D01*
X105140328Y-77038177D01*
X105140323Y-77038186D01*
X105058450Y-77202611D01*
X105049418Y-77220750D01*
X104993603Y-77416917D01*
X104974785Y-77620000D01*
X101075500Y-77620000D01*
X101075500Y-72064654D01*
X107990001Y-72064654D01*
X108000317Y-72165642D01*
X108000320Y-72165654D01*
X108054548Y-72329306D01*
X108145053Y-72476035D01*
X108266964Y-72597946D01*
X108413693Y-72688451D01*
X108577351Y-72742681D01*
X108678345Y-72752999D01*
X108727500Y-72752998D01*
X108727500Y-72028001D01*
X108727499Y-72028000D01*
X107990002Y-72028000D01*
X107990001Y-72028001D01*
X107990001Y-72064654D01*
X101075500Y-72064654D01*
X101075500Y-71527999D01*
X107990000Y-71527999D01*
X107990001Y-71528000D01*
X108727499Y-71528000D01*
X108727500Y-71527999D01*
X108727500Y-70802999D01*
X108678347Y-70803000D01*
X108678344Y-70803001D01*
X108577357Y-70813317D01*
X108577345Y-70813320D01*
X108413693Y-70867548D01*
X108266964Y-70958053D01*
X108145053Y-71079964D01*
X108054548Y-71226693D01*
X108000318Y-71390351D01*
X107990000Y-71491344D01*
X107990000Y-71527999D01*
X101075500Y-71527999D01*
X101075500Y-71273891D01*
X101075805Y-71266124D01*
X101078908Y-71226692D01*
X101089595Y-71090900D01*
X101092022Y-71075571D01*
X101132146Y-70908445D01*
X101136942Y-70893686D01*
X101202718Y-70734890D01*
X101209755Y-70721078D01*
X101299564Y-70574523D01*
X101308684Y-70561971D01*
X101420309Y-70431275D01*
X101431275Y-70420309D01*
X101561971Y-70308684D01*
X101574523Y-70299564D01*
X101721078Y-70209755D01*
X101734890Y-70202718D01*
X101893686Y-70136942D01*
X101908445Y-70132146D01*
X102075571Y-70092022D01*
X102090900Y-70089595D01*
X102266125Y-70075805D01*
X102273892Y-70075500D01*
X102294531Y-70075500D01*
X125105469Y-70075500D01*
X125126108Y-70075500D01*
X125133875Y-70075805D01*
G37*
G04 #@! TD.AperFunction*
M02*
