G04 #@! TF.GenerationSoftware,KiCad,Pcbnew,8.0.4+dfsg-1*
G04 #@! TF.CreationDate,2025-03-02T14:32:21+09:00*
G04 #@! TF.ProjectId,bionic-p8048,62696f6e-6963-42d7-9038-3034382e6b69,6*
G04 #@! TF.SameCoordinates,Original*
G04 #@! TF.FileFunction,Copper,L2,Bot*
G04 #@! TF.FilePolarity,Positive*
%FSLAX46Y46*%
G04 Gerber Fmt 4.6, Leading zero omitted, Abs format (unit mm)*
G04 Created by KiCad (PCBNEW 8.0.4+dfsg-1) date 2025-03-02 14:32:21*
%MOMM*%
%LPD*%
G01*
G04 APERTURE LIST*
G04 Aperture macros list*
%AMRoundRect*
0 Rectangle with rounded corners*
0 $1 Rounding radius*
0 $2 $3 $4 $5 $6 $7 $8 $9 X,Y pos of 4 corners*
0 Add a 4 corners polygon primitive as box body*
4,1,4,$2,$3,$4,$5,$6,$7,$8,$9,$2,$3,0*
0 Add four circle primitives for the rounded corners*
1,1,$1+$1,$2,$3*
1,1,$1+$1,$4,$5*
1,1,$1+$1,$6,$7*
1,1,$1+$1,$8,$9*
0 Add four rect primitives between the rounded corners*
20,1,$1+$1,$2,$3,$4,$5,0*
20,1,$1+$1,$4,$5,$6,$7,0*
20,1,$1+$1,$6,$7,$8,$9,0*
20,1,$1+$1,$8,$9,$2,$3,0*%
G04 Aperture macros list end*
G04 #@! TA.AperFunction,ComponentPad*
%ADD10O,1.700000X1.700000*%
G04 #@! TD*
G04 #@! TA.AperFunction,ComponentPad*
%ADD11R,1.700000X1.700000*%
G04 #@! TD*
G04 #@! TA.AperFunction,ComponentPad*
%ADD12R,1.600000X1.600000*%
G04 #@! TD*
G04 #@! TA.AperFunction,ComponentPad*
%ADD13O,1.600000X1.600000*%
G04 #@! TD*
G04 #@! TA.AperFunction,SMDPad,CuDef*
%ADD14RoundRect,0.237500X0.237500X-0.300000X0.237500X0.300000X-0.237500X0.300000X-0.237500X-0.300000X0*%
G04 #@! TD*
G04 #@! TA.AperFunction,ViaPad*
%ADD15C,0.600000*%
G04 #@! TD*
G04 #@! TA.AperFunction,Conductor*
%ADD16C,0.200000*%
G04 #@! TD*
G04 #@! TA.AperFunction,Conductor*
%ADD17C,0.600000*%
G04 #@! TD*
G04 APERTURE END LIST*
D10*
X117510000Y-133500000D03*
X117510000Y-130960000D03*
X117510000Y-128420000D03*
X117510000Y-125880000D03*
X117510000Y-123340000D03*
X117510000Y-118260000D03*
X117510000Y-115720000D03*
X117510000Y-113180000D03*
X117510000Y-110640000D03*
X117510000Y-108100000D03*
X117510000Y-105560000D03*
X117510000Y-103020000D03*
X117510000Y-100480000D03*
X117510000Y-95400000D03*
X117510000Y-92860000D03*
X117510000Y-90320000D03*
X117510000Y-87780000D03*
X117510000Y-85240000D03*
X117510000Y-82700000D03*
X117510000Y-80160000D03*
X117510000Y-77620000D03*
D11*
X117510000Y-75080000D03*
X109890000Y-75080000D03*
D10*
X109890000Y-77620000D03*
X109890000Y-80160000D03*
X109890000Y-82700000D03*
X109890000Y-85240000D03*
X109890000Y-87780000D03*
X109890000Y-90320000D03*
X109890000Y-92860000D03*
X109890000Y-95400000D03*
X109890000Y-100480000D03*
X109890000Y-103020000D03*
X109890000Y-105560000D03*
X109890000Y-108100000D03*
X109890000Y-110640000D03*
X109890000Y-113180000D03*
X109890000Y-115720000D03*
X109890000Y-118260000D03*
X109890000Y-123340000D03*
X109890000Y-125880000D03*
X109890000Y-128420000D03*
X109890000Y-130960000D03*
X109890000Y-133500000D03*
D12*
X106080000Y-75080000D03*
D13*
X106080000Y-77620000D03*
X106080000Y-80160000D03*
X106080000Y-82700000D03*
X106080000Y-85240000D03*
X106080000Y-87780000D03*
X106080000Y-90320000D03*
X106080000Y-92860000D03*
X106080000Y-95400000D03*
X106080000Y-97940000D03*
X106080000Y-100480000D03*
X106080000Y-103020000D03*
X106080000Y-105560000D03*
X106080000Y-108100000D03*
X106080000Y-110640000D03*
X106080000Y-113180000D03*
X106080000Y-115720000D03*
X106080000Y-118260000D03*
X106080000Y-120800000D03*
X106080000Y-123340000D03*
X121320000Y-123340000D03*
X121320000Y-120800000D03*
X121320000Y-118260000D03*
X121320000Y-115720000D03*
X121320000Y-113180000D03*
X121320000Y-110640000D03*
X121320000Y-108100000D03*
X121320000Y-105560000D03*
X121320000Y-103020000D03*
X121320000Y-100480000D03*
X121320000Y-97940000D03*
X121320000Y-95400000D03*
X121320000Y-92860000D03*
X121320000Y-90320000D03*
X121320000Y-87780000D03*
X121320000Y-85240000D03*
X121320000Y-82700000D03*
X121320000Y-80160000D03*
X121320000Y-77620000D03*
X121320000Y-75080000D03*
D14*
X123910800Y-75078900D03*
X123910800Y-73353900D03*
D15*
X113700000Y-125372000D03*
X111541000Y-105052000D03*
X113700000Y-132103000D03*
X105064000Y-130706000D03*
X102651000Y-81303000D03*
X120050000Y-128420000D03*
X112684000Y-79652000D03*
X112811000Y-117371000D03*
X123733000Y-82446000D03*
X117383000Y-97813000D03*
X123479000Y-135151000D03*
X112557000Y-83335000D03*
X114462000Y-122070000D03*
X112811000Y-112037000D03*
X121320000Y-72667000D03*
X113065000Y-86129000D03*
X113065000Y-106195000D03*
X114462000Y-79525000D03*
X105064000Y-94130000D03*
X113405000Y-99845000D03*
X111668000Y-107338000D03*
X115805000Y-94003000D03*
X123995608Y-114458608D03*
X110906000Y-91590000D03*
X112176000Y-103655000D03*
X111033000Y-94130000D03*
X111414000Y-101115000D03*
X123733000Y-93622000D03*
D16*
X109890000Y-105560000D02*
X107858000Y-103528000D01*
X110525000Y-99210000D02*
X111795000Y-100480000D01*
X116875000Y-101750000D02*
X118018000Y-101750000D01*
X119288000Y-103020000D02*
X121320000Y-103020000D01*
X107858000Y-103528000D02*
X107858000Y-100607000D01*
X107858000Y-100607000D02*
X109255000Y-99210000D01*
X118018000Y-101750000D02*
X119288000Y-103020000D01*
X109255000Y-99210000D02*
X110525000Y-99210000D01*
X111795000Y-100480000D02*
X115605000Y-100480000D01*
X115605000Y-100480000D02*
X116875000Y-101750000D01*
X109890000Y-80160000D02*
X110144000Y-80160000D01*
X110144000Y-80160000D02*
X111814000Y-81830000D01*
X111814000Y-81830000D02*
X111814000Y-95889000D01*
X111814000Y-95889000D02*
X107458000Y-100245000D01*
X107458000Y-100245000D02*
X107458000Y-104182000D01*
X107458000Y-104182000D02*
X106080000Y-105560000D01*
X118145000Y-99210000D02*
X119415000Y-100480000D01*
X113405000Y-99845000D02*
X114040000Y-99210000D01*
X114040000Y-99210000D02*
X118145000Y-99210000D01*
X119415000Y-100480000D02*
X121320000Y-100480000D01*
D17*
X123910800Y-75080000D02*
X121320000Y-75080000D01*
D16*
X110525000Y-89050000D02*
X109210827Y-89050000D01*
X109890000Y-85240000D02*
X111414000Y-86764000D01*
X106670827Y-91590000D02*
X105572000Y-91590000D01*
X109210827Y-89050000D02*
X106670827Y-91590000D01*
X111414000Y-86764000D02*
X111414000Y-88161000D01*
X103705000Y-108265000D02*
X106080000Y-110640000D01*
X111414000Y-88161000D02*
X110525000Y-89050000D01*
X103705000Y-93457000D02*
X103705000Y-108265000D01*
X105572000Y-91590000D02*
X103705000Y-93457000D01*
X103305000Y-110405000D02*
X103305000Y-91317000D01*
X106080000Y-113180000D02*
X103305000Y-110405000D01*
X108620000Y-89050000D02*
X109890000Y-87780000D01*
X105572000Y-89050000D02*
X108620000Y-89050000D01*
X103305000Y-91317000D02*
X105572000Y-89050000D01*
X119415000Y-108100000D02*
X121320000Y-108100000D01*
X108258000Y-103293000D02*
X109255000Y-104290000D01*
X109890000Y-100480000D02*
X108258000Y-102112000D01*
X116875000Y-106830000D02*
X118145000Y-106830000D01*
X118145000Y-106830000D02*
X119415000Y-108100000D01*
X109255000Y-104290000D02*
X114335000Y-104290000D01*
X114335000Y-104290000D02*
X116875000Y-106830000D01*
X108258000Y-102112000D02*
X108258000Y-103293000D01*
X116938500Y-104290000D02*
X115668500Y-103020000D01*
X121320000Y-105560000D02*
X119415000Y-105560000D01*
X118145000Y-104290000D02*
X116938500Y-104290000D01*
X115668500Y-103020000D02*
X109890000Y-103020000D01*
X119415000Y-105560000D02*
X118145000Y-104290000D01*
X123047200Y-108023800D02*
X123047200Y-99667200D01*
X111160000Y-109370000D02*
X121701000Y-109370000D01*
X123047200Y-99667200D02*
X121320000Y-97940000D01*
X121701000Y-109370000D02*
X123047200Y-108023800D01*
X109890000Y-110640000D02*
X111160000Y-109370000D01*
X121828000Y-111910000D02*
X123447200Y-110290800D01*
X123447200Y-110290800D02*
X123447200Y-97527200D01*
X116875000Y-111910000D02*
X121828000Y-111910000D01*
X109890000Y-113180000D02*
X115605000Y-113180000D01*
X123447200Y-97527200D02*
X121320000Y-95400000D01*
X115605000Y-113180000D02*
X116875000Y-111910000D01*
X109890000Y-115720000D02*
X115605000Y-115720000D01*
X123847200Y-95387200D02*
X121320000Y-92860000D01*
X115605000Y-115720000D02*
X116875000Y-114450000D01*
X121955000Y-114450000D02*
X123847200Y-112557800D01*
X123847200Y-112557800D02*
X123847200Y-95387200D01*
X116875000Y-114450000D02*
X121955000Y-114450000D01*
X124647200Y-93647200D02*
X124647200Y-112958486D01*
X123047200Y-114558486D02*
X123047200Y-118310800D01*
X121828000Y-119530000D02*
X116875000Y-119530000D01*
X115605000Y-118260000D02*
X109890000Y-118260000D01*
X124647200Y-112958486D02*
X123047200Y-114558486D01*
X123047200Y-118310800D02*
X121828000Y-119530000D01*
X116875000Y-119530000D02*
X115605000Y-118260000D01*
X121320000Y-90320000D02*
X124647200Y-93647200D01*
X104556000Y-102004000D02*
X106080000Y-100480000D01*
X111160000Y-106830000D02*
X105699000Y-106830000D01*
X111668000Y-107338000D02*
X111160000Y-106830000D01*
X105699000Y-106830000D02*
X104556000Y-105687000D01*
X104556000Y-105687000D02*
X104556000Y-102004000D01*
X117510000Y-123340000D02*
X113700000Y-119530000D01*
X113700000Y-119530000D02*
X105572000Y-119530000D01*
X102905000Y-116863000D02*
X102905000Y-90955000D01*
X102905000Y-90955000D02*
X106080000Y-87780000D01*
X105572000Y-119530000D02*
X102905000Y-116863000D01*
X109255000Y-78890000D02*
X107985000Y-77620000D01*
X110652000Y-78890000D02*
X109255000Y-78890000D01*
X115805000Y-94003000D02*
X115281200Y-93479200D01*
X115281200Y-93479200D02*
X115281200Y-83519200D01*
X107985000Y-77620000D02*
X106080000Y-77620000D01*
X115281200Y-83519200D02*
X110652000Y-78890000D01*
X125047200Y-113407016D02*
X125047200Y-82109200D01*
X108112000Y-76350000D02*
X106842000Y-75080000D01*
X106842000Y-75080000D02*
X106080000Y-75080000D01*
X125047200Y-82109200D02*
X121828000Y-78890000D01*
X123995608Y-114458608D02*
X125047200Y-113407016D01*
X121828000Y-78890000D02*
X113065000Y-78890000D01*
X110525000Y-76350000D02*
X108112000Y-76350000D01*
X113065000Y-78890000D02*
X110525000Y-76350000D01*
X104105000Y-99915000D02*
X106080000Y-97940000D01*
X110525000Y-109370000D02*
X105572000Y-109370000D01*
X111795000Y-108100000D02*
X110525000Y-109370000D01*
X105572000Y-109370000D02*
X104105000Y-107903000D01*
X117510000Y-108100000D02*
X111795000Y-108100000D01*
X104105000Y-107903000D02*
X104105000Y-99915000D01*
X115605000Y-103655000D02*
X117510000Y-105560000D01*
X112176000Y-103655000D02*
X115605000Y-103655000D01*
X107350000Y-91590000D02*
X106080000Y-92860000D01*
X110906000Y-91590000D02*
X107350000Y-91590000D01*
X112049000Y-101750000D02*
X116240000Y-101750000D01*
X116240000Y-101750000D02*
X117510000Y-103020000D01*
X111033000Y-94130000D02*
X109255000Y-94130000D01*
X111414000Y-101115000D02*
X112049000Y-101750000D01*
X107985000Y-95400000D02*
X106080000Y-95400000D01*
X109255000Y-94130000D02*
X107985000Y-95400000D01*
X122844000Y-81684000D02*
X122844000Y-88034000D01*
X121828000Y-89050000D02*
X120812000Y-89050000D01*
X119542000Y-90320000D02*
X119542000Y-93368000D01*
X122844000Y-88034000D02*
X121828000Y-89050000D01*
X120812000Y-89050000D02*
X119542000Y-90320000D01*
X121320000Y-80160000D02*
X122844000Y-81684000D01*
X119542000Y-93368000D02*
X117510000Y-95400000D01*
X115681200Y-85036800D02*
X115681200Y-91031200D01*
X116748000Y-83970000D02*
X115681200Y-85036800D01*
X120012086Y-83970000D02*
X116748000Y-83970000D01*
X115681200Y-91031200D02*
X117510000Y-92860000D01*
X121282086Y-82700000D02*
X120012086Y-83970000D01*
X121320000Y-82700000D02*
X121282086Y-82700000D01*
X119542000Y-88288000D02*
X117510000Y-90320000D01*
X119542000Y-87018000D02*
X119542000Y-88288000D01*
X121320000Y-85240000D02*
X119542000Y-87018000D01*
X121320000Y-115720000D02*
X124247200Y-112792800D01*
X124247200Y-112792800D02*
X124247200Y-94136200D01*
X124247200Y-94136200D02*
X123733000Y-93622000D01*
G04 #@! TA.AperFunction,Conductor*
G36*
X103874504Y-109000897D02*
G01*
X105022663Y-110149056D01*
X105050440Y-110203573D01*
X105047880Y-110246152D01*
X104993603Y-110436915D01*
X104993603Y-110436917D01*
X104974785Y-110640000D01*
X104993603Y-110843083D01*
X105049418Y-111039250D01*
X105140327Y-111221821D01*
X105263236Y-111384579D01*
X105413959Y-111521981D01*
X105587363Y-111629348D01*
X105777544Y-111703024D01*
X105978024Y-111740500D01*
X106181976Y-111740500D01*
X106382456Y-111703024D01*
X106572637Y-111629348D01*
X106746041Y-111521981D01*
X106896764Y-111384579D01*
X107019673Y-111221821D01*
X107110582Y-111039250D01*
X107166397Y-110843083D01*
X107185215Y-110640000D01*
X107166397Y-110436917D01*
X107110582Y-110240750D01*
X107019673Y-110058179D01*
X106922240Y-109929157D01*
X106902263Y-109871330D01*
X106920092Y-109812799D01*
X106968918Y-109775927D01*
X107001246Y-109770500D01*
X108906099Y-109770500D01*
X108964290Y-109789407D01*
X109000254Y-109838907D01*
X109000254Y-109900093D01*
X108985103Y-109929161D01*
X108907635Y-110031743D01*
X108907630Y-110031752D01*
X108812596Y-110222608D01*
X108754244Y-110427688D01*
X108754244Y-110427690D01*
X108734571Y-110640000D01*
X108754244Y-110852310D01*
X108812595Y-111057389D01*
X108907634Y-111248255D01*
X109036128Y-111418407D01*
X109061013Y-111441093D01*
X109193692Y-111562047D01*
X109193699Y-111562053D01*
X109224786Y-111581301D01*
X109374981Y-111674298D01*
X109573802Y-111751321D01*
X109783390Y-111790500D01*
X109996610Y-111790500D01*
X110206198Y-111751321D01*
X110405019Y-111674298D01*
X110586302Y-111562052D01*
X110743872Y-111418407D01*
X110872366Y-111248255D01*
X110967405Y-111057389D01*
X111025756Y-110852310D01*
X111045429Y-110640000D01*
X111025756Y-110427690D01*
X110967405Y-110222611D01*
X110967401Y-110222604D01*
X110965752Y-110218344D01*
X110967129Y-110217810D01*
X110959021Y-110163350D01*
X110986649Y-110109742D01*
X111296897Y-109799496D01*
X111351413Y-109771719D01*
X111366900Y-109770500D01*
X116526099Y-109770500D01*
X116584290Y-109789407D01*
X116620254Y-109838907D01*
X116620254Y-109900093D01*
X116605103Y-109929161D01*
X116527635Y-110031743D01*
X116527630Y-110031752D01*
X116432596Y-110222608D01*
X116374244Y-110427688D01*
X116374244Y-110427690D01*
X116354571Y-110640000D01*
X116374244Y-110852310D01*
X116432595Y-111057389D01*
X116527634Y-111248255D01*
X116656128Y-111418407D01*
X116660511Y-111422403D01*
X116690779Y-111475576D01*
X116684011Y-111536386D01*
X116643321Y-111581301D01*
X116629089Y-111589518D01*
X115468103Y-112750504D01*
X115413586Y-112778281D01*
X115398099Y-112779500D01*
X111037113Y-112779500D01*
X110978922Y-112760593D01*
X110948492Y-112724628D01*
X110872369Y-112571752D01*
X110872366Y-112571745D01*
X110743872Y-112401593D01*
X110649902Y-112315927D01*
X110586307Y-112257952D01*
X110586300Y-112257946D01*
X110405024Y-112145705D01*
X110405019Y-112145702D01*
X110206195Y-112068678D01*
X109996610Y-112029500D01*
X109783390Y-112029500D01*
X109573804Y-112068678D01*
X109374980Y-112145702D01*
X109374975Y-112145705D01*
X109193699Y-112257946D01*
X109193692Y-112257952D01*
X109036135Y-112401586D01*
X109036131Y-112401589D01*
X109036128Y-112401593D01*
X109036125Y-112401597D01*
X108907635Y-112571743D01*
X108907630Y-112571752D01*
X108812596Y-112762608D01*
X108812595Y-112762611D01*
X108807790Y-112779500D01*
X108754244Y-112967688D01*
X108734571Y-113180000D01*
X108750720Y-113354285D01*
X108754244Y-113392310D01*
X108812595Y-113597389D01*
X108907634Y-113788255D01*
X109036128Y-113958407D01*
X109061013Y-113981093D01*
X109193692Y-114102047D01*
X109193699Y-114102053D01*
X109224786Y-114121301D01*
X109374981Y-114214298D01*
X109573802Y-114291321D01*
X109783390Y-114330500D01*
X109996610Y-114330500D01*
X110206198Y-114291321D01*
X110405019Y-114214298D01*
X110586302Y-114102052D01*
X110743872Y-113958407D01*
X110872366Y-113788255D01*
X110948492Y-113635372D01*
X110991354Y-113591710D01*
X111037113Y-113580500D01*
X115657725Y-113580500D01*
X115657727Y-113580500D01*
X115759588Y-113553207D01*
X115759590Y-113553205D01*
X115759592Y-113553205D01*
X115850908Y-113500483D01*
X115850908Y-113500482D01*
X115850913Y-113500480D01*
X116189913Y-113161478D01*
X116244430Y-113133701D01*
X116304862Y-113143272D01*
X116348127Y-113186537D01*
X116358495Y-113222347D01*
X116370720Y-113354285D01*
X116374244Y-113392310D01*
X116432595Y-113597389D01*
X116527634Y-113788255D01*
X116656128Y-113958407D01*
X116660511Y-113962403D01*
X116690779Y-114015576D01*
X116684011Y-114076386D01*
X116643321Y-114121301D01*
X116629089Y-114129518D01*
X115468103Y-115290504D01*
X115413586Y-115318281D01*
X115398099Y-115319500D01*
X111037113Y-115319500D01*
X110978922Y-115300593D01*
X110948492Y-115264628D01*
X110930779Y-115229055D01*
X110872366Y-115111745D01*
X110743872Y-114941593D01*
X110683866Y-114886890D01*
X110586307Y-114797952D01*
X110586300Y-114797946D01*
X110405024Y-114685705D01*
X110405019Y-114685702D01*
X110223480Y-114615374D01*
X110206198Y-114608679D01*
X110206197Y-114608678D01*
X110206195Y-114608678D01*
X109996610Y-114569500D01*
X109783390Y-114569500D01*
X109573804Y-114608678D01*
X109374980Y-114685702D01*
X109374975Y-114685705D01*
X109193699Y-114797946D01*
X109193692Y-114797952D01*
X109036135Y-114941586D01*
X109036131Y-114941589D01*
X109036128Y-114941593D01*
X109036125Y-114941597D01*
X108907635Y-115111743D01*
X108907630Y-115111752D01*
X108812596Y-115302608D01*
X108812595Y-115302611D01*
X108807790Y-115319500D01*
X108754244Y-115507688D01*
X108754244Y-115507690D01*
X108734571Y-115720000D01*
X108754244Y-115932310D01*
X108812595Y-116137389D01*
X108907634Y-116328255D01*
X109036128Y-116498407D01*
X109036135Y-116498413D01*
X109193692Y-116642047D01*
X109193699Y-116642053D01*
X109241397Y-116671586D01*
X109374981Y-116754298D01*
X109573802Y-116831321D01*
X109783390Y-116870500D01*
X109996610Y-116870500D01*
X110206198Y-116831321D01*
X110405019Y-116754298D01*
X110586302Y-116642052D01*
X110743872Y-116498407D01*
X110872366Y-116328255D01*
X110948492Y-116175372D01*
X110991354Y-116131710D01*
X111037113Y-116120500D01*
X115657725Y-116120500D01*
X115657727Y-116120500D01*
X115759588Y-116093207D01*
X115759590Y-116093205D01*
X115759592Y-116093205D01*
X115850908Y-116040483D01*
X115850908Y-116040482D01*
X115850913Y-116040480D01*
X116189913Y-115701478D01*
X116244430Y-115673701D01*
X116304862Y-115683272D01*
X116348127Y-115726537D01*
X116358494Y-115762346D01*
X116374244Y-115932310D01*
X116432595Y-116137389D01*
X116527634Y-116328255D01*
X116656128Y-116498407D01*
X116656135Y-116498413D01*
X116813692Y-116642047D01*
X116813699Y-116642053D01*
X116861397Y-116671586D01*
X116994981Y-116754298D01*
X117193802Y-116831321D01*
X117403390Y-116870500D01*
X117616610Y-116870500D01*
X117826198Y-116831321D01*
X118025019Y-116754298D01*
X118206302Y-116642052D01*
X118363872Y-116498407D01*
X118492366Y-116328255D01*
X118587405Y-116137389D01*
X118645756Y-115932310D01*
X118665429Y-115720000D01*
X118645756Y-115507690D01*
X118587405Y-115302611D01*
X118492366Y-115111745D01*
X118414896Y-115009159D01*
X118394918Y-114951330D01*
X118412747Y-114892799D01*
X118461573Y-114855927D01*
X118493901Y-114850500D01*
X120398754Y-114850500D01*
X120456945Y-114869407D01*
X120492909Y-114918907D01*
X120492909Y-114980093D01*
X120477760Y-115009155D01*
X120408783Y-115100496D01*
X120380328Y-115138177D01*
X120380323Y-115138186D01*
X120298450Y-115302611D01*
X120289418Y-115320750D01*
X120233603Y-115516917D01*
X120214785Y-115720000D01*
X120233603Y-115923083D01*
X120289418Y-116119250D01*
X120380327Y-116301821D01*
X120503236Y-116464579D01*
X120653959Y-116601981D01*
X120827363Y-116709348D01*
X121017544Y-116783024D01*
X121218024Y-116820500D01*
X121421976Y-116820500D01*
X121622456Y-116783024D01*
X121812637Y-116709348D01*
X121986041Y-116601981D01*
X122136764Y-116464579D01*
X122259673Y-116301821D01*
X122350582Y-116119250D01*
X122406397Y-115923083D01*
X122425215Y-115720000D01*
X122406397Y-115516917D01*
X122352118Y-115326148D01*
X122354379Y-115265008D01*
X122377333Y-115229058D01*
X122477697Y-115128694D01*
X122532213Y-115100918D01*
X122592645Y-115110490D01*
X122635910Y-115153754D01*
X122646700Y-115198699D01*
X122646700Y-118103899D01*
X122627793Y-118162090D01*
X122617704Y-118173903D01*
X122583360Y-118208247D01*
X122528843Y-118236024D01*
X122468411Y-118226453D01*
X122425146Y-118183188D01*
X122414779Y-118147382D01*
X122406397Y-118056917D01*
X122350582Y-117860750D01*
X122259673Y-117678179D01*
X122136764Y-117515421D01*
X121986041Y-117378019D01*
X121812637Y-117270652D01*
X121622456Y-117196976D01*
X121622455Y-117196975D01*
X121622453Y-117196975D01*
X121421976Y-117159500D01*
X121218024Y-117159500D01*
X121017546Y-117196975D01*
X120947632Y-117224059D01*
X120827363Y-117270652D01*
X120718676Y-117337948D01*
X120653959Y-117378019D01*
X120503237Y-117515420D01*
X120380328Y-117678177D01*
X120380323Y-117678186D01*
X120298450Y-117842611D01*
X120289418Y-117860750D01*
X120233603Y-118056917D01*
X120214785Y-118260000D01*
X120233603Y-118463083D01*
X120289418Y-118659250D01*
X120380327Y-118841821D01*
X120477759Y-118970842D01*
X120497737Y-119028670D01*
X120479908Y-119087201D01*
X120431082Y-119124073D01*
X120398754Y-119129500D01*
X118493901Y-119129500D01*
X118435710Y-119110593D01*
X118399746Y-119061093D01*
X118399746Y-118999907D01*
X118414897Y-118970839D01*
X118492366Y-118868255D01*
X118587405Y-118677389D01*
X118645756Y-118472310D01*
X118665429Y-118260000D01*
X118645756Y-118047690D01*
X118587405Y-117842611D01*
X118492366Y-117651745D01*
X118363872Y-117481593D01*
X118309623Y-117432139D01*
X118206307Y-117337952D01*
X118206300Y-117337946D01*
X118025024Y-117225705D01*
X118025019Y-117225702D01*
X117826195Y-117148678D01*
X117616610Y-117109500D01*
X117403390Y-117109500D01*
X117193804Y-117148678D01*
X116994980Y-117225702D01*
X116994975Y-117225705D01*
X116813699Y-117337946D01*
X116813692Y-117337952D01*
X116656135Y-117481586D01*
X116656131Y-117481589D01*
X116656128Y-117481593D01*
X116656125Y-117481597D01*
X116527635Y-117651743D01*
X116527630Y-117651752D01*
X116432596Y-117842608D01*
X116374244Y-118047688D01*
X116358495Y-118217651D01*
X116334299Y-118273849D01*
X116281691Y-118305092D01*
X116220767Y-118299446D01*
X116189914Y-118278520D01*
X115850913Y-117939520D01*
X115850908Y-117939516D01*
X115759591Y-117886794D01*
X115759593Y-117886794D01*
X115720070Y-117876204D01*
X115657727Y-117859500D01*
X115657725Y-117859500D01*
X111037113Y-117859500D01*
X110978922Y-117840593D01*
X110948492Y-117804628D01*
X110872369Y-117651752D01*
X110872366Y-117651745D01*
X110743872Y-117481593D01*
X110689623Y-117432139D01*
X110586307Y-117337952D01*
X110586300Y-117337946D01*
X110405024Y-117225705D01*
X110405019Y-117225702D01*
X110206195Y-117148678D01*
X109996610Y-117109500D01*
X109783390Y-117109500D01*
X109573804Y-117148678D01*
X109374980Y-117225702D01*
X109374975Y-117225705D01*
X109193699Y-117337946D01*
X109193692Y-117337952D01*
X109036135Y-117481586D01*
X109036131Y-117481589D01*
X109036128Y-117481593D01*
X109036125Y-117481597D01*
X108907635Y-117651743D01*
X108907630Y-117651752D01*
X108812596Y-117842608D01*
X108754244Y-118047688D01*
X108737428Y-118229172D01*
X108734571Y-118260000D01*
X108754244Y-118472310D01*
X108810979Y-118671710D01*
X108812596Y-118677391D01*
X108907630Y-118868247D01*
X108907635Y-118868256D01*
X108985103Y-118970839D01*
X109005082Y-119028670D01*
X108987253Y-119087201D01*
X108938427Y-119124073D01*
X108906099Y-119129500D01*
X107001246Y-119129500D01*
X106943055Y-119110593D01*
X106907091Y-119061093D01*
X106907091Y-118999907D01*
X106922239Y-118970844D01*
X107019673Y-118841821D01*
X107110582Y-118659250D01*
X107166397Y-118463083D01*
X107185215Y-118260000D01*
X107166397Y-118056917D01*
X107110582Y-117860750D01*
X107019673Y-117678179D01*
X106896764Y-117515421D01*
X106746041Y-117378019D01*
X106572637Y-117270652D01*
X106382456Y-117196976D01*
X106382455Y-117196975D01*
X106382453Y-117196975D01*
X106181976Y-117159500D01*
X105978024Y-117159500D01*
X105777546Y-117196975D01*
X105707632Y-117224059D01*
X105587363Y-117270652D01*
X105478676Y-117337948D01*
X105413959Y-117378019D01*
X105263237Y-117515420D01*
X105140328Y-117678177D01*
X105140323Y-117678186D01*
X105049419Y-117860747D01*
X104993603Y-118056917D01*
X104985221Y-118147377D01*
X104961025Y-118203575D01*
X104908417Y-118234818D01*
X104847493Y-118229172D01*
X104816639Y-118208246D01*
X103334496Y-116726103D01*
X103306719Y-116671586D01*
X103305500Y-116656099D01*
X103305500Y-115720000D01*
X104974785Y-115720000D01*
X104993603Y-115923083D01*
X105049418Y-116119250D01*
X105140327Y-116301821D01*
X105263236Y-116464579D01*
X105413959Y-116601981D01*
X105587363Y-116709348D01*
X105777544Y-116783024D01*
X105978024Y-116820500D01*
X106181976Y-116820500D01*
X106382456Y-116783024D01*
X106572637Y-116709348D01*
X106746041Y-116601981D01*
X106896764Y-116464579D01*
X107019673Y-116301821D01*
X107110582Y-116119250D01*
X107166397Y-115923083D01*
X107185215Y-115720000D01*
X107166397Y-115516917D01*
X107110582Y-115320750D01*
X107019673Y-115138179D01*
X106896764Y-114975421D01*
X106746041Y-114838019D01*
X106572637Y-114730652D01*
X106382456Y-114656976D01*
X106382455Y-114656975D01*
X106382453Y-114656975D01*
X106181976Y-114619500D01*
X105978024Y-114619500D01*
X105777546Y-114656975D01*
X105707632Y-114684059D01*
X105587363Y-114730652D01*
X105478676Y-114797948D01*
X105413959Y-114838019D01*
X105263237Y-114975420D01*
X105140328Y-115138177D01*
X105140323Y-115138186D01*
X105058450Y-115302611D01*
X105049418Y-115320750D01*
X104993603Y-115516917D01*
X104974785Y-115720000D01*
X103305500Y-115720000D01*
X103305500Y-111210900D01*
X103324407Y-111152709D01*
X103373907Y-111116745D01*
X103435093Y-111116745D01*
X103474504Y-111140896D01*
X105022663Y-112689056D01*
X105050440Y-112743573D01*
X105047880Y-112786152D01*
X104993603Y-112976915D01*
X104993603Y-112976917D01*
X104974785Y-113180000D01*
X104993603Y-113383083D01*
X105049418Y-113579250D01*
X105140327Y-113761821D01*
X105263236Y-113924579D01*
X105413959Y-114061981D01*
X105587363Y-114169348D01*
X105777544Y-114243024D01*
X105978024Y-114280500D01*
X106181976Y-114280500D01*
X106382456Y-114243024D01*
X106572637Y-114169348D01*
X106746041Y-114061981D01*
X106896764Y-113924579D01*
X107019673Y-113761821D01*
X107110582Y-113579250D01*
X107166397Y-113383083D01*
X107185215Y-113180000D01*
X107166397Y-112976917D01*
X107110582Y-112780750D01*
X107019673Y-112598179D01*
X106896764Y-112435421D01*
X106746041Y-112298019D01*
X106572637Y-112190652D01*
X106382456Y-112116976D01*
X106382455Y-112116975D01*
X106382453Y-112116975D01*
X106181976Y-112079500D01*
X105978024Y-112079500D01*
X105777544Y-112116975D01*
X105697739Y-112147892D01*
X105636648Y-112151282D01*
X105591973Y-112125581D01*
X103734496Y-110268103D01*
X103706719Y-110213586D01*
X103705500Y-110198099D01*
X103705500Y-109070901D01*
X103724407Y-109012710D01*
X103773907Y-108976746D01*
X103835093Y-108976746D01*
X103874504Y-109000897D01*
G37*
G04 #@! TD.AperFunction*
G04 #@! TA.AperFunction,Conductor*
G36*
X111207632Y-80012025D02*
G01*
X114851704Y-83656097D01*
X114879481Y-83710614D01*
X114880700Y-83726101D01*
X114880700Y-93426473D01*
X114880700Y-93531927D01*
X114902666Y-93613908D01*
X114907994Y-93633792D01*
X114960716Y-93725108D01*
X114960718Y-93725110D01*
X114960720Y-93725113D01*
X115170323Y-93934716D01*
X115198099Y-93989231D01*
X115198981Y-94000447D01*
X115219955Y-94159758D01*
X115219957Y-94159766D01*
X115280462Y-94305838D01*
X115280462Y-94305839D01*
X115326399Y-94365705D01*
X115376718Y-94431282D01*
X115502159Y-94527536D01*
X115648238Y-94588044D01*
X115765809Y-94603522D01*
X115804999Y-94608682D01*
X115805000Y-94608682D01*
X115805001Y-94608682D01*
X115836352Y-94604554D01*
X115961762Y-94588044D01*
X116107841Y-94527536D01*
X116233282Y-94431282D01*
X116329536Y-94305841D01*
X116390044Y-94159762D01*
X116410682Y-94003000D01*
X116390044Y-93846238D01*
X116374834Y-93809518D01*
X116329537Y-93700161D01*
X116329537Y-93700160D01*
X116233286Y-93574723D01*
X116233285Y-93574722D01*
X116233282Y-93574718D01*
X116233277Y-93574714D01*
X116233276Y-93574713D01*
X116107838Y-93478462D01*
X115961766Y-93417957D01*
X115961758Y-93417955D01*
X115798567Y-93396471D01*
X115798794Y-93394743D01*
X115748528Y-93378411D01*
X115736715Y-93368322D01*
X115710696Y-93342303D01*
X115682919Y-93287786D01*
X115681700Y-93272299D01*
X115681700Y-91837100D01*
X115700607Y-91778909D01*
X115750107Y-91742945D01*
X115811293Y-91742945D01*
X115850703Y-91767095D01*
X116142514Y-92058907D01*
X116413348Y-92329741D01*
X116441125Y-92384258D01*
X116432904Y-92437818D01*
X116434249Y-92438339D01*
X116432598Y-92442598D01*
X116374244Y-92647688D01*
X116356304Y-92841299D01*
X116354571Y-92860000D01*
X116374244Y-93072310D01*
X116432595Y-93277389D01*
X116527634Y-93468255D01*
X116656128Y-93638407D01*
X116685357Y-93665053D01*
X116813692Y-93782047D01*
X116813699Y-93782053D01*
X116844786Y-93801301D01*
X116994981Y-93894298D01*
X117193802Y-93971321D01*
X117403390Y-94010500D01*
X117616610Y-94010500D01*
X117826198Y-93971321D01*
X118025019Y-93894298D01*
X118206302Y-93782052D01*
X118363872Y-93638407D01*
X118492366Y-93468255D01*
X118587405Y-93277389D01*
X118645756Y-93072310D01*
X118665429Y-92860000D01*
X118645756Y-92647690D01*
X118587405Y-92442611D01*
X118492366Y-92251745D01*
X118363872Y-92081593D01*
X118265286Y-91991719D01*
X118206307Y-91937952D01*
X118206300Y-91937946D01*
X118025024Y-91825705D01*
X118025019Y-91825702D01*
X117939657Y-91792633D01*
X117826198Y-91748679D01*
X117826197Y-91748678D01*
X117826195Y-91748678D01*
X117616610Y-91709500D01*
X117403390Y-91709500D01*
X117193802Y-91748678D01*
X117089091Y-91789243D01*
X117028000Y-91792633D01*
X116983325Y-91766932D01*
X116110696Y-90894303D01*
X116082919Y-90839786D01*
X116081700Y-90824299D01*
X116081700Y-87780000D01*
X116354571Y-87780000D01*
X116374244Y-87992310D01*
X116432595Y-88197389D01*
X116527634Y-88388255D01*
X116656128Y-88558407D01*
X116656135Y-88558413D01*
X116813692Y-88702047D01*
X116813699Y-88702053D01*
X116858060Y-88729520D01*
X116994981Y-88814298D01*
X117193802Y-88891321D01*
X117403390Y-88930500D01*
X117616610Y-88930500D01*
X117826198Y-88891321D01*
X118025019Y-88814298D01*
X118206302Y-88702052D01*
X118363872Y-88558407D01*
X118492366Y-88388255D01*
X118587405Y-88197389D01*
X118645756Y-87992310D01*
X118665429Y-87780000D01*
X118645756Y-87567690D01*
X118587405Y-87362611D01*
X118492366Y-87171745D01*
X118363872Y-87001593D01*
X118309623Y-86952139D01*
X118206307Y-86857952D01*
X118206300Y-86857946D01*
X118025024Y-86745705D01*
X118025019Y-86745702D01*
X117826195Y-86668678D01*
X117616610Y-86629500D01*
X117403390Y-86629500D01*
X117193804Y-86668678D01*
X116994980Y-86745702D01*
X116994975Y-86745705D01*
X116813699Y-86857946D01*
X116813692Y-86857952D01*
X116656135Y-87001586D01*
X116656131Y-87001589D01*
X116656128Y-87001593D01*
X116656125Y-87001597D01*
X116527635Y-87171743D01*
X116527630Y-87171752D01*
X116432596Y-87362608D01*
X116374244Y-87567688D01*
X116374244Y-87567690D01*
X116354571Y-87780000D01*
X116081700Y-87780000D01*
X116081700Y-85243699D01*
X116100607Y-85185508D01*
X116110684Y-85173708D01*
X116192371Y-85092021D01*
X116246885Y-85064246D01*
X116307317Y-85073817D01*
X116350582Y-85117082D01*
X116360949Y-85171160D01*
X116354571Y-85240000D01*
X116374244Y-85452310D01*
X116432595Y-85657389D01*
X116527634Y-85848255D01*
X116656128Y-86018407D01*
X116656135Y-86018413D01*
X116813692Y-86162047D01*
X116813699Y-86162053D01*
X116917389Y-86226255D01*
X116994981Y-86274298D01*
X117193802Y-86351321D01*
X117403390Y-86390500D01*
X117616610Y-86390500D01*
X117826198Y-86351321D01*
X118025019Y-86274298D01*
X118206302Y-86162052D01*
X118363872Y-86018407D01*
X118492366Y-85848255D01*
X118587405Y-85657389D01*
X118645756Y-85452310D01*
X118665429Y-85240000D01*
X118645756Y-85027690D01*
X118587405Y-84822611D01*
X118492366Y-84631745D01*
X118414896Y-84529159D01*
X118394918Y-84471330D01*
X118412747Y-84412799D01*
X118461573Y-84375927D01*
X118493901Y-84370500D01*
X120064811Y-84370500D01*
X120064813Y-84370500D01*
X120166674Y-84343207D01*
X120166676Y-84343205D01*
X120166678Y-84343205D01*
X120257994Y-84290483D01*
X120257994Y-84290482D01*
X120257999Y-84290480D01*
X120804647Y-83743830D01*
X120859162Y-83716055D01*
X120910411Y-83721521D01*
X121017544Y-83763024D01*
X121218024Y-83800500D01*
X121421976Y-83800500D01*
X121622456Y-83763024D01*
X121812637Y-83689348D01*
X121986041Y-83581981D01*
X122136764Y-83444579D01*
X122259673Y-83281821D01*
X122259682Y-83281801D01*
X122260324Y-83280768D01*
X122260721Y-83280431D01*
X122262431Y-83278168D01*
X122262941Y-83278553D01*
X122307030Y-83241243D01*
X122368048Y-83236719D01*
X122420071Y-83268925D01*
X122443229Y-83325559D01*
X122443500Y-83332878D01*
X122443500Y-84607121D01*
X122424593Y-84665312D01*
X122375093Y-84701276D01*
X122313907Y-84701276D01*
X122264407Y-84665312D01*
X122260329Y-84659239D01*
X122259676Y-84658186D01*
X122259673Y-84658179D01*
X122136764Y-84495421D01*
X121986041Y-84358019D01*
X121812637Y-84250652D01*
X121622456Y-84176976D01*
X121622455Y-84176975D01*
X121622453Y-84176975D01*
X121421976Y-84139500D01*
X121218024Y-84139500D01*
X121017546Y-84176975D01*
X120947632Y-84204059D01*
X120827363Y-84250652D01*
X120677881Y-84343207D01*
X120653959Y-84358019D01*
X120503237Y-84495420D01*
X120380328Y-84658177D01*
X120380323Y-84658186D01*
X120298450Y-84822611D01*
X120289418Y-84840750D01*
X120233603Y-85036917D01*
X120214785Y-85240000D01*
X120233603Y-85443083D01*
X120236229Y-85452311D01*
X120287880Y-85633845D01*
X120285619Y-85694989D01*
X120262663Y-85730941D01*
X119221520Y-86772086D01*
X119221516Y-86772091D01*
X119168793Y-86863411D01*
X119168792Y-86863411D01*
X119168793Y-86863412D01*
X119141500Y-86965273D01*
X119141500Y-88081098D01*
X119122593Y-88139289D01*
X119112504Y-88151102D01*
X118036673Y-89226932D01*
X117982156Y-89254709D01*
X117930907Y-89249243D01*
X117826198Y-89208679D01*
X117826197Y-89208678D01*
X117826195Y-89208678D01*
X117616610Y-89169500D01*
X117403390Y-89169500D01*
X117193804Y-89208678D01*
X116994980Y-89285702D01*
X116994975Y-89285705D01*
X116813699Y-89397946D01*
X116813692Y-89397952D01*
X116656135Y-89541586D01*
X116656131Y-89541589D01*
X116656128Y-89541593D01*
X116656125Y-89541597D01*
X116527635Y-89711743D01*
X116527630Y-89711752D01*
X116432596Y-89902608D01*
X116374244Y-90107688D01*
X116354571Y-90320000D01*
X116368350Y-90468708D01*
X116374244Y-90532310D01*
X116432595Y-90737389D01*
X116527634Y-90928255D01*
X116656128Y-91098407D01*
X116681013Y-91121093D01*
X116813692Y-91242047D01*
X116813699Y-91242053D01*
X116858060Y-91269520D01*
X116994981Y-91354298D01*
X117193802Y-91431321D01*
X117403390Y-91470500D01*
X117616610Y-91470500D01*
X117826198Y-91431321D01*
X118025019Y-91354298D01*
X118206302Y-91242052D01*
X118363872Y-91098407D01*
X118492366Y-90928255D01*
X118587405Y-90737389D01*
X118645756Y-90532310D01*
X118665429Y-90320000D01*
X118645756Y-90107690D01*
X118587405Y-89902611D01*
X118587401Y-89902604D01*
X118585752Y-89898344D01*
X118587132Y-89897809D01*
X118579019Y-89843364D01*
X118606648Y-89789743D01*
X119862480Y-88533913D01*
X119867869Y-88524579D01*
X119915205Y-88442592D01*
X119915205Y-88442590D01*
X119915207Y-88442588D01*
X119942500Y-88340727D01*
X119942500Y-88235273D01*
X119942500Y-87224899D01*
X119961407Y-87166708D01*
X119971490Y-87154901D01*
X120831974Y-86294416D01*
X120886489Y-86266641D01*
X120937738Y-86272106D01*
X121017544Y-86303024D01*
X121218024Y-86340500D01*
X121421976Y-86340500D01*
X121622456Y-86303024D01*
X121812637Y-86229348D01*
X121986041Y-86121981D01*
X122136764Y-85984579D01*
X122259673Y-85821821D01*
X122259682Y-85821801D01*
X122260324Y-85820768D01*
X122260721Y-85820431D01*
X122262431Y-85818168D01*
X122262941Y-85818553D01*
X122307030Y-85781243D01*
X122368048Y-85776719D01*
X122420071Y-85808925D01*
X122443229Y-85865559D01*
X122443500Y-85872878D01*
X122443500Y-87147121D01*
X122424593Y-87205312D01*
X122375093Y-87241276D01*
X122313907Y-87241276D01*
X122264407Y-87205312D01*
X122260329Y-87199239D01*
X122259676Y-87198186D01*
X122259673Y-87198179D01*
X122136764Y-87035421D01*
X121986041Y-86898019D01*
X121812637Y-86790652D01*
X121622456Y-86716976D01*
X121622455Y-86716975D01*
X121622453Y-86716975D01*
X121421976Y-86679500D01*
X121218024Y-86679500D01*
X121017546Y-86716975D01*
X120947632Y-86744059D01*
X120827363Y-86790652D01*
X120709850Y-86863413D01*
X120653959Y-86898019D01*
X120503237Y-87035420D01*
X120380328Y-87198177D01*
X120380323Y-87198186D01*
X120298450Y-87362611D01*
X120289418Y-87380750D01*
X120233603Y-87576917D01*
X120214785Y-87780000D01*
X120233603Y-87983083D01*
X120287880Y-88173845D01*
X120289419Y-88179252D01*
X120369823Y-88340727D01*
X120380327Y-88361821D01*
X120503236Y-88524579D01*
X120566701Y-88582435D01*
X120596966Y-88635608D01*
X120590195Y-88696418D01*
X120570008Y-88725599D01*
X119221516Y-90074091D01*
X119168793Y-90165411D01*
X119168792Y-90165411D01*
X119168793Y-90165412D01*
X119141500Y-90267273D01*
X119141500Y-93161098D01*
X119122593Y-93219289D01*
X119112504Y-93231102D01*
X118036673Y-94306932D01*
X117982156Y-94334709D01*
X117930907Y-94329243D01*
X117826198Y-94288679D01*
X117826197Y-94288678D01*
X117826195Y-94288678D01*
X117616610Y-94249500D01*
X117403390Y-94249500D01*
X117193804Y-94288678D01*
X116994980Y-94365702D01*
X116994975Y-94365705D01*
X116813699Y-94477946D01*
X116813692Y-94477952D01*
X116656135Y-94621586D01*
X116656131Y-94621589D01*
X116656128Y-94621593D01*
X116656125Y-94621597D01*
X116527635Y-94791743D01*
X116527630Y-94791752D01*
X116432596Y-94982608D01*
X116432595Y-94982611D01*
X116427790Y-94999500D01*
X116374244Y-95187688D01*
X116374244Y-95187690D01*
X116354571Y-95400000D01*
X116374244Y-95612310D01*
X116432595Y-95817389D01*
X116527634Y-96008255D01*
X116656128Y-96178407D01*
X116656135Y-96178413D01*
X116813692Y-96322047D01*
X116813699Y-96322053D01*
X116916339Y-96385605D01*
X116994981Y-96434298D01*
X117193802Y-96511321D01*
X117403390Y-96550500D01*
X117616610Y-96550500D01*
X117826198Y-96511321D01*
X118025019Y-96434298D01*
X118206302Y-96322052D01*
X118363872Y-96178407D01*
X118492366Y-96008255D01*
X118587405Y-95817389D01*
X118645756Y-95612310D01*
X118665429Y-95400000D01*
X118645756Y-95187690D01*
X118587405Y-94982611D01*
X118587401Y-94982604D01*
X118585752Y-94978344D01*
X118587132Y-94977809D01*
X118579019Y-94923364D01*
X118606648Y-94869743D01*
X119862480Y-93613913D01*
X119880788Y-93582203D01*
X119915205Y-93522592D01*
X119915205Y-93522590D01*
X119915207Y-93522588D01*
X119942500Y-93420727D01*
X119942500Y-93315273D01*
X119942500Y-90526899D01*
X119961407Y-90468708D01*
X119971484Y-90456908D01*
X120056642Y-90371750D01*
X120111156Y-90343975D01*
X120171588Y-90353546D01*
X120214853Y-90396811D01*
X120225220Y-90432619D01*
X120233603Y-90523083D01*
X120287880Y-90713846D01*
X120289419Y-90719252D01*
X120376583Y-90894303D01*
X120380327Y-90901821D01*
X120503236Y-91064579D01*
X120653959Y-91201981D01*
X120827363Y-91309348D01*
X121017544Y-91383024D01*
X121218024Y-91420500D01*
X121421976Y-91420500D01*
X121622456Y-91383024D01*
X121702259Y-91352107D01*
X121763351Y-91348718D01*
X121808026Y-91374419D01*
X123407433Y-92973826D01*
X123435210Y-93028343D01*
X123425639Y-93088775D01*
X123397697Y-93122371D01*
X123304724Y-93193712D01*
X123304713Y-93193723D01*
X123208462Y-93319160D01*
X123208462Y-93319161D01*
X123147957Y-93465233D01*
X123147955Y-93465241D01*
X123127318Y-93621999D01*
X123127318Y-93622000D01*
X123147955Y-93778758D01*
X123147957Y-93778767D01*
X123199887Y-93904137D01*
X123204687Y-93965134D01*
X123172718Y-94017303D01*
X123116190Y-94040717D01*
X123056695Y-94026433D01*
X123038419Y-94012026D01*
X122377336Y-93350943D01*
X122349559Y-93296426D01*
X122352118Y-93253848D01*
X122406397Y-93063083D01*
X122425215Y-92860000D01*
X122406397Y-92656917D01*
X122350582Y-92460750D01*
X122259673Y-92278179D01*
X122136764Y-92115421D01*
X121986041Y-91978019D01*
X121812637Y-91870652D01*
X121622456Y-91796976D01*
X121622455Y-91796975D01*
X121622453Y-91796975D01*
X121421976Y-91759500D01*
X121218024Y-91759500D01*
X121017546Y-91796975D01*
X120977353Y-91812546D01*
X120827363Y-91870652D01*
X120718676Y-91937948D01*
X120653959Y-91978019D01*
X120503237Y-92115420D01*
X120380328Y-92278177D01*
X120380323Y-92278186D01*
X120298450Y-92442611D01*
X120289418Y-92460750D01*
X120233603Y-92656917D01*
X120214785Y-92860000D01*
X120233603Y-93063083D01*
X120287880Y-93253846D01*
X120289419Y-93259252D01*
X120369823Y-93420727D01*
X120380327Y-93441821D01*
X120503236Y-93604579D01*
X120653959Y-93741981D01*
X120827363Y-93849348D01*
X121017544Y-93923024D01*
X121218024Y-93960500D01*
X121421976Y-93960500D01*
X121622456Y-93923024D01*
X121702259Y-93892107D01*
X121763351Y-93888718D01*
X121808026Y-93914419D01*
X123417704Y-95524096D01*
X123445481Y-95578613D01*
X123446700Y-95594100D01*
X123446700Y-96721299D01*
X123427793Y-96779490D01*
X123378293Y-96815454D01*
X123317107Y-96815454D01*
X123277696Y-96791303D01*
X122377336Y-95890943D01*
X122349559Y-95836426D01*
X122352118Y-95793848D01*
X122406397Y-95603083D01*
X122425215Y-95400000D01*
X122406397Y-95196917D01*
X122350582Y-95000750D01*
X122259673Y-94818179D01*
X122136764Y-94655421D01*
X121986041Y-94518019D01*
X121812637Y-94410652D01*
X121622456Y-94336976D01*
X121622455Y-94336975D01*
X121622453Y-94336975D01*
X121421976Y-94299500D01*
X121218024Y-94299500D01*
X121017546Y-94336975D01*
X120977353Y-94352546D01*
X120827363Y-94410652D01*
X120718676Y-94477948D01*
X120653959Y-94518019D01*
X120503237Y-94655420D01*
X120380328Y-94818177D01*
X120380323Y-94818186D01*
X120298450Y-94982611D01*
X120289418Y-95000750D01*
X120233603Y-95196917D01*
X120214785Y-95400000D01*
X120233603Y-95603083D01*
X120289418Y-95799250D01*
X120380327Y-95981821D01*
X120503236Y-96144579D01*
X120653959Y-96281981D01*
X120827363Y-96389348D01*
X121017544Y-96463024D01*
X121218024Y-96500500D01*
X121421976Y-96500500D01*
X121622456Y-96463024D01*
X121702259Y-96432107D01*
X121763351Y-96428718D01*
X121808026Y-96454419D01*
X123017704Y-97664097D01*
X123045481Y-97718614D01*
X123046700Y-97734101D01*
X123046700Y-98861299D01*
X123027793Y-98919490D01*
X122978293Y-98955454D01*
X122917107Y-98955454D01*
X122877696Y-98931303D01*
X122377336Y-98430943D01*
X122349559Y-98376426D01*
X122352118Y-98333848D01*
X122406397Y-98143083D01*
X122425215Y-97940000D01*
X122406397Y-97736917D01*
X122350582Y-97540750D01*
X122259673Y-97358179D01*
X122136764Y-97195421D01*
X121986041Y-97058019D01*
X121812637Y-96950652D01*
X121622456Y-96876976D01*
X121622455Y-96876975D01*
X121622453Y-96876975D01*
X121421976Y-96839500D01*
X121218024Y-96839500D01*
X121017546Y-96876975D01*
X120947632Y-96904059D01*
X120827363Y-96950652D01*
X120653959Y-97058019D01*
X120503237Y-97195420D01*
X120380328Y-97358177D01*
X120380323Y-97358186D01*
X120289419Y-97540747D01*
X120289418Y-97540750D01*
X120233603Y-97736917D01*
X120214785Y-97940000D01*
X120233603Y-98143083D01*
X120289418Y-98339250D01*
X120380327Y-98521821D01*
X120503236Y-98684579D01*
X120653959Y-98821981D01*
X120827363Y-98929348D01*
X121017544Y-99003024D01*
X121218024Y-99040500D01*
X121421976Y-99040500D01*
X121622456Y-99003024D01*
X121702258Y-98972107D01*
X121763350Y-98968717D01*
X121808026Y-98994418D01*
X122617704Y-99804096D01*
X122645481Y-99858613D01*
X122646700Y-99874100D01*
X122646700Y-107816899D01*
X122627793Y-107875090D01*
X122617703Y-107886903D01*
X122570104Y-107934501D01*
X122515587Y-107962278D01*
X122455155Y-107952706D01*
X122411891Y-107909441D01*
X122404884Y-107891602D01*
X122350582Y-107700750D01*
X122259673Y-107518179D01*
X122136764Y-107355421D01*
X121986041Y-107218019D01*
X121812637Y-107110652D01*
X121622456Y-107036976D01*
X121622455Y-107036975D01*
X121622453Y-107036975D01*
X121421976Y-106999500D01*
X121218024Y-106999500D01*
X121017546Y-107036975D01*
X120947632Y-107064059D01*
X120827363Y-107110652D01*
X120655950Y-107216786D01*
X120653959Y-107218019D01*
X120503237Y-107355420D01*
X120380328Y-107518177D01*
X120380323Y-107518186D01*
X120317363Y-107644628D01*
X120274500Y-107688291D01*
X120228742Y-107699500D01*
X119621901Y-107699500D01*
X119563710Y-107680593D01*
X119551897Y-107670504D01*
X118975229Y-107093836D01*
X118390913Y-106509520D01*
X118390910Y-106509518D01*
X118376680Y-106501302D01*
X118335739Y-106455831D01*
X118329345Y-106394981D01*
X118359489Y-106342401D01*
X118363872Y-106338407D01*
X118492366Y-106168255D01*
X118587405Y-105977389D01*
X118645756Y-105772310D01*
X118661505Y-105602346D01*
X118685700Y-105546151D01*
X118738307Y-105514907D01*
X118799231Y-105520553D01*
X118830085Y-105541479D01*
X119169086Y-105880479D01*
X119169091Y-105880483D01*
X119260408Y-105933205D01*
X119260406Y-105933205D01*
X119260410Y-105933206D01*
X119260412Y-105933207D01*
X119362273Y-105960500D01*
X119467727Y-105960500D01*
X120228742Y-105960500D01*
X120286933Y-105979407D01*
X120317362Y-106015371D01*
X120380327Y-106141821D01*
X120503236Y-106304579D01*
X120653959Y-106441981D01*
X120827363Y-106549348D01*
X121017544Y-106623024D01*
X121218024Y-106660500D01*
X121421976Y-106660500D01*
X121622456Y-106623024D01*
X121812637Y-106549348D01*
X121986041Y-106441981D01*
X122136764Y-106304579D01*
X122259673Y-106141821D01*
X122350582Y-105959250D01*
X122406397Y-105763083D01*
X122425215Y-105560000D01*
X122406397Y-105356917D01*
X122350582Y-105160750D01*
X122259673Y-104978179D01*
X122136764Y-104815421D01*
X121986041Y-104678019D01*
X121812637Y-104570652D01*
X121622456Y-104496976D01*
X121622455Y-104496975D01*
X121622453Y-104496975D01*
X121421976Y-104459500D01*
X121218024Y-104459500D01*
X121017546Y-104496975D01*
X121017541Y-104496977D01*
X120827363Y-104570652D01*
X120653959Y-104678019D01*
X120503237Y-104815420D01*
X120380328Y-104978177D01*
X120380323Y-104978186D01*
X120317363Y-105104628D01*
X120274500Y-105148291D01*
X120228742Y-105159500D01*
X119621901Y-105159500D01*
X119563710Y-105140593D01*
X119551897Y-105130504D01*
X118972587Y-104551194D01*
X118390913Y-103969520D01*
X118390910Y-103969518D01*
X118376680Y-103961302D01*
X118335739Y-103915831D01*
X118329345Y-103854981D01*
X118359489Y-103802401D01*
X118363872Y-103798407D01*
X118492366Y-103628255D01*
X118587405Y-103437389D01*
X118645756Y-103232310D01*
X118650735Y-103178575D01*
X118674930Y-103122380D01*
X118727537Y-103091136D01*
X118788461Y-103096782D01*
X118819312Y-103117705D01*
X119042087Y-103340480D01*
X119042089Y-103340481D01*
X119042091Y-103340483D01*
X119133408Y-103393205D01*
X119133406Y-103393205D01*
X119133410Y-103393206D01*
X119133412Y-103393207D01*
X119235273Y-103420500D01*
X119340727Y-103420500D01*
X120228742Y-103420500D01*
X120286933Y-103439407D01*
X120317362Y-103475371D01*
X120380327Y-103601821D01*
X120503236Y-103764579D01*
X120653959Y-103901981D01*
X120827363Y-104009348D01*
X121017544Y-104083024D01*
X121218024Y-104120500D01*
X121421976Y-104120500D01*
X121622456Y-104083024D01*
X121812637Y-104009348D01*
X121986041Y-103901981D01*
X122136764Y-103764579D01*
X122259673Y-103601821D01*
X122350582Y-103419250D01*
X122406397Y-103223083D01*
X122425215Y-103020000D01*
X122406397Y-102816917D01*
X122350582Y-102620750D01*
X122259673Y-102438179D01*
X122136764Y-102275421D01*
X121986041Y-102138019D01*
X121812637Y-102030652D01*
X121622456Y-101956976D01*
X121622455Y-101956975D01*
X121622453Y-101956975D01*
X121421976Y-101919500D01*
X121218024Y-101919500D01*
X121017546Y-101956975D01*
X120947632Y-101984059D01*
X120827363Y-102030652D01*
X120677881Y-102123207D01*
X120653959Y-102138019D01*
X120503237Y-102275420D01*
X120380328Y-102438177D01*
X120380323Y-102438186D01*
X120317363Y-102564628D01*
X120274500Y-102608291D01*
X120228742Y-102619500D01*
X119494901Y-102619500D01*
X119436710Y-102600593D01*
X119424897Y-102590504D01*
X118865045Y-102030652D01*
X118295381Y-101460988D01*
X118267606Y-101406474D01*
X118277177Y-101346042D01*
X118298685Y-101317832D01*
X118363872Y-101258407D01*
X118492366Y-101088255D01*
X118587405Y-100897389D01*
X118645756Y-100692310D01*
X118661505Y-100522346D01*
X118685700Y-100466151D01*
X118738307Y-100434907D01*
X118799231Y-100440553D01*
X118830085Y-100461479D01*
X119169086Y-100800479D01*
X119169091Y-100800483D01*
X119260408Y-100853205D01*
X119260406Y-100853205D01*
X119260410Y-100853206D01*
X119260412Y-100853207D01*
X119362273Y-100880500D01*
X120228742Y-100880500D01*
X120286933Y-100899407D01*
X120317362Y-100935371D01*
X120380327Y-101061821D01*
X120503236Y-101224579D01*
X120653959Y-101361981D01*
X120827363Y-101469348D01*
X121017544Y-101543024D01*
X121218024Y-101580500D01*
X121421976Y-101580500D01*
X121622456Y-101543024D01*
X121812637Y-101469348D01*
X121986041Y-101361981D01*
X122136764Y-101224579D01*
X122259673Y-101061821D01*
X122350582Y-100879250D01*
X122406397Y-100683083D01*
X122425215Y-100480000D01*
X122406397Y-100276917D01*
X122350582Y-100080750D01*
X122259673Y-99898179D01*
X122136764Y-99735421D01*
X121986041Y-99598019D01*
X121812637Y-99490652D01*
X121622456Y-99416976D01*
X121622455Y-99416975D01*
X121622453Y-99416975D01*
X121421976Y-99379500D01*
X121218024Y-99379500D01*
X121017546Y-99416975D01*
X120947632Y-99444059D01*
X120827363Y-99490652D01*
X120744175Y-99542160D01*
X120653959Y-99598019D01*
X120503237Y-99735420D01*
X120380328Y-99898177D01*
X120380323Y-99898186D01*
X120317363Y-100024628D01*
X120274500Y-100068291D01*
X120228742Y-100079500D01*
X119621901Y-100079500D01*
X119563710Y-100060593D01*
X119551897Y-100050504D01*
X118992045Y-99490652D01*
X118390913Y-98889520D01*
X118390910Y-98889518D01*
X118390909Y-98889517D01*
X118390908Y-98889516D01*
X118299591Y-98836794D01*
X118299593Y-98836794D01*
X118260070Y-98826204D01*
X118197727Y-98809500D01*
X118197725Y-98809500D01*
X114098806Y-98809500D01*
X114098790Y-98809499D01*
X114092727Y-98809499D01*
X113987273Y-98809499D01*
X113987270Y-98809499D01*
X113885413Y-98836792D01*
X113885409Y-98836794D01*
X113794087Y-98889519D01*
X113719519Y-98964086D01*
X113719520Y-98964087D01*
X113719518Y-98964089D01*
X113473283Y-99210322D01*
X113418768Y-99238099D01*
X113407554Y-99238981D01*
X113248241Y-99259955D01*
X113248233Y-99259957D01*
X113102161Y-99320462D01*
X113102160Y-99320462D01*
X112976723Y-99416713D01*
X112976713Y-99416723D01*
X112880462Y-99542160D01*
X112880462Y-99542161D01*
X112819957Y-99688233D01*
X112819955Y-99688241D01*
X112804703Y-99804096D01*
X112799318Y-99845000D01*
X112815133Y-99965129D01*
X112815456Y-99967578D01*
X112804306Y-100027738D01*
X112759924Y-100069856D01*
X112717303Y-100079500D01*
X112001901Y-100079500D01*
X111943710Y-100060593D01*
X111931897Y-100050504D01*
X111372045Y-99490652D01*
X110770913Y-98889520D01*
X110770910Y-98889518D01*
X110770909Y-98889517D01*
X110770908Y-98889516D01*
X110679591Y-98836794D01*
X110679593Y-98836794D01*
X110640070Y-98826204D01*
X110577727Y-98809500D01*
X110577725Y-98809500D01*
X109698901Y-98809500D01*
X109640710Y-98790593D01*
X109604746Y-98741093D01*
X109604746Y-98679907D01*
X109628897Y-98640496D01*
X110126311Y-98143082D01*
X112134480Y-96134913D01*
X112187207Y-96043588D01*
X112214500Y-95941727D01*
X112214500Y-95836273D01*
X112214500Y-81890714D01*
X112214501Y-81890701D01*
X112214501Y-81777272D01*
X112214500Y-81777270D01*
X112187208Y-81675416D01*
X112187206Y-81675411D01*
X112161724Y-81631274D01*
X112134481Y-81584089D01*
X112134480Y-81584087D01*
X112059913Y-81509520D01*
X112059910Y-81509518D01*
X111044067Y-80493674D01*
X111016290Y-80439157D01*
X111018850Y-80396578D01*
X111025756Y-80372310D01*
X111045429Y-80160000D01*
X111039050Y-80091162D01*
X111052508Y-80031477D01*
X111098478Y-79991099D01*
X111159403Y-79985453D01*
X111207632Y-80012025D01*
G37*
G04 #@! TD.AperFunction*
G04 #@! TA.AperFunction,Conductor*
G36*
X114186290Y-104709407D02*
G01*
X114198103Y-104719496D01*
X116554520Y-107075913D01*
X116554519Y-107075913D01*
X116626960Y-107148353D01*
X116629087Y-107150480D01*
X116643318Y-107158696D01*
X116684258Y-107204164D01*
X116690655Y-107265014D01*
X116660517Y-107317591D01*
X116656131Y-107321589D01*
X116656128Y-107321592D01*
X116527640Y-107491736D01*
X116527630Y-107491752D01*
X116451508Y-107644628D01*
X116408646Y-107688290D01*
X116362887Y-107699500D01*
X112316403Y-107699500D01*
X112258212Y-107680593D01*
X112222248Y-107631093D01*
X112222248Y-107569907D01*
X112224939Y-107562615D01*
X112253042Y-107494767D01*
X112253042Y-107494766D01*
X112253044Y-107494762D01*
X112273682Y-107338000D01*
X112271521Y-107321589D01*
X112264073Y-107265014D01*
X112253044Y-107181238D01*
X112209417Y-107075913D01*
X112192537Y-107035161D01*
X112192537Y-107035160D01*
X112096286Y-106909723D01*
X112096285Y-106909722D01*
X112096282Y-106909718D01*
X112096277Y-106909714D01*
X112096276Y-106909713D01*
X111970838Y-106813462D01*
X111824766Y-106752957D01*
X111824758Y-106752955D01*
X111661567Y-106731471D01*
X111661794Y-106729743D01*
X111611528Y-106713411D01*
X111599716Y-106703322D01*
X111405913Y-106509520D01*
X111405908Y-106509516D01*
X111314591Y-106456794D01*
X111314593Y-106456794D01*
X111275070Y-106446204D01*
X111212727Y-106429500D01*
X111212725Y-106429500D01*
X110873901Y-106429500D01*
X110815710Y-106410593D01*
X110779746Y-106361093D01*
X110779746Y-106299907D01*
X110794897Y-106270839D01*
X110872366Y-106168255D01*
X110967405Y-105977389D01*
X111025756Y-105772310D01*
X111045429Y-105560000D01*
X111025756Y-105347690D01*
X110967405Y-105142611D01*
X110872366Y-104951745D01*
X110794896Y-104849159D01*
X110774918Y-104791330D01*
X110792747Y-104732799D01*
X110841573Y-104695927D01*
X110873901Y-104690500D01*
X114128099Y-104690500D01*
X114186290Y-104709407D01*
G37*
G04 #@! TD.AperFunction*
G04 #@! TA.AperFunction,Conductor*
G36*
X108964290Y-92009407D02*
G01*
X109000254Y-92058907D01*
X109000254Y-92120093D01*
X108985104Y-92149159D01*
X108958358Y-92184576D01*
X108907635Y-92251743D01*
X108907630Y-92251752D01*
X108812596Y-92442608D01*
X108754244Y-92647688D01*
X108736304Y-92841299D01*
X108734571Y-92860000D01*
X108754244Y-93072310D01*
X108812595Y-93277389D01*
X108907634Y-93468255D01*
X109036128Y-93638407D01*
X109040511Y-93642403D01*
X109070779Y-93695576D01*
X109064011Y-93756386D01*
X109023321Y-93801301D01*
X109009089Y-93809518D01*
X107848103Y-94970504D01*
X107793586Y-94998281D01*
X107778099Y-94999500D01*
X107171258Y-94999500D01*
X107113067Y-94980593D01*
X107082637Y-94944628D01*
X107048308Y-94875686D01*
X107019673Y-94818179D01*
X106896764Y-94655421D01*
X106746041Y-94518019D01*
X106572637Y-94410652D01*
X106382456Y-94336976D01*
X106382455Y-94336975D01*
X106382453Y-94336975D01*
X106181976Y-94299500D01*
X105978024Y-94299500D01*
X105777546Y-94336975D01*
X105737353Y-94352546D01*
X105587363Y-94410652D01*
X105478676Y-94477948D01*
X105413959Y-94518019D01*
X105263237Y-94655420D01*
X105140328Y-94818177D01*
X105140323Y-94818186D01*
X105058450Y-94982611D01*
X105049418Y-95000750D01*
X104993603Y-95196917D01*
X104974785Y-95400000D01*
X104993603Y-95603083D01*
X105049418Y-95799250D01*
X105140327Y-95981821D01*
X105263236Y-96144579D01*
X105413959Y-96281981D01*
X105587363Y-96389348D01*
X105777544Y-96463024D01*
X105978024Y-96500500D01*
X106181976Y-96500500D01*
X106382456Y-96463024D01*
X106572637Y-96389348D01*
X106746041Y-96281981D01*
X106896764Y-96144579D01*
X107019673Y-95981821D01*
X107082637Y-95855371D01*
X107125500Y-95811709D01*
X107171258Y-95800500D01*
X108037725Y-95800500D01*
X108037727Y-95800500D01*
X108139588Y-95773207D01*
X108139590Y-95773205D01*
X108139592Y-95773205D01*
X108230908Y-95720483D01*
X108230908Y-95720482D01*
X108230913Y-95720480D01*
X108569913Y-95381478D01*
X108624430Y-95353701D01*
X108684862Y-95363272D01*
X108728127Y-95406537D01*
X108738494Y-95442346D01*
X108754244Y-95612310D01*
X108812595Y-95817389D01*
X108907634Y-96008255D01*
X109036128Y-96178407D01*
X109036135Y-96178413D01*
X109193692Y-96322047D01*
X109193699Y-96322053D01*
X109296339Y-96385605D01*
X109374981Y-96434298D01*
X109573802Y-96511321D01*
X109783390Y-96550500D01*
X109996610Y-96550500D01*
X110206198Y-96511321D01*
X110405019Y-96434298D01*
X110460148Y-96400163D01*
X110519573Y-96385605D01*
X110576209Y-96408758D01*
X110608420Y-96460778D01*
X110603902Y-96521797D01*
X110582267Y-96554339D01*
X107189684Y-99946923D01*
X107135167Y-99974700D01*
X107074735Y-99965129D01*
X107031470Y-99921864D01*
X107031144Y-99921216D01*
X107019673Y-99898179D01*
X106896764Y-99735421D01*
X106746041Y-99598019D01*
X106572637Y-99490652D01*
X106382456Y-99416976D01*
X106382455Y-99416975D01*
X106382453Y-99416975D01*
X106181976Y-99379500D01*
X105978024Y-99379500D01*
X105777546Y-99416975D01*
X105707632Y-99444059D01*
X105587363Y-99490652D01*
X105504175Y-99542160D01*
X105413959Y-99598019D01*
X105263237Y-99735420D01*
X105140328Y-99898177D01*
X105140323Y-99898186D01*
X105050040Y-100079500D01*
X105049418Y-100080750D01*
X104993603Y-100276917D01*
X104974785Y-100480000D01*
X104993603Y-100683083D01*
X105027005Y-100800479D01*
X105047880Y-100873845D01*
X105045619Y-100934989D01*
X105022663Y-100970941D01*
X104674504Y-101319101D01*
X104619987Y-101346879D01*
X104559555Y-101337308D01*
X104516290Y-101294043D01*
X104505500Y-101249098D01*
X104505500Y-100121899D01*
X104524407Y-100063708D01*
X104534490Y-100051901D01*
X105591974Y-98994416D01*
X105646489Y-98966641D01*
X105697738Y-98972106D01*
X105777544Y-99003024D01*
X105978024Y-99040500D01*
X106181976Y-99040500D01*
X106382456Y-99003024D01*
X106572637Y-98929348D01*
X106746041Y-98821981D01*
X106896764Y-98684579D01*
X107019673Y-98521821D01*
X107110582Y-98339250D01*
X107166397Y-98143083D01*
X107185215Y-97940000D01*
X107166397Y-97736917D01*
X107110582Y-97540750D01*
X107019673Y-97358179D01*
X106896764Y-97195421D01*
X106746041Y-97058019D01*
X106572637Y-96950652D01*
X106382456Y-96876976D01*
X106382455Y-96876975D01*
X106382453Y-96876975D01*
X106181976Y-96839500D01*
X105978024Y-96839500D01*
X105777546Y-96876975D01*
X105707632Y-96904059D01*
X105587363Y-96950652D01*
X105413959Y-97058019D01*
X105263237Y-97195420D01*
X105140328Y-97358177D01*
X105140323Y-97358186D01*
X105049419Y-97540747D01*
X104993603Y-97736917D01*
X104974785Y-97940000D01*
X104993603Y-98143082D01*
X105047880Y-98333845D01*
X105045619Y-98394989D01*
X105022663Y-98430942D01*
X104274504Y-99179102D01*
X104219987Y-99206879D01*
X104159555Y-99197308D01*
X104116290Y-99154043D01*
X104105500Y-99109098D01*
X104105500Y-93663900D01*
X104124407Y-93605709D01*
X104134496Y-93593896D01*
X104474546Y-93253846D01*
X104816641Y-92911750D01*
X104871156Y-92883975D01*
X104931588Y-92893546D01*
X104974853Y-92936811D01*
X104985220Y-92972619D01*
X104993603Y-93063083D01*
X105047880Y-93253846D01*
X105049419Y-93259252D01*
X105129823Y-93420727D01*
X105140327Y-93441821D01*
X105263236Y-93604579D01*
X105413959Y-93741981D01*
X105587363Y-93849348D01*
X105777544Y-93923024D01*
X105978024Y-93960500D01*
X106181976Y-93960500D01*
X106382456Y-93923024D01*
X106572637Y-93849348D01*
X106746041Y-93741981D01*
X106896764Y-93604579D01*
X107019673Y-93441821D01*
X107110582Y-93259250D01*
X107166397Y-93063083D01*
X107185215Y-92860000D01*
X107166397Y-92656917D01*
X107112118Y-92466148D01*
X107114379Y-92405008D01*
X107137334Y-92369058D01*
X107486897Y-92019496D01*
X107541413Y-91991719D01*
X107556900Y-91990500D01*
X108906099Y-91990500D01*
X108964290Y-92009407D01*
G37*
G04 #@! TD.AperFunction*
G04 #@! TA.AperFunction,Conductor*
G36*
X122552505Y-80190826D02*
G01*
X122583360Y-80211753D01*
X124617704Y-82246097D01*
X124645481Y-82300614D01*
X124646700Y-82316101D01*
X124646700Y-92841299D01*
X124627793Y-92899490D01*
X124578293Y-92935454D01*
X124517107Y-92935454D01*
X124477696Y-92911303D01*
X122377336Y-90810943D01*
X122349559Y-90756426D01*
X122352118Y-90713848D01*
X122406397Y-90523083D01*
X122425215Y-90320000D01*
X122406397Y-90116917D01*
X122350582Y-89920750D01*
X122259673Y-89738179D01*
X122136764Y-89575421D01*
X122073297Y-89517564D01*
X122043033Y-89464390D01*
X122049804Y-89403581D01*
X122069991Y-89374400D01*
X122073908Y-89370482D01*
X122073913Y-89370480D01*
X123164480Y-88279913D01*
X123164483Y-88279908D01*
X123217205Y-88188592D01*
X123217205Y-88188590D01*
X123217207Y-88188588D01*
X123244500Y-88086727D01*
X123244500Y-87981273D01*
X123244500Y-81631273D01*
X123217207Y-81529413D01*
X123164480Y-81438087D01*
X123089913Y-81363519D01*
X123089913Y-81363520D01*
X122377336Y-80650943D01*
X122349559Y-80596426D01*
X122352118Y-80553848D01*
X122406397Y-80363083D01*
X122414779Y-80272619D01*
X122438974Y-80216425D01*
X122491581Y-80185181D01*
X122552505Y-80190826D01*
G37*
G04 #@! TD.AperFunction*
G04 #@! TA.AperFunction,Conductor*
G36*
X111179231Y-77580553D02*
G01*
X111210086Y-77601479D01*
X112744520Y-79135913D01*
X112744519Y-79135913D01*
X112819087Y-79210480D01*
X112910413Y-79263207D01*
X113012273Y-79290500D01*
X113117727Y-79290500D01*
X116526099Y-79290500D01*
X116584290Y-79309407D01*
X116620254Y-79358907D01*
X116620254Y-79420093D01*
X116605103Y-79449161D01*
X116527635Y-79551743D01*
X116527630Y-79551752D01*
X116432596Y-79742608D01*
X116374244Y-79947688D01*
X116354571Y-80160000D01*
X116359366Y-80211753D01*
X116374244Y-80372310D01*
X116432595Y-80577389D01*
X116527634Y-80768255D01*
X116656128Y-80938407D01*
X116656135Y-80938413D01*
X116813692Y-81082047D01*
X116813699Y-81082053D01*
X116867208Y-81115184D01*
X116994981Y-81194298D01*
X117193802Y-81271321D01*
X117403390Y-81310500D01*
X117616610Y-81310500D01*
X117826198Y-81271321D01*
X118025019Y-81194298D01*
X118206302Y-81082052D01*
X118363872Y-80938407D01*
X118492366Y-80768255D01*
X118587405Y-80577389D01*
X118645756Y-80372310D01*
X118665429Y-80160000D01*
X118645756Y-79947690D01*
X118587405Y-79742611D01*
X118492366Y-79551745D01*
X118414896Y-79449159D01*
X118394918Y-79391330D01*
X118412747Y-79332799D01*
X118461573Y-79295927D01*
X118493901Y-79290500D01*
X120398754Y-79290500D01*
X120456945Y-79309407D01*
X120492909Y-79358907D01*
X120492909Y-79420093D01*
X120477760Y-79449155D01*
X120408783Y-79540496D01*
X120380328Y-79578177D01*
X120380323Y-79578186D01*
X120298450Y-79742611D01*
X120289418Y-79760750D01*
X120233603Y-79956917D01*
X120214785Y-80160000D01*
X120233603Y-80363083D01*
X120289418Y-80559250D01*
X120380327Y-80741821D01*
X120503236Y-80904579D01*
X120653959Y-81041981D01*
X120827363Y-81149348D01*
X121017544Y-81223024D01*
X121218024Y-81260500D01*
X121421976Y-81260500D01*
X121622456Y-81223024D01*
X121702259Y-81192107D01*
X121763351Y-81188718D01*
X121808026Y-81214419D01*
X122414504Y-81820897D01*
X122442281Y-81875414D01*
X122443500Y-81890901D01*
X122443500Y-82067121D01*
X122424593Y-82125312D01*
X122375093Y-82161276D01*
X122313907Y-82161276D01*
X122264407Y-82125312D01*
X122260329Y-82119239D01*
X122259676Y-82118186D01*
X122259673Y-82118179D01*
X122136764Y-81955421D01*
X121986041Y-81818019D01*
X121812637Y-81710652D01*
X121622456Y-81636976D01*
X121622455Y-81636975D01*
X121622453Y-81636975D01*
X121421976Y-81599500D01*
X121218024Y-81599500D01*
X121017546Y-81636975D01*
X120947632Y-81664059D01*
X120827363Y-81710652D01*
X120718676Y-81777948D01*
X120653959Y-81818019D01*
X120504125Y-81954611D01*
X120503236Y-81955421D01*
X120472674Y-81995892D01*
X120380328Y-82118177D01*
X120380323Y-82118186D01*
X120289419Y-82300747D01*
X120233603Y-82496917D01*
X120214785Y-82700000D01*
X120233603Y-82903084D01*
X120279482Y-83064331D01*
X120277221Y-83125474D01*
X120254265Y-83161426D01*
X119875190Y-83540503D01*
X119820673Y-83568281D01*
X119805186Y-83569500D01*
X118493901Y-83569500D01*
X118435710Y-83550593D01*
X118399746Y-83501093D01*
X118399746Y-83439907D01*
X118414897Y-83410839D01*
X118492366Y-83308255D01*
X118587405Y-83117389D01*
X118645756Y-82912310D01*
X118665429Y-82700000D01*
X118645756Y-82487690D01*
X118587405Y-82282611D01*
X118492366Y-82091745D01*
X118363872Y-81921593D01*
X118299914Y-81863287D01*
X118206307Y-81777952D01*
X118206300Y-81777946D01*
X118025024Y-81665705D01*
X118025019Y-81665702D01*
X117826195Y-81588678D01*
X117616610Y-81549500D01*
X117403390Y-81549500D01*
X117193804Y-81588678D01*
X116994980Y-81665702D01*
X116994975Y-81665705D01*
X116813699Y-81777946D01*
X116813692Y-81777952D01*
X116656135Y-81921586D01*
X116656131Y-81921589D01*
X116656128Y-81921593D01*
X116656125Y-81921597D01*
X116527635Y-82091743D01*
X116527630Y-82091752D01*
X116432596Y-82282608D01*
X116374244Y-82487688D01*
X116374244Y-82487690D01*
X116354571Y-82700000D01*
X116374244Y-82912310D01*
X116432595Y-83117389D01*
X116527634Y-83308255D01*
X116527639Y-83308262D01*
X116527640Y-83308263D01*
X116632148Y-83446653D01*
X116652128Y-83504484D01*
X116634300Y-83563014D01*
X116598167Y-83592051D01*
X116599031Y-83593548D01*
X116502091Y-83649516D01*
X115850704Y-84300903D01*
X115796187Y-84328680D01*
X115735755Y-84319109D01*
X115692490Y-84275844D01*
X115681700Y-84230899D01*
X115681700Y-83466474D01*
X115676389Y-83446653D01*
X115654407Y-83364613D01*
X115606602Y-83281813D01*
X115601680Y-83273287D01*
X115527113Y-83198719D01*
X115527113Y-83198720D01*
X110897913Y-78569520D01*
X110897910Y-78569518D01*
X110897909Y-78569517D01*
X110897908Y-78569516D01*
X110800969Y-78513548D01*
X110801973Y-78511808D01*
X110762435Y-78478029D01*
X110748160Y-78418532D01*
X110767849Y-78366655D01*
X110872366Y-78228255D01*
X110967405Y-78037389D01*
X111025756Y-77832310D01*
X111041505Y-77662346D01*
X111065700Y-77606151D01*
X111118307Y-77574907D01*
X111179231Y-77580553D01*
G37*
G04 #@! TD.AperFunction*
G04 #@! TA.AperFunction,Conductor*
G36*
X125134309Y-70100877D02*
G01*
X125324457Y-70117512D01*
X125341437Y-70120505D01*
X125521635Y-70168789D01*
X125537839Y-70174687D01*
X125706902Y-70253523D01*
X125721842Y-70262149D01*
X125874641Y-70369140D01*
X125887861Y-70380232D01*
X126019767Y-70512138D01*
X126030859Y-70525358D01*
X126137850Y-70678157D01*
X126146478Y-70693101D01*
X126225308Y-70862151D01*
X126231211Y-70878368D01*
X126279492Y-71058555D01*
X126282488Y-71075550D01*
X126299123Y-71265690D01*
X126299500Y-71274318D01*
X126299500Y-137305681D01*
X126299123Y-137314309D01*
X126282488Y-137504449D01*
X126279492Y-137521444D01*
X126231211Y-137701631D01*
X126225308Y-137717848D01*
X126146478Y-137886898D01*
X126137850Y-137901842D01*
X126030859Y-138054641D01*
X126019767Y-138067861D01*
X125887861Y-138199767D01*
X125874641Y-138210859D01*
X125721842Y-138317850D01*
X125706898Y-138326478D01*
X125537848Y-138405308D01*
X125521631Y-138411211D01*
X125341444Y-138459492D01*
X125324449Y-138462488D01*
X125134309Y-138479123D01*
X125125681Y-138479500D01*
X102274319Y-138479500D01*
X102265691Y-138479123D01*
X102075550Y-138462488D01*
X102058555Y-138459492D01*
X101878368Y-138411211D01*
X101862154Y-138405309D01*
X101693100Y-138326477D01*
X101678157Y-138317850D01*
X101525358Y-138210859D01*
X101512138Y-138199767D01*
X101380232Y-138067861D01*
X101369140Y-138054641D01*
X101262149Y-137901842D01*
X101253523Y-137886902D01*
X101174687Y-137717839D01*
X101168788Y-137701631D01*
X101149843Y-137630926D01*
X101120505Y-137521437D01*
X101117512Y-137504457D01*
X101100877Y-137314309D01*
X101100500Y-137305681D01*
X101100500Y-133500000D01*
X108734571Y-133500000D01*
X108754244Y-133712310D01*
X108812595Y-133917389D01*
X108907634Y-134108255D01*
X109036128Y-134278407D01*
X109036135Y-134278413D01*
X109193692Y-134422047D01*
X109193699Y-134422053D01*
X109297389Y-134486255D01*
X109374981Y-134534298D01*
X109573802Y-134611321D01*
X109783390Y-134650500D01*
X109996610Y-134650500D01*
X110206198Y-134611321D01*
X110405019Y-134534298D01*
X110586302Y-134422052D01*
X110743872Y-134278407D01*
X110872366Y-134108255D01*
X110967405Y-133917389D01*
X111025756Y-133712310D01*
X111045429Y-133500000D01*
X116354571Y-133500000D01*
X116374244Y-133712310D01*
X116432595Y-133917389D01*
X116527634Y-134108255D01*
X116656128Y-134278407D01*
X116656135Y-134278413D01*
X116813692Y-134422047D01*
X116813699Y-134422053D01*
X116917389Y-134486255D01*
X116994981Y-134534298D01*
X117193802Y-134611321D01*
X117403390Y-134650500D01*
X117616610Y-134650500D01*
X117826198Y-134611321D01*
X118025019Y-134534298D01*
X118206302Y-134422052D01*
X118363872Y-134278407D01*
X118492366Y-134108255D01*
X118587405Y-133917389D01*
X118645756Y-133712310D01*
X118665429Y-133500000D01*
X118645756Y-133287690D01*
X118587405Y-133082611D01*
X118492366Y-132891745D01*
X118363872Y-132721593D01*
X118309623Y-132672139D01*
X118206307Y-132577952D01*
X118206300Y-132577946D01*
X118025024Y-132465705D01*
X118025019Y-132465702D01*
X117826195Y-132388678D01*
X117616610Y-132349500D01*
X117403390Y-132349500D01*
X117193804Y-132388678D01*
X116994980Y-132465702D01*
X116994975Y-132465705D01*
X116813699Y-132577946D01*
X116813692Y-132577952D01*
X116656135Y-132721586D01*
X116656131Y-132721589D01*
X116656128Y-132721593D01*
X116656125Y-132721597D01*
X116527635Y-132891743D01*
X116527630Y-132891752D01*
X116432596Y-133082608D01*
X116374244Y-133287688D01*
X116374244Y-133287690D01*
X116354571Y-133500000D01*
X111045429Y-133500000D01*
X111025756Y-133287690D01*
X110967405Y-133082611D01*
X110872366Y-132891745D01*
X110743872Y-132721593D01*
X110689623Y-132672139D01*
X110586307Y-132577952D01*
X110586300Y-132577946D01*
X110405024Y-132465705D01*
X110405019Y-132465702D01*
X110206195Y-132388678D01*
X109996610Y-132349500D01*
X109783390Y-132349500D01*
X109573804Y-132388678D01*
X109374980Y-132465702D01*
X109374975Y-132465705D01*
X109193699Y-132577946D01*
X109193692Y-132577952D01*
X109036135Y-132721586D01*
X109036131Y-132721589D01*
X109036128Y-132721593D01*
X109036125Y-132721597D01*
X108907635Y-132891743D01*
X108907630Y-132891752D01*
X108812596Y-133082608D01*
X108754244Y-133287688D01*
X108754244Y-133287690D01*
X108734571Y-133500000D01*
X101100500Y-133500000D01*
X101100500Y-130960000D01*
X108734571Y-130960000D01*
X108754244Y-131172310D01*
X108812595Y-131377389D01*
X108907634Y-131568255D01*
X109036128Y-131738407D01*
X109036135Y-131738413D01*
X109193692Y-131882047D01*
X109193699Y-131882053D01*
X109297389Y-131946255D01*
X109374981Y-131994298D01*
X109573802Y-132071321D01*
X109783390Y-132110500D01*
X109996610Y-132110500D01*
X110206198Y-132071321D01*
X110405019Y-131994298D01*
X110586302Y-131882052D01*
X110743872Y-131738407D01*
X110872366Y-131568255D01*
X110967405Y-131377389D01*
X111025756Y-131172310D01*
X111045429Y-130960000D01*
X116354571Y-130960000D01*
X116374244Y-131172310D01*
X116432595Y-131377389D01*
X116527634Y-131568255D01*
X116656128Y-131738407D01*
X116656135Y-131738413D01*
X116813692Y-131882047D01*
X116813699Y-131882053D01*
X116917389Y-131946255D01*
X116994981Y-131994298D01*
X117193802Y-132071321D01*
X117403390Y-132110500D01*
X117616610Y-132110500D01*
X117826198Y-132071321D01*
X118025019Y-131994298D01*
X118206302Y-131882052D01*
X118363872Y-131738407D01*
X118492366Y-131568255D01*
X118587405Y-131377389D01*
X118645756Y-131172310D01*
X118665429Y-130960000D01*
X118645756Y-130747690D01*
X118587405Y-130542611D01*
X118492366Y-130351745D01*
X118363872Y-130181593D01*
X118309623Y-130132139D01*
X118206307Y-130037952D01*
X118206300Y-130037946D01*
X118025024Y-129925705D01*
X118025019Y-129925702D01*
X117826195Y-129848678D01*
X117616610Y-129809500D01*
X117403390Y-129809500D01*
X117193804Y-129848678D01*
X116994980Y-129925702D01*
X116994975Y-129925705D01*
X116813699Y-130037946D01*
X116813692Y-130037952D01*
X116656135Y-130181586D01*
X116656131Y-130181589D01*
X116656128Y-130181593D01*
X116656125Y-130181597D01*
X116527635Y-130351743D01*
X116527630Y-130351752D01*
X116432596Y-130542608D01*
X116374244Y-130747688D01*
X116374244Y-130747690D01*
X116354571Y-130960000D01*
X111045429Y-130960000D01*
X111025756Y-130747690D01*
X110967405Y-130542611D01*
X110872366Y-130351745D01*
X110743872Y-130181593D01*
X110689623Y-130132139D01*
X110586307Y-130037952D01*
X110586300Y-130037946D01*
X110405024Y-129925705D01*
X110405019Y-129925702D01*
X110206195Y-129848678D01*
X109996610Y-129809500D01*
X109783390Y-129809500D01*
X109573804Y-129848678D01*
X109374980Y-129925702D01*
X109374975Y-129925705D01*
X109193699Y-130037946D01*
X109193692Y-130037952D01*
X109036135Y-130181586D01*
X109036131Y-130181589D01*
X109036128Y-130181593D01*
X109036125Y-130181597D01*
X108907635Y-130351743D01*
X108907630Y-130351752D01*
X108812596Y-130542608D01*
X108754244Y-130747688D01*
X108754244Y-130747690D01*
X108734571Y-130960000D01*
X101100500Y-130960000D01*
X101100500Y-128420000D01*
X108734571Y-128420000D01*
X108754244Y-128632310D01*
X108812595Y-128837389D01*
X108907634Y-129028255D01*
X109036128Y-129198407D01*
X109036135Y-129198413D01*
X109193692Y-129342047D01*
X109193699Y-129342053D01*
X109297389Y-129406255D01*
X109374981Y-129454298D01*
X109573802Y-129531321D01*
X109783390Y-129570500D01*
X109996610Y-129570500D01*
X110206198Y-129531321D01*
X110405019Y-129454298D01*
X110586302Y-129342052D01*
X110743872Y-129198407D01*
X110872366Y-129028255D01*
X110967405Y-128837389D01*
X111025756Y-128632310D01*
X111045429Y-128420000D01*
X116354571Y-128420000D01*
X116374244Y-128632310D01*
X116432595Y-128837389D01*
X116527634Y-129028255D01*
X116656128Y-129198407D01*
X116656135Y-129198413D01*
X116813692Y-129342047D01*
X116813699Y-129342053D01*
X116917389Y-129406255D01*
X116994981Y-129454298D01*
X117193802Y-129531321D01*
X117403390Y-129570500D01*
X117616610Y-129570500D01*
X117826198Y-129531321D01*
X118025019Y-129454298D01*
X118206302Y-129342052D01*
X118363872Y-129198407D01*
X118492366Y-129028255D01*
X118587405Y-128837389D01*
X118645756Y-128632310D01*
X118665429Y-128420000D01*
X118645756Y-128207690D01*
X118587405Y-128002611D01*
X118492366Y-127811745D01*
X118363872Y-127641593D01*
X118309623Y-127592139D01*
X118206307Y-127497952D01*
X118206300Y-127497946D01*
X118025024Y-127385705D01*
X118025019Y-127385702D01*
X117826195Y-127308678D01*
X117616610Y-127269500D01*
X117403390Y-127269500D01*
X117193804Y-127308678D01*
X116994980Y-127385702D01*
X116994975Y-127385705D01*
X116813699Y-127497946D01*
X116813692Y-127497952D01*
X116656135Y-127641586D01*
X116656131Y-127641589D01*
X116656128Y-127641593D01*
X116656125Y-127641597D01*
X116527635Y-127811743D01*
X116527630Y-127811752D01*
X116432596Y-128002608D01*
X116374244Y-128207688D01*
X116374244Y-128207690D01*
X116354571Y-128420000D01*
X111045429Y-128420000D01*
X111025756Y-128207690D01*
X110967405Y-128002611D01*
X110872366Y-127811745D01*
X110743872Y-127641593D01*
X110689623Y-127592139D01*
X110586307Y-127497952D01*
X110586300Y-127497946D01*
X110405024Y-127385705D01*
X110405019Y-127385702D01*
X110206195Y-127308678D01*
X109996610Y-127269500D01*
X109783390Y-127269500D01*
X109573804Y-127308678D01*
X109374980Y-127385702D01*
X109374975Y-127385705D01*
X109193699Y-127497946D01*
X109193692Y-127497952D01*
X109036135Y-127641586D01*
X109036131Y-127641589D01*
X109036128Y-127641593D01*
X109036125Y-127641597D01*
X108907635Y-127811743D01*
X108907630Y-127811752D01*
X108812596Y-128002608D01*
X108754244Y-128207688D01*
X108754244Y-128207690D01*
X108734571Y-128420000D01*
X101100500Y-128420000D01*
X101100500Y-125880000D01*
X108734571Y-125880000D01*
X108754244Y-126092310D01*
X108812595Y-126297389D01*
X108907634Y-126488255D01*
X109036128Y-126658407D01*
X109036135Y-126658413D01*
X109193692Y-126802047D01*
X109193699Y-126802053D01*
X109297389Y-126866255D01*
X109374981Y-126914298D01*
X109573802Y-126991321D01*
X109783390Y-127030500D01*
X109996610Y-127030500D01*
X110206198Y-126991321D01*
X110405019Y-126914298D01*
X110586302Y-126802052D01*
X110743872Y-126658407D01*
X110872366Y-126488255D01*
X110967405Y-126297389D01*
X111025756Y-126092310D01*
X111045429Y-125880000D01*
X116354571Y-125880000D01*
X116374244Y-126092310D01*
X116432595Y-126297389D01*
X116527634Y-126488255D01*
X116656128Y-126658407D01*
X116656135Y-126658413D01*
X116813692Y-126802047D01*
X116813699Y-126802053D01*
X116917389Y-126866255D01*
X116994981Y-126914298D01*
X117193802Y-126991321D01*
X117403390Y-127030500D01*
X117616610Y-127030500D01*
X117826198Y-126991321D01*
X118025019Y-126914298D01*
X118206302Y-126802052D01*
X118363872Y-126658407D01*
X118492366Y-126488255D01*
X118587405Y-126297389D01*
X118645756Y-126092310D01*
X118665429Y-125880000D01*
X118645756Y-125667690D01*
X118587405Y-125462611D01*
X118492366Y-125271745D01*
X118363872Y-125101593D01*
X118309623Y-125052139D01*
X118206307Y-124957952D01*
X118206300Y-124957946D01*
X118025024Y-124845705D01*
X118025019Y-124845702D01*
X117826195Y-124768678D01*
X117616610Y-124729500D01*
X117403390Y-124729500D01*
X117193804Y-124768678D01*
X116994980Y-124845702D01*
X116994975Y-124845705D01*
X116813699Y-124957946D01*
X116813692Y-124957952D01*
X116656135Y-125101586D01*
X116656131Y-125101589D01*
X116656128Y-125101593D01*
X116656125Y-125101597D01*
X116527635Y-125271743D01*
X116527630Y-125271752D01*
X116432596Y-125462608D01*
X116374244Y-125667688D01*
X116374244Y-125667690D01*
X116354571Y-125880000D01*
X111045429Y-125880000D01*
X111025756Y-125667690D01*
X110967405Y-125462611D01*
X110872366Y-125271745D01*
X110743872Y-125101593D01*
X110689623Y-125052139D01*
X110586307Y-124957952D01*
X110586300Y-124957946D01*
X110405024Y-124845705D01*
X110405019Y-124845702D01*
X110206195Y-124768678D01*
X109996610Y-124729500D01*
X109783390Y-124729500D01*
X109573804Y-124768678D01*
X109374980Y-124845702D01*
X109374975Y-124845705D01*
X109193699Y-124957946D01*
X109193692Y-124957952D01*
X109036135Y-125101586D01*
X109036131Y-125101589D01*
X109036128Y-125101593D01*
X109036125Y-125101597D01*
X108907635Y-125271743D01*
X108907630Y-125271752D01*
X108812596Y-125462608D01*
X108754244Y-125667688D01*
X108754244Y-125667690D01*
X108734571Y-125880000D01*
X101100500Y-125880000D01*
X101100500Y-90902273D01*
X102504500Y-90902273D01*
X102504500Y-116810273D01*
X102504500Y-116915727D01*
X102528570Y-117005559D01*
X102531794Y-117017592D01*
X102584516Y-117108908D01*
X102584518Y-117108910D01*
X102584520Y-117108913D01*
X105251518Y-119775910D01*
X105251520Y-119775913D01*
X105326087Y-119850480D01*
X105326089Y-119850481D01*
X105330008Y-119854400D01*
X105357785Y-119908917D01*
X105348214Y-119969349D01*
X105326700Y-119997565D01*
X105263239Y-120055417D01*
X105140328Y-120218177D01*
X105140323Y-120218186D01*
X105049419Y-120400747D01*
X105049418Y-120400750D01*
X104993603Y-120596917D01*
X104974785Y-120800000D01*
X104993603Y-121003083D01*
X105049418Y-121199250D01*
X105140327Y-121381821D01*
X105263236Y-121544579D01*
X105413959Y-121681981D01*
X105587363Y-121789348D01*
X105777544Y-121863024D01*
X105815418Y-121870103D01*
X105869141Y-121899380D01*
X105895398Y-121954645D01*
X105884156Y-122014789D01*
X105839709Y-122056838D01*
X105822848Y-122063044D01*
X105633676Y-122113733D01*
X105427518Y-122209865D01*
X105241188Y-122340334D01*
X105080334Y-122501188D01*
X104949865Y-122687518D01*
X104853733Y-122893676D01*
X104801128Y-123090000D01*
X105764314Y-123090000D01*
X105759920Y-123094394D01*
X105707259Y-123185606D01*
X105680000Y-123287339D01*
X105680000Y-123392661D01*
X105707259Y-123494394D01*
X105759920Y-123585606D01*
X105764314Y-123590000D01*
X104801128Y-123590000D01*
X104853733Y-123786323D01*
X104949865Y-123992481D01*
X105080334Y-124178811D01*
X105241188Y-124339665D01*
X105427518Y-124470134D01*
X105633676Y-124566266D01*
X105830000Y-124618872D01*
X105830000Y-123655686D01*
X105834394Y-123660080D01*
X105925606Y-123712741D01*
X106027339Y-123740000D01*
X106132661Y-123740000D01*
X106234394Y-123712741D01*
X106325606Y-123660080D01*
X106330000Y-123655686D01*
X106330000Y-124618871D01*
X106526323Y-124566266D01*
X106732481Y-124470134D01*
X106918811Y-124339665D01*
X107079665Y-124178811D01*
X107210134Y-123992481D01*
X107306266Y-123786323D01*
X107358872Y-123590000D01*
X106395686Y-123590000D01*
X106400080Y-123585606D01*
X106452741Y-123494394D01*
X106480000Y-123392661D01*
X106480000Y-123340000D01*
X108734571Y-123340000D01*
X108754244Y-123552310D01*
X108812595Y-123757389D01*
X108907634Y-123948255D01*
X109036128Y-124118407D01*
X109036135Y-124118413D01*
X109193692Y-124262047D01*
X109193699Y-124262053D01*
X109297389Y-124326255D01*
X109374981Y-124374298D01*
X109573802Y-124451321D01*
X109783390Y-124490500D01*
X109996610Y-124490500D01*
X110206198Y-124451321D01*
X110405019Y-124374298D01*
X110586302Y-124262052D01*
X110743872Y-124118407D01*
X110872366Y-123948255D01*
X110967405Y-123757389D01*
X111025756Y-123552310D01*
X111045429Y-123340000D01*
X111025756Y-123127690D01*
X110967405Y-122922611D01*
X110872366Y-122731745D01*
X110743872Y-122561593D01*
X110677611Y-122501188D01*
X110586307Y-122417952D01*
X110586300Y-122417946D01*
X110405024Y-122305705D01*
X110405019Y-122305702D01*
X110319657Y-122272633D01*
X110206198Y-122228679D01*
X110206197Y-122228678D01*
X110206195Y-122228678D01*
X109996610Y-122189500D01*
X109783390Y-122189500D01*
X109573804Y-122228678D01*
X109374980Y-122305702D01*
X109374975Y-122305705D01*
X109193699Y-122417946D01*
X109193692Y-122417952D01*
X109036135Y-122561586D01*
X109036131Y-122561589D01*
X109036128Y-122561593D01*
X109036125Y-122561597D01*
X108907635Y-122731743D01*
X108907630Y-122731752D01*
X108812596Y-122922608D01*
X108754244Y-123127688D01*
X108754244Y-123127690D01*
X108734571Y-123340000D01*
X106480000Y-123340000D01*
X106480000Y-123287339D01*
X106452741Y-123185606D01*
X106400080Y-123094394D01*
X106395686Y-123090000D01*
X107358872Y-123090000D01*
X107306266Y-122893676D01*
X107210134Y-122687518D01*
X107079665Y-122501188D01*
X106918811Y-122340334D01*
X106732481Y-122209865D01*
X106526323Y-122113733D01*
X106337151Y-122063044D01*
X106285836Y-122029720D01*
X106263910Y-121972598D01*
X106279746Y-121913498D01*
X106327296Y-121874992D01*
X106344568Y-121870106D01*
X106382456Y-121863024D01*
X106572637Y-121789348D01*
X106746041Y-121681981D01*
X106896764Y-121544579D01*
X107019673Y-121381821D01*
X107110582Y-121199250D01*
X107166397Y-121003083D01*
X107185215Y-120800000D01*
X107166397Y-120596917D01*
X107110582Y-120400750D01*
X107019673Y-120218179D01*
X106922240Y-120089157D01*
X106902263Y-120031330D01*
X106920092Y-119972799D01*
X106968918Y-119935927D01*
X107001246Y-119930500D01*
X113493099Y-119930500D01*
X113551290Y-119949407D01*
X113563103Y-119959496D01*
X116413348Y-122809741D01*
X116441125Y-122864258D01*
X116432904Y-122917818D01*
X116434249Y-122918339D01*
X116432598Y-122922598D01*
X116374244Y-123127688D01*
X116374244Y-123127690D01*
X116354571Y-123340000D01*
X116374244Y-123552310D01*
X116432595Y-123757389D01*
X116527634Y-123948255D01*
X116656128Y-124118407D01*
X116656135Y-124118413D01*
X116813692Y-124262047D01*
X116813699Y-124262053D01*
X116917389Y-124326255D01*
X116994981Y-124374298D01*
X117193802Y-124451321D01*
X117403390Y-124490500D01*
X117616610Y-124490500D01*
X117826198Y-124451321D01*
X118025019Y-124374298D01*
X118206302Y-124262052D01*
X118363872Y-124118407D01*
X118492366Y-123948255D01*
X118587405Y-123757389D01*
X118645756Y-123552310D01*
X118665429Y-123340000D01*
X120214785Y-123340000D01*
X120233603Y-123543083D01*
X120289418Y-123739250D01*
X120380327Y-123921821D01*
X120503236Y-124084579D01*
X120653959Y-124221981D01*
X120827363Y-124329348D01*
X121017544Y-124403024D01*
X121218024Y-124440500D01*
X121421976Y-124440500D01*
X121622456Y-124403024D01*
X121812637Y-124329348D01*
X121986041Y-124221981D01*
X122136764Y-124084579D01*
X122259673Y-123921821D01*
X122350582Y-123739250D01*
X122406397Y-123543083D01*
X122425215Y-123340000D01*
X122406397Y-123136917D01*
X122350582Y-122940750D01*
X122259673Y-122758179D01*
X122136764Y-122595421D01*
X121986041Y-122458019D01*
X121812637Y-122350652D01*
X121622456Y-122276976D01*
X121622455Y-122276975D01*
X121622453Y-122276975D01*
X121421976Y-122239500D01*
X121218024Y-122239500D01*
X121017546Y-122276975D01*
X120977353Y-122292546D01*
X120827363Y-122350652D01*
X120718676Y-122417948D01*
X120653959Y-122458019D01*
X120503237Y-122595420D01*
X120380328Y-122758177D01*
X120380323Y-122758186D01*
X120298450Y-122922611D01*
X120289418Y-122940750D01*
X120233603Y-123136917D01*
X120214785Y-123340000D01*
X118665429Y-123340000D01*
X118645756Y-123127690D01*
X118587405Y-122922611D01*
X118492366Y-122731745D01*
X118363872Y-122561593D01*
X118297611Y-122501188D01*
X118206307Y-122417952D01*
X118206300Y-122417946D01*
X118025024Y-122305705D01*
X118025019Y-122305702D01*
X117939657Y-122272633D01*
X117826198Y-122228679D01*
X117826197Y-122228678D01*
X117826195Y-122228678D01*
X117616610Y-122189500D01*
X117403390Y-122189500D01*
X117193810Y-122228677D01*
X117193805Y-122228678D01*
X117193802Y-122228679D01*
X117193795Y-122228681D01*
X117193794Y-122228682D01*
X117089089Y-122269243D01*
X117027998Y-122272633D01*
X116983324Y-122246932D01*
X115536392Y-120800000D01*
X113945913Y-119209520D01*
X113945910Y-119209518D01*
X113945908Y-119209516D01*
X113854591Y-119156794D01*
X113854593Y-119156794D01*
X113815070Y-119146204D01*
X113752727Y-119129500D01*
X113752725Y-119129500D01*
X110873901Y-119129500D01*
X110815710Y-119110593D01*
X110779746Y-119061093D01*
X110779746Y-118999907D01*
X110794897Y-118970839D01*
X110872366Y-118868255D01*
X110948492Y-118715372D01*
X110991354Y-118671710D01*
X111037113Y-118660500D01*
X115398099Y-118660500D01*
X115456290Y-118679407D01*
X115468103Y-118689496D01*
X116629087Y-119850480D01*
X116629089Y-119850481D01*
X116629090Y-119850482D01*
X116629091Y-119850483D01*
X116720408Y-119903205D01*
X116720406Y-119903205D01*
X116720410Y-119903206D01*
X116720412Y-119903207D01*
X116822273Y-119930500D01*
X116927727Y-119930500D01*
X120398754Y-119930500D01*
X120456945Y-119949407D01*
X120492909Y-119998907D01*
X120492909Y-120060093D01*
X120477760Y-120089155D01*
X120408783Y-120180496D01*
X120380328Y-120218177D01*
X120380323Y-120218186D01*
X120289419Y-120400747D01*
X120289418Y-120400750D01*
X120233603Y-120596917D01*
X120214785Y-120800000D01*
X120233603Y-121003083D01*
X120289418Y-121199250D01*
X120380327Y-121381821D01*
X120503236Y-121544579D01*
X120653959Y-121681981D01*
X120827363Y-121789348D01*
X121017544Y-121863024D01*
X121218024Y-121900500D01*
X121421976Y-121900500D01*
X121622456Y-121863024D01*
X121812637Y-121789348D01*
X121986041Y-121681981D01*
X122136764Y-121544579D01*
X122259673Y-121381821D01*
X122350582Y-121199250D01*
X122406397Y-121003083D01*
X122425215Y-120800000D01*
X122406397Y-120596917D01*
X122350582Y-120400750D01*
X122259673Y-120218179D01*
X122136764Y-120055421D01*
X122073297Y-119997564D01*
X122043033Y-119944390D01*
X122049804Y-119883581D01*
X122069991Y-119854400D01*
X122073908Y-119850482D01*
X122073913Y-119850480D01*
X123367680Y-118556713D01*
X123420407Y-118465388D01*
X123447700Y-118363527D01*
X123447700Y-118258073D01*
X123447700Y-114995849D01*
X123466607Y-114937658D01*
X123516107Y-114901694D01*
X123577293Y-114901694D01*
X123606964Y-114917305D01*
X123692767Y-114983144D01*
X123692768Y-114983144D01*
X123692769Y-114983145D01*
X123755577Y-115009161D01*
X123838846Y-115043652D01*
X123956417Y-115059130D01*
X123995607Y-115064290D01*
X123995608Y-115064290D01*
X123995609Y-115064290D01*
X124026960Y-115060162D01*
X124152370Y-115043652D01*
X124298449Y-114983144D01*
X124423890Y-114886890D01*
X124520144Y-114761449D01*
X124580652Y-114615370D01*
X124601290Y-114458608D01*
X124602137Y-114452175D01*
X124603864Y-114452402D01*
X124620197Y-114402134D01*
X124630280Y-114390327D01*
X125293110Y-113727497D01*
X125293113Y-113727496D01*
X125367680Y-113652929D01*
X125420407Y-113561603D01*
X125436785Y-113500480D01*
X125447701Y-113459743D01*
X125447701Y-113354289D01*
X125447701Y-113348227D01*
X125447700Y-113348209D01*
X125447700Y-82056474D01*
X125447700Y-82056473D01*
X125420407Y-81954613D01*
X125420407Y-81954612D01*
X125420407Y-81954611D01*
X125367683Y-81863291D01*
X125367681Y-81863289D01*
X125367680Y-81863287D01*
X122073913Y-78569520D01*
X122073910Y-78569518D01*
X122069991Y-78565599D01*
X122042214Y-78511082D01*
X122051785Y-78450650D01*
X122073297Y-78422436D01*
X122136764Y-78364579D01*
X122259673Y-78201821D01*
X122350582Y-78019250D01*
X122406397Y-77823083D01*
X122425215Y-77620000D01*
X122406397Y-77416917D01*
X122350582Y-77220750D01*
X122259673Y-77038179D01*
X122136764Y-76875421D01*
X121986041Y-76738019D01*
X121812637Y-76630652D01*
X121622456Y-76556976D01*
X121622455Y-76556975D01*
X121622453Y-76556975D01*
X121421976Y-76519500D01*
X121218024Y-76519500D01*
X121017546Y-76556975D01*
X120993055Y-76566463D01*
X120827363Y-76630652D01*
X120677881Y-76723207D01*
X120653959Y-76738019D01*
X120503237Y-76875420D01*
X120380328Y-77038177D01*
X120380323Y-77038186D01*
X120298450Y-77202611D01*
X120289418Y-77220750D01*
X120233603Y-77416917D01*
X120214785Y-77620000D01*
X120233603Y-77823083D01*
X120289418Y-78019250D01*
X120380327Y-78201821D01*
X120477759Y-78330842D01*
X120497737Y-78388670D01*
X120479908Y-78447201D01*
X120431082Y-78484073D01*
X120398754Y-78489500D01*
X118493901Y-78489500D01*
X118435710Y-78470593D01*
X118399746Y-78421093D01*
X118399746Y-78359907D01*
X118414897Y-78330839D01*
X118492366Y-78228255D01*
X118587405Y-78037389D01*
X118645756Y-77832310D01*
X118665429Y-77620000D01*
X118645756Y-77407690D01*
X118587405Y-77202611D01*
X118492366Y-77011745D01*
X118363872Y-76841593D01*
X118284688Y-76769407D01*
X118206307Y-76697952D01*
X118206300Y-76697946D01*
X118069383Y-76613171D01*
X118029862Y-76566463D01*
X118025343Y-76505444D01*
X118057553Y-76453424D01*
X118114189Y-76430270D01*
X118121500Y-76430000D01*
X118407824Y-76430000D01*
X118467370Y-76423598D01*
X118467381Y-76423596D01*
X118602088Y-76373353D01*
X118602090Y-76373352D01*
X118717184Y-76287192D01*
X118717192Y-76287184D01*
X118803352Y-76172090D01*
X118803353Y-76172088D01*
X118853596Y-76037381D01*
X118853598Y-76037370D01*
X118860000Y-75977824D01*
X118860000Y-75330001D01*
X118859999Y-75330000D01*
X117943012Y-75330000D01*
X117975925Y-75272993D01*
X118010000Y-75145826D01*
X118010000Y-75080000D01*
X120214785Y-75080000D01*
X120233603Y-75283083D01*
X120289418Y-75479250D01*
X120380327Y-75661821D01*
X120503236Y-75824579D01*
X120653959Y-75961981D01*
X120827363Y-76069348D01*
X121017544Y-76143024D01*
X121218024Y-76180500D01*
X121421976Y-76180500D01*
X121622456Y-76143024D01*
X121812637Y-76069348D01*
X121986041Y-75961981D01*
X122136764Y-75824579D01*
X122215860Y-75719837D01*
X122266016Y-75684796D01*
X122294863Y-75680500D01*
X123177642Y-75680500D01*
X123235833Y-75699407D01*
X123256525Y-75719680D01*
X123289300Y-75762900D01*
X123407142Y-75852262D01*
X123544723Y-75906517D01*
X123631182Y-75916900D01*
X123631184Y-75916900D01*
X124190416Y-75916900D01*
X124190418Y-75916900D01*
X124276877Y-75906517D01*
X124414458Y-75852262D01*
X124532300Y-75762900D01*
X124621662Y-75645058D01*
X124675917Y-75507477D01*
X124686300Y-75421018D01*
X124686300Y-74736782D01*
X124675917Y-74650323D01*
X124621662Y-74512742D01*
X124540634Y-74405890D01*
X124520540Y-74348101D01*
X124538251Y-74289535D01*
X124567548Y-74261812D01*
X124608835Y-74236346D01*
X124730746Y-74114435D01*
X124821251Y-73967706D01*
X124875481Y-73804048D01*
X124885800Y-73703055D01*
X124885800Y-73603901D01*
X124885799Y-73603900D01*
X122935802Y-73603900D01*
X122935801Y-73603901D01*
X122935801Y-73703054D01*
X122946117Y-73804042D01*
X122946120Y-73804054D01*
X123000348Y-73967706D01*
X123090853Y-74114435D01*
X123212762Y-74236344D01*
X123254052Y-74261812D01*
X123293654Y-74308453D01*
X123298277Y-74369463D01*
X123280965Y-74405891D01*
X123254859Y-74440318D01*
X123204633Y-74475261D01*
X123175974Y-74479500D01*
X122294863Y-74479500D01*
X122236672Y-74460593D01*
X122215861Y-74440163D01*
X122136764Y-74335421D01*
X121986041Y-74198019D01*
X121812637Y-74090652D01*
X121622456Y-74016976D01*
X121622455Y-74016975D01*
X121622453Y-74016975D01*
X121421976Y-73979500D01*
X121218024Y-73979500D01*
X121017546Y-74016975D01*
X120989619Y-74027794D01*
X120827363Y-74090652D01*
X120679548Y-74182175D01*
X120653959Y-74198019D01*
X120503237Y-74335420D01*
X120380328Y-74498177D01*
X120380323Y-74498186D01*
X120289419Y-74680747D01*
X120289418Y-74680750D01*
X120233603Y-74876917D01*
X120214785Y-75080000D01*
X118010000Y-75080000D01*
X118010000Y-75014174D01*
X117975925Y-74887007D01*
X117943012Y-74830000D01*
X118859999Y-74830000D01*
X118860000Y-74829999D01*
X118860000Y-74182175D01*
X118853598Y-74122629D01*
X118853596Y-74122618D01*
X118803353Y-73987911D01*
X118803352Y-73987909D01*
X118717192Y-73872815D01*
X118717184Y-73872807D01*
X118602090Y-73786647D01*
X118602088Y-73786646D01*
X118467381Y-73736403D01*
X118467370Y-73736401D01*
X118407824Y-73730000D01*
X117760001Y-73730000D01*
X117760000Y-73730001D01*
X117760000Y-74646988D01*
X117702993Y-74614075D01*
X117575826Y-74580000D01*
X117444174Y-74580000D01*
X117317007Y-74614075D01*
X117260000Y-74646988D01*
X117260000Y-73730001D01*
X117259999Y-73730000D01*
X116612176Y-73730000D01*
X116552629Y-73736401D01*
X116552618Y-73736403D01*
X116417911Y-73786646D01*
X116417909Y-73786647D01*
X116302815Y-73872807D01*
X116302807Y-73872815D01*
X116216647Y-73987909D01*
X116216646Y-73987911D01*
X116166403Y-74122618D01*
X116166401Y-74122629D01*
X116160000Y-74182175D01*
X116160000Y-74829999D01*
X116160001Y-74830000D01*
X117076988Y-74830000D01*
X117044075Y-74887007D01*
X117010000Y-75014174D01*
X117010000Y-75145826D01*
X117044075Y-75272993D01*
X117076988Y-75330000D01*
X116160001Y-75330000D01*
X116160000Y-75330001D01*
X116160000Y-75977824D01*
X116159999Y-75977824D01*
X116166401Y-76037370D01*
X116166403Y-76037381D01*
X116216646Y-76172088D01*
X116216647Y-76172090D01*
X116302807Y-76287184D01*
X116302815Y-76287192D01*
X116417909Y-76373352D01*
X116417911Y-76373353D01*
X116552618Y-76423596D01*
X116552629Y-76423598D01*
X116612176Y-76430000D01*
X116898500Y-76430000D01*
X116956691Y-76448907D01*
X116992655Y-76498407D01*
X116992655Y-76559593D01*
X116956691Y-76609093D01*
X116950617Y-76613171D01*
X116813699Y-76697946D01*
X116813692Y-76697952D01*
X116656135Y-76841586D01*
X116656131Y-76841589D01*
X116656128Y-76841593D01*
X116656125Y-76841597D01*
X116527635Y-77011743D01*
X116527630Y-77011752D01*
X116432596Y-77202608D01*
X116374244Y-77407688D01*
X116374244Y-77407690D01*
X116354571Y-77620000D01*
X116374244Y-77832310D01*
X116427434Y-78019252D01*
X116432596Y-78037391D01*
X116527630Y-78228247D01*
X116527635Y-78228256D01*
X116605103Y-78330839D01*
X116625082Y-78388670D01*
X116607253Y-78447201D01*
X116558427Y-78484073D01*
X116526099Y-78489500D01*
X113271901Y-78489500D01*
X113213710Y-78470593D01*
X113201897Y-78460504D01*
X111128476Y-76387083D01*
X111100699Y-76332566D01*
X111110270Y-76272134D01*
X111119227Y-76257749D01*
X111183354Y-76172087D01*
X111233596Y-76037381D01*
X111233598Y-76037370D01*
X111240000Y-75977824D01*
X111240000Y-75330001D01*
X111239999Y-75330000D01*
X110323012Y-75330000D01*
X110355925Y-75272993D01*
X110390000Y-75145826D01*
X110390000Y-75014174D01*
X110355925Y-74887007D01*
X110323012Y-74830000D01*
X111239999Y-74830000D01*
X111240000Y-74829999D01*
X111240000Y-74182175D01*
X111233598Y-74122629D01*
X111233596Y-74122618D01*
X111183353Y-73987911D01*
X111183352Y-73987909D01*
X111097192Y-73872815D01*
X111097184Y-73872807D01*
X110982090Y-73786647D01*
X110982088Y-73786646D01*
X110847381Y-73736403D01*
X110847370Y-73736401D01*
X110787824Y-73730000D01*
X110140001Y-73730000D01*
X110140000Y-73730001D01*
X110140000Y-74646988D01*
X110082993Y-74614075D01*
X109955826Y-74580000D01*
X109824174Y-74580000D01*
X109697007Y-74614075D01*
X109640000Y-74646988D01*
X109640000Y-73730001D01*
X109639999Y-73730000D01*
X108992176Y-73730000D01*
X108932629Y-73736401D01*
X108932618Y-73736403D01*
X108797911Y-73786646D01*
X108797909Y-73786647D01*
X108682815Y-73872807D01*
X108682807Y-73872815D01*
X108596647Y-73987909D01*
X108596646Y-73987911D01*
X108546403Y-74122618D01*
X108546401Y-74122629D01*
X108540000Y-74182175D01*
X108540000Y-74829999D01*
X108540001Y-74830000D01*
X109456988Y-74830000D01*
X109424075Y-74887007D01*
X109390000Y-75014174D01*
X109390000Y-75145826D01*
X109424075Y-75272993D01*
X109456988Y-75330000D01*
X108540001Y-75330000D01*
X108540000Y-75330001D01*
X108540000Y-75850500D01*
X108521093Y-75908691D01*
X108471593Y-75944655D01*
X108441000Y-75949500D01*
X108318901Y-75949500D01*
X108260710Y-75930593D01*
X108248897Y-75920504D01*
X107209495Y-74881102D01*
X107181718Y-74826585D01*
X107180499Y-74811098D01*
X107180499Y-74235139D01*
X107180499Y-74235136D01*
X107177585Y-74210009D01*
X107132206Y-74107235D01*
X107052765Y-74027794D01*
X106949991Y-73982415D01*
X106949990Y-73982414D01*
X106949988Y-73982414D01*
X106924868Y-73979500D01*
X105235139Y-73979500D01*
X105235136Y-73979501D01*
X105210009Y-73982414D01*
X105107235Y-74027794D01*
X105027794Y-74107235D01*
X104982414Y-74210011D01*
X104979500Y-74235130D01*
X104979500Y-75924860D01*
X104979501Y-75924863D01*
X104982414Y-75949990D01*
X104987709Y-75961981D01*
X105027794Y-76052765D01*
X105107235Y-76132206D01*
X105210009Y-76177585D01*
X105235135Y-76180500D01*
X106924864Y-76180499D01*
X106949991Y-76177585D01*
X107052765Y-76132206D01*
X107120286Y-76064684D01*
X107174800Y-76036908D01*
X107235232Y-76046479D01*
X107260292Y-76064685D01*
X107866087Y-76670480D01*
X107866089Y-76670481D01*
X107866090Y-76670482D01*
X107866091Y-76670483D01*
X107957408Y-76723205D01*
X107957406Y-76723205D01*
X107957410Y-76723206D01*
X107957412Y-76723207D01*
X108059273Y-76750500D01*
X108906099Y-76750500D01*
X108964290Y-76769407D01*
X109000254Y-76818907D01*
X109000254Y-76880093D01*
X108985103Y-76909161D01*
X108907635Y-77011743D01*
X108907630Y-77011752D01*
X108812596Y-77202608D01*
X108754244Y-77407688D01*
X108738495Y-77577651D01*
X108714299Y-77633849D01*
X108661691Y-77665092D01*
X108600767Y-77659446D01*
X108569914Y-77638520D01*
X108230913Y-77299520D01*
X108230908Y-77299516D01*
X108139591Y-77246794D01*
X108139593Y-77246794D01*
X108100070Y-77236204D01*
X108037727Y-77219500D01*
X108037725Y-77219500D01*
X107171258Y-77219500D01*
X107113067Y-77200593D01*
X107082637Y-77164628D01*
X107019676Y-77038186D01*
X107019673Y-77038179D01*
X106896764Y-76875421D01*
X106746041Y-76738019D01*
X106572637Y-76630652D01*
X106382456Y-76556976D01*
X106382455Y-76556975D01*
X106382453Y-76556975D01*
X106181976Y-76519500D01*
X105978024Y-76519500D01*
X105777546Y-76556975D01*
X105753055Y-76566463D01*
X105587363Y-76630652D01*
X105437881Y-76723207D01*
X105413959Y-76738019D01*
X105263237Y-76875420D01*
X105140328Y-77038177D01*
X105140323Y-77038186D01*
X105058450Y-77202611D01*
X105049418Y-77220750D01*
X104993603Y-77416917D01*
X104974785Y-77620000D01*
X104993603Y-77823083D01*
X105049418Y-78019250D01*
X105140327Y-78201821D01*
X105263236Y-78364579D01*
X105413959Y-78501981D01*
X105587363Y-78609348D01*
X105777544Y-78683024D01*
X105978024Y-78720500D01*
X106181976Y-78720500D01*
X106382456Y-78683024D01*
X106572637Y-78609348D01*
X106746041Y-78501981D01*
X106896764Y-78364579D01*
X107019673Y-78201821D01*
X107082637Y-78075371D01*
X107125500Y-78031709D01*
X107171258Y-78020500D01*
X107778099Y-78020500D01*
X107836290Y-78039407D01*
X107848103Y-78049496D01*
X109009087Y-79210480D01*
X109009089Y-79210481D01*
X109023316Y-79218695D01*
X109064257Y-79264164D01*
X109070654Y-79325014D01*
X109040521Y-79377587D01*
X109036130Y-79381590D01*
X109036128Y-79381592D01*
X108907640Y-79551736D01*
X108907630Y-79551752D01*
X108812596Y-79742608D01*
X108754244Y-79947688D01*
X108734571Y-80160000D01*
X108739366Y-80211753D01*
X108754244Y-80372310D01*
X108812595Y-80577389D01*
X108907634Y-80768255D01*
X109036128Y-80938407D01*
X109036135Y-80938413D01*
X109193692Y-81082047D01*
X109193699Y-81082053D01*
X109247208Y-81115184D01*
X109374981Y-81194298D01*
X109573802Y-81271321D01*
X109783390Y-81310500D01*
X109996610Y-81310500D01*
X110206198Y-81271321D01*
X110405019Y-81194298D01*
X110466119Y-81156465D01*
X110525546Y-81141907D01*
X110582182Y-81165060D01*
X110588240Y-81170633D01*
X111384504Y-81966896D01*
X111412281Y-82021413D01*
X111413500Y-82036900D01*
X111413500Y-85958099D01*
X111394593Y-86016290D01*
X111345093Y-86052254D01*
X111283907Y-86052254D01*
X111244496Y-86028103D01*
X110986650Y-85770257D01*
X110958873Y-85715740D01*
X110967111Y-85662182D01*
X110965752Y-85661656D01*
X110967400Y-85657398D01*
X110967405Y-85657389D01*
X111025756Y-85452310D01*
X111045429Y-85240000D01*
X111025756Y-85027690D01*
X110967405Y-84822611D01*
X110872366Y-84631745D01*
X110743872Y-84461593D01*
X110649902Y-84375927D01*
X110586307Y-84317952D01*
X110586300Y-84317946D01*
X110405024Y-84205705D01*
X110405019Y-84205702D01*
X110206195Y-84128678D01*
X109996610Y-84089500D01*
X109783390Y-84089500D01*
X109573804Y-84128678D01*
X109374980Y-84205702D01*
X109374975Y-84205705D01*
X109193699Y-84317946D01*
X109193692Y-84317952D01*
X109036135Y-84461586D01*
X109036131Y-84461589D01*
X109036128Y-84461593D01*
X109036125Y-84461597D01*
X108907635Y-84631743D01*
X108907630Y-84631752D01*
X108812596Y-84822608D01*
X108754244Y-85027688D01*
X108754244Y-85027690D01*
X108734571Y-85240000D01*
X108754244Y-85452310D01*
X108812595Y-85657389D01*
X108907634Y-85848255D01*
X109036128Y-86018407D01*
X109036135Y-86018413D01*
X109193692Y-86162047D01*
X109193699Y-86162053D01*
X109297389Y-86226255D01*
X109374981Y-86274298D01*
X109573802Y-86351321D01*
X109783390Y-86390500D01*
X109996610Y-86390500D01*
X110206198Y-86351321D01*
X110310908Y-86310755D01*
X110371998Y-86307366D01*
X110416674Y-86333067D01*
X110984504Y-86900897D01*
X111012281Y-86955414D01*
X111013500Y-86970901D01*
X111013500Y-87063261D01*
X110994593Y-87121452D01*
X110945093Y-87157416D01*
X110883907Y-87157416D01*
X110835497Y-87122922D01*
X110743880Y-87001603D01*
X110743877Y-87001600D01*
X110743872Y-87001593D01*
X110689623Y-86952139D01*
X110586307Y-86857952D01*
X110586300Y-86857946D01*
X110405024Y-86745705D01*
X110405019Y-86745702D01*
X110206195Y-86668678D01*
X109996610Y-86629500D01*
X109783390Y-86629500D01*
X109573804Y-86668678D01*
X109374980Y-86745702D01*
X109374975Y-86745705D01*
X109193699Y-86857946D01*
X109193692Y-86857952D01*
X109036135Y-87001586D01*
X109036131Y-87001589D01*
X109036128Y-87001593D01*
X109036125Y-87001597D01*
X108907635Y-87171743D01*
X108907630Y-87171752D01*
X108812596Y-87362608D01*
X108754244Y-87567688D01*
X108734571Y-87780000D01*
X108754244Y-87992311D01*
X108812598Y-88197401D01*
X108814249Y-88201661D01*
X108812873Y-88202193D01*
X108820975Y-88256662D01*
X108793348Y-88310257D01*
X108483104Y-88620503D01*
X108428587Y-88648281D01*
X108413100Y-88649500D01*
X107001246Y-88649500D01*
X106943055Y-88630593D01*
X106907091Y-88581093D01*
X106907091Y-88519907D01*
X106922239Y-88490844D01*
X107019673Y-88361821D01*
X107110582Y-88179250D01*
X107166397Y-87983083D01*
X107185215Y-87780000D01*
X107166397Y-87576917D01*
X107110582Y-87380750D01*
X107019673Y-87198179D01*
X106896764Y-87035421D01*
X106746041Y-86898019D01*
X106572637Y-86790652D01*
X106382456Y-86716976D01*
X106382455Y-86716975D01*
X106382453Y-86716975D01*
X106181976Y-86679500D01*
X105978024Y-86679500D01*
X105777546Y-86716975D01*
X105707632Y-86744059D01*
X105587363Y-86790652D01*
X105469850Y-86863413D01*
X105413959Y-86898019D01*
X105263237Y-87035420D01*
X105140328Y-87198177D01*
X105140323Y-87198186D01*
X105058450Y-87362611D01*
X105049418Y-87380750D01*
X104993603Y-87576917D01*
X104974785Y-87780000D01*
X104993603Y-87983083D01*
X104996229Y-87992311D01*
X105047880Y-88173845D01*
X105045619Y-88234989D01*
X105022663Y-88270942D01*
X102584517Y-90709090D01*
X102584516Y-90709091D01*
X102531795Y-90800406D01*
X102531793Y-90800410D01*
X102531793Y-90800412D01*
X102525393Y-90824299D01*
X102511376Y-90876611D01*
X102506636Y-90894303D01*
X102504500Y-90902273D01*
X101100500Y-90902273D01*
X101100500Y-85240000D01*
X104974785Y-85240000D01*
X104993603Y-85443083D01*
X105049418Y-85639250D01*
X105140327Y-85821821D01*
X105263236Y-85984579D01*
X105413959Y-86121981D01*
X105587363Y-86229348D01*
X105777544Y-86303024D01*
X105978024Y-86340500D01*
X106181976Y-86340500D01*
X106382456Y-86303024D01*
X106572637Y-86229348D01*
X106746041Y-86121981D01*
X106896764Y-85984579D01*
X107019673Y-85821821D01*
X107110582Y-85639250D01*
X107166397Y-85443083D01*
X107185215Y-85240000D01*
X107166397Y-85036917D01*
X107110582Y-84840750D01*
X107019673Y-84658179D01*
X106896764Y-84495421D01*
X106746041Y-84358019D01*
X106572637Y-84250652D01*
X106382456Y-84176976D01*
X106382455Y-84176975D01*
X106382453Y-84176975D01*
X106181976Y-84139500D01*
X105978024Y-84139500D01*
X105777546Y-84176975D01*
X105707632Y-84204059D01*
X105587363Y-84250652D01*
X105437881Y-84343207D01*
X105413959Y-84358019D01*
X105263237Y-84495420D01*
X105140328Y-84658177D01*
X105140323Y-84658186D01*
X105058450Y-84822611D01*
X105049418Y-84840750D01*
X104993603Y-85036917D01*
X104974785Y-85240000D01*
X101100500Y-85240000D01*
X101100500Y-82700000D01*
X104974785Y-82700000D01*
X104993603Y-82903083D01*
X105049418Y-83099250D01*
X105140327Y-83281821D01*
X105263236Y-83444579D01*
X105413959Y-83581981D01*
X105587363Y-83689348D01*
X105777544Y-83763024D01*
X105978024Y-83800500D01*
X106181976Y-83800500D01*
X106382456Y-83763024D01*
X106572637Y-83689348D01*
X106746041Y-83581981D01*
X106896764Y-83444579D01*
X107019673Y-83281821D01*
X107110582Y-83099250D01*
X107166397Y-82903083D01*
X107185215Y-82700000D01*
X108734571Y-82700000D01*
X108754244Y-82912310D01*
X108812595Y-83117389D01*
X108907634Y-83308255D01*
X109036128Y-83478407D01*
X109036135Y-83478413D01*
X109193692Y-83622047D01*
X109193699Y-83622053D01*
X109238060Y-83649520D01*
X109374981Y-83734298D01*
X109573802Y-83811321D01*
X109783390Y-83850500D01*
X109996610Y-83850500D01*
X110206198Y-83811321D01*
X110405019Y-83734298D01*
X110586302Y-83622052D01*
X110743872Y-83478407D01*
X110872366Y-83308255D01*
X110967405Y-83117389D01*
X111025756Y-82912310D01*
X111045429Y-82700000D01*
X111025756Y-82487690D01*
X110967405Y-82282611D01*
X110872366Y-82091745D01*
X110743872Y-81921593D01*
X110679914Y-81863287D01*
X110586307Y-81777952D01*
X110586300Y-81777946D01*
X110405024Y-81665705D01*
X110405019Y-81665702D01*
X110206195Y-81588678D01*
X109996610Y-81549500D01*
X109783390Y-81549500D01*
X109573804Y-81588678D01*
X109374980Y-81665702D01*
X109374975Y-81665705D01*
X109193699Y-81777946D01*
X109193692Y-81777952D01*
X109036135Y-81921586D01*
X109036131Y-81921589D01*
X109036128Y-81921593D01*
X109036125Y-81921597D01*
X108907635Y-82091743D01*
X108907630Y-82091752D01*
X108812596Y-82282608D01*
X108754244Y-82487688D01*
X108754244Y-82487690D01*
X108734571Y-82700000D01*
X107185215Y-82700000D01*
X107166397Y-82496917D01*
X107110582Y-82300750D01*
X107019673Y-82118179D01*
X106896764Y-81955421D01*
X106746041Y-81818019D01*
X106572637Y-81710652D01*
X106382456Y-81636976D01*
X106382455Y-81636975D01*
X106382453Y-81636975D01*
X106181976Y-81599500D01*
X105978024Y-81599500D01*
X105777546Y-81636975D01*
X105707632Y-81664059D01*
X105587363Y-81710652D01*
X105478676Y-81777948D01*
X105413959Y-81818019D01*
X105264125Y-81954611D01*
X105263236Y-81955421D01*
X105232674Y-81995892D01*
X105140328Y-82118177D01*
X105140323Y-82118186D01*
X105049419Y-82300747D01*
X105049418Y-82300750D01*
X104993603Y-82496917D01*
X104974785Y-82700000D01*
X101100500Y-82700000D01*
X101100500Y-80160000D01*
X104974785Y-80160000D01*
X104993603Y-80363083D01*
X105049418Y-80559250D01*
X105140327Y-80741821D01*
X105263236Y-80904579D01*
X105413959Y-81041981D01*
X105587363Y-81149348D01*
X105777544Y-81223024D01*
X105978024Y-81260500D01*
X106181976Y-81260500D01*
X106382456Y-81223024D01*
X106572637Y-81149348D01*
X106746041Y-81041981D01*
X106896764Y-80904579D01*
X107019673Y-80741821D01*
X107110582Y-80559250D01*
X107166397Y-80363083D01*
X107185215Y-80160000D01*
X107166397Y-79956917D01*
X107110582Y-79760750D01*
X107019673Y-79578179D01*
X106896764Y-79415421D01*
X106746041Y-79278019D01*
X106572637Y-79170652D01*
X106382456Y-79096976D01*
X106382455Y-79096975D01*
X106382453Y-79096975D01*
X106181976Y-79059500D01*
X105978024Y-79059500D01*
X105777546Y-79096975D01*
X105707632Y-79124059D01*
X105587363Y-79170652D01*
X105437881Y-79263207D01*
X105413959Y-79278019D01*
X105263237Y-79415420D01*
X105140328Y-79578177D01*
X105140323Y-79578186D01*
X105058450Y-79742611D01*
X105049418Y-79760750D01*
X104993603Y-79956917D01*
X104974785Y-80160000D01*
X101100500Y-80160000D01*
X101100500Y-73004744D01*
X122935800Y-73004744D01*
X122935800Y-73103899D01*
X122935801Y-73103900D01*
X123660799Y-73103900D01*
X123660800Y-73103899D01*
X123660800Y-72316401D01*
X124160800Y-72316401D01*
X124160800Y-73103899D01*
X124160801Y-73103900D01*
X124885798Y-73103900D01*
X124885799Y-73103899D01*
X124885799Y-73004745D01*
X124875482Y-72903757D01*
X124875479Y-72903745D01*
X124821251Y-72740093D01*
X124730746Y-72593364D01*
X124608835Y-72471453D01*
X124462106Y-72380948D01*
X124298448Y-72326718D01*
X124197455Y-72316400D01*
X124160801Y-72316400D01*
X124160800Y-72316401D01*
X123660800Y-72316401D01*
X123660800Y-72316400D01*
X123624157Y-72316400D01*
X123624151Y-72316401D01*
X123523157Y-72326717D01*
X123523145Y-72326720D01*
X123359493Y-72380948D01*
X123212764Y-72471453D01*
X123090853Y-72593364D01*
X123000348Y-72740093D01*
X122946118Y-72903751D01*
X122935800Y-73004744D01*
X101100500Y-73004744D01*
X101100500Y-71274318D01*
X101100877Y-71265690D01*
X101109936Y-71162139D01*
X101117512Y-71075540D01*
X101120505Y-71058564D01*
X101168790Y-70878360D01*
X101174686Y-70862163D01*
X101253526Y-70693091D01*
X101262146Y-70678161D01*
X101369145Y-70525351D01*
X101380226Y-70512144D01*
X101512144Y-70380226D01*
X101525351Y-70369145D01*
X101678161Y-70262146D01*
X101693091Y-70253526D01*
X101862163Y-70174686D01*
X101878360Y-70168790D01*
X102058564Y-70120505D01*
X102075540Y-70117512D01*
X102265691Y-70100877D01*
X102274319Y-70100500D01*
X102296929Y-70100500D01*
X125103071Y-70100500D01*
X125125681Y-70100500D01*
X125134309Y-70100877D01*
G37*
G04 #@! TD.AperFunction*
M02*
