%TF.GenerationSoftware,KiCad,Pcbnew,9.0.7-9.0.7~ubuntu25.10.1*%
%TF.CreationDate,2026-03-01T16:55:47+09:00*%
%TF.ProjectId,bionic-cp1610,62696f6e-6963-42d6-9370-313631302e6b,1*%
%TF.SameCoordinates,Original*%
%TF.FileFunction,Drillmap*%
%TF.FilePolarity,Positive*%
%FSLAX45Y45*%
G04 Gerber Fmt 4.5, Leading zero omitted, Abs format (unit mm)*
G04 Created by KiCad (PCBNEW 9.0.7-9.0.7~ubuntu25.10.1) date 2026-03-01 16:55:47*
%MOMM*%
%LPD*%
G01*
G04 APERTURE LIST*
%ADD10C,0.050000*%
%ADD11C,0.200000*%
G04 APERTURE END LIST*
D10*
X8590280Y-4197360D02*
G75*
G02*
X8717280Y-4070360I127000J0D01*
G01*
X11003280Y-4070360D02*
G75*
G02*
X11130280Y-4197360I0J-127000D01*
G01*
X8717280Y-10928360D02*
G75*
G02*
X8590280Y-10801360I0J127000D01*
G01*
X11130280Y-4197360D02*
X11130280Y-10801360D01*
X8717280Y-4070360D02*
X11003280Y-4070360D01*
X11003280Y-10928360D02*
X8717280Y-10928360D01*
X8590280Y-10801360D02*
X8590280Y-4197360D01*
X11130280Y-10801360D02*
G75*
G02*
X11003280Y-10928360I-127000J0D01*
G01*
D11*
X8848557Y-11242344D02*
X8848557Y-11042344D01*
X8848557Y-11042344D02*
X8896176Y-11042344D01*
X8896176Y-11042344D02*
X8924747Y-11051868D01*
X8924747Y-11051868D02*
X8943795Y-11070915D01*
X8943795Y-11070915D02*
X8953319Y-11089963D01*
X8953319Y-11089963D02*
X8962843Y-11128058D01*
X8962843Y-11128058D02*
X8962843Y-11156630D01*
X8962843Y-11156630D02*
X8953319Y-11194725D01*
X8953319Y-11194725D02*
X8943795Y-11213772D01*
X8943795Y-11213772D02*
X8924747Y-11232820D01*
X8924747Y-11232820D02*
X8896176Y-11242344D01*
X8896176Y-11242344D02*
X8848557Y-11242344D01*
X9048557Y-11242344D02*
X9048557Y-11109010D01*
X9048557Y-11147106D02*
X9058081Y-11128058D01*
X9058081Y-11128058D02*
X9067604Y-11118534D01*
X9067604Y-11118534D02*
X9086652Y-11109010D01*
X9086652Y-11109010D02*
X9105700Y-11109010D01*
X9172366Y-11242344D02*
X9172366Y-11109010D01*
X9172366Y-11042344D02*
X9162843Y-11051868D01*
X9162843Y-11051868D02*
X9172366Y-11061391D01*
X9172366Y-11061391D02*
X9181890Y-11051868D01*
X9181890Y-11051868D02*
X9172366Y-11042344D01*
X9172366Y-11042344D02*
X9172366Y-11061391D01*
X9296176Y-11242344D02*
X9277128Y-11232820D01*
X9277128Y-11232820D02*
X9267604Y-11213772D01*
X9267604Y-11213772D02*
X9267604Y-11042344D01*
X9400938Y-11242344D02*
X9381890Y-11232820D01*
X9381890Y-11232820D02*
X9372366Y-11213772D01*
X9372366Y-11213772D02*
X9372366Y-11042344D01*
X9629509Y-11242344D02*
X9629509Y-11042344D01*
X9629509Y-11042344D02*
X9696176Y-11185201D01*
X9696176Y-11185201D02*
X9762843Y-11042344D01*
X9762843Y-11042344D02*
X9762843Y-11242344D01*
X9943795Y-11242344D02*
X9943795Y-11137582D01*
X9943795Y-11137582D02*
X9934271Y-11118534D01*
X9934271Y-11118534D02*
X9915224Y-11109010D01*
X9915224Y-11109010D02*
X9877128Y-11109010D01*
X9877128Y-11109010D02*
X9858081Y-11118534D01*
X9943795Y-11232820D02*
X9924747Y-11242344D01*
X9924747Y-11242344D02*
X9877128Y-11242344D01*
X9877128Y-11242344D02*
X9858081Y-11232820D01*
X9858081Y-11232820D02*
X9848557Y-11213772D01*
X9848557Y-11213772D02*
X9848557Y-11194725D01*
X9848557Y-11194725D02*
X9858081Y-11175677D01*
X9858081Y-11175677D02*
X9877128Y-11166153D01*
X9877128Y-11166153D02*
X9924747Y-11166153D01*
X9924747Y-11166153D02*
X9943795Y-11156630D01*
X10039033Y-11109010D02*
X10039033Y-11309010D01*
X10039033Y-11118534D02*
X10058081Y-11109010D01*
X10058081Y-11109010D02*
X10096176Y-11109010D01*
X10096176Y-11109010D02*
X10115224Y-11118534D01*
X10115224Y-11118534D02*
X10124747Y-11128058D01*
X10124747Y-11128058D02*
X10134271Y-11147106D01*
X10134271Y-11147106D02*
X10134271Y-11204248D01*
X10134271Y-11204248D02*
X10124747Y-11223296D01*
X10124747Y-11223296D02*
X10115224Y-11232820D01*
X10115224Y-11232820D02*
X10096176Y-11242344D01*
X10096176Y-11242344D02*
X10058081Y-11242344D01*
X10058081Y-11242344D02*
X10039033Y-11232820D01*
X10219985Y-11223296D02*
X10229509Y-11232820D01*
X10229509Y-11232820D02*
X10219985Y-11242344D01*
X10219985Y-11242344D02*
X10210462Y-11232820D01*
X10210462Y-11232820D02*
X10219985Y-11223296D01*
X10219985Y-11223296D02*
X10219985Y-11242344D01*
X10219985Y-11118534D02*
X10229509Y-11128058D01*
X10229509Y-11128058D02*
X10219985Y-11137582D01*
X10219985Y-11137582D02*
X10210462Y-11128058D01*
X10210462Y-11128058D02*
X10219985Y-11118534D01*
X10219985Y-11118534D02*
X10219985Y-11137582D01*
M02*
