%TF.GenerationSoftware,KiCad,Pcbnew,9.0.7-9.0.7~ubuntu25.10.1*%
%TF.CreationDate,2026-03-01T16:55:47+09:00*%
%TF.ProjectId,bionic-cp1610,62696f6e-6963-42d6-9370-313631302e6b,1*%
%TF.SameCoordinates,Original*%
%TF.FileFunction,Drillmap*%
%TF.FilePolarity,Positive*%
%FSLAX45Y45*%
G04 Gerber Fmt 4.5, Leading zero omitted, Abs format (unit mm)*
G04 Created by KiCad (PCBNEW 9.0.7-9.0.7~ubuntu25.10.1) date 2026-03-01 16:55:47*
%MOMM*%
%LPD*%
G01*
G04 APERTURE LIST*
%ADD10C,0.050000*%
%ADD11C,0.200000*%
%ADD12C,0.100000*%
G04 APERTURE END LIST*
D10*
X8590280Y-4197360D02*
G75*
G02*
X8717280Y-4070360I127000J0D01*
G01*
X11003280Y-4070360D02*
G75*
G02*
X11130280Y-4197360I0J-127000D01*
G01*
X8717280Y-10928360D02*
G75*
G02*
X8590280Y-10801360I0J127000D01*
G01*
X11130280Y-4197360D02*
X11130280Y-10801360D01*
X8717280Y-4070360D02*
X11003280Y-4070360D01*
X11003280Y-10928360D02*
X8717280Y-10928360D01*
X8590280Y-10801360D02*
X8590280Y-4197360D01*
X11130280Y-10801360D02*
G75*
G02*
X11003280Y-10928360I-127000J0D01*
G01*
D11*
D12*
X8646320Y-9782980D02*
X8666320Y-9802980D01*
X8666320Y-9782980D02*
X8646320Y-9802980D01*
X8734295Y-5603755D02*
X8754295Y-5623755D01*
X8754295Y-5603755D02*
X8734295Y-5623755D01*
X8745380Y-9541680D02*
X8765380Y-9561680D01*
X8765380Y-9541680D02*
X8745380Y-9561680D01*
X8756810Y-10070000D02*
X8776810Y-10090000D01*
X8776810Y-10070000D02*
X8756810Y-10090000D01*
X8767520Y-5848520D02*
X8787520Y-5868520D01*
X8787520Y-5848520D02*
X8767520Y-5868520D01*
X8816500Y-5320200D02*
X8836500Y-5340200D01*
X8836500Y-5320200D02*
X8816500Y-5340200D01*
X8816500Y-6267620D02*
X8836500Y-6287620D01*
X8836500Y-6267620D02*
X8816500Y-6287620D01*
X8861500Y-6408951D02*
X8881500Y-6428951D01*
X8881500Y-6408951D02*
X8861500Y-6428951D01*
X8906600Y-5118340D02*
X8926600Y-5138340D01*
X8926600Y-5118340D02*
X8906600Y-5138340D01*
X8925720Y-9912520D02*
X8945720Y-9932520D01*
X8945720Y-9912520D02*
X8925720Y-9932520D01*
X8950780Y-7446180D02*
X8970780Y-7466180D01*
X8970780Y-7446180D02*
X8950780Y-7466180D01*
X8993280Y-10773580D02*
X9013280Y-10793580D01*
X9013280Y-10773580D02*
X8993280Y-10793580D01*
X9245760Y-6474080D02*
X9265760Y-6494080D01*
X9265760Y-6474080D02*
X9245760Y-6494080D01*
X9248300Y-5371000D02*
X9268300Y-5391000D01*
X9268300Y-5371000D02*
X9248300Y-5391000D01*
X9271160Y-5691040D02*
X9291160Y-5711040D01*
X9291160Y-5691040D02*
X9271160Y-5711040D01*
X9293300Y-6723550D02*
X9313300Y-6743550D01*
X9313300Y-6723550D02*
X9293300Y-6743550D01*
X9323400Y-6873410D02*
X9343400Y-6893410D01*
X9343400Y-6873410D02*
X9323400Y-6893410D01*
X9323400Y-7362360D02*
X9343400Y-7382360D01*
X9343400Y-7362360D02*
X9323400Y-7382360D01*
X9324500Y-5158360D02*
X9344500Y-5178360D01*
X9344500Y-5158360D02*
X9324500Y-5178360D01*
X9344820Y-10077620D02*
X9364820Y-10097620D01*
X9364820Y-10077620D02*
X9344820Y-10097620D01*
X9391210Y-5491050D02*
X9411210Y-5511050D01*
X9411210Y-5491050D02*
X9391210Y-5511050D01*
X9459190Y-5241530D02*
X9479190Y-5261530D01*
X9479190Y-5241530D02*
X9459190Y-5261530D01*
X9541120Y-6267620D02*
X9561120Y-6287620D01*
X9561120Y-6267620D02*
X9541120Y-6287620D01*
X9553650Y-8231040D02*
X9573650Y-8251040D01*
X9573650Y-8231040D02*
X9553650Y-8251040D01*
X9586120Y-6912780D02*
X9606120Y-6932780D01*
X9606120Y-6912780D02*
X9586120Y-6932780D01*
X9599070Y-8110150D02*
X9619070Y-8130150D01*
X9619070Y-8110150D02*
X9599070Y-8130150D01*
X9708040Y-6874680D02*
X9728040Y-6894680D01*
X9728040Y-6874680D02*
X9708040Y-6894680D01*
X9708040Y-6966120D02*
X9728040Y-6986120D01*
X9728040Y-6966120D02*
X9708040Y-6986120D01*
X9715660Y-5665640D02*
X9735660Y-5685640D01*
X9735660Y-5665640D02*
X9715660Y-5685640D01*
X9716960Y-7070260D02*
X9736960Y-7090260D01*
X9736960Y-7070260D02*
X9716960Y-7090260D01*
X9735980Y-9478180D02*
X9755980Y-9498180D01*
X9755980Y-9478180D02*
X9735980Y-9498180D01*
X9746140Y-6760380D02*
X9766140Y-6780380D01*
X9766140Y-6760380D02*
X9746140Y-6780380D01*
X9761960Y-7821220D02*
X9781960Y-7841220D01*
X9781960Y-7821220D02*
X9761960Y-7841220D01*
X9789320Y-9643280D02*
X9809320Y-9663280D01*
X9809320Y-9643280D02*
X9789320Y-9663280D01*
X9791860Y-8736500D02*
X9811860Y-8756500D01*
X9811860Y-8736500D02*
X9791860Y-8756500D01*
X9842660Y-10316380D02*
X9862660Y-10336380D01*
X9862660Y-10316380D02*
X9842660Y-10336380D01*
X9850280Y-10730400D02*
X9870280Y-10750400D01*
X9870280Y-10730400D02*
X9850280Y-10750400D01*
X9893460Y-9805840D02*
X9913460Y-9825840D01*
X9913460Y-9805840D02*
X9893460Y-9825840D01*
X9901080Y-6745140D02*
X9921080Y-6765140D01*
X9921080Y-6745140D02*
X9901080Y-6765140D01*
X9946800Y-8632360D02*
X9966800Y-8652360D01*
X9966800Y-8632360D02*
X9946800Y-8652360D01*
X9965850Y-8986690D02*
X9985850Y-9006690D01*
X9985850Y-8986690D02*
X9965850Y-9006690D01*
X9988710Y-7709070D02*
X10008710Y-7729070D01*
X10008710Y-7709070D02*
X9988710Y-7729070D01*
X9989980Y-8482500D02*
X10009980Y-8502500D01*
X10009980Y-8482500D02*
X9989980Y-8502500D01*
X10006490Y-9240690D02*
X10026490Y-9260690D01*
X10026490Y-9240690D02*
X10006490Y-9260690D01*
X10043320Y-6938180D02*
X10063320Y-6958180D01*
X10063320Y-6938180D02*
X10043320Y-6958180D01*
X10048400Y-6747680D02*
X10068400Y-6767680D01*
X10068400Y-6747680D02*
X10048400Y-6767680D01*
X10061100Y-5845980D02*
X10081100Y-5865980D01*
X10081100Y-5845980D02*
X10061100Y-5865980D01*
X10068720Y-7512220D02*
X10088720Y-7532220D01*
X10088720Y-7512220D02*
X10068720Y-7532220D01*
X10106800Y-10039500D02*
X10126800Y-10059500D01*
X10126800Y-10039500D02*
X10106800Y-10059500D01*
X10106820Y-7034700D02*
X10126820Y-7054700D01*
X10126820Y-7034700D02*
X10106820Y-7054700D01*
X10129700Y-8886360D02*
X10149700Y-8906360D01*
X10149700Y-8886360D02*
X10129700Y-8906360D01*
X10137300Y-4225460D02*
X10157300Y-4245460D01*
X10157300Y-4225460D02*
X10137300Y-4245460D01*
X10141120Y-8721260D02*
X10161120Y-8741260D01*
X10161120Y-8721260D02*
X10141120Y-8741260D01*
X10223660Y-5901860D02*
X10243660Y-5921860D01*
X10243660Y-5901860D02*
X10223660Y-5921860D01*
X10279540Y-6600360D02*
X10299540Y-6620360D01*
X10299540Y-6600360D02*
X10279540Y-6620360D01*
X10358280Y-9310540D02*
X10378280Y-9330540D01*
X10378280Y-9310540D02*
X10358280Y-9330540D01*
X10390000Y-7232820D02*
X10410000Y-7252820D01*
X10410000Y-7232820D02*
X10390000Y-7252820D01*
X10398510Y-8570160D02*
X10418510Y-8590160D01*
X10418510Y-8570160D02*
X10398510Y-8590160D01*
X10399360Y-7560980D02*
X10419360Y-7580980D01*
X10419360Y-7560980D02*
X10399360Y-7580980D01*
X10464960Y-7098200D02*
X10484960Y-7118200D01*
X10484960Y-7098200D02*
X10464960Y-7118200D01*
X10487820Y-5708820D02*
X10507820Y-5728820D01*
X10507820Y-5708820D02*
X10487820Y-5728820D01*
X10691020Y-7748440D02*
X10711020Y-7768440D01*
X10711020Y-7748440D02*
X10691020Y-7768440D01*
X10764700Y-9521360D02*
X10784700Y-9541360D01*
X10784700Y-9521360D02*
X10764700Y-9541360D01*
X10772300Y-4705520D02*
X10792300Y-4725520D01*
X10792300Y-4705520D02*
X10772300Y-4725520D01*
X10774840Y-8500280D02*
X10794840Y-8520280D01*
X10794840Y-8500280D02*
X10774840Y-8520280D01*
X10853600Y-6206660D02*
X10873600Y-6226660D01*
X10873600Y-6206660D02*
X10853600Y-6226660D01*
X10853600Y-7336960D02*
X10873600Y-7356960D01*
X10873600Y-7336960D02*
X10853600Y-7356960D01*
X10937400Y-5673260D02*
X10957400Y-5693260D01*
X10957400Y-5673260D02*
X10937400Y-5693260D01*
X11034645Y-6225165D02*
X11054645Y-6245165D01*
X11054645Y-6225165D02*
X11034645Y-6245165D01*
X11061860Y-8700940D02*
X11081860Y-8720940D01*
X11081860Y-8700940D02*
X11061860Y-8720940D01*
X11082180Y-5774860D02*
X11102180Y-5794860D01*
X11102180Y-5774860D02*
X11082180Y-5794860D01*
X10632200Y-10438600D02*
G75*
G02*
X10602200Y-10438600I-15000J0D01*
G01*
X10602200Y-10438600D02*
G75*
G02*
X10632200Y-10438600I15000J0D01*
G01*
X10667800Y-10107900D02*
G75*
G02*
X10637800Y-10107900I-15000J0D01*
G01*
X10637800Y-10107900D02*
G75*
G02*
X10667800Y-10107900I15000J0D01*
G01*
X10817600Y-10118100D02*
G75*
G02*
X10787600Y-10118100I-15000J0D01*
G01*
X10787600Y-10118100D02*
G75*
G02*
X10817600Y-10118100I15000J0D01*
G01*
X10980200Y-9000500D02*
G75*
G02*
X10950200Y-9000500I-15000J0D01*
G01*
X10950200Y-9000500D02*
G75*
G02*
X10980200Y-9000500I15000J0D01*
G01*
X10998000Y-10438100D02*
G75*
G02*
X10968000Y-10438100I-15000J0D01*
G01*
X10968000Y-10438100D02*
G75*
G02*
X10998000Y-10438100I15000J0D01*
G01*
X9098280Y-4538360D02*
X9098280Y-4618360D01*
X9058280Y-4578360D02*
X9138280Y-4578360D01*
X9098280Y-4792360D02*
X9098280Y-4872360D01*
X9058280Y-4832360D02*
X9138280Y-4832360D01*
X9098280Y-5046360D02*
X9098280Y-5126360D01*
X9058280Y-5086360D02*
X9138280Y-5086360D01*
X9098280Y-5300360D02*
X9098280Y-5380360D01*
X9058280Y-5340360D02*
X9138280Y-5340360D01*
X9098280Y-5554360D02*
X9098280Y-5634360D01*
X9058280Y-5594360D02*
X9138280Y-5594360D01*
X9098280Y-5808360D02*
X9098280Y-5888360D01*
X9058280Y-5848360D02*
X9138280Y-5848360D01*
X9098280Y-6062360D02*
X9098280Y-6142360D01*
X9058280Y-6102360D02*
X9138280Y-6102360D01*
X9098280Y-6316360D02*
X9098280Y-6396360D01*
X9058280Y-6356360D02*
X9138280Y-6356360D01*
X9098280Y-6570360D02*
X9098280Y-6650360D01*
X9058280Y-6610360D02*
X9138280Y-6610360D01*
X9098280Y-6824360D02*
X9098280Y-6904360D01*
X9058280Y-6864360D02*
X9138280Y-6864360D01*
X9098280Y-7078360D02*
X9098280Y-7158360D01*
X9058280Y-7118360D02*
X9138280Y-7118360D01*
X9098280Y-7332360D02*
X9098280Y-7412360D01*
X9058280Y-7372360D02*
X9138280Y-7372360D01*
X9098280Y-7586360D02*
X9098280Y-7666360D01*
X9058280Y-7626360D02*
X9138280Y-7626360D01*
X9098280Y-7840360D02*
X9098280Y-7920360D01*
X9058280Y-7880360D02*
X9138280Y-7880360D01*
X9098280Y-8094360D02*
X9098280Y-8174360D01*
X9058280Y-8134360D02*
X9138280Y-8134360D01*
X9098280Y-8348360D02*
X9098280Y-8428360D01*
X9058280Y-8388360D02*
X9138280Y-8388360D01*
X9098280Y-8602360D02*
X9098280Y-8682360D01*
X9058280Y-8642360D02*
X9138280Y-8642360D01*
X9098280Y-8856360D02*
X9098280Y-8936360D01*
X9058280Y-8896360D02*
X9138280Y-8896360D01*
X9098280Y-9110360D02*
X9098280Y-9190360D01*
X9058280Y-9150360D02*
X9138280Y-9150360D01*
X9098280Y-9364360D02*
X9098280Y-9444360D01*
X9058280Y-9404360D02*
X9138280Y-9404360D01*
X10622280Y-4538360D02*
X10622280Y-4618360D01*
X10582280Y-4578360D02*
X10662280Y-4578360D01*
X10622280Y-4792360D02*
X10622280Y-4872360D01*
X10582280Y-4832360D02*
X10662280Y-4832360D01*
X10622280Y-5046360D02*
X10622280Y-5126360D01*
X10582280Y-5086360D02*
X10662280Y-5086360D01*
X10622280Y-5300360D02*
X10622280Y-5380360D01*
X10582280Y-5340360D02*
X10662280Y-5340360D01*
X10622280Y-5554360D02*
X10622280Y-5634360D01*
X10582280Y-5594360D02*
X10662280Y-5594360D01*
X10622280Y-5808360D02*
X10622280Y-5888360D01*
X10582280Y-5848360D02*
X10662280Y-5848360D01*
X10622280Y-6062360D02*
X10622280Y-6142360D01*
X10582280Y-6102360D02*
X10662280Y-6102360D01*
X10622280Y-6316360D02*
X10622280Y-6396360D01*
X10582280Y-6356360D02*
X10662280Y-6356360D01*
X10622280Y-6570360D02*
X10622280Y-6650360D01*
X10582280Y-6610360D02*
X10662280Y-6610360D01*
X10622280Y-6824360D02*
X10622280Y-6904360D01*
X10582280Y-6864360D02*
X10662280Y-6864360D01*
X10622280Y-7078360D02*
X10622280Y-7158360D01*
X10582280Y-7118360D02*
X10662280Y-7118360D01*
X10622280Y-7332360D02*
X10622280Y-7412360D01*
X10582280Y-7372360D02*
X10662280Y-7372360D01*
X10622280Y-7586360D02*
X10622280Y-7666360D01*
X10582280Y-7626360D02*
X10662280Y-7626360D01*
X10622280Y-7840360D02*
X10622280Y-7920360D01*
X10582280Y-7880360D02*
X10662280Y-7880360D01*
X10622280Y-8094360D02*
X10622280Y-8174360D01*
X10582280Y-8134360D02*
X10662280Y-8134360D01*
X10622280Y-8348360D02*
X10622280Y-8428360D01*
X10582280Y-8388360D02*
X10662280Y-8388360D01*
X10622280Y-8602360D02*
X10622280Y-8682360D01*
X10582280Y-8642360D02*
X10662280Y-8642360D01*
X10622280Y-8856360D02*
X10622280Y-8936360D01*
X10582280Y-8896360D02*
X10662280Y-8896360D01*
X10622280Y-9110360D02*
X10622280Y-9190360D01*
X10582280Y-9150360D02*
X10662280Y-9150360D01*
X10622280Y-9364360D02*
X10622280Y-9444360D01*
X10582280Y-9404360D02*
X10662280Y-9404360D01*
X9514636Y-4613716D02*
X9514636Y-4543004D01*
X9443924Y-4543004D01*
X9443924Y-4613716D01*
X9514636Y-4613716D01*
X9514636Y-10455716D02*
X9514636Y-10385004D01*
X9443924Y-10385004D01*
X9443924Y-10455716D01*
X9514636Y-10455716D01*
X10276636Y-4613716D02*
X10276636Y-4543004D01*
X10205924Y-4543004D01*
X10205924Y-4613716D01*
X10276636Y-4613716D01*
X10276636Y-10455716D02*
X10276636Y-10385004D01*
X10205924Y-10385004D01*
X10205924Y-10455716D01*
X10276636Y-10455716D01*
D11*
X8848557Y-11242344D02*
X8848557Y-11042344D01*
X8848557Y-11042344D02*
X8896176Y-11042344D01*
X8896176Y-11042344D02*
X8924747Y-11051868D01*
X8924747Y-11051868D02*
X8943795Y-11070915D01*
X8943795Y-11070915D02*
X8953319Y-11089963D01*
X8953319Y-11089963D02*
X8962843Y-11128058D01*
X8962843Y-11128058D02*
X8962843Y-11156630D01*
X8962843Y-11156630D02*
X8953319Y-11194725D01*
X8953319Y-11194725D02*
X8943795Y-11213772D01*
X8943795Y-11213772D02*
X8924747Y-11232820D01*
X8924747Y-11232820D02*
X8896176Y-11242344D01*
X8896176Y-11242344D02*
X8848557Y-11242344D01*
X9048557Y-11242344D02*
X9048557Y-11109010D01*
X9048557Y-11147106D02*
X9058081Y-11128058D01*
X9058081Y-11128058D02*
X9067604Y-11118534D01*
X9067604Y-11118534D02*
X9086652Y-11109010D01*
X9086652Y-11109010D02*
X9105700Y-11109010D01*
X9172366Y-11242344D02*
X9172366Y-11109010D01*
X9172366Y-11042344D02*
X9162843Y-11051868D01*
X9162843Y-11051868D02*
X9172366Y-11061391D01*
X9172366Y-11061391D02*
X9181890Y-11051868D01*
X9181890Y-11051868D02*
X9172366Y-11042344D01*
X9172366Y-11042344D02*
X9172366Y-11061391D01*
X9296176Y-11242344D02*
X9277128Y-11232820D01*
X9277128Y-11232820D02*
X9267604Y-11213772D01*
X9267604Y-11213772D02*
X9267604Y-11042344D01*
X9400938Y-11242344D02*
X9381890Y-11232820D01*
X9381890Y-11232820D02*
X9372366Y-11213772D01*
X9372366Y-11213772D02*
X9372366Y-11042344D01*
X9629509Y-11242344D02*
X9629509Y-11042344D01*
X9629509Y-11042344D02*
X9696176Y-11185201D01*
X9696176Y-11185201D02*
X9762843Y-11042344D01*
X9762843Y-11042344D02*
X9762843Y-11242344D01*
X9943795Y-11242344D02*
X9943795Y-11137582D01*
X9943795Y-11137582D02*
X9934271Y-11118534D01*
X9934271Y-11118534D02*
X9915224Y-11109010D01*
X9915224Y-11109010D02*
X9877128Y-11109010D01*
X9877128Y-11109010D02*
X9858081Y-11118534D01*
X9943795Y-11232820D02*
X9924747Y-11242344D01*
X9924747Y-11242344D02*
X9877128Y-11242344D01*
X9877128Y-11242344D02*
X9858081Y-11232820D01*
X9858081Y-11232820D02*
X9848557Y-11213772D01*
X9848557Y-11213772D02*
X9848557Y-11194725D01*
X9848557Y-11194725D02*
X9858081Y-11175677D01*
X9858081Y-11175677D02*
X9877128Y-11166153D01*
X9877128Y-11166153D02*
X9924747Y-11166153D01*
X9924747Y-11166153D02*
X9943795Y-11156630D01*
X10039033Y-11109010D02*
X10039033Y-11309010D01*
X10039033Y-11118534D02*
X10058081Y-11109010D01*
X10058081Y-11109010D02*
X10096176Y-11109010D01*
X10096176Y-11109010D02*
X10115224Y-11118534D01*
X10115224Y-11118534D02*
X10124747Y-11128058D01*
X10124747Y-11128058D02*
X10134271Y-11147106D01*
X10134271Y-11147106D02*
X10134271Y-11204248D01*
X10134271Y-11204248D02*
X10124747Y-11223296D01*
X10124747Y-11223296D02*
X10115224Y-11232820D01*
X10115224Y-11232820D02*
X10096176Y-11242344D01*
X10096176Y-11242344D02*
X10058081Y-11242344D01*
X10058081Y-11242344D02*
X10039033Y-11232820D01*
X10219985Y-11223296D02*
X10229509Y-11232820D01*
X10229509Y-11232820D02*
X10219985Y-11242344D01*
X10219985Y-11242344D02*
X10210462Y-11232820D01*
X10210462Y-11232820D02*
X10219985Y-11223296D01*
X10219985Y-11223296D02*
X10219985Y-11242344D01*
X10219985Y-11118534D02*
X10229509Y-11128058D01*
X10229509Y-11128058D02*
X10219985Y-11137582D01*
X10219985Y-11137582D02*
X10210462Y-11128058D01*
X10210462Y-11128058D02*
X10219985Y-11118534D01*
X10219985Y-11118534D02*
X10219985Y-11137582D01*
D12*
X8567780Y-11560860D02*
X8587780Y-11580860D01*
X8587780Y-11560860D02*
X8567780Y-11580860D01*
D11*
X8886652Y-11462344D02*
X8905700Y-11462344D01*
X8905700Y-11462344D02*
X8924747Y-11471868D01*
X8924747Y-11471868D02*
X8934271Y-11481391D01*
X8934271Y-11481391D02*
X8943795Y-11500439D01*
X8943795Y-11500439D02*
X8953319Y-11538534D01*
X8953319Y-11538534D02*
X8953319Y-11586153D01*
X8953319Y-11586153D02*
X8943795Y-11624248D01*
X8943795Y-11624248D02*
X8934271Y-11643296D01*
X8934271Y-11643296D02*
X8924747Y-11652820D01*
X8924747Y-11652820D02*
X8905700Y-11662344D01*
X8905700Y-11662344D02*
X8886652Y-11662344D01*
X8886652Y-11662344D02*
X8867604Y-11652820D01*
X8867604Y-11652820D02*
X8858081Y-11643296D01*
X8858081Y-11643296D02*
X8848557Y-11624248D01*
X8848557Y-11624248D02*
X8839033Y-11586153D01*
X8839033Y-11586153D02*
X8839033Y-11538534D01*
X8839033Y-11538534D02*
X8848557Y-11500439D01*
X8848557Y-11500439D02*
X8858081Y-11481391D01*
X8858081Y-11481391D02*
X8867604Y-11471868D01*
X8867604Y-11471868D02*
X8886652Y-11462344D01*
X9039033Y-11643296D02*
X9048557Y-11652820D01*
X9048557Y-11652820D02*
X9039033Y-11662344D01*
X9039033Y-11662344D02*
X9029509Y-11652820D01*
X9029509Y-11652820D02*
X9039033Y-11643296D01*
X9039033Y-11643296D02*
X9039033Y-11662344D01*
X9124747Y-11481391D02*
X9134271Y-11471868D01*
X9134271Y-11471868D02*
X9153319Y-11462344D01*
X9153319Y-11462344D02*
X9200938Y-11462344D01*
X9200938Y-11462344D02*
X9219985Y-11471868D01*
X9219985Y-11471868D02*
X9229509Y-11481391D01*
X9229509Y-11481391D02*
X9239033Y-11500439D01*
X9239033Y-11500439D02*
X9239033Y-11519487D01*
X9239033Y-11519487D02*
X9229509Y-11548058D01*
X9229509Y-11548058D02*
X9115224Y-11662344D01*
X9115224Y-11662344D02*
X9239033Y-11662344D01*
X9362843Y-11462344D02*
X9381890Y-11462344D01*
X9381890Y-11462344D02*
X9400938Y-11471868D01*
X9400938Y-11471868D02*
X9410462Y-11481391D01*
X9410462Y-11481391D02*
X9419985Y-11500439D01*
X9419985Y-11500439D02*
X9429509Y-11538534D01*
X9429509Y-11538534D02*
X9429509Y-11586153D01*
X9429509Y-11586153D02*
X9419985Y-11624248D01*
X9419985Y-11624248D02*
X9410462Y-11643296D01*
X9410462Y-11643296D02*
X9400938Y-11652820D01*
X9400938Y-11652820D02*
X9381890Y-11662344D01*
X9381890Y-11662344D02*
X9362843Y-11662344D01*
X9362843Y-11662344D02*
X9343795Y-11652820D01*
X9343795Y-11652820D02*
X9334271Y-11643296D01*
X9334271Y-11643296D02*
X9324747Y-11624248D01*
X9324747Y-11624248D02*
X9315224Y-11586153D01*
X9315224Y-11586153D02*
X9315224Y-11538534D01*
X9315224Y-11538534D02*
X9324747Y-11500439D01*
X9324747Y-11500439D02*
X9334271Y-11481391D01*
X9334271Y-11481391D02*
X9343795Y-11471868D01*
X9343795Y-11471868D02*
X9362843Y-11462344D01*
X9553319Y-11462344D02*
X9572366Y-11462344D01*
X9572366Y-11462344D02*
X9591414Y-11471868D01*
X9591414Y-11471868D02*
X9600938Y-11481391D01*
X9600938Y-11481391D02*
X9610462Y-11500439D01*
X9610462Y-11500439D02*
X9619985Y-11538534D01*
X9619985Y-11538534D02*
X9619985Y-11586153D01*
X9619985Y-11586153D02*
X9610462Y-11624248D01*
X9610462Y-11624248D02*
X9600938Y-11643296D01*
X9600938Y-11643296D02*
X9591414Y-11652820D01*
X9591414Y-11652820D02*
X9572366Y-11662344D01*
X9572366Y-11662344D02*
X9553319Y-11662344D01*
X9553319Y-11662344D02*
X9534271Y-11652820D01*
X9534271Y-11652820D02*
X9524747Y-11643296D01*
X9524747Y-11643296D02*
X9515224Y-11624248D01*
X9515224Y-11624248D02*
X9505700Y-11586153D01*
X9505700Y-11586153D02*
X9505700Y-11538534D01*
X9505700Y-11538534D02*
X9515224Y-11500439D01*
X9515224Y-11500439D02*
X9524747Y-11481391D01*
X9524747Y-11481391D02*
X9534271Y-11471868D01*
X9534271Y-11471868D02*
X9553319Y-11462344D01*
X9705700Y-11662344D02*
X9705700Y-11529010D01*
X9705700Y-11548058D02*
X9715224Y-11538534D01*
X9715224Y-11538534D02*
X9734271Y-11529010D01*
X9734271Y-11529010D02*
X9762843Y-11529010D01*
X9762843Y-11529010D02*
X9781890Y-11538534D01*
X9781890Y-11538534D02*
X9791414Y-11557582D01*
X9791414Y-11557582D02*
X9791414Y-11662344D01*
X9791414Y-11557582D02*
X9800938Y-11538534D01*
X9800938Y-11538534D02*
X9819985Y-11529010D01*
X9819985Y-11529010D02*
X9848557Y-11529010D01*
X9848557Y-11529010D02*
X9867605Y-11538534D01*
X9867605Y-11538534D02*
X9877128Y-11557582D01*
X9877128Y-11557582D02*
X9877128Y-11662344D01*
X9972366Y-11662344D02*
X9972366Y-11529010D01*
X9972366Y-11548058D02*
X9981890Y-11538534D01*
X9981890Y-11538534D02*
X10000938Y-11529010D01*
X10000938Y-11529010D02*
X10029509Y-11529010D01*
X10029509Y-11529010D02*
X10048557Y-11538534D01*
X10048557Y-11538534D02*
X10058081Y-11557582D01*
X10058081Y-11557582D02*
X10058081Y-11662344D01*
X10058081Y-11557582D02*
X10067605Y-11538534D01*
X10067605Y-11538534D02*
X10086652Y-11529010D01*
X10086652Y-11529010D02*
X10115224Y-11529010D01*
X10115224Y-11529010D02*
X10134271Y-11538534D01*
X10134271Y-11538534D02*
X10143795Y-11557582D01*
X10143795Y-11557582D02*
X10143795Y-11662344D01*
X10534271Y-11452820D02*
X10362843Y-11709963D01*
X10791414Y-11462344D02*
X10810462Y-11462344D01*
X10810462Y-11462344D02*
X10829509Y-11471868D01*
X10829509Y-11471868D02*
X10839033Y-11481391D01*
X10839033Y-11481391D02*
X10848557Y-11500439D01*
X10848557Y-11500439D02*
X10858081Y-11538534D01*
X10858081Y-11538534D02*
X10858081Y-11586153D01*
X10858081Y-11586153D02*
X10848557Y-11624248D01*
X10848557Y-11624248D02*
X10839033Y-11643296D01*
X10839033Y-11643296D02*
X10829509Y-11652820D01*
X10829509Y-11652820D02*
X10810462Y-11662344D01*
X10810462Y-11662344D02*
X10791414Y-11662344D01*
X10791414Y-11662344D02*
X10772367Y-11652820D01*
X10772367Y-11652820D02*
X10762843Y-11643296D01*
X10762843Y-11643296D02*
X10753319Y-11624248D01*
X10753319Y-11624248D02*
X10743795Y-11586153D01*
X10743795Y-11586153D02*
X10743795Y-11538534D01*
X10743795Y-11538534D02*
X10753319Y-11500439D01*
X10753319Y-11500439D02*
X10762843Y-11481391D01*
X10762843Y-11481391D02*
X10772367Y-11471868D01*
X10772367Y-11471868D02*
X10791414Y-11462344D01*
X10943795Y-11643296D02*
X10953319Y-11652820D01*
X10953319Y-11652820D02*
X10943795Y-11662344D01*
X10943795Y-11662344D02*
X10934271Y-11652820D01*
X10934271Y-11652820D02*
X10943795Y-11643296D01*
X10943795Y-11643296D02*
X10943795Y-11662344D01*
X11077128Y-11462344D02*
X11096176Y-11462344D01*
X11096176Y-11462344D02*
X11115224Y-11471868D01*
X11115224Y-11471868D02*
X11124748Y-11481391D01*
X11124748Y-11481391D02*
X11134271Y-11500439D01*
X11134271Y-11500439D02*
X11143795Y-11538534D01*
X11143795Y-11538534D02*
X11143795Y-11586153D01*
X11143795Y-11586153D02*
X11134271Y-11624248D01*
X11134271Y-11624248D02*
X11124748Y-11643296D01*
X11124748Y-11643296D02*
X11115224Y-11652820D01*
X11115224Y-11652820D02*
X11096176Y-11662344D01*
X11096176Y-11662344D02*
X11077128Y-11662344D01*
X11077128Y-11662344D02*
X11058081Y-11652820D01*
X11058081Y-11652820D02*
X11048557Y-11643296D01*
X11048557Y-11643296D02*
X11039033Y-11624248D01*
X11039033Y-11624248D02*
X11029509Y-11586153D01*
X11029509Y-11586153D02*
X11029509Y-11538534D01*
X11029509Y-11538534D02*
X11039033Y-11500439D01*
X11039033Y-11500439D02*
X11048557Y-11481391D01*
X11048557Y-11481391D02*
X11058081Y-11471868D01*
X11058081Y-11471868D02*
X11077128Y-11462344D01*
X11267605Y-11462344D02*
X11286652Y-11462344D01*
X11286652Y-11462344D02*
X11305700Y-11471868D01*
X11305700Y-11471868D02*
X11315224Y-11481391D01*
X11315224Y-11481391D02*
X11324747Y-11500439D01*
X11324747Y-11500439D02*
X11334271Y-11538534D01*
X11334271Y-11538534D02*
X11334271Y-11586153D01*
X11334271Y-11586153D02*
X11324747Y-11624248D01*
X11324747Y-11624248D02*
X11315224Y-11643296D01*
X11315224Y-11643296D02*
X11305700Y-11652820D01*
X11305700Y-11652820D02*
X11286652Y-11662344D01*
X11286652Y-11662344D02*
X11267605Y-11662344D01*
X11267605Y-11662344D02*
X11248557Y-11652820D01*
X11248557Y-11652820D02*
X11239033Y-11643296D01*
X11239033Y-11643296D02*
X11229509Y-11624248D01*
X11229509Y-11624248D02*
X11219986Y-11586153D01*
X11219986Y-11586153D02*
X11219986Y-11538534D01*
X11219986Y-11538534D02*
X11229509Y-11500439D01*
X11229509Y-11500439D02*
X11239033Y-11481391D01*
X11239033Y-11481391D02*
X11248557Y-11471868D01*
X11248557Y-11471868D02*
X11267605Y-11462344D01*
X11400938Y-11462344D02*
X11534271Y-11462344D01*
X11534271Y-11462344D02*
X11448557Y-11662344D01*
X11619986Y-11662344D02*
X11658081Y-11662344D01*
X11658081Y-11662344D02*
X11677128Y-11652820D01*
X11677128Y-11652820D02*
X11686652Y-11643296D01*
X11686652Y-11643296D02*
X11705700Y-11614725D01*
X11705700Y-11614725D02*
X11715224Y-11576629D01*
X11715224Y-11576629D02*
X11715224Y-11500439D01*
X11715224Y-11500439D02*
X11705700Y-11481391D01*
X11705700Y-11481391D02*
X11696176Y-11471868D01*
X11696176Y-11471868D02*
X11677128Y-11462344D01*
X11677128Y-11462344D02*
X11639033Y-11462344D01*
X11639033Y-11462344D02*
X11619986Y-11471868D01*
X11619986Y-11471868D02*
X11610462Y-11481391D01*
X11610462Y-11481391D02*
X11600938Y-11500439D01*
X11600938Y-11500439D02*
X11600938Y-11548058D01*
X11600938Y-11548058D02*
X11610462Y-11567106D01*
X11610462Y-11567106D02*
X11619986Y-11576629D01*
X11619986Y-11576629D02*
X11639033Y-11586153D01*
X11639033Y-11586153D02*
X11677128Y-11586153D01*
X11677128Y-11586153D02*
X11696176Y-11576629D01*
X11696176Y-11576629D02*
X11705700Y-11567106D01*
X11705700Y-11567106D02*
X11715224Y-11548058D01*
X11791414Y-11462344D02*
X11791414Y-11500439D01*
X11867605Y-11462344D02*
X11867605Y-11500439D01*
X12162843Y-11738534D02*
X12153319Y-11729010D01*
X12153319Y-11729010D02*
X12134271Y-11700439D01*
X12134271Y-11700439D02*
X12124748Y-11681391D01*
X12124748Y-11681391D02*
X12115224Y-11652820D01*
X12115224Y-11652820D02*
X12105700Y-11605201D01*
X12105700Y-11605201D02*
X12105700Y-11567106D01*
X12105700Y-11567106D02*
X12115224Y-11519487D01*
X12115224Y-11519487D02*
X12124748Y-11490915D01*
X12124748Y-11490915D02*
X12134271Y-11471868D01*
X12134271Y-11471868D02*
X12153319Y-11443296D01*
X12153319Y-11443296D02*
X12162843Y-11433772D01*
X12219986Y-11462344D02*
X12353319Y-11462344D01*
X12353319Y-11462344D02*
X12267605Y-11662344D01*
X12534271Y-11662344D02*
X12419986Y-11662344D01*
X12477128Y-11662344D02*
X12477128Y-11462344D01*
X12477128Y-11462344D02*
X12458081Y-11490915D01*
X12458081Y-11490915D02*
X12439033Y-11509963D01*
X12439033Y-11509963D02*
X12419986Y-11519487D01*
X12772367Y-11662344D02*
X12772367Y-11462344D01*
X12858081Y-11662344D02*
X12858081Y-11557582D01*
X12858081Y-11557582D02*
X12848557Y-11538534D01*
X12848557Y-11538534D02*
X12829510Y-11529010D01*
X12829510Y-11529010D02*
X12800938Y-11529010D01*
X12800938Y-11529010D02*
X12781890Y-11538534D01*
X12781890Y-11538534D02*
X12772367Y-11548058D01*
X12981890Y-11662344D02*
X12962843Y-11652820D01*
X12962843Y-11652820D02*
X12953319Y-11643296D01*
X12953319Y-11643296D02*
X12943795Y-11624248D01*
X12943795Y-11624248D02*
X12943795Y-11567106D01*
X12943795Y-11567106D02*
X12953319Y-11548058D01*
X12953319Y-11548058D02*
X12962843Y-11538534D01*
X12962843Y-11538534D02*
X12981890Y-11529010D01*
X12981890Y-11529010D02*
X13010462Y-11529010D01*
X13010462Y-11529010D02*
X13029510Y-11538534D01*
X13029510Y-11538534D02*
X13039033Y-11548058D01*
X13039033Y-11548058D02*
X13048557Y-11567106D01*
X13048557Y-11567106D02*
X13048557Y-11624248D01*
X13048557Y-11624248D02*
X13039033Y-11643296D01*
X13039033Y-11643296D02*
X13029510Y-11652820D01*
X13029510Y-11652820D02*
X13010462Y-11662344D01*
X13010462Y-11662344D02*
X12981890Y-11662344D01*
X13162843Y-11662344D02*
X13143795Y-11652820D01*
X13143795Y-11652820D02*
X13134271Y-11633772D01*
X13134271Y-11633772D02*
X13134271Y-11462344D01*
X13315224Y-11652820D02*
X13296176Y-11662344D01*
X13296176Y-11662344D02*
X13258081Y-11662344D01*
X13258081Y-11662344D02*
X13239033Y-11652820D01*
X13239033Y-11652820D02*
X13229510Y-11633772D01*
X13229510Y-11633772D02*
X13229510Y-11557582D01*
X13229510Y-11557582D02*
X13239033Y-11538534D01*
X13239033Y-11538534D02*
X13258081Y-11529010D01*
X13258081Y-11529010D02*
X13296176Y-11529010D01*
X13296176Y-11529010D02*
X13315224Y-11538534D01*
X13315224Y-11538534D02*
X13324748Y-11557582D01*
X13324748Y-11557582D02*
X13324748Y-11576629D01*
X13324748Y-11576629D02*
X13229510Y-11595677D01*
X13400938Y-11652820D02*
X13419986Y-11662344D01*
X13419986Y-11662344D02*
X13458081Y-11662344D01*
X13458081Y-11662344D02*
X13477129Y-11652820D01*
X13477129Y-11652820D02*
X13486652Y-11633772D01*
X13486652Y-11633772D02*
X13486652Y-11624248D01*
X13486652Y-11624248D02*
X13477129Y-11605201D01*
X13477129Y-11605201D02*
X13458081Y-11595677D01*
X13458081Y-11595677D02*
X13429510Y-11595677D01*
X13429510Y-11595677D02*
X13410462Y-11586153D01*
X13410462Y-11586153D02*
X13400938Y-11567106D01*
X13400938Y-11567106D02*
X13400938Y-11557582D01*
X13400938Y-11557582D02*
X13410462Y-11538534D01*
X13410462Y-11538534D02*
X13429510Y-11529010D01*
X13429510Y-11529010D02*
X13458081Y-11529010D01*
X13458081Y-11529010D02*
X13477129Y-11538534D01*
X13553319Y-11738534D02*
X13562843Y-11729010D01*
X13562843Y-11729010D02*
X13581891Y-11700439D01*
X13581891Y-11700439D02*
X13591414Y-11681391D01*
X13591414Y-11681391D02*
X13600938Y-11652820D01*
X13600938Y-11652820D02*
X13610462Y-11605201D01*
X13610462Y-11605201D02*
X13610462Y-11567106D01*
X13610462Y-11567106D02*
X13600938Y-11519487D01*
X13600938Y-11519487D02*
X13591414Y-11490915D01*
X13591414Y-11490915D02*
X13581891Y-11471868D01*
X13581891Y-11471868D02*
X13562843Y-11443296D01*
X13562843Y-11443296D02*
X13553319Y-11433772D01*
D12*
X8587780Y-11834860D02*
G75*
G02*
X8557780Y-11834860I-15000J0D01*
G01*
X8557780Y-11834860D02*
G75*
G02*
X8587780Y-11834860I15000J0D01*
G01*
D11*
X8886652Y-11726344D02*
X8905700Y-11726344D01*
X8905700Y-11726344D02*
X8924747Y-11735868D01*
X8924747Y-11735868D02*
X8934271Y-11745391D01*
X8934271Y-11745391D02*
X8943795Y-11764439D01*
X8943795Y-11764439D02*
X8953319Y-11802534D01*
X8953319Y-11802534D02*
X8953319Y-11850153D01*
X8953319Y-11850153D02*
X8943795Y-11888248D01*
X8943795Y-11888248D02*
X8934271Y-11907296D01*
X8934271Y-11907296D02*
X8924747Y-11916820D01*
X8924747Y-11916820D02*
X8905700Y-11926344D01*
X8905700Y-11926344D02*
X8886652Y-11926344D01*
X8886652Y-11926344D02*
X8867604Y-11916820D01*
X8867604Y-11916820D02*
X8858081Y-11907296D01*
X8858081Y-11907296D02*
X8848557Y-11888248D01*
X8848557Y-11888248D02*
X8839033Y-11850153D01*
X8839033Y-11850153D02*
X8839033Y-11802534D01*
X8839033Y-11802534D02*
X8848557Y-11764439D01*
X8848557Y-11764439D02*
X8858081Y-11745391D01*
X8858081Y-11745391D02*
X8867604Y-11735868D01*
X8867604Y-11735868D02*
X8886652Y-11726344D01*
X9039033Y-11907296D02*
X9048557Y-11916820D01*
X9048557Y-11916820D02*
X9039033Y-11926344D01*
X9039033Y-11926344D02*
X9029509Y-11916820D01*
X9029509Y-11916820D02*
X9039033Y-11907296D01*
X9039033Y-11907296D02*
X9039033Y-11926344D01*
X9115224Y-11726344D02*
X9239033Y-11726344D01*
X9239033Y-11726344D02*
X9172366Y-11802534D01*
X9172366Y-11802534D02*
X9200938Y-11802534D01*
X9200938Y-11802534D02*
X9219985Y-11812058D01*
X9219985Y-11812058D02*
X9229509Y-11821582D01*
X9229509Y-11821582D02*
X9239033Y-11840629D01*
X9239033Y-11840629D02*
X9239033Y-11888248D01*
X9239033Y-11888248D02*
X9229509Y-11907296D01*
X9229509Y-11907296D02*
X9219985Y-11916820D01*
X9219985Y-11916820D02*
X9200938Y-11926344D01*
X9200938Y-11926344D02*
X9143795Y-11926344D01*
X9143795Y-11926344D02*
X9124747Y-11916820D01*
X9124747Y-11916820D02*
X9115224Y-11907296D01*
X9362843Y-11726344D02*
X9381890Y-11726344D01*
X9381890Y-11726344D02*
X9400938Y-11735868D01*
X9400938Y-11735868D02*
X9410462Y-11745391D01*
X9410462Y-11745391D02*
X9419985Y-11764439D01*
X9419985Y-11764439D02*
X9429509Y-11802534D01*
X9429509Y-11802534D02*
X9429509Y-11850153D01*
X9429509Y-11850153D02*
X9419985Y-11888248D01*
X9419985Y-11888248D02*
X9410462Y-11907296D01*
X9410462Y-11907296D02*
X9400938Y-11916820D01*
X9400938Y-11916820D02*
X9381890Y-11926344D01*
X9381890Y-11926344D02*
X9362843Y-11926344D01*
X9362843Y-11926344D02*
X9343795Y-11916820D01*
X9343795Y-11916820D02*
X9334271Y-11907296D01*
X9334271Y-11907296D02*
X9324747Y-11888248D01*
X9324747Y-11888248D02*
X9315224Y-11850153D01*
X9315224Y-11850153D02*
X9315224Y-11802534D01*
X9315224Y-11802534D02*
X9324747Y-11764439D01*
X9324747Y-11764439D02*
X9334271Y-11745391D01*
X9334271Y-11745391D02*
X9343795Y-11735868D01*
X9343795Y-11735868D02*
X9362843Y-11726344D01*
X9553319Y-11726344D02*
X9572366Y-11726344D01*
X9572366Y-11726344D02*
X9591414Y-11735868D01*
X9591414Y-11735868D02*
X9600938Y-11745391D01*
X9600938Y-11745391D02*
X9610462Y-11764439D01*
X9610462Y-11764439D02*
X9619985Y-11802534D01*
X9619985Y-11802534D02*
X9619985Y-11850153D01*
X9619985Y-11850153D02*
X9610462Y-11888248D01*
X9610462Y-11888248D02*
X9600938Y-11907296D01*
X9600938Y-11907296D02*
X9591414Y-11916820D01*
X9591414Y-11916820D02*
X9572366Y-11926344D01*
X9572366Y-11926344D02*
X9553319Y-11926344D01*
X9553319Y-11926344D02*
X9534271Y-11916820D01*
X9534271Y-11916820D02*
X9524747Y-11907296D01*
X9524747Y-11907296D02*
X9515224Y-11888248D01*
X9515224Y-11888248D02*
X9505700Y-11850153D01*
X9505700Y-11850153D02*
X9505700Y-11802534D01*
X9505700Y-11802534D02*
X9515224Y-11764439D01*
X9515224Y-11764439D02*
X9524747Y-11745391D01*
X9524747Y-11745391D02*
X9534271Y-11735868D01*
X9534271Y-11735868D02*
X9553319Y-11726344D01*
X9705700Y-11926344D02*
X9705700Y-11793010D01*
X9705700Y-11812058D02*
X9715224Y-11802534D01*
X9715224Y-11802534D02*
X9734271Y-11793010D01*
X9734271Y-11793010D02*
X9762843Y-11793010D01*
X9762843Y-11793010D02*
X9781890Y-11802534D01*
X9781890Y-11802534D02*
X9791414Y-11821582D01*
X9791414Y-11821582D02*
X9791414Y-11926344D01*
X9791414Y-11821582D02*
X9800938Y-11802534D01*
X9800938Y-11802534D02*
X9819985Y-11793010D01*
X9819985Y-11793010D02*
X9848557Y-11793010D01*
X9848557Y-11793010D02*
X9867605Y-11802534D01*
X9867605Y-11802534D02*
X9877128Y-11821582D01*
X9877128Y-11821582D02*
X9877128Y-11926344D01*
X9972366Y-11926344D02*
X9972366Y-11793010D01*
X9972366Y-11812058D02*
X9981890Y-11802534D01*
X9981890Y-11802534D02*
X10000938Y-11793010D01*
X10000938Y-11793010D02*
X10029509Y-11793010D01*
X10029509Y-11793010D02*
X10048557Y-11802534D01*
X10048557Y-11802534D02*
X10058081Y-11821582D01*
X10058081Y-11821582D02*
X10058081Y-11926344D01*
X10058081Y-11821582D02*
X10067605Y-11802534D01*
X10067605Y-11802534D02*
X10086652Y-11793010D01*
X10086652Y-11793010D02*
X10115224Y-11793010D01*
X10115224Y-11793010D02*
X10134271Y-11802534D01*
X10134271Y-11802534D02*
X10143795Y-11821582D01*
X10143795Y-11821582D02*
X10143795Y-11926344D01*
X10534271Y-11716820D02*
X10362843Y-11973963D01*
X10791414Y-11726344D02*
X10810462Y-11726344D01*
X10810462Y-11726344D02*
X10829509Y-11735868D01*
X10829509Y-11735868D02*
X10839033Y-11745391D01*
X10839033Y-11745391D02*
X10848557Y-11764439D01*
X10848557Y-11764439D02*
X10858081Y-11802534D01*
X10858081Y-11802534D02*
X10858081Y-11850153D01*
X10858081Y-11850153D02*
X10848557Y-11888248D01*
X10848557Y-11888248D02*
X10839033Y-11907296D01*
X10839033Y-11907296D02*
X10829509Y-11916820D01*
X10829509Y-11916820D02*
X10810462Y-11926344D01*
X10810462Y-11926344D02*
X10791414Y-11926344D01*
X10791414Y-11926344D02*
X10772367Y-11916820D01*
X10772367Y-11916820D02*
X10762843Y-11907296D01*
X10762843Y-11907296D02*
X10753319Y-11888248D01*
X10753319Y-11888248D02*
X10743795Y-11850153D01*
X10743795Y-11850153D02*
X10743795Y-11802534D01*
X10743795Y-11802534D02*
X10753319Y-11764439D01*
X10753319Y-11764439D02*
X10762843Y-11745391D01*
X10762843Y-11745391D02*
X10772367Y-11735868D01*
X10772367Y-11735868D02*
X10791414Y-11726344D01*
X10943795Y-11907296D02*
X10953319Y-11916820D01*
X10953319Y-11916820D02*
X10943795Y-11926344D01*
X10943795Y-11926344D02*
X10934271Y-11916820D01*
X10934271Y-11916820D02*
X10943795Y-11907296D01*
X10943795Y-11907296D02*
X10943795Y-11926344D01*
X11077128Y-11726344D02*
X11096176Y-11726344D01*
X11096176Y-11726344D02*
X11115224Y-11735868D01*
X11115224Y-11735868D02*
X11124748Y-11745391D01*
X11124748Y-11745391D02*
X11134271Y-11764439D01*
X11134271Y-11764439D02*
X11143795Y-11802534D01*
X11143795Y-11802534D02*
X11143795Y-11850153D01*
X11143795Y-11850153D02*
X11134271Y-11888248D01*
X11134271Y-11888248D02*
X11124748Y-11907296D01*
X11124748Y-11907296D02*
X11115224Y-11916820D01*
X11115224Y-11916820D02*
X11096176Y-11926344D01*
X11096176Y-11926344D02*
X11077128Y-11926344D01*
X11077128Y-11926344D02*
X11058081Y-11916820D01*
X11058081Y-11916820D02*
X11048557Y-11907296D01*
X11048557Y-11907296D02*
X11039033Y-11888248D01*
X11039033Y-11888248D02*
X11029509Y-11850153D01*
X11029509Y-11850153D02*
X11029509Y-11802534D01*
X11029509Y-11802534D02*
X11039033Y-11764439D01*
X11039033Y-11764439D02*
X11048557Y-11745391D01*
X11048557Y-11745391D02*
X11058081Y-11735868D01*
X11058081Y-11735868D02*
X11077128Y-11726344D01*
X11334271Y-11926344D02*
X11219986Y-11926344D01*
X11277128Y-11926344D02*
X11277128Y-11726344D01*
X11277128Y-11726344D02*
X11258081Y-11754915D01*
X11258081Y-11754915D02*
X11239033Y-11773963D01*
X11239033Y-11773963D02*
X11219986Y-11783487D01*
X11524747Y-11926344D02*
X11410462Y-11926344D01*
X11467605Y-11926344D02*
X11467605Y-11726344D01*
X11467605Y-11726344D02*
X11448557Y-11754915D01*
X11448557Y-11754915D02*
X11429509Y-11773963D01*
X11429509Y-11773963D02*
X11410462Y-11783487D01*
X11639033Y-11812058D02*
X11619986Y-11802534D01*
X11619986Y-11802534D02*
X11610462Y-11793010D01*
X11610462Y-11793010D02*
X11600938Y-11773963D01*
X11600938Y-11773963D02*
X11600938Y-11764439D01*
X11600938Y-11764439D02*
X11610462Y-11745391D01*
X11610462Y-11745391D02*
X11619986Y-11735868D01*
X11619986Y-11735868D02*
X11639033Y-11726344D01*
X11639033Y-11726344D02*
X11677128Y-11726344D01*
X11677128Y-11726344D02*
X11696176Y-11735868D01*
X11696176Y-11735868D02*
X11705700Y-11745391D01*
X11705700Y-11745391D02*
X11715224Y-11764439D01*
X11715224Y-11764439D02*
X11715224Y-11773963D01*
X11715224Y-11773963D02*
X11705700Y-11793010D01*
X11705700Y-11793010D02*
X11696176Y-11802534D01*
X11696176Y-11802534D02*
X11677128Y-11812058D01*
X11677128Y-11812058D02*
X11639033Y-11812058D01*
X11639033Y-11812058D02*
X11619986Y-11821582D01*
X11619986Y-11821582D02*
X11610462Y-11831106D01*
X11610462Y-11831106D02*
X11600938Y-11850153D01*
X11600938Y-11850153D02*
X11600938Y-11888248D01*
X11600938Y-11888248D02*
X11610462Y-11907296D01*
X11610462Y-11907296D02*
X11619986Y-11916820D01*
X11619986Y-11916820D02*
X11639033Y-11926344D01*
X11639033Y-11926344D02*
X11677128Y-11926344D01*
X11677128Y-11926344D02*
X11696176Y-11916820D01*
X11696176Y-11916820D02*
X11705700Y-11907296D01*
X11705700Y-11907296D02*
X11715224Y-11888248D01*
X11715224Y-11888248D02*
X11715224Y-11850153D01*
X11715224Y-11850153D02*
X11705700Y-11831106D01*
X11705700Y-11831106D02*
X11696176Y-11821582D01*
X11696176Y-11821582D02*
X11677128Y-11812058D01*
X11791414Y-11726344D02*
X11791414Y-11764439D01*
X11867605Y-11726344D02*
X11867605Y-11764439D01*
X12162843Y-12002534D02*
X12153319Y-11993010D01*
X12153319Y-11993010D02*
X12134271Y-11964439D01*
X12134271Y-11964439D02*
X12124748Y-11945391D01*
X12124748Y-11945391D02*
X12115224Y-11916820D01*
X12115224Y-11916820D02*
X12105700Y-11869201D01*
X12105700Y-11869201D02*
X12105700Y-11831106D01*
X12105700Y-11831106D02*
X12115224Y-11783487D01*
X12115224Y-11783487D02*
X12124748Y-11754915D01*
X12124748Y-11754915D02*
X12134271Y-11735868D01*
X12134271Y-11735868D02*
X12153319Y-11707296D01*
X12153319Y-11707296D02*
X12162843Y-11697772D01*
X12334271Y-11726344D02*
X12239033Y-11726344D01*
X12239033Y-11726344D02*
X12229509Y-11821582D01*
X12229509Y-11821582D02*
X12239033Y-11812058D01*
X12239033Y-11812058D02*
X12258081Y-11802534D01*
X12258081Y-11802534D02*
X12305700Y-11802534D01*
X12305700Y-11802534D02*
X12324748Y-11812058D01*
X12324748Y-11812058D02*
X12334271Y-11821582D01*
X12334271Y-11821582D02*
X12343795Y-11840629D01*
X12343795Y-11840629D02*
X12343795Y-11888248D01*
X12343795Y-11888248D02*
X12334271Y-11907296D01*
X12334271Y-11907296D02*
X12324748Y-11916820D01*
X12324748Y-11916820D02*
X12305700Y-11926344D01*
X12305700Y-11926344D02*
X12258081Y-11926344D01*
X12258081Y-11926344D02*
X12239033Y-11916820D01*
X12239033Y-11916820D02*
X12229509Y-11907296D01*
X12581890Y-11926344D02*
X12581890Y-11726344D01*
X12667605Y-11926344D02*
X12667605Y-11821582D01*
X12667605Y-11821582D02*
X12658081Y-11802534D01*
X12658081Y-11802534D02*
X12639033Y-11793010D01*
X12639033Y-11793010D02*
X12610462Y-11793010D01*
X12610462Y-11793010D02*
X12591414Y-11802534D01*
X12591414Y-11802534D02*
X12581890Y-11812058D01*
X12791414Y-11926344D02*
X12772367Y-11916820D01*
X12772367Y-11916820D02*
X12762843Y-11907296D01*
X12762843Y-11907296D02*
X12753319Y-11888248D01*
X12753319Y-11888248D02*
X12753319Y-11831106D01*
X12753319Y-11831106D02*
X12762843Y-11812058D01*
X12762843Y-11812058D02*
X12772367Y-11802534D01*
X12772367Y-11802534D02*
X12791414Y-11793010D01*
X12791414Y-11793010D02*
X12819986Y-11793010D01*
X12819986Y-11793010D02*
X12839033Y-11802534D01*
X12839033Y-11802534D02*
X12848557Y-11812058D01*
X12848557Y-11812058D02*
X12858081Y-11831106D01*
X12858081Y-11831106D02*
X12858081Y-11888248D01*
X12858081Y-11888248D02*
X12848557Y-11907296D01*
X12848557Y-11907296D02*
X12839033Y-11916820D01*
X12839033Y-11916820D02*
X12819986Y-11926344D01*
X12819986Y-11926344D02*
X12791414Y-11926344D01*
X12972367Y-11926344D02*
X12953319Y-11916820D01*
X12953319Y-11916820D02*
X12943795Y-11897772D01*
X12943795Y-11897772D02*
X12943795Y-11726344D01*
X13124748Y-11916820D02*
X13105700Y-11926344D01*
X13105700Y-11926344D02*
X13067605Y-11926344D01*
X13067605Y-11926344D02*
X13048557Y-11916820D01*
X13048557Y-11916820D02*
X13039033Y-11897772D01*
X13039033Y-11897772D02*
X13039033Y-11821582D01*
X13039033Y-11821582D02*
X13048557Y-11802534D01*
X13048557Y-11802534D02*
X13067605Y-11793010D01*
X13067605Y-11793010D02*
X13105700Y-11793010D01*
X13105700Y-11793010D02*
X13124748Y-11802534D01*
X13124748Y-11802534D02*
X13134271Y-11821582D01*
X13134271Y-11821582D02*
X13134271Y-11840629D01*
X13134271Y-11840629D02*
X13039033Y-11859677D01*
X13210462Y-11916820D02*
X13229510Y-11926344D01*
X13229510Y-11926344D02*
X13267605Y-11926344D01*
X13267605Y-11926344D02*
X13286652Y-11916820D01*
X13286652Y-11916820D02*
X13296176Y-11897772D01*
X13296176Y-11897772D02*
X13296176Y-11888248D01*
X13296176Y-11888248D02*
X13286652Y-11869201D01*
X13286652Y-11869201D02*
X13267605Y-11859677D01*
X13267605Y-11859677D02*
X13239033Y-11859677D01*
X13239033Y-11859677D02*
X13219986Y-11850153D01*
X13219986Y-11850153D02*
X13210462Y-11831106D01*
X13210462Y-11831106D02*
X13210462Y-11821582D01*
X13210462Y-11821582D02*
X13219986Y-11802534D01*
X13219986Y-11802534D02*
X13239033Y-11793010D01*
X13239033Y-11793010D02*
X13267605Y-11793010D01*
X13267605Y-11793010D02*
X13286652Y-11802534D01*
X13362843Y-12002534D02*
X13372367Y-11993010D01*
X13372367Y-11993010D02*
X13391414Y-11964439D01*
X13391414Y-11964439D02*
X13400938Y-11945391D01*
X13400938Y-11945391D02*
X13410462Y-11916820D01*
X13410462Y-11916820D02*
X13419986Y-11869201D01*
X13419986Y-11869201D02*
X13419986Y-11831106D01*
X13419986Y-11831106D02*
X13410462Y-11783487D01*
X13410462Y-11783487D02*
X13400938Y-11754915D01*
X13400938Y-11754915D02*
X13391414Y-11735868D01*
X13391414Y-11735868D02*
X13372367Y-11707296D01*
X13372367Y-11707296D02*
X13362843Y-11697772D01*
D12*
X8547780Y-12058860D02*
X8547780Y-12138860D01*
X8507780Y-12098860D02*
X8587780Y-12098860D01*
D11*
X8886652Y-11990344D02*
X8905700Y-11990344D01*
X8905700Y-11990344D02*
X8924747Y-11999868D01*
X8924747Y-11999868D02*
X8934271Y-12009391D01*
X8934271Y-12009391D02*
X8943795Y-12028439D01*
X8943795Y-12028439D02*
X8953319Y-12066534D01*
X8953319Y-12066534D02*
X8953319Y-12114153D01*
X8953319Y-12114153D02*
X8943795Y-12152248D01*
X8943795Y-12152248D02*
X8934271Y-12171296D01*
X8934271Y-12171296D02*
X8924747Y-12180820D01*
X8924747Y-12180820D02*
X8905700Y-12190344D01*
X8905700Y-12190344D02*
X8886652Y-12190344D01*
X8886652Y-12190344D02*
X8867604Y-12180820D01*
X8867604Y-12180820D02*
X8858081Y-12171296D01*
X8858081Y-12171296D02*
X8848557Y-12152248D01*
X8848557Y-12152248D02*
X8839033Y-12114153D01*
X8839033Y-12114153D02*
X8839033Y-12066534D01*
X8839033Y-12066534D02*
X8848557Y-12028439D01*
X8848557Y-12028439D02*
X8858081Y-12009391D01*
X8858081Y-12009391D02*
X8867604Y-11999868D01*
X8867604Y-11999868D02*
X8886652Y-11990344D01*
X9039033Y-12171296D02*
X9048557Y-12180820D01*
X9048557Y-12180820D02*
X9039033Y-12190344D01*
X9039033Y-12190344D02*
X9029509Y-12180820D01*
X9029509Y-12180820D02*
X9039033Y-12171296D01*
X9039033Y-12171296D02*
X9039033Y-12190344D01*
X9162843Y-12076058D02*
X9143795Y-12066534D01*
X9143795Y-12066534D02*
X9134271Y-12057010D01*
X9134271Y-12057010D02*
X9124747Y-12037963D01*
X9124747Y-12037963D02*
X9124747Y-12028439D01*
X9124747Y-12028439D02*
X9134271Y-12009391D01*
X9134271Y-12009391D02*
X9143795Y-11999868D01*
X9143795Y-11999868D02*
X9162843Y-11990344D01*
X9162843Y-11990344D02*
X9200938Y-11990344D01*
X9200938Y-11990344D02*
X9219985Y-11999868D01*
X9219985Y-11999868D02*
X9229509Y-12009391D01*
X9229509Y-12009391D02*
X9239033Y-12028439D01*
X9239033Y-12028439D02*
X9239033Y-12037963D01*
X9239033Y-12037963D02*
X9229509Y-12057010D01*
X9229509Y-12057010D02*
X9219985Y-12066534D01*
X9219985Y-12066534D02*
X9200938Y-12076058D01*
X9200938Y-12076058D02*
X9162843Y-12076058D01*
X9162843Y-12076058D02*
X9143795Y-12085582D01*
X9143795Y-12085582D02*
X9134271Y-12095106D01*
X9134271Y-12095106D02*
X9124747Y-12114153D01*
X9124747Y-12114153D02*
X9124747Y-12152248D01*
X9124747Y-12152248D02*
X9134271Y-12171296D01*
X9134271Y-12171296D02*
X9143795Y-12180820D01*
X9143795Y-12180820D02*
X9162843Y-12190344D01*
X9162843Y-12190344D02*
X9200938Y-12190344D01*
X9200938Y-12190344D02*
X9219985Y-12180820D01*
X9219985Y-12180820D02*
X9229509Y-12171296D01*
X9229509Y-12171296D02*
X9239033Y-12152248D01*
X9239033Y-12152248D02*
X9239033Y-12114153D01*
X9239033Y-12114153D02*
X9229509Y-12095106D01*
X9229509Y-12095106D02*
X9219985Y-12085582D01*
X9219985Y-12085582D02*
X9200938Y-12076058D01*
X9362843Y-11990344D02*
X9381890Y-11990344D01*
X9381890Y-11990344D02*
X9400938Y-11999868D01*
X9400938Y-11999868D02*
X9410462Y-12009391D01*
X9410462Y-12009391D02*
X9419985Y-12028439D01*
X9419985Y-12028439D02*
X9429509Y-12066534D01*
X9429509Y-12066534D02*
X9429509Y-12114153D01*
X9429509Y-12114153D02*
X9419985Y-12152248D01*
X9419985Y-12152248D02*
X9410462Y-12171296D01*
X9410462Y-12171296D02*
X9400938Y-12180820D01*
X9400938Y-12180820D02*
X9381890Y-12190344D01*
X9381890Y-12190344D02*
X9362843Y-12190344D01*
X9362843Y-12190344D02*
X9343795Y-12180820D01*
X9343795Y-12180820D02*
X9334271Y-12171296D01*
X9334271Y-12171296D02*
X9324747Y-12152248D01*
X9324747Y-12152248D02*
X9315224Y-12114153D01*
X9315224Y-12114153D02*
X9315224Y-12066534D01*
X9315224Y-12066534D02*
X9324747Y-12028439D01*
X9324747Y-12028439D02*
X9334271Y-12009391D01*
X9334271Y-12009391D02*
X9343795Y-11999868D01*
X9343795Y-11999868D02*
X9362843Y-11990344D01*
X9553319Y-11990344D02*
X9572366Y-11990344D01*
X9572366Y-11990344D02*
X9591414Y-11999868D01*
X9591414Y-11999868D02*
X9600938Y-12009391D01*
X9600938Y-12009391D02*
X9610462Y-12028439D01*
X9610462Y-12028439D02*
X9619985Y-12066534D01*
X9619985Y-12066534D02*
X9619985Y-12114153D01*
X9619985Y-12114153D02*
X9610462Y-12152248D01*
X9610462Y-12152248D02*
X9600938Y-12171296D01*
X9600938Y-12171296D02*
X9591414Y-12180820D01*
X9591414Y-12180820D02*
X9572366Y-12190344D01*
X9572366Y-12190344D02*
X9553319Y-12190344D01*
X9553319Y-12190344D02*
X9534271Y-12180820D01*
X9534271Y-12180820D02*
X9524747Y-12171296D01*
X9524747Y-12171296D02*
X9515224Y-12152248D01*
X9515224Y-12152248D02*
X9505700Y-12114153D01*
X9505700Y-12114153D02*
X9505700Y-12066534D01*
X9505700Y-12066534D02*
X9515224Y-12028439D01*
X9515224Y-12028439D02*
X9524747Y-12009391D01*
X9524747Y-12009391D02*
X9534271Y-11999868D01*
X9534271Y-11999868D02*
X9553319Y-11990344D01*
X9705700Y-12190344D02*
X9705700Y-12057010D01*
X9705700Y-12076058D02*
X9715224Y-12066534D01*
X9715224Y-12066534D02*
X9734271Y-12057010D01*
X9734271Y-12057010D02*
X9762843Y-12057010D01*
X9762843Y-12057010D02*
X9781890Y-12066534D01*
X9781890Y-12066534D02*
X9791414Y-12085582D01*
X9791414Y-12085582D02*
X9791414Y-12190344D01*
X9791414Y-12085582D02*
X9800938Y-12066534D01*
X9800938Y-12066534D02*
X9819985Y-12057010D01*
X9819985Y-12057010D02*
X9848557Y-12057010D01*
X9848557Y-12057010D02*
X9867605Y-12066534D01*
X9867605Y-12066534D02*
X9877128Y-12085582D01*
X9877128Y-12085582D02*
X9877128Y-12190344D01*
X9972366Y-12190344D02*
X9972366Y-12057010D01*
X9972366Y-12076058D02*
X9981890Y-12066534D01*
X9981890Y-12066534D02*
X10000938Y-12057010D01*
X10000938Y-12057010D02*
X10029509Y-12057010D01*
X10029509Y-12057010D02*
X10048557Y-12066534D01*
X10048557Y-12066534D02*
X10058081Y-12085582D01*
X10058081Y-12085582D02*
X10058081Y-12190344D01*
X10058081Y-12085582D02*
X10067605Y-12066534D01*
X10067605Y-12066534D02*
X10086652Y-12057010D01*
X10086652Y-12057010D02*
X10115224Y-12057010D01*
X10115224Y-12057010D02*
X10134271Y-12066534D01*
X10134271Y-12066534D02*
X10143795Y-12085582D01*
X10143795Y-12085582D02*
X10143795Y-12190344D01*
X10534271Y-11980820D02*
X10362843Y-12237963D01*
X10791414Y-11990344D02*
X10810462Y-11990344D01*
X10810462Y-11990344D02*
X10829509Y-11999868D01*
X10829509Y-11999868D02*
X10839033Y-12009391D01*
X10839033Y-12009391D02*
X10848557Y-12028439D01*
X10848557Y-12028439D02*
X10858081Y-12066534D01*
X10858081Y-12066534D02*
X10858081Y-12114153D01*
X10858081Y-12114153D02*
X10848557Y-12152248D01*
X10848557Y-12152248D02*
X10839033Y-12171296D01*
X10839033Y-12171296D02*
X10829509Y-12180820D01*
X10829509Y-12180820D02*
X10810462Y-12190344D01*
X10810462Y-12190344D02*
X10791414Y-12190344D01*
X10791414Y-12190344D02*
X10772367Y-12180820D01*
X10772367Y-12180820D02*
X10762843Y-12171296D01*
X10762843Y-12171296D02*
X10753319Y-12152248D01*
X10753319Y-12152248D02*
X10743795Y-12114153D01*
X10743795Y-12114153D02*
X10743795Y-12066534D01*
X10743795Y-12066534D02*
X10753319Y-12028439D01*
X10753319Y-12028439D02*
X10762843Y-12009391D01*
X10762843Y-12009391D02*
X10772367Y-11999868D01*
X10772367Y-11999868D02*
X10791414Y-11990344D01*
X10943795Y-12171296D02*
X10953319Y-12180820D01*
X10953319Y-12180820D02*
X10943795Y-12190344D01*
X10943795Y-12190344D02*
X10934271Y-12180820D01*
X10934271Y-12180820D02*
X10943795Y-12171296D01*
X10943795Y-12171296D02*
X10943795Y-12190344D01*
X11077128Y-11990344D02*
X11096176Y-11990344D01*
X11096176Y-11990344D02*
X11115224Y-11999868D01*
X11115224Y-11999868D02*
X11124748Y-12009391D01*
X11124748Y-12009391D02*
X11134271Y-12028439D01*
X11134271Y-12028439D02*
X11143795Y-12066534D01*
X11143795Y-12066534D02*
X11143795Y-12114153D01*
X11143795Y-12114153D02*
X11134271Y-12152248D01*
X11134271Y-12152248D02*
X11124748Y-12171296D01*
X11124748Y-12171296D02*
X11115224Y-12180820D01*
X11115224Y-12180820D02*
X11096176Y-12190344D01*
X11096176Y-12190344D02*
X11077128Y-12190344D01*
X11077128Y-12190344D02*
X11058081Y-12180820D01*
X11058081Y-12180820D02*
X11048557Y-12171296D01*
X11048557Y-12171296D02*
X11039033Y-12152248D01*
X11039033Y-12152248D02*
X11029509Y-12114153D01*
X11029509Y-12114153D02*
X11029509Y-12066534D01*
X11029509Y-12066534D02*
X11039033Y-12028439D01*
X11039033Y-12028439D02*
X11048557Y-12009391D01*
X11048557Y-12009391D02*
X11058081Y-11999868D01*
X11058081Y-11999868D02*
X11077128Y-11990344D01*
X11210462Y-11990344D02*
X11334271Y-11990344D01*
X11334271Y-11990344D02*
X11267605Y-12066534D01*
X11267605Y-12066534D02*
X11296176Y-12066534D01*
X11296176Y-12066534D02*
X11315224Y-12076058D01*
X11315224Y-12076058D02*
X11324747Y-12085582D01*
X11324747Y-12085582D02*
X11334271Y-12104629D01*
X11334271Y-12104629D02*
X11334271Y-12152248D01*
X11334271Y-12152248D02*
X11324747Y-12171296D01*
X11324747Y-12171296D02*
X11315224Y-12180820D01*
X11315224Y-12180820D02*
X11296176Y-12190344D01*
X11296176Y-12190344D02*
X11239033Y-12190344D01*
X11239033Y-12190344D02*
X11219986Y-12180820D01*
X11219986Y-12180820D02*
X11210462Y-12171296D01*
X11524747Y-12190344D02*
X11410462Y-12190344D01*
X11467605Y-12190344D02*
X11467605Y-11990344D01*
X11467605Y-11990344D02*
X11448557Y-12018915D01*
X11448557Y-12018915D02*
X11429509Y-12037963D01*
X11429509Y-12037963D02*
X11410462Y-12047487D01*
X11705700Y-11990344D02*
X11610462Y-11990344D01*
X11610462Y-11990344D02*
X11600938Y-12085582D01*
X11600938Y-12085582D02*
X11610462Y-12076058D01*
X11610462Y-12076058D02*
X11629509Y-12066534D01*
X11629509Y-12066534D02*
X11677128Y-12066534D01*
X11677128Y-12066534D02*
X11696176Y-12076058D01*
X11696176Y-12076058D02*
X11705700Y-12085582D01*
X11705700Y-12085582D02*
X11715224Y-12104629D01*
X11715224Y-12104629D02*
X11715224Y-12152248D01*
X11715224Y-12152248D02*
X11705700Y-12171296D01*
X11705700Y-12171296D02*
X11696176Y-12180820D01*
X11696176Y-12180820D02*
X11677128Y-12190344D01*
X11677128Y-12190344D02*
X11629509Y-12190344D01*
X11629509Y-12190344D02*
X11610462Y-12180820D01*
X11610462Y-12180820D02*
X11600938Y-12171296D01*
X11791414Y-11990344D02*
X11791414Y-12028439D01*
X11867605Y-11990344D02*
X11867605Y-12028439D01*
X12162843Y-12266534D02*
X12153319Y-12257010D01*
X12153319Y-12257010D02*
X12134271Y-12228439D01*
X12134271Y-12228439D02*
X12124748Y-12209391D01*
X12124748Y-12209391D02*
X12115224Y-12180820D01*
X12115224Y-12180820D02*
X12105700Y-12133201D01*
X12105700Y-12133201D02*
X12105700Y-12095106D01*
X12105700Y-12095106D02*
X12115224Y-12047487D01*
X12115224Y-12047487D02*
X12124748Y-12018915D01*
X12124748Y-12018915D02*
X12134271Y-11999868D01*
X12134271Y-11999868D02*
X12153319Y-11971296D01*
X12153319Y-11971296D02*
X12162843Y-11961772D01*
X12324748Y-12057010D02*
X12324748Y-12190344D01*
X12277128Y-11980820D02*
X12229509Y-12123677D01*
X12229509Y-12123677D02*
X12353319Y-12123677D01*
X12467605Y-11990344D02*
X12486652Y-11990344D01*
X12486652Y-11990344D02*
X12505700Y-11999868D01*
X12505700Y-11999868D02*
X12515224Y-12009391D01*
X12515224Y-12009391D02*
X12524748Y-12028439D01*
X12524748Y-12028439D02*
X12534271Y-12066534D01*
X12534271Y-12066534D02*
X12534271Y-12114153D01*
X12534271Y-12114153D02*
X12524748Y-12152248D01*
X12524748Y-12152248D02*
X12515224Y-12171296D01*
X12515224Y-12171296D02*
X12505700Y-12180820D01*
X12505700Y-12180820D02*
X12486652Y-12190344D01*
X12486652Y-12190344D02*
X12467605Y-12190344D01*
X12467605Y-12190344D02*
X12448557Y-12180820D01*
X12448557Y-12180820D02*
X12439033Y-12171296D01*
X12439033Y-12171296D02*
X12429509Y-12152248D01*
X12429509Y-12152248D02*
X12419986Y-12114153D01*
X12419986Y-12114153D02*
X12419986Y-12066534D01*
X12419986Y-12066534D02*
X12429509Y-12028439D01*
X12429509Y-12028439D02*
X12439033Y-12009391D01*
X12439033Y-12009391D02*
X12448557Y-11999868D01*
X12448557Y-11999868D02*
X12467605Y-11990344D01*
X12772367Y-12190344D02*
X12772367Y-11990344D01*
X12858081Y-12190344D02*
X12858081Y-12085582D01*
X12858081Y-12085582D02*
X12848557Y-12066534D01*
X12848557Y-12066534D02*
X12829510Y-12057010D01*
X12829510Y-12057010D02*
X12800938Y-12057010D01*
X12800938Y-12057010D02*
X12781890Y-12066534D01*
X12781890Y-12066534D02*
X12772367Y-12076058D01*
X12981890Y-12190344D02*
X12962843Y-12180820D01*
X12962843Y-12180820D02*
X12953319Y-12171296D01*
X12953319Y-12171296D02*
X12943795Y-12152248D01*
X12943795Y-12152248D02*
X12943795Y-12095106D01*
X12943795Y-12095106D02*
X12953319Y-12076058D01*
X12953319Y-12076058D02*
X12962843Y-12066534D01*
X12962843Y-12066534D02*
X12981890Y-12057010D01*
X12981890Y-12057010D02*
X13010462Y-12057010D01*
X13010462Y-12057010D02*
X13029510Y-12066534D01*
X13029510Y-12066534D02*
X13039033Y-12076058D01*
X13039033Y-12076058D02*
X13048557Y-12095106D01*
X13048557Y-12095106D02*
X13048557Y-12152248D01*
X13048557Y-12152248D02*
X13039033Y-12171296D01*
X13039033Y-12171296D02*
X13029510Y-12180820D01*
X13029510Y-12180820D02*
X13010462Y-12190344D01*
X13010462Y-12190344D02*
X12981890Y-12190344D01*
X13162843Y-12190344D02*
X13143795Y-12180820D01*
X13143795Y-12180820D02*
X13134271Y-12161772D01*
X13134271Y-12161772D02*
X13134271Y-11990344D01*
X13315224Y-12180820D02*
X13296176Y-12190344D01*
X13296176Y-12190344D02*
X13258081Y-12190344D01*
X13258081Y-12190344D02*
X13239033Y-12180820D01*
X13239033Y-12180820D02*
X13229510Y-12161772D01*
X13229510Y-12161772D02*
X13229510Y-12085582D01*
X13229510Y-12085582D02*
X13239033Y-12066534D01*
X13239033Y-12066534D02*
X13258081Y-12057010D01*
X13258081Y-12057010D02*
X13296176Y-12057010D01*
X13296176Y-12057010D02*
X13315224Y-12066534D01*
X13315224Y-12066534D02*
X13324748Y-12085582D01*
X13324748Y-12085582D02*
X13324748Y-12104629D01*
X13324748Y-12104629D02*
X13229510Y-12123677D01*
X13400938Y-12180820D02*
X13419986Y-12190344D01*
X13419986Y-12190344D02*
X13458081Y-12190344D01*
X13458081Y-12190344D02*
X13477129Y-12180820D01*
X13477129Y-12180820D02*
X13486652Y-12161772D01*
X13486652Y-12161772D02*
X13486652Y-12152248D01*
X13486652Y-12152248D02*
X13477129Y-12133201D01*
X13477129Y-12133201D02*
X13458081Y-12123677D01*
X13458081Y-12123677D02*
X13429510Y-12123677D01*
X13429510Y-12123677D02*
X13410462Y-12114153D01*
X13410462Y-12114153D02*
X13400938Y-12095106D01*
X13400938Y-12095106D02*
X13400938Y-12085582D01*
X13400938Y-12085582D02*
X13410462Y-12066534D01*
X13410462Y-12066534D02*
X13429510Y-12057010D01*
X13429510Y-12057010D02*
X13458081Y-12057010D01*
X13458081Y-12057010D02*
X13477129Y-12066534D01*
X13553319Y-12266534D02*
X13562843Y-12257010D01*
X13562843Y-12257010D02*
X13581891Y-12228439D01*
X13581891Y-12228439D02*
X13591414Y-12209391D01*
X13591414Y-12209391D02*
X13600938Y-12180820D01*
X13600938Y-12180820D02*
X13610462Y-12133201D01*
X13610462Y-12133201D02*
X13610462Y-12095106D01*
X13610462Y-12095106D02*
X13600938Y-12047487D01*
X13600938Y-12047487D02*
X13591414Y-12018915D01*
X13591414Y-12018915D02*
X13581891Y-11999868D01*
X13581891Y-11999868D02*
X13562843Y-11971296D01*
X13562843Y-11971296D02*
X13553319Y-11961772D01*
D12*
X8573136Y-12398216D02*
X8573136Y-12327504D01*
X8502424Y-12327504D01*
X8502424Y-12398216D01*
X8573136Y-12398216D01*
D11*
X8953319Y-12454344D02*
X8839033Y-12454344D01*
X8896176Y-12454344D02*
X8896176Y-12254344D01*
X8896176Y-12254344D02*
X8877128Y-12282915D01*
X8877128Y-12282915D02*
X8858081Y-12301963D01*
X8858081Y-12301963D02*
X8839033Y-12311487D01*
X9039033Y-12435296D02*
X9048557Y-12444820D01*
X9048557Y-12444820D02*
X9039033Y-12454344D01*
X9039033Y-12454344D02*
X9029509Y-12444820D01*
X9029509Y-12444820D02*
X9039033Y-12435296D01*
X9039033Y-12435296D02*
X9039033Y-12454344D01*
X9172366Y-12254344D02*
X9191414Y-12254344D01*
X9191414Y-12254344D02*
X9210462Y-12263868D01*
X9210462Y-12263868D02*
X9219985Y-12273391D01*
X9219985Y-12273391D02*
X9229509Y-12292439D01*
X9229509Y-12292439D02*
X9239033Y-12330534D01*
X9239033Y-12330534D02*
X9239033Y-12378153D01*
X9239033Y-12378153D02*
X9229509Y-12416248D01*
X9229509Y-12416248D02*
X9219985Y-12435296D01*
X9219985Y-12435296D02*
X9210462Y-12444820D01*
X9210462Y-12444820D02*
X9191414Y-12454344D01*
X9191414Y-12454344D02*
X9172366Y-12454344D01*
X9172366Y-12454344D02*
X9153319Y-12444820D01*
X9153319Y-12444820D02*
X9143795Y-12435296D01*
X9143795Y-12435296D02*
X9134271Y-12416248D01*
X9134271Y-12416248D02*
X9124747Y-12378153D01*
X9124747Y-12378153D02*
X9124747Y-12330534D01*
X9124747Y-12330534D02*
X9134271Y-12292439D01*
X9134271Y-12292439D02*
X9143795Y-12273391D01*
X9143795Y-12273391D02*
X9153319Y-12263868D01*
X9153319Y-12263868D02*
X9172366Y-12254344D01*
X9362843Y-12254344D02*
X9381890Y-12254344D01*
X9381890Y-12254344D02*
X9400938Y-12263868D01*
X9400938Y-12263868D02*
X9410462Y-12273391D01*
X9410462Y-12273391D02*
X9419985Y-12292439D01*
X9419985Y-12292439D02*
X9429509Y-12330534D01*
X9429509Y-12330534D02*
X9429509Y-12378153D01*
X9429509Y-12378153D02*
X9419985Y-12416248D01*
X9419985Y-12416248D02*
X9410462Y-12435296D01*
X9410462Y-12435296D02*
X9400938Y-12444820D01*
X9400938Y-12444820D02*
X9381890Y-12454344D01*
X9381890Y-12454344D02*
X9362843Y-12454344D01*
X9362843Y-12454344D02*
X9343795Y-12444820D01*
X9343795Y-12444820D02*
X9334271Y-12435296D01*
X9334271Y-12435296D02*
X9324747Y-12416248D01*
X9324747Y-12416248D02*
X9315224Y-12378153D01*
X9315224Y-12378153D02*
X9315224Y-12330534D01*
X9315224Y-12330534D02*
X9324747Y-12292439D01*
X9324747Y-12292439D02*
X9334271Y-12273391D01*
X9334271Y-12273391D02*
X9343795Y-12263868D01*
X9343795Y-12263868D02*
X9362843Y-12254344D01*
X9553319Y-12254344D02*
X9572366Y-12254344D01*
X9572366Y-12254344D02*
X9591414Y-12263868D01*
X9591414Y-12263868D02*
X9600938Y-12273391D01*
X9600938Y-12273391D02*
X9610462Y-12292439D01*
X9610462Y-12292439D02*
X9619985Y-12330534D01*
X9619985Y-12330534D02*
X9619985Y-12378153D01*
X9619985Y-12378153D02*
X9610462Y-12416248D01*
X9610462Y-12416248D02*
X9600938Y-12435296D01*
X9600938Y-12435296D02*
X9591414Y-12444820D01*
X9591414Y-12444820D02*
X9572366Y-12454344D01*
X9572366Y-12454344D02*
X9553319Y-12454344D01*
X9553319Y-12454344D02*
X9534271Y-12444820D01*
X9534271Y-12444820D02*
X9524747Y-12435296D01*
X9524747Y-12435296D02*
X9515224Y-12416248D01*
X9515224Y-12416248D02*
X9505700Y-12378153D01*
X9505700Y-12378153D02*
X9505700Y-12330534D01*
X9505700Y-12330534D02*
X9515224Y-12292439D01*
X9515224Y-12292439D02*
X9524747Y-12273391D01*
X9524747Y-12273391D02*
X9534271Y-12263868D01*
X9534271Y-12263868D02*
X9553319Y-12254344D01*
X9705700Y-12454344D02*
X9705700Y-12321010D01*
X9705700Y-12340058D02*
X9715224Y-12330534D01*
X9715224Y-12330534D02*
X9734271Y-12321010D01*
X9734271Y-12321010D02*
X9762843Y-12321010D01*
X9762843Y-12321010D02*
X9781890Y-12330534D01*
X9781890Y-12330534D02*
X9791414Y-12349582D01*
X9791414Y-12349582D02*
X9791414Y-12454344D01*
X9791414Y-12349582D02*
X9800938Y-12330534D01*
X9800938Y-12330534D02*
X9819985Y-12321010D01*
X9819985Y-12321010D02*
X9848557Y-12321010D01*
X9848557Y-12321010D02*
X9867605Y-12330534D01*
X9867605Y-12330534D02*
X9877128Y-12349582D01*
X9877128Y-12349582D02*
X9877128Y-12454344D01*
X9972366Y-12454344D02*
X9972366Y-12321010D01*
X9972366Y-12340058D02*
X9981890Y-12330534D01*
X9981890Y-12330534D02*
X10000938Y-12321010D01*
X10000938Y-12321010D02*
X10029509Y-12321010D01*
X10029509Y-12321010D02*
X10048557Y-12330534D01*
X10048557Y-12330534D02*
X10058081Y-12349582D01*
X10058081Y-12349582D02*
X10058081Y-12454344D01*
X10058081Y-12349582D02*
X10067605Y-12330534D01*
X10067605Y-12330534D02*
X10086652Y-12321010D01*
X10086652Y-12321010D02*
X10115224Y-12321010D01*
X10115224Y-12321010D02*
X10134271Y-12330534D01*
X10134271Y-12330534D02*
X10143795Y-12349582D01*
X10143795Y-12349582D02*
X10143795Y-12454344D01*
X10534271Y-12244820D02*
X10362843Y-12501963D01*
X10791414Y-12254344D02*
X10810462Y-12254344D01*
X10810462Y-12254344D02*
X10829509Y-12263868D01*
X10829509Y-12263868D02*
X10839033Y-12273391D01*
X10839033Y-12273391D02*
X10848557Y-12292439D01*
X10848557Y-12292439D02*
X10858081Y-12330534D01*
X10858081Y-12330534D02*
X10858081Y-12378153D01*
X10858081Y-12378153D02*
X10848557Y-12416248D01*
X10848557Y-12416248D02*
X10839033Y-12435296D01*
X10839033Y-12435296D02*
X10829509Y-12444820D01*
X10829509Y-12444820D02*
X10810462Y-12454344D01*
X10810462Y-12454344D02*
X10791414Y-12454344D01*
X10791414Y-12454344D02*
X10772367Y-12444820D01*
X10772367Y-12444820D02*
X10762843Y-12435296D01*
X10762843Y-12435296D02*
X10753319Y-12416248D01*
X10753319Y-12416248D02*
X10743795Y-12378153D01*
X10743795Y-12378153D02*
X10743795Y-12330534D01*
X10743795Y-12330534D02*
X10753319Y-12292439D01*
X10753319Y-12292439D02*
X10762843Y-12273391D01*
X10762843Y-12273391D02*
X10772367Y-12263868D01*
X10772367Y-12263868D02*
X10791414Y-12254344D01*
X10943795Y-12435296D02*
X10953319Y-12444820D01*
X10953319Y-12444820D02*
X10943795Y-12454344D01*
X10943795Y-12454344D02*
X10934271Y-12444820D01*
X10934271Y-12444820D02*
X10943795Y-12435296D01*
X10943795Y-12435296D02*
X10943795Y-12454344D01*
X11077128Y-12254344D02*
X11096176Y-12254344D01*
X11096176Y-12254344D02*
X11115224Y-12263868D01*
X11115224Y-12263868D02*
X11124748Y-12273391D01*
X11124748Y-12273391D02*
X11134271Y-12292439D01*
X11134271Y-12292439D02*
X11143795Y-12330534D01*
X11143795Y-12330534D02*
X11143795Y-12378153D01*
X11143795Y-12378153D02*
X11134271Y-12416248D01*
X11134271Y-12416248D02*
X11124748Y-12435296D01*
X11124748Y-12435296D02*
X11115224Y-12444820D01*
X11115224Y-12444820D02*
X11096176Y-12454344D01*
X11096176Y-12454344D02*
X11077128Y-12454344D01*
X11077128Y-12454344D02*
X11058081Y-12444820D01*
X11058081Y-12444820D02*
X11048557Y-12435296D01*
X11048557Y-12435296D02*
X11039033Y-12416248D01*
X11039033Y-12416248D02*
X11029509Y-12378153D01*
X11029509Y-12378153D02*
X11029509Y-12330534D01*
X11029509Y-12330534D02*
X11039033Y-12292439D01*
X11039033Y-12292439D02*
X11048557Y-12273391D01*
X11048557Y-12273391D02*
X11058081Y-12263868D01*
X11058081Y-12263868D02*
X11077128Y-12254344D01*
X11210462Y-12254344D02*
X11334271Y-12254344D01*
X11334271Y-12254344D02*
X11267605Y-12330534D01*
X11267605Y-12330534D02*
X11296176Y-12330534D01*
X11296176Y-12330534D02*
X11315224Y-12340058D01*
X11315224Y-12340058D02*
X11324747Y-12349582D01*
X11324747Y-12349582D02*
X11334271Y-12368629D01*
X11334271Y-12368629D02*
X11334271Y-12416248D01*
X11334271Y-12416248D02*
X11324747Y-12435296D01*
X11324747Y-12435296D02*
X11315224Y-12444820D01*
X11315224Y-12444820D02*
X11296176Y-12454344D01*
X11296176Y-12454344D02*
X11239033Y-12454344D01*
X11239033Y-12454344D02*
X11219986Y-12444820D01*
X11219986Y-12444820D02*
X11210462Y-12435296D01*
X11429509Y-12454344D02*
X11467605Y-12454344D01*
X11467605Y-12454344D02*
X11486652Y-12444820D01*
X11486652Y-12444820D02*
X11496176Y-12435296D01*
X11496176Y-12435296D02*
X11515224Y-12406725D01*
X11515224Y-12406725D02*
X11524747Y-12368629D01*
X11524747Y-12368629D02*
X11524747Y-12292439D01*
X11524747Y-12292439D02*
X11515224Y-12273391D01*
X11515224Y-12273391D02*
X11505700Y-12263868D01*
X11505700Y-12263868D02*
X11486652Y-12254344D01*
X11486652Y-12254344D02*
X11448557Y-12254344D01*
X11448557Y-12254344D02*
X11429509Y-12263868D01*
X11429509Y-12263868D02*
X11419986Y-12273391D01*
X11419986Y-12273391D02*
X11410462Y-12292439D01*
X11410462Y-12292439D02*
X11410462Y-12340058D01*
X11410462Y-12340058D02*
X11419986Y-12359106D01*
X11419986Y-12359106D02*
X11429509Y-12368629D01*
X11429509Y-12368629D02*
X11448557Y-12378153D01*
X11448557Y-12378153D02*
X11486652Y-12378153D01*
X11486652Y-12378153D02*
X11505700Y-12368629D01*
X11505700Y-12368629D02*
X11515224Y-12359106D01*
X11515224Y-12359106D02*
X11524747Y-12340058D01*
X11696176Y-12321010D02*
X11696176Y-12454344D01*
X11648557Y-12244820D02*
X11600938Y-12387677D01*
X11600938Y-12387677D02*
X11724747Y-12387677D01*
X11791414Y-12254344D02*
X11791414Y-12292439D01*
X11867605Y-12254344D02*
X11867605Y-12292439D01*
X12162843Y-12530534D02*
X12153319Y-12521010D01*
X12153319Y-12521010D02*
X12134271Y-12492439D01*
X12134271Y-12492439D02*
X12124748Y-12473391D01*
X12124748Y-12473391D02*
X12115224Y-12444820D01*
X12115224Y-12444820D02*
X12105700Y-12397201D01*
X12105700Y-12397201D02*
X12105700Y-12359106D01*
X12105700Y-12359106D02*
X12115224Y-12311487D01*
X12115224Y-12311487D02*
X12124748Y-12282915D01*
X12124748Y-12282915D02*
X12134271Y-12263868D01*
X12134271Y-12263868D02*
X12153319Y-12235296D01*
X12153319Y-12235296D02*
X12162843Y-12225772D01*
X12324748Y-12321010D02*
X12324748Y-12454344D01*
X12277128Y-12244820D02*
X12229509Y-12387677D01*
X12229509Y-12387677D02*
X12353319Y-12387677D01*
X12581890Y-12454344D02*
X12581890Y-12254344D01*
X12667605Y-12454344D02*
X12667605Y-12349582D01*
X12667605Y-12349582D02*
X12658081Y-12330534D01*
X12658081Y-12330534D02*
X12639033Y-12321010D01*
X12639033Y-12321010D02*
X12610462Y-12321010D01*
X12610462Y-12321010D02*
X12591414Y-12330534D01*
X12591414Y-12330534D02*
X12581890Y-12340058D01*
X12791414Y-12454344D02*
X12772367Y-12444820D01*
X12772367Y-12444820D02*
X12762843Y-12435296D01*
X12762843Y-12435296D02*
X12753319Y-12416248D01*
X12753319Y-12416248D02*
X12753319Y-12359106D01*
X12753319Y-12359106D02*
X12762843Y-12340058D01*
X12762843Y-12340058D02*
X12772367Y-12330534D01*
X12772367Y-12330534D02*
X12791414Y-12321010D01*
X12791414Y-12321010D02*
X12819986Y-12321010D01*
X12819986Y-12321010D02*
X12839033Y-12330534D01*
X12839033Y-12330534D02*
X12848557Y-12340058D01*
X12848557Y-12340058D02*
X12858081Y-12359106D01*
X12858081Y-12359106D02*
X12858081Y-12416248D01*
X12858081Y-12416248D02*
X12848557Y-12435296D01*
X12848557Y-12435296D02*
X12839033Y-12444820D01*
X12839033Y-12444820D02*
X12819986Y-12454344D01*
X12819986Y-12454344D02*
X12791414Y-12454344D01*
X12972367Y-12454344D02*
X12953319Y-12444820D01*
X12953319Y-12444820D02*
X12943795Y-12425772D01*
X12943795Y-12425772D02*
X12943795Y-12254344D01*
X13124748Y-12444820D02*
X13105700Y-12454344D01*
X13105700Y-12454344D02*
X13067605Y-12454344D01*
X13067605Y-12454344D02*
X13048557Y-12444820D01*
X13048557Y-12444820D02*
X13039033Y-12425772D01*
X13039033Y-12425772D02*
X13039033Y-12349582D01*
X13039033Y-12349582D02*
X13048557Y-12330534D01*
X13048557Y-12330534D02*
X13067605Y-12321010D01*
X13067605Y-12321010D02*
X13105700Y-12321010D01*
X13105700Y-12321010D02*
X13124748Y-12330534D01*
X13124748Y-12330534D02*
X13134271Y-12349582D01*
X13134271Y-12349582D02*
X13134271Y-12368629D01*
X13134271Y-12368629D02*
X13039033Y-12387677D01*
X13210462Y-12444820D02*
X13229510Y-12454344D01*
X13229510Y-12454344D02*
X13267605Y-12454344D01*
X13267605Y-12454344D02*
X13286652Y-12444820D01*
X13286652Y-12444820D02*
X13296176Y-12425772D01*
X13296176Y-12425772D02*
X13296176Y-12416248D01*
X13296176Y-12416248D02*
X13286652Y-12397201D01*
X13286652Y-12397201D02*
X13267605Y-12387677D01*
X13267605Y-12387677D02*
X13239033Y-12387677D01*
X13239033Y-12387677D02*
X13219986Y-12378153D01*
X13219986Y-12378153D02*
X13210462Y-12359106D01*
X13210462Y-12359106D02*
X13210462Y-12349582D01*
X13210462Y-12349582D02*
X13219986Y-12330534D01*
X13219986Y-12330534D02*
X13239033Y-12321010D01*
X13239033Y-12321010D02*
X13267605Y-12321010D01*
X13267605Y-12321010D02*
X13286652Y-12330534D01*
X13362843Y-12530534D02*
X13372367Y-12521010D01*
X13372367Y-12521010D02*
X13391414Y-12492439D01*
X13391414Y-12492439D02*
X13400938Y-12473391D01*
X13400938Y-12473391D02*
X13410462Y-12444820D01*
X13410462Y-12444820D02*
X13419986Y-12397201D01*
X13419986Y-12397201D02*
X13419986Y-12359106D01*
X13419986Y-12359106D02*
X13410462Y-12311487D01*
X13410462Y-12311487D02*
X13400938Y-12282915D01*
X13400938Y-12282915D02*
X13391414Y-12263868D01*
X13391414Y-12263868D02*
X13372367Y-12235296D01*
X13372367Y-12235296D02*
X13362843Y-12225772D01*
M02*
