G04 #@! TF.GenerationSoftware,KiCad,Pcbnew,8.0.4+dfsg-1*
G04 #@! TF.CreationDate,2025-02-23T14:22:40+09:00*
G04 #@! TF.ProjectId,bionic-mc6800,62696f6e-6963-42d6-9d63-363830302e6b,5*
G04 #@! TF.SameCoordinates,Original*
G04 #@! TF.FileFunction,Copper,L1,Top*
G04 #@! TF.FilePolarity,Positive*
%FSLAX46Y46*%
G04 Gerber Fmt 4.6, Leading zero omitted, Abs format (unit mm)*
G04 Created by KiCad (PCBNEW 8.0.4+dfsg-1) date 2025-02-23 14:22:40*
%MOMM*%
%LPD*%
G01*
G04 APERTURE LIST*
G04 Aperture macros list*
%AMRoundRect*
0 Rectangle with rounded corners*
0 $1 Rounding radius*
0 $2 $3 $4 $5 $6 $7 $8 $9 X,Y pos of 4 corners*
0 Add a 4 corners polygon primitive as box body*
4,1,4,$2,$3,$4,$5,$6,$7,$8,$9,$2,$3,0*
0 Add four circle primitives for the rounded corners*
1,1,$1+$1,$2,$3*
1,1,$1+$1,$4,$5*
1,1,$1+$1,$6,$7*
1,1,$1+$1,$8,$9*
0 Add four rect primitives between the rounded corners*
20,1,$1+$1,$2,$3,$4,$5,0*
20,1,$1+$1,$4,$5,$6,$7,0*
20,1,$1+$1,$6,$7,$8,$9,0*
20,1,$1+$1,$8,$9,$2,$3,0*%
G04 Aperture macros list end*
G04 #@! TA.AperFunction,SMDPad,CuDef*
%ADD10R,0.660400X1.625600*%
G04 #@! TD*
G04 #@! TA.AperFunction,ComponentPad*
%ADD11R,1.600000X1.600000*%
G04 #@! TD*
G04 #@! TA.AperFunction,ComponentPad*
%ADD12O,1.600000X1.600000*%
G04 #@! TD*
G04 #@! TA.AperFunction,ComponentPad*
%ADD13O,1.700000X1.700000*%
G04 #@! TD*
G04 #@! TA.AperFunction,ComponentPad*
%ADD14R,1.700000X1.700000*%
G04 #@! TD*
G04 #@! TA.AperFunction,SMDPad,CuDef*
%ADD15R,0.965200X0.762000*%
G04 #@! TD*
G04 #@! TA.AperFunction,SMDPad,CuDef*
%ADD16RoundRect,0.237500X-0.250000X-0.237500X0.250000X-0.237500X0.250000X0.237500X-0.250000X0.237500X0*%
G04 #@! TD*
G04 #@! TA.AperFunction,SMDPad,CuDef*
%ADD17RoundRect,0.237500X0.237500X-0.300000X0.237500X0.300000X-0.237500X0.300000X-0.237500X-0.300000X0*%
G04 #@! TD*
G04 #@! TA.AperFunction,ViaPad*
%ADD18C,0.600000*%
G04 #@! TD*
G04 #@! TA.AperFunction,Conductor*
%ADD19C,0.200000*%
G04 #@! TD*
G04 #@! TA.AperFunction,Conductor*
%ADD20C,0.600000*%
G04 #@! TD*
G04 #@! TA.AperFunction,Conductor*
%ADD21C,0.800000*%
G04 #@! TD*
G04 APERTURE END LIST*
D10*
X114650001Y-128320000D03*
X112749999Y-128320000D03*
X113700000Y-130452000D03*
D11*
X106080000Y-75080000D03*
D12*
X106080000Y-77620000D03*
X106080000Y-80160000D03*
X106080000Y-82700000D03*
X106080000Y-85240000D03*
X106080000Y-87780000D03*
X106080000Y-90320000D03*
X106080000Y-92860000D03*
X106080000Y-95400000D03*
X106080000Y-97940000D03*
X106080000Y-100480000D03*
X106080000Y-103020000D03*
X106080000Y-105560000D03*
X106080000Y-108100000D03*
X106080000Y-110640000D03*
X106080000Y-113180000D03*
X106080000Y-115720000D03*
X106080000Y-118260000D03*
X106080000Y-120800000D03*
X106080000Y-123340000D03*
X121320000Y-123340000D03*
X121320000Y-120800000D03*
X121320000Y-118260000D03*
X121320000Y-115720000D03*
X121320000Y-113180000D03*
X121320000Y-110640000D03*
X121320000Y-108100000D03*
X121320000Y-105560000D03*
X121320000Y-103020000D03*
X121320000Y-100480000D03*
X121320000Y-97940000D03*
X121320000Y-95400000D03*
X121320000Y-92860000D03*
X121320000Y-90320000D03*
X121320000Y-87780000D03*
X121320000Y-85240000D03*
X121320000Y-82700000D03*
X121320000Y-80160000D03*
X121320000Y-77620000D03*
X121320000Y-75080000D03*
D13*
X117510000Y-133500000D03*
X117510000Y-130960000D03*
X117510000Y-128420000D03*
X117510000Y-125880000D03*
X117510000Y-123340000D03*
X117510000Y-120800000D03*
X117510000Y-118260000D03*
X117510000Y-115720000D03*
X117510000Y-113180000D03*
X117510000Y-110640000D03*
X117510000Y-108100000D03*
X117510000Y-105560000D03*
X117510000Y-103020000D03*
X117510000Y-100480000D03*
X117510000Y-97940000D03*
X117510000Y-95400000D03*
X117510000Y-92860000D03*
X117510000Y-90320000D03*
X117510000Y-87780000D03*
X117510000Y-85240000D03*
X117510000Y-82700000D03*
X117510000Y-80160000D03*
X117510000Y-77620000D03*
D14*
X117510000Y-75080000D03*
X109890000Y-75080000D03*
D13*
X109890000Y-77620000D03*
X109890000Y-80160000D03*
X109890000Y-82700000D03*
X109890000Y-85240000D03*
X109890000Y-87780000D03*
X109890000Y-90320000D03*
X109890000Y-92860000D03*
X109890000Y-95400000D03*
X109890000Y-97940000D03*
X109890000Y-100480000D03*
X109890000Y-103020000D03*
X109890000Y-105560000D03*
X109890000Y-108100000D03*
X109890000Y-110640000D03*
X109890000Y-113180000D03*
X109890000Y-115720000D03*
X109890000Y-118260000D03*
X109890000Y-120800000D03*
X109890000Y-123340000D03*
X109890000Y-125880000D03*
X109890000Y-128420000D03*
X109890000Y-130960000D03*
X109890000Y-133500000D03*
D15*
X114563600Y-71651000D03*
X112811000Y-71651000D03*
D16*
X116597500Y-71651000D03*
X118422500Y-71651000D03*
D17*
X103540000Y-92858900D03*
X103540000Y-91133900D03*
D18*
X113573000Y-108100000D03*
X115732000Y-89050000D03*
X103540000Y-104036000D03*
X112303000Y-116990000D03*
X106461000Y-128420000D03*
X103286000Y-122070000D03*
X122336000Y-89050000D03*
X112176000Y-82827000D03*
X104810000Y-133500000D03*
X113827000Y-122451000D03*
X105064000Y-106830000D03*
X113700000Y-134897000D03*
X107985000Y-81176000D03*
X125130000Y-123340000D03*
X103540000Y-89558000D03*
X113700000Y-132230000D03*
X114081000Y-114196000D03*
X114970000Y-100099000D03*
X119323000Y-82608000D03*
D19*
X117510000Y-123340000D02*
X118399000Y-123340000D01*
X123898000Y-120127000D02*
X123898000Y-80198000D01*
X118399000Y-123340000D02*
X119669000Y-122070000D01*
X119669000Y-122070000D02*
X121955000Y-122070000D01*
X121955000Y-122070000D02*
X123898000Y-120127000D01*
X123898000Y-80198000D02*
X121320000Y-77620000D01*
X102270000Y-94130000D02*
X102143000Y-94003000D01*
D20*
X112811000Y-133500000D02*
X117510000Y-133500000D01*
X109890000Y-133500000D02*
X112811000Y-133500000D01*
D19*
X103286000Y-92707900D02*
X103286000Y-92706500D01*
D20*
X108687919Y-133500000D02*
X102270000Y-127082081D01*
D19*
X105446500Y-92860000D02*
X106080000Y-92860000D01*
X105699000Y-71651000D02*
X112811000Y-71651000D01*
D20*
X102270000Y-94130000D02*
X103540000Y-92860000D01*
X109890000Y-133500000D02*
X108687919Y-133500000D01*
D19*
X102143000Y-75207000D02*
X105699000Y-71651000D01*
D20*
X103540000Y-92858900D02*
X106078900Y-92858900D01*
D21*
X106078900Y-92858900D02*
X106080000Y-92860000D01*
D19*
X103133900Y-92860000D02*
X103286000Y-92707900D01*
X102143000Y-94003000D02*
X102143000Y-75207000D01*
D20*
X103540000Y-92860000D02*
X103540000Y-92858900D01*
D19*
X112749999Y-133438999D02*
X112811000Y-133500000D01*
X112749999Y-128320000D02*
X112749999Y-133438999D01*
D20*
X102270000Y-127082081D02*
X102270000Y-94130000D01*
D19*
X113211000Y-101674700D02*
X113211000Y-95184686D01*
X106080000Y-110640000D02*
X107966000Y-108754000D01*
X109382000Y-104290000D02*
X110595700Y-104290000D01*
X107966000Y-108754000D02*
X107966000Y-105706000D01*
X110595700Y-104290000D02*
X113211000Y-101674700D01*
X113211000Y-95184686D02*
X115535686Y-92860000D01*
X115535686Y-92860000D02*
X117510000Y-92860000D01*
X107966000Y-105706000D02*
X109382000Y-104290000D01*
X116597500Y-71651000D02*
X114563600Y-71651000D01*
X113611000Y-99299000D02*
X113611000Y-103871000D01*
X113611000Y-103871000D02*
X110652000Y-106830000D01*
X110652000Y-106830000D02*
X109382000Y-106830000D01*
X108366000Y-107846000D02*
X108366000Y-110894000D01*
X117510000Y-95400000D02*
X113611000Y-99299000D01*
X109382000Y-106830000D02*
X108366000Y-107846000D01*
X108366000Y-110894000D02*
X106080000Y-113180000D01*
X120812000Y-116990000D02*
X121828000Y-116990000D01*
X117510000Y-118260000D02*
X119542000Y-118260000D01*
X123498000Y-115320000D02*
X123498000Y-84878000D01*
X123498000Y-84878000D02*
X121320000Y-82700000D01*
X119542000Y-118260000D02*
X120812000Y-116990000D01*
X121828000Y-116990000D02*
X123498000Y-115320000D01*
X119542000Y-115720000D02*
X117510000Y-115720000D01*
X120812000Y-114450000D02*
X119542000Y-115720000D01*
X123098000Y-113269000D02*
X121917000Y-114450000D01*
X120685000Y-83970000D02*
X121891500Y-83970000D01*
X123098000Y-85176500D02*
X123098000Y-113269000D01*
X119323000Y-82608000D02*
X120685000Y-83970000D01*
X121891500Y-83970000D02*
X123098000Y-85176500D01*
X121917000Y-114450000D02*
X120812000Y-114450000D01*
X107477000Y-106703000D02*
X107477000Y-105433000D01*
X109161400Y-101716600D02*
X110282500Y-101716600D01*
X107477000Y-105433000D02*
X108366000Y-104544000D01*
X106080000Y-108100000D02*
X107477000Y-106703000D01*
X108366000Y-104544000D02*
X108366000Y-102512000D01*
X108366000Y-102512000D02*
X109161400Y-101716600D01*
X112811000Y-99188100D02*
X112811000Y-95019000D01*
X112811000Y-95019000D02*
X117510000Y-90320000D01*
X110282500Y-101716600D02*
X112811000Y-99188100D01*
X117510000Y-87780000D02*
X113573000Y-87780000D01*
X107966000Y-103674000D02*
X106080000Y-105560000D01*
X107966000Y-100626000D02*
X107966000Y-103674000D01*
X109373800Y-99218200D02*
X107966000Y-100626000D01*
X112341000Y-97394000D02*
X110516800Y-99218200D01*
X110516800Y-99218200D02*
X109373800Y-99218200D01*
X112341000Y-89012000D02*
X112341000Y-97394000D01*
X113573000Y-87780000D02*
X112341000Y-89012000D01*
X108366000Y-99210000D02*
X107477000Y-100099000D01*
X107477000Y-101623000D02*
X106080000Y-103020000D01*
X110398000Y-96670000D02*
X109382000Y-96670000D01*
X111941000Y-95127000D02*
X110398000Y-96670000D01*
X111941000Y-88834686D02*
X111941000Y-95127000D01*
X117510000Y-85240000D02*
X115535686Y-85240000D01*
X108366000Y-97686000D02*
X108366000Y-99210000D01*
X115535686Y-85240000D02*
X111941000Y-88834686D01*
X109382000Y-96670000D02*
X108366000Y-97686000D01*
X107477000Y-100099000D02*
X107477000Y-101623000D01*
X111541000Y-88669000D02*
X117510000Y-82700000D01*
X107966000Y-98594000D02*
X107966000Y-95419000D01*
X109255000Y-94130000D02*
X110525000Y-94130000D01*
X110525000Y-94130000D02*
X111541000Y-93114000D01*
X106080000Y-100480000D02*
X107966000Y-98594000D01*
X107966000Y-95419000D02*
X109255000Y-94130000D01*
X111541000Y-93114000D02*
X111541000Y-88669000D01*
X107566000Y-95057000D02*
X107566000Y-96454000D01*
X117510000Y-80160000D02*
X115605000Y-82065000D01*
X108366000Y-94257000D02*
X107566000Y-95057000D01*
X108366000Y-90066000D02*
X108366000Y-94257000D01*
X107566000Y-96454000D02*
X106080000Y-97940000D01*
X115605000Y-83970000D02*
X110525000Y-89050000D01*
X109382000Y-89050000D02*
X108366000Y-90066000D01*
X110525000Y-89050000D02*
X109382000Y-89050000D01*
X115605000Y-82065000D02*
X115605000Y-83970000D01*
X107877000Y-89011315D02*
X107877000Y-93603000D01*
X117510000Y-77620000D02*
X115205000Y-79925000D01*
X115205000Y-79925000D02*
X115205000Y-83804314D01*
X107858000Y-88992314D02*
X107877000Y-89011315D01*
X115205000Y-83804314D02*
X112481173Y-86528141D01*
X107858000Y-87907000D02*
X107858000Y-88992314D01*
X112481173Y-86528141D02*
X109236859Y-86528141D01*
X107877000Y-93603000D02*
X106080000Y-95400000D01*
X109236859Y-86528141D02*
X107858000Y-87907000D01*
X116240000Y-119530000D02*
X120050000Y-119530000D01*
X120050000Y-119530000D02*
X121320000Y-118260000D01*
X109890000Y-113180000D02*
X116240000Y-119530000D01*
X117510000Y-103020000D02*
X119542000Y-100988000D01*
X119542000Y-92098000D02*
X121320000Y-90320000D01*
X119542000Y-100988000D02*
X119542000Y-92098000D01*
X107477000Y-89177000D02*
X107477000Y-93368000D01*
X104302000Y-95400000D02*
X104302000Y-124483000D01*
X104302000Y-124483000D02*
X105699000Y-125880000D01*
X107477000Y-93368000D02*
X106715000Y-94130000D01*
X105572000Y-94130000D02*
X104302000Y-95400000D01*
X105699000Y-125880000D02*
X109890000Y-125880000D01*
X106715000Y-94130000D02*
X105572000Y-94130000D01*
X106080000Y-87780000D02*
X107477000Y-89177000D01*
X107858000Y-113307000D02*
X107858000Y-121562000D01*
X111414000Y-109624000D02*
X111414000Y-111021000D01*
X109890000Y-108100000D02*
X111414000Y-109624000D01*
X110525000Y-111910000D02*
X109255000Y-111910000D01*
X109255000Y-111910000D02*
X107858000Y-113307000D01*
X107858000Y-121562000D02*
X106080000Y-123340000D01*
X111414000Y-111021000D02*
X110525000Y-111910000D01*
X114650001Y-128320000D02*
X114650001Y-128989001D01*
X116621000Y-130960000D02*
X117510000Y-130960000D01*
X114650001Y-128989001D02*
X116621000Y-130960000D01*
G04 #@! TA.AperFunction,Conductor*
G36*
X118783892Y-82900360D02*
G01*
X118807242Y-82922281D01*
X118894718Y-83036282D01*
X119020159Y-83132536D01*
X119166238Y-83193044D01*
X119323000Y-83213682D01*
X119329433Y-83214529D01*
X119329205Y-83216256D01*
X119379472Y-83232589D01*
X119391285Y-83242678D01*
X120439087Y-84290480D01*
X120439089Y-84290481D01*
X120439090Y-84290482D01*
X120439091Y-84290483D01*
X120498756Y-84324931D01*
X120539697Y-84370400D01*
X120546093Y-84431251D01*
X120515954Y-84483827D01*
X120503238Y-84495419D01*
X120380328Y-84658177D01*
X120380323Y-84658186D01*
X120298450Y-84822611D01*
X120289418Y-84840750D01*
X120233603Y-85036917D01*
X120214785Y-85240000D01*
X120233603Y-85443083D01*
X120289418Y-85639250D01*
X120380327Y-85821821D01*
X120503236Y-85984579D01*
X120653959Y-86121981D01*
X120827363Y-86229348D01*
X121017544Y-86303024D01*
X121218024Y-86340500D01*
X121421976Y-86340500D01*
X121622456Y-86303024D01*
X121812637Y-86229348D01*
X121986041Y-86121981D01*
X122136764Y-85984579D01*
X122259673Y-85821821D01*
X122350582Y-85639250D01*
X122406397Y-85443083D01*
X122420164Y-85294503D01*
X122444359Y-85238309D01*
X122496966Y-85207065D01*
X122557890Y-85212711D01*
X122588744Y-85233637D01*
X122668503Y-85313395D01*
X122696281Y-85367911D01*
X122697500Y-85383399D01*
X122697500Y-113062099D01*
X122678593Y-113120290D01*
X122668504Y-113132103D01*
X122590908Y-113209699D01*
X122536391Y-113237476D01*
X122475959Y-113227905D01*
X122432694Y-113184640D01*
X122422326Y-113148832D01*
X122406397Y-112976917D01*
X122350582Y-112780750D01*
X122259673Y-112598179D01*
X122136764Y-112435421D01*
X121986041Y-112298019D01*
X121812637Y-112190652D01*
X121622456Y-112116976D01*
X121622455Y-112116975D01*
X121622453Y-112116975D01*
X121421976Y-112079500D01*
X121218024Y-112079500D01*
X121017546Y-112116975D01*
X121017541Y-112116977D01*
X120827363Y-112190652D01*
X120718676Y-112257948D01*
X120653959Y-112298019D01*
X120503237Y-112435420D01*
X120380328Y-112598177D01*
X120380323Y-112598186D01*
X120298450Y-112762611D01*
X120289418Y-112780750D01*
X120233603Y-112976917D01*
X120214785Y-113180000D01*
X120233603Y-113383083D01*
X120289418Y-113579250D01*
X120380327Y-113761821D01*
X120503236Y-113924579D01*
X120566701Y-113982435D01*
X120596966Y-114035608D01*
X120590195Y-114096418D01*
X120570008Y-114125599D01*
X119405103Y-115290504D01*
X119350586Y-115318281D01*
X119335099Y-115319500D01*
X118657113Y-115319500D01*
X118598922Y-115300593D01*
X118568492Y-115264628D01*
X118522015Y-115171289D01*
X118492366Y-115111745D01*
X118363872Y-114941593D01*
X118257132Y-114844286D01*
X118206307Y-114797952D01*
X118206300Y-114797946D01*
X118025024Y-114685705D01*
X118025019Y-114685702D01*
X117826195Y-114608678D01*
X117616610Y-114569500D01*
X117403390Y-114569500D01*
X117193804Y-114608678D01*
X116994980Y-114685702D01*
X116994975Y-114685705D01*
X116813699Y-114797946D01*
X116813692Y-114797952D01*
X116656135Y-114941586D01*
X116656131Y-114941589D01*
X116656128Y-114941593D01*
X116656125Y-114941597D01*
X116527635Y-115111743D01*
X116527630Y-115111752D01*
X116432596Y-115302608D01*
X116432595Y-115302611D01*
X116427790Y-115319500D01*
X116374244Y-115507688D01*
X116354571Y-115720000D01*
X116359366Y-115771753D01*
X116374244Y-115932310D01*
X116432595Y-116137389D01*
X116527634Y-116328255D01*
X116656128Y-116498407D01*
X116656135Y-116498413D01*
X116813692Y-116642047D01*
X116813699Y-116642053D01*
X116858060Y-116669520D01*
X116994981Y-116754298D01*
X117193802Y-116831321D01*
X117403390Y-116870500D01*
X117616610Y-116870500D01*
X117826198Y-116831321D01*
X118025019Y-116754298D01*
X118206302Y-116642052D01*
X118363872Y-116498407D01*
X118492366Y-116328255D01*
X118568492Y-116175372D01*
X118611354Y-116131710D01*
X118657113Y-116120500D01*
X119594725Y-116120500D01*
X119594727Y-116120500D01*
X119696588Y-116093207D01*
X119696590Y-116093205D01*
X119696592Y-116093205D01*
X119787908Y-116040483D01*
X119787908Y-116040482D01*
X119787913Y-116040480D01*
X120056639Y-115771752D01*
X120111156Y-115743975D01*
X120171588Y-115753546D01*
X120214853Y-115796811D01*
X120225220Y-115832619D01*
X120233603Y-115923083D01*
X120289418Y-116119250D01*
X120380327Y-116301821D01*
X120503236Y-116464579D01*
X120566701Y-116522435D01*
X120596966Y-116575608D01*
X120590195Y-116636418D01*
X120570008Y-116665599D01*
X119405103Y-117830504D01*
X119350586Y-117858281D01*
X119335099Y-117859500D01*
X118657113Y-117859500D01*
X118598922Y-117840593D01*
X118568492Y-117804628D01*
X118492369Y-117651752D01*
X118492366Y-117651745D01*
X118363872Y-117481593D01*
X118279185Y-117404390D01*
X118206307Y-117337952D01*
X118206300Y-117337946D01*
X118025024Y-117225705D01*
X118025019Y-117225702D01*
X117826195Y-117148678D01*
X117616610Y-117109500D01*
X117403390Y-117109500D01*
X117193804Y-117148678D01*
X116994980Y-117225702D01*
X116994975Y-117225705D01*
X116813699Y-117337946D01*
X116813692Y-117337952D01*
X116656135Y-117481586D01*
X116656131Y-117481589D01*
X116656128Y-117481593D01*
X116656125Y-117481597D01*
X116527635Y-117651743D01*
X116527630Y-117651752D01*
X116432596Y-117842608D01*
X116432595Y-117842611D01*
X116427790Y-117859500D01*
X116374244Y-118047688D01*
X116354571Y-118260000D01*
X116359366Y-118311753D01*
X116374244Y-118472310D01*
X116430979Y-118671710D01*
X116432596Y-118677391D01*
X116527630Y-118868247D01*
X116527635Y-118868256D01*
X116605103Y-118970839D01*
X116625082Y-119028670D01*
X116607253Y-119087201D01*
X116558427Y-119124073D01*
X116526099Y-119129500D01*
X116446901Y-119129500D01*
X116388710Y-119110593D01*
X116376897Y-119100504D01*
X110986650Y-113710257D01*
X110958873Y-113655740D01*
X110967111Y-113602182D01*
X110965752Y-113601656D01*
X110967400Y-113597398D01*
X110967405Y-113597389D01*
X111025756Y-113392310D01*
X111045429Y-113180000D01*
X116354571Y-113180000D01*
X116374244Y-113392310D01*
X116432595Y-113597389D01*
X116527634Y-113788255D01*
X116656128Y-113958407D01*
X116656135Y-113958413D01*
X116813692Y-114102047D01*
X116813699Y-114102053D01*
X116858060Y-114129520D01*
X116994981Y-114214298D01*
X117193802Y-114291321D01*
X117403390Y-114330500D01*
X117616610Y-114330500D01*
X117826198Y-114291321D01*
X118025019Y-114214298D01*
X118206302Y-114102052D01*
X118363872Y-113958407D01*
X118492366Y-113788255D01*
X118587405Y-113597389D01*
X118645756Y-113392310D01*
X118665429Y-113180000D01*
X118645756Y-112967690D01*
X118587405Y-112762611D01*
X118492366Y-112571745D01*
X118363872Y-112401593D01*
X118301159Y-112344422D01*
X118206307Y-112257952D01*
X118206300Y-112257946D01*
X118025024Y-112145705D01*
X118025019Y-112145702D01*
X117973078Y-112125580D01*
X117826198Y-112068679D01*
X117826197Y-112068678D01*
X117826195Y-112068678D01*
X117616610Y-112029500D01*
X117403390Y-112029500D01*
X117193804Y-112068678D01*
X116994980Y-112145702D01*
X116994975Y-112145705D01*
X116813699Y-112257946D01*
X116813692Y-112257952D01*
X116656135Y-112401586D01*
X116656131Y-112401589D01*
X116656128Y-112401593D01*
X116656125Y-112401597D01*
X116527635Y-112571743D01*
X116527630Y-112571752D01*
X116432596Y-112762608D01*
X116374244Y-112967688D01*
X116374244Y-112967690D01*
X116354571Y-113180000D01*
X111045429Y-113180000D01*
X111025756Y-112967690D01*
X110967405Y-112762611D01*
X110872366Y-112571745D01*
X110743872Y-112401593D01*
X110739485Y-112397593D01*
X110709220Y-112344422D01*
X110715989Y-112283612D01*
X110756681Y-112238696D01*
X110770913Y-112230480D01*
X111734480Y-111266913D01*
X111787207Y-111175588D01*
X111814500Y-111073727D01*
X111814500Y-110968273D01*
X111814500Y-110640000D01*
X116354571Y-110640000D01*
X116374244Y-110852310D01*
X116427434Y-111039252D01*
X116432596Y-111057391D01*
X116491450Y-111175588D01*
X116527634Y-111248255D01*
X116656128Y-111418407D01*
X116656135Y-111418413D01*
X116813692Y-111562047D01*
X116813699Y-111562053D01*
X116858057Y-111589518D01*
X116994981Y-111674298D01*
X117193802Y-111751321D01*
X117403390Y-111790500D01*
X117616610Y-111790500D01*
X117826198Y-111751321D01*
X118025019Y-111674298D01*
X118206302Y-111562052D01*
X118363872Y-111418407D01*
X118492366Y-111248255D01*
X118587405Y-111057389D01*
X118645756Y-110852310D01*
X118665429Y-110640000D01*
X120214785Y-110640000D01*
X120233603Y-110843083D01*
X120289418Y-111039250D01*
X120380327Y-111221821D01*
X120503236Y-111384579D01*
X120653959Y-111521981D01*
X120827363Y-111629348D01*
X121017544Y-111703024D01*
X121218024Y-111740500D01*
X121421976Y-111740500D01*
X121622456Y-111703024D01*
X121812637Y-111629348D01*
X121986041Y-111521981D01*
X122136764Y-111384579D01*
X122259673Y-111221821D01*
X122350582Y-111039250D01*
X122406397Y-110843083D01*
X122425215Y-110640000D01*
X122406397Y-110436917D01*
X122350582Y-110240750D01*
X122259673Y-110058179D01*
X122136764Y-109895421D01*
X121986041Y-109758019D01*
X121812637Y-109650652D01*
X121622456Y-109576976D01*
X121622455Y-109576975D01*
X121622453Y-109576975D01*
X121421976Y-109539500D01*
X121218024Y-109539500D01*
X121017546Y-109576975D01*
X120995334Y-109585580D01*
X120827363Y-109650652D01*
X120718676Y-109717948D01*
X120653959Y-109758019D01*
X120503237Y-109895420D01*
X120380328Y-110058177D01*
X120380323Y-110058186D01*
X120298450Y-110222611D01*
X120289418Y-110240750D01*
X120233603Y-110436917D01*
X120214785Y-110640000D01*
X118665429Y-110640000D01*
X118645756Y-110427690D01*
X118587405Y-110222611D01*
X118492366Y-110031745D01*
X118363872Y-109861593D01*
X118309623Y-109812139D01*
X118206307Y-109717952D01*
X118206300Y-109717946D01*
X118025024Y-109605705D01*
X118025019Y-109605702D01*
X117826195Y-109528678D01*
X117616610Y-109489500D01*
X117403390Y-109489500D01*
X117193804Y-109528678D01*
X116994980Y-109605702D01*
X116994975Y-109605705D01*
X116813699Y-109717946D01*
X116813692Y-109717952D01*
X116656135Y-109861586D01*
X116656131Y-109861589D01*
X116656128Y-109861593D01*
X116656125Y-109861597D01*
X116527635Y-110031743D01*
X116527630Y-110031752D01*
X116432596Y-110222608D01*
X116374244Y-110427688D01*
X116374244Y-110427690D01*
X116354571Y-110640000D01*
X111814500Y-110640000D01*
X111814500Y-109571273D01*
X111787207Y-109469413D01*
X111734480Y-109378087D01*
X111659913Y-109303519D01*
X111659913Y-109303520D01*
X110986650Y-108630257D01*
X110958873Y-108575740D01*
X110967111Y-108522182D01*
X110965752Y-108521656D01*
X110967400Y-108517398D01*
X110967405Y-108517389D01*
X111025756Y-108312310D01*
X111045429Y-108100000D01*
X116354571Y-108100000D01*
X116374244Y-108312310D01*
X116432595Y-108517389D01*
X116527634Y-108708255D01*
X116656128Y-108878407D01*
X116656135Y-108878413D01*
X116813692Y-109022047D01*
X116813699Y-109022053D01*
X116917389Y-109086255D01*
X116994981Y-109134298D01*
X117193802Y-109211321D01*
X117403390Y-109250500D01*
X117616610Y-109250500D01*
X117826198Y-109211321D01*
X118025019Y-109134298D01*
X118206302Y-109022052D01*
X118363872Y-108878407D01*
X118492366Y-108708255D01*
X118587405Y-108517389D01*
X118645756Y-108312310D01*
X118665429Y-108100000D01*
X120214785Y-108100000D01*
X120233603Y-108303083D01*
X120289418Y-108499250D01*
X120380327Y-108681821D01*
X120503236Y-108844579D01*
X120653959Y-108981981D01*
X120827363Y-109089348D01*
X121017544Y-109163024D01*
X121218024Y-109200500D01*
X121421976Y-109200500D01*
X121622456Y-109163024D01*
X121812637Y-109089348D01*
X121986041Y-108981981D01*
X122136764Y-108844579D01*
X122259673Y-108681821D01*
X122350582Y-108499250D01*
X122406397Y-108303083D01*
X122425215Y-108100000D01*
X122406397Y-107896917D01*
X122350582Y-107700750D01*
X122259673Y-107518179D01*
X122136764Y-107355421D01*
X121986041Y-107218019D01*
X121812637Y-107110652D01*
X121622456Y-107036976D01*
X121622455Y-107036975D01*
X121622453Y-107036975D01*
X121421976Y-106999500D01*
X121218024Y-106999500D01*
X121017546Y-107036975D01*
X120995334Y-107045580D01*
X120827363Y-107110652D01*
X120653959Y-107218019D01*
X120503236Y-107355421D01*
X120463388Y-107408188D01*
X120380328Y-107518177D01*
X120380323Y-107518186D01*
X120298450Y-107682611D01*
X120289418Y-107700750D01*
X120233603Y-107896917D01*
X120214785Y-108100000D01*
X118665429Y-108100000D01*
X118645756Y-107887690D01*
X118587405Y-107682611D01*
X118492366Y-107491745D01*
X118363872Y-107321593D01*
X118271062Y-107236985D01*
X118206307Y-107177952D01*
X118206300Y-107177946D01*
X118025024Y-107065705D01*
X118025019Y-107065702D01*
X117958929Y-107040099D01*
X117826198Y-106988679D01*
X117826197Y-106988678D01*
X117826195Y-106988678D01*
X117616610Y-106949500D01*
X117403390Y-106949500D01*
X117193804Y-106988678D01*
X116994980Y-107065702D01*
X116994975Y-107065705D01*
X116813699Y-107177946D01*
X116813692Y-107177952D01*
X116656135Y-107321586D01*
X116656131Y-107321589D01*
X116656128Y-107321593D01*
X116656125Y-107321597D01*
X116527635Y-107491743D01*
X116527630Y-107491752D01*
X116432596Y-107682608D01*
X116374244Y-107887688D01*
X116374244Y-107887690D01*
X116354571Y-108100000D01*
X111045429Y-108100000D01*
X111025756Y-107887690D01*
X110967405Y-107682611D01*
X110872366Y-107491745D01*
X110767851Y-107353346D01*
X110747871Y-107295515D01*
X110765699Y-107236985D01*
X110801836Y-107207954D01*
X110800969Y-107206452D01*
X110897908Y-107150483D01*
X110897908Y-107150482D01*
X110897913Y-107150480D01*
X112488393Y-105560000D01*
X116354571Y-105560000D01*
X116374244Y-105772310D01*
X116432595Y-105977389D01*
X116527634Y-106168255D01*
X116656128Y-106338407D01*
X116656135Y-106338413D01*
X116813692Y-106482047D01*
X116813699Y-106482053D01*
X116836383Y-106496098D01*
X116994981Y-106594298D01*
X117193802Y-106671321D01*
X117403390Y-106710500D01*
X117616610Y-106710500D01*
X117826198Y-106671321D01*
X118025019Y-106594298D01*
X118206302Y-106482052D01*
X118363872Y-106338407D01*
X118492366Y-106168255D01*
X118587405Y-105977389D01*
X118645756Y-105772310D01*
X118665429Y-105560000D01*
X120214785Y-105560000D01*
X120233603Y-105763083D01*
X120289418Y-105959250D01*
X120380327Y-106141821D01*
X120503236Y-106304579D01*
X120653959Y-106441981D01*
X120827363Y-106549348D01*
X121017544Y-106623024D01*
X121218024Y-106660500D01*
X121421976Y-106660500D01*
X121622456Y-106623024D01*
X121812637Y-106549348D01*
X121986041Y-106441981D01*
X122136764Y-106304579D01*
X122259673Y-106141821D01*
X122350582Y-105959250D01*
X122406397Y-105763083D01*
X122425215Y-105560000D01*
X122406397Y-105356917D01*
X122350582Y-105160750D01*
X122259673Y-104978179D01*
X122136764Y-104815421D01*
X121986041Y-104678019D01*
X121812637Y-104570652D01*
X121622456Y-104496976D01*
X121622455Y-104496975D01*
X121622453Y-104496975D01*
X121421976Y-104459500D01*
X121218024Y-104459500D01*
X121017546Y-104496975D01*
X120995334Y-104505580D01*
X120827363Y-104570652D01*
X120718676Y-104637948D01*
X120653959Y-104678019D01*
X120503237Y-104815420D01*
X120380328Y-104978177D01*
X120380323Y-104978186D01*
X120298450Y-105142611D01*
X120289418Y-105160750D01*
X120233603Y-105356917D01*
X120214785Y-105560000D01*
X118665429Y-105560000D01*
X118645756Y-105347690D01*
X118587405Y-105142611D01*
X118492366Y-104951745D01*
X118363872Y-104781593D01*
X118309623Y-104732139D01*
X118206307Y-104637952D01*
X118206300Y-104637946D01*
X118025024Y-104525705D01*
X118025019Y-104525702D01*
X117826195Y-104448678D01*
X117616610Y-104409500D01*
X117403390Y-104409500D01*
X117193804Y-104448678D01*
X116994980Y-104525702D01*
X116994975Y-104525705D01*
X116813699Y-104637946D01*
X116813692Y-104637952D01*
X116656135Y-104781586D01*
X116656131Y-104781589D01*
X116656128Y-104781593D01*
X116656125Y-104781597D01*
X116527635Y-104951743D01*
X116527630Y-104951752D01*
X116432596Y-105142608D01*
X116374244Y-105347688D01*
X116374244Y-105347690D01*
X116354571Y-105560000D01*
X112488393Y-105560000D01*
X113931480Y-104116913D01*
X113967632Y-104054297D01*
X113984205Y-104025592D01*
X113984205Y-104025590D01*
X113984207Y-104025588D01*
X114011500Y-103923727D01*
X114011500Y-103818273D01*
X114011500Y-103020000D01*
X116354571Y-103020000D01*
X116374244Y-103232310D01*
X116432595Y-103437389D01*
X116527634Y-103628255D01*
X116656128Y-103798407D01*
X116656135Y-103798413D01*
X116813692Y-103942047D01*
X116813699Y-103942053D01*
X116858060Y-103969520D01*
X116994981Y-104054298D01*
X117193802Y-104131321D01*
X117403390Y-104170500D01*
X117616610Y-104170500D01*
X117826198Y-104131321D01*
X118025019Y-104054298D01*
X118206302Y-103942052D01*
X118363872Y-103798407D01*
X118492366Y-103628255D01*
X118587405Y-103437389D01*
X118645756Y-103232310D01*
X118665429Y-103020000D01*
X120214785Y-103020000D01*
X120233603Y-103223083D01*
X120289418Y-103419250D01*
X120380327Y-103601821D01*
X120503236Y-103764579D01*
X120653959Y-103901981D01*
X120827363Y-104009348D01*
X121017544Y-104083024D01*
X121218024Y-104120500D01*
X121421976Y-104120500D01*
X121622456Y-104083024D01*
X121812637Y-104009348D01*
X121986041Y-103901981D01*
X122136764Y-103764579D01*
X122259673Y-103601821D01*
X122350582Y-103419250D01*
X122406397Y-103223083D01*
X122425215Y-103020000D01*
X122406397Y-102816917D01*
X122350582Y-102620750D01*
X122259673Y-102438179D01*
X122136764Y-102275421D01*
X121986041Y-102138019D01*
X121812637Y-102030652D01*
X121622456Y-101956976D01*
X121622455Y-101956975D01*
X121622453Y-101956975D01*
X121421976Y-101919500D01*
X121218024Y-101919500D01*
X121017546Y-101956975D01*
X121017541Y-101956977D01*
X120827363Y-102030652D01*
X120653959Y-102138019D01*
X120503236Y-102275421D01*
X120463388Y-102328188D01*
X120380328Y-102438177D01*
X120380323Y-102438186D01*
X120298450Y-102602611D01*
X120289418Y-102620750D01*
X120233603Y-102816917D01*
X120214785Y-103020000D01*
X118665429Y-103020000D01*
X118645756Y-102807690D01*
X118587405Y-102602611D01*
X118587401Y-102602604D01*
X118585752Y-102598344D01*
X118587132Y-102597809D01*
X118579019Y-102543364D01*
X118606648Y-102489743D01*
X119862480Y-101233913D01*
X119915207Y-101142588D01*
X119942500Y-101040727D01*
X119942500Y-100935273D01*
X119942500Y-100480000D01*
X120214785Y-100480000D01*
X120233603Y-100683083D01*
X120281409Y-100851102D01*
X120289419Y-100879252D01*
X120369823Y-101040727D01*
X120380327Y-101061821D01*
X120503236Y-101224579D01*
X120653959Y-101361981D01*
X120827363Y-101469348D01*
X121017544Y-101543024D01*
X121218024Y-101580500D01*
X121421976Y-101580500D01*
X121622456Y-101543024D01*
X121812637Y-101469348D01*
X121986041Y-101361981D01*
X122136764Y-101224579D01*
X122259673Y-101061821D01*
X122350582Y-100879250D01*
X122406397Y-100683083D01*
X122425215Y-100480000D01*
X122406397Y-100276917D01*
X122350582Y-100080750D01*
X122259673Y-99898179D01*
X122136764Y-99735421D01*
X121986041Y-99598019D01*
X121812637Y-99490652D01*
X121622456Y-99416976D01*
X121622455Y-99416975D01*
X121622453Y-99416975D01*
X121421976Y-99379500D01*
X121218024Y-99379500D01*
X121017546Y-99416975D01*
X120995334Y-99425580D01*
X120827363Y-99490652D01*
X120718676Y-99557948D01*
X120653959Y-99598019D01*
X120503237Y-99735420D01*
X120380328Y-99898177D01*
X120380323Y-99898186D01*
X120298450Y-100062611D01*
X120289418Y-100080750D01*
X120233603Y-100276917D01*
X120214785Y-100480000D01*
X119942500Y-100480000D01*
X119942500Y-97940000D01*
X120214785Y-97940000D01*
X120233603Y-98143083D01*
X120289418Y-98339250D01*
X120380327Y-98521821D01*
X120503236Y-98684579D01*
X120653959Y-98821981D01*
X120827363Y-98929348D01*
X121017544Y-99003024D01*
X121218024Y-99040500D01*
X121421976Y-99040500D01*
X121622456Y-99003024D01*
X121812637Y-98929348D01*
X121986041Y-98821981D01*
X122136764Y-98684579D01*
X122259673Y-98521821D01*
X122350582Y-98339250D01*
X122406397Y-98143083D01*
X122425215Y-97940000D01*
X122406397Y-97736917D01*
X122350582Y-97540750D01*
X122259673Y-97358179D01*
X122136764Y-97195421D01*
X121986041Y-97058019D01*
X121812637Y-96950652D01*
X121622456Y-96876976D01*
X121622455Y-96876975D01*
X121622453Y-96876975D01*
X121421976Y-96839500D01*
X121218024Y-96839500D01*
X121017546Y-96876975D01*
X120995334Y-96885580D01*
X120827363Y-96950652D01*
X120653959Y-97058019D01*
X120503236Y-97195421D01*
X120478553Y-97228107D01*
X120380328Y-97358177D01*
X120380323Y-97358186D01*
X120298450Y-97522611D01*
X120289418Y-97540750D01*
X120233603Y-97736917D01*
X120214785Y-97940000D01*
X119942500Y-97940000D01*
X119942500Y-95400000D01*
X120214785Y-95400000D01*
X120233603Y-95603083D01*
X120289418Y-95799250D01*
X120380327Y-95981821D01*
X120503236Y-96144579D01*
X120653959Y-96281981D01*
X120827363Y-96389348D01*
X121017544Y-96463024D01*
X121218024Y-96500500D01*
X121421976Y-96500500D01*
X121622456Y-96463024D01*
X121812637Y-96389348D01*
X121986041Y-96281981D01*
X122136764Y-96144579D01*
X122259673Y-95981821D01*
X122350582Y-95799250D01*
X122406397Y-95603083D01*
X122425215Y-95400000D01*
X122406397Y-95196917D01*
X122350582Y-95000750D01*
X122259673Y-94818179D01*
X122136764Y-94655421D01*
X121986041Y-94518019D01*
X121812637Y-94410652D01*
X121622456Y-94336976D01*
X121622455Y-94336975D01*
X121622453Y-94336975D01*
X121421976Y-94299500D01*
X121218024Y-94299500D01*
X121017546Y-94336975D01*
X120954106Y-94361552D01*
X120827363Y-94410652D01*
X120718676Y-94477948D01*
X120653959Y-94518019D01*
X120503237Y-94655420D01*
X120380328Y-94818177D01*
X120380323Y-94818186D01*
X120298450Y-94982611D01*
X120289418Y-95000750D01*
X120233603Y-95196917D01*
X120214785Y-95400000D01*
X119942500Y-95400000D01*
X119942500Y-92860000D01*
X120214785Y-92860000D01*
X120233603Y-93063083D01*
X120289418Y-93259250D01*
X120380327Y-93441821D01*
X120503236Y-93604579D01*
X120653959Y-93741981D01*
X120827363Y-93849348D01*
X121017544Y-93923024D01*
X121218024Y-93960500D01*
X121421976Y-93960500D01*
X121622456Y-93923024D01*
X121812637Y-93849348D01*
X121986041Y-93741981D01*
X122136764Y-93604579D01*
X122259673Y-93441821D01*
X122350582Y-93259250D01*
X122406397Y-93063083D01*
X122425215Y-92860000D01*
X122406397Y-92656917D01*
X122350582Y-92460750D01*
X122259673Y-92278179D01*
X122136764Y-92115421D01*
X121986041Y-91978019D01*
X121812637Y-91870652D01*
X121622456Y-91796976D01*
X121622455Y-91796975D01*
X121622453Y-91796975D01*
X121421976Y-91759500D01*
X121218024Y-91759500D01*
X121017546Y-91796975D01*
X120947632Y-91824059D01*
X120827363Y-91870652D01*
X120653959Y-91978019D01*
X120532819Y-92088453D01*
X120503236Y-92115421D01*
X120502613Y-92116246D01*
X120380328Y-92278177D01*
X120380323Y-92278186D01*
X120298450Y-92442611D01*
X120289418Y-92460750D01*
X120233603Y-92656917D01*
X120214785Y-92860000D01*
X119942500Y-92860000D01*
X119942500Y-92304899D01*
X119961407Y-92246708D01*
X119971490Y-92234901D01*
X120831974Y-91374416D01*
X120886489Y-91346641D01*
X120937738Y-91352106D01*
X121017544Y-91383024D01*
X121218024Y-91420500D01*
X121421976Y-91420500D01*
X121622456Y-91383024D01*
X121812637Y-91309348D01*
X121986041Y-91201981D01*
X122136764Y-91064579D01*
X122259673Y-90901821D01*
X122350582Y-90719250D01*
X122406397Y-90523083D01*
X122425215Y-90320000D01*
X122406397Y-90116917D01*
X122350582Y-89920750D01*
X122259673Y-89738179D01*
X122136764Y-89575421D01*
X121986041Y-89438019D01*
X121812637Y-89330652D01*
X121622456Y-89256976D01*
X121622455Y-89256975D01*
X121622453Y-89256975D01*
X121421976Y-89219500D01*
X121218024Y-89219500D01*
X121017546Y-89256975D01*
X120947632Y-89284059D01*
X120827363Y-89330652D01*
X120653959Y-89438019D01*
X120503236Y-89575421D01*
X120502613Y-89576246D01*
X120380328Y-89738177D01*
X120380323Y-89738186D01*
X120298450Y-89902611D01*
X120289418Y-89920750D01*
X120233603Y-90116917D01*
X120214785Y-90320000D01*
X120233603Y-90523083D01*
X120236229Y-90532311D01*
X120287880Y-90713845D01*
X120285619Y-90774989D01*
X120262663Y-90810941D01*
X119221520Y-91852086D01*
X119221516Y-91852091D01*
X119168793Y-91943411D01*
X119168792Y-91943411D01*
X119168793Y-91943412D01*
X119141500Y-92045273D01*
X119141500Y-100781098D01*
X119122593Y-100839289D01*
X119112504Y-100851102D01*
X118036673Y-101926932D01*
X117982156Y-101954709D01*
X117930907Y-101949243D01*
X117826198Y-101908679D01*
X117826197Y-101908678D01*
X117826195Y-101908678D01*
X117616610Y-101869500D01*
X117403390Y-101869500D01*
X117193804Y-101908678D01*
X116994980Y-101985702D01*
X116994975Y-101985705D01*
X116813699Y-102097946D01*
X116813692Y-102097952D01*
X116656135Y-102241586D01*
X116656131Y-102241589D01*
X116656128Y-102241593D01*
X116656125Y-102241597D01*
X116527635Y-102411743D01*
X116527630Y-102411752D01*
X116432596Y-102602608D01*
X116374244Y-102807688D01*
X116374244Y-102807690D01*
X116354571Y-103020000D01*
X114011500Y-103020000D01*
X114011500Y-100480000D01*
X116354571Y-100480000D01*
X116374244Y-100692310D01*
X116432595Y-100897389D01*
X116527634Y-101088255D01*
X116656128Y-101258407D01*
X116681947Y-101281944D01*
X116813692Y-101402047D01*
X116813699Y-101402053D01*
X116836383Y-101416098D01*
X116994981Y-101514298D01*
X117193802Y-101591321D01*
X117403390Y-101630500D01*
X117616610Y-101630500D01*
X117826198Y-101591321D01*
X118025019Y-101514298D01*
X118206302Y-101402052D01*
X118363872Y-101258407D01*
X118492366Y-101088255D01*
X118587405Y-100897389D01*
X118645756Y-100692310D01*
X118665429Y-100480000D01*
X118645756Y-100267690D01*
X118587405Y-100062611D01*
X118492366Y-99871745D01*
X118363872Y-99701593D01*
X118253995Y-99601426D01*
X118206307Y-99557952D01*
X118206300Y-99557946D01*
X118025024Y-99445705D01*
X118025019Y-99445702D01*
X117826195Y-99368678D01*
X117616610Y-99329500D01*
X117403390Y-99329500D01*
X117193804Y-99368678D01*
X116994980Y-99445702D01*
X116994975Y-99445705D01*
X116813699Y-99557946D01*
X116813692Y-99557952D01*
X116656135Y-99701586D01*
X116656131Y-99701589D01*
X116656128Y-99701593D01*
X116656125Y-99701597D01*
X116527635Y-99871743D01*
X116527630Y-99871752D01*
X116432596Y-100062608D01*
X116374244Y-100267688D01*
X116374244Y-100267690D01*
X116354571Y-100480000D01*
X114011500Y-100480000D01*
X114011500Y-99505899D01*
X114030407Y-99447708D01*
X114040490Y-99435901D01*
X115536390Y-97940000D01*
X116354571Y-97940000D01*
X116374244Y-98152310D01*
X116432595Y-98357389D01*
X116527634Y-98548255D01*
X116656128Y-98718407D01*
X116656135Y-98718413D01*
X116813692Y-98862047D01*
X116813699Y-98862053D01*
X116908889Y-98920992D01*
X116994981Y-98974298D01*
X117193802Y-99051321D01*
X117403390Y-99090500D01*
X117616610Y-99090500D01*
X117826198Y-99051321D01*
X118025019Y-98974298D01*
X118206302Y-98862052D01*
X118363872Y-98718407D01*
X118492366Y-98548255D01*
X118587405Y-98357389D01*
X118645756Y-98152310D01*
X118665429Y-97940000D01*
X118645756Y-97727690D01*
X118587405Y-97522611D01*
X118492366Y-97331745D01*
X118363872Y-97161593D01*
X118298691Y-97102172D01*
X118206307Y-97017952D01*
X118206300Y-97017946D01*
X118025024Y-96905705D01*
X118025019Y-96905702D01*
X117958929Y-96880099D01*
X117826198Y-96828679D01*
X117826197Y-96828678D01*
X117826195Y-96828678D01*
X117616610Y-96789500D01*
X117403390Y-96789500D01*
X117193804Y-96828678D01*
X116994980Y-96905702D01*
X116994975Y-96905705D01*
X116813699Y-97017946D01*
X116813692Y-97017952D01*
X116656135Y-97161586D01*
X116656131Y-97161589D01*
X116656128Y-97161593D01*
X116656125Y-97161597D01*
X116527635Y-97331743D01*
X116527630Y-97331752D01*
X116432596Y-97522608D01*
X116374244Y-97727688D01*
X116374244Y-97727689D01*
X116374244Y-97727690D01*
X116354571Y-97940000D01*
X115536390Y-97940000D01*
X116983324Y-96493066D01*
X117037841Y-96465290D01*
X117089090Y-96470756D01*
X117165869Y-96500500D01*
X117193802Y-96511321D01*
X117403390Y-96550500D01*
X117616610Y-96550500D01*
X117826198Y-96511321D01*
X118025019Y-96434298D01*
X118206302Y-96322052D01*
X118363872Y-96178407D01*
X118492366Y-96008255D01*
X118587405Y-95817389D01*
X118645756Y-95612310D01*
X118665429Y-95400000D01*
X118645756Y-95187690D01*
X118587405Y-94982611D01*
X118492366Y-94791745D01*
X118363872Y-94621593D01*
X118254742Y-94522107D01*
X118206307Y-94477952D01*
X118206300Y-94477946D01*
X118025024Y-94365705D01*
X118025019Y-94365702D01*
X117826195Y-94288678D01*
X117616610Y-94249500D01*
X117403390Y-94249500D01*
X117193804Y-94288678D01*
X116994980Y-94365702D01*
X116994975Y-94365705D01*
X116813699Y-94477946D01*
X116813692Y-94477952D01*
X116656135Y-94621586D01*
X116656131Y-94621589D01*
X116656128Y-94621593D01*
X116656125Y-94621597D01*
X116527635Y-94791743D01*
X116527630Y-94791752D01*
X116432596Y-94982608D01*
X116374244Y-95187688D01*
X116354571Y-95400000D01*
X116374244Y-95612311D01*
X116432598Y-95817401D01*
X116434249Y-95821661D01*
X116432870Y-95822195D01*
X116440977Y-95876647D01*
X116413348Y-95930257D01*
X113780504Y-98563102D01*
X113725987Y-98590879D01*
X113665555Y-98581308D01*
X113622290Y-98538043D01*
X113611500Y-98493098D01*
X113611500Y-95391587D01*
X113630407Y-95333396D01*
X113640496Y-95321583D01*
X115672583Y-93289496D01*
X115727100Y-93261719D01*
X115742587Y-93260500D01*
X116362887Y-93260500D01*
X116421078Y-93279407D01*
X116451508Y-93315372D01*
X116527634Y-93468255D01*
X116656128Y-93638407D01*
X116682483Y-93662433D01*
X116813692Y-93782047D01*
X116813699Y-93782053D01*
X116858057Y-93809518D01*
X116994981Y-93894298D01*
X117193802Y-93971321D01*
X117403390Y-94010500D01*
X117616610Y-94010500D01*
X117826198Y-93971321D01*
X118025019Y-93894298D01*
X118206302Y-93782052D01*
X118363872Y-93638407D01*
X118492366Y-93468255D01*
X118587405Y-93277389D01*
X118645756Y-93072310D01*
X118665429Y-92860000D01*
X118645756Y-92647690D01*
X118587405Y-92442611D01*
X118492366Y-92251745D01*
X118363872Y-92081593D01*
X118292298Y-92016344D01*
X118206307Y-91937952D01*
X118206300Y-91937946D01*
X118025024Y-91825705D01*
X118025019Y-91825702D01*
X117826195Y-91748678D01*
X117616610Y-91709500D01*
X117403390Y-91709500D01*
X117193804Y-91748678D01*
X116994980Y-91825702D01*
X116994975Y-91825705D01*
X116813699Y-91937946D01*
X116813692Y-91937952D01*
X116656135Y-92081586D01*
X116656131Y-92081589D01*
X116656128Y-92081593D01*
X116656125Y-92081597D01*
X116527635Y-92251743D01*
X116527630Y-92251752D01*
X116451508Y-92404628D01*
X116408646Y-92448290D01*
X116362887Y-92459500D01*
X116175900Y-92459500D01*
X116117709Y-92440593D01*
X116081745Y-92391093D01*
X116081745Y-92329907D01*
X116105896Y-92290496D01*
X116983324Y-91413067D01*
X117037841Y-91385290D01*
X117089090Y-91390756D01*
X117165869Y-91420500D01*
X117193802Y-91431321D01*
X117403390Y-91470500D01*
X117616610Y-91470500D01*
X117826198Y-91431321D01*
X118025019Y-91354298D01*
X118206302Y-91242052D01*
X118363872Y-91098407D01*
X118492366Y-90928255D01*
X118587405Y-90737389D01*
X118645756Y-90532310D01*
X118665429Y-90320000D01*
X118645756Y-90107690D01*
X118587405Y-89902611D01*
X118492366Y-89711745D01*
X118363872Y-89541593D01*
X118301159Y-89484422D01*
X118206307Y-89397952D01*
X118206300Y-89397946D01*
X118025024Y-89285705D01*
X118025019Y-89285702D01*
X117826195Y-89208678D01*
X117616610Y-89169500D01*
X117403390Y-89169500D01*
X117193804Y-89208678D01*
X116994980Y-89285702D01*
X116994975Y-89285705D01*
X116813699Y-89397946D01*
X116813692Y-89397952D01*
X116656135Y-89541586D01*
X116656131Y-89541589D01*
X116656128Y-89541593D01*
X116656125Y-89541597D01*
X116527635Y-89711743D01*
X116527630Y-89711752D01*
X116432596Y-89902608D01*
X116374244Y-90107688D01*
X116354571Y-90320000D01*
X116374244Y-90532311D01*
X116432598Y-90737401D01*
X116434249Y-90741661D01*
X116432870Y-90742195D01*
X116440977Y-90796647D01*
X116413348Y-90850257D01*
X112910504Y-94353102D01*
X112855987Y-94380879D01*
X112795555Y-94371308D01*
X112752290Y-94328043D01*
X112741500Y-94283098D01*
X112741500Y-89218901D01*
X112760407Y-89160710D01*
X112770496Y-89148897D01*
X113709897Y-88209496D01*
X113764414Y-88181719D01*
X113779901Y-88180500D01*
X116362887Y-88180500D01*
X116421078Y-88199407D01*
X116451508Y-88235372D01*
X116527634Y-88388255D01*
X116656128Y-88558407D01*
X116656135Y-88558413D01*
X116813692Y-88702047D01*
X116813699Y-88702053D01*
X116858060Y-88729520D01*
X116994981Y-88814298D01*
X117193802Y-88891321D01*
X117403390Y-88930500D01*
X117616610Y-88930500D01*
X117826198Y-88891321D01*
X118025019Y-88814298D01*
X118206302Y-88702052D01*
X118363872Y-88558407D01*
X118492366Y-88388255D01*
X118587405Y-88197389D01*
X118645756Y-87992310D01*
X118665429Y-87780000D01*
X120214785Y-87780000D01*
X120233603Y-87983083D01*
X120289418Y-88179250D01*
X120380327Y-88361821D01*
X120503236Y-88524579D01*
X120653959Y-88661981D01*
X120827363Y-88769348D01*
X121017544Y-88843024D01*
X121218024Y-88880500D01*
X121421976Y-88880500D01*
X121622456Y-88843024D01*
X121812637Y-88769348D01*
X121986041Y-88661981D01*
X122136764Y-88524579D01*
X122259673Y-88361821D01*
X122350582Y-88179250D01*
X122406397Y-87983083D01*
X122425215Y-87780000D01*
X122406397Y-87576917D01*
X122350582Y-87380750D01*
X122259673Y-87198179D01*
X122136764Y-87035421D01*
X121986041Y-86898019D01*
X121812637Y-86790652D01*
X121622456Y-86716976D01*
X121622455Y-86716975D01*
X121622453Y-86716975D01*
X121421976Y-86679500D01*
X121218024Y-86679500D01*
X121017546Y-86716975D01*
X120947632Y-86744059D01*
X120827363Y-86790652D01*
X120653959Y-86898019D01*
X120503236Y-87035421D01*
X120464057Y-87087302D01*
X120380328Y-87198177D01*
X120380323Y-87198186D01*
X120298450Y-87362611D01*
X120289418Y-87380750D01*
X120233603Y-87576917D01*
X120214785Y-87780000D01*
X118665429Y-87780000D01*
X118645756Y-87567690D01*
X118587405Y-87362611D01*
X118492366Y-87171745D01*
X118363872Y-87001593D01*
X118283848Y-86928641D01*
X118206307Y-86857952D01*
X118206300Y-86857946D01*
X118025024Y-86745705D01*
X118025019Y-86745702D01*
X117826195Y-86668678D01*
X117616610Y-86629500D01*
X117403390Y-86629500D01*
X117193804Y-86668678D01*
X116994980Y-86745702D01*
X116994975Y-86745705D01*
X116813699Y-86857946D01*
X116813692Y-86857952D01*
X116656135Y-87001586D01*
X116656131Y-87001589D01*
X116656128Y-87001593D01*
X116656125Y-87001597D01*
X116527635Y-87171743D01*
X116527630Y-87171752D01*
X116451508Y-87324628D01*
X116408646Y-87368290D01*
X116362887Y-87379500D01*
X114201587Y-87379500D01*
X114143396Y-87360593D01*
X114107432Y-87311093D01*
X114107432Y-87249907D01*
X114131583Y-87210496D01*
X115672582Y-85669496D01*
X115727099Y-85641719D01*
X115742586Y-85640500D01*
X116362887Y-85640500D01*
X116421078Y-85659407D01*
X116451508Y-85695372D01*
X116527634Y-85848255D01*
X116656128Y-86018407D01*
X116700913Y-86059234D01*
X116813692Y-86162047D01*
X116813699Y-86162053D01*
X116852367Y-86185995D01*
X116994981Y-86274298D01*
X117193802Y-86351321D01*
X117403390Y-86390500D01*
X117616610Y-86390500D01*
X117826198Y-86351321D01*
X118025019Y-86274298D01*
X118206302Y-86162052D01*
X118363872Y-86018407D01*
X118492366Y-85848255D01*
X118587405Y-85657389D01*
X118645756Y-85452310D01*
X118665429Y-85240000D01*
X118645756Y-85027690D01*
X118587405Y-84822611D01*
X118492366Y-84631745D01*
X118363872Y-84461593D01*
X118309623Y-84412139D01*
X118206307Y-84317952D01*
X118206300Y-84317946D01*
X118025024Y-84205705D01*
X118025019Y-84205702D01*
X117923191Y-84166254D01*
X117826198Y-84128679D01*
X117826197Y-84128678D01*
X117826195Y-84128678D01*
X117616610Y-84089500D01*
X117403390Y-84089500D01*
X117193804Y-84128678D01*
X116994980Y-84205702D01*
X116994975Y-84205705D01*
X116813699Y-84317946D01*
X116813692Y-84317952D01*
X116656135Y-84461586D01*
X116656131Y-84461589D01*
X116656128Y-84461593D01*
X116656125Y-84461597D01*
X116527635Y-84631743D01*
X116527630Y-84631752D01*
X116451508Y-84784628D01*
X116408646Y-84828290D01*
X116362887Y-84839500D01*
X116175900Y-84839500D01*
X116117709Y-84820593D01*
X116081745Y-84771093D01*
X116081745Y-84709907D01*
X116105896Y-84670496D01*
X116983324Y-83793067D01*
X117037841Y-83765290D01*
X117089090Y-83770756D01*
X117165869Y-83800500D01*
X117193802Y-83811321D01*
X117403390Y-83850500D01*
X117616610Y-83850500D01*
X117826198Y-83811321D01*
X118025019Y-83734298D01*
X118206302Y-83622052D01*
X118363872Y-83478407D01*
X118492366Y-83308255D01*
X118587405Y-83117389D01*
X118633480Y-82955452D01*
X118667590Y-82904660D01*
X118725042Y-82883616D01*
X118783892Y-82900360D01*
G37*
G04 #@! TD.AperFunction*
G04 #@! TA.AperFunction,Conductor*
G36*
X125133875Y-70075805D02*
G01*
X125309097Y-70089594D01*
X125324430Y-70092023D01*
X125491550Y-70132145D01*
X125506317Y-70136943D01*
X125665104Y-70202715D01*
X125678926Y-70209758D01*
X125825469Y-70299560D01*
X125838032Y-70308688D01*
X125968717Y-70420303D01*
X125979699Y-70431285D01*
X126091311Y-70561967D01*
X126100440Y-70574532D01*
X126190238Y-70721068D01*
X126197287Y-70734902D01*
X126263054Y-70893678D01*
X126267855Y-70908453D01*
X126307975Y-71075564D01*
X126310405Y-71090907D01*
X126324195Y-71266123D01*
X126324500Y-71273891D01*
X126324500Y-137306108D01*
X126324195Y-137313876D01*
X126310405Y-137489092D01*
X126307975Y-137504435D01*
X126267855Y-137671546D01*
X126263054Y-137686321D01*
X126197287Y-137845097D01*
X126190234Y-137858939D01*
X126100442Y-138005465D01*
X126091311Y-138018032D01*
X125979699Y-138148714D01*
X125968714Y-138159699D01*
X125838032Y-138271311D01*
X125825465Y-138280442D01*
X125678939Y-138370234D01*
X125665097Y-138377287D01*
X125506321Y-138443054D01*
X125491546Y-138447855D01*
X125324435Y-138487975D01*
X125309092Y-138490405D01*
X125149743Y-138502946D01*
X125133874Y-138504195D01*
X125126108Y-138504500D01*
X102273892Y-138504500D01*
X102266125Y-138504195D01*
X102247014Y-138502691D01*
X102090907Y-138490405D01*
X102075564Y-138487975D01*
X101908453Y-138447855D01*
X101893678Y-138443054D01*
X101734902Y-138377287D01*
X101721068Y-138370238D01*
X101574532Y-138280440D01*
X101561967Y-138271311D01*
X101462706Y-138186535D01*
X101431282Y-138159696D01*
X101420303Y-138148717D01*
X101308688Y-138018032D01*
X101299560Y-138005469D01*
X101209758Y-137858926D01*
X101202715Y-137845104D01*
X101136943Y-137686317D01*
X101132144Y-137671546D01*
X101092024Y-137504435D01*
X101089594Y-137489097D01*
X101075805Y-137313875D01*
X101075500Y-137306108D01*
X101075500Y-94050943D01*
X101669499Y-94050943D01*
X101669499Y-94050945D01*
X101669499Y-94217031D01*
X101669500Y-94217044D01*
X101669500Y-126996944D01*
X101669499Y-126996962D01*
X101669499Y-127003024D01*
X101669499Y-127161138D01*
X101682489Y-127209615D01*
X101710423Y-127313866D01*
X101710425Y-127313870D01*
X101722299Y-127334437D01*
X101751899Y-127385705D01*
X101789480Y-127450797D01*
X101901284Y-127562601D01*
X101901286Y-127562602D01*
X108207397Y-133868713D01*
X108207399Y-133868716D01*
X108319203Y-133980520D01*
X108319205Y-133980521D01*
X108319208Y-133980524D01*
X108319207Y-133980524D01*
X108406010Y-134030637D01*
X108406012Y-134030639D01*
X108406013Y-134030639D01*
X108428835Y-134043815D01*
X108456134Y-134059577D01*
X108608862Y-134100500D01*
X108852482Y-134100500D01*
X108910673Y-134119407D01*
X108931483Y-134139836D01*
X109036128Y-134278407D01*
X109036135Y-134278413D01*
X109193692Y-134422047D01*
X109193699Y-134422053D01*
X109297389Y-134486255D01*
X109374981Y-134534298D01*
X109573802Y-134611321D01*
X109783390Y-134650500D01*
X109996610Y-134650500D01*
X110206198Y-134611321D01*
X110405019Y-134534298D01*
X110586302Y-134422052D01*
X110743872Y-134278407D01*
X110848515Y-134139838D01*
X110898671Y-134104796D01*
X110927518Y-134100500D01*
X112731943Y-134100500D01*
X116472482Y-134100500D01*
X116530673Y-134119407D01*
X116551483Y-134139836D01*
X116656128Y-134278407D01*
X116656135Y-134278413D01*
X116813692Y-134422047D01*
X116813699Y-134422053D01*
X116917389Y-134486255D01*
X116994981Y-134534298D01*
X117193802Y-134611321D01*
X117403390Y-134650500D01*
X117616610Y-134650500D01*
X117826198Y-134611321D01*
X118025019Y-134534298D01*
X118206302Y-134422052D01*
X118363872Y-134278407D01*
X118492366Y-134108255D01*
X118587405Y-133917389D01*
X118645756Y-133712310D01*
X118665429Y-133500000D01*
X118645756Y-133287690D01*
X118587405Y-133082611D01*
X118492366Y-132891745D01*
X118363872Y-132721593D01*
X118309623Y-132672139D01*
X118206307Y-132577952D01*
X118206300Y-132577946D01*
X118025024Y-132465705D01*
X118025019Y-132465702D01*
X117826195Y-132388678D01*
X117616610Y-132349500D01*
X117403390Y-132349500D01*
X117193804Y-132388678D01*
X116994980Y-132465702D01*
X116994975Y-132465705D01*
X116813699Y-132577946D01*
X116813692Y-132577952D01*
X116656135Y-132721586D01*
X116656131Y-132721589D01*
X116656128Y-132721593D01*
X116551484Y-132860161D01*
X116501329Y-132895204D01*
X116472482Y-132899500D01*
X113249499Y-132899500D01*
X113191308Y-132880593D01*
X113155344Y-132831093D01*
X113150499Y-132800500D01*
X113150499Y-131856579D01*
X113169406Y-131798388D01*
X113218906Y-131762424D01*
X113260081Y-131758146D01*
X113321976Y-131764800D01*
X113449999Y-131764800D01*
X113450000Y-131764799D01*
X113450000Y-130702001D01*
X113950000Y-130702001D01*
X113950000Y-131764799D01*
X113950001Y-131764800D01*
X114078024Y-131764800D01*
X114137570Y-131758398D01*
X114137581Y-131758396D01*
X114272288Y-131708153D01*
X114272290Y-131708152D01*
X114387384Y-131621992D01*
X114387392Y-131621984D01*
X114473552Y-131506890D01*
X114473553Y-131506888D01*
X114523796Y-131372181D01*
X114523798Y-131372170D01*
X114530200Y-131312624D01*
X114530200Y-130702001D01*
X114530199Y-130702000D01*
X113950001Y-130702000D01*
X113950000Y-130702001D01*
X113450000Y-130702001D01*
X113450000Y-129139201D01*
X113950000Y-129139201D01*
X113950000Y-130201999D01*
X113950001Y-130202000D01*
X114530199Y-130202000D01*
X114530200Y-130201999D01*
X114530200Y-129674600D01*
X114549107Y-129616409D01*
X114598607Y-129580445D01*
X114659793Y-129580445D01*
X114699201Y-129604594D01*
X116300518Y-131205910D01*
X116300520Y-131205913D01*
X116375087Y-131280480D01*
X116376160Y-131281100D01*
X116376756Y-131281761D01*
X116380238Y-131284433D01*
X116379742Y-131285078D01*
X116417102Y-131326567D01*
X116421883Y-131339744D01*
X116431110Y-131372170D01*
X116432595Y-131377389D01*
X116527634Y-131568255D01*
X116656128Y-131738407D01*
X116685080Y-131764800D01*
X116813692Y-131882047D01*
X116813699Y-131882053D01*
X116917389Y-131946255D01*
X116994981Y-131994298D01*
X117193802Y-132071321D01*
X117403390Y-132110500D01*
X117616610Y-132110500D01*
X117826198Y-132071321D01*
X118025019Y-131994298D01*
X118206302Y-131882052D01*
X118363872Y-131738407D01*
X118492366Y-131568255D01*
X118587405Y-131377389D01*
X118645756Y-131172310D01*
X118665429Y-130960000D01*
X118645756Y-130747690D01*
X118587405Y-130542611D01*
X118492366Y-130351745D01*
X118363872Y-130181593D01*
X118309623Y-130132139D01*
X118206307Y-130037952D01*
X118206300Y-130037946D01*
X118025024Y-129925705D01*
X118025019Y-129925702D01*
X117826195Y-129848678D01*
X117616610Y-129809500D01*
X117403390Y-129809500D01*
X117193804Y-129848678D01*
X116994980Y-129925702D01*
X116994975Y-129925705D01*
X116813699Y-130037946D01*
X116813692Y-130037952D01*
X116656135Y-130181586D01*
X116656131Y-130181589D01*
X116656128Y-130181593D01*
X116656125Y-130181596D01*
X116656123Y-130181599D01*
X116618354Y-130231613D01*
X116568198Y-130266655D01*
X116507023Y-130265524D01*
X116469347Y-130241955D01*
X115309696Y-129082304D01*
X115281919Y-129027787D01*
X115280700Y-129012300D01*
X115280700Y-128420000D01*
X116354571Y-128420000D01*
X116374244Y-128632310D01*
X116432595Y-128837389D01*
X116527634Y-129028255D01*
X116656128Y-129198407D01*
X116656135Y-129198413D01*
X116813692Y-129342047D01*
X116813699Y-129342053D01*
X116883071Y-129385006D01*
X116994981Y-129454298D01*
X117193802Y-129531321D01*
X117403390Y-129570500D01*
X117616610Y-129570500D01*
X117826198Y-129531321D01*
X118025019Y-129454298D01*
X118206302Y-129342052D01*
X118363872Y-129198407D01*
X118492366Y-129028255D01*
X118587405Y-128837389D01*
X118645756Y-128632310D01*
X118665429Y-128420000D01*
X118645756Y-128207690D01*
X118587405Y-128002611D01*
X118492366Y-127811745D01*
X118363872Y-127641593D01*
X118277224Y-127562602D01*
X118206307Y-127497952D01*
X118206300Y-127497946D01*
X118025024Y-127385705D01*
X118025019Y-127385702D01*
X117826198Y-127308679D01*
X117826197Y-127308678D01*
X117826195Y-127308678D01*
X117616610Y-127269500D01*
X117403390Y-127269500D01*
X117193804Y-127308678D01*
X116994980Y-127385702D01*
X116994975Y-127385705D01*
X116813699Y-127497946D01*
X116813692Y-127497952D01*
X116656135Y-127641586D01*
X116656131Y-127641589D01*
X116656128Y-127641593D01*
X116656125Y-127641597D01*
X116527635Y-127811743D01*
X116527630Y-127811752D01*
X116432596Y-128002608D01*
X116374244Y-128207688D01*
X116374244Y-128207690D01*
X116354571Y-128420000D01*
X115280700Y-128420000D01*
X115280700Y-127462339D01*
X115280700Y-127462336D01*
X115277786Y-127437209D01*
X115232407Y-127334435D01*
X115152966Y-127254994D01*
X115050192Y-127209615D01*
X115050191Y-127209614D01*
X115050189Y-127209614D01*
X115025069Y-127206700D01*
X114274940Y-127206700D01*
X114274937Y-127206701D01*
X114249810Y-127209614D01*
X114147036Y-127254994D01*
X114067595Y-127334435D01*
X114022215Y-127437211D01*
X114019301Y-127462330D01*
X114019301Y-127462332D01*
X114019302Y-129040200D01*
X114000395Y-129098391D01*
X113965343Y-129123857D01*
X113950000Y-129139201D01*
X113450000Y-129139201D01*
X113435704Y-129124905D01*
X113421508Y-129120293D01*
X113385544Y-129070793D01*
X113380699Y-129040200D01*
X113380698Y-127462339D01*
X113380698Y-127462336D01*
X113377784Y-127437209D01*
X113332405Y-127334435D01*
X113252964Y-127254994D01*
X113150190Y-127209615D01*
X113150189Y-127209614D01*
X113150187Y-127209614D01*
X113125067Y-127206700D01*
X112374938Y-127206700D01*
X112374935Y-127206701D01*
X112349808Y-127209614D01*
X112247034Y-127254994D01*
X112167593Y-127334435D01*
X112122213Y-127437211D01*
X112119299Y-127462330D01*
X112119299Y-129177660D01*
X112119300Y-129177663D01*
X112122213Y-129202790D01*
X112147555Y-129260185D01*
X112167593Y-129305565D01*
X112247034Y-129385006D01*
X112290487Y-129404192D01*
X112336082Y-129444991D01*
X112349499Y-129494756D01*
X112349499Y-132800500D01*
X112330592Y-132858691D01*
X112281092Y-132894655D01*
X112250499Y-132899500D01*
X110927518Y-132899500D01*
X110869327Y-132880593D01*
X110848516Y-132860163D01*
X110743872Y-132721593D01*
X110689623Y-132672139D01*
X110586307Y-132577952D01*
X110586300Y-132577946D01*
X110405024Y-132465705D01*
X110405019Y-132465702D01*
X110206195Y-132388678D01*
X109996610Y-132349500D01*
X109783390Y-132349500D01*
X109573804Y-132388678D01*
X109374980Y-132465702D01*
X109374975Y-132465705D01*
X109193699Y-132577946D01*
X109193692Y-132577952D01*
X109036135Y-132721586D01*
X109036119Y-132721603D01*
X108985344Y-132788840D01*
X108935188Y-132823883D01*
X108874013Y-132822752D01*
X108836337Y-132799183D01*
X106997154Y-130960000D01*
X108734571Y-130960000D01*
X108754244Y-131172310D01*
X108812595Y-131377389D01*
X108907634Y-131568255D01*
X109036128Y-131738407D01*
X109065080Y-131764800D01*
X109193692Y-131882047D01*
X109193699Y-131882053D01*
X109297389Y-131946255D01*
X109374981Y-131994298D01*
X109573802Y-132071321D01*
X109783390Y-132110500D01*
X109996610Y-132110500D01*
X110206198Y-132071321D01*
X110405019Y-131994298D01*
X110586302Y-131882052D01*
X110743872Y-131738407D01*
X110872366Y-131568255D01*
X110967405Y-131377389D01*
X111025756Y-131172310D01*
X111045429Y-130960000D01*
X111025756Y-130747690D01*
X110967405Y-130542611D01*
X110872366Y-130351745D01*
X110743872Y-130181593D01*
X110689623Y-130132139D01*
X110586307Y-130037952D01*
X110586300Y-130037946D01*
X110405024Y-129925705D01*
X110405019Y-129925702D01*
X110206195Y-129848678D01*
X109996610Y-129809500D01*
X109783390Y-129809500D01*
X109573804Y-129848678D01*
X109374980Y-129925702D01*
X109374975Y-129925705D01*
X109193699Y-130037946D01*
X109193692Y-130037952D01*
X109036135Y-130181586D01*
X109036131Y-130181589D01*
X109036128Y-130181593D01*
X109036125Y-130181597D01*
X108907635Y-130351743D01*
X108907630Y-130351752D01*
X108812596Y-130542608D01*
X108754244Y-130747688D01*
X108754244Y-130747690D01*
X108734571Y-130960000D01*
X106997154Y-130960000D01*
X104457154Y-128420000D01*
X108734571Y-128420000D01*
X108754244Y-128632310D01*
X108812595Y-128837389D01*
X108907634Y-129028255D01*
X109036128Y-129198407D01*
X109036135Y-129198413D01*
X109193692Y-129342047D01*
X109193699Y-129342053D01*
X109263071Y-129385006D01*
X109374981Y-129454298D01*
X109573802Y-129531321D01*
X109783390Y-129570500D01*
X109996610Y-129570500D01*
X110206198Y-129531321D01*
X110405019Y-129454298D01*
X110586302Y-129342052D01*
X110743872Y-129198407D01*
X110872366Y-129028255D01*
X110967405Y-128837389D01*
X111025756Y-128632310D01*
X111045429Y-128420000D01*
X111025756Y-128207690D01*
X110967405Y-128002611D01*
X110872366Y-127811745D01*
X110743872Y-127641593D01*
X110657224Y-127562602D01*
X110586307Y-127497952D01*
X110586300Y-127497946D01*
X110405024Y-127385705D01*
X110405019Y-127385702D01*
X110206198Y-127308679D01*
X110206197Y-127308678D01*
X110206195Y-127308678D01*
X109996610Y-127269500D01*
X109783390Y-127269500D01*
X109573804Y-127308678D01*
X109374980Y-127385702D01*
X109374975Y-127385705D01*
X109193699Y-127497946D01*
X109193692Y-127497952D01*
X109036135Y-127641586D01*
X109036131Y-127641589D01*
X109036128Y-127641593D01*
X109036125Y-127641597D01*
X108907635Y-127811743D01*
X108907630Y-127811752D01*
X108812596Y-128002608D01*
X108754244Y-128207688D01*
X108754244Y-128207690D01*
X108734571Y-128420000D01*
X104457154Y-128420000D01*
X102899496Y-126862342D01*
X102871719Y-126807825D01*
X102870500Y-126792338D01*
X102870500Y-94419743D01*
X102889407Y-94361552D01*
X102899496Y-94349739D01*
X103523339Y-93725896D01*
X103577856Y-93698119D01*
X103593343Y-93696900D01*
X103819616Y-93696900D01*
X103819618Y-93696900D01*
X103906077Y-93686517D01*
X104043658Y-93632262D01*
X104161500Y-93542900D01*
X104195108Y-93498580D01*
X104245335Y-93463638D01*
X104273992Y-93459400D01*
X105104306Y-93459400D01*
X105162497Y-93478307D01*
X105183307Y-93498736D01*
X105263236Y-93604579D01*
X105326701Y-93662435D01*
X105356966Y-93715608D01*
X105350195Y-93776418D01*
X105330008Y-93805599D01*
X103981516Y-95154091D01*
X103928793Y-95245411D01*
X103928792Y-95245411D01*
X103928793Y-95245412D01*
X103906110Y-95330067D01*
X103901500Y-95347273D01*
X103901500Y-124430273D01*
X103901500Y-124535727D01*
X103909683Y-124566266D01*
X103928794Y-124637592D01*
X103981516Y-124728908D01*
X103981517Y-124728909D01*
X103981518Y-124728910D01*
X103981520Y-124728913D01*
X104703111Y-125450504D01*
X105378519Y-126125912D01*
X105378520Y-126125913D01*
X105378519Y-126125913D01*
X105453087Y-126200480D01*
X105544413Y-126253207D01*
X105646273Y-126280500D01*
X108742887Y-126280500D01*
X108801078Y-126299407D01*
X108831508Y-126335372D01*
X108907634Y-126488255D01*
X109036128Y-126658407D01*
X109036135Y-126658413D01*
X109193692Y-126802047D01*
X109193699Y-126802053D01*
X109244239Y-126833346D01*
X109374981Y-126914298D01*
X109573802Y-126991321D01*
X109783390Y-127030500D01*
X109996610Y-127030500D01*
X110206198Y-126991321D01*
X110405019Y-126914298D01*
X110586302Y-126802052D01*
X110743872Y-126658407D01*
X110872366Y-126488255D01*
X110967405Y-126297389D01*
X111025756Y-126092310D01*
X111045429Y-125880000D01*
X116354571Y-125880000D01*
X116374244Y-126092310D01*
X116432595Y-126297389D01*
X116527634Y-126488255D01*
X116656128Y-126658407D01*
X116656135Y-126658413D01*
X116813692Y-126802047D01*
X116813699Y-126802053D01*
X116864239Y-126833346D01*
X116994981Y-126914298D01*
X117193802Y-126991321D01*
X117403390Y-127030500D01*
X117616610Y-127030500D01*
X117826198Y-126991321D01*
X118025019Y-126914298D01*
X118206302Y-126802052D01*
X118363872Y-126658407D01*
X118492366Y-126488255D01*
X118587405Y-126297389D01*
X118645756Y-126092310D01*
X118665429Y-125880000D01*
X118645756Y-125667690D01*
X118587405Y-125462611D01*
X118492366Y-125271745D01*
X118363872Y-125101593D01*
X118309623Y-125052139D01*
X118206307Y-124957952D01*
X118206300Y-124957946D01*
X118025024Y-124845705D01*
X118025019Y-124845702D01*
X117826195Y-124768678D01*
X117616610Y-124729500D01*
X117403390Y-124729500D01*
X117193804Y-124768678D01*
X116994980Y-124845702D01*
X116994975Y-124845705D01*
X116813699Y-124957946D01*
X116813692Y-124957952D01*
X116656135Y-125101586D01*
X116656131Y-125101589D01*
X116656128Y-125101593D01*
X116656125Y-125101597D01*
X116527635Y-125271743D01*
X116527630Y-125271752D01*
X116432596Y-125462608D01*
X116374244Y-125667688D01*
X116374244Y-125667690D01*
X116354571Y-125880000D01*
X111045429Y-125880000D01*
X111025756Y-125667690D01*
X110967405Y-125462611D01*
X110872366Y-125271745D01*
X110743872Y-125101593D01*
X110689623Y-125052139D01*
X110586307Y-124957952D01*
X110586300Y-124957946D01*
X110405024Y-124845705D01*
X110405019Y-124845702D01*
X110206195Y-124768678D01*
X109996610Y-124729500D01*
X109783390Y-124729500D01*
X109573804Y-124768678D01*
X109374980Y-124845702D01*
X109374975Y-124845705D01*
X109193699Y-124957946D01*
X109193692Y-124957952D01*
X109036135Y-125101586D01*
X109036131Y-125101589D01*
X109036128Y-125101593D01*
X109036125Y-125101597D01*
X108907635Y-125271743D01*
X108907630Y-125271752D01*
X108831508Y-125424628D01*
X108788646Y-125468290D01*
X108742887Y-125479500D01*
X105905901Y-125479500D01*
X105847710Y-125460593D01*
X105835897Y-125450504D01*
X104731496Y-124346103D01*
X104703719Y-124291586D01*
X104702500Y-124276099D01*
X104702500Y-120800000D01*
X104974785Y-120800000D01*
X104993603Y-121003083D01*
X105049418Y-121199250D01*
X105140327Y-121381821D01*
X105263236Y-121544579D01*
X105413959Y-121681981D01*
X105587363Y-121789348D01*
X105777544Y-121863024D01*
X105978024Y-121900500D01*
X106181976Y-121900500D01*
X106382456Y-121863024D01*
X106572637Y-121789348D01*
X106746041Y-121681981D01*
X106896764Y-121544579D01*
X107019673Y-121381821D01*
X107110582Y-121199250D01*
X107166397Y-121003083D01*
X107185215Y-120800000D01*
X107166397Y-120596917D01*
X107110582Y-120400750D01*
X107019673Y-120218179D01*
X106896764Y-120055421D01*
X106746041Y-119918019D01*
X106572637Y-119810652D01*
X106382456Y-119736976D01*
X106382455Y-119736975D01*
X106382453Y-119736975D01*
X106181976Y-119699500D01*
X105978024Y-119699500D01*
X105777546Y-119736975D01*
X105707632Y-119764059D01*
X105587363Y-119810652D01*
X105437881Y-119903207D01*
X105413959Y-119918019D01*
X105263237Y-120055420D01*
X105140328Y-120218177D01*
X105140323Y-120218186D01*
X105058450Y-120382611D01*
X105049418Y-120400750D01*
X104993603Y-120596917D01*
X104974785Y-120800000D01*
X104702500Y-120800000D01*
X104702500Y-118260000D01*
X104974785Y-118260000D01*
X104993603Y-118463083D01*
X105049418Y-118659250D01*
X105140327Y-118841821D01*
X105263236Y-119004579D01*
X105413959Y-119141981D01*
X105587363Y-119249348D01*
X105777544Y-119323024D01*
X105978024Y-119360500D01*
X106181976Y-119360500D01*
X106382456Y-119323024D01*
X106572637Y-119249348D01*
X106746041Y-119141981D01*
X106896764Y-119004579D01*
X107019673Y-118841821D01*
X107110582Y-118659250D01*
X107166397Y-118463083D01*
X107185215Y-118260000D01*
X107166397Y-118056917D01*
X107110582Y-117860750D01*
X107019673Y-117678179D01*
X106896764Y-117515421D01*
X106746041Y-117378019D01*
X106572637Y-117270652D01*
X106382456Y-117196976D01*
X106382455Y-117196975D01*
X106382453Y-117196975D01*
X106181976Y-117159500D01*
X105978024Y-117159500D01*
X105777546Y-117196975D01*
X105707632Y-117224059D01*
X105587363Y-117270652D01*
X105437881Y-117363207D01*
X105413959Y-117378019D01*
X105263237Y-117515420D01*
X105140328Y-117678177D01*
X105140323Y-117678186D01*
X105058450Y-117842611D01*
X105049418Y-117860750D01*
X104993603Y-118056917D01*
X104974785Y-118260000D01*
X104702500Y-118260000D01*
X104702500Y-115720000D01*
X104974785Y-115720000D01*
X104993603Y-115923083D01*
X105049418Y-116119250D01*
X105140327Y-116301821D01*
X105263236Y-116464579D01*
X105413959Y-116601981D01*
X105587363Y-116709348D01*
X105777544Y-116783024D01*
X105978024Y-116820500D01*
X106181976Y-116820500D01*
X106382456Y-116783024D01*
X106572637Y-116709348D01*
X106746041Y-116601981D01*
X106896764Y-116464579D01*
X107019673Y-116301821D01*
X107110582Y-116119250D01*
X107166397Y-115923083D01*
X107185215Y-115720000D01*
X107166397Y-115516917D01*
X107110582Y-115320750D01*
X107019673Y-115138179D01*
X106896764Y-114975421D01*
X106746041Y-114838019D01*
X106572637Y-114730652D01*
X106382456Y-114656976D01*
X106382455Y-114656975D01*
X106382453Y-114656975D01*
X106181976Y-114619500D01*
X105978024Y-114619500D01*
X105777546Y-114656975D01*
X105707632Y-114684059D01*
X105587363Y-114730652D01*
X105478676Y-114797948D01*
X105413959Y-114838019D01*
X105263237Y-114975420D01*
X105140328Y-115138177D01*
X105140323Y-115138186D01*
X105058450Y-115302611D01*
X105049418Y-115320750D01*
X104993603Y-115516917D01*
X104974785Y-115720000D01*
X104702500Y-115720000D01*
X104702500Y-95606899D01*
X104721407Y-95548708D01*
X104731484Y-95536908D01*
X104816642Y-95451750D01*
X104871156Y-95423975D01*
X104931588Y-95433546D01*
X104974853Y-95476811D01*
X104985220Y-95512619D01*
X104993603Y-95603083D01*
X105049418Y-95799250D01*
X105140327Y-95981821D01*
X105263236Y-96144579D01*
X105413959Y-96281981D01*
X105587363Y-96389348D01*
X105777544Y-96463024D01*
X105978024Y-96500500D01*
X106181976Y-96500500D01*
X106382456Y-96463024D01*
X106572637Y-96389348D01*
X106746041Y-96281981D01*
X106896764Y-96144579D01*
X106987498Y-96024427D01*
X107037652Y-95989386D01*
X107098827Y-95990517D01*
X107147654Y-96027389D01*
X107165500Y-96084090D01*
X107165500Y-96247098D01*
X107146593Y-96305289D01*
X107136504Y-96317102D01*
X106568025Y-96885580D01*
X106513508Y-96913357D01*
X106462259Y-96907891D01*
X106382460Y-96876977D01*
X106382447Y-96876974D01*
X106181976Y-96839500D01*
X105978024Y-96839500D01*
X105777546Y-96876975D01*
X105755334Y-96885580D01*
X105587363Y-96950652D01*
X105413959Y-97058019D01*
X105263236Y-97195421D01*
X105238553Y-97228107D01*
X105140328Y-97358177D01*
X105140323Y-97358186D01*
X105058450Y-97522611D01*
X105049418Y-97540750D01*
X104993603Y-97736917D01*
X104974785Y-97940000D01*
X104993603Y-98143083D01*
X105049418Y-98339250D01*
X105140327Y-98521821D01*
X105263236Y-98684579D01*
X105413959Y-98821981D01*
X105587363Y-98929348D01*
X105777544Y-99003024D01*
X105978024Y-99040500D01*
X106181976Y-99040500D01*
X106382456Y-99003024D01*
X106572637Y-98929348D01*
X106746041Y-98821981D01*
X106896764Y-98684579D01*
X107019673Y-98521821D01*
X107110582Y-98339250D01*
X107166397Y-98143083D01*
X107185215Y-97940000D01*
X107166397Y-97736917D01*
X107112118Y-97546148D01*
X107114379Y-97485008D01*
X107137334Y-97449058D01*
X107396498Y-97189894D01*
X107451013Y-97162118D01*
X107511445Y-97171689D01*
X107554710Y-97214954D01*
X107565500Y-97259899D01*
X107565500Y-98387099D01*
X107546593Y-98445290D01*
X107536504Y-98457103D01*
X106568026Y-99425580D01*
X106513509Y-99453357D01*
X106462260Y-99447891D01*
X106382456Y-99416976D01*
X106181976Y-99379500D01*
X105978024Y-99379500D01*
X105777546Y-99416975D01*
X105755334Y-99425580D01*
X105587363Y-99490652D01*
X105478676Y-99557948D01*
X105413959Y-99598019D01*
X105263237Y-99735420D01*
X105140328Y-99898177D01*
X105140323Y-99898186D01*
X105058450Y-100062611D01*
X105049418Y-100080750D01*
X104993603Y-100276917D01*
X104974785Y-100480000D01*
X104993603Y-100683083D01*
X105041409Y-100851102D01*
X105049419Y-100879252D01*
X105129823Y-101040727D01*
X105140327Y-101061821D01*
X105263236Y-101224579D01*
X105413959Y-101361981D01*
X105587363Y-101469348D01*
X105777544Y-101543024D01*
X105978024Y-101580500D01*
X106181976Y-101580500D01*
X106382456Y-101543024D01*
X106572637Y-101469348D01*
X106746041Y-101361981D01*
X106896764Y-101224579D01*
X106898494Y-101222287D01*
X106899482Y-101221596D01*
X106899847Y-101221197D01*
X106899937Y-101221279D01*
X106948645Y-101187242D01*
X107009820Y-101188368D01*
X107058650Y-101225237D01*
X107076500Y-101281944D01*
X107076500Y-101416098D01*
X107057593Y-101474289D01*
X107047503Y-101486102D01*
X106568024Y-101965580D01*
X106513508Y-101993357D01*
X106462259Y-101987891D01*
X106382460Y-101956977D01*
X106382447Y-101956974D01*
X106181976Y-101919500D01*
X105978024Y-101919500D01*
X105777546Y-101956975D01*
X105777541Y-101956977D01*
X105587363Y-102030652D01*
X105413959Y-102138019D01*
X105263236Y-102275421D01*
X105223388Y-102328188D01*
X105140328Y-102438177D01*
X105140323Y-102438186D01*
X105058450Y-102602611D01*
X105049418Y-102620750D01*
X104993603Y-102816917D01*
X104974785Y-103020000D01*
X104993603Y-103223083D01*
X105049418Y-103419250D01*
X105140327Y-103601821D01*
X105263236Y-103764579D01*
X105413959Y-103901981D01*
X105587363Y-104009348D01*
X105777544Y-104083024D01*
X105978024Y-104120500D01*
X106181976Y-104120500D01*
X106382456Y-104083024D01*
X106572637Y-104009348D01*
X106746041Y-103901981D01*
X106896764Y-103764579D01*
X107019673Y-103601821D01*
X107110582Y-103419250D01*
X107166397Y-103223083D01*
X107185215Y-103020000D01*
X107166397Y-102816917D01*
X107112118Y-102626148D01*
X107114379Y-102565008D01*
X107137334Y-102529058D01*
X107396498Y-102269894D01*
X107451013Y-102242118D01*
X107511445Y-102251689D01*
X107554710Y-102294954D01*
X107565500Y-102339899D01*
X107565500Y-103467099D01*
X107546593Y-103525290D01*
X107536504Y-103537103D01*
X106568026Y-104505580D01*
X106513509Y-104533357D01*
X106462260Y-104527891D01*
X106382456Y-104496976D01*
X106181976Y-104459500D01*
X105978024Y-104459500D01*
X105777546Y-104496975D01*
X105755334Y-104505580D01*
X105587363Y-104570652D01*
X105478676Y-104637948D01*
X105413959Y-104678019D01*
X105263237Y-104815420D01*
X105140328Y-104978177D01*
X105140323Y-104978186D01*
X105058450Y-105142611D01*
X105049418Y-105160750D01*
X104993603Y-105356917D01*
X104974785Y-105560000D01*
X104993603Y-105763083D01*
X105049418Y-105959250D01*
X105140327Y-106141821D01*
X105263236Y-106304579D01*
X105413959Y-106441981D01*
X105587363Y-106549348D01*
X105777544Y-106623024D01*
X105978024Y-106660500D01*
X106181976Y-106660500D01*
X106382456Y-106623024D01*
X106572637Y-106549348D01*
X106746041Y-106441981D01*
X106896764Y-106304579D01*
X106898494Y-106302287D01*
X106899482Y-106301596D01*
X106899847Y-106301197D01*
X106899937Y-106301279D01*
X106948645Y-106267242D01*
X107009820Y-106268368D01*
X107058650Y-106305237D01*
X107076500Y-106361944D01*
X107076500Y-106496098D01*
X107057593Y-106554289D01*
X107047503Y-106566102D01*
X106568024Y-107045580D01*
X106513508Y-107073357D01*
X106462259Y-107067891D01*
X106382460Y-107036977D01*
X106382447Y-107036974D01*
X106181976Y-106999500D01*
X105978024Y-106999500D01*
X105777546Y-107036975D01*
X105755334Y-107045580D01*
X105587363Y-107110652D01*
X105413959Y-107218019D01*
X105263236Y-107355421D01*
X105223388Y-107408188D01*
X105140328Y-107518177D01*
X105140323Y-107518186D01*
X105058450Y-107682611D01*
X105049418Y-107700750D01*
X104993603Y-107896917D01*
X104974785Y-108100000D01*
X104993603Y-108303083D01*
X105049418Y-108499250D01*
X105140327Y-108681821D01*
X105263236Y-108844579D01*
X105413959Y-108981981D01*
X105587363Y-109089348D01*
X105777544Y-109163024D01*
X105978024Y-109200500D01*
X106181976Y-109200500D01*
X106382456Y-109163024D01*
X106572637Y-109089348D01*
X106746041Y-108981981D01*
X106896764Y-108844579D01*
X107019673Y-108681821D01*
X107110582Y-108499250D01*
X107166397Y-108303083D01*
X107185215Y-108100000D01*
X107166397Y-107896917D01*
X107112118Y-107706148D01*
X107114379Y-107645008D01*
X107137334Y-107609058D01*
X107396498Y-107349894D01*
X107451013Y-107322118D01*
X107511445Y-107331689D01*
X107554710Y-107374954D01*
X107565500Y-107419899D01*
X107565500Y-108547099D01*
X107546593Y-108605290D01*
X107536504Y-108617103D01*
X106568026Y-109585580D01*
X106513509Y-109613357D01*
X106462260Y-109607891D01*
X106382456Y-109576976D01*
X106181976Y-109539500D01*
X105978024Y-109539500D01*
X105777546Y-109576975D01*
X105755334Y-109585580D01*
X105587363Y-109650652D01*
X105478676Y-109717948D01*
X105413959Y-109758019D01*
X105263237Y-109895420D01*
X105140328Y-110058177D01*
X105140323Y-110058186D01*
X105058450Y-110222611D01*
X105049418Y-110240750D01*
X104993603Y-110436917D01*
X104974785Y-110640000D01*
X104993603Y-110843083D01*
X105049418Y-111039250D01*
X105140327Y-111221821D01*
X105263236Y-111384579D01*
X105413959Y-111521981D01*
X105587363Y-111629348D01*
X105777544Y-111703024D01*
X105978024Y-111740500D01*
X106181976Y-111740500D01*
X106382456Y-111703024D01*
X106572637Y-111629348D01*
X106746041Y-111521981D01*
X106896764Y-111384579D01*
X107019673Y-111221821D01*
X107110582Y-111039250D01*
X107166397Y-110843083D01*
X107185215Y-110640000D01*
X107166397Y-110436917D01*
X107112118Y-110246148D01*
X107114379Y-110185010D01*
X107137333Y-110149058D01*
X107796496Y-109489896D01*
X107851013Y-109462119D01*
X107911445Y-109471690D01*
X107954710Y-109514955D01*
X107965500Y-109559900D01*
X107965500Y-110687098D01*
X107946593Y-110745289D01*
X107936504Y-110757102D01*
X106568025Y-112125580D01*
X106513508Y-112153357D01*
X106462259Y-112147891D01*
X106382460Y-112116977D01*
X106382447Y-112116974D01*
X106181976Y-112079500D01*
X105978024Y-112079500D01*
X105777546Y-112116975D01*
X105777541Y-112116977D01*
X105587363Y-112190652D01*
X105478676Y-112257948D01*
X105413959Y-112298019D01*
X105263237Y-112435420D01*
X105140328Y-112598177D01*
X105140323Y-112598186D01*
X105058450Y-112762611D01*
X105049418Y-112780750D01*
X104993603Y-112976917D01*
X104974785Y-113180000D01*
X104993603Y-113383083D01*
X105049418Y-113579250D01*
X105140327Y-113761821D01*
X105263236Y-113924579D01*
X105413959Y-114061981D01*
X105587363Y-114169348D01*
X105777544Y-114243024D01*
X105978024Y-114280500D01*
X106181976Y-114280500D01*
X106382456Y-114243024D01*
X106572637Y-114169348D01*
X106746041Y-114061981D01*
X106896764Y-113924579D01*
X107019673Y-113761821D01*
X107110582Y-113579250D01*
X107166397Y-113383083D01*
X107185215Y-113180000D01*
X107166397Y-112976917D01*
X107112118Y-112786148D01*
X107114379Y-112725010D01*
X107137333Y-112689058D01*
X108686480Y-111139913D01*
X108686483Y-111139907D01*
X108690431Y-111134764D01*
X108692589Y-111136420D01*
X108729510Y-111103150D01*
X108790358Y-111096730D01*
X108843358Y-111127302D01*
X108858433Y-111149446D01*
X108907634Y-111248255D01*
X109036128Y-111418407D01*
X109036135Y-111418413D01*
X109040517Y-111422408D01*
X109070780Y-111475584D01*
X109064008Y-111536394D01*
X109023320Y-111581302D01*
X109009089Y-111589518D01*
X107537516Y-113061091D01*
X107484793Y-113152411D01*
X107484792Y-113152411D01*
X107484793Y-113152412D01*
X107457500Y-113254273D01*
X107457500Y-121355099D01*
X107438593Y-121413290D01*
X107428504Y-121425103D01*
X106568026Y-122285580D01*
X106513509Y-122313357D01*
X106462260Y-122307891D01*
X106382456Y-122276976D01*
X106181976Y-122239500D01*
X105978024Y-122239500D01*
X105777546Y-122276975D01*
X105755334Y-122285580D01*
X105587363Y-122350652D01*
X105478676Y-122417948D01*
X105413959Y-122458019D01*
X105263237Y-122595420D01*
X105140328Y-122758177D01*
X105140323Y-122758186D01*
X105058450Y-122922611D01*
X105049418Y-122940750D01*
X104993603Y-123136917D01*
X104974785Y-123340000D01*
X104993603Y-123543083D01*
X105049418Y-123739250D01*
X105140327Y-123921821D01*
X105263236Y-124084579D01*
X105413959Y-124221981D01*
X105587363Y-124329348D01*
X105777544Y-124403024D01*
X105978024Y-124440500D01*
X106181976Y-124440500D01*
X106382456Y-124403024D01*
X106572637Y-124329348D01*
X106746041Y-124221981D01*
X106896764Y-124084579D01*
X107019673Y-123921821D01*
X107110582Y-123739250D01*
X107166397Y-123543083D01*
X107185215Y-123340000D01*
X108734571Y-123340000D01*
X108754244Y-123552310D01*
X108812595Y-123757389D01*
X108907634Y-123948255D01*
X109036128Y-124118407D01*
X109036135Y-124118413D01*
X109193692Y-124262047D01*
X109193699Y-124262053D01*
X109241397Y-124291586D01*
X109374981Y-124374298D01*
X109573802Y-124451321D01*
X109783390Y-124490500D01*
X109996610Y-124490500D01*
X110206198Y-124451321D01*
X110405019Y-124374298D01*
X110586302Y-124262052D01*
X110743872Y-124118407D01*
X110872366Y-123948255D01*
X110967405Y-123757389D01*
X111025756Y-123552310D01*
X111045429Y-123340000D01*
X111025756Y-123127690D01*
X110967405Y-122922611D01*
X110872366Y-122731745D01*
X110743872Y-122561593D01*
X110645286Y-122471719D01*
X110586307Y-122417952D01*
X110586300Y-122417946D01*
X110405024Y-122305705D01*
X110405019Y-122305702D01*
X110206195Y-122228678D01*
X109996610Y-122189500D01*
X109783390Y-122189500D01*
X109573804Y-122228678D01*
X109374980Y-122305702D01*
X109374975Y-122305705D01*
X109193699Y-122417946D01*
X109193692Y-122417952D01*
X109036135Y-122561586D01*
X109036131Y-122561589D01*
X109036128Y-122561593D01*
X109036125Y-122561597D01*
X108907635Y-122731743D01*
X108907630Y-122731752D01*
X108812596Y-122922608D01*
X108754244Y-123127688D01*
X108754244Y-123127690D01*
X108734571Y-123340000D01*
X107185215Y-123340000D01*
X107166397Y-123136917D01*
X107112118Y-122946148D01*
X107114379Y-122885010D01*
X107137333Y-122849058D01*
X108103910Y-121882481D01*
X108103913Y-121882480D01*
X108178480Y-121807913D01*
X108231207Y-121716587D01*
X108243824Y-121669500D01*
X108258501Y-121614727D01*
X108258501Y-121509273D01*
X108258501Y-121503211D01*
X108258500Y-121503193D01*
X108258500Y-120800000D01*
X108734571Y-120800000D01*
X108754244Y-121012310D01*
X108812595Y-121217389D01*
X108907634Y-121408255D01*
X109036128Y-121578407D01*
X109036135Y-121578413D01*
X109193692Y-121722047D01*
X109193699Y-121722053D01*
X109238060Y-121749520D01*
X109374981Y-121834298D01*
X109573802Y-121911321D01*
X109783390Y-121950500D01*
X109996610Y-121950500D01*
X110206198Y-121911321D01*
X110405019Y-121834298D01*
X110586302Y-121722052D01*
X110743872Y-121578407D01*
X110872366Y-121408255D01*
X110967405Y-121217389D01*
X111025756Y-121012310D01*
X111045429Y-120800000D01*
X111025756Y-120587690D01*
X110967405Y-120382611D01*
X110872366Y-120191745D01*
X110743872Y-120021593D01*
X110689623Y-119972139D01*
X110586307Y-119877952D01*
X110586300Y-119877946D01*
X110405024Y-119765705D01*
X110405019Y-119765702D01*
X110206195Y-119688678D01*
X109996610Y-119649500D01*
X109783390Y-119649500D01*
X109573804Y-119688678D01*
X109374980Y-119765702D01*
X109374975Y-119765705D01*
X109193699Y-119877946D01*
X109193692Y-119877952D01*
X109036135Y-120021586D01*
X109036131Y-120021589D01*
X109036128Y-120021593D01*
X109036125Y-120021597D01*
X108907635Y-120191743D01*
X108907630Y-120191752D01*
X108812596Y-120382608D01*
X108754244Y-120587688D01*
X108754244Y-120587690D01*
X108734571Y-120800000D01*
X108258500Y-120800000D01*
X108258500Y-118260000D01*
X108734571Y-118260000D01*
X108739366Y-118311753D01*
X108754244Y-118472310D01*
X108812595Y-118677389D01*
X108907634Y-118868255D01*
X109036128Y-119038407D01*
X109036135Y-119038413D01*
X109193692Y-119182047D01*
X109193699Y-119182053D01*
X109297389Y-119246255D01*
X109374981Y-119294298D01*
X109573802Y-119371321D01*
X109783390Y-119410500D01*
X109996610Y-119410500D01*
X110206198Y-119371321D01*
X110405019Y-119294298D01*
X110586302Y-119182052D01*
X110743872Y-119038407D01*
X110872366Y-118868255D01*
X110967405Y-118677389D01*
X111025756Y-118472310D01*
X111045429Y-118260000D01*
X111025756Y-118047690D01*
X110967405Y-117842611D01*
X110872366Y-117651745D01*
X110743872Y-117481593D01*
X110659185Y-117404390D01*
X110586307Y-117337952D01*
X110586300Y-117337946D01*
X110405024Y-117225705D01*
X110405019Y-117225702D01*
X110206195Y-117148678D01*
X109996610Y-117109500D01*
X109783390Y-117109500D01*
X109573804Y-117148678D01*
X109374980Y-117225702D01*
X109374975Y-117225705D01*
X109193699Y-117337946D01*
X109193692Y-117337952D01*
X109036135Y-117481586D01*
X109036131Y-117481589D01*
X109036128Y-117481593D01*
X109036125Y-117481597D01*
X108907635Y-117651743D01*
X108907630Y-117651752D01*
X108812596Y-117842608D01*
X108812595Y-117842611D01*
X108807790Y-117859500D01*
X108754244Y-118047688D01*
X108734571Y-118260000D01*
X108258500Y-118260000D01*
X108258500Y-115720000D01*
X108734571Y-115720000D01*
X108739366Y-115771753D01*
X108754244Y-115932310D01*
X108812595Y-116137389D01*
X108907634Y-116328255D01*
X109036128Y-116498407D01*
X109036135Y-116498413D01*
X109193692Y-116642047D01*
X109193699Y-116642053D01*
X109238060Y-116669520D01*
X109374981Y-116754298D01*
X109573802Y-116831321D01*
X109783390Y-116870500D01*
X109996610Y-116870500D01*
X110206198Y-116831321D01*
X110405019Y-116754298D01*
X110586302Y-116642052D01*
X110743872Y-116498407D01*
X110872366Y-116328255D01*
X110967405Y-116137389D01*
X111025756Y-115932310D01*
X111045429Y-115720000D01*
X111025756Y-115507690D01*
X110967405Y-115302611D01*
X110872366Y-115111745D01*
X110743872Y-114941593D01*
X110637132Y-114844286D01*
X110586307Y-114797952D01*
X110586300Y-114797946D01*
X110405024Y-114685705D01*
X110405019Y-114685702D01*
X110206195Y-114608678D01*
X109996610Y-114569500D01*
X109783390Y-114569500D01*
X109573804Y-114608678D01*
X109374980Y-114685702D01*
X109374975Y-114685705D01*
X109193699Y-114797946D01*
X109193692Y-114797952D01*
X109036135Y-114941586D01*
X109036131Y-114941589D01*
X109036128Y-114941593D01*
X109036125Y-114941597D01*
X108907635Y-115111743D01*
X108907630Y-115111752D01*
X108812596Y-115302608D01*
X108812595Y-115302611D01*
X108807790Y-115319500D01*
X108754244Y-115507688D01*
X108734571Y-115720000D01*
X108258500Y-115720000D01*
X108258500Y-113513900D01*
X108277407Y-113455709D01*
X108287496Y-113443897D01*
X108348311Y-113383082D01*
X108569913Y-113161478D01*
X108624430Y-113133701D01*
X108684862Y-113143272D01*
X108728127Y-113186537D01*
X108738494Y-113222346D01*
X108754244Y-113392310D01*
X108812595Y-113597389D01*
X108907634Y-113788255D01*
X109036128Y-113958407D01*
X109036135Y-113958413D01*
X109193692Y-114102047D01*
X109193699Y-114102053D01*
X109238060Y-114129520D01*
X109374981Y-114214298D01*
X109573802Y-114291321D01*
X109783390Y-114330500D01*
X109996610Y-114330500D01*
X110206198Y-114291321D01*
X110310908Y-114250755D01*
X110371998Y-114247366D01*
X110416674Y-114273067D01*
X115994087Y-119850480D01*
X115994089Y-119850481D01*
X115994090Y-119850482D01*
X115994091Y-119850483D01*
X116085408Y-119903205D01*
X116085406Y-119903205D01*
X116085410Y-119903206D01*
X116085412Y-119903207D01*
X116187273Y-119930500D01*
X116292727Y-119930500D01*
X116526099Y-119930500D01*
X116584290Y-119949407D01*
X116620254Y-119998907D01*
X116620254Y-120060093D01*
X116605103Y-120089161D01*
X116527635Y-120191743D01*
X116527630Y-120191752D01*
X116432596Y-120382608D01*
X116374244Y-120587688D01*
X116374244Y-120587690D01*
X116354571Y-120800000D01*
X116374244Y-121012310D01*
X116432595Y-121217389D01*
X116527634Y-121408255D01*
X116656128Y-121578407D01*
X116656135Y-121578413D01*
X116813692Y-121722047D01*
X116813699Y-121722053D01*
X116858060Y-121749520D01*
X116994981Y-121834298D01*
X117193802Y-121911321D01*
X117403390Y-121950500D01*
X117616610Y-121950500D01*
X117826198Y-121911321D01*
X118025019Y-121834298D01*
X118206302Y-121722052D01*
X118363872Y-121578407D01*
X118492366Y-121408255D01*
X118587405Y-121217389D01*
X118645756Y-121012310D01*
X118665429Y-120800000D01*
X118645756Y-120587690D01*
X118587405Y-120382611D01*
X118492366Y-120191745D01*
X118414896Y-120089159D01*
X118394918Y-120031330D01*
X118412747Y-119972799D01*
X118461573Y-119935927D01*
X118493901Y-119930500D01*
X120102725Y-119930500D01*
X120102727Y-119930500D01*
X120204588Y-119903207D01*
X120204590Y-119903205D01*
X120204592Y-119903205D01*
X120295908Y-119850483D01*
X120295908Y-119850482D01*
X120295913Y-119850480D01*
X120831975Y-119314416D01*
X120886490Y-119286641D01*
X120937735Y-119292106D01*
X121017544Y-119323024D01*
X121218024Y-119360500D01*
X121421976Y-119360500D01*
X121622456Y-119323024D01*
X121812637Y-119249348D01*
X121986041Y-119141981D01*
X122136764Y-119004579D01*
X122259673Y-118841821D01*
X122350582Y-118659250D01*
X122406397Y-118463083D01*
X122425215Y-118260000D01*
X122406397Y-118056917D01*
X122350582Y-117860750D01*
X122259673Y-117678179D01*
X122136764Y-117515421D01*
X122073297Y-117457564D01*
X122043033Y-117404390D01*
X122049804Y-117343581D01*
X122069991Y-117314400D01*
X122073908Y-117310482D01*
X122073913Y-117310480D01*
X123328496Y-116055895D01*
X123383013Y-116028119D01*
X123443445Y-116037690D01*
X123486710Y-116080955D01*
X123497500Y-116125900D01*
X123497500Y-119920098D01*
X123478593Y-119978289D01*
X123468504Y-119990102D01*
X122594130Y-120864475D01*
X122539613Y-120892252D01*
X122479181Y-120882681D01*
X122435916Y-120839416D01*
X122425548Y-120803605D01*
X122425214Y-120800005D01*
X122425215Y-120800000D01*
X122406397Y-120596917D01*
X122350582Y-120400750D01*
X122259673Y-120218179D01*
X122136764Y-120055421D01*
X121986041Y-119918019D01*
X121812637Y-119810652D01*
X121622456Y-119736976D01*
X121622455Y-119736975D01*
X121622453Y-119736975D01*
X121421976Y-119699500D01*
X121218024Y-119699500D01*
X121017546Y-119736975D01*
X120947632Y-119764059D01*
X120827363Y-119810652D01*
X120677881Y-119903207D01*
X120653959Y-119918019D01*
X120503237Y-120055420D01*
X120380328Y-120218177D01*
X120380323Y-120218186D01*
X120298450Y-120382611D01*
X120289418Y-120400750D01*
X120233603Y-120596917D01*
X120214785Y-120800000D01*
X120233603Y-121003083D01*
X120289418Y-121199250D01*
X120380327Y-121381821D01*
X120477759Y-121510842D01*
X120497737Y-121568670D01*
X120479908Y-121627201D01*
X120431082Y-121664073D01*
X120398754Y-121669500D01*
X119721727Y-121669500D01*
X119616273Y-121669500D01*
X119553929Y-121686204D01*
X119514407Y-121696794D01*
X119423091Y-121749516D01*
X119423086Y-121749520D01*
X118550650Y-122621954D01*
X118496134Y-122649731D01*
X118435702Y-122640160D01*
X118401644Y-122611611D01*
X118386895Y-122592081D01*
X118363879Y-122561601D01*
X118363875Y-122561597D01*
X118363872Y-122561593D01*
X118265286Y-122471719D01*
X118206307Y-122417952D01*
X118206300Y-122417946D01*
X118025024Y-122305705D01*
X118025019Y-122305702D01*
X117826195Y-122228678D01*
X117616610Y-122189500D01*
X117403390Y-122189500D01*
X117193804Y-122228678D01*
X116994980Y-122305702D01*
X116994975Y-122305705D01*
X116813699Y-122417946D01*
X116813692Y-122417952D01*
X116656135Y-122561586D01*
X116656131Y-122561589D01*
X116656128Y-122561593D01*
X116656125Y-122561597D01*
X116527635Y-122731743D01*
X116527630Y-122731752D01*
X116432596Y-122922608D01*
X116374244Y-123127688D01*
X116374244Y-123127690D01*
X116354571Y-123340000D01*
X116374244Y-123552310D01*
X116432595Y-123757389D01*
X116527634Y-123948255D01*
X116656128Y-124118407D01*
X116656135Y-124118413D01*
X116813692Y-124262047D01*
X116813699Y-124262053D01*
X116861397Y-124291586D01*
X116994981Y-124374298D01*
X117193802Y-124451321D01*
X117403390Y-124490500D01*
X117616610Y-124490500D01*
X117826198Y-124451321D01*
X118025019Y-124374298D01*
X118206302Y-124262052D01*
X118363872Y-124118407D01*
X118492366Y-123948255D01*
X118587405Y-123757389D01*
X118598116Y-123719743D01*
X118632225Y-123668950D01*
X118643828Y-123661106D01*
X118644913Y-123660480D01*
X119805897Y-122499496D01*
X119860414Y-122471719D01*
X119875901Y-122470500D01*
X120151646Y-122470500D01*
X120209837Y-122489407D01*
X120245801Y-122538907D01*
X120245801Y-122600093D01*
X120232742Y-122626284D01*
X120189865Y-122687518D01*
X120093733Y-122893676D01*
X120041128Y-123090000D01*
X121004314Y-123090000D01*
X120999920Y-123094394D01*
X120947259Y-123185606D01*
X120920000Y-123287339D01*
X120920000Y-123392661D01*
X120947259Y-123494394D01*
X120999920Y-123585606D01*
X121004314Y-123590000D01*
X120041128Y-123590000D01*
X120093733Y-123786323D01*
X120189865Y-123992481D01*
X120320334Y-124178811D01*
X120481188Y-124339665D01*
X120667518Y-124470134D01*
X120873676Y-124566266D01*
X121070000Y-124618872D01*
X121070000Y-123655686D01*
X121074394Y-123660080D01*
X121165606Y-123712741D01*
X121267339Y-123740000D01*
X121372661Y-123740000D01*
X121474394Y-123712741D01*
X121565606Y-123660080D01*
X121570000Y-123655686D01*
X121570000Y-124618871D01*
X121766323Y-124566266D01*
X121972481Y-124470134D01*
X122158811Y-124339665D01*
X122319665Y-124178811D01*
X122450134Y-123992481D01*
X122546266Y-123786323D01*
X122598872Y-123590000D01*
X121635686Y-123590000D01*
X121640080Y-123585606D01*
X121692741Y-123494394D01*
X121720000Y-123392661D01*
X121720000Y-123287339D01*
X121692741Y-123185606D01*
X121640080Y-123094394D01*
X121635686Y-123090000D01*
X122598872Y-123090000D01*
X122546266Y-122893676D01*
X122450134Y-122687518D01*
X122319665Y-122501188D01*
X122274938Y-122456461D01*
X122247161Y-122401944D01*
X122256732Y-122341512D01*
X122274932Y-122316460D01*
X124218480Y-120372913D01*
X124271207Y-120281588D01*
X124298500Y-120179727D01*
X124298500Y-120074273D01*
X124298500Y-80258714D01*
X124298501Y-80258701D01*
X124298501Y-80145272D01*
X124298500Y-80145270D01*
X124294917Y-80131900D01*
X124271207Y-80043413D01*
X124233283Y-79977727D01*
X124218480Y-79952087D01*
X124143913Y-79877520D01*
X124143910Y-79877518D01*
X122377336Y-78110943D01*
X122349559Y-78056426D01*
X122352118Y-78013848D01*
X122406397Y-77823083D01*
X122425215Y-77620000D01*
X122406397Y-77416917D01*
X122350582Y-77220750D01*
X122259673Y-77038179D01*
X122136764Y-76875421D01*
X121986041Y-76738019D01*
X121812637Y-76630652D01*
X121622456Y-76556976D01*
X121622455Y-76556975D01*
X121622453Y-76556975D01*
X121421976Y-76519500D01*
X121218024Y-76519500D01*
X121017546Y-76556975D01*
X120947632Y-76584059D01*
X120827363Y-76630652D01*
X120718676Y-76697948D01*
X120653959Y-76738019D01*
X120503237Y-76875420D01*
X120380328Y-77038177D01*
X120380323Y-77038186D01*
X120298450Y-77202611D01*
X120289418Y-77220750D01*
X120233603Y-77416917D01*
X120214785Y-77620000D01*
X120233603Y-77823083D01*
X120289418Y-78019250D01*
X120380327Y-78201821D01*
X120503236Y-78364579D01*
X120653959Y-78501981D01*
X120827363Y-78609348D01*
X121017544Y-78683024D01*
X121218024Y-78720500D01*
X121421976Y-78720500D01*
X121622456Y-78683024D01*
X121702259Y-78652107D01*
X121763351Y-78648718D01*
X121808026Y-78674419D01*
X123468504Y-80334896D01*
X123496281Y-80389413D01*
X123497500Y-80404900D01*
X123497500Y-84072099D01*
X123478593Y-84130290D01*
X123429093Y-84166254D01*
X123367907Y-84166254D01*
X123328496Y-84142103D01*
X122377336Y-83190943D01*
X122349559Y-83136426D01*
X122352118Y-83093848D01*
X122406397Y-82903083D01*
X122425215Y-82700000D01*
X122406397Y-82496917D01*
X122350582Y-82300750D01*
X122259673Y-82118179D01*
X122136764Y-81955421D01*
X121986041Y-81818019D01*
X121812637Y-81710652D01*
X121622456Y-81636976D01*
X121622455Y-81636975D01*
X121622453Y-81636975D01*
X121421976Y-81599500D01*
X121218024Y-81599500D01*
X121017546Y-81636975D01*
X120947632Y-81664059D01*
X120827363Y-81710652D01*
X120718676Y-81777948D01*
X120653959Y-81818019D01*
X120503237Y-81955420D01*
X120380328Y-82118177D01*
X120380323Y-82118186D01*
X120298450Y-82282611D01*
X120289418Y-82300750D01*
X120233603Y-82496917D01*
X120216983Y-82676285D01*
X120214451Y-82703607D01*
X120190255Y-82759805D01*
X120137648Y-82791048D01*
X120076723Y-82785402D01*
X120045869Y-82764476D01*
X119957678Y-82676285D01*
X119929901Y-82621768D01*
X119929018Y-82610554D01*
X119928682Y-82608000D01*
X119908044Y-82451238D01*
X119847537Y-82305161D01*
X119847537Y-82305160D01*
X119751286Y-82179723D01*
X119751285Y-82179722D01*
X119751282Y-82179718D01*
X119751277Y-82179714D01*
X119751276Y-82179713D01*
X119625838Y-82083462D01*
X119479766Y-82022957D01*
X119479758Y-82022955D01*
X119323001Y-82002318D01*
X119322999Y-82002318D01*
X119166241Y-82022955D01*
X119166233Y-82022957D01*
X119020161Y-82083462D01*
X119020160Y-82083462D01*
X118894723Y-82179713D01*
X118894713Y-82179723D01*
X118798464Y-82305159D01*
X118785997Y-82335256D01*
X118746259Y-82381781D01*
X118686764Y-82396064D01*
X118630237Y-82372648D01*
X118599312Y-82324462D01*
X118587405Y-82282611D01*
X118492366Y-82091745D01*
X118363872Y-81921593D01*
X118309623Y-81872139D01*
X118206307Y-81777952D01*
X118206300Y-81777946D01*
X118025024Y-81665705D01*
X118025019Y-81665702D01*
X117826195Y-81588678D01*
X117616610Y-81549500D01*
X117403390Y-81549500D01*
X117193804Y-81588678D01*
X116994980Y-81665702D01*
X116994975Y-81665705D01*
X116813699Y-81777946D01*
X116813692Y-81777952D01*
X116656135Y-81921586D01*
X116656131Y-81921589D01*
X116656128Y-81921593D01*
X116656125Y-81921597D01*
X116527635Y-82091743D01*
X116527630Y-82091752D01*
X116432596Y-82282608D01*
X116374244Y-82487688D01*
X116354571Y-82700000D01*
X116374244Y-82912311D01*
X116432598Y-83117401D01*
X116434249Y-83121661D01*
X116432873Y-83122193D01*
X116440975Y-83176662D01*
X116413348Y-83230257D01*
X116174504Y-83469102D01*
X116119987Y-83496880D01*
X116059555Y-83487309D01*
X116016290Y-83444044D01*
X116005500Y-83399099D01*
X116005500Y-82271900D01*
X116024407Y-82213709D01*
X116034490Y-82201902D01*
X116983326Y-81253065D01*
X117037841Y-81225290D01*
X117089090Y-81230756D01*
X117193802Y-81271321D01*
X117403390Y-81310500D01*
X117616610Y-81310500D01*
X117826198Y-81271321D01*
X118025019Y-81194298D01*
X118206302Y-81082052D01*
X118363872Y-80938407D01*
X118492366Y-80768255D01*
X118587405Y-80577389D01*
X118645756Y-80372310D01*
X118665429Y-80160000D01*
X120214785Y-80160000D01*
X120233603Y-80363083D01*
X120289418Y-80559250D01*
X120380327Y-80741821D01*
X120503236Y-80904579D01*
X120653959Y-81041981D01*
X120827363Y-81149348D01*
X121017544Y-81223024D01*
X121218024Y-81260500D01*
X121421976Y-81260500D01*
X121622456Y-81223024D01*
X121812637Y-81149348D01*
X121986041Y-81041981D01*
X122136764Y-80904579D01*
X122259673Y-80741821D01*
X122350582Y-80559250D01*
X122406397Y-80363083D01*
X122425215Y-80160000D01*
X122406397Y-79956917D01*
X122350582Y-79760750D01*
X122259673Y-79578179D01*
X122136764Y-79415421D01*
X121986041Y-79278019D01*
X121812637Y-79170652D01*
X121622456Y-79096976D01*
X121622455Y-79096975D01*
X121622453Y-79096975D01*
X121421976Y-79059500D01*
X121218024Y-79059500D01*
X121017546Y-79096975D01*
X120947632Y-79124059D01*
X120827363Y-79170652D01*
X120718676Y-79237948D01*
X120653959Y-79278019D01*
X120503237Y-79415420D01*
X120380328Y-79578177D01*
X120380323Y-79578186D01*
X120298450Y-79742611D01*
X120289418Y-79760750D01*
X120233603Y-79956917D01*
X120214785Y-80160000D01*
X118665429Y-80160000D01*
X118645756Y-79947690D01*
X118587405Y-79742611D01*
X118492366Y-79551745D01*
X118363872Y-79381593D01*
X118309623Y-79332139D01*
X118206307Y-79237952D01*
X118206300Y-79237946D01*
X118025024Y-79125705D01*
X118025019Y-79125702D01*
X117826195Y-79048678D01*
X117616610Y-79009500D01*
X117403390Y-79009500D01*
X117193804Y-79048678D01*
X116994980Y-79125702D01*
X116994975Y-79125705D01*
X116813699Y-79237946D01*
X116813692Y-79237952D01*
X116656135Y-79381586D01*
X116656131Y-79381589D01*
X116656128Y-79381593D01*
X116656125Y-79381597D01*
X116527635Y-79551743D01*
X116527630Y-79551752D01*
X116432596Y-79742608D01*
X116374244Y-79947688D01*
X116354571Y-80160000D01*
X116374244Y-80372311D01*
X116432598Y-80577401D01*
X116434249Y-80581661D01*
X116432870Y-80582195D01*
X116440977Y-80636647D01*
X116413348Y-80690257D01*
X115774504Y-81329102D01*
X115719987Y-81356879D01*
X115659555Y-81347308D01*
X115616290Y-81304043D01*
X115605500Y-81259098D01*
X115605500Y-80131900D01*
X115624407Y-80073709D01*
X115634490Y-80061902D01*
X116983326Y-78713065D01*
X117037841Y-78685290D01*
X117089090Y-78690756D01*
X117193802Y-78731321D01*
X117403390Y-78770500D01*
X117616610Y-78770500D01*
X117826198Y-78731321D01*
X118025019Y-78654298D01*
X118206302Y-78542052D01*
X118363872Y-78398407D01*
X118492366Y-78228255D01*
X118587405Y-78037389D01*
X118645756Y-77832310D01*
X118665429Y-77620000D01*
X118645756Y-77407690D01*
X118587405Y-77202611D01*
X118492366Y-77011745D01*
X118363872Y-76841593D01*
X118309623Y-76792139D01*
X118206307Y-76697952D01*
X118206300Y-76697946D01*
X118069383Y-76613171D01*
X118029862Y-76566463D01*
X118025343Y-76505444D01*
X118057553Y-76453424D01*
X118114189Y-76430270D01*
X118121500Y-76430000D01*
X118407824Y-76430000D01*
X118467370Y-76423598D01*
X118467381Y-76423596D01*
X118602088Y-76373353D01*
X118602090Y-76373352D01*
X118717184Y-76287192D01*
X118717192Y-76287184D01*
X118803352Y-76172090D01*
X118803353Y-76172088D01*
X118853596Y-76037381D01*
X118853598Y-76037370D01*
X118860000Y-75977824D01*
X118860000Y-75330001D01*
X118859999Y-75330000D01*
X117943012Y-75330000D01*
X117975925Y-75272993D01*
X118010000Y-75145826D01*
X118010000Y-75080000D01*
X120214785Y-75080000D01*
X120233603Y-75283083D01*
X120289418Y-75479250D01*
X120380327Y-75661821D01*
X120503236Y-75824579D01*
X120653959Y-75961981D01*
X120827363Y-76069348D01*
X121017544Y-76143024D01*
X121218024Y-76180500D01*
X121421976Y-76180500D01*
X121622456Y-76143024D01*
X121812637Y-76069348D01*
X121986041Y-75961981D01*
X122136764Y-75824579D01*
X122259673Y-75661821D01*
X122350582Y-75479250D01*
X122406397Y-75283083D01*
X122425215Y-75080000D01*
X122406397Y-74876917D01*
X122350582Y-74680750D01*
X122259673Y-74498179D01*
X122136764Y-74335421D01*
X121986041Y-74198019D01*
X121812637Y-74090652D01*
X121622456Y-74016976D01*
X121622455Y-74016975D01*
X121622453Y-74016975D01*
X121421976Y-73979500D01*
X121218024Y-73979500D01*
X121017546Y-74016975D01*
X120963509Y-74037909D01*
X120827363Y-74090652D01*
X120679548Y-74182175D01*
X120653959Y-74198019D01*
X120503237Y-74335420D01*
X120380328Y-74498177D01*
X120380323Y-74498186D01*
X120289791Y-74680000D01*
X120289418Y-74680750D01*
X120233603Y-74876917D01*
X120214785Y-75080000D01*
X118010000Y-75080000D01*
X118010000Y-75014174D01*
X117975925Y-74887007D01*
X117943012Y-74830000D01*
X118859999Y-74830000D01*
X118860000Y-74829999D01*
X118860000Y-74182175D01*
X118853598Y-74122629D01*
X118853596Y-74122618D01*
X118803353Y-73987911D01*
X118803352Y-73987909D01*
X118717192Y-73872815D01*
X118717184Y-73872807D01*
X118602090Y-73786647D01*
X118602088Y-73786646D01*
X118467381Y-73736403D01*
X118467370Y-73736401D01*
X118407824Y-73730000D01*
X117760001Y-73730000D01*
X117760000Y-73730001D01*
X117760000Y-74646988D01*
X117702993Y-74614075D01*
X117575826Y-74580000D01*
X117444174Y-74580000D01*
X117317007Y-74614075D01*
X117260000Y-74646988D01*
X117260000Y-73730001D01*
X117259999Y-73730000D01*
X116612176Y-73730000D01*
X116552629Y-73736401D01*
X116552618Y-73736403D01*
X116417911Y-73786646D01*
X116417909Y-73786647D01*
X116302815Y-73872807D01*
X116302807Y-73872815D01*
X116216647Y-73987909D01*
X116216646Y-73987911D01*
X116166403Y-74122618D01*
X116166401Y-74122629D01*
X116160000Y-74182175D01*
X116160000Y-74829999D01*
X116160001Y-74830000D01*
X117076988Y-74830000D01*
X117044075Y-74887007D01*
X117010000Y-75014174D01*
X117010000Y-75145826D01*
X117044075Y-75272993D01*
X117076988Y-75330000D01*
X116160001Y-75330000D01*
X116160000Y-75330001D01*
X116160000Y-75977824D01*
X116159999Y-75977824D01*
X116166401Y-76037370D01*
X116166403Y-76037381D01*
X116216646Y-76172088D01*
X116216647Y-76172090D01*
X116302807Y-76287184D01*
X116302815Y-76287192D01*
X116417909Y-76373352D01*
X116417911Y-76373353D01*
X116552618Y-76423596D01*
X116552629Y-76423598D01*
X116612176Y-76430000D01*
X116898500Y-76430000D01*
X116956691Y-76448907D01*
X116992655Y-76498407D01*
X116992655Y-76559593D01*
X116956691Y-76609093D01*
X116950617Y-76613171D01*
X116813699Y-76697946D01*
X116813692Y-76697952D01*
X116656135Y-76841586D01*
X116656131Y-76841589D01*
X116656128Y-76841593D01*
X116656125Y-76841597D01*
X116527635Y-77011743D01*
X116527630Y-77011752D01*
X116432596Y-77202608D01*
X116374244Y-77407688D01*
X116354571Y-77620000D01*
X116374244Y-77832311D01*
X116432598Y-78037401D01*
X116434249Y-78041661D01*
X116432870Y-78042195D01*
X116440977Y-78096647D01*
X116413348Y-78150257D01*
X114884517Y-79679090D01*
X114884516Y-79679091D01*
X114831793Y-79770411D01*
X114831792Y-79770411D01*
X114831793Y-79770412D01*
X114804500Y-79872273D01*
X114804500Y-83597413D01*
X114785593Y-83655604D01*
X114775504Y-83667417D01*
X112344276Y-86098645D01*
X112289759Y-86126422D01*
X112274272Y-86127641D01*
X110860201Y-86127641D01*
X110802010Y-86108734D01*
X110766046Y-86059234D01*
X110766046Y-85998048D01*
X110781198Y-85968980D01*
X110791426Y-85955435D01*
X110872366Y-85848255D01*
X110967405Y-85657389D01*
X111025756Y-85452310D01*
X111045429Y-85240000D01*
X111025756Y-85027690D01*
X110967405Y-84822611D01*
X110872366Y-84631745D01*
X110743872Y-84461593D01*
X110689623Y-84412139D01*
X110586307Y-84317952D01*
X110586300Y-84317946D01*
X110405024Y-84205705D01*
X110405019Y-84205702D01*
X110303191Y-84166254D01*
X110206198Y-84128679D01*
X110206197Y-84128678D01*
X110206195Y-84128678D01*
X109996610Y-84089500D01*
X109783390Y-84089500D01*
X109573804Y-84128678D01*
X109374980Y-84205702D01*
X109374975Y-84205705D01*
X109193699Y-84317946D01*
X109193692Y-84317952D01*
X109036135Y-84461586D01*
X109036131Y-84461589D01*
X109036128Y-84461593D01*
X109036125Y-84461597D01*
X108907635Y-84631743D01*
X108907630Y-84631752D01*
X108812596Y-84822608D01*
X108754244Y-85027688D01*
X108754244Y-85027690D01*
X108734571Y-85240000D01*
X108754244Y-85452310D01*
X108812595Y-85657389D01*
X108907634Y-85848255D01*
X109036128Y-86018407D01*
X109045663Y-86027099D01*
X109075928Y-86080272D01*
X109069159Y-86141082D01*
X109028469Y-86185995D01*
X108990950Y-86207657D01*
X107537516Y-87661091D01*
X107484793Y-87752411D01*
X107484792Y-87752411D01*
X107484793Y-87752412D01*
X107457500Y-87854273D01*
X107457500Y-88352099D01*
X107438593Y-88410290D01*
X107389093Y-88446254D01*
X107327907Y-88446254D01*
X107288496Y-88422103D01*
X107137336Y-88270943D01*
X107109559Y-88216426D01*
X107112118Y-88173848D01*
X107166397Y-87983083D01*
X107185215Y-87780000D01*
X107166397Y-87576917D01*
X107110582Y-87380750D01*
X107019673Y-87198179D01*
X106896764Y-87035421D01*
X106746041Y-86898019D01*
X106572637Y-86790652D01*
X106382456Y-86716976D01*
X106382455Y-86716975D01*
X106382453Y-86716975D01*
X106181976Y-86679500D01*
X105978024Y-86679500D01*
X105777546Y-86716975D01*
X105707632Y-86744059D01*
X105587363Y-86790652D01*
X105413959Y-86898019D01*
X105263236Y-87035421D01*
X105224057Y-87087302D01*
X105140328Y-87198177D01*
X105140323Y-87198186D01*
X105058450Y-87362611D01*
X105049418Y-87380750D01*
X104993603Y-87576917D01*
X104974785Y-87780000D01*
X104993603Y-87983083D01*
X105049418Y-88179250D01*
X105140327Y-88361821D01*
X105263236Y-88524579D01*
X105413959Y-88661981D01*
X105587363Y-88769348D01*
X105777544Y-88843024D01*
X105978024Y-88880500D01*
X106181976Y-88880500D01*
X106382456Y-88843024D01*
X106462259Y-88812107D01*
X106523351Y-88808718D01*
X106568026Y-88834419D01*
X107047504Y-89313897D01*
X107075281Y-89368414D01*
X107076500Y-89383901D01*
X107076500Y-89518055D01*
X107057593Y-89576246D01*
X107008093Y-89612210D01*
X106946907Y-89612210D01*
X106899924Y-89578732D01*
X106899847Y-89578803D01*
X106899521Y-89578446D01*
X106898497Y-89577716D01*
X106897387Y-89576246D01*
X106896764Y-89575421D01*
X106746041Y-89438019D01*
X106572637Y-89330652D01*
X106382456Y-89256976D01*
X106382455Y-89256975D01*
X106382453Y-89256975D01*
X106181976Y-89219500D01*
X105978024Y-89219500D01*
X105777546Y-89256975D01*
X105707632Y-89284059D01*
X105587363Y-89330652D01*
X105413959Y-89438019D01*
X105263236Y-89575421D01*
X105262613Y-89576246D01*
X105140328Y-89738177D01*
X105140323Y-89738186D01*
X105058450Y-89902611D01*
X105049418Y-89920750D01*
X104993603Y-90116917D01*
X104974785Y-90320000D01*
X104993603Y-90523083D01*
X105049418Y-90719250D01*
X105140327Y-90901821D01*
X105263236Y-91064579D01*
X105413959Y-91201981D01*
X105587363Y-91309348D01*
X105777544Y-91383024D01*
X105978024Y-91420500D01*
X106181976Y-91420500D01*
X106382456Y-91383024D01*
X106572637Y-91309348D01*
X106746041Y-91201981D01*
X106896764Y-91064579D01*
X106898494Y-91062287D01*
X106899482Y-91061596D01*
X106899847Y-91061197D01*
X106899937Y-91061279D01*
X106948645Y-91027242D01*
X107009820Y-91028368D01*
X107058650Y-91065237D01*
X107076500Y-91121944D01*
X107076500Y-92058055D01*
X107057593Y-92116246D01*
X107008093Y-92152210D01*
X106946907Y-92152210D01*
X106899924Y-92118732D01*
X106899847Y-92118803D01*
X106899521Y-92118446D01*
X106898497Y-92117716D01*
X106897387Y-92116246D01*
X106896764Y-92115421D01*
X106746041Y-91978019D01*
X106572637Y-91870652D01*
X106382456Y-91796976D01*
X106382455Y-91796975D01*
X106382453Y-91796975D01*
X106181976Y-91759500D01*
X105978024Y-91759500D01*
X105777546Y-91796975D01*
X105707632Y-91824059D01*
X105587363Y-91870652D01*
X105413959Y-91978019D01*
X105263234Y-92115423D01*
X105184970Y-92219061D01*
X105134814Y-92254104D01*
X105105967Y-92258400D01*
X104273992Y-92258400D01*
X104215801Y-92239493D01*
X104195108Y-92219218D01*
X104169836Y-92185891D01*
X104149741Y-92128100D01*
X104167453Y-92069534D01*
X104196748Y-92041812D01*
X104238037Y-92016344D01*
X104359946Y-91894435D01*
X104450451Y-91747706D01*
X104504681Y-91584048D01*
X104515000Y-91483055D01*
X104515000Y-91383901D01*
X104514999Y-91383900D01*
X103389000Y-91383900D01*
X103330809Y-91364993D01*
X103294845Y-91315493D01*
X103290000Y-91284900D01*
X103290000Y-90096401D01*
X103790000Y-90096401D01*
X103790000Y-90883899D01*
X103790001Y-90883900D01*
X104514998Y-90883900D01*
X104514999Y-90883899D01*
X104514999Y-90784745D01*
X104504682Y-90683757D01*
X104504679Y-90683745D01*
X104450451Y-90520093D01*
X104359946Y-90373364D01*
X104238035Y-90251453D01*
X104091306Y-90160948D01*
X103927648Y-90106718D01*
X103826655Y-90096400D01*
X103790001Y-90096400D01*
X103790000Y-90096401D01*
X103290000Y-90096401D01*
X103290000Y-90096400D01*
X103253357Y-90096400D01*
X103253351Y-90096401D01*
X103152357Y-90106717D01*
X103152345Y-90106720D01*
X102988693Y-90160948D01*
X102841964Y-90251453D01*
X102841963Y-90251454D01*
X102715978Y-90377440D01*
X102715124Y-90376586D01*
X102669228Y-90407153D01*
X102608093Y-90404658D01*
X102560101Y-90366705D01*
X102543500Y-90311829D01*
X102543500Y-85240000D01*
X104974785Y-85240000D01*
X104993603Y-85443083D01*
X105049418Y-85639250D01*
X105140327Y-85821821D01*
X105263236Y-85984579D01*
X105413959Y-86121981D01*
X105587363Y-86229348D01*
X105777544Y-86303024D01*
X105978024Y-86340500D01*
X106181976Y-86340500D01*
X106382456Y-86303024D01*
X106572637Y-86229348D01*
X106746041Y-86121981D01*
X106896764Y-85984579D01*
X107019673Y-85821821D01*
X107110582Y-85639250D01*
X107166397Y-85443083D01*
X107185215Y-85240000D01*
X107166397Y-85036917D01*
X107110582Y-84840750D01*
X107019673Y-84658179D01*
X106896764Y-84495421D01*
X106746041Y-84358019D01*
X106572637Y-84250652D01*
X106382456Y-84176976D01*
X106382455Y-84176975D01*
X106382453Y-84176975D01*
X106181976Y-84139500D01*
X105978024Y-84139500D01*
X105777546Y-84176975D01*
X105707632Y-84204059D01*
X105587363Y-84250652D01*
X105478676Y-84317948D01*
X105413959Y-84358019D01*
X105263237Y-84495420D01*
X105140328Y-84658177D01*
X105140323Y-84658186D01*
X105058450Y-84822611D01*
X105049418Y-84840750D01*
X104993603Y-85036917D01*
X104974785Y-85240000D01*
X102543500Y-85240000D01*
X102543500Y-82700000D01*
X104974785Y-82700000D01*
X104993603Y-82903083D01*
X105049418Y-83099250D01*
X105140327Y-83281821D01*
X105263236Y-83444579D01*
X105413959Y-83581981D01*
X105587363Y-83689348D01*
X105777544Y-83763024D01*
X105978024Y-83800500D01*
X106181976Y-83800500D01*
X106382456Y-83763024D01*
X106572637Y-83689348D01*
X106746041Y-83581981D01*
X106896764Y-83444579D01*
X107019673Y-83281821D01*
X107110582Y-83099250D01*
X107166397Y-82903083D01*
X107185215Y-82700000D01*
X108734571Y-82700000D01*
X108754244Y-82912310D01*
X108812595Y-83117389D01*
X108907634Y-83308255D01*
X109036128Y-83478407D01*
X109036135Y-83478413D01*
X109193692Y-83622047D01*
X109193699Y-83622053D01*
X109247886Y-83655604D01*
X109374981Y-83734298D01*
X109573802Y-83811321D01*
X109783390Y-83850500D01*
X109996610Y-83850500D01*
X110206198Y-83811321D01*
X110405019Y-83734298D01*
X110586302Y-83622052D01*
X110743872Y-83478407D01*
X110872366Y-83308255D01*
X110967405Y-83117389D01*
X111025756Y-82912310D01*
X111045429Y-82700000D01*
X111025756Y-82487690D01*
X110967405Y-82282611D01*
X110872366Y-82091745D01*
X110743872Y-81921593D01*
X110689623Y-81872139D01*
X110586307Y-81777952D01*
X110586300Y-81777946D01*
X110405024Y-81665705D01*
X110405019Y-81665702D01*
X110206195Y-81588678D01*
X109996610Y-81549500D01*
X109783390Y-81549500D01*
X109573804Y-81588678D01*
X109374980Y-81665702D01*
X109374975Y-81665705D01*
X109193699Y-81777946D01*
X109193692Y-81777952D01*
X109036135Y-81921586D01*
X109036131Y-81921589D01*
X109036128Y-81921593D01*
X109036125Y-81921597D01*
X108907635Y-82091743D01*
X108907630Y-82091752D01*
X108812596Y-82282608D01*
X108754244Y-82487688D01*
X108754244Y-82487690D01*
X108734571Y-82700000D01*
X107185215Y-82700000D01*
X107166397Y-82496917D01*
X107110582Y-82300750D01*
X107019673Y-82118179D01*
X106896764Y-81955421D01*
X106746041Y-81818019D01*
X106572637Y-81710652D01*
X106382456Y-81636976D01*
X106382455Y-81636975D01*
X106382453Y-81636975D01*
X106181976Y-81599500D01*
X105978024Y-81599500D01*
X105777546Y-81636975D01*
X105707632Y-81664059D01*
X105587363Y-81710652D01*
X105478676Y-81777948D01*
X105413959Y-81818019D01*
X105263237Y-81955420D01*
X105140328Y-82118177D01*
X105140323Y-82118186D01*
X105058450Y-82282611D01*
X105049418Y-82300750D01*
X104993603Y-82496917D01*
X104974785Y-82700000D01*
X102543500Y-82700000D01*
X102543500Y-80160000D01*
X104974785Y-80160000D01*
X104993603Y-80363083D01*
X105049418Y-80559250D01*
X105140327Y-80741821D01*
X105263236Y-80904579D01*
X105413959Y-81041981D01*
X105587363Y-81149348D01*
X105777544Y-81223024D01*
X105978024Y-81260500D01*
X106181976Y-81260500D01*
X106382456Y-81223024D01*
X106572637Y-81149348D01*
X106746041Y-81041981D01*
X106896764Y-80904579D01*
X107019673Y-80741821D01*
X107110582Y-80559250D01*
X107166397Y-80363083D01*
X107185215Y-80160000D01*
X108734571Y-80160000D01*
X108754244Y-80372310D01*
X108812595Y-80577389D01*
X108907634Y-80768255D01*
X109036128Y-80938407D01*
X109036135Y-80938413D01*
X109193692Y-81082047D01*
X109193699Y-81082053D01*
X109297389Y-81146255D01*
X109374981Y-81194298D01*
X109573802Y-81271321D01*
X109783390Y-81310500D01*
X109996610Y-81310500D01*
X110206198Y-81271321D01*
X110405019Y-81194298D01*
X110586302Y-81082052D01*
X110743872Y-80938407D01*
X110872366Y-80768255D01*
X110967405Y-80577389D01*
X111025756Y-80372310D01*
X111045429Y-80160000D01*
X111025756Y-79947690D01*
X110967405Y-79742611D01*
X110872366Y-79551745D01*
X110743872Y-79381593D01*
X110689623Y-79332139D01*
X110586307Y-79237952D01*
X110586300Y-79237946D01*
X110405024Y-79125705D01*
X110405019Y-79125702D01*
X110206195Y-79048678D01*
X109996610Y-79009500D01*
X109783390Y-79009500D01*
X109573804Y-79048678D01*
X109374980Y-79125702D01*
X109374975Y-79125705D01*
X109193699Y-79237946D01*
X109193692Y-79237952D01*
X109036135Y-79381586D01*
X109036131Y-79381589D01*
X109036128Y-79381593D01*
X109036125Y-79381597D01*
X108907635Y-79551743D01*
X108907630Y-79551752D01*
X108812596Y-79742608D01*
X108754244Y-79947688D01*
X108745374Y-80043413D01*
X108734571Y-80160000D01*
X107185215Y-80160000D01*
X107166397Y-79956917D01*
X107110582Y-79760750D01*
X107019673Y-79578179D01*
X106896764Y-79415421D01*
X106746041Y-79278019D01*
X106572637Y-79170652D01*
X106382456Y-79096976D01*
X106382455Y-79096975D01*
X106382453Y-79096975D01*
X106181976Y-79059500D01*
X105978024Y-79059500D01*
X105777546Y-79096975D01*
X105707632Y-79124059D01*
X105587363Y-79170652D01*
X105478676Y-79237948D01*
X105413959Y-79278019D01*
X105263237Y-79415420D01*
X105140328Y-79578177D01*
X105140323Y-79578186D01*
X105058450Y-79742611D01*
X105049418Y-79760750D01*
X104993603Y-79956917D01*
X104974785Y-80160000D01*
X102543500Y-80160000D01*
X102543500Y-75927824D01*
X104779999Y-75927824D01*
X104786401Y-75987370D01*
X104786403Y-75987381D01*
X104836646Y-76122088D01*
X104836647Y-76122090D01*
X104922807Y-76237184D01*
X104922815Y-76237192D01*
X105037909Y-76323352D01*
X105037911Y-76323353D01*
X105172618Y-76373596D01*
X105172629Y-76373598D01*
X105232176Y-76380000D01*
X105704769Y-76380000D01*
X105762960Y-76398907D01*
X105798924Y-76448407D01*
X105798924Y-76509593D01*
X105762960Y-76559093D01*
X105740535Y-76571313D01*
X105587363Y-76630652D01*
X105478676Y-76697948D01*
X105413959Y-76738019D01*
X105263237Y-76875420D01*
X105140328Y-77038177D01*
X105140323Y-77038186D01*
X105058450Y-77202611D01*
X105049418Y-77220750D01*
X104993603Y-77416917D01*
X104974785Y-77620000D01*
X104993603Y-77823083D01*
X105049418Y-78019250D01*
X105140327Y-78201821D01*
X105263236Y-78364579D01*
X105413959Y-78501981D01*
X105587363Y-78609348D01*
X105777544Y-78683024D01*
X105978024Y-78720500D01*
X106181976Y-78720500D01*
X106382456Y-78683024D01*
X106572637Y-78609348D01*
X106746041Y-78501981D01*
X106896764Y-78364579D01*
X107019673Y-78201821D01*
X107110582Y-78019250D01*
X107166397Y-77823083D01*
X107185215Y-77620000D01*
X107166397Y-77416917D01*
X107110582Y-77220750D01*
X107019673Y-77038179D01*
X106896764Y-76875421D01*
X106746041Y-76738019D01*
X106572637Y-76630652D01*
X106419466Y-76571313D01*
X106372037Y-76532663D01*
X106356383Y-76473514D01*
X106378486Y-76416461D01*
X106429902Y-76383295D01*
X106455231Y-76380000D01*
X106927824Y-76380000D01*
X106987370Y-76373598D01*
X106987381Y-76373596D01*
X107122088Y-76323353D01*
X107122090Y-76323352D01*
X107237184Y-76237192D01*
X107237192Y-76237184D01*
X107323352Y-76122090D01*
X107323353Y-76122088D01*
X107373596Y-75987381D01*
X107373598Y-75987370D01*
X107374624Y-75977824D01*
X108539999Y-75977824D01*
X108546401Y-76037370D01*
X108546403Y-76037381D01*
X108596646Y-76172088D01*
X108596647Y-76172090D01*
X108682807Y-76287184D01*
X108682815Y-76287192D01*
X108797909Y-76373352D01*
X108797911Y-76373353D01*
X108932618Y-76423596D01*
X108932629Y-76423598D01*
X108992176Y-76430000D01*
X109278500Y-76430000D01*
X109336691Y-76448907D01*
X109372655Y-76498407D01*
X109372655Y-76559593D01*
X109336691Y-76609093D01*
X109330617Y-76613171D01*
X109193699Y-76697946D01*
X109193692Y-76697952D01*
X109036135Y-76841586D01*
X109036131Y-76841589D01*
X109036128Y-76841593D01*
X109036125Y-76841597D01*
X108907635Y-77011743D01*
X108907630Y-77011752D01*
X108812596Y-77202608D01*
X108754244Y-77407688D01*
X108754244Y-77407690D01*
X108734571Y-77620000D01*
X108754244Y-77832310D01*
X108812595Y-78037389D01*
X108907634Y-78228255D01*
X109036128Y-78398407D01*
X109036135Y-78398413D01*
X109193692Y-78542047D01*
X109193699Y-78542053D01*
X109297389Y-78606255D01*
X109374981Y-78654298D01*
X109573802Y-78731321D01*
X109783390Y-78770500D01*
X109996610Y-78770500D01*
X110206198Y-78731321D01*
X110405019Y-78654298D01*
X110586302Y-78542052D01*
X110743872Y-78398407D01*
X110872366Y-78228255D01*
X110967405Y-78037389D01*
X111025756Y-77832310D01*
X111045429Y-77620000D01*
X111025756Y-77407690D01*
X110967405Y-77202611D01*
X110872366Y-77011745D01*
X110743872Y-76841593D01*
X110689623Y-76792139D01*
X110586307Y-76697952D01*
X110586300Y-76697946D01*
X110449383Y-76613171D01*
X110409862Y-76566463D01*
X110405343Y-76505444D01*
X110437553Y-76453424D01*
X110494189Y-76430270D01*
X110501500Y-76430000D01*
X110787824Y-76430000D01*
X110847370Y-76423598D01*
X110847381Y-76423596D01*
X110982088Y-76373353D01*
X110982090Y-76373352D01*
X111097184Y-76287192D01*
X111097192Y-76287184D01*
X111183352Y-76172090D01*
X111183353Y-76172088D01*
X111233596Y-76037381D01*
X111233598Y-76037370D01*
X111240000Y-75977824D01*
X111240000Y-75330001D01*
X111239999Y-75330000D01*
X110323012Y-75330000D01*
X110355925Y-75272993D01*
X110390000Y-75145826D01*
X110390000Y-75014174D01*
X110355925Y-74887007D01*
X110323012Y-74830000D01*
X111239999Y-74830000D01*
X111240000Y-74829999D01*
X111240000Y-74182175D01*
X111233598Y-74122629D01*
X111233596Y-74122618D01*
X111183353Y-73987911D01*
X111183352Y-73987909D01*
X111097192Y-73872815D01*
X111097184Y-73872807D01*
X110982090Y-73786647D01*
X110982088Y-73786646D01*
X110847381Y-73736403D01*
X110847370Y-73736401D01*
X110787824Y-73730000D01*
X110140001Y-73730000D01*
X110140000Y-73730001D01*
X110140000Y-74646988D01*
X110082993Y-74614075D01*
X109955826Y-74580000D01*
X109824174Y-74580000D01*
X109697007Y-74614075D01*
X109640000Y-74646988D01*
X109640000Y-73730001D01*
X109639999Y-73730000D01*
X108992176Y-73730000D01*
X108932629Y-73736401D01*
X108932618Y-73736403D01*
X108797911Y-73786646D01*
X108797909Y-73786647D01*
X108682815Y-73872807D01*
X108682807Y-73872815D01*
X108596647Y-73987909D01*
X108596646Y-73987911D01*
X108546403Y-74122618D01*
X108546401Y-74122629D01*
X108540000Y-74182175D01*
X108540000Y-74829999D01*
X108540001Y-74830000D01*
X109456988Y-74830000D01*
X109424075Y-74887007D01*
X109390000Y-75014174D01*
X109390000Y-75145826D01*
X109424075Y-75272993D01*
X109456988Y-75330000D01*
X108540001Y-75330000D01*
X108540000Y-75330001D01*
X108540000Y-75977824D01*
X108539999Y-75977824D01*
X107374624Y-75977824D01*
X107380000Y-75927824D01*
X107380000Y-75330001D01*
X107379999Y-75330000D01*
X106395686Y-75330000D01*
X106400080Y-75325606D01*
X106452741Y-75234394D01*
X106480000Y-75132661D01*
X106480000Y-75027339D01*
X106452741Y-74925606D01*
X106400080Y-74834394D01*
X106395686Y-74830000D01*
X107379999Y-74830000D01*
X107380000Y-74829999D01*
X107380000Y-74232175D01*
X107373598Y-74172629D01*
X107373596Y-74172618D01*
X107323353Y-74037911D01*
X107323352Y-74037909D01*
X107237192Y-73922815D01*
X107237184Y-73922807D01*
X107122090Y-73836647D01*
X107122088Y-73836646D01*
X106987381Y-73786403D01*
X106987370Y-73786401D01*
X106927824Y-73780000D01*
X106330001Y-73780000D01*
X106330000Y-73780001D01*
X106330000Y-74764314D01*
X106325606Y-74759920D01*
X106234394Y-74707259D01*
X106132661Y-74680000D01*
X106027339Y-74680000D01*
X105925606Y-74707259D01*
X105834394Y-74759920D01*
X105830000Y-74764314D01*
X105830000Y-73780001D01*
X105829999Y-73780000D01*
X105232176Y-73780000D01*
X105172629Y-73786401D01*
X105172618Y-73786403D01*
X105037911Y-73836646D01*
X105037909Y-73836647D01*
X104922815Y-73922807D01*
X104922807Y-73922815D01*
X104836647Y-74037909D01*
X104836646Y-74037911D01*
X104786403Y-74172618D01*
X104786401Y-74172629D01*
X104780000Y-74232175D01*
X104780000Y-74829999D01*
X104780001Y-74830000D01*
X105764314Y-74830000D01*
X105759920Y-74834394D01*
X105707259Y-74925606D01*
X105680000Y-75027339D01*
X105680000Y-75132661D01*
X105707259Y-75234394D01*
X105759920Y-75325606D01*
X105764314Y-75330000D01*
X104780001Y-75330000D01*
X104780000Y-75330001D01*
X104780000Y-75927824D01*
X104779999Y-75927824D01*
X102543500Y-75927824D01*
X102543500Y-75413901D01*
X102562407Y-75355710D01*
X102572496Y-75343897D01*
X105835897Y-72080496D01*
X105890414Y-72052719D01*
X105905901Y-72051500D01*
X111944013Y-72051500D01*
X112002204Y-72070407D01*
X112034576Y-72110510D01*
X112076194Y-72204765D01*
X112155635Y-72284206D01*
X112258409Y-72329585D01*
X112283535Y-72332500D01*
X113338464Y-72332499D01*
X113363591Y-72329585D01*
X113466365Y-72284206D01*
X113545806Y-72204765D01*
X113591185Y-72101991D01*
X113591186Y-72101978D01*
X113591769Y-72099838D01*
X113592892Y-72098122D01*
X113594192Y-72095179D01*
X113594678Y-72095393D01*
X113625286Y-72048650D01*
X113682490Y-72026938D01*
X113741530Y-72042996D01*
X113779856Y-72090691D01*
X113782825Y-72099826D01*
X113783412Y-72101984D01*
X113783414Y-72101990D01*
X113783415Y-72101991D01*
X113828794Y-72204765D01*
X113908235Y-72284206D01*
X114011009Y-72329585D01*
X114036135Y-72332500D01*
X115091064Y-72332499D01*
X115116191Y-72329585D01*
X115218965Y-72284206D01*
X115298406Y-72204765D01*
X115340023Y-72110510D01*
X115380823Y-72064916D01*
X115430587Y-72051500D01*
X115766079Y-72051500D01*
X115824270Y-72070407D01*
X115858175Y-72114180D01*
X115874138Y-72154658D01*
X115963500Y-72272500D01*
X116081342Y-72361862D01*
X116218923Y-72416117D01*
X116305382Y-72426500D01*
X116305384Y-72426500D01*
X116889616Y-72426500D01*
X116889618Y-72426500D01*
X116976077Y-72416117D01*
X117113658Y-72361862D01*
X117231500Y-72272500D01*
X117320544Y-72155077D01*
X117370769Y-72120136D01*
X117431942Y-72121389D01*
X117480695Y-72158359D01*
X117493402Y-72183757D01*
X117499548Y-72202306D01*
X117590053Y-72349035D01*
X117711964Y-72470946D01*
X117858693Y-72561451D01*
X118022351Y-72615681D01*
X118123345Y-72625999D01*
X118172500Y-72625998D01*
X118172500Y-71901001D01*
X118672500Y-71901001D01*
X118672500Y-72625998D01*
X118672501Y-72625999D01*
X118721654Y-72625999D01*
X118822642Y-72615682D01*
X118822654Y-72615679D01*
X118986306Y-72561451D01*
X119133035Y-72470946D01*
X119254946Y-72349035D01*
X119345451Y-72202306D01*
X119399681Y-72038648D01*
X119410000Y-71937655D01*
X119410000Y-71901001D01*
X119409999Y-71901000D01*
X118672501Y-71901000D01*
X118672500Y-71901001D01*
X118172500Y-71901001D01*
X118172500Y-70676001D01*
X118672500Y-70676001D01*
X118672500Y-71400999D01*
X118672501Y-71401000D01*
X119409998Y-71401000D01*
X119409999Y-71400999D01*
X119409999Y-71364345D01*
X119399682Y-71263357D01*
X119399679Y-71263345D01*
X119345451Y-71099693D01*
X119254946Y-70952964D01*
X119133035Y-70831053D01*
X118986306Y-70740548D01*
X118822648Y-70686318D01*
X118721655Y-70676000D01*
X118672501Y-70676000D01*
X118672500Y-70676001D01*
X118172500Y-70676001D01*
X118172500Y-70675999D01*
X118123347Y-70676000D01*
X118123344Y-70676001D01*
X118022357Y-70686317D01*
X118022345Y-70686320D01*
X117858693Y-70740548D01*
X117711964Y-70831053D01*
X117590053Y-70952964D01*
X117499549Y-71099692D01*
X117493402Y-71118243D01*
X117457150Y-71167533D01*
X117398850Y-71186100D01*
X117340770Y-71166854D01*
X117320543Y-71146921D01*
X117231502Y-71029503D01*
X117231500Y-71029500D01*
X117113658Y-70940138D01*
X116976079Y-70885883D01*
X116889620Y-70875500D01*
X116889618Y-70875500D01*
X116305382Y-70875500D01*
X116305379Y-70875500D01*
X116218920Y-70885883D01*
X116081341Y-70940138D01*
X115963503Y-71029497D01*
X115963497Y-71029503D01*
X115874139Y-71147340D01*
X115874138Y-71147341D01*
X115874138Y-71147342D01*
X115858175Y-71187819D01*
X115819240Y-71235016D01*
X115766079Y-71250500D01*
X115430587Y-71250500D01*
X115372396Y-71231593D01*
X115340023Y-71191489D01*
X115298406Y-71097235D01*
X115218965Y-71017794D01*
X115116191Y-70972415D01*
X115116190Y-70972414D01*
X115116188Y-70972414D01*
X115091068Y-70969500D01*
X114036139Y-70969500D01*
X114036136Y-70969501D01*
X114011009Y-70972414D01*
X113908235Y-71017794D01*
X113828794Y-71097235D01*
X113787178Y-71191488D01*
X113783413Y-71200014D01*
X113782826Y-71202173D01*
X113781703Y-71203886D01*
X113780408Y-71206821D01*
X113779922Y-71206606D01*
X113749303Y-71253357D01*
X113692097Y-71275062D01*
X113633058Y-71258996D01*
X113594738Y-71211297D01*
X113591772Y-71202166D01*
X113591185Y-71200011D01*
X113591185Y-71200009D01*
X113545806Y-71097235D01*
X113466365Y-71017794D01*
X113363591Y-70972415D01*
X113363590Y-70972414D01*
X113363588Y-70972414D01*
X113338468Y-70969500D01*
X112283539Y-70969500D01*
X112283536Y-70969501D01*
X112258409Y-70972414D01*
X112155635Y-71017794D01*
X112076194Y-71097235D01*
X112034576Y-71191489D01*
X111993777Y-71237084D01*
X111944013Y-71250500D01*
X105646273Y-71250500D01*
X105595343Y-71264146D01*
X105544411Y-71277793D01*
X105515422Y-71294531D01*
X105515421Y-71294530D01*
X105453088Y-71330519D01*
X101822516Y-74961091D01*
X101769793Y-75052411D01*
X101769792Y-75052411D01*
X101769793Y-75052412D01*
X101742500Y-75154273D01*
X101742500Y-93816129D01*
X101729236Y-93865630D01*
X101710424Y-93898211D01*
X101710423Y-93898215D01*
X101669499Y-94050943D01*
X101075500Y-94050943D01*
X101075500Y-71273891D01*
X101075805Y-71266124D01*
X101078253Y-71235016D01*
X101089595Y-71090900D01*
X101092022Y-71075571D01*
X101132146Y-70908445D01*
X101136942Y-70893686D01*
X101202718Y-70734890D01*
X101209755Y-70721078D01*
X101299564Y-70574523D01*
X101308684Y-70561971D01*
X101420309Y-70431275D01*
X101431275Y-70420309D01*
X101561971Y-70308684D01*
X101574523Y-70299564D01*
X101721078Y-70209755D01*
X101734890Y-70202718D01*
X101893686Y-70136942D01*
X101908445Y-70132146D01*
X102075571Y-70092022D01*
X102090900Y-70089595D01*
X102266125Y-70075805D01*
X102273892Y-70075500D01*
X102294531Y-70075500D01*
X125105469Y-70075500D01*
X125126108Y-70075500D01*
X125133875Y-70075805D01*
G37*
G04 #@! TD.AperFunction*
M02*
