M48
; DRILL file {KiCad 9.0.6} date 2025-11-30T20:07:10+0900
; FORMAT={-:-/ absolute / metric / decimal}
; #@! TF.CreationDate,2025-11-30T20:07:10+09:00
; #@! TF.GenerationSoftware,Kicad,Pcbnew,9.0.6
; #@! TF.FileFunction,Plated,1,2,PTH
FMAT,2
METRIC
; #@! TA.AperFunction,Plated,PTH,ViaDrill
T1C0.300
; #@! TA.AperFunction,Plated,PTH,ComponentDrill
T2C1.000
%
G90
G05
T1
X101.406Y-92.377
X101.711Y-102.283
X102.626Y-99.134
X103.438Y-84.681
X104.073Y-88.796
X104.073Y-95.959
X104.15Y-132.611
X104.226Y-95.146
X104.388Y-90.949
X104.54Y-101.852
X104.686Y-96.749
X105.353Y-97.559
X105.587Y-85.773
X105.587Y-88.821
X105.587Y-91.387
X106.944Y-101.877
X106.944Y-106.982
X106.944Y-121.308
X107.274Y-98.118
X107.822Y-92.872
X107.934Y-86.662
X107.96Y-103.706
X107.993Y-92.09
X108.036Y-96.746
X108.045Y-108.811
X108.168Y-98.163
X108.645Y-102.715
X108.645Y-106.424
X108.976Y-87.882
X109.23Y-82.268
X109.509Y-97.432
X110.296Y-111.605
X110.296Y-117.092
X110.347Y-115.771
X110.621Y-96.447
X110.655Y-85.672
X110.804Y-110.665
X110.825Y-97.539
X111.135Y-103.884
X111.135Y-109.167
X111.135Y-111.732
X112.125Y-105.611
X112.176Y-111.808
X112.176Y-120.368
X112.354Y-94.359
X112.573Y-95.841
X112.836Y-107.033
X112.836Y-116.371
X113.093Y-86.291
X113.217Y-94.105
X113.344Y-98.931
X114.106Y-91.59
X114.208Y-104.747
X114.381Y-117.442
X114.638Y-87.149
X114.949Y-111.69
X114.97Y-93.927
X115.808Y-102.639
X115.973Y-91.399
X116.062Y-71.524
X116.265Y-129.588
X116.596Y-93.622
X116.697Y-113.18
X117.053Y-114.094
X117.358Y-96.645
X118.297Y-86.154
X118.323Y-110.335
X118.813Y-104.917
X118.932Y-104.112
X120.05Y-116.371
X120.38Y-95.527
X120.533Y-85.469
X120.98Y-96.137
X121.345Y-102.69
X121.345Y-104.265
X121.599Y-96.66
X122.149Y-97.737
X122.158Y-123.95
X122.946Y-85.443
X123.038Y-107.313
X123.047Y-97.28
X123.131Y-113.62
X123.403Y-91.184
X123.479Y-97.991
X123.504Y-132.865
X123.708Y-92.733
X123.784Y-119.098
X124.076Y-115.047
X124.317Y-75.182
X125.867Y-104.112
T2
X109.89Y-75.08
X109.89Y-133.5
X117.51Y-75.08
X117.51Y-133.5
M30
