G04 #@! TF.GenerationSoftware,KiCad,Pcbnew,8.0.4+dfsg-1*
G04 #@! TF.CreationDate,2025-02-23T17:17:59+09:00*
G04 #@! TF.ProjectId,bionic-tms7000,62696f6e-6963-42d7-946d-73373030302e,3*
G04 #@! TF.SameCoordinates,Original*
G04 #@! TF.FileFunction,Copper,L1,Top*
G04 #@! TF.FilePolarity,Positive*
%FSLAX46Y46*%
G04 Gerber Fmt 4.6, Leading zero omitted, Abs format (unit mm)*
G04 Created by KiCad (PCBNEW 8.0.4+dfsg-1) date 2025-02-23 17:17:59*
%MOMM*%
%LPD*%
G01*
G04 APERTURE LIST*
G04 Aperture macros list*
%AMRoundRect*
0 Rectangle with rounded corners*
0 $1 Rounding radius*
0 $2 $3 $4 $5 $6 $7 $8 $9 X,Y pos of 4 corners*
0 Add a 4 corners polygon primitive as box body*
4,1,4,$2,$3,$4,$5,$6,$7,$8,$9,$2,$3,0*
0 Add four circle primitives for the rounded corners*
1,1,$1+$1,$2,$3*
1,1,$1+$1,$4,$5*
1,1,$1+$1,$6,$7*
1,1,$1+$1,$8,$9*
0 Add four rect primitives between the rounded corners*
20,1,$1+$1,$2,$3,$4,$5,0*
20,1,$1+$1,$4,$5,$6,$7,0*
20,1,$1+$1,$6,$7,$8,$9,0*
20,1,$1+$1,$8,$9,$2,$3,0*%
G04 Aperture macros list end*
G04 #@! TA.AperFunction,SMDPad,CuDef*
%ADD10R,0.660400X1.625600*%
G04 #@! TD*
G04 #@! TA.AperFunction,ComponentPad*
%ADD11O,1.600000X1.600000*%
G04 #@! TD*
G04 #@! TA.AperFunction,ComponentPad*
%ADD12R,1.600000X1.600000*%
G04 #@! TD*
G04 #@! TA.AperFunction,ComponentPad*
%ADD13O,1.700000X1.700000*%
G04 #@! TD*
G04 #@! TA.AperFunction,ComponentPad*
%ADD14R,1.700000X1.700000*%
G04 #@! TD*
G04 #@! TA.AperFunction,SMDPad,CuDef*
%ADD15R,0.965200X0.762000*%
G04 #@! TD*
G04 #@! TA.AperFunction,SMDPad,CuDef*
%ADD16RoundRect,0.237500X0.237500X-0.300000X0.237500X0.300000X-0.237500X0.300000X-0.237500X-0.300000X0*%
G04 #@! TD*
G04 #@! TA.AperFunction,SMDPad,CuDef*
%ADD17RoundRect,0.237500X0.250000X0.237500X-0.250000X0.237500X-0.250000X-0.237500X0.250000X-0.237500X0*%
G04 #@! TD*
G04 #@! TA.AperFunction,ViaPad*
%ADD18C,0.600000*%
G04 #@! TD*
G04 #@! TA.AperFunction,Conductor*
%ADD19C,0.600000*%
G04 #@! TD*
G04 #@! TA.AperFunction,Conductor*
%ADD20C,0.200000*%
G04 #@! TD*
G04 #@! TA.AperFunction,Conductor*
%ADD21C,0.800000*%
G04 #@! TD*
G04 APERTURE END LIST*
D10*
X114650001Y-128420000D03*
X112749999Y-128420000D03*
X113700000Y-130552000D03*
D11*
X121320000Y-75080000D03*
X121320000Y-77620000D03*
X121320000Y-80160000D03*
X121320000Y-82700000D03*
X121320000Y-85240000D03*
X121320000Y-87780000D03*
X121320000Y-90320000D03*
X121320000Y-92860000D03*
X121320000Y-95400000D03*
X121320000Y-97940000D03*
X121320000Y-100480000D03*
X121320000Y-103020000D03*
X121320000Y-105560000D03*
X121320000Y-108100000D03*
X121320000Y-110640000D03*
X121320000Y-113180000D03*
X121320000Y-115720000D03*
X121320000Y-118260000D03*
X121320000Y-120800000D03*
X121320000Y-123340000D03*
X106080000Y-123340000D03*
X106080000Y-120800000D03*
X106080000Y-118260000D03*
X106080000Y-115720000D03*
X106080000Y-113180000D03*
X106080000Y-110640000D03*
X106080000Y-108100000D03*
X106080000Y-105560000D03*
X106080000Y-103020000D03*
X106080000Y-100480000D03*
X106080000Y-97940000D03*
X106080000Y-95400000D03*
X106080000Y-92860000D03*
X106080000Y-90320000D03*
X106080000Y-87780000D03*
X106080000Y-85240000D03*
X106080000Y-82700000D03*
X106080000Y-80160000D03*
X106080000Y-77620000D03*
D12*
X106080000Y-75080000D03*
D13*
X117510000Y-133500000D03*
X117510000Y-130960000D03*
X117510000Y-128420000D03*
X117510000Y-125880000D03*
X117510000Y-123340000D03*
X117510000Y-120800000D03*
X117510000Y-118260000D03*
X117510000Y-115720000D03*
X117510000Y-113180000D03*
X117510000Y-110640000D03*
X117510000Y-108100000D03*
X117510000Y-105560000D03*
X117510000Y-103020000D03*
X117510000Y-100480000D03*
X117510000Y-97940000D03*
X117510000Y-95400000D03*
X117510000Y-92860000D03*
X117510000Y-90320000D03*
X117510000Y-87780000D03*
X117510000Y-85240000D03*
X117510000Y-82700000D03*
X117510000Y-80160000D03*
X117510000Y-77620000D03*
D14*
X117510000Y-75080000D03*
X109890000Y-75080000D03*
D13*
X109890000Y-77620000D03*
X109890000Y-80160000D03*
X109890000Y-82700000D03*
X109890000Y-85240000D03*
X109890000Y-87780000D03*
X109890000Y-90320000D03*
X109890000Y-92860000D03*
X109890000Y-95400000D03*
X109890000Y-97940000D03*
X109890000Y-100480000D03*
X109890000Y-103020000D03*
X109890000Y-105560000D03*
X109890000Y-108100000D03*
X109890000Y-110640000D03*
X109890000Y-113180000D03*
X109890000Y-115720000D03*
X109890000Y-118260000D03*
X109890000Y-120800000D03*
X109890000Y-123340000D03*
X109890000Y-125880000D03*
X109890000Y-128420000D03*
X109890000Y-130960000D03*
X109890000Y-133500000D03*
D15*
X112823700Y-71778000D03*
X114576300Y-71778000D03*
D16*
X123961600Y-113178900D03*
X123961600Y-111453900D03*
D17*
X110802500Y-71778000D03*
X108977500Y-71778000D03*
D18*
X117510000Y-71778000D03*
X125130000Y-133500000D03*
X114309600Y-100276800D03*
X102397000Y-79017000D03*
X114970000Y-90320000D03*
X114970000Y-87780000D03*
X114462000Y-116736000D03*
X123987000Y-109751000D03*
X125130000Y-75080000D03*
X113700000Y-132230000D03*
X115097000Y-92860000D03*
X113700000Y-80160000D03*
X121320000Y-128420000D03*
X113700000Y-123848000D03*
X104302000Y-88923000D03*
X103540000Y-130960000D03*
X114970000Y-85240000D03*
X123352000Y-116863000D03*
X113656735Y-96713265D03*
X113056735Y-94688800D03*
X112256735Y-92301200D03*
X111626800Y-89202400D03*
X104321000Y-119530000D03*
X112825500Y-116863000D03*
X114986000Y-95781000D03*
X113352544Y-117643250D03*
X116113000Y-116990000D03*
X124368000Y-82954000D03*
X123606000Y-80541000D03*
D19*
X124418800Y-129766200D02*
X120685000Y-133500000D01*
D20*
X117510000Y-71778000D02*
X114576300Y-71778000D01*
X112749999Y-133434001D02*
X112684000Y-133500000D01*
D19*
X121320000Y-113180000D02*
X123960500Y-113180000D01*
X120685000Y-133500000D02*
X117510000Y-133500000D01*
X109890000Y-133500000D02*
X112684000Y-133500000D01*
D20*
X112749999Y-128420000D02*
X112749999Y-133434001D01*
D19*
X124418800Y-113636100D02*
X124418800Y-129766200D01*
X112684000Y-133500000D02*
X117510000Y-133500000D01*
X123961600Y-113178900D02*
X124418800Y-113636100D01*
D20*
X123706500Y-113180000D02*
X123860000Y-113026500D01*
D21*
X123960500Y-113180000D02*
X123961600Y-113178900D01*
D20*
X112823700Y-71778000D02*
X110802500Y-71778000D01*
X109890000Y-77620000D02*
X111040000Y-76470000D01*
X124044000Y-87594630D02*
X124044000Y-102836000D01*
X122971000Y-83785314D02*
X123244000Y-84058315D01*
X111040000Y-76470000D02*
X121725635Y-76470000D01*
X122971000Y-77715365D02*
X122971000Y-83785314D01*
X124044000Y-102836000D02*
X121320000Y-105560000D01*
X123244000Y-86794628D02*
X124044000Y-87594630D01*
X121725635Y-76470000D02*
X122971000Y-77715365D01*
X123244000Y-84058315D02*
X123244000Y-86794628D01*
X113656735Y-83926735D02*
X109890000Y-80160000D01*
X113656735Y-96713265D02*
X113656735Y-83926735D01*
X113056735Y-94688800D02*
X113056735Y-93706465D01*
X113256735Y-93506465D02*
X113256735Y-86066735D01*
X113056735Y-93706465D02*
X113256735Y-93506465D01*
X113256735Y-86066735D02*
X109890000Y-82700000D01*
X112226800Y-87576800D02*
X109890000Y-85240000D01*
X112226800Y-92271265D02*
X112226800Y-87576800D01*
X112256735Y-92301200D02*
X112226800Y-92271265D01*
X111566400Y-89262800D02*
X111566400Y-91183600D01*
X111626800Y-89202400D02*
X111566400Y-89262800D01*
X111566400Y-91183600D02*
X109890000Y-92860000D01*
X107566000Y-91806000D02*
X107566000Y-98664000D01*
X108366000Y-99464000D02*
X108366000Y-101496000D01*
X107566000Y-98664000D02*
X108366000Y-99464000D01*
X106080000Y-90320000D02*
X107566000Y-91806000D01*
X108366000Y-101496000D02*
X109890000Y-103020000D01*
X107350000Y-108100000D02*
X109890000Y-110640000D01*
X107350000Y-99210000D02*
X107350000Y-108100000D01*
X106080000Y-97940000D02*
X107350000Y-99210000D01*
X106080000Y-110640000D02*
X107858000Y-112418000D01*
X107858000Y-112418000D02*
X107858000Y-113688000D01*
X107858000Y-113688000D02*
X109890000Y-115720000D01*
X105572000Y-116990000D02*
X104302000Y-115720000D01*
X104302000Y-102258000D02*
X106080000Y-100480000D01*
X104302000Y-115720000D02*
X104302000Y-102258000D01*
X109890000Y-118260000D02*
X108620000Y-116990000D01*
X108620000Y-116990000D02*
X105572000Y-116990000D01*
X104302000Y-119549000D02*
X104302000Y-125372000D01*
X104302000Y-125372000D02*
X109890000Y-130960000D01*
X104321000Y-119530000D02*
X104302000Y-119549000D01*
X116367000Y-130960000D02*
X117510000Y-130960000D01*
X114650001Y-129243001D02*
X116367000Y-130960000D01*
X114650001Y-128420000D02*
X114650001Y-129243001D01*
X110579000Y-99210000D02*
X111425500Y-100056500D01*
X107966000Y-97921000D02*
X109255000Y-99210000D01*
X106080000Y-85240000D02*
X107966000Y-87126000D01*
X111425500Y-100056500D02*
X111425500Y-117890500D01*
X109255000Y-99210000D02*
X110579000Y-99210000D01*
X111425500Y-117890500D02*
X115986000Y-122451000D01*
X115986000Y-124356000D02*
X117510000Y-125880000D01*
X107966000Y-87126000D02*
X107966000Y-97921000D01*
X115986000Y-122451000D02*
X115986000Y-124356000D01*
X106080000Y-82700000D02*
X108366000Y-84986000D01*
X108366000Y-84986000D02*
X108366000Y-95781000D01*
X108366000Y-95781000D02*
X109255000Y-96670000D01*
X111825500Y-97970500D02*
X111825500Y-117655500D01*
X109255000Y-96670000D02*
X110525000Y-96670000D01*
X111825500Y-117655500D02*
X117510000Y-123340000D01*
X110525000Y-96670000D02*
X111825500Y-97970500D01*
X107858000Y-82573000D02*
X109255000Y-83970000D01*
X109255000Y-83970000D02*
X110398000Y-83970000D01*
X106080000Y-77620000D02*
X107858000Y-79398000D01*
X112225500Y-93623300D02*
X112225500Y-117420500D01*
X107858000Y-79398000D02*
X107858000Y-82573000D01*
X112225500Y-117420500D02*
X113065000Y-118260000D01*
X113065000Y-118260000D02*
X117510000Y-118260000D01*
X112856735Y-86428735D02*
X112856735Y-92992065D01*
X112856735Y-92992065D02*
X112225500Y-93623300D01*
X110398000Y-83970000D02*
X112856735Y-86428735D01*
X122844000Y-86960314D02*
X123644000Y-87760315D01*
X122034365Y-101797635D02*
X120764365Y-101797635D01*
X123644000Y-87760315D02*
X123644000Y-100188000D01*
X120764365Y-101797635D02*
X119923000Y-102639000D01*
X123644000Y-100188000D02*
X122034365Y-101797635D01*
X121320000Y-82700000D02*
X122844000Y-84224000D01*
X119923000Y-108227000D02*
X117510000Y-110640000D01*
X122844000Y-84224000D02*
X122844000Y-86960314D01*
X119923000Y-102639000D02*
X119923000Y-108227000D01*
X123244000Y-87926000D02*
X121828000Y-86510000D01*
X119923000Y-85621000D02*
X119923000Y-81557000D01*
X121828000Y-86510000D02*
X120812000Y-86510000D01*
X117510000Y-108100000D02*
X119034000Y-106576000D01*
X121955000Y-99210000D02*
X123244000Y-97921000D01*
X120812000Y-86510000D02*
X119923000Y-85621000D01*
X123244000Y-97921000D02*
X123244000Y-87926000D01*
X119923000Y-101369000D02*
X119923000Y-100226000D01*
X119034000Y-106576000D02*
X119034000Y-102258000D01*
X119034000Y-102258000D02*
X119923000Y-101369000D01*
X119923000Y-100226000D02*
X120939000Y-99210000D01*
X119923000Y-81557000D02*
X121320000Y-80160000D01*
X120939000Y-99210000D02*
X121955000Y-99210000D01*
X120685000Y-89050000D02*
X121828000Y-89050000D01*
X119923000Y-97432000D02*
X119923000Y-98067000D01*
X121955000Y-96670000D02*
X120685000Y-96670000D01*
X122844000Y-95781000D02*
X121955000Y-96670000D01*
X120685000Y-96670000D02*
X119923000Y-97432000D01*
X119161000Y-79779000D02*
X119161000Y-87526000D01*
X121320000Y-77620000D02*
X119161000Y-79779000D01*
X119161000Y-87526000D02*
X120685000Y-89050000D01*
X119923000Y-98067000D02*
X117510000Y-100480000D01*
X121828000Y-89050000D02*
X122844000Y-90066000D01*
X122844000Y-90066000D02*
X122844000Y-95781000D01*
X114462000Y-96797000D02*
X112825500Y-98433500D01*
X114462000Y-96305000D02*
X114462000Y-96797000D01*
X112825500Y-98433500D02*
X112825500Y-116863000D01*
X114986000Y-95781000D02*
X114462000Y-96305000D01*
X113425500Y-117570294D02*
X113352544Y-117643250D01*
X115586000Y-96435000D02*
X113425500Y-98595500D01*
X117510000Y-92860000D02*
X115586000Y-94784000D01*
X115586000Y-94784000D02*
X115586000Y-96435000D01*
X113425500Y-98595500D02*
X113425500Y-117570294D01*
X119396000Y-121416000D02*
X121320000Y-123340000D01*
X115624000Y-97921000D02*
X115624000Y-113265700D01*
X119523000Y-95546000D02*
X118399000Y-96670000D01*
X117510000Y-90320000D02*
X119523000Y-92333000D01*
X119523000Y-92333000D02*
X119523000Y-95546000D01*
X115624000Y-113265700D02*
X116808300Y-114450000D01*
X118223650Y-114450000D02*
X119396000Y-115622350D01*
X116808300Y-114450000D02*
X118223650Y-114450000D01*
X118399000Y-96670000D02*
X116875000Y-96670000D01*
X116875000Y-96670000D02*
X115624000Y-97921000D01*
X119396000Y-115622350D02*
X119396000Y-121416000D01*
X119923000Y-90193000D02*
X119923000Y-96196657D01*
X119034000Y-97085657D02*
X119034000Y-98321000D01*
X116938500Y-99210000D02*
X116024000Y-100124500D01*
X119923000Y-96196657D02*
X119034000Y-97085657D01*
X118145000Y-99210000D02*
X116938500Y-99210000D01*
X116024000Y-100124500D02*
X116024000Y-111186000D01*
X119796000Y-113434000D02*
X119796000Y-119276000D01*
X119796000Y-119276000D02*
X121320000Y-120800000D01*
X117510000Y-87780000D02*
X119923000Y-90193000D01*
X116024000Y-111186000D02*
X116748000Y-111910000D01*
X116748000Y-111910000D02*
X118272000Y-111910000D01*
X118272000Y-111910000D02*
X119796000Y-113434000D01*
X119034000Y-98321000D02*
X118145000Y-99210000D01*
X115224000Y-97559000D02*
X115224000Y-116101000D01*
X118107000Y-91590000D02*
X119034000Y-92517000D01*
X115224000Y-116101000D02*
X116113000Y-116990000D01*
X116685686Y-94250000D02*
X115986000Y-94949686D01*
X115986000Y-94949686D02*
X115986000Y-96797000D01*
X119034000Y-92517000D02*
X119034000Y-93622000D01*
X119034000Y-93622000D02*
X118406000Y-94250000D01*
X115986000Y-90701000D02*
X116875000Y-91590000D01*
X115986000Y-96797000D02*
X115224000Y-97559000D01*
X118406000Y-94250000D02*
X116685686Y-94250000D01*
X115986000Y-86764000D02*
X115986000Y-90701000D01*
X117510000Y-85240000D02*
X115986000Y-86764000D01*
X116875000Y-91590000D02*
X118107000Y-91590000D01*
X124368000Y-82954000D02*
X124368000Y-86787259D01*
X124844000Y-107116000D02*
X121320000Y-110640000D01*
X124844000Y-87263260D02*
X124844000Y-107116000D01*
X124368000Y-86787259D02*
X124844000Y-87263260D01*
X123644000Y-86628943D02*
X124444000Y-87428945D01*
X124444000Y-104976000D02*
X121320000Y-108100000D01*
X124444000Y-87428945D02*
X124444000Y-104976000D01*
X123606000Y-80541000D02*
X123644000Y-80579000D01*
X123644000Y-80579000D02*
X123644000Y-86628943D01*
G04 #@! TA.AperFunction,Conductor*
G36*
X114769445Y-97914691D02*
G01*
X114812710Y-97957956D01*
X114823500Y-98002901D01*
X114823500Y-116048273D01*
X114823500Y-116153727D01*
X114847570Y-116243559D01*
X114850794Y-116255592D01*
X114903516Y-116346908D01*
X114903518Y-116346910D01*
X114903520Y-116346913D01*
X115478323Y-116921716D01*
X115506099Y-116976231D01*
X115506981Y-116987447D01*
X115527955Y-117146758D01*
X115527957Y-117146766D01*
X115588462Y-117292838D01*
X115588462Y-117292839D01*
X115646839Y-117368917D01*
X115684718Y-117418282D01*
X115810159Y-117514536D01*
X115810160Y-117514536D01*
X115810161Y-117514537D01*
X115893751Y-117549161D01*
X115956238Y-117575044D01*
X116073809Y-117590522D01*
X116112999Y-117595682D01*
X116113000Y-117595682D01*
X116113001Y-117595682D01*
X116144352Y-117591554D01*
X116269762Y-117575044D01*
X116398319Y-117521793D01*
X116459314Y-117516993D01*
X116511483Y-117548962D01*
X116534898Y-117605490D01*
X116524825Y-117657385D01*
X116451509Y-117804627D01*
X116408646Y-117848290D01*
X116362887Y-117859500D01*
X114042644Y-117859500D01*
X113984453Y-117840593D01*
X113948489Y-117791093D01*
X113944491Y-117747578D01*
X113958226Y-117643250D01*
X113958226Y-117643249D01*
X113951964Y-117595682D01*
X113937588Y-117486488D01*
X113935562Y-117481597D01*
X113877082Y-117340413D01*
X113877081Y-117340412D01*
X113877080Y-117340409D01*
X113846456Y-117300499D01*
X113826034Y-117242825D01*
X113826000Y-117240234D01*
X113826000Y-98802401D01*
X113844907Y-98744210D01*
X113854996Y-98732397D01*
X114654496Y-97932897D01*
X114709013Y-97905120D01*
X114769445Y-97914691D01*
G37*
G04 #@! TD.AperFunction*
G04 #@! TA.AperFunction,Conductor*
G36*
X125133875Y-70075805D02*
G01*
X125309097Y-70089594D01*
X125324430Y-70092023D01*
X125491550Y-70132145D01*
X125506317Y-70136943D01*
X125665104Y-70202715D01*
X125678926Y-70209758D01*
X125825469Y-70299560D01*
X125838032Y-70308688D01*
X125968717Y-70420303D01*
X125979699Y-70431285D01*
X126091311Y-70561967D01*
X126100440Y-70574532D01*
X126190238Y-70721068D01*
X126197287Y-70734902D01*
X126263054Y-70893678D01*
X126267855Y-70908453D01*
X126307975Y-71075564D01*
X126310405Y-71090907D01*
X126318437Y-71192956D01*
X126323198Y-71253462D01*
X126324195Y-71266123D01*
X126324500Y-71273891D01*
X126324500Y-137306108D01*
X126324195Y-137313876D01*
X126310405Y-137489092D01*
X126307975Y-137504435D01*
X126267855Y-137671546D01*
X126263054Y-137686321D01*
X126197287Y-137845097D01*
X126190234Y-137858939D01*
X126100442Y-138005465D01*
X126091311Y-138018032D01*
X125979699Y-138148714D01*
X125968714Y-138159699D01*
X125838032Y-138271311D01*
X125825465Y-138280442D01*
X125678939Y-138370234D01*
X125665097Y-138377287D01*
X125506321Y-138443054D01*
X125491546Y-138447855D01*
X125324435Y-138487975D01*
X125309092Y-138490405D01*
X125149743Y-138502946D01*
X125133874Y-138504195D01*
X125126108Y-138504500D01*
X102273892Y-138504500D01*
X102266125Y-138504195D01*
X102247014Y-138502691D01*
X102090907Y-138490405D01*
X102075564Y-138487975D01*
X101908453Y-138447855D01*
X101893678Y-138443054D01*
X101734902Y-138377287D01*
X101721068Y-138370238D01*
X101574532Y-138280440D01*
X101561967Y-138271311D01*
X101462706Y-138186535D01*
X101431282Y-138159696D01*
X101420303Y-138148717D01*
X101308688Y-138018032D01*
X101299560Y-138005469D01*
X101209758Y-137858926D01*
X101202715Y-137845104D01*
X101136943Y-137686317D01*
X101132144Y-137671546D01*
X101092024Y-137504435D01*
X101089594Y-137489097D01*
X101075805Y-137313875D01*
X101075500Y-137306108D01*
X101075500Y-119529999D01*
X103715318Y-119529999D01*
X103715318Y-119530000D01*
X103735955Y-119686758D01*
X103735957Y-119686766D01*
X103796462Y-119832838D01*
X103796463Y-119832839D01*
X103796464Y-119832841D01*
X103861823Y-119918019D01*
X103881042Y-119943065D01*
X103901466Y-120000741D01*
X103901500Y-120003332D01*
X103901500Y-125319273D01*
X103901500Y-125424727D01*
X103911650Y-125462608D01*
X103928794Y-125526592D01*
X103981516Y-125617908D01*
X103981517Y-125617909D01*
X103981518Y-125617910D01*
X103981520Y-125617913D01*
X106571295Y-128207688D01*
X108793348Y-130429741D01*
X108821125Y-130484258D01*
X108812904Y-130537818D01*
X108814249Y-130538339D01*
X108812598Y-130542598D01*
X108754244Y-130747688D01*
X108749211Y-130802001D01*
X108734571Y-130960000D01*
X108754244Y-131172310D01*
X108812595Y-131377389D01*
X108907634Y-131568255D01*
X109036128Y-131738407D01*
X109036135Y-131738413D01*
X109193692Y-131882047D01*
X109193699Y-131882053D01*
X109220081Y-131898388D01*
X109374981Y-131994298D01*
X109573802Y-132071321D01*
X109783390Y-132110500D01*
X109996610Y-132110500D01*
X110206198Y-132071321D01*
X110405019Y-131994298D01*
X110586302Y-131882052D01*
X110743872Y-131738407D01*
X110872366Y-131568255D01*
X110967405Y-131377389D01*
X111025756Y-131172310D01*
X111045429Y-130960000D01*
X111025756Y-130747690D01*
X110967405Y-130542611D01*
X110872366Y-130351745D01*
X110743872Y-130181593D01*
X110689623Y-130132139D01*
X110586307Y-130037952D01*
X110586300Y-130037946D01*
X110405024Y-129925705D01*
X110405019Y-129925702D01*
X110319657Y-129892633D01*
X110206198Y-129848679D01*
X110206197Y-129848678D01*
X110206195Y-129848678D01*
X109996610Y-129809500D01*
X109783390Y-129809500D01*
X109573802Y-129848678D01*
X109469091Y-129889243D01*
X109408000Y-129892633D01*
X109363325Y-129866932D01*
X107916393Y-128420000D01*
X108734571Y-128420000D01*
X108754244Y-128632310D01*
X108812595Y-128837389D01*
X108907634Y-129028255D01*
X109036128Y-129198407D01*
X109036135Y-129198413D01*
X109193692Y-129342047D01*
X109193699Y-129342053D01*
X109296273Y-129405564D01*
X109374981Y-129454298D01*
X109573802Y-129531321D01*
X109783390Y-129570500D01*
X109996610Y-129570500D01*
X110206198Y-129531321D01*
X110405019Y-129454298D01*
X110586302Y-129342052D01*
X110743872Y-129198407D01*
X110872366Y-129028255D01*
X110967405Y-128837389D01*
X111025756Y-128632310D01*
X111045429Y-128420000D01*
X111025756Y-128207690D01*
X110967405Y-128002611D01*
X110872366Y-127811745D01*
X110743872Y-127641593D01*
X110656931Y-127562335D01*
X110586307Y-127497952D01*
X110586300Y-127497946D01*
X110405024Y-127385705D01*
X110405019Y-127385702D01*
X110208614Y-127309615D01*
X110206198Y-127308679D01*
X110206197Y-127308678D01*
X110206195Y-127308678D01*
X109996610Y-127269500D01*
X109783390Y-127269500D01*
X109573804Y-127308678D01*
X109374980Y-127385702D01*
X109374975Y-127385705D01*
X109193699Y-127497946D01*
X109193692Y-127497952D01*
X109036135Y-127641586D01*
X109036131Y-127641589D01*
X109036128Y-127641593D01*
X109036125Y-127641597D01*
X108907635Y-127811743D01*
X108907630Y-127811752D01*
X108812596Y-128002608D01*
X108754244Y-128207688D01*
X108754244Y-128207690D01*
X108734571Y-128420000D01*
X107916393Y-128420000D01*
X105376393Y-125880000D01*
X108734571Y-125880000D01*
X108754244Y-126092310D01*
X108812595Y-126297389D01*
X108907634Y-126488255D01*
X109036128Y-126658407D01*
X109036135Y-126658413D01*
X109193692Y-126802047D01*
X109193699Y-126802053D01*
X109297389Y-126866255D01*
X109374981Y-126914298D01*
X109573802Y-126991321D01*
X109783390Y-127030500D01*
X109996610Y-127030500D01*
X110206198Y-126991321D01*
X110405019Y-126914298D01*
X110586302Y-126802052D01*
X110743872Y-126658407D01*
X110872366Y-126488255D01*
X110967405Y-126297389D01*
X111025756Y-126092310D01*
X111045429Y-125880000D01*
X111025756Y-125667690D01*
X110967405Y-125462611D01*
X110872366Y-125271745D01*
X110743872Y-125101593D01*
X110689623Y-125052139D01*
X110586307Y-124957952D01*
X110586300Y-124957946D01*
X110405024Y-124845705D01*
X110405019Y-124845702D01*
X110319657Y-124812633D01*
X110206198Y-124768679D01*
X110206197Y-124768678D01*
X110206195Y-124768678D01*
X109996610Y-124729500D01*
X109783390Y-124729500D01*
X109573804Y-124768678D01*
X109374980Y-124845702D01*
X109374975Y-124845705D01*
X109193699Y-124957946D01*
X109193692Y-124957952D01*
X109036135Y-125101586D01*
X109036131Y-125101589D01*
X109036128Y-125101593D01*
X109036125Y-125101597D01*
X108907635Y-125271743D01*
X108907630Y-125271752D01*
X108812596Y-125462608D01*
X108754244Y-125667688D01*
X108754244Y-125667690D01*
X108734571Y-125880000D01*
X105376393Y-125880000D01*
X104731496Y-125235103D01*
X104703719Y-125180586D01*
X104702500Y-125165099D01*
X104702500Y-123340000D01*
X104974785Y-123340000D01*
X104993603Y-123543083D01*
X105049418Y-123739250D01*
X105140327Y-123921821D01*
X105263236Y-124084579D01*
X105413959Y-124221981D01*
X105587363Y-124329348D01*
X105777544Y-124403024D01*
X105978024Y-124440500D01*
X106181976Y-124440500D01*
X106382456Y-124403024D01*
X106572637Y-124329348D01*
X106746041Y-124221981D01*
X106896764Y-124084579D01*
X107019673Y-123921821D01*
X107110582Y-123739250D01*
X107166397Y-123543083D01*
X107185215Y-123340000D01*
X108734571Y-123340000D01*
X108754244Y-123552310D01*
X108812595Y-123757389D01*
X108907634Y-123948255D01*
X109036128Y-124118407D01*
X109086784Y-124164586D01*
X109193692Y-124262047D01*
X109193699Y-124262053D01*
X109260272Y-124303273D01*
X109374981Y-124374298D01*
X109573802Y-124451321D01*
X109783390Y-124490500D01*
X109996610Y-124490500D01*
X110206198Y-124451321D01*
X110405019Y-124374298D01*
X110586302Y-124262052D01*
X110743872Y-124118407D01*
X110872366Y-123948255D01*
X110967405Y-123757389D01*
X111025756Y-123552310D01*
X111045429Y-123340000D01*
X111025756Y-123127690D01*
X110967405Y-122922611D01*
X110872366Y-122731745D01*
X110743872Y-122561593D01*
X110689623Y-122512139D01*
X110586307Y-122417952D01*
X110586300Y-122417946D01*
X110405024Y-122305705D01*
X110405019Y-122305702D01*
X110319657Y-122272633D01*
X110206198Y-122228679D01*
X110206197Y-122228678D01*
X110206195Y-122228678D01*
X109996610Y-122189500D01*
X109783390Y-122189500D01*
X109573804Y-122228678D01*
X109374980Y-122305702D01*
X109374975Y-122305705D01*
X109193699Y-122417946D01*
X109193692Y-122417952D01*
X109036135Y-122561586D01*
X109036131Y-122561589D01*
X109036128Y-122561593D01*
X109036125Y-122561597D01*
X108907635Y-122731743D01*
X108907630Y-122731752D01*
X108812596Y-122922608D01*
X108754244Y-123127688D01*
X108754244Y-123127690D01*
X108734571Y-123340000D01*
X107185215Y-123340000D01*
X107166397Y-123136917D01*
X107110582Y-122940750D01*
X107019673Y-122758179D01*
X106896764Y-122595421D01*
X106746041Y-122458019D01*
X106572637Y-122350652D01*
X106382456Y-122276976D01*
X106382455Y-122276975D01*
X106382453Y-122276975D01*
X106181976Y-122239500D01*
X105978024Y-122239500D01*
X105777546Y-122276975D01*
X105755334Y-122285580D01*
X105587363Y-122350652D01*
X105478676Y-122417948D01*
X105413959Y-122458019D01*
X105263237Y-122595420D01*
X105140328Y-122758177D01*
X105140323Y-122758186D01*
X105058450Y-122922611D01*
X105049418Y-122940750D01*
X104993603Y-123136917D01*
X104974785Y-123340000D01*
X104702500Y-123340000D01*
X104702500Y-120800000D01*
X104974785Y-120800000D01*
X104993603Y-121003083D01*
X105049418Y-121199250D01*
X105140327Y-121381821D01*
X105263236Y-121544579D01*
X105413959Y-121681981D01*
X105587363Y-121789348D01*
X105777544Y-121863024D01*
X105978024Y-121900500D01*
X106181976Y-121900500D01*
X106382456Y-121863024D01*
X106572637Y-121789348D01*
X106746041Y-121681981D01*
X106896764Y-121544579D01*
X107019673Y-121381821D01*
X107110582Y-121199250D01*
X107166397Y-121003083D01*
X107185215Y-120800000D01*
X108734571Y-120800000D01*
X108754244Y-121012310D01*
X108812595Y-121217389D01*
X108907634Y-121408255D01*
X109036128Y-121578407D01*
X109036135Y-121578413D01*
X109193692Y-121722047D01*
X109193699Y-121722053D01*
X109297389Y-121786255D01*
X109374981Y-121834298D01*
X109573802Y-121911321D01*
X109783390Y-121950500D01*
X109996610Y-121950500D01*
X110206198Y-121911321D01*
X110405019Y-121834298D01*
X110586302Y-121722052D01*
X110743872Y-121578407D01*
X110872366Y-121408255D01*
X110967405Y-121217389D01*
X111025756Y-121012310D01*
X111045429Y-120800000D01*
X111025756Y-120587690D01*
X110967405Y-120382611D01*
X110872366Y-120191745D01*
X110743872Y-120021593D01*
X110674419Y-119958278D01*
X110586307Y-119877952D01*
X110586300Y-119877946D01*
X110405024Y-119765705D01*
X110405019Y-119765702D01*
X110206195Y-119688678D01*
X109996610Y-119649500D01*
X109783390Y-119649500D01*
X109573804Y-119688678D01*
X109374980Y-119765702D01*
X109374975Y-119765705D01*
X109193699Y-119877946D01*
X109193692Y-119877952D01*
X109036135Y-120021586D01*
X109036131Y-120021589D01*
X109036128Y-120021593D01*
X109036125Y-120021597D01*
X108907635Y-120191743D01*
X108907630Y-120191752D01*
X108812596Y-120382608D01*
X108754244Y-120587688D01*
X108754244Y-120587690D01*
X108734571Y-120800000D01*
X107185215Y-120800000D01*
X107166397Y-120596917D01*
X107110582Y-120400750D01*
X107019673Y-120218179D01*
X106896764Y-120055421D01*
X106746041Y-119918019D01*
X106572637Y-119810652D01*
X106382456Y-119736976D01*
X106382455Y-119736975D01*
X106382453Y-119736975D01*
X106181976Y-119699500D01*
X105978024Y-119699500D01*
X105777546Y-119736975D01*
X105755334Y-119745580D01*
X105587363Y-119810652D01*
X105478676Y-119877948D01*
X105413959Y-119918019D01*
X105263237Y-120055420D01*
X105140328Y-120218177D01*
X105140323Y-120218186D01*
X105058450Y-120382611D01*
X105049418Y-120400750D01*
X104993603Y-120596917D01*
X104974785Y-120800000D01*
X104702500Y-120800000D01*
X104702500Y-120043000D01*
X104721407Y-119984809D01*
X104741238Y-119964454D01*
X104749279Y-119958284D01*
X104749282Y-119958282D01*
X104845536Y-119832841D01*
X104906044Y-119686762D01*
X104926682Y-119530000D01*
X104906044Y-119373238D01*
X104845537Y-119227161D01*
X104845537Y-119227160D01*
X104749284Y-119101721D01*
X104749282Y-119101718D01*
X104749277Y-119101714D01*
X104749276Y-119101713D01*
X104623838Y-119005462D01*
X104477766Y-118944957D01*
X104477758Y-118944955D01*
X104321001Y-118924318D01*
X104320999Y-118924318D01*
X104164241Y-118944955D01*
X104164233Y-118944957D01*
X104018161Y-119005462D01*
X104018160Y-119005462D01*
X103892723Y-119101713D01*
X103892719Y-119101716D01*
X103892718Y-119101718D01*
X103892716Y-119101721D01*
X103796462Y-119227160D01*
X103796462Y-119227161D01*
X103735957Y-119373233D01*
X103735955Y-119373241D01*
X103715318Y-119529999D01*
X101075500Y-119529999D01*
X101075500Y-102205273D01*
X103901500Y-102205273D01*
X103901500Y-115667273D01*
X103901500Y-115772727D01*
X103925570Y-115862559D01*
X103928794Y-115874592D01*
X103981516Y-115965908D01*
X103981518Y-115965910D01*
X103981520Y-115965913D01*
X105326087Y-117310480D01*
X105326089Y-117310481D01*
X105330008Y-117314400D01*
X105357785Y-117368917D01*
X105348214Y-117429349D01*
X105326700Y-117457565D01*
X105263239Y-117515417D01*
X105140328Y-117678177D01*
X105140323Y-117678186D01*
X105058450Y-117842611D01*
X105049418Y-117860750D01*
X104993603Y-118056917D01*
X104974785Y-118260000D01*
X104993603Y-118463083D01*
X105049418Y-118659250D01*
X105140327Y-118841821D01*
X105263236Y-119004579D01*
X105413959Y-119141981D01*
X105587363Y-119249348D01*
X105777544Y-119323024D01*
X105978024Y-119360500D01*
X106181976Y-119360500D01*
X106382456Y-119323024D01*
X106572637Y-119249348D01*
X106746041Y-119141981D01*
X106896764Y-119004579D01*
X107019673Y-118841821D01*
X107110582Y-118659250D01*
X107166397Y-118463083D01*
X107185215Y-118260000D01*
X107166397Y-118056917D01*
X107110582Y-117860750D01*
X107019673Y-117678179D01*
X106922240Y-117549157D01*
X106902263Y-117491330D01*
X106920092Y-117432799D01*
X106968918Y-117395927D01*
X107001246Y-117390500D01*
X108413099Y-117390500D01*
X108471290Y-117409407D01*
X108483103Y-117419496D01*
X108793348Y-117729741D01*
X108821125Y-117784258D01*
X108812904Y-117837818D01*
X108814249Y-117838339D01*
X108812598Y-117842598D01*
X108754244Y-118047688D01*
X108754244Y-118047690D01*
X108734571Y-118260000D01*
X108754244Y-118472310D01*
X108812595Y-118677389D01*
X108907634Y-118868255D01*
X109036128Y-119038407D01*
X109086784Y-119084586D01*
X109193692Y-119182047D01*
X109193699Y-119182053D01*
X109266548Y-119227159D01*
X109374981Y-119294298D01*
X109573802Y-119371321D01*
X109783390Y-119410500D01*
X109996610Y-119410500D01*
X110206198Y-119371321D01*
X110405019Y-119294298D01*
X110586302Y-119182052D01*
X110743872Y-119038407D01*
X110872366Y-118868255D01*
X110967405Y-118677389D01*
X111025756Y-118472310D01*
X111041505Y-118302345D01*
X111065700Y-118246150D01*
X111118307Y-118214906D01*
X111179231Y-118220552D01*
X111210082Y-118241475D01*
X115556505Y-122587898D01*
X115584281Y-122642413D01*
X115585500Y-122657900D01*
X115585500Y-124303273D01*
X115585500Y-124408727D01*
X115596913Y-124451321D01*
X115612794Y-124510592D01*
X115665516Y-124601908D01*
X115665517Y-124601909D01*
X115665518Y-124601910D01*
X115665520Y-124601913D01*
X116165193Y-125101586D01*
X116413348Y-125349741D01*
X116441125Y-125404258D01*
X116432904Y-125457818D01*
X116434249Y-125458339D01*
X116432598Y-125462598D01*
X116374244Y-125667688D01*
X116374244Y-125667690D01*
X116354571Y-125880000D01*
X116374244Y-126092310D01*
X116432595Y-126297389D01*
X116527634Y-126488255D01*
X116656128Y-126658407D01*
X116656135Y-126658413D01*
X116813692Y-126802047D01*
X116813699Y-126802053D01*
X116917389Y-126866255D01*
X116994981Y-126914298D01*
X117193802Y-126991321D01*
X117403390Y-127030500D01*
X117616610Y-127030500D01*
X117826198Y-126991321D01*
X118025019Y-126914298D01*
X118206302Y-126802052D01*
X118363872Y-126658407D01*
X118492366Y-126488255D01*
X118587405Y-126297389D01*
X118645756Y-126092310D01*
X118665429Y-125880000D01*
X118645756Y-125667690D01*
X118587405Y-125462611D01*
X118492366Y-125271745D01*
X118363872Y-125101593D01*
X118309623Y-125052139D01*
X118206307Y-124957952D01*
X118206300Y-124957946D01*
X118025024Y-124845705D01*
X118025019Y-124845702D01*
X117939657Y-124812633D01*
X117826198Y-124768679D01*
X117826197Y-124768678D01*
X117826195Y-124768678D01*
X117616610Y-124729500D01*
X117403390Y-124729500D01*
X117193802Y-124768678D01*
X117089091Y-124809243D01*
X117028000Y-124812633D01*
X116983325Y-124786932D01*
X116415496Y-124219103D01*
X116387719Y-124164586D01*
X116386500Y-124149099D01*
X116386500Y-124056738D01*
X116405407Y-123998547D01*
X116454907Y-123962583D01*
X116516093Y-123962583D01*
X116564501Y-123997075D01*
X116656128Y-124118407D01*
X116706784Y-124164586D01*
X116813692Y-124262047D01*
X116813699Y-124262053D01*
X116880272Y-124303273D01*
X116994981Y-124374298D01*
X117193802Y-124451321D01*
X117403390Y-124490500D01*
X117616610Y-124490500D01*
X117826198Y-124451321D01*
X118025019Y-124374298D01*
X118206302Y-124262052D01*
X118363872Y-124118407D01*
X118492366Y-123948255D01*
X118587405Y-123757389D01*
X118645756Y-123552310D01*
X118665429Y-123340000D01*
X118645756Y-123127690D01*
X118587405Y-122922611D01*
X118492366Y-122731745D01*
X118363872Y-122561593D01*
X118309623Y-122512139D01*
X118206307Y-122417952D01*
X118206300Y-122417946D01*
X118025024Y-122305705D01*
X118025019Y-122305702D01*
X117939657Y-122272633D01*
X117826198Y-122228679D01*
X117826197Y-122228678D01*
X117826195Y-122228678D01*
X117616610Y-122189500D01*
X117403390Y-122189500D01*
X117193802Y-122228678D01*
X117089091Y-122269243D01*
X117028000Y-122272633D01*
X116983325Y-122246932D01*
X115536393Y-120800000D01*
X116354571Y-120800000D01*
X116374244Y-121012310D01*
X116432595Y-121217389D01*
X116527634Y-121408255D01*
X116656128Y-121578407D01*
X116656135Y-121578413D01*
X116813692Y-121722047D01*
X116813699Y-121722053D01*
X116917389Y-121786255D01*
X116994981Y-121834298D01*
X117193802Y-121911321D01*
X117403390Y-121950500D01*
X117616610Y-121950500D01*
X117826198Y-121911321D01*
X118025019Y-121834298D01*
X118206302Y-121722052D01*
X118363872Y-121578407D01*
X118492366Y-121408255D01*
X118587405Y-121217389D01*
X118645756Y-121012310D01*
X118665429Y-120800000D01*
X118645756Y-120587690D01*
X118587405Y-120382611D01*
X118492366Y-120191745D01*
X118363872Y-120021593D01*
X118294419Y-119958278D01*
X118206307Y-119877952D01*
X118206300Y-119877946D01*
X118025024Y-119765705D01*
X118025019Y-119765702D01*
X117826195Y-119688678D01*
X117616610Y-119649500D01*
X117403390Y-119649500D01*
X117193804Y-119688678D01*
X116994980Y-119765702D01*
X116994975Y-119765705D01*
X116813699Y-119877946D01*
X116813692Y-119877952D01*
X116656135Y-120021586D01*
X116656131Y-120021589D01*
X116656128Y-120021593D01*
X116656125Y-120021597D01*
X116527635Y-120191743D01*
X116527630Y-120191752D01*
X116432596Y-120382608D01*
X116374244Y-120587688D01*
X116374244Y-120587690D01*
X116354571Y-120800000D01*
X115536393Y-120800000D01*
X113565897Y-118829504D01*
X113538120Y-118774987D01*
X113547691Y-118714555D01*
X113590956Y-118671290D01*
X113635901Y-118660500D01*
X116362887Y-118660500D01*
X116421078Y-118679407D01*
X116451508Y-118715372D01*
X116508338Y-118829504D01*
X116527634Y-118868255D01*
X116656128Y-119038407D01*
X116706784Y-119084586D01*
X116813692Y-119182047D01*
X116813699Y-119182053D01*
X116886548Y-119227159D01*
X116994981Y-119294298D01*
X117193802Y-119371321D01*
X117403390Y-119410500D01*
X117616610Y-119410500D01*
X117826198Y-119371321D01*
X118025019Y-119294298D01*
X118206302Y-119182052D01*
X118363872Y-119038407D01*
X118492366Y-118868255D01*
X118587405Y-118677389D01*
X118645756Y-118472310D01*
X118665429Y-118260000D01*
X118645756Y-118047690D01*
X118587405Y-117842611D01*
X118492366Y-117651745D01*
X118363872Y-117481593D01*
X118269902Y-117395927D01*
X118206307Y-117337952D01*
X118206300Y-117337946D01*
X118025024Y-117225705D01*
X118025019Y-117225702D01*
X117939657Y-117192633D01*
X117826198Y-117148679D01*
X117826197Y-117148678D01*
X117826195Y-117148678D01*
X117616610Y-117109500D01*
X117403390Y-117109500D01*
X117193804Y-117148678D01*
X116994980Y-117225702D01*
X116994978Y-117225703D01*
X116812745Y-117338537D01*
X116753317Y-117353095D01*
X116696682Y-117329941D01*
X116664472Y-117277920D01*
X116668991Y-117216902D01*
X116698044Y-117146762D01*
X116718682Y-116990000D01*
X116698044Y-116833238D01*
X116669164Y-116763517D01*
X116664364Y-116702524D01*
X116696333Y-116650354D01*
X116752861Y-116626939D01*
X116812356Y-116641222D01*
X116812746Y-116641463D01*
X116858055Y-116669517D01*
X116994981Y-116754298D01*
X117193802Y-116831321D01*
X117403390Y-116870500D01*
X117616610Y-116870500D01*
X117826198Y-116831321D01*
X118025019Y-116754298D01*
X118206302Y-116642052D01*
X118363872Y-116498407D01*
X118492366Y-116328255D01*
X118587405Y-116137389D01*
X118645756Y-115932310D01*
X118665429Y-115720000D01*
X118663988Y-115704453D01*
X118677443Y-115644767D01*
X118723412Y-115604387D01*
X118784336Y-115598739D01*
X118832569Y-115625312D01*
X118966504Y-115759247D01*
X118994281Y-115813764D01*
X118995500Y-115829251D01*
X118995500Y-121363273D01*
X118995500Y-121468727D01*
X119015824Y-121544579D01*
X119022794Y-121570592D01*
X119075516Y-121661908D01*
X119075517Y-121661909D01*
X119075518Y-121661910D01*
X119075520Y-121661913D01*
X119682850Y-122269243D01*
X120262663Y-122849056D01*
X120290440Y-122903573D01*
X120287880Y-122946152D01*
X120233603Y-123136915D01*
X120233603Y-123136917D01*
X120214785Y-123340000D01*
X120233603Y-123543083D01*
X120289418Y-123739250D01*
X120380327Y-123921821D01*
X120503236Y-124084579D01*
X120653959Y-124221981D01*
X120827363Y-124329348D01*
X121017544Y-124403024D01*
X121218024Y-124440500D01*
X121421976Y-124440500D01*
X121622456Y-124403024D01*
X121812637Y-124329348D01*
X121986041Y-124221981D01*
X122136764Y-124084579D01*
X122259673Y-123921821D01*
X122350582Y-123739250D01*
X122406397Y-123543083D01*
X122425215Y-123340000D01*
X122406397Y-123136917D01*
X122350582Y-122940750D01*
X122259673Y-122758179D01*
X122136764Y-122595421D01*
X121986041Y-122458019D01*
X121812637Y-122350652D01*
X121622456Y-122276976D01*
X121622455Y-122276975D01*
X121622453Y-122276975D01*
X121421976Y-122239500D01*
X121218024Y-122239500D01*
X121017552Y-122276974D01*
X121017546Y-122276975D01*
X121017544Y-122276976D01*
X120977352Y-122292546D01*
X120937738Y-122307892D01*
X120876647Y-122311281D01*
X120831973Y-122285580D01*
X119825496Y-121279103D01*
X119797719Y-121224586D01*
X119796500Y-121209099D01*
X119796500Y-120081901D01*
X119815407Y-120023710D01*
X119864907Y-119987746D01*
X119926093Y-119987746D01*
X119965504Y-120011897D01*
X120262663Y-120309056D01*
X120290440Y-120363573D01*
X120287880Y-120406152D01*
X120233603Y-120596915D01*
X120233603Y-120596917D01*
X120214785Y-120800000D01*
X120233603Y-121003083D01*
X120289418Y-121199250D01*
X120380327Y-121381821D01*
X120503236Y-121544579D01*
X120653959Y-121681981D01*
X120827363Y-121789348D01*
X121017544Y-121863024D01*
X121218024Y-121900500D01*
X121421976Y-121900500D01*
X121622456Y-121863024D01*
X121812637Y-121789348D01*
X121986041Y-121681981D01*
X122136764Y-121544579D01*
X122259673Y-121381821D01*
X122350582Y-121199250D01*
X122406397Y-121003083D01*
X122425215Y-120800000D01*
X122406397Y-120596917D01*
X122350582Y-120400750D01*
X122259673Y-120218179D01*
X122136764Y-120055421D01*
X121986041Y-119918019D01*
X121812637Y-119810652D01*
X121622456Y-119736976D01*
X121622455Y-119736975D01*
X121622453Y-119736975D01*
X121421976Y-119699500D01*
X121218024Y-119699500D01*
X121017552Y-119736974D01*
X121017546Y-119736975D01*
X121017544Y-119736976D01*
X120951296Y-119762639D01*
X120937738Y-119767892D01*
X120876647Y-119771281D01*
X120831973Y-119745580D01*
X120225496Y-119139103D01*
X120197719Y-119084586D01*
X120196500Y-119069099D01*
X120196500Y-118892878D01*
X120215407Y-118834687D01*
X120264907Y-118798723D01*
X120326093Y-118798723D01*
X120375593Y-118834687D01*
X120379676Y-118840768D01*
X120380321Y-118841809D01*
X120380327Y-118841821D01*
X120503236Y-119004579D01*
X120653959Y-119141981D01*
X120827363Y-119249348D01*
X121017544Y-119323024D01*
X121218024Y-119360500D01*
X121421976Y-119360500D01*
X121622456Y-119323024D01*
X121812637Y-119249348D01*
X121986041Y-119141981D01*
X122136764Y-119004579D01*
X122259673Y-118841821D01*
X122350582Y-118659250D01*
X122406397Y-118463083D01*
X122425215Y-118260000D01*
X122406397Y-118056917D01*
X122350582Y-117860750D01*
X122259673Y-117678179D01*
X122136764Y-117515421D01*
X121986041Y-117378019D01*
X121812637Y-117270652D01*
X121622456Y-117196976D01*
X121622455Y-117196975D01*
X121622453Y-117196975D01*
X121421976Y-117159500D01*
X121218024Y-117159500D01*
X121017546Y-117196975D01*
X120977353Y-117212546D01*
X120827363Y-117270652D01*
X120714695Y-117340413D01*
X120653959Y-117378019D01*
X120534980Y-117486483D01*
X120503236Y-117515421D01*
X120380327Y-117678179D01*
X120380326Y-117678180D01*
X120380326Y-117678181D01*
X120379671Y-117679239D01*
X120379272Y-117679576D01*
X120377569Y-117681832D01*
X120377060Y-117681447D01*
X120332961Y-117718760D01*
X120271943Y-117723278D01*
X120219923Y-117691067D01*
X120196770Y-117634431D01*
X120196500Y-117627121D01*
X120196500Y-116352878D01*
X120215407Y-116294687D01*
X120264907Y-116258723D01*
X120326093Y-116258723D01*
X120375593Y-116294687D01*
X120379676Y-116300768D01*
X120380321Y-116301809D01*
X120380327Y-116301821D01*
X120503236Y-116464579D01*
X120653959Y-116601981D01*
X120827363Y-116709348D01*
X121017544Y-116783024D01*
X121218024Y-116820500D01*
X121421976Y-116820500D01*
X121622456Y-116783024D01*
X121812637Y-116709348D01*
X121986041Y-116601981D01*
X122136764Y-116464579D01*
X122259673Y-116301821D01*
X122350582Y-116119250D01*
X122406397Y-115923083D01*
X122425215Y-115720000D01*
X122406397Y-115516917D01*
X122350582Y-115320750D01*
X122259673Y-115138179D01*
X122136764Y-114975421D01*
X121986041Y-114838019D01*
X121812637Y-114730652D01*
X121622456Y-114656976D01*
X121622455Y-114656975D01*
X121622453Y-114656975D01*
X121421976Y-114619500D01*
X121218024Y-114619500D01*
X121017546Y-114656975D01*
X120977353Y-114672546D01*
X120827363Y-114730652D01*
X120653959Y-114838019D01*
X120503236Y-114975421D01*
X120380327Y-115138179D01*
X120380326Y-115138180D01*
X120380326Y-115138181D01*
X120379671Y-115139239D01*
X120379272Y-115139576D01*
X120377569Y-115141832D01*
X120377060Y-115141447D01*
X120332961Y-115178760D01*
X120271943Y-115183278D01*
X120219923Y-115151067D01*
X120196770Y-115094431D01*
X120196500Y-115087121D01*
X120196500Y-113812878D01*
X120215407Y-113754687D01*
X120264907Y-113718723D01*
X120326093Y-113718723D01*
X120375593Y-113754687D01*
X120379676Y-113760768D01*
X120380321Y-113761809D01*
X120380327Y-113761821D01*
X120503236Y-113924579D01*
X120653959Y-114061981D01*
X120827363Y-114169348D01*
X121017544Y-114243024D01*
X121218024Y-114280500D01*
X121421976Y-114280500D01*
X121622456Y-114243024D01*
X121812637Y-114169348D01*
X121986041Y-114061981D01*
X122136764Y-113924579D01*
X122215860Y-113819837D01*
X122266016Y-113784796D01*
X122294863Y-113780500D01*
X123228442Y-113780500D01*
X123286633Y-113799407D01*
X123307325Y-113819680D01*
X123340100Y-113862900D01*
X123457942Y-113952262D01*
X123595523Y-114006517D01*
X123681982Y-114016900D01*
X123719300Y-114016900D01*
X123777491Y-114035807D01*
X123813455Y-114085307D01*
X123818300Y-114115900D01*
X123818300Y-129476456D01*
X123799393Y-129534647D01*
X123789304Y-129546460D01*
X120465261Y-132870504D01*
X120410744Y-132898281D01*
X120395257Y-132899500D01*
X118547518Y-132899500D01*
X118489327Y-132880593D01*
X118468516Y-132860163D01*
X118363872Y-132721593D01*
X118309623Y-132672139D01*
X118206307Y-132577952D01*
X118206300Y-132577946D01*
X118025024Y-132465705D01*
X118025019Y-132465702D01*
X117826195Y-132388678D01*
X117616610Y-132349500D01*
X117403390Y-132349500D01*
X117193804Y-132388678D01*
X116994980Y-132465702D01*
X116994975Y-132465705D01*
X116813699Y-132577946D01*
X116813692Y-132577952D01*
X116656135Y-132721586D01*
X116656131Y-132721589D01*
X116656128Y-132721593D01*
X116551484Y-132860161D01*
X116501329Y-132895204D01*
X116472482Y-132899500D01*
X113249499Y-132899500D01*
X113191308Y-132880593D01*
X113155344Y-132831093D01*
X113150499Y-132800500D01*
X113150499Y-131956579D01*
X113169406Y-131898388D01*
X113218906Y-131862424D01*
X113260081Y-131858146D01*
X113321976Y-131864800D01*
X113449999Y-131864800D01*
X113450000Y-131864799D01*
X113450000Y-130802001D01*
X113950000Y-130802001D01*
X113950000Y-131864799D01*
X113950001Y-131864800D01*
X114078024Y-131864800D01*
X114137570Y-131858398D01*
X114137581Y-131858396D01*
X114272288Y-131808153D01*
X114272290Y-131808152D01*
X114387384Y-131721992D01*
X114387392Y-131721984D01*
X114473552Y-131606890D01*
X114473553Y-131606888D01*
X114523796Y-131472181D01*
X114523798Y-131472170D01*
X114530200Y-131412624D01*
X114530200Y-130802001D01*
X114530199Y-130802000D01*
X113950001Y-130802000D01*
X113950000Y-130802001D01*
X113450000Y-130802001D01*
X113450000Y-129239201D01*
X113950000Y-129239201D01*
X113950000Y-130301999D01*
X113950001Y-130302000D01*
X114530199Y-130302000D01*
X114530200Y-130301999D01*
X114530200Y-129928600D01*
X114549107Y-129870409D01*
X114598607Y-129834445D01*
X114659793Y-129834445D01*
X114699201Y-129858594D01*
X116121087Y-131280480D01*
X116121089Y-131280481D01*
X116121091Y-131280483D01*
X116212408Y-131333205D01*
X116212406Y-131333205D01*
X116212410Y-131333206D01*
X116212412Y-131333207D01*
X116314273Y-131360500D01*
X116362887Y-131360500D01*
X116421078Y-131379407D01*
X116451508Y-131415372D01*
X116527634Y-131568255D01*
X116656128Y-131738407D01*
X116656135Y-131738413D01*
X116813692Y-131882047D01*
X116813699Y-131882053D01*
X116840081Y-131898388D01*
X116994981Y-131994298D01*
X117193802Y-132071321D01*
X117403390Y-132110500D01*
X117616610Y-132110500D01*
X117826198Y-132071321D01*
X118025019Y-131994298D01*
X118206302Y-131882052D01*
X118363872Y-131738407D01*
X118492366Y-131568255D01*
X118587405Y-131377389D01*
X118645756Y-131172310D01*
X118665429Y-130960000D01*
X118645756Y-130747690D01*
X118587405Y-130542611D01*
X118492366Y-130351745D01*
X118363872Y-130181593D01*
X118309623Y-130132139D01*
X118206307Y-130037952D01*
X118206300Y-130037946D01*
X118025024Y-129925705D01*
X118025019Y-129925702D01*
X117939657Y-129892633D01*
X117826198Y-129848679D01*
X117826197Y-129848678D01*
X117826195Y-129848678D01*
X117616610Y-129809500D01*
X117403390Y-129809500D01*
X117193804Y-129848678D01*
X116994980Y-129925702D01*
X116994975Y-129925705D01*
X116813699Y-130037946D01*
X116813692Y-130037952D01*
X116656135Y-130181586D01*
X116656119Y-130181603D01*
X116527641Y-130351733D01*
X116527634Y-130351745D01*
X116521652Y-130363759D01*
X116478788Y-130407421D01*
X116418447Y-130417550D01*
X116363677Y-130390277D01*
X116363027Y-130389634D01*
X115309696Y-129336303D01*
X115281919Y-129281786D01*
X115280700Y-129266311D01*
X115280700Y-128420000D01*
X116354571Y-128420000D01*
X116374244Y-128632310D01*
X116432595Y-128837389D01*
X116527634Y-129028255D01*
X116656128Y-129198407D01*
X116656135Y-129198413D01*
X116813692Y-129342047D01*
X116813699Y-129342053D01*
X116916273Y-129405564D01*
X116994981Y-129454298D01*
X117193802Y-129531321D01*
X117403390Y-129570500D01*
X117616610Y-129570500D01*
X117826198Y-129531321D01*
X118025019Y-129454298D01*
X118206302Y-129342052D01*
X118363872Y-129198407D01*
X118492366Y-129028255D01*
X118587405Y-128837389D01*
X118645756Y-128632310D01*
X118665429Y-128420000D01*
X118645756Y-128207690D01*
X118587405Y-128002611D01*
X118492366Y-127811745D01*
X118363872Y-127641593D01*
X118276931Y-127562335D01*
X118206307Y-127497952D01*
X118206300Y-127497946D01*
X118025024Y-127385705D01*
X118025019Y-127385702D01*
X117828614Y-127309615D01*
X117826198Y-127308679D01*
X117826197Y-127308678D01*
X117826195Y-127308678D01*
X117616610Y-127269500D01*
X117403390Y-127269500D01*
X117193804Y-127308678D01*
X116994980Y-127385702D01*
X116994975Y-127385705D01*
X116813699Y-127497946D01*
X116813692Y-127497952D01*
X116656135Y-127641586D01*
X116656131Y-127641589D01*
X116656128Y-127641593D01*
X116656125Y-127641597D01*
X116527635Y-127811743D01*
X116527630Y-127811752D01*
X116432596Y-128002608D01*
X116374244Y-128207688D01*
X116374244Y-128207690D01*
X116354571Y-128420000D01*
X115280700Y-128420000D01*
X115280700Y-127562336D01*
X115277786Y-127537209D01*
X115232407Y-127434435D01*
X115152966Y-127354994D01*
X115050192Y-127309615D01*
X115050191Y-127309614D01*
X115050189Y-127309614D01*
X115025069Y-127306700D01*
X114274940Y-127306700D01*
X114274937Y-127306701D01*
X114249810Y-127309614D01*
X114147036Y-127354994D01*
X114067595Y-127434435D01*
X114022215Y-127537211D01*
X114019301Y-127562330D01*
X114019301Y-127562332D01*
X114019302Y-129140200D01*
X114000395Y-129198391D01*
X113965343Y-129223857D01*
X113950000Y-129239201D01*
X113450000Y-129239201D01*
X113435704Y-129224905D01*
X113421508Y-129220293D01*
X113385544Y-129170793D01*
X113380699Y-129140200D01*
X113380698Y-127562339D01*
X113380698Y-127562336D01*
X113377784Y-127537209D01*
X113332405Y-127434435D01*
X113252964Y-127354994D01*
X113150190Y-127309615D01*
X113150189Y-127309614D01*
X113150187Y-127309614D01*
X113125067Y-127306700D01*
X112374938Y-127306700D01*
X112374935Y-127306701D01*
X112349808Y-127309614D01*
X112247034Y-127354994D01*
X112167593Y-127434435D01*
X112122213Y-127537211D01*
X112119299Y-127562330D01*
X112119299Y-129277660D01*
X112119300Y-129277663D01*
X112122213Y-129302790D01*
X112137011Y-129336303D01*
X112167593Y-129405565D01*
X112247034Y-129485006D01*
X112290487Y-129504192D01*
X112336082Y-129544991D01*
X112349499Y-129594756D01*
X112349499Y-132800500D01*
X112330592Y-132858691D01*
X112281092Y-132894655D01*
X112250499Y-132899500D01*
X110927518Y-132899500D01*
X110869327Y-132880593D01*
X110848516Y-132860163D01*
X110743872Y-132721593D01*
X110689623Y-132672139D01*
X110586307Y-132577952D01*
X110586300Y-132577946D01*
X110405024Y-132465705D01*
X110405019Y-132465702D01*
X110206195Y-132388678D01*
X109996610Y-132349500D01*
X109783390Y-132349500D01*
X109573804Y-132388678D01*
X109374980Y-132465702D01*
X109374975Y-132465705D01*
X109193699Y-132577946D01*
X109193692Y-132577952D01*
X109036135Y-132721586D01*
X109036131Y-132721589D01*
X109036128Y-132721593D01*
X109036125Y-132721597D01*
X108907635Y-132891743D01*
X108907630Y-132891752D01*
X108812596Y-133082608D01*
X108754244Y-133287688D01*
X108754244Y-133287690D01*
X108734571Y-133500000D01*
X108754244Y-133712310D01*
X108798745Y-133868713D01*
X108812596Y-133917391D01*
X108903772Y-134100500D01*
X108907634Y-134108255D01*
X109036128Y-134278407D01*
X109036135Y-134278413D01*
X109193692Y-134422047D01*
X109193699Y-134422053D01*
X109297389Y-134486255D01*
X109374981Y-134534298D01*
X109573802Y-134611321D01*
X109783390Y-134650500D01*
X109996610Y-134650500D01*
X110206198Y-134611321D01*
X110405019Y-134534298D01*
X110586302Y-134422052D01*
X110743872Y-134278407D01*
X110848515Y-134139838D01*
X110898671Y-134104796D01*
X110927518Y-134100500D01*
X112604943Y-134100500D01*
X116472482Y-134100500D01*
X116530673Y-134119407D01*
X116551483Y-134139836D01*
X116656128Y-134278407D01*
X116656135Y-134278413D01*
X116813692Y-134422047D01*
X116813699Y-134422053D01*
X116917389Y-134486255D01*
X116994981Y-134534298D01*
X117193802Y-134611321D01*
X117403390Y-134650500D01*
X117616610Y-134650500D01*
X117826198Y-134611321D01*
X118025019Y-134534298D01*
X118206302Y-134422052D01*
X118363872Y-134278407D01*
X118468515Y-134139838D01*
X118518671Y-134104796D01*
X118547518Y-134100500D01*
X120599864Y-134100500D01*
X120599880Y-134100501D01*
X120605943Y-134100501D01*
X120764056Y-134100501D01*
X120764057Y-134100501D01*
X120916785Y-134059577D01*
X120966904Y-134030639D01*
X121053716Y-133980520D01*
X121165520Y-133868716D01*
X121165521Y-133868713D01*
X124899320Y-130134916D01*
X124978377Y-129997984D01*
X125019301Y-129845257D01*
X125019301Y-129687142D01*
X125019301Y-129681080D01*
X125019300Y-129681062D01*
X125019300Y-113557044D01*
X125009939Y-113522107D01*
X124978377Y-113404316D01*
X124899320Y-113267384D01*
X124787516Y-113155580D01*
X124787513Y-113155578D01*
X124766096Y-113134161D01*
X124738319Y-113079644D01*
X124737100Y-113064157D01*
X124737100Y-112836783D01*
X124737100Y-112836782D01*
X124726717Y-112750323D01*
X124672462Y-112612742D01*
X124591434Y-112505890D01*
X124571340Y-112448101D01*
X124589051Y-112389535D01*
X124618348Y-112361812D01*
X124659635Y-112336346D01*
X124781546Y-112214435D01*
X124872051Y-112067706D01*
X124926281Y-111904048D01*
X124936600Y-111803055D01*
X124936600Y-111703901D01*
X124936599Y-111703900D01*
X122986602Y-111703900D01*
X122986601Y-111703901D01*
X122986601Y-111803054D01*
X122996917Y-111904042D01*
X122996920Y-111904054D01*
X123051148Y-112067706D01*
X123141653Y-112214435D01*
X123263562Y-112336344D01*
X123304852Y-112361812D01*
X123344454Y-112408453D01*
X123349077Y-112469463D01*
X123331765Y-112505891D01*
X123321523Y-112519397D01*
X123308418Y-112536680D01*
X123305659Y-112540318D01*
X123255433Y-112575261D01*
X123226774Y-112579500D01*
X122294863Y-112579500D01*
X122236672Y-112560593D01*
X122215861Y-112540163D01*
X122136764Y-112435421D01*
X121986041Y-112298019D01*
X121812637Y-112190652D01*
X121622456Y-112116976D01*
X121622455Y-112116975D01*
X121622453Y-112116975D01*
X121421976Y-112079500D01*
X121218024Y-112079500D01*
X121017546Y-112116975D01*
X120947632Y-112144059D01*
X120827363Y-112190652D01*
X120709850Y-112263413D01*
X120653959Y-112298019D01*
X120532819Y-112408453D01*
X120503236Y-112435421D01*
X120470543Y-112478714D01*
X120380328Y-112598177D01*
X120380323Y-112598186D01*
X120289419Y-112780747D01*
X120233603Y-112976917D01*
X120225221Y-113067377D01*
X120201025Y-113123575D01*
X120148417Y-113154818D01*
X120087493Y-113149172D01*
X120056639Y-113128246D01*
X120041913Y-113113520D01*
X119290205Y-112361812D01*
X118517913Y-111589520D01*
X118517910Y-111589518D01*
X118517909Y-111589517D01*
X118517908Y-111589516D01*
X118420969Y-111533548D01*
X118421973Y-111531808D01*
X118382435Y-111498029D01*
X118368160Y-111438532D01*
X118387849Y-111386655D01*
X118492366Y-111248255D01*
X118587405Y-111057389D01*
X118645756Y-110852310D01*
X118665429Y-110640000D01*
X118645756Y-110427690D01*
X118587405Y-110222611D01*
X118587399Y-110222598D01*
X118585752Y-110218344D01*
X118587132Y-110217809D01*
X118579019Y-110163364D01*
X118606648Y-110109743D01*
X120168101Y-108548290D01*
X120222615Y-108520516D01*
X120283047Y-108530087D01*
X120326312Y-108573352D01*
X120326723Y-108574169D01*
X120380327Y-108681821D01*
X120503236Y-108844579D01*
X120653959Y-108981981D01*
X120827363Y-109089348D01*
X121017544Y-109163024D01*
X121218024Y-109200500D01*
X121421976Y-109200500D01*
X121622456Y-109163024D01*
X121812637Y-109089348D01*
X121986041Y-108981981D01*
X122136764Y-108844579D01*
X122259673Y-108681821D01*
X122350582Y-108499250D01*
X122406397Y-108303083D01*
X122425215Y-108100000D01*
X122406397Y-107896917D01*
X122352118Y-107706148D01*
X122354379Y-107645010D01*
X122377333Y-107609058D01*
X124274497Y-105711895D01*
X124329013Y-105684119D01*
X124389445Y-105693690D01*
X124432710Y-105736955D01*
X124443500Y-105781900D01*
X124443500Y-106909098D01*
X124424593Y-106967289D01*
X124414504Y-106979102D01*
X121808025Y-109585580D01*
X121753508Y-109613357D01*
X121702259Y-109607891D01*
X121622460Y-109576977D01*
X121622447Y-109576974D01*
X121421976Y-109539500D01*
X121218024Y-109539500D01*
X121017546Y-109576975D01*
X121017541Y-109576977D01*
X120827363Y-109650652D01*
X120718676Y-109717948D01*
X120653959Y-109758019D01*
X120503237Y-109895420D01*
X120380328Y-110058177D01*
X120380323Y-110058186D01*
X120298453Y-110222605D01*
X120289418Y-110240750D01*
X120233603Y-110436917D01*
X120214785Y-110640000D01*
X120233603Y-110843083D01*
X120289418Y-111039250D01*
X120380327Y-111221821D01*
X120503236Y-111384579D01*
X120653959Y-111521981D01*
X120827363Y-111629348D01*
X121017544Y-111703024D01*
X121218024Y-111740500D01*
X121421976Y-111740500D01*
X121622456Y-111703024D01*
X121812637Y-111629348D01*
X121986041Y-111521981D01*
X122136764Y-111384579D01*
X122259673Y-111221821D01*
X122317970Y-111104744D01*
X122986600Y-111104744D01*
X122986600Y-111203899D01*
X122986601Y-111203900D01*
X123711599Y-111203900D01*
X123711600Y-111203899D01*
X123711600Y-110416401D01*
X124211600Y-110416401D01*
X124211600Y-111203899D01*
X124211601Y-111203900D01*
X124936598Y-111203900D01*
X124936599Y-111203899D01*
X124936599Y-111104745D01*
X124926282Y-111003757D01*
X124926279Y-111003745D01*
X124872051Y-110840093D01*
X124781546Y-110693364D01*
X124659635Y-110571453D01*
X124512906Y-110480948D01*
X124349248Y-110426718D01*
X124248255Y-110416400D01*
X124211601Y-110416400D01*
X124211600Y-110416401D01*
X123711600Y-110416401D01*
X123711600Y-110416400D01*
X123674957Y-110416400D01*
X123674951Y-110416401D01*
X123573957Y-110426717D01*
X123573945Y-110426720D01*
X123410293Y-110480948D01*
X123263564Y-110571453D01*
X123141653Y-110693364D01*
X123051148Y-110840093D01*
X122996918Y-111003751D01*
X122986600Y-111104744D01*
X122317970Y-111104744D01*
X122350582Y-111039250D01*
X122406397Y-110843083D01*
X122425215Y-110640000D01*
X122406397Y-110436917D01*
X122352118Y-110246148D01*
X122354379Y-110185010D01*
X122377333Y-110149058D01*
X125089910Y-107436481D01*
X125089913Y-107436480D01*
X125164480Y-107361913D01*
X125217207Y-107270587D01*
X125244501Y-107168727D01*
X125244501Y-107063273D01*
X125244501Y-107057211D01*
X125244500Y-107057193D01*
X125244500Y-87210534D01*
X125244500Y-87210533D01*
X125238398Y-87187759D01*
X125217207Y-87108672D01*
X125217205Y-87108669D01*
X125217205Y-87108667D01*
X125164483Y-87017351D01*
X125164479Y-87017346D01*
X124797496Y-86650362D01*
X124769719Y-86595846D01*
X124768500Y-86580359D01*
X124768500Y-83451071D01*
X124787407Y-83392880D01*
X124794715Y-83384324D01*
X124853084Y-83308256D01*
X124892536Y-83256841D01*
X124953044Y-83110762D01*
X124973682Y-82954000D01*
X124953044Y-82797238D01*
X124892537Y-82651161D01*
X124892537Y-82651160D01*
X124796286Y-82525723D01*
X124796285Y-82525722D01*
X124796282Y-82525718D01*
X124796277Y-82525714D01*
X124796276Y-82525713D01*
X124670838Y-82429462D01*
X124524766Y-82368957D01*
X124524758Y-82368955D01*
X124368001Y-82348318D01*
X124367999Y-82348318D01*
X124211241Y-82368955D01*
X124211232Y-82368957D01*
X124181385Y-82381321D01*
X124120388Y-82386121D01*
X124068219Y-82354152D01*
X124044805Y-82297624D01*
X124044500Y-82289857D01*
X124044500Y-80989570D01*
X124063407Y-80931379D01*
X124064959Y-80929302D01*
X124130534Y-80843843D01*
X124130536Y-80843841D01*
X124191044Y-80697762D01*
X124211682Y-80541000D01*
X124191044Y-80384238D01*
X124130537Y-80238161D01*
X124130537Y-80238160D01*
X124034286Y-80112723D01*
X124034285Y-80112722D01*
X124034282Y-80112718D01*
X124034277Y-80112714D01*
X124034276Y-80112713D01*
X123908838Y-80016462D01*
X123762766Y-79955957D01*
X123762758Y-79955955D01*
X123606001Y-79935318D01*
X123605999Y-79935318D01*
X123483422Y-79951455D01*
X123423261Y-79940305D01*
X123381144Y-79895922D01*
X123371500Y-79853302D01*
X123371500Y-77662638D01*
X123360075Y-77620000D01*
X123360075Y-77619999D01*
X123344208Y-77560780D01*
X123344204Y-77560771D01*
X123291483Y-77469456D01*
X123291482Y-77469455D01*
X123291481Y-77469454D01*
X123291480Y-77469452D01*
X122091010Y-76268982D01*
X122063233Y-76214465D01*
X122072804Y-76154033D01*
X122104231Y-76117881D01*
X122158814Y-76079662D01*
X122319665Y-75918811D01*
X122450134Y-75732481D01*
X122546266Y-75526323D01*
X122598872Y-75330000D01*
X121635686Y-75330000D01*
X121640080Y-75325606D01*
X121692741Y-75234394D01*
X121720000Y-75132661D01*
X121720000Y-75027339D01*
X121692741Y-74925606D01*
X121640080Y-74834394D01*
X121635686Y-74830000D01*
X122598872Y-74830000D01*
X122546266Y-74633676D01*
X122450134Y-74427518D01*
X122319665Y-74241188D01*
X122158811Y-74080334D01*
X121972481Y-73949865D01*
X121766323Y-73853732D01*
X121570000Y-73801127D01*
X121570000Y-74764314D01*
X121565606Y-74759920D01*
X121474394Y-74707259D01*
X121372661Y-74680000D01*
X121267339Y-74680000D01*
X121165606Y-74707259D01*
X121074394Y-74759920D01*
X121070000Y-74764314D01*
X121070000Y-73801127D01*
X120873676Y-73853732D01*
X120667518Y-73949865D01*
X120481188Y-74080334D01*
X120320334Y-74241188D01*
X120189865Y-74427518D01*
X120093733Y-74633676D01*
X120041128Y-74830000D01*
X121004314Y-74830000D01*
X120999920Y-74834394D01*
X120947259Y-74925606D01*
X120920000Y-75027339D01*
X120920000Y-75132661D01*
X120947259Y-75234394D01*
X120999920Y-75325606D01*
X121004314Y-75330000D01*
X120041128Y-75330000D01*
X120093733Y-75526323D01*
X120189865Y-75732481D01*
X120316767Y-75913716D01*
X120334656Y-75972228D01*
X120314736Y-76030080D01*
X120264616Y-76065174D01*
X120235671Y-76069500D01*
X118959000Y-76069500D01*
X118900809Y-76050593D01*
X118864845Y-76001093D01*
X118860000Y-75970500D01*
X118860000Y-75330001D01*
X118859999Y-75330000D01*
X117943012Y-75330000D01*
X117975925Y-75272993D01*
X118010000Y-75145826D01*
X118010000Y-75014174D01*
X117975925Y-74887007D01*
X117943012Y-74830000D01*
X118859999Y-74830000D01*
X118860000Y-74829999D01*
X118860000Y-74182175D01*
X118853598Y-74122629D01*
X118853596Y-74122618D01*
X118803353Y-73987911D01*
X118803352Y-73987909D01*
X118717192Y-73872815D01*
X118717184Y-73872807D01*
X118602090Y-73786647D01*
X118602088Y-73786646D01*
X118467381Y-73736403D01*
X118467370Y-73736401D01*
X118407824Y-73730000D01*
X117760001Y-73730000D01*
X117760000Y-73730001D01*
X117760000Y-74646988D01*
X117702993Y-74614075D01*
X117575826Y-74580000D01*
X117444174Y-74580000D01*
X117317007Y-74614075D01*
X117260000Y-74646988D01*
X117260000Y-73730001D01*
X117259999Y-73730000D01*
X116612176Y-73730000D01*
X116552629Y-73736401D01*
X116552618Y-73736403D01*
X116417911Y-73786646D01*
X116417909Y-73786647D01*
X116302815Y-73872807D01*
X116302807Y-73872815D01*
X116216647Y-73987909D01*
X116216646Y-73987911D01*
X116166403Y-74122618D01*
X116166401Y-74122629D01*
X116160000Y-74182175D01*
X116160000Y-74829999D01*
X116160001Y-74830000D01*
X117076988Y-74830000D01*
X117044075Y-74887007D01*
X117010000Y-75014174D01*
X117010000Y-75145826D01*
X117044075Y-75272993D01*
X117076988Y-75330000D01*
X116160001Y-75330000D01*
X116160000Y-75330001D01*
X116160000Y-75970500D01*
X116141093Y-76028691D01*
X116091593Y-76064655D01*
X116061000Y-76069500D01*
X111339000Y-76069500D01*
X111280809Y-76050593D01*
X111244845Y-76001093D01*
X111240000Y-75970500D01*
X111240000Y-75330001D01*
X111239999Y-75330000D01*
X110323012Y-75330000D01*
X110355925Y-75272993D01*
X110390000Y-75145826D01*
X110390000Y-75014174D01*
X110355925Y-74887007D01*
X110323012Y-74830000D01*
X111239999Y-74830000D01*
X111240000Y-74829999D01*
X111240000Y-74182175D01*
X111233598Y-74122629D01*
X111233596Y-74122618D01*
X111183353Y-73987911D01*
X111183352Y-73987909D01*
X111097192Y-73872815D01*
X111097184Y-73872807D01*
X110982090Y-73786647D01*
X110982088Y-73786646D01*
X110847381Y-73736403D01*
X110847370Y-73736401D01*
X110787824Y-73730000D01*
X110140001Y-73730000D01*
X110140000Y-73730001D01*
X110140000Y-74646988D01*
X110082993Y-74614075D01*
X109955826Y-74580000D01*
X109824174Y-74580000D01*
X109697007Y-74614075D01*
X109640000Y-74646988D01*
X109640000Y-73730001D01*
X109639999Y-73730000D01*
X108992176Y-73730000D01*
X108932629Y-73736401D01*
X108932618Y-73736403D01*
X108797911Y-73786646D01*
X108797909Y-73786647D01*
X108682815Y-73872807D01*
X108682807Y-73872815D01*
X108596647Y-73987909D01*
X108596646Y-73987911D01*
X108546403Y-74122618D01*
X108546401Y-74122629D01*
X108540000Y-74182175D01*
X108540000Y-74829999D01*
X108540001Y-74830000D01*
X109456988Y-74830000D01*
X109424075Y-74887007D01*
X109390000Y-75014174D01*
X109390000Y-75145826D01*
X109424075Y-75272993D01*
X109456988Y-75330000D01*
X108540001Y-75330000D01*
X108540000Y-75330001D01*
X108540000Y-75977824D01*
X108539999Y-75977824D01*
X108546401Y-76037370D01*
X108546403Y-76037381D01*
X108596646Y-76172088D01*
X108596647Y-76172090D01*
X108682807Y-76287184D01*
X108682815Y-76287192D01*
X108797909Y-76373352D01*
X108797911Y-76373353D01*
X108932618Y-76423596D01*
X108932629Y-76423598D01*
X108992176Y-76430000D01*
X109278500Y-76430000D01*
X109336691Y-76448907D01*
X109372655Y-76498407D01*
X109372655Y-76559593D01*
X109336691Y-76609093D01*
X109330617Y-76613171D01*
X109193699Y-76697946D01*
X109193692Y-76697952D01*
X109036135Y-76841586D01*
X109036131Y-76841589D01*
X109036128Y-76841593D01*
X109036125Y-76841597D01*
X108907635Y-77011743D01*
X108907630Y-77011752D01*
X108812596Y-77202608D01*
X108754244Y-77407688D01*
X108754244Y-77407690D01*
X108734571Y-77620000D01*
X108754244Y-77832310D01*
X108812595Y-78037389D01*
X108907634Y-78228255D01*
X109036128Y-78398407D01*
X109036135Y-78398413D01*
X109193692Y-78542047D01*
X109193699Y-78542053D01*
X109297389Y-78606255D01*
X109374981Y-78654298D01*
X109573802Y-78731321D01*
X109783390Y-78770500D01*
X109996610Y-78770500D01*
X110206198Y-78731321D01*
X110405019Y-78654298D01*
X110586302Y-78542052D01*
X110743872Y-78398407D01*
X110872366Y-78228255D01*
X110967405Y-78037389D01*
X111025756Y-77832310D01*
X111045429Y-77620000D01*
X111025756Y-77407690D01*
X110967405Y-77202611D01*
X110967401Y-77202604D01*
X110965752Y-77198344D01*
X110967132Y-77197809D01*
X110959019Y-77143364D01*
X110986651Y-77089741D01*
X111176897Y-76899496D01*
X111231413Y-76871719D01*
X111246900Y-76870500D01*
X116438075Y-76870500D01*
X116496266Y-76889407D01*
X116532230Y-76938907D01*
X116532230Y-77000093D01*
X116526696Y-77013628D01*
X116432596Y-77202608D01*
X116374244Y-77407688D01*
X116374244Y-77407690D01*
X116354571Y-77620000D01*
X116374244Y-77832310D01*
X116432595Y-78037389D01*
X116527634Y-78228255D01*
X116656128Y-78398407D01*
X116656135Y-78398413D01*
X116813692Y-78542047D01*
X116813699Y-78542053D01*
X116917389Y-78606255D01*
X116994981Y-78654298D01*
X117193802Y-78731321D01*
X117403390Y-78770500D01*
X117616610Y-78770500D01*
X117826198Y-78731321D01*
X118025019Y-78654298D01*
X118206302Y-78542052D01*
X118363872Y-78398407D01*
X118492366Y-78228255D01*
X118587405Y-78037389D01*
X118645756Y-77832310D01*
X118665429Y-77620000D01*
X118645756Y-77407690D01*
X118587405Y-77202611D01*
X118505532Y-77038186D01*
X118493304Y-77013628D01*
X118484291Y-76953110D01*
X118512572Y-76898852D01*
X118567343Y-76871580D01*
X118581925Y-76870500D01*
X120308134Y-76870500D01*
X120366325Y-76889407D01*
X120402289Y-76938907D01*
X120402289Y-77000093D01*
X120387138Y-77029159D01*
X120382230Y-77035658D01*
X120380329Y-77038176D01*
X120380323Y-77038186D01*
X120298450Y-77202611D01*
X120289418Y-77220750D01*
X120233603Y-77416917D01*
X120214785Y-77620000D01*
X120233603Y-77823083D01*
X120261741Y-77921975D01*
X120287880Y-78013845D01*
X120285619Y-78074989D01*
X120262663Y-78110941D01*
X118840520Y-79533086D01*
X118840516Y-79533091D01*
X118787793Y-79624411D01*
X118787792Y-79624412D01*
X118787793Y-79624413D01*
X118764779Y-79710302D01*
X118731455Y-79761617D01*
X118674333Y-79783543D01*
X118615233Y-79767707D01*
X118580531Y-79728807D01*
X118579269Y-79726273D01*
X118492366Y-79551745D01*
X118363872Y-79381593D01*
X118309623Y-79332139D01*
X118206307Y-79237952D01*
X118206300Y-79237946D01*
X118025024Y-79125705D01*
X118025019Y-79125702D01*
X117900646Y-79077520D01*
X117826198Y-79048679D01*
X117826197Y-79048678D01*
X117826195Y-79048678D01*
X117616610Y-79009500D01*
X117403390Y-79009500D01*
X117193804Y-79048678D01*
X116994980Y-79125702D01*
X116994975Y-79125705D01*
X116813699Y-79237946D01*
X116813692Y-79237952D01*
X116656135Y-79381586D01*
X116656131Y-79381589D01*
X116656128Y-79381593D01*
X116656125Y-79381597D01*
X116527635Y-79551743D01*
X116527630Y-79551752D01*
X116432596Y-79742608D01*
X116432595Y-79742611D01*
X116420949Y-79783543D01*
X116374244Y-79947688D01*
X116354571Y-80160000D01*
X116374244Y-80372311D01*
X116381296Y-80397094D01*
X116432595Y-80577389D01*
X116527634Y-80768255D01*
X116656128Y-80938407D01*
X116656135Y-80938413D01*
X116813692Y-81082047D01*
X116813699Y-81082053D01*
X116863840Y-81113099D01*
X116994981Y-81194298D01*
X117193802Y-81271321D01*
X117403390Y-81310500D01*
X117616610Y-81310500D01*
X117826198Y-81271321D01*
X118025019Y-81194298D01*
X118206302Y-81082052D01*
X118363872Y-80938407D01*
X118492366Y-80768255D01*
X118572879Y-80606560D01*
X118615741Y-80562899D01*
X118676082Y-80552769D01*
X118730853Y-80580041D01*
X118759134Y-80634299D01*
X118760500Y-80650689D01*
X118760500Y-82209310D01*
X118741593Y-82267501D01*
X118692093Y-82303465D01*
X118630907Y-82303465D01*
X118581407Y-82267501D01*
X118572879Y-82253438D01*
X118492369Y-82091752D01*
X118492366Y-82091745D01*
X118363872Y-81921593D01*
X118309623Y-81872139D01*
X118206307Y-81777952D01*
X118206300Y-81777946D01*
X118025024Y-81665705D01*
X118025019Y-81665702D01*
X117826195Y-81588678D01*
X117616610Y-81549500D01*
X117403390Y-81549500D01*
X117193804Y-81588678D01*
X116994980Y-81665702D01*
X116994975Y-81665705D01*
X116813699Y-81777946D01*
X116813692Y-81777952D01*
X116656135Y-81921586D01*
X116656131Y-81921589D01*
X116656128Y-81921593D01*
X116656125Y-81921597D01*
X116527635Y-82091743D01*
X116527630Y-82091752D01*
X116432596Y-82282608D01*
X116374244Y-82487688D01*
X116354571Y-82700000D01*
X116363581Y-82797241D01*
X116374244Y-82912310D01*
X116432595Y-83117389D01*
X116527634Y-83308255D01*
X116656128Y-83478407D01*
X116656135Y-83478413D01*
X116813692Y-83622047D01*
X116813699Y-83622053D01*
X116917389Y-83686255D01*
X116994981Y-83734298D01*
X117193802Y-83811321D01*
X117403390Y-83850500D01*
X117616610Y-83850500D01*
X117826198Y-83811321D01*
X118025019Y-83734298D01*
X118206302Y-83622052D01*
X118363872Y-83478407D01*
X118492366Y-83308255D01*
X118572879Y-83146560D01*
X118615741Y-83102899D01*
X118676082Y-83092769D01*
X118730853Y-83120041D01*
X118759134Y-83174299D01*
X118760500Y-83190689D01*
X118760500Y-84749310D01*
X118741593Y-84807501D01*
X118692093Y-84843465D01*
X118630907Y-84843465D01*
X118581407Y-84807501D01*
X118572879Y-84793438D01*
X118492369Y-84631752D01*
X118492366Y-84631745D01*
X118363872Y-84461593D01*
X118301808Y-84405014D01*
X118206307Y-84317952D01*
X118206300Y-84317946D01*
X118025024Y-84205705D01*
X118025019Y-84205702D01*
X117826195Y-84128678D01*
X117616610Y-84089500D01*
X117403390Y-84089500D01*
X117193804Y-84128678D01*
X116994980Y-84205702D01*
X116994975Y-84205705D01*
X116813699Y-84317946D01*
X116813692Y-84317952D01*
X116656135Y-84461586D01*
X116656131Y-84461589D01*
X116656128Y-84461593D01*
X116656125Y-84461597D01*
X116527635Y-84631743D01*
X116527630Y-84631752D01*
X116432596Y-84822608D01*
X116374244Y-85027688D01*
X116354571Y-85240000D01*
X116374244Y-85452311D01*
X116432598Y-85657401D01*
X116434249Y-85661661D01*
X116432870Y-85662195D01*
X116440977Y-85716647D01*
X116413348Y-85770256D01*
X115665520Y-86518086D01*
X115665516Y-86518091D01*
X115612795Y-86609406D01*
X115612793Y-86609410D01*
X115612793Y-86609412D01*
X115598009Y-86664587D01*
X115598009Y-86664588D01*
X115598008Y-86664587D01*
X115585500Y-86711270D01*
X115585500Y-86711273D01*
X115585500Y-90648273D01*
X115585500Y-90753727D01*
X115587878Y-90762602D01*
X115612794Y-90855592D01*
X115665516Y-90946908D01*
X115665518Y-90946910D01*
X115665520Y-90946913D01*
X116629087Y-91910480D01*
X116629089Y-91910481D01*
X116643316Y-91918695D01*
X116684257Y-91964164D01*
X116690654Y-92025014D01*
X116660521Y-92077587D01*
X116656130Y-92081590D01*
X116656128Y-92081592D01*
X116527640Y-92251736D01*
X116527630Y-92251752D01*
X116432596Y-92442608D01*
X116374244Y-92647688D01*
X116354571Y-92860000D01*
X116374244Y-93072311D01*
X116432598Y-93277401D01*
X116434249Y-93281661D01*
X116432870Y-93282195D01*
X116440977Y-93336647D01*
X116413348Y-93390256D01*
X115265520Y-94538086D01*
X115265516Y-94538091D01*
X115212794Y-94629407D01*
X115186801Y-94726411D01*
X115186802Y-94726412D01*
X115185500Y-94731273D01*
X115185500Y-95088694D01*
X115166593Y-95146885D01*
X115117093Y-95182849D01*
X115073579Y-95186847D01*
X114986002Y-95175318D01*
X114985999Y-95175318D01*
X114829241Y-95195955D01*
X114829233Y-95195957D01*
X114683161Y-95256462D01*
X114683160Y-95256462D01*
X114557723Y-95352713D01*
X114557713Y-95352723D01*
X114461462Y-95478160D01*
X114461462Y-95478161D01*
X114400957Y-95624233D01*
X114400955Y-95624241D01*
X114379471Y-95787433D01*
X114377743Y-95787205D01*
X114361411Y-95837472D01*
X114351327Y-95849279D01*
X114251298Y-95949309D01*
X114226239Y-95974368D01*
X114171722Y-96002145D01*
X114111290Y-95992574D01*
X114068025Y-95949309D01*
X114057235Y-95904364D01*
X114057235Y-83987449D01*
X114057236Y-83987436D01*
X114057236Y-83874007D01*
X114057235Y-83874005D01*
X114029942Y-83772148D01*
X114008089Y-83734298D01*
X113982137Y-83689348D01*
X113977215Y-83680822D01*
X113977214Y-83680821D01*
X113977213Y-83680819D01*
X113899191Y-83602798D01*
X113899190Y-83602798D01*
X110986650Y-80690257D01*
X110958873Y-80635740D01*
X110967111Y-80582182D01*
X110965752Y-80581656D01*
X110967400Y-80577398D01*
X110967405Y-80577389D01*
X111025756Y-80372310D01*
X111045429Y-80160000D01*
X111025756Y-79947690D01*
X110967405Y-79742611D01*
X110872366Y-79551745D01*
X110743872Y-79381593D01*
X110689623Y-79332139D01*
X110586307Y-79237952D01*
X110586300Y-79237946D01*
X110405024Y-79125705D01*
X110405019Y-79125702D01*
X110280646Y-79077520D01*
X110206198Y-79048679D01*
X110206197Y-79048678D01*
X110206195Y-79048678D01*
X109996610Y-79009500D01*
X109783390Y-79009500D01*
X109573804Y-79048678D01*
X109374980Y-79125702D01*
X109374975Y-79125705D01*
X109193699Y-79237946D01*
X109193692Y-79237952D01*
X109036135Y-79381586D01*
X109036131Y-79381589D01*
X109036128Y-79381593D01*
X109036125Y-79381597D01*
X108907635Y-79551743D01*
X108907630Y-79551752D01*
X108812596Y-79742608D01*
X108812595Y-79742611D01*
X108800949Y-79783543D01*
X108754244Y-79947688D01*
X108734571Y-80160000D01*
X108754244Y-80372311D01*
X108761296Y-80397094D01*
X108812595Y-80577389D01*
X108907634Y-80768255D01*
X109036128Y-80938407D01*
X109036135Y-80938413D01*
X109193692Y-81082047D01*
X109193699Y-81082053D01*
X109243840Y-81113099D01*
X109374981Y-81194298D01*
X109573802Y-81271321D01*
X109783390Y-81310500D01*
X109996610Y-81310500D01*
X110206198Y-81271321D01*
X110310908Y-81230755D01*
X110371998Y-81227366D01*
X110416674Y-81253067D01*
X113227239Y-84063631D01*
X113255016Y-84118148D01*
X113256235Y-84133635D01*
X113256235Y-85260834D01*
X113237328Y-85319025D01*
X113187828Y-85354989D01*
X113126642Y-85354989D01*
X113087231Y-85330838D01*
X110986650Y-83230257D01*
X110958873Y-83175740D01*
X110967111Y-83122182D01*
X110965752Y-83121656D01*
X110967400Y-83117398D01*
X110967405Y-83117389D01*
X111025756Y-82912310D01*
X111045429Y-82700000D01*
X111025756Y-82487690D01*
X110967405Y-82282611D01*
X110872366Y-82091745D01*
X110743872Y-81921593D01*
X110689623Y-81872139D01*
X110586307Y-81777952D01*
X110586300Y-81777946D01*
X110405024Y-81665705D01*
X110405019Y-81665702D01*
X110206195Y-81588678D01*
X109996610Y-81549500D01*
X109783390Y-81549500D01*
X109573804Y-81588678D01*
X109374980Y-81665702D01*
X109374975Y-81665705D01*
X109193699Y-81777946D01*
X109193692Y-81777952D01*
X109036135Y-81921586D01*
X109036131Y-81921589D01*
X109036128Y-81921593D01*
X109036125Y-81921597D01*
X108907635Y-82091743D01*
X108907630Y-82091752D01*
X108812596Y-82282608D01*
X108754244Y-82487688D01*
X108738495Y-82657651D01*
X108714299Y-82713849D01*
X108661691Y-82745092D01*
X108600767Y-82739446D01*
X108569913Y-82718520D01*
X108287496Y-82436103D01*
X108259719Y-82381586D01*
X108258500Y-82366099D01*
X108258500Y-79458714D01*
X108258501Y-79458701D01*
X108258501Y-79345272D01*
X108258500Y-79345270D01*
X108231207Y-79243413D01*
X108228051Y-79237946D01*
X108189198Y-79170652D01*
X108178480Y-79152087D01*
X108103913Y-79077520D01*
X108103910Y-79077518D01*
X107137336Y-78110943D01*
X107109559Y-78056426D01*
X107112118Y-78013848D01*
X107166397Y-77823083D01*
X107185215Y-77620000D01*
X107166397Y-77416917D01*
X107110582Y-77220750D01*
X107019673Y-77038179D01*
X106896764Y-76875421D01*
X106746041Y-76738019D01*
X106572637Y-76630652D01*
X106382456Y-76556976D01*
X106382455Y-76556975D01*
X106382453Y-76556975D01*
X106181976Y-76519500D01*
X105978024Y-76519500D01*
X105777546Y-76556975D01*
X105737353Y-76572546D01*
X105587363Y-76630652D01*
X105413959Y-76738019D01*
X105263236Y-76875421D01*
X105223388Y-76928188D01*
X105140328Y-77038177D01*
X105140323Y-77038186D01*
X105058450Y-77202611D01*
X105049418Y-77220750D01*
X104993603Y-77416917D01*
X104974785Y-77620000D01*
X104993603Y-77823083D01*
X105049418Y-78019250D01*
X105140327Y-78201821D01*
X105263236Y-78364579D01*
X105413959Y-78501981D01*
X105587363Y-78609348D01*
X105777544Y-78683024D01*
X105978024Y-78720500D01*
X106181976Y-78720500D01*
X106382456Y-78683024D01*
X106462258Y-78652107D01*
X106523350Y-78648717D01*
X106568026Y-78674418D01*
X107428504Y-79534896D01*
X107456281Y-79589413D01*
X107457500Y-79604900D01*
X107457500Y-82520273D01*
X107457500Y-82625727D01*
X107464315Y-82651160D01*
X107484794Y-82727592D01*
X107537516Y-82818908D01*
X107537517Y-82818909D01*
X107537518Y-82818910D01*
X107537520Y-82818913D01*
X108300587Y-83581980D01*
X108934519Y-84215912D01*
X108934520Y-84215913D01*
X108934519Y-84215913D01*
X109009085Y-84290478D01*
X109009087Y-84290480D01*
X109023318Y-84298696D01*
X109064258Y-84344164D01*
X109070655Y-84405014D01*
X109040517Y-84457591D01*
X109036131Y-84461589D01*
X109036128Y-84461592D01*
X108907640Y-84631736D01*
X108907630Y-84631752D01*
X108858434Y-84730552D01*
X108815571Y-84774215D01*
X108755230Y-84784344D01*
X108700459Y-84757071D01*
X108690970Y-84744821D01*
X108690431Y-84745236D01*
X108686482Y-84740090D01*
X108686481Y-84740089D01*
X108686480Y-84740087D01*
X107137336Y-83190943D01*
X107109559Y-83136426D01*
X107112118Y-83093848D01*
X107166397Y-82903083D01*
X107185215Y-82700000D01*
X107166397Y-82496917D01*
X107110582Y-82300750D01*
X107019673Y-82118179D01*
X106896764Y-81955421D01*
X106746041Y-81818019D01*
X106572637Y-81710652D01*
X106382456Y-81636976D01*
X106382455Y-81636975D01*
X106382453Y-81636975D01*
X106181976Y-81599500D01*
X105978024Y-81599500D01*
X105777546Y-81636975D01*
X105707632Y-81664059D01*
X105587363Y-81710652D01*
X105478676Y-81777948D01*
X105413959Y-81818019D01*
X105263967Y-81954755D01*
X105263236Y-81955421D01*
X105261503Y-81957716D01*
X105140328Y-82118177D01*
X105140323Y-82118186D01*
X105049419Y-82300747D01*
X105049418Y-82300750D01*
X104993603Y-82496917D01*
X104974785Y-82700000D01*
X104993603Y-82903083D01*
X105049418Y-83099250D01*
X105140327Y-83281821D01*
X105263236Y-83444579D01*
X105413959Y-83581981D01*
X105587363Y-83689348D01*
X105777544Y-83763024D01*
X105978024Y-83800500D01*
X106181976Y-83800500D01*
X106382456Y-83763024D01*
X106462259Y-83732107D01*
X106523351Y-83728718D01*
X106568026Y-83754419D01*
X107936504Y-85122897D01*
X107964281Y-85177414D01*
X107965500Y-85192901D01*
X107965500Y-86320099D01*
X107946593Y-86378290D01*
X107897093Y-86414254D01*
X107835907Y-86414254D01*
X107796496Y-86390103D01*
X107137336Y-85730943D01*
X107109559Y-85676426D01*
X107112118Y-85633848D01*
X107166397Y-85443083D01*
X107185215Y-85240000D01*
X107166397Y-85036917D01*
X107110582Y-84840750D01*
X107019673Y-84658179D01*
X106896764Y-84495421D01*
X106746041Y-84358019D01*
X106572637Y-84250652D01*
X106382456Y-84176976D01*
X106382455Y-84176975D01*
X106382453Y-84176975D01*
X106181976Y-84139500D01*
X105978024Y-84139500D01*
X105777546Y-84176975D01*
X105707632Y-84204059D01*
X105587363Y-84250652D01*
X105478676Y-84317948D01*
X105413959Y-84358019D01*
X105263967Y-84494755D01*
X105263236Y-84495421D01*
X105261503Y-84497716D01*
X105140328Y-84658177D01*
X105140323Y-84658186D01*
X105054067Y-84831413D01*
X105049418Y-84840750D01*
X104993603Y-85036917D01*
X104974785Y-85240000D01*
X104993603Y-85443083D01*
X105049418Y-85639250D01*
X105140327Y-85821821D01*
X105263236Y-85984579D01*
X105413959Y-86121981D01*
X105587363Y-86229348D01*
X105777544Y-86303024D01*
X105978024Y-86340500D01*
X106181976Y-86340500D01*
X106382456Y-86303024D01*
X106462258Y-86272107D01*
X106523350Y-86268717D01*
X106568026Y-86294418D01*
X107536504Y-87262896D01*
X107564281Y-87317413D01*
X107565500Y-87332900D01*
X107565500Y-91000099D01*
X107546593Y-91058290D01*
X107497093Y-91094254D01*
X107435907Y-91094254D01*
X107396496Y-91070103D01*
X107137336Y-90810943D01*
X107109559Y-90756426D01*
X107112118Y-90713848D01*
X107166397Y-90523083D01*
X107185215Y-90320000D01*
X107166397Y-90116917D01*
X107110582Y-89920750D01*
X107019673Y-89738179D01*
X106896764Y-89575421D01*
X106746041Y-89438019D01*
X106572637Y-89330652D01*
X106382456Y-89256976D01*
X106382455Y-89256975D01*
X106382453Y-89256975D01*
X106181976Y-89219500D01*
X105978024Y-89219500D01*
X105777546Y-89256975D01*
X105707632Y-89284059D01*
X105587363Y-89330652D01*
X105437881Y-89423207D01*
X105413959Y-89438019D01*
X105263237Y-89575420D01*
X105140328Y-89738177D01*
X105140323Y-89738186D01*
X105049419Y-89920747D01*
X105049418Y-89920750D01*
X104993603Y-90116917D01*
X104974785Y-90320000D01*
X104993603Y-90523083D01*
X105049418Y-90719250D01*
X105140327Y-90901821D01*
X105263236Y-91064579D01*
X105413959Y-91201981D01*
X105587363Y-91309348D01*
X105777544Y-91383024D01*
X105978024Y-91420500D01*
X106181976Y-91420500D01*
X106382456Y-91383024D01*
X106462259Y-91352107D01*
X106523351Y-91348718D01*
X106568026Y-91374419D01*
X107136504Y-91942897D01*
X107164281Y-91997414D01*
X107165500Y-92012901D01*
X107165500Y-92175909D01*
X107146593Y-92234100D01*
X107097093Y-92270064D01*
X107035907Y-92270064D01*
X106987497Y-92235570D01*
X106918679Y-92144441D01*
X106896764Y-92115421D01*
X106746041Y-91978019D01*
X106572637Y-91870652D01*
X106382456Y-91796976D01*
X106382455Y-91796975D01*
X106382453Y-91796975D01*
X106181976Y-91759500D01*
X105978024Y-91759500D01*
X105777546Y-91796975D01*
X105737353Y-91812546D01*
X105587363Y-91870652D01*
X105478676Y-91937948D01*
X105413959Y-91978019D01*
X105263967Y-92114755D01*
X105263236Y-92115421D01*
X105241321Y-92144441D01*
X105140328Y-92278177D01*
X105140323Y-92278186D01*
X105058450Y-92442611D01*
X105049418Y-92460750D01*
X104993603Y-92656917D01*
X104974785Y-92860000D01*
X104993603Y-93063083D01*
X105049418Y-93259250D01*
X105140327Y-93441821D01*
X105263236Y-93604579D01*
X105413959Y-93741981D01*
X105587363Y-93849348D01*
X105777544Y-93923024D01*
X105978024Y-93960500D01*
X106181976Y-93960500D01*
X106382456Y-93923024D01*
X106572637Y-93849348D01*
X106746041Y-93741981D01*
X106896764Y-93604579D01*
X106987498Y-93484427D01*
X107037652Y-93449386D01*
X107098827Y-93450517D01*
X107147654Y-93487389D01*
X107165500Y-93544090D01*
X107165500Y-94715909D01*
X107146593Y-94774100D01*
X107097093Y-94810064D01*
X107035907Y-94810064D01*
X106987497Y-94775570D01*
X106906013Y-94667669D01*
X106896764Y-94655421D01*
X106746041Y-94518019D01*
X106572637Y-94410652D01*
X106382456Y-94336976D01*
X106382455Y-94336975D01*
X106382453Y-94336975D01*
X106181976Y-94299500D01*
X105978024Y-94299500D01*
X105777546Y-94336975D01*
X105707632Y-94364059D01*
X105587363Y-94410652D01*
X105478676Y-94477948D01*
X105413959Y-94518019D01*
X105263967Y-94654755D01*
X105263236Y-94655421D01*
X105261503Y-94657716D01*
X105140328Y-94818177D01*
X105140323Y-94818186D01*
X105058450Y-94982611D01*
X105049418Y-95000750D01*
X104993603Y-95196917D01*
X104974785Y-95400000D01*
X104993603Y-95603083D01*
X105049418Y-95799250D01*
X105140327Y-95981821D01*
X105263236Y-96144579D01*
X105413959Y-96281981D01*
X105587363Y-96389348D01*
X105777544Y-96463024D01*
X105978024Y-96500500D01*
X106181976Y-96500500D01*
X106382456Y-96463024D01*
X106572637Y-96389348D01*
X106746041Y-96281981D01*
X106896764Y-96144579D01*
X106987498Y-96024427D01*
X107037652Y-95989386D01*
X107098827Y-95990517D01*
X107147654Y-96027389D01*
X107165500Y-96084090D01*
X107165500Y-97255909D01*
X107146593Y-97314100D01*
X107097093Y-97350064D01*
X107035907Y-97350064D01*
X106987497Y-97315570D01*
X106917432Y-97222790D01*
X106896764Y-97195421D01*
X106746041Y-97058019D01*
X106572637Y-96950652D01*
X106382456Y-96876976D01*
X106382455Y-96876975D01*
X106382453Y-96876975D01*
X106181976Y-96839500D01*
X105978024Y-96839500D01*
X105777546Y-96876975D01*
X105707632Y-96904059D01*
X105587363Y-96950652D01*
X105413959Y-97058019D01*
X105263236Y-97195421D01*
X105250043Y-97212891D01*
X105140328Y-97358177D01*
X105140323Y-97358186D01*
X105058450Y-97522611D01*
X105049418Y-97540750D01*
X104993603Y-97736917D01*
X104974785Y-97940000D01*
X104993603Y-98143083D01*
X105049418Y-98339250D01*
X105140327Y-98521821D01*
X105263236Y-98684579D01*
X105413959Y-98821981D01*
X105587363Y-98929348D01*
X105777544Y-99003024D01*
X105978024Y-99040500D01*
X106181976Y-99040500D01*
X106382456Y-99003024D01*
X106462259Y-98972107D01*
X106523351Y-98968718D01*
X106568026Y-98994419D01*
X106920504Y-99346897D01*
X106948281Y-99401414D01*
X106949500Y-99416901D01*
X106949500Y-99559283D01*
X106930593Y-99617474D01*
X106881093Y-99653438D01*
X106819907Y-99653438D01*
X106783805Y-99632445D01*
X106746043Y-99598021D01*
X106746041Y-99598019D01*
X106572637Y-99490652D01*
X106382456Y-99416976D01*
X106382455Y-99416975D01*
X106382453Y-99416975D01*
X106181976Y-99379500D01*
X105978024Y-99379500D01*
X105777546Y-99416975D01*
X105736839Y-99432745D01*
X105587363Y-99490652D01*
X105523037Y-99530481D01*
X105413959Y-99598019D01*
X105263237Y-99735420D01*
X105140328Y-99898177D01*
X105140323Y-99898186D01*
X105049419Y-100080747D01*
X105049418Y-100080750D01*
X104993603Y-100276917D01*
X104974785Y-100480000D01*
X104993603Y-100683083D01*
X105001573Y-100711093D01*
X105047880Y-100873845D01*
X105045619Y-100934989D01*
X105022663Y-100970941D01*
X103981520Y-102012086D01*
X103981516Y-102012091D01*
X103928794Y-102103408D01*
X103928792Y-102103412D01*
X103919519Y-102138017D01*
X103919520Y-102138018D01*
X103919520Y-102138019D01*
X103901500Y-102205273D01*
X101075500Y-102205273D01*
X101075500Y-87780000D01*
X104974785Y-87780000D01*
X104993603Y-87983083D01*
X105049418Y-88179250D01*
X105140327Y-88361821D01*
X105263236Y-88524579D01*
X105413959Y-88661981D01*
X105587363Y-88769348D01*
X105777544Y-88843024D01*
X105978024Y-88880500D01*
X106181976Y-88880500D01*
X106382456Y-88843024D01*
X106572637Y-88769348D01*
X106746041Y-88661981D01*
X106896764Y-88524579D01*
X107019673Y-88361821D01*
X107110582Y-88179250D01*
X107166397Y-87983083D01*
X107185215Y-87780000D01*
X107166397Y-87576917D01*
X107110582Y-87380750D01*
X107019673Y-87198179D01*
X106896764Y-87035421D01*
X106746041Y-86898019D01*
X106572637Y-86790652D01*
X106382456Y-86716976D01*
X106382455Y-86716975D01*
X106382453Y-86716975D01*
X106181976Y-86679500D01*
X105978024Y-86679500D01*
X105777546Y-86716975D01*
X105707632Y-86744059D01*
X105587363Y-86790652D01*
X105478676Y-86857948D01*
X105413959Y-86898019D01*
X105263237Y-87035420D01*
X105140328Y-87198177D01*
X105140323Y-87198186D01*
X105058450Y-87362611D01*
X105049418Y-87380750D01*
X104993603Y-87576917D01*
X104974785Y-87780000D01*
X101075500Y-87780000D01*
X101075500Y-80160000D01*
X104974785Y-80160000D01*
X104993603Y-80363083D01*
X105049418Y-80559250D01*
X105140327Y-80741821D01*
X105263236Y-80904579D01*
X105413959Y-81041981D01*
X105587363Y-81149348D01*
X105777544Y-81223024D01*
X105978024Y-81260500D01*
X106181976Y-81260500D01*
X106382456Y-81223024D01*
X106572637Y-81149348D01*
X106746041Y-81041981D01*
X106896764Y-80904579D01*
X107019673Y-80741821D01*
X107110582Y-80559250D01*
X107166397Y-80363083D01*
X107185215Y-80160000D01*
X107166397Y-79956917D01*
X107110582Y-79760750D01*
X107019673Y-79578179D01*
X106896764Y-79415421D01*
X106746041Y-79278019D01*
X106572637Y-79170652D01*
X106382456Y-79096976D01*
X106382455Y-79096975D01*
X106382453Y-79096975D01*
X106181976Y-79059500D01*
X105978024Y-79059500D01*
X105777546Y-79096975D01*
X105707632Y-79124059D01*
X105587363Y-79170652D01*
X105413959Y-79278019D01*
X105263236Y-79415421D01*
X105230543Y-79458714D01*
X105140328Y-79578177D01*
X105140323Y-79578186D01*
X105058450Y-79742611D01*
X105049418Y-79760750D01*
X104993603Y-79956917D01*
X104974785Y-80160000D01*
X101075500Y-80160000D01*
X101075500Y-74235130D01*
X104979500Y-74235130D01*
X104979500Y-75924860D01*
X104979501Y-75924863D01*
X104982414Y-75949990D01*
X104994704Y-75977824D01*
X105027794Y-76052765D01*
X105107235Y-76132206D01*
X105210009Y-76177585D01*
X105235135Y-76180500D01*
X106924864Y-76180499D01*
X106949991Y-76177585D01*
X107052765Y-76132206D01*
X107132206Y-76052765D01*
X107177585Y-75949991D01*
X107180500Y-75924865D01*
X107180499Y-74235136D01*
X107177585Y-74210009D01*
X107132206Y-74107235D01*
X107052765Y-74027794D01*
X106949991Y-73982415D01*
X106949990Y-73982414D01*
X106949988Y-73982414D01*
X106924868Y-73979500D01*
X105235139Y-73979500D01*
X105235136Y-73979501D01*
X105210009Y-73982414D01*
X105107235Y-74027794D01*
X105027794Y-74107235D01*
X104982414Y-74210011D01*
X104979500Y-74235130D01*
X101075500Y-74235130D01*
X101075500Y-72028001D01*
X107990001Y-72028001D01*
X107990001Y-72064654D01*
X108000317Y-72165642D01*
X108000320Y-72165654D01*
X108054548Y-72329306D01*
X108145053Y-72476035D01*
X108266964Y-72597946D01*
X108413693Y-72688451D01*
X108577351Y-72742681D01*
X108678345Y-72752999D01*
X108727500Y-72752998D01*
X108727500Y-72028001D01*
X108727499Y-72028000D01*
X107990002Y-72028000D01*
X107990001Y-72028001D01*
X101075500Y-72028001D01*
X101075500Y-71491344D01*
X107990000Y-71491344D01*
X107990000Y-71527999D01*
X107990001Y-71528000D01*
X108727499Y-71528000D01*
X108727500Y-71527999D01*
X108727500Y-70803001D01*
X109227500Y-70803001D01*
X109227500Y-72752998D01*
X109227501Y-72752999D01*
X109276654Y-72752999D01*
X109377642Y-72742682D01*
X109377654Y-72742679D01*
X109541306Y-72688451D01*
X109688035Y-72597946D01*
X109809946Y-72476035D01*
X109900451Y-72329306D01*
X109906596Y-72310761D01*
X109942845Y-72261469D01*
X110001144Y-72242899D01*
X110059225Y-72262142D01*
X110079456Y-72282078D01*
X110168500Y-72399500D01*
X110286342Y-72488862D01*
X110423923Y-72543117D01*
X110510382Y-72553500D01*
X110510384Y-72553500D01*
X111094616Y-72553500D01*
X111094618Y-72553500D01*
X111181077Y-72543117D01*
X111318658Y-72488862D01*
X111436500Y-72399500D01*
X111525862Y-72281658D01*
X111541824Y-72241180D01*
X111580760Y-72193984D01*
X111633921Y-72178500D01*
X111956713Y-72178500D01*
X112014904Y-72197407D01*
X112047276Y-72237510D01*
X112088894Y-72331765D01*
X112168335Y-72411206D01*
X112271109Y-72456585D01*
X112296235Y-72459500D01*
X113351164Y-72459499D01*
X113376291Y-72456585D01*
X113479065Y-72411206D01*
X113558506Y-72331765D01*
X113603885Y-72228991D01*
X113603886Y-72228978D01*
X113604469Y-72226838D01*
X113605592Y-72225122D01*
X113606892Y-72222179D01*
X113607378Y-72222393D01*
X113637986Y-72175650D01*
X113695190Y-72153938D01*
X113754230Y-72169996D01*
X113792556Y-72217691D01*
X113795525Y-72226826D01*
X113796112Y-72228984D01*
X113796114Y-72228990D01*
X113796115Y-72228991D01*
X113841494Y-72331765D01*
X113920935Y-72411206D01*
X114023709Y-72456585D01*
X114048835Y-72459500D01*
X115103764Y-72459499D01*
X115128891Y-72456585D01*
X115231665Y-72411206D01*
X115311106Y-72331765D01*
X115352723Y-72237510D01*
X115393523Y-72191916D01*
X115443287Y-72178500D01*
X117012929Y-72178500D01*
X117071120Y-72197407D01*
X117079687Y-72204723D01*
X117081716Y-72206280D01*
X117081718Y-72206282D01*
X117207159Y-72302536D01*
X117207160Y-72302536D01*
X117207161Y-72302537D01*
X117277724Y-72331765D01*
X117353238Y-72363044D01*
X117470809Y-72378522D01*
X117509999Y-72383682D01*
X117510000Y-72383682D01*
X117510001Y-72383682D01*
X117541352Y-72379554D01*
X117666762Y-72363044D01*
X117812841Y-72302536D01*
X117938282Y-72206282D01*
X118034536Y-72080841D01*
X118095044Y-71934762D01*
X118115682Y-71778000D01*
X118095044Y-71621238D01*
X118095042Y-71621233D01*
X118034537Y-71475161D01*
X118034537Y-71475160D01*
X117938286Y-71349723D01*
X117938285Y-71349722D01*
X117938282Y-71349718D01*
X117938277Y-71349714D01*
X117938276Y-71349713D01*
X117829340Y-71266124D01*
X117812841Y-71253464D01*
X117812840Y-71253463D01*
X117812838Y-71253462D01*
X117666766Y-71192957D01*
X117666758Y-71192955D01*
X117510001Y-71172318D01*
X117509999Y-71172318D01*
X117353241Y-71192955D01*
X117353233Y-71192957D01*
X117207161Y-71253462D01*
X117207160Y-71253462D01*
X117076570Y-71353668D01*
X117075509Y-71352286D01*
X117028416Y-71376281D01*
X117012929Y-71377500D01*
X115443287Y-71377500D01*
X115385096Y-71358593D01*
X115352723Y-71318489D01*
X115311106Y-71224235D01*
X115231665Y-71144794D01*
X115128891Y-71099415D01*
X115128890Y-71099414D01*
X115128888Y-71099414D01*
X115103768Y-71096500D01*
X114048839Y-71096500D01*
X114048836Y-71096501D01*
X114023709Y-71099414D01*
X113920935Y-71144794D01*
X113841494Y-71224235D01*
X113799878Y-71318488D01*
X113796113Y-71327014D01*
X113795526Y-71329173D01*
X113794403Y-71330886D01*
X113793108Y-71333821D01*
X113792622Y-71333606D01*
X113762003Y-71380357D01*
X113704797Y-71402062D01*
X113645758Y-71385996D01*
X113607438Y-71338297D01*
X113604472Y-71329166D01*
X113603885Y-71327011D01*
X113603885Y-71327009D01*
X113558506Y-71224235D01*
X113479065Y-71144794D01*
X113376291Y-71099415D01*
X113376290Y-71099414D01*
X113376288Y-71099414D01*
X113351168Y-71096500D01*
X112296239Y-71096500D01*
X112296236Y-71096501D01*
X112271109Y-71099414D01*
X112168335Y-71144794D01*
X112088894Y-71224235D01*
X112047276Y-71318489D01*
X112006477Y-71364084D01*
X111956713Y-71377500D01*
X111633921Y-71377500D01*
X111575730Y-71358593D01*
X111541824Y-71314819D01*
X111525862Y-71274342D01*
X111436500Y-71156500D01*
X111318658Y-71067138D01*
X111181079Y-71012883D01*
X111094620Y-71002500D01*
X111094618Y-71002500D01*
X110510382Y-71002500D01*
X110510379Y-71002500D01*
X110423920Y-71012883D01*
X110286341Y-71067138D01*
X110168503Y-71156497D01*
X110168496Y-71156504D01*
X110079455Y-71273922D01*
X110029229Y-71308864D01*
X109968056Y-71307610D01*
X109919304Y-71270639D01*
X109906596Y-71245239D01*
X109900450Y-71226692D01*
X109809946Y-71079964D01*
X109688035Y-70958053D01*
X109541306Y-70867548D01*
X109377648Y-70813318D01*
X109276655Y-70803000D01*
X109227501Y-70803000D01*
X109227500Y-70803001D01*
X108727500Y-70803001D01*
X108727500Y-70802999D01*
X108678347Y-70803000D01*
X108678344Y-70803001D01*
X108577357Y-70813317D01*
X108577345Y-70813320D01*
X108413693Y-70867548D01*
X108266964Y-70958053D01*
X108145053Y-71079964D01*
X108054548Y-71226693D01*
X108000318Y-71390351D01*
X107990000Y-71491344D01*
X101075500Y-71491344D01*
X101075500Y-71273891D01*
X101075805Y-71266124D01*
X101076801Y-71253464D01*
X101089595Y-71090900D01*
X101092022Y-71075571D01*
X101132146Y-70908445D01*
X101136942Y-70893686D01*
X101202718Y-70734890D01*
X101209755Y-70721078D01*
X101299564Y-70574523D01*
X101308684Y-70561971D01*
X101420309Y-70431275D01*
X101431275Y-70420309D01*
X101561971Y-70308684D01*
X101574523Y-70299564D01*
X101721078Y-70209755D01*
X101734890Y-70202718D01*
X101893686Y-70136942D01*
X101908445Y-70132146D01*
X102075571Y-70092022D01*
X102090900Y-70089595D01*
X102266125Y-70075805D01*
X102273892Y-70075500D01*
X102294531Y-70075500D01*
X125105469Y-70075500D01*
X125126108Y-70075500D01*
X125133875Y-70075805D01*
G37*
G04 #@! TD.AperFunction*
M02*
