G04 #@! TF.GenerationSoftware,KiCad,Pcbnew,8.0.4+dfsg-1*
G04 #@! TF.CreationDate,2025-02-22T20:55:46+09:00*
G04 #@! TF.ProjectId,bionic-f3850-ldo,62696f6e-6963-42d6-9633-3835302d6c64,6*
G04 #@! TF.SameCoordinates,Original*
G04 #@! TF.FileFunction,Copper,L2,Bot*
G04 #@! TF.FilePolarity,Positive*
%FSLAX46Y46*%
G04 Gerber Fmt 4.6, Leading zero omitted, Abs format (unit mm)*
G04 Created by KiCad (PCBNEW 8.0.4+dfsg-1) date 2025-02-22 20:55:46*
%MOMM*%
%LPD*%
G01*
G04 APERTURE LIST*
G04 Aperture macros list*
%AMRoundRect*
0 Rectangle with rounded corners*
0 $1 Rounding radius*
0 $2 $3 $4 $5 $6 $7 $8 $9 X,Y pos of 4 corners*
0 Add a 4 corners polygon primitive as box body*
4,1,4,$2,$3,$4,$5,$6,$7,$8,$9,$2,$3,0*
0 Add four circle primitives for the rounded corners*
1,1,$1+$1,$2,$3*
1,1,$1+$1,$4,$5*
1,1,$1+$1,$6,$7*
1,1,$1+$1,$8,$9*
0 Add four rect primitives between the rounded corners*
20,1,$1+$1,$2,$3,$4,$5,0*
20,1,$1+$1,$4,$5,$6,$7,0*
20,1,$1+$1,$6,$7,$8,$9,0*
20,1,$1+$1,$8,$9,$2,$3,0*%
G04 Aperture macros list end*
G04 #@! TA.AperFunction,ComponentPad*
%ADD10R,1.600000X1.600000*%
G04 #@! TD*
G04 #@! TA.AperFunction,ComponentPad*
%ADD11O,1.600000X1.600000*%
G04 #@! TD*
G04 #@! TA.AperFunction,SMDPad,CuDef*
%ADD12RoundRect,0.237500X0.237500X-0.300000X0.237500X0.300000X-0.237500X0.300000X-0.237500X-0.300000X0*%
G04 #@! TD*
G04 #@! TA.AperFunction,ComponentPad*
%ADD13R,1.700000X1.700000*%
G04 #@! TD*
G04 #@! TA.AperFunction,ComponentPad*
%ADD14O,1.700000X1.700000*%
G04 #@! TD*
G04 #@! TA.AperFunction,ViaPad*
%ADD15C,0.600000*%
G04 #@! TD*
G04 #@! TA.AperFunction,Conductor*
%ADD16C,0.200000*%
G04 #@! TD*
G04 #@! TA.AperFunction,Conductor*
%ADD17C,0.600000*%
G04 #@! TD*
G04 #@! TA.AperFunction,Conductor*
%ADD18C,0.800000*%
G04 #@! TD*
G04 APERTURE END LIST*
D10*
X106080000Y-75080000D03*
D11*
X106080000Y-77620000D03*
X106080000Y-80160000D03*
X106080000Y-82700000D03*
X106080000Y-85240000D03*
X106080000Y-87780000D03*
X106080000Y-90320000D03*
X106080000Y-92860000D03*
X106080000Y-95400000D03*
X106080000Y-97940000D03*
X106080000Y-100480000D03*
X106080000Y-103020000D03*
X106080000Y-105560000D03*
X106080000Y-108100000D03*
X106080000Y-110640000D03*
X106080000Y-113180000D03*
X106080000Y-115720000D03*
X106080000Y-118260000D03*
X106080000Y-120800000D03*
X106080000Y-123340000D03*
X121320000Y-123340000D03*
X121320000Y-120800000D03*
X121320000Y-118260000D03*
X121320000Y-115720000D03*
X121320000Y-113180000D03*
X121320000Y-110640000D03*
X121320000Y-108100000D03*
X121320000Y-105560000D03*
X121320000Y-103020000D03*
X121320000Y-100480000D03*
X121320000Y-97940000D03*
X121320000Y-95400000D03*
X121320000Y-92860000D03*
X121320000Y-90320000D03*
X121320000Y-87780000D03*
X121320000Y-85240000D03*
X121320000Y-82700000D03*
X121320000Y-80160000D03*
X121320000Y-77620000D03*
X121320000Y-75080000D03*
D12*
X103489200Y-80158900D03*
X103489200Y-78433900D03*
D13*
X109890000Y-75080000D03*
D14*
X109890000Y-77620000D03*
X109890000Y-80160000D03*
X109890000Y-82700000D03*
X109890000Y-85240000D03*
X109890000Y-87780000D03*
X109890000Y-90320000D03*
X109890000Y-92860000D03*
X109890000Y-95400000D03*
X109890000Y-97940000D03*
X109890000Y-100480000D03*
X109890000Y-103020000D03*
X109890000Y-105560000D03*
X109890000Y-108100000D03*
X109890000Y-110640000D03*
X109890000Y-113180000D03*
X109890000Y-115720000D03*
X109890000Y-118260000D03*
X109890000Y-120800000D03*
X109890000Y-123340000D03*
X109890000Y-125880000D03*
X109890000Y-128420000D03*
X109890000Y-130960000D03*
X109890000Y-133500000D03*
X117510000Y-133500000D03*
X117510000Y-130960000D03*
X117510000Y-128420000D03*
X117510000Y-125880000D03*
X117510000Y-123340000D03*
X117510000Y-120800000D03*
X117510000Y-118260000D03*
X117510000Y-115720000D03*
X117510000Y-113180000D03*
X117510000Y-110640000D03*
X117510000Y-108100000D03*
X117510000Y-105560000D03*
X117510000Y-103020000D03*
X117510000Y-100480000D03*
X117510000Y-97940000D03*
X117510000Y-95400000D03*
X117510000Y-92860000D03*
X117510000Y-90320000D03*
X117510000Y-87780000D03*
X117510000Y-85240000D03*
X117510000Y-82700000D03*
X117510000Y-80160000D03*
X117510000Y-77620000D03*
D13*
X117510000Y-75080000D03*
D15*
X109991600Y-71778000D03*
X103413000Y-123340000D03*
X108874000Y-89050000D03*
X107604000Y-131874400D03*
X103540000Y-72032000D03*
X103489200Y-76654800D03*
X124926800Y-100480000D03*
X125003000Y-133500000D03*
X102816000Y-83970000D03*
X113700000Y-123340000D03*
X107858000Y-135125600D03*
X112684000Y-90320000D03*
X103540000Y-81557000D03*
X113700000Y-132230000D03*
X114970000Y-119403000D03*
X103032000Y-137208400D03*
X105013200Y-126489600D03*
X112988800Y-98956000D03*
X103159000Y-110005000D03*
X114970000Y-83970000D03*
X115732000Y-96670000D03*
X112277600Y-106576000D03*
X112277600Y-111402000D03*
X111668000Y-119657000D03*
X115541500Y-114513500D03*
X104683000Y-81430000D03*
D16*
X101889000Y-75918200D02*
X106029200Y-71778000D01*
X103693500Y-80160000D02*
X103540000Y-80006500D01*
D17*
X104175000Y-133500000D02*
X109890000Y-133500000D01*
X102016000Y-81632100D02*
X102016000Y-131341000D01*
X103489200Y-80158900D02*
X102016000Y-81632100D01*
D18*
X103490300Y-80160000D02*
X103489200Y-80158900D01*
D16*
X106029200Y-71778000D02*
X109991600Y-71778000D01*
D17*
X102016000Y-131341000D02*
X104175000Y-133500000D01*
D16*
X101889000Y-81505100D02*
X101889000Y-75918200D01*
X102016000Y-81632100D02*
X101889000Y-81505100D01*
D17*
X106080000Y-80160000D02*
X103490300Y-80160000D01*
D16*
X123479000Y-112840450D02*
X123479000Y-84859000D01*
X112303000Y-119022000D02*
X116875000Y-114450000D01*
X121869450Y-114450000D02*
X123479000Y-112840450D01*
X109890000Y-130960000D02*
X112303000Y-128547000D01*
X123479000Y-84859000D02*
X121320000Y-82700000D01*
X112303000Y-128547000D02*
X112303000Y-119022000D01*
X116875000Y-114450000D02*
X121869450Y-114450000D01*
X121320000Y-100480000D02*
X119796000Y-98956000D01*
X119796000Y-95146000D02*
X117510000Y-92860000D01*
X119796000Y-98956000D02*
X119796000Y-95146000D01*
X119542000Y-117752000D02*
X119542000Y-121562000D01*
X119542000Y-121562000D02*
X121320000Y-123340000D01*
X117510000Y-115720000D02*
X119542000Y-117752000D01*
X117510000Y-87780000D02*
X118145000Y-87780000D01*
X118145000Y-87780000D02*
X120685000Y-85240000D01*
X120685000Y-85240000D02*
X121320000Y-85240000D01*
X106950000Y-84370000D02*
X106080000Y-85240000D01*
X107374336Y-83970000D02*
X106974336Y-84370000D01*
X114970000Y-83970000D02*
X107374336Y-83970000D01*
X106974336Y-84370000D02*
X106950000Y-84370000D01*
X113700000Y-86510000D02*
X109382000Y-86510000D01*
X109382000Y-86510000D02*
X107858000Y-88034000D01*
X107858000Y-88034000D02*
X107858000Y-96162000D01*
X117510000Y-82700000D02*
X113700000Y-86510000D01*
X107858000Y-96162000D02*
X106080000Y-97940000D01*
X107225325Y-83570000D02*
X107208650Y-83570000D01*
X104302000Y-98702000D02*
X106080000Y-100480000D01*
X109365325Y-81430000D02*
X107225325Y-83570000D01*
X107208650Y-83570000D02*
X106808650Y-83970000D01*
X116240000Y-81430000D02*
X109365325Y-81430000D01*
X106808650Y-83970000D02*
X105550100Y-83970000D01*
X105550100Y-83970000D02*
X104302000Y-85218100D01*
X117510000Y-80160000D02*
X116240000Y-81430000D01*
X104302000Y-85218100D02*
X104302000Y-98702000D01*
X114462000Y-95400000D02*
X109890000Y-95400000D01*
X115732000Y-96670000D02*
X114462000Y-95400000D01*
X114193300Y-106937043D02*
X116840343Y-104290000D01*
X116840343Y-104290000D02*
X120050000Y-104290000D01*
X114193300Y-111416700D02*
X114193300Y-106937043D01*
X109890000Y-115720000D02*
X114193300Y-111416700D01*
X120050000Y-104290000D02*
X121320000Y-105560000D01*
X111210800Y-94130000D02*
X109940800Y-92860000D01*
X109940800Y-92860000D02*
X109890000Y-92860000D01*
X119288000Y-100988000D02*
X119288000Y-95232900D01*
X118185100Y-94130000D02*
X111210800Y-94130000D01*
X119288000Y-95232900D02*
X118185100Y-94130000D01*
X121320000Y-103020000D02*
X119288000Y-100988000D01*
X118208500Y-91590000D02*
X119923000Y-93304500D01*
X109890000Y-90320000D02*
X111160000Y-91590000D01*
X119923000Y-94003000D02*
X121320000Y-95400000D01*
X119923000Y-93304500D02*
X119923000Y-94003000D01*
X111160000Y-91590000D02*
X118208500Y-91590000D01*
X109255000Y-111910000D02*
X107858000Y-113307000D01*
X117510000Y-100480000D02*
X111668000Y-106322000D01*
X107858000Y-113307000D02*
X107858000Y-113942000D01*
X107858000Y-113942000D02*
X106080000Y-115720000D01*
X110525000Y-111910000D02*
X109255000Y-111910000D01*
X111668000Y-110767000D02*
X110525000Y-111910000D01*
X111668000Y-106322000D02*
X111668000Y-110767000D01*
X109890000Y-87780000D02*
X115630400Y-87780000D01*
X120050000Y-89050000D02*
X121320000Y-87780000D01*
X116900400Y-89050000D02*
X120050000Y-89050000D01*
X115630400Y-87780000D02*
X116900400Y-89050000D01*
X113298100Y-111746214D02*
X113298100Y-107266557D01*
X117510000Y-103054657D02*
X117510000Y-103020000D01*
X107858000Y-116482000D02*
X107858000Y-115847000D01*
X113298100Y-107266557D02*
X117510000Y-103054657D01*
X106080000Y-118260000D02*
X107858000Y-116482000D01*
X107858000Y-115847000D02*
X109255000Y-114450000D01*
X109255000Y-114450000D02*
X110594314Y-114450000D01*
X110594314Y-114450000D02*
X113298100Y-111746214D01*
X106715000Y-87780000D02*
X106080000Y-87780000D01*
X109890000Y-85240000D02*
X109255000Y-85240000D01*
X109255000Y-85240000D02*
X106715000Y-87780000D01*
X114593300Y-111582386D02*
X114593300Y-108476700D01*
X111668000Y-114507686D02*
X114593300Y-111582386D01*
X106080000Y-120800000D02*
X107858000Y-119022000D01*
X110525000Y-116990000D02*
X111668000Y-115847000D01*
X107858000Y-119022000D02*
X107858000Y-118387000D01*
X114593300Y-108476700D02*
X117510000Y-105560000D01*
X111668000Y-115847000D02*
X111668000Y-114507686D01*
X109255000Y-116990000D02*
X110525000Y-116990000D01*
X107858000Y-118387000D02*
X109255000Y-116990000D01*
X103902000Y-83252400D02*
X103902000Y-108462000D01*
X106842000Y-81430000D02*
X105724400Y-81430000D01*
X103902000Y-108462000D02*
X106080000Y-110640000D01*
X105724400Y-81430000D02*
X103902000Y-83252400D01*
X109890000Y-77620000D02*
X107858000Y-79652000D01*
X107858000Y-79652000D02*
X107858000Y-80414000D01*
X107858000Y-80414000D02*
X106842000Y-81430000D01*
X106461000Y-105560000D02*
X109001000Y-103020000D01*
X109001000Y-103020000D02*
X109890000Y-103020000D01*
X106080000Y-105560000D02*
X106461000Y-105560000D01*
X109890000Y-100480000D02*
X108620000Y-101750000D01*
X104302000Y-102893000D02*
X104302000Y-106322000D01*
X108620000Y-101750000D02*
X105445000Y-101750000D01*
X105445000Y-101750000D02*
X104302000Y-102893000D01*
X104302000Y-106322000D02*
X106080000Y-108100000D01*
X112068000Y-114685000D02*
X112068000Y-116082000D01*
X118272000Y-109370000D02*
X116367000Y-109370000D01*
X116367000Y-109370000D02*
X114993300Y-110743700D01*
X119542000Y-108100000D02*
X118272000Y-109370000D01*
X114993300Y-110743700D02*
X114993300Y-111759700D01*
X114993300Y-111759700D02*
X112068000Y-114685000D01*
X121320000Y-108100000D02*
X119542000Y-108100000D01*
X112068000Y-116082000D02*
X109890000Y-118260000D01*
X121828000Y-91590000D02*
X122971000Y-92733000D01*
X117510000Y-90320000D02*
X118780000Y-91590000D01*
X122971000Y-92733000D02*
X122971000Y-96289000D01*
X122971000Y-96289000D02*
X121320000Y-97940000D01*
X118780000Y-91590000D02*
X121828000Y-91590000D01*
X111668000Y-119657000D02*
X111668000Y-121562000D01*
X112277600Y-111402000D02*
X112277600Y-106576000D01*
X111668000Y-121562000D02*
X109890000Y-123340000D01*
X110779000Y-119530000D02*
X109255000Y-119530000D01*
X107858000Y-120927000D02*
X107858000Y-121562000D01*
X109255000Y-119530000D02*
X107858000Y-120927000D01*
X107858000Y-121562000D02*
X106080000Y-123340000D01*
X115541500Y-114767500D02*
X110779000Y-119530000D01*
X115541500Y-114513500D02*
X115541500Y-114767500D01*
X104683000Y-81430000D02*
X103502000Y-82611000D01*
X103502000Y-82611000D02*
X103502000Y-108627686D01*
X103502000Y-108627686D02*
X104302000Y-109427686D01*
X104302000Y-124356000D02*
X105826000Y-125880000D01*
X105826000Y-125880000D02*
X109890000Y-125880000D01*
X104302000Y-109427686D02*
X104302000Y-124356000D01*
G04 #@! TA.AperFunction,Conductor*
G36*
X125133875Y-70075805D02*
G01*
X125309097Y-70089594D01*
X125324430Y-70092023D01*
X125491550Y-70132145D01*
X125506317Y-70136943D01*
X125665104Y-70202715D01*
X125678926Y-70209758D01*
X125825469Y-70299560D01*
X125838032Y-70308688D01*
X125968717Y-70420303D01*
X125979699Y-70431285D01*
X126091311Y-70561967D01*
X126100440Y-70574532D01*
X126190238Y-70721068D01*
X126197287Y-70734902D01*
X126263054Y-70893678D01*
X126267855Y-70908453D01*
X126307975Y-71075564D01*
X126310405Y-71090907D01*
X126318437Y-71192956D01*
X126323198Y-71253462D01*
X126324195Y-71266123D01*
X126324500Y-71273891D01*
X126324500Y-137306108D01*
X126324195Y-137313876D01*
X126310405Y-137489092D01*
X126307975Y-137504435D01*
X126267855Y-137671546D01*
X126263054Y-137686321D01*
X126197287Y-137845097D01*
X126190234Y-137858939D01*
X126100442Y-138005465D01*
X126091311Y-138018032D01*
X125979699Y-138148714D01*
X125968714Y-138159699D01*
X125838032Y-138271311D01*
X125825465Y-138280442D01*
X125678939Y-138370234D01*
X125665097Y-138377287D01*
X125506321Y-138443054D01*
X125491546Y-138447855D01*
X125324435Y-138487975D01*
X125309092Y-138490405D01*
X125149743Y-138502946D01*
X125133874Y-138504195D01*
X125126108Y-138504500D01*
X102273892Y-138504500D01*
X102266125Y-138504195D01*
X102247014Y-138502691D01*
X102090907Y-138490405D01*
X102075564Y-138487975D01*
X101908453Y-138447855D01*
X101893678Y-138443054D01*
X101734902Y-138377287D01*
X101721068Y-138370238D01*
X101574532Y-138280440D01*
X101561967Y-138271311D01*
X101462706Y-138186535D01*
X101431282Y-138159696D01*
X101420303Y-138148717D01*
X101308688Y-138018032D01*
X101299560Y-138005469D01*
X101209758Y-137858926D01*
X101202715Y-137845104D01*
X101136943Y-137686317D01*
X101132144Y-137671546D01*
X101092024Y-137504435D01*
X101089594Y-137489097D01*
X101075805Y-137313875D01*
X101075500Y-137306108D01*
X101075500Y-81553043D01*
X101415499Y-81553043D01*
X101415499Y-81553045D01*
X101415499Y-81719131D01*
X101415500Y-81719144D01*
X101415500Y-131255863D01*
X101415499Y-131255881D01*
X101415499Y-131261943D01*
X101415499Y-131420057D01*
X101456423Y-131572785D01*
X101461620Y-131581785D01*
X101461621Y-131581789D01*
X101535478Y-131709713D01*
X101535480Y-131709716D01*
X101647284Y-131821520D01*
X101647286Y-131821521D01*
X103694478Y-133868713D01*
X103694480Y-133868716D01*
X103806284Y-133980520D01*
X103806286Y-133980521D01*
X103806289Y-133980524D01*
X103806288Y-133980524D01*
X103893091Y-134030637D01*
X103893093Y-134030639D01*
X103893094Y-134030639D01*
X103915916Y-134043815D01*
X103943215Y-134059577D01*
X104095943Y-134100500D01*
X104254057Y-134100500D01*
X108852482Y-134100500D01*
X108910673Y-134119407D01*
X108931483Y-134139836D01*
X109036128Y-134278407D01*
X109036135Y-134278413D01*
X109193692Y-134422047D01*
X109193699Y-134422053D01*
X109297389Y-134486255D01*
X109374981Y-134534298D01*
X109573802Y-134611321D01*
X109783390Y-134650500D01*
X109996610Y-134650500D01*
X110206198Y-134611321D01*
X110405019Y-134534298D01*
X110586302Y-134422052D01*
X110743872Y-134278407D01*
X110872366Y-134108255D01*
X110967405Y-133917389D01*
X111025756Y-133712310D01*
X111045429Y-133500000D01*
X116354571Y-133500000D01*
X116374244Y-133712310D01*
X116418745Y-133868713D01*
X116432596Y-133917391D01*
X116523772Y-134100500D01*
X116527634Y-134108255D01*
X116656128Y-134278407D01*
X116656135Y-134278413D01*
X116813692Y-134422047D01*
X116813699Y-134422053D01*
X116917389Y-134486255D01*
X116994981Y-134534298D01*
X117193802Y-134611321D01*
X117403390Y-134650500D01*
X117616610Y-134650500D01*
X117826198Y-134611321D01*
X118025019Y-134534298D01*
X118206302Y-134422052D01*
X118363872Y-134278407D01*
X118492366Y-134108255D01*
X118587405Y-133917389D01*
X118645756Y-133712310D01*
X118665429Y-133500000D01*
X118645756Y-133287690D01*
X118587405Y-133082611D01*
X118492366Y-132891745D01*
X118363872Y-132721593D01*
X118309623Y-132672139D01*
X118206307Y-132577952D01*
X118206300Y-132577946D01*
X118025024Y-132465705D01*
X118025019Y-132465702D01*
X117826195Y-132388678D01*
X117616610Y-132349500D01*
X117403390Y-132349500D01*
X117193804Y-132388678D01*
X116994980Y-132465702D01*
X116994975Y-132465705D01*
X116813699Y-132577946D01*
X116813692Y-132577952D01*
X116656135Y-132721586D01*
X116656131Y-132721589D01*
X116656128Y-132721593D01*
X116656125Y-132721597D01*
X116527635Y-132891743D01*
X116527630Y-132891752D01*
X116432596Y-133082608D01*
X116374244Y-133287688D01*
X116374244Y-133287690D01*
X116354571Y-133500000D01*
X111045429Y-133500000D01*
X111025756Y-133287690D01*
X110967405Y-133082611D01*
X110872366Y-132891745D01*
X110743872Y-132721593D01*
X110689623Y-132672139D01*
X110586307Y-132577952D01*
X110586300Y-132577946D01*
X110405024Y-132465705D01*
X110405019Y-132465702D01*
X110206195Y-132388678D01*
X109996610Y-132349500D01*
X109783390Y-132349500D01*
X109573804Y-132388678D01*
X109374980Y-132465702D01*
X109374975Y-132465705D01*
X109193699Y-132577946D01*
X109193692Y-132577952D01*
X109036135Y-132721586D01*
X109036131Y-132721589D01*
X109036128Y-132721593D01*
X108931484Y-132860161D01*
X108881329Y-132895204D01*
X108852482Y-132899500D01*
X104464743Y-132899500D01*
X104406552Y-132880593D01*
X104394739Y-132870504D01*
X102645496Y-131121261D01*
X102617719Y-131066744D01*
X102616500Y-131051257D01*
X102616500Y-128420000D01*
X108734571Y-128420000D01*
X108754244Y-128632310D01*
X108812595Y-128837389D01*
X108907634Y-129028255D01*
X109036128Y-129198407D01*
X109036135Y-129198413D01*
X109193692Y-129342047D01*
X109193699Y-129342053D01*
X109297389Y-129406255D01*
X109374981Y-129454298D01*
X109573802Y-129531321D01*
X109783390Y-129570500D01*
X109996610Y-129570500D01*
X110206198Y-129531321D01*
X110405019Y-129454298D01*
X110586302Y-129342052D01*
X110743872Y-129198407D01*
X110872366Y-129028255D01*
X110967405Y-128837389D01*
X111025756Y-128632310D01*
X111045429Y-128420000D01*
X111025756Y-128207690D01*
X110967405Y-128002611D01*
X110872366Y-127811745D01*
X110743872Y-127641593D01*
X110689623Y-127592139D01*
X110586307Y-127497952D01*
X110586300Y-127497946D01*
X110405024Y-127385705D01*
X110405019Y-127385702D01*
X110206195Y-127308678D01*
X109996610Y-127269500D01*
X109783390Y-127269500D01*
X109573804Y-127308678D01*
X109374980Y-127385702D01*
X109374975Y-127385705D01*
X109193699Y-127497946D01*
X109193692Y-127497952D01*
X109036135Y-127641586D01*
X109036131Y-127641589D01*
X109036128Y-127641593D01*
X109036125Y-127641597D01*
X108907635Y-127811743D01*
X108907630Y-127811752D01*
X108812596Y-128002608D01*
X108754244Y-128207688D01*
X108754244Y-128207690D01*
X108734571Y-128420000D01*
X102616500Y-128420000D01*
X102616500Y-81921843D01*
X102635407Y-81863652D01*
X102645496Y-81851839D01*
X103471439Y-81025896D01*
X103525956Y-80998119D01*
X103541443Y-80996900D01*
X103768816Y-80996900D01*
X103768818Y-80996900D01*
X103855277Y-80986517D01*
X103992858Y-80932262D01*
X104110700Y-80842900D01*
X104143474Y-80799680D01*
X104193701Y-80764738D01*
X104222358Y-80760500D01*
X104277435Y-80760500D01*
X104335626Y-80779407D01*
X104371590Y-80828907D01*
X104371590Y-80890093D01*
X104337702Y-80938042D01*
X104254723Y-81001713D01*
X104254719Y-81001716D01*
X104254718Y-81001718D01*
X104254716Y-81001721D01*
X104158462Y-81127160D01*
X104158462Y-81127161D01*
X104097957Y-81273233D01*
X104097955Y-81273241D01*
X104076471Y-81436433D01*
X104074742Y-81436205D01*
X104058411Y-81486471D01*
X104048322Y-81498283D01*
X103181520Y-82365086D01*
X103181516Y-82365091D01*
X103128793Y-82456411D01*
X103128792Y-82456411D01*
X103128793Y-82456412D01*
X103128793Y-82456413D01*
X103101500Y-82558273D01*
X103101500Y-108574959D01*
X103101500Y-108680413D01*
X103125570Y-108770245D01*
X103128794Y-108782278D01*
X103181516Y-108873594D01*
X103181518Y-108873596D01*
X103181520Y-108873599D01*
X103872505Y-109564584D01*
X103900281Y-109619099D01*
X103901500Y-109634586D01*
X103901500Y-124303273D01*
X103901500Y-124408727D01*
X103912913Y-124451321D01*
X103928794Y-124510592D01*
X103981516Y-124601908D01*
X103981517Y-124601909D01*
X103981518Y-124601910D01*
X103981520Y-124601913D01*
X104804235Y-125424628D01*
X105505519Y-126125912D01*
X105505520Y-126125913D01*
X105505519Y-126125913D01*
X105580087Y-126200480D01*
X105671413Y-126253207D01*
X105773273Y-126280500D01*
X108742887Y-126280500D01*
X108801078Y-126299407D01*
X108831508Y-126335372D01*
X108907634Y-126488255D01*
X109036128Y-126658407D01*
X109036135Y-126658413D01*
X109193692Y-126802047D01*
X109193699Y-126802053D01*
X109297389Y-126866255D01*
X109374981Y-126914298D01*
X109573802Y-126991321D01*
X109783390Y-127030500D01*
X109996610Y-127030500D01*
X110206198Y-126991321D01*
X110405019Y-126914298D01*
X110586302Y-126802052D01*
X110743872Y-126658407D01*
X110872366Y-126488255D01*
X110967405Y-126297389D01*
X111025756Y-126092310D01*
X111045429Y-125880000D01*
X111025756Y-125667690D01*
X110967405Y-125462611D01*
X110872366Y-125271745D01*
X110743872Y-125101593D01*
X110689623Y-125052139D01*
X110586307Y-124957952D01*
X110586300Y-124957946D01*
X110405024Y-124845705D01*
X110405019Y-124845702D01*
X110206195Y-124768678D01*
X109996610Y-124729500D01*
X109783390Y-124729500D01*
X109573804Y-124768678D01*
X109374980Y-124845702D01*
X109374975Y-124845705D01*
X109193699Y-124957946D01*
X109193692Y-124957952D01*
X109036135Y-125101586D01*
X109036131Y-125101589D01*
X109036128Y-125101593D01*
X109036125Y-125101597D01*
X108907635Y-125271743D01*
X108907630Y-125271752D01*
X108831508Y-125424628D01*
X108788646Y-125468290D01*
X108742887Y-125479500D01*
X106032901Y-125479500D01*
X105974710Y-125460593D01*
X105962897Y-125450504D01*
X104731496Y-124219103D01*
X104703719Y-124164586D01*
X104702500Y-124149099D01*
X104702500Y-113180000D01*
X104974785Y-113180000D01*
X104993603Y-113383083D01*
X105049418Y-113579250D01*
X105140327Y-113761821D01*
X105263236Y-113924579D01*
X105413959Y-114061981D01*
X105587363Y-114169348D01*
X105777544Y-114243024D01*
X105978024Y-114280500D01*
X106181976Y-114280500D01*
X106382456Y-114243024D01*
X106572637Y-114169348D01*
X106746041Y-114061981D01*
X106896764Y-113924579D01*
X107019673Y-113761821D01*
X107110582Y-113579250D01*
X107166397Y-113383083D01*
X107185215Y-113180000D01*
X107166397Y-112976917D01*
X107110582Y-112780750D01*
X107019673Y-112598179D01*
X106896764Y-112435421D01*
X106746041Y-112298019D01*
X106572637Y-112190652D01*
X106382456Y-112116976D01*
X106382455Y-112116975D01*
X106382453Y-112116975D01*
X106181976Y-112079500D01*
X105978024Y-112079500D01*
X105777546Y-112116975D01*
X105707632Y-112144059D01*
X105587363Y-112190652D01*
X105478676Y-112257948D01*
X105413959Y-112298019D01*
X105263237Y-112435420D01*
X105140328Y-112598177D01*
X105140323Y-112598186D01*
X105058450Y-112762611D01*
X105049418Y-112780750D01*
X104993603Y-112976917D01*
X104974785Y-113180000D01*
X104702500Y-113180000D01*
X104702500Y-110067901D01*
X104721407Y-110009710D01*
X104770907Y-109973746D01*
X104832093Y-109973746D01*
X104871504Y-109997897D01*
X105022663Y-110149056D01*
X105050440Y-110203573D01*
X105047880Y-110246152D01*
X104993603Y-110436915D01*
X104993603Y-110436917D01*
X104974785Y-110640000D01*
X104993603Y-110843083D01*
X105049418Y-111039250D01*
X105140327Y-111221821D01*
X105263236Y-111384579D01*
X105413959Y-111521981D01*
X105587363Y-111629348D01*
X105777544Y-111703024D01*
X105978024Y-111740500D01*
X106181976Y-111740500D01*
X106382456Y-111703024D01*
X106572637Y-111629348D01*
X106746041Y-111521981D01*
X106896764Y-111384579D01*
X107019673Y-111221821D01*
X107110582Y-111039250D01*
X107166397Y-110843083D01*
X107185215Y-110640000D01*
X107166397Y-110436917D01*
X107110582Y-110240750D01*
X107019673Y-110058179D01*
X106896764Y-109895421D01*
X106746041Y-109758019D01*
X106572637Y-109650652D01*
X106382456Y-109576976D01*
X106382455Y-109576975D01*
X106382453Y-109576975D01*
X106181976Y-109539500D01*
X105978024Y-109539500D01*
X105777552Y-109576974D01*
X105777546Y-109576975D01*
X105777544Y-109576976D01*
X105711296Y-109602639D01*
X105697738Y-109607892D01*
X105636647Y-109611281D01*
X105591973Y-109585580D01*
X104331496Y-108325103D01*
X104303719Y-108270586D01*
X104302500Y-108255099D01*
X104302500Y-107127900D01*
X104321407Y-107069709D01*
X104370907Y-107033745D01*
X104432093Y-107033745D01*
X104471503Y-107057895D01*
X104751857Y-107338250D01*
X105022663Y-107609056D01*
X105050440Y-107663573D01*
X105047880Y-107706152D01*
X104993603Y-107896915D01*
X104974785Y-108099999D01*
X104974785Y-108100000D01*
X104993603Y-108303083D01*
X105049418Y-108499250D01*
X105140327Y-108681821D01*
X105263236Y-108844579D01*
X105413959Y-108981981D01*
X105587363Y-109089348D01*
X105777544Y-109163024D01*
X105978024Y-109200500D01*
X106181976Y-109200500D01*
X106382456Y-109163024D01*
X106572637Y-109089348D01*
X106746041Y-108981981D01*
X106896764Y-108844579D01*
X107019673Y-108681821D01*
X107110582Y-108499250D01*
X107166397Y-108303083D01*
X107185215Y-108100000D01*
X108734571Y-108100000D01*
X108749969Y-108266180D01*
X108754244Y-108312310D01*
X108812595Y-108517389D01*
X108907634Y-108708255D01*
X109036128Y-108878407D01*
X109036135Y-108878413D01*
X109193692Y-109022047D01*
X109193699Y-109022053D01*
X109238060Y-109049520D01*
X109374981Y-109134298D01*
X109573802Y-109211321D01*
X109783390Y-109250500D01*
X109996610Y-109250500D01*
X110206198Y-109211321D01*
X110405019Y-109134298D01*
X110586302Y-109022052D01*
X110743872Y-108878407D01*
X110872366Y-108708255D01*
X110967405Y-108517389D01*
X111025756Y-108312310D01*
X111045429Y-108100000D01*
X111025756Y-107887690D01*
X110967405Y-107682611D01*
X110872366Y-107491745D01*
X110743872Y-107321593D01*
X110689623Y-107272139D01*
X110586307Y-107177952D01*
X110586300Y-107177946D01*
X110405024Y-107065705D01*
X110405019Y-107065702D01*
X110288720Y-107020648D01*
X110206198Y-106988679D01*
X110206197Y-106988678D01*
X110206195Y-106988678D01*
X109996610Y-106949500D01*
X109783390Y-106949500D01*
X109573804Y-106988678D01*
X109374980Y-107065702D01*
X109374975Y-107065705D01*
X109193699Y-107177946D01*
X109193692Y-107177952D01*
X109036135Y-107321586D01*
X109036131Y-107321589D01*
X109036128Y-107321593D01*
X109036125Y-107321597D01*
X108907635Y-107491743D01*
X108907630Y-107491752D01*
X108812596Y-107682608D01*
X108754244Y-107887688D01*
X108734571Y-108100000D01*
X107185215Y-108100000D01*
X107166397Y-107896917D01*
X107110582Y-107700750D01*
X107019673Y-107518179D01*
X106896764Y-107355421D01*
X106746041Y-107218019D01*
X106572637Y-107110652D01*
X106382456Y-107036976D01*
X106382455Y-107036975D01*
X106382453Y-107036975D01*
X106181976Y-106999500D01*
X105978024Y-106999500D01*
X105777544Y-107036975D01*
X105697739Y-107067892D01*
X105636648Y-107071282D01*
X105591973Y-107045581D01*
X105169416Y-106623024D01*
X104731496Y-106185103D01*
X104703719Y-106130586D01*
X104702500Y-106115099D01*
X104702500Y-105560000D01*
X104974785Y-105560000D01*
X104993603Y-105763083D01*
X105049418Y-105959250D01*
X105140327Y-106141821D01*
X105263236Y-106304579D01*
X105413959Y-106441981D01*
X105587363Y-106549348D01*
X105777544Y-106623024D01*
X105978024Y-106660500D01*
X106181976Y-106660500D01*
X106382456Y-106623024D01*
X106572637Y-106549348D01*
X106746041Y-106441981D01*
X106896764Y-106304579D01*
X107019673Y-106141821D01*
X107110582Y-105959250D01*
X107166397Y-105763083D01*
X107185215Y-105560000D01*
X108734571Y-105560000D01*
X108754244Y-105772310D01*
X108807434Y-105959252D01*
X108812596Y-105977391D01*
X108842264Y-106036974D01*
X108907634Y-106168255D01*
X109036128Y-106338407D01*
X109036135Y-106338413D01*
X109193692Y-106482047D01*
X109193699Y-106482053D01*
X109297389Y-106546255D01*
X109374981Y-106594298D01*
X109573802Y-106671321D01*
X109783390Y-106710500D01*
X109996610Y-106710500D01*
X110206198Y-106671321D01*
X110405019Y-106594298D01*
X110586302Y-106482052D01*
X110743872Y-106338407D01*
X110872366Y-106168255D01*
X110967405Y-105977389D01*
X111025756Y-105772310D01*
X111045429Y-105560000D01*
X111025756Y-105347690D01*
X110967405Y-105142611D01*
X110872366Y-104951745D01*
X110743872Y-104781593D01*
X110646237Y-104692586D01*
X110586307Y-104637952D01*
X110586300Y-104637946D01*
X110405024Y-104525705D01*
X110405019Y-104525702D01*
X110206195Y-104448678D01*
X109996610Y-104409500D01*
X109783390Y-104409500D01*
X109573804Y-104448678D01*
X109374980Y-104525702D01*
X109374975Y-104525705D01*
X109193699Y-104637946D01*
X109193692Y-104637952D01*
X109036135Y-104781586D01*
X109036131Y-104781589D01*
X109036128Y-104781593D01*
X109036125Y-104781597D01*
X108907635Y-104951743D01*
X108907630Y-104951752D01*
X108812596Y-105142608D01*
X108754244Y-105347688D01*
X108747955Y-105415561D01*
X108734571Y-105560000D01*
X107185215Y-105560000D01*
X107176118Y-105461834D01*
X107189576Y-105402151D01*
X107204688Y-105382703D01*
X108849349Y-103738042D01*
X108903864Y-103710267D01*
X108964296Y-103719838D01*
X108998352Y-103748384D01*
X109036128Y-103798407D01*
X109036135Y-103798413D01*
X109193692Y-103942047D01*
X109193699Y-103942053D01*
X109238055Y-103969517D01*
X109374981Y-104054298D01*
X109573802Y-104131321D01*
X109783390Y-104170500D01*
X109996610Y-104170500D01*
X110206198Y-104131321D01*
X110405019Y-104054298D01*
X110586302Y-103942052D01*
X110743872Y-103798407D01*
X110872366Y-103628255D01*
X110967405Y-103437389D01*
X111025756Y-103232310D01*
X111045429Y-103020000D01*
X111025756Y-102807690D01*
X110967405Y-102602611D01*
X110872366Y-102411745D01*
X110743872Y-102241593D01*
X110681661Y-102184880D01*
X110586307Y-102097952D01*
X110586300Y-102097946D01*
X110405024Y-101985705D01*
X110405019Y-101985702D01*
X110206195Y-101908678D01*
X109996610Y-101869500D01*
X109783390Y-101869500D01*
X109573804Y-101908678D01*
X109374980Y-101985702D01*
X109374975Y-101985705D01*
X109193699Y-102097946D01*
X109193692Y-102097952D01*
X109036135Y-102241586D01*
X109036131Y-102241589D01*
X109036128Y-102241593D01*
X109036125Y-102241597D01*
X108907635Y-102411743D01*
X108907630Y-102411752D01*
X108812595Y-102602609D01*
X108812592Y-102602618D01*
X108801883Y-102640255D01*
X108767772Y-102691050D01*
X108756173Y-102698892D01*
X108755092Y-102699516D01*
X108755090Y-102699517D01*
X106820355Y-104634251D01*
X106765838Y-104662028D01*
X106705406Y-104652457D01*
X106698247Y-104648426D01*
X106572637Y-104570652D01*
X106382456Y-104496976D01*
X106382455Y-104496975D01*
X106382453Y-104496975D01*
X106181976Y-104459500D01*
X105978024Y-104459500D01*
X105777546Y-104496975D01*
X105755334Y-104505580D01*
X105587363Y-104570652D01*
X105413959Y-104678019D01*
X105263237Y-104815420D01*
X105140328Y-104978177D01*
X105140323Y-104978186D01*
X105058450Y-105142611D01*
X105049418Y-105160750D01*
X104993603Y-105356917D01*
X104974785Y-105560000D01*
X104702500Y-105560000D01*
X104702500Y-103099899D01*
X104721407Y-103041708D01*
X104731490Y-103029902D01*
X104805871Y-102955521D01*
X104860384Y-102927745D01*
X104920816Y-102937316D01*
X104964081Y-102980580D01*
X104974450Y-103016391D01*
X104990981Y-103194786D01*
X104993603Y-103223083D01*
X105049418Y-103419250D01*
X105140327Y-103601821D01*
X105263236Y-103764579D01*
X105413959Y-103901981D01*
X105587363Y-104009348D01*
X105777544Y-104083024D01*
X105978024Y-104120500D01*
X106181976Y-104120500D01*
X106382456Y-104083024D01*
X106572637Y-104009348D01*
X106746041Y-103901981D01*
X106896764Y-103764579D01*
X107019673Y-103601821D01*
X107110582Y-103419250D01*
X107166397Y-103223083D01*
X107185215Y-103020000D01*
X107166397Y-102816917D01*
X107110582Y-102620750D01*
X107019673Y-102438179D01*
X106922240Y-102309157D01*
X106902263Y-102251330D01*
X106920092Y-102192799D01*
X106968918Y-102155927D01*
X107001246Y-102150500D01*
X108672725Y-102150500D01*
X108672727Y-102150500D01*
X108774588Y-102123207D01*
X108774590Y-102123205D01*
X108774592Y-102123205D01*
X108865908Y-102070483D01*
X108865908Y-102070482D01*
X108865913Y-102070480D01*
X109363326Y-101573065D01*
X109417841Y-101545290D01*
X109469090Y-101550756D01*
X109573802Y-101591321D01*
X109783390Y-101630500D01*
X109996610Y-101630500D01*
X110206198Y-101591321D01*
X110405019Y-101514298D01*
X110586302Y-101402052D01*
X110743872Y-101258407D01*
X110872366Y-101088255D01*
X110967405Y-100897389D01*
X111025756Y-100692310D01*
X111045429Y-100480000D01*
X111025756Y-100267690D01*
X110967405Y-100062611D01*
X110872366Y-99871745D01*
X110743872Y-99701593D01*
X110689623Y-99652139D01*
X110586307Y-99557952D01*
X110586300Y-99557946D01*
X110405024Y-99445705D01*
X110405019Y-99445702D01*
X110206195Y-99368678D01*
X109996610Y-99329500D01*
X109783390Y-99329500D01*
X109573804Y-99368678D01*
X109374980Y-99445702D01*
X109374975Y-99445705D01*
X109193699Y-99557946D01*
X109193692Y-99557952D01*
X109036135Y-99701586D01*
X109036131Y-99701589D01*
X109036128Y-99701593D01*
X109036125Y-99701597D01*
X108907635Y-99871743D01*
X108907630Y-99871752D01*
X108812596Y-100062608D01*
X108754244Y-100267688D01*
X108734571Y-100480000D01*
X108754244Y-100692311D01*
X108812598Y-100897401D01*
X108814249Y-100901661D01*
X108812873Y-100902193D01*
X108820975Y-100956662D01*
X108793348Y-101010257D01*
X108483104Y-101320503D01*
X108428587Y-101348281D01*
X108413100Y-101349500D01*
X107001246Y-101349500D01*
X106943055Y-101330593D01*
X106907091Y-101281093D01*
X106907091Y-101219907D01*
X106922239Y-101190844D01*
X107019673Y-101061821D01*
X107110582Y-100879250D01*
X107166397Y-100683083D01*
X107185215Y-100480000D01*
X107166397Y-100276917D01*
X107110582Y-100080750D01*
X107019673Y-99898179D01*
X106896764Y-99735421D01*
X106746041Y-99598019D01*
X106572637Y-99490652D01*
X106382456Y-99416976D01*
X106382455Y-99416975D01*
X106382453Y-99416975D01*
X106181976Y-99379500D01*
X105978024Y-99379500D01*
X105777544Y-99416975D01*
X105697739Y-99447892D01*
X105636648Y-99451282D01*
X105591973Y-99425581D01*
X105169416Y-99003024D01*
X104731496Y-98565103D01*
X104703719Y-98510586D01*
X104702500Y-98495099D01*
X104702500Y-95400000D01*
X104974785Y-95400000D01*
X104993603Y-95603083D01*
X105049418Y-95799250D01*
X105140327Y-95981821D01*
X105263236Y-96144579D01*
X105413959Y-96281981D01*
X105587363Y-96389348D01*
X105777544Y-96463024D01*
X105978024Y-96500500D01*
X106181976Y-96500500D01*
X106382456Y-96463024D01*
X106572637Y-96389348D01*
X106746041Y-96281981D01*
X106896764Y-96144579D01*
X107019673Y-95981821D01*
X107110582Y-95799250D01*
X107166397Y-95603083D01*
X107185215Y-95400000D01*
X107166397Y-95196917D01*
X107110582Y-95000750D01*
X107019673Y-94818179D01*
X106896764Y-94655421D01*
X106746041Y-94518019D01*
X106572637Y-94410652D01*
X106382456Y-94336976D01*
X106382455Y-94336975D01*
X106382453Y-94336975D01*
X106181976Y-94299500D01*
X105978024Y-94299500D01*
X105777546Y-94336975D01*
X105755334Y-94345580D01*
X105587363Y-94410652D01*
X105437881Y-94503207D01*
X105413959Y-94518019D01*
X105263237Y-94655420D01*
X105140328Y-94818177D01*
X105140323Y-94818186D01*
X105054067Y-94991413D01*
X105049418Y-95000750D01*
X104993603Y-95196917D01*
X104974785Y-95400000D01*
X104702500Y-95400000D01*
X104702500Y-92860000D01*
X104974785Y-92860000D01*
X104993603Y-93063083D01*
X105049418Y-93259250D01*
X105140327Y-93441821D01*
X105263236Y-93604579D01*
X105413959Y-93741981D01*
X105587363Y-93849348D01*
X105777544Y-93923024D01*
X105978024Y-93960500D01*
X106181976Y-93960500D01*
X106382456Y-93923024D01*
X106572637Y-93849348D01*
X106746041Y-93741981D01*
X106896764Y-93604579D01*
X107019673Y-93441821D01*
X107110582Y-93259250D01*
X107166397Y-93063083D01*
X107185215Y-92860000D01*
X107166397Y-92656917D01*
X107110582Y-92460750D01*
X107019673Y-92278179D01*
X106896764Y-92115421D01*
X106746041Y-91978019D01*
X106572637Y-91870652D01*
X106382456Y-91796976D01*
X106382455Y-91796975D01*
X106382453Y-91796975D01*
X106181976Y-91759500D01*
X105978024Y-91759500D01*
X105777546Y-91796975D01*
X105707632Y-91824059D01*
X105587363Y-91870652D01*
X105437881Y-91963207D01*
X105413959Y-91978019D01*
X105263237Y-92115420D01*
X105140328Y-92278177D01*
X105140323Y-92278186D01*
X105058450Y-92442611D01*
X105049418Y-92460750D01*
X104993603Y-92656917D01*
X104974785Y-92860000D01*
X104702500Y-92860000D01*
X104702500Y-90320000D01*
X104974785Y-90320000D01*
X104993603Y-90523083D01*
X105049418Y-90719250D01*
X105140327Y-90901821D01*
X105263236Y-91064579D01*
X105413959Y-91201981D01*
X105587363Y-91309348D01*
X105777544Y-91383024D01*
X105978024Y-91420500D01*
X106181976Y-91420500D01*
X106382456Y-91383024D01*
X106572637Y-91309348D01*
X106746041Y-91201981D01*
X106896764Y-91064579D01*
X107019673Y-90901821D01*
X107110582Y-90719250D01*
X107166397Y-90523083D01*
X107185215Y-90320000D01*
X107166397Y-90116917D01*
X107110582Y-89920750D01*
X107019673Y-89738179D01*
X106896764Y-89575421D01*
X106746041Y-89438019D01*
X106572637Y-89330652D01*
X106382456Y-89256976D01*
X106382455Y-89256975D01*
X106382453Y-89256975D01*
X106181976Y-89219500D01*
X105978024Y-89219500D01*
X105777546Y-89256975D01*
X105707632Y-89284059D01*
X105587363Y-89330652D01*
X105437881Y-89423207D01*
X105413959Y-89438019D01*
X105263237Y-89575420D01*
X105140328Y-89738177D01*
X105140323Y-89738186D01*
X105058450Y-89902611D01*
X105049418Y-89920750D01*
X104993603Y-90116917D01*
X104974785Y-90320000D01*
X104702500Y-90320000D01*
X104702500Y-85424999D01*
X104721407Y-85366808D01*
X104731484Y-85355008D01*
X104814785Y-85271707D01*
X104869299Y-85243932D01*
X104929731Y-85253503D01*
X104972996Y-85296768D01*
X104983363Y-85332575D01*
X104993603Y-85443083D01*
X105049418Y-85639250D01*
X105140327Y-85821821D01*
X105263236Y-85984579D01*
X105413959Y-86121981D01*
X105587363Y-86229348D01*
X105777544Y-86303024D01*
X105978024Y-86340500D01*
X106181976Y-86340500D01*
X106382456Y-86303024D01*
X106572637Y-86229348D01*
X106746041Y-86121981D01*
X106896764Y-85984579D01*
X107019673Y-85821821D01*
X107110582Y-85639250D01*
X107166397Y-85443083D01*
X107185215Y-85240000D01*
X107166397Y-85036917D01*
X107112118Y-84846148D01*
X107114379Y-84785010D01*
X107137333Y-84749058D01*
X107153456Y-84732935D01*
X107173955Y-84717207D01*
X107220249Y-84690480D01*
X107428526Y-84482203D01*
X107511234Y-84399496D01*
X107565750Y-84371719D01*
X107581237Y-84370500D01*
X108906099Y-84370500D01*
X108964290Y-84389407D01*
X109000254Y-84438907D01*
X109000254Y-84500093D01*
X108985104Y-84529159D01*
X108961183Y-84560835D01*
X108907635Y-84631743D01*
X108907630Y-84631752D01*
X108812596Y-84822608D01*
X108754244Y-85027688D01*
X108742563Y-85153747D01*
X108718366Y-85209945D01*
X108713989Y-85214616D01*
X106961733Y-86966872D01*
X106907216Y-86994649D01*
X106846784Y-86985078D01*
X106825035Y-86970031D01*
X106746041Y-86898019D01*
X106572637Y-86790652D01*
X106382456Y-86716976D01*
X106382455Y-86716975D01*
X106382453Y-86716975D01*
X106181976Y-86679500D01*
X105978024Y-86679500D01*
X105777546Y-86716975D01*
X105707632Y-86744059D01*
X105587363Y-86790652D01*
X105437881Y-86883207D01*
X105413959Y-86898019D01*
X105263237Y-87035420D01*
X105140328Y-87198177D01*
X105140323Y-87198186D01*
X105058450Y-87362611D01*
X105049418Y-87380750D01*
X104993603Y-87576917D01*
X104974785Y-87780000D01*
X104993603Y-87983083D01*
X105049418Y-88179250D01*
X105140327Y-88361821D01*
X105263236Y-88524579D01*
X105413959Y-88661981D01*
X105587363Y-88769348D01*
X105777544Y-88843024D01*
X105978024Y-88880500D01*
X106181976Y-88880500D01*
X106382456Y-88843024D01*
X106572637Y-88769348D01*
X106746041Y-88661981D01*
X106896764Y-88524579D01*
X107019673Y-88361821D01*
X107110582Y-88179250D01*
X107166397Y-87983083D01*
X107172094Y-87921591D01*
X107196288Y-87865397D01*
X107200652Y-87860739D01*
X107366714Y-87694677D01*
X107421229Y-87666902D01*
X107481661Y-87676473D01*
X107524926Y-87719738D01*
X107534497Y-87780170D01*
X107522453Y-87814183D01*
X107484793Y-87879412D01*
X107457500Y-87981273D01*
X107457500Y-95955099D01*
X107438593Y-96013290D01*
X107428504Y-96025103D01*
X106568026Y-96885580D01*
X106513509Y-96913357D01*
X106462260Y-96907891D01*
X106382456Y-96876976D01*
X106181976Y-96839500D01*
X105978024Y-96839500D01*
X105777546Y-96876975D01*
X105755334Y-96885580D01*
X105587363Y-96950652D01*
X105478676Y-97017948D01*
X105413959Y-97058019D01*
X105263237Y-97195420D01*
X105140328Y-97358177D01*
X105140323Y-97358186D01*
X105058450Y-97522611D01*
X105049418Y-97540750D01*
X104993603Y-97736917D01*
X104974785Y-97940000D01*
X104993603Y-98143083D01*
X105049418Y-98339250D01*
X105140327Y-98521821D01*
X105263236Y-98684579D01*
X105413959Y-98821981D01*
X105587363Y-98929348D01*
X105777544Y-99003024D01*
X105978024Y-99040500D01*
X106181976Y-99040500D01*
X106382456Y-99003024D01*
X106572637Y-98929348D01*
X106746041Y-98821981D01*
X106896764Y-98684579D01*
X107019673Y-98521821D01*
X107110582Y-98339250D01*
X107166397Y-98143083D01*
X107185215Y-97940000D01*
X108734571Y-97940000D01*
X108754244Y-98152310D01*
X108812595Y-98357389D01*
X108907634Y-98548255D01*
X109036128Y-98718407D01*
X109086784Y-98764586D01*
X109193692Y-98862047D01*
X109193699Y-98862053D01*
X109297389Y-98926255D01*
X109374981Y-98974298D01*
X109573802Y-99051321D01*
X109783390Y-99090500D01*
X109996610Y-99090500D01*
X110206198Y-99051321D01*
X110405019Y-98974298D01*
X110586302Y-98862052D01*
X110743872Y-98718407D01*
X110872366Y-98548255D01*
X110967405Y-98357389D01*
X111025756Y-98152310D01*
X111045429Y-97940000D01*
X116354571Y-97940000D01*
X116374244Y-98152310D01*
X116432595Y-98357389D01*
X116527634Y-98548255D01*
X116656128Y-98718407D01*
X116706784Y-98764586D01*
X116813692Y-98862047D01*
X116813699Y-98862053D01*
X116917389Y-98926255D01*
X116994981Y-98974298D01*
X117193802Y-99051321D01*
X117403390Y-99090500D01*
X117616610Y-99090500D01*
X117826198Y-99051321D01*
X118025019Y-98974298D01*
X118206302Y-98862052D01*
X118363872Y-98718407D01*
X118492366Y-98548255D01*
X118587405Y-98357389D01*
X118645756Y-98152310D01*
X118665429Y-97940000D01*
X118645756Y-97727690D01*
X118587405Y-97522611D01*
X118492366Y-97331745D01*
X118363872Y-97161593D01*
X118294417Y-97098276D01*
X118206307Y-97017952D01*
X118206300Y-97017946D01*
X118025024Y-96905705D01*
X118025019Y-96905702D01*
X117826195Y-96828678D01*
X117616610Y-96789500D01*
X117403390Y-96789500D01*
X117193804Y-96828678D01*
X116994980Y-96905702D01*
X116994975Y-96905705D01*
X116813699Y-97017946D01*
X116813692Y-97017952D01*
X116656135Y-97161586D01*
X116656131Y-97161589D01*
X116656128Y-97161593D01*
X116656125Y-97161597D01*
X116527635Y-97331743D01*
X116527630Y-97331752D01*
X116432596Y-97522608D01*
X116374244Y-97727688D01*
X116374244Y-97727690D01*
X116354571Y-97940000D01*
X111045429Y-97940000D01*
X111025756Y-97727690D01*
X110967405Y-97522611D01*
X110872366Y-97331745D01*
X110743872Y-97161593D01*
X110674417Y-97098276D01*
X110586307Y-97017952D01*
X110586300Y-97017946D01*
X110405024Y-96905705D01*
X110405019Y-96905702D01*
X110206195Y-96828678D01*
X109996610Y-96789500D01*
X109783390Y-96789500D01*
X109573804Y-96828678D01*
X109374980Y-96905702D01*
X109374975Y-96905705D01*
X109193699Y-97017946D01*
X109193692Y-97017952D01*
X109036135Y-97161586D01*
X109036131Y-97161589D01*
X109036128Y-97161593D01*
X109036125Y-97161597D01*
X108907635Y-97331743D01*
X108907630Y-97331752D01*
X108812596Y-97522608D01*
X108754244Y-97727688D01*
X108754244Y-97727690D01*
X108734571Y-97940000D01*
X107185215Y-97940000D01*
X107166397Y-97736917D01*
X107112118Y-97546148D01*
X107114379Y-97485010D01*
X107137333Y-97449058D01*
X108103910Y-96482481D01*
X108103913Y-96482480D01*
X108178480Y-96407913D01*
X108231207Y-96316587D01*
X108240480Y-96281981D01*
X108258501Y-96214727D01*
X108258501Y-96109273D01*
X108258501Y-96103211D01*
X108258500Y-96103193D01*
X108258500Y-95400000D01*
X108734571Y-95400000D01*
X108754244Y-95612310D01*
X108812595Y-95817389D01*
X108907634Y-96008255D01*
X109036128Y-96178407D01*
X109036135Y-96178413D01*
X109193692Y-96322047D01*
X109193699Y-96322053D01*
X109266548Y-96367159D01*
X109374981Y-96434298D01*
X109573802Y-96511321D01*
X109783390Y-96550500D01*
X109996610Y-96550500D01*
X110206198Y-96511321D01*
X110405019Y-96434298D01*
X110586302Y-96322052D01*
X110743872Y-96178407D01*
X110872366Y-96008255D01*
X110948492Y-95855372D01*
X110991354Y-95811710D01*
X111037113Y-95800500D01*
X114255099Y-95800500D01*
X114313290Y-95819407D01*
X114325103Y-95829496D01*
X115097322Y-96601715D01*
X115125099Y-96656232D01*
X115125981Y-96667445D01*
X115146955Y-96826758D01*
X115146957Y-96826766D01*
X115207462Y-96972838D01*
X115207462Y-96972839D01*
X115272823Y-97058019D01*
X115303718Y-97098282D01*
X115429159Y-97194536D01*
X115429160Y-97194536D01*
X115429161Y-97194537D01*
X115575233Y-97255042D01*
X115575238Y-97255044D01*
X115692809Y-97270522D01*
X115731999Y-97275682D01*
X115732000Y-97275682D01*
X115732001Y-97275682D01*
X115763352Y-97271554D01*
X115888762Y-97255044D01*
X116034841Y-97194536D01*
X116160282Y-97098282D01*
X116256536Y-96972841D01*
X116317044Y-96826762D01*
X116337682Y-96670000D01*
X116335869Y-96656232D01*
X116328692Y-96601715D01*
X116317044Y-96513238D01*
X116256537Y-96367161D01*
X116256537Y-96367160D01*
X116214648Y-96312569D01*
X116160282Y-96241718D01*
X116160277Y-96241714D01*
X116160276Y-96241713D01*
X116034838Y-96145462D01*
X115888766Y-96084957D01*
X115888758Y-96084955D01*
X115725567Y-96063471D01*
X115725794Y-96061743D01*
X115675528Y-96045411D01*
X115663715Y-96035322D01*
X115231475Y-95603082D01*
X114707913Y-95079520D01*
X114707910Y-95079518D01*
X114707909Y-95079517D01*
X114707908Y-95079516D01*
X114616591Y-95026794D01*
X114616593Y-95026794D01*
X114577070Y-95016204D01*
X114514727Y-94999500D01*
X114514725Y-94999500D01*
X111037113Y-94999500D01*
X110978922Y-94980593D01*
X110948492Y-94944628D01*
X110872369Y-94791752D01*
X110872366Y-94791745D01*
X110743872Y-94621593D01*
X110664688Y-94549407D01*
X110586307Y-94477952D01*
X110586300Y-94477946D01*
X110405024Y-94365705D01*
X110405019Y-94365702D01*
X110206195Y-94288678D01*
X109996610Y-94249500D01*
X109783390Y-94249500D01*
X109573804Y-94288678D01*
X109374980Y-94365702D01*
X109374975Y-94365705D01*
X109193699Y-94477946D01*
X109193692Y-94477952D01*
X109036135Y-94621586D01*
X109036131Y-94621589D01*
X109036128Y-94621593D01*
X109036125Y-94621597D01*
X108907635Y-94791743D01*
X108907630Y-94791752D01*
X108812596Y-94982608D01*
X108754244Y-95187688D01*
X108754244Y-95187690D01*
X108734571Y-95400000D01*
X108258500Y-95400000D01*
X108258500Y-88240899D01*
X108277407Y-88182708D01*
X108287490Y-88170902D01*
X108580685Y-87877706D01*
X108635200Y-87849930D01*
X108695632Y-87859501D01*
X108738897Y-87902766D01*
X108749264Y-87938575D01*
X108754244Y-87992310D01*
X108812595Y-88197389D01*
X108907634Y-88388255D01*
X109036128Y-88558407D01*
X109036135Y-88558413D01*
X109193692Y-88702047D01*
X109193699Y-88702053D01*
X109297389Y-88766255D01*
X109374981Y-88814298D01*
X109573802Y-88891321D01*
X109783390Y-88930500D01*
X109996610Y-88930500D01*
X110206198Y-88891321D01*
X110405019Y-88814298D01*
X110586302Y-88702052D01*
X110743872Y-88558407D01*
X110872366Y-88388255D01*
X110948492Y-88235372D01*
X110991354Y-88191710D01*
X111037113Y-88180500D01*
X115423499Y-88180500D01*
X115481690Y-88199407D01*
X115493503Y-88209496D01*
X116654487Y-89370480D01*
X116654489Y-89370481D01*
X116654490Y-89370482D01*
X116659636Y-89374431D01*
X116658611Y-89375765D01*
X116694107Y-89415187D01*
X116700503Y-89476037D01*
X116670364Y-89528614D01*
X116656130Y-89541590D01*
X116656129Y-89541591D01*
X116527635Y-89711743D01*
X116527630Y-89711752D01*
X116432596Y-89902608D01*
X116374244Y-90107688D01*
X116374244Y-90107690D01*
X116354571Y-90320000D01*
X116374244Y-90532310D01*
X116427434Y-90719252D01*
X116432596Y-90737391D01*
X116527630Y-90928247D01*
X116527635Y-90928256D01*
X116605103Y-91030839D01*
X116625082Y-91088670D01*
X116607253Y-91147201D01*
X116558427Y-91184073D01*
X116526099Y-91189500D01*
X111366901Y-91189500D01*
X111308710Y-91170593D01*
X111296897Y-91160504D01*
X110986650Y-90850257D01*
X110958873Y-90795740D01*
X110967111Y-90742182D01*
X110965752Y-90741656D01*
X110967400Y-90737398D01*
X110967405Y-90737389D01*
X111025756Y-90532310D01*
X111045429Y-90320000D01*
X111025756Y-90107690D01*
X110967405Y-89902611D01*
X110872366Y-89711745D01*
X110743872Y-89541593D01*
X110649902Y-89455927D01*
X110586307Y-89397952D01*
X110586300Y-89397946D01*
X110405024Y-89285705D01*
X110405019Y-89285702D01*
X110206195Y-89208678D01*
X109996610Y-89169500D01*
X109783390Y-89169500D01*
X109573804Y-89208678D01*
X109374980Y-89285702D01*
X109374975Y-89285705D01*
X109193699Y-89397946D01*
X109193692Y-89397952D01*
X109036135Y-89541586D01*
X109036131Y-89541589D01*
X109036128Y-89541593D01*
X109036125Y-89541597D01*
X108907635Y-89711743D01*
X108907630Y-89711752D01*
X108812596Y-89902608D01*
X108754244Y-90107688D01*
X108754244Y-90107690D01*
X108734571Y-90320000D01*
X108754244Y-90532310D01*
X108812595Y-90737389D01*
X108907634Y-90928255D01*
X109036128Y-91098407D01*
X109104245Y-91160504D01*
X109193692Y-91242047D01*
X109193699Y-91242053D01*
X109238060Y-91269520D01*
X109374981Y-91354298D01*
X109573802Y-91431321D01*
X109783390Y-91470500D01*
X109996610Y-91470500D01*
X110206198Y-91431321D01*
X110310908Y-91390755D01*
X110371998Y-91387366D01*
X110416674Y-91413067D01*
X110914087Y-91910480D01*
X110914089Y-91910481D01*
X110914090Y-91910482D01*
X110914091Y-91910483D01*
X111005408Y-91963205D01*
X111005406Y-91963205D01*
X111005410Y-91963206D01*
X111005412Y-91963207D01*
X111107273Y-91990500D01*
X116526099Y-91990500D01*
X116584290Y-92009407D01*
X116620254Y-92058907D01*
X116620254Y-92120093D01*
X116605103Y-92149161D01*
X116527635Y-92251743D01*
X116527630Y-92251752D01*
X116432596Y-92442608D01*
X116374244Y-92647688D01*
X116354571Y-92860000D01*
X116374244Y-93072311D01*
X116374246Y-93072317D01*
X116432595Y-93277389D01*
X116527634Y-93468255D01*
X116602799Y-93567789D01*
X116605103Y-93570839D01*
X116625082Y-93628670D01*
X116607253Y-93687201D01*
X116558427Y-93724073D01*
X116526099Y-93729500D01*
X111417701Y-93729500D01*
X111359510Y-93710593D01*
X111347697Y-93700504D01*
X110999057Y-93351864D01*
X110971280Y-93297347D01*
X110973840Y-93254770D01*
X111025756Y-93072310D01*
X111045429Y-92860000D01*
X111025756Y-92647690D01*
X110967405Y-92442611D01*
X110872366Y-92251745D01*
X110743872Y-92081593D01*
X110664688Y-92009407D01*
X110586307Y-91937952D01*
X110586300Y-91937946D01*
X110405024Y-91825705D01*
X110405019Y-91825702D01*
X110206195Y-91748678D01*
X109996610Y-91709500D01*
X109783390Y-91709500D01*
X109573804Y-91748678D01*
X109374980Y-91825702D01*
X109374975Y-91825705D01*
X109193699Y-91937946D01*
X109193692Y-91937952D01*
X109036135Y-92081586D01*
X109036131Y-92081589D01*
X109036128Y-92081593D01*
X109036125Y-92081597D01*
X108907635Y-92251743D01*
X108907630Y-92251752D01*
X108812596Y-92442608D01*
X108754244Y-92647688D01*
X108734571Y-92860000D01*
X108754244Y-93072311D01*
X108754246Y-93072317D01*
X108812595Y-93277389D01*
X108907634Y-93468255D01*
X109036128Y-93638407D01*
X109036135Y-93638413D01*
X109193692Y-93782047D01*
X109193699Y-93782053D01*
X109241397Y-93811586D01*
X109374981Y-93894298D01*
X109573802Y-93971321D01*
X109783390Y-94010500D01*
X109996610Y-94010500D01*
X110206198Y-93971321D01*
X110347525Y-93916570D01*
X110408613Y-93913181D01*
X110453289Y-93938882D01*
X110964887Y-94450480D01*
X110964889Y-94450481D01*
X110964890Y-94450482D01*
X110964891Y-94450483D01*
X111056208Y-94503205D01*
X111056206Y-94503205D01*
X111056210Y-94503206D01*
X111056212Y-94503207D01*
X111158073Y-94530500D01*
X116526099Y-94530500D01*
X116584290Y-94549407D01*
X116620254Y-94598907D01*
X116620254Y-94660093D01*
X116605103Y-94689161D01*
X116527635Y-94791743D01*
X116527630Y-94791752D01*
X116432596Y-94982608D01*
X116374244Y-95187688D01*
X116374244Y-95187690D01*
X116354571Y-95400000D01*
X116374244Y-95612310D01*
X116432595Y-95817389D01*
X116527634Y-96008255D01*
X116656128Y-96178407D01*
X116656135Y-96178413D01*
X116813692Y-96322047D01*
X116813699Y-96322053D01*
X116886548Y-96367159D01*
X116994981Y-96434298D01*
X117193802Y-96511321D01*
X117403390Y-96550500D01*
X117616610Y-96550500D01*
X117826198Y-96511321D01*
X118025019Y-96434298D01*
X118206302Y-96322052D01*
X118363872Y-96178407D01*
X118492366Y-96008255D01*
X118587405Y-95817389D01*
X118645756Y-95612310D01*
X118664905Y-95405648D01*
X118689101Y-95349452D01*
X118741708Y-95318208D01*
X118802633Y-95323854D01*
X118833487Y-95344780D01*
X118858504Y-95369797D01*
X118886281Y-95424314D01*
X118887500Y-95439801D01*
X118887500Y-100935273D01*
X118887500Y-101040727D01*
X118900233Y-101088247D01*
X118914794Y-101142592D01*
X118967516Y-101233908D01*
X118967517Y-101233909D01*
X118967518Y-101233910D01*
X118967520Y-101233913D01*
X119642285Y-101908678D01*
X120262663Y-102529056D01*
X120290440Y-102583573D01*
X120287880Y-102626152D01*
X120233603Y-102816915D01*
X120218438Y-102980580D01*
X120214785Y-103020000D01*
X120233603Y-103223083D01*
X120289418Y-103419250D01*
X120380327Y-103601821D01*
X120503236Y-103764579D01*
X120653959Y-103901981D01*
X120827363Y-104009348D01*
X121017544Y-104083024D01*
X121218024Y-104120500D01*
X121421976Y-104120500D01*
X121622456Y-104083024D01*
X121812637Y-104009348D01*
X121986041Y-103901981D01*
X122136764Y-103764579D01*
X122259673Y-103601821D01*
X122350582Y-103419250D01*
X122406397Y-103223083D01*
X122425215Y-103020000D01*
X122406397Y-102816917D01*
X122350582Y-102620750D01*
X122259673Y-102438179D01*
X122136764Y-102275421D01*
X121986041Y-102138019D01*
X121812637Y-102030652D01*
X121622456Y-101956976D01*
X121622455Y-101956975D01*
X121622453Y-101956975D01*
X121421976Y-101919500D01*
X121218024Y-101919500D01*
X121017552Y-101956974D01*
X121017546Y-101956975D01*
X121017544Y-101956976D01*
X120951296Y-101982639D01*
X120937738Y-101987892D01*
X120876647Y-101991281D01*
X120831973Y-101965580D01*
X119717496Y-100851103D01*
X119689719Y-100796586D01*
X119688500Y-100781099D01*
X119688500Y-99653901D01*
X119707407Y-99595710D01*
X119756907Y-99559746D01*
X119818093Y-99559746D01*
X119857504Y-99583897D01*
X120262663Y-99989056D01*
X120290440Y-100043573D01*
X120287880Y-100086152D01*
X120233603Y-100276915D01*
X120233603Y-100276917D01*
X120214785Y-100480000D01*
X120233603Y-100683083D01*
X120281409Y-100851103D01*
X120289419Y-100879252D01*
X120369823Y-101040727D01*
X120380327Y-101061821D01*
X120503236Y-101224579D01*
X120653959Y-101361981D01*
X120827363Y-101469348D01*
X121017544Y-101543024D01*
X121218024Y-101580500D01*
X121421976Y-101580500D01*
X121622456Y-101543024D01*
X121812637Y-101469348D01*
X121986041Y-101361981D01*
X122136764Y-101224579D01*
X122259673Y-101061821D01*
X122350582Y-100879250D01*
X122406397Y-100683083D01*
X122425215Y-100480000D01*
X122406397Y-100276917D01*
X122350582Y-100080750D01*
X122259673Y-99898179D01*
X122136764Y-99735421D01*
X121986041Y-99598019D01*
X121812637Y-99490652D01*
X121622456Y-99416976D01*
X121622455Y-99416975D01*
X121622453Y-99416975D01*
X121421976Y-99379500D01*
X121218024Y-99379500D01*
X121017552Y-99416974D01*
X121017546Y-99416975D01*
X121017544Y-99416976D01*
X120963542Y-99437896D01*
X120937738Y-99447892D01*
X120876647Y-99451281D01*
X120831973Y-99425580D01*
X120225496Y-98819103D01*
X120197719Y-98764586D01*
X120196500Y-98749099D01*
X120196500Y-98572878D01*
X120215407Y-98514687D01*
X120264907Y-98478723D01*
X120326093Y-98478723D01*
X120375593Y-98514687D01*
X120379676Y-98520768D01*
X120380321Y-98521809D01*
X120380327Y-98521821D01*
X120503236Y-98684579D01*
X120653959Y-98821981D01*
X120827363Y-98929348D01*
X121017544Y-99003024D01*
X121218024Y-99040500D01*
X121421976Y-99040500D01*
X121622456Y-99003024D01*
X121812637Y-98929348D01*
X121986041Y-98821981D01*
X122136764Y-98684579D01*
X122259673Y-98521821D01*
X122350582Y-98339250D01*
X122406397Y-98143083D01*
X122425215Y-97940000D01*
X122406397Y-97736917D01*
X122352118Y-97546148D01*
X122354379Y-97485010D01*
X122377333Y-97449058D01*
X122909496Y-96916896D01*
X122964013Y-96889119D01*
X123024445Y-96898690D01*
X123067710Y-96941955D01*
X123078500Y-96986900D01*
X123078500Y-112633548D01*
X123059593Y-112691739D01*
X123049503Y-112703552D01*
X122586874Y-113166180D01*
X122532358Y-113193957D01*
X122471926Y-113184386D01*
X122428661Y-113141121D01*
X122418294Y-113105315D01*
X122406397Y-112976917D01*
X122350582Y-112780750D01*
X122259673Y-112598179D01*
X122136764Y-112435421D01*
X121986041Y-112298019D01*
X121812637Y-112190652D01*
X121622456Y-112116976D01*
X121622455Y-112116975D01*
X121622453Y-112116975D01*
X121421976Y-112079500D01*
X121218024Y-112079500D01*
X121017546Y-112116975D01*
X120947632Y-112144059D01*
X120827363Y-112190652D01*
X120718676Y-112257948D01*
X120653959Y-112298019D01*
X120503237Y-112435420D01*
X120380328Y-112598177D01*
X120380323Y-112598186D01*
X120298450Y-112762611D01*
X120289418Y-112780750D01*
X120233603Y-112976917D01*
X120214785Y-113180000D01*
X120233603Y-113383083D01*
X120289418Y-113579250D01*
X120380327Y-113761821D01*
X120477759Y-113890842D01*
X120497737Y-113948670D01*
X120479908Y-114007201D01*
X120431082Y-114044073D01*
X120398754Y-114049500D01*
X118493901Y-114049500D01*
X118435710Y-114030593D01*
X118399746Y-113981093D01*
X118399746Y-113919907D01*
X118414897Y-113890839D01*
X118416083Y-113889269D01*
X118492366Y-113788255D01*
X118587405Y-113597389D01*
X118645756Y-113392310D01*
X118665429Y-113180000D01*
X118645756Y-112967690D01*
X118587405Y-112762611D01*
X118492366Y-112571745D01*
X118363872Y-112401593D01*
X118301159Y-112344422D01*
X118206307Y-112257952D01*
X118206300Y-112257946D01*
X118025024Y-112145705D01*
X118025019Y-112145702D01*
X117826195Y-112068678D01*
X117616610Y-112029500D01*
X117403390Y-112029500D01*
X117193804Y-112068678D01*
X116994980Y-112145702D01*
X116994975Y-112145705D01*
X116813699Y-112257946D01*
X116813692Y-112257952D01*
X116656135Y-112401586D01*
X116656131Y-112401589D01*
X116656128Y-112401593D01*
X116656125Y-112401597D01*
X116527635Y-112571743D01*
X116527630Y-112571752D01*
X116432596Y-112762608D01*
X116374244Y-112967688D01*
X116361492Y-113105310D01*
X116354571Y-113180000D01*
X116374244Y-113392310D01*
X116432595Y-113597389D01*
X116527634Y-113788255D01*
X116656128Y-113958407D01*
X116660517Y-113962408D01*
X116690780Y-114015584D01*
X116684008Y-114076394D01*
X116643320Y-114121302D01*
X116629087Y-114129519D01*
X116300526Y-114458078D01*
X116246010Y-114485855D01*
X116185578Y-114476283D01*
X116142313Y-114433019D01*
X116132370Y-114400997D01*
X116126544Y-114356738D01*
X116090876Y-114270627D01*
X116066037Y-114210661D01*
X116066037Y-114210660D01*
X115969786Y-114085223D01*
X115969785Y-114085222D01*
X115969782Y-114085218D01*
X115969777Y-114085214D01*
X115969776Y-114085213D01*
X115868108Y-114007201D01*
X115844341Y-113988964D01*
X115844340Y-113988963D01*
X115844338Y-113988962D01*
X115698266Y-113928457D01*
X115698258Y-113928455D01*
X115541501Y-113907818D01*
X115541499Y-113907818D01*
X115384741Y-113928455D01*
X115384733Y-113928457D01*
X115238661Y-113988962D01*
X115238660Y-113988962D01*
X115113223Y-114085213D01*
X115113213Y-114085223D01*
X115016962Y-114210660D01*
X115016962Y-114210661D01*
X114956457Y-114356733D01*
X114956455Y-114356741D01*
X114935818Y-114513499D01*
X114935818Y-114513500D01*
X114956455Y-114670258D01*
X114956456Y-114670263D01*
X114965084Y-114691091D01*
X114969885Y-114752088D01*
X114943624Y-114798981D01*
X111194661Y-118547944D01*
X111140144Y-118575721D01*
X111079712Y-118566150D01*
X111036447Y-118522885D01*
X111026080Y-118468811D01*
X111045429Y-118260000D01*
X111025756Y-118047690D01*
X110967405Y-117842611D01*
X110967401Y-117842604D01*
X110965752Y-117838344D01*
X110967132Y-117837809D01*
X110959019Y-117783364D01*
X110986648Y-117729743D01*
X112388480Y-116327913D01*
X112403544Y-116301822D01*
X112441205Y-116236592D01*
X112441205Y-116236590D01*
X112441207Y-116236588D01*
X112468500Y-116134727D01*
X112468500Y-116029273D01*
X112468500Y-114891900D01*
X112487407Y-114833709D01*
X112497490Y-114821902D01*
X115313780Y-112005613D01*
X115366507Y-111914288D01*
X115393800Y-111812427D01*
X115393800Y-111706973D01*
X115393800Y-110950601D01*
X115412707Y-110892410D01*
X115422796Y-110880597D01*
X115875705Y-110427688D01*
X116352377Y-109951015D01*
X116406892Y-109923240D01*
X116467324Y-109932811D01*
X116510589Y-109976076D01*
X116520160Y-110036508D01*
X116511001Y-110065148D01*
X116432595Y-110222611D01*
X116374244Y-110427688D01*
X116354571Y-110640000D01*
X116374244Y-110852311D01*
X116389216Y-110904929D01*
X116432595Y-111057389D01*
X116527634Y-111248255D01*
X116656128Y-111418407D01*
X116656135Y-111418413D01*
X116813692Y-111562047D01*
X116813699Y-111562053D01*
X116858057Y-111589518D01*
X116994981Y-111674298D01*
X117193802Y-111751321D01*
X117403390Y-111790500D01*
X117616610Y-111790500D01*
X117826198Y-111751321D01*
X118025019Y-111674298D01*
X118206302Y-111562052D01*
X118363872Y-111418407D01*
X118492366Y-111248255D01*
X118587405Y-111057389D01*
X118645756Y-110852310D01*
X118665429Y-110640000D01*
X120214785Y-110640000D01*
X120233603Y-110843083D01*
X120289418Y-111039250D01*
X120380327Y-111221821D01*
X120503236Y-111384579D01*
X120653959Y-111521981D01*
X120827363Y-111629348D01*
X121017544Y-111703024D01*
X121218024Y-111740500D01*
X121421976Y-111740500D01*
X121622456Y-111703024D01*
X121812637Y-111629348D01*
X121986041Y-111521981D01*
X122136764Y-111384579D01*
X122259673Y-111221821D01*
X122350582Y-111039250D01*
X122406397Y-110843083D01*
X122425215Y-110640000D01*
X122406397Y-110436917D01*
X122350582Y-110240750D01*
X122259673Y-110058179D01*
X122136764Y-109895421D01*
X121986041Y-109758019D01*
X121812637Y-109650652D01*
X121622456Y-109576976D01*
X121622455Y-109576975D01*
X121622453Y-109576975D01*
X121421976Y-109539500D01*
X121218024Y-109539500D01*
X121017546Y-109576975D01*
X120995334Y-109585580D01*
X120827363Y-109650652D01*
X120718676Y-109717948D01*
X120653959Y-109758019D01*
X120503237Y-109895420D01*
X120380328Y-110058177D01*
X120380323Y-110058186D01*
X120298450Y-110222611D01*
X120289418Y-110240750D01*
X120233603Y-110436917D01*
X120214785Y-110640000D01*
X118665429Y-110640000D01*
X118645756Y-110427690D01*
X118587405Y-110222611D01*
X118492366Y-110031745D01*
X118387851Y-109893346D01*
X118367871Y-109835515D01*
X118385699Y-109776985D01*
X118421836Y-109747954D01*
X118420969Y-109746452D01*
X118517908Y-109690483D01*
X118517908Y-109690482D01*
X118517913Y-109690480D01*
X119678897Y-108529496D01*
X119733414Y-108501719D01*
X119748901Y-108500500D01*
X120228742Y-108500500D01*
X120286933Y-108519407D01*
X120317362Y-108555371D01*
X120380327Y-108681821D01*
X120503236Y-108844579D01*
X120653959Y-108981981D01*
X120827363Y-109089348D01*
X121017544Y-109163024D01*
X121218024Y-109200500D01*
X121421976Y-109200500D01*
X121622456Y-109163024D01*
X121812637Y-109089348D01*
X121986041Y-108981981D01*
X122136764Y-108844579D01*
X122259673Y-108681821D01*
X122350582Y-108499250D01*
X122406397Y-108303083D01*
X122425215Y-108100000D01*
X122406397Y-107896917D01*
X122350582Y-107700750D01*
X122259673Y-107518179D01*
X122136764Y-107355421D01*
X121986041Y-107218019D01*
X121812637Y-107110652D01*
X121622456Y-107036976D01*
X121622455Y-107036975D01*
X121622453Y-107036975D01*
X121421976Y-106999500D01*
X121218024Y-106999500D01*
X121017546Y-107036975D01*
X120963543Y-107057896D01*
X120827363Y-107110652D01*
X120660723Y-107213831D01*
X120653959Y-107218019D01*
X120503237Y-107355420D01*
X120380328Y-107518177D01*
X120380323Y-107518186D01*
X120317363Y-107644628D01*
X120274500Y-107688291D01*
X120228742Y-107699500D01*
X119594727Y-107699500D01*
X119489273Y-107699500D01*
X119428652Y-107715743D01*
X119387407Y-107726794D01*
X119296091Y-107779516D01*
X119296086Y-107779520D01*
X118827631Y-108247974D01*
X118773115Y-108275751D01*
X118712683Y-108266180D01*
X118669418Y-108222915D01*
X118659050Y-108168837D01*
X118665429Y-108100000D01*
X118645756Y-107887690D01*
X118587405Y-107682611D01*
X118492366Y-107491745D01*
X118363872Y-107321593D01*
X118309623Y-107272139D01*
X118206307Y-107177952D01*
X118206300Y-107177946D01*
X118025024Y-107065705D01*
X118025019Y-107065702D01*
X117908720Y-107020648D01*
X117826198Y-106988679D01*
X117826197Y-106988678D01*
X117826195Y-106988678D01*
X117616610Y-106949500D01*
X117403390Y-106949500D01*
X117193804Y-106988678D01*
X116994980Y-107065702D01*
X116994975Y-107065705D01*
X116813699Y-107177946D01*
X116813692Y-107177952D01*
X116656135Y-107321586D01*
X116656131Y-107321589D01*
X116656128Y-107321593D01*
X116656125Y-107321597D01*
X116527635Y-107491743D01*
X116527630Y-107491752D01*
X116432596Y-107682608D01*
X116374244Y-107887688D01*
X116354571Y-108100000D01*
X116369969Y-108266180D01*
X116374244Y-108312310D01*
X116428136Y-108501719D01*
X116432596Y-108517391D01*
X116527630Y-108708247D01*
X116527635Y-108708256D01*
X116605103Y-108810839D01*
X116625082Y-108868670D01*
X116607253Y-108927201D01*
X116558427Y-108964073D01*
X116526099Y-108969500D01*
X116419727Y-108969500D01*
X116314273Y-108969500D01*
X116251929Y-108986204D01*
X116212407Y-108996794D01*
X116121091Y-109049516D01*
X115162804Y-110007803D01*
X115108287Y-110035580D01*
X115047855Y-110026009D01*
X115004590Y-109982744D01*
X114993800Y-109937799D01*
X114993800Y-108683599D01*
X115012707Y-108625408D01*
X115022790Y-108613601D01*
X116983324Y-106653066D01*
X117037841Y-106625290D01*
X117089090Y-106630756D01*
X117165869Y-106660500D01*
X117193802Y-106671321D01*
X117403390Y-106710500D01*
X117616610Y-106710500D01*
X117826198Y-106671321D01*
X118025019Y-106594298D01*
X118206302Y-106482052D01*
X118363872Y-106338407D01*
X118492366Y-106168255D01*
X118587405Y-105977389D01*
X118645756Y-105772310D01*
X118665429Y-105560000D01*
X118645756Y-105347690D01*
X118587405Y-105142611D01*
X118492366Y-104951745D01*
X118414896Y-104849159D01*
X118394918Y-104791330D01*
X118412747Y-104732799D01*
X118461573Y-104695927D01*
X118493901Y-104690500D01*
X119843099Y-104690500D01*
X119901290Y-104709407D01*
X119913103Y-104719496D01*
X120262663Y-105069056D01*
X120290440Y-105123573D01*
X120287880Y-105166152D01*
X120233603Y-105356915D01*
X120228169Y-105415561D01*
X120214785Y-105560000D01*
X120233603Y-105763083D01*
X120289418Y-105959250D01*
X120380327Y-106141821D01*
X120503236Y-106304579D01*
X120653959Y-106441981D01*
X120827363Y-106549348D01*
X121017544Y-106623024D01*
X121218024Y-106660500D01*
X121421976Y-106660500D01*
X121622456Y-106623024D01*
X121812637Y-106549348D01*
X121986041Y-106441981D01*
X122136764Y-106304579D01*
X122259673Y-106141821D01*
X122350582Y-105959250D01*
X122406397Y-105763083D01*
X122425215Y-105560000D01*
X122406397Y-105356917D01*
X122350582Y-105160750D01*
X122259673Y-104978179D01*
X122136764Y-104815421D01*
X121986041Y-104678019D01*
X121812637Y-104570652D01*
X121622456Y-104496976D01*
X121622455Y-104496975D01*
X121622453Y-104496975D01*
X121421976Y-104459500D01*
X121218024Y-104459500D01*
X121017552Y-104496974D01*
X121017546Y-104496975D01*
X121017544Y-104496976D01*
X120951296Y-104522639D01*
X120937738Y-104527892D01*
X120876647Y-104531281D01*
X120831973Y-104505580D01*
X120735893Y-104409500D01*
X120295913Y-103969520D01*
X120295910Y-103969518D01*
X120295909Y-103969517D01*
X120295908Y-103969516D01*
X120204591Y-103916794D01*
X120204593Y-103916794D01*
X120165070Y-103906204D01*
X120102727Y-103889500D01*
X120102725Y-103889500D01*
X118493901Y-103889500D01*
X118435710Y-103870593D01*
X118399746Y-103821093D01*
X118399746Y-103759907D01*
X118414897Y-103730839D01*
X118423205Y-103719838D01*
X118492366Y-103628255D01*
X118587405Y-103437389D01*
X118645756Y-103232310D01*
X118665429Y-103020000D01*
X118645756Y-102807690D01*
X118587405Y-102602611D01*
X118492366Y-102411745D01*
X118363872Y-102241593D01*
X118301661Y-102184880D01*
X118206307Y-102097952D01*
X118206300Y-102097946D01*
X118025024Y-101985705D01*
X118025019Y-101985702D01*
X117826195Y-101908678D01*
X117616610Y-101869500D01*
X117403390Y-101869500D01*
X117193804Y-101908678D01*
X116994980Y-101985702D01*
X116994975Y-101985705D01*
X116813699Y-102097946D01*
X116813692Y-102097952D01*
X116656135Y-102241586D01*
X116656131Y-102241589D01*
X116656128Y-102241593D01*
X116656125Y-102241597D01*
X116527635Y-102411743D01*
X116527630Y-102411752D01*
X116432596Y-102602608D01*
X116374244Y-102807688D01*
X116358224Y-102980580D01*
X116354571Y-103020000D01*
X116374244Y-103232310D01*
X116427434Y-103419252D01*
X116432596Y-103437391D01*
X116443486Y-103459261D01*
X116452499Y-103519779D01*
X116424869Y-103573393D01*
X112977617Y-107020647D01*
X112977616Y-107020648D01*
X112924894Y-107111964D01*
X112897600Y-107213831D01*
X112897600Y-110931925D01*
X112878693Y-110990116D01*
X112829193Y-111026080D01*
X112768007Y-111026080D01*
X112720058Y-110992193D01*
X112705882Y-110973718D01*
X112705880Y-110973717D01*
X112701932Y-110968571D01*
X112703314Y-110967510D01*
X112679319Y-110920416D01*
X112678100Y-110904929D01*
X112678100Y-107073071D01*
X112697007Y-107014880D01*
X112704315Y-107006324D01*
X112709551Y-106999500D01*
X112802136Y-106878841D01*
X112862644Y-106732762D01*
X112883282Y-106576000D01*
X112862644Y-106419238D01*
X112802137Y-106273161D01*
X112802137Y-106273160D01*
X112705886Y-106147723D01*
X112705885Y-106147722D01*
X112705882Y-106147718D01*
X112663372Y-106115099D01*
X112627273Y-106087399D01*
X112592618Y-106036974D01*
X112594220Y-105975810D01*
X112617535Y-105938855D01*
X116983325Y-101573065D01*
X117037840Y-101545290D01*
X117089089Y-101550756D01*
X117165869Y-101580500D01*
X117193802Y-101591321D01*
X117403390Y-101630500D01*
X117616610Y-101630500D01*
X117826198Y-101591321D01*
X118025019Y-101514298D01*
X118206302Y-101402052D01*
X118363872Y-101258407D01*
X118492366Y-101088255D01*
X118587405Y-100897389D01*
X118645756Y-100692310D01*
X118665429Y-100480000D01*
X118645756Y-100267690D01*
X118587405Y-100062611D01*
X118492366Y-99871745D01*
X118363872Y-99701593D01*
X118309623Y-99652139D01*
X118206307Y-99557952D01*
X118206300Y-99557946D01*
X118025024Y-99445705D01*
X118025019Y-99445702D01*
X117826195Y-99368678D01*
X117616610Y-99329500D01*
X117403390Y-99329500D01*
X117193804Y-99368678D01*
X116994980Y-99445702D01*
X116994975Y-99445705D01*
X116813699Y-99557946D01*
X116813692Y-99557952D01*
X116656135Y-99701586D01*
X116656131Y-99701589D01*
X116656128Y-99701593D01*
X116656125Y-99701597D01*
X116527635Y-99871743D01*
X116527630Y-99871752D01*
X116432596Y-100062608D01*
X116374244Y-100267688D01*
X116354571Y-100480000D01*
X116374244Y-100692311D01*
X116432598Y-100897401D01*
X116434249Y-100901661D01*
X116432870Y-100902195D01*
X116440977Y-100956647D01*
X116413348Y-101010257D01*
X111347517Y-106076090D01*
X111347516Y-106076091D01*
X111294795Y-106167406D01*
X111294791Y-106167416D01*
X111290941Y-106181788D01*
X111267500Y-106269273D01*
X111267500Y-110560099D01*
X111248593Y-110618290D01*
X111238504Y-110630103D01*
X111210086Y-110658521D01*
X111155569Y-110686298D01*
X111095137Y-110676727D01*
X111051872Y-110633462D01*
X111041505Y-110597655D01*
X111025756Y-110427690D01*
X110967405Y-110222611D01*
X110872366Y-110031745D01*
X110743872Y-109861593D01*
X110651062Y-109776985D01*
X110586307Y-109717952D01*
X110586300Y-109717946D01*
X110405024Y-109605705D01*
X110405019Y-109605702D01*
X110206195Y-109528678D01*
X109996610Y-109489500D01*
X109783390Y-109489500D01*
X109573804Y-109528678D01*
X109374980Y-109605702D01*
X109374975Y-109605705D01*
X109193699Y-109717946D01*
X109193692Y-109717952D01*
X109036135Y-109861586D01*
X109036131Y-109861589D01*
X109036128Y-109861593D01*
X109036125Y-109861597D01*
X108907635Y-110031743D01*
X108907630Y-110031752D01*
X108812596Y-110222608D01*
X108754244Y-110427688D01*
X108734571Y-110640000D01*
X108754244Y-110852311D01*
X108769216Y-110904929D01*
X108812595Y-111057389D01*
X108907634Y-111248255D01*
X109036128Y-111418407D01*
X109036135Y-111418413D01*
X109040517Y-111422408D01*
X109070780Y-111475584D01*
X109064008Y-111536394D01*
X109023320Y-111581302D01*
X109009089Y-111589518D01*
X107537516Y-113061091D01*
X107484793Y-113152411D01*
X107484792Y-113152411D01*
X107484793Y-113152412D01*
X107457500Y-113254273D01*
X107457500Y-113735099D01*
X107438593Y-113793290D01*
X107428504Y-113805103D01*
X106568026Y-114665580D01*
X106513509Y-114693357D01*
X106462260Y-114687891D01*
X106382456Y-114656976D01*
X106181976Y-114619500D01*
X105978024Y-114619500D01*
X105777546Y-114656975D01*
X105743246Y-114670263D01*
X105587363Y-114730652D01*
X105477008Y-114798981D01*
X105413959Y-114838019D01*
X105263237Y-114975420D01*
X105140328Y-115138177D01*
X105140323Y-115138186D01*
X105058450Y-115302611D01*
X105049418Y-115320750D01*
X104993603Y-115516917D01*
X104974785Y-115720000D01*
X104993603Y-115923083D01*
X105049418Y-116119250D01*
X105140327Y-116301821D01*
X105263236Y-116464579D01*
X105413959Y-116601981D01*
X105587363Y-116709348D01*
X105777544Y-116783024D01*
X105978024Y-116820500D01*
X106181976Y-116820500D01*
X106382456Y-116783024D01*
X106572637Y-116709348D01*
X106746041Y-116601981D01*
X106896764Y-116464579D01*
X107019673Y-116301821D01*
X107110582Y-116119250D01*
X107166397Y-115923083D01*
X107185215Y-115720000D01*
X107166397Y-115516917D01*
X107112118Y-115326148D01*
X107114379Y-115265010D01*
X107137333Y-115229058D01*
X108103910Y-114262481D01*
X108103913Y-114262480D01*
X108178480Y-114187913D01*
X108231207Y-114096587D01*
X108234253Y-114085218D01*
X108258501Y-113994727D01*
X108258501Y-113889273D01*
X108258501Y-113883211D01*
X108258500Y-113883193D01*
X108258500Y-113513900D01*
X108277407Y-113455709D01*
X108287496Y-113443897D01*
X108388453Y-113342940D01*
X108569913Y-113161478D01*
X108624430Y-113133701D01*
X108684862Y-113143272D01*
X108728127Y-113186537D01*
X108738494Y-113222346D01*
X108754244Y-113392310D01*
X108812595Y-113597389D01*
X108907634Y-113788255D01*
X109036128Y-113958407D01*
X109040517Y-113962408D01*
X109070780Y-114015584D01*
X109064008Y-114076394D01*
X109023320Y-114121302D01*
X109009089Y-114129518D01*
X107537516Y-115601091D01*
X107484793Y-115692411D01*
X107484792Y-115692411D01*
X107484793Y-115692412D01*
X107457500Y-115794273D01*
X107457500Y-116275099D01*
X107438593Y-116333290D01*
X107428504Y-116345103D01*
X106568026Y-117205580D01*
X106513509Y-117233357D01*
X106462260Y-117227891D01*
X106382456Y-117196976D01*
X106181976Y-117159500D01*
X105978024Y-117159500D01*
X105777546Y-117196975D01*
X105755334Y-117205580D01*
X105587363Y-117270652D01*
X105478676Y-117337948D01*
X105413959Y-117378019D01*
X105263237Y-117515420D01*
X105140328Y-117678177D01*
X105140323Y-117678186D01*
X105058450Y-117842611D01*
X105049418Y-117860750D01*
X104993603Y-118056917D01*
X104974785Y-118260000D01*
X104993603Y-118463083D01*
X105049418Y-118659250D01*
X105140327Y-118841821D01*
X105263236Y-119004579D01*
X105413959Y-119141981D01*
X105587363Y-119249348D01*
X105777544Y-119323024D01*
X105978024Y-119360500D01*
X106181976Y-119360500D01*
X106382456Y-119323024D01*
X106572637Y-119249348D01*
X106746041Y-119141981D01*
X106896764Y-119004579D01*
X107019673Y-118841821D01*
X107110582Y-118659250D01*
X107166397Y-118463083D01*
X107185215Y-118260000D01*
X107166397Y-118056917D01*
X107112118Y-117866148D01*
X107114379Y-117805010D01*
X107137333Y-117769058D01*
X108103910Y-116802481D01*
X108103913Y-116802480D01*
X108178480Y-116727913D01*
X108231207Y-116636587D01*
X108258501Y-116534727D01*
X108258501Y-116429273D01*
X108258501Y-116423211D01*
X108258500Y-116423193D01*
X108258500Y-116053900D01*
X108277407Y-115995709D01*
X108287496Y-115983897D01*
X108396999Y-115874394D01*
X108569913Y-115701478D01*
X108624430Y-115673701D01*
X108684862Y-115683272D01*
X108728127Y-115726537D01*
X108738494Y-115762346D01*
X108754244Y-115932310D01*
X108812595Y-116137389D01*
X108907634Y-116328255D01*
X109036128Y-116498407D01*
X109036135Y-116498413D01*
X109040517Y-116502408D01*
X109070780Y-116555584D01*
X109064008Y-116616394D01*
X109023320Y-116661302D01*
X109009089Y-116669518D01*
X107537516Y-118141091D01*
X107484793Y-118232411D01*
X107484792Y-118232411D01*
X107484793Y-118232412D01*
X107457500Y-118334273D01*
X107457500Y-118815099D01*
X107438593Y-118873290D01*
X107428504Y-118885103D01*
X106568026Y-119745580D01*
X106513509Y-119773357D01*
X106462260Y-119767891D01*
X106382456Y-119736976D01*
X106181976Y-119699500D01*
X105978024Y-119699500D01*
X105777546Y-119736975D01*
X105755334Y-119745580D01*
X105587363Y-119810652D01*
X105478676Y-119877948D01*
X105413959Y-119918019D01*
X105263237Y-120055420D01*
X105140328Y-120218177D01*
X105140323Y-120218186D01*
X105058450Y-120382611D01*
X105049418Y-120400750D01*
X104993603Y-120596917D01*
X104974785Y-120800000D01*
X104993603Y-121003083D01*
X105049418Y-121199250D01*
X105140327Y-121381821D01*
X105263236Y-121544579D01*
X105413959Y-121681981D01*
X105587363Y-121789348D01*
X105777544Y-121863024D01*
X105978024Y-121900500D01*
X106181976Y-121900500D01*
X106382456Y-121863024D01*
X106572637Y-121789348D01*
X106746041Y-121681981D01*
X106896764Y-121544579D01*
X107019673Y-121381821D01*
X107110582Y-121199250D01*
X107166397Y-121003083D01*
X107185215Y-120800000D01*
X107166397Y-120596917D01*
X107112118Y-120406148D01*
X107114379Y-120345010D01*
X107137333Y-120309058D01*
X108103910Y-119342481D01*
X108103913Y-119342480D01*
X108178480Y-119267913D01*
X108231207Y-119176587D01*
X108258501Y-119074727D01*
X108258501Y-118969273D01*
X108258501Y-118963211D01*
X108258500Y-118963193D01*
X108258500Y-118593900D01*
X108277407Y-118535709D01*
X108287496Y-118523897D01*
X108348311Y-118463082D01*
X108569913Y-118241478D01*
X108624430Y-118213701D01*
X108684862Y-118223272D01*
X108728127Y-118266537D01*
X108738494Y-118302346D01*
X108754244Y-118472310D01*
X108812595Y-118677389D01*
X108907634Y-118868255D01*
X109036128Y-119038407D01*
X109036135Y-119038413D01*
X109040517Y-119042408D01*
X109070780Y-119095584D01*
X109064008Y-119156394D01*
X109023320Y-119201302D01*
X109009089Y-119209518D01*
X107537516Y-120681091D01*
X107484793Y-120772411D01*
X107484792Y-120772411D01*
X107484793Y-120772412D01*
X107457500Y-120874273D01*
X107457500Y-121355099D01*
X107438593Y-121413290D01*
X107428504Y-121425103D01*
X106568026Y-122285580D01*
X106513509Y-122313357D01*
X106462260Y-122307891D01*
X106382456Y-122276976D01*
X106181976Y-122239500D01*
X105978024Y-122239500D01*
X105777546Y-122276975D01*
X105737353Y-122292546D01*
X105587363Y-122350652D01*
X105478676Y-122417948D01*
X105413959Y-122458019D01*
X105263237Y-122595420D01*
X105140328Y-122758177D01*
X105140323Y-122758186D01*
X105058450Y-122922611D01*
X105049418Y-122940750D01*
X104993603Y-123136917D01*
X104974785Y-123340000D01*
X104993603Y-123543083D01*
X105049418Y-123739250D01*
X105140327Y-123921821D01*
X105263236Y-124084579D01*
X105413959Y-124221981D01*
X105587363Y-124329348D01*
X105777544Y-124403024D01*
X105978024Y-124440500D01*
X106181976Y-124440500D01*
X106382456Y-124403024D01*
X106572637Y-124329348D01*
X106746041Y-124221981D01*
X106896764Y-124084579D01*
X107019673Y-123921821D01*
X107110582Y-123739250D01*
X107166397Y-123543083D01*
X107185215Y-123340000D01*
X107166397Y-123136917D01*
X107112118Y-122946148D01*
X107114379Y-122885010D01*
X107137333Y-122849058D01*
X108103910Y-121882481D01*
X108103913Y-121882480D01*
X108178480Y-121807913D01*
X108231207Y-121716587D01*
X108240480Y-121681981D01*
X108258501Y-121614727D01*
X108258501Y-121509273D01*
X108258501Y-121503211D01*
X108258500Y-121503193D01*
X108258500Y-121133900D01*
X108277407Y-121075709D01*
X108287496Y-121063897D01*
X108348311Y-121003082D01*
X108569913Y-120781478D01*
X108624430Y-120753701D01*
X108684862Y-120763272D01*
X108728127Y-120806537D01*
X108738494Y-120842346D01*
X108754244Y-121012310D01*
X108812595Y-121217389D01*
X108907634Y-121408255D01*
X109036128Y-121578407D01*
X109036135Y-121578413D01*
X109193692Y-121722047D01*
X109193699Y-121722053D01*
X109297389Y-121786255D01*
X109374981Y-121834298D01*
X109573802Y-121911321D01*
X109783390Y-121950500D01*
X109996610Y-121950500D01*
X110206198Y-121911321D01*
X110405019Y-121834298D01*
X110586302Y-121722052D01*
X110743872Y-121578407D01*
X110872366Y-121408255D01*
X110967405Y-121217389D01*
X111025756Y-121012310D01*
X111045429Y-120800000D01*
X111025756Y-120587690D01*
X110967405Y-120382611D01*
X110872366Y-120191745D01*
X110795857Y-120090431D01*
X110789993Y-120082666D01*
X110770013Y-120024835D01*
X110787841Y-119966305D01*
X110836668Y-119929432D01*
X110843341Y-119927388D01*
X110933588Y-119903207D01*
X110986265Y-119872793D01*
X111046111Y-119860072D01*
X111102007Y-119884957D01*
X111127228Y-119920645D01*
X111143462Y-119959838D01*
X111143462Y-119959839D01*
X111243668Y-120090431D01*
X111242283Y-120091493D01*
X111266279Y-120138569D01*
X111267500Y-120154071D01*
X111267500Y-121355098D01*
X111248593Y-121413289D01*
X111238504Y-121425102D01*
X110416673Y-122246932D01*
X110362156Y-122274709D01*
X110310907Y-122269243D01*
X110206198Y-122228679D01*
X110206197Y-122228678D01*
X110206195Y-122228678D01*
X109996610Y-122189500D01*
X109783390Y-122189500D01*
X109573804Y-122228678D01*
X109374980Y-122305702D01*
X109374975Y-122305705D01*
X109193699Y-122417946D01*
X109193692Y-122417952D01*
X109036135Y-122561586D01*
X109036131Y-122561589D01*
X109036128Y-122561593D01*
X109036125Y-122561597D01*
X108907635Y-122731743D01*
X108907630Y-122731752D01*
X108812596Y-122922608D01*
X108754244Y-123127688D01*
X108754244Y-123127690D01*
X108734571Y-123340000D01*
X108754244Y-123552310D01*
X108812595Y-123757389D01*
X108907634Y-123948255D01*
X109036128Y-124118407D01*
X109086784Y-124164586D01*
X109193692Y-124262047D01*
X109193699Y-124262053D01*
X109260272Y-124303273D01*
X109374981Y-124374298D01*
X109573802Y-124451321D01*
X109783390Y-124490500D01*
X109996610Y-124490500D01*
X110206198Y-124451321D01*
X110405019Y-124374298D01*
X110586302Y-124262052D01*
X110743872Y-124118407D01*
X110872366Y-123948255D01*
X110967405Y-123757389D01*
X111025756Y-123552310D01*
X111045429Y-123340000D01*
X111025756Y-123127690D01*
X110967405Y-122922611D01*
X110967401Y-122922604D01*
X110965752Y-122918344D01*
X110967132Y-122917809D01*
X110959019Y-122863364D01*
X110986648Y-122809743D01*
X111733496Y-122062896D01*
X111788013Y-122035119D01*
X111848445Y-122044690D01*
X111891710Y-122087955D01*
X111902500Y-122132900D01*
X111902500Y-128340098D01*
X111883593Y-128398289D01*
X111873504Y-128410102D01*
X110416673Y-129866932D01*
X110362156Y-129894709D01*
X110310907Y-129889243D01*
X110206198Y-129848679D01*
X110206197Y-129848678D01*
X110206195Y-129848678D01*
X109996610Y-129809500D01*
X109783390Y-129809500D01*
X109573804Y-129848678D01*
X109374980Y-129925702D01*
X109374975Y-129925705D01*
X109193699Y-130037946D01*
X109193692Y-130037952D01*
X109036135Y-130181586D01*
X109036131Y-130181589D01*
X109036128Y-130181593D01*
X109036125Y-130181597D01*
X108907635Y-130351743D01*
X108907630Y-130351752D01*
X108812596Y-130542608D01*
X108754244Y-130747688D01*
X108754244Y-130747690D01*
X108734571Y-130960000D01*
X108754244Y-131172310D01*
X108812595Y-131377389D01*
X108907634Y-131568255D01*
X109036128Y-131738407D01*
X109036135Y-131738413D01*
X109193692Y-131882047D01*
X109193699Y-131882053D01*
X109297389Y-131946255D01*
X109374981Y-131994298D01*
X109573802Y-132071321D01*
X109783390Y-132110500D01*
X109996610Y-132110500D01*
X110206198Y-132071321D01*
X110405019Y-131994298D01*
X110586302Y-131882052D01*
X110743872Y-131738407D01*
X110872366Y-131568255D01*
X110967405Y-131377389D01*
X111025756Y-131172310D01*
X111045429Y-130960000D01*
X116354571Y-130960000D01*
X116374244Y-131172310D01*
X116432595Y-131377389D01*
X116527634Y-131568255D01*
X116656128Y-131738407D01*
X116656135Y-131738413D01*
X116813692Y-131882047D01*
X116813699Y-131882053D01*
X116917389Y-131946255D01*
X116994981Y-131994298D01*
X117193802Y-132071321D01*
X117403390Y-132110500D01*
X117616610Y-132110500D01*
X117826198Y-132071321D01*
X118025019Y-131994298D01*
X118206302Y-131882052D01*
X118363872Y-131738407D01*
X118492366Y-131568255D01*
X118587405Y-131377389D01*
X118645756Y-131172310D01*
X118665429Y-130960000D01*
X118645756Y-130747690D01*
X118587405Y-130542611D01*
X118492366Y-130351745D01*
X118363872Y-130181593D01*
X118309623Y-130132139D01*
X118206307Y-130037952D01*
X118206300Y-130037946D01*
X118025024Y-129925705D01*
X118025019Y-129925702D01*
X117945016Y-129894709D01*
X117826198Y-129848679D01*
X117826197Y-129848678D01*
X117826195Y-129848678D01*
X117616610Y-129809500D01*
X117403390Y-129809500D01*
X117193804Y-129848678D01*
X116994980Y-129925702D01*
X116994975Y-129925705D01*
X116813699Y-130037946D01*
X116813692Y-130037952D01*
X116656135Y-130181586D01*
X116656131Y-130181589D01*
X116656128Y-130181593D01*
X116656125Y-130181597D01*
X116527635Y-130351743D01*
X116527630Y-130351752D01*
X116432596Y-130542608D01*
X116374244Y-130747688D01*
X116374244Y-130747690D01*
X116354571Y-130960000D01*
X111045429Y-130960000D01*
X111025756Y-130747690D01*
X110967405Y-130542611D01*
X110967401Y-130542604D01*
X110965752Y-130538344D01*
X110967132Y-130537809D01*
X110959019Y-130483364D01*
X110986648Y-130429743D01*
X112623480Y-128792913D01*
X112654105Y-128739867D01*
X112676169Y-128701653D01*
X112676179Y-128701634D01*
X112676206Y-128701588D01*
X112676207Y-128701587D01*
X112703500Y-128599727D01*
X112703500Y-128420000D01*
X116354571Y-128420000D01*
X116374244Y-128632310D01*
X116432595Y-128837389D01*
X116527634Y-129028255D01*
X116656128Y-129198407D01*
X116656135Y-129198413D01*
X116813692Y-129342047D01*
X116813699Y-129342053D01*
X116917389Y-129406255D01*
X116994981Y-129454298D01*
X117193802Y-129531321D01*
X117403390Y-129570500D01*
X117616610Y-129570500D01*
X117826198Y-129531321D01*
X118025019Y-129454298D01*
X118206302Y-129342052D01*
X118363872Y-129198407D01*
X118492366Y-129028255D01*
X118587405Y-128837389D01*
X118645756Y-128632310D01*
X118665429Y-128420000D01*
X118645756Y-128207690D01*
X118587405Y-128002611D01*
X118492366Y-127811745D01*
X118363872Y-127641593D01*
X118309623Y-127592139D01*
X118206307Y-127497952D01*
X118206300Y-127497946D01*
X118025024Y-127385705D01*
X118025019Y-127385702D01*
X117826195Y-127308678D01*
X117616610Y-127269500D01*
X117403390Y-127269500D01*
X117193804Y-127308678D01*
X116994980Y-127385702D01*
X116994975Y-127385705D01*
X116813699Y-127497946D01*
X116813692Y-127497952D01*
X116656135Y-127641586D01*
X116656131Y-127641589D01*
X116656128Y-127641593D01*
X116656125Y-127641597D01*
X116527635Y-127811743D01*
X116527630Y-127811752D01*
X116432596Y-128002608D01*
X116374244Y-128207688D01*
X116374244Y-128207690D01*
X116354571Y-128420000D01*
X112703500Y-128420000D01*
X112703500Y-125880000D01*
X116354571Y-125880000D01*
X116374244Y-126092310D01*
X116432595Y-126297389D01*
X116527634Y-126488255D01*
X116656128Y-126658407D01*
X116656135Y-126658413D01*
X116813692Y-126802047D01*
X116813699Y-126802053D01*
X116917389Y-126866255D01*
X116994981Y-126914298D01*
X117193802Y-126991321D01*
X117403390Y-127030500D01*
X117616610Y-127030500D01*
X117826198Y-126991321D01*
X118025019Y-126914298D01*
X118206302Y-126802052D01*
X118363872Y-126658407D01*
X118492366Y-126488255D01*
X118587405Y-126297389D01*
X118645756Y-126092310D01*
X118665429Y-125880000D01*
X118645756Y-125667690D01*
X118587405Y-125462611D01*
X118492366Y-125271745D01*
X118363872Y-125101593D01*
X118309623Y-125052139D01*
X118206307Y-124957952D01*
X118206300Y-124957946D01*
X118025024Y-124845705D01*
X118025019Y-124845702D01*
X117826195Y-124768678D01*
X117616610Y-124729500D01*
X117403390Y-124729500D01*
X117193804Y-124768678D01*
X116994980Y-124845702D01*
X116994975Y-124845705D01*
X116813699Y-124957946D01*
X116813692Y-124957952D01*
X116656135Y-125101586D01*
X116656131Y-125101589D01*
X116656128Y-125101593D01*
X116656125Y-125101597D01*
X116527635Y-125271743D01*
X116527630Y-125271752D01*
X116432596Y-125462608D01*
X116374244Y-125667688D01*
X116374244Y-125667690D01*
X116354571Y-125880000D01*
X112703500Y-125880000D01*
X112703500Y-123340000D01*
X116354571Y-123340000D01*
X116374244Y-123552310D01*
X116432595Y-123757389D01*
X116527634Y-123948255D01*
X116656128Y-124118407D01*
X116706784Y-124164586D01*
X116813692Y-124262047D01*
X116813699Y-124262053D01*
X116880272Y-124303273D01*
X116994981Y-124374298D01*
X117193802Y-124451321D01*
X117403390Y-124490500D01*
X117616610Y-124490500D01*
X117826198Y-124451321D01*
X118025019Y-124374298D01*
X118206302Y-124262052D01*
X118363872Y-124118407D01*
X118492366Y-123948255D01*
X118587405Y-123757389D01*
X118645756Y-123552310D01*
X118665429Y-123340000D01*
X118645756Y-123127690D01*
X118587405Y-122922611D01*
X118492366Y-122731745D01*
X118363872Y-122561593D01*
X118309623Y-122512139D01*
X118206307Y-122417952D01*
X118206300Y-122417946D01*
X118025024Y-122305705D01*
X118025019Y-122305702D01*
X117945016Y-122274709D01*
X117826198Y-122228679D01*
X117826197Y-122228678D01*
X117826195Y-122228678D01*
X117616610Y-122189500D01*
X117403390Y-122189500D01*
X117193804Y-122228678D01*
X116994980Y-122305702D01*
X116994975Y-122305705D01*
X116813699Y-122417946D01*
X116813692Y-122417952D01*
X116656135Y-122561586D01*
X116656131Y-122561589D01*
X116656128Y-122561593D01*
X116656125Y-122561597D01*
X116527635Y-122731743D01*
X116527630Y-122731752D01*
X116432596Y-122922608D01*
X116374244Y-123127688D01*
X116374244Y-123127690D01*
X116354571Y-123340000D01*
X112703500Y-123340000D01*
X112703500Y-120800000D01*
X116354571Y-120800000D01*
X116374244Y-121012310D01*
X116432595Y-121217389D01*
X116527634Y-121408255D01*
X116656128Y-121578407D01*
X116656135Y-121578413D01*
X116813692Y-121722047D01*
X116813699Y-121722053D01*
X116917389Y-121786255D01*
X116994981Y-121834298D01*
X117193802Y-121911321D01*
X117403390Y-121950500D01*
X117616610Y-121950500D01*
X117826198Y-121911321D01*
X118025019Y-121834298D01*
X118206302Y-121722052D01*
X118363872Y-121578407D01*
X118492366Y-121408255D01*
X118587405Y-121217389D01*
X118645756Y-121012310D01*
X118665429Y-120800000D01*
X118645756Y-120587690D01*
X118587405Y-120382611D01*
X118492366Y-120191745D01*
X118363872Y-120021593D01*
X118296132Y-119959839D01*
X118206307Y-119877952D01*
X118206300Y-119877946D01*
X118025024Y-119765705D01*
X118025019Y-119765702D01*
X117826195Y-119688678D01*
X117616610Y-119649500D01*
X117403390Y-119649500D01*
X117193804Y-119688678D01*
X116994980Y-119765702D01*
X116994975Y-119765705D01*
X116813699Y-119877946D01*
X116813692Y-119877952D01*
X116656135Y-120021586D01*
X116656131Y-120021589D01*
X116656128Y-120021593D01*
X116656125Y-120021597D01*
X116527635Y-120191743D01*
X116527630Y-120191752D01*
X116432596Y-120382608D01*
X116374244Y-120587688D01*
X116374244Y-120587690D01*
X116354571Y-120800000D01*
X112703500Y-120800000D01*
X112703500Y-119228900D01*
X112722407Y-119170709D01*
X112732490Y-119158902D01*
X113631392Y-118260000D01*
X116354571Y-118260000D01*
X116374244Y-118472310D01*
X116432595Y-118677389D01*
X116527634Y-118868255D01*
X116656128Y-119038407D01*
X116656135Y-119038413D01*
X116813692Y-119182047D01*
X116813699Y-119182053D01*
X116858057Y-119209518D01*
X116994981Y-119294298D01*
X117193802Y-119371321D01*
X117403390Y-119410500D01*
X117616610Y-119410500D01*
X117826198Y-119371321D01*
X118025019Y-119294298D01*
X118206302Y-119182052D01*
X118363872Y-119038407D01*
X118492366Y-118868255D01*
X118587405Y-118677389D01*
X118645756Y-118472310D01*
X118665429Y-118260000D01*
X118645756Y-118047690D01*
X118587405Y-117842611D01*
X118492366Y-117651745D01*
X118363872Y-117481593D01*
X118309623Y-117432139D01*
X118206307Y-117337952D01*
X118206300Y-117337946D01*
X118025024Y-117225705D01*
X118025019Y-117225702D01*
X117932592Y-117189896D01*
X117826198Y-117148679D01*
X117826197Y-117148678D01*
X117826195Y-117148678D01*
X117616610Y-117109500D01*
X117403390Y-117109500D01*
X117193804Y-117148678D01*
X116994980Y-117225702D01*
X116994975Y-117225705D01*
X116813699Y-117337946D01*
X116813692Y-117337952D01*
X116656135Y-117481586D01*
X116656131Y-117481589D01*
X116656128Y-117481593D01*
X116656125Y-117481597D01*
X116527635Y-117651743D01*
X116527630Y-117651752D01*
X116432596Y-117842608D01*
X116374244Y-118047688D01*
X116374244Y-118047690D01*
X116354571Y-118260000D01*
X113631392Y-118260000D01*
X116189915Y-115701476D01*
X116244430Y-115673701D01*
X116304862Y-115683272D01*
X116348127Y-115726537D01*
X116358494Y-115762346D01*
X116374244Y-115932310D01*
X116432595Y-116137389D01*
X116527634Y-116328255D01*
X116656128Y-116498407D01*
X116656135Y-116498413D01*
X116813692Y-116642047D01*
X116813699Y-116642053D01*
X116858057Y-116669518D01*
X116994981Y-116754298D01*
X117193802Y-116831321D01*
X117403390Y-116870500D01*
X117616610Y-116870500D01*
X117826198Y-116831321D01*
X117930908Y-116790755D01*
X117991998Y-116787366D01*
X118036674Y-116813067D01*
X119112504Y-117888897D01*
X119140281Y-117943414D01*
X119141500Y-117958901D01*
X119141500Y-121509273D01*
X119141500Y-121614727D01*
X119141501Y-121614729D01*
X119168794Y-121716592D01*
X119221516Y-121807908D01*
X119221517Y-121807909D01*
X119221518Y-121807910D01*
X119221520Y-121807913D01*
X119744802Y-122331195D01*
X120262663Y-122849056D01*
X120290440Y-122903573D01*
X120287880Y-122946152D01*
X120233603Y-123136915D01*
X120233603Y-123136917D01*
X120214785Y-123340000D01*
X120233603Y-123543083D01*
X120289418Y-123739250D01*
X120380327Y-123921821D01*
X120503236Y-124084579D01*
X120653959Y-124221981D01*
X120827363Y-124329348D01*
X121017544Y-124403024D01*
X121218024Y-124440500D01*
X121421976Y-124440500D01*
X121622456Y-124403024D01*
X121812637Y-124329348D01*
X121986041Y-124221981D01*
X122136764Y-124084579D01*
X122259673Y-123921821D01*
X122350582Y-123739250D01*
X122406397Y-123543083D01*
X122425215Y-123340000D01*
X122406397Y-123136917D01*
X122350582Y-122940750D01*
X122259673Y-122758179D01*
X122136764Y-122595421D01*
X121986041Y-122458019D01*
X121812637Y-122350652D01*
X121622456Y-122276976D01*
X121622455Y-122276975D01*
X121622453Y-122276975D01*
X121421976Y-122239500D01*
X121218024Y-122239500D01*
X121017544Y-122276975D01*
X120937739Y-122307892D01*
X120876648Y-122311282D01*
X120831973Y-122285581D01*
X120409416Y-121863024D01*
X119971495Y-121425102D01*
X119943719Y-121370586D01*
X119942500Y-121355099D01*
X119942500Y-120800000D01*
X120214785Y-120800000D01*
X120233603Y-121003083D01*
X120289418Y-121199250D01*
X120380327Y-121381821D01*
X120503236Y-121544579D01*
X120653959Y-121681981D01*
X120827363Y-121789348D01*
X121017544Y-121863024D01*
X121218024Y-121900500D01*
X121421976Y-121900500D01*
X121622456Y-121863024D01*
X121812637Y-121789348D01*
X121986041Y-121681981D01*
X122136764Y-121544579D01*
X122259673Y-121381821D01*
X122350582Y-121199250D01*
X122406397Y-121003083D01*
X122425215Y-120800000D01*
X122406397Y-120596917D01*
X122350582Y-120400750D01*
X122259673Y-120218179D01*
X122136764Y-120055421D01*
X121986041Y-119918019D01*
X121812637Y-119810652D01*
X121622456Y-119736976D01*
X121622455Y-119736975D01*
X121622453Y-119736975D01*
X121421976Y-119699500D01*
X121218024Y-119699500D01*
X121017546Y-119736975D01*
X120995334Y-119745580D01*
X120827363Y-119810652D01*
X120718676Y-119877948D01*
X120653959Y-119918019D01*
X120503237Y-120055420D01*
X120380328Y-120218177D01*
X120380323Y-120218186D01*
X120298450Y-120382611D01*
X120289418Y-120400750D01*
X120233603Y-120596917D01*
X120214785Y-120800000D01*
X119942500Y-120800000D01*
X119942500Y-117699274D01*
X119942500Y-117699273D01*
X119929765Y-117651745D01*
X119915207Y-117597412D01*
X119915204Y-117597406D01*
X119862483Y-117506091D01*
X119862482Y-117506090D01*
X119862481Y-117506089D01*
X119862480Y-117506087D01*
X118606650Y-116250257D01*
X118578873Y-116195740D01*
X118587111Y-116142182D01*
X118585752Y-116141656D01*
X118587400Y-116137398D01*
X118587405Y-116137389D01*
X118645756Y-115932310D01*
X118665429Y-115720000D01*
X118645756Y-115507690D01*
X118587405Y-115302611D01*
X118492366Y-115111745D01*
X118414896Y-115009159D01*
X118394918Y-114951330D01*
X118412747Y-114892799D01*
X118461573Y-114855927D01*
X118493901Y-114850500D01*
X120151646Y-114850500D01*
X120209837Y-114869407D01*
X120245801Y-114918907D01*
X120245801Y-114980093D01*
X120232742Y-115006284D01*
X120189865Y-115067518D01*
X120093733Y-115273676D01*
X120041128Y-115470000D01*
X121004314Y-115470000D01*
X120999920Y-115474394D01*
X120947259Y-115565606D01*
X120920000Y-115667339D01*
X120920000Y-115772661D01*
X120947259Y-115874394D01*
X120999920Y-115965606D01*
X121004314Y-115970000D01*
X120041128Y-115970000D01*
X120093733Y-116166323D01*
X120189865Y-116372481D01*
X120320334Y-116558811D01*
X120481188Y-116719665D01*
X120667518Y-116850134D01*
X120873675Y-116946266D01*
X121062848Y-116996955D01*
X121114162Y-117030279D01*
X121136089Y-117087401D01*
X121120254Y-117146501D01*
X121072704Y-117185006D01*
X121055417Y-117189896D01*
X121017545Y-117196975D01*
X120923633Y-117233357D01*
X120827363Y-117270652D01*
X120718676Y-117337948D01*
X120653959Y-117378019D01*
X120503237Y-117515420D01*
X120380328Y-117678177D01*
X120380323Y-117678186D01*
X120298450Y-117842611D01*
X120289418Y-117860750D01*
X120233603Y-118056917D01*
X120214785Y-118260000D01*
X120233603Y-118463083D01*
X120289418Y-118659250D01*
X120380327Y-118841821D01*
X120503236Y-119004579D01*
X120653959Y-119141981D01*
X120827363Y-119249348D01*
X121017544Y-119323024D01*
X121218024Y-119360500D01*
X121421976Y-119360500D01*
X121622456Y-119323024D01*
X121812637Y-119249348D01*
X121986041Y-119141981D01*
X122136764Y-119004579D01*
X122259673Y-118841821D01*
X122350582Y-118659250D01*
X122406397Y-118463083D01*
X122425215Y-118260000D01*
X122406397Y-118056917D01*
X122350582Y-117860750D01*
X122259673Y-117678179D01*
X122136764Y-117515421D01*
X121986041Y-117378019D01*
X121812637Y-117270652D01*
X121644666Y-117205580D01*
X121622454Y-117196975D01*
X121584582Y-117189896D01*
X121530857Y-117160618D01*
X121504601Y-117105352D01*
X121515844Y-117045209D01*
X121560292Y-117003160D01*
X121577151Y-116996955D01*
X121766324Y-116946266D01*
X121972481Y-116850134D01*
X122158811Y-116719665D01*
X122319665Y-116558811D01*
X122450134Y-116372481D01*
X122546266Y-116166323D01*
X122598872Y-115970000D01*
X121635686Y-115970000D01*
X121640080Y-115965606D01*
X121692741Y-115874394D01*
X121720000Y-115772661D01*
X121720000Y-115667339D01*
X121692741Y-115565606D01*
X121640080Y-115474394D01*
X121635686Y-115470000D01*
X122598872Y-115470000D01*
X122546266Y-115273676D01*
X122450134Y-115067518D01*
X122319665Y-114881188D01*
X122232163Y-114793686D01*
X122204386Y-114739169D01*
X122213957Y-114678737D01*
X122232157Y-114653685D01*
X123799480Y-113086363D01*
X123830105Y-113033317D01*
X123852169Y-112995103D01*
X123852179Y-112995084D01*
X123852206Y-112995038D01*
X123852207Y-112995037D01*
X123879500Y-112893177D01*
X123879500Y-84806273D01*
X123852207Y-84704413D01*
X123852207Y-84704412D01*
X123852207Y-84704411D01*
X123799483Y-84613091D01*
X123799482Y-84613090D01*
X123799481Y-84613089D01*
X123799480Y-84613087D01*
X122377336Y-83190943D01*
X122349559Y-83136426D01*
X122352118Y-83093848D01*
X122406397Y-82903083D01*
X122425215Y-82700000D01*
X122406397Y-82496917D01*
X122350582Y-82300750D01*
X122259673Y-82118179D01*
X122136764Y-81955421D01*
X121986041Y-81818019D01*
X121812637Y-81710652D01*
X121622456Y-81636976D01*
X121622455Y-81636975D01*
X121622453Y-81636975D01*
X121421976Y-81599500D01*
X121218024Y-81599500D01*
X121017546Y-81636975D01*
X120947632Y-81664059D01*
X120827363Y-81710652D01*
X120677881Y-81803207D01*
X120653959Y-81818019D01*
X120503237Y-81955420D01*
X120380328Y-82118177D01*
X120380323Y-82118186D01*
X120298450Y-82282611D01*
X120289418Y-82300750D01*
X120233603Y-82496917D01*
X120214785Y-82700000D01*
X120233603Y-82903083D01*
X120289418Y-83099250D01*
X120380327Y-83281821D01*
X120503236Y-83444579D01*
X120653959Y-83581981D01*
X120827363Y-83689348D01*
X121017544Y-83763024D01*
X121218024Y-83800500D01*
X121421976Y-83800500D01*
X121622456Y-83763024D01*
X121702259Y-83732107D01*
X121763351Y-83728718D01*
X121808026Y-83754419D01*
X123049504Y-84995897D01*
X123077281Y-85050414D01*
X123078500Y-85065901D01*
X123078500Y-92035099D01*
X123059593Y-92093290D01*
X123010093Y-92129254D01*
X122948907Y-92129254D01*
X122909496Y-92105103D01*
X122513893Y-91709500D01*
X122073913Y-91269520D01*
X122073910Y-91269518D01*
X122069991Y-91265599D01*
X122042214Y-91211082D01*
X122051785Y-91150650D01*
X122073297Y-91122436D01*
X122136764Y-91064579D01*
X122259673Y-90901821D01*
X122350582Y-90719250D01*
X122406397Y-90523083D01*
X122425215Y-90320000D01*
X122406397Y-90116917D01*
X122350582Y-89920750D01*
X122259673Y-89738179D01*
X122136764Y-89575421D01*
X121986041Y-89438019D01*
X121812637Y-89330652D01*
X121622456Y-89256976D01*
X121622455Y-89256975D01*
X121622453Y-89256975D01*
X121421976Y-89219500D01*
X121218024Y-89219500D01*
X121017546Y-89256975D01*
X120947632Y-89284059D01*
X120827363Y-89330652D01*
X120677881Y-89423207D01*
X120653959Y-89438019D01*
X120503237Y-89575420D01*
X120380328Y-89738177D01*
X120380323Y-89738186D01*
X120298450Y-89902611D01*
X120289418Y-89920750D01*
X120233603Y-90116917D01*
X120214785Y-90320000D01*
X120233603Y-90523083D01*
X120289418Y-90719250D01*
X120380327Y-90901821D01*
X120477759Y-91030842D01*
X120497737Y-91088670D01*
X120479908Y-91147201D01*
X120431082Y-91184073D01*
X120398754Y-91189500D01*
X118986901Y-91189500D01*
X118928710Y-91170593D01*
X118916897Y-91160504D01*
X118606650Y-90850257D01*
X118578873Y-90795740D01*
X118587111Y-90742182D01*
X118585752Y-90741656D01*
X118587400Y-90737398D01*
X118587405Y-90737389D01*
X118645756Y-90532310D01*
X118665429Y-90320000D01*
X118645756Y-90107690D01*
X118587405Y-89902611D01*
X118492366Y-89711745D01*
X118414896Y-89609159D01*
X118394918Y-89551330D01*
X118412747Y-89492799D01*
X118461573Y-89455927D01*
X118493901Y-89450500D01*
X120102725Y-89450500D01*
X120102727Y-89450500D01*
X120204588Y-89423207D01*
X120204590Y-89423205D01*
X120204592Y-89423205D01*
X120295908Y-89370483D01*
X120295908Y-89370482D01*
X120295913Y-89370480D01*
X120831975Y-88834416D01*
X120886490Y-88806641D01*
X120937735Y-88812106D01*
X121017544Y-88843024D01*
X121218024Y-88880500D01*
X121421976Y-88880500D01*
X121622456Y-88843024D01*
X121812637Y-88769348D01*
X121986041Y-88661981D01*
X122136764Y-88524579D01*
X122259673Y-88361821D01*
X122350582Y-88179250D01*
X122406397Y-87983083D01*
X122425215Y-87780000D01*
X122406397Y-87576917D01*
X122350582Y-87380750D01*
X122259673Y-87198179D01*
X122136764Y-87035421D01*
X121986041Y-86898019D01*
X121812637Y-86790652D01*
X121622456Y-86716976D01*
X121622455Y-86716975D01*
X121622453Y-86716975D01*
X121421976Y-86679500D01*
X121218024Y-86679500D01*
X121017546Y-86716975D01*
X120947632Y-86744059D01*
X120827363Y-86790652D01*
X120677881Y-86883207D01*
X120653959Y-86898019D01*
X120503237Y-87035420D01*
X120380328Y-87198177D01*
X120380323Y-87198186D01*
X120289419Y-87380747D01*
X120233603Y-87576917D01*
X120214785Y-87780000D01*
X120233603Y-87983084D01*
X120287880Y-88173847D01*
X120285619Y-88234990D01*
X120262663Y-88270942D01*
X119913104Y-88620503D01*
X119858587Y-88648281D01*
X119843100Y-88649500D01*
X118493901Y-88649500D01*
X118435710Y-88630593D01*
X118399746Y-88581093D01*
X118399746Y-88519907D01*
X118414897Y-88490839D01*
X118492366Y-88388255D01*
X118587405Y-88197389D01*
X118645756Y-87992310D01*
X118657436Y-87866249D01*
X118681630Y-87810054D01*
X118685994Y-87805397D01*
X120438267Y-86053124D01*
X120492782Y-86025349D01*
X120553214Y-86034920D01*
X120574961Y-86049965D01*
X120653959Y-86121981D01*
X120827363Y-86229348D01*
X121017544Y-86303024D01*
X121218024Y-86340500D01*
X121421976Y-86340500D01*
X121622456Y-86303024D01*
X121812637Y-86229348D01*
X121986041Y-86121981D01*
X122136764Y-85984579D01*
X122259673Y-85821821D01*
X122350582Y-85639250D01*
X122406397Y-85443083D01*
X122425215Y-85240000D01*
X122406397Y-85036917D01*
X122350582Y-84840750D01*
X122259673Y-84658179D01*
X122136764Y-84495421D01*
X121986041Y-84358019D01*
X121812637Y-84250652D01*
X121622456Y-84176976D01*
X121622455Y-84176975D01*
X121622453Y-84176975D01*
X121421976Y-84139500D01*
X121218024Y-84139500D01*
X121017546Y-84176975D01*
X120947632Y-84204059D01*
X120827363Y-84250652D01*
X120718676Y-84317948D01*
X120653959Y-84358019D01*
X120503237Y-84495420D01*
X120380328Y-84658177D01*
X120380323Y-84658186D01*
X120289419Y-84840747D01*
X120233603Y-85036915D01*
X120227905Y-85098406D01*
X120203708Y-85154604D01*
X120199331Y-85159274D01*
X118427126Y-86931479D01*
X118372609Y-86959256D01*
X118312177Y-86949685D01*
X118290426Y-86934637D01*
X118206301Y-86857947D01*
X118206300Y-86857946D01*
X118025024Y-86745705D01*
X118025019Y-86745702D01*
X117826195Y-86668678D01*
X117616610Y-86629500D01*
X117403390Y-86629500D01*
X117193804Y-86668678D01*
X116994980Y-86745702D01*
X116994975Y-86745705D01*
X116813699Y-86857946D01*
X116813692Y-86857952D01*
X116656135Y-87001586D01*
X116656131Y-87001589D01*
X116656128Y-87001593D01*
X116656125Y-87001597D01*
X116527635Y-87171743D01*
X116527630Y-87171752D01*
X116432596Y-87362608D01*
X116374244Y-87567688D01*
X116360649Y-87714405D01*
X116336453Y-87770603D01*
X116283845Y-87801846D01*
X116222921Y-87796200D01*
X116192068Y-87775274D01*
X115876313Y-87459520D01*
X115876308Y-87459516D01*
X115784991Y-87406794D01*
X115784993Y-87406794D01*
X115745470Y-87396204D01*
X115683127Y-87379500D01*
X115683125Y-87379500D01*
X111037113Y-87379500D01*
X110978922Y-87360593D01*
X110948492Y-87324628D01*
X110872369Y-87171752D01*
X110872366Y-87171745D01*
X110794896Y-87069159D01*
X110774918Y-87011330D01*
X110792747Y-86952799D01*
X110841573Y-86915927D01*
X110873901Y-86910500D01*
X113752725Y-86910500D01*
X113752727Y-86910500D01*
X113854588Y-86883207D01*
X113854590Y-86883205D01*
X113854592Y-86883205D01*
X113945908Y-86830483D01*
X113945908Y-86830482D01*
X113945913Y-86830480D01*
X115536391Y-85240000D01*
X116354571Y-85240000D01*
X116374244Y-85452310D01*
X116432595Y-85657389D01*
X116527634Y-85848255D01*
X116656128Y-86018407D01*
X116656135Y-86018413D01*
X116813692Y-86162047D01*
X116813699Y-86162053D01*
X116858060Y-86189520D01*
X116994981Y-86274298D01*
X117193802Y-86351321D01*
X117403390Y-86390500D01*
X117616610Y-86390500D01*
X117826198Y-86351321D01*
X118025019Y-86274298D01*
X118206302Y-86162052D01*
X118363872Y-86018407D01*
X118492366Y-85848255D01*
X118587405Y-85657389D01*
X118645756Y-85452310D01*
X118665429Y-85240000D01*
X118645756Y-85027690D01*
X118587405Y-84822611D01*
X118492366Y-84631745D01*
X118363872Y-84461593D01*
X118294424Y-84398282D01*
X118206307Y-84317952D01*
X118206300Y-84317946D01*
X118025024Y-84205705D01*
X118025019Y-84205702D01*
X117826195Y-84128678D01*
X117616610Y-84089500D01*
X117403390Y-84089500D01*
X117193804Y-84128678D01*
X116994980Y-84205702D01*
X116994975Y-84205705D01*
X116813699Y-84317946D01*
X116813692Y-84317952D01*
X116656135Y-84461586D01*
X116656131Y-84461589D01*
X116656128Y-84461593D01*
X116656125Y-84461597D01*
X116527635Y-84631743D01*
X116527630Y-84631752D01*
X116432596Y-84822608D01*
X116374244Y-85027688D01*
X116374244Y-85027690D01*
X116354571Y-85240000D01*
X115536391Y-85240000D01*
X116983324Y-83793066D01*
X117037841Y-83765290D01*
X117089090Y-83770756D01*
X117165869Y-83800500D01*
X117193802Y-83811321D01*
X117403390Y-83850500D01*
X117616610Y-83850500D01*
X117826198Y-83811321D01*
X118025019Y-83734298D01*
X118206302Y-83622052D01*
X118363872Y-83478407D01*
X118492366Y-83308255D01*
X118587405Y-83117389D01*
X118645756Y-82912310D01*
X118665429Y-82700000D01*
X118645756Y-82487690D01*
X118587405Y-82282611D01*
X118492366Y-82091745D01*
X118363872Y-81921593D01*
X118269902Y-81835927D01*
X118206307Y-81777952D01*
X118206300Y-81777946D01*
X118025024Y-81665705D01*
X118025019Y-81665702D01*
X117826195Y-81588678D01*
X117616610Y-81549500D01*
X117403390Y-81549500D01*
X117193804Y-81588678D01*
X116994980Y-81665702D01*
X116994975Y-81665705D01*
X116813699Y-81777946D01*
X116813692Y-81777952D01*
X116656135Y-81921586D01*
X116656131Y-81921589D01*
X116656128Y-81921593D01*
X116656125Y-81921597D01*
X116527635Y-82091743D01*
X116527630Y-82091752D01*
X116432596Y-82282608D01*
X116374244Y-82487688D01*
X116354571Y-82700000D01*
X116374244Y-82912311D01*
X116432598Y-83117401D01*
X116434249Y-83121661D01*
X116432870Y-83122195D01*
X116440977Y-83176647D01*
X116413348Y-83230257D01*
X115729027Y-83914579D01*
X115674510Y-83942356D01*
X115614078Y-83932785D01*
X115570813Y-83889520D01*
X115560871Y-83857499D01*
X115555044Y-83813238D01*
X115520035Y-83728718D01*
X115494537Y-83667161D01*
X115494537Y-83667160D01*
X115418664Y-83568281D01*
X115398282Y-83541718D01*
X115398277Y-83541714D01*
X115398276Y-83541713D01*
X115272838Y-83445462D01*
X115126766Y-83384957D01*
X115126758Y-83384955D01*
X114970001Y-83364318D01*
X114969999Y-83364318D01*
X114813241Y-83384955D01*
X114813233Y-83384957D01*
X114667161Y-83445462D01*
X114667160Y-83445462D01*
X114536570Y-83545668D01*
X114535509Y-83544286D01*
X114488416Y-83568281D01*
X114472929Y-83569500D01*
X110873901Y-83569500D01*
X110815710Y-83550593D01*
X110779746Y-83501093D01*
X110779746Y-83439907D01*
X110794897Y-83410839D01*
X110811166Y-83389296D01*
X110872366Y-83308255D01*
X110967405Y-83117389D01*
X111025756Y-82912310D01*
X111045429Y-82700000D01*
X111025756Y-82487690D01*
X110967405Y-82282611D01*
X110872366Y-82091745D01*
X110794896Y-81989159D01*
X110774918Y-81931330D01*
X110792747Y-81872799D01*
X110841573Y-81835927D01*
X110873901Y-81830500D01*
X116292725Y-81830500D01*
X116292727Y-81830500D01*
X116394588Y-81803207D01*
X116394590Y-81803205D01*
X116394592Y-81803205D01*
X116485908Y-81750483D01*
X116485908Y-81750482D01*
X116485913Y-81750480D01*
X116983326Y-81253065D01*
X117037841Y-81225290D01*
X117089090Y-81230756D01*
X117193802Y-81271321D01*
X117403390Y-81310500D01*
X117616610Y-81310500D01*
X117826198Y-81271321D01*
X118025019Y-81194298D01*
X118206302Y-81082052D01*
X118363872Y-80938407D01*
X118492366Y-80768255D01*
X118587405Y-80577389D01*
X118645756Y-80372310D01*
X118665429Y-80160000D01*
X120214785Y-80160000D01*
X120233603Y-80363083D01*
X120289418Y-80559250D01*
X120380327Y-80741821D01*
X120503236Y-80904579D01*
X120653959Y-81041981D01*
X120827363Y-81149348D01*
X121017544Y-81223024D01*
X121218024Y-81260500D01*
X121421976Y-81260500D01*
X121622456Y-81223024D01*
X121812637Y-81149348D01*
X121986041Y-81041981D01*
X122136764Y-80904579D01*
X122259673Y-80741821D01*
X122350582Y-80559250D01*
X122406397Y-80363083D01*
X122425215Y-80160000D01*
X122406397Y-79956917D01*
X122350582Y-79760750D01*
X122259673Y-79578179D01*
X122136764Y-79415421D01*
X121986041Y-79278019D01*
X121812637Y-79170652D01*
X121622456Y-79096976D01*
X121622455Y-79096975D01*
X121622453Y-79096975D01*
X121421976Y-79059500D01*
X121218024Y-79059500D01*
X121017546Y-79096975D01*
X120947632Y-79124059D01*
X120827363Y-79170652D01*
X120718676Y-79237948D01*
X120653959Y-79278019D01*
X120503237Y-79415420D01*
X120380328Y-79578177D01*
X120380323Y-79578186D01*
X120298450Y-79742611D01*
X120289418Y-79760750D01*
X120233603Y-79956917D01*
X120214785Y-80160000D01*
X118665429Y-80160000D01*
X118645756Y-79947690D01*
X118587405Y-79742611D01*
X118492366Y-79551745D01*
X118363872Y-79381593D01*
X118292298Y-79316344D01*
X118206307Y-79237952D01*
X118206300Y-79237946D01*
X118025024Y-79125705D01*
X118025019Y-79125702D01*
X117826195Y-79048678D01*
X117616610Y-79009500D01*
X117403390Y-79009500D01*
X117193804Y-79048678D01*
X116994980Y-79125702D01*
X116994975Y-79125705D01*
X116813699Y-79237946D01*
X116813692Y-79237952D01*
X116656135Y-79381586D01*
X116656131Y-79381589D01*
X116656128Y-79381593D01*
X116656125Y-79381597D01*
X116527635Y-79551743D01*
X116527630Y-79551752D01*
X116432596Y-79742608D01*
X116374244Y-79947688D01*
X116354571Y-80160000D01*
X116374244Y-80372311D01*
X116432598Y-80577401D01*
X116434249Y-80581661D01*
X116432873Y-80582193D01*
X116440975Y-80636662D01*
X116413348Y-80690257D01*
X116103104Y-81000503D01*
X116048587Y-81028281D01*
X116033100Y-81029500D01*
X110873901Y-81029500D01*
X110815710Y-81010593D01*
X110779746Y-80961093D01*
X110779746Y-80899907D01*
X110794897Y-80870839D01*
X110872366Y-80768255D01*
X110967405Y-80577389D01*
X111025756Y-80372310D01*
X111045429Y-80160000D01*
X111025756Y-79947690D01*
X110967405Y-79742611D01*
X110872366Y-79551745D01*
X110743872Y-79381593D01*
X110672298Y-79316344D01*
X110586307Y-79237952D01*
X110586300Y-79237946D01*
X110405024Y-79125705D01*
X110405019Y-79125702D01*
X110206195Y-79048678D01*
X109996610Y-79009500D01*
X109783390Y-79009500D01*
X109573804Y-79048678D01*
X109374980Y-79125702D01*
X109374975Y-79125705D01*
X109193699Y-79237946D01*
X109193692Y-79237952D01*
X109036135Y-79381586D01*
X109036131Y-79381589D01*
X109036128Y-79381593D01*
X109036125Y-79381597D01*
X108907635Y-79551743D01*
X108907630Y-79551752D01*
X108812596Y-79742608D01*
X108754244Y-79947688D01*
X108734571Y-80160000D01*
X108754244Y-80372311D01*
X108777449Y-80453867D01*
X108807434Y-80559252D01*
X108812596Y-80577391D01*
X108903772Y-80760500D01*
X108907634Y-80768255D01*
X109035853Y-80938042D01*
X109036129Y-80938408D01*
X109092584Y-80989875D01*
X109122849Y-81043051D01*
X109116078Y-81103860D01*
X109095891Y-81133040D01*
X107343992Y-82884938D01*
X107289475Y-82912715D01*
X107229043Y-82903144D01*
X107185778Y-82859879D01*
X107175411Y-82805804D01*
X107185215Y-82700000D01*
X107166397Y-82496917D01*
X107110582Y-82300750D01*
X107019673Y-82118179D01*
X106906508Y-81968324D01*
X106886530Y-81910496D01*
X106904359Y-81851965D01*
X106953186Y-81815093D01*
X106959872Y-81813044D01*
X106996588Y-81803207D01*
X107087913Y-81750480D01*
X108178480Y-80659913D01*
X108178483Y-80659908D01*
X108231205Y-80568592D01*
X108231205Y-80568590D01*
X108231207Y-80568588D01*
X108258500Y-80466727D01*
X108258500Y-80361273D01*
X108258500Y-79858900D01*
X108277407Y-79800709D01*
X108287490Y-79788902D01*
X109363326Y-78713065D01*
X109417841Y-78685290D01*
X109469090Y-78690756D01*
X109573802Y-78731321D01*
X109783390Y-78770500D01*
X109996610Y-78770500D01*
X110206198Y-78731321D01*
X110405019Y-78654298D01*
X110586302Y-78542052D01*
X110743872Y-78398407D01*
X110872366Y-78228255D01*
X110967405Y-78037389D01*
X111025756Y-77832310D01*
X111045429Y-77620000D01*
X111025756Y-77407690D01*
X110967405Y-77202611D01*
X110872366Y-77011745D01*
X110743872Y-76841593D01*
X110689623Y-76792139D01*
X110586307Y-76697952D01*
X110586300Y-76697946D01*
X110449383Y-76613171D01*
X110409862Y-76566463D01*
X110405343Y-76505444D01*
X110437553Y-76453424D01*
X110494189Y-76430270D01*
X110501500Y-76430000D01*
X110787824Y-76430000D01*
X110847370Y-76423598D01*
X110847381Y-76423596D01*
X110982088Y-76373353D01*
X110982090Y-76373352D01*
X111097184Y-76287192D01*
X111097192Y-76287184D01*
X111183352Y-76172090D01*
X111183353Y-76172088D01*
X111233596Y-76037381D01*
X111233598Y-76037370D01*
X111240000Y-75977824D01*
X116159999Y-75977824D01*
X116166401Y-76037370D01*
X116166403Y-76037381D01*
X116216646Y-76172088D01*
X116216647Y-76172090D01*
X116302807Y-76287184D01*
X116302815Y-76287192D01*
X116417909Y-76373352D01*
X116417911Y-76373353D01*
X116552618Y-76423596D01*
X116552629Y-76423598D01*
X116612176Y-76430000D01*
X116898500Y-76430000D01*
X116956691Y-76448907D01*
X116992655Y-76498407D01*
X116992655Y-76559593D01*
X116956691Y-76609093D01*
X116950617Y-76613171D01*
X116813699Y-76697946D01*
X116813692Y-76697952D01*
X116656135Y-76841586D01*
X116656131Y-76841589D01*
X116656128Y-76841593D01*
X116656125Y-76841597D01*
X116527635Y-77011743D01*
X116527630Y-77011752D01*
X116432596Y-77202608D01*
X116374244Y-77407688D01*
X116374244Y-77407690D01*
X116354571Y-77620000D01*
X116374244Y-77832310D01*
X116432595Y-78037389D01*
X116527634Y-78228255D01*
X116656128Y-78398407D01*
X116656135Y-78398413D01*
X116813692Y-78542047D01*
X116813699Y-78542053D01*
X116917389Y-78606255D01*
X116994981Y-78654298D01*
X117193802Y-78731321D01*
X117403390Y-78770500D01*
X117616610Y-78770500D01*
X117826198Y-78731321D01*
X118025019Y-78654298D01*
X118206302Y-78542052D01*
X118363872Y-78398407D01*
X118492366Y-78228255D01*
X118587405Y-78037389D01*
X118645756Y-77832310D01*
X118665429Y-77620000D01*
X118645756Y-77407690D01*
X118587405Y-77202611D01*
X118492366Y-77011745D01*
X118363872Y-76841593D01*
X118309623Y-76792139D01*
X118206307Y-76697952D01*
X118206300Y-76697946D01*
X118069383Y-76613171D01*
X118029862Y-76566463D01*
X118025343Y-76505444D01*
X118057553Y-76453424D01*
X118114189Y-76430270D01*
X118121500Y-76430000D01*
X118407824Y-76430000D01*
X118467370Y-76423598D01*
X118467381Y-76423596D01*
X118602088Y-76373353D01*
X118602090Y-76373352D01*
X118717184Y-76287192D01*
X118717192Y-76287184D01*
X118803352Y-76172090D01*
X118803353Y-76172088D01*
X118853596Y-76037381D01*
X118853598Y-76037370D01*
X118860000Y-75977824D01*
X118860000Y-75330001D01*
X118859999Y-75330000D01*
X117943012Y-75330000D01*
X117975925Y-75272993D01*
X118010000Y-75145826D01*
X118010000Y-75014174D01*
X117975925Y-74887007D01*
X117943012Y-74830000D01*
X118859999Y-74830000D01*
X120041128Y-74830000D01*
X121004314Y-74830000D01*
X120999920Y-74834394D01*
X120947259Y-74925606D01*
X120920000Y-75027339D01*
X120920000Y-75132661D01*
X120947259Y-75234394D01*
X120999920Y-75325606D01*
X121004314Y-75330000D01*
X120041128Y-75330000D01*
X120093733Y-75526323D01*
X120189865Y-75732481D01*
X120320334Y-75918811D01*
X120481188Y-76079665D01*
X120667518Y-76210134D01*
X120873675Y-76306266D01*
X121062848Y-76356955D01*
X121114162Y-76390279D01*
X121136089Y-76447401D01*
X121120254Y-76506501D01*
X121072704Y-76545006D01*
X121055417Y-76549896D01*
X121017545Y-76556975D01*
X120943393Y-76585702D01*
X120827363Y-76630652D01*
X120718676Y-76697948D01*
X120653959Y-76738019D01*
X120503237Y-76875420D01*
X120380328Y-77038177D01*
X120380323Y-77038186D01*
X120298450Y-77202611D01*
X120289418Y-77220750D01*
X120233603Y-77416917D01*
X120214785Y-77620000D01*
X120233603Y-77823083D01*
X120289418Y-78019250D01*
X120380327Y-78201821D01*
X120503236Y-78364579D01*
X120653959Y-78501981D01*
X120827363Y-78609348D01*
X121017544Y-78683024D01*
X121218024Y-78720500D01*
X121421976Y-78720500D01*
X121622456Y-78683024D01*
X121812637Y-78609348D01*
X121986041Y-78501981D01*
X122136764Y-78364579D01*
X122259673Y-78201821D01*
X122350582Y-78019250D01*
X122406397Y-77823083D01*
X122425215Y-77620000D01*
X122406397Y-77416917D01*
X122350582Y-77220750D01*
X122259673Y-77038179D01*
X122136764Y-76875421D01*
X121986041Y-76738019D01*
X121812637Y-76630652D01*
X121646945Y-76566463D01*
X121622454Y-76556975D01*
X121584582Y-76549896D01*
X121530857Y-76520618D01*
X121504601Y-76465352D01*
X121515844Y-76405209D01*
X121560292Y-76363160D01*
X121577151Y-76356955D01*
X121766324Y-76306266D01*
X121972481Y-76210134D01*
X122158811Y-76079665D01*
X122319665Y-75918811D01*
X122450134Y-75732481D01*
X122546266Y-75526323D01*
X122598872Y-75330000D01*
X121635686Y-75330000D01*
X121640080Y-75325606D01*
X121692741Y-75234394D01*
X121720000Y-75132661D01*
X121720000Y-75027339D01*
X121692741Y-74925606D01*
X121640080Y-74834394D01*
X121635686Y-74830000D01*
X122598872Y-74830000D01*
X122546266Y-74633676D01*
X122450134Y-74427518D01*
X122319665Y-74241188D01*
X122158811Y-74080334D01*
X121972481Y-73949865D01*
X121766323Y-73853732D01*
X121570000Y-73801127D01*
X121570000Y-74764314D01*
X121565606Y-74759920D01*
X121474394Y-74707259D01*
X121372661Y-74680000D01*
X121267339Y-74680000D01*
X121165606Y-74707259D01*
X121074394Y-74759920D01*
X121070000Y-74764314D01*
X121070000Y-73801127D01*
X120873676Y-73853732D01*
X120667518Y-73949865D01*
X120481188Y-74080334D01*
X120320334Y-74241188D01*
X120189865Y-74427518D01*
X120093733Y-74633676D01*
X120041128Y-74830000D01*
X118859999Y-74830000D01*
X118860000Y-74829999D01*
X118860000Y-74182175D01*
X118853598Y-74122629D01*
X118853596Y-74122618D01*
X118803353Y-73987911D01*
X118803352Y-73987909D01*
X118717192Y-73872815D01*
X118717184Y-73872807D01*
X118602090Y-73786647D01*
X118602088Y-73786646D01*
X118467381Y-73736403D01*
X118467370Y-73736401D01*
X118407824Y-73730000D01*
X117760001Y-73730000D01*
X117760000Y-73730001D01*
X117760000Y-74646988D01*
X117702993Y-74614075D01*
X117575826Y-74580000D01*
X117444174Y-74580000D01*
X117317007Y-74614075D01*
X117260000Y-74646988D01*
X117260000Y-73730001D01*
X117259999Y-73730000D01*
X116612176Y-73730000D01*
X116552629Y-73736401D01*
X116552618Y-73736403D01*
X116417911Y-73786646D01*
X116417909Y-73786647D01*
X116302815Y-73872807D01*
X116302807Y-73872815D01*
X116216647Y-73987909D01*
X116216646Y-73987911D01*
X116166403Y-74122618D01*
X116166401Y-74122629D01*
X116160000Y-74182175D01*
X116160000Y-74829999D01*
X116160001Y-74830000D01*
X117076988Y-74830000D01*
X117044075Y-74887007D01*
X117010000Y-75014174D01*
X117010000Y-75145826D01*
X117044075Y-75272993D01*
X117076988Y-75330000D01*
X116160001Y-75330000D01*
X116160000Y-75330001D01*
X116160000Y-75977824D01*
X116159999Y-75977824D01*
X111240000Y-75977824D01*
X111240000Y-75330001D01*
X111239999Y-75330000D01*
X110323012Y-75330000D01*
X110355925Y-75272993D01*
X110390000Y-75145826D01*
X110390000Y-75014174D01*
X110355925Y-74887007D01*
X110323012Y-74830000D01*
X111239999Y-74830000D01*
X111240000Y-74829999D01*
X111240000Y-74182175D01*
X111233598Y-74122629D01*
X111233596Y-74122618D01*
X111183353Y-73987911D01*
X111183352Y-73987909D01*
X111097192Y-73872815D01*
X111097184Y-73872807D01*
X110982090Y-73786647D01*
X110982088Y-73786646D01*
X110847381Y-73736403D01*
X110847370Y-73736401D01*
X110787824Y-73730000D01*
X110140001Y-73730000D01*
X110140000Y-73730001D01*
X110140000Y-74646988D01*
X110082993Y-74614075D01*
X109955826Y-74580000D01*
X109824174Y-74580000D01*
X109697007Y-74614075D01*
X109640000Y-74646988D01*
X109640000Y-73730001D01*
X109639999Y-73730000D01*
X108992176Y-73730000D01*
X108932629Y-73736401D01*
X108932618Y-73736403D01*
X108797911Y-73786646D01*
X108797909Y-73786647D01*
X108682815Y-73872807D01*
X108682807Y-73872815D01*
X108596647Y-73987909D01*
X108596646Y-73987911D01*
X108546403Y-74122618D01*
X108546401Y-74122629D01*
X108540000Y-74182175D01*
X108540000Y-74829999D01*
X108540001Y-74830000D01*
X109456988Y-74830000D01*
X109424075Y-74887007D01*
X109390000Y-75014174D01*
X109390000Y-75145826D01*
X109424075Y-75272993D01*
X109456988Y-75330000D01*
X108540001Y-75330000D01*
X108540000Y-75330001D01*
X108540000Y-75977824D01*
X108539999Y-75977824D01*
X108546401Y-76037370D01*
X108546403Y-76037381D01*
X108596646Y-76172088D01*
X108596647Y-76172090D01*
X108682807Y-76287184D01*
X108682815Y-76287192D01*
X108797909Y-76373352D01*
X108797911Y-76373353D01*
X108932618Y-76423596D01*
X108932629Y-76423598D01*
X108992176Y-76430000D01*
X109278500Y-76430000D01*
X109336691Y-76448907D01*
X109372655Y-76498407D01*
X109372655Y-76559593D01*
X109336691Y-76609093D01*
X109330617Y-76613171D01*
X109193699Y-76697946D01*
X109193692Y-76697952D01*
X109036135Y-76841586D01*
X109036131Y-76841589D01*
X109036128Y-76841593D01*
X109036125Y-76841597D01*
X108907635Y-77011743D01*
X108907630Y-77011752D01*
X108812596Y-77202608D01*
X108754244Y-77407688D01*
X108734571Y-77620000D01*
X108754244Y-77832311D01*
X108812598Y-78037401D01*
X108814249Y-78041661D01*
X108812870Y-78042195D01*
X108820977Y-78096647D01*
X108793348Y-78150256D01*
X107537520Y-79406086D01*
X107537516Y-79406091D01*
X107484795Y-79497406D01*
X107470235Y-79551745D01*
X107457500Y-79599273D01*
X107457500Y-80207099D01*
X107438593Y-80265290D01*
X107428503Y-80277103D01*
X107342288Y-80363317D01*
X107287771Y-80391094D01*
X107227339Y-80381522D01*
X107184075Y-80338258D01*
X107173707Y-80284183D01*
X107185215Y-80160000D01*
X107166397Y-79956917D01*
X107110582Y-79760750D01*
X107019673Y-79578179D01*
X106896764Y-79415421D01*
X106746041Y-79278019D01*
X106572637Y-79170652D01*
X106382456Y-79096976D01*
X106382455Y-79096975D01*
X106382453Y-79096975D01*
X106181976Y-79059500D01*
X105978024Y-79059500D01*
X105777546Y-79096975D01*
X105707632Y-79124059D01*
X105587363Y-79170652D01*
X105478676Y-79237948D01*
X105413959Y-79278019D01*
X105273471Y-79406091D01*
X105263236Y-79415421D01*
X105184139Y-79520162D01*
X105133984Y-79555204D01*
X105105137Y-79559500D01*
X104224026Y-79559500D01*
X104165835Y-79540593D01*
X104145145Y-79520323D01*
X104119033Y-79485890D01*
X104098940Y-79428102D01*
X104116651Y-79369536D01*
X104145948Y-79341812D01*
X104187235Y-79316346D01*
X104309146Y-79194435D01*
X104399651Y-79047706D01*
X104453881Y-78884048D01*
X104464200Y-78783055D01*
X104464200Y-78683901D01*
X104464199Y-78683900D01*
X102514202Y-78683900D01*
X102514201Y-78683901D01*
X102514201Y-78783054D01*
X102524517Y-78884042D01*
X102524520Y-78884054D01*
X102578748Y-79047706D01*
X102669253Y-79194435D01*
X102791162Y-79316344D01*
X102832452Y-79341812D01*
X102872054Y-79388453D01*
X102876677Y-79449463D01*
X102859364Y-79485892D01*
X102778338Y-79592741D01*
X102724083Y-79730320D01*
X102713700Y-79816779D01*
X102713700Y-80044157D01*
X102694793Y-80102348D01*
X102684704Y-80114161D01*
X102458504Y-80340361D01*
X102403987Y-80368138D01*
X102343555Y-80358567D01*
X102300290Y-80315302D01*
X102289500Y-80270357D01*
X102289500Y-78084744D01*
X102514200Y-78084744D01*
X102514200Y-78183899D01*
X102514201Y-78183900D01*
X103239199Y-78183900D01*
X103239200Y-78183899D01*
X103239200Y-77396401D01*
X103739200Y-77396401D01*
X103739200Y-78183899D01*
X103739201Y-78183900D01*
X104464198Y-78183900D01*
X104464199Y-78183899D01*
X104464199Y-78084745D01*
X104453882Y-77983757D01*
X104453879Y-77983745D01*
X104399651Y-77820093D01*
X104309146Y-77673364D01*
X104255782Y-77620000D01*
X104974785Y-77620000D01*
X104993603Y-77823083D01*
X105049418Y-78019250D01*
X105140327Y-78201821D01*
X105263236Y-78364579D01*
X105413959Y-78501981D01*
X105587363Y-78609348D01*
X105777544Y-78683024D01*
X105978024Y-78720500D01*
X106181976Y-78720500D01*
X106382456Y-78683024D01*
X106572637Y-78609348D01*
X106746041Y-78501981D01*
X106896764Y-78364579D01*
X107019673Y-78201821D01*
X107110582Y-78019250D01*
X107166397Y-77823083D01*
X107185215Y-77620000D01*
X107166397Y-77416917D01*
X107110582Y-77220750D01*
X107019673Y-77038179D01*
X106896764Y-76875421D01*
X106746041Y-76738019D01*
X106572637Y-76630652D01*
X106382456Y-76556976D01*
X106382455Y-76556975D01*
X106382453Y-76556975D01*
X106181976Y-76519500D01*
X105978024Y-76519500D01*
X105777546Y-76556975D01*
X105753055Y-76566463D01*
X105587363Y-76630652D01*
X105478676Y-76697948D01*
X105413959Y-76738019D01*
X105263237Y-76875420D01*
X105140328Y-77038177D01*
X105140323Y-77038186D01*
X105058450Y-77202611D01*
X105049418Y-77220750D01*
X104993603Y-77416917D01*
X104974785Y-77620000D01*
X104255782Y-77620000D01*
X104187235Y-77551453D01*
X104040506Y-77460948D01*
X103876848Y-77406718D01*
X103775855Y-77396400D01*
X103739201Y-77396400D01*
X103739200Y-77396401D01*
X103239200Y-77396401D01*
X103239200Y-77396400D01*
X103202557Y-77396400D01*
X103202551Y-77396401D01*
X103101557Y-77406717D01*
X103101545Y-77406720D01*
X102937893Y-77460948D01*
X102791164Y-77551453D01*
X102669253Y-77673364D01*
X102578748Y-77820093D01*
X102524518Y-77983751D01*
X102514200Y-78084744D01*
X102289500Y-78084744D01*
X102289500Y-76125101D01*
X102308407Y-76066910D01*
X102318496Y-76055097D01*
X104138463Y-74235130D01*
X104979500Y-74235130D01*
X104979500Y-75924860D01*
X104979501Y-75924863D01*
X104982414Y-75949990D01*
X104994704Y-75977824D01*
X105027794Y-76052765D01*
X105107235Y-76132206D01*
X105210009Y-76177585D01*
X105235135Y-76180500D01*
X106924864Y-76180499D01*
X106949991Y-76177585D01*
X107052765Y-76132206D01*
X107132206Y-76052765D01*
X107177585Y-75949991D01*
X107180500Y-75924865D01*
X107180499Y-74235136D01*
X107177585Y-74210009D01*
X107132206Y-74107235D01*
X107052765Y-74027794D01*
X106949991Y-73982415D01*
X106949990Y-73982414D01*
X106949988Y-73982414D01*
X106924868Y-73979500D01*
X105235139Y-73979500D01*
X105235136Y-73979501D01*
X105210009Y-73982414D01*
X105107235Y-74027794D01*
X105027794Y-74107235D01*
X104982414Y-74210011D01*
X104979500Y-74235130D01*
X104138463Y-74235130D01*
X106166097Y-72207496D01*
X106220614Y-72179719D01*
X106236101Y-72178500D01*
X109494529Y-72178500D01*
X109552720Y-72197407D01*
X109561287Y-72204723D01*
X109563316Y-72206280D01*
X109563318Y-72206282D01*
X109688759Y-72302536D01*
X109834838Y-72363044D01*
X109952409Y-72378522D01*
X109991599Y-72383682D01*
X109991600Y-72383682D01*
X109991601Y-72383682D01*
X110022952Y-72379554D01*
X110148362Y-72363044D01*
X110294441Y-72302536D01*
X110419882Y-72206282D01*
X110516136Y-72080841D01*
X110576644Y-71934762D01*
X110597282Y-71778000D01*
X110576644Y-71621238D01*
X110516137Y-71475161D01*
X110516137Y-71475160D01*
X110419886Y-71349723D01*
X110419885Y-71349722D01*
X110419882Y-71349718D01*
X110419877Y-71349714D01*
X110419876Y-71349713D01*
X110310940Y-71266124D01*
X110294441Y-71253464D01*
X110294440Y-71253463D01*
X110294438Y-71253462D01*
X110148366Y-71192957D01*
X110148358Y-71192955D01*
X109991601Y-71172318D01*
X109991599Y-71172318D01*
X109834841Y-71192955D01*
X109834833Y-71192957D01*
X109688761Y-71253462D01*
X109688760Y-71253462D01*
X109558170Y-71353668D01*
X109557109Y-71352286D01*
X109510016Y-71376281D01*
X109494529Y-71377500D01*
X106081927Y-71377500D01*
X105976473Y-71377500D01*
X105914129Y-71394204D01*
X105874607Y-71404794D01*
X105783291Y-71457516D01*
X101568516Y-75672291D01*
X101515793Y-75763611D01*
X101515792Y-75763611D01*
X101515793Y-75763612D01*
X101488500Y-75865473D01*
X101488500Y-81318228D01*
X101475237Y-81367728D01*
X101456424Y-81400312D01*
X101456423Y-81400314D01*
X101456423Y-81400315D01*
X101415499Y-81553043D01*
X101075500Y-81553043D01*
X101075500Y-71273891D01*
X101075805Y-71266124D01*
X101076801Y-71253464D01*
X101089595Y-71090900D01*
X101092022Y-71075571D01*
X101132146Y-70908445D01*
X101136942Y-70893686D01*
X101202718Y-70734890D01*
X101209755Y-70721078D01*
X101299564Y-70574523D01*
X101308684Y-70561971D01*
X101420309Y-70431275D01*
X101431275Y-70420309D01*
X101561971Y-70308684D01*
X101574523Y-70299564D01*
X101721078Y-70209755D01*
X101734890Y-70202718D01*
X101893686Y-70136942D01*
X101908445Y-70132146D01*
X102075571Y-70092022D01*
X102090900Y-70089595D01*
X102266125Y-70075805D01*
X102273892Y-70075500D01*
X102294531Y-70075500D01*
X125105469Y-70075500D01*
X125126108Y-70075500D01*
X125133875Y-70075805D01*
G37*
G04 #@! TD.AperFunction*
M02*
