G04 #@! TF.GenerationSoftware,KiCad,Pcbnew,7.0.11+dfsg-1build4*
G04 #@! TF.CreationDate,2024-11-02T00:34:03+09:00*
G04 #@! TF.ProjectId,bionic-z80,62696f6e-6963-42d7-9a38-302e6b696361,3*
G04 #@! TF.SameCoordinates,Original*
G04 #@! TF.FileFunction,Copper,L2,Bot*
G04 #@! TF.FilePolarity,Positive*
%FSLAX46Y46*%
G04 Gerber Fmt 4.6, Leading zero omitted, Abs format (unit mm)*
G04 Created by KiCad (PCBNEW 7.0.11+dfsg-1build4) date 2024-11-02 00:34:03*
%MOMM*%
%LPD*%
G01*
G04 APERTURE LIST*
G04 #@! TA.AperFunction,ComponentPad*
%ADD10R,1.600000X1.600000*%
G04 #@! TD*
G04 #@! TA.AperFunction,ComponentPad*
%ADD11O,1.600000X1.600000*%
G04 #@! TD*
G04 #@! TA.AperFunction,ComponentPad*
%ADD12R,1.700000X1.700000*%
G04 #@! TD*
G04 #@! TA.AperFunction,ComponentPad*
%ADD13O,1.700000X1.700000*%
G04 #@! TD*
G04 #@! TA.AperFunction,ViaPad*
%ADD14C,0.600000*%
G04 #@! TD*
G04 #@! TA.AperFunction,Conductor*
%ADD15C,0.200000*%
G04 #@! TD*
G04 APERTURE END LIST*
D10*
X107350000Y-75080000D03*
D11*
X107350000Y-77620000D03*
X107350000Y-80160000D03*
X107350000Y-82700000D03*
X107350000Y-85240000D03*
X107350000Y-87780000D03*
X107350000Y-90320000D03*
X107350000Y-92860000D03*
X107350000Y-95400000D03*
X107350000Y-97940000D03*
X107350000Y-100480000D03*
X107350000Y-103020000D03*
X107350000Y-105560000D03*
X107350000Y-108100000D03*
X107350000Y-110640000D03*
X107350000Y-113180000D03*
X107350000Y-115720000D03*
X107350000Y-118260000D03*
X107350000Y-120800000D03*
X107350000Y-123340000D03*
X122590000Y-123340000D03*
X122590000Y-120800000D03*
X122590000Y-118260000D03*
X122590000Y-115720000D03*
X122590000Y-113180000D03*
X122590000Y-110640000D03*
X122590000Y-108100000D03*
X122590000Y-105560000D03*
X122590000Y-103020000D03*
X122590000Y-100480000D03*
X122590000Y-97940000D03*
X122590000Y-95400000D03*
X122590000Y-92860000D03*
X122590000Y-90320000D03*
X122590000Y-87780000D03*
X122590000Y-85240000D03*
X122590000Y-82700000D03*
X122590000Y-80160000D03*
X122590000Y-77620000D03*
X122590000Y-75080000D03*
D12*
X111160000Y-75080000D03*
D13*
X111160000Y-77620000D03*
X111160000Y-80160000D03*
X111160000Y-82700000D03*
X111160000Y-85240000D03*
X111160000Y-87780000D03*
X111160000Y-90320000D03*
X111160000Y-92860000D03*
X111160000Y-95400000D03*
X111160000Y-97940000D03*
X111160000Y-100480000D03*
X111160000Y-103020000D03*
X111160000Y-105560000D03*
X111160000Y-108100000D03*
X111160000Y-110640000D03*
X111160000Y-113180000D03*
X111160000Y-115720000D03*
X111160000Y-118260000D03*
X111160000Y-120800000D03*
X111160000Y-123340000D03*
X111160000Y-125880000D03*
X111160000Y-128420000D03*
X111160000Y-130960000D03*
X111160000Y-133500000D03*
X118780000Y-133500000D03*
X118780000Y-130960000D03*
X118780000Y-128420000D03*
X118780000Y-125880000D03*
X118780000Y-123340000D03*
X118780000Y-120800000D03*
X118780000Y-118260000D03*
X118780000Y-115720000D03*
X118780000Y-113180000D03*
X118780000Y-110640000D03*
X118780000Y-108100000D03*
X118780000Y-105560000D03*
X118780000Y-103020000D03*
X118780000Y-100480000D03*
X118780000Y-97940000D03*
X118780000Y-95400000D03*
X118780000Y-92860000D03*
X118780000Y-90320000D03*
X118780000Y-87780000D03*
X118780000Y-85240000D03*
X118780000Y-82700000D03*
X118780000Y-80160000D03*
X118780000Y-77620000D03*
D12*
X118780000Y-75080000D03*
D14*
X111287000Y-71778000D03*
X102905000Y-101877000D03*
X126400000Y-103020000D03*
X103540000Y-73810000D03*
X114970000Y-120800000D03*
X114970000Y-113180000D03*
X123860000Y-132357000D03*
X116240000Y-131849000D03*
X107350000Y-128420000D03*
X114970000Y-89050000D03*
X113192000Y-79398000D03*
X106080000Y-78890000D03*
X115570000Y-90066000D03*
X114716000Y-104544000D03*
X113319000Y-100861000D03*
X114081000Y-97559000D03*
D15*
X122590000Y-105560000D02*
X120812000Y-107338000D01*
X120812000Y-107338000D02*
X120812000Y-111148000D01*
X120812000Y-111148000D02*
X118780000Y-113180000D01*
X111160000Y-128420000D02*
X117510000Y-122070000D01*
X117510000Y-122070000D02*
X119415000Y-122070000D01*
X120812000Y-117498000D02*
X122590000Y-115720000D01*
X119415000Y-122070000D02*
X120812000Y-120673000D01*
X120812000Y-120673000D02*
X120812000Y-117498000D01*
X111160000Y-130960000D02*
X112684000Y-129436000D01*
X112684000Y-129436000D02*
X112684000Y-127531000D01*
X112684000Y-127531000D02*
X115605000Y-124610000D01*
X115605000Y-124610000D02*
X119542000Y-124610000D01*
X119542000Y-124610000D02*
X122082000Y-122070000D01*
X122082000Y-122070000D02*
X123098000Y-122070000D01*
X123098000Y-122070000D02*
X124114000Y-121054000D01*
X124114000Y-121054000D02*
X124114000Y-112164000D01*
X124114000Y-112164000D02*
X122590000Y-110640000D01*
X104175000Y-100607000D02*
X102905000Y-101877000D01*
X104175000Y-75207000D02*
X104175000Y-100607000D01*
X111287000Y-71778000D02*
X107604000Y-71778000D01*
X107604000Y-71778000D02*
X104175000Y-75207000D01*
X117002000Y-116482000D02*
X118780000Y-118260000D01*
X109890000Y-86510000D02*
X111795000Y-86510000D01*
X107350000Y-87780000D02*
X108620000Y-87780000D01*
X108620000Y-87780000D02*
X109890000Y-86510000D01*
X113065000Y-87780000D02*
X113065000Y-89431000D01*
X111795000Y-86510000D02*
X113065000Y-87780000D01*
X117002000Y-93368000D02*
X117002000Y-116482000D01*
X113065000Y-89431000D02*
X117002000Y-93368000D01*
X119415000Y-87780000D02*
X118780000Y-87780000D01*
X122590000Y-90320000D02*
X121955000Y-90320000D01*
X121955000Y-90320000D02*
X119415000Y-87780000D01*
X120050000Y-86510000D02*
X123098000Y-86510000D01*
X123098000Y-86510000D02*
X124114000Y-87526000D01*
X124114000Y-87526000D02*
X124114000Y-91336000D01*
X118780000Y-85240000D02*
X120050000Y-86510000D01*
X124114000Y-91336000D02*
X122590000Y-92860000D01*
X118780000Y-82700000D02*
X120050000Y-83970000D01*
X123098000Y-83970000D02*
X124514000Y-85386000D01*
X120050000Y-83970000D02*
X123098000Y-83970000D01*
X124514000Y-93476000D02*
X122590000Y-95400000D01*
X124514000Y-85386000D02*
X124514000Y-93476000D01*
X123225000Y-81430000D02*
X124914000Y-83119000D01*
X118780000Y-80160000D02*
X120050000Y-81430000D01*
X124914000Y-95616000D02*
X122590000Y-97940000D01*
X124914000Y-83119000D02*
X124914000Y-95616000D01*
X120050000Y-81430000D02*
X123225000Y-81430000D01*
X118780000Y-77620000D02*
X120050000Y-78890000D01*
X125314000Y-97756000D02*
X122590000Y-100480000D01*
X123113818Y-78890000D02*
X125314000Y-81090182D01*
X120050000Y-78890000D02*
X123113818Y-78890000D01*
X125314000Y-81090182D02*
X125314000Y-97756000D01*
X114970000Y-89050000D02*
X114970000Y-81176000D01*
X114970000Y-81176000D02*
X113192000Y-79398000D01*
X109128000Y-97432000D02*
X109128000Y-103782000D01*
X111160000Y-95400000D02*
X109128000Y-97432000D01*
X109128000Y-103782000D02*
X107350000Y-105560000D01*
X111160000Y-92860000D02*
X109128000Y-94892000D01*
X109128000Y-96162000D02*
X107350000Y-97940000D01*
X109128000Y-94892000D02*
X109128000Y-96162000D01*
X111160000Y-90320000D02*
X109128000Y-92352000D01*
X109128000Y-93622000D02*
X107350000Y-95400000D01*
X109128000Y-92352000D02*
X109128000Y-93622000D01*
X110525000Y-87780000D02*
X107985000Y-90320000D01*
X107985000Y-90320000D02*
X107350000Y-90320000D01*
X111160000Y-87780000D02*
X110525000Y-87780000D01*
X111160000Y-85240000D02*
X109890000Y-85240000D01*
X106842000Y-86510000D02*
X105826000Y-87526000D01*
X109890000Y-85240000D02*
X108620000Y-86510000D01*
X105826000Y-91336000D02*
X107350000Y-92860000D01*
X108620000Y-86510000D02*
X106842000Y-86510000D01*
X105826000Y-87526000D02*
X105826000Y-91336000D01*
X105426000Y-85386000D02*
X105426000Y-101096000D01*
X111160000Y-82700000D02*
X109890000Y-83970000D01*
X105426000Y-101096000D02*
X107350000Y-103020000D01*
X106842000Y-83970000D02*
X105426000Y-85386000D01*
X109890000Y-83970000D02*
X106842000Y-83970000D01*
X104626000Y-80344000D02*
X104626000Y-107916000D01*
X104626000Y-107916000D02*
X107350000Y-110640000D01*
X106080000Y-78890000D02*
X104626000Y-80344000D01*
X106842000Y-81430000D02*
X108366000Y-81430000D01*
X109128000Y-80668000D02*
X109128000Y-79652000D01*
X107350000Y-108100000D02*
X105026000Y-105776000D01*
X109128000Y-79652000D02*
X111160000Y-77620000D01*
X105026000Y-105776000D02*
X105026000Y-83246000D01*
X108366000Y-81430000D02*
X109128000Y-80668000D01*
X105026000Y-83246000D02*
X106842000Y-81430000D01*
X111668000Y-76350000D02*
X108620000Y-76350000D01*
X115570000Y-80252000D02*
X111668000Y-76350000D01*
X115570000Y-90066000D02*
X115570000Y-80252000D01*
X114716000Y-104544000D02*
X111160000Y-108100000D01*
X108620000Y-76350000D02*
X107350000Y-75080000D01*
X113319000Y-100861000D02*
X111160000Y-103020000D01*
X114081000Y-97559000D02*
X111160000Y-100480000D01*
X109128000Y-123848000D02*
X111160000Y-125880000D01*
X107350000Y-115720000D02*
X109128000Y-117498000D01*
X109128000Y-117498000D02*
X109128000Y-123848000D01*
X107350000Y-113180000D02*
X109636000Y-115466000D01*
X109636000Y-115466000D02*
X109636000Y-121816000D01*
X109636000Y-121816000D02*
X111160000Y-123340000D01*
X124622000Y-121308000D02*
X124622000Y-103139091D01*
X122590000Y-123340000D02*
X124622000Y-121308000D01*
X124622000Y-103139091D02*
X123232909Y-101750000D01*
X123232909Y-101750000D02*
X120050000Y-101750000D01*
X120050000Y-101750000D02*
X118780000Y-100480000D01*
G04 #@! TA.AperFunction,Conductor*
G36*
X112557702Y-87909805D02*
G01*
X112578181Y-87930284D01*
X112611666Y-87991607D01*
X112614500Y-88017965D01*
X112614500Y-89398738D01*
X112613720Y-89412623D01*
X112609729Y-89448036D01*
X112620355Y-89504196D01*
X112621132Y-89508765D01*
X112629652Y-89565291D01*
X112632162Y-89573427D01*
X112634976Y-89581470D01*
X112661688Y-89632011D01*
X112663776Y-89636149D01*
X112688574Y-89687641D01*
X112693362Y-89694665D01*
X112698431Y-89701532D01*
X112698434Y-89701538D01*
X112698438Y-89701542D01*
X112738847Y-89741951D01*
X112742064Y-89745290D01*
X112780947Y-89787196D01*
X112788210Y-89792988D01*
X112787689Y-89793641D01*
X112799930Y-89803034D01*
X114659950Y-91663054D01*
X116515181Y-93518284D01*
X116548666Y-93579607D01*
X116551500Y-93605965D01*
X116551500Y-116449738D01*
X116550720Y-116463623D01*
X116546729Y-116499036D01*
X116557355Y-116555196D01*
X116558132Y-116559765D01*
X116566652Y-116616291D01*
X116569162Y-116624427D01*
X116571976Y-116632470D01*
X116571976Y-116632471D01*
X116571977Y-116632472D01*
X116598219Y-116682125D01*
X116598688Y-116683011D01*
X116600776Y-116687149D01*
X116625574Y-116738641D01*
X116630362Y-116745665D01*
X116635431Y-116752532D01*
X116635434Y-116752538D01*
X116635438Y-116752542D01*
X116675846Y-116792950D01*
X116679063Y-116796289D01*
X116717947Y-116838196D01*
X116725210Y-116843988D01*
X116724689Y-116844641D01*
X116736930Y-116854034D01*
X117615672Y-117732776D01*
X117649157Y-117794099D01*
X117647258Y-117854391D01*
X117594884Y-118038468D01*
X117574357Y-118259999D01*
X117574357Y-118260000D01*
X117594884Y-118481535D01*
X117594885Y-118481537D01*
X117655769Y-118695523D01*
X117655775Y-118695538D01*
X117754938Y-118894683D01*
X117754943Y-118894691D01*
X117889020Y-119072238D01*
X118053437Y-119222123D01*
X118053439Y-119222125D01*
X118242595Y-119339245D01*
X118242596Y-119339245D01*
X118242599Y-119339247D01*
X118436524Y-119414374D01*
X118491924Y-119456946D01*
X118515515Y-119522713D01*
X118499804Y-119590793D01*
X118449780Y-119639572D01*
X118436533Y-119645622D01*
X118325389Y-119688680D01*
X118242601Y-119720752D01*
X118242595Y-119720754D01*
X118053439Y-119837874D01*
X118053437Y-119837876D01*
X117889020Y-119987761D01*
X117754943Y-120165308D01*
X117754938Y-120165316D01*
X117655775Y-120364461D01*
X117655769Y-120364476D01*
X117594885Y-120578462D01*
X117594884Y-120578464D01*
X117574357Y-120799999D01*
X117574357Y-120800000D01*
X117594884Y-121021535D01*
X117594885Y-121021537D01*
X117655769Y-121235523D01*
X117655775Y-121235538D01*
X117757497Y-121439821D01*
X117755142Y-121440993D01*
X117770731Y-121497584D01*
X117749923Y-121564283D01*
X117696358Y-121609144D01*
X117646749Y-121619500D01*
X117542262Y-121619500D01*
X117528379Y-121618720D01*
X117520914Y-121617879D01*
X117492963Y-121614729D01*
X117436810Y-121625354D01*
X117432241Y-121626131D01*
X117375715Y-121634651D01*
X117367532Y-121637175D01*
X117359529Y-121639976D01*
X117308985Y-121666689D01*
X117304848Y-121668777D01*
X117253358Y-121693573D01*
X117246338Y-121698359D01*
X117239460Y-121703435D01*
X117199058Y-121743837D01*
X117195722Y-121747051D01*
X117153804Y-121785946D01*
X117148013Y-121793208D01*
X117147362Y-121792688D01*
X117137967Y-121804928D01*
X112481418Y-126461477D01*
X112420095Y-126494962D01*
X112350403Y-126489978D01*
X112294470Y-126448106D01*
X112270053Y-126382642D01*
X112282264Y-126320926D01*
X112282154Y-126320884D01*
X112282396Y-126320258D01*
X112282741Y-126318516D01*
X112284229Y-126315528D01*
X112345115Y-126101536D01*
X112365643Y-125880000D01*
X112345115Y-125658464D01*
X112284229Y-125444472D01*
X112238570Y-125352776D01*
X112185061Y-125245316D01*
X112185056Y-125245308D01*
X112050979Y-125067761D01*
X111886562Y-124917876D01*
X111886560Y-124917874D01*
X111697404Y-124800754D01*
X111697395Y-124800750D01*
X111603956Y-124764552D01*
X111503475Y-124725625D01*
X111448075Y-124683054D01*
X111424484Y-124617288D01*
X111440195Y-124549207D01*
X111490219Y-124500428D01*
X111503466Y-124494377D01*
X111697401Y-124419247D01*
X111886562Y-124302124D01*
X112026282Y-124174751D01*
X112050979Y-124152238D01*
X112053316Y-124149144D01*
X112185058Y-123974689D01*
X112284229Y-123775528D01*
X112345115Y-123561536D01*
X112365643Y-123340000D01*
X112345115Y-123118464D01*
X112284229Y-122904472D01*
X112284224Y-122904461D01*
X112185061Y-122705316D01*
X112185056Y-122705308D01*
X112050979Y-122527761D01*
X111886562Y-122377876D01*
X111886560Y-122377874D01*
X111697404Y-122260754D01*
X111697395Y-122260750D01*
X111603956Y-122224552D01*
X111503475Y-122185625D01*
X111448075Y-122143054D01*
X111424484Y-122077288D01*
X111440195Y-122009207D01*
X111490219Y-121960428D01*
X111503466Y-121954377D01*
X111697401Y-121879247D01*
X111886562Y-121762124D01*
X112043013Y-121619500D01*
X112050979Y-121612238D01*
X112053316Y-121609144D01*
X112185058Y-121434689D01*
X112284229Y-121235528D01*
X112345115Y-121021536D01*
X112365643Y-120800000D01*
X112345115Y-120578464D01*
X112284229Y-120364472D01*
X112233500Y-120262595D01*
X112185061Y-120165316D01*
X112185056Y-120165308D01*
X112050979Y-119987761D01*
X111886562Y-119837876D01*
X111886560Y-119837874D01*
X111697404Y-119720754D01*
X111697395Y-119720750D01*
X111603956Y-119684552D01*
X111503475Y-119645625D01*
X111448075Y-119603054D01*
X111424484Y-119537288D01*
X111440195Y-119469207D01*
X111490219Y-119420428D01*
X111503466Y-119414377D01*
X111697401Y-119339247D01*
X111886562Y-119222124D01*
X112050981Y-119072236D01*
X112185058Y-118894689D01*
X112284229Y-118695528D01*
X112345115Y-118481536D01*
X112365643Y-118260000D01*
X112345115Y-118038464D01*
X112284229Y-117824472D01*
X112267077Y-117790026D01*
X112185061Y-117625316D01*
X112185056Y-117625308D01*
X112050979Y-117447761D01*
X111886562Y-117297876D01*
X111886560Y-117297874D01*
X111697404Y-117180754D01*
X111697395Y-117180750D01*
X111603956Y-117144552D01*
X111503475Y-117105625D01*
X111448075Y-117063054D01*
X111424484Y-116997288D01*
X111440195Y-116929207D01*
X111490219Y-116880428D01*
X111503466Y-116874377D01*
X111697401Y-116799247D01*
X111886562Y-116682124D01*
X112050981Y-116532236D01*
X112185058Y-116354689D01*
X112284229Y-116155528D01*
X112345115Y-115941536D01*
X112365643Y-115720000D01*
X112356032Y-115616284D01*
X112345115Y-115498464D01*
X112345114Y-115498462D01*
X112284230Y-115284476D01*
X112284229Y-115284472D01*
X112284224Y-115284461D01*
X112185061Y-115085316D01*
X112185056Y-115085308D01*
X112050979Y-114907761D01*
X111886562Y-114757876D01*
X111886560Y-114757874D01*
X111697404Y-114640754D01*
X111697395Y-114640750D01*
X111603956Y-114604552D01*
X111503475Y-114565625D01*
X111448075Y-114523054D01*
X111424484Y-114457288D01*
X111440195Y-114389207D01*
X111490219Y-114340428D01*
X111503466Y-114334377D01*
X111697401Y-114259247D01*
X111886562Y-114142124D01*
X112050981Y-113992236D01*
X112185058Y-113814689D01*
X112284229Y-113615528D01*
X112345115Y-113401536D01*
X112365643Y-113180000D01*
X112345115Y-112958464D01*
X112284229Y-112744472D01*
X112284224Y-112744461D01*
X112185061Y-112545316D01*
X112185056Y-112545308D01*
X112050979Y-112367761D01*
X111886562Y-112217876D01*
X111886560Y-112217874D01*
X111697404Y-112100754D01*
X111697395Y-112100750D01*
X111603956Y-112064552D01*
X111503475Y-112025625D01*
X111448075Y-111983054D01*
X111424484Y-111917288D01*
X111440195Y-111849207D01*
X111490219Y-111800428D01*
X111503466Y-111794377D01*
X111697401Y-111719247D01*
X111886562Y-111602124D01*
X112050981Y-111452236D01*
X112185058Y-111274689D01*
X112284229Y-111075528D01*
X112345115Y-110861536D01*
X112365643Y-110640000D01*
X112345115Y-110418464D01*
X112284229Y-110204472D01*
X112284224Y-110204461D01*
X112185061Y-110005316D01*
X112185056Y-110005308D01*
X112050979Y-109827761D01*
X111886562Y-109677876D01*
X111886560Y-109677874D01*
X111697404Y-109560754D01*
X111697395Y-109560750D01*
X111603956Y-109524552D01*
X111503475Y-109485625D01*
X111448075Y-109443054D01*
X111424484Y-109377288D01*
X111440195Y-109309207D01*
X111490219Y-109260428D01*
X111503466Y-109254377D01*
X111697401Y-109179247D01*
X111886562Y-109062124D01*
X112050981Y-108912236D01*
X112185058Y-108734689D01*
X112284229Y-108535528D01*
X112345115Y-108321536D01*
X112365643Y-108100000D01*
X112361036Y-108050287D01*
X112345115Y-107878464D01*
X112345114Y-107878461D01*
X112292742Y-107694390D01*
X112293329Y-107624523D01*
X112324325Y-107572777D01*
X114666285Y-105230819D01*
X114727608Y-105197334D01*
X114753966Y-105194500D01*
X114794985Y-105194500D01*
X114948365Y-105156696D01*
X115009754Y-105124476D01*
X115088240Y-105083283D01*
X115206483Y-104978530D01*
X115296220Y-104848523D01*
X115352237Y-104700818D01*
X115371278Y-104544000D01*
X115365062Y-104492802D01*
X115352237Y-104387181D01*
X115312617Y-104282713D01*
X115296220Y-104239477D01*
X115206483Y-104109470D01*
X115088240Y-104004717D01*
X115088238Y-104004716D01*
X115088237Y-104004715D01*
X114948365Y-103931303D01*
X114794986Y-103893500D01*
X114794985Y-103893500D01*
X114637015Y-103893500D01*
X114637014Y-103893500D01*
X114483634Y-103931303D01*
X114343762Y-104004715D01*
X114343760Y-104004717D01*
X114238582Y-104097896D01*
X114225516Y-104109471D01*
X114135781Y-104239475D01*
X114135780Y-104239476D01*
X114079763Y-104387180D01*
X114063367Y-104522209D01*
X114035745Y-104586387D01*
X114027952Y-104594943D01*
X112481418Y-106141477D01*
X112420095Y-106174962D01*
X112350403Y-106169978D01*
X112294470Y-106128106D01*
X112270053Y-106062642D01*
X112282264Y-106000926D01*
X112282154Y-106000884D01*
X112282396Y-106000258D01*
X112282741Y-105998516D01*
X112284229Y-105995528D01*
X112345115Y-105781536D01*
X112365643Y-105560000D01*
X112345115Y-105338464D01*
X112284229Y-105124472D01*
X112284224Y-105124461D01*
X112185061Y-104925316D01*
X112185056Y-104925308D01*
X112050979Y-104747761D01*
X111886562Y-104597876D01*
X111886560Y-104597874D01*
X111697404Y-104480754D01*
X111697395Y-104480750D01*
X111581023Y-104435668D01*
X111503475Y-104405625D01*
X111448075Y-104363054D01*
X111424484Y-104297288D01*
X111440195Y-104229207D01*
X111490219Y-104180428D01*
X111503466Y-104174377D01*
X111697401Y-104099247D01*
X111886562Y-103982124D01*
X112050981Y-103832236D01*
X112185058Y-103654689D01*
X112284229Y-103455528D01*
X112345115Y-103241536D01*
X112365643Y-103020000D01*
X112363480Y-102996662D01*
X112345115Y-102798464D01*
X112345114Y-102798461D01*
X112292742Y-102614390D01*
X112293329Y-102544523D01*
X112324325Y-102492777D01*
X113269284Y-101547819D01*
X113330607Y-101514334D01*
X113356965Y-101511500D01*
X113397985Y-101511500D01*
X113551365Y-101473696D01*
X113560970Y-101468655D01*
X113691240Y-101400283D01*
X113809483Y-101295530D01*
X113899220Y-101165523D01*
X113955237Y-101017818D01*
X113974278Y-100861000D01*
X113955237Y-100704182D01*
X113955236Y-100704180D01*
X113933992Y-100648164D01*
X113899220Y-100556477D01*
X113809483Y-100426470D01*
X113691240Y-100321717D01*
X113691238Y-100321716D01*
X113691237Y-100321715D01*
X113551365Y-100248303D01*
X113397986Y-100210500D01*
X113397985Y-100210500D01*
X113240015Y-100210500D01*
X113240014Y-100210500D01*
X113086634Y-100248303D01*
X112946762Y-100321715D01*
X112828516Y-100426471D01*
X112738781Y-100556475D01*
X112738780Y-100556476D01*
X112682763Y-100704180D01*
X112666367Y-100839208D01*
X112638745Y-100903386D01*
X112630952Y-100911942D01*
X112481419Y-101061475D01*
X112420096Y-101094960D01*
X112350404Y-101089976D01*
X112294471Y-101048104D01*
X112270054Y-100982640D01*
X112282264Y-100920926D01*
X112282154Y-100920884D01*
X112282397Y-100920255D01*
X112282742Y-100918514D01*
X112284229Y-100915528D01*
X112345115Y-100701536D01*
X112365643Y-100480000D01*
X112363485Y-100456716D01*
X112345115Y-100258464D01*
X112345114Y-100258461D01*
X112292742Y-100074390D01*
X112293329Y-100004523D01*
X112324325Y-99952777D01*
X114031284Y-98245819D01*
X114092607Y-98212334D01*
X114118965Y-98209500D01*
X114159985Y-98209500D01*
X114313365Y-98171696D01*
X114350301Y-98152310D01*
X114453240Y-98098283D01*
X114571483Y-97993530D01*
X114661220Y-97863523D01*
X114717237Y-97715818D01*
X114736278Y-97559000D01*
X114730257Y-97509408D01*
X114717237Y-97402181D01*
X114687979Y-97325034D01*
X114661220Y-97254477D01*
X114571483Y-97124470D01*
X114453240Y-97019717D01*
X114453238Y-97019716D01*
X114453237Y-97019715D01*
X114313365Y-96946303D01*
X114159986Y-96908500D01*
X114159985Y-96908500D01*
X114002015Y-96908500D01*
X114002014Y-96908500D01*
X113848634Y-96946303D01*
X113708762Y-97019715D01*
X113590516Y-97124471D01*
X113500781Y-97254475D01*
X113500780Y-97254476D01*
X113444763Y-97402180D01*
X113428367Y-97537208D01*
X113400745Y-97601386D01*
X113392952Y-97609942D01*
X112481418Y-98521476D01*
X112420095Y-98554961D01*
X112350403Y-98549977D01*
X112294470Y-98508105D01*
X112270053Y-98442641D01*
X112282264Y-98380926D01*
X112282154Y-98380884D01*
X112282397Y-98380254D01*
X112282742Y-98378513D01*
X112284229Y-98375528D01*
X112345115Y-98161536D01*
X112365643Y-97940000D01*
X112361438Y-97894625D01*
X112345115Y-97718464D01*
X112345114Y-97718462D01*
X112338918Y-97696686D01*
X112284229Y-97504472D01*
X112284224Y-97504461D01*
X112185061Y-97305316D01*
X112185056Y-97305308D01*
X112050979Y-97127761D01*
X111886562Y-96977876D01*
X111886560Y-96977874D01*
X111697404Y-96860754D01*
X111697395Y-96860750D01*
X111581023Y-96815668D01*
X111503475Y-96785625D01*
X111448075Y-96743054D01*
X111424484Y-96677288D01*
X111440195Y-96609207D01*
X111490219Y-96560428D01*
X111503466Y-96554377D01*
X111697401Y-96479247D01*
X111886562Y-96362124D01*
X112050981Y-96212236D01*
X112185058Y-96034689D01*
X112284229Y-95835528D01*
X112345115Y-95621536D01*
X112365643Y-95400000D01*
X112345115Y-95178464D01*
X112284229Y-94964472D01*
X112284224Y-94964461D01*
X112185061Y-94765316D01*
X112185056Y-94765308D01*
X112050979Y-94587761D01*
X111886562Y-94437876D01*
X111886560Y-94437874D01*
X111697404Y-94320754D01*
X111697395Y-94320750D01*
X111581023Y-94275668D01*
X111503475Y-94245625D01*
X111448075Y-94203054D01*
X111424484Y-94137288D01*
X111440195Y-94069207D01*
X111490219Y-94020428D01*
X111503466Y-94014377D01*
X111697401Y-93939247D01*
X111886562Y-93822124D01*
X112050981Y-93672236D01*
X112185058Y-93494689D01*
X112284229Y-93295528D01*
X112345115Y-93081536D01*
X112365643Y-92860000D01*
X112345115Y-92638464D01*
X112284229Y-92424472D01*
X112284224Y-92424461D01*
X112185061Y-92225316D01*
X112185056Y-92225308D01*
X112050979Y-92047761D01*
X111886562Y-91897876D01*
X111886560Y-91897874D01*
X111697404Y-91780754D01*
X111697395Y-91780750D01*
X111603956Y-91744552D01*
X111503475Y-91705625D01*
X111448075Y-91663054D01*
X111424484Y-91597288D01*
X111440195Y-91529207D01*
X111490219Y-91480428D01*
X111503466Y-91474377D01*
X111697401Y-91399247D01*
X111886562Y-91282124D01*
X112050981Y-91132236D01*
X112185058Y-90954689D01*
X112284229Y-90755528D01*
X112345115Y-90541536D01*
X112365643Y-90320000D01*
X112345115Y-90098464D01*
X112284229Y-89884472D01*
X112284224Y-89884461D01*
X112185061Y-89685316D01*
X112185056Y-89685308D01*
X112050979Y-89507761D01*
X111886562Y-89357876D01*
X111886560Y-89357874D01*
X111697404Y-89240754D01*
X111697395Y-89240750D01*
X111603956Y-89204552D01*
X111503475Y-89165625D01*
X111448075Y-89123054D01*
X111424484Y-89057288D01*
X111440195Y-88989207D01*
X111490219Y-88940428D01*
X111503466Y-88934377D01*
X111697401Y-88859247D01*
X111886562Y-88742124D01*
X112050981Y-88592236D01*
X112185058Y-88414689D01*
X112284229Y-88215528D01*
X112345115Y-88001536D01*
X112346550Y-87986046D01*
X112372334Y-87921110D01*
X112429134Y-87880421D01*
X112498915Y-87876899D01*
X112557702Y-87909805D01*
G37*
G04 #@! TD.AperFunction*
G04 #@! TA.AperFunction,Conductor*
G36*
X119941873Y-102189448D02*
G01*
X119965300Y-102197646D01*
X119965305Y-102197646D01*
X119973698Y-102199234D01*
X119982095Y-102200500D01*
X119982098Y-102200500D01*
X120039261Y-102200500D01*
X120043898Y-102200587D01*
X120101009Y-102202724D01*
X120101009Y-102202723D01*
X120101010Y-102202724D01*
X120101010Y-102202723D01*
X120110243Y-102201684D01*
X120110336Y-102202513D01*
X120125636Y-102200500D01*
X121343107Y-102200500D01*
X121410146Y-102220185D01*
X121455901Y-102272989D01*
X121465845Y-102342147D01*
X121455489Y-102376905D01*
X121363734Y-102573673D01*
X121363730Y-102573682D01*
X121311127Y-102769999D01*
X121311128Y-102770000D01*
X122274314Y-102770000D01*
X122262359Y-102781955D01*
X122204835Y-102894852D01*
X122185014Y-103020000D01*
X122204835Y-103145148D01*
X122262359Y-103258045D01*
X122274314Y-103270000D01*
X121311128Y-103270000D01*
X121363730Y-103466317D01*
X121363734Y-103466326D01*
X121459865Y-103672482D01*
X121590342Y-103858820D01*
X121751179Y-104019657D01*
X121937517Y-104150134D01*
X122143673Y-104246265D01*
X122143684Y-104246270D01*
X122162748Y-104251378D01*
X122222409Y-104287742D01*
X122252939Y-104350589D01*
X122244645Y-104419965D01*
X122200160Y-104473843D01*
X122175450Y-104486779D01*
X122074991Y-104525697D01*
X122074980Y-104525702D01*
X121893699Y-104637947D01*
X121736127Y-104781593D01*
X121607632Y-104951746D01*
X121512596Y-105142605D01*
X121512596Y-105142607D01*
X121454244Y-105347689D01*
X121434571Y-105559999D01*
X121434571Y-105560000D01*
X121454244Y-105772312D01*
X121497727Y-105925138D01*
X121497141Y-105995005D01*
X121466142Y-106046753D01*
X120516263Y-106996632D01*
X120505898Y-107005895D01*
X120478033Y-107028117D01*
X120478030Y-107028121D01*
X120445823Y-107075357D01*
X120443144Y-107079132D01*
X120409206Y-107125118D01*
X120405216Y-107132667D01*
X120401528Y-107140325D01*
X120384673Y-107194967D01*
X120383225Y-107199368D01*
X120364353Y-107253304D01*
X120362771Y-107261659D01*
X120361500Y-107270100D01*
X120361500Y-107327260D01*
X120361413Y-107331897D01*
X120359275Y-107389009D01*
X120360316Y-107398243D01*
X120359485Y-107398336D01*
X120361500Y-107413635D01*
X120361500Y-110910034D01*
X120341815Y-110977073D01*
X120325181Y-110997715D01*
X120101418Y-111221477D01*
X120040095Y-111254962D01*
X119970403Y-111249978D01*
X119914470Y-111208106D01*
X119890053Y-111142642D01*
X119902264Y-111080926D01*
X119902154Y-111080884D01*
X119902396Y-111080258D01*
X119902741Y-111078516D01*
X119904229Y-111075528D01*
X119965115Y-110861536D01*
X119985643Y-110640000D01*
X119965115Y-110418464D01*
X119904229Y-110204472D01*
X119904224Y-110204461D01*
X119805061Y-110005316D01*
X119805056Y-110005308D01*
X119670979Y-109827761D01*
X119506562Y-109677876D01*
X119506560Y-109677874D01*
X119317404Y-109560754D01*
X119317395Y-109560750D01*
X119223956Y-109524552D01*
X119123475Y-109485625D01*
X119068075Y-109443054D01*
X119044484Y-109377288D01*
X119060195Y-109309207D01*
X119110219Y-109260428D01*
X119123466Y-109254377D01*
X119317401Y-109179247D01*
X119506562Y-109062124D01*
X119670981Y-108912236D01*
X119805058Y-108734689D01*
X119904229Y-108535528D01*
X119965115Y-108321536D01*
X119985643Y-108100000D01*
X119981036Y-108050287D01*
X119965115Y-107878464D01*
X119965114Y-107878462D01*
X119938778Y-107785901D01*
X119904229Y-107664472D01*
X119904224Y-107664461D01*
X119805061Y-107465316D01*
X119805056Y-107465308D01*
X119670979Y-107287761D01*
X119506562Y-107137876D01*
X119506560Y-107137874D01*
X119317404Y-107020754D01*
X119317395Y-107020750D01*
X119223956Y-106984552D01*
X119123475Y-106945625D01*
X119068075Y-106903054D01*
X119044484Y-106837288D01*
X119060195Y-106769207D01*
X119110219Y-106720428D01*
X119123466Y-106714377D01*
X119317401Y-106639247D01*
X119506562Y-106522124D01*
X119670981Y-106372236D01*
X119805058Y-106194689D01*
X119904229Y-105995528D01*
X119965115Y-105781536D01*
X119985643Y-105560000D01*
X119965115Y-105338464D01*
X119904229Y-105124472D01*
X119904224Y-105124461D01*
X119805061Y-104925316D01*
X119805056Y-104925308D01*
X119670979Y-104747761D01*
X119506562Y-104597876D01*
X119506560Y-104597874D01*
X119317404Y-104480754D01*
X119317395Y-104480750D01*
X119201023Y-104435668D01*
X119123475Y-104405625D01*
X119068075Y-104363054D01*
X119044484Y-104297288D01*
X119060195Y-104229207D01*
X119110219Y-104180428D01*
X119123466Y-104174377D01*
X119317401Y-104099247D01*
X119506562Y-103982124D01*
X119670981Y-103832236D01*
X119805058Y-103654689D01*
X119904229Y-103455528D01*
X119965115Y-103241536D01*
X119985643Y-103020000D01*
X119983480Y-102996662D01*
X119965115Y-102798464D01*
X119965114Y-102798462D01*
X119960686Y-102782900D01*
X119904229Y-102584472D01*
X119904224Y-102584461D01*
X119805061Y-102385316D01*
X119805055Y-102385307D01*
X119801968Y-102381219D01*
X119777275Y-102315859D01*
X119791839Y-102247524D01*
X119841036Y-102197910D01*
X119909245Y-102182771D01*
X119941873Y-102189448D01*
G37*
G04 #@! TD.AperFunction*
G04 #@! TA.AperFunction,Conductor*
G36*
X127674853Y-70075882D02*
G01*
X127704568Y-70078220D01*
X127847136Y-70089440D01*
X127866346Y-70092483D01*
X128029638Y-70131686D01*
X128048130Y-70137694D01*
X128171090Y-70188626D01*
X128203277Y-70201959D01*
X128220614Y-70210793D01*
X128363786Y-70298529D01*
X128379527Y-70309965D01*
X128507217Y-70419022D01*
X128520977Y-70432782D01*
X128630034Y-70560472D01*
X128641470Y-70576213D01*
X128729206Y-70719385D01*
X128738040Y-70736722D01*
X128802302Y-70891862D01*
X128808315Y-70910368D01*
X128847515Y-71073648D01*
X128850559Y-71092866D01*
X128864118Y-71265146D01*
X128864500Y-71274875D01*
X128864500Y-137305124D01*
X128864118Y-137314853D01*
X128850559Y-137487133D01*
X128847515Y-137506351D01*
X128808315Y-137669631D01*
X128802302Y-137688137D01*
X128738040Y-137843277D01*
X128729206Y-137860614D01*
X128641470Y-138003786D01*
X128630034Y-138019527D01*
X128520977Y-138147217D01*
X128507217Y-138160977D01*
X128379527Y-138270034D01*
X128363786Y-138281470D01*
X128220614Y-138369206D01*
X128203277Y-138378040D01*
X128048137Y-138442302D01*
X128029631Y-138448315D01*
X127866351Y-138487515D01*
X127847133Y-138490559D01*
X127674854Y-138504118D01*
X127665125Y-138504500D01*
X102274875Y-138504500D01*
X102265146Y-138504118D01*
X102092866Y-138490559D01*
X102073648Y-138487515D01*
X101910368Y-138448315D01*
X101891862Y-138442302D01*
X101736722Y-138378040D01*
X101719385Y-138369206D01*
X101576213Y-138281470D01*
X101560472Y-138270034D01*
X101432782Y-138160977D01*
X101419022Y-138147217D01*
X101309965Y-138019527D01*
X101298529Y-138003786D01*
X101210793Y-137860614D01*
X101201959Y-137843277D01*
X101188626Y-137811090D01*
X101137694Y-137688130D01*
X101131686Y-137669638D01*
X101092483Y-137506346D01*
X101089440Y-137487132D01*
X101075882Y-137314852D01*
X101075500Y-137305124D01*
X101075500Y-101877000D01*
X102249722Y-101877000D01*
X102268762Y-102033818D01*
X102313884Y-102152793D01*
X102324780Y-102181523D01*
X102414517Y-102311530D01*
X102532760Y-102416283D01*
X102532762Y-102416284D01*
X102672634Y-102489696D01*
X102826014Y-102527500D01*
X102826015Y-102527500D01*
X102983985Y-102527500D01*
X103137365Y-102489696D01*
X103183508Y-102465478D01*
X103277240Y-102416283D01*
X103395483Y-102311530D01*
X103485220Y-102181523D01*
X103541237Y-102033818D01*
X103557632Y-101898789D01*
X103585254Y-101834612D01*
X103593036Y-101826066D01*
X103963819Y-101455284D01*
X104025142Y-101421799D01*
X104094834Y-101426783D01*
X104150767Y-101468655D01*
X104175184Y-101534119D01*
X104175500Y-101542965D01*
X104175500Y-107883738D01*
X104174720Y-107897623D01*
X104170729Y-107933036D01*
X104181355Y-107989196D01*
X104182132Y-107993765D01*
X104190652Y-108050291D01*
X104193162Y-108058427D01*
X104195976Y-108066470D01*
X104222688Y-108117011D01*
X104224776Y-108121149D01*
X104249574Y-108172641D01*
X104254362Y-108179665D01*
X104259431Y-108186532D01*
X104259434Y-108186538D01*
X104259438Y-108186542D01*
X104299846Y-108226950D01*
X104303063Y-108230289D01*
X104341947Y-108272196D01*
X104349210Y-108277988D01*
X104348689Y-108278641D01*
X104360930Y-108288034D01*
X106226142Y-110153245D01*
X106259627Y-110214568D01*
X106257727Y-110274860D01*
X106214244Y-110427687D01*
X106214244Y-110427689D01*
X106214244Y-110427690D01*
X106194571Y-110640000D01*
X106214244Y-110852310D01*
X106257727Y-111005136D01*
X106272596Y-111057392D01*
X106272596Y-111057394D01*
X106367632Y-111248253D01*
X106490266Y-111410645D01*
X106496128Y-111418407D01*
X106653698Y-111562052D01*
X106834981Y-111674298D01*
X107033802Y-111751321D01*
X107230613Y-111788111D01*
X107292893Y-111819779D01*
X107328166Y-111880092D01*
X107325232Y-111949900D01*
X107285023Y-112007040D01*
X107230613Y-112031888D01*
X107033802Y-112068679D01*
X107033799Y-112068679D01*
X107033799Y-112068680D01*
X106834982Y-112145701D01*
X106834980Y-112145702D01*
X106653699Y-112257947D01*
X106496127Y-112401593D01*
X106367632Y-112571746D01*
X106272596Y-112762605D01*
X106272596Y-112762607D01*
X106216870Y-112958462D01*
X106214244Y-112967690D01*
X106194571Y-113180000D01*
X106214244Y-113392310D01*
X106257727Y-113545136D01*
X106272596Y-113597392D01*
X106272596Y-113597394D01*
X106367632Y-113788253D01*
X106492930Y-113954172D01*
X106496128Y-113958407D01*
X106653698Y-114102052D01*
X106834981Y-114214298D01*
X107033802Y-114291321D01*
X107230613Y-114328111D01*
X107292893Y-114359779D01*
X107328166Y-114420092D01*
X107325232Y-114489900D01*
X107285023Y-114547040D01*
X107230613Y-114571888D01*
X107033802Y-114608679D01*
X107033799Y-114608679D01*
X107033799Y-114608680D01*
X106834982Y-114685701D01*
X106834980Y-114685702D01*
X106653699Y-114797947D01*
X106496127Y-114941593D01*
X106367632Y-115111746D01*
X106272596Y-115302605D01*
X106272596Y-115302607D01*
X106216870Y-115498462D01*
X106214244Y-115507690D01*
X106194571Y-115720000D01*
X106214244Y-115932310D01*
X106257727Y-116085136D01*
X106272596Y-116137392D01*
X106272596Y-116137394D01*
X106367632Y-116328253D01*
X106492930Y-116494172D01*
X106496128Y-116498407D01*
X106653698Y-116642052D01*
X106834981Y-116754298D01*
X107033802Y-116831321D01*
X107230613Y-116868111D01*
X107292893Y-116899779D01*
X107328166Y-116960092D01*
X107325232Y-117029900D01*
X107285023Y-117087040D01*
X107230613Y-117111888D01*
X107033802Y-117148679D01*
X107033799Y-117148679D01*
X107033799Y-117148680D01*
X106834982Y-117225701D01*
X106834980Y-117225702D01*
X106653699Y-117337947D01*
X106496127Y-117481593D01*
X106367632Y-117651746D01*
X106272596Y-117842605D01*
X106272596Y-117842607D01*
X106214244Y-118047689D01*
X106194571Y-118259999D01*
X106194571Y-118260000D01*
X106214244Y-118472310D01*
X106272596Y-118677392D01*
X106272596Y-118677394D01*
X106367632Y-118868253D01*
X106492930Y-119034172D01*
X106496128Y-119038407D01*
X106653698Y-119182052D01*
X106834981Y-119294298D01*
X107033802Y-119371321D01*
X107230613Y-119408111D01*
X107292893Y-119439779D01*
X107328166Y-119500092D01*
X107325232Y-119569900D01*
X107285023Y-119627040D01*
X107230613Y-119651888D01*
X107033802Y-119688679D01*
X107033799Y-119688679D01*
X107033799Y-119688680D01*
X106834982Y-119765701D01*
X106834980Y-119765702D01*
X106653699Y-119877947D01*
X106496127Y-120021593D01*
X106367632Y-120191746D01*
X106272596Y-120382605D01*
X106272596Y-120382607D01*
X106214244Y-120587689D01*
X106194571Y-120799999D01*
X106194571Y-120800000D01*
X106214244Y-121012310D01*
X106272596Y-121217392D01*
X106272596Y-121217394D01*
X106367632Y-121408253D01*
X106490266Y-121570645D01*
X106496128Y-121578407D01*
X106653698Y-121722052D01*
X106834981Y-121834298D01*
X107033802Y-121911321D01*
X107230613Y-121948111D01*
X107292893Y-121979779D01*
X107328166Y-122040092D01*
X107325232Y-122109900D01*
X107285023Y-122167040D01*
X107230613Y-122191888D01*
X107033802Y-122228679D01*
X107033799Y-122228679D01*
X107033799Y-122228680D01*
X106834982Y-122305701D01*
X106834980Y-122305702D01*
X106653699Y-122417947D01*
X106496127Y-122561593D01*
X106367632Y-122731746D01*
X106272596Y-122922605D01*
X106272596Y-122922607D01*
X106214244Y-123127689D01*
X106194571Y-123339999D01*
X106194571Y-123340000D01*
X106214244Y-123552310D01*
X106272596Y-123757392D01*
X106272596Y-123757394D01*
X106367632Y-123948253D01*
X106496127Y-124118406D01*
X106496128Y-124118407D01*
X106653698Y-124262052D01*
X106834981Y-124374298D01*
X107033802Y-124451321D01*
X107243390Y-124490500D01*
X107243392Y-124490500D01*
X107456608Y-124490500D01*
X107456610Y-124490500D01*
X107666198Y-124451321D01*
X107865019Y-124374298D01*
X108046302Y-124262052D01*
X108203872Y-124118407D01*
X108332366Y-123948255D01*
X108398351Y-123815738D01*
X108427403Y-123757394D01*
X108427403Y-123757392D01*
X108427405Y-123757389D01*
X108434234Y-123733386D01*
X108471513Y-123674294D01*
X108534822Y-123644736D01*
X108604062Y-123654098D01*
X108657249Y-123699408D01*
X108677496Y-123766279D01*
X108677500Y-123767321D01*
X108677500Y-123815738D01*
X108676720Y-123829623D01*
X108672729Y-123865036D01*
X108683355Y-123921196D01*
X108684132Y-123925765D01*
X108692652Y-123982291D01*
X108695162Y-123990427D01*
X108697976Y-123998470D01*
X108697976Y-123998471D01*
X108697977Y-123998472D01*
X108718648Y-124037584D01*
X108724688Y-124049011D01*
X108726776Y-124053149D01*
X108751574Y-124104641D01*
X108756362Y-124111665D01*
X108761431Y-124118532D01*
X108761434Y-124118538D01*
X108761438Y-124118542D01*
X108801846Y-124158950D01*
X108805063Y-124162289D01*
X108843947Y-124204196D01*
X108851210Y-124209988D01*
X108850689Y-124210641D01*
X108862930Y-124220034D01*
X109995672Y-125352776D01*
X110029157Y-125414099D01*
X110027258Y-125474391D01*
X109974884Y-125658468D01*
X109954357Y-125879999D01*
X109954357Y-125880000D01*
X109974884Y-126101535D01*
X109974885Y-126101537D01*
X110035769Y-126315523D01*
X110035775Y-126315538D01*
X110134938Y-126514683D01*
X110134943Y-126514691D01*
X110269020Y-126692238D01*
X110433437Y-126842123D01*
X110433439Y-126842125D01*
X110622595Y-126959245D01*
X110622596Y-126959245D01*
X110622599Y-126959247D01*
X110816524Y-127034374D01*
X110871924Y-127076946D01*
X110895515Y-127142713D01*
X110879804Y-127210793D01*
X110829780Y-127259572D01*
X110816533Y-127265622D01*
X110691259Y-127314154D01*
X110622601Y-127340752D01*
X110622595Y-127340754D01*
X110433439Y-127457874D01*
X110433437Y-127457876D01*
X110269020Y-127607761D01*
X110134943Y-127785308D01*
X110134938Y-127785316D01*
X110035775Y-127984461D01*
X110035769Y-127984476D01*
X109974885Y-128198462D01*
X109974884Y-128198464D01*
X109954357Y-128419999D01*
X109954357Y-128420000D01*
X109974884Y-128641535D01*
X109974885Y-128641537D01*
X110035769Y-128855523D01*
X110035775Y-128855538D01*
X110134938Y-129054683D01*
X110134943Y-129054691D01*
X110269020Y-129232238D01*
X110433437Y-129382123D01*
X110433439Y-129382125D01*
X110622595Y-129499245D01*
X110622596Y-129499245D01*
X110622599Y-129499247D01*
X110816524Y-129574374D01*
X110871924Y-129616946D01*
X110895515Y-129682713D01*
X110879804Y-129750793D01*
X110829780Y-129799572D01*
X110816533Y-129805622D01*
X110691259Y-129854154D01*
X110622601Y-129880752D01*
X110622595Y-129880754D01*
X110433439Y-129997874D01*
X110433437Y-129997876D01*
X110269020Y-130147761D01*
X110134943Y-130325308D01*
X110134938Y-130325316D01*
X110035775Y-130524461D01*
X110035769Y-130524476D01*
X109974885Y-130738462D01*
X109974884Y-130738464D01*
X109954357Y-130959999D01*
X109954357Y-130960000D01*
X109974884Y-131181535D01*
X109974885Y-131181537D01*
X110035769Y-131395523D01*
X110035775Y-131395538D01*
X110134938Y-131594683D01*
X110134943Y-131594691D01*
X110269020Y-131772238D01*
X110433437Y-131922123D01*
X110433439Y-131922125D01*
X110622595Y-132039245D01*
X110622596Y-132039245D01*
X110622599Y-132039247D01*
X110816524Y-132114374D01*
X110871924Y-132156946D01*
X110895515Y-132222713D01*
X110879804Y-132290793D01*
X110829780Y-132339572D01*
X110816533Y-132345622D01*
X110668488Y-132402975D01*
X110622601Y-132420752D01*
X110622595Y-132420754D01*
X110433439Y-132537874D01*
X110433437Y-132537876D01*
X110269020Y-132687761D01*
X110134943Y-132865308D01*
X110134938Y-132865316D01*
X110035775Y-133064461D01*
X110035769Y-133064476D01*
X109974885Y-133278462D01*
X109974884Y-133278464D01*
X109954357Y-133499999D01*
X109954357Y-133500000D01*
X109974884Y-133721535D01*
X109974885Y-133721537D01*
X110035769Y-133935523D01*
X110035775Y-133935538D01*
X110134938Y-134134683D01*
X110134943Y-134134691D01*
X110269020Y-134312238D01*
X110433437Y-134462123D01*
X110433439Y-134462125D01*
X110622595Y-134579245D01*
X110622596Y-134579245D01*
X110622599Y-134579247D01*
X110830060Y-134659618D01*
X111048757Y-134700500D01*
X111048759Y-134700500D01*
X111271241Y-134700500D01*
X111271243Y-134700500D01*
X111489940Y-134659618D01*
X111697401Y-134579247D01*
X111886562Y-134462124D01*
X112050981Y-134312236D01*
X112185058Y-134134689D01*
X112284229Y-133935528D01*
X112345115Y-133721536D01*
X112365643Y-133500000D01*
X112345115Y-133278464D01*
X112284229Y-133064472D01*
X112284224Y-133064461D01*
X112185061Y-132865316D01*
X112185056Y-132865308D01*
X112050979Y-132687761D01*
X111886562Y-132537876D01*
X111886560Y-132537874D01*
X111697404Y-132420754D01*
X111697395Y-132420750D01*
X111603956Y-132384552D01*
X111503475Y-132345625D01*
X111448075Y-132303054D01*
X111424484Y-132237288D01*
X111440195Y-132169207D01*
X111490219Y-132120428D01*
X111503466Y-132114377D01*
X111697401Y-132039247D01*
X111886562Y-131922124D01*
X112050981Y-131772236D01*
X112185058Y-131594689D01*
X112284229Y-131395528D01*
X112345115Y-131181536D01*
X112365643Y-130960000D01*
X112345115Y-130738464D01*
X112334720Y-130701929D01*
X112292742Y-130554390D01*
X112293329Y-130484523D01*
X112324325Y-130432777D01*
X112979749Y-129777353D01*
X112990098Y-129768105D01*
X113017970Y-129745879D01*
X113050184Y-129698628D01*
X113052852Y-129694869D01*
X113086792Y-129648883D01*
X113086793Y-129648877D01*
X113090786Y-129641325D01*
X113094468Y-129633677D01*
X113094472Y-129633673D01*
X113111336Y-129578998D01*
X113112769Y-129574643D01*
X113131646Y-129520700D01*
X113131646Y-129520694D01*
X113133228Y-129512336D01*
X113134500Y-129503899D01*
X113134500Y-129446738D01*
X113134587Y-129442100D01*
X113136724Y-129384989D01*
X113135684Y-129375756D01*
X113136513Y-129375662D01*
X113134500Y-129360364D01*
X113134500Y-127768965D01*
X113154185Y-127701926D01*
X113170819Y-127681284D01*
X115755284Y-125096819D01*
X115816607Y-125063334D01*
X115842965Y-125060500D01*
X117646749Y-125060500D01*
X117713788Y-125080185D01*
X117759543Y-125132989D01*
X117769487Y-125202147D01*
X117755945Y-125239406D01*
X117757497Y-125240179D01*
X117655775Y-125444461D01*
X117655769Y-125444476D01*
X117594885Y-125658462D01*
X117594884Y-125658464D01*
X117574357Y-125879999D01*
X117574357Y-125880000D01*
X117594884Y-126101535D01*
X117594885Y-126101537D01*
X117655769Y-126315523D01*
X117655775Y-126315538D01*
X117754938Y-126514683D01*
X117754943Y-126514691D01*
X117889020Y-126692238D01*
X118053437Y-126842123D01*
X118053439Y-126842125D01*
X118242595Y-126959245D01*
X118242596Y-126959245D01*
X118242599Y-126959247D01*
X118436524Y-127034374D01*
X118491924Y-127076946D01*
X118515515Y-127142713D01*
X118499804Y-127210793D01*
X118449780Y-127259572D01*
X118436533Y-127265622D01*
X118311259Y-127314154D01*
X118242601Y-127340752D01*
X118242595Y-127340754D01*
X118053439Y-127457874D01*
X118053437Y-127457876D01*
X117889020Y-127607761D01*
X117754943Y-127785308D01*
X117754938Y-127785316D01*
X117655775Y-127984461D01*
X117655769Y-127984476D01*
X117594885Y-128198462D01*
X117594884Y-128198464D01*
X117574357Y-128419999D01*
X117574357Y-128420000D01*
X117594884Y-128641535D01*
X117594885Y-128641537D01*
X117655769Y-128855523D01*
X117655775Y-128855538D01*
X117754938Y-129054683D01*
X117754943Y-129054691D01*
X117889020Y-129232238D01*
X118053437Y-129382123D01*
X118053439Y-129382125D01*
X118242595Y-129499245D01*
X118242596Y-129499245D01*
X118242599Y-129499247D01*
X118436524Y-129574374D01*
X118491924Y-129616946D01*
X118515515Y-129682713D01*
X118499804Y-129750793D01*
X118449780Y-129799572D01*
X118436533Y-129805622D01*
X118311259Y-129854154D01*
X118242601Y-129880752D01*
X118242595Y-129880754D01*
X118053439Y-129997874D01*
X118053437Y-129997876D01*
X117889020Y-130147761D01*
X117754943Y-130325308D01*
X117754938Y-130325316D01*
X117655775Y-130524461D01*
X117655769Y-130524476D01*
X117594885Y-130738462D01*
X117594884Y-130738464D01*
X117574357Y-130959999D01*
X117574357Y-130960000D01*
X117594884Y-131181535D01*
X117594885Y-131181537D01*
X117655769Y-131395523D01*
X117655775Y-131395538D01*
X117754938Y-131594683D01*
X117754943Y-131594691D01*
X117889020Y-131772238D01*
X118053437Y-131922123D01*
X118053439Y-131922125D01*
X118242595Y-132039245D01*
X118242596Y-132039245D01*
X118242599Y-132039247D01*
X118436524Y-132114374D01*
X118491924Y-132156946D01*
X118515515Y-132222713D01*
X118499804Y-132290793D01*
X118449780Y-132339572D01*
X118436533Y-132345622D01*
X118288488Y-132402975D01*
X118242601Y-132420752D01*
X118242595Y-132420754D01*
X118053439Y-132537874D01*
X118053437Y-132537876D01*
X117889020Y-132687761D01*
X117754943Y-132865308D01*
X117754938Y-132865316D01*
X117655775Y-133064461D01*
X117655769Y-133064476D01*
X117594885Y-133278462D01*
X117594884Y-133278464D01*
X117574357Y-133499999D01*
X117574357Y-133500000D01*
X117594884Y-133721535D01*
X117594885Y-133721537D01*
X117655769Y-133935523D01*
X117655775Y-133935538D01*
X117754938Y-134134683D01*
X117754943Y-134134691D01*
X117889020Y-134312238D01*
X118053437Y-134462123D01*
X118053439Y-134462125D01*
X118242595Y-134579245D01*
X118242596Y-134579245D01*
X118242599Y-134579247D01*
X118450060Y-134659618D01*
X118668757Y-134700500D01*
X118668759Y-134700500D01*
X118891241Y-134700500D01*
X118891243Y-134700500D01*
X119109940Y-134659618D01*
X119317401Y-134579247D01*
X119506562Y-134462124D01*
X119670981Y-134312236D01*
X119805058Y-134134689D01*
X119904229Y-133935528D01*
X119965115Y-133721536D01*
X119985643Y-133500000D01*
X119965115Y-133278464D01*
X119904229Y-133064472D01*
X119904224Y-133064461D01*
X119805061Y-132865316D01*
X119805056Y-132865308D01*
X119670979Y-132687761D01*
X119506562Y-132537876D01*
X119506560Y-132537874D01*
X119317404Y-132420754D01*
X119317395Y-132420750D01*
X119223956Y-132384552D01*
X119123475Y-132345625D01*
X119068075Y-132303054D01*
X119044484Y-132237288D01*
X119060195Y-132169207D01*
X119110219Y-132120428D01*
X119123466Y-132114377D01*
X119317401Y-132039247D01*
X119506562Y-131922124D01*
X119670981Y-131772236D01*
X119805058Y-131594689D01*
X119904229Y-131395528D01*
X119965115Y-131181536D01*
X119985643Y-130960000D01*
X119965115Y-130738464D01*
X119904229Y-130524472D01*
X119884337Y-130484523D01*
X119805061Y-130325316D01*
X119805056Y-130325308D01*
X119670979Y-130147761D01*
X119506562Y-129997876D01*
X119506560Y-129997874D01*
X119317404Y-129880754D01*
X119317395Y-129880750D01*
X119223956Y-129844552D01*
X119123475Y-129805625D01*
X119068075Y-129763054D01*
X119044484Y-129697288D01*
X119060195Y-129629207D01*
X119110219Y-129580428D01*
X119123466Y-129574377D01*
X119317401Y-129499247D01*
X119506562Y-129382124D01*
X119670981Y-129232236D01*
X119805058Y-129054689D01*
X119904229Y-128855528D01*
X119965115Y-128641536D01*
X119985643Y-128420000D01*
X119965115Y-128198464D01*
X119904229Y-127984472D01*
X119904224Y-127984461D01*
X119805061Y-127785316D01*
X119805056Y-127785308D01*
X119670979Y-127607761D01*
X119506562Y-127457876D01*
X119506560Y-127457874D01*
X119317404Y-127340754D01*
X119317395Y-127340750D01*
X119223956Y-127304552D01*
X119123475Y-127265625D01*
X119068075Y-127223054D01*
X119044484Y-127157288D01*
X119060195Y-127089207D01*
X119110219Y-127040428D01*
X119123466Y-127034377D01*
X119317401Y-126959247D01*
X119506562Y-126842124D01*
X119670981Y-126692236D01*
X119805058Y-126514689D01*
X119904229Y-126315528D01*
X119965115Y-126101536D01*
X119985643Y-125880000D01*
X119965115Y-125658464D01*
X119904229Y-125444472D01*
X119858570Y-125352776D01*
X119805061Y-125245316D01*
X119805056Y-125245308D01*
X119772462Y-125202147D01*
X119751189Y-125173977D01*
X119726498Y-125108618D01*
X119741063Y-125040283D01*
X119790260Y-124990671D01*
X119796328Y-124987538D01*
X119798642Y-124986425D01*
X119798645Y-124986421D01*
X119798647Y-124986421D01*
X119805695Y-124981616D01*
X119812534Y-124976567D01*
X119812538Y-124976566D01*
X119852975Y-124936127D01*
X119856261Y-124932961D01*
X119898194Y-124894055D01*
X119898196Y-124894050D01*
X119903987Y-124886790D01*
X119904643Y-124887313D01*
X119914032Y-124875070D01*
X121256877Y-123532225D01*
X121318198Y-123498742D01*
X121387890Y-123503726D01*
X121443823Y-123545598D01*
X121463822Y-123585973D01*
X121512596Y-123757392D01*
X121512596Y-123757394D01*
X121607632Y-123948253D01*
X121736127Y-124118406D01*
X121736128Y-124118407D01*
X121893698Y-124262052D01*
X122074981Y-124374298D01*
X122273802Y-124451321D01*
X122483390Y-124490500D01*
X122483392Y-124490500D01*
X122696608Y-124490500D01*
X122696610Y-124490500D01*
X122906198Y-124451321D01*
X123105019Y-124374298D01*
X123286302Y-124262052D01*
X123443872Y-124118407D01*
X123572366Y-123948255D01*
X123638351Y-123815738D01*
X123667403Y-123757394D01*
X123667403Y-123757393D01*
X123667405Y-123757389D01*
X123725756Y-123552310D01*
X123745429Y-123340000D01*
X123725756Y-123127690D01*
X123682271Y-122974858D01*
X123682857Y-122904995D01*
X123713854Y-122853248D01*
X124917744Y-121649357D01*
X124928093Y-121640109D01*
X124955970Y-121617879D01*
X124988198Y-121570607D01*
X124990812Y-121566923D01*
X125024793Y-121520882D01*
X125024793Y-121520879D01*
X125024795Y-121520878D01*
X125028787Y-121513324D01*
X125032471Y-121505675D01*
X125049324Y-121451035D01*
X125050762Y-121446662D01*
X125069646Y-121392699D01*
X125069646Y-121392696D01*
X125071232Y-121384311D01*
X125072500Y-121375904D01*
X125072500Y-121318738D01*
X125072587Y-121314100D01*
X125074724Y-121256992D01*
X125073684Y-121247761D01*
X125074513Y-121247667D01*
X125072500Y-121232366D01*
X125072500Y-103171352D01*
X125073280Y-103157467D01*
X125077270Y-103122057D01*
X125077270Y-103122056D01*
X125066633Y-103065844D01*
X125065864Y-103061310D01*
X125057348Y-103004806D01*
X125057348Y-103004804D01*
X125057346Y-103004800D01*
X125054836Y-102996662D01*
X125052024Y-102988625D01*
X125052023Y-102988619D01*
X125025285Y-102938032D01*
X125023223Y-102933945D01*
X124998425Y-102882449D01*
X124998423Y-102882447D01*
X124998423Y-102882446D01*
X124993642Y-102875433D01*
X124988566Y-102868556D01*
X124988565Y-102868553D01*
X124948165Y-102828153D01*
X124944947Y-102824812D01*
X124906060Y-102782900D01*
X124898792Y-102777105D01*
X124899312Y-102776452D01*
X124887067Y-102767055D01*
X123574277Y-101454265D01*
X123565011Y-101443897D01*
X123551363Y-101426783D01*
X123542788Y-101416030D01*
X123506450Y-101391254D01*
X123462149Y-101337227D01*
X123454091Y-101267823D01*
X123477348Y-101214077D01*
X123572366Y-101088255D01*
X123620281Y-100992026D01*
X123667403Y-100897394D01*
X123667403Y-100897393D01*
X123667405Y-100897389D01*
X123725756Y-100692310D01*
X123745429Y-100480000D01*
X123725756Y-100267690D01*
X123682271Y-100114858D01*
X123682857Y-100044995D01*
X123713854Y-99993248D01*
X125609744Y-98097357D01*
X125620093Y-98088109D01*
X125647970Y-98065879D01*
X125680198Y-98018607D01*
X125682812Y-98014923D01*
X125716793Y-97968882D01*
X125716793Y-97968879D01*
X125716795Y-97968878D01*
X125720787Y-97961324D01*
X125724471Y-97953675D01*
X125728689Y-97940000D01*
X125741330Y-97899014D01*
X125742762Y-97894662D01*
X125761646Y-97840699D01*
X125761646Y-97840696D01*
X125763228Y-97832336D01*
X125764500Y-97823899D01*
X125764500Y-97766754D01*
X125764587Y-97762116D01*
X125766725Y-97704990D01*
X125765685Y-97695758D01*
X125766513Y-97695664D01*
X125764500Y-97680361D01*
X125764500Y-81122443D01*
X125765280Y-81108558D01*
X125769270Y-81073148D01*
X125766672Y-81059417D01*
X125758633Y-81016935D01*
X125757864Y-81012401D01*
X125757407Y-81009366D01*
X125749348Y-80955895D01*
X125749346Y-80955891D01*
X125746836Y-80947753D01*
X125744024Y-80939716D01*
X125744023Y-80939710D01*
X125717285Y-80889123D01*
X125715223Y-80885036D01*
X125709319Y-80872775D01*
X125690425Y-80833540D01*
X125690423Y-80833538D01*
X125690423Y-80833537D01*
X125685642Y-80826524D01*
X125680566Y-80819647D01*
X125680565Y-80819644D01*
X125640165Y-80779244D01*
X125636947Y-80775903D01*
X125598060Y-80733991D01*
X125590792Y-80728196D01*
X125591312Y-80727543D01*
X125579067Y-80718146D01*
X123455186Y-78594265D01*
X123445920Y-78583897D01*
X123431775Y-78566160D01*
X123405367Y-78501474D01*
X123418122Y-78432779D01*
X123440626Y-78403208D01*
X123440009Y-78402645D01*
X123443865Y-78398413D01*
X123443872Y-78398407D01*
X123572366Y-78228255D01*
X123621365Y-78129851D01*
X123667403Y-78037394D01*
X123667403Y-78037393D01*
X123667405Y-78037389D01*
X123725756Y-77832310D01*
X123745429Y-77620000D01*
X123725756Y-77407690D01*
X123667405Y-77202611D01*
X123667403Y-77202606D01*
X123667403Y-77202605D01*
X123572367Y-77011746D01*
X123443872Y-76841593D01*
X123420389Y-76820185D01*
X123286302Y-76697948D01*
X123105019Y-76585702D01*
X123105017Y-76585701D01*
X122982946Y-76538411D01*
X122906198Y-76508679D01*
X122709385Y-76471888D01*
X122647106Y-76440221D01*
X122611833Y-76379908D01*
X122614767Y-76310100D01*
X122654976Y-76252960D01*
X122709384Y-76228111D01*
X122906198Y-76191321D01*
X123105019Y-76114298D01*
X123286302Y-76002052D01*
X123443872Y-75858407D01*
X123572366Y-75688255D01*
X123632050Y-75568393D01*
X123667403Y-75497394D01*
X123667403Y-75497393D01*
X123667405Y-75497389D01*
X123725756Y-75292310D01*
X123745429Y-75080000D01*
X123725756Y-74867690D01*
X123667405Y-74662611D01*
X123667403Y-74662606D01*
X123667403Y-74662605D01*
X123572367Y-74471746D01*
X123443872Y-74301593D01*
X123286302Y-74157948D01*
X123105019Y-74045702D01*
X123105017Y-74045701D01*
X122963307Y-73990803D01*
X122906198Y-73968679D01*
X122696610Y-73929500D01*
X122483390Y-73929500D01*
X122273802Y-73968679D01*
X122273799Y-73968679D01*
X122273799Y-73968680D01*
X122074982Y-74045701D01*
X122074980Y-74045702D01*
X121893699Y-74157947D01*
X121736127Y-74301593D01*
X121607632Y-74471746D01*
X121512596Y-74662605D01*
X121512596Y-74662607D01*
X121454244Y-74867689D01*
X121434571Y-75079999D01*
X121434571Y-75080000D01*
X121454244Y-75292310D01*
X121512596Y-75497392D01*
X121512596Y-75497394D01*
X121607632Y-75688253D01*
X121607634Y-75688255D01*
X121736128Y-75858407D01*
X121893698Y-76002052D01*
X122074981Y-76114298D01*
X122273802Y-76191321D01*
X122470613Y-76228111D01*
X122532893Y-76259779D01*
X122568166Y-76320092D01*
X122565232Y-76389900D01*
X122525023Y-76447040D01*
X122470613Y-76471888D01*
X122273802Y-76508679D01*
X122273799Y-76508679D01*
X122273799Y-76508680D01*
X122074982Y-76585701D01*
X122074980Y-76585702D01*
X121893699Y-76697947D01*
X121736127Y-76841593D01*
X121607632Y-77011746D01*
X121512596Y-77202605D01*
X121512596Y-77202607D01*
X121456870Y-77398462D01*
X121454244Y-77407690D01*
X121434571Y-77620000D01*
X121454244Y-77832310D01*
X121456868Y-77841534D01*
X121512596Y-78037392D01*
X121512596Y-78037394D01*
X121567285Y-78147223D01*
X121607634Y-78228255D01*
X121614053Y-78236755D01*
X121617087Y-78240773D01*
X121641779Y-78306135D01*
X121627214Y-78374469D01*
X121578016Y-78424082D01*
X121518133Y-78439500D01*
X120287965Y-78439500D01*
X120220926Y-78419815D01*
X120200284Y-78403181D01*
X119944326Y-78147223D01*
X119910841Y-78085900D01*
X119912740Y-78025611D01*
X119965115Y-77841536D01*
X119985643Y-77620000D01*
X119965115Y-77398464D01*
X119904229Y-77184472D01*
X119904224Y-77184461D01*
X119805061Y-76985316D01*
X119805056Y-76985308D01*
X119670979Y-76807761D01*
X119506562Y-76657876D01*
X119501986Y-76654420D01*
X119503171Y-76652850D01*
X119462429Y-76607393D01*
X119451329Y-76538411D01*
X119479285Y-76474378D01*
X119537423Y-76435625D01*
X119574345Y-76430000D01*
X119677828Y-76430000D01*
X119677844Y-76429999D01*
X119737372Y-76423598D01*
X119737379Y-76423596D01*
X119872086Y-76373354D01*
X119872093Y-76373350D01*
X119987187Y-76287190D01*
X119987190Y-76287187D01*
X120073350Y-76172093D01*
X120073354Y-76172086D01*
X120123596Y-76037379D01*
X120123598Y-76037372D01*
X120129999Y-75977844D01*
X120130000Y-75977827D01*
X120130000Y-75330000D01*
X119213686Y-75330000D01*
X119239493Y-75289844D01*
X119280000Y-75151889D01*
X119280000Y-75008111D01*
X119239493Y-74870156D01*
X119213686Y-74830000D01*
X120130000Y-74830000D01*
X120130000Y-74182172D01*
X120129999Y-74182155D01*
X120123598Y-74122627D01*
X120123596Y-74122620D01*
X120073354Y-73987913D01*
X120073350Y-73987906D01*
X119987190Y-73872812D01*
X119987187Y-73872809D01*
X119872093Y-73786649D01*
X119872086Y-73786645D01*
X119737379Y-73736403D01*
X119737372Y-73736401D01*
X119677844Y-73730000D01*
X119030000Y-73730000D01*
X119030000Y-74644498D01*
X118922315Y-74595320D01*
X118815763Y-74580000D01*
X118744237Y-74580000D01*
X118637685Y-74595320D01*
X118530000Y-74644498D01*
X118530000Y-73730000D01*
X117882155Y-73730000D01*
X117822627Y-73736401D01*
X117822620Y-73736403D01*
X117687913Y-73786645D01*
X117687906Y-73786649D01*
X117572812Y-73872809D01*
X117572809Y-73872812D01*
X117486649Y-73987906D01*
X117486645Y-73987913D01*
X117436403Y-74122620D01*
X117436401Y-74122627D01*
X117430000Y-74182155D01*
X117430000Y-74830000D01*
X118346314Y-74830000D01*
X118320507Y-74870156D01*
X118280000Y-75008111D01*
X118280000Y-75151889D01*
X118320507Y-75289844D01*
X118346314Y-75330000D01*
X117430000Y-75330000D01*
X117430000Y-75977844D01*
X117436401Y-76037372D01*
X117436403Y-76037379D01*
X117486645Y-76172086D01*
X117486649Y-76172093D01*
X117572809Y-76287187D01*
X117572812Y-76287190D01*
X117687906Y-76373350D01*
X117687913Y-76373354D01*
X117822620Y-76423596D01*
X117822627Y-76423598D01*
X117882155Y-76429999D01*
X117882172Y-76430000D01*
X117985655Y-76430000D01*
X118052694Y-76449685D01*
X118098449Y-76502489D01*
X118108393Y-76571647D01*
X118079368Y-76635203D01*
X118057542Y-76653796D01*
X118058014Y-76654420D01*
X118053437Y-76657876D01*
X117889020Y-76807761D01*
X117754943Y-76985308D01*
X117754938Y-76985316D01*
X117655775Y-77184461D01*
X117655769Y-77184476D01*
X117594885Y-77398462D01*
X117594884Y-77398464D01*
X117574357Y-77619999D01*
X117574357Y-77620000D01*
X117594884Y-77841535D01*
X117594885Y-77841537D01*
X117655769Y-78055523D01*
X117655775Y-78055538D01*
X117754938Y-78254683D01*
X117754943Y-78254691D01*
X117889020Y-78432238D01*
X118053437Y-78582123D01*
X118053439Y-78582125D01*
X118242595Y-78699245D01*
X118242596Y-78699245D01*
X118242599Y-78699247D01*
X118436524Y-78774374D01*
X118491924Y-78816946D01*
X118515515Y-78882713D01*
X118499804Y-78950793D01*
X118449780Y-78999572D01*
X118436533Y-79005622D01*
X118325389Y-79048680D01*
X118242601Y-79080752D01*
X118242595Y-79080754D01*
X118053439Y-79197874D01*
X118053437Y-79197876D01*
X117889020Y-79347761D01*
X117754943Y-79525308D01*
X117754938Y-79525316D01*
X117655775Y-79724461D01*
X117655769Y-79724476D01*
X117594885Y-79938462D01*
X117594884Y-79938464D01*
X117574357Y-80159999D01*
X117574357Y-80160000D01*
X117594884Y-80381535D01*
X117594885Y-80381537D01*
X117655769Y-80595523D01*
X117655775Y-80595538D01*
X117754938Y-80794683D01*
X117754943Y-80794691D01*
X117889020Y-80972238D01*
X118053437Y-81122123D01*
X118053439Y-81122125D01*
X118242595Y-81239245D01*
X118242596Y-81239245D01*
X118242599Y-81239247D01*
X118436524Y-81314374D01*
X118491924Y-81356946D01*
X118515515Y-81422713D01*
X118499804Y-81490793D01*
X118449780Y-81539572D01*
X118436533Y-81545622D01*
X118288488Y-81602975D01*
X118242601Y-81620752D01*
X118242595Y-81620754D01*
X118053439Y-81737874D01*
X118053437Y-81737876D01*
X117889020Y-81887761D01*
X117754943Y-82065308D01*
X117754938Y-82065316D01*
X117655775Y-82264461D01*
X117655769Y-82264476D01*
X117594885Y-82478462D01*
X117594884Y-82478464D01*
X117574357Y-82699999D01*
X117574357Y-82700000D01*
X117594884Y-82921535D01*
X117594885Y-82921537D01*
X117655769Y-83135523D01*
X117655775Y-83135538D01*
X117754938Y-83334683D01*
X117754943Y-83334691D01*
X117889020Y-83512238D01*
X118053437Y-83662123D01*
X118053439Y-83662125D01*
X118242595Y-83779245D01*
X118242596Y-83779245D01*
X118242599Y-83779247D01*
X118436524Y-83854374D01*
X118491924Y-83896946D01*
X118515515Y-83962713D01*
X118499804Y-84030793D01*
X118449780Y-84079572D01*
X118436533Y-84085622D01*
X118288488Y-84142975D01*
X118242601Y-84160752D01*
X118242595Y-84160754D01*
X118053439Y-84277874D01*
X118053437Y-84277876D01*
X117889020Y-84427761D01*
X117754943Y-84605308D01*
X117754938Y-84605316D01*
X117655775Y-84804461D01*
X117655769Y-84804476D01*
X117594885Y-85018462D01*
X117594884Y-85018464D01*
X117574357Y-85239999D01*
X117574357Y-85240000D01*
X117594884Y-85461535D01*
X117594885Y-85461537D01*
X117655769Y-85675523D01*
X117655775Y-85675538D01*
X117754938Y-85874683D01*
X117754943Y-85874691D01*
X117889020Y-86052238D01*
X118053437Y-86202123D01*
X118053439Y-86202125D01*
X118242595Y-86319245D01*
X118242596Y-86319245D01*
X118242599Y-86319247D01*
X118436524Y-86394374D01*
X118491924Y-86436946D01*
X118515515Y-86502713D01*
X118499804Y-86570793D01*
X118449780Y-86619572D01*
X118436533Y-86625622D01*
X118288488Y-86682975D01*
X118242601Y-86700752D01*
X118242595Y-86700754D01*
X118053439Y-86817874D01*
X118053437Y-86817876D01*
X117889020Y-86967761D01*
X117754943Y-87145308D01*
X117754938Y-87145316D01*
X117655775Y-87344461D01*
X117655769Y-87344476D01*
X117594885Y-87558462D01*
X117594884Y-87558464D01*
X117574357Y-87779999D01*
X117574357Y-87780000D01*
X117594884Y-88001535D01*
X117594885Y-88001537D01*
X117655769Y-88215523D01*
X117655775Y-88215538D01*
X117754938Y-88414683D01*
X117754943Y-88414691D01*
X117889020Y-88592238D01*
X118053437Y-88742123D01*
X118053439Y-88742125D01*
X118242595Y-88859245D01*
X118242596Y-88859245D01*
X118242599Y-88859247D01*
X118436524Y-88934374D01*
X118491924Y-88976946D01*
X118515515Y-89042713D01*
X118499804Y-89110793D01*
X118449780Y-89159572D01*
X118436533Y-89165622D01*
X118288488Y-89222975D01*
X118242601Y-89240752D01*
X118242595Y-89240754D01*
X118053439Y-89357874D01*
X118053437Y-89357876D01*
X117889020Y-89507761D01*
X117754943Y-89685308D01*
X117754938Y-89685316D01*
X117655775Y-89884461D01*
X117655769Y-89884476D01*
X117594885Y-90098462D01*
X117594884Y-90098464D01*
X117574357Y-90319999D01*
X117574357Y-90320000D01*
X117594884Y-90541535D01*
X117594885Y-90541537D01*
X117655769Y-90755523D01*
X117655775Y-90755538D01*
X117754938Y-90954683D01*
X117754943Y-90954691D01*
X117889020Y-91132238D01*
X118053437Y-91282123D01*
X118053439Y-91282125D01*
X118242595Y-91399245D01*
X118242596Y-91399245D01*
X118242599Y-91399247D01*
X118436524Y-91474374D01*
X118491924Y-91516946D01*
X118515515Y-91582713D01*
X118499804Y-91650793D01*
X118449780Y-91699572D01*
X118436533Y-91705622D01*
X118325389Y-91748680D01*
X118242601Y-91780752D01*
X118242595Y-91780754D01*
X118053439Y-91897874D01*
X118053437Y-91897876D01*
X117889020Y-92047761D01*
X117754943Y-92225308D01*
X117754938Y-92225316D01*
X117655775Y-92424461D01*
X117655769Y-92424476D01*
X117594885Y-92638462D01*
X117594884Y-92638464D01*
X117574357Y-92859999D01*
X117574357Y-92860001D01*
X117587999Y-93007230D01*
X117574584Y-93075800D01*
X117526227Y-93126232D01*
X117458280Y-93142514D01*
X117392318Y-93119476D01*
X117375890Y-93103278D01*
X117375136Y-93104033D01*
X117328165Y-93057062D01*
X117324947Y-93053721D01*
X117286060Y-93011809D01*
X117278792Y-93006014D01*
X117279312Y-93005361D01*
X117267067Y-92995964D01*
X115097513Y-90826410D01*
X115064028Y-90765087D01*
X115069012Y-90695395D01*
X115110884Y-90639462D01*
X115176348Y-90615045D01*
X115242820Y-90628933D01*
X115337634Y-90678696D01*
X115491014Y-90716500D01*
X115491015Y-90716500D01*
X115648985Y-90716500D01*
X115802365Y-90678696D01*
X115897179Y-90628933D01*
X115942240Y-90605283D01*
X116060483Y-90500530D01*
X116150220Y-90370523D01*
X116206237Y-90222818D01*
X116225278Y-90066000D01*
X116206237Y-89909182D01*
X116206236Y-89909180D01*
X116162418Y-89793641D01*
X116150220Y-89761477D01*
X116060483Y-89631470D01*
X116060479Y-89631466D01*
X116055509Y-89625856D01*
X116056953Y-89624576D01*
X116025145Y-89573860D01*
X116020500Y-89540240D01*
X116020500Y-80284261D01*
X116021280Y-80270376D01*
X116025270Y-80234966D01*
X116025270Y-80234965D01*
X116014633Y-80178753D01*
X116013864Y-80174219D01*
X116011721Y-80159999D01*
X116005348Y-80117713D01*
X116005346Y-80117709D01*
X116002836Y-80109571D01*
X116000024Y-80101534D01*
X116000023Y-80101528D01*
X115973285Y-80050941D01*
X115971223Y-80046854D01*
X115953811Y-80010696D01*
X115946425Y-79995358D01*
X115946423Y-79995356D01*
X115946423Y-79995355D01*
X115941642Y-79988342D01*
X115936566Y-79981465D01*
X115936565Y-79981462D01*
X115896165Y-79941062D01*
X115892947Y-79937721D01*
X115854060Y-79895809D01*
X115846792Y-79890014D01*
X115847312Y-79889361D01*
X115835067Y-79879964D01*
X112389695Y-76434592D01*
X112356210Y-76373269D01*
X112361194Y-76303577D01*
X112378110Y-76272599D01*
X112453352Y-76172089D01*
X112453354Y-76172086D01*
X112503596Y-76037379D01*
X112503598Y-76037372D01*
X112509999Y-75977844D01*
X112510000Y-75977827D01*
X112510000Y-75330000D01*
X111593686Y-75330000D01*
X111619493Y-75289844D01*
X111660000Y-75151889D01*
X111660000Y-75008111D01*
X111619493Y-74870156D01*
X111593686Y-74830000D01*
X112510000Y-74830000D01*
X112510000Y-74182172D01*
X112509999Y-74182155D01*
X112503598Y-74122627D01*
X112503596Y-74122620D01*
X112453354Y-73987913D01*
X112453350Y-73987906D01*
X112367190Y-73872812D01*
X112367187Y-73872809D01*
X112252093Y-73786649D01*
X112252086Y-73786645D01*
X112117379Y-73736403D01*
X112117372Y-73736401D01*
X112057844Y-73730000D01*
X111410000Y-73730000D01*
X111410000Y-74644498D01*
X111302315Y-74595320D01*
X111195763Y-74580000D01*
X111124237Y-74580000D01*
X111017685Y-74595320D01*
X110910000Y-74644498D01*
X110910000Y-73730000D01*
X110262155Y-73730000D01*
X110202627Y-73736401D01*
X110202620Y-73736403D01*
X110067913Y-73786645D01*
X110067906Y-73786649D01*
X109952812Y-73872809D01*
X109952809Y-73872812D01*
X109866649Y-73987906D01*
X109866645Y-73987913D01*
X109816403Y-74122620D01*
X109816401Y-74122627D01*
X109810000Y-74182155D01*
X109810000Y-74830000D01*
X110726314Y-74830000D01*
X110700507Y-74870156D01*
X110660000Y-75008111D01*
X110660000Y-75151889D01*
X110700507Y-75289844D01*
X110726314Y-75330000D01*
X109810000Y-75330000D01*
X109810000Y-75775500D01*
X109790315Y-75842539D01*
X109737511Y-75888294D01*
X109686000Y-75899500D01*
X108857965Y-75899500D01*
X108790926Y-75879815D01*
X108770284Y-75863181D01*
X108536819Y-75629716D01*
X108503334Y-75568393D01*
X108500500Y-75542035D01*
X108500500Y-74246739D01*
X108490573Y-74178608D01*
X108490573Y-74178607D01*
X108439198Y-74073517D01*
X108439196Y-74073515D01*
X108439196Y-74073514D01*
X108356485Y-73990803D01*
X108251391Y-73939426D01*
X108183261Y-73929500D01*
X108183260Y-73929500D01*
X106516740Y-73929500D01*
X106516739Y-73929500D01*
X106448607Y-73939426D01*
X106448606Y-73939426D01*
X106394396Y-73965928D01*
X106325523Y-73977686D01*
X106261226Y-73950342D01*
X106221919Y-73892578D01*
X106220083Y-73822732D01*
X106252254Y-73766848D01*
X107754284Y-72264819D01*
X107815607Y-72231334D01*
X107841965Y-72228500D01*
X110767517Y-72228500D01*
X110834556Y-72248185D01*
X110849741Y-72259682D01*
X110914760Y-72317283D01*
X110914762Y-72317284D01*
X111054634Y-72390696D01*
X111208014Y-72428500D01*
X111208015Y-72428500D01*
X111365985Y-72428500D01*
X111519365Y-72390696D01*
X111659240Y-72317283D01*
X111777483Y-72212530D01*
X111867220Y-72082523D01*
X111923237Y-71934818D01*
X111942278Y-71778000D01*
X111923237Y-71621182D01*
X111867220Y-71473477D01*
X111777483Y-71343470D01*
X111659240Y-71238717D01*
X111659238Y-71238716D01*
X111659237Y-71238715D01*
X111519365Y-71165303D01*
X111365986Y-71127500D01*
X111365985Y-71127500D01*
X111208015Y-71127500D01*
X111208014Y-71127500D01*
X111054634Y-71165303D01*
X110914762Y-71238715D01*
X110849744Y-71296316D01*
X110786510Y-71326037D01*
X110767517Y-71327500D01*
X107636262Y-71327500D01*
X107622379Y-71326720D01*
X107616316Y-71326037D01*
X107586963Y-71322729D01*
X107530810Y-71333354D01*
X107526241Y-71334131D01*
X107469715Y-71342651D01*
X107461532Y-71345175D01*
X107453529Y-71347976D01*
X107402985Y-71374689D01*
X107398848Y-71376777D01*
X107347358Y-71401573D01*
X107340338Y-71406359D01*
X107333460Y-71411435D01*
X107293058Y-71451837D01*
X107289722Y-71455051D01*
X107247804Y-71493946D01*
X107242013Y-71501208D01*
X107241362Y-71500688D01*
X107231967Y-71512928D01*
X103879263Y-74865632D01*
X103868898Y-74874895D01*
X103841033Y-74897117D01*
X103841030Y-74897121D01*
X103808823Y-74944357D01*
X103806144Y-74948132D01*
X103772206Y-74994118D01*
X103768216Y-75001667D01*
X103764528Y-75009325D01*
X103747673Y-75063967D01*
X103746225Y-75068368D01*
X103727353Y-75122304D01*
X103725771Y-75130659D01*
X103724500Y-75139100D01*
X103724500Y-75196260D01*
X103724413Y-75200897D01*
X103722275Y-75258009D01*
X103723316Y-75267243D01*
X103722485Y-75267336D01*
X103724500Y-75282635D01*
X103724500Y-100369035D01*
X103704815Y-100436074D01*
X103688181Y-100456716D01*
X102954716Y-101190181D01*
X102893393Y-101223666D01*
X102867035Y-101226500D01*
X102826014Y-101226500D01*
X102672634Y-101264303D01*
X102532762Y-101337715D01*
X102532760Y-101337717D01*
X102414907Y-101442125D01*
X102414516Y-101442471D01*
X102324781Y-101572475D01*
X102324780Y-101572476D01*
X102268762Y-101720181D01*
X102249722Y-101876999D01*
X102249722Y-101877000D01*
X101075500Y-101877000D01*
X101075500Y-71274875D01*
X101075882Y-71265147D01*
X101077962Y-71238715D01*
X101089440Y-71092861D01*
X101092482Y-71073655D01*
X101131687Y-70910357D01*
X101137693Y-70891872D01*
X101201960Y-70736719D01*
X101210793Y-70719385D01*
X101298529Y-70576213D01*
X101309965Y-70560472D01*
X101419027Y-70432776D01*
X101432776Y-70419027D01*
X101560475Y-70309962D01*
X101576213Y-70298529D01*
X101719388Y-70210791D01*
X101736719Y-70201960D01*
X101891872Y-70137693D01*
X101910357Y-70131687D01*
X102073655Y-70092482D01*
X102092861Y-70089440D01*
X102240383Y-70077830D01*
X102265147Y-70075882D01*
X102274875Y-70075500D01*
X102294531Y-70075500D01*
X127645469Y-70075500D01*
X127665125Y-70075500D01*
X127674853Y-70075882D01*
G37*
G04 #@! TD.AperFunction*
M02*
