G04 #@! TF.GenerationSoftware,KiCad,Pcbnew,8.0.4+dfsg-1*
G04 #@! TF.CreationDate,2025-03-02T11:35:27+09:00*
G04 #@! TF.ProjectId,bionic-mc6809e,62696f6e-6963-42d6-9d63-36383039652e,7*
G04 #@! TF.SameCoordinates,Original*
G04 #@! TF.FileFunction,Soldermask,Bot*
G04 #@! TF.FilePolarity,Negative*
%FSLAX46Y46*%
G04 Gerber Fmt 4.6, Leading zero omitted, Abs format (unit mm)*
G04 Created by KiCad (PCBNEW 8.0.4+dfsg-1) date 2025-03-02 11:35:27*
%MOMM*%
%LPD*%
G01*
G04 APERTURE LIST*
G04 Aperture macros list*
%AMRoundRect*
0 Rectangle with rounded corners*
0 $1 Rounding radius*
0 $2 $3 $4 $5 $6 $7 $8 $9 X,Y pos of 4 corners*
0 Add a 4 corners polygon primitive as box body*
4,1,4,$2,$3,$4,$5,$6,$7,$8,$9,$2,$3,0*
0 Add four circle primitives for the rounded corners*
1,1,$1+$1,$2,$3*
1,1,$1+$1,$4,$5*
1,1,$1+$1,$6,$7*
1,1,$1+$1,$8,$9*
0 Add four rect primitives between the rounded corners*
20,1,$1+$1,$2,$3,$4,$5,0*
20,1,$1+$1,$4,$5,$6,$7,0*
20,1,$1+$1,$6,$7,$8,$9,0*
20,1,$1+$1,$8,$9,$2,$3,0*%
G04 Aperture macros list end*
%ADD10O,1.700000X1.700000*%
%ADD11R,1.700000X1.700000*%
%ADD12RoundRect,0.237500X0.237500X-0.300000X0.237500X0.300000X-0.237500X0.300000X-0.237500X-0.300000X0*%
%ADD13R,1.600000X1.600000*%
%ADD14O,1.600000X1.600000*%
G04 APERTURE END LIST*
D10*
X121171600Y-128686000D03*
X121171600Y-126146000D03*
X121171600Y-123606000D03*
X121171600Y-121066000D03*
X121171600Y-118526000D03*
X121171600Y-113446000D03*
X121171600Y-110906000D03*
X121171600Y-108366000D03*
X121171600Y-105826000D03*
X121171600Y-103286000D03*
X121171600Y-100746000D03*
X121171600Y-98206000D03*
X121171600Y-95666000D03*
X121171600Y-90586000D03*
X121171600Y-88046000D03*
X121171600Y-85506000D03*
X121171600Y-82966000D03*
X121171600Y-80426000D03*
X121171600Y-77886000D03*
X121171600Y-75346000D03*
X121171600Y-72806000D03*
D11*
X121171600Y-70266000D03*
X113551600Y-70266000D03*
D10*
X113551600Y-72806000D03*
X113551600Y-75346000D03*
X113551600Y-77886000D03*
X113551600Y-80426000D03*
X113551600Y-82966000D03*
X113551600Y-85506000D03*
X113551600Y-88046000D03*
X113551600Y-90586000D03*
X113551600Y-95666000D03*
X113551600Y-98206000D03*
X113551600Y-100746000D03*
X113551600Y-103286000D03*
X113551600Y-105826000D03*
X113551600Y-108366000D03*
X113551600Y-110906000D03*
X113551600Y-113446000D03*
X113551600Y-118526000D03*
X113551600Y-121066000D03*
X113551600Y-123606000D03*
X113551600Y-126146000D03*
X113551600Y-128686000D03*
D12*
X107144801Y-85506000D03*
X107144801Y-83781000D03*
D13*
X109741600Y-70266000D03*
D14*
X109741600Y-72806000D03*
X109741600Y-75346000D03*
X109741600Y-77886000D03*
X109741600Y-80426000D03*
X109741600Y-82966000D03*
X109741600Y-85506000D03*
X109741600Y-88046000D03*
X109741600Y-90586000D03*
X109741600Y-93126000D03*
X109741600Y-95666000D03*
X109741600Y-98206000D03*
X109741600Y-100746000D03*
X109741600Y-103286000D03*
X109741600Y-105826000D03*
X109741600Y-108366000D03*
X109741600Y-110906000D03*
X109741600Y-113446000D03*
X109741600Y-115986000D03*
X109741600Y-118526000D03*
X124981600Y-118526000D03*
X124981600Y-115986000D03*
X124981600Y-113446000D03*
X124981600Y-110906000D03*
X124981600Y-108366000D03*
X124981600Y-105826000D03*
X124981600Y-103286000D03*
X124981600Y-100746000D03*
X124981600Y-98206000D03*
X124981600Y-95666000D03*
X124981600Y-93126000D03*
X124981600Y-90586000D03*
X124981600Y-88046000D03*
X124981600Y-85506000D03*
X124981600Y-82966000D03*
X124981600Y-80426000D03*
X124981600Y-77886000D03*
X124981600Y-75346000D03*
X124981600Y-72806000D03*
X124981600Y-70266000D03*
M02*
