G04 #@! TF.GenerationSoftware,KiCad,Pcbnew,9.0.6-9.0.6~ubuntu25.10.1*
G04 #@! TF.CreationDate,2025-12-22T11:30:28+09:00*
G04 #@! TF.ProjectId,bionic-z180f,62696f6e-6963-42d7-9a31-3830662e6b69,2*
G04 #@! TF.SameCoordinates,Original*
G04 #@! TF.FileFunction,Copper,L2,Bot*
G04 #@! TF.FilePolarity,Positive*
%FSLAX46Y46*%
G04 Gerber Fmt 4.6, Leading zero omitted, Abs format (unit mm)*
G04 Created by KiCad (PCBNEW 9.0.6-9.0.6~ubuntu25.10.1) date 2025-12-22 11:30:28*
%MOMM*%
%LPD*%
G01*
G04 APERTURE LIST*
G04 Aperture macros list*
%AMRoundRect*
0 Rectangle with rounded corners*
0 $1 Rounding radius*
0 $2 $3 $4 $5 $6 $7 $8 $9 X,Y pos of 4 corners*
0 Add a 4 corners polygon primitive as box body*
4,1,4,$2,$3,$4,$5,$6,$7,$8,$9,$2,$3,0*
0 Add four circle primitives for the rounded corners*
1,1,$1+$1,$2,$3*
1,1,$1+$1,$4,$5*
1,1,$1+$1,$6,$7*
1,1,$1+$1,$8,$9*
0 Add four rect primitives between the rounded corners*
20,1,$1+$1,$2,$3,$4,$5,0*
20,1,$1+$1,$4,$5,$6,$7,0*
20,1,$1+$1,$6,$7,$8,$9,0*
20,1,$1+$1,$8,$9,$2,$3,0*%
G04 Aperture macros list end*
G04 #@! TA.AperFunction,ComponentPad*
%ADD10O,1.700000X1.700000*%
G04 #@! TD*
G04 #@! TA.AperFunction,SMDPad,CuDef*
%ADD11R,2.510000X1.000000*%
G04 #@! TD*
G04 #@! TA.AperFunction,ComponentPad*
%ADD12R,1.700000X1.700000*%
G04 #@! TD*
G04 #@! TA.AperFunction,SMDPad,CuDef*
%ADD13RoundRect,0.237500X0.300000X0.237500X-0.300000X0.237500X-0.300000X-0.237500X0.300000X-0.237500X0*%
G04 #@! TD*
G04 #@! TA.AperFunction,ViaPad*
%ADD14C,0.450000*%
G04 #@! TD*
G04 #@! TA.AperFunction,ViaPad*
%ADD15C,0.600000*%
G04 #@! TD*
G04 #@! TA.AperFunction,Conductor*
%ADD16C,0.150000*%
G04 #@! TD*
G04 #@! TA.AperFunction,Conductor*
%ADD17C,0.400000*%
G04 #@! TD*
G04 APERTURE END LIST*
D10*
X117510000Y-133500000D03*
D11*
X116265400Y-130960000D03*
X118754600Y-128420000D03*
X116265400Y-125880000D03*
X118754600Y-123340000D03*
X118754600Y-118260000D03*
X116265400Y-115720000D03*
X118754600Y-113180000D03*
X116265400Y-110640000D03*
X118754600Y-108100000D03*
X116265400Y-105560000D03*
X118754600Y-103020000D03*
X116265400Y-100480000D03*
X116265400Y-95400000D03*
X118754600Y-92860000D03*
X116265400Y-90320000D03*
X118754600Y-87780000D03*
X116265400Y-85240000D03*
X118754600Y-82700000D03*
X116265400Y-80160000D03*
X118754600Y-77620000D03*
D12*
X117510000Y-75080000D03*
X109890000Y-75080000D03*
D11*
X111134600Y-77620000D03*
X108645400Y-80160000D03*
X111134600Y-82700000D03*
X108645400Y-85240000D03*
X111134600Y-87780000D03*
X108645400Y-90320000D03*
X111134600Y-92860000D03*
X108645400Y-95400000D03*
X108645400Y-100480000D03*
X111134600Y-103020000D03*
X108645400Y-105560000D03*
X111134600Y-108100000D03*
X108645400Y-110640000D03*
X111134600Y-113180000D03*
X108645400Y-115720000D03*
X111134600Y-118260000D03*
X111134600Y-123340000D03*
X108645400Y-125880000D03*
X111134600Y-128420000D03*
X108645400Y-130960000D03*
D10*
X109890000Y-133500000D03*
D13*
X124923500Y-94028400D03*
X123198500Y-94028400D03*
X124924600Y-95628600D03*
X123199600Y-95628600D03*
D14*
X118703800Y-120063400D03*
D15*
X116062200Y-71524000D03*
X123707600Y-92733000D03*
X123783800Y-119098200D03*
X115808200Y-102639000D03*
X108442200Y-96695400D03*
X121345400Y-102689800D03*
X117052800Y-114094400D03*
X110296400Y-117091600D03*
X107705600Y-104290000D03*
X113344400Y-98930600D03*
X104149600Y-132611000D03*
X110296400Y-111605200D03*
X124317200Y-75181600D03*
X123504400Y-132865000D03*
X125866600Y-104112200D03*
X109229600Y-82268200D03*
X114970000Y-93926800D03*
X101406400Y-92377400D03*
X108975600Y-87881600D03*
X101711200Y-102283400D03*
X107934200Y-86662400D03*
X123402800Y-91183600D03*
X114208000Y-104747200D03*
X122158200Y-123949600D03*
X112125200Y-105610800D03*
D14*
X110804400Y-110664600D03*
X122945600Y-85443200D03*
X104073400Y-95958800D03*
X111134600Y-111732200D03*
X110655298Y-85671800D03*
X108045400Y-108811200D03*
X103438400Y-84681200D03*
X120532600Y-85468600D03*
X102625600Y-99133800D03*
X105587000Y-85773400D03*
X111134600Y-109166800D03*
X112176000Y-111808400D03*
X111134600Y-103883600D03*
X108645400Y-106423600D03*
X106944000Y-121308000D03*
X106944000Y-106982400D03*
X106944000Y-101877000D03*
X118297400Y-86154400D03*
X113093135Y-86291000D03*
X108645400Y-103197800D03*
X123479000Y-97990800D03*
X124075900Y-115046900D03*
X110347200Y-115770800D03*
X123047200Y-97279600D03*
X114638415Y-87149000D03*
X104540200Y-101851600D03*
X116265400Y-129588400D03*
X116697200Y-113180000D03*
X105587000Y-88821400D03*
X105587000Y-91386800D03*
X110621435Y-96446565D03*
X109509000Y-97432000D03*
X112696700Y-94244300D03*
X114106400Y-91590000D03*
X104225800Y-95146000D03*
X111875600Y-94252600D03*
X116595600Y-93622000D03*
X104980600Y-97549000D03*
X107822137Y-92872110D03*
X115744000Y-91628800D03*
X117357600Y-96644600D03*
X104387800Y-90949000D03*
X110824635Y-97538765D03*
X104149600Y-88745200D03*
X108772400Y-97990800D03*
X112572919Y-95841281D03*
X107992535Y-92090465D03*
X108010400Y-98016200D03*
X104523400Y-96749000D03*
X112836400Y-116370800D03*
X112836400Y-107033200D03*
X123131300Y-113619700D03*
X122259800Y-97457400D03*
X123037600Y-107312600D03*
X121599400Y-96660400D03*
X121345400Y-104264600D03*
X119999200Y-116692400D03*
X118322800Y-110335200D03*
X118812935Y-104917465D03*
X114665200Y-117142400D03*
X120380200Y-95527000D03*
X120980200Y-96136600D03*
X112176000Y-120368200D03*
X118932400Y-104112200D03*
X114948975Y-111689916D03*
D16*
X123047200Y-97279600D02*
X122894800Y-97432000D01*
X124057800Y-113820400D02*
X122838600Y-115039600D01*
X111134600Y-120266600D02*
X111134600Y-118260000D01*
X122894800Y-97432000D02*
X122894800Y-99125200D01*
X111972800Y-121104800D02*
X111134600Y-120266600D01*
X122894800Y-99125200D02*
X124057800Y-100288200D01*
X124057800Y-100288200D02*
X124057800Y-113820400D01*
X122838600Y-117503400D02*
X119237200Y-121104800D01*
X122838600Y-115039600D02*
X122838600Y-117503400D01*
X119237200Y-121104800D02*
X111972800Y-121104800D01*
X122259800Y-97457400D02*
X122285200Y-97482800D01*
X122285200Y-97482800D02*
X122285200Y-99387800D01*
X122285200Y-99387800D02*
X123656800Y-100759400D01*
X123656800Y-100759400D02*
X123656800Y-113053000D01*
X123131300Y-113578500D02*
X123131300Y-113619700D01*
X123656800Y-113053000D02*
X123131300Y-113578500D01*
X121599400Y-96660400D02*
X121624800Y-96685800D01*
X121624800Y-96685800D02*
X121624800Y-99540200D01*
X121624800Y-99540200D02*
X123021800Y-100937200D01*
X123021800Y-100937200D02*
X123021800Y-107296800D01*
X123021800Y-107296800D02*
X123037600Y-107312600D01*
X112176000Y-120368200D02*
X112506200Y-120698400D01*
X112506200Y-120698400D02*
X119217922Y-120698400D01*
X119217922Y-120698400D02*
X122437600Y-117478722D01*
X122437600Y-117478722D02*
X122437600Y-100937200D01*
X122437600Y-100937200D02*
X120989800Y-99489400D01*
X120989800Y-99489400D02*
X120989800Y-96146200D01*
X120989800Y-96146200D02*
X120980200Y-96136600D01*
X115744000Y-91628800D02*
X116265400Y-91107400D01*
X116265400Y-91107400D02*
X116265400Y-90320000D01*
X119084800Y-115720000D02*
X116265400Y-115720000D01*
X121207600Y-113597200D02*
X119084800Y-115720000D01*
X121223800Y-105880300D02*
X121207600Y-105896500D01*
X120456400Y-104442400D02*
X121223800Y-105209800D01*
X120456400Y-101318200D02*
X120456400Y-104442400D01*
X112696700Y-94244300D02*
X112722100Y-94244300D01*
X112722100Y-94244300D02*
X117312200Y-98834400D01*
X121207600Y-105896500D02*
X121207600Y-113597200D01*
X117972600Y-98834400D02*
X120456400Y-101318200D01*
X117312200Y-98834400D02*
X117972600Y-98834400D01*
X121223800Y-105209800D02*
X121223800Y-105880300D01*
X111875600Y-94252600D02*
X111937835Y-94252600D01*
X111937835Y-94252600D02*
X116920635Y-99235400D01*
X116920635Y-99235400D02*
X117806500Y-99235400D01*
X117806500Y-99235400D02*
X118754600Y-100183500D01*
X118754600Y-100183500D02*
X118754600Y-103020000D01*
X104987800Y-86232016D02*
X104986000Y-86230216D01*
X104986000Y-88572457D02*
X104987800Y-88570657D01*
X108010400Y-98016200D02*
X108010400Y-97990800D01*
X114741400Y-77620000D02*
X118754600Y-77620000D01*
X104986000Y-90697257D02*
X104986000Y-88572457D01*
X104988800Y-91197943D02*
X104988800Y-90700057D01*
X104987800Y-88570657D02*
X104987800Y-86232016D01*
X106537200Y-93215600D02*
X104986000Y-91664400D01*
X104986000Y-91200743D02*
X104988800Y-91197943D01*
X104986000Y-86230216D02*
X104986000Y-85732330D01*
X104986000Y-91664400D02*
X104986000Y-91200743D01*
X104988800Y-90700057D02*
X104986000Y-90697257D01*
X106537200Y-96517600D02*
X106537200Y-93215600D01*
X108010400Y-97990800D02*
X106537200Y-96517600D01*
X104986000Y-85732330D02*
X104987800Y-85730530D01*
X113090400Y-79271000D02*
X114741400Y-77620000D01*
X104987800Y-85730530D02*
X104987800Y-81557000D01*
X104987800Y-81557000D02*
X107273800Y-79271000D01*
X107273800Y-79271000D02*
X113090400Y-79271000D01*
X108772400Y-97990800D02*
X108747000Y-97990800D01*
X108747000Y-97990800D02*
X106867400Y-96111200D01*
X106867400Y-92321494D02*
X106130800Y-91584894D01*
X106867400Y-96111200D02*
X106867400Y-92321494D01*
X106130800Y-91584894D02*
X106130800Y-81988800D01*
X106130800Y-81988800D02*
X107096000Y-81023600D01*
X114106400Y-81023600D02*
X114970000Y-80160000D01*
X107096000Y-81023600D02*
X114106400Y-81023600D01*
X114970000Y-80160000D02*
X116265400Y-80160000D01*
X104225800Y-95146000D02*
X104327400Y-95146000D01*
X105521200Y-96339800D02*
X105521200Y-98708122D01*
X104327400Y-95146000D02*
X105521200Y-96339800D01*
X105521200Y-98708122D02*
X105953000Y-99139922D01*
X105953000Y-99139922D02*
X105953000Y-112773600D01*
X107794500Y-114615100D02*
X109928100Y-114615100D01*
X105953000Y-112773600D02*
X107794500Y-114615100D01*
X109928100Y-114615100D02*
X113573000Y-118260000D01*
X113573000Y-118260000D02*
X118754600Y-118260000D01*
X104980600Y-97549000D02*
X104980600Y-98593200D01*
X104980600Y-98593200D02*
X105546600Y-99159200D01*
X105546600Y-99159200D02*
X105546600Y-119047400D01*
X105546600Y-119047400D02*
X108975600Y-122476400D01*
X108975600Y-122476400D02*
X116392400Y-122476400D01*
X116392400Y-122476400D02*
X117256000Y-123340000D01*
X117256000Y-123340000D02*
X118754600Y-123340000D01*
X104523400Y-96749000D02*
X104530600Y-96756200D01*
X104530600Y-96756200D02*
X104530600Y-98727400D01*
X104530600Y-98727400D02*
X105140200Y-99337000D01*
X105140200Y-99337000D02*
X105140200Y-120368200D01*
X105140200Y-120368200D02*
X108975600Y-124203600D01*
X108975600Y-124203600D02*
X114690600Y-124203600D01*
X114690600Y-124203600D02*
X116265400Y-125778400D01*
X116265400Y-125778400D02*
X116265400Y-125880000D01*
D17*
X124923500Y-93948900D02*
X124923500Y-93618700D01*
X124923500Y-93618700D02*
X124037800Y-92733000D01*
X124037800Y-92733000D02*
X123707600Y-92733000D01*
D16*
X108645400Y-103197800D02*
X108645400Y-100480000D01*
X119999200Y-116692400D02*
X121624800Y-115066800D01*
X121624800Y-115066800D02*
X121624800Y-104544000D01*
X121624800Y-104544000D02*
X121345400Y-104264600D01*
X104149600Y-88745200D02*
X104387800Y-88983400D01*
X104387800Y-88983400D02*
X104387800Y-90949000D01*
X122031200Y-115720000D02*
X122031200Y-101242000D01*
X114665200Y-117142400D02*
X120608800Y-117142400D01*
X120608800Y-117142400D02*
X122031200Y-115720000D01*
X122031200Y-101242000D02*
X120380200Y-99591000D01*
X120380200Y-99591000D02*
X120380200Y-95527000D01*
X118932400Y-104112200D02*
X118932400Y-104188400D01*
X118932400Y-104188400D02*
X120806600Y-106062600D01*
X120806600Y-106062600D02*
X120806600Y-109223000D01*
X120806600Y-109223000D02*
X118322800Y-111706800D01*
X118322800Y-111706800D02*
X114965859Y-111706800D01*
X114965859Y-111706800D02*
X114948975Y-111689916D01*
X118812935Y-104917465D02*
X118812935Y-104932535D01*
X118812935Y-104932535D02*
X120405600Y-106525200D01*
X120405600Y-106525200D02*
X120405600Y-109014400D01*
X120405600Y-109014400D02*
X119084800Y-110335200D01*
X119084800Y-110335200D02*
X118322800Y-110335200D01*
X124876000Y-91564600D02*
X123707600Y-92733000D01*
X124876000Y-77467600D02*
X124876000Y-91564600D01*
X118932400Y-71524000D02*
X124876000Y-77467600D01*
X116062200Y-71524000D02*
X118932400Y-71524000D01*
D17*
X123783800Y-119098200D02*
X124977600Y-119098200D01*
X124924600Y-95628600D02*
X124924600Y-94029500D01*
X124977600Y-119098200D02*
X124977600Y-95681600D01*
X124923500Y-94028400D02*
X124923500Y-93948900D01*
X124924600Y-94029500D02*
X124923500Y-94028400D01*
X124977600Y-126184800D02*
X124977600Y-119098200D01*
X124977600Y-95681600D02*
X124924600Y-95628600D01*
X117662400Y-133500000D02*
X124977600Y-126184800D01*
X117510000Y-133500000D02*
X117662400Y-133500000D01*
D16*
X110220200Y-110665400D02*
X108670800Y-110665400D01*
X110221000Y-110664600D02*
X110220200Y-110665400D01*
X108670800Y-110665400D02*
X108645400Y-110640000D01*
X110804400Y-110664600D02*
X110221000Y-110664600D01*
X117497300Y-91780500D02*
X116417800Y-92860000D01*
X122945600Y-85443200D02*
X122945600Y-88719800D01*
X116417800Y-92860000D02*
X111134600Y-92860000D01*
X122945600Y-88719800D02*
X119884900Y-91780500D01*
X119884900Y-91780500D02*
X117497300Y-91780500D01*
X107807200Y-128420000D02*
X111134600Y-128420000D01*
X103946400Y-101595457D02*
X103939200Y-101602657D01*
X103939200Y-101602657D02*
X103939200Y-124552000D01*
X103939200Y-124552000D02*
X107807200Y-128420000D01*
X104073400Y-99489400D02*
X103946400Y-99616400D01*
X103946400Y-99616400D02*
X103946400Y-101595457D01*
X104073400Y-95958800D02*
X104073400Y-99489400D01*
X111134600Y-111732200D02*
X111134600Y-113180000D01*
X110655298Y-85671800D02*
X110296400Y-85671800D01*
X110296400Y-85671800D02*
X109864600Y-85240000D01*
X109864600Y-85240000D02*
X108645400Y-85240000D01*
X108756600Y-108100000D02*
X111134600Y-108100000D01*
X108045400Y-108811200D02*
X108756600Y-108100000D01*
X103438400Y-84681200D02*
X103438400Y-81023600D01*
X103438400Y-81023600D02*
X106842000Y-77620000D01*
X106842000Y-77620000D02*
X111134600Y-77620000D01*
X119389600Y-86764000D02*
X116502300Y-86764000D01*
X112082700Y-91183600D02*
X109597900Y-91183600D01*
X120532600Y-85621000D02*
X119389600Y-86764000D01*
X120532600Y-85468600D02*
X120532600Y-85621000D01*
X109597900Y-91183600D02*
X108645400Y-92136100D01*
X108645400Y-92136100D02*
X108645400Y-95400000D01*
X116502300Y-86764000D02*
X112082700Y-91183600D01*
X108594600Y-131010800D02*
X108645400Y-130960000D01*
X102625600Y-126210200D02*
X107426200Y-131010800D01*
X102625600Y-99133800D02*
X102625600Y-126210200D01*
X107426200Y-131010800D02*
X108594600Y-131010800D01*
X105597400Y-85763000D02*
X105597400Y-81658600D01*
X107096000Y-80160000D02*
X108645400Y-80160000D01*
X105597400Y-81658600D02*
X107096000Y-80160000D01*
X105587000Y-85773400D02*
X105597400Y-85763000D01*
X111134600Y-109166800D02*
X111160000Y-109166800D01*
X111134600Y-103883600D02*
X111134600Y-103020000D01*
X111160000Y-109166800D02*
X112176000Y-110182800D01*
X112176000Y-110182800D02*
X112176000Y-111808400D01*
X108645400Y-106423600D02*
X108645400Y-105560000D01*
X109001000Y-123340000D02*
X111134600Y-123340000D01*
X106944000Y-101877000D02*
X106944000Y-106982400D01*
X106944000Y-121308000D02*
X106969000Y-121308000D01*
X106969000Y-121308000D02*
X109001000Y-123340000D01*
X118297400Y-86154400D02*
X116544800Y-86154400D01*
X116544800Y-86154400D02*
X112379200Y-90320000D01*
X112379200Y-90320000D02*
X108645400Y-90320000D01*
X111134600Y-83639800D02*
X111134600Y-82700000D01*
X113093135Y-85598335D02*
X111134600Y-83639800D01*
X113093135Y-86291000D02*
X113093135Y-85598335D01*
X124458800Y-114664000D02*
X124075900Y-115046900D01*
X123453600Y-98803600D02*
X124458800Y-99808800D01*
X110347200Y-115770800D02*
X110296400Y-115720000D01*
X123453600Y-98016200D02*
X123453600Y-98803600D01*
X123479000Y-97990800D02*
X123453600Y-98016200D01*
X110296400Y-115720000D02*
X108645400Y-115720000D01*
X124458800Y-99808800D02*
X124458800Y-114664000D01*
X114496785Y-87149000D02*
X114492785Y-87145000D01*
X114492785Y-87145000D02*
X114492785Y-87190415D01*
X114638415Y-87149000D02*
X114496785Y-87149000D01*
X114492785Y-87190415D02*
X113903200Y-87780000D01*
X113903200Y-87780000D02*
X111134600Y-87780000D01*
X108645400Y-124483000D02*
X104540200Y-120377800D01*
X104540200Y-120377800D02*
X104540200Y-101851600D01*
X108645400Y-125880000D02*
X108645400Y-124483000D01*
X116265400Y-129588400D02*
X116265400Y-130960000D01*
X118754600Y-113180000D02*
X116697200Y-113180000D01*
X111425635Y-97289822D02*
X111425635Y-97291235D01*
X115782800Y-104467800D02*
X117510000Y-104467800D01*
X117801200Y-104759000D02*
X117821400Y-104759000D01*
X110601200Y-96466800D02*
X111072165Y-96937765D01*
X117510000Y-104467800D02*
X117801200Y-104759000D01*
X117821400Y-104779200D02*
X118754600Y-105712400D01*
X111425635Y-97291235D02*
X111541000Y-97406600D01*
X105587000Y-88821400D02*
X105587000Y-91386800D01*
X111072165Y-96937765D02*
X111073578Y-96937765D01*
X114304200Y-102989200D02*
X115782800Y-104467800D01*
X111541000Y-97406600D02*
X111541000Y-98812400D01*
X111541000Y-98812400D02*
X114304200Y-101575600D01*
X111073578Y-96937765D02*
X111425635Y-97289822D01*
X118754600Y-105712400D02*
X118754600Y-108100000D01*
X114304200Y-101575600D02*
X114304200Y-102989200D01*
X110621435Y-96446565D02*
X110601200Y-96466800D01*
X117821400Y-104759000D02*
X117821400Y-104779200D01*
X113471400Y-107846000D02*
X116265400Y-110640000D01*
X109509000Y-97914600D02*
X113471400Y-101877000D01*
X109509000Y-97432000D02*
X109509000Y-97914600D01*
X113471400Y-101877000D02*
X113471400Y-107846000D01*
X116448400Y-87780000D02*
X118754600Y-87780000D01*
X114106400Y-91590000D02*
X114106400Y-90122000D01*
X114106400Y-90122000D02*
X116448400Y-87780000D01*
X118754600Y-92860000D02*
X117357600Y-92860000D01*
X117357600Y-92860000D02*
X116595600Y-93622000D01*
X106588000Y-91616416D02*
X106588000Y-82293600D01*
X107822137Y-92850553D02*
X106588000Y-91616416D01*
X115427200Y-82700000D02*
X118754600Y-82700000D01*
X114151800Y-81424600D02*
X115427200Y-82700000D01*
X106588000Y-82293600D02*
X107457000Y-81424600D01*
X107457000Y-81424600D02*
X114151800Y-81424600D01*
X107822137Y-92872110D02*
X107822137Y-92850553D01*
X117357600Y-96492200D02*
X116265400Y-95400000D01*
X117357600Y-96644600D02*
X117357600Y-96492200D01*
X110880600Y-97635200D02*
X110880600Y-98719100D01*
X110824635Y-97538765D02*
X110824635Y-97579235D01*
X116240000Y-105560000D02*
X116265400Y-105560000D01*
X110880600Y-98719100D02*
X113903200Y-101741700D01*
X113903200Y-103223200D02*
X116240000Y-105560000D01*
X113903200Y-101741700D02*
X113903200Y-103223200D01*
X110824635Y-97579235D02*
X110880600Y-97635200D01*
X112557000Y-95857200D02*
X116265400Y-99565600D01*
X116265400Y-99565600D02*
X116265400Y-100480000D01*
X112572919Y-95841281D02*
X112557000Y-95857200D01*
X106994400Y-91082000D02*
X106994400Y-88846800D01*
X106994400Y-88846800D02*
X108950200Y-86891000D01*
X107992535Y-92090465D02*
X107992535Y-92080135D01*
X107992535Y-92080135D02*
X106994400Y-91082000D01*
X113649200Y-86891000D02*
X115300200Y-85240000D01*
X115300200Y-85240000D02*
X116265400Y-85240000D01*
X108950200Y-86891000D02*
X113649200Y-86891000D01*
X112836400Y-107033200D02*
X112836400Y-116370800D01*
G04 #@! TA.AperFunction,Conductor*
G36*
X122108045Y-116129512D02*
G01*
X122151310Y-116172777D01*
X122162100Y-116217722D01*
X122162100Y-117323598D01*
X122143193Y-117381789D01*
X122133104Y-117393602D01*
X119132803Y-120393904D01*
X119078286Y-120421681D01*
X119062799Y-120422900D01*
X112700500Y-120422900D01*
X112642309Y-120403993D01*
X112606345Y-120354493D01*
X112601500Y-120323900D01*
X112601500Y-120312183D01*
X112588505Y-120263684D01*
X112572503Y-120203963D01*
X112572501Y-120203960D01*
X112572501Y-120203958D01*
X112524806Y-120121350D01*
X112516485Y-120106937D01*
X112437263Y-120027715D01*
X112437260Y-120027713D01*
X112340240Y-119971698D01*
X112340242Y-119971698D01*
X112298251Y-119960447D01*
X112232018Y-119942700D01*
X112119982Y-119942700D01*
X112053748Y-119960447D01*
X112011758Y-119971698D01*
X111914739Y-120027713D01*
X111835513Y-120106939D01*
X111779498Y-120203958D01*
X111756694Y-120289066D01*
X111723370Y-120340381D01*
X111666248Y-120362307D01*
X111607148Y-120346471D01*
X111591063Y-120333447D01*
X111439096Y-120181480D01*
X111411319Y-120126963D01*
X111410100Y-120111476D01*
X111410100Y-119059500D01*
X111429007Y-119001309D01*
X111478507Y-118965345D01*
X111509100Y-118960500D01*
X112409347Y-118960500D01*
X112409348Y-118960500D01*
X112467831Y-118948867D01*
X112534152Y-118904552D01*
X112578467Y-118838231D01*
X112590100Y-118779748D01*
X112590100Y-117905723D01*
X112609007Y-117847532D01*
X112658507Y-117811568D01*
X112719693Y-117811568D01*
X112759104Y-117835719D01*
X113339443Y-118416058D01*
X113339442Y-118416058D01*
X113416938Y-118493553D01*
X113416942Y-118493557D01*
X113518200Y-118535500D01*
X117200100Y-118535500D01*
X117258291Y-118554407D01*
X117294255Y-118603907D01*
X117299100Y-118634500D01*
X117299100Y-118779746D01*
X117299101Y-118779758D01*
X117310732Y-118838227D01*
X117310733Y-118838231D01*
X117355048Y-118904552D01*
X117421369Y-118948867D01*
X117465831Y-118957711D01*
X117479841Y-118960498D01*
X117479846Y-118960498D01*
X117479852Y-118960500D01*
X117479853Y-118960500D01*
X120029347Y-118960500D01*
X120029348Y-118960500D01*
X120087831Y-118948867D01*
X120154152Y-118904552D01*
X120198467Y-118838231D01*
X120210100Y-118779748D01*
X120210100Y-117740252D01*
X120198467Y-117681769D01*
X120154152Y-117615448D01*
X120129858Y-117599215D01*
X120091979Y-117551165D01*
X120089577Y-117490027D01*
X120123570Y-117439153D01*
X120180974Y-117417976D01*
X120184860Y-117417900D01*
X120663599Y-117417900D01*
X120663600Y-117417900D01*
X120764858Y-117375957D01*
X120842357Y-117298458D01*
X120842356Y-117298458D01*
X121993097Y-116147717D01*
X122047613Y-116119941D01*
X122108045Y-116129512D01*
G37*
G04 #@! TD.AperFunction*
G04 #@! TA.AperFunction,Conductor*
G36*
X113280901Y-108045116D02*
G01*
X114663844Y-109428060D01*
X115013683Y-109777899D01*
X115041460Y-109832416D01*
X115031889Y-109892848D01*
X114988624Y-109936113D01*
X114962996Y-109945000D01*
X114932171Y-109951132D01*
X114932166Y-109951134D01*
X114865851Y-109995445D01*
X114865845Y-109995451D01*
X114821534Y-110061766D01*
X114821532Y-110061772D01*
X114809901Y-110120241D01*
X114809900Y-110120253D01*
X114809900Y-111159753D01*
X114817316Y-111197034D01*
X114810124Y-111257795D01*
X114769719Y-111302083D01*
X114687713Y-111349430D01*
X114608488Y-111428655D01*
X114552473Y-111525674D01*
X114552472Y-111525679D01*
X114523475Y-111633898D01*
X114523475Y-111745934D01*
X114539031Y-111803991D01*
X114552473Y-111854157D01*
X114602241Y-111940356D01*
X114608490Y-111951179D01*
X114687712Y-112030401D01*
X114687714Y-112030402D01*
X114784734Y-112086417D01*
X114784732Y-112086417D01*
X114784736Y-112086418D01*
X114784738Y-112086419D01*
X114892957Y-112115416D01*
X114892959Y-112115416D01*
X115004991Y-112115416D01*
X115004993Y-112115416D01*
X115113212Y-112086419D01*
X115113214Y-112086417D01*
X115113216Y-112086417D01*
X115161659Y-112058448D01*
X115210238Y-112030401D01*
X115229344Y-112011294D01*
X115283859Y-111983519D01*
X115299346Y-111982300D01*
X118377599Y-111982300D01*
X118377600Y-111982300D01*
X118478858Y-111940357D01*
X118556357Y-111862858D01*
X118556356Y-111862858D01*
X120763097Y-109656117D01*
X120817613Y-109628341D01*
X120878045Y-109637912D01*
X120921310Y-109681177D01*
X120932100Y-109726122D01*
X120932100Y-113442076D01*
X120913193Y-113500267D01*
X120903104Y-113512080D01*
X118999681Y-115415504D01*
X118945164Y-115443281D01*
X118929677Y-115444500D01*
X117819900Y-115444500D01*
X117761709Y-115425593D01*
X117725745Y-115376093D01*
X117720900Y-115345500D01*
X117720900Y-115200253D01*
X117720898Y-115200241D01*
X117711643Y-115153715D01*
X117709267Y-115141769D01*
X117664952Y-115075448D01*
X117664948Y-115075445D01*
X117598633Y-115031134D01*
X117598631Y-115031133D01*
X117598628Y-115031132D01*
X117598627Y-115031132D01*
X117540158Y-115019501D01*
X117540148Y-115019500D01*
X114990652Y-115019500D01*
X114990651Y-115019500D01*
X114990641Y-115019501D01*
X114932172Y-115031132D01*
X114932166Y-115031134D01*
X114865851Y-115075445D01*
X114865845Y-115075451D01*
X114821534Y-115141766D01*
X114821532Y-115141772D01*
X114809901Y-115200241D01*
X114809900Y-115200253D01*
X114809900Y-116239746D01*
X114809901Y-116239758D01*
X114821532Y-116298227D01*
X114821534Y-116298233D01*
X114857404Y-116351915D01*
X114865848Y-116364552D01*
X114932169Y-116408867D01*
X114976631Y-116417711D01*
X114990641Y-116420498D01*
X114990646Y-116420498D01*
X114990652Y-116420500D01*
X114990653Y-116420500D01*
X117540147Y-116420500D01*
X117540148Y-116420500D01*
X117598631Y-116408867D01*
X117664952Y-116364552D01*
X117709267Y-116298231D01*
X117720900Y-116239748D01*
X117720900Y-116094500D01*
X117739807Y-116036309D01*
X117789307Y-116000345D01*
X117819900Y-115995500D01*
X119139599Y-115995500D01*
X119139600Y-115995500D01*
X119240858Y-115953557D01*
X119318357Y-115876058D01*
X119318356Y-115876058D01*
X121180297Y-114014117D01*
X121234813Y-113986341D01*
X121295245Y-113995912D01*
X121338510Y-114039177D01*
X121349300Y-114084122D01*
X121349300Y-114911676D01*
X121330393Y-114969867D01*
X121320304Y-114981680D01*
X120064081Y-116237904D01*
X120009564Y-116265681D01*
X119994077Y-116266900D01*
X119943182Y-116266900D01*
X119876948Y-116284647D01*
X119834958Y-116295898D01*
X119737939Y-116351913D01*
X119658713Y-116431139D01*
X119602698Y-116528158D01*
X119589099Y-116578912D01*
X119574858Y-116632063D01*
X119573700Y-116636383D01*
X119573700Y-116748417D01*
X119574547Y-116754850D01*
X119571377Y-116755267D01*
X119568845Y-116803398D01*
X119530329Y-116850940D01*
X119476428Y-116866900D01*
X115032456Y-116866900D01*
X114974265Y-116847993D01*
X114962453Y-116837904D01*
X114926462Y-116801914D01*
X114829440Y-116745898D01*
X114829442Y-116745898D01*
X114787451Y-116734647D01*
X114721218Y-116716900D01*
X114609182Y-116716900D01*
X114542948Y-116734647D01*
X114500958Y-116745898D01*
X114403939Y-116801913D01*
X114324713Y-116881139D01*
X114268698Y-116978158D01*
X114268697Y-116978163D01*
X114239700Y-117086382D01*
X114239700Y-117198418D01*
X114265272Y-117293855D01*
X114268698Y-117306641D01*
X114312086Y-117381789D01*
X114324715Y-117403663D01*
X114403937Y-117482885D01*
X114403939Y-117482886D01*
X114500959Y-117538901D01*
X114500957Y-117538901D01*
X114500961Y-117538902D01*
X114500963Y-117538903D01*
X114609182Y-117567900D01*
X114609184Y-117567900D01*
X114721216Y-117567900D01*
X114721218Y-117567900D01*
X114829437Y-117538903D01*
X114829439Y-117538901D01*
X114829441Y-117538901D01*
X114887388Y-117505445D01*
X114926463Y-117482885D01*
X114944457Y-117464890D01*
X114962453Y-117446896D01*
X115016970Y-117419119D01*
X115032456Y-117417900D01*
X117324340Y-117417900D01*
X117382531Y-117436807D01*
X117418495Y-117486307D01*
X117418495Y-117547493D01*
X117382531Y-117596993D01*
X117379342Y-117599215D01*
X117355051Y-117615445D01*
X117355045Y-117615451D01*
X117310734Y-117681766D01*
X117310732Y-117681772D01*
X117299101Y-117740241D01*
X117299100Y-117740253D01*
X117299100Y-117885500D01*
X117280193Y-117943691D01*
X117230693Y-117979655D01*
X117200100Y-117984500D01*
X113728123Y-117984500D01*
X113669932Y-117965593D01*
X113658119Y-117955504D01*
X113185500Y-117482885D01*
X112657145Y-116954530D01*
X112629370Y-116900016D01*
X112638941Y-116839584D01*
X112682206Y-116796319D01*
X112742638Y-116786748D01*
X112752764Y-116788900D01*
X112780382Y-116796300D01*
X112780384Y-116796300D01*
X112892416Y-116796300D01*
X112892418Y-116796300D01*
X113000637Y-116767303D01*
X113000639Y-116767301D01*
X113000641Y-116767301D01*
X113033347Y-116748418D01*
X113097663Y-116711285D01*
X113176885Y-116632063D01*
X113232903Y-116535037D01*
X113261900Y-116426818D01*
X113261900Y-116314782D01*
X113232903Y-116206563D01*
X113232901Y-116206560D01*
X113232901Y-116206558D01*
X113176885Y-116109537D01*
X113140896Y-116073547D01*
X113113119Y-116019030D01*
X113111900Y-116003544D01*
X113111900Y-113123982D01*
X116271700Y-113123982D01*
X116271700Y-113236018D01*
X116281160Y-113271323D01*
X116300698Y-113344241D01*
X116356713Y-113441260D01*
X116356715Y-113441263D01*
X116435937Y-113520485D01*
X116435939Y-113520486D01*
X116532959Y-113576501D01*
X116532957Y-113576501D01*
X116532961Y-113576502D01*
X116532963Y-113576503D01*
X116641182Y-113605500D01*
X116641184Y-113605500D01*
X116753216Y-113605500D01*
X116753218Y-113605500D01*
X116861437Y-113576503D01*
X116861439Y-113576501D01*
X116861441Y-113576501D01*
X116899547Y-113554500D01*
X116958463Y-113520485D01*
X116978681Y-113500267D01*
X116994453Y-113484496D01*
X117001569Y-113480870D01*
X117006265Y-113474407D01*
X117028316Y-113467242D01*
X117048970Y-113456719D01*
X117064456Y-113455500D01*
X117200100Y-113455500D01*
X117258291Y-113474407D01*
X117294255Y-113523907D01*
X117299100Y-113554500D01*
X117299100Y-113699746D01*
X117299101Y-113699758D01*
X117310732Y-113758227D01*
X117310734Y-113758233D01*
X117355045Y-113824548D01*
X117355048Y-113824552D01*
X117421369Y-113868867D01*
X117465831Y-113877711D01*
X117479841Y-113880498D01*
X117479846Y-113880498D01*
X117479852Y-113880500D01*
X117479853Y-113880500D01*
X120029347Y-113880500D01*
X120029348Y-113880500D01*
X120087831Y-113868867D01*
X120154152Y-113824552D01*
X120198467Y-113758231D01*
X120210100Y-113699748D01*
X120210100Y-112660252D01*
X120198467Y-112601769D01*
X120154152Y-112535448D01*
X120154148Y-112535445D01*
X120087833Y-112491134D01*
X120087831Y-112491133D01*
X120087828Y-112491132D01*
X120087827Y-112491132D01*
X120029358Y-112479501D01*
X120029348Y-112479500D01*
X117479852Y-112479500D01*
X117479851Y-112479500D01*
X117479841Y-112479501D01*
X117421372Y-112491132D01*
X117421366Y-112491134D01*
X117355051Y-112535445D01*
X117355045Y-112535451D01*
X117310734Y-112601766D01*
X117310732Y-112601772D01*
X117299101Y-112660241D01*
X117299100Y-112660253D01*
X117299100Y-112805500D01*
X117294255Y-112820411D01*
X117294255Y-112836093D01*
X117285038Y-112848778D01*
X117280193Y-112863691D01*
X117267507Y-112872907D01*
X117258291Y-112885593D01*
X117243378Y-112890438D01*
X117230693Y-112899655D01*
X117200100Y-112904500D01*
X117064456Y-112904500D01*
X117006265Y-112885593D01*
X116994453Y-112875504D01*
X116958462Y-112839514D01*
X116861440Y-112783498D01*
X116861442Y-112783498D01*
X116819451Y-112772247D01*
X116753218Y-112754500D01*
X116641182Y-112754500D01*
X116574948Y-112772247D01*
X116532958Y-112783498D01*
X116435939Y-112839513D01*
X116356713Y-112918739D01*
X116300698Y-113015758D01*
X116300697Y-113015763D01*
X116271700Y-113123982D01*
X113111900Y-113123982D01*
X113111900Y-108115122D01*
X113130807Y-108056931D01*
X113180307Y-108020967D01*
X113241493Y-108020967D01*
X113280901Y-108045116D01*
G37*
G04 #@! TD.AperFunction*
G04 #@! TA.AperFunction,Conductor*
G36*
X113915903Y-103625518D02*
G01*
X114458600Y-104168216D01*
X114992498Y-104702114D01*
X115020275Y-104756631D01*
X115010704Y-104817063D01*
X114967439Y-104860328D01*
X114941810Y-104869215D01*
X114932172Y-104871132D01*
X114932166Y-104871134D01*
X114865851Y-104915445D01*
X114865845Y-104915451D01*
X114821534Y-104981766D01*
X114821532Y-104981772D01*
X114809901Y-105040241D01*
X114809900Y-105040253D01*
X114809900Y-106079746D01*
X114809901Y-106079758D01*
X114821532Y-106138227D01*
X114821534Y-106138233D01*
X114865845Y-106204548D01*
X114865848Y-106204552D01*
X114932169Y-106248867D01*
X114972604Y-106256910D01*
X114990641Y-106260498D01*
X114990646Y-106260498D01*
X114990652Y-106260500D01*
X114990653Y-106260500D01*
X117540147Y-106260500D01*
X117540148Y-106260500D01*
X117598631Y-106248867D01*
X117664952Y-106204552D01*
X117709267Y-106138231D01*
X117720900Y-106079748D01*
X117720900Y-105307323D01*
X117739807Y-105249132D01*
X117789307Y-105213168D01*
X117850493Y-105213168D01*
X117889904Y-105237319D01*
X118450104Y-105797519D01*
X118477881Y-105852036D01*
X118479100Y-105867523D01*
X118479100Y-107300500D01*
X118460193Y-107358691D01*
X118410693Y-107394655D01*
X118380100Y-107399500D01*
X117479852Y-107399500D01*
X117479851Y-107399500D01*
X117479841Y-107399501D01*
X117421372Y-107411132D01*
X117421366Y-107411134D01*
X117355051Y-107455445D01*
X117355045Y-107455451D01*
X117310734Y-107521766D01*
X117310732Y-107521772D01*
X117299101Y-107580241D01*
X117299100Y-107580253D01*
X117299100Y-108619746D01*
X117299101Y-108619758D01*
X117310732Y-108678227D01*
X117310734Y-108678233D01*
X117355045Y-108744548D01*
X117355048Y-108744552D01*
X117421369Y-108788867D01*
X117465831Y-108797711D01*
X117479841Y-108800498D01*
X117479846Y-108800498D01*
X117479852Y-108800500D01*
X117479853Y-108800500D01*
X119990876Y-108800500D01*
X120049067Y-108819407D01*
X120085031Y-108868907D01*
X120085031Y-108930093D01*
X120060880Y-108969504D01*
X118999681Y-110030704D01*
X118945164Y-110058481D01*
X118929677Y-110059700D01*
X118690056Y-110059700D01*
X118631865Y-110040793D01*
X118620053Y-110030704D01*
X118584062Y-109994714D01*
X118487040Y-109938698D01*
X118487042Y-109938698D01*
X118445051Y-109927447D01*
X118378818Y-109909700D01*
X118266782Y-109909700D01*
X118200548Y-109927447D01*
X118158558Y-109938698D01*
X118061539Y-109994713D01*
X117982313Y-110073939D01*
X117926298Y-110170958D01*
X117915527Y-110211159D01*
X117882203Y-110262473D01*
X117825081Y-110284400D01*
X117765981Y-110268564D01*
X117727476Y-110221014D01*
X117720900Y-110185536D01*
X117720900Y-110120253D01*
X117720898Y-110120241D01*
X117718111Y-110106231D01*
X117709267Y-110061769D01*
X117664952Y-109995448D01*
X117663854Y-109994714D01*
X117598633Y-109951134D01*
X117598631Y-109951133D01*
X117598628Y-109951132D01*
X117598627Y-109951132D01*
X117540158Y-109939501D01*
X117540148Y-109939500D01*
X117540147Y-109939500D01*
X115995524Y-109939500D01*
X115937333Y-109920593D01*
X115925520Y-109910504D01*
X113775896Y-107760880D01*
X113748119Y-107706363D01*
X113746900Y-107690876D01*
X113746900Y-103695523D01*
X113765807Y-103637332D01*
X113815307Y-103601368D01*
X113876493Y-103601368D01*
X113915903Y-103625518D01*
G37*
G04 #@! TD.AperFunction*
G04 #@! TA.AperFunction,Conductor*
G36*
X109638291Y-87185407D02*
G01*
X109674255Y-87234907D01*
X109679100Y-87265500D01*
X109679100Y-88299746D01*
X109679101Y-88299758D01*
X109690732Y-88358227D01*
X109690734Y-88358233D01*
X109721793Y-88404715D01*
X109735048Y-88424552D01*
X109801369Y-88468867D01*
X109845831Y-88477711D01*
X109859841Y-88480498D01*
X109859846Y-88480498D01*
X109859852Y-88480500D01*
X109859853Y-88480500D01*
X112409347Y-88480500D01*
X112409348Y-88480500D01*
X112467831Y-88468867D01*
X112534152Y-88424552D01*
X112578467Y-88358231D01*
X112590100Y-88299748D01*
X112590100Y-88154500D01*
X112609007Y-88096309D01*
X112658507Y-88060345D01*
X112689100Y-88055500D01*
X113958000Y-88055500D01*
X114003625Y-88036600D01*
X114064620Y-88031799D01*
X114116790Y-88063767D01*
X114140206Y-88120295D01*
X114125923Y-88179790D01*
X114111515Y-88198068D01*
X112294081Y-90015504D01*
X112239564Y-90043281D01*
X112224077Y-90044500D01*
X110199900Y-90044500D01*
X110141709Y-90025593D01*
X110105745Y-89976093D01*
X110100900Y-89945500D01*
X110100900Y-89800253D01*
X110100898Y-89800241D01*
X110098111Y-89786231D01*
X110089267Y-89741769D01*
X110044952Y-89675448D01*
X110020899Y-89659376D01*
X109978633Y-89631134D01*
X109978631Y-89631133D01*
X109978628Y-89631132D01*
X109978627Y-89631132D01*
X109920158Y-89619501D01*
X109920148Y-89619500D01*
X107370652Y-89619500D01*
X107368900Y-89619500D01*
X107310709Y-89600593D01*
X107274745Y-89551093D01*
X107269900Y-89520500D01*
X107269900Y-89001923D01*
X107288807Y-88943732D01*
X107298896Y-88931919D01*
X109035319Y-87195496D01*
X109089836Y-87167719D01*
X109105323Y-87166500D01*
X109580100Y-87166500D01*
X109638291Y-87185407D01*
G37*
G04 #@! TD.AperFunction*
G04 #@! TA.AperFunction,Conductor*
G36*
X125134309Y-70100877D02*
G01*
X125324457Y-70117512D01*
X125341437Y-70120505D01*
X125521635Y-70168789D01*
X125537839Y-70174687D01*
X125706902Y-70253523D01*
X125721842Y-70262149D01*
X125874641Y-70369140D01*
X125887861Y-70380232D01*
X126019767Y-70512138D01*
X126030859Y-70525358D01*
X126137850Y-70678157D01*
X126146478Y-70693101D01*
X126225308Y-70862151D01*
X126231211Y-70878368D01*
X126279492Y-71058555D01*
X126282488Y-71075550D01*
X126299123Y-71265690D01*
X126299500Y-71274318D01*
X126299500Y-137305681D01*
X126299123Y-137314309D01*
X126282488Y-137504449D01*
X126279492Y-137521444D01*
X126231211Y-137701631D01*
X126225308Y-137717848D01*
X126146478Y-137886898D01*
X126137850Y-137901842D01*
X126030859Y-138054641D01*
X126019767Y-138067861D01*
X125887861Y-138199767D01*
X125874641Y-138210859D01*
X125721842Y-138317850D01*
X125706898Y-138326478D01*
X125537848Y-138405308D01*
X125521631Y-138411211D01*
X125341444Y-138459492D01*
X125324449Y-138462488D01*
X125134309Y-138479123D01*
X125125681Y-138479500D01*
X102274319Y-138479500D01*
X102265691Y-138479123D01*
X102075550Y-138462488D01*
X102058555Y-138459492D01*
X101878368Y-138411211D01*
X101862154Y-138405309D01*
X101693100Y-138326477D01*
X101678157Y-138317850D01*
X101525358Y-138210859D01*
X101512138Y-138199767D01*
X101380232Y-138067861D01*
X101369140Y-138054641D01*
X101262149Y-137901842D01*
X101253523Y-137886902D01*
X101174687Y-137717839D01*
X101168788Y-137701631D01*
X101149843Y-137630926D01*
X101120505Y-137521437D01*
X101117512Y-137504457D01*
X101100877Y-137314309D01*
X101100500Y-137305681D01*
X101100500Y-133396532D01*
X108839500Y-133396532D01*
X108839500Y-133603467D01*
X108879869Y-133806418D01*
X108959058Y-133997597D01*
X108959059Y-133997598D01*
X109074023Y-134169655D01*
X109220345Y-134315977D01*
X109392402Y-134430941D01*
X109583580Y-134510130D01*
X109786535Y-134550500D01*
X109786536Y-134550500D01*
X109993464Y-134550500D01*
X109993465Y-134550500D01*
X110196420Y-134510130D01*
X110387598Y-134430941D01*
X110559655Y-134315977D01*
X110705977Y-134169655D01*
X110820941Y-133997598D01*
X110900130Y-133806420D01*
X110940500Y-133603465D01*
X110940500Y-133396535D01*
X110900130Y-133193580D01*
X110820941Y-133002402D01*
X110705977Y-132830345D01*
X110559655Y-132684023D01*
X110387598Y-132569059D01*
X110387599Y-132569059D01*
X110387597Y-132569058D01*
X110196418Y-132489869D01*
X109993467Y-132449500D01*
X109993465Y-132449500D01*
X109786535Y-132449500D01*
X109786532Y-132449500D01*
X109583581Y-132489869D01*
X109392402Y-132569058D01*
X109220348Y-132684020D01*
X109074020Y-132830348D01*
X108959058Y-133002402D01*
X108879869Y-133193581D01*
X108839500Y-133396532D01*
X101100500Y-133396532D01*
X101100500Y-99077782D01*
X102200100Y-99077782D01*
X102200100Y-99189818D01*
X102222572Y-99273684D01*
X102229098Y-99298041D01*
X102283711Y-99392631D01*
X102285115Y-99395063D01*
X102321105Y-99431053D01*
X102348881Y-99485568D01*
X102350100Y-99501055D01*
X102350100Y-126264999D01*
X102380913Y-126339388D01*
X102392042Y-126366257D01*
X107160904Y-131135119D01*
X107188681Y-131189636D01*
X107189900Y-131205123D01*
X107189900Y-131479746D01*
X107189901Y-131479758D01*
X107201532Y-131538227D01*
X107201533Y-131538231D01*
X107245848Y-131604552D01*
X107312169Y-131648867D01*
X107356631Y-131657711D01*
X107370641Y-131660498D01*
X107370646Y-131660498D01*
X107370652Y-131660500D01*
X107370653Y-131660500D01*
X109920147Y-131660500D01*
X109920148Y-131660500D01*
X109978631Y-131648867D01*
X110044952Y-131604552D01*
X110089267Y-131538231D01*
X110100900Y-131479748D01*
X110100900Y-130440253D01*
X114809900Y-130440253D01*
X114809900Y-131479746D01*
X114809901Y-131479758D01*
X114821532Y-131538227D01*
X114821533Y-131538231D01*
X114865848Y-131604552D01*
X114932169Y-131648867D01*
X114976631Y-131657711D01*
X114990641Y-131660498D01*
X114990646Y-131660498D01*
X114990652Y-131660500D01*
X114990653Y-131660500D01*
X117540147Y-131660500D01*
X117540148Y-131660500D01*
X117598631Y-131648867D01*
X117664952Y-131604552D01*
X117709267Y-131538231D01*
X117720900Y-131479748D01*
X117720900Y-130440252D01*
X117709267Y-130381769D01*
X117664952Y-130315448D01*
X117664948Y-130315445D01*
X117598633Y-130271134D01*
X117598631Y-130271133D01*
X117598628Y-130271132D01*
X117598627Y-130271132D01*
X117540158Y-130259501D01*
X117540148Y-130259500D01*
X117540147Y-130259500D01*
X116639900Y-130259500D01*
X116581709Y-130240593D01*
X116545745Y-130191093D01*
X116540900Y-130160500D01*
X116540900Y-129955655D01*
X116559807Y-129897464D01*
X116569890Y-129885657D01*
X116605885Y-129849663D01*
X116661903Y-129752637D01*
X116690900Y-129644418D01*
X116690900Y-129532382D01*
X116661903Y-129424163D01*
X116661901Y-129424160D01*
X116661901Y-129424158D01*
X116605886Y-129327139D01*
X116605885Y-129327137D01*
X116526663Y-129247915D01*
X116526660Y-129247913D01*
X116429640Y-129191898D01*
X116429642Y-129191898D01*
X116387651Y-129180647D01*
X116321418Y-129162900D01*
X116209382Y-129162900D01*
X116143148Y-129180647D01*
X116101158Y-129191898D01*
X116004139Y-129247913D01*
X115924913Y-129327139D01*
X115868898Y-129424158D01*
X115868897Y-129424163D01*
X115839900Y-129532382D01*
X115839900Y-129644418D01*
X115865472Y-129739855D01*
X115868898Y-129752641D01*
X115924913Y-129849660D01*
X115924915Y-129849663D01*
X115960905Y-129885653D01*
X115988681Y-129940168D01*
X115989900Y-129955655D01*
X115989900Y-130160500D01*
X115970993Y-130218691D01*
X115921493Y-130254655D01*
X115890900Y-130259500D01*
X114990652Y-130259500D01*
X114990651Y-130259500D01*
X114990641Y-130259501D01*
X114932172Y-130271132D01*
X114932166Y-130271134D01*
X114865851Y-130315445D01*
X114865845Y-130315451D01*
X114821534Y-130381766D01*
X114821532Y-130381772D01*
X114809901Y-130440241D01*
X114809900Y-130440253D01*
X110100900Y-130440253D01*
X110100900Y-130440252D01*
X110089267Y-130381769D01*
X110044952Y-130315448D01*
X110044948Y-130315445D01*
X109978633Y-130271134D01*
X109978631Y-130271133D01*
X109978628Y-130271132D01*
X109978627Y-130271132D01*
X109920158Y-130259501D01*
X109920148Y-130259500D01*
X107370652Y-130259500D01*
X107370651Y-130259500D01*
X107370641Y-130259501D01*
X107312172Y-130271132D01*
X107312167Y-130271134D01*
X107238240Y-130320531D01*
X107179352Y-130337139D01*
X107121949Y-130315961D01*
X107113235Y-130308219D01*
X102930096Y-126125080D01*
X102902319Y-126070563D01*
X102901100Y-126055076D01*
X102901100Y-99501055D01*
X102920007Y-99442864D01*
X102930090Y-99431057D01*
X102966085Y-99395063D01*
X103022103Y-99298037D01*
X103051100Y-99189818D01*
X103051100Y-99077782D01*
X103022103Y-98969563D01*
X103022101Y-98969560D01*
X103022101Y-98969558D01*
X102966086Y-98872539D01*
X102966085Y-98872537D01*
X102886863Y-98793315D01*
X102886860Y-98793313D01*
X102789840Y-98737298D01*
X102789842Y-98737298D01*
X102747851Y-98726047D01*
X102681618Y-98708300D01*
X102569582Y-98708300D01*
X102503348Y-98726047D01*
X102461358Y-98737298D01*
X102364339Y-98793313D01*
X102285113Y-98872539D01*
X102229098Y-98969558D01*
X102212886Y-99030063D01*
X102200100Y-99077782D01*
X101100500Y-99077782D01*
X101100500Y-95902782D01*
X103647900Y-95902782D01*
X103647900Y-96014818D01*
X103670858Y-96100498D01*
X103676898Y-96123041D01*
X103729984Y-96214987D01*
X103732915Y-96220063D01*
X103768905Y-96256053D01*
X103796681Y-96310568D01*
X103797900Y-96326055D01*
X103797900Y-99334277D01*
X103778993Y-99392468D01*
X103768904Y-99404280D01*
X103712846Y-99460338D01*
X103712844Y-99460340D01*
X103712843Y-99460342D01*
X103691901Y-99510900D01*
X103670900Y-99561600D01*
X103670900Y-101510781D01*
X103665434Y-101538259D01*
X103665602Y-101538293D01*
X103663700Y-101547856D01*
X103663700Y-101547857D01*
X103663700Y-124606800D01*
X103705643Y-124708058D01*
X107651141Y-128653557D01*
X107680795Y-128665839D01*
X107680797Y-128665841D01*
X107680798Y-128665841D01*
X107716599Y-128680670D01*
X107752400Y-128695500D01*
X109580100Y-128695500D01*
X109638291Y-128714407D01*
X109674255Y-128763907D01*
X109679100Y-128794500D01*
X109679100Y-128939746D01*
X109679101Y-128939758D01*
X109690732Y-128998227D01*
X109690733Y-128998231D01*
X109735048Y-129064552D01*
X109801369Y-129108867D01*
X109845831Y-129117711D01*
X109859841Y-129120498D01*
X109859846Y-129120498D01*
X109859852Y-129120500D01*
X109859853Y-129120500D01*
X112409347Y-129120500D01*
X112409348Y-129120500D01*
X112467831Y-129108867D01*
X112534152Y-129064552D01*
X112578467Y-128998231D01*
X112590100Y-128939748D01*
X112590100Y-127900253D01*
X117299100Y-127900253D01*
X117299100Y-128939746D01*
X117299101Y-128939758D01*
X117310732Y-128998227D01*
X117310733Y-128998231D01*
X117355048Y-129064552D01*
X117421369Y-129108867D01*
X117465831Y-129117711D01*
X117479841Y-129120498D01*
X117479846Y-129120498D01*
X117479852Y-129120500D01*
X117479853Y-129120500D01*
X120029347Y-129120500D01*
X120029348Y-129120500D01*
X120087831Y-129108867D01*
X120154152Y-129064552D01*
X120198467Y-128998231D01*
X120210100Y-128939748D01*
X120210100Y-127900252D01*
X120198467Y-127841769D01*
X120154152Y-127775448D01*
X120154148Y-127775445D01*
X120087833Y-127731134D01*
X120087831Y-127731133D01*
X120087828Y-127731132D01*
X120087827Y-127731132D01*
X120029358Y-127719501D01*
X120029348Y-127719500D01*
X117479852Y-127719500D01*
X117479851Y-127719500D01*
X117479841Y-127719501D01*
X117421372Y-127731132D01*
X117421366Y-127731134D01*
X117355051Y-127775445D01*
X117355045Y-127775451D01*
X117310734Y-127841766D01*
X117310732Y-127841772D01*
X117299101Y-127900241D01*
X117299100Y-127900253D01*
X112590100Y-127900253D01*
X112590100Y-127900252D01*
X112578467Y-127841769D01*
X112534152Y-127775448D01*
X112534148Y-127775445D01*
X112467833Y-127731134D01*
X112467831Y-127731133D01*
X112467828Y-127731132D01*
X112467827Y-127731132D01*
X112409358Y-127719501D01*
X112409348Y-127719500D01*
X109859852Y-127719500D01*
X109859851Y-127719500D01*
X109859841Y-127719501D01*
X109801372Y-127731132D01*
X109801366Y-127731134D01*
X109735051Y-127775445D01*
X109735045Y-127775451D01*
X109690734Y-127841766D01*
X109690732Y-127841772D01*
X109679101Y-127900241D01*
X109679100Y-127900253D01*
X109679100Y-128045500D01*
X109660193Y-128103691D01*
X109610693Y-128139655D01*
X109580100Y-128144500D01*
X107962324Y-128144500D01*
X107904133Y-128125593D01*
X107892320Y-128115504D01*
X104243696Y-124466880D01*
X104215919Y-124412363D01*
X104214700Y-124396876D01*
X104214700Y-120680922D01*
X104233607Y-120622731D01*
X104283107Y-120586767D01*
X104344293Y-120586767D01*
X104383701Y-120610916D01*
X108340905Y-124568120D01*
X108368681Y-124622635D01*
X108369900Y-124638122D01*
X108369900Y-125080500D01*
X108350993Y-125138691D01*
X108301493Y-125174655D01*
X108270900Y-125179500D01*
X107370652Y-125179500D01*
X107370651Y-125179500D01*
X107370641Y-125179501D01*
X107312172Y-125191132D01*
X107312166Y-125191134D01*
X107245851Y-125235445D01*
X107245845Y-125235451D01*
X107201534Y-125301766D01*
X107201532Y-125301772D01*
X107189901Y-125360241D01*
X107189900Y-125360253D01*
X107189900Y-126399746D01*
X107189901Y-126399758D01*
X107196058Y-126430708D01*
X107201533Y-126458231D01*
X107245848Y-126524552D01*
X107312169Y-126568867D01*
X107356631Y-126577711D01*
X107370641Y-126580498D01*
X107370646Y-126580498D01*
X107370652Y-126580500D01*
X107370653Y-126580500D01*
X109920147Y-126580500D01*
X109920148Y-126580500D01*
X109978631Y-126568867D01*
X110044952Y-126524552D01*
X110089267Y-126458231D01*
X110100900Y-126399748D01*
X110100900Y-125360252D01*
X110089267Y-125301769D01*
X110044952Y-125235448D01*
X110044948Y-125235445D01*
X109978633Y-125191134D01*
X109978631Y-125191133D01*
X109978628Y-125191132D01*
X109978627Y-125191132D01*
X109920158Y-125179501D01*
X109920148Y-125179500D01*
X109920147Y-125179500D01*
X109019900Y-125179500D01*
X108961709Y-125160593D01*
X108925745Y-125111093D01*
X108920900Y-125080500D01*
X108920900Y-124578100D01*
X108939807Y-124519909D01*
X108989307Y-124483945D01*
X109019900Y-124479100D01*
X114535477Y-124479100D01*
X114593668Y-124498007D01*
X114605481Y-124508096D01*
X115107881Y-125010496D01*
X115135658Y-125065013D01*
X115126087Y-125125445D01*
X115082822Y-125168710D01*
X115037877Y-125179500D01*
X114990652Y-125179500D01*
X114990651Y-125179500D01*
X114990641Y-125179501D01*
X114932172Y-125191132D01*
X114932166Y-125191134D01*
X114865851Y-125235445D01*
X114865845Y-125235451D01*
X114821534Y-125301766D01*
X114821532Y-125301772D01*
X114809901Y-125360241D01*
X114809900Y-125360253D01*
X114809900Y-126399746D01*
X114809901Y-126399758D01*
X114816058Y-126430708D01*
X114821533Y-126458231D01*
X114865848Y-126524552D01*
X114932169Y-126568867D01*
X114976631Y-126577711D01*
X114990641Y-126580498D01*
X114990646Y-126580498D01*
X114990652Y-126580500D01*
X114990653Y-126580500D01*
X117540147Y-126580500D01*
X117540148Y-126580500D01*
X117598631Y-126568867D01*
X117664952Y-126524552D01*
X117709267Y-126458231D01*
X117720900Y-126399748D01*
X117720900Y-125360252D01*
X117709267Y-125301769D01*
X117664952Y-125235448D01*
X117664948Y-125235445D01*
X117598633Y-125191134D01*
X117598631Y-125191133D01*
X117598628Y-125191132D01*
X117598627Y-125191132D01*
X117540158Y-125179501D01*
X117540148Y-125179500D01*
X117540147Y-125179500D01*
X116097124Y-125179500D01*
X116038933Y-125160593D01*
X116027120Y-125150504D01*
X115887112Y-125010496D01*
X114846658Y-123970043D01*
X114745400Y-123928100D01*
X114745399Y-123928100D01*
X112689100Y-123928100D01*
X112630909Y-123909193D01*
X112594945Y-123859693D01*
X112590100Y-123829100D01*
X112590100Y-122850900D01*
X112609007Y-122792709D01*
X112658507Y-122756745D01*
X112689100Y-122751900D01*
X116237277Y-122751900D01*
X116295468Y-122770807D01*
X116307281Y-122780896D01*
X117022443Y-123496058D01*
X117022442Y-123496058D01*
X117099938Y-123573553D01*
X117099942Y-123573557D01*
X117201200Y-123615500D01*
X117201202Y-123615500D01*
X117210765Y-123617403D01*
X117210473Y-123618870D01*
X117258291Y-123634407D01*
X117294255Y-123683907D01*
X117299100Y-123714500D01*
X117299100Y-123859746D01*
X117299101Y-123859758D01*
X117310732Y-123918227D01*
X117310734Y-123918233D01*
X117316513Y-123926881D01*
X117355048Y-123984552D01*
X117421369Y-124028867D01*
X117465831Y-124037711D01*
X117479841Y-124040498D01*
X117479846Y-124040498D01*
X117479852Y-124040500D01*
X117479853Y-124040500D01*
X120029347Y-124040500D01*
X120029348Y-124040500D01*
X120087831Y-124028867D01*
X120154152Y-123984552D01*
X120198467Y-123918231D01*
X120210100Y-123859748D01*
X120210100Y-122820252D01*
X120198467Y-122761769D01*
X120154152Y-122695448D01*
X120154148Y-122695445D01*
X120087833Y-122651134D01*
X120087831Y-122651133D01*
X120087828Y-122651132D01*
X120087827Y-122651132D01*
X120029358Y-122639501D01*
X120029348Y-122639500D01*
X117479852Y-122639500D01*
X117479851Y-122639500D01*
X117479841Y-122639501D01*
X117421372Y-122651132D01*
X117421366Y-122651134D01*
X117355051Y-122695445D01*
X117355045Y-122695451D01*
X117310734Y-122761766D01*
X117310732Y-122761772D01*
X117306492Y-122783088D01*
X117276595Y-122836471D01*
X117221029Y-122862086D01*
X117161020Y-122850148D01*
X117139391Y-122833776D01*
X116945115Y-122639500D01*
X116548458Y-122242843D01*
X116447200Y-122200900D01*
X116447199Y-122200900D01*
X109130724Y-122200900D01*
X109072533Y-122181993D01*
X109060720Y-122171904D01*
X105851096Y-118962280D01*
X105823319Y-118907763D01*
X105822100Y-118892276D01*
X105822100Y-113271323D01*
X105841007Y-113213132D01*
X105890507Y-113177168D01*
X105951693Y-113177168D01*
X105991103Y-113201318D01*
X107638441Y-114848657D01*
X107638442Y-114848657D01*
X107640281Y-114850496D01*
X107668058Y-114905013D01*
X107658487Y-114965445D01*
X107615222Y-115008710D01*
X107570277Y-115019500D01*
X107370652Y-115019500D01*
X107370651Y-115019500D01*
X107370641Y-115019501D01*
X107312172Y-115031132D01*
X107312166Y-115031134D01*
X107245851Y-115075445D01*
X107245845Y-115075451D01*
X107201534Y-115141766D01*
X107201532Y-115141772D01*
X107189901Y-115200241D01*
X107189900Y-115200253D01*
X107189900Y-116239746D01*
X107189901Y-116239758D01*
X107201532Y-116298227D01*
X107201534Y-116298233D01*
X107237404Y-116351915D01*
X107245848Y-116364552D01*
X107312169Y-116408867D01*
X107356631Y-116417711D01*
X107370641Y-116420498D01*
X107370646Y-116420498D01*
X107370652Y-116420500D01*
X107370653Y-116420500D01*
X109920147Y-116420500D01*
X109920148Y-116420500D01*
X109978631Y-116408867D01*
X110044952Y-116364552D01*
X110089267Y-116298231D01*
X110098112Y-116253759D01*
X110128009Y-116200378D01*
X110183574Y-116174762D01*
X110220831Y-116177449D01*
X110291182Y-116196300D01*
X110291183Y-116196300D01*
X110403216Y-116196300D01*
X110403218Y-116196300D01*
X110511437Y-116167303D01*
X110511439Y-116167301D01*
X110511441Y-116167301D01*
X110545359Y-116147718D01*
X110608463Y-116111285D01*
X110687685Y-116032063D01*
X110721183Y-115974041D01*
X110766651Y-115933101D01*
X110827502Y-115926705D01*
X110876923Y-115953538D01*
X112313881Y-117390496D01*
X112341658Y-117445013D01*
X112332087Y-117505445D01*
X112288822Y-117548710D01*
X112243877Y-117559500D01*
X109859852Y-117559500D01*
X109859851Y-117559500D01*
X109859841Y-117559501D01*
X109801372Y-117571132D01*
X109801366Y-117571134D01*
X109735051Y-117615445D01*
X109735045Y-117615451D01*
X109690734Y-117681766D01*
X109690732Y-117681772D01*
X109679101Y-117740241D01*
X109679100Y-117740253D01*
X109679100Y-118779746D01*
X109679101Y-118779758D01*
X109690732Y-118838227D01*
X109690733Y-118838231D01*
X109735048Y-118904552D01*
X109801369Y-118948867D01*
X109845831Y-118957711D01*
X109859841Y-118960498D01*
X109859846Y-118960498D01*
X109859852Y-118960500D01*
X110760100Y-118960500D01*
X110818291Y-118979407D01*
X110854255Y-119028907D01*
X110859100Y-119059500D01*
X110859100Y-120321400D01*
X110894873Y-120407762D01*
X110901043Y-120422658D01*
X111816742Y-121338358D01*
X111816743Y-121338358D01*
X111816744Y-121338359D01*
X111917998Y-121380300D01*
X111918000Y-121380300D01*
X119291999Y-121380300D01*
X119292000Y-121380300D01*
X119393258Y-121338357D01*
X119470757Y-121260858D01*
X119470756Y-121260858D01*
X123072158Y-117659458D01*
X123108743Y-117571133D01*
X123114100Y-117558201D01*
X123114100Y-115194723D01*
X123133007Y-115136532D01*
X123143096Y-115124720D01*
X123549611Y-114718204D01*
X123604128Y-114690426D01*
X123664560Y-114699997D01*
X123707825Y-114743262D01*
X123717396Y-114803694D01*
X123705352Y-114837706D01*
X123679398Y-114882659D01*
X123679397Y-114882663D01*
X123650400Y-114990882D01*
X123650400Y-115102918D01*
X123660810Y-115141769D01*
X123679398Y-115211141D01*
X123735413Y-115308160D01*
X123735415Y-115308163D01*
X123814637Y-115387385D01*
X123814639Y-115387386D01*
X123911659Y-115443401D01*
X123911657Y-115443401D01*
X123911661Y-115443402D01*
X123911663Y-115443403D01*
X124019882Y-115472400D01*
X124019884Y-115472400D01*
X124131916Y-115472400D01*
X124131918Y-115472400D01*
X124240137Y-115443403D01*
X124240139Y-115443401D01*
X124240141Y-115443401D01*
X124288459Y-115415504D01*
X124337163Y-115387385D01*
X124408098Y-115316449D01*
X124462613Y-115288674D01*
X124523045Y-115298245D01*
X124566310Y-115341510D01*
X124577100Y-115386455D01*
X124577100Y-118598700D01*
X124558193Y-118656891D01*
X124508693Y-118692855D01*
X124478100Y-118697700D01*
X124117640Y-118697700D01*
X124068141Y-118684436D01*
X123976986Y-118631808D01*
X123849692Y-118597700D01*
X123717908Y-118597700D01*
X123640000Y-118618575D01*
X123590609Y-118631809D01*
X123476490Y-118697696D01*
X123383296Y-118790890D01*
X123317409Y-118905009D01*
X123298339Y-118976178D01*
X123283300Y-119032308D01*
X123283300Y-119164092D01*
X123313379Y-119276351D01*
X123317409Y-119291390D01*
X123383296Y-119405509D01*
X123383298Y-119405511D01*
X123383300Y-119405514D01*
X123476486Y-119498700D01*
X123476488Y-119498701D01*
X123476490Y-119498703D01*
X123590610Y-119564590D01*
X123590608Y-119564590D01*
X123590612Y-119564591D01*
X123590614Y-119564592D01*
X123717908Y-119598700D01*
X123717910Y-119598700D01*
X123849690Y-119598700D01*
X123849692Y-119598700D01*
X123976986Y-119564592D01*
X124068141Y-119511963D01*
X124117640Y-119498700D01*
X124478100Y-119498700D01*
X124536291Y-119517607D01*
X124572255Y-119567107D01*
X124577100Y-119597700D01*
X124577100Y-125977898D01*
X124558193Y-126036089D01*
X124548104Y-126047902D01*
X118068054Y-132527951D01*
X118013537Y-132555728D01*
X117960164Y-132549411D01*
X117816418Y-132489869D01*
X117613467Y-132449500D01*
X117613465Y-132449500D01*
X117406535Y-132449500D01*
X117406532Y-132449500D01*
X117203581Y-132489869D01*
X117012402Y-132569058D01*
X116840348Y-132684020D01*
X116694020Y-132830348D01*
X116579058Y-133002402D01*
X116499869Y-133193581D01*
X116459500Y-133396532D01*
X116459500Y-133603467D01*
X116499869Y-133806418D01*
X116579058Y-133997597D01*
X116579059Y-133997598D01*
X116694023Y-134169655D01*
X116840345Y-134315977D01*
X117012402Y-134430941D01*
X117203580Y-134510130D01*
X117406535Y-134550500D01*
X117406536Y-134550500D01*
X117613464Y-134550500D01*
X117613465Y-134550500D01*
X117816420Y-134510130D01*
X118007598Y-134430941D01*
X118179655Y-134315977D01*
X118325977Y-134169655D01*
X118440941Y-133997598D01*
X118520130Y-133806420D01*
X118560500Y-133603465D01*
X118560500Y-133396535D01*
X118532955Y-133258058D01*
X118540147Y-133197299D01*
X118560046Y-133168745D01*
X125298080Y-126430713D01*
X125315959Y-126399746D01*
X125350805Y-126339392D01*
X125350805Y-126339390D01*
X125350807Y-126339388D01*
X125378100Y-126237527D01*
X125378100Y-126132073D01*
X125378100Y-119045473D01*
X125378100Y-96345631D01*
X125397007Y-96287440D01*
X125425840Y-96262440D01*
X125425605Y-96262121D01*
X125429661Y-96259127D01*
X125430845Y-96258101D01*
X125431563Y-96257719D01*
X125431575Y-96257716D01*
X125537811Y-96179311D01*
X125616216Y-96073075D01*
X125659825Y-95948449D01*
X125662600Y-95918856D01*
X125662600Y-95338344D01*
X125662600Y-95338338D01*
X125662599Y-95338333D01*
X125662384Y-95336041D01*
X125659825Y-95308751D01*
X125616216Y-95184125D01*
X125537811Y-95077889D01*
X125537806Y-95077885D01*
X125431578Y-94999485D01*
X125431572Y-94999482D01*
X125391402Y-94985426D01*
X125367926Y-94967551D01*
X125344007Y-94950173D01*
X125343647Y-94949065D01*
X125342721Y-94948360D01*
X125325100Y-94891982D01*
X125325100Y-94764632D01*
X125344007Y-94706441D01*
X125391401Y-94671188D01*
X125430475Y-94657516D01*
X125536711Y-94579111D01*
X125615116Y-94472875D01*
X125658725Y-94348249D01*
X125661500Y-94318656D01*
X125661500Y-93738144D01*
X125661500Y-93738138D01*
X125661499Y-93738133D01*
X125658725Y-93708555D01*
X125658725Y-93708551D01*
X125615116Y-93583925D01*
X125609948Y-93576923D01*
X125536714Y-93477693D01*
X125536713Y-93477692D01*
X125536711Y-93477689D01*
X125536706Y-93477685D01*
X125430476Y-93399284D01*
X125305852Y-93355676D01*
X125305851Y-93355675D01*
X125305849Y-93355675D01*
X125305847Y-93355674D01*
X125305844Y-93355674D01*
X125276266Y-93352900D01*
X125276256Y-93352900D01*
X125265101Y-93352900D01*
X125206910Y-93333993D01*
X125195097Y-93323904D01*
X124420708Y-92549515D01*
X124392931Y-92494998D01*
X124402502Y-92434566D01*
X124420708Y-92409507D01*
X124701857Y-92128358D01*
X125109557Y-91720659D01*
X125121841Y-91691000D01*
X125151500Y-91619400D01*
X125151500Y-77412800D01*
X125151500Y-77412798D01*
X125109559Y-77311544D01*
X125109558Y-77311543D01*
X125109558Y-77311542D01*
X119088458Y-71290443D01*
X118987200Y-71248500D01*
X118987199Y-71248500D01*
X116535521Y-71248500D01*
X116477330Y-71229593D01*
X116465517Y-71219504D01*
X116462701Y-71216688D01*
X116462700Y-71216686D01*
X116369514Y-71123500D01*
X116369511Y-71123498D01*
X116369509Y-71123496D01*
X116255389Y-71057609D01*
X116255391Y-71057609D01*
X116205999Y-71044375D01*
X116128092Y-71023500D01*
X115996308Y-71023500D01*
X115918400Y-71044375D01*
X115869009Y-71057609D01*
X115754890Y-71123496D01*
X115661696Y-71216690D01*
X115595809Y-71330809D01*
X115595808Y-71330814D01*
X115561700Y-71458108D01*
X115561700Y-71589892D01*
X115591779Y-71702151D01*
X115595809Y-71717190D01*
X115661696Y-71831309D01*
X115661698Y-71831311D01*
X115661700Y-71831314D01*
X115754886Y-71924500D01*
X115754888Y-71924501D01*
X115754890Y-71924503D01*
X115869010Y-71990390D01*
X115869008Y-71990390D01*
X115869012Y-71990391D01*
X115869014Y-71990392D01*
X115996308Y-72024500D01*
X115996310Y-72024500D01*
X116128090Y-72024500D01*
X116128092Y-72024500D01*
X116255386Y-71990392D01*
X116255388Y-71990390D01*
X116255390Y-71990390D01*
X116369509Y-71924503D01*
X116369509Y-71924502D01*
X116369514Y-71924500D01*
X116462700Y-71831314D01*
X116462701Y-71831311D01*
X116465517Y-71828496D01*
X116520034Y-71800719D01*
X116535521Y-71799500D01*
X118777277Y-71799500D01*
X118835468Y-71818407D01*
X118847281Y-71828496D01*
X124571504Y-77552719D01*
X124599281Y-77607236D01*
X124600500Y-77622723D01*
X124600500Y-91409476D01*
X124581593Y-91467667D01*
X124571504Y-91479480D01*
X123847480Y-92203504D01*
X123792963Y-92231281D01*
X123777476Y-92232500D01*
X123773492Y-92232500D01*
X123641708Y-92232500D01*
X123575594Y-92250215D01*
X123514409Y-92266609D01*
X123400290Y-92332496D01*
X123307096Y-92425690D01*
X123241209Y-92539809D01*
X123228824Y-92586032D01*
X123207100Y-92667108D01*
X123207100Y-92798892D01*
X123211408Y-92814969D01*
X123241209Y-92926190D01*
X123307096Y-93040309D01*
X123307098Y-93040311D01*
X123307100Y-93040314D01*
X123400286Y-93133500D01*
X123400288Y-93133501D01*
X123400290Y-93133503D01*
X123461190Y-93168664D01*
X123502131Y-93214133D01*
X123508527Y-93274984D01*
X123477934Y-93327972D01*
X123422038Y-93352858D01*
X123411690Y-93353400D01*
X123398501Y-93353400D01*
X123398500Y-93353401D01*
X123398500Y-93828399D01*
X123398501Y-93828400D01*
X123935999Y-93828400D01*
X123936000Y-93828399D01*
X123936000Y-93738198D01*
X123933228Y-93708641D01*
X123933227Y-93708640D01*
X123889669Y-93584159D01*
X123811358Y-93478051D01*
X123811348Y-93478041D01*
X123721941Y-93412056D01*
X123711203Y-93397042D01*
X123697011Y-93385243D01*
X123693839Y-93372763D01*
X123686348Y-93362289D01*
X123686486Y-93343830D01*
X123681940Y-93325943D01*
X123686709Y-93313981D01*
X123686806Y-93301105D01*
X123697766Y-93286254D01*
X123704603Y-93269109D01*
X123714413Y-93263698D01*
X123723139Y-93251875D01*
X123756344Y-93236451D01*
X123767955Y-93233500D01*
X123773492Y-93233500D01*
X123875442Y-93206182D01*
X123876004Y-93206040D01*
X123905889Y-93207994D01*
X123935867Y-93209565D01*
X123936533Y-93209997D01*
X123937059Y-93210032D01*
X123938746Y-93211434D01*
X123970393Y-93231986D01*
X124211493Y-93473086D01*
X124239270Y-93527603D01*
X124231609Y-93575969D01*
X124234334Y-93576923D01*
X124188276Y-93708547D01*
X124188274Y-93708555D01*
X124185500Y-93738133D01*
X124185500Y-94318666D01*
X124188274Y-94348244D01*
X124188276Y-94348252D01*
X124231884Y-94472876D01*
X124262134Y-94513863D01*
X124310289Y-94579111D01*
X124310292Y-94579113D01*
X124310293Y-94579114D01*
X124416521Y-94657514D01*
X124416523Y-94657514D01*
X124416525Y-94657516D01*
X124457798Y-94671958D01*
X124481280Y-94689837D01*
X124505193Y-94707211D01*
X124505552Y-94708318D01*
X124506478Y-94709023D01*
X124524100Y-94765402D01*
X124524100Y-94891982D01*
X124505193Y-94950173D01*
X124457798Y-94985426D01*
X124417627Y-94999482D01*
X124417621Y-94999485D01*
X124311393Y-95077885D01*
X124311385Y-95077893D01*
X124232984Y-95184123D01*
X124189376Y-95308747D01*
X124189374Y-95308755D01*
X124186600Y-95338333D01*
X124186600Y-95918866D01*
X124189374Y-95948444D01*
X124189376Y-95948452D01*
X124232984Y-96073076D01*
X124308207Y-96175000D01*
X124311389Y-96179311D01*
X124311392Y-96179313D01*
X124311393Y-96179314D01*
X124417623Y-96257715D01*
X124417624Y-96257715D01*
X124417625Y-96257716D01*
X124487947Y-96282323D01*
X124510798Y-96290319D01*
X124559478Y-96327384D01*
X124577100Y-96383763D01*
X124577100Y-99298476D01*
X124558193Y-99356667D01*
X124508693Y-99392631D01*
X124447507Y-99392631D01*
X124408096Y-99368480D01*
X123758096Y-98718480D01*
X123730319Y-98663963D01*
X123729100Y-98648476D01*
X123729100Y-98383455D01*
X123748007Y-98325264D01*
X123758090Y-98313457D01*
X123819485Y-98252063D01*
X123875503Y-98155037D01*
X123904500Y-98046818D01*
X123904500Y-97934782D01*
X123875503Y-97826563D01*
X123875501Y-97826560D01*
X123875501Y-97826558D01*
X123819486Y-97729539D01*
X123819485Y-97729537D01*
X123740263Y-97650315D01*
X123740260Y-97650313D01*
X123643240Y-97594298D01*
X123643242Y-97594298D01*
X123535015Y-97565299D01*
X123528584Y-97564453D01*
X123528952Y-97561653D01*
X123481985Y-97546393D01*
X123446021Y-97496893D01*
X123444549Y-97440679D01*
X123472700Y-97335618D01*
X123472700Y-97223582D01*
X123443703Y-97115363D01*
X123443701Y-97115360D01*
X123443701Y-97115358D01*
X123387686Y-97018339D01*
X123387685Y-97018337D01*
X123308463Y-96939115D01*
X123296176Y-96932021D01*
X123211440Y-96883098D01*
X123211442Y-96883098D01*
X123169451Y-96871847D01*
X123103218Y-96854100D01*
X122991182Y-96854100D01*
X122924948Y-96871847D01*
X122882958Y-96883098D01*
X122785939Y-96939113D01*
X122706714Y-97018338D01*
X122666720Y-97087609D01*
X122621250Y-97128549D01*
X122560400Y-97134944D01*
X122527028Y-97119559D01*
X122526682Y-97120159D01*
X122424040Y-97060898D01*
X122424042Y-97060898D01*
X122374602Y-97047651D01*
X122315818Y-97031900D01*
X122203782Y-97031900D01*
X122117224Y-97055093D01*
X122095559Y-97060898D01*
X122049026Y-97087764D01*
X121989178Y-97100485D01*
X121933282Y-97075598D01*
X121902690Y-97022609D01*
X121909086Y-96961759D01*
X121929523Y-96932024D01*
X121939885Y-96921663D01*
X121995903Y-96824637D01*
X122024900Y-96716418D01*
X122024900Y-96604382D01*
X121995903Y-96496163D01*
X121995901Y-96496160D01*
X121995901Y-96496158D01*
X121939886Y-96399139D01*
X121939885Y-96399137D01*
X121860663Y-96319915D01*
X121833297Y-96304115D01*
X121763640Y-96263898D01*
X121763642Y-96263898D01*
X121704670Y-96248097D01*
X121655418Y-96234900D01*
X121543382Y-96234900D01*
X121543377Y-96234900D01*
X121530320Y-96238399D01*
X121469219Y-96235195D01*
X121421670Y-96196689D01*
X121405700Y-96142772D01*
X121405700Y-96080583D01*
X121405700Y-96080582D01*
X121376703Y-95972363D01*
X121376701Y-95972360D01*
X121376701Y-95972358D01*
X121320686Y-95875339D01*
X121320685Y-95875337D01*
X121273949Y-95828601D01*
X122462100Y-95828601D01*
X122462100Y-95918801D01*
X122464871Y-95948358D01*
X122464872Y-95948359D01*
X122508430Y-96072840D01*
X122586741Y-96178948D01*
X122586751Y-96178958D01*
X122692859Y-96257269D01*
X122817340Y-96300827D01*
X122817341Y-96300828D01*
X122846899Y-96303600D01*
X122999599Y-96303600D01*
X122999600Y-96303599D01*
X122999600Y-95828601D01*
X123399600Y-95828601D01*
X123399600Y-96303599D01*
X123399601Y-96303600D01*
X123552301Y-96303600D01*
X123581858Y-96300828D01*
X123581859Y-96300827D01*
X123706340Y-96257269D01*
X123812448Y-96178958D01*
X123812458Y-96178948D01*
X123890769Y-96072840D01*
X123934327Y-95948359D01*
X123934328Y-95948358D01*
X123937100Y-95918801D01*
X123937100Y-95828601D01*
X123937099Y-95828600D01*
X123399601Y-95828600D01*
X123399600Y-95828601D01*
X122999600Y-95828601D01*
X122999599Y-95828600D01*
X122462101Y-95828600D01*
X122462100Y-95828601D01*
X121273949Y-95828601D01*
X121241463Y-95796115D01*
X121238775Y-95794563D01*
X121144440Y-95740098D01*
X121144442Y-95740098D01*
X121102451Y-95728847D01*
X121036218Y-95711100D01*
X120924182Y-95711100D01*
X120924181Y-95711100D01*
X120917750Y-95711947D01*
X120917550Y-95710429D01*
X120864087Y-95707627D01*
X120816538Y-95669120D01*
X120800704Y-95610019D01*
X120803942Y-95589578D01*
X120805700Y-95583018D01*
X120805700Y-95470982D01*
X120776703Y-95362763D01*
X120776701Y-95362760D01*
X120776701Y-95362758D01*
X120762636Y-95338398D01*
X122462100Y-95338398D01*
X122462100Y-95428599D01*
X122462101Y-95428600D01*
X122999599Y-95428600D01*
X122999600Y-95428599D01*
X122999600Y-94953601D01*
X123399600Y-94953601D01*
X123399600Y-95428599D01*
X123399601Y-95428600D01*
X123937099Y-95428600D01*
X123937100Y-95428599D01*
X123937100Y-95338398D01*
X123934328Y-95308841D01*
X123934327Y-95308840D01*
X123890769Y-95184359D01*
X123812458Y-95078251D01*
X123812448Y-95078241D01*
X123706340Y-94999930D01*
X123581859Y-94956372D01*
X123581858Y-94956371D01*
X123552301Y-94953600D01*
X123399601Y-94953600D01*
X123399600Y-94953601D01*
X122999600Y-94953601D01*
X122999599Y-94953600D01*
X122846899Y-94953600D01*
X122817341Y-94956371D01*
X122817340Y-94956372D01*
X122692859Y-94999930D01*
X122586751Y-95078241D01*
X122586741Y-95078251D01*
X122508430Y-95184359D01*
X122464872Y-95308840D01*
X122464871Y-95308841D01*
X122462100Y-95338398D01*
X120762636Y-95338398D01*
X120720686Y-95265739D01*
X120720685Y-95265737D01*
X120641463Y-95186515D01*
X120637729Y-95184359D01*
X120544440Y-95130498D01*
X120544442Y-95130498D01*
X120502451Y-95119247D01*
X120436218Y-95101500D01*
X120324182Y-95101500D01*
X120257948Y-95119247D01*
X120215958Y-95130498D01*
X120118939Y-95186513D01*
X120039713Y-95265739D01*
X119983698Y-95362758D01*
X119971774Y-95407260D01*
X119954700Y-95470982D01*
X119954700Y-95583018D01*
X119964158Y-95618315D01*
X119983698Y-95691241D01*
X120039713Y-95788260D01*
X120039715Y-95788263D01*
X120075705Y-95824253D01*
X120103481Y-95878768D01*
X120104700Y-95894255D01*
X120104700Y-99645799D01*
X120125601Y-99696259D01*
X120146641Y-99747055D01*
X120146642Y-99747056D01*
X120146643Y-99747058D01*
X121726705Y-101327120D01*
X121754481Y-101381635D01*
X121755700Y-101397122D01*
X121755700Y-103838688D01*
X121736793Y-103896879D01*
X121687293Y-103932843D01*
X121626107Y-103932843D01*
X121607200Y-103924425D01*
X121509638Y-103868097D01*
X121473564Y-103858431D01*
X121401418Y-103839100D01*
X121289382Y-103839100D01*
X121223148Y-103856847D01*
X121181158Y-103868098D01*
X121084139Y-103924113D01*
X121004913Y-104003339D01*
X120948898Y-104100358D01*
X120948897Y-104100363D01*
X120930716Y-104168218D01*
X120926527Y-104183851D01*
X120893203Y-104235165D01*
X120836081Y-104257092D01*
X120776981Y-104241256D01*
X120738476Y-104193706D01*
X120731900Y-104158228D01*
X120731900Y-101263399D01*
X120700337Y-101187201D01*
X120700337Y-101187200D01*
X120689958Y-101162142D01*
X118128658Y-98600843D01*
X118027400Y-98558900D01*
X118027399Y-98558900D01*
X117467324Y-98558900D01*
X117409133Y-98539993D01*
X117397320Y-98529904D01*
X116308093Y-97440677D01*
X115136918Y-96269503D01*
X115109142Y-96214987D01*
X115118713Y-96154555D01*
X115161978Y-96111290D01*
X115206923Y-96100500D01*
X116535278Y-96100500D01*
X116593469Y-96119407D01*
X116605282Y-96129497D01*
X116919634Y-96443850D01*
X116947411Y-96498366D01*
X116945257Y-96539473D01*
X116932100Y-96588578D01*
X116932100Y-96588582D01*
X116932100Y-96700618D01*
X116957672Y-96796055D01*
X116961098Y-96808841D01*
X117017113Y-96905860D01*
X117017115Y-96905863D01*
X117096337Y-96985085D01*
X117096339Y-96985086D01*
X117193359Y-97041101D01*
X117193357Y-97041101D01*
X117193361Y-97041102D01*
X117193363Y-97041103D01*
X117301582Y-97070100D01*
X117301584Y-97070100D01*
X117413616Y-97070100D01*
X117413618Y-97070100D01*
X117521837Y-97041103D01*
X117521839Y-97041101D01*
X117521841Y-97041101D01*
X117550664Y-97024459D01*
X117618863Y-96985085D01*
X117698085Y-96905863D01*
X117754103Y-96808837D01*
X117783100Y-96700618D01*
X117783100Y-96588582D01*
X117754103Y-96480363D01*
X117754101Y-96480360D01*
X117754101Y-96480358D01*
X117698086Y-96383339D01*
X117698085Y-96383337D01*
X117618863Y-96304115D01*
X117564186Y-96272547D01*
X117523246Y-96227077D01*
X117516851Y-96166227D01*
X117547444Y-96113239D01*
X117594371Y-96089714D01*
X117598631Y-96088867D01*
X117664952Y-96044552D01*
X117709267Y-95978231D01*
X117720900Y-95919748D01*
X117720900Y-94880252D01*
X117709267Y-94821769D01*
X117664952Y-94755448D01*
X117664948Y-94755445D01*
X117598633Y-94711134D01*
X117598631Y-94711133D01*
X117598628Y-94711132D01*
X117598627Y-94711132D01*
X117540158Y-94699501D01*
X117540148Y-94699500D01*
X114990652Y-94699500D01*
X114990651Y-94699500D01*
X114990641Y-94699501D01*
X114932172Y-94711132D01*
X114932166Y-94711134D01*
X114865851Y-94755445D01*
X114865845Y-94755451D01*
X114821534Y-94821766D01*
X114821532Y-94821772D01*
X114809901Y-94880241D01*
X114809900Y-94880253D01*
X114809900Y-95703476D01*
X114790993Y-95761667D01*
X114741493Y-95797631D01*
X114680307Y-95797631D01*
X114640896Y-95773480D01*
X113151196Y-94283780D01*
X113147569Y-94276662D01*
X113141107Y-94271967D01*
X113133943Y-94249918D01*
X113123419Y-94229263D01*
X113123351Y-94228401D01*
X122461000Y-94228401D01*
X122461000Y-94318601D01*
X122463771Y-94348158D01*
X122463772Y-94348159D01*
X122507330Y-94472640D01*
X122585641Y-94578748D01*
X122585651Y-94578758D01*
X122691759Y-94657069D01*
X122816240Y-94700627D01*
X122816241Y-94700628D01*
X122845799Y-94703400D01*
X122998499Y-94703400D01*
X122998500Y-94703399D01*
X122998500Y-94228401D01*
X123398500Y-94228401D01*
X123398500Y-94703399D01*
X123398501Y-94703400D01*
X123551201Y-94703400D01*
X123580758Y-94700628D01*
X123580759Y-94700627D01*
X123705240Y-94657069D01*
X123811348Y-94578758D01*
X123811358Y-94578748D01*
X123889669Y-94472640D01*
X123933227Y-94348159D01*
X123933228Y-94348158D01*
X123936000Y-94318601D01*
X123936000Y-94228401D01*
X123935999Y-94228400D01*
X123398501Y-94228400D01*
X123398500Y-94228401D01*
X122998500Y-94228401D01*
X122998499Y-94228400D01*
X122461001Y-94228400D01*
X122461000Y-94228401D01*
X113123351Y-94228401D01*
X113122200Y-94213776D01*
X113122200Y-94188283D01*
X113122200Y-94188282D01*
X113093203Y-94080063D01*
X113093201Y-94080060D01*
X113093201Y-94080058D01*
X113037186Y-93983039D01*
X113037185Y-93983037D01*
X112957963Y-93903815D01*
X112957960Y-93903813D01*
X112860940Y-93847798D01*
X112860942Y-93847798D01*
X112818951Y-93836547D01*
X112752718Y-93818800D01*
X112640682Y-93818800D01*
X112574448Y-93836547D01*
X112532458Y-93847798D01*
X112435439Y-93903813D01*
X112435437Y-93903814D01*
X112435437Y-93903815D01*
X112356215Y-93983037D01*
X112356213Y-93983039D01*
X112352004Y-93987249D01*
X112297487Y-94015026D01*
X112237055Y-94005455D01*
X112211999Y-93987251D01*
X112136863Y-93912115D01*
X112136860Y-93912113D01*
X112039840Y-93856098D01*
X112039842Y-93856098D01*
X111997851Y-93844847D01*
X111931618Y-93827100D01*
X111819582Y-93827100D01*
X111753348Y-93844847D01*
X111711358Y-93856098D01*
X111614339Y-93912113D01*
X111535113Y-93991339D01*
X111479098Y-94088358D01*
X111479097Y-94088363D01*
X111450100Y-94196582D01*
X111450100Y-94308618D01*
X111460695Y-94348158D01*
X111479098Y-94416841D01*
X111535113Y-94513860D01*
X111535115Y-94513863D01*
X111614337Y-94593085D01*
X111614339Y-94593086D01*
X111711359Y-94649101D01*
X111711357Y-94649101D01*
X111711361Y-94649102D01*
X111711363Y-94649103D01*
X111819582Y-94678100D01*
X111819584Y-94678100D01*
X111932712Y-94678100D01*
X111990903Y-94697007D01*
X112002716Y-94707096D01*
X112549048Y-95253428D01*
X112576825Y-95307945D01*
X112567254Y-95368377D01*
X112523989Y-95411642D01*
X112504667Y-95419059D01*
X112408677Y-95444779D01*
X112311658Y-95500794D01*
X112232432Y-95580020D01*
X112176417Y-95677039D01*
X112167291Y-95711100D01*
X112147419Y-95785263D01*
X112147419Y-95897299D01*
X112169105Y-95978231D01*
X112176417Y-96005522D01*
X112231254Y-96100500D01*
X112232434Y-96102544D01*
X112311656Y-96181766D01*
X112311658Y-96181767D01*
X112408678Y-96237782D01*
X112408676Y-96237782D01*
X112408680Y-96237783D01*
X112408682Y-96237784D01*
X112516901Y-96266781D01*
X112535958Y-96266781D01*
X112594149Y-96285688D01*
X112605962Y-96295777D01*
X115920681Y-99610496D01*
X115948458Y-99665013D01*
X115938887Y-99725445D01*
X115895622Y-99768710D01*
X115850677Y-99779500D01*
X114990652Y-99779500D01*
X114990651Y-99779500D01*
X114990641Y-99779501D01*
X114932172Y-99791132D01*
X114932166Y-99791134D01*
X114865851Y-99835445D01*
X114865845Y-99835451D01*
X114821534Y-99901766D01*
X114821532Y-99901772D01*
X114809901Y-99960241D01*
X114809900Y-99960253D01*
X114809900Y-100999746D01*
X114809901Y-100999758D01*
X114813553Y-101018115D01*
X114821533Y-101058231D01*
X114865848Y-101124552D01*
X114932169Y-101168867D01*
X114976631Y-101177711D01*
X114990641Y-101180498D01*
X114990646Y-101180498D01*
X114990652Y-101180500D01*
X114990653Y-101180500D01*
X117540147Y-101180500D01*
X117540148Y-101180500D01*
X117598631Y-101168867D01*
X117664952Y-101124552D01*
X117709267Y-101058231D01*
X117720900Y-100999748D01*
X117720900Y-99960252D01*
X117709267Y-99901769D01*
X117664952Y-99835448D01*
X117664948Y-99835445D01*
X117598633Y-99791134D01*
X117598631Y-99791133D01*
X117598628Y-99791132D01*
X117598627Y-99791132D01*
X117540158Y-99779501D01*
X117540148Y-99779500D01*
X117540147Y-99779500D01*
X116639900Y-99779500D01*
X116581709Y-99760593D01*
X116545745Y-99711093D01*
X116540900Y-99680500D01*
X116540900Y-99510798D01*
X116540289Y-99507727D01*
X116540128Y-99507492D01*
X116540141Y-99506985D01*
X116538998Y-99501235D01*
X116540304Y-99500975D01*
X116540822Y-99481891D01*
X116538811Y-99456364D01*
X116541641Y-99451744D01*
X116541788Y-99446330D01*
X116557395Y-99426030D01*
X116570775Y-99404192D01*
X116575780Y-99402118D01*
X116579082Y-99397824D01*
X116603643Y-99390573D01*
X116627301Y-99380772D01*
X116632567Y-99382035D01*
X116637764Y-99380502D01*
X116652384Y-99386791D01*
X116686797Y-99395050D01*
X116695421Y-99400982D01*
X116700526Y-99404907D01*
X116764576Y-99468957D01*
X116794234Y-99481241D01*
X116806320Y-99486247D01*
X116806321Y-99486248D01*
X116828700Y-99495517D01*
X116865835Y-99510900D01*
X117651377Y-99510900D01*
X117709568Y-99529807D01*
X117721381Y-99539896D01*
X118450104Y-100268619D01*
X118477881Y-100323136D01*
X118479100Y-100338623D01*
X118479100Y-102220500D01*
X118460193Y-102278691D01*
X118410693Y-102314655D01*
X118380100Y-102319500D01*
X117479852Y-102319500D01*
X117479851Y-102319500D01*
X117479841Y-102319501D01*
X117421372Y-102331132D01*
X117421366Y-102331134D01*
X117355051Y-102375445D01*
X117355045Y-102375451D01*
X117310734Y-102441766D01*
X117310732Y-102441772D01*
X117299101Y-102500241D01*
X117299100Y-102500253D01*
X117299100Y-103539746D01*
X117299101Y-103539758D01*
X117310732Y-103598227D01*
X117310734Y-103598233D01*
X117336860Y-103637332D01*
X117355048Y-103664552D01*
X117421369Y-103708867D01*
X117465831Y-103717711D01*
X117479841Y-103720498D01*
X117479846Y-103720498D01*
X117479852Y-103720500D01*
X118495750Y-103720500D01*
X118553941Y-103739407D01*
X118589905Y-103788907D01*
X118589905Y-103850093D01*
X118581486Y-103869000D01*
X118535898Y-103947958D01*
X118535897Y-103947963D01*
X118506900Y-104056182D01*
X118506900Y-104168218D01*
X118521870Y-104224086D01*
X118535898Y-104276441D01*
X118591913Y-104373460D01*
X118591915Y-104373463D01*
X118614980Y-104396528D01*
X118642756Y-104451043D01*
X118633185Y-104511475D01*
X118594477Y-104552265D01*
X118551674Y-104576978D01*
X118472448Y-104656204D01*
X118416433Y-104753224D01*
X118416432Y-104753225D01*
X118411913Y-104770091D01*
X118378587Y-104821405D01*
X118321465Y-104843330D01*
X118262365Y-104827491D01*
X118246291Y-104814475D01*
X118083161Y-104651346D01*
X118061703Y-104619229D01*
X118054958Y-104602944D01*
X118054957Y-104602943D01*
X118054957Y-104602942D01*
X117977458Y-104525443D01*
X117977456Y-104525442D01*
X117961166Y-104518694D01*
X117929051Y-104497235D01*
X117666061Y-104234246D01*
X117666058Y-104234243D01*
X117564800Y-104192300D01*
X117564799Y-104192300D01*
X115937924Y-104192300D01*
X115879733Y-104173393D01*
X115867920Y-104163304D01*
X114608696Y-102904080D01*
X114580919Y-102849563D01*
X114579700Y-102834076D01*
X114579700Y-101520800D01*
X114563006Y-101480498D01*
X114537757Y-101419542D01*
X114499850Y-101381635D01*
X114460258Y-101342042D01*
X114460258Y-101342043D01*
X111845496Y-98727281D01*
X111817719Y-98672764D01*
X111816500Y-98657277D01*
X111816500Y-97351800D01*
X111809797Y-97335618D01*
X111809293Y-97334400D01*
X111785726Y-97277504D01*
X111774559Y-97250543D01*
X111722294Y-97198278D01*
X111668935Y-97144920D01*
X111662470Y-97137041D01*
X111226362Y-96700934D01*
X111218489Y-96694473D01*
X111075931Y-96551915D01*
X111048154Y-96497398D01*
X111046935Y-96481911D01*
X111046935Y-96390548D01*
X111045117Y-96383763D01*
X111017938Y-96282328D01*
X111017936Y-96282325D01*
X111017936Y-96282323D01*
X110966144Y-96192618D01*
X110961920Y-96185302D01*
X110882698Y-96106080D01*
X110882695Y-96106078D01*
X110785675Y-96050063D01*
X110785677Y-96050063D01*
X110743686Y-96038812D01*
X110677453Y-96021065D01*
X110565417Y-96021065D01*
X110499183Y-96038812D01*
X110457193Y-96050063D01*
X110360174Y-96106078D01*
X110280948Y-96185304D01*
X110224933Y-96282323D01*
X110223562Y-96287440D01*
X110195935Y-96390547D01*
X110195935Y-96502583D01*
X110221507Y-96598020D01*
X110224933Y-96610806D01*
X110278283Y-96703209D01*
X110280950Y-96707828D01*
X110360172Y-96787050D01*
X110360174Y-96787051D01*
X110457194Y-96843066D01*
X110457192Y-96843066D01*
X110457196Y-96843067D01*
X110457198Y-96843068D01*
X110565417Y-96872065D01*
X110575843Y-96872065D01*
X110583440Y-96874533D01*
X110591330Y-96873284D01*
X110611985Y-96883808D01*
X110634034Y-96890972D01*
X110645839Y-96901054D01*
X110717902Y-96973117D01*
X110745678Y-97027632D01*
X110736107Y-97088064D01*
X110692842Y-97131329D01*
X110673522Y-97138745D01*
X110660397Y-97142262D01*
X110660394Y-97142263D01*
X110563374Y-97198278D01*
X110484148Y-97277504D01*
X110428133Y-97374523D01*
X110428132Y-97374528D01*
X110399135Y-97482747D01*
X110399135Y-97594783D01*
X110423878Y-97687125D01*
X110428133Y-97703006D01*
X110484148Y-97800025D01*
X110484150Y-97800028D01*
X110563372Y-97879250D01*
X110563374Y-97879251D01*
X110566365Y-97881546D01*
X110567894Y-97883771D01*
X110567961Y-97883838D01*
X110567948Y-97883850D01*
X110601022Y-97931970D01*
X110605100Y-97960090D01*
X110605100Y-98382077D01*
X110586193Y-98440268D01*
X110536693Y-98476232D01*
X110475507Y-98476232D01*
X110436096Y-98452081D01*
X109833385Y-97849370D01*
X109805608Y-97794853D01*
X109815179Y-97734421D01*
X109833382Y-97709365D01*
X109849485Y-97693263D01*
X109905503Y-97596237D01*
X109934500Y-97488018D01*
X109934500Y-97375982D01*
X109905503Y-97267763D01*
X109905501Y-97267760D01*
X109905501Y-97267758D01*
X109849486Y-97170739D01*
X109849485Y-97170737D01*
X109770263Y-97091515D01*
X109764286Y-97088064D01*
X109673240Y-97035498D01*
X109673242Y-97035498D01*
X109625138Y-97022609D01*
X109565018Y-97006500D01*
X109452982Y-97006500D01*
X109392862Y-97022609D01*
X109344758Y-97035498D01*
X109247739Y-97091513D01*
X109168513Y-97170739D01*
X109112498Y-97267758D01*
X109083500Y-97375983D01*
X109083500Y-97488017D01*
X109084347Y-97494450D01*
X109081605Y-97494810D01*
X109078990Y-97544333D01*
X109040464Y-97591867D01*
X108981357Y-97607678D01*
X108942849Y-97596262D01*
X108942635Y-97596781D01*
X108937692Y-97594733D01*
X108937079Y-97594552D01*
X108936639Y-97594298D01*
X108936638Y-97594297D01*
X108936637Y-97594297D01*
X108828418Y-97565300D01*
X108752124Y-97565300D01*
X108693933Y-97546393D01*
X108682120Y-97536304D01*
X107415320Y-96269504D01*
X107387543Y-96214987D01*
X107397114Y-96154555D01*
X107440379Y-96111290D01*
X107485324Y-96100500D01*
X109920147Y-96100500D01*
X109920148Y-96100500D01*
X109978631Y-96088867D01*
X110044952Y-96044552D01*
X110089267Y-95978231D01*
X110100900Y-95919748D01*
X110100900Y-94880252D01*
X110089267Y-94821769D01*
X110044952Y-94755448D01*
X110044948Y-94755445D01*
X109978633Y-94711134D01*
X109978631Y-94711133D01*
X109978628Y-94711132D01*
X109978627Y-94711132D01*
X109920158Y-94699501D01*
X109920148Y-94699500D01*
X109920147Y-94699500D01*
X109019900Y-94699500D01*
X108961709Y-94680593D01*
X108925745Y-94631093D01*
X108920900Y-94600500D01*
X108920900Y-92340253D01*
X109679100Y-92340253D01*
X109679100Y-93379746D01*
X109679101Y-93379758D01*
X109690732Y-93438227D01*
X109690734Y-93438233D01*
X109717340Y-93478051D01*
X109735048Y-93504552D01*
X109801369Y-93548867D01*
X109842860Y-93557120D01*
X109859841Y-93560498D01*
X109859846Y-93560498D01*
X109859852Y-93560500D01*
X109859853Y-93560500D01*
X112409347Y-93560500D01*
X112409348Y-93560500D01*
X112467831Y-93548867D01*
X112534152Y-93504552D01*
X112578467Y-93438231D01*
X112590100Y-93379748D01*
X112590100Y-93234500D01*
X112609007Y-93176309D01*
X112658507Y-93140345D01*
X112689100Y-93135500D01*
X116241345Y-93135500D01*
X116299536Y-93154407D01*
X116335500Y-93203907D01*
X116335500Y-93265093D01*
X116311350Y-93304501D01*
X116281859Y-93333993D01*
X116255113Y-93360739D01*
X116199098Y-93457758D01*
X116186560Y-93504552D01*
X116170100Y-93565982D01*
X116170100Y-93678018D01*
X116180687Y-93717530D01*
X116199098Y-93786241D01*
X116239431Y-93856098D01*
X116255115Y-93883263D01*
X116334337Y-93962485D01*
X116334339Y-93962486D01*
X116431359Y-94018501D01*
X116431357Y-94018501D01*
X116431361Y-94018502D01*
X116431363Y-94018503D01*
X116539582Y-94047500D01*
X116539584Y-94047500D01*
X116651616Y-94047500D01*
X116651618Y-94047500D01*
X116759837Y-94018503D01*
X116759839Y-94018501D01*
X116759841Y-94018501D01*
X116806890Y-93991337D01*
X116856863Y-93962485D01*
X116936085Y-93883263D01*
X116992103Y-93786237D01*
X117004975Y-93738198D01*
X122461000Y-93738198D01*
X122461000Y-93828399D01*
X122461001Y-93828400D01*
X122998499Y-93828400D01*
X122998500Y-93828399D01*
X122998500Y-93353401D01*
X122998499Y-93353400D01*
X122845799Y-93353400D01*
X122816241Y-93356171D01*
X122816240Y-93356172D01*
X122691759Y-93399730D01*
X122585651Y-93478041D01*
X122585641Y-93478051D01*
X122507330Y-93584159D01*
X122463772Y-93708640D01*
X122463771Y-93708641D01*
X122461000Y-93738198D01*
X117004975Y-93738198D01*
X117021100Y-93678018D01*
X117021100Y-93621669D01*
X117021698Y-93616255D01*
X117032155Y-93593097D01*
X117040007Y-93568932D01*
X117046501Y-93561328D01*
X117046879Y-93560492D01*
X117047535Y-93560117D01*
X117050096Y-93557120D01*
X117168656Y-93438559D01*
X117223173Y-93410781D01*
X117283605Y-93420352D01*
X117320975Y-93453559D01*
X117355048Y-93504552D01*
X117421369Y-93548867D01*
X117462860Y-93557120D01*
X117479841Y-93560498D01*
X117479846Y-93560498D01*
X117479852Y-93560500D01*
X117479853Y-93560500D01*
X120029347Y-93560500D01*
X120029348Y-93560500D01*
X120087831Y-93548867D01*
X120154152Y-93504552D01*
X120198467Y-93438231D01*
X120210100Y-93379748D01*
X120210100Y-92340252D01*
X120198467Y-92281769D01*
X120154152Y-92215448D01*
X120136277Y-92203504D01*
X120087830Y-92171132D01*
X120080500Y-92168096D01*
X120033975Y-92128358D01*
X120019693Y-92068863D01*
X120043110Y-92012335D01*
X120048372Y-92006642D01*
X120118457Y-91936558D01*
X120118456Y-91936558D01*
X123179157Y-88875859D01*
X123199253Y-88827342D01*
X123221100Y-88774600D01*
X123221100Y-85810455D01*
X123240007Y-85752264D01*
X123250090Y-85740457D01*
X123286085Y-85704463D01*
X123329692Y-85628933D01*
X123342101Y-85607441D01*
X123342101Y-85607439D01*
X123342103Y-85607437D01*
X123371100Y-85499218D01*
X123371100Y-85387182D01*
X123342103Y-85278963D01*
X123342101Y-85278960D01*
X123342101Y-85278958D01*
X123286086Y-85181939D01*
X123286085Y-85181937D01*
X123206863Y-85102715D01*
X123206860Y-85102713D01*
X123109840Y-85046698D01*
X123109842Y-85046698D01*
X123067851Y-85035447D01*
X123001618Y-85017700D01*
X122889582Y-85017700D01*
X122823348Y-85035447D01*
X122781358Y-85046698D01*
X122684339Y-85102713D01*
X122605113Y-85181939D01*
X122549098Y-85278958D01*
X122543547Y-85299676D01*
X122520100Y-85387182D01*
X122520100Y-85499218D01*
X122545672Y-85594655D01*
X122549098Y-85607441D01*
X122599805Y-85695266D01*
X122605115Y-85704463D01*
X122641105Y-85740453D01*
X122668881Y-85794968D01*
X122670100Y-85810455D01*
X122670100Y-88564676D01*
X122651193Y-88622867D01*
X122641104Y-88634680D01*
X119799781Y-91476004D01*
X119745264Y-91503781D01*
X119729777Y-91505000D01*
X117442498Y-91505000D01*
X117341244Y-91546940D01*
X117341242Y-91546941D01*
X117341242Y-91546942D01*
X116832185Y-92056000D01*
X116332681Y-92555504D01*
X116278164Y-92583281D01*
X116262677Y-92584500D01*
X112689100Y-92584500D01*
X112630909Y-92565593D01*
X112594945Y-92516093D01*
X112590100Y-92485500D01*
X112590100Y-92340253D01*
X112590098Y-92340241D01*
X112587311Y-92326231D01*
X112578467Y-92281769D01*
X112534152Y-92215448D01*
X112516277Y-92203504D01*
X112467833Y-92171134D01*
X112467831Y-92171133D01*
X112467828Y-92171132D01*
X112467827Y-92171132D01*
X112409358Y-92159501D01*
X112409348Y-92159500D01*
X109859852Y-92159500D01*
X109859851Y-92159500D01*
X109859841Y-92159501D01*
X109801372Y-92171132D01*
X109801366Y-92171134D01*
X109735051Y-92215445D01*
X109735045Y-92215451D01*
X109690734Y-92281766D01*
X109690732Y-92281772D01*
X109679101Y-92340241D01*
X109679100Y-92340253D01*
X108920900Y-92340253D01*
X108920900Y-92291223D01*
X108939807Y-92233032D01*
X108949896Y-92221219D01*
X109683020Y-91488096D01*
X109737537Y-91460319D01*
X109753024Y-91459100D01*
X112137499Y-91459100D01*
X112137500Y-91459100D01*
X112238758Y-91417157D01*
X112316257Y-91339658D01*
X112316256Y-91339658D01*
X113661897Y-89994017D01*
X113716413Y-89966241D01*
X113776845Y-89975812D01*
X113820110Y-90019077D01*
X113830900Y-90064022D01*
X113830900Y-91222744D01*
X113811993Y-91280935D01*
X113801904Y-91292747D01*
X113765914Y-91328737D01*
X113709898Y-91425758D01*
X113709897Y-91425763D01*
X113680900Y-91533982D01*
X113680900Y-91646018D01*
X113693747Y-91693963D01*
X113709898Y-91754241D01*
X113761637Y-91843854D01*
X113765915Y-91851263D01*
X113845137Y-91930485D01*
X113845139Y-91930486D01*
X113942159Y-91986501D01*
X113942157Y-91986501D01*
X113942161Y-91986502D01*
X113942163Y-91986503D01*
X114050382Y-92015500D01*
X114050384Y-92015500D01*
X114162416Y-92015500D01*
X114162418Y-92015500D01*
X114270637Y-91986503D01*
X114270639Y-91986501D01*
X114270641Y-91986501D01*
X114300459Y-91969285D01*
X114367663Y-91930485D01*
X114446885Y-91851263D01*
X114502903Y-91754237D01*
X114531900Y-91646018D01*
X114531900Y-91533982D01*
X114502903Y-91425763D01*
X114502901Y-91425760D01*
X114502901Y-91425758D01*
X114446885Y-91328737D01*
X114410896Y-91292747D01*
X114383119Y-91238230D01*
X114381900Y-91222744D01*
X114381900Y-90277123D01*
X114400807Y-90218932D01*
X114410896Y-90207119D01*
X114640896Y-89977119D01*
X114695413Y-89949342D01*
X114755845Y-89958913D01*
X114799110Y-90002178D01*
X114809900Y-90047123D01*
X114809900Y-90839746D01*
X114809901Y-90839758D01*
X114817728Y-90879104D01*
X114821533Y-90898231D01*
X114865848Y-90964552D01*
X114932169Y-91008867D01*
X114976631Y-91017711D01*
X114990641Y-91020498D01*
X114990646Y-91020498D01*
X114990652Y-91020500D01*
X115618222Y-91020500D01*
X115676413Y-91039407D01*
X115712377Y-91088907D01*
X115712377Y-91150093D01*
X115676413Y-91199593D01*
X115643847Y-91215125D01*
X115615416Y-91222744D01*
X115579758Y-91232298D01*
X115482739Y-91288313D01*
X115403513Y-91367539D01*
X115347498Y-91464558D01*
X115347497Y-91464563D01*
X115318500Y-91572782D01*
X115318500Y-91684818D01*
X115335960Y-91749980D01*
X115347498Y-91793041D01*
X115399767Y-91883572D01*
X115403515Y-91890063D01*
X115482737Y-91969285D01*
X115482739Y-91969286D01*
X115579759Y-92025301D01*
X115579757Y-92025301D01*
X115579761Y-92025302D01*
X115579763Y-92025303D01*
X115687982Y-92054300D01*
X115687984Y-92054300D01*
X115800016Y-92054300D01*
X115800018Y-92054300D01*
X115908237Y-92025303D01*
X115908239Y-92025301D01*
X115908241Y-92025301D01*
X115940581Y-92006629D01*
X116005263Y-91969285D01*
X116084485Y-91890063D01*
X116124672Y-91820457D01*
X116140501Y-91793041D01*
X116140501Y-91793039D01*
X116140503Y-91793037D01*
X116169500Y-91684818D01*
X116169500Y-91633922D01*
X116188407Y-91575731D01*
X116198490Y-91563924D01*
X116498957Y-91263458D01*
X116540900Y-91162200D01*
X116540900Y-91119500D01*
X116559807Y-91061309D01*
X116609307Y-91025345D01*
X116639900Y-91020500D01*
X117540147Y-91020500D01*
X117540148Y-91020500D01*
X117598631Y-91008867D01*
X117664952Y-90964552D01*
X117709267Y-90898231D01*
X117720900Y-90839748D01*
X117720900Y-89800252D01*
X117709267Y-89741769D01*
X117664952Y-89675448D01*
X117640899Y-89659376D01*
X117598633Y-89631134D01*
X117598631Y-89631133D01*
X117598628Y-89631132D01*
X117598627Y-89631132D01*
X117540158Y-89619501D01*
X117540148Y-89619500D01*
X117540147Y-89619500D01*
X115237523Y-89619500D01*
X115179332Y-89600593D01*
X115143368Y-89551093D01*
X115143368Y-89489907D01*
X115167519Y-89450496D01*
X115790673Y-88827343D01*
X116533520Y-88084496D01*
X116588037Y-88056719D01*
X116603524Y-88055500D01*
X117200100Y-88055500D01*
X117258291Y-88074407D01*
X117294255Y-88123907D01*
X117299100Y-88154500D01*
X117299100Y-88299746D01*
X117299101Y-88299758D01*
X117310732Y-88358227D01*
X117310734Y-88358233D01*
X117341793Y-88404715D01*
X117355048Y-88424552D01*
X117421369Y-88468867D01*
X117465831Y-88477711D01*
X117479841Y-88480498D01*
X117479846Y-88480498D01*
X117479852Y-88480500D01*
X117479853Y-88480500D01*
X120029347Y-88480500D01*
X120029348Y-88480500D01*
X120087831Y-88468867D01*
X120154152Y-88424552D01*
X120198467Y-88358231D01*
X120210100Y-88299748D01*
X120210100Y-87260252D01*
X120198467Y-87201769D01*
X120154152Y-87135448D01*
X120137853Y-87124557D01*
X120087833Y-87091134D01*
X120087831Y-87091133D01*
X120087828Y-87091132D01*
X120087827Y-87091132D01*
X120029358Y-87079501D01*
X120029348Y-87079500D01*
X119702722Y-87079500D01*
X119644531Y-87060593D01*
X119608567Y-87011093D01*
X119608567Y-86949907D01*
X119632718Y-86910496D01*
X120127551Y-86415663D01*
X120652503Y-85890711D01*
X120691171Y-85868390D01*
X120690839Y-85867587D01*
X120696830Y-85865104D01*
X120696837Y-85865103D01*
X120793863Y-85809085D01*
X120873085Y-85729863D01*
X120914154Y-85658730D01*
X120929101Y-85632841D01*
X120929101Y-85632839D01*
X120929103Y-85632837D01*
X120958100Y-85524618D01*
X120958100Y-85412582D01*
X120929103Y-85304363D01*
X120929101Y-85304360D01*
X120929101Y-85304358D01*
X120873086Y-85207339D01*
X120873085Y-85207337D01*
X120793863Y-85128115D01*
X120772327Y-85115681D01*
X120696840Y-85072098D01*
X120696842Y-85072098D01*
X120654851Y-85060847D01*
X120588618Y-85043100D01*
X120476582Y-85043100D01*
X120410348Y-85060847D01*
X120368358Y-85072098D01*
X120271339Y-85128113D01*
X120192113Y-85207339D01*
X120136098Y-85304358D01*
X120130887Y-85323807D01*
X120107648Y-85410539D01*
X120107100Y-85412583D01*
X120107100Y-85524617D01*
X120120257Y-85573723D01*
X120117054Y-85634825D01*
X120094634Y-85669348D01*
X119304482Y-86459503D01*
X119249965Y-86487281D01*
X119234478Y-86488500D01*
X118767306Y-86488500D01*
X118709115Y-86469593D01*
X118673151Y-86420093D01*
X118673151Y-86358907D01*
X118681569Y-86340000D01*
X118693902Y-86318638D01*
X118693903Y-86318637D01*
X118722900Y-86210418D01*
X118722900Y-86098382D01*
X118693903Y-85990163D01*
X118693901Y-85990160D01*
X118693901Y-85990158D01*
X118642817Y-85901680D01*
X118637885Y-85893137D01*
X118558663Y-85813915D01*
X118552736Y-85810493D01*
X118461640Y-85757898D01*
X118461642Y-85757898D01*
X118396527Y-85740451D01*
X118353418Y-85728900D01*
X118241382Y-85728900D01*
X118198273Y-85740451D01*
X118133158Y-85757898D01*
X118036137Y-85813914D01*
X118000147Y-85849904D01*
X117993030Y-85853529D01*
X117988335Y-85859993D01*
X117966283Y-85867157D01*
X117945630Y-85877681D01*
X117930144Y-85878900D01*
X117817831Y-85878900D01*
X117759640Y-85859993D01*
X117723676Y-85810493D01*
X117720974Y-85764646D01*
X117720423Y-85764592D01*
X117720766Y-85761106D01*
X117720735Y-85760578D01*
X117720757Y-85760462D01*
X117720900Y-85759748D01*
X117720900Y-84720252D01*
X117709267Y-84661769D01*
X117664952Y-84595448D01*
X117664948Y-84595445D01*
X117598633Y-84551134D01*
X117598631Y-84551133D01*
X117598628Y-84551132D01*
X117598627Y-84551132D01*
X117540158Y-84539501D01*
X117540148Y-84539500D01*
X114990652Y-84539500D01*
X114990651Y-84539500D01*
X114990641Y-84539501D01*
X114932172Y-84551132D01*
X114932166Y-84551134D01*
X114865851Y-84595445D01*
X114865845Y-84595451D01*
X114821534Y-84661766D01*
X114821532Y-84661772D01*
X114809901Y-84720241D01*
X114809900Y-84720253D01*
X114809900Y-85299676D01*
X114790993Y-85357867D01*
X114780904Y-85369680D01*
X113675600Y-86474984D01*
X113621083Y-86502761D01*
X113560651Y-86493190D01*
X113517386Y-86449925D01*
X113507815Y-86389493D01*
X113509970Y-86379356D01*
X113518634Y-86347020D01*
X113518635Y-86347017D01*
X113518635Y-86234983D01*
X113512053Y-86210418D01*
X113489638Y-86126763D01*
X113489636Y-86126760D01*
X113489636Y-86126758D01*
X113433620Y-86029737D01*
X113397631Y-85993747D01*
X113369854Y-85939230D01*
X113368635Y-85923744D01*
X113368635Y-85543534D01*
X113357124Y-85515744D01*
X113357122Y-85515741D01*
X113326693Y-85442277D01*
X111453920Y-83569504D01*
X111426143Y-83514987D01*
X111435714Y-83454555D01*
X111478979Y-83411290D01*
X111523924Y-83400500D01*
X112409347Y-83400500D01*
X112409348Y-83400500D01*
X112467831Y-83388867D01*
X112534152Y-83344552D01*
X112578467Y-83278231D01*
X112590100Y-83219748D01*
X112590100Y-82180252D01*
X112578467Y-82121769D01*
X112534152Y-82055448D01*
X112534148Y-82055445D01*
X112467833Y-82011134D01*
X112467831Y-82011133D01*
X112467828Y-82011132D01*
X112467827Y-82011132D01*
X112409358Y-81999501D01*
X112409348Y-81999500D01*
X109859852Y-81999500D01*
X109859851Y-81999500D01*
X109859841Y-81999501D01*
X109801372Y-82011132D01*
X109801366Y-82011134D01*
X109735051Y-82055445D01*
X109735045Y-82055451D01*
X109690734Y-82121766D01*
X109690732Y-82121772D01*
X109679101Y-82180241D01*
X109679100Y-82180253D01*
X109679100Y-83219746D01*
X109679101Y-83219758D01*
X109690732Y-83278227D01*
X109690733Y-83278231D01*
X109735048Y-83344552D01*
X109801369Y-83388867D01*
X109845831Y-83397711D01*
X109859841Y-83400498D01*
X109859846Y-83400498D01*
X109859852Y-83400500D01*
X110760100Y-83400500D01*
X110818291Y-83419407D01*
X110854255Y-83468907D01*
X110859100Y-83499500D01*
X110859100Y-83694600D01*
X110901043Y-83795858D01*
X112788640Y-85683455D01*
X112792265Y-85690570D01*
X112798728Y-85695266D01*
X112805891Y-85717314D01*
X112816416Y-85737970D01*
X112817635Y-85753457D01*
X112817635Y-85923744D01*
X112798728Y-85981935D01*
X112788639Y-85993747D01*
X112752649Y-86029737D01*
X112696633Y-86126758D01*
X112685073Y-86169901D01*
X112667635Y-86234982D01*
X112667635Y-86347018D01*
X112689843Y-86429900D01*
X112696633Y-86455240D01*
X112703422Y-86466998D01*
X112716145Y-86526846D01*
X112691260Y-86582742D01*
X112638272Y-86613336D01*
X112617687Y-86615500D01*
X108895400Y-86615500D01*
X108794142Y-86657443D01*
X108794141Y-86657444D01*
X107032504Y-88419081D01*
X106977987Y-88446858D01*
X106917555Y-88437287D01*
X106874290Y-88394022D01*
X106863500Y-88349077D01*
X106863500Y-84720253D01*
X107189900Y-84720253D01*
X107189900Y-85759746D01*
X107189901Y-85759758D01*
X107201532Y-85818227D01*
X107201534Y-85818233D01*
X107237431Y-85871956D01*
X107245848Y-85884552D01*
X107312169Y-85928867D01*
X107356631Y-85937711D01*
X107370641Y-85940498D01*
X107370646Y-85940498D01*
X107370652Y-85940500D01*
X107370653Y-85940500D01*
X109920147Y-85940500D01*
X109920148Y-85940500D01*
X109978631Y-85928867D01*
X110022107Y-85899816D01*
X110080993Y-85883208D01*
X110131065Y-85901680D01*
X110132229Y-85899938D01*
X110140337Y-85905355D01*
X110140340Y-85905356D01*
X110140341Y-85905357D01*
X110157007Y-85912260D01*
X110241600Y-85947300D01*
X110288042Y-85947300D01*
X110346233Y-85966207D01*
X110358045Y-85976296D01*
X110394035Y-86012285D01*
X110491057Y-86068301D01*
X110491055Y-86068301D01*
X110491059Y-86068302D01*
X110491061Y-86068303D01*
X110599280Y-86097300D01*
X110599282Y-86097300D01*
X110711314Y-86097300D01*
X110711316Y-86097300D01*
X110819535Y-86068303D01*
X110819537Y-86068301D01*
X110819539Y-86068301D01*
X110886333Y-86029737D01*
X110916561Y-86012285D01*
X110995783Y-85933063D01*
X111051801Y-85836037D01*
X111080798Y-85727818D01*
X111080798Y-85615782D01*
X111051801Y-85507563D01*
X111051799Y-85507560D01*
X111051799Y-85507558D01*
X110995784Y-85410539D01*
X110995783Y-85410537D01*
X110916561Y-85331315D01*
X110903557Y-85323807D01*
X110819538Y-85275298D01*
X110819540Y-85275298D01*
X110777549Y-85264047D01*
X110711316Y-85246300D01*
X110599280Y-85246300D01*
X110545170Y-85260798D01*
X110491059Y-85275297D01*
X110429072Y-85311086D01*
X110369223Y-85323807D01*
X110313328Y-85298920D01*
X110309568Y-85295353D01*
X110260515Y-85246300D01*
X110129895Y-85115679D01*
X110102119Y-85061164D01*
X110100900Y-85045677D01*
X110100900Y-84720253D01*
X110100898Y-84720241D01*
X110098111Y-84706231D01*
X110089267Y-84661769D01*
X110044952Y-84595448D01*
X110044948Y-84595445D01*
X109978633Y-84551134D01*
X109978631Y-84551133D01*
X109978628Y-84551132D01*
X109978627Y-84551132D01*
X109920158Y-84539501D01*
X109920148Y-84539500D01*
X107370652Y-84539500D01*
X107370651Y-84539500D01*
X107370641Y-84539501D01*
X107312172Y-84551132D01*
X107312166Y-84551134D01*
X107245851Y-84595445D01*
X107245845Y-84595451D01*
X107201534Y-84661766D01*
X107201532Y-84661772D01*
X107189901Y-84720241D01*
X107189900Y-84720253D01*
X106863500Y-84720253D01*
X106863500Y-82448723D01*
X106882407Y-82390532D01*
X106892496Y-82378719D01*
X107542120Y-81729096D01*
X107596637Y-81701319D01*
X107612124Y-81700100D01*
X113996677Y-81700100D01*
X114054868Y-81719007D01*
X114066681Y-81729096D01*
X115193643Y-82856058D01*
X115193642Y-82856058D01*
X115271138Y-82933553D01*
X115271142Y-82933557D01*
X115372400Y-82975500D01*
X117200100Y-82975500D01*
X117258291Y-82994407D01*
X117294255Y-83043907D01*
X117299100Y-83074500D01*
X117299100Y-83219746D01*
X117299101Y-83219758D01*
X117310732Y-83278227D01*
X117310733Y-83278231D01*
X117355048Y-83344552D01*
X117421369Y-83388867D01*
X117465831Y-83397711D01*
X117479841Y-83400498D01*
X117479846Y-83400498D01*
X117479852Y-83400500D01*
X117479853Y-83400500D01*
X120029347Y-83400500D01*
X120029348Y-83400500D01*
X120087831Y-83388867D01*
X120154152Y-83344552D01*
X120198467Y-83278231D01*
X120210100Y-83219748D01*
X120210100Y-82180252D01*
X120198467Y-82121769D01*
X120154152Y-82055448D01*
X120154148Y-82055445D01*
X120087833Y-82011134D01*
X120087831Y-82011133D01*
X120087828Y-82011132D01*
X120087827Y-82011132D01*
X120029358Y-81999501D01*
X120029348Y-81999500D01*
X117479852Y-81999500D01*
X117479851Y-81999500D01*
X117479841Y-81999501D01*
X117421372Y-82011132D01*
X117421366Y-82011134D01*
X117355051Y-82055445D01*
X117355045Y-82055451D01*
X117310734Y-82121766D01*
X117310732Y-82121772D01*
X117299101Y-82180241D01*
X117299100Y-82180253D01*
X117299100Y-82325500D01*
X117280193Y-82383691D01*
X117230693Y-82419655D01*
X117200100Y-82424500D01*
X115582323Y-82424500D01*
X115524132Y-82405593D01*
X115512319Y-82395504D01*
X114388218Y-81271403D01*
X114360441Y-81216886D01*
X114370012Y-81156454D01*
X114388212Y-81131401D01*
X114720453Y-80799160D01*
X114774968Y-80771385D01*
X114835400Y-80780956D01*
X114860459Y-80799162D01*
X114865845Y-80804548D01*
X114865848Y-80804552D01*
X114932169Y-80848867D01*
X114976631Y-80857711D01*
X114990641Y-80860498D01*
X114990646Y-80860498D01*
X114990652Y-80860500D01*
X114990653Y-80860500D01*
X117540147Y-80860500D01*
X117540148Y-80860500D01*
X117598631Y-80848867D01*
X117664952Y-80804552D01*
X117709267Y-80738231D01*
X117720900Y-80679748D01*
X117720900Y-79640252D01*
X117709267Y-79581769D01*
X117664952Y-79515448D01*
X117648653Y-79504557D01*
X117598633Y-79471134D01*
X117598631Y-79471133D01*
X117598628Y-79471132D01*
X117598627Y-79471132D01*
X117540158Y-79459501D01*
X117540148Y-79459500D01*
X114990652Y-79459500D01*
X114990651Y-79459500D01*
X114990641Y-79459501D01*
X114932172Y-79471132D01*
X114932166Y-79471134D01*
X114865851Y-79515445D01*
X114865845Y-79515451D01*
X114821534Y-79581766D01*
X114821532Y-79581772D01*
X114809901Y-79640241D01*
X114809900Y-79640253D01*
X114809900Y-79889477D01*
X114790993Y-79947668D01*
X114780904Y-79959481D01*
X114021281Y-80719104D01*
X113966764Y-80746881D01*
X113951277Y-80748100D01*
X110199900Y-80748100D01*
X110141709Y-80729193D01*
X110105745Y-80679693D01*
X110100900Y-80649100D01*
X110100900Y-79645500D01*
X110119807Y-79587309D01*
X110169307Y-79551345D01*
X110199900Y-79546500D01*
X113145199Y-79546500D01*
X113145200Y-79546500D01*
X113246458Y-79504557D01*
X113323957Y-79427058D01*
X113323956Y-79427058D01*
X114826520Y-77924496D01*
X114881037Y-77896719D01*
X114896524Y-77895500D01*
X117200100Y-77895500D01*
X117258291Y-77914407D01*
X117294255Y-77963907D01*
X117299100Y-77994500D01*
X117299100Y-78139746D01*
X117299101Y-78139758D01*
X117310732Y-78198227D01*
X117310733Y-78198231D01*
X117355048Y-78264552D01*
X117421369Y-78308867D01*
X117465831Y-78317711D01*
X117479841Y-78320498D01*
X117479846Y-78320498D01*
X117479852Y-78320500D01*
X117479853Y-78320500D01*
X120029347Y-78320500D01*
X120029348Y-78320500D01*
X120087831Y-78308867D01*
X120154152Y-78264552D01*
X120198467Y-78198231D01*
X120210100Y-78139748D01*
X120210100Y-77100252D01*
X120198467Y-77041769D01*
X120154152Y-76975448D01*
X120154148Y-76975445D01*
X120087833Y-76931134D01*
X120087831Y-76931133D01*
X120087828Y-76931132D01*
X120087827Y-76931132D01*
X120029358Y-76919501D01*
X120029348Y-76919500D01*
X117479852Y-76919500D01*
X117479851Y-76919500D01*
X117479841Y-76919501D01*
X117421372Y-76931132D01*
X117421366Y-76931134D01*
X117355051Y-76975445D01*
X117355045Y-76975451D01*
X117310734Y-77041766D01*
X117310732Y-77041772D01*
X117299101Y-77100241D01*
X117299100Y-77100253D01*
X117299100Y-77245500D01*
X117280193Y-77303691D01*
X117230693Y-77339655D01*
X117200100Y-77344500D01*
X114686598Y-77344500D01*
X114585344Y-77386440D01*
X113005281Y-78966504D01*
X112950764Y-78994281D01*
X112935277Y-78995500D01*
X107218999Y-78995500D01*
X107147399Y-79025157D01*
X107147399Y-79025158D01*
X107117741Y-79037443D01*
X104831742Y-81323443D01*
X104831741Y-81323442D01*
X104754246Y-81400938D01*
X104754244Y-81400940D01*
X104754243Y-81400942D01*
X104754243Y-81400943D01*
X104712300Y-81502200D01*
X104712300Y-85658730D01*
X104710500Y-85677006D01*
X104710500Y-86285538D01*
X104712300Y-86303817D01*
X104712300Y-88498857D01*
X104710347Y-88518425D01*
X104710273Y-88518792D01*
X104680237Y-88572098D01*
X104624605Y-88597568D01*
X104564627Y-88585474D01*
X104527490Y-88548724D01*
X104490086Y-88483939D01*
X104490085Y-88483937D01*
X104410863Y-88404715D01*
X104410860Y-88404713D01*
X104313840Y-88348698D01*
X104313842Y-88348698D01*
X104271851Y-88337447D01*
X104205618Y-88319700D01*
X104093582Y-88319700D01*
X104027348Y-88337447D01*
X103985358Y-88348698D01*
X103888339Y-88404713D01*
X103809113Y-88483939D01*
X103753098Y-88580958D01*
X103746473Y-88605684D01*
X103724100Y-88689182D01*
X103724100Y-88801218D01*
X103744099Y-88875856D01*
X103753098Y-88909441D01*
X103806494Y-89001923D01*
X103809115Y-89006463D01*
X103888337Y-89085685D01*
X103888339Y-89085686D01*
X103985359Y-89141701D01*
X103985363Y-89141703D01*
X104038924Y-89156054D01*
X104090237Y-89189376D01*
X104112164Y-89246497D01*
X104112300Y-89251680D01*
X104112300Y-90581744D01*
X104093393Y-90639935D01*
X104083304Y-90651747D01*
X104047314Y-90687737D01*
X103991298Y-90784758D01*
X103991297Y-90784763D01*
X103962300Y-90892982D01*
X103962300Y-91005018D01*
X103977180Y-91060552D01*
X103991298Y-91113241D01*
X104043295Y-91203300D01*
X104047315Y-91210263D01*
X104126537Y-91289485D01*
X104126539Y-91289486D01*
X104223559Y-91345501D01*
X104223557Y-91345501D01*
X104223561Y-91345502D01*
X104223563Y-91345503D01*
X104331782Y-91374500D01*
X104331784Y-91374500D01*
X104443816Y-91374500D01*
X104443818Y-91374500D01*
X104552037Y-91345503D01*
X104561998Y-91339751D01*
X104621845Y-91327029D01*
X104677741Y-91351913D01*
X104708336Y-91404900D01*
X104710500Y-91425487D01*
X104710500Y-91719200D01*
X104745889Y-91804635D01*
X104752443Y-91820458D01*
X106232705Y-93300720D01*
X106260481Y-93355235D01*
X106261700Y-93370722D01*
X106261700Y-96572400D01*
X106274948Y-96604382D01*
X106293122Y-96648258D01*
X106293122Y-96648259D01*
X106303641Y-96673655D01*
X106303642Y-96673656D01*
X106303643Y-96673658D01*
X107555905Y-97925920D01*
X107583681Y-97980436D01*
X107584900Y-97995923D01*
X107584900Y-98072218D01*
X107605586Y-98149418D01*
X107613898Y-98180441D01*
X107655250Y-98252063D01*
X107669915Y-98277463D01*
X107749137Y-98356685D01*
X107749139Y-98356686D01*
X107846159Y-98412701D01*
X107846157Y-98412701D01*
X107846161Y-98412702D01*
X107846163Y-98412703D01*
X107954382Y-98441700D01*
X107954384Y-98441700D01*
X108066416Y-98441700D01*
X108066418Y-98441700D01*
X108174637Y-98412703D01*
X108174639Y-98412701D01*
X108174641Y-98412701D01*
X108218631Y-98387303D01*
X108271663Y-98356685D01*
X108334098Y-98294249D01*
X108388613Y-98266474D01*
X108449045Y-98276045D01*
X108474100Y-98294248D01*
X108511137Y-98331285D01*
X108543479Y-98349957D01*
X108608159Y-98387301D01*
X108608157Y-98387301D01*
X108608161Y-98387302D01*
X108608163Y-98387303D01*
X108716382Y-98416300D01*
X108716384Y-98416300D01*
X108828416Y-98416300D01*
X108828418Y-98416300D01*
X108936637Y-98387303D01*
X108936639Y-98387301D01*
X108936641Y-98387301D01*
X108989667Y-98356686D01*
X109033663Y-98331285D01*
X109112885Y-98252063D01*
X109154236Y-98180441D01*
X109172148Y-98149418D01*
X109173745Y-98150340D01*
X109207851Y-98110401D01*
X109267345Y-98096113D01*
X109323875Y-98119522D01*
X109329576Y-98124791D01*
X113166905Y-101962120D01*
X113194681Y-102016635D01*
X113195900Y-102032122D01*
X113195900Y-106577959D01*
X113176993Y-106636150D01*
X113127493Y-106672114D01*
X113066307Y-106672114D01*
X113047400Y-106663695D01*
X113000640Y-106636698D01*
X113000642Y-106636698D01*
X112958651Y-106625447D01*
X112892418Y-106607700D01*
X112780382Y-106607700D01*
X112714148Y-106625447D01*
X112672158Y-106636698D01*
X112575139Y-106692713D01*
X112495913Y-106771939D01*
X112439898Y-106868958D01*
X112439897Y-106868963D01*
X112410900Y-106977182D01*
X112410900Y-107089218D01*
X112436472Y-107184655D01*
X112439898Y-107197441D01*
X112470821Y-107251000D01*
X112483543Y-107310848D01*
X112458657Y-107366744D01*
X112405669Y-107397337D01*
X112385085Y-107399500D01*
X109859852Y-107399500D01*
X109859851Y-107399500D01*
X109859841Y-107399501D01*
X109801372Y-107411132D01*
X109801366Y-107411134D01*
X109735051Y-107455445D01*
X109735045Y-107455451D01*
X109690734Y-107521766D01*
X109690732Y-107521772D01*
X109679101Y-107580241D01*
X109679100Y-107580253D01*
X109679100Y-107725500D01*
X109660193Y-107783691D01*
X109610693Y-107819655D01*
X109580100Y-107824500D01*
X108701798Y-107824500D01*
X108600544Y-107866440D01*
X108600542Y-107866441D01*
X108600542Y-107866442D01*
X108351863Y-108115122D01*
X108110281Y-108356704D01*
X108055764Y-108384481D01*
X108040277Y-108385700D01*
X107989382Y-108385700D01*
X107923148Y-108403447D01*
X107881158Y-108414698D01*
X107784139Y-108470713D01*
X107704913Y-108549939D01*
X107648898Y-108646958D01*
X107648897Y-108646963D01*
X107619900Y-108755182D01*
X107619900Y-108867218D01*
X107636747Y-108930093D01*
X107648898Y-108975441D01*
X107704913Y-109072460D01*
X107704915Y-109072463D01*
X107784137Y-109151685D01*
X107784139Y-109151686D01*
X107881159Y-109207701D01*
X107881157Y-109207701D01*
X107881161Y-109207702D01*
X107881163Y-109207703D01*
X107989382Y-109236700D01*
X107989384Y-109236700D01*
X108101416Y-109236700D01*
X108101418Y-109236700D01*
X108209637Y-109207703D01*
X108209639Y-109207701D01*
X108209641Y-109207701D01*
X108238464Y-109191059D01*
X108306663Y-109151685D01*
X108385885Y-109072463D01*
X108441903Y-108975437D01*
X108470900Y-108867218D01*
X108470900Y-108816322D01*
X108489807Y-108758131D01*
X108499897Y-108746318D01*
X108841720Y-108404496D01*
X108896236Y-108376719D01*
X108911723Y-108375500D01*
X109580100Y-108375500D01*
X109638291Y-108394407D01*
X109674255Y-108443907D01*
X109679100Y-108474500D01*
X109679100Y-108619746D01*
X109679101Y-108619758D01*
X109690732Y-108678227D01*
X109690734Y-108678233D01*
X109735045Y-108744548D01*
X109735048Y-108744552D01*
X109801369Y-108788867D01*
X109845831Y-108797711D01*
X109859841Y-108800498D01*
X109859846Y-108800498D01*
X109859852Y-108800500D01*
X110683285Y-108800500D01*
X110741476Y-108819407D01*
X110777440Y-108868907D01*
X110777440Y-108930093D01*
X110769021Y-108949000D01*
X110738098Y-109002558D01*
X110738097Y-109002563D01*
X110709100Y-109110782D01*
X110709100Y-109222818D01*
X110712820Y-109236700D01*
X110738098Y-109331041D01*
X110794113Y-109428060D01*
X110794115Y-109428063D01*
X110873337Y-109507285D01*
X110873339Y-109507286D01*
X110970359Y-109563301D01*
X110970357Y-109563301D01*
X110970361Y-109563302D01*
X110970363Y-109563303D01*
X111078582Y-109592300D01*
X111078584Y-109592300D01*
X111154877Y-109592300D01*
X111213068Y-109611207D01*
X111224881Y-109621296D01*
X111871504Y-110267919D01*
X111899281Y-110322436D01*
X111900500Y-110337923D01*
X111900500Y-111441144D01*
X111881593Y-111499335D01*
X111871504Y-111511147D01*
X111835514Y-111547137D01*
X111779498Y-111644158D01*
X111754727Y-111736608D01*
X111729186Y-111775936D01*
X111743924Y-111794135D01*
X111750500Y-111829614D01*
X111750500Y-111864418D01*
X111770847Y-111940356D01*
X111779498Y-111972641D01*
X111829040Y-112058448D01*
X111835515Y-112069663D01*
X111914737Y-112148885D01*
X111935790Y-112161040D01*
X112011759Y-112204901D01*
X112011757Y-112204901D01*
X112011761Y-112204902D01*
X112011763Y-112204903D01*
X112119982Y-112233900D01*
X112119984Y-112233900D01*
X112232016Y-112233900D01*
X112232018Y-112233900D01*
X112340237Y-112204903D01*
X112340239Y-112204901D01*
X112340241Y-112204901D01*
X112412400Y-112163240D01*
X112422746Y-112161040D01*
X112431307Y-112154821D01*
X112452005Y-112154821D01*
X112472248Y-112150518D01*
X112481913Y-112154821D01*
X112492493Y-112154821D01*
X112509236Y-112166986D01*
X112528144Y-112175404D01*
X112533434Y-112184566D01*
X112541993Y-112190785D01*
X112548388Y-112210467D01*
X112558737Y-112228392D01*
X112560900Y-112248976D01*
X112560900Y-112389013D01*
X112541993Y-112447204D01*
X112492493Y-112483168D01*
X112442587Y-112486111D01*
X112409353Y-112479500D01*
X112409348Y-112479500D01*
X111509100Y-112479500D01*
X111450909Y-112460593D01*
X111414945Y-112411093D01*
X111410100Y-112380500D01*
X111410100Y-112099455D01*
X111429007Y-112041264D01*
X111439090Y-112029457D01*
X111475085Y-111993463D01*
X111531103Y-111896437D01*
X111555874Y-111803989D01*
X111581413Y-111764662D01*
X111566676Y-111746463D01*
X111560100Y-111710985D01*
X111560100Y-111676183D01*
X111560100Y-111676182D01*
X111531103Y-111567963D01*
X111531101Y-111567960D01*
X111531101Y-111567958D01*
X111475086Y-111470939D01*
X111475085Y-111470937D01*
X111395863Y-111391715D01*
X111395860Y-111391713D01*
X111298840Y-111335698D01*
X111298842Y-111335698D01*
X111256851Y-111324447D01*
X111190618Y-111306700D01*
X111078582Y-111306700D01*
X111012348Y-111324447D01*
X110970358Y-111335698D01*
X110873339Y-111391713D01*
X110794113Y-111470939D01*
X110738098Y-111567958D01*
X110738097Y-111567963D01*
X110709100Y-111676182D01*
X110709100Y-111788218D01*
X110720192Y-111829614D01*
X110738098Y-111896441D01*
X110794113Y-111993460D01*
X110794115Y-111993463D01*
X110830105Y-112029453D01*
X110857881Y-112083968D01*
X110859100Y-112099455D01*
X110859100Y-112380500D01*
X110840193Y-112438691D01*
X110790693Y-112474655D01*
X110760100Y-112479500D01*
X109859852Y-112479500D01*
X109859851Y-112479500D01*
X109859841Y-112479501D01*
X109801372Y-112491132D01*
X109801366Y-112491134D01*
X109735051Y-112535445D01*
X109735045Y-112535451D01*
X109690734Y-112601766D01*
X109690732Y-112601772D01*
X109679101Y-112660241D01*
X109679100Y-112660253D01*
X109679100Y-113699746D01*
X109679101Y-113699758D01*
X109690732Y-113758227D01*
X109690734Y-113758233D01*
X109735045Y-113824548D01*
X109735048Y-113824552D01*
X109801369Y-113868867D01*
X109845831Y-113877711D01*
X109859841Y-113880498D01*
X109859846Y-113880498D01*
X109859852Y-113880500D01*
X109859853Y-113880500D01*
X112409347Y-113880500D01*
X112409348Y-113880500D01*
X112409349Y-113880499D01*
X112409355Y-113880499D01*
X112442584Y-113873889D01*
X112503346Y-113881079D01*
X112548276Y-113922611D01*
X112560900Y-113970986D01*
X112560900Y-116003544D01*
X112541993Y-116061735D01*
X112531904Y-116073547D01*
X112495914Y-116109537D01*
X112439898Y-116206558D01*
X112410900Y-116314783D01*
X112410900Y-116426820D01*
X112418297Y-116454427D01*
X112415094Y-116515528D01*
X112376587Y-116563078D01*
X112317487Y-116578912D01*
X112260366Y-116556984D01*
X112252676Y-116550061D01*
X110084158Y-114381543D01*
X109982900Y-114339600D01*
X109982899Y-114339600D01*
X107949624Y-114339600D01*
X107891433Y-114320693D01*
X107879620Y-114310604D01*
X106257496Y-112688480D01*
X106229719Y-112633963D01*
X106228500Y-112618476D01*
X106228500Y-110120253D01*
X107189900Y-110120253D01*
X107189900Y-111159746D01*
X107189901Y-111159758D01*
X107201532Y-111218227D01*
X107201534Y-111218233D01*
X107241001Y-111277298D01*
X107245848Y-111284552D01*
X107312169Y-111328867D01*
X107346506Y-111335697D01*
X107370641Y-111340498D01*
X107370646Y-111340498D01*
X107370652Y-111340500D01*
X107370653Y-111340500D01*
X109920147Y-111340500D01*
X109920148Y-111340500D01*
X109978631Y-111328867D01*
X110044952Y-111284552D01*
X110089267Y-111218231D01*
X110100900Y-111159748D01*
X110100900Y-111039900D01*
X110105611Y-111025399D01*
X110105474Y-111010156D01*
X110114827Y-110997035D01*
X110119807Y-110981709D01*
X110132142Y-110972747D01*
X110140991Y-110960334D01*
X110156077Y-110955357D01*
X110169307Y-110945745D01*
X110199009Y-110940904D01*
X110199453Y-110940900D01*
X110275000Y-110940900D01*
X110276677Y-110940204D01*
X110287882Y-110940104D01*
X110288084Y-110940167D01*
X110288773Y-110940100D01*
X110437144Y-110940100D01*
X110495335Y-110959007D01*
X110507147Y-110969096D01*
X110543137Y-111005085D01*
X110640159Y-111061101D01*
X110640157Y-111061101D01*
X110640161Y-111061102D01*
X110640163Y-111061103D01*
X110748382Y-111090100D01*
X110748384Y-111090100D01*
X110860416Y-111090100D01*
X110860418Y-111090100D01*
X110968637Y-111061103D01*
X110968639Y-111061101D01*
X110968641Y-111061101D01*
X111030478Y-111025399D01*
X111065663Y-111005085D01*
X111144885Y-110925863D01*
X111200903Y-110828837D01*
X111229900Y-110720618D01*
X111229900Y-110608582D01*
X111200903Y-110500363D01*
X111200901Y-110500360D01*
X111200901Y-110500358D01*
X111144886Y-110403339D01*
X111144885Y-110403337D01*
X111065663Y-110324115D01*
X111059736Y-110320693D01*
X110968640Y-110268098D01*
X110968642Y-110268098D01*
X110926651Y-110256847D01*
X110860418Y-110239100D01*
X110748382Y-110239100D01*
X110682148Y-110256847D01*
X110640158Y-110268098D01*
X110543137Y-110324114D01*
X110507147Y-110360104D01*
X110452630Y-110387881D01*
X110437144Y-110389100D01*
X110199900Y-110389100D01*
X110141709Y-110370193D01*
X110105745Y-110320693D01*
X110100900Y-110290100D01*
X110100900Y-110120253D01*
X110100898Y-110120241D01*
X110098111Y-110106231D01*
X110089267Y-110061769D01*
X110044952Y-109995448D01*
X110043854Y-109994714D01*
X109978633Y-109951134D01*
X109978631Y-109951133D01*
X109978628Y-109951132D01*
X109978627Y-109951132D01*
X109920158Y-109939501D01*
X109920148Y-109939500D01*
X107370652Y-109939500D01*
X107370651Y-109939500D01*
X107370641Y-109939501D01*
X107312172Y-109951132D01*
X107312166Y-109951134D01*
X107245851Y-109995445D01*
X107245845Y-109995451D01*
X107201534Y-110061766D01*
X107201532Y-110061772D01*
X107189901Y-110120241D01*
X107189900Y-110120253D01*
X106228500Y-110120253D01*
X106228500Y-101820982D01*
X106518500Y-101820982D01*
X106518500Y-101933018D01*
X106534067Y-101991115D01*
X106547498Y-102041241D01*
X106597502Y-102127848D01*
X106603515Y-102138263D01*
X106639505Y-102174253D01*
X106667281Y-102228768D01*
X106668500Y-102244255D01*
X106668500Y-106615144D01*
X106649593Y-106673335D01*
X106639504Y-106685147D01*
X106603514Y-106721137D01*
X106547498Y-106818158D01*
X106533887Y-106868958D01*
X106518500Y-106926382D01*
X106518500Y-107038418D01*
X106521962Y-107051337D01*
X106547498Y-107146641D01*
X106603513Y-107243660D01*
X106603515Y-107243663D01*
X106682737Y-107322885D01*
X106682739Y-107322886D01*
X106779759Y-107378901D01*
X106779757Y-107378901D01*
X106779761Y-107378902D01*
X106779763Y-107378903D01*
X106887982Y-107407900D01*
X106887984Y-107407900D01*
X107000016Y-107407900D01*
X107000018Y-107407900D01*
X107108237Y-107378903D01*
X107108239Y-107378901D01*
X107108241Y-107378901D01*
X107143245Y-107358691D01*
X107205263Y-107322885D01*
X107284485Y-107243663D01*
X107340503Y-107146637D01*
X107369500Y-107038418D01*
X107369500Y-106926382D01*
X107340503Y-106818163D01*
X107340501Y-106818160D01*
X107340501Y-106818158D01*
X107284485Y-106721137D01*
X107248496Y-106685147D01*
X107220719Y-106630630D01*
X107219500Y-106615144D01*
X107219500Y-106351065D01*
X107238407Y-106292874D01*
X107287907Y-106256910D01*
X107337814Y-106253968D01*
X107363599Y-106259097D01*
X107370646Y-106260499D01*
X107370649Y-106260499D01*
X107370652Y-106260500D01*
X108121110Y-106260500D01*
X108179301Y-106279407D01*
X108215265Y-106328907D01*
X108218219Y-106361093D01*
X108219900Y-106361093D01*
X108219900Y-106367582D01*
X108219900Y-106479618D01*
X108245472Y-106575055D01*
X108248898Y-106587841D01*
X108293352Y-106664836D01*
X108304915Y-106684863D01*
X108384137Y-106764085D01*
X108384139Y-106764086D01*
X108481159Y-106820101D01*
X108481157Y-106820101D01*
X108481161Y-106820102D01*
X108481163Y-106820103D01*
X108589382Y-106849100D01*
X108589384Y-106849100D01*
X108701416Y-106849100D01*
X108701418Y-106849100D01*
X108809637Y-106820103D01*
X108809639Y-106820101D01*
X108809641Y-106820101D01*
X108838464Y-106803459D01*
X108906663Y-106764085D01*
X108985885Y-106684863D01*
X109041903Y-106587837D01*
X109070900Y-106479618D01*
X109070900Y-106367582D01*
X109070900Y-106361093D01*
X109073640Y-106361093D01*
X109082679Y-106312276D01*
X109127054Y-106270151D01*
X109169690Y-106260500D01*
X109920147Y-106260500D01*
X109920148Y-106260500D01*
X109978631Y-106248867D01*
X110044952Y-106204552D01*
X110089267Y-106138231D01*
X110100900Y-106079748D01*
X110100900Y-105040252D01*
X110089267Y-104981769D01*
X110044952Y-104915448D01*
X110044948Y-104915445D01*
X109978633Y-104871134D01*
X109978631Y-104871133D01*
X109978628Y-104871132D01*
X109978627Y-104871132D01*
X109920158Y-104859501D01*
X109920148Y-104859500D01*
X107370652Y-104859500D01*
X107370651Y-104859500D01*
X107366489Y-104860328D01*
X107337814Y-104866031D01*
X107277053Y-104858840D01*
X107232123Y-104817308D01*
X107219500Y-104768934D01*
X107219500Y-102244255D01*
X107238407Y-102186064D01*
X107248490Y-102174257D01*
X107284485Y-102138263D01*
X107340503Y-102041237D01*
X107369500Y-101933018D01*
X107369500Y-101820982D01*
X107340503Y-101712763D01*
X107340501Y-101712760D01*
X107340501Y-101712758D01*
X107284486Y-101615739D01*
X107284485Y-101615737D01*
X107205263Y-101536515D01*
X107194800Y-101530474D01*
X107108240Y-101480498D01*
X107108242Y-101480498D01*
X107066251Y-101469247D01*
X107000018Y-101451500D01*
X106887982Y-101451500D01*
X106821748Y-101469247D01*
X106779758Y-101480498D01*
X106682739Y-101536513D01*
X106603513Y-101615739D01*
X106547498Y-101712758D01*
X106547497Y-101712763D01*
X106518500Y-101820982D01*
X106228500Y-101820982D01*
X106228500Y-99960253D01*
X107189900Y-99960253D01*
X107189900Y-100999746D01*
X107189901Y-100999758D01*
X107193553Y-101018115D01*
X107201533Y-101058231D01*
X107245848Y-101124552D01*
X107312169Y-101168867D01*
X107356631Y-101177711D01*
X107370641Y-101180498D01*
X107370646Y-101180498D01*
X107370652Y-101180500D01*
X108270900Y-101180500D01*
X108329091Y-101199407D01*
X108365055Y-101248907D01*
X108369900Y-101279500D01*
X108369900Y-102830544D01*
X108350993Y-102888735D01*
X108340904Y-102900547D01*
X108304914Y-102936537D01*
X108248898Y-103033558D01*
X108248897Y-103033563D01*
X108219900Y-103141782D01*
X108219900Y-103253818D01*
X108245472Y-103349255D01*
X108248898Y-103362041D01*
X108303444Y-103456515D01*
X108304915Y-103459063D01*
X108384137Y-103538285D01*
X108416479Y-103556957D01*
X108481159Y-103594301D01*
X108481157Y-103594301D01*
X108481161Y-103594302D01*
X108481163Y-103594303D01*
X108589382Y-103623300D01*
X108589384Y-103623300D01*
X108701416Y-103623300D01*
X108701418Y-103623300D01*
X108809637Y-103594303D01*
X108809639Y-103594301D01*
X108809641Y-103594301D01*
X108838464Y-103577659D01*
X108906663Y-103538285D01*
X108985885Y-103459063D01*
X109041903Y-103362037D01*
X109070900Y-103253818D01*
X109070900Y-103141782D01*
X109041903Y-103033563D01*
X109041901Y-103033560D01*
X109041901Y-103033558D01*
X108985885Y-102936537D01*
X108949896Y-102900547D01*
X108922119Y-102846030D01*
X108920900Y-102830544D01*
X108920900Y-102500253D01*
X109679100Y-102500253D01*
X109679100Y-103539746D01*
X109679101Y-103539758D01*
X109690732Y-103598227D01*
X109690734Y-103598233D01*
X109716860Y-103637332D01*
X109735048Y-103664552D01*
X109801369Y-103708867D01*
X109845831Y-103717711D01*
X109859841Y-103720498D01*
X109859846Y-103720498D01*
X109859852Y-103720500D01*
X110610310Y-103720500D01*
X110668501Y-103739407D01*
X110704465Y-103788907D01*
X110707419Y-103821093D01*
X110709100Y-103821093D01*
X110709100Y-103827582D01*
X110709100Y-103939618D01*
X110726174Y-104003339D01*
X110738098Y-104047841D01*
X110794113Y-104144860D01*
X110794115Y-104144863D01*
X110873337Y-104224085D01*
X110873339Y-104224086D01*
X110970359Y-104280101D01*
X110970357Y-104280101D01*
X110970361Y-104280102D01*
X110970363Y-104280103D01*
X111078582Y-104309100D01*
X111078584Y-104309100D01*
X111190616Y-104309100D01*
X111190618Y-104309100D01*
X111298837Y-104280103D01*
X111298839Y-104280101D01*
X111298841Y-104280101D01*
X111347021Y-104252284D01*
X111395863Y-104224085D01*
X111475085Y-104144863D01*
X111514459Y-104076664D01*
X111531101Y-104047841D01*
X111531101Y-104047839D01*
X111531103Y-104047837D01*
X111560100Y-103939618D01*
X111560100Y-103827582D01*
X111560100Y-103821093D01*
X111562840Y-103821093D01*
X111571879Y-103772276D01*
X111616254Y-103730151D01*
X111658890Y-103720500D01*
X112409347Y-103720500D01*
X112409348Y-103720500D01*
X112467831Y-103708867D01*
X112534152Y-103664552D01*
X112578467Y-103598231D01*
X112590100Y-103539748D01*
X112590100Y-102500252D01*
X112578467Y-102441769D01*
X112534152Y-102375448D01*
X112534148Y-102375445D01*
X112467833Y-102331134D01*
X112467831Y-102331133D01*
X112467828Y-102331132D01*
X112467827Y-102331132D01*
X112409358Y-102319501D01*
X112409348Y-102319500D01*
X109859852Y-102319500D01*
X109859851Y-102319500D01*
X109859841Y-102319501D01*
X109801372Y-102331132D01*
X109801366Y-102331134D01*
X109735051Y-102375445D01*
X109735045Y-102375451D01*
X109690734Y-102441766D01*
X109690732Y-102441772D01*
X109679101Y-102500241D01*
X109679100Y-102500253D01*
X108920900Y-102500253D01*
X108920900Y-101279500D01*
X108939807Y-101221309D01*
X108989307Y-101185345D01*
X109019900Y-101180500D01*
X109920147Y-101180500D01*
X109920148Y-101180500D01*
X109978631Y-101168867D01*
X110044952Y-101124552D01*
X110089267Y-101058231D01*
X110100900Y-100999748D01*
X110100900Y-99960252D01*
X110089267Y-99901769D01*
X110044952Y-99835448D01*
X110044948Y-99835445D01*
X109978633Y-99791134D01*
X109978631Y-99791133D01*
X109978628Y-99791132D01*
X109978627Y-99791132D01*
X109920158Y-99779501D01*
X109920148Y-99779500D01*
X107370652Y-99779500D01*
X107370651Y-99779500D01*
X107370641Y-99779501D01*
X107312172Y-99791132D01*
X107312166Y-99791134D01*
X107245851Y-99835445D01*
X107245845Y-99835451D01*
X107201534Y-99901766D01*
X107201532Y-99901772D01*
X107189901Y-99960241D01*
X107189900Y-99960253D01*
X106228500Y-99960253D01*
X106228500Y-99085122D01*
X106189289Y-98990459D01*
X106186557Y-98983864D01*
X106186557Y-98983863D01*
X106061094Y-98858400D01*
X105825696Y-98623001D01*
X105797919Y-98568485D01*
X105796700Y-98552998D01*
X105796700Y-96285000D01*
X105757888Y-96191301D01*
X105757885Y-96191294D01*
X105754757Y-96183742D01*
X105754757Y-96183741D01*
X104666505Y-95095490D01*
X104640884Y-95051111D01*
X104622303Y-94981763D01*
X104566285Y-94884737D01*
X104487063Y-94805515D01*
X104487060Y-94805513D01*
X104390040Y-94749498D01*
X104390042Y-94749498D01*
X104346917Y-94737943D01*
X104281818Y-94720500D01*
X104169782Y-94720500D01*
X104104683Y-94737943D01*
X104061558Y-94749498D01*
X103964539Y-94805513D01*
X103885313Y-94884739D01*
X103829298Y-94981758D01*
X103824548Y-94999485D01*
X103800300Y-95089982D01*
X103800300Y-95202018D01*
X103817374Y-95265739D01*
X103829298Y-95310241D01*
X103885313Y-95407260D01*
X103885315Y-95407263D01*
X103901102Y-95423050D01*
X103928878Y-95477565D01*
X103919307Y-95537997D01*
X103880598Y-95578788D01*
X103812138Y-95618314D01*
X103732913Y-95697539D01*
X103676898Y-95794558D01*
X103660686Y-95855063D01*
X103647900Y-95902782D01*
X101100500Y-95902782D01*
X101100500Y-84625182D01*
X103012900Y-84625182D01*
X103012900Y-84737218D01*
X103038472Y-84832655D01*
X103041898Y-84845441D01*
X103097913Y-84942460D01*
X103097915Y-84942463D01*
X103177137Y-85021685D01*
X103177139Y-85021686D01*
X103274159Y-85077701D01*
X103274157Y-85077701D01*
X103274161Y-85077702D01*
X103274163Y-85077703D01*
X103382382Y-85106700D01*
X103382384Y-85106700D01*
X103494416Y-85106700D01*
X103494418Y-85106700D01*
X103602637Y-85077703D01*
X103602639Y-85077701D01*
X103602641Y-85077701D01*
X103656339Y-85046698D01*
X103699663Y-85021685D01*
X103778885Y-84942463D01*
X103834903Y-84845437D01*
X103863900Y-84737218D01*
X103863900Y-84625182D01*
X103834903Y-84516963D01*
X103834901Y-84516960D01*
X103834901Y-84516958D01*
X103778885Y-84419937D01*
X103742896Y-84383947D01*
X103715119Y-84329430D01*
X103713900Y-84313944D01*
X103713900Y-81178723D01*
X103732807Y-81120532D01*
X103742896Y-81108719D01*
X106927120Y-77924496D01*
X106981637Y-77896719D01*
X106997124Y-77895500D01*
X109580100Y-77895500D01*
X109638291Y-77914407D01*
X109674255Y-77963907D01*
X109679100Y-77994500D01*
X109679100Y-78139746D01*
X109679101Y-78139758D01*
X109690732Y-78198227D01*
X109690733Y-78198231D01*
X109735048Y-78264552D01*
X109801369Y-78308867D01*
X109845831Y-78317711D01*
X109859841Y-78320498D01*
X109859846Y-78320498D01*
X109859852Y-78320500D01*
X109859853Y-78320500D01*
X112409347Y-78320500D01*
X112409348Y-78320500D01*
X112467831Y-78308867D01*
X112534152Y-78264552D01*
X112578467Y-78198231D01*
X112590100Y-78139748D01*
X112590100Y-77100252D01*
X112578467Y-77041769D01*
X112534152Y-76975448D01*
X112534148Y-76975445D01*
X112467833Y-76931134D01*
X112467831Y-76931133D01*
X112467828Y-76931132D01*
X112467827Y-76931132D01*
X112409358Y-76919501D01*
X112409348Y-76919500D01*
X109859852Y-76919500D01*
X109859851Y-76919500D01*
X109859841Y-76919501D01*
X109801372Y-76931132D01*
X109801366Y-76931134D01*
X109735051Y-76975445D01*
X109735045Y-76975451D01*
X109690734Y-77041766D01*
X109690732Y-77041772D01*
X109679101Y-77100241D01*
X109679100Y-77100253D01*
X109679100Y-77245500D01*
X109660193Y-77303691D01*
X109610693Y-77339655D01*
X109580100Y-77344500D01*
X106787199Y-77344500D01*
X106715599Y-77374157D01*
X106715599Y-77374158D01*
X106685948Y-77386440D01*
X106685941Y-77386443D01*
X103282342Y-80790043D01*
X103282341Y-80790042D01*
X103204846Y-80867538D01*
X103204844Y-80867540D01*
X103204843Y-80867542D01*
X103204843Y-80867543D01*
X103162900Y-80968800D01*
X103162900Y-84313944D01*
X103143993Y-84372135D01*
X103133904Y-84383947D01*
X103097914Y-84419937D01*
X103041898Y-84516958D01*
X103032741Y-84551133D01*
X103012900Y-84625182D01*
X101100500Y-84625182D01*
X101100500Y-74210299D01*
X108840000Y-74210299D01*
X108840000Y-74879999D01*
X108840001Y-74880000D01*
X109428120Y-74880000D01*
X109424075Y-74887007D01*
X109390000Y-75014174D01*
X109390000Y-75145826D01*
X109424075Y-75272993D01*
X109428120Y-75280000D01*
X108840001Y-75280000D01*
X108840000Y-75280001D01*
X108840000Y-75949700D01*
X108851603Y-76008036D01*
X108895806Y-76074189D01*
X108895810Y-76074193D01*
X108961963Y-76118396D01*
X109020299Y-76129999D01*
X109020303Y-76130000D01*
X109689999Y-76130000D01*
X109690000Y-76129999D01*
X109690000Y-75541879D01*
X109697007Y-75545925D01*
X109824174Y-75580000D01*
X109955826Y-75580000D01*
X110082993Y-75545925D01*
X110090000Y-75541879D01*
X110090000Y-76129999D01*
X110090001Y-76130000D01*
X110759697Y-76130000D01*
X110759700Y-76129999D01*
X110818036Y-76118396D01*
X110884189Y-76074193D01*
X110884193Y-76074189D01*
X110928396Y-76008036D01*
X110939999Y-75949700D01*
X110940000Y-75949697D01*
X110940000Y-75280001D01*
X110939999Y-75280000D01*
X110351880Y-75280000D01*
X110355925Y-75272993D01*
X110390000Y-75145826D01*
X110390000Y-75014174D01*
X110355925Y-74887007D01*
X110351880Y-74880000D01*
X110939999Y-74880000D01*
X110940000Y-74879999D01*
X110940000Y-74210302D01*
X110939999Y-74210299D01*
X116460000Y-74210299D01*
X116460000Y-74879999D01*
X116460001Y-74880000D01*
X117048120Y-74880000D01*
X117044075Y-74887007D01*
X117010000Y-75014174D01*
X117010000Y-75145826D01*
X117044075Y-75272993D01*
X117048120Y-75280000D01*
X116460001Y-75280000D01*
X116460000Y-75280001D01*
X116460000Y-75949700D01*
X116471603Y-76008036D01*
X116515806Y-76074189D01*
X116515810Y-76074193D01*
X116581963Y-76118396D01*
X116640299Y-76129999D01*
X116640303Y-76130000D01*
X117309999Y-76130000D01*
X117310000Y-76129999D01*
X117310000Y-75541879D01*
X117317007Y-75545925D01*
X117444174Y-75580000D01*
X117575826Y-75580000D01*
X117702993Y-75545925D01*
X117710000Y-75541879D01*
X117710000Y-76129999D01*
X117710001Y-76130000D01*
X118379697Y-76130000D01*
X118379700Y-76129999D01*
X118438036Y-76118396D01*
X118504189Y-76074193D01*
X118504193Y-76074189D01*
X118548396Y-76008036D01*
X118559999Y-75949700D01*
X118560000Y-75949697D01*
X118560000Y-75280001D01*
X118559999Y-75280000D01*
X117971880Y-75280000D01*
X117975925Y-75272993D01*
X118010000Y-75145826D01*
X118010000Y-75014174D01*
X117975925Y-74887007D01*
X117971880Y-74880000D01*
X118559999Y-74880000D01*
X118560000Y-74879999D01*
X118560000Y-74210302D01*
X118559999Y-74210299D01*
X118548396Y-74151963D01*
X118504193Y-74085810D01*
X118504189Y-74085806D01*
X118438036Y-74041603D01*
X118379700Y-74030000D01*
X117710001Y-74030000D01*
X117710000Y-74030001D01*
X117710000Y-74618120D01*
X117702993Y-74614075D01*
X117575826Y-74580000D01*
X117444174Y-74580000D01*
X117317007Y-74614075D01*
X117310000Y-74618120D01*
X117310000Y-74030001D01*
X117309999Y-74030000D01*
X116640299Y-74030000D01*
X116581963Y-74041603D01*
X116515810Y-74085806D01*
X116515806Y-74085810D01*
X116471603Y-74151963D01*
X116460000Y-74210299D01*
X110939999Y-74210299D01*
X110928396Y-74151963D01*
X110884193Y-74085810D01*
X110884189Y-74085806D01*
X110818036Y-74041603D01*
X110759700Y-74030000D01*
X110090001Y-74030000D01*
X110090000Y-74030001D01*
X110090000Y-74618120D01*
X110082993Y-74614075D01*
X109955826Y-74580000D01*
X109824174Y-74580000D01*
X109697007Y-74614075D01*
X109690000Y-74618120D01*
X109690000Y-74030001D01*
X109689999Y-74030000D01*
X109020299Y-74030000D01*
X108961963Y-74041603D01*
X108895810Y-74085806D01*
X108895806Y-74085810D01*
X108851603Y-74151963D01*
X108840000Y-74210299D01*
X101100500Y-74210299D01*
X101100500Y-71274318D01*
X101100877Y-71265690D01*
X101104035Y-71229593D01*
X101117512Y-71075540D01*
X101120505Y-71058564D01*
X101168790Y-70878360D01*
X101174686Y-70862163D01*
X101253526Y-70693091D01*
X101262146Y-70678161D01*
X101369145Y-70525351D01*
X101380226Y-70512144D01*
X101512144Y-70380226D01*
X101525351Y-70369145D01*
X101678161Y-70262146D01*
X101693091Y-70253526D01*
X101862163Y-70174686D01*
X101878360Y-70168790D01*
X102058564Y-70120505D01*
X102075540Y-70117512D01*
X102265691Y-70100877D01*
X102274319Y-70100500D01*
X102296929Y-70100500D01*
X125103071Y-70100500D01*
X125125681Y-70100500D01*
X125134309Y-70100877D01*
G37*
G04 #@! TD.AperFunction*
M02*
