G04 #@! TF.GenerationSoftware,KiCad,Pcbnew,8.0.4+dfsg-1*
G04 #@! TF.CreationDate,2024-12-10T16:40:34+09:00*
G04 #@! TF.ProjectId,bionic-mc6802,62696f6e-6963-42d6-9d63-363830322e6b,5*
G04 #@! TF.SameCoordinates,Original*
G04 #@! TF.FileFunction,Copper,L1,Top*
G04 #@! TF.FilePolarity,Positive*
%FSLAX46Y46*%
G04 Gerber Fmt 4.6, Leading zero omitted, Abs format (unit mm)*
G04 Created by KiCad (PCBNEW 8.0.4+dfsg-1) date 2024-12-10 16:40:34*
%MOMM*%
%LPD*%
G01*
G04 APERTURE LIST*
G04 Aperture macros list*
%AMRoundRect*
0 Rectangle with rounded corners*
0 $1 Rounding radius*
0 $2 $3 $4 $5 $6 $7 $8 $9 X,Y pos of 4 corners*
0 Add a 4 corners polygon primitive as box body*
4,1,4,$2,$3,$4,$5,$6,$7,$8,$9,$2,$3,0*
0 Add four circle primitives for the rounded corners*
1,1,$1+$1,$2,$3*
1,1,$1+$1,$4,$5*
1,1,$1+$1,$6,$7*
1,1,$1+$1,$8,$9*
0 Add four rect primitives between the rounded corners*
20,1,$1+$1,$2,$3,$4,$5,0*
20,1,$1+$1,$4,$5,$6,$7,0*
20,1,$1+$1,$6,$7,$8,$9,0*
20,1,$1+$1,$8,$9,$2,$3,0*%
%AMFreePoly0*
4,1,19,0.500000,-0.750000,0.000000,-0.750000,0.000000,-0.744911,-0.071157,-0.744911,-0.207708,-0.704816,-0.327430,-0.627875,-0.420627,-0.520320,-0.479746,-0.390866,-0.500000,-0.250000,-0.500000,0.250000,-0.479746,0.390866,-0.420627,0.520320,-0.327430,0.627875,-0.207708,0.704816,-0.071157,0.744911,0.000000,0.744911,0.000000,0.750000,0.500000,0.750000,0.500000,-0.750000,0.500000,-0.750000,
$1*%
%AMFreePoly1*
4,1,19,0.000000,0.744911,0.071157,0.744911,0.207708,0.704816,0.327430,0.627875,0.420627,0.520320,0.479746,0.390866,0.500000,0.250000,0.500000,-0.250000,0.479746,-0.390866,0.420627,-0.520320,0.327430,-0.627875,0.207708,-0.704816,0.071157,-0.744911,0.000000,-0.744911,0.000000,-0.750000,-0.500000,-0.750000,-0.500000,0.750000,0.000000,0.750000,0.000000,0.744911,0.000000,0.744911,
$1*%
G04 Aperture macros list end*
G04 #@! TA.AperFunction,ComponentPad*
%ADD10R,1.600000X1.600000*%
G04 #@! TD*
G04 #@! TA.AperFunction,ComponentPad*
%ADD11O,1.600000X1.600000*%
G04 #@! TD*
G04 #@! TA.AperFunction,SMDPad,CuDef*
%ADD12RoundRect,0.237500X0.237500X-0.300000X0.237500X0.300000X-0.237500X0.300000X-0.237500X-0.300000X0*%
G04 #@! TD*
G04 #@! TA.AperFunction,SMDPad,CuDef*
%ADD13R,0.660400X1.625600*%
G04 #@! TD*
G04 #@! TA.AperFunction,SMDPad,CuDef*
%ADD14RoundRect,0.237500X-0.250000X-0.237500X0.250000X-0.237500X0.250000X0.237500X-0.250000X0.237500X0*%
G04 #@! TD*
G04 #@! TA.AperFunction,SMDPad,CuDef*
%ADD15FreePoly0,90.000000*%
G04 #@! TD*
G04 #@! TA.AperFunction,SMDPad,CuDef*
%ADD16FreePoly1,90.000000*%
G04 #@! TD*
G04 #@! TA.AperFunction,SMDPad,CuDef*
%ADD17R,0.965200X0.762000*%
G04 #@! TD*
G04 #@! TA.AperFunction,ComponentPad*
%ADD18O,1.700000X1.700000*%
G04 #@! TD*
G04 #@! TA.AperFunction,ComponentPad*
%ADD19R,1.700000X1.700000*%
G04 #@! TD*
G04 #@! TA.AperFunction,ViaPad*
%ADD20C,0.600000*%
G04 #@! TD*
G04 #@! TA.AperFunction,Conductor*
%ADD21C,0.600000*%
G04 #@! TD*
G04 #@! TA.AperFunction,Conductor*
%ADD22C,0.200000*%
G04 #@! TD*
G04 #@! TA.AperFunction,Conductor*
%ADD23C,0.800000*%
G04 #@! TD*
G04 APERTURE END LIST*
D10*
X106080000Y-75080000D03*
D11*
X106080000Y-77620000D03*
X106080000Y-80160000D03*
X106080000Y-82700000D03*
X106080000Y-85240000D03*
X106080000Y-87780000D03*
X106080000Y-90320000D03*
X106080000Y-92860000D03*
X106080000Y-95400000D03*
X106080000Y-97940000D03*
X106080000Y-100480000D03*
X106080000Y-103020000D03*
X106080000Y-105560000D03*
X106080000Y-108100000D03*
X106080000Y-110640000D03*
X106080000Y-113180000D03*
X106080000Y-115720000D03*
X106080000Y-118260000D03*
X106080000Y-120800000D03*
X106080000Y-123340000D03*
X121320000Y-123340000D03*
X121320000Y-120800000D03*
X121320000Y-118260000D03*
X121320000Y-115720000D03*
X121320000Y-113180000D03*
X121320000Y-110640000D03*
X121320000Y-108100000D03*
X121320000Y-105560000D03*
X121320000Y-103020000D03*
X121320000Y-100480000D03*
X121320000Y-97940000D03*
X121320000Y-95400000D03*
X121320000Y-92860000D03*
X121320000Y-90320000D03*
X121320000Y-87780000D03*
X121320000Y-85240000D03*
X121320000Y-82700000D03*
X121320000Y-80160000D03*
X121320000Y-77620000D03*
X121320000Y-75080000D03*
D12*
X103489200Y-92860000D03*
X103489200Y-91135000D03*
D13*
X114650001Y-128674000D03*
X112749999Y-128674000D03*
X113700000Y-130806000D03*
D14*
X116597500Y-71778000D03*
X118422500Y-71778000D03*
D15*
X124622000Y-85240000D03*
D16*
X124622000Y-83940000D03*
D17*
X114576300Y-71778000D03*
X112823700Y-71778000D03*
D18*
X117510000Y-133500000D03*
X117510000Y-130960000D03*
X117510000Y-128420000D03*
X117510000Y-125880000D03*
X117510000Y-123340000D03*
X117510000Y-120800000D03*
X117510000Y-118260000D03*
X117510000Y-115720000D03*
X117510000Y-113180000D03*
X117510000Y-110640000D03*
X117510000Y-108100000D03*
X117510000Y-105560000D03*
X117510000Y-103020000D03*
X117510000Y-100480000D03*
X117510000Y-97940000D03*
X117510000Y-95400000D03*
X117510000Y-92860000D03*
X117510000Y-90320000D03*
X117510000Y-87780000D03*
X117510000Y-85240000D03*
X117510000Y-82700000D03*
X117510000Y-80160000D03*
X117510000Y-77620000D03*
D19*
X117510000Y-75080000D03*
X109890000Y-75080000D03*
D18*
X109890000Y-77620000D03*
X109890000Y-80160000D03*
X109890000Y-82700000D03*
X109890000Y-85240000D03*
X109890000Y-87780000D03*
X109890000Y-90320000D03*
X109890000Y-92860000D03*
X109890000Y-95400000D03*
X109890000Y-97940000D03*
X109890000Y-100480000D03*
X109890000Y-103020000D03*
X109890000Y-105560000D03*
X109890000Y-108100000D03*
X109890000Y-110640000D03*
X109890000Y-113180000D03*
X109890000Y-115720000D03*
X109890000Y-118260000D03*
X109890000Y-120800000D03*
X109890000Y-123340000D03*
X109890000Y-125880000D03*
X109890000Y-128420000D03*
X109890000Y-130960000D03*
X109890000Y-133500000D03*
D20*
X109890000Y-71778000D03*
X103413000Y-89304000D03*
X111922000Y-96670000D03*
X106080000Y-128420000D03*
X121574000Y-130960000D03*
X101635000Y-95908000D03*
X115478000Y-104036000D03*
X114970000Y-89050000D03*
X114081000Y-113815000D03*
X113700000Y-122578000D03*
X102397000Y-71397000D03*
X103540000Y-133119000D03*
X113700000Y-132357000D03*
X114335000Y-85875000D03*
X124241000Y-72286000D03*
X113446000Y-109624000D03*
X123825000Y-77874000D03*
D21*
X103487000Y-92860000D02*
X102651000Y-93696000D01*
D22*
X102397000Y-93442000D02*
X102397000Y-74191000D01*
X102397000Y-74191000D02*
X104810000Y-71778000D01*
X103540000Y-92843000D02*
X103540000Y-92706500D01*
D21*
X108687919Y-133500000D02*
X109890000Y-133500000D01*
D22*
X112749999Y-128674000D02*
X112749999Y-133438999D01*
D23*
X103489200Y-92860000D02*
X103487000Y-92860000D01*
D22*
X102651000Y-93696000D02*
X102397000Y-93442000D01*
D21*
X117510000Y-133500000D02*
X109890000Y-133500000D01*
X102651000Y-127463081D02*
X108687919Y-133500000D01*
X102651000Y-93696000D02*
X102651000Y-127463081D01*
D22*
X104810000Y-71778000D02*
X112823700Y-71778000D01*
X103557000Y-92860000D02*
X103540000Y-92843000D01*
D21*
X106080000Y-92860000D02*
X103489200Y-92860000D01*
D22*
X123825000Y-77874000D02*
X123825000Y-77585000D01*
X123825000Y-77585000D02*
X121320000Y-75080000D01*
X110525000Y-104290000D02*
X111522000Y-103293000D01*
X109255000Y-104290000D02*
X110525000Y-104290000D01*
X108366000Y-105179000D02*
X109255000Y-104290000D01*
X111522000Y-101318686D02*
X115205000Y-97635686D01*
X107477000Y-109243000D02*
X107477000Y-107465000D01*
X115205000Y-95165000D02*
X117510000Y-92860000D01*
X106080000Y-110640000D02*
X107477000Y-109243000D01*
X108366000Y-106576000D02*
X108366000Y-105179000D01*
X115205000Y-97635686D02*
X115205000Y-95165000D01*
X107477000Y-107465000D02*
X108366000Y-106576000D01*
X111522000Y-103293000D02*
X111522000Y-101318686D01*
X111922000Y-101484371D02*
X115605000Y-97801371D01*
X115605000Y-97305000D02*
X117510000Y-95400000D01*
X109255000Y-106830000D02*
X110652000Y-106830000D01*
X107877000Y-109478000D02*
X107877000Y-108208000D01*
X107477000Y-109878000D02*
X107877000Y-109478000D01*
X107877000Y-108208000D02*
X109255000Y-106830000D01*
X115605000Y-97801371D02*
X115605000Y-97305000D01*
X107477000Y-111783000D02*
X107477000Y-109878000D01*
X110652000Y-106830000D02*
X111922000Y-105560000D01*
X111922000Y-105560000D02*
X111922000Y-101484371D01*
X106080000Y-113180000D02*
X107477000Y-111783000D01*
X123498000Y-88180000D02*
X121828000Y-86510000D01*
X117510000Y-118260000D02*
X118399000Y-118260000D01*
X120812000Y-86510000D02*
X119796000Y-85494000D01*
X121847000Y-116971000D02*
X123498000Y-115320000D01*
X123498000Y-115320000D02*
X123498000Y-88180000D01*
X119796000Y-85494000D02*
X119796000Y-84224000D01*
X119796000Y-84224000D02*
X121320000Y-82700000D01*
X118399000Y-118260000D02*
X119688000Y-116971000D01*
X119688000Y-116971000D02*
X121847000Y-116971000D01*
X121828000Y-86510000D02*
X120812000Y-86510000D01*
X120748500Y-114513500D02*
X119542000Y-115720000D01*
X120177000Y-89050000D02*
X121809000Y-89050000D01*
X120558000Y-77620000D02*
X119288000Y-78890000D01*
X121764500Y-114513500D02*
X120748500Y-114513500D01*
X121809000Y-89050000D02*
X123098000Y-90339000D01*
X123098000Y-113180000D02*
X121764500Y-114513500D01*
X119288000Y-78890000D02*
X119288000Y-88161000D01*
X119288000Y-88161000D02*
X120177000Y-89050000D01*
X119542000Y-115720000D02*
X117510000Y-115720000D01*
X121320000Y-77620000D02*
X120558000Y-77620000D01*
X123098000Y-90339000D02*
X123098000Y-113180000D01*
X106080000Y-108100000D02*
X107877000Y-106303000D01*
X107877000Y-106303000D02*
X107877000Y-103128000D01*
X107877000Y-103128000D02*
X109255000Y-101750000D01*
X110525000Y-101750000D02*
X114805000Y-97470000D01*
X114805000Y-93025000D02*
X117510000Y-90320000D01*
X109255000Y-101750000D02*
X110525000Y-101750000D01*
X114805000Y-97470000D02*
X114805000Y-93025000D01*
X109128000Y-99210000D02*
X108239000Y-100099000D01*
X107477000Y-104163000D02*
X106080000Y-105560000D01*
X107477000Y-102385000D02*
X107477000Y-104163000D01*
X108239000Y-100099000D02*
X108239000Y-101623000D01*
X114405000Y-90885000D02*
X114405000Y-97304314D01*
X117510000Y-87780000D02*
X114405000Y-90885000D01*
X112499314Y-99210000D02*
X109128000Y-99210000D01*
X108239000Y-101623000D02*
X107477000Y-102385000D01*
X114405000Y-97304314D02*
X112499314Y-99210000D01*
X107477000Y-101623000D02*
X107477000Y-100099000D01*
X110398000Y-96670000D02*
X112741000Y-94327000D01*
X108366000Y-97686000D02*
X109382000Y-96670000D01*
X112741000Y-90009000D02*
X117510000Y-85240000D01*
X108366000Y-99210000D02*
X108366000Y-97686000D01*
X106080000Y-103020000D02*
X107477000Y-101623000D01*
X107477000Y-100099000D02*
X108366000Y-99210000D01*
X112741000Y-94327000D02*
X112741000Y-90009000D01*
X109382000Y-96670000D02*
X110398000Y-96670000D01*
X113700000Y-82700000D02*
X117510000Y-82700000D01*
X110398000Y-94130000D02*
X112341000Y-92187000D01*
X107966000Y-98594000D02*
X107966000Y-95482500D01*
X112341000Y-92187000D02*
X112341000Y-84059000D01*
X112341000Y-84059000D02*
X113700000Y-82700000D01*
X107966000Y-95482500D02*
X109318500Y-94130000D01*
X106080000Y-100480000D02*
X107966000Y-98594000D01*
X109318500Y-94130000D02*
X110398000Y-94130000D01*
X109128000Y-91590000D02*
X108429500Y-92288500D01*
X111941000Y-83754686D02*
X111941000Y-90047000D01*
X117510000Y-80160000D02*
X115535686Y-80160000D01*
X108429500Y-93939500D02*
X107477000Y-94892000D01*
X110398000Y-91590000D02*
X109128000Y-91590000D01*
X108429500Y-92288500D02*
X108429500Y-93939500D01*
X111941000Y-90047000D02*
X110398000Y-91590000D01*
X107477000Y-94892000D02*
X107477000Y-96543000D01*
X107477000Y-96543000D02*
X106080000Y-97940000D01*
X115535686Y-80160000D02*
X111941000Y-83754686D01*
X110652000Y-89050000D02*
X111541000Y-88161000D01*
X107858000Y-93622000D02*
X107858000Y-90485654D01*
X111541000Y-88161000D02*
X111541000Y-83589000D01*
X106080000Y-95400000D02*
X107858000Y-93622000D01*
X111541000Y-83589000D02*
X117510000Y-77620000D01*
X107858000Y-90485654D02*
X109293654Y-89050000D01*
X109293654Y-89050000D02*
X110652000Y-89050000D01*
X118018000Y-119530000D02*
X119288000Y-118260000D01*
X109890000Y-113180000D02*
X116240000Y-119530000D01*
X116240000Y-119530000D02*
X118018000Y-119530000D01*
X119288000Y-118260000D02*
X121320000Y-118260000D01*
X121320000Y-90320000D02*
X119415000Y-92225000D01*
X119415000Y-92225000D02*
X119415000Y-101115000D01*
X119415000Y-101115000D02*
X117510000Y-103020000D01*
X116597500Y-71778000D02*
X114576300Y-71778000D01*
X107985000Y-121435000D02*
X106080000Y-123340000D01*
X109890000Y-108100000D02*
X107985000Y-110005000D01*
X107985000Y-110005000D02*
X107985000Y-121435000D01*
X107458000Y-93260000D02*
X107458000Y-89158000D01*
X106588000Y-125880000D02*
X104352800Y-123644800D01*
X104352800Y-123644800D02*
X104352800Y-95349200D01*
X109890000Y-125880000D02*
X106588000Y-125880000D01*
X105572000Y-94130000D02*
X106588000Y-94130000D01*
X107458000Y-89158000D02*
X106080000Y-87780000D01*
X106588000Y-94130000D02*
X107458000Y-93260000D01*
X104352800Y-95349200D02*
X105572000Y-94130000D01*
X116113000Y-130960000D02*
X117510000Y-130960000D01*
X114650001Y-129497001D02*
X116113000Y-130960000D01*
X114650001Y-129082000D02*
X114650001Y-129497001D01*
X124622000Y-85240000D02*
X124622000Y-87399000D01*
X121828000Y-122070000D02*
X119542000Y-122070000D01*
X118272000Y-123340000D02*
X117510000Y-123340000D01*
X119542000Y-122070000D02*
X118272000Y-123340000D01*
X123898000Y-120000000D02*
X121828000Y-122070000D01*
X121320000Y-85240000D02*
X125130000Y-85240000D01*
X124622000Y-87399000D02*
X123898000Y-88123000D01*
X123898000Y-88123000D02*
X123898000Y-120000000D01*
G04 #@! TA.AperFunction,Conductor*
G36*
X120486778Y-78354356D02*
G01*
X120508528Y-78369403D01*
X120653959Y-78501981D01*
X120827363Y-78609348D01*
X121017544Y-78683024D01*
X121055418Y-78690103D01*
X121109141Y-78719380D01*
X121135398Y-78774645D01*
X121124156Y-78834789D01*
X121079709Y-78876838D01*
X121062848Y-78883044D01*
X120873676Y-78933733D01*
X120667518Y-79029865D01*
X120481188Y-79160334D01*
X120320334Y-79321188D01*
X120189865Y-79507518D01*
X120093733Y-79713676D01*
X120041128Y-79910000D01*
X121004314Y-79910000D01*
X120999920Y-79914394D01*
X120947259Y-80005606D01*
X120920000Y-80107339D01*
X120920000Y-80212661D01*
X120947259Y-80314394D01*
X120999920Y-80405606D01*
X121004314Y-80410000D01*
X120041128Y-80410000D01*
X120093733Y-80606323D01*
X120189865Y-80812481D01*
X120320334Y-80998811D01*
X120481188Y-81159665D01*
X120667518Y-81290134D01*
X120873675Y-81386266D01*
X121062848Y-81436955D01*
X121114162Y-81470279D01*
X121136089Y-81527401D01*
X121120254Y-81586501D01*
X121072704Y-81625006D01*
X121055417Y-81629896D01*
X121017545Y-81636975D01*
X120943393Y-81665702D01*
X120827363Y-81710652D01*
X120718676Y-81777948D01*
X120653959Y-81818019D01*
X120503237Y-81955420D01*
X120380328Y-82118177D01*
X120380323Y-82118186D01*
X120298450Y-82282611D01*
X120289418Y-82300750D01*
X120233603Y-82496917D01*
X120214785Y-82700000D01*
X120233603Y-82903083D01*
X120236229Y-82912311D01*
X120287880Y-83093845D01*
X120285619Y-83154989D01*
X120262663Y-83190941D01*
X119857504Y-83596101D01*
X119802987Y-83623879D01*
X119742555Y-83614308D01*
X119699290Y-83571043D01*
X119688500Y-83526098D01*
X119688500Y-79096900D01*
X119707407Y-79038709D01*
X119717490Y-79026902D01*
X120371831Y-78372560D01*
X120426346Y-78344785D01*
X120486778Y-78354356D01*
G37*
G04 #@! TD.AperFunction*
G04 #@! TA.AperFunction,Conductor*
G36*
X125133875Y-70075805D02*
G01*
X125309097Y-70089594D01*
X125324430Y-70092023D01*
X125491550Y-70132145D01*
X125506317Y-70136943D01*
X125665104Y-70202715D01*
X125678926Y-70209758D01*
X125825469Y-70299560D01*
X125838032Y-70308688D01*
X125968717Y-70420303D01*
X125979699Y-70431285D01*
X126091311Y-70561967D01*
X126100440Y-70574532D01*
X126190238Y-70721068D01*
X126197287Y-70734902D01*
X126263054Y-70893678D01*
X126267855Y-70908453D01*
X126307975Y-71075564D01*
X126310405Y-71090907D01*
X126318437Y-71192956D01*
X126323198Y-71253462D01*
X126324195Y-71266123D01*
X126324500Y-71273891D01*
X126324500Y-137306108D01*
X126324195Y-137313876D01*
X126310405Y-137489092D01*
X126307975Y-137504435D01*
X126267855Y-137671546D01*
X126263054Y-137686321D01*
X126197287Y-137845097D01*
X126190234Y-137858939D01*
X126100442Y-138005465D01*
X126091311Y-138018032D01*
X125979699Y-138148714D01*
X125968714Y-138159699D01*
X125838032Y-138271311D01*
X125825465Y-138280442D01*
X125678939Y-138370234D01*
X125665097Y-138377287D01*
X125506321Y-138443054D01*
X125491546Y-138447855D01*
X125324435Y-138487975D01*
X125309092Y-138490405D01*
X125149743Y-138502946D01*
X125133874Y-138504195D01*
X125126108Y-138504500D01*
X102273892Y-138504500D01*
X102266125Y-138504195D01*
X102247014Y-138502691D01*
X102090907Y-138490405D01*
X102075564Y-138487975D01*
X101908453Y-138447855D01*
X101893678Y-138443054D01*
X101734902Y-138377287D01*
X101721068Y-138370238D01*
X101574532Y-138280440D01*
X101561967Y-138271311D01*
X101462706Y-138186535D01*
X101431282Y-138159696D01*
X101420303Y-138148717D01*
X101308688Y-138018032D01*
X101299560Y-138005469D01*
X101209758Y-137858926D01*
X101202715Y-137845104D01*
X101136943Y-137686317D01*
X101132144Y-137671546D01*
X101092024Y-137504435D01*
X101089594Y-137489097D01*
X101075805Y-137313875D01*
X101075500Y-137306108D01*
X101075500Y-74138273D01*
X101996500Y-74138273D01*
X101996500Y-93389273D01*
X101996500Y-93494727D01*
X102009703Y-93544002D01*
X102023794Y-93596591D01*
X102037234Y-93619868D01*
X102050499Y-93669370D01*
X102050499Y-93783031D01*
X102050500Y-93783044D01*
X102050500Y-127377944D01*
X102050499Y-127377962D01*
X102050499Y-127384024D01*
X102050499Y-127542138D01*
X102091423Y-127694866D01*
X102100510Y-127710604D01*
X102100511Y-127710608D01*
X102161555Y-127816339D01*
X102170480Y-127831797D01*
X102282284Y-127943601D01*
X102282286Y-127943602D01*
X108319203Y-133980520D01*
X108456135Y-134059577D01*
X108456137Y-134059577D01*
X108456138Y-134059578D01*
X108532498Y-134080039D01*
X108608859Y-134100500D01*
X108608861Y-134100501D01*
X108608862Y-134100501D01*
X108773040Y-134100501D01*
X108773056Y-134100500D01*
X108852482Y-134100500D01*
X108910673Y-134119407D01*
X108931483Y-134139836D01*
X109036128Y-134278407D01*
X109036135Y-134278413D01*
X109193692Y-134422047D01*
X109193699Y-134422053D01*
X109297389Y-134486255D01*
X109374981Y-134534298D01*
X109573802Y-134611321D01*
X109783390Y-134650500D01*
X109996610Y-134650500D01*
X110206198Y-134611321D01*
X110405019Y-134534298D01*
X110586302Y-134422052D01*
X110743872Y-134278407D01*
X110848515Y-134139838D01*
X110898671Y-134104796D01*
X110927518Y-134100500D01*
X116472482Y-134100500D01*
X116530673Y-134119407D01*
X116551483Y-134139836D01*
X116656128Y-134278407D01*
X116656135Y-134278413D01*
X116813692Y-134422047D01*
X116813699Y-134422053D01*
X116917389Y-134486255D01*
X116994981Y-134534298D01*
X117193802Y-134611321D01*
X117403390Y-134650500D01*
X117616610Y-134650500D01*
X117826198Y-134611321D01*
X118025019Y-134534298D01*
X118206302Y-134422052D01*
X118363872Y-134278407D01*
X118492366Y-134108255D01*
X118587405Y-133917389D01*
X118645756Y-133712310D01*
X118665429Y-133500000D01*
X118645756Y-133287690D01*
X118587405Y-133082611D01*
X118492366Y-132891745D01*
X118363872Y-132721593D01*
X118309623Y-132672139D01*
X118206307Y-132577952D01*
X118206300Y-132577946D01*
X118025024Y-132465705D01*
X118025019Y-132465702D01*
X117826195Y-132388678D01*
X117616610Y-132349500D01*
X117403390Y-132349500D01*
X117193804Y-132388678D01*
X116994980Y-132465702D01*
X116994975Y-132465705D01*
X116813699Y-132577946D01*
X116813692Y-132577952D01*
X116656135Y-132721586D01*
X116656131Y-132721589D01*
X116656128Y-132721593D01*
X116551484Y-132860161D01*
X116501329Y-132895204D01*
X116472482Y-132899500D01*
X113249499Y-132899500D01*
X113191308Y-132880593D01*
X113155344Y-132831093D01*
X113150499Y-132800500D01*
X113150499Y-132210579D01*
X113169406Y-132152388D01*
X113218906Y-132116424D01*
X113260081Y-132112146D01*
X113321976Y-132118800D01*
X113449999Y-132118800D01*
X113450000Y-132118799D01*
X113450000Y-131056001D01*
X113950000Y-131056001D01*
X113950000Y-132118799D01*
X113950001Y-132118800D01*
X114078024Y-132118800D01*
X114137570Y-132112398D01*
X114137581Y-132112396D01*
X114272288Y-132062153D01*
X114272290Y-132062152D01*
X114387384Y-131975992D01*
X114387392Y-131975984D01*
X114473552Y-131860890D01*
X114473553Y-131860888D01*
X114523796Y-131726181D01*
X114523798Y-131726170D01*
X114530200Y-131666624D01*
X114530200Y-131056001D01*
X114530199Y-131056000D01*
X113950001Y-131056000D01*
X113950000Y-131056001D01*
X113450000Y-131056001D01*
X113450000Y-129493201D01*
X113950000Y-129493201D01*
X113950000Y-130555999D01*
X113950001Y-130556000D01*
X114530199Y-130556000D01*
X114530200Y-130555999D01*
X114530200Y-130182600D01*
X114549107Y-130124409D01*
X114598607Y-130088445D01*
X114659793Y-130088445D01*
X114699201Y-130112594D01*
X115867087Y-131280480D01*
X115867089Y-131280481D01*
X115867091Y-131280483D01*
X115958408Y-131333205D01*
X115958406Y-131333205D01*
X115958410Y-131333206D01*
X115958412Y-131333207D01*
X116060273Y-131360500D01*
X116165727Y-131360500D01*
X116362887Y-131360500D01*
X116421078Y-131379407D01*
X116451508Y-131415372D01*
X116527634Y-131568255D01*
X116656128Y-131738407D01*
X116656135Y-131738413D01*
X116813692Y-131882047D01*
X116813699Y-131882053D01*
X116917389Y-131946255D01*
X116994981Y-131994298D01*
X117193802Y-132071321D01*
X117403390Y-132110500D01*
X117616610Y-132110500D01*
X117826198Y-132071321D01*
X118025019Y-131994298D01*
X118206302Y-131882052D01*
X118363872Y-131738407D01*
X118492366Y-131568255D01*
X118587405Y-131377389D01*
X118645756Y-131172310D01*
X118665429Y-130960000D01*
X118645756Y-130747690D01*
X118587405Y-130542611D01*
X118492366Y-130351745D01*
X118363872Y-130181593D01*
X118301145Y-130124409D01*
X118206307Y-130037952D01*
X118206300Y-130037946D01*
X118025024Y-129925705D01*
X118025019Y-129925702D01*
X117826198Y-129848679D01*
X117826197Y-129848678D01*
X117826195Y-129848678D01*
X117616610Y-129809500D01*
X117403390Y-129809500D01*
X117193804Y-129848678D01*
X116994980Y-129925702D01*
X116994975Y-129925705D01*
X116813699Y-130037946D01*
X116813692Y-130037952D01*
X116656135Y-130181586D01*
X116656131Y-130181589D01*
X116656128Y-130181593D01*
X116656125Y-130181597D01*
X116527635Y-130351743D01*
X116527630Y-130351752D01*
X116451508Y-130504628D01*
X116408646Y-130548290D01*
X116362887Y-130559500D01*
X116319901Y-130559500D01*
X116261710Y-130540593D01*
X116249897Y-130530504D01*
X115309696Y-129590303D01*
X115281919Y-129535786D01*
X115280700Y-129520311D01*
X115280700Y-128420000D01*
X116354571Y-128420000D01*
X116374244Y-128632310D01*
X116432595Y-128837389D01*
X116527634Y-129028255D01*
X116656128Y-129198407D01*
X116656135Y-129198413D01*
X116813692Y-129342047D01*
X116813699Y-129342053D01*
X116897920Y-129394200D01*
X116994981Y-129454298D01*
X117193802Y-129531321D01*
X117403390Y-129570500D01*
X117616610Y-129570500D01*
X117826198Y-129531321D01*
X118025019Y-129454298D01*
X118206302Y-129342052D01*
X118363872Y-129198407D01*
X118492366Y-129028255D01*
X118587405Y-128837389D01*
X118645756Y-128632310D01*
X118665429Y-128420000D01*
X118645756Y-128207690D01*
X118587405Y-128002611D01*
X118492366Y-127811745D01*
X118363872Y-127641593D01*
X118278334Y-127563614D01*
X118206307Y-127497952D01*
X118206300Y-127497946D01*
X118025024Y-127385705D01*
X118025019Y-127385702D01*
X117826195Y-127308678D01*
X117616610Y-127269500D01*
X117403390Y-127269500D01*
X117193804Y-127308678D01*
X116994980Y-127385702D01*
X116994975Y-127385705D01*
X116813699Y-127497946D01*
X116813692Y-127497952D01*
X116656135Y-127641586D01*
X116656131Y-127641589D01*
X116656128Y-127641593D01*
X116656125Y-127641597D01*
X116527635Y-127811743D01*
X116527630Y-127811752D01*
X116432596Y-128002608D01*
X116374244Y-128207688D01*
X116374244Y-128207690D01*
X116354571Y-128420000D01*
X115280700Y-128420000D01*
X115280700Y-127816336D01*
X115277786Y-127791209D01*
X115232407Y-127688435D01*
X115152966Y-127608994D01*
X115050192Y-127563615D01*
X115050191Y-127563614D01*
X115050189Y-127563614D01*
X115025069Y-127560700D01*
X114274940Y-127560700D01*
X114274937Y-127560701D01*
X114249810Y-127563614D01*
X114147036Y-127608994D01*
X114067595Y-127688435D01*
X114022215Y-127791211D01*
X114019301Y-127816330D01*
X114019301Y-127816332D01*
X114019301Y-127816335D01*
X114019301Y-128632311D01*
X114019302Y-129394200D01*
X114000395Y-129452391D01*
X113965343Y-129477857D01*
X113950000Y-129493201D01*
X113450000Y-129493201D01*
X113435704Y-129478905D01*
X113421508Y-129474293D01*
X113385544Y-129424793D01*
X113380699Y-129394200D01*
X113380698Y-127816339D01*
X113380698Y-127816336D01*
X113377784Y-127791209D01*
X113332405Y-127688435D01*
X113252964Y-127608994D01*
X113150190Y-127563615D01*
X113150189Y-127563614D01*
X113150187Y-127563614D01*
X113125067Y-127560700D01*
X112374938Y-127560700D01*
X112374935Y-127560701D01*
X112349808Y-127563614D01*
X112247034Y-127608994D01*
X112167593Y-127688435D01*
X112122213Y-127791211D01*
X112119299Y-127816330D01*
X112119299Y-129531660D01*
X112119300Y-129531663D01*
X112122213Y-129556790D01*
X112128267Y-129570500D01*
X112167593Y-129659565D01*
X112247034Y-129739006D01*
X112290487Y-129758192D01*
X112336082Y-129798991D01*
X112349499Y-129848756D01*
X112349499Y-132800500D01*
X112330592Y-132858691D01*
X112281092Y-132894655D01*
X112250499Y-132899500D01*
X110927518Y-132899500D01*
X110869327Y-132880593D01*
X110848516Y-132860163D01*
X110743872Y-132721593D01*
X110689623Y-132672139D01*
X110586307Y-132577952D01*
X110586300Y-132577946D01*
X110405024Y-132465705D01*
X110405019Y-132465702D01*
X110206195Y-132388678D01*
X109996610Y-132349500D01*
X109783390Y-132349500D01*
X109573804Y-132388678D01*
X109374980Y-132465702D01*
X109374975Y-132465705D01*
X109193699Y-132577946D01*
X109193692Y-132577952D01*
X109036135Y-132721586D01*
X109036131Y-132721589D01*
X109036128Y-132721593D01*
X109036125Y-132721596D01*
X109036123Y-132721599D01*
X108985344Y-132788840D01*
X108935187Y-132823882D01*
X108874012Y-132822751D01*
X108836337Y-132799182D01*
X106997155Y-130960000D01*
X108734571Y-130960000D01*
X108743466Y-131056000D01*
X108754244Y-131172310D01*
X108812595Y-131377389D01*
X108907634Y-131568255D01*
X109036128Y-131738407D01*
X109036135Y-131738413D01*
X109193692Y-131882047D01*
X109193699Y-131882053D01*
X109297389Y-131946255D01*
X109374981Y-131994298D01*
X109573802Y-132071321D01*
X109783390Y-132110500D01*
X109996610Y-132110500D01*
X110206198Y-132071321D01*
X110405019Y-131994298D01*
X110586302Y-131882052D01*
X110743872Y-131738407D01*
X110872366Y-131568255D01*
X110967405Y-131377389D01*
X111025756Y-131172310D01*
X111045429Y-130960000D01*
X111025756Y-130747690D01*
X110967405Y-130542611D01*
X110872366Y-130351745D01*
X110743872Y-130181593D01*
X110681145Y-130124409D01*
X110586307Y-130037952D01*
X110586300Y-130037946D01*
X110405024Y-129925705D01*
X110405019Y-129925702D01*
X110206198Y-129848679D01*
X110206197Y-129848678D01*
X110206195Y-129848678D01*
X109996610Y-129809500D01*
X109783390Y-129809500D01*
X109573804Y-129848678D01*
X109374980Y-129925702D01*
X109374975Y-129925705D01*
X109193699Y-130037946D01*
X109193692Y-130037952D01*
X109036135Y-130181586D01*
X109036131Y-130181589D01*
X109036128Y-130181593D01*
X109036125Y-130181597D01*
X108907635Y-130351743D01*
X108907630Y-130351752D01*
X108812596Y-130542608D01*
X108812595Y-130542611D01*
X108807790Y-130559500D01*
X108754244Y-130747688D01*
X108734571Y-130960000D01*
X106997155Y-130960000D01*
X104457155Y-128420000D01*
X108734571Y-128420000D01*
X108754244Y-128632310D01*
X108812595Y-128837389D01*
X108907634Y-129028255D01*
X109036128Y-129198407D01*
X109036135Y-129198413D01*
X109193692Y-129342047D01*
X109193699Y-129342053D01*
X109277920Y-129394200D01*
X109374981Y-129454298D01*
X109573802Y-129531321D01*
X109783390Y-129570500D01*
X109996610Y-129570500D01*
X110206198Y-129531321D01*
X110405019Y-129454298D01*
X110586302Y-129342052D01*
X110743872Y-129198407D01*
X110872366Y-129028255D01*
X110967405Y-128837389D01*
X111025756Y-128632310D01*
X111045429Y-128420000D01*
X111025756Y-128207690D01*
X110967405Y-128002611D01*
X110872366Y-127811745D01*
X110743872Y-127641593D01*
X110658334Y-127563614D01*
X110586307Y-127497952D01*
X110586300Y-127497946D01*
X110405024Y-127385705D01*
X110405019Y-127385702D01*
X110206195Y-127308678D01*
X109996610Y-127269500D01*
X109783390Y-127269500D01*
X109573804Y-127308678D01*
X109374980Y-127385702D01*
X109374975Y-127385705D01*
X109193699Y-127497946D01*
X109193692Y-127497952D01*
X109036135Y-127641586D01*
X109036131Y-127641589D01*
X109036128Y-127641593D01*
X109036125Y-127641597D01*
X108907635Y-127811743D01*
X108907630Y-127811752D01*
X108812596Y-128002608D01*
X108754244Y-128207688D01*
X108754244Y-128207690D01*
X108734571Y-128420000D01*
X104457155Y-128420000D01*
X103280496Y-127243341D01*
X103252719Y-127188824D01*
X103251500Y-127173337D01*
X103251500Y-93985742D01*
X103270407Y-93927551D01*
X103280497Y-93915738D01*
X103469240Y-93726996D01*
X103523756Y-93699219D01*
X103539243Y-93698000D01*
X103768816Y-93698000D01*
X103768818Y-93698000D01*
X103855277Y-93687617D01*
X103992858Y-93633362D01*
X104110700Y-93544000D01*
X104144308Y-93499680D01*
X104194535Y-93464738D01*
X104223192Y-93460500D01*
X105105137Y-93460500D01*
X105163328Y-93479407D01*
X105184138Y-93499836D01*
X105263236Y-93604579D01*
X105326701Y-93662435D01*
X105356966Y-93715608D01*
X105350195Y-93776418D01*
X105330008Y-93805599D01*
X104032316Y-95103291D01*
X103979594Y-95194607D01*
X103979593Y-95194612D01*
X103960678Y-95265207D01*
X103952300Y-95296473D01*
X103952300Y-123592073D01*
X103952300Y-123697527D01*
X103968340Y-123757389D01*
X103979594Y-123799392D01*
X104032316Y-123890708D01*
X104032318Y-123890710D01*
X104032320Y-123890713D01*
X106342087Y-126200480D01*
X106342089Y-126200481D01*
X106342091Y-126200483D01*
X106433408Y-126253205D01*
X106433406Y-126253205D01*
X106433410Y-126253206D01*
X106433412Y-126253207D01*
X106535273Y-126280500D01*
X108742887Y-126280500D01*
X108801078Y-126299407D01*
X108831508Y-126335372D01*
X108907634Y-126488255D01*
X109036128Y-126658407D01*
X109036135Y-126658413D01*
X109193692Y-126802047D01*
X109193699Y-126802053D01*
X109297389Y-126866255D01*
X109374981Y-126914298D01*
X109573802Y-126991321D01*
X109783390Y-127030500D01*
X109996610Y-127030500D01*
X110206198Y-126991321D01*
X110405019Y-126914298D01*
X110586302Y-126802052D01*
X110743872Y-126658407D01*
X110872366Y-126488255D01*
X110967405Y-126297389D01*
X111025756Y-126092310D01*
X111045429Y-125880000D01*
X116354571Y-125880000D01*
X116374244Y-126092310D01*
X116432595Y-126297389D01*
X116527634Y-126488255D01*
X116656128Y-126658407D01*
X116656135Y-126658413D01*
X116813692Y-126802047D01*
X116813699Y-126802053D01*
X116917389Y-126866255D01*
X116994981Y-126914298D01*
X117193802Y-126991321D01*
X117403390Y-127030500D01*
X117616610Y-127030500D01*
X117826198Y-126991321D01*
X118025019Y-126914298D01*
X118206302Y-126802052D01*
X118363872Y-126658407D01*
X118492366Y-126488255D01*
X118587405Y-126297389D01*
X118645756Y-126092310D01*
X118665429Y-125880000D01*
X118645756Y-125667690D01*
X118587405Y-125462611D01*
X118492366Y-125271745D01*
X118363872Y-125101593D01*
X118309623Y-125052139D01*
X118206307Y-124957952D01*
X118206300Y-124957946D01*
X118025024Y-124845705D01*
X118025019Y-124845702D01*
X117826195Y-124768678D01*
X117616610Y-124729500D01*
X117403390Y-124729500D01*
X117193804Y-124768678D01*
X116994980Y-124845702D01*
X116994975Y-124845705D01*
X116813699Y-124957946D01*
X116813692Y-124957952D01*
X116656135Y-125101586D01*
X116656131Y-125101589D01*
X116656128Y-125101593D01*
X116656125Y-125101597D01*
X116527635Y-125271743D01*
X116527630Y-125271752D01*
X116432596Y-125462608D01*
X116374244Y-125667688D01*
X116374244Y-125667690D01*
X116354571Y-125880000D01*
X111045429Y-125880000D01*
X111025756Y-125667690D01*
X110967405Y-125462611D01*
X110872366Y-125271745D01*
X110743872Y-125101593D01*
X110689623Y-125052139D01*
X110586307Y-124957952D01*
X110586300Y-124957946D01*
X110405024Y-124845705D01*
X110405019Y-124845702D01*
X110206195Y-124768678D01*
X109996610Y-124729500D01*
X109783390Y-124729500D01*
X109573804Y-124768678D01*
X109374980Y-124845702D01*
X109374975Y-124845705D01*
X109193699Y-124957946D01*
X109193692Y-124957952D01*
X109036135Y-125101586D01*
X109036131Y-125101589D01*
X109036128Y-125101593D01*
X109036125Y-125101597D01*
X108907635Y-125271743D01*
X108907630Y-125271752D01*
X108831508Y-125424628D01*
X108788646Y-125468290D01*
X108742887Y-125479500D01*
X106794901Y-125479500D01*
X106736710Y-125460593D01*
X106724897Y-125450504D01*
X105880459Y-124606066D01*
X105852682Y-124551549D01*
X105862253Y-124491117D01*
X105905518Y-124447852D01*
X105965950Y-124438281D01*
X105968586Y-124438735D01*
X105978024Y-124440500D01*
X105978028Y-124440500D01*
X106181976Y-124440500D01*
X106382456Y-124403024D01*
X106572637Y-124329348D01*
X106746041Y-124221981D01*
X106896764Y-124084579D01*
X107019673Y-123921821D01*
X107110582Y-123739250D01*
X107166397Y-123543083D01*
X107185215Y-123340000D01*
X108734571Y-123340000D01*
X108745077Y-123453386D01*
X108754244Y-123552310D01*
X108812595Y-123757389D01*
X108907634Y-123948255D01*
X109036128Y-124118407D01*
X109036135Y-124118413D01*
X109193692Y-124262047D01*
X109193699Y-124262053D01*
X109297389Y-124326255D01*
X109374981Y-124374298D01*
X109573802Y-124451321D01*
X109783390Y-124490500D01*
X109996610Y-124490500D01*
X110206198Y-124451321D01*
X110405019Y-124374298D01*
X110586302Y-124262052D01*
X110743872Y-124118407D01*
X110872366Y-123948255D01*
X110967405Y-123757389D01*
X111025756Y-123552310D01*
X111045429Y-123340000D01*
X111025756Y-123127690D01*
X110967405Y-122922611D01*
X110872366Y-122731745D01*
X110743872Y-122561593D01*
X110645286Y-122471719D01*
X110586307Y-122417952D01*
X110586300Y-122417946D01*
X110405024Y-122305705D01*
X110405019Y-122305702D01*
X110333542Y-122278012D01*
X110206198Y-122228679D01*
X110206197Y-122228678D01*
X110206195Y-122228678D01*
X109996610Y-122189500D01*
X109783390Y-122189500D01*
X109573804Y-122228678D01*
X109374980Y-122305702D01*
X109374975Y-122305705D01*
X109193699Y-122417946D01*
X109193692Y-122417952D01*
X109036135Y-122561586D01*
X109036131Y-122561589D01*
X109036128Y-122561593D01*
X109036125Y-122561597D01*
X108907635Y-122731743D01*
X108907630Y-122731752D01*
X108812596Y-122922608D01*
X108754244Y-123127688D01*
X108734571Y-123340000D01*
X107185215Y-123340000D01*
X107166397Y-123136917D01*
X107112118Y-122946148D01*
X107114379Y-122885010D01*
X107137333Y-122849058D01*
X108305480Y-121680913D01*
X108358207Y-121589588D01*
X108385500Y-121487727D01*
X108385500Y-121382273D01*
X108385500Y-120800000D01*
X108734571Y-120800000D01*
X108754244Y-121012310D01*
X108812595Y-121217389D01*
X108907634Y-121408255D01*
X109036128Y-121578407D01*
X109089652Y-121627201D01*
X109193692Y-121722047D01*
X109193699Y-121722053D01*
X109238060Y-121749520D01*
X109374981Y-121834298D01*
X109573802Y-121911321D01*
X109783390Y-121950500D01*
X109996610Y-121950500D01*
X110206198Y-121911321D01*
X110405019Y-121834298D01*
X110586302Y-121722052D01*
X110743872Y-121578407D01*
X110872366Y-121408255D01*
X110967405Y-121217389D01*
X111025756Y-121012310D01*
X111045429Y-120800000D01*
X111025756Y-120587690D01*
X110967405Y-120382611D01*
X110872366Y-120191745D01*
X110743872Y-120021593D01*
X110664688Y-119949407D01*
X110586307Y-119877952D01*
X110586300Y-119877946D01*
X110405024Y-119765705D01*
X110405019Y-119765702D01*
X110206195Y-119688678D01*
X109996610Y-119649500D01*
X109783390Y-119649500D01*
X109573804Y-119688678D01*
X109374980Y-119765702D01*
X109374975Y-119765705D01*
X109193699Y-119877946D01*
X109193692Y-119877952D01*
X109036135Y-120021586D01*
X109036131Y-120021589D01*
X109036128Y-120021593D01*
X109036125Y-120021597D01*
X108907635Y-120191743D01*
X108907630Y-120191752D01*
X108812596Y-120382608D01*
X108754244Y-120587688D01*
X108754244Y-120587690D01*
X108734571Y-120800000D01*
X108385500Y-120800000D01*
X108385500Y-118260000D01*
X108734571Y-118260000D01*
X108754244Y-118472310D01*
X108812595Y-118677389D01*
X108907634Y-118868255D01*
X109036128Y-119038407D01*
X109036135Y-119038413D01*
X109193692Y-119182047D01*
X109193699Y-119182053D01*
X109297389Y-119246255D01*
X109374981Y-119294298D01*
X109573802Y-119371321D01*
X109783390Y-119410500D01*
X109996610Y-119410500D01*
X110206198Y-119371321D01*
X110405019Y-119294298D01*
X110586302Y-119182052D01*
X110743872Y-119038407D01*
X110872366Y-118868255D01*
X110967405Y-118677389D01*
X111025756Y-118472310D01*
X111045429Y-118260000D01*
X111025756Y-118047690D01*
X110967405Y-117842611D01*
X110872366Y-117651745D01*
X110743872Y-117481593D01*
X110655296Y-117400845D01*
X110586307Y-117337952D01*
X110586300Y-117337946D01*
X110405024Y-117225705D01*
X110405019Y-117225702D01*
X110206195Y-117148678D01*
X109996610Y-117109500D01*
X109783390Y-117109500D01*
X109573804Y-117148678D01*
X109374980Y-117225702D01*
X109374975Y-117225705D01*
X109193699Y-117337946D01*
X109193692Y-117337952D01*
X109036135Y-117481586D01*
X109036131Y-117481589D01*
X109036128Y-117481593D01*
X109036125Y-117481597D01*
X108907635Y-117651743D01*
X108907630Y-117651752D01*
X108812596Y-117842608D01*
X108754244Y-118047688D01*
X108754244Y-118047690D01*
X108734571Y-118260000D01*
X108385500Y-118260000D01*
X108385500Y-115720000D01*
X108734571Y-115720000D01*
X108739366Y-115771753D01*
X108754244Y-115932310D01*
X108812595Y-116137389D01*
X108907634Y-116328255D01*
X109036128Y-116498407D01*
X109036135Y-116498413D01*
X109193692Y-116642047D01*
X109193699Y-116642053D01*
X109207374Y-116650520D01*
X109374981Y-116754298D01*
X109573802Y-116831321D01*
X109783390Y-116870500D01*
X109996610Y-116870500D01*
X110206198Y-116831321D01*
X110405019Y-116754298D01*
X110586302Y-116642052D01*
X110743872Y-116498407D01*
X110872366Y-116328255D01*
X110967405Y-116137389D01*
X111025756Y-115932310D01*
X111045429Y-115720000D01*
X111025756Y-115507690D01*
X110967405Y-115302611D01*
X110872366Y-115111745D01*
X110743872Y-114941593D01*
X110636995Y-114844161D01*
X110586307Y-114797952D01*
X110586300Y-114797946D01*
X110405024Y-114685705D01*
X110405019Y-114685702D01*
X110206195Y-114608678D01*
X109996610Y-114569500D01*
X109783390Y-114569500D01*
X109573804Y-114608678D01*
X109374980Y-114685702D01*
X109374975Y-114685705D01*
X109193699Y-114797946D01*
X109193692Y-114797952D01*
X109036135Y-114941586D01*
X109036131Y-114941589D01*
X109036128Y-114941593D01*
X109036125Y-114941597D01*
X108907635Y-115111743D01*
X108907630Y-115111752D01*
X108812596Y-115302608D01*
X108812595Y-115302611D01*
X108807790Y-115319500D01*
X108754244Y-115507688D01*
X108734571Y-115720000D01*
X108385500Y-115720000D01*
X108385500Y-113180000D01*
X108734571Y-113180000D01*
X108754244Y-113392310D01*
X108812595Y-113597389D01*
X108907634Y-113788255D01*
X109036128Y-113958407D01*
X109036135Y-113958413D01*
X109193692Y-114102047D01*
X109193699Y-114102053D01*
X109255459Y-114140293D01*
X109374981Y-114214298D01*
X109573802Y-114291321D01*
X109783390Y-114330500D01*
X109996610Y-114330500D01*
X110206198Y-114291321D01*
X110310908Y-114250755D01*
X110371998Y-114247366D01*
X110416674Y-114273067D01*
X115994087Y-119850480D01*
X115994089Y-119850481D01*
X115994090Y-119850482D01*
X115994091Y-119850483D01*
X116085408Y-119903205D01*
X116085406Y-119903205D01*
X116085410Y-119903206D01*
X116085412Y-119903207D01*
X116187273Y-119930500D01*
X116526099Y-119930500D01*
X116584290Y-119949407D01*
X116620254Y-119998907D01*
X116620254Y-120060093D01*
X116605103Y-120089161D01*
X116527635Y-120191743D01*
X116527630Y-120191752D01*
X116432596Y-120382608D01*
X116374244Y-120587688D01*
X116374244Y-120587690D01*
X116354571Y-120800000D01*
X116374244Y-121012310D01*
X116432595Y-121217389D01*
X116527634Y-121408255D01*
X116656128Y-121578407D01*
X116709652Y-121627201D01*
X116813692Y-121722047D01*
X116813699Y-121722053D01*
X116858060Y-121749520D01*
X116994981Y-121834298D01*
X117193802Y-121911321D01*
X117403390Y-121950500D01*
X117616610Y-121950500D01*
X117826198Y-121911321D01*
X118025019Y-121834298D01*
X118206302Y-121722052D01*
X118363872Y-121578407D01*
X118492366Y-121408255D01*
X118587405Y-121217389D01*
X118645756Y-121012310D01*
X118665429Y-120800000D01*
X118645756Y-120587690D01*
X118587405Y-120382611D01*
X118492366Y-120191745D01*
X118363872Y-120021593D01*
X118298691Y-119962172D01*
X118268426Y-119908996D01*
X118275197Y-119848187D01*
X118295379Y-119819013D01*
X119424897Y-118689496D01*
X119479414Y-118661719D01*
X119494901Y-118660500D01*
X120228742Y-118660500D01*
X120286933Y-118679407D01*
X120317362Y-118715371D01*
X120380327Y-118841821D01*
X120503236Y-119004579D01*
X120653959Y-119141981D01*
X120827363Y-119249348D01*
X121017544Y-119323024D01*
X121218024Y-119360500D01*
X121421976Y-119360500D01*
X121622456Y-119323024D01*
X121812637Y-119249348D01*
X121986041Y-119141981D01*
X122136764Y-119004579D01*
X122259673Y-118841821D01*
X122350582Y-118659250D01*
X122406397Y-118463083D01*
X122425215Y-118260000D01*
X122406397Y-118056917D01*
X122350582Y-117860750D01*
X122259673Y-117678179D01*
X122136764Y-117515421D01*
X122069407Y-117454017D01*
X122039143Y-117400845D01*
X122045914Y-117340035D01*
X122086608Y-117295120D01*
X122092913Y-117291480D01*
X123328496Y-116055895D01*
X123383013Y-116028119D01*
X123443445Y-116037690D01*
X123486710Y-116080955D01*
X123497500Y-116125900D01*
X123497500Y-119793098D01*
X123478593Y-119851289D01*
X123468504Y-119863102D01*
X122583360Y-120748245D01*
X122528843Y-120776022D01*
X122468411Y-120766451D01*
X122425146Y-120723186D01*
X122414779Y-120687380D01*
X122406397Y-120596917D01*
X122350582Y-120400750D01*
X122259673Y-120218179D01*
X122136764Y-120055421D01*
X121986041Y-119918019D01*
X121812637Y-119810652D01*
X121622456Y-119736976D01*
X121622455Y-119736975D01*
X121622453Y-119736975D01*
X121421976Y-119699500D01*
X121218024Y-119699500D01*
X121017546Y-119736975D01*
X120947632Y-119764059D01*
X120827363Y-119810652D01*
X120677881Y-119903207D01*
X120653959Y-119918019D01*
X120503237Y-120055420D01*
X120380328Y-120218177D01*
X120380323Y-120218186D01*
X120298450Y-120382611D01*
X120289418Y-120400750D01*
X120233603Y-120596917D01*
X120214785Y-120800000D01*
X120233603Y-121003083D01*
X120289418Y-121199250D01*
X120380327Y-121381821D01*
X120477759Y-121510842D01*
X120497737Y-121568670D01*
X120479908Y-121627201D01*
X120431082Y-121664073D01*
X120398754Y-121669500D01*
X119594727Y-121669500D01*
X119489273Y-121669500D01*
X119426929Y-121686204D01*
X119387407Y-121696794D01*
X119296091Y-121749516D01*
X119296086Y-121749520D01*
X118493560Y-122552044D01*
X118439044Y-122579821D01*
X118378612Y-122570250D01*
X118356861Y-122555202D01*
X118338986Y-122538907D01*
X118206302Y-122417948D01*
X118206301Y-122417947D01*
X118206300Y-122417946D01*
X118025024Y-122305705D01*
X118025019Y-122305702D01*
X117953542Y-122278012D01*
X117826198Y-122228679D01*
X117826197Y-122228678D01*
X117826195Y-122228678D01*
X117616610Y-122189500D01*
X117403390Y-122189500D01*
X117193804Y-122228678D01*
X116994980Y-122305702D01*
X116994975Y-122305705D01*
X116813699Y-122417946D01*
X116813692Y-122417952D01*
X116656135Y-122561586D01*
X116656131Y-122561589D01*
X116656128Y-122561593D01*
X116656125Y-122561597D01*
X116527635Y-122731743D01*
X116527630Y-122731752D01*
X116432596Y-122922608D01*
X116374244Y-123127688D01*
X116354571Y-123340000D01*
X116365077Y-123453386D01*
X116374244Y-123552310D01*
X116432595Y-123757389D01*
X116527634Y-123948255D01*
X116656128Y-124118407D01*
X116656135Y-124118413D01*
X116813692Y-124262047D01*
X116813699Y-124262053D01*
X116917389Y-124326255D01*
X116994981Y-124374298D01*
X117193802Y-124451321D01*
X117403390Y-124490500D01*
X117616610Y-124490500D01*
X117826198Y-124451321D01*
X118025019Y-124374298D01*
X118206302Y-124262052D01*
X118363872Y-124118407D01*
X118492366Y-123948255D01*
X118587405Y-123757389D01*
X118645756Y-123552310D01*
X118645756Y-123552303D01*
X118646542Y-123549543D01*
X118671757Y-123506634D01*
X119678897Y-122499496D01*
X119733414Y-122471719D01*
X119748901Y-122470500D01*
X120151646Y-122470500D01*
X120209837Y-122489407D01*
X120245801Y-122538907D01*
X120245801Y-122600093D01*
X120232742Y-122626284D01*
X120189865Y-122687518D01*
X120093733Y-122893676D01*
X120041128Y-123090000D01*
X121004314Y-123090000D01*
X120999920Y-123094394D01*
X120947259Y-123185606D01*
X120920000Y-123287339D01*
X120920000Y-123392661D01*
X120947259Y-123494394D01*
X120999920Y-123585606D01*
X121004314Y-123590000D01*
X120041128Y-123590000D01*
X120093733Y-123786323D01*
X120189865Y-123992481D01*
X120320334Y-124178811D01*
X120481188Y-124339665D01*
X120667518Y-124470134D01*
X120873676Y-124566266D01*
X121070000Y-124618872D01*
X121070000Y-123655686D01*
X121074394Y-123660080D01*
X121165606Y-123712741D01*
X121267339Y-123740000D01*
X121372661Y-123740000D01*
X121474394Y-123712741D01*
X121565606Y-123660080D01*
X121570000Y-123655686D01*
X121570000Y-124618871D01*
X121766323Y-124566266D01*
X121972481Y-124470134D01*
X122158811Y-124339665D01*
X122319665Y-124178811D01*
X122450134Y-123992481D01*
X122546266Y-123786323D01*
X122598872Y-123590000D01*
X121635686Y-123590000D01*
X121640080Y-123585606D01*
X121692741Y-123494394D01*
X121720000Y-123392661D01*
X121720000Y-123287339D01*
X121692741Y-123185606D01*
X121640080Y-123094394D01*
X121635686Y-123090000D01*
X122598872Y-123090000D01*
X122546266Y-122893676D01*
X122450134Y-122687518D01*
X122319665Y-122501188D01*
X122211438Y-122392961D01*
X122183661Y-122338444D01*
X122193232Y-122278012D01*
X122211432Y-122252960D01*
X124218480Y-120245913D01*
X124218483Y-120245908D01*
X124271205Y-120154592D01*
X124271205Y-120154590D01*
X124271207Y-120154588D01*
X124298500Y-120052727D01*
X124298500Y-119947273D01*
X124298500Y-88329899D01*
X124317407Y-88271708D01*
X124327490Y-88259901D01*
X124867910Y-87719481D01*
X124867913Y-87719480D01*
X124942480Y-87644913D01*
X124995207Y-87553587D01*
X125000432Y-87534087D01*
X125022501Y-87451727D01*
X125022501Y-87346273D01*
X125022501Y-87340211D01*
X125022500Y-87340193D01*
X125022500Y-86111543D01*
X125041407Y-86053352D01*
X125090907Y-86017388D01*
X125093582Y-86016561D01*
X125141225Y-86002572D01*
X125272010Y-85942844D01*
X125345158Y-85895835D01*
X125453819Y-85801681D01*
X125510764Y-85735963D01*
X125588496Y-85615009D01*
X125624618Y-85535913D01*
X125665125Y-85397958D01*
X125670977Y-85357257D01*
X125677500Y-85311893D01*
X125677500Y-84739995D01*
X125676197Y-84711816D01*
X125676197Y-84711812D01*
X125645472Y-84603827D01*
X125577814Y-84514233D01*
X125577811Y-84514231D01*
X125482358Y-84455129D01*
X125372000Y-84434500D01*
X124936689Y-84434500D01*
X124922600Y-84433492D01*
X124915476Y-84432467D01*
X124828524Y-84432467D01*
X124821391Y-84433492D01*
X124807304Y-84434500D01*
X124436696Y-84434500D01*
X124422608Y-84433492D01*
X124415476Y-84432467D01*
X124415475Y-84432467D01*
X124328522Y-84432467D01*
X124321400Y-84433492D01*
X124307311Y-84434500D01*
X123871995Y-84434500D01*
X123843816Y-84435802D01*
X123843812Y-84435803D01*
X123735826Y-84466528D01*
X123646233Y-84534185D01*
X123646231Y-84534188D01*
X123587129Y-84629641D01*
X123566500Y-84739999D01*
X123566500Y-84740500D01*
X123566435Y-84740699D01*
X123566077Y-84744562D01*
X123565206Y-84744481D01*
X123547593Y-84798691D01*
X123498093Y-84834655D01*
X123467500Y-84839500D01*
X122411258Y-84839500D01*
X122353067Y-84820593D01*
X122322637Y-84784628D01*
X122305051Y-84749310D01*
X122259673Y-84658179D01*
X122136764Y-84495421D01*
X121986041Y-84358019D01*
X121812637Y-84250652D01*
X121622456Y-84176976D01*
X121622455Y-84176975D01*
X121622453Y-84176975D01*
X121421976Y-84139500D01*
X121218024Y-84139500D01*
X121017546Y-84176975D01*
X120968703Y-84195897D01*
X120827363Y-84250652D01*
X120653959Y-84358019D01*
X120503236Y-84495421D01*
X120380327Y-84658179D01*
X120380326Y-84658180D01*
X120380326Y-84658181D01*
X120379671Y-84659239D01*
X120379272Y-84659576D01*
X120377569Y-84661832D01*
X120377060Y-84661447D01*
X120332961Y-84698760D01*
X120271943Y-84703278D01*
X120219923Y-84671067D01*
X120196770Y-84614431D01*
X120196500Y-84607121D01*
X120196500Y-84430900D01*
X120215407Y-84372709D01*
X120225490Y-84360902D01*
X120831975Y-83754416D01*
X120886490Y-83726641D01*
X120937735Y-83732106D01*
X121017544Y-83763024D01*
X121218024Y-83800500D01*
X121421976Y-83800500D01*
X121622456Y-83763024D01*
X121812637Y-83689348D01*
X121986041Y-83581981D01*
X122136764Y-83444579D01*
X122259673Y-83281821D01*
X122350582Y-83099250D01*
X122406397Y-82903083D01*
X122425215Y-82700000D01*
X122406397Y-82496917D01*
X122350582Y-82300750D01*
X122259673Y-82118179D01*
X122136764Y-81955421D01*
X121986041Y-81818019D01*
X121812637Y-81710652D01*
X121665283Y-81653567D01*
X121622454Y-81636975D01*
X121584582Y-81629896D01*
X121530857Y-81600618D01*
X121504601Y-81545352D01*
X121515844Y-81485209D01*
X121560292Y-81443160D01*
X121577151Y-81436955D01*
X121766324Y-81386266D01*
X121972481Y-81290134D01*
X122158811Y-81159665D01*
X122319665Y-80998811D01*
X122450134Y-80812481D01*
X122546266Y-80606323D01*
X122598872Y-80410000D01*
X121635686Y-80410000D01*
X121640080Y-80405606D01*
X121692741Y-80314394D01*
X121720000Y-80212661D01*
X121720000Y-80107339D01*
X121692741Y-80005606D01*
X121640080Y-79914394D01*
X121635686Y-79910000D01*
X122598872Y-79910000D01*
X122546266Y-79713676D01*
X122450134Y-79507518D01*
X122319665Y-79321188D01*
X122158811Y-79160334D01*
X121972481Y-79029865D01*
X121766323Y-78933733D01*
X121577151Y-78883044D01*
X121525836Y-78849720D01*
X121503910Y-78792598D01*
X121519746Y-78733498D01*
X121567296Y-78694992D01*
X121584568Y-78690106D01*
X121622456Y-78683024D01*
X121812637Y-78609348D01*
X121986041Y-78501981D01*
X122136764Y-78364579D01*
X122259673Y-78201821D01*
X122350582Y-78019250D01*
X122406397Y-77823083D01*
X122425215Y-77620000D01*
X122406397Y-77416917D01*
X122350582Y-77220750D01*
X122259673Y-77038179D01*
X122136764Y-76875421D01*
X121986041Y-76738019D01*
X121812637Y-76630652D01*
X121622456Y-76556976D01*
X121622455Y-76556975D01*
X121622453Y-76556975D01*
X121421976Y-76519500D01*
X121218024Y-76519500D01*
X121017546Y-76556975D01*
X120947632Y-76584059D01*
X120827363Y-76630652D01*
X120718676Y-76697948D01*
X120653959Y-76738019D01*
X120503237Y-76875420D01*
X120380328Y-77038177D01*
X120380323Y-77038186D01*
X120289418Y-77220748D01*
X120289415Y-77220757D01*
X120256113Y-77337798D01*
X120230897Y-77380707D01*
X118967520Y-78644086D01*
X118967516Y-78644091D01*
X118914794Y-78735407D01*
X118914793Y-78735412D01*
X118887500Y-78837273D01*
X118887500Y-88108273D01*
X118887500Y-88213727D01*
X118902831Y-88270943D01*
X118914794Y-88315592D01*
X118967516Y-88406908D01*
X118967518Y-88406910D01*
X118967520Y-88406913D01*
X119931087Y-89370480D01*
X119931089Y-89370481D01*
X119931091Y-89370483D01*
X120022408Y-89423205D01*
X120022406Y-89423205D01*
X120022410Y-89423206D01*
X120022412Y-89423207D01*
X120124273Y-89450500D01*
X120229727Y-89450500D01*
X120398754Y-89450500D01*
X120456945Y-89469407D01*
X120492909Y-89518907D01*
X120492909Y-89580093D01*
X120477760Y-89609155D01*
X120424448Y-89679753D01*
X120380328Y-89738177D01*
X120380323Y-89738186D01*
X120298450Y-89902611D01*
X120289418Y-89920750D01*
X120233603Y-90116917D01*
X120214785Y-90320000D01*
X120233603Y-90523083D01*
X120259441Y-90613892D01*
X120287880Y-90713845D01*
X120285619Y-90774989D01*
X120262663Y-90810941D01*
X119094520Y-91979086D01*
X119094516Y-91979091D01*
X119041794Y-92070408D01*
X119041793Y-92070410D01*
X119036473Y-92090261D01*
X119036474Y-92090262D01*
X119014500Y-92172273D01*
X119014500Y-100908098D01*
X118995593Y-100966289D01*
X118985504Y-100978102D01*
X118036673Y-101926932D01*
X117982156Y-101954709D01*
X117930907Y-101949243D01*
X117826198Y-101908679D01*
X117826197Y-101908678D01*
X117826195Y-101908678D01*
X117616610Y-101869500D01*
X117403390Y-101869500D01*
X117193804Y-101908678D01*
X116994980Y-101985702D01*
X116994975Y-101985705D01*
X116813699Y-102097946D01*
X116813692Y-102097952D01*
X116656135Y-102241586D01*
X116656131Y-102241589D01*
X116656128Y-102241593D01*
X116656125Y-102241597D01*
X116527635Y-102411743D01*
X116527630Y-102411752D01*
X116432596Y-102602608D01*
X116374244Y-102807688D01*
X116354571Y-103020000D01*
X116374244Y-103232311D01*
X116391766Y-103293893D01*
X116432595Y-103437389D01*
X116527634Y-103628255D01*
X116656128Y-103798407D01*
X116681947Y-103821944D01*
X116813692Y-103942047D01*
X116813699Y-103942053D01*
X116836383Y-103956098D01*
X116994981Y-104054298D01*
X117193802Y-104131321D01*
X117403390Y-104170500D01*
X117616610Y-104170500D01*
X117826198Y-104131321D01*
X118025019Y-104054298D01*
X118206302Y-103942052D01*
X118363872Y-103798407D01*
X118492366Y-103628255D01*
X118587405Y-103437389D01*
X118645756Y-103232310D01*
X118665429Y-103020000D01*
X120214785Y-103020000D01*
X120233603Y-103223083D01*
X120289418Y-103419250D01*
X120380327Y-103601821D01*
X120503236Y-103764579D01*
X120653959Y-103901981D01*
X120827363Y-104009348D01*
X121017544Y-104083024D01*
X121218024Y-104120500D01*
X121421976Y-104120500D01*
X121622456Y-104083024D01*
X121812637Y-104009348D01*
X121986041Y-103901981D01*
X122136764Y-103764579D01*
X122259673Y-103601821D01*
X122350582Y-103419250D01*
X122406397Y-103223083D01*
X122425215Y-103020000D01*
X122406397Y-102816917D01*
X122350582Y-102620750D01*
X122259673Y-102438179D01*
X122136764Y-102275421D01*
X121986041Y-102138019D01*
X121812637Y-102030652D01*
X121622456Y-101956976D01*
X121622455Y-101956975D01*
X121622453Y-101956975D01*
X121421976Y-101919500D01*
X121218024Y-101919500D01*
X121017546Y-101956975D01*
X120995334Y-101965580D01*
X120827363Y-102030652D01*
X120718676Y-102097948D01*
X120653959Y-102138019D01*
X120503237Y-102275420D01*
X120380328Y-102438177D01*
X120380323Y-102438186D01*
X120298450Y-102602611D01*
X120289418Y-102620750D01*
X120233603Y-102816917D01*
X120214785Y-103020000D01*
X118665429Y-103020000D01*
X118645756Y-102807690D01*
X118587405Y-102602611D01*
X118587401Y-102602604D01*
X118585752Y-102598344D01*
X118587132Y-102597809D01*
X118579019Y-102543364D01*
X118606648Y-102489743D01*
X119735480Y-101360913D01*
X119788207Y-101269588D01*
X119815500Y-101167727D01*
X119815500Y-101062273D01*
X119815500Y-100480000D01*
X120214785Y-100480000D01*
X120233603Y-100683083D01*
X120289418Y-100879250D01*
X120380327Y-101061821D01*
X120503236Y-101224579D01*
X120653959Y-101361981D01*
X120827363Y-101469348D01*
X121017544Y-101543024D01*
X121218024Y-101580500D01*
X121421976Y-101580500D01*
X121622456Y-101543024D01*
X121812637Y-101469348D01*
X121986041Y-101361981D01*
X122136764Y-101224579D01*
X122259673Y-101061821D01*
X122350582Y-100879250D01*
X122406397Y-100683083D01*
X122425215Y-100480000D01*
X122406397Y-100276917D01*
X122350582Y-100080750D01*
X122259673Y-99898179D01*
X122136764Y-99735421D01*
X121986041Y-99598019D01*
X121812637Y-99490652D01*
X121622456Y-99416976D01*
X121622455Y-99416975D01*
X121622453Y-99416975D01*
X121421976Y-99379500D01*
X121218024Y-99379500D01*
X121017546Y-99416975D01*
X120995334Y-99425580D01*
X120827363Y-99490652D01*
X120718676Y-99557948D01*
X120653959Y-99598019D01*
X120503237Y-99735420D01*
X120380328Y-99898177D01*
X120380323Y-99898186D01*
X120298450Y-100062611D01*
X120289418Y-100080750D01*
X120233603Y-100276917D01*
X120214785Y-100480000D01*
X119815500Y-100480000D01*
X119815500Y-97940000D01*
X120214785Y-97940000D01*
X120233603Y-98143083D01*
X120289418Y-98339250D01*
X120380327Y-98521821D01*
X120503236Y-98684579D01*
X120653959Y-98821981D01*
X120827363Y-98929348D01*
X121017544Y-99003024D01*
X121218024Y-99040500D01*
X121421976Y-99040500D01*
X121622456Y-99003024D01*
X121812637Y-98929348D01*
X121986041Y-98821981D01*
X122136764Y-98684579D01*
X122259673Y-98521821D01*
X122350582Y-98339250D01*
X122406397Y-98143083D01*
X122425215Y-97940000D01*
X122406397Y-97736917D01*
X122350582Y-97540750D01*
X122259673Y-97358179D01*
X122136764Y-97195421D01*
X121986041Y-97058019D01*
X121812637Y-96950652D01*
X121622456Y-96876976D01*
X121622455Y-96876975D01*
X121622453Y-96876975D01*
X121421976Y-96839500D01*
X121218024Y-96839500D01*
X121017546Y-96876975D01*
X120995334Y-96885580D01*
X120827363Y-96950652D01*
X120653959Y-97058019D01*
X120503236Y-97195421D01*
X120463388Y-97248188D01*
X120380328Y-97358177D01*
X120380323Y-97358186D01*
X120298450Y-97522611D01*
X120289418Y-97540750D01*
X120233603Y-97736917D01*
X120214785Y-97940000D01*
X119815500Y-97940000D01*
X119815500Y-95400000D01*
X120214785Y-95400000D01*
X120233603Y-95603083D01*
X120289418Y-95799250D01*
X120380327Y-95981821D01*
X120503236Y-96144579D01*
X120653959Y-96281981D01*
X120827363Y-96389348D01*
X121017544Y-96463024D01*
X121218024Y-96500500D01*
X121421976Y-96500500D01*
X121622456Y-96463024D01*
X121812637Y-96389348D01*
X121986041Y-96281981D01*
X122136764Y-96144579D01*
X122259673Y-95981821D01*
X122350582Y-95799250D01*
X122406397Y-95603083D01*
X122425215Y-95400000D01*
X122406397Y-95196917D01*
X122350582Y-95000750D01*
X122259673Y-94818179D01*
X122136764Y-94655421D01*
X121986041Y-94518019D01*
X121812637Y-94410652D01*
X121622456Y-94336976D01*
X121622455Y-94336975D01*
X121622453Y-94336975D01*
X121421976Y-94299500D01*
X121218024Y-94299500D01*
X121017546Y-94336975D01*
X120960440Y-94359098D01*
X120827363Y-94410652D01*
X120668532Y-94508996D01*
X120653959Y-94518019D01*
X120503237Y-94655420D01*
X120380328Y-94818177D01*
X120380323Y-94818186D01*
X120298450Y-94982611D01*
X120289418Y-95000750D01*
X120233603Y-95196917D01*
X120214785Y-95400000D01*
X119815500Y-95400000D01*
X119815500Y-92860000D01*
X120214785Y-92860000D01*
X120233603Y-93063083D01*
X120289418Y-93259250D01*
X120380327Y-93441821D01*
X120503236Y-93604579D01*
X120653959Y-93741981D01*
X120827363Y-93849348D01*
X121017544Y-93923024D01*
X121218024Y-93960500D01*
X121421976Y-93960500D01*
X121622456Y-93923024D01*
X121812637Y-93849348D01*
X121986041Y-93741981D01*
X122136764Y-93604579D01*
X122259673Y-93441821D01*
X122350582Y-93259250D01*
X122406397Y-93063083D01*
X122425215Y-92860000D01*
X122406397Y-92656917D01*
X122350582Y-92460750D01*
X122259673Y-92278179D01*
X122136764Y-92115421D01*
X121986041Y-91978019D01*
X121812637Y-91870652D01*
X121622456Y-91796976D01*
X121622455Y-91796975D01*
X121622453Y-91796975D01*
X121421976Y-91759500D01*
X121218024Y-91759500D01*
X121017546Y-91796975D01*
X120947632Y-91824059D01*
X120827363Y-91870652D01*
X120668532Y-91968996D01*
X120653959Y-91978019D01*
X120503237Y-92115420D01*
X120380328Y-92278177D01*
X120380323Y-92278186D01*
X120298450Y-92442611D01*
X120289418Y-92460750D01*
X120233603Y-92656917D01*
X120214785Y-92860000D01*
X119815500Y-92860000D01*
X119815500Y-92431900D01*
X119834407Y-92373709D01*
X119844490Y-92361902D01*
X120831975Y-91374416D01*
X120886490Y-91346641D01*
X120937735Y-91352106D01*
X121017544Y-91383024D01*
X121218024Y-91420500D01*
X121421976Y-91420500D01*
X121622456Y-91383024D01*
X121812637Y-91309348D01*
X121986041Y-91201981D01*
X122136764Y-91064579D01*
X122259673Y-90901821D01*
X122350582Y-90719250D01*
X122406397Y-90523083D01*
X122413168Y-90450009D01*
X122437363Y-90393814D01*
X122489970Y-90362570D01*
X122550894Y-90368216D01*
X122581749Y-90389142D01*
X122668504Y-90475897D01*
X122696281Y-90530414D01*
X122697500Y-90545901D01*
X122697500Y-112973099D01*
X122678593Y-113031290D01*
X122668503Y-113043103D01*
X122583359Y-113128246D01*
X122528842Y-113156023D01*
X122468410Y-113146451D01*
X122425146Y-113103187D01*
X122414779Y-113067381D01*
X122406397Y-112976917D01*
X122350582Y-112780750D01*
X122259673Y-112598179D01*
X122136764Y-112435421D01*
X121986041Y-112298019D01*
X121812637Y-112190652D01*
X121622456Y-112116976D01*
X121622455Y-112116975D01*
X121622453Y-112116975D01*
X121421976Y-112079500D01*
X121218024Y-112079500D01*
X121017546Y-112116975D01*
X121017541Y-112116977D01*
X120827363Y-112190652D01*
X120718676Y-112257948D01*
X120653959Y-112298019D01*
X120503237Y-112435420D01*
X120380328Y-112598177D01*
X120380323Y-112598186D01*
X120298450Y-112762611D01*
X120289418Y-112780750D01*
X120233603Y-112976917D01*
X120214785Y-113180000D01*
X120233603Y-113383083D01*
X120289418Y-113579250D01*
X120380327Y-113761821D01*
X120503236Y-113924579D01*
X120583222Y-113997495D01*
X120613487Y-114050669D01*
X120606718Y-114111479D01*
X120566027Y-114156392D01*
X120502586Y-114193020D01*
X120428019Y-114267586D01*
X120428020Y-114267587D01*
X119405103Y-115290504D01*
X119350586Y-115318281D01*
X119335099Y-115319500D01*
X118657113Y-115319500D01*
X118598922Y-115300593D01*
X118568492Y-115264628D01*
X118522015Y-115171289D01*
X118492366Y-115111745D01*
X118363872Y-114941593D01*
X118256995Y-114844161D01*
X118206307Y-114797952D01*
X118206300Y-114797946D01*
X118025024Y-114685705D01*
X118025019Y-114685702D01*
X117826195Y-114608678D01*
X117616610Y-114569500D01*
X117403390Y-114569500D01*
X117193804Y-114608678D01*
X116994980Y-114685702D01*
X116994975Y-114685705D01*
X116813699Y-114797946D01*
X116813692Y-114797952D01*
X116656135Y-114941586D01*
X116656131Y-114941589D01*
X116656128Y-114941593D01*
X116656125Y-114941597D01*
X116527635Y-115111743D01*
X116527630Y-115111752D01*
X116432596Y-115302608D01*
X116432595Y-115302611D01*
X116427790Y-115319500D01*
X116374244Y-115507688D01*
X116354571Y-115720000D01*
X116359366Y-115771753D01*
X116374244Y-115932310D01*
X116432595Y-116137389D01*
X116527634Y-116328255D01*
X116656128Y-116498407D01*
X116656135Y-116498413D01*
X116813692Y-116642047D01*
X116813699Y-116642053D01*
X116827374Y-116650520D01*
X116994981Y-116754298D01*
X117193802Y-116831321D01*
X117403390Y-116870500D01*
X117616610Y-116870500D01*
X117826198Y-116831321D01*
X118025019Y-116754298D01*
X118206302Y-116642052D01*
X118363872Y-116498407D01*
X118492366Y-116328255D01*
X118568492Y-116175372D01*
X118611354Y-116131710D01*
X118657113Y-116120500D01*
X119594725Y-116120500D01*
X119594727Y-116120500D01*
X119696588Y-116093207D01*
X119696590Y-116093205D01*
X119696592Y-116093205D01*
X119787908Y-116040483D01*
X119787908Y-116040482D01*
X119787913Y-116040480D01*
X120056639Y-115771752D01*
X120111156Y-115743975D01*
X120171588Y-115753546D01*
X120214853Y-115796811D01*
X120225220Y-115832619D01*
X120233603Y-115923083D01*
X120289418Y-116119250D01*
X120380327Y-116301821D01*
X120380332Y-116301828D01*
X120380333Y-116301829D01*
X120463409Y-116411839D01*
X120483389Y-116469670D01*
X120465561Y-116528200D01*
X120416734Y-116565073D01*
X120384406Y-116570500D01*
X119740727Y-116570500D01*
X119635273Y-116570500D01*
X119572929Y-116587204D01*
X119533407Y-116597794D01*
X119442091Y-116650516D01*
X119442086Y-116650520D01*
X118550650Y-117541954D01*
X118496134Y-117569731D01*
X118435702Y-117560160D01*
X118401644Y-117531611D01*
X118378598Y-117501093D01*
X118363879Y-117481601D01*
X118363875Y-117481597D01*
X118363872Y-117481593D01*
X118275296Y-117400845D01*
X118206307Y-117337952D01*
X118206300Y-117337946D01*
X118025024Y-117225705D01*
X118025019Y-117225702D01*
X117826195Y-117148678D01*
X117616610Y-117109500D01*
X117403390Y-117109500D01*
X117193804Y-117148678D01*
X116994980Y-117225702D01*
X116994975Y-117225705D01*
X116813699Y-117337946D01*
X116813692Y-117337952D01*
X116656135Y-117481586D01*
X116656131Y-117481589D01*
X116656128Y-117481593D01*
X116656125Y-117481597D01*
X116527635Y-117651743D01*
X116527630Y-117651752D01*
X116432596Y-117842608D01*
X116374244Y-118047688D01*
X116374244Y-118047690D01*
X116354571Y-118260000D01*
X116374244Y-118472310D01*
X116428136Y-118661719D01*
X116432596Y-118677391D01*
X116527630Y-118868247D01*
X116527635Y-118868256D01*
X116605103Y-118970839D01*
X116625082Y-119028670D01*
X116607253Y-119087201D01*
X116558427Y-119124073D01*
X116526099Y-119129500D01*
X116446901Y-119129500D01*
X116388710Y-119110593D01*
X116376897Y-119100504D01*
X110986650Y-113710257D01*
X110958873Y-113655740D01*
X110967111Y-113602182D01*
X110965752Y-113601656D01*
X110967400Y-113597398D01*
X110967405Y-113597389D01*
X111025756Y-113392310D01*
X111045429Y-113180000D01*
X116354571Y-113180000D01*
X116374244Y-113392310D01*
X116432595Y-113597389D01*
X116527634Y-113788255D01*
X116656128Y-113958407D01*
X116656135Y-113958413D01*
X116813692Y-114102047D01*
X116813699Y-114102053D01*
X116875459Y-114140293D01*
X116994981Y-114214298D01*
X117193802Y-114291321D01*
X117403390Y-114330500D01*
X117616610Y-114330500D01*
X117826198Y-114291321D01*
X118025019Y-114214298D01*
X118206302Y-114102052D01*
X118363872Y-113958407D01*
X118492366Y-113788255D01*
X118587405Y-113597389D01*
X118645756Y-113392310D01*
X118665429Y-113180000D01*
X118645756Y-112967690D01*
X118587405Y-112762611D01*
X118492366Y-112571745D01*
X118363872Y-112401593D01*
X118309623Y-112352139D01*
X118206307Y-112257952D01*
X118206300Y-112257946D01*
X118025024Y-112145705D01*
X118025019Y-112145702D01*
X117973078Y-112125580D01*
X117826198Y-112068679D01*
X117826197Y-112068678D01*
X117826195Y-112068678D01*
X117616610Y-112029500D01*
X117403390Y-112029500D01*
X117193804Y-112068678D01*
X116994980Y-112145702D01*
X116994975Y-112145705D01*
X116813699Y-112257946D01*
X116813692Y-112257952D01*
X116656135Y-112401586D01*
X116656131Y-112401589D01*
X116656128Y-112401593D01*
X116656125Y-112401597D01*
X116527635Y-112571743D01*
X116527630Y-112571752D01*
X116432596Y-112762608D01*
X116374244Y-112967688D01*
X116374244Y-112967690D01*
X116354571Y-113180000D01*
X111045429Y-113180000D01*
X111025756Y-112967690D01*
X110967405Y-112762611D01*
X110872366Y-112571745D01*
X110743872Y-112401593D01*
X110689623Y-112352139D01*
X110586307Y-112257952D01*
X110586300Y-112257946D01*
X110405024Y-112145705D01*
X110405019Y-112145702D01*
X110353078Y-112125580D01*
X110206198Y-112068679D01*
X110206197Y-112068678D01*
X110206195Y-112068678D01*
X109996610Y-112029500D01*
X109783390Y-112029500D01*
X109573804Y-112068678D01*
X109374980Y-112145702D01*
X109374975Y-112145705D01*
X109193699Y-112257946D01*
X109193692Y-112257952D01*
X109036135Y-112401586D01*
X109036131Y-112401589D01*
X109036128Y-112401593D01*
X109036125Y-112401597D01*
X108907635Y-112571743D01*
X108907630Y-112571752D01*
X108812596Y-112762608D01*
X108754244Y-112967688D01*
X108754244Y-112967690D01*
X108734571Y-113180000D01*
X108385500Y-113180000D01*
X108385500Y-110640000D01*
X108734571Y-110640000D01*
X108754244Y-110852310D01*
X108812595Y-111057389D01*
X108907634Y-111248255D01*
X109036128Y-111418407D01*
X109036135Y-111418413D01*
X109193692Y-111562047D01*
X109193699Y-111562053D01*
X109216383Y-111576098D01*
X109374981Y-111674298D01*
X109573802Y-111751321D01*
X109783390Y-111790500D01*
X109996610Y-111790500D01*
X110206198Y-111751321D01*
X110405019Y-111674298D01*
X110586302Y-111562052D01*
X110743872Y-111418407D01*
X110872366Y-111248255D01*
X110967405Y-111057389D01*
X111025756Y-110852310D01*
X111045429Y-110640000D01*
X116354571Y-110640000D01*
X116374244Y-110852310D01*
X116432595Y-111057389D01*
X116527634Y-111248255D01*
X116656128Y-111418407D01*
X116656135Y-111418413D01*
X116813692Y-111562047D01*
X116813699Y-111562053D01*
X116836383Y-111576098D01*
X116994981Y-111674298D01*
X117193802Y-111751321D01*
X117403390Y-111790500D01*
X117616610Y-111790500D01*
X117826198Y-111751321D01*
X118025019Y-111674298D01*
X118206302Y-111562052D01*
X118363872Y-111418407D01*
X118492366Y-111248255D01*
X118587405Y-111057389D01*
X118645756Y-110852310D01*
X118665429Y-110640000D01*
X120214785Y-110640000D01*
X120233603Y-110843083D01*
X120289418Y-111039250D01*
X120380327Y-111221821D01*
X120503236Y-111384579D01*
X120653959Y-111521981D01*
X120827363Y-111629348D01*
X121017544Y-111703024D01*
X121218024Y-111740500D01*
X121421976Y-111740500D01*
X121622456Y-111703024D01*
X121812637Y-111629348D01*
X121986041Y-111521981D01*
X122136764Y-111384579D01*
X122259673Y-111221821D01*
X122350582Y-111039250D01*
X122406397Y-110843083D01*
X122425215Y-110640000D01*
X122406397Y-110436917D01*
X122350582Y-110240750D01*
X122259673Y-110058179D01*
X122136764Y-109895421D01*
X121986041Y-109758019D01*
X121812637Y-109650652D01*
X121622456Y-109576976D01*
X121622455Y-109576975D01*
X121622453Y-109576975D01*
X121421976Y-109539500D01*
X121218024Y-109539500D01*
X121017546Y-109576975D01*
X121017541Y-109576977D01*
X120827363Y-109650652D01*
X120718676Y-109717948D01*
X120653959Y-109758019D01*
X120503237Y-109895420D01*
X120380328Y-110058177D01*
X120380323Y-110058186D01*
X120298450Y-110222611D01*
X120289418Y-110240750D01*
X120233603Y-110436917D01*
X120214785Y-110640000D01*
X118665429Y-110640000D01*
X118645756Y-110427690D01*
X118587405Y-110222611D01*
X118492366Y-110031745D01*
X118363872Y-109861593D01*
X118309623Y-109812139D01*
X118206307Y-109717952D01*
X118206300Y-109717946D01*
X118025024Y-109605705D01*
X118025019Y-109605702D01*
X117973078Y-109585580D01*
X117826198Y-109528679D01*
X117826197Y-109528678D01*
X117826195Y-109528678D01*
X117616610Y-109489500D01*
X117403390Y-109489500D01*
X117193804Y-109528678D01*
X116994980Y-109605702D01*
X116994975Y-109605705D01*
X116813699Y-109717946D01*
X116813692Y-109717952D01*
X116656135Y-109861586D01*
X116656131Y-109861589D01*
X116656128Y-109861593D01*
X116656125Y-109861597D01*
X116527635Y-110031743D01*
X116527630Y-110031752D01*
X116432596Y-110222608D01*
X116374244Y-110427688D01*
X116374244Y-110427690D01*
X116354571Y-110640000D01*
X111045429Y-110640000D01*
X111025756Y-110427690D01*
X110967405Y-110222611D01*
X110872366Y-110031745D01*
X110743872Y-109861593D01*
X110689623Y-109812139D01*
X110586307Y-109717952D01*
X110586300Y-109717946D01*
X110405024Y-109605705D01*
X110405019Y-109605702D01*
X110353078Y-109585580D01*
X110206198Y-109528679D01*
X110206197Y-109528678D01*
X110206195Y-109528678D01*
X109996610Y-109489500D01*
X109783390Y-109489500D01*
X109573804Y-109528678D01*
X109374980Y-109605702D01*
X109374975Y-109605705D01*
X109193699Y-109717946D01*
X109193692Y-109717952D01*
X109036135Y-109861586D01*
X109036131Y-109861589D01*
X109036128Y-109861593D01*
X109036125Y-109861597D01*
X108907635Y-110031743D01*
X108907630Y-110031752D01*
X108812596Y-110222608D01*
X108754244Y-110427688D01*
X108754244Y-110427690D01*
X108734571Y-110640000D01*
X108385500Y-110640000D01*
X108385500Y-110211900D01*
X108404407Y-110153709D01*
X108414490Y-110141902D01*
X109363326Y-109193065D01*
X109417841Y-109165290D01*
X109469090Y-109170756D01*
X109573802Y-109211321D01*
X109783390Y-109250500D01*
X109996610Y-109250500D01*
X110206198Y-109211321D01*
X110405019Y-109134298D01*
X110586302Y-109022052D01*
X110743872Y-108878407D01*
X110872366Y-108708255D01*
X110967405Y-108517389D01*
X111025756Y-108312310D01*
X111045429Y-108100000D01*
X116354571Y-108100000D01*
X116374244Y-108312311D01*
X116391766Y-108373893D01*
X116432595Y-108517389D01*
X116527634Y-108708255D01*
X116656128Y-108878407D01*
X116726734Y-108942773D01*
X116813692Y-109022047D01*
X116813699Y-109022053D01*
X116836383Y-109036098D01*
X116994981Y-109134298D01*
X117193802Y-109211321D01*
X117403390Y-109250500D01*
X117616610Y-109250500D01*
X117826198Y-109211321D01*
X118025019Y-109134298D01*
X118206302Y-109022052D01*
X118363872Y-108878407D01*
X118492366Y-108708255D01*
X118587405Y-108517389D01*
X118645756Y-108312310D01*
X118665429Y-108100000D01*
X120214785Y-108100000D01*
X120233603Y-108303083D01*
X120289418Y-108499250D01*
X120380327Y-108681821D01*
X120503236Y-108844579D01*
X120653959Y-108981981D01*
X120827363Y-109089348D01*
X121017544Y-109163024D01*
X121218024Y-109200500D01*
X121421976Y-109200500D01*
X121622456Y-109163024D01*
X121812637Y-109089348D01*
X121986041Y-108981981D01*
X122136764Y-108844579D01*
X122259673Y-108681821D01*
X122350582Y-108499250D01*
X122406397Y-108303083D01*
X122425215Y-108100000D01*
X122406397Y-107896917D01*
X122350582Y-107700750D01*
X122259673Y-107518179D01*
X122136764Y-107355421D01*
X121986041Y-107218019D01*
X121812637Y-107110652D01*
X121622456Y-107036976D01*
X121622455Y-107036975D01*
X121622453Y-107036975D01*
X121421976Y-106999500D01*
X121218024Y-106999500D01*
X121017546Y-107036975D01*
X120995334Y-107045580D01*
X120827363Y-107110652D01*
X120718676Y-107177948D01*
X120653959Y-107218019D01*
X120503237Y-107355420D01*
X120380328Y-107518177D01*
X120380323Y-107518186D01*
X120298450Y-107682611D01*
X120289418Y-107700750D01*
X120233603Y-107896917D01*
X120214785Y-108100000D01*
X118665429Y-108100000D01*
X118645756Y-107887690D01*
X118587405Y-107682611D01*
X118492366Y-107491745D01*
X118363872Y-107321593D01*
X118271062Y-107236985D01*
X118206307Y-107177952D01*
X118206300Y-107177946D01*
X118025024Y-107065705D01*
X118025019Y-107065702D01*
X117826195Y-106988678D01*
X117616610Y-106949500D01*
X117403390Y-106949500D01*
X117193804Y-106988678D01*
X116994980Y-107065702D01*
X116994975Y-107065705D01*
X116813699Y-107177946D01*
X116813692Y-107177952D01*
X116656135Y-107321586D01*
X116656131Y-107321589D01*
X116656128Y-107321593D01*
X116656125Y-107321597D01*
X116527635Y-107491743D01*
X116527630Y-107491752D01*
X116432596Y-107682608D01*
X116374244Y-107887688D01*
X116354571Y-108100000D01*
X111045429Y-108100000D01*
X111025756Y-107887690D01*
X110967405Y-107682611D01*
X110872366Y-107491745D01*
X110767851Y-107353346D01*
X110747871Y-107295515D01*
X110765699Y-107236985D01*
X110801836Y-107207954D01*
X110800969Y-107206452D01*
X110897908Y-107150483D01*
X110897908Y-107150482D01*
X110897913Y-107150480D01*
X112242480Y-105805913D01*
X112267209Y-105763082D01*
X112295205Y-105714592D01*
X112295205Y-105714590D01*
X112295207Y-105714588D01*
X112322500Y-105612727D01*
X112322500Y-105560000D01*
X116354571Y-105560000D01*
X116374244Y-105772311D01*
X116383805Y-105805913D01*
X116432595Y-105977389D01*
X116527634Y-106168255D01*
X116656128Y-106338407D01*
X116718839Y-106395576D01*
X116813692Y-106482047D01*
X116813699Y-106482053D01*
X116844786Y-106501301D01*
X116994981Y-106594298D01*
X117193802Y-106671321D01*
X117403390Y-106710500D01*
X117616610Y-106710500D01*
X117826198Y-106671321D01*
X118025019Y-106594298D01*
X118206302Y-106482052D01*
X118363872Y-106338407D01*
X118492366Y-106168255D01*
X118587405Y-105977389D01*
X118645756Y-105772310D01*
X118665429Y-105560000D01*
X120214785Y-105560000D01*
X120233603Y-105763083D01*
X120289418Y-105959250D01*
X120380327Y-106141821D01*
X120503236Y-106304579D01*
X120653959Y-106441981D01*
X120827363Y-106549348D01*
X121017544Y-106623024D01*
X121218024Y-106660500D01*
X121421976Y-106660500D01*
X121622456Y-106623024D01*
X121812637Y-106549348D01*
X121986041Y-106441981D01*
X122136764Y-106304579D01*
X122259673Y-106141821D01*
X122350582Y-105959250D01*
X122406397Y-105763083D01*
X122425215Y-105560000D01*
X122406397Y-105356917D01*
X122350582Y-105160750D01*
X122259673Y-104978179D01*
X122136764Y-104815421D01*
X121986041Y-104678019D01*
X121812637Y-104570652D01*
X121622456Y-104496976D01*
X121622455Y-104496975D01*
X121622453Y-104496975D01*
X121421976Y-104459500D01*
X121218024Y-104459500D01*
X121017546Y-104496975D01*
X121017541Y-104496977D01*
X120827363Y-104570652D01*
X120718676Y-104637948D01*
X120653959Y-104678019D01*
X120503237Y-104815420D01*
X120380328Y-104978177D01*
X120380323Y-104978186D01*
X120298450Y-105142611D01*
X120289418Y-105160750D01*
X120233603Y-105356917D01*
X120214785Y-105560000D01*
X118665429Y-105560000D01*
X118645756Y-105347690D01*
X118587405Y-105142611D01*
X118492366Y-104951745D01*
X118363872Y-104781593D01*
X118275584Y-104701107D01*
X118206307Y-104637952D01*
X118206300Y-104637946D01*
X118025024Y-104525705D01*
X118025019Y-104525702D01*
X117973078Y-104505580D01*
X117826198Y-104448679D01*
X117826197Y-104448678D01*
X117826195Y-104448678D01*
X117616610Y-104409500D01*
X117403390Y-104409500D01*
X117193804Y-104448678D01*
X116994980Y-104525702D01*
X116994975Y-104525705D01*
X116813699Y-104637946D01*
X116813692Y-104637952D01*
X116656135Y-104781586D01*
X116656131Y-104781589D01*
X116656128Y-104781593D01*
X116656125Y-104781597D01*
X116527635Y-104951743D01*
X116527630Y-104951752D01*
X116432596Y-105142608D01*
X116374244Y-105347688D01*
X116354571Y-105560000D01*
X112322500Y-105560000D01*
X112322500Y-105507273D01*
X112322500Y-101691270D01*
X112341407Y-101633079D01*
X112351490Y-101621272D01*
X113492762Y-100480000D01*
X116354571Y-100480000D01*
X116374244Y-100692310D01*
X116432595Y-100897389D01*
X116527634Y-101088255D01*
X116656128Y-101258407D01*
X116681947Y-101281944D01*
X116813692Y-101402047D01*
X116813699Y-101402053D01*
X116836383Y-101416098D01*
X116994981Y-101514298D01*
X117193802Y-101591321D01*
X117403390Y-101630500D01*
X117616610Y-101630500D01*
X117826198Y-101591321D01*
X118025019Y-101514298D01*
X118206302Y-101402052D01*
X118363872Y-101258407D01*
X118492366Y-101088255D01*
X118587405Y-100897389D01*
X118645756Y-100692310D01*
X118665429Y-100480000D01*
X118645756Y-100267690D01*
X118587405Y-100062611D01*
X118492366Y-99871745D01*
X118363872Y-99701593D01*
X118269902Y-99615927D01*
X118206307Y-99557952D01*
X118206300Y-99557946D01*
X118025024Y-99445705D01*
X118025019Y-99445702D01*
X117826195Y-99368678D01*
X117616610Y-99329500D01*
X117403390Y-99329500D01*
X117193804Y-99368678D01*
X116994980Y-99445702D01*
X116994975Y-99445705D01*
X116813699Y-99557946D01*
X116813692Y-99557952D01*
X116656135Y-99701586D01*
X116656131Y-99701589D01*
X116656128Y-99701593D01*
X116656125Y-99701597D01*
X116527635Y-99871743D01*
X116527630Y-99871752D01*
X116432596Y-100062608D01*
X116374244Y-100267688D01*
X116374244Y-100267689D01*
X116374244Y-100267690D01*
X116354571Y-100480000D01*
X113492762Y-100480000D01*
X115850910Y-98121852D01*
X115850913Y-98121851D01*
X115925480Y-98047284D01*
X115978207Y-97955958D01*
X115982483Y-97940000D01*
X116354571Y-97940000D01*
X116372176Y-98129998D01*
X116374244Y-98152310D01*
X116432595Y-98357389D01*
X116527634Y-98548255D01*
X116656128Y-98718407D01*
X116656135Y-98718413D01*
X116813692Y-98862047D01*
X116813699Y-98862053D01*
X116858060Y-98889520D01*
X116994981Y-98974298D01*
X117193802Y-99051321D01*
X117403390Y-99090500D01*
X117616610Y-99090500D01*
X117826198Y-99051321D01*
X118025019Y-98974298D01*
X118206302Y-98862052D01*
X118363872Y-98718407D01*
X118492366Y-98548255D01*
X118587405Y-98357389D01*
X118645756Y-98152310D01*
X118665429Y-97940000D01*
X118645756Y-97727690D01*
X118587405Y-97522611D01*
X118492366Y-97331745D01*
X118363872Y-97161593D01*
X118293470Y-97097413D01*
X118206307Y-97017952D01*
X118206300Y-97017946D01*
X118025024Y-96905705D01*
X118025019Y-96905702D01*
X117958929Y-96880099D01*
X117826198Y-96828679D01*
X117826197Y-96828678D01*
X117826195Y-96828678D01*
X117616610Y-96789500D01*
X117403390Y-96789500D01*
X117193804Y-96828678D01*
X116994980Y-96905702D01*
X116994975Y-96905705D01*
X116813699Y-97017946D01*
X116813692Y-97017952D01*
X116656135Y-97161586D01*
X116656131Y-97161589D01*
X116656128Y-97161593D01*
X116656125Y-97161597D01*
X116527635Y-97331743D01*
X116527630Y-97331752D01*
X116432596Y-97522608D01*
X116374244Y-97727688D01*
X116354571Y-97940000D01*
X115982483Y-97940000D01*
X115984650Y-97931913D01*
X116005501Y-97854098D01*
X116005501Y-97748644D01*
X116005501Y-97742582D01*
X116005500Y-97742564D01*
X116005500Y-97511900D01*
X116024407Y-97453709D01*
X116034490Y-97441902D01*
X116983326Y-96493065D01*
X117037841Y-96465290D01*
X117089090Y-96470756D01*
X117193802Y-96511321D01*
X117403390Y-96550500D01*
X117616610Y-96550500D01*
X117826198Y-96511321D01*
X118025019Y-96434298D01*
X118206302Y-96322052D01*
X118363872Y-96178407D01*
X118492366Y-96008255D01*
X118587405Y-95817389D01*
X118645756Y-95612310D01*
X118665429Y-95400000D01*
X118645756Y-95187690D01*
X118587405Y-94982611D01*
X118492366Y-94791745D01*
X118363872Y-94621593D01*
X118298691Y-94562172D01*
X118206307Y-94477952D01*
X118206300Y-94477946D01*
X118025024Y-94365705D01*
X118025019Y-94365702D01*
X117826195Y-94288678D01*
X117616610Y-94249500D01*
X117403390Y-94249500D01*
X117193804Y-94288678D01*
X116994980Y-94365702D01*
X116994975Y-94365705D01*
X116813699Y-94477946D01*
X116813692Y-94477952D01*
X116656135Y-94621586D01*
X116656131Y-94621589D01*
X116656128Y-94621593D01*
X116656125Y-94621597D01*
X116527635Y-94791743D01*
X116527630Y-94791752D01*
X116432596Y-94982608D01*
X116374244Y-95187688D01*
X116354571Y-95400000D01*
X116374244Y-95612311D01*
X116432598Y-95817401D01*
X116434249Y-95821661D01*
X116432870Y-95822195D01*
X116440977Y-95876647D01*
X116413348Y-95930257D01*
X115774504Y-96569102D01*
X115719987Y-96596879D01*
X115659555Y-96587308D01*
X115616290Y-96544043D01*
X115605500Y-96499098D01*
X115605500Y-95371900D01*
X115624407Y-95313709D01*
X115634490Y-95301902D01*
X116983326Y-93953065D01*
X117037841Y-93925290D01*
X117089090Y-93930756D01*
X117193802Y-93971321D01*
X117403390Y-94010500D01*
X117616610Y-94010500D01*
X117826198Y-93971321D01*
X118025019Y-93894298D01*
X118206302Y-93782052D01*
X118363872Y-93638407D01*
X118492366Y-93468255D01*
X118587405Y-93277389D01*
X118645756Y-93072310D01*
X118665429Y-92860000D01*
X118645756Y-92647690D01*
X118587405Y-92442611D01*
X118492366Y-92251745D01*
X118363872Y-92081593D01*
X118298502Y-92022000D01*
X118206307Y-91937952D01*
X118206300Y-91937946D01*
X118025024Y-91825705D01*
X118025019Y-91825702D01*
X117854130Y-91759500D01*
X117826198Y-91748679D01*
X117826197Y-91748678D01*
X117826195Y-91748678D01*
X117616610Y-91709500D01*
X117403390Y-91709500D01*
X117193804Y-91748678D01*
X116994980Y-91825702D01*
X116994975Y-91825705D01*
X116813699Y-91937946D01*
X116813692Y-91937952D01*
X116656135Y-92081586D01*
X116656131Y-92081589D01*
X116656128Y-92081593D01*
X116656125Y-92081597D01*
X116527635Y-92251743D01*
X116527630Y-92251752D01*
X116432596Y-92442608D01*
X116374244Y-92647688D01*
X116354571Y-92860000D01*
X116374244Y-93072311D01*
X116432598Y-93277401D01*
X116434249Y-93281661D01*
X116432870Y-93282195D01*
X116440977Y-93336647D01*
X116413348Y-93390257D01*
X115374504Y-94429102D01*
X115319987Y-94456879D01*
X115259555Y-94447308D01*
X115216290Y-94404043D01*
X115205500Y-94359098D01*
X115205500Y-93231900D01*
X115224407Y-93173709D01*
X115234496Y-93161896D01*
X116107290Y-92289102D01*
X116983326Y-91413065D01*
X117037841Y-91385290D01*
X117089090Y-91390756D01*
X117193802Y-91431321D01*
X117403390Y-91470500D01*
X117616610Y-91470500D01*
X117826198Y-91431321D01*
X118025019Y-91354298D01*
X118206302Y-91242052D01*
X118363872Y-91098407D01*
X118492366Y-90928255D01*
X118587405Y-90737389D01*
X118645756Y-90532310D01*
X118665429Y-90320000D01*
X118645756Y-90107690D01*
X118587405Y-89902611D01*
X118492366Y-89711745D01*
X118363872Y-89541593D01*
X118271062Y-89456985D01*
X118206307Y-89397952D01*
X118206300Y-89397946D01*
X118025024Y-89285705D01*
X118025019Y-89285702D01*
X117826195Y-89208678D01*
X117616610Y-89169500D01*
X117403390Y-89169500D01*
X117193804Y-89208678D01*
X116994980Y-89285702D01*
X116994975Y-89285705D01*
X116813699Y-89397946D01*
X116813692Y-89397952D01*
X116656135Y-89541586D01*
X116656131Y-89541589D01*
X116656128Y-89541593D01*
X116656125Y-89541597D01*
X116527635Y-89711743D01*
X116527630Y-89711752D01*
X116432596Y-89902608D01*
X116374244Y-90107688D01*
X116354571Y-90320000D01*
X116374244Y-90532311D01*
X116432598Y-90737401D01*
X116434249Y-90741661D01*
X116432870Y-90742195D01*
X116440977Y-90796647D01*
X116413348Y-90850257D01*
X114974504Y-92289102D01*
X114919987Y-92316879D01*
X114859555Y-92307308D01*
X114816290Y-92264043D01*
X114805500Y-92219098D01*
X114805500Y-91091900D01*
X114824407Y-91033709D01*
X114834490Y-91021902D01*
X116983326Y-88873065D01*
X117037841Y-88845290D01*
X117089090Y-88850756D01*
X117193802Y-88891321D01*
X117403390Y-88930500D01*
X117616610Y-88930500D01*
X117826198Y-88891321D01*
X118025019Y-88814298D01*
X118206302Y-88702052D01*
X118363872Y-88558407D01*
X118492366Y-88388255D01*
X118587405Y-88197389D01*
X118645756Y-87992310D01*
X118665429Y-87780000D01*
X118645756Y-87567690D01*
X118587405Y-87362611D01*
X118492366Y-87171745D01*
X118363872Y-87001593D01*
X118306563Y-86949349D01*
X118206307Y-86857952D01*
X118206300Y-86857946D01*
X118025024Y-86745705D01*
X118025019Y-86745702D01*
X117826195Y-86668678D01*
X117616610Y-86629500D01*
X117403390Y-86629500D01*
X117193804Y-86668678D01*
X116994980Y-86745702D01*
X116994975Y-86745705D01*
X116813699Y-86857946D01*
X116813692Y-86857952D01*
X116656135Y-87001586D01*
X116656131Y-87001589D01*
X116656128Y-87001593D01*
X116656125Y-87001597D01*
X116527635Y-87171743D01*
X116527630Y-87171752D01*
X116432596Y-87362608D01*
X116374244Y-87567688D01*
X116354571Y-87780000D01*
X116374244Y-87992311D01*
X116432598Y-88197401D01*
X116434249Y-88201661D01*
X116432870Y-88202195D01*
X116440977Y-88256647D01*
X116413348Y-88310257D01*
X114084517Y-90639090D01*
X114084516Y-90639091D01*
X114031793Y-90730411D01*
X114031792Y-90730411D01*
X114031793Y-90730412D01*
X114004500Y-90832273D01*
X114004500Y-97097413D01*
X113985593Y-97155604D01*
X113975504Y-97167417D01*
X112362417Y-98780504D01*
X112307900Y-98808281D01*
X112292413Y-98809500D01*
X110873901Y-98809500D01*
X110815710Y-98790593D01*
X110779746Y-98741093D01*
X110779746Y-98679907D01*
X110794897Y-98650839D01*
X110872366Y-98548255D01*
X110967405Y-98357389D01*
X111025756Y-98152310D01*
X111045429Y-97940000D01*
X111025756Y-97727690D01*
X110967405Y-97522611D01*
X110872366Y-97331745D01*
X110743872Y-97161593D01*
X110678691Y-97102172D01*
X110648426Y-97048996D01*
X110655197Y-96988187D01*
X110675379Y-96959013D01*
X113061480Y-94572913D01*
X113093173Y-94518019D01*
X113098383Y-94508996D01*
X113114206Y-94481588D01*
X113114207Y-94481587D01*
X113141500Y-94379727D01*
X113141500Y-90215900D01*
X113160407Y-90157709D01*
X113170490Y-90145902D01*
X116983326Y-86333065D01*
X117037841Y-86305290D01*
X117089090Y-86310756D01*
X117193802Y-86351321D01*
X117403390Y-86390500D01*
X117616610Y-86390500D01*
X117826198Y-86351321D01*
X118025019Y-86274298D01*
X118206302Y-86162052D01*
X118363872Y-86018407D01*
X118492366Y-85848255D01*
X118587405Y-85657389D01*
X118645756Y-85452310D01*
X118665429Y-85240000D01*
X118645756Y-85027690D01*
X118587405Y-84822611D01*
X118492366Y-84631745D01*
X118363872Y-84461593D01*
X118309623Y-84412139D01*
X118206307Y-84317952D01*
X118206300Y-84317946D01*
X118025024Y-84205705D01*
X118025019Y-84205702D01*
X117826195Y-84128678D01*
X117616610Y-84089500D01*
X117403390Y-84089500D01*
X117193804Y-84128678D01*
X116994980Y-84205702D01*
X116994975Y-84205705D01*
X116813699Y-84317946D01*
X116813692Y-84317952D01*
X116656135Y-84461586D01*
X116656131Y-84461589D01*
X116656128Y-84461593D01*
X116656125Y-84461597D01*
X116527635Y-84631743D01*
X116527630Y-84631752D01*
X116432596Y-84822608D01*
X116374244Y-85027688D01*
X116354571Y-85240000D01*
X116374244Y-85452311D01*
X116432598Y-85657401D01*
X116434249Y-85661661D01*
X116432870Y-85662195D01*
X116440977Y-85716647D01*
X116413348Y-85770257D01*
X112910504Y-89273102D01*
X112855987Y-89300879D01*
X112795555Y-89291308D01*
X112752290Y-89248043D01*
X112741500Y-89203098D01*
X112741500Y-84265901D01*
X112760407Y-84207710D01*
X112770496Y-84195897D01*
X113836897Y-83129496D01*
X113891414Y-83101719D01*
X113906901Y-83100500D01*
X116362887Y-83100500D01*
X116421078Y-83119407D01*
X116451508Y-83155372D01*
X116527634Y-83308255D01*
X116656128Y-83478407D01*
X116656135Y-83478413D01*
X116813692Y-83622047D01*
X116813699Y-83622053D01*
X116917389Y-83686255D01*
X116994981Y-83734298D01*
X117193802Y-83811321D01*
X117403390Y-83850500D01*
X117616610Y-83850500D01*
X117826198Y-83811321D01*
X118025019Y-83734298D01*
X118206302Y-83622052D01*
X118363872Y-83478407D01*
X118492366Y-83308255D01*
X118587405Y-83117389D01*
X118645756Y-82912310D01*
X118665429Y-82700000D01*
X118645756Y-82487690D01*
X118587405Y-82282611D01*
X118492366Y-82091745D01*
X118363872Y-81921593D01*
X118309623Y-81872139D01*
X118206307Y-81777952D01*
X118206300Y-81777946D01*
X118025024Y-81665705D01*
X118025019Y-81665702D01*
X117932592Y-81629896D01*
X117826198Y-81588679D01*
X117826197Y-81588678D01*
X117826195Y-81588678D01*
X117616610Y-81549500D01*
X117403390Y-81549500D01*
X117193804Y-81588678D01*
X116994980Y-81665702D01*
X116994975Y-81665705D01*
X116813699Y-81777946D01*
X116813692Y-81777952D01*
X116656135Y-81921586D01*
X116656131Y-81921589D01*
X116656128Y-81921593D01*
X116656125Y-81921597D01*
X116527635Y-82091743D01*
X116527630Y-82091752D01*
X116451508Y-82244628D01*
X116408646Y-82288290D01*
X116362887Y-82299500D01*
X114201587Y-82299500D01*
X114143396Y-82280593D01*
X114107432Y-82231093D01*
X114107432Y-82169907D01*
X114131583Y-82130496D01*
X115672582Y-80589496D01*
X115727099Y-80561719D01*
X115742586Y-80560500D01*
X116362887Y-80560500D01*
X116421078Y-80579407D01*
X116451508Y-80615372D01*
X116527634Y-80768255D01*
X116656128Y-80938407D01*
X116656135Y-80938413D01*
X116813692Y-81082047D01*
X116813699Y-81082053D01*
X116917389Y-81146255D01*
X116994981Y-81194298D01*
X117193802Y-81271321D01*
X117403390Y-81310500D01*
X117616610Y-81310500D01*
X117826198Y-81271321D01*
X118025019Y-81194298D01*
X118206302Y-81082052D01*
X118363872Y-80938407D01*
X118492366Y-80768255D01*
X118587405Y-80577389D01*
X118645756Y-80372310D01*
X118665429Y-80160000D01*
X118645756Y-79947690D01*
X118587405Y-79742611D01*
X118492366Y-79551745D01*
X118363872Y-79381593D01*
X118297611Y-79321188D01*
X118206307Y-79237952D01*
X118206300Y-79237946D01*
X118025024Y-79125705D01*
X118025019Y-79125702D01*
X117854130Y-79059500D01*
X117826198Y-79048679D01*
X117826197Y-79048678D01*
X117826195Y-79048678D01*
X117616610Y-79009500D01*
X117403390Y-79009500D01*
X117193804Y-79048678D01*
X116994980Y-79125702D01*
X116994975Y-79125705D01*
X116813699Y-79237946D01*
X116813692Y-79237952D01*
X116656135Y-79381586D01*
X116656131Y-79381589D01*
X116656128Y-79381593D01*
X116656125Y-79381597D01*
X116527635Y-79551743D01*
X116527630Y-79551752D01*
X116451508Y-79704628D01*
X116408646Y-79748290D01*
X116362887Y-79759500D01*
X116175900Y-79759500D01*
X116117709Y-79740593D01*
X116081745Y-79691093D01*
X116081745Y-79629907D01*
X116105896Y-79590496D01*
X116983324Y-78713067D01*
X117037841Y-78685290D01*
X117089090Y-78690756D01*
X117162978Y-78719380D01*
X117193802Y-78731321D01*
X117403390Y-78770500D01*
X117616610Y-78770500D01*
X117826198Y-78731321D01*
X118025019Y-78654298D01*
X118206302Y-78542052D01*
X118363872Y-78398407D01*
X118492366Y-78228255D01*
X118587405Y-78037389D01*
X118645756Y-77832310D01*
X118665429Y-77620000D01*
X118645756Y-77407690D01*
X118587405Y-77202611D01*
X118492366Y-77011745D01*
X118363872Y-76841593D01*
X118309623Y-76792139D01*
X118206307Y-76697952D01*
X118206300Y-76697946D01*
X118069383Y-76613171D01*
X118029862Y-76566463D01*
X118025343Y-76505444D01*
X118057553Y-76453424D01*
X118114189Y-76430270D01*
X118121500Y-76430000D01*
X118407824Y-76430000D01*
X118467370Y-76423598D01*
X118467381Y-76423596D01*
X118602088Y-76373353D01*
X118602090Y-76373352D01*
X118717184Y-76287192D01*
X118717192Y-76287184D01*
X118803352Y-76172090D01*
X118803353Y-76172088D01*
X118853596Y-76037381D01*
X118853598Y-76037370D01*
X118860000Y-75977824D01*
X118860000Y-75330001D01*
X118859999Y-75330000D01*
X117943012Y-75330000D01*
X117975925Y-75272993D01*
X118010000Y-75145826D01*
X118010000Y-75080000D01*
X120214785Y-75080000D01*
X120233603Y-75283083D01*
X120289418Y-75479250D01*
X120380327Y-75661821D01*
X120503236Y-75824579D01*
X120653959Y-75961981D01*
X120827363Y-76069348D01*
X121017544Y-76143024D01*
X121218024Y-76180500D01*
X121421976Y-76180500D01*
X121622456Y-76143024D01*
X121702259Y-76112107D01*
X121763351Y-76108718D01*
X121808026Y-76134419D01*
X123237375Y-77563768D01*
X123265152Y-77618285D01*
X123258836Y-77671655D01*
X123239956Y-77717238D01*
X123239955Y-77717238D01*
X123219318Y-77873999D01*
X123219318Y-77874000D01*
X123239955Y-78030758D01*
X123239957Y-78030766D01*
X123300462Y-78176838D01*
X123300462Y-78176839D01*
X123396713Y-78302276D01*
X123396718Y-78302282D01*
X123522159Y-78398536D01*
X123668238Y-78459044D01*
X123785809Y-78474522D01*
X123824999Y-78479682D01*
X123825000Y-78479682D01*
X123825001Y-78479682D01*
X123856352Y-78475554D01*
X123981762Y-78459044D01*
X124127841Y-78398536D01*
X124253282Y-78302282D01*
X124349536Y-78176841D01*
X124410044Y-78030762D01*
X124430682Y-77874000D01*
X124410044Y-77717238D01*
X124369056Y-77618285D01*
X124349537Y-77571161D01*
X124349537Y-77571160D01*
X124253286Y-77445723D01*
X124253285Y-77445722D01*
X124253282Y-77445718D01*
X124185888Y-77394005D01*
X124160421Y-77364967D01*
X124145480Y-77339087D01*
X122377336Y-75570943D01*
X122349559Y-75516426D01*
X122352118Y-75473848D01*
X122406397Y-75283083D01*
X122425215Y-75080000D01*
X122406397Y-74876917D01*
X122350582Y-74680750D01*
X122259673Y-74498179D01*
X122136764Y-74335421D01*
X121986041Y-74198019D01*
X121812637Y-74090652D01*
X121622456Y-74016976D01*
X121622455Y-74016975D01*
X121622453Y-74016975D01*
X121421976Y-73979500D01*
X121218024Y-73979500D01*
X121017546Y-74016975D01*
X120967371Y-74036413D01*
X120827363Y-74090652D01*
X120679548Y-74182175D01*
X120653959Y-74198019D01*
X120503237Y-74335420D01*
X120380328Y-74498177D01*
X120380323Y-74498186D01*
X120289791Y-74680000D01*
X120289418Y-74680750D01*
X120233603Y-74876917D01*
X120214785Y-75080000D01*
X118010000Y-75080000D01*
X118010000Y-75014174D01*
X117975925Y-74887007D01*
X117943012Y-74830000D01*
X118859999Y-74830000D01*
X118860000Y-74829999D01*
X118860000Y-74182175D01*
X118853598Y-74122629D01*
X118853596Y-74122618D01*
X118803353Y-73987911D01*
X118803352Y-73987909D01*
X118717192Y-73872815D01*
X118717184Y-73872807D01*
X118602090Y-73786647D01*
X118602088Y-73786646D01*
X118467381Y-73736403D01*
X118467370Y-73736401D01*
X118407824Y-73730000D01*
X117760001Y-73730000D01*
X117760000Y-73730001D01*
X117760000Y-74646988D01*
X117702993Y-74614075D01*
X117575826Y-74580000D01*
X117444174Y-74580000D01*
X117317007Y-74614075D01*
X117260000Y-74646988D01*
X117260000Y-73730001D01*
X117259999Y-73730000D01*
X116612176Y-73730000D01*
X116552629Y-73736401D01*
X116552618Y-73736403D01*
X116417911Y-73786646D01*
X116417909Y-73786647D01*
X116302815Y-73872807D01*
X116302807Y-73872815D01*
X116216647Y-73987909D01*
X116216646Y-73987911D01*
X116166403Y-74122618D01*
X116166401Y-74122629D01*
X116160000Y-74182175D01*
X116160000Y-74829999D01*
X116160001Y-74830000D01*
X117076988Y-74830000D01*
X117044075Y-74887007D01*
X117010000Y-75014174D01*
X117010000Y-75145826D01*
X117044075Y-75272993D01*
X117076988Y-75330000D01*
X116160001Y-75330000D01*
X116160000Y-75330001D01*
X116160000Y-75977824D01*
X116159999Y-75977824D01*
X116166401Y-76037370D01*
X116166403Y-76037381D01*
X116216646Y-76172088D01*
X116216647Y-76172090D01*
X116302807Y-76287184D01*
X116302815Y-76287192D01*
X116417909Y-76373352D01*
X116417911Y-76373353D01*
X116552618Y-76423596D01*
X116552629Y-76423598D01*
X116612176Y-76430000D01*
X116898500Y-76430000D01*
X116956691Y-76448907D01*
X116992655Y-76498407D01*
X116992655Y-76559593D01*
X116956691Y-76609093D01*
X116950617Y-76613171D01*
X116813699Y-76697946D01*
X116813692Y-76697952D01*
X116656135Y-76841586D01*
X116656131Y-76841589D01*
X116656128Y-76841593D01*
X116656125Y-76841597D01*
X116527635Y-77011743D01*
X116527630Y-77011752D01*
X116514468Y-77038186D01*
X116432595Y-77202611D01*
X116427434Y-77220750D01*
X116374244Y-77407688D01*
X116354571Y-77620000D01*
X116374244Y-77832311D01*
X116432598Y-78037401D01*
X116434249Y-78041661D01*
X116432870Y-78042195D01*
X116440977Y-78096647D01*
X116413348Y-78150257D01*
X111220517Y-83343090D01*
X111220516Y-83343091D01*
X111167794Y-83434407D01*
X111167793Y-83434412D01*
X111143227Y-83526098D01*
X111140500Y-83536274D01*
X111140500Y-84749310D01*
X111121593Y-84807501D01*
X111072093Y-84843465D01*
X111010907Y-84843465D01*
X110961407Y-84807501D01*
X110952879Y-84793438D01*
X110887347Y-84661832D01*
X110872366Y-84631745D01*
X110743872Y-84461593D01*
X110689623Y-84412139D01*
X110586307Y-84317952D01*
X110586300Y-84317946D01*
X110405024Y-84205705D01*
X110405019Y-84205702D01*
X110206195Y-84128678D01*
X109996610Y-84089500D01*
X109783390Y-84089500D01*
X109573804Y-84128678D01*
X109374980Y-84205702D01*
X109374975Y-84205705D01*
X109193699Y-84317946D01*
X109193692Y-84317952D01*
X109036135Y-84461586D01*
X109036131Y-84461589D01*
X109036128Y-84461593D01*
X109036125Y-84461597D01*
X108907635Y-84631743D01*
X108907630Y-84631752D01*
X108812596Y-84822608D01*
X108754244Y-85027688D01*
X108754244Y-85027690D01*
X108734571Y-85240000D01*
X108754244Y-85452310D01*
X108812595Y-85657389D01*
X108907634Y-85848255D01*
X109036128Y-86018407D01*
X109106734Y-86082773D01*
X109193692Y-86162047D01*
X109193699Y-86162053D01*
X109238060Y-86189520D01*
X109374981Y-86274298D01*
X109573802Y-86351321D01*
X109783390Y-86390500D01*
X109996610Y-86390500D01*
X110206198Y-86351321D01*
X110405019Y-86274298D01*
X110586302Y-86162052D01*
X110743872Y-86018407D01*
X110872366Y-85848255D01*
X110952879Y-85686560D01*
X110995741Y-85642899D01*
X111056082Y-85632769D01*
X111110853Y-85660041D01*
X111139134Y-85714299D01*
X111140500Y-85730689D01*
X111140500Y-87289310D01*
X111121593Y-87347501D01*
X111072093Y-87383465D01*
X111010907Y-87383465D01*
X110961407Y-87347501D01*
X110952879Y-87333438D01*
X110872369Y-87171752D01*
X110872366Y-87171745D01*
X110743872Y-87001593D01*
X110686563Y-86949349D01*
X110586307Y-86857952D01*
X110586300Y-86857946D01*
X110405024Y-86745705D01*
X110405019Y-86745702D01*
X110206195Y-86668678D01*
X109996610Y-86629500D01*
X109783390Y-86629500D01*
X109573804Y-86668678D01*
X109374980Y-86745702D01*
X109374975Y-86745705D01*
X109193699Y-86857946D01*
X109193692Y-86857952D01*
X109036135Y-87001586D01*
X109036131Y-87001589D01*
X109036128Y-87001593D01*
X109036125Y-87001597D01*
X108907635Y-87171743D01*
X108907630Y-87171752D01*
X108812596Y-87362608D01*
X108754244Y-87567688D01*
X108734571Y-87780000D01*
X108739366Y-87831753D01*
X108754244Y-87992310D01*
X108807434Y-88179252D01*
X108812596Y-88197391D01*
X108871450Y-88315588D01*
X108907634Y-88388255D01*
X109036128Y-88558407D01*
X109036135Y-88558413D01*
X109055934Y-88576463D01*
X109086200Y-88629638D01*
X109079429Y-88690448D01*
X109052186Y-88724788D01*
X109052330Y-88724932D01*
X109051080Y-88726181D01*
X109049507Y-88728165D01*
X109047744Y-88729517D01*
X108027504Y-89749757D01*
X107972987Y-89777534D01*
X107912555Y-89767963D01*
X107869290Y-89724698D01*
X107858500Y-89679753D01*
X107858500Y-89105274D01*
X107858500Y-89105273D01*
X107831207Y-89003413D01*
X107831207Y-89003412D01*
X107789111Y-88930500D01*
X107778483Y-88912091D01*
X107778482Y-88912090D01*
X107778481Y-88912089D01*
X107778480Y-88912087D01*
X107137336Y-88270943D01*
X107109559Y-88216426D01*
X107112118Y-88173848D01*
X107166397Y-87983083D01*
X107185215Y-87780000D01*
X107166397Y-87576917D01*
X107110582Y-87380750D01*
X107019673Y-87198179D01*
X106896764Y-87035421D01*
X106746041Y-86898019D01*
X106572637Y-86790652D01*
X106382456Y-86716976D01*
X106382455Y-86716975D01*
X106382453Y-86716975D01*
X106181976Y-86679500D01*
X105978024Y-86679500D01*
X105777546Y-86716975D01*
X105707632Y-86744059D01*
X105587363Y-86790652D01*
X105478676Y-86857948D01*
X105413959Y-86898019D01*
X105263237Y-87035420D01*
X105140328Y-87198177D01*
X105140323Y-87198186D01*
X105058450Y-87362611D01*
X105049418Y-87380750D01*
X104993603Y-87576917D01*
X104974785Y-87780000D01*
X104993603Y-87983083D01*
X105049418Y-88179250D01*
X105140327Y-88361821D01*
X105263236Y-88524579D01*
X105413959Y-88661981D01*
X105587363Y-88769348D01*
X105777544Y-88843024D01*
X105978024Y-88880500D01*
X106181976Y-88880500D01*
X106382456Y-88843024D01*
X106462259Y-88812107D01*
X106523351Y-88808718D01*
X106568026Y-88834419D01*
X107028504Y-89294897D01*
X107056281Y-89349414D01*
X107057500Y-89364901D01*
X107057500Y-89497738D01*
X107038593Y-89555929D01*
X106989093Y-89591893D01*
X106927907Y-89591893D01*
X106891805Y-89570901D01*
X106746041Y-89438019D01*
X106572637Y-89330652D01*
X106382456Y-89256976D01*
X106382455Y-89256975D01*
X106382453Y-89256975D01*
X106181976Y-89219500D01*
X105978024Y-89219500D01*
X105777546Y-89256975D01*
X105707632Y-89284059D01*
X105587363Y-89330652D01*
X105437881Y-89423207D01*
X105413959Y-89438019D01*
X105263237Y-89575420D01*
X105140328Y-89738177D01*
X105140323Y-89738186D01*
X105058450Y-89902611D01*
X105049418Y-89920750D01*
X104993603Y-90116917D01*
X104974785Y-90320000D01*
X104993603Y-90523083D01*
X105049418Y-90719250D01*
X105140327Y-90901821D01*
X105263236Y-91064579D01*
X105413959Y-91201981D01*
X105587363Y-91309348D01*
X105777544Y-91383024D01*
X105978024Y-91420500D01*
X106181976Y-91420500D01*
X106382456Y-91383024D01*
X106572637Y-91309348D01*
X106746041Y-91201981D01*
X106891807Y-91069097D01*
X106947545Y-91043869D01*
X107007471Y-91056221D01*
X107048691Y-91101438D01*
X107057500Y-91142261D01*
X107057500Y-92037738D01*
X107038593Y-92095929D01*
X106989093Y-92131893D01*
X106927907Y-92131893D01*
X106891805Y-92110901D01*
X106746041Y-91978019D01*
X106572637Y-91870652D01*
X106382456Y-91796976D01*
X106382455Y-91796975D01*
X106382453Y-91796975D01*
X106181976Y-91759500D01*
X105978024Y-91759500D01*
X105777546Y-91796975D01*
X105707632Y-91824059D01*
X105587363Y-91870652D01*
X105413959Y-91978019D01*
X105263236Y-92115421D01*
X105184139Y-92220162D01*
X105133984Y-92255204D01*
X105105137Y-92259500D01*
X104223192Y-92259500D01*
X104165001Y-92240593D01*
X104144308Y-92220318D01*
X104119036Y-92186991D01*
X104098941Y-92129200D01*
X104116653Y-92070634D01*
X104145948Y-92042912D01*
X104187237Y-92017444D01*
X104309146Y-91895535D01*
X104399651Y-91748806D01*
X104453881Y-91585148D01*
X104464200Y-91484155D01*
X104464200Y-91385001D01*
X104464199Y-91385000D01*
X103338200Y-91385000D01*
X103280009Y-91366093D01*
X103244045Y-91316593D01*
X103239200Y-91286000D01*
X103239200Y-90097501D01*
X103739200Y-90097501D01*
X103739200Y-90884999D01*
X103739201Y-90885000D01*
X104464198Y-90885000D01*
X104464199Y-90884999D01*
X104464199Y-90785845D01*
X104453882Y-90684857D01*
X104453879Y-90684845D01*
X104399651Y-90521193D01*
X104309146Y-90374464D01*
X104187235Y-90252553D01*
X104040506Y-90162048D01*
X103876848Y-90107818D01*
X103775855Y-90097500D01*
X103739201Y-90097500D01*
X103739200Y-90097501D01*
X103239200Y-90097501D01*
X103239200Y-90097500D01*
X103202557Y-90097500D01*
X103202551Y-90097501D01*
X103101557Y-90107817D01*
X103101545Y-90107820D01*
X102932424Y-90163861D01*
X102932012Y-90162620D01*
X102877596Y-90169294D01*
X102824087Y-90139624D01*
X102798236Y-90084167D01*
X102797500Y-90072116D01*
X102797500Y-85240000D01*
X104974785Y-85240000D01*
X104993603Y-85443083D01*
X105049418Y-85639250D01*
X105140327Y-85821821D01*
X105263236Y-85984579D01*
X105413959Y-86121981D01*
X105587363Y-86229348D01*
X105777544Y-86303024D01*
X105978024Y-86340500D01*
X106181976Y-86340500D01*
X106382456Y-86303024D01*
X106572637Y-86229348D01*
X106746041Y-86121981D01*
X106896764Y-85984579D01*
X107019673Y-85821821D01*
X107110582Y-85639250D01*
X107166397Y-85443083D01*
X107185215Y-85240000D01*
X107166397Y-85036917D01*
X107110582Y-84840750D01*
X107019673Y-84658179D01*
X106896764Y-84495421D01*
X106746041Y-84358019D01*
X106572637Y-84250652D01*
X106382456Y-84176976D01*
X106382455Y-84176975D01*
X106382453Y-84176975D01*
X106181976Y-84139500D01*
X105978024Y-84139500D01*
X105777546Y-84176975D01*
X105728703Y-84195897D01*
X105587363Y-84250652D01*
X105413959Y-84358019D01*
X105263236Y-84495421D01*
X105249030Y-84514233D01*
X105140328Y-84658177D01*
X105140323Y-84658186D01*
X105050040Y-84839500D01*
X105049418Y-84840750D01*
X104993603Y-85036917D01*
X104974785Y-85240000D01*
X102797500Y-85240000D01*
X102797500Y-82700000D01*
X104974785Y-82700000D01*
X104993603Y-82903083D01*
X105049418Y-83099250D01*
X105140327Y-83281821D01*
X105263236Y-83444579D01*
X105413959Y-83581981D01*
X105587363Y-83689348D01*
X105777544Y-83763024D01*
X105978024Y-83800500D01*
X106181976Y-83800500D01*
X106382456Y-83763024D01*
X106572637Y-83689348D01*
X106746041Y-83581981D01*
X106896764Y-83444579D01*
X107019673Y-83281821D01*
X107110582Y-83099250D01*
X107166397Y-82903083D01*
X107185215Y-82700000D01*
X108734571Y-82700000D01*
X108754244Y-82912310D01*
X108812595Y-83117389D01*
X108907634Y-83308255D01*
X109036128Y-83478407D01*
X109036135Y-83478413D01*
X109193692Y-83622047D01*
X109193699Y-83622053D01*
X109297389Y-83686255D01*
X109374981Y-83734298D01*
X109573802Y-83811321D01*
X109783390Y-83850500D01*
X109996610Y-83850500D01*
X110206198Y-83811321D01*
X110405019Y-83734298D01*
X110586302Y-83622052D01*
X110743872Y-83478407D01*
X110872366Y-83308255D01*
X110967405Y-83117389D01*
X111025756Y-82912310D01*
X111045429Y-82700000D01*
X111025756Y-82487690D01*
X110967405Y-82282611D01*
X110872366Y-82091745D01*
X110743872Y-81921593D01*
X110689623Y-81872139D01*
X110586307Y-81777952D01*
X110586300Y-81777946D01*
X110405024Y-81665705D01*
X110405019Y-81665702D01*
X110312592Y-81629896D01*
X110206198Y-81588679D01*
X110206197Y-81588678D01*
X110206195Y-81588678D01*
X109996610Y-81549500D01*
X109783390Y-81549500D01*
X109573804Y-81588678D01*
X109374980Y-81665702D01*
X109374975Y-81665705D01*
X109193699Y-81777946D01*
X109193692Y-81777952D01*
X109036135Y-81921586D01*
X109036131Y-81921589D01*
X109036128Y-81921593D01*
X109036125Y-81921597D01*
X108907635Y-82091743D01*
X108907630Y-82091752D01*
X108812596Y-82282608D01*
X108754244Y-82487688D01*
X108754244Y-82487690D01*
X108734571Y-82700000D01*
X107185215Y-82700000D01*
X107166397Y-82496917D01*
X107110582Y-82300750D01*
X107019673Y-82118179D01*
X106896764Y-81955421D01*
X106746041Y-81818019D01*
X106572637Y-81710652D01*
X106382456Y-81636976D01*
X106382455Y-81636975D01*
X106382453Y-81636975D01*
X106181976Y-81599500D01*
X105978024Y-81599500D01*
X105777546Y-81636975D01*
X105707632Y-81664059D01*
X105587363Y-81710652D01*
X105478676Y-81777948D01*
X105413959Y-81818019D01*
X105263237Y-81955420D01*
X105140328Y-82118177D01*
X105140323Y-82118186D01*
X105058450Y-82282611D01*
X105049418Y-82300750D01*
X104993603Y-82496917D01*
X104974785Y-82700000D01*
X102797500Y-82700000D01*
X102797500Y-80160000D01*
X104974785Y-80160000D01*
X104993603Y-80363083D01*
X105049418Y-80559250D01*
X105140327Y-80741821D01*
X105263236Y-80904579D01*
X105413959Y-81041981D01*
X105587363Y-81149348D01*
X105777544Y-81223024D01*
X105978024Y-81260500D01*
X106181976Y-81260500D01*
X106382456Y-81223024D01*
X106572637Y-81149348D01*
X106746041Y-81041981D01*
X106896764Y-80904579D01*
X107019673Y-80741821D01*
X107110582Y-80559250D01*
X107166397Y-80363083D01*
X107185215Y-80160000D01*
X108734571Y-80160000D01*
X108754244Y-80372310D01*
X108812595Y-80577389D01*
X108907634Y-80768255D01*
X109036128Y-80938407D01*
X109036135Y-80938413D01*
X109193692Y-81082047D01*
X109193699Y-81082053D01*
X109297389Y-81146255D01*
X109374981Y-81194298D01*
X109573802Y-81271321D01*
X109783390Y-81310500D01*
X109996610Y-81310500D01*
X110206198Y-81271321D01*
X110405019Y-81194298D01*
X110586302Y-81082052D01*
X110743872Y-80938407D01*
X110872366Y-80768255D01*
X110967405Y-80577389D01*
X111025756Y-80372310D01*
X111045429Y-80160000D01*
X111025756Y-79947690D01*
X110967405Y-79742611D01*
X110872366Y-79551745D01*
X110743872Y-79381593D01*
X110677611Y-79321188D01*
X110586307Y-79237952D01*
X110586300Y-79237946D01*
X110405024Y-79125705D01*
X110405019Y-79125702D01*
X110234130Y-79059500D01*
X110206198Y-79048679D01*
X110206197Y-79048678D01*
X110206195Y-79048678D01*
X109996610Y-79009500D01*
X109783390Y-79009500D01*
X109573804Y-79048678D01*
X109374980Y-79125702D01*
X109374975Y-79125705D01*
X109193699Y-79237946D01*
X109193692Y-79237952D01*
X109036135Y-79381586D01*
X109036131Y-79381589D01*
X109036128Y-79381593D01*
X109036125Y-79381597D01*
X108907635Y-79551743D01*
X108907630Y-79551752D01*
X108812596Y-79742608D01*
X108754244Y-79947688D01*
X108754244Y-79947690D01*
X108734571Y-80160000D01*
X107185215Y-80160000D01*
X107166397Y-79956917D01*
X107110582Y-79760750D01*
X107019673Y-79578179D01*
X106896764Y-79415421D01*
X106746041Y-79278019D01*
X106572637Y-79170652D01*
X106382456Y-79096976D01*
X106382455Y-79096975D01*
X106382453Y-79096975D01*
X106181976Y-79059500D01*
X105978024Y-79059500D01*
X105777546Y-79096975D01*
X105707632Y-79124059D01*
X105587363Y-79170652D01*
X105478676Y-79237948D01*
X105413959Y-79278019D01*
X105263237Y-79415420D01*
X105140328Y-79578177D01*
X105140323Y-79578186D01*
X105058450Y-79742611D01*
X105049418Y-79760750D01*
X104993603Y-79956917D01*
X104974785Y-80160000D01*
X102797500Y-80160000D01*
X102797500Y-75927824D01*
X104779999Y-75927824D01*
X104786401Y-75987370D01*
X104786403Y-75987381D01*
X104836646Y-76122088D01*
X104836647Y-76122090D01*
X104922807Y-76237184D01*
X104922815Y-76237192D01*
X105037909Y-76323352D01*
X105037911Y-76323353D01*
X105172618Y-76373596D01*
X105172629Y-76373598D01*
X105232176Y-76380000D01*
X105704769Y-76380000D01*
X105762960Y-76398907D01*
X105798924Y-76448407D01*
X105798924Y-76509593D01*
X105762960Y-76559093D01*
X105740535Y-76571313D01*
X105587363Y-76630652D01*
X105478676Y-76697948D01*
X105413959Y-76738019D01*
X105263237Y-76875420D01*
X105140328Y-77038177D01*
X105140323Y-77038186D01*
X105058450Y-77202611D01*
X105049418Y-77220750D01*
X104993603Y-77416917D01*
X104974785Y-77620000D01*
X104993603Y-77823083D01*
X105049418Y-78019250D01*
X105140327Y-78201821D01*
X105263236Y-78364579D01*
X105413959Y-78501981D01*
X105587363Y-78609348D01*
X105777544Y-78683024D01*
X105978024Y-78720500D01*
X106181976Y-78720500D01*
X106382456Y-78683024D01*
X106572637Y-78609348D01*
X106746041Y-78501981D01*
X106896764Y-78364579D01*
X107019673Y-78201821D01*
X107110582Y-78019250D01*
X107166397Y-77823083D01*
X107185215Y-77620000D01*
X107166397Y-77416917D01*
X107110582Y-77220750D01*
X107019673Y-77038179D01*
X106896764Y-76875421D01*
X106746041Y-76738019D01*
X106572637Y-76630652D01*
X106419466Y-76571313D01*
X106372037Y-76532663D01*
X106356383Y-76473514D01*
X106378486Y-76416461D01*
X106429902Y-76383295D01*
X106455231Y-76380000D01*
X106927824Y-76380000D01*
X106987370Y-76373598D01*
X106987381Y-76373596D01*
X107122088Y-76323353D01*
X107122090Y-76323352D01*
X107237184Y-76237192D01*
X107237192Y-76237184D01*
X107323352Y-76122090D01*
X107323353Y-76122088D01*
X107373596Y-75987381D01*
X107373598Y-75987370D01*
X107374624Y-75977824D01*
X108539999Y-75977824D01*
X108546401Y-76037370D01*
X108546403Y-76037381D01*
X108596646Y-76172088D01*
X108596647Y-76172090D01*
X108682807Y-76287184D01*
X108682815Y-76287192D01*
X108797909Y-76373352D01*
X108797911Y-76373353D01*
X108932618Y-76423596D01*
X108932629Y-76423598D01*
X108992176Y-76430000D01*
X109278500Y-76430000D01*
X109336691Y-76448907D01*
X109372655Y-76498407D01*
X109372655Y-76559593D01*
X109336691Y-76609093D01*
X109330617Y-76613171D01*
X109193699Y-76697946D01*
X109193692Y-76697952D01*
X109036135Y-76841586D01*
X109036131Y-76841589D01*
X109036128Y-76841593D01*
X109036125Y-76841597D01*
X108907635Y-77011743D01*
X108907630Y-77011752D01*
X108894468Y-77038186D01*
X108812595Y-77202611D01*
X108807434Y-77220750D01*
X108754244Y-77407688D01*
X108734571Y-77620000D01*
X108743581Y-77717241D01*
X108754244Y-77832310D01*
X108812595Y-78037389D01*
X108907634Y-78228255D01*
X109036128Y-78398407D01*
X109036135Y-78398413D01*
X109193692Y-78542047D01*
X109193699Y-78542053D01*
X109297389Y-78606255D01*
X109374981Y-78654298D01*
X109573802Y-78731321D01*
X109783390Y-78770500D01*
X109996610Y-78770500D01*
X110206198Y-78731321D01*
X110405019Y-78654298D01*
X110586302Y-78542052D01*
X110743872Y-78398407D01*
X110872366Y-78228255D01*
X110967405Y-78037389D01*
X111025756Y-77832310D01*
X111045429Y-77620000D01*
X111025756Y-77407690D01*
X110967405Y-77202611D01*
X110872366Y-77011745D01*
X110743872Y-76841593D01*
X110689623Y-76792139D01*
X110586307Y-76697952D01*
X110586300Y-76697946D01*
X110449383Y-76613171D01*
X110409862Y-76566463D01*
X110405343Y-76505444D01*
X110437553Y-76453424D01*
X110494189Y-76430270D01*
X110501500Y-76430000D01*
X110787824Y-76430000D01*
X110847370Y-76423598D01*
X110847381Y-76423596D01*
X110982088Y-76373353D01*
X110982090Y-76373352D01*
X111097184Y-76287192D01*
X111097192Y-76287184D01*
X111183352Y-76172090D01*
X111183353Y-76172088D01*
X111233596Y-76037381D01*
X111233598Y-76037370D01*
X111240000Y-75977824D01*
X111240000Y-75330001D01*
X111239999Y-75330000D01*
X110323012Y-75330000D01*
X110355925Y-75272993D01*
X110390000Y-75145826D01*
X110390000Y-75014174D01*
X110355925Y-74887007D01*
X110323012Y-74830000D01*
X111239999Y-74830000D01*
X111240000Y-74829999D01*
X111240000Y-74182175D01*
X111233598Y-74122629D01*
X111233596Y-74122618D01*
X111183353Y-73987911D01*
X111183352Y-73987909D01*
X111097192Y-73872815D01*
X111097184Y-73872807D01*
X110982090Y-73786647D01*
X110982088Y-73786646D01*
X110847381Y-73736403D01*
X110847370Y-73736401D01*
X110787824Y-73730000D01*
X110140001Y-73730000D01*
X110140000Y-73730001D01*
X110140000Y-74646988D01*
X110082993Y-74614075D01*
X109955826Y-74580000D01*
X109824174Y-74580000D01*
X109697007Y-74614075D01*
X109640000Y-74646988D01*
X109640000Y-73730001D01*
X109639999Y-73730000D01*
X108992176Y-73730000D01*
X108932629Y-73736401D01*
X108932618Y-73736403D01*
X108797911Y-73786646D01*
X108797909Y-73786647D01*
X108682815Y-73872807D01*
X108682807Y-73872815D01*
X108596647Y-73987909D01*
X108596646Y-73987911D01*
X108546403Y-74122618D01*
X108546401Y-74122629D01*
X108540000Y-74182175D01*
X108540000Y-74829999D01*
X108540001Y-74830000D01*
X109456988Y-74830000D01*
X109424075Y-74887007D01*
X109390000Y-75014174D01*
X109390000Y-75145826D01*
X109424075Y-75272993D01*
X109456988Y-75330000D01*
X108540001Y-75330000D01*
X108540000Y-75330001D01*
X108540000Y-75977824D01*
X108539999Y-75977824D01*
X107374624Y-75977824D01*
X107380000Y-75927824D01*
X107380000Y-75330001D01*
X107379999Y-75330000D01*
X106395686Y-75330000D01*
X106400080Y-75325606D01*
X106452741Y-75234394D01*
X106480000Y-75132661D01*
X106480000Y-75027339D01*
X106452741Y-74925606D01*
X106400080Y-74834394D01*
X106395686Y-74830000D01*
X107379999Y-74830000D01*
X107380000Y-74829999D01*
X107380000Y-74232175D01*
X107373598Y-74172629D01*
X107373596Y-74172618D01*
X107323353Y-74037911D01*
X107323352Y-74037909D01*
X107237192Y-73922815D01*
X107237184Y-73922807D01*
X107122090Y-73836647D01*
X107122088Y-73836646D01*
X106987381Y-73786403D01*
X106987370Y-73786401D01*
X106927824Y-73780000D01*
X106330001Y-73780000D01*
X106330000Y-73780001D01*
X106330000Y-74764314D01*
X106325606Y-74759920D01*
X106234394Y-74707259D01*
X106132661Y-74680000D01*
X106027339Y-74680000D01*
X105925606Y-74707259D01*
X105834394Y-74759920D01*
X105830000Y-74764314D01*
X105830000Y-73780001D01*
X105829999Y-73780000D01*
X105232176Y-73780000D01*
X105172629Y-73786401D01*
X105172618Y-73786403D01*
X105037911Y-73836646D01*
X105037909Y-73836647D01*
X104922815Y-73922807D01*
X104922807Y-73922815D01*
X104836647Y-74037909D01*
X104836646Y-74037911D01*
X104786403Y-74172618D01*
X104786401Y-74172629D01*
X104780000Y-74232175D01*
X104780000Y-74829999D01*
X104780001Y-74830000D01*
X105764314Y-74830000D01*
X105759920Y-74834394D01*
X105707259Y-74925606D01*
X105680000Y-75027339D01*
X105680000Y-75132661D01*
X105707259Y-75234394D01*
X105759920Y-75325606D01*
X105764314Y-75330000D01*
X104780001Y-75330000D01*
X104780000Y-75330001D01*
X104780000Y-75927824D01*
X104779999Y-75927824D01*
X102797500Y-75927824D01*
X102797500Y-74397901D01*
X102816407Y-74339710D01*
X102826496Y-74327897D01*
X104946897Y-72207496D01*
X105001414Y-72179719D01*
X105016901Y-72178500D01*
X109392929Y-72178500D01*
X109451120Y-72197407D01*
X109459687Y-72204723D01*
X109461716Y-72206280D01*
X109461718Y-72206282D01*
X109587159Y-72302536D01*
X109587160Y-72302536D01*
X109587161Y-72302537D01*
X109657724Y-72331765D01*
X109733238Y-72363044D01*
X109850809Y-72378522D01*
X109889999Y-72383682D01*
X109890000Y-72383682D01*
X109890001Y-72383682D01*
X109921352Y-72379554D01*
X110046762Y-72363044D01*
X110192841Y-72302536D01*
X110297565Y-72222179D01*
X110323430Y-72202332D01*
X110324490Y-72203713D01*
X110371584Y-72179719D01*
X110387071Y-72178500D01*
X111956713Y-72178500D01*
X112014904Y-72197407D01*
X112047276Y-72237510D01*
X112088894Y-72331765D01*
X112168335Y-72411206D01*
X112271109Y-72456585D01*
X112296235Y-72459500D01*
X113351164Y-72459499D01*
X113376291Y-72456585D01*
X113479065Y-72411206D01*
X113558506Y-72331765D01*
X113603885Y-72228991D01*
X113603886Y-72228978D01*
X113604469Y-72226838D01*
X113605592Y-72225122D01*
X113606892Y-72222179D01*
X113607378Y-72222393D01*
X113637986Y-72175650D01*
X113695190Y-72153938D01*
X113754230Y-72169996D01*
X113792556Y-72217691D01*
X113795525Y-72226826D01*
X113796112Y-72228984D01*
X113796114Y-72228990D01*
X113796115Y-72228991D01*
X113841494Y-72331765D01*
X113920935Y-72411206D01*
X114023709Y-72456585D01*
X114048835Y-72459500D01*
X115103764Y-72459499D01*
X115128891Y-72456585D01*
X115231665Y-72411206D01*
X115311106Y-72331765D01*
X115352723Y-72237510D01*
X115393523Y-72191916D01*
X115443287Y-72178500D01*
X115766079Y-72178500D01*
X115824270Y-72197407D01*
X115858175Y-72241180D01*
X115874138Y-72281658D01*
X115963500Y-72399500D01*
X116081342Y-72488862D01*
X116218923Y-72543117D01*
X116305382Y-72553500D01*
X116305384Y-72553500D01*
X116889616Y-72553500D01*
X116889618Y-72553500D01*
X116976077Y-72543117D01*
X117113658Y-72488862D01*
X117231500Y-72399500D01*
X117320544Y-72282077D01*
X117370769Y-72247136D01*
X117431942Y-72248389D01*
X117480695Y-72285359D01*
X117493402Y-72310757D01*
X117499548Y-72329306D01*
X117590053Y-72476035D01*
X117711964Y-72597946D01*
X117858693Y-72688451D01*
X118022351Y-72742681D01*
X118123345Y-72752999D01*
X118172500Y-72752998D01*
X118172500Y-72028001D01*
X118672500Y-72028001D01*
X118672500Y-72752998D01*
X118672501Y-72752999D01*
X118721654Y-72752999D01*
X118822642Y-72742682D01*
X118822654Y-72742679D01*
X118986306Y-72688451D01*
X119133035Y-72597946D01*
X119254946Y-72476035D01*
X119345451Y-72329306D01*
X119399681Y-72165648D01*
X119410000Y-72064655D01*
X119410000Y-72028001D01*
X119409999Y-72028000D01*
X118672501Y-72028000D01*
X118672500Y-72028001D01*
X118172500Y-72028001D01*
X118172500Y-70803001D01*
X118672500Y-70803001D01*
X118672500Y-71527999D01*
X118672501Y-71528000D01*
X119409998Y-71528000D01*
X119409999Y-71527999D01*
X119409999Y-71491345D01*
X119399682Y-71390357D01*
X119399679Y-71390345D01*
X119345451Y-71226693D01*
X119254946Y-71079964D01*
X119133035Y-70958053D01*
X118986306Y-70867548D01*
X118822648Y-70813318D01*
X118721655Y-70803000D01*
X118672501Y-70803000D01*
X118672500Y-70803001D01*
X118172500Y-70803001D01*
X118172500Y-70802999D01*
X118123347Y-70803000D01*
X118123344Y-70803001D01*
X118022357Y-70813317D01*
X118022345Y-70813320D01*
X117858693Y-70867548D01*
X117711964Y-70958053D01*
X117590053Y-71079964D01*
X117499549Y-71226692D01*
X117493402Y-71245243D01*
X117457150Y-71294533D01*
X117398850Y-71313100D01*
X117340770Y-71293854D01*
X117320543Y-71273921D01*
X117259145Y-71192956D01*
X117231500Y-71156500D01*
X117113658Y-71067138D01*
X116976079Y-71012883D01*
X116889620Y-71002500D01*
X116889618Y-71002500D01*
X116305382Y-71002500D01*
X116305379Y-71002500D01*
X116218920Y-71012883D01*
X116081341Y-71067138D01*
X115963503Y-71156497D01*
X115963497Y-71156503D01*
X115874139Y-71274340D01*
X115874138Y-71274341D01*
X115874138Y-71274342D01*
X115858175Y-71314819D01*
X115819240Y-71362016D01*
X115766079Y-71377500D01*
X115443287Y-71377500D01*
X115385096Y-71358593D01*
X115352723Y-71318489D01*
X115311106Y-71224235D01*
X115231665Y-71144794D01*
X115128891Y-71099415D01*
X115128890Y-71099414D01*
X115128888Y-71099414D01*
X115103768Y-71096500D01*
X114048839Y-71096500D01*
X114048836Y-71096501D01*
X114023709Y-71099414D01*
X113920935Y-71144794D01*
X113841494Y-71224235D01*
X113799878Y-71318488D01*
X113796113Y-71327014D01*
X113795526Y-71329173D01*
X113794403Y-71330886D01*
X113793108Y-71333821D01*
X113792622Y-71333606D01*
X113762003Y-71380357D01*
X113704797Y-71402062D01*
X113645758Y-71385996D01*
X113607438Y-71338297D01*
X113604472Y-71329166D01*
X113603885Y-71327011D01*
X113603885Y-71327009D01*
X113558506Y-71224235D01*
X113479065Y-71144794D01*
X113376291Y-71099415D01*
X113376290Y-71099414D01*
X113376288Y-71099414D01*
X113351168Y-71096500D01*
X112296239Y-71096500D01*
X112296236Y-71096501D01*
X112271109Y-71099414D01*
X112168335Y-71144794D01*
X112088894Y-71224235D01*
X112047276Y-71318489D01*
X112006477Y-71364084D01*
X111956713Y-71377500D01*
X110387071Y-71377500D01*
X110328880Y-71358593D01*
X110320312Y-71351276D01*
X110303397Y-71338297D01*
X110192841Y-71253464D01*
X110192840Y-71253463D01*
X110192838Y-71253462D01*
X110046766Y-71192957D01*
X110046758Y-71192955D01*
X109890001Y-71172318D01*
X109889999Y-71172318D01*
X109733241Y-71192955D01*
X109733233Y-71192957D01*
X109587161Y-71253462D01*
X109587160Y-71253462D01*
X109456570Y-71353668D01*
X109455509Y-71352286D01*
X109408416Y-71376281D01*
X109392929Y-71377500D01*
X104757273Y-71377500D01*
X104706343Y-71391146D01*
X104655411Y-71404793D01*
X104624917Y-71422400D01*
X104624916Y-71422399D01*
X104564088Y-71457519D01*
X102076516Y-73945091D01*
X102023793Y-74036411D01*
X102023792Y-74036411D01*
X102023793Y-74036412D01*
X102009260Y-74090652D01*
X101996500Y-74138273D01*
X101075500Y-74138273D01*
X101075500Y-71273891D01*
X101075805Y-71266124D01*
X101076801Y-71253464D01*
X101089595Y-71090900D01*
X101092022Y-71075571D01*
X101132146Y-70908445D01*
X101136942Y-70893686D01*
X101202718Y-70734890D01*
X101209755Y-70721078D01*
X101299564Y-70574523D01*
X101308684Y-70561971D01*
X101420309Y-70431275D01*
X101431275Y-70420309D01*
X101561971Y-70308684D01*
X101574523Y-70299564D01*
X101721078Y-70209755D01*
X101734890Y-70202718D01*
X101893686Y-70136942D01*
X101908445Y-70132146D01*
X102075571Y-70092022D01*
X102090900Y-70089595D01*
X102266125Y-70075805D01*
X102273892Y-70075500D01*
X102294531Y-70075500D01*
X125105469Y-70075500D01*
X125126108Y-70075500D01*
X125133875Y-70075805D01*
G37*
G04 #@! TD.AperFunction*
M02*
