G04 #@! TF.GenerationSoftware,KiCad,Pcbnew,8.0.4+dfsg-1*
G04 #@! TF.CreationDate,2025-02-23T15:18:41+09:00*
G04 #@! TF.ProjectId,bionic-mc146805e2,62696f6e-6963-42d6-9d63-313436383035,8*
G04 #@! TF.SameCoordinates,Original*
G04 #@! TF.FileFunction,Legend,Top*
G04 #@! TF.FilePolarity,Positive*
%FSLAX46Y46*%
G04 Gerber Fmt 4.6, Leading zero omitted, Abs format (unit mm)*
G04 Created by KiCad (PCBNEW 8.0.4+dfsg-1) date 2025-02-23 15:18:41*
%MOMM*%
%LPD*%
G01*
G04 APERTURE LIST*
%ADD10C,0.150000*%
%ADD11C,0.152400*%
%ADD12C,0.120000*%
G04 APERTURE END LIST*
D10*
G36*
X104294806Y-135672063D02*
G01*
X104371612Y-135678637D01*
X104453790Y-135692311D01*
X104525073Y-135712297D01*
X104594463Y-135743590D01*
X104619662Y-135759631D01*
X104675441Y-135811219D01*
X104715283Y-135876592D01*
X104739188Y-135955750D01*
X104747032Y-136036321D01*
X104747157Y-136048692D01*
X104739250Y-136126373D01*
X104712287Y-136201904D01*
X104666190Y-136267045D01*
X104610005Y-136314622D01*
X104542657Y-136348819D01*
X104464146Y-136369634D01*
X104447104Y-136372192D01*
X104447104Y-136382450D01*
X104527304Y-136400127D01*
X104596810Y-136425315D01*
X104668655Y-136467361D01*
X104723792Y-136521142D01*
X104762221Y-136586658D01*
X104783942Y-136663909D01*
X104789288Y-136734160D01*
X104784665Y-136807481D01*
X104767582Y-136885274D01*
X104737912Y-136954722D01*
X104695654Y-137015826D01*
X104657764Y-137054362D01*
X104595806Y-137099615D01*
X104524698Y-137133753D01*
X104444438Y-137156776D01*
X104368360Y-137167664D01*
X104299826Y-137170500D01*
X103756874Y-137170500D01*
X103756874Y-137006735D01*
X103949582Y-137006735D01*
X104265754Y-137006735D01*
X104340887Y-137002355D01*
X104420716Y-136984565D01*
X104495850Y-136945152D01*
X104548443Y-136886033D01*
X104578496Y-136807207D01*
X104586323Y-136726466D01*
X104578174Y-136651635D01*
X104546884Y-136578580D01*
X104492127Y-136523788D01*
X104413903Y-136487261D01*
X104330789Y-136470772D01*
X104252565Y-136466714D01*
X103949582Y-136466714D01*
X103949582Y-137006735D01*
X103756874Y-137006735D01*
X103756874Y-136302949D01*
X103949582Y-136302949D01*
X104241940Y-136302949D01*
X104316908Y-136299446D01*
X104395289Y-136285213D01*
X104466868Y-136253683D01*
X104476413Y-136246895D01*
X104524092Y-136189259D01*
X104546529Y-136114589D01*
X104550053Y-136061515D01*
X104540745Y-135985822D01*
X104505745Y-135917465D01*
X104471284Y-135886759D01*
X104399225Y-135854387D01*
X104319340Y-135838824D01*
X104242450Y-135833844D01*
X104221424Y-135833636D01*
X103949582Y-135833636D01*
X103949582Y-136302949D01*
X103756874Y-136302949D01*
X103756874Y-135669871D01*
X104210433Y-135669871D01*
X104294806Y-135672063D01*
G37*
G36*
X105530077Y-135576082D02*
G01*
X105604709Y-135598452D01*
X105637548Y-135665561D01*
X105639254Y-135692952D01*
X105620912Y-135765080D01*
X105606647Y-135781613D01*
X105538283Y-135810301D01*
X105530077Y-135810555D01*
X105458678Y-135791146D01*
X105422494Y-135726832D01*
X105419801Y-135692952D01*
X105438001Y-135617284D01*
X105504231Y-135577908D01*
X105530077Y-135576082D01*
G37*
G36*
X105435555Y-136192307D02*
G01*
X105158217Y-136170691D01*
X105158217Y-136045028D01*
X105622767Y-136045028D01*
X105622767Y-137023221D01*
X105985468Y-137043737D01*
X105985468Y-137170500D01*
X105080914Y-137170500D01*
X105080914Y-137043737D01*
X105435555Y-137023221D01*
X105435555Y-136192307D01*
G37*
G36*
X106854510Y-136027197D02*
G01*
X106930150Y-136044044D01*
X107000071Y-136072122D01*
X107064273Y-136111432D01*
X107122757Y-136161973D01*
X107140981Y-136181316D01*
X107189663Y-136244900D01*
X107228273Y-136315852D01*
X107256810Y-136394171D01*
X107275276Y-136479857D01*
X107282970Y-136556890D01*
X107284229Y-136605566D01*
X107280777Y-136688148D01*
X107270419Y-136765077D01*
X107253156Y-136836354D01*
X107223326Y-136914424D01*
X107183553Y-136984354D01*
X107142813Y-137036410D01*
X107086621Y-137089948D01*
X107023836Y-137132409D01*
X106954455Y-137163793D01*
X106878481Y-137184101D01*
X106795911Y-137193331D01*
X106766923Y-137193947D01*
X106686161Y-137188318D01*
X106610937Y-137171433D01*
X106541252Y-137143290D01*
X106477106Y-137103890D01*
X106418497Y-137053233D01*
X106400192Y-137033846D01*
X106351386Y-136969896D01*
X106312677Y-136898400D01*
X106284066Y-136819355D01*
X106267937Y-136747719D01*
X106258821Y-136670842D01*
X106256577Y-136605566D01*
X106450384Y-136605566D01*
X106453202Y-136682890D01*
X106465724Y-136774157D01*
X106488264Y-136851904D01*
X106530526Y-136930073D01*
X106588441Y-136987115D01*
X106662009Y-137023031D01*
X106751230Y-137037819D01*
X106770953Y-137038242D01*
X106845828Y-137031481D01*
X106925384Y-137004017D01*
X106989340Y-136955425D01*
X107037697Y-136885707D01*
X107065152Y-136814721D01*
X107082623Y-136730214D01*
X107090110Y-136632186D01*
X107090422Y-136605566D01*
X107087595Y-136529028D01*
X107075030Y-136438687D01*
X107052413Y-136361731D01*
X107010005Y-136284356D01*
X106951892Y-136227893D01*
X106878071Y-136192343D01*
X106788545Y-136177704D01*
X106768755Y-136177286D01*
X106694136Y-136183978D01*
X106614855Y-136211164D01*
X106551118Y-136259261D01*
X106502928Y-136328271D01*
X106475568Y-136398536D01*
X106458157Y-136482184D01*
X106450695Y-136579217D01*
X106450384Y-136605566D01*
X106256577Y-136605566D01*
X106259985Y-136523749D01*
X106270209Y-136447514D01*
X106291474Y-136363399D01*
X106322553Y-136287321D01*
X106363447Y-136219280D01*
X106396162Y-136178385D01*
X106451945Y-136125096D01*
X106514607Y-136082833D01*
X106584146Y-136051594D01*
X106660563Y-136031381D01*
X106743858Y-136022194D01*
X106773151Y-136021581D01*
X106854510Y-136027197D01*
G37*
G36*
X108312614Y-137170500D02*
G01*
X108312614Y-136444366D01*
X108306630Y-136367424D01*
X108283652Y-136292308D01*
X108235063Y-136228407D01*
X108163018Y-136190066D01*
X108082595Y-136177547D01*
X108067516Y-136177286D01*
X107993327Y-136183674D01*
X107914502Y-136209628D01*
X107851132Y-136255545D01*
X107803218Y-136321426D01*
X107770761Y-136407271D01*
X107755923Y-136490321D01*
X107750977Y-136586148D01*
X107750977Y-137170500D01*
X107563399Y-137170500D01*
X107563399Y-136045028D01*
X107714707Y-136045028D01*
X107742551Y-136194871D01*
X107752809Y-136194871D01*
X107797365Y-136135980D01*
X107861264Y-136082673D01*
X107937995Y-136045950D01*
X108013978Y-136027673D01*
X108099390Y-136021581D01*
X108193328Y-136028021D01*
X108274741Y-136047341D01*
X108343629Y-136079541D01*
X108412125Y-136137904D01*
X108452832Y-136199084D01*
X108481013Y-136273144D01*
X108496669Y-136360083D01*
X108500192Y-136433741D01*
X108500192Y-137170500D01*
X108312614Y-137170500D01*
G37*
G36*
X109310956Y-135576082D02*
G01*
X109385589Y-135598452D01*
X109418427Y-135665561D01*
X109420133Y-135692952D01*
X109401792Y-135765080D01*
X109387526Y-135781613D01*
X109319162Y-135810301D01*
X109310956Y-135810555D01*
X109239557Y-135791146D01*
X109203373Y-135726832D01*
X109200681Y-135692952D01*
X109218880Y-135617284D01*
X109285110Y-135577908D01*
X109310956Y-135576082D01*
G37*
G36*
X109216434Y-136192307D02*
G01*
X108939097Y-136170691D01*
X108939097Y-136045028D01*
X109403646Y-136045028D01*
X109403646Y-137023221D01*
X109766347Y-137043737D01*
X109766347Y-137170500D01*
X108861794Y-137170500D01*
X108861794Y-137043737D01*
X109216434Y-137023221D01*
X109216434Y-136192307D01*
G37*
G36*
X111012352Y-136082398D02*
G01*
X110948605Y-136245063D01*
X110873362Y-136218937D01*
X110802242Y-136200275D01*
X110727158Y-136188204D01*
X110672366Y-136185346D01*
X110582807Y-136192004D01*
X110505189Y-136211976D01*
X110439513Y-136245264D01*
X110374209Y-136305598D01*
X110335401Y-136368844D01*
X110308533Y-136445406D01*
X110293606Y-136535282D01*
X110290248Y-136611428D01*
X110293516Y-136686264D01*
X110308042Y-136774595D01*
X110334188Y-136849840D01*
X110383213Y-136925493D01*
X110450395Y-136980700D01*
X110535733Y-137015460D01*
X110617078Y-137028546D01*
X110662108Y-137030182D01*
X110743509Y-137026198D01*
X110825781Y-137014245D01*
X110898482Y-136997250D01*
X110971850Y-136974154D01*
X110992935Y-136966435D01*
X110992935Y-137131299D01*
X110919959Y-137158707D01*
X110839153Y-137178285D01*
X110762024Y-137188991D01*
X110678899Y-137193702D01*
X110654048Y-137193947D01*
X110574161Y-137190289D01*
X110500053Y-137179314D01*
X110418750Y-137156486D01*
X110345768Y-137123123D01*
X110281106Y-137079223D01*
X110242621Y-137044104D01*
X110192942Y-136983327D01*
X110153543Y-136913380D01*
X110124421Y-136834263D01*
X110108004Y-136761326D01*
X110098725Y-136682021D01*
X110096441Y-136613992D01*
X110100091Y-136526918D01*
X110111039Y-136446588D01*
X110129285Y-136373002D01*
X110160815Y-136293601D01*
X110202856Y-136223912D01*
X110245918Y-136173256D01*
X110306235Y-136121710D01*
X110375078Y-136080829D01*
X110452449Y-136050613D01*
X110538345Y-136031061D01*
X110616439Y-136022914D01*
X110666138Y-136021581D01*
X110745441Y-136024491D01*
X110822746Y-136033222D01*
X110898052Y-136047773D01*
X110971359Y-136068144D01*
X111012352Y-136082398D01*
G37*
G36*
X111727495Y-137170500D02*
G01*
X111441365Y-135857450D01*
X111432938Y-135851588D01*
X111438321Y-135934059D01*
X111442791Y-136010198D01*
X111446952Y-136093205D01*
X111449798Y-136167094D01*
X111451458Y-136241771D01*
X111451623Y-136269976D01*
X111451623Y-137170500D01*
X111295918Y-137170500D01*
X111295918Y-135669871D01*
X111550541Y-135669871D01*
X111805897Y-136892429D01*
X111812125Y-136892429D01*
X112069679Y-135669871D01*
X112329431Y-135669871D01*
X112329431Y-137170500D01*
X112171528Y-137170500D01*
X112171528Y-136256787D01*
X112172688Y-136182399D01*
X112175192Y-136103464D01*
X112178455Y-136021126D01*
X112181961Y-135942161D01*
X112186183Y-135853786D01*
X112178123Y-135853786D01*
X111886497Y-137170500D01*
X111727495Y-137170500D01*
G37*
G36*
X113597785Y-136965336D02*
G01*
X113597785Y-137132764D01*
X113518261Y-137159531D01*
X113441727Y-137176679D01*
X113358708Y-137187972D01*
X113282385Y-137192991D01*
X113228856Y-137193947D01*
X113151599Y-137190793D01*
X113061596Y-137177979D01*
X112978892Y-137155308D01*
X112903487Y-137122781D01*
X112835381Y-137080397D01*
X112774573Y-137028156D01*
X112741591Y-136992080D01*
X112692935Y-136924855D01*
X112652526Y-136849348D01*
X112620364Y-136765559D01*
X112600571Y-136692563D01*
X112586057Y-136614267D01*
X112576821Y-136530670D01*
X112572862Y-136441773D01*
X112572697Y-136418720D01*
X112575577Y-136331926D01*
X112584215Y-136249780D01*
X112598612Y-136172283D01*
X112618768Y-136099434D01*
X112652061Y-136014909D01*
X112694352Y-135937647D01*
X112745641Y-135867647D01*
X112756979Y-135854519D01*
X112817973Y-135794570D01*
X112885550Y-135744781D01*
X112959710Y-135705154D01*
X113040453Y-135675687D01*
X113127779Y-135656382D01*
X113202380Y-135648253D01*
X113261096Y-135646424D01*
X113344064Y-135649541D01*
X113422886Y-135658892D01*
X113497560Y-135674477D01*
X113568086Y-135696295D01*
X113645125Y-135729630D01*
X113655670Y-135735084D01*
X113575436Y-135895918D01*
X113506048Y-135864512D01*
X113427177Y-135838066D01*
X113348764Y-135821694D01*
X113270808Y-135815397D01*
X113261096Y-135815318D01*
X113181133Y-135821050D01*
X113107480Y-135838244D01*
X113029530Y-135872793D01*
X112960169Y-135922945D01*
X112907554Y-135978350D01*
X112862732Y-136043557D01*
X112827183Y-136116905D01*
X112800908Y-136198392D01*
X112786096Y-136272516D01*
X112777724Y-136352294D01*
X112775663Y-136420185D01*
X112778677Y-136509038D01*
X112787720Y-136591039D01*
X112802792Y-136666188D01*
X112828835Y-136747323D01*
X112863559Y-136818593D01*
X112899128Y-136870447D01*
X112958756Y-136930689D01*
X113029289Y-136976135D01*
X113098424Y-137003311D01*
X113175571Y-137019618D01*
X113260729Y-137025053D01*
X113341603Y-137020329D01*
X113422638Y-137008199D01*
X113500606Y-136991462D01*
X113572683Y-136972567D01*
X113597785Y-136965336D01*
G37*
G36*
X114481089Y-137170500D02*
G01*
X114299739Y-137170500D01*
X114299739Y-136237370D01*
X114300376Y-136157826D01*
X114301754Y-136082856D01*
X114303548Y-136009470D01*
X114305909Y-135927660D01*
X114307799Y-135868441D01*
X114252754Y-135924671D01*
X114193639Y-135978415D01*
X114183235Y-135987509D01*
X114031926Y-136115370D01*
X113931909Y-135985677D01*
X114326483Y-135669871D01*
X114481089Y-135669871D01*
X114481089Y-137170500D01*
G37*
G36*
X115901117Y-136654659D02*
G01*
X116120569Y-136654659D01*
X116120569Y-136825751D01*
X115901117Y-136825751D01*
X115901117Y-137170500D01*
X115719766Y-137170500D01*
X115719766Y-136825751D01*
X115023308Y-136825751D01*
X115023308Y-136661620D01*
X115028109Y-136654659D01*
X115207589Y-136654659D01*
X115719766Y-136654659D01*
X115719766Y-136295622D01*
X115720398Y-136214027D01*
X115721943Y-136137949D01*
X115724416Y-136056204D01*
X115727816Y-135968792D01*
X115731358Y-135891619D01*
X115732956Y-135859648D01*
X115723796Y-135859648D01*
X115696149Y-135927568D01*
X115660952Y-135995145D01*
X115631106Y-136041365D01*
X115207589Y-136654659D01*
X115028109Y-136654659D01*
X115707310Y-135669871D01*
X115901117Y-135669871D01*
X115901117Y-136654659D01*
G37*
G36*
X117112832Y-135649155D02*
G01*
X117187344Y-135659243D01*
X117214899Y-135665841D01*
X117214899Y-135825576D01*
X117140812Y-135811639D01*
X117061932Y-135806330D01*
X117043807Y-135806159D01*
X116961285Y-135811234D01*
X116886826Y-135826458D01*
X116810147Y-135857047D01*
X116744443Y-135901451D01*
X116696860Y-135950506D01*
X116651259Y-136021598D01*
X116620210Y-136095426D01*
X116600002Y-136166040D01*
X116584947Y-136244920D01*
X116575044Y-136332063D01*
X116570831Y-136407729D01*
X116583287Y-136407729D01*
X116631851Y-136339493D01*
X116691950Y-136288017D01*
X116763584Y-136253300D01*
X116846754Y-136235343D01*
X116899459Y-136232607D01*
X116983140Y-136238462D01*
X117058512Y-136256029D01*
X117134475Y-136290444D01*
X117199585Y-136340155D01*
X117214166Y-136354973D01*
X117264015Y-136421743D01*
X117295949Y-136489332D01*
X117316979Y-136565478D01*
X117327104Y-136650178D01*
X117328106Y-136689097D01*
X117323739Y-136773534D01*
X117310640Y-136850990D01*
X117288809Y-136921465D01*
X117252301Y-136994863D01*
X117203908Y-137058758D01*
X117145505Y-137111434D01*
X117078966Y-137151172D01*
X117004294Y-137177972D01*
X116921487Y-137191834D01*
X116870517Y-137193947D01*
X116789506Y-137187855D01*
X116714909Y-137169578D01*
X116646727Y-137139117D01*
X116584959Y-137096471D01*
X116529605Y-137041641D01*
X116512579Y-137020657D01*
X116467258Y-136950486D01*
X116431315Y-136870218D01*
X116408524Y-136795614D01*
X116392245Y-136713998D01*
X116385423Y-136652094D01*
X116566801Y-136652094D01*
X116571998Y-136727290D01*
X116590272Y-136805536D01*
X116621702Y-136877059D01*
X116649965Y-136921005D01*
X116701038Y-136975729D01*
X116767370Y-137015528D01*
X116843791Y-137033217D01*
X116868685Y-137034212D01*
X116944849Y-137025411D01*
X117015736Y-136995398D01*
X117073116Y-136944086D01*
X117111949Y-136880352D01*
X117134602Y-136810327D01*
X117145605Y-136728304D01*
X117146755Y-136687998D01*
X117141162Y-136609955D01*
X117121828Y-136535952D01*
X117084609Y-136470004D01*
X117076047Y-136459753D01*
X117014790Y-136411084D01*
X116943702Y-136386203D01*
X116874913Y-136379885D01*
X116797282Y-136388007D01*
X116727881Y-136412372D01*
X116666708Y-136452979D01*
X116655461Y-136463050D01*
X116604983Y-136522745D01*
X116573814Y-136594186D01*
X116566801Y-136652094D01*
X116385423Y-136652094D01*
X116382478Y-136625370D01*
X116379352Y-136549418D01*
X116379222Y-136529728D01*
X116381794Y-136422766D01*
X116389509Y-136322704D01*
X116402367Y-136229543D01*
X116420369Y-136143283D01*
X116443515Y-136063923D01*
X116471804Y-135991465D01*
X116505236Y-135925907D01*
X116565028Y-135840510D01*
X116636393Y-135770639D01*
X116719330Y-135716295D01*
X116813840Y-135677478D01*
X116919923Y-135654188D01*
X116997074Y-135647287D01*
X117037579Y-135646424D01*
X117112832Y-135649155D01*
G37*
G36*
X118193147Y-135651087D02*
G01*
X118265761Y-135665077D01*
X118340247Y-135692486D01*
X118405666Y-135732076D01*
X118420604Y-135743877D01*
X118472055Y-135796885D01*
X118512366Y-135866756D01*
X118532579Y-135937962D01*
X118538207Y-136007293D01*
X118528714Y-136092000D01*
X118500237Y-136169443D01*
X118452774Y-136239622D01*
X118398719Y-136292555D01*
X118331480Y-136340444D01*
X118268196Y-136375123D01*
X118342814Y-136417518D01*
X118407483Y-136462272D01*
X118474329Y-136521530D01*
X118525629Y-136584474D01*
X118561383Y-136651103D01*
X118583769Y-136735922D01*
X118586567Y-136780322D01*
X118580343Y-136858560D01*
X118561673Y-136929787D01*
X118525094Y-137002602D01*
X118472257Y-137066257D01*
X118456508Y-137080740D01*
X118395770Y-137124851D01*
X118327038Y-137158128D01*
X118250312Y-137180570D01*
X118165591Y-137192178D01*
X118113591Y-137193947D01*
X118033623Y-137190199D01*
X117960508Y-137178955D01*
X117883867Y-137156362D01*
X117816552Y-137123566D01*
X117766277Y-137087335D01*
X117711781Y-137028556D01*
X117672854Y-136959199D01*
X117649499Y-136879263D01*
X117641835Y-136800641D01*
X117641713Y-136788748D01*
X117641778Y-136788015D01*
X117824896Y-136788015D01*
X117834890Y-136871684D01*
X117871816Y-136947418D01*
X117935950Y-136999591D01*
X118012577Y-137025557D01*
X118091703Y-137033972D01*
X118109194Y-137034212D01*
X118183080Y-137028909D01*
X118259690Y-137008023D01*
X118326082Y-136967167D01*
X118372965Y-136909242D01*
X118398210Y-136836581D01*
X118403018Y-136779955D01*
X118390606Y-136703239D01*
X118353370Y-136634657D01*
X118338172Y-136616557D01*
X118282854Y-136566922D01*
X118221622Y-136525538D01*
X118155127Y-136488169D01*
X118117621Y-136469278D01*
X118086846Y-136454990D01*
X118011382Y-136495868D01*
X117948708Y-136540878D01*
X117890383Y-136600345D01*
X117850477Y-136665763D01*
X117828989Y-136737131D01*
X117824896Y-136788015D01*
X117641778Y-136788015D01*
X117648806Y-136709014D01*
X117670085Y-136635362D01*
X117705550Y-136567792D01*
X117755200Y-136506304D01*
X117819037Y-136450899D01*
X117897059Y-136401575D01*
X117932240Y-136383549D01*
X117862475Y-136334800D01*
X117804535Y-136282205D01*
X117750615Y-136214014D01*
X117713723Y-136140285D01*
X117693857Y-136061017D01*
X117690842Y-136016452D01*
X117873622Y-136016452D01*
X117883369Y-136091265D01*
X117915446Y-136159593D01*
X117924547Y-136171790D01*
X117980676Y-136223409D01*
X118043931Y-136263279D01*
X118115789Y-136299285D01*
X118184604Y-136264753D01*
X118251786Y-136218591D01*
X118308937Y-136158224D01*
X118343228Y-136090844D01*
X118354658Y-136016452D01*
X118343956Y-135941146D01*
X118305010Y-135874240D01*
X118289812Y-135860015D01*
X118223745Y-135823199D01*
X118145694Y-135807474D01*
X118111392Y-135806159D01*
X118035795Y-135813732D01*
X117963487Y-135841712D01*
X117937736Y-135860015D01*
X117891717Y-135921211D01*
X117874186Y-135997646D01*
X117873622Y-136016452D01*
X117690842Y-136016452D01*
X117690074Y-136005095D01*
X117697561Y-135926922D01*
X117723885Y-135849159D01*
X117769161Y-135782176D01*
X117809875Y-135743511D01*
X117873920Y-135701035D01*
X117945887Y-135670696D01*
X118025778Y-135652492D01*
X118102181Y-135646519D01*
X118113591Y-135646424D01*
X118193147Y-135651087D01*
G37*
G36*
X119457153Y-135653418D02*
G01*
X119534403Y-135674399D01*
X119603435Y-135709369D01*
X119664250Y-135758326D01*
X119716848Y-135821270D01*
X119732554Y-135845360D01*
X119767806Y-135911839D01*
X119797083Y-135986940D01*
X119820385Y-136070663D01*
X119834725Y-136143850D01*
X119845241Y-136222556D01*
X119851933Y-136306779D01*
X119854800Y-136396521D01*
X119854920Y-136419819D01*
X119853032Y-136513561D01*
X119847369Y-136601255D01*
X119837931Y-136682902D01*
X119824718Y-136758500D01*
X119797819Y-136860558D01*
X119762426Y-136949008D01*
X119718538Y-137023850D01*
X119666157Y-137085085D01*
X119605280Y-137132712D01*
X119535910Y-137166731D01*
X119458045Y-137187143D01*
X119371686Y-137193947D01*
X119287227Y-137186953D01*
X119210806Y-137165971D01*
X119142422Y-137131002D01*
X119082075Y-137082045D01*
X119029765Y-137019101D01*
X119014114Y-136995011D01*
X118979073Y-136928514D01*
X118949972Y-136853360D01*
X118926809Y-136769547D01*
X118912555Y-136696262D01*
X118902102Y-136617437D01*
X118895451Y-136533070D01*
X118892600Y-136443162D01*
X118892481Y-136419819D01*
X118892496Y-136419086D01*
X119083357Y-136419086D01*
X119084444Y-136498015D01*
X119087707Y-136571219D01*
X119094845Y-136654674D01*
X119105382Y-136729185D01*
X119122512Y-136806791D01*
X119148683Y-136881053D01*
X119152966Y-136890231D01*
X119192739Y-136953223D01*
X119249363Y-137002576D01*
X119318564Y-137029150D01*
X119371686Y-137034212D01*
X119450627Y-137022794D01*
X119516817Y-136988540D01*
X119570256Y-136931449D01*
X119594435Y-136889864D01*
X119622129Y-136817874D01*
X119640453Y-136742355D01*
X119651906Y-136669681D01*
X119659888Y-136588152D01*
X119664399Y-136497769D01*
X119665510Y-136419086D01*
X119664399Y-136340925D01*
X119659888Y-136251112D01*
X119651906Y-136170065D01*
X119637746Y-136084378D01*
X119618589Y-136011314D01*
X119594435Y-135950873D01*
X119553860Y-135887561D01*
X119496171Y-135837956D01*
X119425730Y-135811247D01*
X119371686Y-135806159D01*
X119294100Y-135817519D01*
X119229091Y-135851600D01*
X119176660Y-135908400D01*
X119152966Y-135949774D01*
X119125843Y-136021193D01*
X119107897Y-136096335D01*
X119096680Y-136168772D01*
X119088863Y-136250136D01*
X119084444Y-136340427D01*
X119083357Y-136419086D01*
X118892496Y-136419086D01*
X118894353Y-136326166D01*
X118899969Y-136238555D01*
X118909328Y-136156986D01*
X118922431Y-136081459D01*
X118949106Y-135979498D01*
X118984204Y-135891131D01*
X119027725Y-135816360D01*
X119079670Y-135755183D01*
X119140039Y-135707601D01*
X119208831Y-135673614D01*
X119286046Y-135653222D01*
X119371686Y-135646424D01*
X119457153Y-135653418D01*
G37*
G36*
X120178786Y-137112614D02*
G01*
X120178786Y-136935294D01*
X120247242Y-136973837D01*
X120322781Y-137002914D01*
X120405403Y-137022523D01*
X120481859Y-137031797D01*
X120549547Y-137034212D01*
X120630691Y-137029220D01*
X120716906Y-137008941D01*
X120786217Y-136973064D01*
X120838622Y-136921586D01*
X120874122Y-136854510D01*
X120892718Y-136771835D01*
X120895761Y-136714742D01*
X120887112Y-136628618D01*
X120861164Y-136557091D01*
X120807192Y-136490527D01*
X120743188Y-136451115D01*
X120661885Y-136426299D01*
X120584387Y-136416957D01*
X120541487Y-136415789D01*
X120464894Y-136419396D01*
X120389417Y-136427911D01*
X120312433Y-136439857D01*
X120303350Y-136441435D01*
X120210660Y-136382450D01*
X120267446Y-135669871D01*
X120978193Y-135669871D01*
X120978193Y-135840964D01*
X120430112Y-135840964D01*
X120389812Y-136276571D01*
X120465020Y-136264890D01*
X120539017Y-136258058D01*
X120605234Y-136256054D01*
X120683506Y-136260176D01*
X120755930Y-136272541D01*
X120833034Y-136297385D01*
X120902179Y-136333449D01*
X120955112Y-136373291D01*
X121007074Y-136428576D01*
X121046274Y-136492172D01*
X121072711Y-136564077D01*
X121086385Y-136644292D01*
X121088468Y-136693860D01*
X121083471Y-136779748D01*
X121068479Y-136857985D01*
X121043492Y-136928572D01*
X121001707Y-137001253D01*
X120946319Y-137063521D01*
X120878554Y-137114341D01*
X120811595Y-137147967D01*
X120736445Y-137172421D01*
X120653103Y-137187706D01*
X120577393Y-137193437D01*
X120545517Y-137193947D01*
X120462299Y-137191087D01*
X120385753Y-137182509D01*
X120304882Y-137165274D01*
X120233092Y-137140254D01*
X120178786Y-137112614D01*
G37*
G36*
X122352792Y-137170500D02*
G01*
X121485241Y-137170500D01*
X121485241Y-135669871D01*
X122352792Y-135669871D01*
X122352792Y-135838765D01*
X121676849Y-135838765D01*
X121676849Y-136302949D01*
X122312858Y-136302949D01*
X122312858Y-136471843D01*
X121676849Y-136471843D01*
X121676849Y-137001606D01*
X122352792Y-137001606D01*
X122352792Y-137170500D01*
G37*
G36*
X123623709Y-137170500D02*
G01*
X122684718Y-137170500D01*
X122684718Y-137009666D01*
X123045586Y-136618389D01*
X123104981Y-136552652D01*
X123157685Y-136492372D01*
X123212099Y-136427238D01*
X123263405Y-136361178D01*
X123305983Y-136298776D01*
X123310101Y-136291958D01*
X123343911Y-136222721D01*
X123365199Y-136149190D01*
X123373965Y-136071367D01*
X123374215Y-136055287D01*
X123366466Y-135981704D01*
X123337327Y-135909588D01*
X123308636Y-135873204D01*
X123248032Y-135829795D01*
X123172191Y-135808516D01*
X123132048Y-135806159D01*
X123049754Y-135814906D01*
X122977971Y-135836910D01*
X122906399Y-135872308D01*
X122845220Y-135913309D01*
X122804519Y-135946110D01*
X122699372Y-135823378D01*
X122762153Y-135772400D01*
X122826848Y-135730063D01*
X122893458Y-135696365D01*
X122975915Y-135667334D01*
X123061129Y-135650744D01*
X123134247Y-135646424D01*
X123217569Y-135651631D01*
X123292828Y-135667251D01*
X123368963Y-135697854D01*
X123434565Y-135742058D01*
X123449320Y-135755234D01*
X123499809Y-135814333D01*
X123535873Y-135882821D01*
X123557512Y-135960696D01*
X123564612Y-136036538D01*
X123564725Y-136047959D01*
X123558785Y-136125046D01*
X123540968Y-136203349D01*
X123514777Y-136274862D01*
X123503908Y-136298919D01*
X123462372Y-136371070D01*
X123416613Y-136435732D01*
X123368918Y-136496523D01*
X123312529Y-136563594D01*
X123261157Y-136621772D01*
X123204222Y-136683968D01*
X122914794Y-136991347D01*
X122914794Y-136999407D01*
X123623709Y-136999407D01*
X123623709Y-137170500D01*
G37*
X112938095Y-125946019D02*
X112938095Y-126755542D01*
X112938095Y-126755542D02*
X112985714Y-126850780D01*
X112985714Y-126850780D02*
X113033333Y-126898400D01*
X113033333Y-126898400D02*
X113128571Y-126946019D01*
X113128571Y-126946019D02*
X113319047Y-126946019D01*
X113319047Y-126946019D02*
X113414285Y-126898400D01*
X113414285Y-126898400D02*
X113461904Y-126850780D01*
X113461904Y-126850780D02*
X113509523Y-126755542D01*
X113509523Y-126755542D02*
X113509523Y-125946019D01*
X113938095Y-126041257D02*
X113985714Y-125993638D01*
X113985714Y-125993638D02*
X114080952Y-125946019D01*
X114080952Y-125946019D02*
X114319047Y-125946019D01*
X114319047Y-125946019D02*
X114414285Y-125993638D01*
X114414285Y-125993638D02*
X114461904Y-126041257D01*
X114461904Y-126041257D02*
X114509523Y-126136495D01*
X114509523Y-126136495D02*
X114509523Y-126231733D01*
X114509523Y-126231733D02*
X114461904Y-126374590D01*
X114461904Y-126374590D02*
X113890476Y-126946019D01*
X113890476Y-126946019D02*
X114509523Y-126946019D01*
X112938095Y-76947819D02*
X112938095Y-77757342D01*
X112938095Y-77757342D02*
X112985714Y-77852580D01*
X112985714Y-77852580D02*
X113033333Y-77900200D01*
X113033333Y-77900200D02*
X113128571Y-77947819D01*
X113128571Y-77947819D02*
X113319047Y-77947819D01*
X113319047Y-77947819D02*
X113414285Y-77900200D01*
X113414285Y-77900200D02*
X113461904Y-77852580D01*
X113461904Y-77852580D02*
X113509523Y-77757342D01*
X113509523Y-77757342D02*
X113509523Y-76947819D01*
X114509523Y-77947819D02*
X113938095Y-77947819D01*
X114223809Y-77947819D02*
X114223809Y-76947819D01*
X114223809Y-76947819D02*
X114128571Y-77090676D01*
X114128571Y-77090676D02*
X114033333Y-77185914D01*
X114033333Y-77185914D02*
X113938095Y-77233533D01*
X115882905Y-72105819D02*
X115882905Y-71105819D01*
X115882905Y-71105819D02*
X116121000Y-71105819D01*
X116121000Y-71105819D02*
X116263857Y-71153438D01*
X116263857Y-71153438D02*
X116359095Y-71248676D01*
X116359095Y-71248676D02*
X116406714Y-71343914D01*
X116406714Y-71343914D02*
X116454333Y-71534390D01*
X116454333Y-71534390D02*
X116454333Y-71677247D01*
X116454333Y-71677247D02*
X116406714Y-71867723D01*
X116406714Y-71867723D02*
X116359095Y-71962961D01*
X116359095Y-71962961D02*
X116263857Y-72058200D01*
X116263857Y-72058200D02*
X116121000Y-72105819D01*
X116121000Y-72105819D02*
X115882905Y-72105819D01*
X117406714Y-72105819D02*
X116835286Y-72105819D01*
X117121000Y-72105819D02*
X117121000Y-71105819D01*
X117121000Y-71105819D02*
X117025762Y-71248676D01*
X117025762Y-71248676D02*
X116930524Y-71343914D01*
X116930524Y-71343914D02*
X116835286Y-71391533D01*
X107183333Y-72105819D02*
X106850000Y-71629628D01*
X106611905Y-72105819D02*
X106611905Y-71105819D01*
X106611905Y-71105819D02*
X106992857Y-71105819D01*
X106992857Y-71105819D02*
X107088095Y-71153438D01*
X107088095Y-71153438D02*
X107135714Y-71201057D01*
X107135714Y-71201057D02*
X107183333Y-71296295D01*
X107183333Y-71296295D02*
X107183333Y-71439152D01*
X107183333Y-71439152D02*
X107135714Y-71534390D01*
X107135714Y-71534390D02*
X107088095Y-71582009D01*
X107088095Y-71582009D02*
X106992857Y-71629628D01*
X106992857Y-71629628D02*
X106611905Y-71629628D01*
X108135714Y-72105819D02*
X107564286Y-72105819D01*
X107850000Y-72105819D02*
X107850000Y-71105819D01*
X107850000Y-71105819D02*
X107754762Y-71248676D01*
X107754762Y-71248676D02*
X107659524Y-71343914D01*
X107659524Y-71343914D02*
X107564286Y-71391533D01*
X124219580Y-77076566D02*
X124267200Y-77124185D01*
X124267200Y-77124185D02*
X124314819Y-77267042D01*
X124314819Y-77267042D02*
X124314819Y-77362280D01*
X124314819Y-77362280D02*
X124267200Y-77505137D01*
X124267200Y-77505137D02*
X124171961Y-77600375D01*
X124171961Y-77600375D02*
X124076723Y-77647994D01*
X124076723Y-77647994D02*
X123886247Y-77695613D01*
X123886247Y-77695613D02*
X123743390Y-77695613D01*
X123743390Y-77695613D02*
X123552914Y-77647994D01*
X123552914Y-77647994D02*
X123457676Y-77600375D01*
X123457676Y-77600375D02*
X123362438Y-77505137D01*
X123362438Y-77505137D02*
X123314819Y-77362280D01*
X123314819Y-77362280D02*
X123314819Y-77267042D01*
X123314819Y-77267042D02*
X123362438Y-77124185D01*
X123362438Y-77124185D02*
X123410057Y-77076566D01*
X124314819Y-76124185D02*
X124314819Y-76695613D01*
X124314819Y-76409899D02*
X123314819Y-76409899D01*
X123314819Y-76409899D02*
X123457676Y-76505137D01*
X123457676Y-76505137D02*
X123552914Y-76600375D01*
X123552914Y-76600375D02*
X123600533Y-76695613D01*
D11*
X115352000Y-130340000D02*
X115352000Y-128686000D01*
X114362940Y-130340000D02*
X115352000Y-130340000D01*
X113987061Y-128686000D02*
X113412939Y-128686000D01*
X112048000Y-130340000D02*
X113037060Y-130340000D01*
X112048000Y-128686000D02*
X112048000Y-130340000D01*
D12*
X104750000Y-73690000D02*
X104750000Y-124730000D01*
X104750000Y-124730000D02*
X122650000Y-124730000D01*
X107240000Y-73750000D02*
X107240000Y-124670000D01*
X107240000Y-124670000D02*
X120160000Y-124670000D01*
X112700000Y-73750000D02*
X107240000Y-73750000D01*
X120160000Y-73750000D02*
X114700000Y-73750000D01*
X120160000Y-124670000D02*
X120160000Y-73750000D01*
X122650000Y-73690000D02*
X104750000Y-73690000D01*
X122650000Y-124730000D02*
X122650000Y-73690000D01*
X114700000Y-73750000D02*
G75*
G02*
X112700000Y-73750000I-1000000J0D01*
G01*
D11*
X112125200Y-72336800D02*
G75*
G02*
X111972800Y-72336800I-76200J0D01*
G01*
X111972800Y-72336800D02*
G75*
G02*
X112125200Y-72336800I76200J0D01*
G01*
D12*
X110144724Y-71128500D02*
X109635276Y-71128500D01*
X110144724Y-72173500D02*
X109635276Y-72173500D01*
X123350000Y-74362667D02*
X123350000Y-74070133D01*
X124370000Y-74362667D02*
X124370000Y-74070133D01*
M02*
