G04 #@! TF.GenerationSoftware,KiCad,Pcbnew,7.0.11+dfsg-1build4*
G04 #@! TF.CreationDate,2024-11-01T16:05:39+09:00*
G04 #@! TF.ProjectId,bionic-f3850,62696f6e-6963-42d6-9633-3835302e6b69,5*
G04 #@! TF.SameCoordinates,Original*
G04 #@! TF.FileFunction,Legend,Bot*
G04 #@! TF.FilePolarity,Positive*
%FSLAX46Y46*%
G04 Gerber Fmt 4.6, Leading zero omitted, Abs format (unit mm)*
G04 Created by KiCad (PCBNEW 7.0.11+dfsg-1build4) date 2024-11-01 16:05:39*
%MOMM*%
%LPD*%
G01*
G04 APERTURE LIST*
%ADD10C,0.100000*%
%ADD11C,0.125000*%
%ADD12C,0.150000*%
%ADD13C,0.120000*%
G04 APERTURE END LIST*
D10*
X118665238Y-136406895D02*
X118665238Y-136978323D01*
X118665238Y-136978323D02*
X118703333Y-137092609D01*
X118703333Y-137092609D02*
X118779524Y-137168800D01*
X118779524Y-137168800D02*
X118893809Y-137206895D01*
X118893809Y-137206895D02*
X118970000Y-137206895D01*
X117903333Y-137206895D02*
X118284285Y-137206895D01*
X118284285Y-137206895D02*
X118284285Y-136406895D01*
X117179523Y-137130704D02*
X117217619Y-137168800D01*
X117217619Y-137168800D02*
X117331904Y-137206895D01*
X117331904Y-137206895D02*
X117408095Y-137206895D01*
X117408095Y-137206895D02*
X117522381Y-137168800D01*
X117522381Y-137168800D02*
X117598571Y-137092609D01*
X117598571Y-137092609D02*
X117636666Y-137016419D01*
X117636666Y-137016419D02*
X117674762Y-136864038D01*
X117674762Y-136864038D02*
X117674762Y-136749752D01*
X117674762Y-136749752D02*
X117636666Y-136597371D01*
X117636666Y-136597371D02*
X117598571Y-136521180D01*
X117598571Y-136521180D02*
X117522381Y-136444990D01*
X117522381Y-136444990D02*
X117408095Y-136406895D01*
X117408095Y-136406895D02*
X117331904Y-136406895D01*
X117331904Y-136406895D02*
X117217619Y-136444990D01*
X117217619Y-136444990D02*
X117179523Y-136483085D01*
X116608095Y-136406895D02*
X116608095Y-136978323D01*
X116608095Y-136978323D02*
X116646190Y-137092609D01*
X116646190Y-137092609D02*
X116722381Y-137168800D01*
X116722381Y-137168800D02*
X116836666Y-137206895D01*
X116836666Y-137206895D02*
X116912857Y-137206895D01*
X115846190Y-137206895D02*
X116227142Y-137206895D01*
X116227142Y-137206895D02*
X116227142Y-136406895D01*
X115122380Y-137130704D02*
X115160476Y-137168800D01*
X115160476Y-137168800D02*
X115274761Y-137206895D01*
X115274761Y-137206895D02*
X115350952Y-137206895D01*
X115350952Y-137206895D02*
X115465238Y-137168800D01*
X115465238Y-137168800D02*
X115541428Y-137092609D01*
X115541428Y-137092609D02*
X115579523Y-137016419D01*
X115579523Y-137016419D02*
X115617619Y-136864038D01*
X115617619Y-136864038D02*
X115617619Y-136749752D01*
X115617619Y-136749752D02*
X115579523Y-136597371D01*
X115579523Y-136597371D02*
X115541428Y-136521180D01*
X115541428Y-136521180D02*
X115465238Y-136444990D01*
X115465238Y-136444990D02*
X115350952Y-136406895D01*
X115350952Y-136406895D02*
X115274761Y-136406895D01*
X115274761Y-136406895D02*
X115160476Y-136444990D01*
X115160476Y-136444990D02*
X115122380Y-136483085D01*
X114550952Y-136406895D02*
X114550952Y-136978323D01*
X114550952Y-136978323D02*
X114589047Y-137092609D01*
X114589047Y-137092609D02*
X114665238Y-137168800D01*
X114665238Y-137168800D02*
X114779523Y-137206895D01*
X114779523Y-137206895D02*
X114855714Y-137206895D01*
X113789047Y-137206895D02*
X114169999Y-137206895D01*
X114169999Y-137206895D02*
X114169999Y-136406895D01*
X113065237Y-137130704D02*
X113103333Y-137168800D01*
X113103333Y-137168800D02*
X113217618Y-137206895D01*
X113217618Y-137206895D02*
X113293809Y-137206895D01*
X113293809Y-137206895D02*
X113408095Y-137168800D01*
X113408095Y-137168800D02*
X113484285Y-137092609D01*
X113484285Y-137092609D02*
X113522380Y-137016419D01*
X113522380Y-137016419D02*
X113560476Y-136864038D01*
X113560476Y-136864038D02*
X113560476Y-136749752D01*
X113560476Y-136749752D02*
X113522380Y-136597371D01*
X113522380Y-136597371D02*
X113484285Y-136521180D01*
X113484285Y-136521180D02*
X113408095Y-136444990D01*
X113408095Y-136444990D02*
X113293809Y-136406895D01*
X113293809Y-136406895D02*
X113217618Y-136406895D01*
X113217618Y-136406895D02*
X113103333Y-136444990D01*
X113103333Y-136444990D02*
X113065237Y-136483085D01*
X112493809Y-136406895D02*
X112493809Y-136978323D01*
X112493809Y-136978323D02*
X112531904Y-137092609D01*
X112531904Y-137092609D02*
X112608095Y-137168800D01*
X112608095Y-137168800D02*
X112722380Y-137206895D01*
X112722380Y-137206895D02*
X112798571Y-137206895D01*
X111731904Y-137206895D02*
X112112856Y-137206895D01*
X112112856Y-137206895D02*
X112112856Y-136406895D01*
X111008094Y-137130704D02*
X111046190Y-137168800D01*
X111046190Y-137168800D02*
X111160475Y-137206895D01*
X111160475Y-137206895D02*
X111236666Y-137206895D01*
X111236666Y-137206895D02*
X111350952Y-137168800D01*
X111350952Y-137168800D02*
X111427142Y-137092609D01*
X111427142Y-137092609D02*
X111465237Y-137016419D01*
X111465237Y-137016419D02*
X111503333Y-136864038D01*
X111503333Y-136864038D02*
X111503333Y-136749752D01*
X111503333Y-136749752D02*
X111465237Y-136597371D01*
X111465237Y-136597371D02*
X111427142Y-136521180D01*
X111427142Y-136521180D02*
X111350952Y-136444990D01*
X111350952Y-136444990D02*
X111236666Y-136406895D01*
X111236666Y-136406895D02*
X111160475Y-136406895D01*
X111160475Y-136406895D02*
X111046190Y-136444990D01*
X111046190Y-136444990D02*
X111008094Y-136483085D01*
D11*
X106204240Y-137258119D02*
X106537573Y-136781928D01*
X106775668Y-137258119D02*
X106775668Y-136258119D01*
X106775668Y-136258119D02*
X106394716Y-136258119D01*
X106394716Y-136258119D02*
X106299478Y-136305738D01*
X106299478Y-136305738D02*
X106251859Y-136353357D01*
X106251859Y-136353357D02*
X106204240Y-136448595D01*
X106204240Y-136448595D02*
X106204240Y-136591452D01*
X106204240Y-136591452D02*
X106251859Y-136686690D01*
X106251859Y-136686690D02*
X106299478Y-136734309D01*
X106299478Y-136734309D02*
X106394716Y-136781928D01*
X106394716Y-136781928D02*
X106775668Y-136781928D01*
X105394716Y-137210500D02*
X105489954Y-137258119D01*
X105489954Y-137258119D02*
X105680430Y-137258119D01*
X105680430Y-137258119D02*
X105775668Y-137210500D01*
X105775668Y-137210500D02*
X105823287Y-137115261D01*
X105823287Y-137115261D02*
X105823287Y-136734309D01*
X105823287Y-136734309D02*
X105775668Y-136639071D01*
X105775668Y-136639071D02*
X105680430Y-136591452D01*
X105680430Y-136591452D02*
X105489954Y-136591452D01*
X105489954Y-136591452D02*
X105394716Y-136639071D01*
X105394716Y-136639071D02*
X105347097Y-136734309D01*
X105347097Y-136734309D02*
X105347097Y-136829547D01*
X105347097Y-136829547D02*
X105823287Y-136924785D01*
X105013763Y-136591452D02*
X104775668Y-137258119D01*
X104775668Y-137258119D02*
X104537573Y-136591452D01*
X104156620Y-137162880D02*
X104109001Y-137210500D01*
X104109001Y-137210500D02*
X104156620Y-137258119D01*
X104156620Y-137258119D02*
X104204239Y-137210500D01*
X104204239Y-137210500D02*
X104156620Y-137162880D01*
X104156620Y-137162880D02*
X104156620Y-137258119D01*
X102489954Y-136258119D02*
X102680430Y-136258119D01*
X102680430Y-136258119D02*
X102775668Y-136305738D01*
X102775668Y-136305738D02*
X102823287Y-136353357D01*
X102823287Y-136353357D02*
X102918525Y-136496214D01*
X102918525Y-136496214D02*
X102966144Y-136686690D01*
X102966144Y-136686690D02*
X102966144Y-137067642D01*
X102966144Y-137067642D02*
X102918525Y-137162880D01*
X102918525Y-137162880D02*
X102870906Y-137210500D01*
X102870906Y-137210500D02*
X102775668Y-137258119D01*
X102775668Y-137258119D02*
X102585192Y-137258119D01*
X102585192Y-137258119D02*
X102489954Y-137210500D01*
X102489954Y-137210500D02*
X102442335Y-137162880D01*
X102442335Y-137162880D02*
X102394716Y-137067642D01*
X102394716Y-137067642D02*
X102394716Y-136829547D01*
X102394716Y-136829547D02*
X102442335Y-136734309D01*
X102442335Y-136734309D02*
X102489954Y-136686690D01*
X102489954Y-136686690D02*
X102585192Y-136639071D01*
X102585192Y-136639071D02*
X102775668Y-136639071D01*
X102775668Y-136639071D02*
X102870906Y-136686690D01*
X102870906Y-136686690D02*
X102918525Y-136734309D01*
X102918525Y-136734309D02*
X102966144Y-136829547D01*
D12*
X103391580Y-76283833D02*
X103439200Y-76236214D01*
X103439200Y-76236214D02*
X103486819Y-76093357D01*
X103486819Y-76093357D02*
X103486819Y-75998119D01*
X103486819Y-75998119D02*
X103439200Y-75855262D01*
X103439200Y-75855262D02*
X103343961Y-75760024D01*
X103343961Y-75760024D02*
X103248723Y-75712405D01*
X103248723Y-75712405D02*
X103058247Y-75664786D01*
X103058247Y-75664786D02*
X102915390Y-75664786D01*
X102915390Y-75664786D02*
X102724914Y-75712405D01*
X102724914Y-75712405D02*
X102629676Y-75760024D01*
X102629676Y-75760024D02*
X102534438Y-75855262D01*
X102534438Y-75855262D02*
X102486819Y-75998119D01*
X102486819Y-75998119D02*
X102486819Y-76093357D01*
X102486819Y-76093357D02*
X102534438Y-76236214D01*
X102534438Y-76236214D02*
X102582057Y-76283833D01*
X102582057Y-76664786D02*
X102534438Y-76712405D01*
X102534438Y-76712405D02*
X102486819Y-76807643D01*
X102486819Y-76807643D02*
X102486819Y-77045738D01*
X102486819Y-77045738D02*
X102534438Y-77140976D01*
X102534438Y-77140976D02*
X102582057Y-77188595D01*
X102582057Y-77188595D02*
X102677295Y-77236214D01*
X102677295Y-77236214D02*
X102772533Y-77236214D01*
X102772533Y-77236214D02*
X102915390Y-77188595D01*
X102915390Y-77188595D02*
X103486819Y-76617167D01*
X103486819Y-76617167D02*
X103486819Y-77236214D01*
X105169580Y-76283833D02*
X105217200Y-76236214D01*
X105217200Y-76236214D02*
X105264819Y-76093357D01*
X105264819Y-76093357D02*
X105264819Y-75998119D01*
X105264819Y-75998119D02*
X105217200Y-75855262D01*
X105217200Y-75855262D02*
X105121961Y-75760024D01*
X105121961Y-75760024D02*
X105026723Y-75712405D01*
X105026723Y-75712405D02*
X104836247Y-75664786D01*
X104836247Y-75664786D02*
X104693390Y-75664786D01*
X104693390Y-75664786D02*
X104502914Y-75712405D01*
X104502914Y-75712405D02*
X104407676Y-75760024D01*
X104407676Y-75760024D02*
X104312438Y-75855262D01*
X104312438Y-75855262D02*
X104264819Y-75998119D01*
X104264819Y-75998119D02*
X104264819Y-76093357D01*
X104264819Y-76093357D02*
X104312438Y-76236214D01*
X104312438Y-76236214D02*
X104360057Y-76283833D01*
X105264819Y-77236214D02*
X105264819Y-76664786D01*
X105264819Y-76950500D02*
X104264819Y-76950500D01*
X104264819Y-76950500D02*
X104407676Y-76855262D01*
X104407676Y-76855262D02*
X104502914Y-76760024D01*
X104502914Y-76760024D02*
X104550533Y-76664786D01*
X111493333Y-72204819D02*
X111493333Y-72919104D01*
X111493333Y-72919104D02*
X111540952Y-73061961D01*
X111540952Y-73061961D02*
X111636190Y-73157200D01*
X111636190Y-73157200D02*
X111779047Y-73204819D01*
X111779047Y-73204819D02*
X111874285Y-73204819D01*
X110493333Y-73204819D02*
X111064761Y-73204819D01*
X110779047Y-73204819D02*
X110779047Y-72204819D01*
X110779047Y-72204819D02*
X110874285Y-72347676D01*
X110874285Y-72347676D02*
X110969523Y-72442914D01*
X110969523Y-72442914D02*
X111064761Y-72490533D01*
X119113333Y-72204819D02*
X119113333Y-72919104D01*
X119113333Y-72919104D02*
X119160952Y-73061961D01*
X119160952Y-73061961D02*
X119256190Y-73157200D01*
X119256190Y-73157200D02*
X119399047Y-73204819D01*
X119399047Y-73204819D02*
X119494285Y-73204819D01*
X118684761Y-72300057D02*
X118637142Y-72252438D01*
X118637142Y-72252438D02*
X118541904Y-72204819D01*
X118541904Y-72204819D02*
X118303809Y-72204819D01*
X118303809Y-72204819D02*
X118208571Y-72252438D01*
X118208571Y-72252438D02*
X118160952Y-72300057D01*
X118160952Y-72300057D02*
X118113333Y-72395295D01*
X118113333Y-72395295D02*
X118113333Y-72490533D01*
X118113333Y-72490533D02*
X118160952Y-72633390D01*
X118160952Y-72633390D02*
X118732380Y-73204819D01*
X118732380Y-73204819D02*
X118113333Y-73204819D01*
D13*
X102522000Y-79390767D02*
X102522000Y-79098233D01*
X103542000Y-79390767D02*
X103542000Y-79098233D01*
X104300000Y-79390767D02*
X104300000Y-79098233D01*
X105320000Y-79390767D02*
X105320000Y-79098233D01*
X112490000Y-134830000D02*
X109830000Y-134830000D01*
X112490000Y-76350000D02*
X112490000Y-134830000D01*
X112490000Y-76350000D02*
X109830000Y-76350000D01*
X112490000Y-75080000D02*
X112490000Y-73750000D01*
X112490000Y-73750000D02*
X111160000Y-73750000D01*
X109830000Y-76350000D02*
X109830000Y-134830000D01*
X120110000Y-134830000D02*
X117450000Y-134830000D01*
X120110000Y-76350000D02*
X120110000Y-134830000D01*
X120110000Y-76350000D02*
X117450000Y-76350000D01*
X120110000Y-75080000D02*
X120110000Y-73750000D01*
X120110000Y-73750000D02*
X118780000Y-73750000D01*
X117450000Y-76350000D02*
X117450000Y-134830000D01*
M02*
