G04 #@! TF.GenerationSoftware,KiCad,Pcbnew,9.0.6-9.0.6~ubuntu25.10.1*
G04 #@! TF.CreationDate,2025-12-24T18:24:09+09:00*
G04 #@! TF.ProjectId,bionic-ns32016,62696f6e-6963-42d6-9e73-33323031362e,2*
G04 #@! TF.SameCoordinates,Original*
G04 #@! TF.FileFunction,Copper,L1,Top*
G04 #@! TF.FilePolarity,Positive*
%FSLAX46Y46*%
G04 Gerber Fmt 4.6, Leading zero omitted, Abs format (unit mm)*
G04 Created by KiCad (PCBNEW 9.0.6-9.0.6~ubuntu25.10.1) date 2025-12-24 18:24:09*
%MOMM*%
%LPD*%
G01*
G04 APERTURE LIST*
G04 Aperture macros list*
%AMRoundRect*
0 Rectangle with rounded corners*
0 $1 Rounding radius*
0 $2 $3 $4 $5 $6 $7 $8 $9 X,Y pos of 4 corners*
0 Add a 4 corners polygon primitive as box body*
4,1,4,$2,$3,$4,$5,$6,$7,$8,$9,$2,$3,0*
0 Add four circle primitives for the rounded corners*
1,1,$1+$1,$2,$3*
1,1,$1+$1,$4,$5*
1,1,$1+$1,$6,$7*
1,1,$1+$1,$8,$9*
0 Add four rect primitives between the rounded corners*
20,1,$1+$1,$2,$3,$4,$5,0*
20,1,$1+$1,$4,$5,$6,$7,0*
20,1,$1+$1,$6,$7,$8,$9,0*
20,1,$1+$1,$8,$9,$2,$3,0*%
G04 Aperture macros list end*
G04 #@! TA.AperFunction,SMDPad,CuDef*
%ADD10R,0.355600X1.778000*%
G04 #@! TD*
G04 #@! TA.AperFunction,SMDPad,CuDef*
%ADD11R,0.965200X0.762000*%
G04 #@! TD*
G04 #@! TA.AperFunction,SMDPad,CuDef*
%ADD12RoundRect,0.237500X-0.237500X0.300000X-0.237500X-0.300000X0.237500X-0.300000X0.237500X0.300000X0*%
G04 #@! TD*
G04 #@! TA.AperFunction,SMDPad,CuDef*
%ADD13RoundRect,0.237500X0.237500X-0.250000X0.237500X0.250000X-0.237500X0.250000X-0.237500X-0.250000X0*%
G04 #@! TD*
G04 #@! TA.AperFunction,ComponentPad*
%ADD14R,1.600000X1.600000*%
G04 #@! TD*
G04 #@! TA.AperFunction,ComponentPad*
%ADD15O,1.600000X1.600000*%
G04 #@! TD*
G04 #@! TA.AperFunction,SMDPad,CuDef*
%ADD16RoundRect,0.237500X0.237500X-0.300000X0.237500X0.300000X-0.237500X0.300000X-0.237500X-0.300000X0*%
G04 #@! TD*
G04 #@! TA.AperFunction,SMDPad,CuDef*
%ADD17R,0.660400X1.625600*%
G04 #@! TD*
G04 #@! TA.AperFunction,SMDPad,CuDef*
%ADD18RoundRect,0.237500X-0.250000X-0.237500X0.250000X-0.237500X0.250000X0.237500X-0.250000X0.237500X0*%
G04 #@! TD*
G04 #@! TA.AperFunction,ComponentPad*
%ADD19O,1.700000X1.700000*%
G04 #@! TD*
G04 #@! TA.AperFunction,ComponentPad*
%ADD20R,1.700000X1.700000*%
G04 #@! TD*
G04 #@! TA.AperFunction,ViaPad*
%ADD21C,0.600000*%
G04 #@! TD*
G04 #@! TA.AperFunction,ViaPad*
%ADD22C,0.450000*%
G04 #@! TD*
G04 #@! TA.AperFunction,Conductor*
%ADD23C,0.150000*%
G04 #@! TD*
G04 #@! TA.AperFunction,Conductor*
%ADD24C,0.400000*%
G04 #@! TD*
G04 #@! TA.AperFunction,Conductor*
%ADD25C,0.600000*%
G04 #@! TD*
G04 APERTURE END LIST*
D10*
X111425001Y-101318200D03*
X112075002Y-101318200D03*
X112725001Y-101318200D03*
X113375002Y-101318200D03*
X114025001Y-101318200D03*
X114674999Y-101318200D03*
X115325001Y-101318200D03*
X115974999Y-101318200D03*
X115974999Y-107261800D03*
X115324998Y-107261800D03*
X114674999Y-107261800D03*
X114024998Y-107261800D03*
X113374999Y-107261800D03*
X112725001Y-107261800D03*
X112074999Y-107261800D03*
X111425001Y-107261800D03*
X111425001Y-88872200D03*
X112074999Y-88872200D03*
X112725001Y-88872200D03*
X113374999Y-88872200D03*
X114024998Y-88872200D03*
X114674999Y-88872200D03*
X115324998Y-88872200D03*
X115974999Y-88872200D03*
X115974999Y-82928600D03*
X115325001Y-82928600D03*
X114674999Y-82928600D03*
X114025001Y-82928600D03*
X113375002Y-82928600D03*
X112725001Y-82928600D03*
X112075002Y-82928600D03*
X111425001Y-82928600D03*
D11*
X114576300Y-71778000D03*
X112823700Y-71778000D03*
D12*
X123987000Y-123342200D03*
X123987000Y-125067200D03*
D13*
X124012400Y-109926900D03*
X124012400Y-108101900D03*
D14*
X106080000Y-75080000D03*
D15*
X106080000Y-77620000D03*
X106080000Y-80160000D03*
X106080000Y-82700000D03*
X106080000Y-85240000D03*
X106080000Y-87780000D03*
X106080000Y-90320000D03*
X106080000Y-92860000D03*
X106080000Y-95400000D03*
X106080000Y-97940000D03*
X106080000Y-100480000D03*
X106080000Y-103020000D03*
X106080000Y-105560000D03*
X106080000Y-108100000D03*
X106080000Y-110640000D03*
X106080000Y-113180000D03*
X106080000Y-115720000D03*
X106080000Y-118260000D03*
X106080000Y-120800000D03*
X106080000Y-123340000D03*
X106080000Y-125880000D03*
X106080000Y-128420000D03*
X106080000Y-130960000D03*
X106080000Y-133500000D03*
X121320000Y-133500000D03*
X121320000Y-130960000D03*
X121320000Y-128420000D03*
X121320000Y-125880000D03*
X121320000Y-123340000D03*
X121320000Y-120800000D03*
X121320000Y-118260000D03*
X121320000Y-115720000D03*
X121320000Y-113180000D03*
X121320000Y-110640000D03*
X121320000Y-108100000D03*
X121320000Y-105560000D03*
X121320000Y-103020000D03*
X121320000Y-100480000D03*
X121320000Y-97940000D03*
X121320000Y-95400000D03*
X121320000Y-92860000D03*
X121320000Y-90320000D03*
X121320000Y-87780000D03*
X121320000Y-85240000D03*
X121320000Y-82700000D03*
X121320000Y-80160000D03*
X121320000Y-77620000D03*
X121320000Y-75080000D03*
D16*
X109636000Y-82927500D03*
X109636000Y-81202500D03*
X109610600Y-101318200D03*
X109610600Y-99593200D03*
X123987000Y-75080000D03*
X123987000Y-73355000D03*
D17*
X114650001Y-124637000D03*
X112749999Y-124637000D03*
X113700000Y-126769000D03*
D18*
X117105500Y-71778000D03*
X118930500Y-71778000D03*
D19*
X117489200Y-133500000D03*
D20*
X117489200Y-75080000D03*
X109936200Y-75080000D03*
D19*
X109936200Y-133500000D03*
D21*
X109280400Y-120711100D03*
X113395200Y-110513000D03*
X119008600Y-84693900D03*
X108454900Y-81658600D03*
X108581900Y-98778200D03*
X123300700Y-111234800D03*
D22*
X119249900Y-105255200D03*
X103984500Y-96631900D03*
X110766300Y-103895002D03*
X114025000Y-104651100D03*
X109597900Y-125029100D03*
X116887700Y-119834800D03*
X113852400Y-96784300D03*
D21*
X108874000Y-83716000D03*
X108875000Y-102029400D03*
D22*
X112125000Y-124648000D03*
X111478000Y-71778000D03*
X114138150Y-112627550D03*
X116709900Y-113891200D03*
X108696200Y-130236100D03*
X113039600Y-85913100D03*
X111180800Y-117421800D03*
X113128500Y-112113200D03*
X115325600Y-92073600D03*
X113357500Y-102867600D03*
X112569700Y-94879300D03*
X111998200Y-110360600D03*
X115975000Y-102448500D03*
X115287500Y-104201100D03*
X114768700Y-129621100D03*
X107998399Y-89062001D03*
X103736151Y-85283751D03*
X109813800Y-83995400D03*
X113776200Y-115046900D03*
X111426700Y-90621900D03*
X108278200Y-91666200D03*
X117099550Y-114865050D03*
X118729200Y-115453300D03*
X111388600Y-80160000D03*
X115998700Y-77620000D03*
X108219100Y-86535400D03*
X118734851Y-104678049D03*
X118183400Y-110640000D03*
X114363000Y-94884300D03*
X115325000Y-99095700D03*
X108728200Y-97470100D03*
X116290800Y-103261300D03*
X115986000Y-86179800D03*
X112725000Y-106093400D03*
X114017500Y-105979100D03*
X114675000Y-87646400D03*
X110499100Y-93833200D03*
X117611600Y-91475700D03*
X114200700Y-90541400D03*
X112075000Y-90091400D03*
X113007000Y-98658096D03*
X113375000Y-100010100D03*
X111415575Y-109088138D03*
D23*
X113375000Y-100010100D02*
X113375000Y-101318200D01*
X113007000Y-98658096D02*
X111526100Y-97177196D01*
X111526100Y-97177196D02*
X111526100Y-92811400D01*
X111526100Y-92811400D02*
X112725000Y-91612500D01*
X112725000Y-91612500D02*
X112725000Y-88872200D01*
X112725000Y-101318200D02*
X112725000Y-100152700D01*
X112725000Y-100152700D02*
X109331200Y-96758900D01*
X109331200Y-96758900D02*
X109331200Y-85963900D01*
X109331200Y-85963900D02*
X106080000Y-82712700D01*
X106080000Y-82712700D02*
X106080000Y-82700000D01*
X109597900Y-125029100D02*
X117624300Y-117002700D01*
X117624300Y-117002700D02*
X123453600Y-117002700D01*
X123453600Y-117002700D02*
X125015700Y-115440600D01*
X125015700Y-115440600D02*
X125015700Y-86395700D01*
X125015700Y-86395700D02*
X121320000Y-82700000D01*
X114138150Y-112627550D02*
X118106900Y-108658800D01*
X118106900Y-108658800D02*
X118106900Y-85951200D01*
X118106900Y-85951200D02*
X115975000Y-83819300D01*
X115975000Y-83819300D02*
X115975000Y-82928600D01*
X114025000Y-104651100D02*
X114025000Y-101318200D01*
X115998700Y-77620000D02*
X108632700Y-77620000D01*
X108632700Y-77620000D02*
X107337300Y-78915400D01*
X107337300Y-78915400D02*
X105673600Y-78915400D01*
X105673600Y-78915400D02*
X102054100Y-82534900D01*
X102054100Y-82534900D02*
X102054100Y-87719311D01*
X102054100Y-87719311D02*
X102050300Y-87723111D01*
X102050300Y-87723111D02*
X102050300Y-106610300D01*
X102050300Y-106610300D02*
X106080000Y-110640000D01*
X121320000Y-80160000D02*
X125316700Y-84156700D01*
X125316700Y-84156700D02*
X125316700Y-115927000D01*
X125316700Y-115927000D02*
X121701000Y-119542700D01*
X121701000Y-119542700D02*
X117179800Y-119542700D01*
X117179800Y-119542700D02*
X116887700Y-119834800D01*
X113852400Y-96784300D02*
X114677900Y-97609800D01*
X114677900Y-97609800D02*
X114677900Y-101315300D01*
X114677900Y-101315300D02*
X114675000Y-101318200D01*
X103028200Y-99968200D02*
X106080000Y-103020000D01*
X108219100Y-86535400D02*
X105724400Y-86535400D01*
X105724400Y-86535400D02*
X103028200Y-89231600D01*
X103028200Y-89231600D02*
X103028200Y-99968200D01*
X106080000Y-90320000D02*
X107591300Y-91831300D01*
X107591300Y-91831300D02*
X107591300Y-102118300D01*
X107591300Y-102118300D02*
X108664450Y-103191450D01*
X108664450Y-103191450D02*
X110874250Y-103191450D01*
X110874250Y-103191450D02*
X112075000Y-104392200D01*
X112075000Y-104392200D02*
X112075000Y-107261800D01*
X112569700Y-94879300D02*
X112569700Y-92339300D01*
X112569700Y-92339300D02*
X113375000Y-91534000D01*
X113375000Y-91534000D02*
X113375000Y-88872200D01*
D24*
X108875000Y-102029400D02*
X108875000Y-102003000D01*
X108875000Y-102003000D02*
X109560000Y-101318000D01*
D23*
X117611600Y-91475700D02*
X117332200Y-91196300D01*
X117332200Y-91196300D02*
X117332200Y-86675100D01*
X117332200Y-86675100D02*
X114675000Y-84017900D01*
X114675000Y-84017900D02*
X114675000Y-82928600D01*
X107998399Y-89062001D02*
X107769799Y-89062001D01*
X107769100Y-89062700D02*
X105673600Y-89062700D01*
X107769799Y-89062001D02*
X107769100Y-89062700D01*
X105673600Y-89062700D02*
X103329200Y-91407100D01*
X103329200Y-91407100D02*
X103329200Y-97729200D01*
X103329200Y-97729200D02*
X106080000Y-100480000D01*
X103736151Y-85283751D02*
X103724849Y-85283751D01*
X103724849Y-85283751D02*
X102727200Y-86281400D01*
X102727200Y-86281400D02*
X102727200Y-102207200D01*
X102727200Y-102207200D02*
X106080000Y-105560000D01*
X111388600Y-80160000D02*
X107985000Y-80160000D01*
X107985000Y-80160000D02*
X106689600Y-81455400D01*
X106689600Y-81455400D02*
X105635500Y-81455400D01*
X105635500Y-81455400D02*
X102355100Y-84735800D01*
X102355100Y-84735800D02*
X102355100Y-104375100D01*
X102355100Y-104375100D02*
X106080000Y-108100000D01*
X115325000Y-99095700D02*
X115325000Y-101318200D01*
D25*
X123300700Y-111234800D02*
X123303300Y-111234800D01*
X123303300Y-111234800D02*
X124012400Y-110525700D01*
X124012400Y-110525700D02*
X124012400Y-109926900D01*
D23*
X113039600Y-85913100D02*
X113052300Y-85913100D01*
X113052300Y-85913100D02*
X114025000Y-84940400D01*
X114025000Y-84940400D02*
X114025000Y-82928600D01*
X119249900Y-105255200D02*
X119275300Y-105229800D01*
X119275300Y-105229800D02*
X119275300Y-102524700D01*
X119275300Y-102524700D02*
X121320000Y-100480000D01*
X114674999Y-107261800D02*
X114674999Y-104175790D01*
X114674999Y-104175790D02*
X115589489Y-103261300D01*
X115589489Y-103261300D02*
X116290800Y-103261300D01*
X115287500Y-104201100D02*
X115325000Y-104238600D01*
X115325000Y-104238600D02*
X115325000Y-107261800D01*
X115975000Y-102448500D02*
X115975000Y-101318200D01*
X113357500Y-102867600D02*
X113319400Y-102829500D01*
X113319400Y-102829500D02*
X113285500Y-102829500D01*
X113285500Y-102829500D02*
X113382500Y-102926500D01*
X113382500Y-102926500D02*
X113382500Y-107254300D01*
X113382500Y-107254300D02*
X113375000Y-107261800D01*
X114024998Y-106075498D02*
X114024998Y-107261800D01*
X114017500Y-105979100D02*
X114017500Y-106068000D01*
X114017500Y-106068000D02*
X114024998Y-106075498D01*
X112725000Y-106093400D02*
X112725000Y-107261800D01*
X115325600Y-88872800D02*
X115325000Y-88872200D01*
X115325600Y-92073600D02*
X115325600Y-88872800D01*
X114675000Y-87646400D02*
X114675000Y-88872200D01*
X112725000Y-82928600D02*
X112725000Y-84475100D01*
X112725000Y-84475100D02*
X110499100Y-86701000D01*
X110499100Y-86701000D02*
X110499100Y-93833200D01*
X111425000Y-112695700D02*
X111425000Y-109097563D01*
X113776200Y-115046900D02*
X111425000Y-112695700D01*
X111425000Y-109097563D02*
X111415575Y-109088138D01*
X123987000Y-123342000D02*
X123987000Y-123342200D01*
D24*
X123985000Y-123340000D02*
X123987000Y-123342000D01*
X121320000Y-123340000D02*
X123985000Y-123340000D01*
D23*
X112824000Y-71778000D02*
X112823700Y-71778000D01*
D24*
X109560000Y-101318000D02*
X109611000Y-101318000D01*
D23*
X112136000Y-124637000D02*
X112125000Y-124648000D01*
X112750000Y-124637000D02*
X112136000Y-124637000D01*
D24*
X109636000Y-82927500D02*
X109636000Y-82954000D01*
X109636000Y-82954000D02*
X108874000Y-83716000D01*
D25*
X109611000Y-101318000D02*
X109610800Y-101318000D01*
X109610800Y-101318000D02*
X109610600Y-101318200D01*
X121320000Y-75080000D02*
X123987000Y-75080000D01*
D24*
X109636000Y-82927500D02*
X111395000Y-82927500D01*
D23*
X112823700Y-71778000D02*
X111478000Y-71778000D01*
D24*
X109611000Y-101318000D02*
X109560000Y-101318000D01*
X109611000Y-101318000D02*
X111396000Y-101318000D01*
D23*
X114576000Y-71778000D02*
X117106000Y-71778000D01*
X114650000Y-129502400D02*
X114650000Y-124637000D01*
X114768700Y-129621100D02*
X114650000Y-129502400D01*
X111425001Y-109078712D02*
X111425001Y-107261800D01*
X111415575Y-109088138D02*
X111415575Y-108984427D01*
X111415575Y-108984427D02*
X111425001Y-108975001D01*
X111426700Y-90621900D02*
X111426700Y-88873900D01*
X111415575Y-109088138D02*
X111425001Y-109078712D01*
X111426700Y-88873900D02*
X111425000Y-88872200D01*
X124012100Y-108101900D02*
X124012000Y-108102000D01*
X124010000Y-108100000D02*
X124012000Y-108102000D01*
X121320000Y-108100000D02*
X124010000Y-108100000D01*
X124012400Y-108101900D02*
X124012100Y-108101900D01*
X114024998Y-88872202D02*
X114025000Y-88872200D01*
X114024998Y-90365698D02*
X114024998Y-88872202D01*
X114200700Y-90541400D02*
X114024998Y-90365698D01*
X112075000Y-90091400D02*
X112075000Y-88872200D01*
G04 #@! TA.AperFunction,Conductor*
G36*
X105025445Y-82551813D02*
G01*
X105068710Y-82595078D01*
X105079500Y-82640023D01*
X105079500Y-82798543D01*
X105117949Y-82991834D01*
X105117949Y-82991836D01*
X105193367Y-83173913D01*
X105207708Y-83195376D01*
X105302861Y-83337782D01*
X105442218Y-83477139D01*
X105606086Y-83586632D01*
X105788165Y-83662051D01*
X105981459Y-83700500D01*
X105981460Y-83700500D01*
X106178540Y-83700500D01*
X106178541Y-83700500D01*
X106371835Y-83662051D01*
X106500156Y-83608898D01*
X106561151Y-83604098D01*
X106608044Y-83630359D01*
X109026704Y-86049019D01*
X109054481Y-86103536D01*
X109055700Y-86119023D01*
X109055700Y-96813700D01*
X109088614Y-96893160D01*
X109088615Y-96893163D01*
X109088614Y-96893163D01*
X109097641Y-96914955D01*
X109097642Y-96914956D01*
X109097643Y-96914958D01*
X112262341Y-100079656D01*
X112290117Y-100134171D01*
X112280546Y-100194603D01*
X112262340Y-100219661D01*
X112252802Y-100229199D01*
X112252802Y-102407199D01*
X112252803Y-102407200D01*
X112272499Y-102407200D01*
X112272502Y-102407199D01*
X112330836Y-102395596D01*
X112344547Y-102386435D01*
X112403435Y-102369825D01*
X112454551Y-102386432D01*
X112468970Y-102396067D01*
X112513432Y-102404911D01*
X112527442Y-102407698D01*
X112527447Y-102407698D01*
X112527453Y-102407700D01*
X112527454Y-102407700D01*
X112922548Y-102407700D01*
X112922549Y-102407700D01*
X112968341Y-102398591D01*
X113029101Y-102405781D01*
X113074032Y-102447312D01*
X113085970Y-102507322D01*
X113060356Y-102562887D01*
X113057660Y-102565691D01*
X113017014Y-102606337D01*
X112960998Y-102703358D01*
X112960997Y-102703363D01*
X112932000Y-102811582D01*
X112932000Y-102923618D01*
X112941848Y-102960372D01*
X112960998Y-103031841D01*
X113017013Y-103128860D01*
X113017015Y-103128863D01*
X113078005Y-103189853D01*
X113105781Y-103244368D01*
X113107000Y-103259855D01*
X113107000Y-105651149D01*
X113088093Y-105709340D01*
X113038593Y-105745304D01*
X112977407Y-105745304D01*
X112958500Y-105736886D01*
X112889238Y-105696897D01*
X112853164Y-105687231D01*
X112781018Y-105667900D01*
X112668982Y-105667900D01*
X112614872Y-105682398D01*
X112560761Y-105696897D01*
X112499000Y-105732556D01*
X112439152Y-105745277D01*
X112383256Y-105720390D01*
X112352663Y-105667402D01*
X112350500Y-105646819D01*
X112350500Y-104337400D01*
X112345302Y-104324852D01*
X112308557Y-104236142D01*
X112291153Y-104218738D01*
X112231058Y-104158642D01*
X112231058Y-104158643D01*
X111030308Y-102957893D01*
X110929050Y-102915950D01*
X110929049Y-102915950D01*
X108819574Y-102915950D01*
X108761383Y-102897043D01*
X108749570Y-102886954D01*
X107895796Y-102033180D01*
X107868019Y-101978663D01*
X107866826Y-101963508D01*
X108374500Y-101963508D01*
X108374500Y-102095292D01*
X108404579Y-102207551D01*
X108408609Y-102222590D01*
X108467878Y-102325246D01*
X108467880Y-102325248D01*
X108474500Y-102336714D01*
X108567686Y-102429900D01*
X108579151Y-102436519D01*
X108579152Y-102436520D01*
X108681810Y-102495790D01*
X108681808Y-102495790D01*
X108681812Y-102495791D01*
X108681814Y-102495792D01*
X108809108Y-102529900D01*
X108809110Y-102529900D01*
X108940890Y-102529900D01*
X108940892Y-102529900D01*
X109068186Y-102495792D01*
X109068188Y-102495790D01*
X109068190Y-102495790D01*
X109182309Y-102429903D01*
X109182309Y-102429902D01*
X109182314Y-102429900D01*
X109275500Y-102336714D01*
X109282121Y-102325246D01*
X109341390Y-102222590D01*
X109341390Y-102222588D01*
X109341392Y-102222586D01*
X109366313Y-102129575D01*
X109399637Y-102078263D01*
X109456759Y-102056336D01*
X109461940Y-102056200D01*
X109900862Y-102056200D01*
X109900865Y-102056199D01*
X109930449Y-102053425D01*
X110055075Y-102009816D01*
X110161311Y-101931411D01*
X110239716Y-101825175D01*
X110253107Y-101786907D01*
X110253844Y-101784802D01*
X110290910Y-101736121D01*
X110347288Y-101718500D01*
X110947701Y-101718500D01*
X111005892Y-101737407D01*
X111041856Y-101786907D01*
X111046701Y-101817500D01*
X111046701Y-102226946D01*
X111046702Y-102226958D01*
X111058333Y-102285427D01*
X111058335Y-102285433D01*
X111102646Y-102351748D01*
X111102649Y-102351752D01*
X111168970Y-102396067D01*
X111213432Y-102404911D01*
X111227442Y-102407698D01*
X111227447Y-102407698D01*
X111227453Y-102407700D01*
X111227454Y-102407700D01*
X111622548Y-102407700D01*
X111622549Y-102407700D01*
X111681032Y-102396067D01*
X111695449Y-102386433D01*
X111754335Y-102369824D01*
X111805454Y-102386434D01*
X111819165Y-102395595D01*
X111819165Y-102395596D01*
X111877501Y-102407199D01*
X111877505Y-102407200D01*
X111897201Y-102407200D01*
X111897202Y-102407199D01*
X111897202Y-100229201D01*
X111897201Y-100229200D01*
X111877501Y-100229200D01*
X111819165Y-100240803D01*
X111819164Y-100240804D01*
X111805449Y-100249968D01*
X111746560Y-100266575D01*
X111695447Y-100249965D01*
X111681035Y-100240335D01*
X111681034Y-100240334D01*
X111681032Y-100240333D01*
X111681028Y-100240332D01*
X111622559Y-100228701D01*
X111622549Y-100228700D01*
X111227453Y-100228700D01*
X111227452Y-100228700D01*
X111227442Y-100228701D01*
X111168973Y-100240332D01*
X111168967Y-100240334D01*
X111102652Y-100284645D01*
X111102646Y-100284651D01*
X111058335Y-100350966D01*
X111058333Y-100350972D01*
X111046702Y-100409441D01*
X111046701Y-100409453D01*
X111046701Y-100818500D01*
X111027794Y-100876691D01*
X110978294Y-100912655D01*
X110947701Y-100917500D01*
X110347148Y-100917500D01*
X110288957Y-100898593D01*
X110253704Y-100851198D01*
X110239717Y-100811227D01*
X110239714Y-100811221D01*
X110161314Y-100704993D01*
X110161313Y-100704992D01*
X110161311Y-100704989D01*
X110161306Y-100704985D01*
X110055076Y-100626584D01*
X109930452Y-100582976D01*
X109930451Y-100582975D01*
X109930449Y-100582975D01*
X109930447Y-100582974D01*
X109930444Y-100582974D01*
X109900866Y-100580200D01*
X109900856Y-100580200D01*
X109320344Y-100580200D01*
X109320333Y-100580200D01*
X109290755Y-100582974D01*
X109290747Y-100582976D01*
X109166123Y-100626584D01*
X109059893Y-100704985D01*
X109059885Y-100704993D01*
X108981484Y-100811223D01*
X108937876Y-100935847D01*
X108937874Y-100935855D01*
X108935100Y-100965433D01*
X108935100Y-101335499D01*
X108932631Y-101343096D01*
X108933881Y-101350986D01*
X108923357Y-101371639D01*
X108916193Y-101393690D01*
X108906103Y-101405503D01*
X108791800Y-101519805D01*
X108747422Y-101545427D01*
X108681812Y-101563008D01*
X108681810Y-101563009D01*
X108567690Y-101628896D01*
X108474496Y-101722090D01*
X108408609Y-101836209D01*
X108408608Y-101836214D01*
X108374500Y-101963508D01*
X107866826Y-101963508D01*
X107866800Y-101963176D01*
X107866800Y-99793201D01*
X108935600Y-99793201D01*
X108935600Y-99945901D01*
X108938371Y-99975458D01*
X108938372Y-99975459D01*
X108981930Y-100099940D01*
X109060241Y-100206048D01*
X109060251Y-100206058D01*
X109166359Y-100284369D01*
X109290840Y-100327927D01*
X109290841Y-100327928D01*
X109320399Y-100330700D01*
X109410599Y-100330700D01*
X109410600Y-100330699D01*
X109410600Y-99793201D01*
X109810600Y-99793201D01*
X109810600Y-100330699D01*
X109810601Y-100330700D01*
X109900801Y-100330700D01*
X109930358Y-100327928D01*
X109930359Y-100327927D01*
X110054840Y-100284369D01*
X110160948Y-100206058D01*
X110160958Y-100206048D01*
X110239269Y-100099940D01*
X110282827Y-99975459D01*
X110282828Y-99975458D01*
X110285600Y-99945901D01*
X110285600Y-99793201D01*
X110285599Y-99793200D01*
X109810601Y-99793200D01*
X109810600Y-99793201D01*
X109410600Y-99793201D01*
X109410599Y-99793200D01*
X108935601Y-99793200D01*
X108935600Y-99793201D01*
X107866800Y-99793201D01*
X107866800Y-99240498D01*
X108935600Y-99240498D01*
X108935600Y-99393199D01*
X108935601Y-99393200D01*
X109410599Y-99393200D01*
X109410600Y-99393199D01*
X109410600Y-98855701D01*
X109810600Y-98855701D01*
X109810600Y-99393199D01*
X109810601Y-99393200D01*
X110285599Y-99393200D01*
X110285600Y-99393199D01*
X110285600Y-99240498D01*
X110282828Y-99210941D01*
X110282827Y-99210940D01*
X110239269Y-99086459D01*
X110160958Y-98980351D01*
X110160948Y-98980341D01*
X110054840Y-98902030D01*
X109930359Y-98858472D01*
X109930358Y-98858471D01*
X109900801Y-98855700D01*
X109810601Y-98855700D01*
X109810600Y-98855701D01*
X109410600Y-98855701D01*
X109410599Y-98855700D01*
X109320399Y-98855700D01*
X109290841Y-98858471D01*
X109290840Y-98858472D01*
X109166359Y-98902030D01*
X109060251Y-98980341D01*
X109060241Y-98980351D01*
X108981930Y-99086459D01*
X108938372Y-99210940D01*
X108938371Y-99210941D01*
X108935600Y-99240498D01*
X107866800Y-99240498D01*
X107866800Y-97414082D01*
X108302700Y-97414082D01*
X108302700Y-97526118D01*
X108310439Y-97555000D01*
X108331698Y-97634341D01*
X108383415Y-97723915D01*
X108387715Y-97731363D01*
X108466937Y-97810585D01*
X108466939Y-97810586D01*
X108563959Y-97866601D01*
X108563957Y-97866601D01*
X108563961Y-97866602D01*
X108563963Y-97866603D01*
X108672182Y-97895600D01*
X108672184Y-97895600D01*
X108784216Y-97895600D01*
X108784218Y-97895600D01*
X108892437Y-97866603D01*
X108892439Y-97866601D01*
X108892441Y-97866601D01*
X108935986Y-97841460D01*
X108989463Y-97810585D01*
X109068685Y-97731363D01*
X109108059Y-97663164D01*
X109124701Y-97634341D01*
X109124701Y-97634339D01*
X109124703Y-97634337D01*
X109153700Y-97526118D01*
X109153700Y-97414082D01*
X109124703Y-97305863D01*
X109124701Y-97305860D01*
X109124701Y-97305858D01*
X109068686Y-97208839D01*
X109068685Y-97208837D01*
X108989463Y-97129615D01*
X108981099Y-97124786D01*
X108892440Y-97073598D01*
X108892442Y-97073598D01*
X108850451Y-97062347D01*
X108784218Y-97044600D01*
X108672182Y-97044600D01*
X108605948Y-97062347D01*
X108563958Y-97073598D01*
X108466939Y-97129613D01*
X108387713Y-97208839D01*
X108331698Y-97305858D01*
X108315486Y-97366363D01*
X108302700Y-97414082D01*
X107866800Y-97414082D01*
X107866800Y-92091476D01*
X107885707Y-92033285D01*
X107935207Y-91997321D01*
X107996393Y-91997321D01*
X108015300Y-92005740D01*
X108113959Y-92062701D01*
X108113957Y-92062701D01*
X108113961Y-92062702D01*
X108113963Y-92062703D01*
X108222182Y-92091700D01*
X108222184Y-92091700D01*
X108334216Y-92091700D01*
X108334218Y-92091700D01*
X108442437Y-92062703D01*
X108442439Y-92062701D01*
X108442441Y-92062701D01*
X108493390Y-92033285D01*
X108539463Y-92006685D01*
X108618685Y-91927463D01*
X108674703Y-91830437D01*
X108703700Y-91722218D01*
X108703700Y-91610182D01*
X108674703Y-91501963D01*
X108674701Y-91501959D01*
X108674701Y-91501958D01*
X108618686Y-91404939D01*
X108618685Y-91404937D01*
X108539463Y-91325715D01*
X108539460Y-91325713D01*
X108442440Y-91269698D01*
X108442442Y-91269698D01*
X108400451Y-91258447D01*
X108334218Y-91240700D01*
X108222182Y-91240700D01*
X108155948Y-91258447D01*
X108113958Y-91269698D01*
X108016939Y-91325713D01*
X107937713Y-91404939D01*
X107881698Y-91501959D01*
X107881697Y-91501961D01*
X107877447Y-91517823D01*
X107844123Y-91569136D01*
X107787001Y-91591062D01*
X107727900Y-91575226D01*
X107711817Y-91562202D01*
X107006639Y-90857024D01*
X106978862Y-90802507D01*
X106985178Y-90749138D01*
X107042051Y-90611835D01*
X107080500Y-90418541D01*
X107080500Y-90221459D01*
X107042051Y-90028165D01*
X106966632Y-89846086D01*
X106857139Y-89682218D01*
X106717782Y-89542861D01*
X106682841Y-89519514D01*
X106644963Y-89471465D01*
X106642561Y-89410327D01*
X106676554Y-89359453D01*
X106733958Y-89338276D01*
X106737844Y-89338200D01*
X107631842Y-89338200D01*
X107690033Y-89357107D01*
X107701845Y-89367196D01*
X107737136Y-89402486D01*
X107834158Y-89458502D01*
X107834156Y-89458502D01*
X107834160Y-89458503D01*
X107834162Y-89458504D01*
X107942381Y-89487501D01*
X107942383Y-89487501D01*
X108054415Y-89487501D01*
X108054417Y-89487501D01*
X108162636Y-89458504D01*
X108162638Y-89458502D01*
X108162640Y-89458502D01*
X108206173Y-89433368D01*
X108259662Y-89402486D01*
X108338884Y-89323264D01*
X108394902Y-89226238D01*
X108423899Y-89118019D01*
X108423899Y-89005983D01*
X108394902Y-88897764D01*
X108394900Y-88897761D01*
X108394900Y-88897759D01*
X108338885Y-88800740D01*
X108338884Y-88800738D01*
X108259662Y-88721516D01*
X108254946Y-88718793D01*
X108162639Y-88665499D01*
X108162641Y-88665499D01*
X108113100Y-88652225D01*
X108054417Y-88636501D01*
X107942381Y-88636501D01*
X107883698Y-88652225D01*
X107834157Y-88665499D01*
X107737136Y-88721515D01*
X107700447Y-88758204D01*
X107645930Y-88785981D01*
X107630444Y-88787200D01*
X106699830Y-88787200D01*
X106641639Y-88768293D01*
X106605675Y-88718793D01*
X106605675Y-88657607D01*
X106641639Y-88608107D01*
X106644828Y-88605885D01*
X106717782Y-88557139D01*
X106857139Y-88417782D01*
X106966632Y-88253914D01*
X107042051Y-88071835D01*
X107080500Y-87878541D01*
X107080500Y-87681459D01*
X107042051Y-87488165D01*
X106966632Y-87306086D01*
X106857139Y-87142218D01*
X106717782Y-87002861D01*
X106701847Y-86992213D01*
X106663969Y-86944166D01*
X106661567Y-86883028D01*
X106695559Y-86832154D01*
X106752963Y-86810976D01*
X106756850Y-86810900D01*
X107851844Y-86810900D01*
X107910035Y-86829807D01*
X107921847Y-86839896D01*
X107957837Y-86875885D01*
X108054859Y-86931901D01*
X108054857Y-86931901D01*
X108054861Y-86931902D01*
X108054863Y-86931903D01*
X108163082Y-86960900D01*
X108163084Y-86960900D01*
X108275116Y-86960900D01*
X108275118Y-86960900D01*
X108383337Y-86931903D01*
X108383339Y-86931901D01*
X108383341Y-86931901D01*
X108412164Y-86915259D01*
X108480363Y-86875885D01*
X108559585Y-86796663D01*
X108615603Y-86699637D01*
X108644600Y-86591418D01*
X108644600Y-86479382D01*
X108615603Y-86371163D01*
X108615601Y-86371160D01*
X108615601Y-86371158D01*
X108564298Y-86282301D01*
X108559585Y-86274137D01*
X108480363Y-86194915D01*
X108474436Y-86191493D01*
X108383340Y-86138898D01*
X108383342Y-86138898D01*
X108326930Y-86123783D01*
X108275118Y-86109900D01*
X108163082Y-86109900D01*
X108111270Y-86123783D01*
X108054858Y-86138898D01*
X107957837Y-86194914D01*
X107921847Y-86230904D01*
X107867330Y-86258681D01*
X107851844Y-86259900D01*
X106680823Y-86259900D01*
X106622632Y-86240993D01*
X106586668Y-86191493D01*
X106586668Y-86130307D01*
X106622632Y-86080807D01*
X106625821Y-86078585D01*
X106717782Y-86017139D01*
X106857139Y-85877782D01*
X106966632Y-85713914D01*
X107042051Y-85531835D01*
X107080500Y-85338541D01*
X107080500Y-85141459D01*
X107042051Y-84948165D01*
X106966632Y-84766086D01*
X106857139Y-84602218D01*
X106717782Y-84462861D01*
X106553914Y-84353368D01*
X106553915Y-84353368D01*
X106553913Y-84353367D01*
X106371835Y-84277949D01*
X106178543Y-84239500D01*
X106178541Y-84239500D01*
X105981459Y-84239500D01*
X105981456Y-84239500D01*
X105788165Y-84277949D01*
X105788163Y-84277949D01*
X105606086Y-84353367D01*
X105442218Y-84462861D01*
X105442214Y-84462864D01*
X105302864Y-84602214D01*
X105302861Y-84602218D01*
X105193367Y-84766086D01*
X105117949Y-84948163D01*
X105117949Y-84948165D01*
X105079500Y-85141456D01*
X105079500Y-85338543D01*
X105117949Y-85531834D01*
X105117949Y-85531836D01*
X105193367Y-85713913D01*
X105209627Y-85738247D01*
X105302861Y-85877782D01*
X105442218Y-86017139D01*
X105581045Y-86109900D01*
X105599513Y-86122240D01*
X105637392Y-86170290D01*
X105639794Y-86231428D01*
X105605801Y-86282301D01*
X105582400Y-86296018D01*
X105568344Y-86301840D01*
X103171704Y-88698480D01*
X103117187Y-88726257D01*
X103056755Y-88716686D01*
X103013490Y-88673421D01*
X103002700Y-88628476D01*
X103002700Y-86436523D01*
X103021607Y-86378332D01*
X103031696Y-86366519D01*
X103659969Y-85738247D01*
X103714486Y-85710470D01*
X103729973Y-85709251D01*
X103792167Y-85709251D01*
X103792169Y-85709251D01*
X103900388Y-85680254D01*
X103900390Y-85680252D01*
X103900392Y-85680252D01*
X103949604Y-85651839D01*
X103997414Y-85624236D01*
X104076636Y-85545014D01*
X104132654Y-85447988D01*
X104161651Y-85339769D01*
X104161651Y-85227733D01*
X104132654Y-85119514D01*
X104132652Y-85119511D01*
X104132652Y-85119509D01*
X104076637Y-85022490D01*
X104076636Y-85022488D01*
X103997414Y-84943266D01*
X103997411Y-84943264D01*
X103900391Y-84887249D01*
X103900393Y-84887249D01*
X103858402Y-84875998D01*
X103792169Y-84858251D01*
X103680133Y-84858251D01*
X103613899Y-84875998D01*
X103571909Y-84887249D01*
X103474890Y-84943264D01*
X103395664Y-85022490D01*
X103339649Y-85119509D01*
X103310651Y-85227734D01*
X103310651Y-85267325D01*
X103291744Y-85325516D01*
X103281655Y-85337329D01*
X102799604Y-85819380D01*
X102745087Y-85847157D01*
X102684655Y-85837586D01*
X102641390Y-85794321D01*
X102630600Y-85749376D01*
X102630600Y-84890923D01*
X102649507Y-84832732D01*
X102659596Y-84820919D01*
X104910496Y-82570019D01*
X104965013Y-82542242D01*
X105025445Y-82551813D01*
G37*
G04 #@! TD.AperFunction*
G04 #@! TA.AperFunction,Conductor*
G36*
X125134309Y-70100877D02*
G01*
X125324457Y-70117512D01*
X125341437Y-70120505D01*
X125521635Y-70168789D01*
X125537839Y-70174687D01*
X125706902Y-70253523D01*
X125721842Y-70262149D01*
X125874641Y-70369140D01*
X125887861Y-70380232D01*
X126019767Y-70512138D01*
X126030859Y-70525358D01*
X126137850Y-70678157D01*
X126146478Y-70693101D01*
X126225308Y-70862151D01*
X126231211Y-70878368D01*
X126279492Y-71058555D01*
X126282488Y-71075550D01*
X126299123Y-71265690D01*
X126299500Y-71274318D01*
X126299500Y-137305681D01*
X126299123Y-137314309D01*
X126282488Y-137504449D01*
X126279492Y-137521444D01*
X126231211Y-137701631D01*
X126225308Y-137717848D01*
X126146478Y-137886898D01*
X126137850Y-137901842D01*
X126030859Y-138054641D01*
X126019767Y-138067861D01*
X125887861Y-138199767D01*
X125874641Y-138210859D01*
X125721842Y-138317850D01*
X125706898Y-138326478D01*
X125537848Y-138405308D01*
X125521631Y-138411211D01*
X125341444Y-138459492D01*
X125324449Y-138462488D01*
X125134309Y-138479123D01*
X125125681Y-138479500D01*
X102274319Y-138479500D01*
X102265691Y-138479123D01*
X102075550Y-138462488D01*
X102058555Y-138459492D01*
X101878368Y-138411211D01*
X101862154Y-138405309D01*
X101693100Y-138326477D01*
X101678157Y-138317850D01*
X101525358Y-138210859D01*
X101512138Y-138199767D01*
X101380232Y-138067861D01*
X101369140Y-138054641D01*
X101262149Y-137901842D01*
X101253523Y-137886902D01*
X101174687Y-137717839D01*
X101168788Y-137701631D01*
X101149843Y-137630926D01*
X101120505Y-137521437D01*
X101117512Y-137504457D01*
X101100877Y-137314309D01*
X101100500Y-137305681D01*
X101100500Y-133300000D01*
X105100190Y-133300000D01*
X105733589Y-133300000D01*
X105707259Y-133345606D01*
X105680000Y-133447339D01*
X105680000Y-133552661D01*
X105707259Y-133654394D01*
X105733590Y-133700000D01*
X105100191Y-133700000D01*
X105118429Y-133791688D01*
X105118429Y-133791690D01*
X105193808Y-133973673D01*
X105193814Y-133973685D01*
X105303249Y-134137462D01*
X105303252Y-134137466D01*
X105442533Y-134276747D01*
X105442537Y-134276750D01*
X105606314Y-134386185D01*
X105606326Y-134386191D01*
X105788304Y-134461568D01*
X105788315Y-134461571D01*
X105880000Y-134479807D01*
X105880000Y-133846410D01*
X105925606Y-133872741D01*
X106027339Y-133900000D01*
X106132661Y-133900000D01*
X106234394Y-133872741D01*
X106280000Y-133846410D01*
X106280000Y-134479806D01*
X106371684Y-134461571D01*
X106371695Y-134461568D01*
X106553673Y-134386191D01*
X106553685Y-134386185D01*
X106717462Y-134276750D01*
X106717466Y-134276747D01*
X106856747Y-134137466D01*
X106856750Y-134137462D01*
X106966185Y-133973685D01*
X106966191Y-133973673D01*
X107041570Y-133791690D01*
X107041570Y-133791688D01*
X107059809Y-133700000D01*
X106426410Y-133700000D01*
X106452741Y-133654394D01*
X106480000Y-133552661D01*
X106480000Y-133447339D01*
X106466386Y-133396532D01*
X108885700Y-133396532D01*
X108885700Y-133603467D01*
X108926069Y-133806418D01*
X109005258Y-133997597D01*
X109005259Y-133997598D01*
X109120223Y-134169655D01*
X109266545Y-134315977D01*
X109438602Y-134430941D01*
X109629780Y-134510130D01*
X109832735Y-134550500D01*
X109832736Y-134550500D01*
X110039664Y-134550500D01*
X110039665Y-134550500D01*
X110242620Y-134510130D01*
X110433798Y-134430941D01*
X110605855Y-134315977D01*
X110752177Y-134169655D01*
X110867141Y-133997598D01*
X110946330Y-133806420D01*
X110986700Y-133603465D01*
X110986700Y-133396535D01*
X110986699Y-133396532D01*
X116438700Y-133396532D01*
X116438700Y-133603467D01*
X116479069Y-133806418D01*
X116558258Y-133997597D01*
X116558259Y-133997598D01*
X116673223Y-134169655D01*
X116819545Y-134315977D01*
X116991602Y-134430941D01*
X117182780Y-134510130D01*
X117385735Y-134550500D01*
X117385736Y-134550500D01*
X117592664Y-134550500D01*
X117592665Y-134550500D01*
X117795620Y-134510130D01*
X117986798Y-134430941D01*
X118158855Y-134315977D01*
X118305177Y-134169655D01*
X118420141Y-133997598D01*
X118499330Y-133806420D01*
X118539700Y-133603465D01*
X118539700Y-133396535D01*
X118520498Y-133300000D01*
X120340190Y-133300000D01*
X120973589Y-133300000D01*
X120947259Y-133345606D01*
X120920000Y-133447339D01*
X120920000Y-133552661D01*
X120947259Y-133654394D01*
X120973590Y-133700000D01*
X120340191Y-133700000D01*
X120358429Y-133791688D01*
X120358429Y-133791690D01*
X120433808Y-133973673D01*
X120433814Y-133973685D01*
X120543249Y-134137462D01*
X120543252Y-134137466D01*
X120682533Y-134276747D01*
X120682537Y-134276750D01*
X120846314Y-134386185D01*
X120846326Y-134386191D01*
X121028304Y-134461568D01*
X121028315Y-134461571D01*
X121120000Y-134479807D01*
X121120000Y-133846410D01*
X121165606Y-133872741D01*
X121267339Y-133900000D01*
X121372661Y-133900000D01*
X121474394Y-133872741D01*
X121520000Y-133846410D01*
X121520000Y-134479806D01*
X121611684Y-134461571D01*
X121611695Y-134461568D01*
X121793673Y-134386191D01*
X121793685Y-134386185D01*
X121957462Y-134276750D01*
X121957466Y-134276747D01*
X122096747Y-134137466D01*
X122096750Y-134137462D01*
X122206185Y-133973685D01*
X122206191Y-133973673D01*
X122281570Y-133791690D01*
X122281570Y-133791688D01*
X122299809Y-133700000D01*
X121666410Y-133700000D01*
X121692741Y-133654394D01*
X121720000Y-133552661D01*
X121720000Y-133447339D01*
X121692741Y-133345606D01*
X121666411Y-133300000D01*
X122299809Y-133300000D01*
X122281570Y-133208311D01*
X122281570Y-133208309D01*
X122206191Y-133026326D01*
X122206185Y-133026314D01*
X122096750Y-132862537D01*
X122096747Y-132862533D01*
X121957466Y-132723252D01*
X121957462Y-132723249D01*
X121793685Y-132613814D01*
X121793673Y-132613808D01*
X121611689Y-132538429D01*
X121520000Y-132520190D01*
X121520000Y-133153589D01*
X121474394Y-133127259D01*
X121372661Y-133100000D01*
X121267339Y-133100000D01*
X121165606Y-133127259D01*
X121120000Y-133153589D01*
X121120000Y-132520190D01*
X121028311Y-132538429D01*
X121028309Y-132538429D01*
X120846326Y-132613808D01*
X120846314Y-132613814D01*
X120682537Y-132723249D01*
X120682533Y-132723252D01*
X120543252Y-132862533D01*
X120543249Y-132862537D01*
X120433814Y-133026314D01*
X120433808Y-133026326D01*
X120358429Y-133208309D01*
X120358429Y-133208311D01*
X120340190Y-133300000D01*
X118520498Y-133300000D01*
X118499330Y-133193580D01*
X118420141Y-133002402D01*
X118305177Y-132830345D01*
X118158855Y-132684023D01*
X118158851Y-132684020D01*
X117986797Y-132569058D01*
X117795618Y-132489869D01*
X117592667Y-132449500D01*
X117592665Y-132449500D01*
X117385735Y-132449500D01*
X117385732Y-132449500D01*
X117182781Y-132489869D01*
X116991602Y-132569058D01*
X116819548Y-132684020D01*
X116673220Y-132830348D01*
X116558258Y-133002402D01*
X116479069Y-133193581D01*
X116438700Y-133396532D01*
X110986699Y-133396532D01*
X110946330Y-133193580D01*
X110867141Y-133002402D01*
X110752177Y-132830345D01*
X110605855Y-132684023D01*
X110605851Y-132684020D01*
X110433797Y-132569058D01*
X110242618Y-132489869D01*
X110039667Y-132449500D01*
X110039665Y-132449500D01*
X109832735Y-132449500D01*
X109832732Y-132449500D01*
X109629781Y-132489869D01*
X109438602Y-132569058D01*
X109266548Y-132684020D01*
X109120220Y-132830348D01*
X109005258Y-133002402D01*
X108926069Y-133193581D01*
X108885700Y-133396532D01*
X106466386Y-133396532D01*
X106452741Y-133345606D01*
X106426411Y-133300000D01*
X107059808Y-133300000D01*
X107059808Y-133299999D01*
X107041570Y-133208311D01*
X107041570Y-133208309D01*
X106966191Y-133026326D01*
X106966185Y-133026314D01*
X106856750Y-132862537D01*
X106856747Y-132862533D01*
X106717466Y-132723252D01*
X106717462Y-132723249D01*
X106553685Y-132613814D01*
X106553673Y-132613808D01*
X106371689Y-132538429D01*
X106280000Y-132520190D01*
X106280000Y-133153589D01*
X106234394Y-133127259D01*
X106132661Y-133100000D01*
X106027339Y-133100000D01*
X105925606Y-133127259D01*
X105880000Y-133153589D01*
X105880000Y-132520190D01*
X105788311Y-132538429D01*
X105788309Y-132538429D01*
X105606326Y-132613808D01*
X105606314Y-132613814D01*
X105442537Y-132723249D01*
X105442533Y-132723252D01*
X105303252Y-132862533D01*
X105303249Y-132862537D01*
X105193814Y-133026314D01*
X105193808Y-133026326D01*
X105118429Y-133208309D01*
X105118429Y-133208311D01*
X105100190Y-133300000D01*
X101100500Y-133300000D01*
X101100500Y-130861456D01*
X105079500Y-130861456D01*
X105079500Y-131058543D01*
X105117949Y-131251834D01*
X105117949Y-131251836D01*
X105193367Y-131433913D01*
X105193368Y-131433914D01*
X105302861Y-131597782D01*
X105442218Y-131737139D01*
X105606086Y-131846632D01*
X105788165Y-131922051D01*
X105981459Y-131960500D01*
X105981460Y-131960500D01*
X106178540Y-131960500D01*
X106178541Y-131960500D01*
X106371835Y-131922051D01*
X106553914Y-131846632D01*
X106717782Y-131737139D01*
X106857139Y-131597782D01*
X106966632Y-131433914D01*
X107042051Y-131251835D01*
X107080500Y-131058541D01*
X107080500Y-130861459D01*
X107080499Y-130861456D01*
X120319500Y-130861456D01*
X120319500Y-131058543D01*
X120357949Y-131251834D01*
X120357949Y-131251836D01*
X120433367Y-131433913D01*
X120433368Y-131433914D01*
X120542861Y-131597782D01*
X120682218Y-131737139D01*
X120846086Y-131846632D01*
X121028165Y-131922051D01*
X121221459Y-131960500D01*
X121221460Y-131960500D01*
X121418540Y-131960500D01*
X121418541Y-131960500D01*
X121611835Y-131922051D01*
X121793914Y-131846632D01*
X121957782Y-131737139D01*
X122097139Y-131597782D01*
X122206632Y-131433914D01*
X122282051Y-131251835D01*
X122320500Y-131058541D01*
X122320500Y-130861459D01*
X122282051Y-130668165D01*
X122206632Y-130486086D01*
X122097139Y-130322218D01*
X121957782Y-130182861D01*
X121793914Y-130073368D01*
X121793915Y-130073368D01*
X121793913Y-130073367D01*
X121611835Y-129997949D01*
X121418543Y-129959500D01*
X121418541Y-129959500D01*
X121221459Y-129959500D01*
X121221456Y-129959500D01*
X121028165Y-129997949D01*
X121028163Y-129997949D01*
X120846086Y-130073367D01*
X120682218Y-130182861D01*
X120682214Y-130182864D01*
X120542864Y-130322214D01*
X120542861Y-130322218D01*
X120433367Y-130486086D01*
X120357949Y-130668163D01*
X120357949Y-130668165D01*
X120319500Y-130861456D01*
X107080499Y-130861456D01*
X107042051Y-130668165D01*
X106966632Y-130486086D01*
X106857139Y-130322218D01*
X106717782Y-130182861D01*
X106713623Y-130180082D01*
X108270700Y-130180082D01*
X108270700Y-130292118D01*
X108296272Y-130387555D01*
X108299698Y-130400341D01*
X108349204Y-130486086D01*
X108355715Y-130497363D01*
X108434937Y-130576585D01*
X108434939Y-130576586D01*
X108531959Y-130632601D01*
X108531957Y-130632601D01*
X108531961Y-130632602D01*
X108531963Y-130632603D01*
X108640182Y-130661600D01*
X108640184Y-130661600D01*
X108752216Y-130661600D01*
X108752218Y-130661600D01*
X108860437Y-130632603D01*
X108860439Y-130632601D01*
X108860441Y-130632601D01*
X108889264Y-130615959D01*
X108957463Y-130576585D01*
X109036685Y-130497363D01*
X109092703Y-130400337D01*
X109121700Y-130292118D01*
X109121700Y-130180082D01*
X109092703Y-130071863D01*
X109092701Y-130071860D01*
X109092701Y-130071858D01*
X109036686Y-129974839D01*
X109036685Y-129974837D01*
X108957463Y-129895615D01*
X108957460Y-129895613D01*
X108860440Y-129839598D01*
X108860442Y-129839598D01*
X108818451Y-129828347D01*
X108752218Y-129810600D01*
X108640182Y-129810600D01*
X108573948Y-129828347D01*
X108531958Y-129839598D01*
X108434939Y-129895613D01*
X108355713Y-129974839D01*
X108299698Y-130071858D01*
X108283486Y-130132363D01*
X108270700Y-130180082D01*
X106713623Y-130180082D01*
X106553914Y-130073368D01*
X106553915Y-130073368D01*
X106553913Y-130073367D01*
X106371835Y-129997949D01*
X106178543Y-129959500D01*
X106178541Y-129959500D01*
X105981459Y-129959500D01*
X105981456Y-129959500D01*
X105788165Y-129997949D01*
X105788163Y-129997949D01*
X105606086Y-130073367D01*
X105442218Y-130182861D01*
X105442214Y-130182864D01*
X105302864Y-130322214D01*
X105302861Y-130322218D01*
X105193367Y-130486086D01*
X105117949Y-130668163D01*
X105117949Y-130668165D01*
X105079500Y-130861456D01*
X101100500Y-130861456D01*
X101100500Y-128321456D01*
X105079500Y-128321456D01*
X105079500Y-128518543D01*
X105117949Y-128711834D01*
X105117949Y-128711836D01*
X105193367Y-128893913D01*
X105193368Y-128893914D01*
X105302861Y-129057782D01*
X105442218Y-129197139D01*
X105606086Y-129306632D01*
X105788165Y-129382051D01*
X105981459Y-129420500D01*
X105981460Y-129420500D01*
X106178540Y-129420500D01*
X106178541Y-129420500D01*
X106371835Y-129382051D01*
X106553914Y-129306632D01*
X106717782Y-129197139D01*
X106857139Y-129057782D01*
X106966632Y-128893914D01*
X107042051Y-128711835D01*
X107080500Y-128518541D01*
X107080500Y-128321459D01*
X107042051Y-128128165D01*
X106966632Y-127946086D01*
X106857139Y-127782218D01*
X106717782Y-127642861D01*
X106553914Y-127533368D01*
X106553915Y-127533368D01*
X106553913Y-127533367D01*
X106371835Y-127457949D01*
X106178543Y-127419500D01*
X106178541Y-127419500D01*
X105981459Y-127419500D01*
X105981456Y-127419500D01*
X105788165Y-127457949D01*
X105788163Y-127457949D01*
X105606086Y-127533367D01*
X105442218Y-127642861D01*
X105442214Y-127642864D01*
X105302864Y-127782214D01*
X105302861Y-127782218D01*
X105193367Y-127946086D01*
X105117949Y-128128163D01*
X105117949Y-128128165D01*
X105079500Y-128321456D01*
X101100500Y-128321456D01*
X101100500Y-126969001D01*
X113169800Y-126969001D01*
X113169800Y-127601500D01*
X113181403Y-127659836D01*
X113225606Y-127725989D01*
X113225610Y-127725993D01*
X113291763Y-127770196D01*
X113350099Y-127781799D01*
X113350103Y-127781800D01*
X113499999Y-127781800D01*
X113500000Y-127781799D01*
X113500000Y-126969001D01*
X113499999Y-126969000D01*
X113169801Y-126969000D01*
X113169800Y-126969001D01*
X101100500Y-126969001D01*
X101100500Y-125781456D01*
X105079500Y-125781456D01*
X105079500Y-125978543D01*
X105117949Y-126171834D01*
X105117949Y-126171836D01*
X105193367Y-126353913D01*
X105193368Y-126353914D01*
X105302861Y-126517782D01*
X105442218Y-126657139D01*
X105606086Y-126766632D01*
X105788165Y-126842051D01*
X105981459Y-126880500D01*
X105981460Y-126880500D01*
X106178540Y-126880500D01*
X106178541Y-126880500D01*
X106371835Y-126842051D01*
X106553914Y-126766632D01*
X106717782Y-126657139D01*
X106857139Y-126517782D01*
X106966632Y-126353914D01*
X107042051Y-126171835D01*
X107080500Y-125978541D01*
X107080500Y-125936499D01*
X113169800Y-125936499D01*
X113169800Y-126568999D01*
X113169801Y-126569000D01*
X113499999Y-126569000D01*
X113500000Y-126568999D01*
X113500000Y-125756201D01*
X113900000Y-125756201D01*
X113900000Y-127781799D01*
X113900001Y-127781800D01*
X114049897Y-127781800D01*
X114049900Y-127781799D01*
X114108236Y-127770196D01*
X114174389Y-127725993D01*
X114174392Y-127725990D01*
X114193184Y-127697867D01*
X114241234Y-127659987D01*
X114302372Y-127657585D01*
X114353246Y-127691578D01*
X114374424Y-127748981D01*
X114374500Y-127752868D01*
X114374500Y-129435236D01*
X114371127Y-129460853D01*
X114343200Y-129565082D01*
X114343200Y-129677118D01*
X114368772Y-129772555D01*
X114372198Y-129785341D01*
X114428213Y-129882360D01*
X114428215Y-129882363D01*
X114507437Y-129961585D01*
X114507439Y-129961586D01*
X114604459Y-130017601D01*
X114604457Y-130017601D01*
X114604461Y-130017602D01*
X114604463Y-130017603D01*
X114712682Y-130046600D01*
X114712684Y-130046600D01*
X114824716Y-130046600D01*
X114824718Y-130046600D01*
X114932937Y-130017603D01*
X114932939Y-130017601D01*
X114932941Y-130017601D01*
X115007006Y-129974839D01*
X115029963Y-129961585D01*
X115109185Y-129882363D01*
X115165203Y-129785337D01*
X115194200Y-129677118D01*
X115194200Y-129565082D01*
X115165203Y-129456863D01*
X115165201Y-129456860D01*
X115165201Y-129456858D01*
X115109186Y-129359839D01*
X115109185Y-129359837D01*
X115029963Y-129280615D01*
X115017218Y-129273256D01*
X114974999Y-129248881D01*
X114934059Y-129203411D01*
X114925500Y-129163145D01*
X114925500Y-128321456D01*
X120319500Y-128321456D01*
X120319500Y-128518543D01*
X120357949Y-128711834D01*
X120357949Y-128711836D01*
X120433367Y-128893913D01*
X120433368Y-128893914D01*
X120542861Y-129057782D01*
X120682218Y-129197139D01*
X120846086Y-129306632D01*
X121028165Y-129382051D01*
X121221459Y-129420500D01*
X121221460Y-129420500D01*
X121418540Y-129420500D01*
X121418541Y-129420500D01*
X121611835Y-129382051D01*
X121793914Y-129306632D01*
X121957782Y-129197139D01*
X122097139Y-129057782D01*
X122206632Y-128893914D01*
X122282051Y-128711835D01*
X122320500Y-128518541D01*
X122320500Y-128321459D01*
X122282051Y-128128165D01*
X122206632Y-127946086D01*
X122097139Y-127782218D01*
X121957782Y-127642861D01*
X121793914Y-127533368D01*
X121793915Y-127533368D01*
X121793913Y-127533367D01*
X121611835Y-127457949D01*
X121418543Y-127419500D01*
X121418541Y-127419500D01*
X121221459Y-127419500D01*
X121221456Y-127419500D01*
X121028165Y-127457949D01*
X121028163Y-127457949D01*
X120846086Y-127533367D01*
X120682218Y-127642861D01*
X120682214Y-127642864D01*
X120542864Y-127782214D01*
X120542861Y-127782218D01*
X120433367Y-127946086D01*
X120357949Y-128128163D01*
X120357949Y-128128165D01*
X120319500Y-128321456D01*
X114925500Y-128321456D01*
X114925500Y-125781456D01*
X120319500Y-125781456D01*
X120319500Y-125978543D01*
X120357949Y-126171834D01*
X120357949Y-126171836D01*
X120433367Y-126353913D01*
X120433368Y-126353914D01*
X120542861Y-126517782D01*
X120682218Y-126657139D01*
X120846086Y-126766632D01*
X121028165Y-126842051D01*
X121221459Y-126880500D01*
X121221460Y-126880500D01*
X121418540Y-126880500D01*
X121418541Y-126880500D01*
X121611835Y-126842051D01*
X121793914Y-126766632D01*
X121957782Y-126657139D01*
X122097139Y-126517782D01*
X122206632Y-126353914D01*
X122282051Y-126171835D01*
X122320500Y-125978541D01*
X122320500Y-125781459D01*
X122282051Y-125588165D01*
X122206632Y-125406086D01*
X122113832Y-125267201D01*
X123312000Y-125267201D01*
X123312000Y-125419901D01*
X123314771Y-125449458D01*
X123314772Y-125449459D01*
X123358330Y-125573940D01*
X123436641Y-125680048D01*
X123436651Y-125680058D01*
X123542759Y-125758369D01*
X123667240Y-125801927D01*
X123667241Y-125801928D01*
X123696799Y-125804700D01*
X123786999Y-125804700D01*
X123787000Y-125804699D01*
X123787000Y-125267201D01*
X124187000Y-125267201D01*
X124187000Y-125804699D01*
X124187001Y-125804700D01*
X124277201Y-125804700D01*
X124306758Y-125801928D01*
X124306759Y-125801927D01*
X124431240Y-125758369D01*
X124537348Y-125680058D01*
X124537358Y-125680048D01*
X124615669Y-125573940D01*
X124659227Y-125449459D01*
X124659228Y-125449458D01*
X124662000Y-125419901D01*
X124662000Y-125267201D01*
X124661999Y-125267200D01*
X124187001Y-125267200D01*
X124187000Y-125267201D01*
X123787000Y-125267201D01*
X123786999Y-125267200D01*
X123312001Y-125267200D01*
X123312000Y-125267201D01*
X122113832Y-125267201D01*
X122097139Y-125242218D01*
X121957782Y-125102861D01*
X121793914Y-124993368D01*
X121793915Y-124993368D01*
X121793913Y-124993367D01*
X121611835Y-124917949D01*
X121418543Y-124879500D01*
X121418541Y-124879500D01*
X121221459Y-124879500D01*
X121221456Y-124879500D01*
X121028165Y-124917949D01*
X121028163Y-124917949D01*
X120846086Y-124993367D01*
X120682218Y-125102861D01*
X120682214Y-125102864D01*
X120542864Y-125242214D01*
X120542861Y-125242218D01*
X120433367Y-125406086D01*
X120357949Y-125588163D01*
X120357949Y-125588165D01*
X120319500Y-125781456D01*
X114925500Y-125781456D01*
X114925500Y-125746356D01*
X114944407Y-125688165D01*
X114993907Y-125652201D01*
X115005177Y-125649260D01*
X115058432Y-125638667D01*
X115124753Y-125594352D01*
X115169068Y-125528031D01*
X115180701Y-125469548D01*
X115180701Y-124714498D01*
X123312000Y-124714498D01*
X123312000Y-124867199D01*
X123312001Y-124867200D01*
X123786999Y-124867200D01*
X123787000Y-124867199D01*
X123787000Y-124329701D01*
X124187000Y-124329701D01*
X124187000Y-124867199D01*
X124187001Y-124867200D01*
X124661999Y-124867200D01*
X124662000Y-124867199D01*
X124662000Y-124714498D01*
X124659228Y-124684941D01*
X124659227Y-124684940D01*
X124615669Y-124560459D01*
X124537358Y-124454351D01*
X124537348Y-124454341D01*
X124431240Y-124376030D01*
X124306759Y-124332472D01*
X124306758Y-124332471D01*
X124277201Y-124329700D01*
X124187001Y-124329700D01*
X124187000Y-124329701D01*
X123787000Y-124329701D01*
X123786999Y-124329700D01*
X123696799Y-124329700D01*
X123667241Y-124332471D01*
X123667240Y-124332472D01*
X123542759Y-124376030D01*
X123436651Y-124454341D01*
X123436641Y-124454351D01*
X123358330Y-124560459D01*
X123314772Y-124684940D01*
X123314771Y-124684941D01*
X123312000Y-124714498D01*
X115180701Y-124714498D01*
X115180701Y-123804452D01*
X115180136Y-123801614D01*
X115171741Y-123759407D01*
X115169068Y-123745969D01*
X115124753Y-123679648D01*
X115124749Y-123679645D01*
X115058434Y-123635334D01*
X115058432Y-123635333D01*
X115058429Y-123635332D01*
X115058428Y-123635332D01*
X114999959Y-123623701D01*
X114999949Y-123623700D01*
X114300053Y-123623700D01*
X114300052Y-123623700D01*
X114300042Y-123623701D01*
X114241573Y-123635332D01*
X114241567Y-123635334D01*
X114175252Y-123679645D01*
X114175246Y-123679651D01*
X114130935Y-123745966D01*
X114130933Y-123745972D01*
X114119302Y-123804441D01*
X114119301Y-123804453D01*
X114119301Y-125469546D01*
X114119302Y-125469558D01*
X114130933Y-125528027D01*
X114130935Y-125528033D01*
X114171115Y-125588165D01*
X114175249Y-125594352D01*
X114175252Y-125594354D01*
X114177638Y-125596740D01*
X114180185Y-125601739D01*
X114180666Y-125602459D01*
X114180580Y-125602515D01*
X114205415Y-125651257D01*
X114195844Y-125711689D01*
X114152579Y-125754954D01*
X114092147Y-125764525D01*
X114088321Y-125763842D01*
X114049902Y-125756200D01*
X113900001Y-125756200D01*
X113900000Y-125756201D01*
X113500000Y-125756201D01*
X113499999Y-125756200D01*
X113350096Y-125756200D01*
X113326391Y-125760915D01*
X113221837Y-125817650D01*
X113181403Y-125878163D01*
X113169800Y-125936499D01*
X107080500Y-125936499D01*
X107080500Y-125781459D01*
X107042051Y-125588165D01*
X106966632Y-125406086D01*
X106857139Y-125242218D01*
X106717782Y-125102861D01*
X106553914Y-124993368D01*
X106542125Y-124988485D01*
X106504939Y-124973082D01*
X109172400Y-124973082D01*
X109172400Y-125085118D01*
X109195814Y-125172500D01*
X109201398Y-125193341D01*
X109257413Y-125290360D01*
X109257415Y-125290363D01*
X109336637Y-125369585D01*
X109336639Y-125369586D01*
X109433659Y-125425601D01*
X109433657Y-125425601D01*
X109433661Y-125425602D01*
X109433663Y-125425603D01*
X109541882Y-125454600D01*
X109541884Y-125454600D01*
X109653916Y-125454600D01*
X109653918Y-125454600D01*
X109762137Y-125425603D01*
X109762139Y-125425601D01*
X109762141Y-125425601D01*
X109795941Y-125406086D01*
X109859163Y-125369585D01*
X109938385Y-125290363D01*
X109994403Y-125193337D01*
X110023400Y-125085118D01*
X110023400Y-125034223D01*
X110042307Y-124976032D01*
X110052396Y-124964219D01*
X110424633Y-124591982D01*
X111699500Y-124591982D01*
X111699500Y-124704018D01*
X111716600Y-124767837D01*
X111728498Y-124812241D01*
X111767331Y-124879500D01*
X111784515Y-124909263D01*
X111863737Y-124988485D01*
X111863739Y-124988486D01*
X111960759Y-125044501D01*
X111960757Y-125044501D01*
X111960761Y-125044502D01*
X111960763Y-125044503D01*
X112068982Y-125073500D01*
X112068984Y-125073500D01*
X112120299Y-125073500D01*
X112178490Y-125092407D01*
X112214454Y-125141907D01*
X112219299Y-125172500D01*
X112219299Y-125469546D01*
X112219300Y-125469558D01*
X112230931Y-125528027D01*
X112230933Y-125528033D01*
X112271113Y-125588165D01*
X112275247Y-125594352D01*
X112341568Y-125638667D01*
X112386030Y-125647511D01*
X112400040Y-125650298D01*
X112400045Y-125650298D01*
X112400051Y-125650300D01*
X112400052Y-125650300D01*
X113099946Y-125650300D01*
X113099947Y-125650300D01*
X113158430Y-125638667D01*
X113224751Y-125594352D01*
X113269066Y-125528031D01*
X113280699Y-125469548D01*
X113280699Y-123804452D01*
X113280134Y-123801614D01*
X113271739Y-123759407D01*
X113269066Y-123745969D01*
X113224751Y-123679648D01*
X113224747Y-123679645D01*
X113158432Y-123635334D01*
X113158430Y-123635333D01*
X113158427Y-123635332D01*
X113158426Y-123635332D01*
X113099957Y-123623701D01*
X113099947Y-123623700D01*
X112400051Y-123623700D01*
X112400050Y-123623700D01*
X112400040Y-123623701D01*
X112341571Y-123635332D01*
X112341565Y-123635334D01*
X112275250Y-123679645D01*
X112275244Y-123679651D01*
X112230933Y-123745966D01*
X112230931Y-123745972D01*
X112219300Y-123804441D01*
X112219299Y-123804453D01*
X112219299Y-124123500D01*
X112200392Y-124181691D01*
X112150892Y-124217655D01*
X112120299Y-124222500D01*
X112068982Y-124222500D01*
X112002748Y-124240247D01*
X111960758Y-124251498D01*
X111863739Y-124307513D01*
X111784513Y-124386739D01*
X111728498Y-124483758D01*
X111728497Y-124483763D01*
X111699500Y-124591982D01*
X110424633Y-124591982D01*
X111775159Y-123241456D01*
X120319500Y-123241456D01*
X120319500Y-123438543D01*
X120357949Y-123631834D01*
X120357949Y-123631836D01*
X120433367Y-123813913D01*
X120456929Y-123849175D01*
X120542861Y-123977782D01*
X120682218Y-124117139D01*
X120846086Y-124226632D01*
X121028165Y-124302051D01*
X121221459Y-124340500D01*
X121221460Y-124340500D01*
X121418540Y-124340500D01*
X121418541Y-124340500D01*
X121611835Y-124302051D01*
X121793914Y-124226632D01*
X121957782Y-124117139D01*
X122097139Y-123977782D01*
X122183071Y-123849176D01*
X122206628Y-123813921D01*
X122206629Y-123813917D01*
X122206632Y-123813914D01*
X122211727Y-123801614D01*
X122251464Y-123755088D01*
X122303191Y-123740500D01*
X123249613Y-123740500D01*
X123307804Y-123759407D01*
X123343057Y-123806802D01*
X123357884Y-123849176D01*
X123436285Y-123955406D01*
X123436289Y-123955411D01*
X123436292Y-123955413D01*
X123436293Y-123955414D01*
X123542523Y-124033815D01*
X123542524Y-124033815D01*
X123542525Y-124033816D01*
X123667151Y-124077425D01*
X123694441Y-124079984D01*
X123696733Y-124080199D01*
X123696738Y-124080200D01*
X123696744Y-124080200D01*
X124277262Y-124080200D01*
X124277265Y-124080199D01*
X124306849Y-124077425D01*
X124431475Y-124033816D01*
X124537711Y-123955411D01*
X124616116Y-123849175D01*
X124659725Y-123724549D01*
X124662500Y-123694956D01*
X124662500Y-122989444D01*
X124662500Y-122989438D01*
X124662499Y-122989433D01*
X124659725Y-122959855D01*
X124659725Y-122959851D01*
X124616116Y-122835225D01*
X124616113Y-122835221D01*
X124537714Y-122728993D01*
X124537713Y-122728992D01*
X124537711Y-122728989D01*
X124537706Y-122728985D01*
X124431476Y-122650584D01*
X124306852Y-122606976D01*
X124306851Y-122606975D01*
X124306849Y-122606975D01*
X124306847Y-122606974D01*
X124306844Y-122606974D01*
X124277266Y-122604200D01*
X124277256Y-122604200D01*
X123696744Y-122604200D01*
X123696733Y-122604200D01*
X123667155Y-122606974D01*
X123667147Y-122606976D01*
X123542523Y-122650584D01*
X123436293Y-122728985D01*
X123436285Y-122728993D01*
X123357885Y-122835221D01*
X123357882Y-122835227D01*
X123344596Y-122873198D01*
X123307531Y-122921878D01*
X123251152Y-122939500D01*
X122303191Y-122939500D01*
X122245000Y-122920593D01*
X122211727Y-122878386D01*
X122206632Y-122866087D01*
X122206628Y-122866078D01*
X122115029Y-122728993D01*
X122097139Y-122702218D01*
X121957782Y-122562861D01*
X121793914Y-122453368D01*
X121793915Y-122453368D01*
X121793913Y-122453367D01*
X121611835Y-122377949D01*
X121418543Y-122339500D01*
X121418541Y-122339500D01*
X121221459Y-122339500D01*
X121221456Y-122339500D01*
X121028165Y-122377949D01*
X121028163Y-122377949D01*
X120846086Y-122453367D01*
X120682218Y-122562861D01*
X120682214Y-122562864D01*
X120542864Y-122702214D01*
X120542861Y-122702218D01*
X120433367Y-122866086D01*
X120357949Y-123048163D01*
X120357949Y-123048165D01*
X120319500Y-123241456D01*
X111775159Y-123241456D01*
X111850024Y-123166591D01*
X113924780Y-121091836D01*
X117709420Y-117307196D01*
X117763937Y-117279419D01*
X117779424Y-117278200D01*
X120662156Y-117278200D01*
X120720347Y-117297107D01*
X120756311Y-117346607D01*
X120756311Y-117407793D01*
X120720347Y-117457293D01*
X120717158Y-117459515D01*
X120682218Y-117482861D01*
X120682214Y-117482864D01*
X120542864Y-117622214D01*
X120542861Y-117622218D01*
X120433367Y-117786086D01*
X120357949Y-117968163D01*
X120357949Y-117968165D01*
X120319500Y-118161456D01*
X120319500Y-118358543D01*
X120357949Y-118551834D01*
X120357949Y-118551836D01*
X120433367Y-118733913D01*
X120433368Y-118733914D01*
X120542861Y-118897782D01*
X120682218Y-119037139D01*
X120755172Y-119085885D01*
X120793051Y-119133935D01*
X120795453Y-119195073D01*
X120761460Y-119245947D01*
X120704057Y-119267124D01*
X120700170Y-119267200D01*
X117124998Y-119267200D01*
X117023742Y-119309140D01*
X116952579Y-119380304D01*
X116898062Y-119408081D01*
X116882576Y-119409300D01*
X116831682Y-119409300D01*
X116765448Y-119427047D01*
X116723458Y-119438298D01*
X116626439Y-119494313D01*
X116547213Y-119573539D01*
X116491198Y-119670558D01*
X116491197Y-119670563D01*
X116462200Y-119778782D01*
X116462200Y-119890818D01*
X116487772Y-119986255D01*
X116491198Y-119999041D01*
X116547213Y-120096060D01*
X116547215Y-120096063D01*
X116626437Y-120175285D01*
X116626439Y-120175286D01*
X116723459Y-120231301D01*
X116723457Y-120231301D01*
X116723461Y-120231302D01*
X116723463Y-120231303D01*
X116831682Y-120260300D01*
X116831684Y-120260300D01*
X116943716Y-120260300D01*
X116943718Y-120260300D01*
X117051937Y-120231303D01*
X117051939Y-120231301D01*
X117051941Y-120231301D01*
X117080764Y-120214659D01*
X117148963Y-120175285D01*
X117228185Y-120096063D01*
X117267559Y-120027864D01*
X117284201Y-119999041D01*
X117284201Y-119999039D01*
X117284203Y-119999037D01*
X117312997Y-119891575D01*
X117346320Y-119840263D01*
X117403441Y-119818336D01*
X117408623Y-119818200D01*
X120662156Y-119818200D01*
X120720347Y-119837107D01*
X120756311Y-119886607D01*
X120756311Y-119947793D01*
X120720347Y-119997293D01*
X120717158Y-119999515D01*
X120682218Y-120022861D01*
X120682214Y-120022864D01*
X120542864Y-120162214D01*
X120542861Y-120162218D01*
X120433367Y-120326086D01*
X120357949Y-120508163D01*
X120357949Y-120508165D01*
X120319500Y-120701456D01*
X120319500Y-120898543D01*
X120357949Y-121091834D01*
X120357949Y-121091836D01*
X120433367Y-121273913D01*
X120433368Y-121273914D01*
X120542861Y-121437782D01*
X120682218Y-121577139D01*
X120846086Y-121686632D01*
X121028165Y-121762051D01*
X121221459Y-121800500D01*
X121221460Y-121800500D01*
X121418540Y-121800500D01*
X121418541Y-121800500D01*
X121611835Y-121762051D01*
X121793914Y-121686632D01*
X121957782Y-121577139D01*
X122097139Y-121437782D01*
X122206632Y-121273914D01*
X122282051Y-121091835D01*
X122320500Y-120898541D01*
X122320500Y-120701459D01*
X122282051Y-120508165D01*
X122206632Y-120326086D01*
X122097139Y-120162218D01*
X121957782Y-120022861D01*
X121845435Y-119947793D01*
X121845404Y-119947772D01*
X121807525Y-119899722D01*
X121805123Y-119838584D01*
X121839116Y-119787710D01*
X121849083Y-119781869D01*
X121848952Y-119781672D01*
X121857050Y-119776260D01*
X121857058Y-119776257D01*
X121934557Y-119698758D01*
X125550257Y-116083058D01*
X125592200Y-115981800D01*
X125592200Y-84101900D01*
X125559648Y-84023314D01*
X125557488Y-84018100D01*
X125550257Y-84000641D01*
X123928454Y-82378838D01*
X122246638Y-80697023D01*
X122218862Y-80642507D01*
X122225178Y-80589138D01*
X122282051Y-80451835D01*
X122320500Y-80258541D01*
X122320500Y-80061459D01*
X122282051Y-79868165D01*
X122206632Y-79686086D01*
X122097139Y-79522218D01*
X121957782Y-79382861D01*
X121793914Y-79273368D01*
X121793915Y-79273368D01*
X121793913Y-79273367D01*
X121611835Y-79197949D01*
X121418543Y-79159500D01*
X121418541Y-79159500D01*
X121221459Y-79159500D01*
X121221456Y-79159500D01*
X121028165Y-79197949D01*
X121028163Y-79197949D01*
X120846086Y-79273367D01*
X120682218Y-79382861D01*
X120682214Y-79382864D01*
X120542864Y-79522214D01*
X120542861Y-79522218D01*
X120433367Y-79686086D01*
X120357949Y-79868163D01*
X120357949Y-79868165D01*
X120319500Y-80061456D01*
X120319500Y-80258543D01*
X120357949Y-80451834D01*
X120357949Y-80451836D01*
X120433367Y-80633913D01*
X120469699Y-80688288D01*
X120542861Y-80797782D01*
X120682218Y-80937139D01*
X120846086Y-81046632D01*
X121028165Y-81122051D01*
X121221459Y-81160500D01*
X121221460Y-81160500D01*
X121418540Y-81160500D01*
X121418541Y-81160500D01*
X121611835Y-81122051D01*
X121749137Y-81065178D01*
X121810131Y-81060378D01*
X121857024Y-81086639D01*
X125012204Y-84241819D01*
X125039981Y-84296336D01*
X125041200Y-84311823D01*
X125041200Y-85792576D01*
X125022293Y-85850767D01*
X124972793Y-85886731D01*
X124911607Y-85886731D01*
X124872196Y-85862580D01*
X122246639Y-83237024D01*
X122218862Y-83182507D01*
X122225178Y-83129138D01*
X122282051Y-82991835D01*
X122320500Y-82798541D01*
X122320500Y-82601459D01*
X122282051Y-82408165D01*
X122206632Y-82226086D01*
X122097139Y-82062218D01*
X121957782Y-81922861D01*
X121848288Y-81849699D01*
X121793913Y-81813367D01*
X121611835Y-81737949D01*
X121418543Y-81699500D01*
X121418541Y-81699500D01*
X121221459Y-81699500D01*
X121221456Y-81699500D01*
X121028165Y-81737949D01*
X121028163Y-81737949D01*
X120846086Y-81813367D01*
X120682218Y-81922861D01*
X120682214Y-81922864D01*
X120542864Y-82062214D01*
X120542861Y-82062218D01*
X120433367Y-82226086D01*
X120357949Y-82408163D01*
X120357949Y-82408165D01*
X120319500Y-82601456D01*
X120319500Y-82798543D01*
X120357949Y-82991834D01*
X120357949Y-82991836D01*
X120433367Y-83173913D01*
X120447708Y-83195376D01*
X120542861Y-83337782D01*
X120682218Y-83477139D01*
X120846086Y-83586632D01*
X121028165Y-83662051D01*
X121221459Y-83700500D01*
X121221460Y-83700500D01*
X121418540Y-83700500D01*
X121418541Y-83700500D01*
X121611835Y-83662051D01*
X121749137Y-83605178D01*
X121810131Y-83600378D01*
X121857024Y-83626639D01*
X124711204Y-86480819D01*
X124738981Y-86535336D01*
X124740200Y-86550823D01*
X124740200Y-107477778D01*
X124721293Y-107535969D01*
X124671793Y-107571933D01*
X124610607Y-107571933D01*
X124569784Y-107542508D01*
X124568357Y-107543936D01*
X124563113Y-107538692D01*
X124563111Y-107538689D01*
X124563106Y-107538685D01*
X124456876Y-107460284D01*
X124332252Y-107416676D01*
X124332251Y-107416675D01*
X124332249Y-107416675D01*
X124332247Y-107416674D01*
X124332244Y-107416674D01*
X124302666Y-107413900D01*
X124302656Y-107413900D01*
X123722144Y-107413900D01*
X123722133Y-107413900D01*
X123692555Y-107416674D01*
X123692547Y-107416676D01*
X123567923Y-107460284D01*
X123461693Y-107538685D01*
X123461685Y-107538693D01*
X123383284Y-107644923D01*
X123343647Y-107758198D01*
X123306581Y-107806879D01*
X123250203Y-107824500D01*
X122354967Y-107824500D01*
X122296776Y-107805593D01*
X122263503Y-107763385D01*
X122206632Y-107626087D01*
X122206632Y-107626086D01*
X122097139Y-107462218D01*
X121957782Y-107322861D01*
X121793914Y-107213368D01*
X121793915Y-107213368D01*
X121793913Y-107213367D01*
X121611835Y-107137949D01*
X121418543Y-107099500D01*
X121418541Y-107099500D01*
X121221459Y-107099500D01*
X121221456Y-107099500D01*
X121028165Y-107137949D01*
X121028163Y-107137949D01*
X120846086Y-107213367D01*
X120682218Y-107322861D01*
X120682214Y-107322864D01*
X120542864Y-107462214D01*
X120542861Y-107462218D01*
X120433367Y-107626086D01*
X120357949Y-107808163D01*
X120357949Y-107808165D01*
X120319500Y-108001456D01*
X120319500Y-108198543D01*
X120357949Y-108391834D01*
X120357949Y-108391836D01*
X120433367Y-108573913D01*
X120433368Y-108573914D01*
X120542861Y-108737782D01*
X120682218Y-108877139D01*
X120846086Y-108986632D01*
X121028165Y-109062051D01*
X121221459Y-109100500D01*
X121221460Y-109100500D01*
X121418540Y-109100500D01*
X121418541Y-109100500D01*
X121611835Y-109062051D01*
X121793914Y-108986632D01*
X121957782Y-108877139D01*
X122097139Y-108737782D01*
X122206632Y-108573914D01*
X122263503Y-108436615D01*
X122303239Y-108390089D01*
X122354967Y-108375500D01*
X123248874Y-108375500D01*
X123307065Y-108394407D01*
X123342318Y-108441802D01*
X123383284Y-108558876D01*
X123458891Y-108661320D01*
X123461689Y-108665111D01*
X123461692Y-108665113D01*
X123461693Y-108665114D01*
X123567923Y-108743515D01*
X123567924Y-108743515D01*
X123567925Y-108743516D01*
X123692551Y-108787125D01*
X123719841Y-108789684D01*
X123722133Y-108789899D01*
X123722138Y-108789900D01*
X123722144Y-108789900D01*
X124302662Y-108789900D01*
X124302665Y-108789899D01*
X124332249Y-108787125D01*
X124456875Y-108743516D01*
X124563111Y-108665111D01*
X124563116Y-108665103D01*
X124568357Y-108659864D01*
X124569813Y-108661320D01*
X124611309Y-108631641D01*
X124672493Y-108632097D01*
X124721724Y-108668428D01*
X124740200Y-108726021D01*
X124740200Y-109302778D01*
X124721293Y-109360969D01*
X124671793Y-109396933D01*
X124610607Y-109396933D01*
X124569784Y-109367508D01*
X124568357Y-109368936D01*
X124563113Y-109363692D01*
X124563111Y-109363689D01*
X124563106Y-109363685D01*
X124456876Y-109285284D01*
X124332252Y-109241676D01*
X124332251Y-109241675D01*
X124332249Y-109241675D01*
X124332247Y-109241674D01*
X124332244Y-109241674D01*
X124302666Y-109238900D01*
X124302656Y-109238900D01*
X123722144Y-109238900D01*
X123722133Y-109238900D01*
X123692555Y-109241674D01*
X123692547Y-109241676D01*
X123567923Y-109285284D01*
X123461693Y-109363685D01*
X123461685Y-109363693D01*
X123383284Y-109469923D01*
X123339676Y-109594547D01*
X123339674Y-109594555D01*
X123336900Y-109624133D01*
X123336900Y-110229666D01*
X123339674Y-110259244D01*
X123339676Y-110259252D01*
X123379101Y-110371921D01*
X123380474Y-110433091D01*
X123355661Y-110474623D01*
X123008747Y-110821537D01*
X122998064Y-110829742D01*
X122998532Y-110830352D01*
X122993391Y-110834296D01*
X122993386Y-110834300D01*
X122926426Y-110901260D01*
X122900197Y-110927489D01*
X122900196Y-110927490D01*
X122834309Y-111041609D01*
X122834308Y-111041614D01*
X122800200Y-111168908D01*
X122800200Y-111300692D01*
X122830279Y-111412951D01*
X122834309Y-111427990D01*
X122900196Y-111542109D01*
X122900198Y-111542111D01*
X122900200Y-111542114D01*
X122993386Y-111635300D01*
X122993388Y-111635301D01*
X122993390Y-111635303D01*
X123107510Y-111701190D01*
X123107508Y-111701190D01*
X123107512Y-111701191D01*
X123107514Y-111701192D01*
X123234808Y-111735300D01*
X123234810Y-111735300D01*
X123369190Y-111735300D01*
X123369192Y-111735300D01*
X123496486Y-111701192D01*
X123496488Y-111701190D01*
X123496490Y-111701190D01*
X123610609Y-111635303D01*
X123610609Y-111635302D01*
X123610614Y-111635300D01*
X124412900Y-110833014D01*
X124429512Y-110804241D01*
X124478790Y-110718890D01*
X124478790Y-110718888D01*
X124478792Y-110718886D01*
X124512900Y-110591592D01*
X124512900Y-110577145D01*
X124516243Y-110566854D01*
X124515165Y-110556089D01*
X124524349Y-110541906D01*
X124531807Y-110518954D01*
X124546016Y-110503251D01*
X124549424Y-110500212D01*
X124563111Y-110490111D01*
X124567647Y-110483964D01*
X124575316Y-110477127D01*
X124594376Y-110468752D01*
X124611309Y-110456641D01*
X124621762Y-110456718D01*
X124631332Y-110452514D01*
X124651674Y-110456941D01*
X124672493Y-110457097D01*
X124680903Y-110463303D01*
X124691118Y-110465527D01*
X124704971Y-110481065D01*
X124721724Y-110493428D01*
X124724944Y-110503466D01*
X124731836Y-110511196D01*
X124733839Y-110531193D01*
X124740200Y-110551021D01*
X124740200Y-115285477D01*
X124721293Y-115343668D01*
X124711204Y-115355481D01*
X123368481Y-116698204D01*
X123313964Y-116725981D01*
X123298477Y-116727200D01*
X121939830Y-116727200D01*
X121881639Y-116708293D01*
X121845675Y-116658793D01*
X121845675Y-116597607D01*
X121881639Y-116548107D01*
X121884828Y-116545885D01*
X121957782Y-116497139D01*
X122097139Y-116357782D01*
X122206632Y-116193914D01*
X122282051Y-116011835D01*
X122320500Y-115818541D01*
X122320500Y-115621459D01*
X122282051Y-115428165D01*
X122206632Y-115246086D01*
X122097139Y-115082218D01*
X121957782Y-114942861D01*
X121793914Y-114833368D01*
X121793915Y-114833368D01*
X121793913Y-114833367D01*
X121611835Y-114757949D01*
X121418543Y-114719500D01*
X121418541Y-114719500D01*
X121221459Y-114719500D01*
X121221456Y-114719500D01*
X121028165Y-114757949D01*
X121028163Y-114757949D01*
X120846086Y-114833367D01*
X120682218Y-114942861D01*
X120682214Y-114942864D01*
X120542864Y-115082214D01*
X120542861Y-115082218D01*
X120433367Y-115246086D01*
X120357949Y-115428163D01*
X120357949Y-115428165D01*
X120319500Y-115621456D01*
X120319500Y-115621459D01*
X120319500Y-115818541D01*
X120351974Y-115981799D01*
X120357949Y-116011834D01*
X120357949Y-116011836D01*
X120433367Y-116193913D01*
X120433368Y-116193914D01*
X120542861Y-116357782D01*
X120682218Y-116497139D01*
X120755172Y-116545885D01*
X120793051Y-116593935D01*
X120795453Y-116655073D01*
X120761460Y-116705947D01*
X120704057Y-116727124D01*
X120700170Y-116727200D01*
X117569498Y-116727200D01*
X117468244Y-116769140D01*
X109662781Y-124574604D01*
X109608264Y-124602381D01*
X109592777Y-124603600D01*
X109541882Y-124603600D01*
X109475648Y-124621347D01*
X109433658Y-124632598D01*
X109336639Y-124688613D01*
X109257413Y-124767839D01*
X109201398Y-124864858D01*
X109197475Y-124879500D01*
X109172400Y-124973082D01*
X106504939Y-124973082D01*
X106371835Y-124917949D01*
X106178543Y-124879500D01*
X106178541Y-124879500D01*
X105981459Y-124879500D01*
X105981456Y-124879500D01*
X105788165Y-124917949D01*
X105788163Y-124917949D01*
X105606086Y-124993367D01*
X105442218Y-125102861D01*
X105442214Y-125102864D01*
X105302864Y-125242214D01*
X105302861Y-125242218D01*
X105193367Y-125406086D01*
X105117949Y-125588163D01*
X105117949Y-125588165D01*
X105079500Y-125781456D01*
X101100500Y-125781456D01*
X101100500Y-123241456D01*
X105079500Y-123241456D01*
X105079500Y-123438543D01*
X105117949Y-123631834D01*
X105117949Y-123631836D01*
X105193367Y-123813913D01*
X105216929Y-123849175D01*
X105302861Y-123977782D01*
X105442218Y-124117139D01*
X105606086Y-124226632D01*
X105788165Y-124302051D01*
X105981459Y-124340500D01*
X105981460Y-124340500D01*
X106178540Y-124340500D01*
X106178541Y-124340500D01*
X106371835Y-124302051D01*
X106553914Y-124226632D01*
X106717782Y-124117139D01*
X106857139Y-123977782D01*
X106966632Y-123813914D01*
X107042051Y-123631835D01*
X107080500Y-123438541D01*
X107080500Y-123241459D01*
X107042051Y-123048165D01*
X106966632Y-122866086D01*
X106857139Y-122702218D01*
X106717782Y-122562861D01*
X106553914Y-122453368D01*
X106553915Y-122453368D01*
X106553913Y-122453367D01*
X106371835Y-122377949D01*
X106178543Y-122339500D01*
X106178541Y-122339500D01*
X105981459Y-122339500D01*
X105981456Y-122339500D01*
X105788165Y-122377949D01*
X105788163Y-122377949D01*
X105606086Y-122453367D01*
X105442218Y-122562861D01*
X105442214Y-122562864D01*
X105302864Y-122702214D01*
X105302861Y-122702218D01*
X105193367Y-122866086D01*
X105117949Y-123048163D01*
X105117949Y-123048165D01*
X105079500Y-123241456D01*
X101100500Y-123241456D01*
X101100500Y-120701456D01*
X105079500Y-120701456D01*
X105079500Y-120898543D01*
X105117949Y-121091834D01*
X105117949Y-121091836D01*
X105193367Y-121273913D01*
X105193368Y-121273914D01*
X105302861Y-121437782D01*
X105442218Y-121577139D01*
X105606086Y-121686632D01*
X105788165Y-121762051D01*
X105981459Y-121800500D01*
X105981460Y-121800500D01*
X106178540Y-121800500D01*
X106178541Y-121800500D01*
X106371835Y-121762051D01*
X106553914Y-121686632D01*
X106717782Y-121577139D01*
X106857139Y-121437782D01*
X106966632Y-121273914D01*
X107042051Y-121091835D01*
X107080500Y-120898541D01*
X107080500Y-120701459D01*
X107042051Y-120508165D01*
X106966632Y-120326086D01*
X106857139Y-120162218D01*
X106717782Y-120022861D01*
X106553914Y-119913368D01*
X106553915Y-119913368D01*
X106553913Y-119913367D01*
X106371835Y-119837949D01*
X106178543Y-119799500D01*
X106178541Y-119799500D01*
X105981459Y-119799500D01*
X105981456Y-119799500D01*
X105788165Y-119837949D01*
X105788163Y-119837949D01*
X105606086Y-119913367D01*
X105442218Y-120022861D01*
X105442214Y-120022864D01*
X105302864Y-120162214D01*
X105302861Y-120162218D01*
X105193367Y-120326086D01*
X105117949Y-120508163D01*
X105117949Y-120508165D01*
X105079500Y-120701456D01*
X101100500Y-120701456D01*
X101100500Y-118161456D01*
X105079500Y-118161456D01*
X105079500Y-118358543D01*
X105117949Y-118551834D01*
X105117949Y-118551836D01*
X105193367Y-118733913D01*
X105193368Y-118733914D01*
X105302861Y-118897782D01*
X105442218Y-119037139D01*
X105606086Y-119146632D01*
X105788165Y-119222051D01*
X105981459Y-119260500D01*
X105981460Y-119260500D01*
X106178540Y-119260500D01*
X106178541Y-119260500D01*
X106371835Y-119222051D01*
X106553914Y-119146632D01*
X106717782Y-119037139D01*
X106857139Y-118897782D01*
X106966632Y-118733914D01*
X107042051Y-118551835D01*
X107080500Y-118358541D01*
X107080500Y-118161459D01*
X107042051Y-117968165D01*
X106966632Y-117786086D01*
X106857139Y-117622218D01*
X106717782Y-117482861D01*
X106553914Y-117373368D01*
X106553915Y-117373368D01*
X106553913Y-117373367D01*
X106535601Y-117365782D01*
X110755300Y-117365782D01*
X110755300Y-117477818D01*
X110780872Y-117573255D01*
X110784298Y-117586041D01*
X110840313Y-117683060D01*
X110840315Y-117683063D01*
X110919537Y-117762285D01*
X110919539Y-117762286D01*
X111016559Y-117818301D01*
X111016557Y-117818301D01*
X111016561Y-117818302D01*
X111016563Y-117818303D01*
X111124782Y-117847300D01*
X111124784Y-117847300D01*
X111236816Y-117847300D01*
X111236818Y-117847300D01*
X111345037Y-117818303D01*
X111345039Y-117818301D01*
X111345041Y-117818301D01*
X111400838Y-117786086D01*
X111442063Y-117762285D01*
X111521285Y-117683063D01*
X111577303Y-117586037D01*
X111606300Y-117477818D01*
X111606300Y-117365782D01*
X111577303Y-117257563D01*
X111577301Y-117257560D01*
X111577301Y-117257558D01*
X111521286Y-117160539D01*
X111521285Y-117160537D01*
X111442063Y-117081315D01*
X111442060Y-117081313D01*
X111345040Y-117025298D01*
X111345042Y-117025298D01*
X111303051Y-117014047D01*
X111236818Y-116996300D01*
X111124782Y-116996300D01*
X111058548Y-117014047D01*
X111016558Y-117025298D01*
X110919539Y-117081313D01*
X110840313Y-117160539D01*
X110784298Y-117257558D01*
X110784297Y-117257563D01*
X110755300Y-117365782D01*
X106535601Y-117365782D01*
X106371835Y-117297949D01*
X106178543Y-117259500D01*
X106178541Y-117259500D01*
X105981459Y-117259500D01*
X105981456Y-117259500D01*
X105788165Y-117297949D01*
X105788163Y-117297949D01*
X105606086Y-117373367D01*
X105442218Y-117482861D01*
X105442214Y-117482864D01*
X105302864Y-117622214D01*
X105302861Y-117622218D01*
X105193367Y-117786086D01*
X105117949Y-117968163D01*
X105117949Y-117968165D01*
X105079500Y-118161456D01*
X101100500Y-118161456D01*
X101100500Y-115621456D01*
X105079500Y-115621456D01*
X105079500Y-115621459D01*
X105079500Y-115818541D01*
X105111974Y-115981799D01*
X105117949Y-116011834D01*
X105117949Y-116011836D01*
X105193367Y-116193913D01*
X105193368Y-116193914D01*
X105302861Y-116357782D01*
X105442218Y-116497139D01*
X105606086Y-116606632D01*
X105788165Y-116682051D01*
X105981459Y-116720500D01*
X105981460Y-116720500D01*
X106178540Y-116720500D01*
X106178541Y-116720500D01*
X106371835Y-116682051D01*
X106553914Y-116606632D01*
X106717782Y-116497139D01*
X106857139Y-116357782D01*
X106966632Y-116193914D01*
X107042051Y-116011835D01*
X107080500Y-115818541D01*
X107080500Y-115621459D01*
X107042051Y-115428165D01*
X106966632Y-115246086D01*
X106857139Y-115082218D01*
X106717782Y-114942861D01*
X106553914Y-114833368D01*
X106553915Y-114833368D01*
X106553913Y-114833367D01*
X106371835Y-114757949D01*
X106178543Y-114719500D01*
X106178541Y-114719500D01*
X105981459Y-114719500D01*
X105981456Y-114719500D01*
X105788165Y-114757949D01*
X105788163Y-114757949D01*
X105606086Y-114833367D01*
X105442218Y-114942861D01*
X105442214Y-114942864D01*
X105302864Y-115082214D01*
X105302861Y-115082218D01*
X105193367Y-115246086D01*
X105117949Y-115428163D01*
X105117949Y-115428165D01*
X105079500Y-115621456D01*
X101100500Y-115621456D01*
X101100500Y-113081456D01*
X105079500Y-113081456D01*
X105079500Y-113278543D01*
X105117949Y-113471834D01*
X105117949Y-113471836D01*
X105193367Y-113653913D01*
X105193368Y-113653914D01*
X105302861Y-113817782D01*
X105442218Y-113957139D01*
X105606086Y-114066632D01*
X105788165Y-114142051D01*
X105981459Y-114180500D01*
X105981460Y-114180500D01*
X106178540Y-114180500D01*
X106178541Y-114180500D01*
X106371835Y-114142051D01*
X106553914Y-114066632D01*
X106717782Y-113957139D01*
X106857139Y-113817782D01*
X106966632Y-113653914D01*
X107042051Y-113471835D01*
X107080500Y-113278541D01*
X107080500Y-113081459D01*
X107042051Y-112888165D01*
X106966632Y-112706086D01*
X106857139Y-112542218D01*
X106717782Y-112402861D01*
X106553914Y-112293368D01*
X106553915Y-112293368D01*
X106553913Y-112293367D01*
X106371835Y-112217949D01*
X106178543Y-112179500D01*
X106178541Y-112179500D01*
X105981459Y-112179500D01*
X105981456Y-112179500D01*
X105788165Y-112217949D01*
X105788163Y-112217949D01*
X105606086Y-112293367D01*
X105442218Y-112402861D01*
X105442214Y-112402864D01*
X105302864Y-112542214D01*
X105302861Y-112542218D01*
X105193367Y-112706086D01*
X105117949Y-112888163D01*
X105117949Y-112888165D01*
X105079500Y-113081456D01*
X101100500Y-113081456D01*
X101100500Y-87668311D01*
X101774800Y-87668311D01*
X101774800Y-106665100D01*
X101816743Y-106766358D01*
X104335668Y-109285284D01*
X105153360Y-110102976D01*
X105181137Y-110157493D01*
X105174820Y-110210865D01*
X105117949Y-110348163D01*
X105117949Y-110348165D01*
X105079500Y-110541456D01*
X105079500Y-110738543D01*
X105117949Y-110931834D01*
X105117949Y-110931836D01*
X105193367Y-111113913D01*
X105193368Y-111113914D01*
X105302861Y-111277782D01*
X105442218Y-111417139D01*
X105606086Y-111526632D01*
X105788165Y-111602051D01*
X105981459Y-111640500D01*
X105981460Y-111640500D01*
X106178540Y-111640500D01*
X106178541Y-111640500D01*
X106371835Y-111602051D01*
X106553914Y-111526632D01*
X106717782Y-111417139D01*
X106857139Y-111277782D01*
X106966632Y-111113914D01*
X107042051Y-110931835D01*
X107080500Y-110738541D01*
X107080500Y-110541459D01*
X107042051Y-110348165D01*
X106966632Y-110166086D01*
X106857139Y-110002218D01*
X106717782Y-109862861D01*
X106553914Y-109753368D01*
X106553915Y-109753368D01*
X106553913Y-109753367D01*
X106371835Y-109677949D01*
X106178543Y-109639500D01*
X106178541Y-109639500D01*
X105981459Y-109639500D01*
X105981456Y-109639500D01*
X105788165Y-109677949D01*
X105788163Y-109677949D01*
X105650865Y-109734820D01*
X105589869Y-109739621D01*
X105542976Y-109713360D01*
X102354796Y-106525180D01*
X102327019Y-106470663D01*
X102325800Y-106455176D01*
X102325800Y-104974423D01*
X102344707Y-104916232D01*
X102394207Y-104880268D01*
X102455393Y-104880268D01*
X102494803Y-104904418D01*
X103884950Y-106294566D01*
X105153360Y-107562976D01*
X105181137Y-107617493D01*
X105174820Y-107670865D01*
X105117949Y-107808163D01*
X105117949Y-107808165D01*
X105079500Y-108001456D01*
X105079500Y-108198543D01*
X105117949Y-108391834D01*
X105117949Y-108391836D01*
X105193367Y-108573913D01*
X105193368Y-108573914D01*
X105302861Y-108737782D01*
X105442218Y-108877139D01*
X105606086Y-108986632D01*
X105788165Y-109062051D01*
X105981459Y-109100500D01*
X105981460Y-109100500D01*
X106178540Y-109100500D01*
X106178541Y-109100500D01*
X106371835Y-109062051D01*
X106553914Y-108986632D01*
X106717782Y-108877139D01*
X106857139Y-108737782D01*
X106966632Y-108573914D01*
X107042051Y-108391835D01*
X107080500Y-108198541D01*
X107080500Y-108001459D01*
X107042051Y-107808165D01*
X106966632Y-107626086D01*
X106857139Y-107462218D01*
X106717782Y-107322861D01*
X106553914Y-107213368D01*
X106553915Y-107213368D01*
X106553913Y-107213367D01*
X106371835Y-107137949D01*
X106178543Y-107099500D01*
X106178541Y-107099500D01*
X105981459Y-107099500D01*
X105981456Y-107099500D01*
X105788165Y-107137949D01*
X105788163Y-107137949D01*
X105650865Y-107194820D01*
X105589869Y-107199621D01*
X105542976Y-107173360D01*
X102659596Y-104289980D01*
X102631819Y-104235463D01*
X102630600Y-104219976D01*
X102630600Y-102739223D01*
X102649507Y-102681032D01*
X102699007Y-102645068D01*
X102760193Y-102645068D01*
X102799603Y-102669218D01*
X103984773Y-103854389D01*
X105153360Y-105022976D01*
X105181137Y-105077493D01*
X105174820Y-105130865D01*
X105117949Y-105268163D01*
X105117949Y-105268165D01*
X105079500Y-105461456D01*
X105079500Y-105658543D01*
X105117949Y-105851834D01*
X105117949Y-105851836D01*
X105193367Y-106033913D01*
X105193368Y-106033914D01*
X105302861Y-106197782D01*
X105442218Y-106337139D01*
X105606086Y-106446632D01*
X105788165Y-106522051D01*
X105981459Y-106560500D01*
X105981460Y-106560500D01*
X106178540Y-106560500D01*
X106178541Y-106560500D01*
X106371835Y-106522051D01*
X106553914Y-106446632D01*
X106717782Y-106337139D01*
X106857139Y-106197782D01*
X106966632Y-106033914D01*
X107042051Y-105851835D01*
X107080500Y-105658541D01*
X107080500Y-105461459D01*
X107042051Y-105268165D01*
X106966632Y-105086086D01*
X106857139Y-104922218D01*
X106717782Y-104782861D01*
X106553914Y-104673368D01*
X106553915Y-104673368D01*
X106553913Y-104673367D01*
X106371835Y-104597949D01*
X106178543Y-104559500D01*
X106178541Y-104559500D01*
X105981459Y-104559500D01*
X105981456Y-104559500D01*
X105788165Y-104597949D01*
X105788163Y-104597949D01*
X105650865Y-104654820D01*
X105589869Y-104659621D01*
X105542976Y-104633360D01*
X103031696Y-102122080D01*
X103003919Y-102067563D01*
X103002700Y-102052076D01*
X103002700Y-100571323D01*
X103021607Y-100513132D01*
X103071107Y-100477168D01*
X103132293Y-100477168D01*
X103171704Y-100501319D01*
X105153360Y-102482975D01*
X105181137Y-102537492D01*
X105174820Y-102590864D01*
X105117949Y-102728163D01*
X105117949Y-102728165D01*
X105079500Y-102921456D01*
X105079500Y-103118543D01*
X105117949Y-103311834D01*
X105117949Y-103311836D01*
X105193367Y-103493913D01*
X105221059Y-103535357D01*
X105302861Y-103657782D01*
X105442218Y-103797139D01*
X105606086Y-103906632D01*
X105788165Y-103982051D01*
X105981459Y-104020500D01*
X105981460Y-104020500D01*
X106178540Y-104020500D01*
X106178541Y-104020500D01*
X106371835Y-103982051D01*
X106553914Y-103906632D01*
X106717782Y-103797139D01*
X106857139Y-103657782D01*
X106966632Y-103493914D01*
X107042051Y-103311835D01*
X107080500Y-103118541D01*
X107080500Y-102921459D01*
X107042051Y-102728165D01*
X106966632Y-102546086D01*
X106857139Y-102382218D01*
X106717782Y-102242861D01*
X106553914Y-102133368D01*
X106553915Y-102133368D01*
X106553913Y-102133367D01*
X106371835Y-102057949D01*
X106178543Y-102019500D01*
X106178541Y-102019500D01*
X105981459Y-102019500D01*
X105981456Y-102019500D01*
X105788165Y-102057949D01*
X105788163Y-102057949D01*
X105650864Y-102114820D01*
X105589867Y-102119620D01*
X105542975Y-102093360D01*
X103332696Y-99883081D01*
X103304919Y-99828564D01*
X103303700Y-99813077D01*
X103303700Y-98332323D01*
X103322607Y-98274132D01*
X103372107Y-98238168D01*
X103433293Y-98238168D01*
X103472703Y-98262318D01*
X104362100Y-99151716D01*
X105153360Y-99942976D01*
X105181137Y-99997493D01*
X105174820Y-100050865D01*
X105117949Y-100188163D01*
X105117949Y-100188165D01*
X105079500Y-100381456D01*
X105079500Y-100578543D01*
X105117949Y-100771834D01*
X105117949Y-100771836D01*
X105193367Y-100953913D01*
X105201072Y-100965444D01*
X105302861Y-101117782D01*
X105442218Y-101257139D01*
X105606086Y-101366632D01*
X105788165Y-101442051D01*
X105981459Y-101480500D01*
X105981460Y-101480500D01*
X106178540Y-101480500D01*
X106178541Y-101480500D01*
X106371835Y-101442051D01*
X106553914Y-101366632D01*
X106717782Y-101257139D01*
X106857139Y-101117782D01*
X106966632Y-100953914D01*
X107042051Y-100771835D01*
X107080500Y-100578541D01*
X107080500Y-100381459D01*
X107042051Y-100188165D01*
X106966632Y-100006086D01*
X106857139Y-99842218D01*
X106717782Y-99702861D01*
X106608288Y-99629699D01*
X106553913Y-99593367D01*
X106371835Y-99517949D01*
X106178543Y-99479500D01*
X106178541Y-99479500D01*
X105981459Y-99479500D01*
X105981456Y-99479500D01*
X105788165Y-99517949D01*
X105788163Y-99517949D01*
X105650865Y-99574820D01*
X105589869Y-99579621D01*
X105542976Y-99553360D01*
X103831072Y-97841456D01*
X105079500Y-97841456D01*
X105079500Y-97841459D01*
X105079500Y-98038541D01*
X105114339Y-98213689D01*
X105117949Y-98231834D01*
X105117949Y-98231836D01*
X105193367Y-98413913D01*
X105193368Y-98413914D01*
X105302861Y-98577782D01*
X105442218Y-98717139D01*
X105606086Y-98826632D01*
X105788165Y-98902051D01*
X105981459Y-98940500D01*
X105981460Y-98940500D01*
X106178540Y-98940500D01*
X106178541Y-98940500D01*
X106371835Y-98902051D01*
X106553914Y-98826632D01*
X106717782Y-98717139D01*
X106857139Y-98577782D01*
X106966632Y-98413914D01*
X107042051Y-98231835D01*
X107080500Y-98038541D01*
X107080500Y-97841459D01*
X107042051Y-97648165D01*
X106966632Y-97466086D01*
X106857139Y-97302218D01*
X106717782Y-97162861D01*
X106586917Y-97075420D01*
X106553913Y-97053367D01*
X106371835Y-96977949D01*
X106178543Y-96939500D01*
X106178541Y-96939500D01*
X105981459Y-96939500D01*
X105981456Y-96939500D01*
X105788165Y-96977949D01*
X105788163Y-96977949D01*
X105606086Y-97053367D01*
X105442218Y-97162861D01*
X105442214Y-97162864D01*
X105302864Y-97302214D01*
X105302861Y-97302218D01*
X105193367Y-97466086D01*
X105117949Y-97648163D01*
X105117949Y-97648165D01*
X105079500Y-97841456D01*
X103831072Y-97841456D01*
X103633696Y-97644080D01*
X103605919Y-97589563D01*
X103604700Y-97574076D01*
X103604700Y-97075420D01*
X103623607Y-97017229D01*
X103673107Y-96981265D01*
X103734293Y-96981265D01*
X103753195Y-96989681D01*
X103820263Y-97028403D01*
X103928482Y-97057400D01*
X103928484Y-97057400D01*
X104040516Y-97057400D01*
X104040518Y-97057400D01*
X104148737Y-97028403D01*
X104148739Y-97028401D01*
X104148741Y-97028401D01*
X104215800Y-96989684D01*
X104245763Y-96972385D01*
X104324985Y-96893163D01*
X104364359Y-96824964D01*
X104381001Y-96796141D01*
X104381001Y-96796139D01*
X104381003Y-96796137D01*
X104410000Y-96687918D01*
X104410000Y-96575882D01*
X104381003Y-96467663D01*
X104381001Y-96467660D01*
X104381001Y-96467658D01*
X104324986Y-96370639D01*
X104324985Y-96370637D01*
X104245763Y-96291415D01*
X104237479Y-96286632D01*
X104148740Y-96235398D01*
X104148742Y-96235398D01*
X104106751Y-96224147D01*
X104040518Y-96206400D01*
X103928482Y-96206400D01*
X103874372Y-96220898D01*
X103820261Y-96235397D01*
X103753200Y-96274116D01*
X103693352Y-96286837D01*
X103637456Y-96261950D01*
X103606863Y-96208962D01*
X103604700Y-96188379D01*
X103604700Y-95301456D01*
X105079500Y-95301456D01*
X105079500Y-95498543D01*
X105117949Y-95691834D01*
X105117949Y-95691836D01*
X105193367Y-95873913D01*
X105193368Y-95873914D01*
X105302861Y-96037782D01*
X105442218Y-96177139D01*
X105606086Y-96286632D01*
X105788165Y-96362051D01*
X105981459Y-96400500D01*
X105981460Y-96400500D01*
X106178540Y-96400500D01*
X106178541Y-96400500D01*
X106371835Y-96362051D01*
X106553914Y-96286632D01*
X106717782Y-96177139D01*
X106857139Y-96037782D01*
X106966632Y-95873914D01*
X107042051Y-95691835D01*
X107080500Y-95498541D01*
X107080500Y-95301459D01*
X107042051Y-95108165D01*
X106966632Y-94926086D01*
X106857139Y-94762218D01*
X106717782Y-94622861D01*
X106553914Y-94513368D01*
X106553915Y-94513368D01*
X106553913Y-94513367D01*
X106371835Y-94437949D01*
X106178543Y-94399500D01*
X106178541Y-94399500D01*
X105981459Y-94399500D01*
X105981456Y-94399500D01*
X105788165Y-94437949D01*
X105788163Y-94437949D01*
X105606086Y-94513367D01*
X105442218Y-94622861D01*
X105442214Y-94622864D01*
X105302864Y-94762214D01*
X105302861Y-94762218D01*
X105193367Y-94926086D01*
X105117949Y-95108163D01*
X105117949Y-95108165D01*
X105079500Y-95301456D01*
X103604700Y-95301456D01*
X103604700Y-92761456D01*
X105079500Y-92761456D01*
X105079500Y-92958543D01*
X105117949Y-93151834D01*
X105117949Y-93151836D01*
X105193367Y-93333913D01*
X105193368Y-93333914D01*
X105302861Y-93497782D01*
X105442218Y-93637139D01*
X105606086Y-93746632D01*
X105788165Y-93822051D01*
X105981459Y-93860500D01*
X105981460Y-93860500D01*
X106178540Y-93860500D01*
X106178541Y-93860500D01*
X106371835Y-93822051D01*
X106553914Y-93746632D01*
X106717782Y-93637139D01*
X106857139Y-93497782D01*
X106966632Y-93333914D01*
X107042051Y-93151835D01*
X107080500Y-92958541D01*
X107080500Y-92761459D01*
X107042051Y-92568165D01*
X106966632Y-92386086D01*
X106857139Y-92222218D01*
X106717782Y-92082861D01*
X106589762Y-91997321D01*
X106553913Y-91973367D01*
X106371835Y-91897949D01*
X106178543Y-91859500D01*
X106178541Y-91859500D01*
X105981459Y-91859500D01*
X105981456Y-91859500D01*
X105788165Y-91897949D01*
X105788163Y-91897949D01*
X105606086Y-91973367D01*
X105442218Y-92082861D01*
X105442214Y-92082864D01*
X105302864Y-92222214D01*
X105302861Y-92222218D01*
X105193367Y-92386086D01*
X105117949Y-92568163D01*
X105117949Y-92568165D01*
X105079500Y-92761456D01*
X103604700Y-92761456D01*
X103604700Y-91562223D01*
X103623607Y-91504032D01*
X103633696Y-91492219D01*
X104910496Y-90215419D01*
X104965013Y-90187642D01*
X105025445Y-90197213D01*
X105068710Y-90240478D01*
X105079500Y-90285423D01*
X105079500Y-90418543D01*
X105092796Y-90485383D01*
X105108808Y-90565883D01*
X105117949Y-90611834D01*
X105117949Y-90611836D01*
X105193367Y-90793913D01*
X105203380Y-90808898D01*
X105302861Y-90957782D01*
X105442218Y-91097139D01*
X105606086Y-91206632D01*
X105788165Y-91282051D01*
X105981459Y-91320500D01*
X105981460Y-91320500D01*
X106178540Y-91320500D01*
X106178541Y-91320500D01*
X106371835Y-91282051D01*
X106509137Y-91225178D01*
X106570131Y-91220378D01*
X106617024Y-91246639D01*
X107286804Y-91916419D01*
X107314581Y-91970936D01*
X107315800Y-91986423D01*
X107315800Y-102173099D01*
X107345422Y-102244612D01*
X107345422Y-102244613D01*
X107357741Y-102274355D01*
X107357742Y-102274356D01*
X107357743Y-102274358D01*
X108508391Y-103425007D01*
X108538045Y-103437289D01*
X108538047Y-103437291D01*
X108538048Y-103437291D01*
X108573849Y-103452120D01*
X108609650Y-103466950D01*
X110353597Y-103466950D01*
X110411788Y-103485857D01*
X110447752Y-103535357D01*
X110447752Y-103596543D01*
X110428642Y-103627726D01*
X110429766Y-103628589D01*
X110425815Y-103633737D01*
X110369798Y-103730760D01*
X110369797Y-103730765D01*
X110340800Y-103838984D01*
X110340800Y-103951020D01*
X110358086Y-104015533D01*
X110369798Y-104059243D01*
X110419358Y-104145082D01*
X110425815Y-104156265D01*
X110505037Y-104235487D01*
X110506173Y-104236143D01*
X110602059Y-104291503D01*
X110602057Y-104291503D01*
X110602061Y-104291504D01*
X110602063Y-104291505D01*
X110710282Y-104320502D01*
X110710284Y-104320502D01*
X110822316Y-104320502D01*
X110822318Y-104320502D01*
X110930537Y-104291505D01*
X110930539Y-104291503D01*
X110930541Y-104291503D01*
X110961433Y-104273667D01*
X111027563Y-104235487D01*
X111106785Y-104156265D01*
X111162801Y-104059243D01*
X111166048Y-104053620D01*
X111167919Y-104054700D01*
X111201351Y-104015533D01*
X111260842Y-104001231D01*
X111317377Y-104024628D01*
X111323109Y-104029924D01*
X111770504Y-104477319D01*
X111798281Y-104531836D01*
X111799500Y-104547323D01*
X111799500Y-106086866D01*
X111780593Y-106145057D01*
X111731093Y-106181021D01*
X111681185Y-106183964D01*
X111681033Y-106183933D01*
X111681032Y-106183933D01*
X111622549Y-106172300D01*
X111227453Y-106172300D01*
X111227452Y-106172300D01*
X111227442Y-106172301D01*
X111168973Y-106183932D01*
X111168967Y-106183934D01*
X111102652Y-106228245D01*
X111102646Y-106228251D01*
X111058335Y-106294566D01*
X111058333Y-106294572D01*
X111046702Y-106353041D01*
X111046701Y-106353053D01*
X111046701Y-108170546D01*
X111046702Y-108170558D01*
X111058333Y-108229027D01*
X111058335Y-108229033D01*
X111102406Y-108294989D01*
X111102649Y-108295352D01*
X111105503Y-108297259D01*
X111109026Y-108301728D01*
X111109544Y-108302246D01*
X111109482Y-108302307D01*
X111143382Y-108345309D01*
X111149501Y-108379574D01*
X111149501Y-108711456D01*
X111130594Y-108769647D01*
X111120505Y-108781459D01*
X111075089Y-108826875D01*
X111019073Y-108923896D01*
X111019072Y-108923901D01*
X110990075Y-109032120D01*
X110990075Y-109144156D01*
X111015461Y-109238900D01*
X111019073Y-109252379D01*
X111075088Y-109349398D01*
X111075090Y-109349401D01*
X111120505Y-109394816D01*
X111148281Y-109449331D01*
X111149500Y-109464818D01*
X111149500Y-112750499D01*
X111166602Y-112791787D01*
X111191441Y-112851755D01*
X111191442Y-112851756D01*
X111191443Y-112851758D01*
X113321705Y-114982020D01*
X113349481Y-115036535D01*
X113350700Y-115052022D01*
X113350700Y-115102918D01*
X113353352Y-115112815D01*
X113379698Y-115211141D01*
X113425546Y-115290550D01*
X113435715Y-115308163D01*
X113514937Y-115387385D01*
X113514939Y-115387386D01*
X113611959Y-115443401D01*
X113611957Y-115443401D01*
X113611961Y-115443402D01*
X113611963Y-115443403D01*
X113720182Y-115472400D01*
X113720184Y-115472400D01*
X113832216Y-115472400D01*
X113832218Y-115472400D01*
X113940437Y-115443403D01*
X113940439Y-115443401D01*
X113940441Y-115443401D01*
X113969264Y-115426759D01*
X114020321Y-115397282D01*
X118303700Y-115397282D01*
X118303700Y-115509318D01*
X118329272Y-115604755D01*
X118332698Y-115617541D01*
X118388713Y-115714560D01*
X118388715Y-115714563D01*
X118467937Y-115793785D01*
X118467939Y-115793786D01*
X118564959Y-115849801D01*
X118564957Y-115849801D01*
X118564961Y-115849802D01*
X118564963Y-115849803D01*
X118673182Y-115878800D01*
X118673184Y-115878800D01*
X118785216Y-115878800D01*
X118785218Y-115878800D01*
X118893437Y-115849803D01*
X118893439Y-115849801D01*
X118893441Y-115849801D01*
X118922264Y-115833159D01*
X118990463Y-115793785D01*
X119069685Y-115714563D01*
X119123439Y-115621459D01*
X119125701Y-115617541D01*
X119125701Y-115617539D01*
X119125703Y-115617537D01*
X119154700Y-115509318D01*
X119154700Y-115397282D01*
X119125703Y-115289063D01*
X119125701Y-115289060D01*
X119125701Y-115289058D01*
X119069686Y-115192039D01*
X119069685Y-115192037D01*
X118990463Y-115112815D01*
X118990460Y-115112813D01*
X118893440Y-115056798D01*
X118893442Y-115056798D01*
X118851451Y-115045547D01*
X118785218Y-115027800D01*
X118673182Y-115027800D01*
X118606948Y-115045547D01*
X118564958Y-115056798D01*
X118467939Y-115112813D01*
X118388713Y-115192039D01*
X118332698Y-115289058D01*
X118327580Y-115308160D01*
X118303700Y-115397282D01*
X114020321Y-115397282D01*
X114037463Y-115387385D01*
X114116685Y-115308163D01*
X114172703Y-115211137D01*
X114201700Y-115102918D01*
X114201700Y-114990882D01*
X114172703Y-114882663D01*
X114172701Y-114882660D01*
X114172701Y-114882658D01*
X114130192Y-114809032D01*
X116674050Y-114809032D01*
X116674050Y-114921068D01*
X116692757Y-114990883D01*
X116703048Y-115029291D01*
X116751272Y-115112815D01*
X116759065Y-115126313D01*
X116838287Y-115205535D01*
X116838289Y-115205536D01*
X116935309Y-115261551D01*
X116935307Y-115261551D01*
X116935311Y-115261552D01*
X116935313Y-115261553D01*
X117043532Y-115290550D01*
X117043534Y-115290550D01*
X117155566Y-115290550D01*
X117155568Y-115290550D01*
X117263787Y-115261553D01*
X117263789Y-115261551D01*
X117263791Y-115261551D01*
X117292614Y-115244909D01*
X117360813Y-115205535D01*
X117440035Y-115126313D01*
X117482927Y-115052022D01*
X117496051Y-115029291D01*
X117496051Y-115029289D01*
X117496053Y-115029287D01*
X117525050Y-114921068D01*
X117525050Y-114809032D01*
X117496053Y-114700813D01*
X117496051Y-114700810D01*
X117496051Y-114700808D01*
X117440036Y-114603789D01*
X117440035Y-114603787D01*
X117360813Y-114524565D01*
X117360810Y-114524563D01*
X117263790Y-114468548D01*
X117263792Y-114468548D01*
X117221801Y-114457297D01*
X117155568Y-114439550D01*
X117043532Y-114439550D01*
X117031112Y-114442877D01*
X116968139Y-114459750D01*
X116968127Y-114459754D01*
X116935313Y-114468547D01*
X116914917Y-114480322D01*
X116914908Y-114480326D01*
X116838288Y-114524564D01*
X116759063Y-114603789D01*
X116703048Y-114700808D01*
X116703047Y-114700813D01*
X116674050Y-114809032D01*
X114130192Y-114809032D01*
X114116686Y-114785639D01*
X114116685Y-114785637D01*
X114037463Y-114706415D01*
X114037460Y-114706413D01*
X113940440Y-114650398D01*
X113940442Y-114650398D01*
X113898451Y-114639147D01*
X113832218Y-114621400D01*
X113832216Y-114621400D01*
X113781323Y-114621400D01*
X113723132Y-114602493D01*
X113711319Y-114592404D01*
X112954097Y-113835182D01*
X116284400Y-113835182D01*
X116284400Y-113947218D01*
X116309972Y-114042655D01*
X116313398Y-114055441D01*
X116369413Y-114152460D01*
X116369415Y-114152463D01*
X116448637Y-114231685D01*
X116448639Y-114231686D01*
X116545659Y-114287701D01*
X116545657Y-114287701D01*
X116545661Y-114287702D01*
X116545663Y-114287703D01*
X116653882Y-114316700D01*
X116653884Y-114316700D01*
X116765915Y-114316700D01*
X116765918Y-114316700D01*
X116874137Y-114287703D01*
X116971163Y-114231685D01*
X117050385Y-114152463D01*
X117106403Y-114055437D01*
X117135400Y-113947218D01*
X117135400Y-113835182D01*
X117106403Y-113726963D01*
X117106401Y-113726960D01*
X117106401Y-113726958D01*
X117050386Y-113629939D01*
X117050385Y-113629937D01*
X116971163Y-113550715D01*
X116971160Y-113550713D01*
X116874140Y-113494698D01*
X116874142Y-113494698D01*
X116832151Y-113483447D01*
X116765918Y-113465700D01*
X116653882Y-113465700D01*
X116587648Y-113483447D01*
X116545658Y-113494698D01*
X116448639Y-113550713D01*
X116369413Y-113629939D01*
X116313398Y-113726958D01*
X116313397Y-113726963D01*
X116284400Y-113835182D01*
X112954097Y-113835182D01*
X112200371Y-113081456D01*
X120319500Y-113081456D01*
X120319500Y-113278543D01*
X120357949Y-113471834D01*
X120357949Y-113471836D01*
X120433367Y-113653913D01*
X120433368Y-113653914D01*
X120542861Y-113817782D01*
X120682218Y-113957139D01*
X120846086Y-114066632D01*
X121028165Y-114142051D01*
X121221459Y-114180500D01*
X121221460Y-114180500D01*
X121418540Y-114180500D01*
X121418541Y-114180500D01*
X121611835Y-114142051D01*
X121793914Y-114066632D01*
X121957782Y-113957139D01*
X122097139Y-113817782D01*
X122206632Y-113653914D01*
X122282051Y-113471835D01*
X122320500Y-113278541D01*
X122320500Y-113081459D01*
X122282051Y-112888165D01*
X122206632Y-112706086D01*
X122097139Y-112542218D01*
X121957782Y-112402861D01*
X121793914Y-112293368D01*
X121793915Y-112293368D01*
X121793913Y-112293367D01*
X121611835Y-112217949D01*
X121418543Y-112179500D01*
X121418541Y-112179500D01*
X121221459Y-112179500D01*
X121221456Y-112179500D01*
X121028165Y-112217949D01*
X121028163Y-112217949D01*
X120846086Y-112293367D01*
X120682218Y-112402861D01*
X120682214Y-112402864D01*
X120542864Y-112542214D01*
X120542861Y-112542218D01*
X120433367Y-112706086D01*
X120357949Y-112888163D01*
X120357949Y-112888165D01*
X120319500Y-113081456D01*
X112200371Y-113081456D01*
X111729496Y-112610581D01*
X111701719Y-112556064D01*
X111700500Y-112540577D01*
X111700500Y-112057182D01*
X112703000Y-112057182D01*
X112703000Y-112169218D01*
X112719567Y-112231047D01*
X112731998Y-112277441D01*
X112788013Y-112374460D01*
X112788015Y-112374463D01*
X112867237Y-112453685D01*
X112867239Y-112453686D01*
X112964259Y-112509701D01*
X112964257Y-112509701D01*
X112964261Y-112509702D01*
X112964263Y-112509703D01*
X113072482Y-112538700D01*
X113072484Y-112538700D01*
X113184516Y-112538700D01*
X113184518Y-112538700D01*
X113292737Y-112509703D01*
X113292739Y-112509701D01*
X113292741Y-112509701D01*
X113321564Y-112493059D01*
X113389763Y-112453685D01*
X113468985Y-112374463D01*
X113519444Y-112287065D01*
X113525001Y-112277441D01*
X113525001Y-112277439D01*
X113525003Y-112277437D01*
X113554000Y-112169218D01*
X113554000Y-112057182D01*
X113525003Y-111948963D01*
X113525001Y-111948960D01*
X113525001Y-111948958D01*
X113468986Y-111851939D01*
X113468985Y-111851937D01*
X113389763Y-111772715D01*
X113389760Y-111772713D01*
X113292740Y-111716698D01*
X113292742Y-111716698D01*
X113234871Y-111701192D01*
X113184518Y-111687700D01*
X113072482Y-111687700D01*
X113022129Y-111701192D01*
X112964258Y-111716698D01*
X112867239Y-111772713D01*
X112788013Y-111851939D01*
X112731998Y-111948958D01*
X112731997Y-111948963D01*
X112703000Y-112057182D01*
X111700500Y-112057182D01*
X111700500Y-110849984D01*
X111719407Y-110791793D01*
X111768907Y-110755829D01*
X111827586Y-110755829D01*
X111827695Y-110755423D01*
X111829210Y-110755829D01*
X111830093Y-110755829D01*
X111832430Y-110756691D01*
X111833959Y-110757100D01*
X111833963Y-110757103D01*
X111942182Y-110786100D01*
X111942184Y-110786100D01*
X112054216Y-110786100D01*
X112054218Y-110786100D01*
X112162437Y-110757103D01*
X112162439Y-110757101D01*
X112162441Y-110757101D01*
X112194591Y-110738539D01*
X112259463Y-110701085D01*
X112338685Y-110621863D01*
X112385108Y-110541456D01*
X112394701Y-110524841D01*
X112394701Y-110524839D01*
X112394703Y-110524837D01*
X112423700Y-110416618D01*
X112423700Y-110304582D01*
X112394703Y-110196363D01*
X112394701Y-110196360D01*
X112394701Y-110196358D01*
X112338686Y-110099339D01*
X112338685Y-110099337D01*
X112259463Y-110020115D01*
X112259460Y-110020113D01*
X112162440Y-109964098D01*
X112162442Y-109964098D01*
X112120451Y-109952847D01*
X112054218Y-109935100D01*
X111942182Y-109935100D01*
X111833963Y-109964097D01*
X111833961Y-109964097D01*
X111827695Y-109965777D01*
X111827082Y-109963492D01*
X111776377Y-109967477D01*
X111724212Y-109935501D01*
X111700804Y-109878971D01*
X111700500Y-109871215D01*
X111700500Y-109445968D01*
X111719407Y-109387777D01*
X111729490Y-109375970D01*
X111756060Y-109349401D01*
X111812078Y-109252375D01*
X111841075Y-109144156D01*
X111841075Y-109032120D01*
X111812078Y-108923901D01*
X111812076Y-108923898D01*
X111812076Y-108923896D01*
X111756060Y-108826875D01*
X111729496Y-108800310D01*
X111701720Y-108745793D01*
X111700501Y-108730308D01*
X111700501Y-108436733D01*
X111719408Y-108378542D01*
X111768908Y-108342578D01*
X111818818Y-108339636D01*
X111818965Y-108339665D01*
X111818968Y-108339667D01*
X111869083Y-108349635D01*
X111877445Y-108351299D01*
X111877448Y-108351299D01*
X111877451Y-108351300D01*
X111877452Y-108351300D01*
X112272546Y-108351300D01*
X112272547Y-108351300D01*
X112331030Y-108339667D01*
X112344998Y-108330333D01*
X112403884Y-108313724D01*
X112455000Y-108330332D01*
X112468970Y-108339667D01*
X112513432Y-108348511D01*
X112527442Y-108351298D01*
X112527447Y-108351298D01*
X112527453Y-108351300D01*
X112527454Y-108351300D01*
X112922548Y-108351300D01*
X112922549Y-108351300D01*
X112981032Y-108339667D01*
X112994997Y-108330335D01*
X113053883Y-108313725D01*
X113105001Y-108330334D01*
X113118968Y-108339667D01*
X113163430Y-108348511D01*
X113177440Y-108351298D01*
X113177445Y-108351298D01*
X113177451Y-108351300D01*
X113177452Y-108351300D01*
X113572546Y-108351300D01*
X113572547Y-108351300D01*
X113631030Y-108339667D01*
X113644995Y-108330335D01*
X113703881Y-108313725D01*
X113755000Y-108330334D01*
X113768967Y-108339667D01*
X113813429Y-108348511D01*
X113827439Y-108351298D01*
X113827444Y-108351298D01*
X113827450Y-108351300D01*
X113827451Y-108351300D01*
X114222545Y-108351300D01*
X114222546Y-108351300D01*
X114281029Y-108339667D01*
X114294995Y-108330334D01*
X114353883Y-108313725D01*
X114404998Y-108330332D01*
X114418968Y-108339667D01*
X114463430Y-108348511D01*
X114477440Y-108351298D01*
X114477445Y-108351298D01*
X114477451Y-108351300D01*
X114477452Y-108351300D01*
X114872546Y-108351300D01*
X114872547Y-108351300D01*
X114931030Y-108339667D01*
X114944995Y-108330335D01*
X115003881Y-108313725D01*
X115055000Y-108330334D01*
X115068967Y-108339667D01*
X115113429Y-108348511D01*
X115127439Y-108351298D01*
X115127444Y-108351298D01*
X115127450Y-108351300D01*
X115127451Y-108351300D01*
X115522545Y-108351300D01*
X115522546Y-108351300D01*
X115581029Y-108339667D01*
X115595446Y-108330033D01*
X115654332Y-108313424D01*
X115705451Y-108330034D01*
X115719162Y-108339195D01*
X115719162Y-108339196D01*
X115777498Y-108350799D01*
X115777502Y-108350800D01*
X115797198Y-108350800D01*
X115797199Y-108350799D01*
X115797199Y-107439601D01*
X116152799Y-107439601D01*
X116152799Y-108350799D01*
X116152800Y-108350800D01*
X116172496Y-108350800D01*
X116172499Y-108350799D01*
X116230835Y-108339196D01*
X116296988Y-108294993D01*
X116296992Y-108294989D01*
X116341195Y-108228836D01*
X116352798Y-108170500D01*
X116352799Y-108170497D01*
X116352799Y-107439601D01*
X116352798Y-107439600D01*
X116152800Y-107439600D01*
X116152799Y-107439601D01*
X115797199Y-107439601D01*
X115797199Y-106172801D01*
X116152799Y-106172801D01*
X116152799Y-107083999D01*
X116152800Y-107084000D01*
X116352798Y-107084000D01*
X116352799Y-107083999D01*
X116352799Y-106353102D01*
X116352798Y-106353099D01*
X116341195Y-106294763D01*
X116296992Y-106228610D01*
X116296988Y-106228606D01*
X116230835Y-106184403D01*
X116172499Y-106172800D01*
X116152800Y-106172800D01*
X116152799Y-106172801D01*
X115797199Y-106172801D01*
X115797198Y-106172800D01*
X115777496Y-106172800D01*
X115718813Y-106184473D01*
X115658052Y-106177281D01*
X115613123Y-106135748D01*
X115600500Y-106087375D01*
X115600500Y-104530855D01*
X115619407Y-104472664D01*
X115626047Y-104464888D01*
X115627984Y-104462364D01*
X115684001Y-104365341D01*
X115684001Y-104365339D01*
X115684003Y-104365337D01*
X115713000Y-104257118D01*
X115713000Y-104145082D01*
X115684003Y-104036863D01*
X115684001Y-104036860D01*
X115684001Y-104036858D01*
X115636306Y-103954250D01*
X115627985Y-103939837D01*
X115548763Y-103860615D01*
X115548760Y-103860613D01*
X115548756Y-103860609D01*
X115543617Y-103856666D01*
X115545363Y-103854389D01*
X115512421Y-103817786D01*
X115506039Y-103756934D01*
X115532867Y-103707536D01*
X115674609Y-103565796D01*
X115681725Y-103562170D01*
X115686421Y-103555707D01*
X115708472Y-103548542D01*
X115729126Y-103538019D01*
X115744612Y-103536800D01*
X115923544Y-103536800D01*
X115981735Y-103555707D01*
X115993547Y-103565796D01*
X116029537Y-103601785D01*
X116126559Y-103657801D01*
X116126557Y-103657801D01*
X116126561Y-103657802D01*
X116126563Y-103657803D01*
X116234782Y-103686800D01*
X116234784Y-103686800D01*
X116346816Y-103686800D01*
X116346818Y-103686800D01*
X116455037Y-103657803D01*
X116455039Y-103657801D01*
X116455041Y-103657801D01*
X116496717Y-103633739D01*
X116552063Y-103601785D01*
X116631285Y-103522563D01*
X116687303Y-103425537D01*
X116716300Y-103317318D01*
X116716300Y-103205282D01*
X116687303Y-103097063D01*
X116687301Y-103097060D01*
X116687301Y-103097058D01*
X116631286Y-103000039D01*
X116631285Y-103000037D01*
X116552063Y-102920815D01*
X116528800Y-102907384D01*
X116455040Y-102864798D01*
X116455041Y-102864798D01*
X116381287Y-102845036D01*
X116329972Y-102811712D01*
X116308046Y-102754590D01*
X116321173Y-102699910D01*
X116371503Y-102612737D01*
X116400500Y-102504518D01*
X116400500Y-102392482D01*
X116371503Y-102284263D01*
X116366561Y-102275704D01*
X116353299Y-102226205D01*
X116353299Y-100409453D01*
X116353297Y-100409441D01*
X116347730Y-100381456D01*
X116341666Y-100350969D01*
X116297351Y-100284648D01*
X116297347Y-100284645D01*
X116231032Y-100240334D01*
X116231030Y-100240333D01*
X116231027Y-100240332D01*
X116231026Y-100240332D01*
X116172557Y-100228701D01*
X116172547Y-100228700D01*
X115777451Y-100228700D01*
X115777450Y-100228700D01*
X115762209Y-100231731D01*
X115718968Y-100240333D01*
X115718966Y-100240333D01*
X115718815Y-100240364D01*
X115658053Y-100233173D01*
X115613123Y-100191640D01*
X115600500Y-100143266D01*
X115600500Y-99462955D01*
X115619407Y-99404764D01*
X115629490Y-99392957D01*
X115665485Y-99356963D01*
X115721503Y-99259937D01*
X115750500Y-99151718D01*
X115750500Y-99039682D01*
X115721503Y-98931463D01*
X115721501Y-98931460D01*
X115721501Y-98931458D01*
X115665486Y-98834439D01*
X115665485Y-98834437D01*
X115586263Y-98755215D01*
X115586260Y-98755213D01*
X115489240Y-98699198D01*
X115489242Y-98699198D01*
X115447251Y-98687947D01*
X115381018Y-98670200D01*
X115268982Y-98670200D01*
X115202748Y-98687947D01*
X115160758Y-98699198D01*
X115101900Y-98733181D01*
X115042052Y-98745903D01*
X114986156Y-98721017D01*
X114955563Y-98668029D01*
X114953400Y-98647445D01*
X114953400Y-97555000D01*
X114911457Y-97453742D01*
X114911457Y-97453741D01*
X114306896Y-96849180D01*
X114279119Y-96794663D01*
X114277900Y-96779176D01*
X114277900Y-96728283D01*
X114277900Y-96728282D01*
X114248903Y-96620063D01*
X114248901Y-96620060D01*
X114248901Y-96620058D01*
X114192886Y-96523039D01*
X114192885Y-96523037D01*
X114113663Y-96443815D01*
X114113660Y-96443813D01*
X114016640Y-96387798D01*
X114016642Y-96387798D01*
X113974651Y-96376547D01*
X113908418Y-96358800D01*
X113796382Y-96358800D01*
X113730148Y-96376547D01*
X113688158Y-96387798D01*
X113591139Y-96443813D01*
X113511913Y-96523039D01*
X113455898Y-96620058D01*
X113455897Y-96620063D01*
X113426900Y-96728282D01*
X113426900Y-96840318D01*
X113429275Y-96849180D01*
X113455898Y-96948541D01*
X113507294Y-97037560D01*
X113511915Y-97045563D01*
X113591137Y-97124785D01*
X113599503Y-97129615D01*
X113688159Y-97180801D01*
X113688157Y-97180801D01*
X113688161Y-97180802D01*
X113688163Y-97180803D01*
X113796382Y-97209800D01*
X113847277Y-97209800D01*
X113905468Y-97228707D01*
X113917281Y-97238796D01*
X114373404Y-97694919D01*
X114401181Y-97749436D01*
X114402400Y-97764923D01*
X114402400Y-100143843D01*
X114383493Y-100202034D01*
X114333993Y-100237998D01*
X114284085Y-100240941D01*
X114281033Y-100240333D01*
X114281032Y-100240333D01*
X114222549Y-100228700D01*
X113885955Y-100228700D01*
X113827764Y-100209793D01*
X113791800Y-100160293D01*
X113790329Y-100104076D01*
X113800499Y-100066120D01*
X113800500Y-100066117D01*
X113800500Y-99954083D01*
X113791138Y-99919143D01*
X113771503Y-99845863D01*
X113771501Y-99845860D01*
X113771501Y-99845858D01*
X113715486Y-99748839D01*
X113715485Y-99748837D01*
X113636263Y-99669615D01*
X113636260Y-99669613D01*
X113539240Y-99613598D01*
X113539242Y-99613598D01*
X113497251Y-99602347D01*
X113431018Y-99584600D01*
X113318982Y-99584600D01*
X113252748Y-99602347D01*
X113210758Y-99613598D01*
X113113739Y-99669613D01*
X113034514Y-99748838D01*
X112980518Y-99842360D01*
X112935048Y-99883301D01*
X112874197Y-99889695D01*
X112824778Y-99862863D01*
X109635696Y-96673781D01*
X109607919Y-96619264D01*
X109606700Y-96603777D01*
X109606700Y-93777182D01*
X110073600Y-93777182D01*
X110073600Y-93889218D01*
X110099172Y-93984655D01*
X110102598Y-93997441D01*
X110158613Y-94094460D01*
X110158615Y-94094463D01*
X110237837Y-94173685D01*
X110237839Y-94173686D01*
X110334859Y-94229701D01*
X110334857Y-94229701D01*
X110334861Y-94229702D01*
X110334863Y-94229703D01*
X110443082Y-94258700D01*
X110443084Y-94258700D01*
X110555116Y-94258700D01*
X110555118Y-94258700D01*
X110663337Y-94229703D01*
X110663339Y-94229701D01*
X110663341Y-94229701D01*
X110692164Y-94213059D01*
X110760363Y-94173685D01*
X110839585Y-94094463D01*
X110895603Y-93997437D01*
X110924600Y-93889218D01*
X110924600Y-93777182D01*
X110895603Y-93668963D01*
X110895601Y-93668960D01*
X110895601Y-93668958D01*
X110839585Y-93571937D01*
X110803596Y-93535947D01*
X110775819Y-93481430D01*
X110774600Y-93465944D01*
X110774600Y-90565882D01*
X111001200Y-90565882D01*
X111001200Y-90677918D01*
X111011067Y-90714743D01*
X111030198Y-90786141D01*
X111086213Y-90883160D01*
X111086215Y-90883163D01*
X111165437Y-90962385D01*
X111170081Y-90965066D01*
X111262459Y-91018401D01*
X111262457Y-91018401D01*
X111262461Y-91018402D01*
X111262463Y-91018403D01*
X111370682Y-91047400D01*
X111370684Y-91047400D01*
X111482716Y-91047400D01*
X111482718Y-91047400D01*
X111590937Y-91018403D01*
X111590939Y-91018401D01*
X111590941Y-91018401D01*
X111619764Y-91001759D01*
X111687963Y-90962385D01*
X111767185Y-90883163D01*
X111813662Y-90802662D01*
X111823201Y-90786141D01*
X111823201Y-90786139D01*
X111823203Y-90786137D01*
X111852200Y-90677918D01*
X111852200Y-90601230D01*
X111871107Y-90543039D01*
X111920607Y-90507075D01*
X111976820Y-90505603D01*
X112018982Y-90516900D01*
X112018984Y-90516900D01*
X112131016Y-90516900D01*
X112131018Y-90516900D01*
X112239237Y-90487903D01*
X112301000Y-90452243D01*
X112360847Y-90439522D01*
X112416743Y-90464408D01*
X112447336Y-90517396D01*
X112449500Y-90537980D01*
X112449500Y-91457376D01*
X112430593Y-91515567D01*
X112420504Y-91527380D01*
X111370042Y-92577843D01*
X111370041Y-92577842D01*
X111292546Y-92655338D01*
X111292544Y-92655340D01*
X111292543Y-92655342D01*
X111292543Y-92655343D01*
X111250600Y-92756600D01*
X111250600Y-97231995D01*
X111281196Y-97305862D01*
X111281197Y-97305862D01*
X111281197Y-97305863D01*
X111292543Y-97333254D01*
X112552505Y-98593216D01*
X112580281Y-98647731D01*
X112581500Y-98663218D01*
X112581500Y-98714114D01*
X112592513Y-98755215D01*
X112610498Y-98822337D01*
X112656522Y-98902051D01*
X112666515Y-98919359D01*
X112745737Y-98998581D01*
X112745739Y-98998582D01*
X112842759Y-99054597D01*
X112842757Y-99054597D01*
X112842761Y-99054598D01*
X112842763Y-99054599D01*
X112950982Y-99083596D01*
X112950984Y-99083596D01*
X113063016Y-99083596D01*
X113063018Y-99083596D01*
X113171237Y-99054599D01*
X113171239Y-99054597D01*
X113171241Y-99054597D01*
X113200064Y-99037955D01*
X113268263Y-98998581D01*
X113347485Y-98919359D01*
X113403503Y-98822333D01*
X113432500Y-98714114D01*
X113432500Y-98602078D01*
X113403503Y-98493859D01*
X113403501Y-98493856D01*
X113403501Y-98493854D01*
X113347486Y-98396835D01*
X113347485Y-98396833D01*
X113268263Y-98317611D01*
X113268260Y-98317609D01*
X113171240Y-98261594D01*
X113171242Y-98261594D01*
X113129251Y-98250343D01*
X113063018Y-98232596D01*
X113063016Y-98232596D01*
X113012123Y-98232596D01*
X112953932Y-98213689D01*
X112942119Y-98203600D01*
X111830596Y-97092077D01*
X111802819Y-97037560D01*
X111801600Y-97022073D01*
X111801600Y-92966523D01*
X111820507Y-92908332D01*
X111830596Y-92896519D01*
X112125196Y-92601919D01*
X112179713Y-92574142D01*
X112240145Y-92583713D01*
X112283410Y-92626978D01*
X112294200Y-92671923D01*
X112294200Y-94512044D01*
X112275293Y-94570235D01*
X112265204Y-94582047D01*
X112229214Y-94618037D01*
X112173198Y-94715058D01*
X112171857Y-94720063D01*
X112144200Y-94823282D01*
X112144200Y-94935318D01*
X112145540Y-94940318D01*
X112173198Y-95043541D01*
X112229213Y-95140560D01*
X112229215Y-95140563D01*
X112308437Y-95219785D01*
X112308439Y-95219786D01*
X112405459Y-95275801D01*
X112405457Y-95275801D01*
X112405461Y-95275802D01*
X112405463Y-95275803D01*
X112513682Y-95304800D01*
X112513684Y-95304800D01*
X112625716Y-95304800D01*
X112625718Y-95304800D01*
X112733937Y-95275803D01*
X112733939Y-95275801D01*
X112733941Y-95275801D01*
X112762764Y-95259159D01*
X112830963Y-95219785D01*
X112910185Y-95140563D01*
X112963314Y-95048541D01*
X112966201Y-95043541D01*
X112966201Y-95043539D01*
X112966203Y-95043537D01*
X112995200Y-94935318D01*
X112995200Y-94828282D01*
X113937500Y-94828282D01*
X113937500Y-94940318D01*
X113963072Y-95035755D01*
X113966498Y-95048541D01*
X114019628Y-95140563D01*
X114022515Y-95145563D01*
X114101737Y-95224785D01*
X114101739Y-95224786D01*
X114198759Y-95280801D01*
X114198757Y-95280801D01*
X114198761Y-95280802D01*
X114198763Y-95280803D01*
X114306982Y-95309800D01*
X114306984Y-95309800D01*
X114419016Y-95309800D01*
X114419018Y-95309800D01*
X114527237Y-95280803D01*
X114527239Y-95280801D01*
X114527241Y-95280801D01*
X114556064Y-95264159D01*
X114624263Y-95224785D01*
X114703485Y-95145563D01*
X114759503Y-95048537D01*
X114788500Y-94940318D01*
X114788500Y-94828282D01*
X114759503Y-94720063D01*
X114759501Y-94720060D01*
X114759501Y-94720058D01*
X114703486Y-94623039D01*
X114703485Y-94623037D01*
X114624263Y-94543815D01*
X114596057Y-94527530D01*
X114527240Y-94487798D01*
X114527242Y-94487798D01*
X114485251Y-94476547D01*
X114419018Y-94458800D01*
X114306982Y-94458800D01*
X114240748Y-94476547D01*
X114198758Y-94487798D01*
X114101739Y-94543813D01*
X114022513Y-94623039D01*
X113966498Y-94720058D01*
X113966497Y-94720063D01*
X113937500Y-94828282D01*
X112995200Y-94828282D01*
X112995200Y-94823282D01*
X112966203Y-94715063D01*
X112966201Y-94715060D01*
X112966201Y-94715058D01*
X112910185Y-94618037D01*
X112874196Y-94582047D01*
X112846419Y-94527530D01*
X112845200Y-94512044D01*
X112845200Y-92494423D01*
X112864107Y-92436232D01*
X112874196Y-92424419D01*
X113215754Y-92082861D01*
X113608557Y-91690059D01*
X113617478Y-91668521D01*
X113632706Y-91631759D01*
X113632706Y-91631758D01*
X113641643Y-91610182D01*
X113650500Y-91588800D01*
X113650500Y-90808898D01*
X113669407Y-90750707D01*
X113718907Y-90714743D01*
X113780093Y-90714743D01*
X113829593Y-90750707D01*
X113835227Y-90759383D01*
X113860215Y-90802663D01*
X113939437Y-90881885D01*
X113941651Y-90883163D01*
X114036459Y-90937901D01*
X114036457Y-90937901D01*
X114036461Y-90937902D01*
X114036463Y-90937903D01*
X114144682Y-90966900D01*
X114144684Y-90966900D01*
X114256716Y-90966900D01*
X114256718Y-90966900D01*
X114364937Y-90937903D01*
X114364939Y-90937901D01*
X114364941Y-90937901D01*
X114393764Y-90921259D01*
X114461963Y-90881885D01*
X114541185Y-90802663D01*
X114597203Y-90705637D01*
X114626200Y-90597418D01*
X114626200Y-90485382D01*
X114597203Y-90377163D01*
X114597201Y-90377160D01*
X114597201Y-90377158D01*
X114541186Y-90280139D01*
X114541185Y-90280137D01*
X114461963Y-90200915D01*
X114461960Y-90200913D01*
X114364936Y-90144895D01*
X114361608Y-90143517D01*
X114359646Y-90141841D01*
X114359318Y-90141652D01*
X114359353Y-90141591D01*
X114341166Y-90126057D01*
X114319405Y-90110246D01*
X114318156Y-90106402D01*
X114315084Y-90103778D01*
X114300498Y-90052055D01*
X114300498Y-90047133D01*
X114319405Y-89988942D01*
X114368905Y-89952978D01*
X114418814Y-89950036D01*
X114418967Y-89950066D01*
X114418968Y-89950067D01*
X114433603Y-89952978D01*
X114477442Y-89961699D01*
X114477449Y-89961699D01*
X114477451Y-89961700D01*
X114477452Y-89961700D01*
X114872546Y-89961700D01*
X114872547Y-89961700D01*
X114931030Y-89950067D01*
X114931032Y-89950065D01*
X114931783Y-89949916D01*
X114992545Y-89957106D01*
X115037476Y-89998637D01*
X115050100Y-90047013D01*
X115050100Y-91706344D01*
X115031193Y-91764535D01*
X115021104Y-91776347D01*
X114985114Y-91812337D01*
X114929098Y-91909358D01*
X114929097Y-91909363D01*
X114900100Y-92017582D01*
X114900100Y-92129618D01*
X114924911Y-92222214D01*
X114929098Y-92237841D01*
X114985113Y-92334860D01*
X114985115Y-92334863D01*
X115064337Y-92414085D01*
X115064339Y-92414086D01*
X115161359Y-92470101D01*
X115161357Y-92470101D01*
X115161361Y-92470102D01*
X115161363Y-92470103D01*
X115269582Y-92499100D01*
X115269584Y-92499100D01*
X115381616Y-92499100D01*
X115381618Y-92499100D01*
X115489837Y-92470103D01*
X115489839Y-92470101D01*
X115489841Y-92470101D01*
X115554248Y-92432915D01*
X115586863Y-92414085D01*
X115666085Y-92334863D01*
X115722103Y-92237837D01*
X115751100Y-92129618D01*
X115751100Y-92017582D01*
X115722103Y-91909363D01*
X115722101Y-91909360D01*
X115722101Y-91909358D01*
X115666085Y-91812337D01*
X115630096Y-91776347D01*
X115602319Y-91721830D01*
X115601100Y-91706344D01*
X115601100Y-90046744D01*
X115620007Y-89988553D01*
X115669507Y-89952589D01*
X115719414Y-89949646D01*
X115777498Y-89961199D01*
X115777502Y-89961200D01*
X115797198Y-89961200D01*
X115797199Y-89961199D01*
X115797199Y-89050001D01*
X116152799Y-89050001D01*
X116152799Y-89961199D01*
X116152800Y-89961200D01*
X116172496Y-89961200D01*
X116172499Y-89961199D01*
X116230835Y-89949596D01*
X116296988Y-89905393D01*
X116296992Y-89905389D01*
X116341195Y-89839236D01*
X116352798Y-89780900D01*
X116352799Y-89780897D01*
X116352799Y-89050001D01*
X116352798Y-89050000D01*
X116152800Y-89050000D01*
X116152799Y-89050001D01*
X115797199Y-89050001D01*
X115797199Y-87783201D01*
X116152799Y-87783201D01*
X116152799Y-88694399D01*
X116152800Y-88694400D01*
X116352798Y-88694400D01*
X116352799Y-88694399D01*
X116352799Y-87963502D01*
X116352798Y-87963499D01*
X116341195Y-87905163D01*
X116296992Y-87839010D01*
X116296988Y-87839006D01*
X116230835Y-87794803D01*
X116172499Y-87783200D01*
X116152800Y-87783200D01*
X116152799Y-87783201D01*
X115797199Y-87783201D01*
X115797198Y-87783200D01*
X115777498Y-87783200D01*
X115719162Y-87794803D01*
X115719161Y-87794804D01*
X115705446Y-87803968D01*
X115646557Y-87820575D01*
X115595444Y-87803965D01*
X115581032Y-87794335D01*
X115581031Y-87794334D01*
X115581029Y-87794333D01*
X115581025Y-87794332D01*
X115522556Y-87782701D01*
X115522546Y-87782700D01*
X115199500Y-87782700D01*
X115141309Y-87763793D01*
X115105345Y-87714293D01*
X115100500Y-87683700D01*
X115100500Y-87590383D01*
X115100500Y-87590382D01*
X115071503Y-87482163D01*
X115071501Y-87482160D01*
X115071501Y-87482158D01*
X115015486Y-87385139D01*
X115015485Y-87385137D01*
X114936263Y-87305915D01*
X114936260Y-87305913D01*
X114839240Y-87249898D01*
X114839242Y-87249898D01*
X114797251Y-87238647D01*
X114731018Y-87220900D01*
X114618982Y-87220900D01*
X114552748Y-87238647D01*
X114510758Y-87249898D01*
X114413739Y-87305913D01*
X114334513Y-87385139D01*
X114278498Y-87482158D01*
X114249500Y-87590383D01*
X114249500Y-87683700D01*
X114230593Y-87741891D01*
X114181093Y-87777855D01*
X114150500Y-87782700D01*
X113827450Y-87782700D01*
X113827449Y-87782700D01*
X113827439Y-87782701D01*
X113768970Y-87794332D01*
X113768962Y-87794335D01*
X113754998Y-87803666D01*
X113696110Y-87820274D01*
X113644996Y-87803665D01*
X113631032Y-87794334D01*
X113631030Y-87794333D01*
X113631027Y-87794332D01*
X113631026Y-87794332D01*
X113572557Y-87782701D01*
X113572547Y-87782700D01*
X113177451Y-87782700D01*
X113177450Y-87782700D01*
X113177440Y-87782701D01*
X113118971Y-87794332D01*
X113118966Y-87794334D01*
X113105000Y-87803666D01*
X113046111Y-87820273D01*
X112995000Y-87803666D01*
X112988710Y-87799463D01*
X112981032Y-87794333D01*
X112981029Y-87794332D01*
X112981028Y-87794332D01*
X112922559Y-87782701D01*
X112922549Y-87782700D01*
X112527453Y-87782700D01*
X112527452Y-87782700D01*
X112527442Y-87782701D01*
X112468973Y-87794332D01*
X112468968Y-87794334D01*
X112455001Y-87803667D01*
X112396113Y-87820275D01*
X112344999Y-87803667D01*
X112344996Y-87803665D01*
X112331030Y-87794333D01*
X112331027Y-87794332D01*
X112331026Y-87794332D01*
X112272557Y-87782701D01*
X112272547Y-87782700D01*
X111877451Y-87782700D01*
X111877450Y-87782700D01*
X111877440Y-87782701D01*
X111818971Y-87794332D01*
X111818966Y-87794334D01*
X111805000Y-87803666D01*
X111746111Y-87820273D01*
X111695000Y-87803666D01*
X111688710Y-87799463D01*
X111681032Y-87794333D01*
X111681029Y-87794332D01*
X111681028Y-87794332D01*
X111622559Y-87782701D01*
X111622549Y-87782700D01*
X111227453Y-87782700D01*
X111227452Y-87782700D01*
X111227442Y-87782701D01*
X111168973Y-87794332D01*
X111168967Y-87794334D01*
X111102652Y-87838645D01*
X111102646Y-87838651D01*
X111058335Y-87904966D01*
X111058333Y-87904972D01*
X111046702Y-87963441D01*
X111046701Y-87963453D01*
X111046701Y-89780946D01*
X111046702Y-89780958D01*
X111058333Y-89839427D01*
X111058335Y-89839433D01*
X111102406Y-89905389D01*
X111102649Y-89905752D01*
X111107201Y-89908794D01*
X111145081Y-89956843D01*
X111151200Y-89991109D01*
X111151200Y-90254644D01*
X111132293Y-90312835D01*
X111122204Y-90324647D01*
X111086214Y-90360637D01*
X111030198Y-90457658D01*
X111023231Y-90483660D01*
X111001200Y-90565882D01*
X110774600Y-90565882D01*
X110774600Y-86856122D01*
X110793507Y-86797931D01*
X110803590Y-86786124D01*
X111732632Y-85857082D01*
X112614100Y-85857082D01*
X112614100Y-85969118D01*
X112626545Y-86015563D01*
X112643098Y-86077341D01*
X112696763Y-86170290D01*
X112699115Y-86174363D01*
X112778337Y-86253585D01*
X112778339Y-86253586D01*
X112875359Y-86309601D01*
X112875357Y-86309601D01*
X112875361Y-86309602D01*
X112875363Y-86309603D01*
X112983582Y-86338600D01*
X112983584Y-86338600D01*
X113095616Y-86338600D01*
X113095618Y-86338600D01*
X113203837Y-86309603D01*
X113203839Y-86309601D01*
X113203841Y-86309601D01*
X113265262Y-86274139D01*
X113300863Y-86253585D01*
X113380085Y-86174363D01*
X113420977Y-86103536D01*
X113436101Y-86077341D01*
X113436101Y-86077339D01*
X113436103Y-86077337D01*
X113465100Y-85969118D01*
X113465100Y-85930923D01*
X113484007Y-85872732D01*
X113494096Y-85860919D01*
X113838418Y-85516597D01*
X114258558Y-85096458D01*
X114300500Y-84995200D01*
X114300500Y-84885600D01*
X114300500Y-84272022D01*
X114319407Y-84213831D01*
X114368907Y-84177867D01*
X114430093Y-84177867D01*
X114469501Y-84202016D01*
X115881134Y-85613650D01*
X115908911Y-85668166D01*
X115899340Y-85728598D01*
X115856075Y-85771863D01*
X115836757Y-85779279D01*
X115821759Y-85783298D01*
X115724739Y-85839313D01*
X115645513Y-85918539D01*
X115589498Y-86015558D01*
X115576166Y-86065315D01*
X115560500Y-86123782D01*
X115560500Y-86235818D01*
X115585480Y-86329047D01*
X115589498Y-86344041D01*
X115642894Y-86436523D01*
X115645515Y-86441063D01*
X115724737Y-86520285D01*
X115724739Y-86520286D01*
X115821759Y-86576301D01*
X115821757Y-86576301D01*
X115821761Y-86576302D01*
X115821763Y-86576303D01*
X115929982Y-86605300D01*
X115929984Y-86605300D01*
X116042016Y-86605300D01*
X116042018Y-86605300D01*
X116150237Y-86576303D01*
X116150239Y-86576301D01*
X116150241Y-86576301D01*
X116179064Y-86559659D01*
X116247263Y-86520285D01*
X116326485Y-86441063D01*
X116382503Y-86344037D01*
X116386519Y-86329045D01*
X116419842Y-86277732D01*
X116476963Y-86255805D01*
X116536064Y-86271640D01*
X116552150Y-86284665D01*
X117027704Y-86760219D01*
X117055481Y-86814736D01*
X117056700Y-86830223D01*
X117056700Y-91251100D01*
X117098619Y-91352300D01*
X117098643Y-91352358D01*
X117159298Y-91413013D01*
X117161352Y-91415342D01*
X117172331Y-91440704D01*
X117184881Y-91465335D01*
X117185300Y-91470662D01*
X117185659Y-91471491D01*
X117185442Y-91472462D01*
X117186100Y-91480822D01*
X117186100Y-91531718D01*
X117211672Y-91627155D01*
X117215098Y-91639941D01*
X117262602Y-91722218D01*
X117271115Y-91736963D01*
X117350337Y-91816185D01*
X117350339Y-91816186D01*
X117447359Y-91872201D01*
X117447357Y-91872201D01*
X117447361Y-91872202D01*
X117447363Y-91872203D01*
X117555582Y-91901200D01*
X117555584Y-91901200D01*
X117667617Y-91901200D01*
X117667618Y-91901200D01*
X117706778Y-91890707D01*
X117767877Y-91893908D01*
X117815427Y-91932412D01*
X117831400Y-91986333D01*
X117831400Y-108503676D01*
X117812493Y-108561867D01*
X117802404Y-108573680D01*
X114203031Y-112173054D01*
X114148514Y-112200831D01*
X114133027Y-112202050D01*
X114082132Y-112202050D01*
X114022796Y-112217949D01*
X113973908Y-112231048D01*
X113876889Y-112287063D01*
X113797663Y-112366289D01*
X113741648Y-112463308D01*
X113741647Y-112463313D01*
X113712650Y-112571532D01*
X113712650Y-112683568D01*
X113718684Y-112706086D01*
X113741648Y-112791791D01*
X113797291Y-112888165D01*
X113797665Y-112888813D01*
X113876887Y-112968035D01*
X113876889Y-112968036D01*
X113973909Y-113024051D01*
X113973907Y-113024051D01*
X113973911Y-113024052D01*
X113973913Y-113024053D01*
X114082132Y-113053050D01*
X114082134Y-113053050D01*
X114194166Y-113053050D01*
X114194168Y-113053050D01*
X114302387Y-113024053D01*
X114399413Y-112968035D01*
X114478635Y-112888813D01*
X114534653Y-112791787D01*
X114563650Y-112683568D01*
X114563650Y-112632673D01*
X114582557Y-112574482D01*
X114592646Y-112562669D01*
X116436429Y-110718886D01*
X116571333Y-110583982D01*
X117757900Y-110583982D01*
X117757900Y-110696018D01*
X117773926Y-110755829D01*
X117786898Y-110804241D01*
X117842913Y-110901260D01*
X117842915Y-110901263D01*
X117922137Y-110980485D01*
X117922139Y-110980486D01*
X118019159Y-111036501D01*
X118019157Y-111036501D01*
X118019161Y-111036502D01*
X118019163Y-111036503D01*
X118127382Y-111065500D01*
X118127384Y-111065500D01*
X118239416Y-111065500D01*
X118239418Y-111065500D01*
X118347637Y-111036503D01*
X118347639Y-111036501D01*
X118347641Y-111036501D01*
X118376464Y-111019859D01*
X118444663Y-110980485D01*
X118523885Y-110901263D01*
X118564597Y-110830748D01*
X118579901Y-110804241D01*
X118579901Y-110804239D01*
X118579903Y-110804237D01*
X118608900Y-110696018D01*
X118608900Y-110583982D01*
X118597505Y-110541456D01*
X120319500Y-110541456D01*
X120319500Y-110738543D01*
X120357949Y-110931834D01*
X120357949Y-110931836D01*
X120433367Y-111113913D01*
X120433368Y-111113914D01*
X120542861Y-111277782D01*
X120682218Y-111417139D01*
X120846086Y-111526632D01*
X121028165Y-111602051D01*
X121221459Y-111640500D01*
X121221460Y-111640500D01*
X121418540Y-111640500D01*
X121418541Y-111640500D01*
X121611835Y-111602051D01*
X121793914Y-111526632D01*
X121957782Y-111417139D01*
X122097139Y-111277782D01*
X122206632Y-111113914D01*
X122282051Y-110931835D01*
X122320500Y-110738541D01*
X122320500Y-110541459D01*
X122282051Y-110348165D01*
X122206632Y-110166086D01*
X122097139Y-110002218D01*
X121957782Y-109862861D01*
X121793914Y-109753368D01*
X121793915Y-109753368D01*
X121793913Y-109753367D01*
X121611835Y-109677949D01*
X121418543Y-109639500D01*
X121418541Y-109639500D01*
X121221459Y-109639500D01*
X121221456Y-109639500D01*
X121028165Y-109677949D01*
X121028163Y-109677949D01*
X120846086Y-109753367D01*
X120682218Y-109862861D01*
X120682214Y-109862864D01*
X120542864Y-110002214D01*
X120542861Y-110002218D01*
X120433367Y-110166086D01*
X120357949Y-110348163D01*
X120357949Y-110348165D01*
X120319500Y-110541456D01*
X118597505Y-110541456D01*
X118579903Y-110475763D01*
X118579901Y-110475760D01*
X118579901Y-110475758D01*
X118523886Y-110378739D01*
X118523885Y-110378737D01*
X118444663Y-110299515D01*
X118444660Y-110299513D01*
X118347640Y-110243498D01*
X118347642Y-110243498D01*
X118305651Y-110232247D01*
X118239418Y-110214500D01*
X118127382Y-110214500D01*
X118061148Y-110232247D01*
X118019158Y-110243498D01*
X117922139Y-110299513D01*
X117842913Y-110378739D01*
X117786898Y-110475758D01*
X117779474Y-110503466D01*
X117757900Y-110583982D01*
X116571333Y-110583982D01*
X118340457Y-108814859D01*
X118358493Y-108771316D01*
X118366962Y-108750871D01*
X118366962Y-108750870D01*
X118382400Y-108713599D01*
X118382400Y-105137359D01*
X118401307Y-105079168D01*
X118450807Y-105043204D01*
X118511993Y-105043204D01*
X118530895Y-105051620D01*
X118570614Y-105074552D01*
X118678833Y-105103549D01*
X118678835Y-105103549D01*
X118725400Y-105103549D01*
X118783591Y-105122456D01*
X118819555Y-105171956D01*
X118824400Y-105202549D01*
X118824400Y-105311218D01*
X118849972Y-105406655D01*
X118853398Y-105419441D01*
X118909413Y-105516460D01*
X118909415Y-105516463D01*
X118988637Y-105595685D01*
X118988639Y-105595686D01*
X119085659Y-105651701D01*
X119085657Y-105651701D01*
X119085661Y-105651702D01*
X119085663Y-105651703D01*
X119193882Y-105680700D01*
X119193884Y-105680700D01*
X119305916Y-105680700D01*
X119305918Y-105680700D01*
X119414137Y-105651703D01*
X119414139Y-105651701D01*
X119414141Y-105651701D01*
X119449989Y-105631004D01*
X119511163Y-105595685D01*
X119590385Y-105516463D01*
X119622143Y-105461456D01*
X120319500Y-105461456D01*
X120319500Y-105658543D01*
X120357949Y-105851834D01*
X120357949Y-105851836D01*
X120433367Y-106033913D01*
X120433368Y-106033914D01*
X120542861Y-106197782D01*
X120682218Y-106337139D01*
X120846086Y-106446632D01*
X121028165Y-106522051D01*
X121221459Y-106560500D01*
X121221460Y-106560500D01*
X121418540Y-106560500D01*
X121418541Y-106560500D01*
X121611835Y-106522051D01*
X121793914Y-106446632D01*
X121957782Y-106337139D01*
X122097139Y-106197782D01*
X122206632Y-106033914D01*
X122282051Y-105851835D01*
X122320500Y-105658541D01*
X122320500Y-105461459D01*
X122282051Y-105268165D01*
X122206632Y-105086086D01*
X122097139Y-104922218D01*
X121957782Y-104782861D01*
X121793914Y-104673368D01*
X121793915Y-104673368D01*
X121793913Y-104673367D01*
X121611835Y-104597949D01*
X121418543Y-104559500D01*
X121418541Y-104559500D01*
X121221459Y-104559500D01*
X121221456Y-104559500D01*
X121028165Y-104597949D01*
X121028163Y-104597949D01*
X120846086Y-104673367D01*
X120682218Y-104782861D01*
X120682214Y-104782864D01*
X120542864Y-104922214D01*
X120542861Y-104922218D01*
X120433367Y-105086086D01*
X120357949Y-105268163D01*
X120357949Y-105268165D01*
X120319500Y-105461456D01*
X119622143Y-105461456D01*
X119646403Y-105419437D01*
X119675400Y-105311218D01*
X119675400Y-105199182D01*
X119646403Y-105090963D01*
X119646401Y-105090960D01*
X119646401Y-105090958D01*
X119600782Y-105011945D01*
X119590385Y-104993937D01*
X119588033Y-104991585D01*
X119579794Y-104983345D01*
X119552018Y-104928828D01*
X119550800Y-104913344D01*
X119550800Y-102921456D01*
X120319500Y-102921456D01*
X120319500Y-103118543D01*
X120357949Y-103311834D01*
X120357949Y-103311836D01*
X120433367Y-103493913D01*
X120461059Y-103535357D01*
X120542861Y-103657782D01*
X120682218Y-103797139D01*
X120846086Y-103906632D01*
X121028165Y-103982051D01*
X121221459Y-104020500D01*
X121221460Y-104020500D01*
X121418540Y-104020500D01*
X121418541Y-104020500D01*
X121611835Y-103982051D01*
X121793914Y-103906632D01*
X121957782Y-103797139D01*
X122097139Y-103657782D01*
X122206632Y-103493914D01*
X122282051Y-103311835D01*
X122320500Y-103118541D01*
X122320500Y-102921459D01*
X122282051Y-102728165D01*
X122206632Y-102546086D01*
X122097139Y-102382218D01*
X121957782Y-102242861D01*
X121793914Y-102133368D01*
X121793915Y-102133368D01*
X121793913Y-102133367D01*
X121611835Y-102057949D01*
X121418543Y-102019500D01*
X121418541Y-102019500D01*
X121221459Y-102019500D01*
X121221456Y-102019500D01*
X121028165Y-102057949D01*
X121028163Y-102057949D01*
X120846086Y-102133367D01*
X120682218Y-102242861D01*
X120682214Y-102242864D01*
X120542864Y-102382214D01*
X120542861Y-102382218D01*
X120433367Y-102546086D01*
X120357949Y-102728163D01*
X120357949Y-102728165D01*
X120319500Y-102921456D01*
X119550800Y-102921456D01*
X119550800Y-102679823D01*
X119569707Y-102621632D01*
X119579796Y-102609819D01*
X120179800Y-102009815D01*
X120782977Y-101406637D01*
X120837492Y-101378862D01*
X120890861Y-101385178D01*
X121028165Y-101442051D01*
X121221459Y-101480500D01*
X121221460Y-101480500D01*
X121418540Y-101480500D01*
X121418541Y-101480500D01*
X121611835Y-101442051D01*
X121793914Y-101366632D01*
X121957782Y-101257139D01*
X122097139Y-101117782D01*
X122206632Y-100953914D01*
X122282051Y-100771835D01*
X122320500Y-100578541D01*
X122320500Y-100381459D01*
X122282051Y-100188165D01*
X122206632Y-100006086D01*
X122097139Y-99842218D01*
X121957782Y-99702861D01*
X121848288Y-99629699D01*
X121793913Y-99593367D01*
X121611835Y-99517949D01*
X121418543Y-99479500D01*
X121418541Y-99479500D01*
X121221459Y-99479500D01*
X121221456Y-99479500D01*
X121028165Y-99517949D01*
X121028163Y-99517949D01*
X120846086Y-99593367D01*
X120682218Y-99702861D01*
X120682214Y-99702864D01*
X120542864Y-99842214D01*
X120542861Y-99842218D01*
X120433367Y-100006086D01*
X120357949Y-100188163D01*
X120357949Y-100188165D01*
X120319500Y-100381456D01*
X120319500Y-100578543D01*
X120357949Y-100771834D01*
X120357949Y-100771836D01*
X120414819Y-100909134D01*
X120419619Y-100970131D01*
X120393359Y-101017022D01*
X119119242Y-102291142D01*
X119041746Y-102368638D01*
X119041744Y-102368640D01*
X119041743Y-102368642D01*
X119017733Y-102426607D01*
X118999800Y-102469900D01*
X118999800Y-104179512D01*
X118980893Y-104237703D01*
X118931393Y-104273667D01*
X118875178Y-104275139D01*
X118822349Y-104260984D01*
X118790869Y-104252549D01*
X118678833Y-104252549D01*
X118624723Y-104267047D01*
X118570612Y-104281546D01*
X118530900Y-104304475D01*
X118471052Y-104317196D01*
X118415156Y-104292309D01*
X118384563Y-104239321D01*
X118382400Y-104218738D01*
X118382400Y-97841456D01*
X120319500Y-97841456D01*
X120319500Y-97841459D01*
X120319500Y-98038541D01*
X120354339Y-98213689D01*
X120357949Y-98231834D01*
X120357949Y-98231836D01*
X120433367Y-98413913D01*
X120433368Y-98413914D01*
X120542861Y-98577782D01*
X120682218Y-98717139D01*
X120846086Y-98826632D01*
X121028165Y-98902051D01*
X121221459Y-98940500D01*
X121221460Y-98940500D01*
X121418540Y-98940500D01*
X121418541Y-98940500D01*
X121611835Y-98902051D01*
X121793914Y-98826632D01*
X121957782Y-98717139D01*
X122097139Y-98577782D01*
X122206632Y-98413914D01*
X122282051Y-98231835D01*
X122320500Y-98038541D01*
X122320500Y-97841459D01*
X122282051Y-97648165D01*
X122206632Y-97466086D01*
X122097139Y-97302218D01*
X121957782Y-97162861D01*
X121826917Y-97075420D01*
X121793913Y-97053367D01*
X121611835Y-96977949D01*
X121418543Y-96939500D01*
X121418541Y-96939500D01*
X121221459Y-96939500D01*
X121221456Y-96939500D01*
X121028165Y-96977949D01*
X121028163Y-96977949D01*
X120846086Y-97053367D01*
X120682218Y-97162861D01*
X120682214Y-97162864D01*
X120542864Y-97302214D01*
X120542861Y-97302218D01*
X120433367Y-97466086D01*
X120357949Y-97648163D01*
X120357949Y-97648165D01*
X120319500Y-97841456D01*
X118382400Y-97841456D01*
X118382400Y-95301456D01*
X120319500Y-95301456D01*
X120319500Y-95498543D01*
X120357949Y-95691834D01*
X120357949Y-95691836D01*
X120433367Y-95873913D01*
X120433368Y-95873914D01*
X120542861Y-96037782D01*
X120682218Y-96177139D01*
X120846086Y-96286632D01*
X121028165Y-96362051D01*
X121221459Y-96400500D01*
X121221460Y-96400500D01*
X121418540Y-96400500D01*
X121418541Y-96400500D01*
X121611835Y-96362051D01*
X121793914Y-96286632D01*
X121957782Y-96177139D01*
X122097139Y-96037782D01*
X122206632Y-95873914D01*
X122282051Y-95691835D01*
X122320500Y-95498541D01*
X122320500Y-95301459D01*
X122282051Y-95108165D01*
X122206632Y-94926086D01*
X122097139Y-94762218D01*
X121957782Y-94622861D01*
X121793914Y-94513368D01*
X121793915Y-94513368D01*
X121793913Y-94513367D01*
X121611835Y-94437949D01*
X121418543Y-94399500D01*
X121418541Y-94399500D01*
X121221459Y-94399500D01*
X121221456Y-94399500D01*
X121028165Y-94437949D01*
X121028163Y-94437949D01*
X120846086Y-94513367D01*
X120682218Y-94622861D01*
X120682214Y-94622864D01*
X120542864Y-94762214D01*
X120542861Y-94762218D01*
X120433367Y-94926086D01*
X120357949Y-95108163D01*
X120357949Y-95108165D01*
X120319500Y-95301456D01*
X118382400Y-95301456D01*
X118382400Y-92761456D01*
X120319500Y-92761456D01*
X120319500Y-92958543D01*
X120357949Y-93151834D01*
X120357949Y-93151836D01*
X120433367Y-93333913D01*
X120433368Y-93333914D01*
X120542861Y-93497782D01*
X120682218Y-93637139D01*
X120846086Y-93746632D01*
X121028165Y-93822051D01*
X121221459Y-93860500D01*
X121221460Y-93860500D01*
X121418540Y-93860500D01*
X121418541Y-93860500D01*
X121611835Y-93822051D01*
X121793914Y-93746632D01*
X121957782Y-93637139D01*
X122097139Y-93497782D01*
X122206632Y-93333914D01*
X122282051Y-93151835D01*
X122320500Y-92958541D01*
X122320500Y-92761459D01*
X122282051Y-92568165D01*
X122206632Y-92386086D01*
X122097139Y-92222218D01*
X121957782Y-92082861D01*
X121829762Y-91997321D01*
X121793913Y-91973367D01*
X121611835Y-91897949D01*
X121418543Y-91859500D01*
X121418541Y-91859500D01*
X121221459Y-91859500D01*
X121221456Y-91859500D01*
X121028165Y-91897949D01*
X121028163Y-91897949D01*
X120846086Y-91973367D01*
X120682218Y-92082861D01*
X120682214Y-92082864D01*
X120542864Y-92222214D01*
X120542861Y-92222218D01*
X120433367Y-92386086D01*
X120357949Y-92568163D01*
X120357949Y-92568165D01*
X120319500Y-92761456D01*
X118382400Y-92761456D01*
X118382400Y-90221456D01*
X120319500Y-90221456D01*
X120319500Y-90418543D01*
X120332796Y-90485383D01*
X120348808Y-90565883D01*
X120357949Y-90611834D01*
X120357949Y-90611836D01*
X120433367Y-90793913D01*
X120443380Y-90808898D01*
X120542861Y-90957782D01*
X120682218Y-91097139D01*
X120846086Y-91206632D01*
X121028165Y-91282051D01*
X121221459Y-91320500D01*
X121221460Y-91320500D01*
X121418540Y-91320500D01*
X121418541Y-91320500D01*
X121611835Y-91282051D01*
X121793914Y-91206632D01*
X121957782Y-91097139D01*
X122097139Y-90957782D01*
X122206632Y-90793914D01*
X122282051Y-90611835D01*
X122320500Y-90418541D01*
X122320500Y-90221459D01*
X122282051Y-90028165D01*
X122206632Y-89846086D01*
X122097139Y-89682218D01*
X121957782Y-89542861D01*
X121793914Y-89433368D01*
X121793915Y-89433368D01*
X121793913Y-89433367D01*
X121611835Y-89357949D01*
X121418543Y-89319500D01*
X121418541Y-89319500D01*
X121221459Y-89319500D01*
X121221456Y-89319500D01*
X121028165Y-89357949D01*
X121028163Y-89357949D01*
X120846086Y-89433367D01*
X120682218Y-89542861D01*
X120682214Y-89542864D01*
X120542864Y-89682214D01*
X120542861Y-89682218D01*
X120433367Y-89846086D01*
X120357949Y-90028163D01*
X120357949Y-90028165D01*
X120319500Y-90221456D01*
X118382400Y-90221456D01*
X118382400Y-87681456D01*
X120319500Y-87681456D01*
X120319500Y-87878543D01*
X120357949Y-88071834D01*
X120357949Y-88071836D01*
X120433367Y-88253913D01*
X120433368Y-88253914D01*
X120542861Y-88417782D01*
X120682218Y-88557139D01*
X120846086Y-88666632D01*
X121028165Y-88742051D01*
X121221459Y-88780500D01*
X121221460Y-88780500D01*
X121418540Y-88780500D01*
X121418541Y-88780500D01*
X121611835Y-88742051D01*
X121793914Y-88666632D01*
X121957782Y-88557139D01*
X122097139Y-88417782D01*
X122206632Y-88253914D01*
X122282051Y-88071835D01*
X122320500Y-87878541D01*
X122320500Y-87681459D01*
X122282051Y-87488165D01*
X122206632Y-87306086D01*
X122097139Y-87142218D01*
X121957782Y-87002861D01*
X121793914Y-86893368D01*
X121793915Y-86893368D01*
X121793913Y-86893367D01*
X121611835Y-86817949D01*
X121418543Y-86779500D01*
X121418541Y-86779500D01*
X121221459Y-86779500D01*
X121221456Y-86779500D01*
X121028165Y-86817949D01*
X121028163Y-86817949D01*
X120846086Y-86893367D01*
X120682218Y-87002861D01*
X120682214Y-87002864D01*
X120542864Y-87142214D01*
X120542861Y-87142218D01*
X120433367Y-87306086D01*
X120357949Y-87488163D01*
X120357949Y-87488165D01*
X120319500Y-87681456D01*
X118382400Y-87681456D01*
X118382400Y-85896400D01*
X118374688Y-85877782D01*
X118340457Y-85795142D01*
X118317178Y-85771863D01*
X118262958Y-85717642D01*
X118262958Y-85717643D01*
X117686771Y-85141456D01*
X120319500Y-85141456D01*
X120319500Y-85338543D01*
X120357949Y-85531834D01*
X120357949Y-85531836D01*
X120433367Y-85713913D01*
X120449627Y-85738247D01*
X120542861Y-85877782D01*
X120682218Y-86017139D01*
X120846086Y-86126632D01*
X121028165Y-86202051D01*
X121221459Y-86240500D01*
X121221460Y-86240500D01*
X121418540Y-86240500D01*
X121418541Y-86240500D01*
X121611835Y-86202051D01*
X121793914Y-86126632D01*
X121957782Y-86017139D01*
X122097139Y-85877782D01*
X122206632Y-85713914D01*
X122282051Y-85531835D01*
X122320500Y-85338541D01*
X122320500Y-85141459D01*
X122282051Y-84948165D01*
X122206632Y-84766086D01*
X122097139Y-84602218D01*
X121957782Y-84462861D01*
X121793914Y-84353368D01*
X121793915Y-84353368D01*
X121793913Y-84353367D01*
X121611835Y-84277949D01*
X121418543Y-84239500D01*
X121418541Y-84239500D01*
X121221459Y-84239500D01*
X121221456Y-84239500D01*
X121028165Y-84277949D01*
X121028163Y-84277949D01*
X120846086Y-84353367D01*
X120682218Y-84462861D01*
X120682214Y-84462864D01*
X120542864Y-84602214D01*
X120542861Y-84602218D01*
X120433367Y-84766086D01*
X120357949Y-84948163D01*
X120357949Y-84948165D01*
X120319500Y-85141456D01*
X117686771Y-85141456D01*
X116382295Y-83836980D01*
X116354518Y-83782463D01*
X116353299Y-83766976D01*
X116353299Y-82019853D01*
X116353297Y-82019841D01*
X116350510Y-82005831D01*
X116341666Y-81961369D01*
X116297351Y-81895048D01*
X116297347Y-81895045D01*
X116231032Y-81850734D01*
X116231030Y-81850733D01*
X116231027Y-81850732D01*
X116231026Y-81850732D01*
X116172557Y-81839101D01*
X116172547Y-81839100D01*
X115777451Y-81839100D01*
X115777450Y-81839100D01*
X115777440Y-81839101D01*
X115718971Y-81850732D01*
X115718963Y-81850735D01*
X115704550Y-81860366D01*
X115645662Y-81876974D01*
X115594549Y-81860365D01*
X115580840Y-81851204D01*
X115580837Y-81851203D01*
X115522501Y-81839600D01*
X115502802Y-81839600D01*
X115502801Y-81839601D01*
X115502801Y-84017599D01*
X115502802Y-84017600D01*
X115522498Y-84017600D01*
X115522501Y-84017599D01*
X115580835Y-84005996D01*
X115594546Y-83996835D01*
X115653434Y-83980225D01*
X115683410Y-83986119D01*
X115694623Y-83990200D01*
X115718968Y-84006467D01*
X115763836Y-84015391D01*
X115770947Y-84017980D01*
X115785967Y-84029715D01*
X115807091Y-84041006D01*
X117802404Y-86036319D01*
X117830181Y-86090836D01*
X117831400Y-86106323D01*
X117831400Y-90965066D01*
X117812493Y-91023257D01*
X117762993Y-91059221D01*
X117706774Y-91060691D01*
X117698176Y-91058388D01*
X117681074Y-91053805D01*
X117629761Y-91020480D01*
X117607836Y-90963358D01*
X117607700Y-90958179D01*
X117607700Y-86620300D01*
X117571981Y-86534068D01*
X117571981Y-86534067D01*
X117565757Y-86519042D01*
X117565757Y-86519041D01*
X115175760Y-84129045D01*
X115147984Y-84074529D01*
X115150506Y-84058607D01*
X115147201Y-84058607D01*
X115147201Y-81839601D01*
X115147200Y-81839600D01*
X115127500Y-81839600D01*
X115069164Y-81851203D01*
X115069163Y-81851204D01*
X115055448Y-81860368D01*
X114996559Y-81876975D01*
X114945448Y-81860367D01*
X114944998Y-81860066D01*
X114931030Y-81850733D01*
X114931027Y-81850732D01*
X114931026Y-81850732D01*
X114872557Y-81839101D01*
X114872547Y-81839100D01*
X114477451Y-81839100D01*
X114477450Y-81839100D01*
X114477440Y-81839101D01*
X114418971Y-81850732D01*
X114418966Y-81850734D01*
X114405000Y-81860066D01*
X114346111Y-81876673D01*
X114295000Y-81860066D01*
X114288710Y-81855863D01*
X114281032Y-81850733D01*
X114281029Y-81850732D01*
X114281028Y-81850732D01*
X114222559Y-81839101D01*
X114222549Y-81839100D01*
X113827453Y-81839100D01*
X113827452Y-81839100D01*
X113827442Y-81839101D01*
X113768973Y-81850732D01*
X113768965Y-81850735D01*
X113754552Y-81860366D01*
X113695664Y-81876974D01*
X113644552Y-81860367D01*
X113630836Y-81851203D01*
X113630838Y-81851203D01*
X113572502Y-81839600D01*
X113552803Y-81839600D01*
X113552802Y-81839601D01*
X113552802Y-84017599D01*
X113552803Y-84017600D01*
X113572499Y-84017600D01*
X113572499Y-84017599D01*
X113631185Y-84005926D01*
X113691946Y-84013117D01*
X113736877Y-84054649D01*
X113749500Y-84103024D01*
X113749500Y-84785276D01*
X113730593Y-84843467D01*
X113720504Y-84855280D01*
X113117181Y-85458604D01*
X113062664Y-85486381D01*
X113047177Y-85487600D01*
X112983582Y-85487600D01*
X112917348Y-85505347D01*
X112875358Y-85516598D01*
X112778339Y-85572613D01*
X112699113Y-85651839D01*
X112643098Y-85748858D01*
X112641640Y-85754300D01*
X112614100Y-85857082D01*
X111732632Y-85857082D01*
X112958557Y-84631158D01*
X113000500Y-84529900D01*
X113000500Y-84103024D01*
X113019407Y-84044833D01*
X113068907Y-84008869D01*
X113118814Y-84005926D01*
X113177501Y-84017599D01*
X113177505Y-84017600D01*
X113197201Y-84017600D01*
X113197202Y-84017599D01*
X113197202Y-81839601D01*
X113197201Y-81839600D01*
X113177501Y-81839600D01*
X113119165Y-81851203D01*
X113119164Y-81851204D01*
X113105449Y-81860368D01*
X113046560Y-81876975D01*
X112995447Y-81860365D01*
X112981035Y-81850735D01*
X112981034Y-81850734D01*
X112981032Y-81850733D01*
X112981028Y-81850732D01*
X112922559Y-81839101D01*
X112922549Y-81839100D01*
X112527453Y-81839100D01*
X112527452Y-81839100D01*
X112527442Y-81839101D01*
X112468973Y-81850732D01*
X112468965Y-81850735D01*
X112454552Y-81860366D01*
X112395664Y-81876974D01*
X112344552Y-81860367D01*
X112330836Y-81851203D01*
X112330838Y-81851203D01*
X112272502Y-81839600D01*
X112252803Y-81839600D01*
X112252802Y-81839601D01*
X112252802Y-84017599D01*
X112252803Y-84017600D01*
X112272499Y-84017600D01*
X112272499Y-84017599D01*
X112331185Y-84005926D01*
X112391946Y-84013117D01*
X112436877Y-84054649D01*
X112449500Y-84103024D01*
X112449500Y-84319977D01*
X112430593Y-84378168D01*
X112420504Y-84389981D01*
X110343042Y-86467443D01*
X110343041Y-86467442D01*
X110265546Y-86544938D01*
X110265544Y-86544940D01*
X110265543Y-86544942D01*
X110265543Y-86544943D01*
X110223600Y-86646200D01*
X110223600Y-93465944D01*
X110204693Y-93524135D01*
X110194604Y-93535947D01*
X110158614Y-93571937D01*
X110102598Y-93668958D01*
X110102597Y-93668963D01*
X110073600Y-93777182D01*
X109606700Y-93777182D01*
X109606700Y-85909100D01*
X109568609Y-85817141D01*
X109564757Y-85807842D01*
X109564757Y-85807841D01*
X107407023Y-83650108D01*
X108373500Y-83650108D01*
X108373500Y-83781892D01*
X108388362Y-83837358D01*
X108407609Y-83909190D01*
X108473496Y-84023309D01*
X108473498Y-84023311D01*
X108473500Y-84023314D01*
X108566686Y-84116500D01*
X108566688Y-84116501D01*
X108566690Y-84116503D01*
X108680810Y-84182390D01*
X108680808Y-84182390D01*
X108680812Y-84182391D01*
X108680814Y-84182392D01*
X108808108Y-84216500D01*
X108808110Y-84216500D01*
X108939890Y-84216500D01*
X108939892Y-84216500D01*
X109067186Y-84182392D01*
X109067188Y-84182390D01*
X109067190Y-84182390D01*
X109181309Y-84116503D01*
X109181309Y-84116502D01*
X109181314Y-84116500D01*
X109237064Y-84060749D01*
X109291578Y-84032973D01*
X109352010Y-84042544D01*
X109395275Y-84085808D01*
X109402690Y-84105124D01*
X109410073Y-84132676D01*
X109417298Y-84159641D01*
X109473313Y-84256660D01*
X109473315Y-84256663D01*
X109552537Y-84335885D01*
X109552539Y-84335886D01*
X109649559Y-84391901D01*
X109649557Y-84391901D01*
X109649561Y-84391902D01*
X109649563Y-84391903D01*
X109757782Y-84420900D01*
X109757784Y-84420900D01*
X109869816Y-84420900D01*
X109869818Y-84420900D01*
X109978037Y-84391903D01*
X109978039Y-84391901D01*
X109978041Y-84391901D01*
X110013057Y-84371684D01*
X110075063Y-84335885D01*
X110154285Y-84256663D01*
X110210303Y-84159637D01*
X110239300Y-84051418D01*
X110239300Y-83939382D01*
X110210303Y-83831163D01*
X110210301Y-83831160D01*
X110210301Y-83831158D01*
X110154286Y-83734139D01*
X110154285Y-83734137D01*
X110138107Y-83717959D01*
X110110332Y-83663445D01*
X110119903Y-83603013D01*
X110149323Y-83568304D01*
X110186711Y-83540711D01*
X110265116Y-83434475D01*
X110278437Y-83396407D01*
X110279174Y-83394302D01*
X110316240Y-83345621D01*
X110372618Y-83328000D01*
X110947701Y-83328000D01*
X111005892Y-83346907D01*
X111041856Y-83396407D01*
X111046701Y-83427000D01*
X111046701Y-83837346D01*
X111046702Y-83837358D01*
X111058333Y-83895827D01*
X111058335Y-83895833D01*
X111102646Y-83962148D01*
X111102649Y-83962152D01*
X111168970Y-84006467D01*
X111213432Y-84015311D01*
X111227442Y-84018098D01*
X111227447Y-84018098D01*
X111227453Y-84018100D01*
X111227454Y-84018100D01*
X111622548Y-84018100D01*
X111622549Y-84018100D01*
X111681032Y-84006467D01*
X111695449Y-83996833D01*
X111754335Y-83980224D01*
X111805454Y-83996834D01*
X111819165Y-84005995D01*
X111819165Y-84005996D01*
X111877501Y-84017599D01*
X111877505Y-84017600D01*
X111897201Y-84017600D01*
X111897202Y-84017599D01*
X111897202Y-81839601D01*
X111897201Y-81839600D01*
X111877501Y-81839600D01*
X111819165Y-81851203D01*
X111819164Y-81851204D01*
X111805449Y-81860368D01*
X111746560Y-81876975D01*
X111695447Y-81860365D01*
X111681035Y-81850735D01*
X111681034Y-81850734D01*
X111681032Y-81850733D01*
X111681028Y-81850732D01*
X111622559Y-81839101D01*
X111622549Y-81839100D01*
X111227453Y-81839100D01*
X111227452Y-81839100D01*
X111227442Y-81839101D01*
X111168973Y-81850732D01*
X111168967Y-81850734D01*
X111102652Y-81895045D01*
X111102646Y-81895051D01*
X111058335Y-81961366D01*
X111058333Y-81961372D01*
X111046702Y-82019841D01*
X111046701Y-82019853D01*
X111046701Y-82428000D01*
X111027794Y-82486191D01*
X110978294Y-82522155D01*
X110947701Y-82527000D01*
X110372618Y-82527000D01*
X110314427Y-82508093D01*
X110279174Y-82460698D01*
X110265117Y-82420527D01*
X110265114Y-82420521D01*
X110186714Y-82314293D01*
X110186713Y-82314292D01*
X110186711Y-82314289D01*
X110169170Y-82301343D01*
X110080476Y-82235884D01*
X109955852Y-82192276D01*
X109955851Y-82192275D01*
X109955849Y-82192275D01*
X109955847Y-82192274D01*
X109955844Y-82192274D01*
X109926266Y-82189500D01*
X109926256Y-82189500D01*
X109345744Y-82189500D01*
X109345733Y-82189500D01*
X109316155Y-82192274D01*
X109316147Y-82192276D01*
X109191523Y-82235884D01*
X109085293Y-82314285D01*
X109085285Y-82314293D01*
X109006884Y-82420523D01*
X108963276Y-82545147D01*
X108963274Y-82545155D01*
X108960500Y-82574733D01*
X108960500Y-83022099D01*
X108958031Y-83029696D01*
X108959281Y-83037586D01*
X108948757Y-83058239D01*
X108941593Y-83080290D01*
X108931503Y-83092103D01*
X108826862Y-83196743D01*
X108782483Y-83222365D01*
X108680814Y-83249608D01*
X108680812Y-83249608D01*
X108680808Y-83249610D01*
X108566690Y-83315496D01*
X108473496Y-83408690D01*
X108407609Y-83522809D01*
X108395420Y-83568302D01*
X108373500Y-83650108D01*
X107407023Y-83650108D01*
X107002919Y-83246004D01*
X106975143Y-83191488D01*
X106981460Y-83138116D01*
X107023100Y-83037586D01*
X107042051Y-82991835D01*
X107080500Y-82798541D01*
X107080500Y-82601459D01*
X107042051Y-82408165D01*
X106966632Y-82226086D01*
X106857139Y-82062218D01*
X106717782Y-81922861D01*
X106701228Y-81911800D01*
X106663350Y-81863751D01*
X106660948Y-81802613D01*
X106694941Y-81751739D01*
X106736916Y-81732388D01*
X106744391Y-81730900D01*
X106744400Y-81730900D01*
X106845658Y-81688957D01*
X106923157Y-81611458D01*
X107132114Y-81402501D01*
X108961000Y-81402501D01*
X108961000Y-81555201D01*
X108963771Y-81584758D01*
X108963772Y-81584759D01*
X109007330Y-81709240D01*
X109085641Y-81815348D01*
X109085651Y-81815358D01*
X109191759Y-81893669D01*
X109316240Y-81937227D01*
X109316241Y-81937228D01*
X109345799Y-81940000D01*
X109435999Y-81940000D01*
X109436000Y-81939999D01*
X109436000Y-81402501D01*
X109836000Y-81402501D01*
X109836000Y-81939999D01*
X109836001Y-81940000D01*
X109926201Y-81940000D01*
X109955758Y-81937228D01*
X109955759Y-81937227D01*
X110080240Y-81893669D01*
X110186348Y-81815358D01*
X110186358Y-81815348D01*
X110264669Y-81709240D01*
X110308227Y-81584759D01*
X110308228Y-81584758D01*
X110311000Y-81555201D01*
X110311000Y-81402501D01*
X110310999Y-81402500D01*
X109836001Y-81402500D01*
X109836000Y-81402501D01*
X109436000Y-81402501D01*
X109435999Y-81402500D01*
X108961001Y-81402500D01*
X108961000Y-81402501D01*
X107132114Y-81402501D01*
X107243126Y-81291489D01*
X108070120Y-80464496D01*
X108124637Y-80436719D01*
X108140124Y-80435500D01*
X109003303Y-80435500D01*
X109061494Y-80454407D01*
X109097458Y-80503907D01*
X109097458Y-80565093D01*
X109082958Y-80593288D01*
X109007330Y-80695759D01*
X108963772Y-80820240D01*
X108963771Y-80820241D01*
X108961000Y-80849798D01*
X108961000Y-81002499D01*
X108961001Y-81002500D01*
X110310999Y-81002500D01*
X110311000Y-81002499D01*
X110311000Y-80849798D01*
X110308228Y-80820241D01*
X110308227Y-80820240D01*
X110264669Y-80695759D01*
X110189042Y-80593288D01*
X110169700Y-80535241D01*
X110188171Y-80476910D01*
X110237401Y-80440577D01*
X110268697Y-80435500D01*
X111021344Y-80435500D01*
X111079535Y-80454407D01*
X111091347Y-80464496D01*
X111127337Y-80500485D01*
X111224359Y-80556501D01*
X111224357Y-80556501D01*
X111224361Y-80556502D01*
X111224363Y-80556503D01*
X111332582Y-80585500D01*
X111332584Y-80585500D01*
X111444616Y-80585500D01*
X111444618Y-80585500D01*
X111552837Y-80556503D01*
X111552839Y-80556501D01*
X111552841Y-80556501D01*
X111611439Y-80522669D01*
X111649863Y-80500485D01*
X111729085Y-80421263D01*
X111785103Y-80324237D01*
X111814100Y-80216018D01*
X111814100Y-80103982D01*
X111785103Y-79995763D01*
X111785101Y-79995760D01*
X111785101Y-79995758D01*
X111729086Y-79898739D01*
X111729085Y-79898737D01*
X111649863Y-79819515D01*
X111649860Y-79819513D01*
X111552840Y-79763498D01*
X111552842Y-79763498D01*
X111510851Y-79752247D01*
X111444618Y-79734500D01*
X111332582Y-79734500D01*
X111266348Y-79752247D01*
X111224358Y-79763498D01*
X111127337Y-79819514D01*
X111091347Y-79855504D01*
X111036830Y-79883281D01*
X111021344Y-79884500D01*
X107930199Y-79884500D01*
X107858599Y-79914157D01*
X107858599Y-79914158D01*
X107828941Y-79926443D01*
X107207656Y-80547728D01*
X107153139Y-80575505D01*
X107092707Y-80565934D01*
X107049442Y-80522669D01*
X107039871Y-80462237D01*
X107041162Y-80456617D01*
X107041102Y-80456605D01*
X107067432Y-80324237D01*
X107080500Y-80258541D01*
X107080500Y-80061459D01*
X107042051Y-79868165D01*
X106966632Y-79686086D01*
X106857139Y-79522218D01*
X106717782Y-79382861D01*
X106701847Y-79372213D01*
X106663969Y-79324166D01*
X106661567Y-79263028D01*
X106695559Y-79212154D01*
X106752963Y-79190976D01*
X106756850Y-79190900D01*
X107392099Y-79190900D01*
X107392100Y-79190900D01*
X107493358Y-79148957D01*
X107570857Y-79071458D01*
X107570856Y-79071458D01*
X108717820Y-77924496D01*
X108772337Y-77896719D01*
X108787824Y-77895500D01*
X115631444Y-77895500D01*
X115689635Y-77914407D01*
X115701447Y-77924496D01*
X115737437Y-77960485D01*
X115834459Y-78016501D01*
X115834457Y-78016501D01*
X115834461Y-78016502D01*
X115834463Y-78016503D01*
X115942682Y-78045500D01*
X115942684Y-78045500D01*
X116054716Y-78045500D01*
X116054718Y-78045500D01*
X116162937Y-78016503D01*
X116162939Y-78016501D01*
X116162941Y-78016501D01*
X116191764Y-77999859D01*
X116259963Y-77960485D01*
X116339185Y-77881263D01*
X116395203Y-77784237D01*
X116424200Y-77676018D01*
X116424200Y-77563982D01*
X116412805Y-77521456D01*
X120319500Y-77521456D01*
X120319500Y-77718543D01*
X120357949Y-77911834D01*
X120357949Y-77911836D01*
X120433367Y-78093913D01*
X120433368Y-78093914D01*
X120542861Y-78257782D01*
X120682218Y-78397139D01*
X120846086Y-78506632D01*
X121028165Y-78582051D01*
X121221459Y-78620500D01*
X121221460Y-78620500D01*
X121418540Y-78620500D01*
X121418541Y-78620500D01*
X121611835Y-78582051D01*
X121793914Y-78506632D01*
X121957782Y-78397139D01*
X122097139Y-78257782D01*
X122206632Y-78093914D01*
X122282051Y-77911835D01*
X122320500Y-77718541D01*
X122320500Y-77521459D01*
X122282051Y-77328165D01*
X122206632Y-77146086D01*
X122097139Y-76982218D01*
X121957782Y-76842861D01*
X121793914Y-76733368D01*
X121793915Y-76733368D01*
X121793913Y-76733367D01*
X121611835Y-76657949D01*
X121418543Y-76619500D01*
X121418541Y-76619500D01*
X121221459Y-76619500D01*
X121221456Y-76619500D01*
X121028165Y-76657949D01*
X121028163Y-76657949D01*
X120846086Y-76733367D01*
X120682218Y-76842861D01*
X120682214Y-76842864D01*
X120542864Y-76982214D01*
X120542861Y-76982218D01*
X120433367Y-77146086D01*
X120357949Y-77328163D01*
X120357949Y-77328165D01*
X120319500Y-77521456D01*
X116412805Y-77521456D01*
X116395203Y-77455763D01*
X116395201Y-77455760D01*
X116395201Y-77455758D01*
X116339186Y-77358739D01*
X116339185Y-77358737D01*
X116259963Y-77279515D01*
X116259960Y-77279513D01*
X116162940Y-77223498D01*
X116162942Y-77223498D01*
X116120951Y-77212247D01*
X116054718Y-77194500D01*
X115942682Y-77194500D01*
X115876448Y-77212247D01*
X115834458Y-77223498D01*
X115737437Y-77279514D01*
X115701447Y-77315504D01*
X115646930Y-77343281D01*
X115631444Y-77344500D01*
X108577899Y-77344500D01*
X108506299Y-77374157D01*
X108506299Y-77374158D01*
X108476641Y-77386443D01*
X107252181Y-78610904D01*
X107197664Y-78638681D01*
X107182177Y-78639900D01*
X106680823Y-78639900D01*
X106622632Y-78620993D01*
X106586668Y-78571493D01*
X106586668Y-78510307D01*
X106622632Y-78460807D01*
X106625821Y-78458585D01*
X106717782Y-78397139D01*
X106857139Y-78257782D01*
X106966632Y-78093914D01*
X107042051Y-77911835D01*
X107080500Y-77718541D01*
X107080500Y-77521459D01*
X107042051Y-77328165D01*
X106966632Y-77146086D01*
X106857139Y-76982218D01*
X106717782Y-76842861D01*
X106553914Y-76733368D01*
X106553915Y-76733368D01*
X106553913Y-76733367D01*
X106371835Y-76657949D01*
X106178543Y-76619500D01*
X106178541Y-76619500D01*
X105981459Y-76619500D01*
X105981456Y-76619500D01*
X105788165Y-76657949D01*
X105788163Y-76657949D01*
X105606086Y-76733367D01*
X105442218Y-76842861D01*
X105442214Y-76842864D01*
X105302864Y-76982214D01*
X105302861Y-76982218D01*
X105193367Y-77146086D01*
X105117949Y-77328163D01*
X105117949Y-77328165D01*
X105079500Y-77521456D01*
X105079500Y-77718543D01*
X105117949Y-77911834D01*
X105117949Y-77911836D01*
X105193367Y-78093913D01*
X105193368Y-78093914D01*
X105302861Y-78257782D01*
X105442218Y-78397139D01*
X105580074Y-78489251D01*
X105617953Y-78537300D01*
X105620355Y-78598439D01*
X105586362Y-78649312D01*
X105562960Y-78663029D01*
X105517544Y-78681842D01*
X105517542Y-78681843D01*
X101898042Y-82301343D01*
X101898041Y-82301342D01*
X101820546Y-82378838D01*
X101820544Y-82378840D01*
X101820543Y-82378842D01*
X101800181Y-82428000D01*
X101778600Y-82480100D01*
X101778600Y-87639459D01*
X101776697Y-87658776D01*
X101774800Y-87668311D01*
X101100500Y-87668311D01*
X101100500Y-74260253D01*
X105079500Y-74260253D01*
X105079500Y-75899746D01*
X105079501Y-75899758D01*
X105089435Y-75949697D01*
X105091133Y-75958231D01*
X105135448Y-76024552D01*
X105201769Y-76068867D01*
X105246231Y-76077711D01*
X105260241Y-76080498D01*
X105260246Y-76080498D01*
X105260252Y-76080500D01*
X105260253Y-76080500D01*
X106899747Y-76080500D01*
X106899748Y-76080500D01*
X106958231Y-76068867D01*
X107024552Y-76024552D01*
X107068867Y-75958231D01*
X107080500Y-75899748D01*
X107080500Y-74260252D01*
X107080499Y-74260250D01*
X107080499Y-74260244D01*
X107073439Y-74224755D01*
X107070564Y-74210299D01*
X108886200Y-74210299D01*
X108886200Y-74879999D01*
X108886201Y-74880000D01*
X109474320Y-74880000D01*
X109470275Y-74887007D01*
X109436200Y-75014174D01*
X109436200Y-75145826D01*
X109470275Y-75272993D01*
X109474320Y-75280000D01*
X108886201Y-75280000D01*
X108886200Y-75280001D01*
X108886200Y-75949700D01*
X108897803Y-76008036D01*
X108942006Y-76074189D01*
X108942010Y-76074193D01*
X109008163Y-76118396D01*
X109066499Y-76129999D01*
X109066503Y-76130000D01*
X109736199Y-76130000D01*
X109736200Y-76129999D01*
X109736200Y-75541879D01*
X109743207Y-75545925D01*
X109870374Y-75580000D01*
X110002026Y-75580000D01*
X110129193Y-75545925D01*
X110136200Y-75541879D01*
X110136200Y-76129999D01*
X110136201Y-76130000D01*
X110805897Y-76130000D01*
X110805900Y-76129999D01*
X110864236Y-76118396D01*
X110930389Y-76074193D01*
X110930393Y-76074189D01*
X110974596Y-76008036D01*
X110986199Y-75949700D01*
X110986200Y-75949697D01*
X110986200Y-75280001D01*
X110986199Y-75280000D01*
X110398080Y-75280000D01*
X110402125Y-75272993D01*
X110436200Y-75145826D01*
X110436200Y-75014174D01*
X110402125Y-74887007D01*
X110398080Y-74880000D01*
X110986199Y-74880000D01*
X110986200Y-74879999D01*
X110986200Y-74210302D01*
X110986199Y-74210299D01*
X116439200Y-74210299D01*
X116439200Y-74879999D01*
X116439201Y-74880000D01*
X117027320Y-74880000D01*
X117023275Y-74887007D01*
X116989200Y-75014174D01*
X116989200Y-75145826D01*
X117023275Y-75272993D01*
X117027320Y-75280000D01*
X116439201Y-75280000D01*
X116439200Y-75280001D01*
X116439200Y-75949700D01*
X116450803Y-76008036D01*
X116495006Y-76074189D01*
X116495010Y-76074193D01*
X116561163Y-76118396D01*
X116619499Y-76129999D01*
X116619503Y-76130000D01*
X117289199Y-76130000D01*
X117289200Y-76129999D01*
X117289200Y-75541879D01*
X117296207Y-75545925D01*
X117423374Y-75580000D01*
X117555026Y-75580000D01*
X117682193Y-75545925D01*
X117689200Y-75541879D01*
X117689200Y-76129999D01*
X117689201Y-76130000D01*
X118358897Y-76130000D01*
X118358900Y-76129999D01*
X118417236Y-76118396D01*
X118483389Y-76074193D01*
X118483393Y-76074189D01*
X118527596Y-76008036D01*
X118539199Y-75949700D01*
X118539200Y-75949697D01*
X118539200Y-75280001D01*
X118539199Y-75280000D01*
X117951080Y-75280000D01*
X117955125Y-75272993D01*
X117989200Y-75145826D01*
X117989200Y-75014174D01*
X117980433Y-74981456D01*
X120319500Y-74981456D01*
X120319500Y-75178543D01*
X120357949Y-75371834D01*
X120357949Y-75371836D01*
X120433367Y-75553913D01*
X120433368Y-75553914D01*
X120542861Y-75717782D01*
X120682218Y-75857139D01*
X120846086Y-75966632D01*
X121028165Y-76042051D01*
X121221459Y-76080500D01*
X121221460Y-76080500D01*
X121418540Y-76080500D01*
X121418541Y-76080500D01*
X121611835Y-76042051D01*
X121793914Y-75966632D01*
X121957782Y-75857139D01*
X122097139Y-75717782D01*
X122159469Y-75624497D01*
X122207519Y-75586619D01*
X122241784Y-75580500D01*
X123303128Y-75580500D01*
X123361319Y-75599407D01*
X123382779Y-75620707D01*
X123436289Y-75693211D01*
X123436292Y-75693213D01*
X123436293Y-75693214D01*
X123542523Y-75771615D01*
X123542524Y-75771615D01*
X123542525Y-75771616D01*
X123667151Y-75815225D01*
X123694441Y-75817784D01*
X123696733Y-75817999D01*
X123696738Y-75818000D01*
X123696744Y-75818000D01*
X124277262Y-75818000D01*
X124277265Y-75817999D01*
X124306849Y-75815225D01*
X124431475Y-75771616D01*
X124537711Y-75693211D01*
X124616116Y-75586975D01*
X124659725Y-75462349D01*
X124662500Y-75432756D01*
X124662500Y-74727244D01*
X124662500Y-74727238D01*
X124662499Y-74727233D01*
X124659725Y-74697655D01*
X124659725Y-74697651D01*
X124616116Y-74573025D01*
X124591217Y-74539288D01*
X124537714Y-74466793D01*
X124537713Y-74466792D01*
X124537711Y-74466789D01*
X124537706Y-74466785D01*
X124431476Y-74388384D01*
X124306852Y-74344776D01*
X124306851Y-74344775D01*
X124306849Y-74344775D01*
X124306847Y-74344774D01*
X124306844Y-74344774D01*
X124277266Y-74342000D01*
X124277256Y-74342000D01*
X123696744Y-74342000D01*
X123696733Y-74342000D01*
X123667155Y-74344774D01*
X123667147Y-74344776D01*
X123542523Y-74388384D01*
X123436293Y-74466785D01*
X123436289Y-74466789D01*
X123382781Y-74539289D01*
X123333016Y-74574881D01*
X123303128Y-74579500D01*
X122241784Y-74579500D01*
X122183593Y-74560593D01*
X122159469Y-74535502D01*
X122097139Y-74442218D01*
X121957782Y-74302861D01*
X121819253Y-74210299D01*
X121793913Y-74193367D01*
X121611835Y-74117949D01*
X121418543Y-74079500D01*
X121418541Y-74079500D01*
X121221459Y-74079500D01*
X121221456Y-74079500D01*
X121028165Y-74117949D01*
X121028163Y-74117949D01*
X120846086Y-74193367D01*
X120682218Y-74302861D01*
X120682214Y-74302864D01*
X120542864Y-74442214D01*
X120542861Y-74442218D01*
X120433367Y-74606086D01*
X120357949Y-74788163D01*
X120357949Y-74788165D01*
X120319500Y-74981456D01*
X117980433Y-74981456D01*
X117955125Y-74887007D01*
X117951080Y-74880000D01*
X118539199Y-74880000D01*
X118539200Y-74879999D01*
X118539200Y-74210302D01*
X118539199Y-74210299D01*
X118527596Y-74151963D01*
X118483393Y-74085810D01*
X118483389Y-74085806D01*
X118417236Y-74041603D01*
X118358900Y-74030000D01*
X117689201Y-74030000D01*
X117689200Y-74030001D01*
X117689200Y-74618120D01*
X117682193Y-74614075D01*
X117555026Y-74580000D01*
X117423374Y-74580000D01*
X117296207Y-74614075D01*
X117289200Y-74618120D01*
X117289200Y-74030001D01*
X117289199Y-74030000D01*
X116619499Y-74030000D01*
X116561163Y-74041603D01*
X116495010Y-74085806D01*
X116495006Y-74085810D01*
X116450803Y-74151963D01*
X116439200Y-74210299D01*
X110986199Y-74210299D01*
X110974596Y-74151963D01*
X110930393Y-74085810D01*
X110930389Y-74085806D01*
X110864236Y-74041603D01*
X110805900Y-74030000D01*
X110136201Y-74030000D01*
X110136200Y-74030001D01*
X110136200Y-74618120D01*
X110129193Y-74614075D01*
X110002026Y-74580000D01*
X109870374Y-74580000D01*
X109743207Y-74614075D01*
X109736200Y-74618120D01*
X109736200Y-74030001D01*
X109736199Y-74030000D01*
X109066499Y-74030000D01*
X109008163Y-74041603D01*
X108942010Y-74085806D01*
X108942006Y-74085810D01*
X108897803Y-74151963D01*
X108886200Y-74210299D01*
X107070564Y-74210299D01*
X107068867Y-74201769D01*
X107024552Y-74135448D01*
X107024548Y-74135445D01*
X106958233Y-74091134D01*
X106958231Y-74091133D01*
X106958228Y-74091132D01*
X106958227Y-74091132D01*
X106899758Y-74079501D01*
X106899748Y-74079500D01*
X105260252Y-74079500D01*
X105260251Y-74079500D01*
X105260241Y-74079501D01*
X105201772Y-74091132D01*
X105201766Y-74091134D01*
X105135451Y-74135445D01*
X105135445Y-74135451D01*
X105091134Y-74201766D01*
X105091132Y-74201772D01*
X105079501Y-74260241D01*
X105079500Y-74260253D01*
X101100500Y-74260253D01*
X101100500Y-73555001D01*
X123312000Y-73555001D01*
X123312000Y-73707701D01*
X123314771Y-73737258D01*
X123314772Y-73737259D01*
X123358330Y-73861740D01*
X123436641Y-73967848D01*
X123436651Y-73967858D01*
X123542759Y-74046169D01*
X123667240Y-74089727D01*
X123667241Y-74089728D01*
X123696799Y-74092500D01*
X123786999Y-74092500D01*
X123787000Y-74092499D01*
X123787000Y-73555001D01*
X124187000Y-73555001D01*
X124187000Y-74092499D01*
X124187001Y-74092500D01*
X124277201Y-74092500D01*
X124306758Y-74089728D01*
X124306759Y-74089727D01*
X124431240Y-74046169D01*
X124537348Y-73967858D01*
X124537358Y-73967848D01*
X124615669Y-73861740D01*
X124659227Y-73737259D01*
X124659228Y-73737258D01*
X124662000Y-73707701D01*
X124662000Y-73555001D01*
X124661999Y-73555000D01*
X124187001Y-73555000D01*
X124187000Y-73555001D01*
X123787000Y-73555001D01*
X123786999Y-73555000D01*
X123312001Y-73555000D01*
X123312000Y-73555001D01*
X101100500Y-73555001D01*
X101100500Y-73002298D01*
X123312000Y-73002298D01*
X123312000Y-73154999D01*
X123312001Y-73155000D01*
X123786999Y-73155000D01*
X123787000Y-73154999D01*
X123787000Y-72617501D01*
X124187000Y-72617501D01*
X124187000Y-73154999D01*
X124187001Y-73155000D01*
X124661999Y-73155000D01*
X124662000Y-73154999D01*
X124662000Y-73002298D01*
X124659228Y-72972741D01*
X124659227Y-72972740D01*
X124615669Y-72848259D01*
X124537358Y-72742151D01*
X124537348Y-72742141D01*
X124431240Y-72663830D01*
X124306759Y-72620272D01*
X124306758Y-72620271D01*
X124277201Y-72617500D01*
X124187001Y-72617500D01*
X124187000Y-72617501D01*
X123787000Y-72617501D01*
X123786999Y-72617500D01*
X123696799Y-72617500D01*
X123667241Y-72620271D01*
X123667240Y-72620272D01*
X123542759Y-72663830D01*
X123436651Y-72742141D01*
X123436641Y-72742151D01*
X123358330Y-72848259D01*
X123314772Y-72972740D01*
X123314771Y-72972741D01*
X123312000Y-73002298D01*
X101100500Y-73002298D01*
X101100500Y-71721982D01*
X111052500Y-71721982D01*
X111052500Y-71834018D01*
X111078072Y-71929455D01*
X111081498Y-71942241D01*
X111137513Y-72039260D01*
X111137515Y-72039263D01*
X111216737Y-72118485D01*
X111216739Y-72118486D01*
X111313759Y-72174501D01*
X111313757Y-72174501D01*
X111313761Y-72174502D01*
X111313763Y-72174503D01*
X111421982Y-72203500D01*
X111421984Y-72203500D01*
X111534016Y-72203500D01*
X111534018Y-72203500D01*
X111642237Y-72174503D01*
X111642239Y-72174501D01*
X111642241Y-72174501D01*
X111680347Y-72152500D01*
X111739263Y-72118485D01*
X111763439Y-72094309D01*
X111775253Y-72082496D01*
X111782369Y-72078870D01*
X111787065Y-72072407D01*
X111809116Y-72065242D01*
X111829770Y-72054719D01*
X111845256Y-72053500D01*
X112041600Y-72053500D01*
X112099791Y-72072407D01*
X112135755Y-72121907D01*
X112140600Y-72152500D01*
X112140600Y-72178746D01*
X112140601Y-72178758D01*
X112149298Y-72222476D01*
X112152233Y-72237231D01*
X112196548Y-72303552D01*
X112262869Y-72347867D01*
X112307331Y-72356711D01*
X112321341Y-72359498D01*
X112321346Y-72359498D01*
X112321352Y-72359500D01*
X112321353Y-72359500D01*
X113326047Y-72359500D01*
X113326048Y-72359500D01*
X113384531Y-72347867D01*
X113450852Y-72303552D01*
X113495167Y-72237231D01*
X113498149Y-72222240D01*
X113499931Y-72213284D01*
X113529828Y-72159900D01*
X113585394Y-72134286D01*
X113597028Y-72133600D01*
X113802972Y-72133600D01*
X113861163Y-72152507D01*
X113897127Y-72202007D01*
X113900069Y-72213284D01*
X113901898Y-72222476D01*
X113904833Y-72237231D01*
X113949148Y-72303552D01*
X114015469Y-72347867D01*
X114059931Y-72356711D01*
X114073941Y-72359498D01*
X114073946Y-72359498D01*
X114073952Y-72359500D01*
X114073953Y-72359500D01*
X115078647Y-72359500D01*
X115078648Y-72359500D01*
X115137131Y-72347867D01*
X115203452Y-72303552D01*
X115247767Y-72237231D01*
X115259400Y-72178748D01*
X115259400Y-72152500D01*
X115278307Y-72094309D01*
X115327807Y-72058345D01*
X115358400Y-72053500D01*
X116334512Y-72053500D01*
X116392703Y-72072407D01*
X116427956Y-72119802D01*
X116463884Y-72222475D01*
X116463884Y-72222476D01*
X116523718Y-72303548D01*
X116542289Y-72328711D01*
X116542292Y-72328713D01*
X116542293Y-72328714D01*
X116648523Y-72407115D01*
X116648524Y-72407115D01*
X116648525Y-72407116D01*
X116773151Y-72450725D01*
X116797412Y-72453000D01*
X116802733Y-72453499D01*
X116802738Y-72453500D01*
X116802744Y-72453500D01*
X117408262Y-72453500D01*
X117408265Y-72453499D01*
X117437849Y-72450725D01*
X117562475Y-72407116D01*
X117668711Y-72328711D01*
X117747116Y-72222475D01*
X117790725Y-72097849D01*
X117793500Y-72068256D01*
X117793500Y-71978001D01*
X118243000Y-71978001D01*
X118243000Y-72068201D01*
X118245771Y-72097758D01*
X118245772Y-72097759D01*
X118289330Y-72222240D01*
X118367641Y-72328348D01*
X118367651Y-72328358D01*
X118473759Y-72406669D01*
X118598240Y-72450227D01*
X118598241Y-72450228D01*
X118627799Y-72453000D01*
X118730499Y-72453000D01*
X118730500Y-72452999D01*
X118730500Y-71978001D01*
X119130500Y-71978001D01*
X119130500Y-72452999D01*
X119130501Y-72453000D01*
X119233201Y-72453000D01*
X119262758Y-72450228D01*
X119262759Y-72450227D01*
X119387240Y-72406669D01*
X119493348Y-72328358D01*
X119493358Y-72328348D01*
X119571669Y-72222240D01*
X119615227Y-72097759D01*
X119615228Y-72097758D01*
X119618000Y-72068201D01*
X119618000Y-71978001D01*
X119617999Y-71978000D01*
X119130501Y-71978000D01*
X119130500Y-71978001D01*
X118730500Y-71978001D01*
X118730499Y-71978000D01*
X118243001Y-71978000D01*
X118243000Y-71978001D01*
X117793500Y-71978001D01*
X117793500Y-71487798D01*
X118243000Y-71487798D01*
X118243000Y-71577999D01*
X118243001Y-71578000D01*
X118730499Y-71578000D01*
X118730500Y-71577999D01*
X118730500Y-71103001D01*
X119130500Y-71103001D01*
X119130500Y-71577999D01*
X119130501Y-71578000D01*
X119617999Y-71578000D01*
X119618000Y-71577999D01*
X119618000Y-71487798D01*
X119615228Y-71458241D01*
X119615227Y-71458240D01*
X119571669Y-71333759D01*
X119493358Y-71227651D01*
X119493348Y-71227641D01*
X119387240Y-71149330D01*
X119262759Y-71105772D01*
X119262758Y-71105771D01*
X119233201Y-71103000D01*
X119130501Y-71103000D01*
X119130500Y-71103001D01*
X118730500Y-71103001D01*
X118730499Y-71103000D01*
X118627799Y-71103000D01*
X118598241Y-71105771D01*
X118598240Y-71105772D01*
X118473759Y-71149330D01*
X118367651Y-71227641D01*
X118367641Y-71227651D01*
X118289330Y-71333759D01*
X118245772Y-71458240D01*
X118245771Y-71458241D01*
X118243000Y-71487798D01*
X117793500Y-71487798D01*
X117793500Y-71487744D01*
X117793500Y-71487738D01*
X117793499Y-71487733D01*
X117790725Y-71458155D01*
X117790725Y-71458151D01*
X117747116Y-71333525D01*
X117736223Y-71318766D01*
X117668714Y-71227293D01*
X117668713Y-71227292D01*
X117668711Y-71227289D01*
X117642757Y-71208134D01*
X117562476Y-71148884D01*
X117437852Y-71105276D01*
X117437851Y-71105275D01*
X117437849Y-71105275D01*
X117437847Y-71105274D01*
X117437844Y-71105274D01*
X117408266Y-71102500D01*
X117408256Y-71102500D01*
X116802744Y-71102500D01*
X116802733Y-71102500D01*
X116773155Y-71105274D01*
X116773147Y-71105276D01*
X116648523Y-71148884D01*
X116542293Y-71227285D01*
X116542285Y-71227293D01*
X116463884Y-71333523D01*
X116463884Y-71333524D01*
X116427956Y-71436198D01*
X116390890Y-71484879D01*
X116334512Y-71502500D01*
X115358400Y-71502500D01*
X115300209Y-71483593D01*
X115264245Y-71434093D01*
X115259400Y-71403500D01*
X115259400Y-71377253D01*
X115259398Y-71377241D01*
X115254773Y-71353993D01*
X115247767Y-71318769D01*
X115203452Y-71252448D01*
X115199802Y-71250009D01*
X115137133Y-71208134D01*
X115137131Y-71208133D01*
X115137128Y-71208132D01*
X115137127Y-71208132D01*
X115078658Y-71196501D01*
X115078648Y-71196500D01*
X114073952Y-71196500D01*
X114073951Y-71196500D01*
X114073941Y-71196501D01*
X114015472Y-71208132D01*
X114015466Y-71208134D01*
X113949151Y-71252445D01*
X113949145Y-71252451D01*
X113904834Y-71318766D01*
X113904832Y-71318772D01*
X113900069Y-71342716D01*
X113870172Y-71396100D01*
X113814606Y-71421714D01*
X113802972Y-71422400D01*
X113597028Y-71422400D01*
X113538837Y-71403493D01*
X113502873Y-71353993D01*
X113499931Y-71342716D01*
X113497461Y-71330304D01*
X113495167Y-71318769D01*
X113450852Y-71252448D01*
X113447202Y-71250009D01*
X113384533Y-71208134D01*
X113384531Y-71208133D01*
X113384528Y-71208132D01*
X113384527Y-71208132D01*
X113326058Y-71196501D01*
X113326048Y-71196500D01*
X112321352Y-71196500D01*
X112321351Y-71196500D01*
X112321341Y-71196501D01*
X112262872Y-71208132D01*
X112262866Y-71208134D01*
X112196551Y-71252445D01*
X112196545Y-71252451D01*
X112152234Y-71318766D01*
X112152232Y-71318772D01*
X112140601Y-71377241D01*
X112140600Y-71377253D01*
X112140600Y-71403500D01*
X112135755Y-71418411D01*
X112135755Y-71434093D01*
X112126538Y-71446778D01*
X112121693Y-71461691D01*
X112109007Y-71470907D01*
X112099791Y-71483593D01*
X112084878Y-71488438D01*
X112072193Y-71497655D01*
X112041600Y-71502500D01*
X111845256Y-71502500D01*
X111787065Y-71483593D01*
X111775253Y-71473504D01*
X111739262Y-71437514D01*
X111642240Y-71381498D01*
X111642242Y-71381498D01*
X111600251Y-71370247D01*
X111534018Y-71352500D01*
X111421982Y-71352500D01*
X111355748Y-71370247D01*
X111313758Y-71381498D01*
X111216739Y-71437513D01*
X111137513Y-71516739D01*
X111081498Y-71613758D01*
X111081497Y-71613763D01*
X111052500Y-71721982D01*
X101100500Y-71721982D01*
X101100500Y-71274318D01*
X101100877Y-71265690D01*
X101102035Y-71252451D01*
X101117512Y-71075540D01*
X101120505Y-71058564D01*
X101168790Y-70878360D01*
X101174686Y-70862163D01*
X101253526Y-70693091D01*
X101262146Y-70678161D01*
X101369145Y-70525351D01*
X101380226Y-70512144D01*
X101512144Y-70380226D01*
X101525351Y-70369145D01*
X101678161Y-70262146D01*
X101693091Y-70253526D01*
X101862163Y-70174686D01*
X101878360Y-70168790D01*
X102058564Y-70120505D01*
X102075540Y-70117512D01*
X102265691Y-70100877D01*
X102274319Y-70100500D01*
X102296929Y-70100500D01*
X125103071Y-70100500D01*
X125125681Y-70100500D01*
X125134309Y-70100877D01*
G37*
G04 #@! TD.AperFunction*
M02*
