G04 #@! TF.GenerationSoftware,KiCad,Pcbnew,8.0.4+dfsg-1*
G04 #@! TF.CreationDate,2025-02-23T16:27:36+09:00*
G04 #@! TF.ProjectId,bionic-nsc800,62696f6e-6963-42d6-9e73-633830302e6b,3*
G04 #@! TF.SameCoordinates,Original*
G04 #@! TF.FileFunction,Copper,L2,Bot*
G04 #@! TF.FilePolarity,Positive*
%FSLAX46Y46*%
G04 Gerber Fmt 4.6, Leading zero omitted, Abs format (unit mm)*
G04 Created by KiCad (PCBNEW 8.0.4+dfsg-1) date 2025-02-23 16:27:36*
%MOMM*%
%LPD*%
G01*
G04 APERTURE LIST*
G04 Aperture macros list*
%AMRoundRect*
0 Rectangle with rounded corners*
0 $1 Rounding radius*
0 $2 $3 $4 $5 $6 $7 $8 $9 X,Y pos of 4 corners*
0 Add a 4 corners polygon primitive as box body*
4,1,4,$2,$3,$4,$5,$6,$7,$8,$9,$2,$3,0*
0 Add four circle primitives for the rounded corners*
1,1,$1+$1,$2,$3*
1,1,$1+$1,$4,$5*
1,1,$1+$1,$6,$7*
1,1,$1+$1,$8,$9*
0 Add four rect primitives between the rounded corners*
20,1,$1+$1,$2,$3,$4,$5,0*
20,1,$1+$1,$4,$5,$6,$7,0*
20,1,$1+$1,$6,$7,$8,$9,0*
20,1,$1+$1,$8,$9,$2,$3,0*%
G04 Aperture macros list end*
G04 #@! TA.AperFunction,ComponentPad*
%ADD10R,1.600000X1.600000*%
G04 #@! TD*
G04 #@! TA.AperFunction,ComponentPad*
%ADD11O,1.600000X1.600000*%
G04 #@! TD*
G04 #@! TA.AperFunction,ComponentPad*
%ADD12O,1.700000X1.700000*%
G04 #@! TD*
G04 #@! TA.AperFunction,ComponentPad*
%ADD13R,1.700000X1.700000*%
G04 #@! TD*
G04 #@! TA.AperFunction,SMDPad,CuDef*
%ADD14RoundRect,0.237500X0.237500X-0.300000X0.237500X0.300000X-0.237500X0.300000X-0.237500X-0.300000X0*%
G04 #@! TD*
G04 #@! TA.AperFunction,ViaPad*
%ADD15C,0.600000*%
G04 #@! TD*
G04 #@! TA.AperFunction,Conductor*
%ADD16C,0.200000*%
G04 #@! TD*
G04 #@! TA.AperFunction,Conductor*
%ADD17C,0.600000*%
G04 #@! TD*
G04 #@! TA.AperFunction,Conductor*
%ADD18C,0.800000*%
G04 #@! TD*
G04 APERTURE END LIST*
D10*
X106080000Y-75080000D03*
D11*
X106080000Y-77620000D03*
X106080000Y-80160000D03*
X106080000Y-82700000D03*
X106080000Y-85240000D03*
X106080000Y-87780000D03*
X106080000Y-90320000D03*
X106080000Y-92860000D03*
X106080000Y-95400000D03*
X106080000Y-97940000D03*
X106080000Y-100480000D03*
X106080000Y-103020000D03*
X106080000Y-105560000D03*
X106080000Y-108100000D03*
X106080000Y-110640000D03*
X106080000Y-113180000D03*
X106080000Y-115720000D03*
X106080000Y-118260000D03*
X106080000Y-120800000D03*
X106080000Y-123340000D03*
X121320000Y-123340000D03*
X121320000Y-120800000D03*
X121320000Y-118260000D03*
X121320000Y-115720000D03*
X121320000Y-113180000D03*
X121320000Y-110640000D03*
X121320000Y-108100000D03*
X121320000Y-105560000D03*
X121320000Y-103020000D03*
X121320000Y-100480000D03*
X121320000Y-97940000D03*
X121320000Y-95400000D03*
X121320000Y-92860000D03*
X121320000Y-90320000D03*
X121320000Y-87780000D03*
X121320000Y-85240000D03*
X121320000Y-82700000D03*
X121320000Y-80160000D03*
X121320000Y-77620000D03*
X121320000Y-75080000D03*
D12*
X117510000Y-133500000D03*
X117510000Y-130960000D03*
X117510000Y-128420000D03*
X117510000Y-125880000D03*
X117510000Y-123340000D03*
X117510000Y-120800000D03*
X117510000Y-118260000D03*
X117510000Y-115720000D03*
X117510000Y-113180000D03*
X117510000Y-110640000D03*
X117510000Y-108100000D03*
X117510000Y-105560000D03*
X117510000Y-103020000D03*
X117510000Y-100480000D03*
X117510000Y-97940000D03*
X117510000Y-95400000D03*
X117510000Y-92860000D03*
X117510000Y-90320000D03*
X117510000Y-87780000D03*
X117510000Y-85240000D03*
X117510000Y-82700000D03*
X117510000Y-80160000D03*
X117510000Y-77620000D03*
D13*
X117510000Y-75080000D03*
X109890000Y-75080000D03*
D12*
X109890000Y-77620000D03*
X109890000Y-80160000D03*
X109890000Y-82700000D03*
X109890000Y-85240000D03*
X109890000Y-87780000D03*
X109890000Y-90320000D03*
X109890000Y-92860000D03*
X109890000Y-95400000D03*
X109890000Y-97940000D03*
X109890000Y-100480000D03*
X109890000Y-103020000D03*
X109890000Y-105560000D03*
X109890000Y-108100000D03*
X109890000Y-110640000D03*
X109890000Y-113180000D03*
X109890000Y-115720000D03*
X109890000Y-118260000D03*
X109890000Y-120800000D03*
X109890000Y-123340000D03*
X109890000Y-125880000D03*
X109890000Y-128420000D03*
X109890000Y-130960000D03*
X109890000Y-133500000D03*
D14*
X123910800Y-75078900D03*
X123910800Y-73353900D03*
D15*
X112430000Y-95400000D03*
X116367000Y-89050000D03*
X114843000Y-81176000D03*
X122209000Y-114450000D03*
X114208000Y-102639000D03*
X113827000Y-86002000D03*
X113700000Y-90955000D03*
X114970000Y-78636000D03*
X122082000Y-129055000D03*
X113700000Y-122070000D03*
X113700000Y-88542000D03*
X113700000Y-132357000D03*
X113700000Y-93495000D03*
X121320000Y-73048000D03*
X114843000Y-83843000D03*
X111795000Y-109878000D03*
X114459000Y-115212000D03*
X112658850Y-99438850D03*
X103667000Y-110513000D03*
X103032000Y-107049000D03*
X103067000Y-86510000D03*
X103752800Y-83081000D03*
X116113000Y-86510000D03*
X123361600Y-123213000D03*
D16*
X123361600Y-123213000D02*
X121964600Y-124610000D01*
X121964600Y-124610000D02*
X116875000Y-124610000D01*
X116875000Y-124610000D02*
X115605000Y-125880000D01*
X115605000Y-125880000D02*
X109890000Y-125880000D01*
X109890000Y-92860000D02*
X107731000Y-95019000D01*
X107731000Y-95019000D02*
X107731000Y-116609000D01*
X107731000Y-116609000D02*
X106080000Y-118260000D01*
X109890000Y-77620000D02*
X108493000Y-77620000D01*
X108493000Y-77620000D02*
X107223000Y-78890000D01*
X107223000Y-78890000D02*
X105572000Y-78890000D01*
X105572000Y-78890000D02*
X104352800Y-80109200D01*
X104352800Y-80109200D02*
X104352800Y-101292800D01*
X104352800Y-101292800D02*
X106080000Y-103020000D01*
X117510000Y-80160000D02*
X114462000Y-80160000D01*
X114462000Y-80160000D02*
X110652000Y-76350000D01*
X110652000Y-76350000D02*
X109128000Y-76350000D01*
X109128000Y-76350000D02*
X107858000Y-77620000D01*
X107858000Y-77620000D02*
X106080000Y-77620000D01*
X109890000Y-130960000D02*
X115605000Y-130960000D01*
X123961600Y-95501600D02*
X121320000Y-92860000D01*
X115605000Y-130960000D02*
X116875000Y-129690000D01*
X123961600Y-125016400D02*
X123961600Y-95501600D01*
X116875000Y-129690000D02*
X119288000Y-129690000D01*
X119288000Y-129690000D02*
X123961600Y-125016400D01*
D17*
X123910800Y-75078900D02*
X121321100Y-75078900D01*
D18*
X121321100Y-75078900D02*
X121320000Y-75080000D01*
D16*
X114335000Y-92860000D02*
X110525000Y-89050000D01*
X110525000Y-89050000D02*
X109255000Y-89050000D01*
X117510000Y-92860000D02*
X114335000Y-92860000D01*
X107985000Y-90320000D02*
X106080000Y-90320000D01*
X109255000Y-89050000D02*
X107985000Y-90320000D01*
X114462000Y-95400000D02*
X110652000Y-91590000D01*
X110652000Y-91590000D02*
X109255000Y-91590000D01*
X107985000Y-92860000D02*
X106080000Y-92860000D01*
X117510000Y-95400000D02*
X114462000Y-95400000D01*
X109255000Y-91590000D02*
X107985000Y-92860000D01*
X111795000Y-111275000D02*
X115059000Y-114539000D01*
X115059000Y-114539000D02*
X115059000Y-115809000D01*
X115059000Y-115809000D02*
X117510000Y-118260000D01*
X111795000Y-109878000D02*
X111795000Y-111275000D01*
X110525000Y-86510000D02*
X109255000Y-86510000D01*
X117510000Y-90320000D02*
X114335000Y-90320000D01*
X114335000Y-90320000D02*
X110525000Y-86510000D01*
X109255000Y-86510000D02*
X107985000Y-87780000D01*
X107985000Y-87780000D02*
X106080000Y-87780000D01*
X109255000Y-83970000D02*
X107985000Y-85240000D01*
X110525000Y-83970000D02*
X109255000Y-83970000D01*
X107985000Y-85240000D02*
X106080000Y-85240000D01*
X114335000Y-87780000D02*
X110525000Y-83970000D01*
X117510000Y-87780000D02*
X114335000Y-87780000D01*
X117510000Y-85240000D02*
X114398500Y-85240000D01*
X110588500Y-81430000D02*
X109255000Y-81430000D01*
X109255000Y-81430000D02*
X107985000Y-82700000D01*
X114398500Y-85240000D02*
X110588500Y-81430000D01*
X107985000Y-82700000D02*
X106080000Y-82700000D01*
X114459000Y-115212000D02*
X114459000Y-115209000D01*
X114459000Y-115209000D02*
X109890000Y-110640000D01*
X116240000Y-119530000D02*
X109890000Y-113180000D01*
X121320000Y-123340000D02*
X119542000Y-121562000D01*
X118145000Y-119530000D02*
X116240000Y-119530000D01*
X119542000Y-120927000D02*
X118145000Y-119530000D01*
X119542000Y-121562000D02*
X119542000Y-120927000D01*
X109890000Y-95400000D02*
X108131000Y-97159000D01*
X108131000Y-97159000D02*
X108131000Y-118749000D01*
X108131000Y-118749000D02*
X106080000Y-120800000D01*
X119415000Y-89685000D02*
X121320000Y-87780000D01*
X119415000Y-95400000D02*
X119415000Y-89685000D01*
X112658850Y-99438850D02*
X115427700Y-96670000D01*
X118145000Y-96670000D02*
X119415000Y-95400000D01*
X115427700Y-96670000D02*
X118145000Y-96670000D01*
X120685000Y-103020000D02*
X121320000Y-103020000D01*
X117510000Y-100480000D02*
X118145000Y-100480000D01*
X118145000Y-100480000D02*
X120685000Y-103020000D01*
X103667000Y-110513000D02*
X103667000Y-110767000D01*
X103667000Y-110767000D02*
X106080000Y-113180000D01*
X103032000Y-107049000D02*
X103034700Y-107049000D01*
X103034700Y-107049000D02*
X106080000Y-110094300D01*
X106080000Y-110094300D02*
X106080000Y-110640000D01*
X119542000Y-97051000D02*
X121193000Y-95400000D01*
X115605000Y-103655000D02*
X115605000Y-100480000D01*
X115605000Y-100480000D02*
X116875000Y-99210000D01*
X119542000Y-97813000D02*
X119542000Y-97051000D01*
X116875000Y-99210000D02*
X118145000Y-99210000D01*
X121193000Y-95400000D02*
X121320000Y-95400000D01*
X118145000Y-99210000D02*
X119542000Y-97813000D01*
X117510000Y-105560000D02*
X115605000Y-103655000D01*
X103067000Y-86510000D02*
X103032000Y-86545000D01*
X103032000Y-105052000D02*
X106080000Y-108100000D01*
X103032000Y-86545000D02*
X103032000Y-105052000D01*
X103667000Y-103147000D02*
X106080000Y-105560000D01*
X103752800Y-83081000D02*
X103667000Y-83166800D01*
X103667000Y-83166800D02*
X103667000Y-103147000D01*
X123352000Y-107773300D02*
X121755300Y-109370000D01*
X121755300Y-109370000D02*
X118780000Y-109370000D01*
X118780000Y-109370000D02*
X117510000Y-108100000D01*
X123352000Y-99972000D02*
X123352000Y-107773300D01*
X121320000Y-97940000D02*
X123352000Y-99972000D01*
X119542000Y-110767000D02*
X119542000Y-113942000D01*
X111795000Y-104290000D02*
X116875000Y-109370000D01*
X116875000Y-109370000D02*
X118145000Y-109370000D01*
X109890000Y-100480000D02*
X111795000Y-102385000D01*
X119542000Y-113942000D02*
X121320000Y-115720000D01*
X111795000Y-102385000D02*
X111795000Y-104290000D01*
X118145000Y-109370000D02*
X119542000Y-110767000D01*
X115859000Y-113434000D02*
X115859000Y-108989000D01*
X118145000Y-114450000D02*
X116875000Y-114450000D01*
X115859000Y-108989000D02*
X109890000Y-103020000D01*
X116875000Y-114450000D02*
X115859000Y-113434000D01*
X119542000Y-116482000D02*
X119542000Y-115847000D01*
X119542000Y-115847000D02*
X118145000Y-114450000D01*
X121320000Y-118260000D02*
X119542000Y-116482000D01*
X115459000Y-115355200D02*
X115459000Y-111129000D01*
X121320000Y-120800000D02*
X119542000Y-119022000D01*
X117093800Y-116990000D02*
X115459000Y-115355200D01*
X119542000Y-119022000D02*
X119542000Y-118387000D01*
X119542000Y-118387000D02*
X118145000Y-116990000D01*
X118145000Y-116990000D02*
X117093800Y-116990000D01*
X115459000Y-111129000D02*
X109890000Y-105560000D01*
X119415000Y-85240000D02*
X121320000Y-85240000D01*
X118145000Y-86510000D02*
X119415000Y-85240000D01*
X116113000Y-86510000D02*
X118145000Y-86510000D01*
X117510000Y-103020000D02*
X119542000Y-105052000D01*
X119542000Y-106322000D02*
X121320000Y-108100000D01*
X119542000Y-105052000D02*
X119542000Y-106322000D01*
G04 #@! TA.AperFunction,Conductor*
G36*
X123507045Y-108281390D02*
G01*
X123550310Y-108324655D01*
X123561100Y-108369600D01*
X123561100Y-122520694D01*
X123542193Y-122578885D01*
X123492693Y-122614849D01*
X123449179Y-122618847D01*
X123361602Y-122607318D01*
X123361599Y-122607318D01*
X123204841Y-122627955D01*
X123204833Y-122627957D01*
X123058761Y-122688462D01*
X123058760Y-122688462D01*
X122933323Y-122784713D01*
X122933313Y-122784723D01*
X122837062Y-122910160D01*
X122837062Y-122910161D01*
X122776557Y-123056233D01*
X122776555Y-123056241D01*
X122755071Y-123219433D01*
X122753342Y-123219205D01*
X122737011Y-123269471D01*
X122726922Y-123281284D01*
X122594219Y-123413987D01*
X122539702Y-123441764D01*
X122479270Y-123432193D01*
X122436005Y-123388928D01*
X122425215Y-123343983D01*
X122425215Y-123340003D01*
X122419774Y-123281284D01*
X122406397Y-123136917D01*
X122350582Y-122940750D01*
X122259673Y-122758179D01*
X122136764Y-122595421D01*
X121986041Y-122458019D01*
X121812637Y-122350652D01*
X121622456Y-122276976D01*
X121622455Y-122276975D01*
X121622453Y-122276975D01*
X121421976Y-122239500D01*
X121218024Y-122239500D01*
X121017544Y-122276975D01*
X120937739Y-122307892D01*
X120876648Y-122311282D01*
X120831973Y-122285581D01*
X120409416Y-121863024D01*
X119971496Y-121425103D01*
X119943719Y-121370586D01*
X119942500Y-121355099D01*
X119942500Y-120874274D01*
X119933946Y-120842349D01*
X119915207Y-120772413D01*
X119862480Y-120681087D01*
X119787913Y-120606519D01*
X119787913Y-120606520D01*
X118390913Y-119209520D01*
X118390910Y-119209518D01*
X118376680Y-119201302D01*
X118335739Y-119155831D01*
X118329345Y-119094981D01*
X118359489Y-119042401D01*
X118363872Y-119038407D01*
X118492366Y-118868255D01*
X118587405Y-118677389D01*
X118645756Y-118472310D01*
X118661505Y-118302346D01*
X118685700Y-118246151D01*
X118738307Y-118214907D01*
X118799231Y-118220553D01*
X118830086Y-118241479D01*
X119112504Y-118523897D01*
X119140281Y-118578414D01*
X119141500Y-118593901D01*
X119141500Y-118969273D01*
X119141500Y-119074727D01*
X119163231Y-119155831D01*
X119168794Y-119176592D01*
X119221516Y-119267908D01*
X119221517Y-119267909D01*
X119221518Y-119267910D01*
X119221520Y-119267913D01*
X119744801Y-119791194D01*
X120262663Y-120309056D01*
X120290440Y-120363573D01*
X120287880Y-120406152D01*
X120233603Y-120596915D01*
X120233603Y-120596917D01*
X120214785Y-120800000D01*
X120233603Y-121003083D01*
X120289418Y-121199250D01*
X120380327Y-121381821D01*
X120503236Y-121544579D01*
X120653959Y-121681981D01*
X120827363Y-121789348D01*
X121017544Y-121863024D01*
X121218024Y-121900500D01*
X121421976Y-121900500D01*
X121622456Y-121863024D01*
X121812637Y-121789348D01*
X121986041Y-121681981D01*
X122136764Y-121544579D01*
X122259673Y-121381821D01*
X122350582Y-121199250D01*
X122406397Y-121003083D01*
X122425215Y-120800000D01*
X122406397Y-120596917D01*
X122350582Y-120400750D01*
X122259673Y-120218179D01*
X122136764Y-120055421D01*
X121986041Y-119918019D01*
X121812637Y-119810652D01*
X121622456Y-119736976D01*
X121622455Y-119736975D01*
X121622453Y-119736975D01*
X121421976Y-119699500D01*
X121218024Y-119699500D01*
X121017544Y-119736975D01*
X120937739Y-119767892D01*
X120876648Y-119771282D01*
X120831973Y-119745581D01*
X120409416Y-119323024D01*
X119971496Y-118885103D01*
X119943719Y-118830586D01*
X119942500Y-118815099D01*
X119942500Y-118334274D01*
X119933946Y-118302349D01*
X119915207Y-118232413D01*
X119862480Y-118141087D01*
X119787913Y-118066519D01*
X119787913Y-118066520D01*
X118390913Y-116669520D01*
X118390910Y-116669518D01*
X118376680Y-116661302D01*
X118335739Y-116615831D01*
X118329345Y-116554981D01*
X118359489Y-116502401D01*
X118363872Y-116498407D01*
X118492366Y-116328255D01*
X118587405Y-116137389D01*
X118645756Y-115932310D01*
X118661505Y-115762346D01*
X118685700Y-115706151D01*
X118738307Y-115674907D01*
X118799231Y-115680553D01*
X118830086Y-115701479D01*
X119112504Y-115983897D01*
X119140281Y-116038414D01*
X119141500Y-116053901D01*
X119141500Y-116429273D01*
X119141500Y-116534727D01*
X119163231Y-116615831D01*
X119168794Y-116636592D01*
X119221516Y-116727908D01*
X119221517Y-116727909D01*
X119221518Y-116727910D01*
X119221520Y-116727913D01*
X119744802Y-117251195D01*
X120262663Y-117769056D01*
X120290440Y-117823573D01*
X120287880Y-117866152D01*
X120233603Y-118056915D01*
X120233603Y-118056917D01*
X120214785Y-118260000D01*
X120233603Y-118463083D01*
X120289418Y-118659250D01*
X120380327Y-118841821D01*
X120503236Y-119004579D01*
X120653959Y-119141981D01*
X120827363Y-119249348D01*
X121017544Y-119323024D01*
X121218024Y-119360500D01*
X121421976Y-119360500D01*
X121622456Y-119323024D01*
X121812637Y-119249348D01*
X121986041Y-119141981D01*
X122136764Y-119004579D01*
X122259673Y-118841821D01*
X122350582Y-118659250D01*
X122406397Y-118463083D01*
X122425215Y-118260000D01*
X122406397Y-118056917D01*
X122350582Y-117860750D01*
X122259673Y-117678179D01*
X122136764Y-117515421D01*
X121986041Y-117378019D01*
X121812637Y-117270652D01*
X121622456Y-117196976D01*
X121622455Y-117196975D01*
X121622453Y-117196975D01*
X121421976Y-117159500D01*
X121218024Y-117159500D01*
X121017544Y-117196975D01*
X120937739Y-117227892D01*
X120876648Y-117231282D01*
X120831973Y-117205581D01*
X120409416Y-116783024D01*
X119971496Y-116345103D01*
X119943719Y-116290586D01*
X119942500Y-116275099D01*
X119942500Y-115794274D01*
X119933946Y-115762349D01*
X119915207Y-115692413D01*
X119862480Y-115601087D01*
X119831755Y-115570362D01*
X119787913Y-115526519D01*
X119787913Y-115526520D01*
X118390913Y-114129520D01*
X118390910Y-114129518D01*
X118376680Y-114121302D01*
X118335739Y-114075831D01*
X118329345Y-114014981D01*
X118359489Y-113962401D01*
X118363872Y-113958407D01*
X118492366Y-113788255D01*
X118587405Y-113597389D01*
X118645756Y-113392310D01*
X118665429Y-113180000D01*
X118645756Y-112967690D01*
X118587405Y-112762611D01*
X118492366Y-112571745D01*
X118363872Y-112401593D01*
X118309623Y-112352139D01*
X118206307Y-112257952D01*
X118206300Y-112257946D01*
X118025024Y-112145705D01*
X118025019Y-112145702D01*
X117826195Y-112068678D01*
X117616610Y-112029500D01*
X117403390Y-112029500D01*
X117193804Y-112068678D01*
X116994980Y-112145702D01*
X116994975Y-112145705D01*
X116813699Y-112257946D01*
X116813692Y-112257952D01*
X116656135Y-112401586D01*
X116656131Y-112401589D01*
X116656128Y-112401593D01*
X116656125Y-112401597D01*
X116527635Y-112571743D01*
X116527630Y-112571752D01*
X116447121Y-112733438D01*
X116404258Y-112777100D01*
X116343917Y-112787230D01*
X116289146Y-112759958D01*
X116260866Y-112705700D01*
X116259500Y-112689310D01*
X116259500Y-111130689D01*
X116278407Y-111072498D01*
X116327907Y-111036534D01*
X116389093Y-111036534D01*
X116438593Y-111072498D01*
X116447119Y-111086558D01*
X116469094Y-111130689D01*
X116527630Y-111248248D01*
X116527632Y-111248252D01*
X116527634Y-111248255D01*
X116656128Y-111418407D01*
X116656135Y-111418413D01*
X116813692Y-111562047D01*
X116813699Y-111562053D01*
X116917389Y-111626255D01*
X116994981Y-111674298D01*
X117193802Y-111751321D01*
X117403390Y-111790500D01*
X117616610Y-111790500D01*
X117826198Y-111751321D01*
X118025019Y-111674298D01*
X118206302Y-111562052D01*
X118363872Y-111418407D01*
X118492366Y-111248255D01*
X118587405Y-111057389D01*
X118645756Y-110852310D01*
X118661505Y-110682346D01*
X118685700Y-110626151D01*
X118738307Y-110594907D01*
X118799231Y-110600553D01*
X118830086Y-110621479D01*
X119112504Y-110903897D01*
X119140281Y-110958414D01*
X119141500Y-110973901D01*
X119141500Y-113889273D01*
X119141500Y-113994727D01*
X119163231Y-114075831D01*
X119168794Y-114096592D01*
X119221516Y-114187908D01*
X119221517Y-114187909D01*
X119221518Y-114187910D01*
X119221520Y-114187913D01*
X119744802Y-114711195D01*
X120262663Y-115229056D01*
X120290440Y-115283573D01*
X120287880Y-115326152D01*
X120233603Y-115516915D01*
X120233603Y-115516917D01*
X120214785Y-115720000D01*
X120233603Y-115923083D01*
X120289418Y-116119250D01*
X120380327Y-116301821D01*
X120503236Y-116464579D01*
X120653959Y-116601981D01*
X120827363Y-116709348D01*
X121017544Y-116783024D01*
X121218024Y-116820500D01*
X121421976Y-116820500D01*
X121622456Y-116783024D01*
X121812637Y-116709348D01*
X121986041Y-116601981D01*
X122136764Y-116464579D01*
X122259673Y-116301821D01*
X122350582Y-116119250D01*
X122406397Y-115923083D01*
X122425215Y-115720000D01*
X122406397Y-115516917D01*
X122350582Y-115320750D01*
X122259673Y-115138179D01*
X122136764Y-114975421D01*
X121986041Y-114838019D01*
X121812637Y-114730652D01*
X121622456Y-114656976D01*
X121622455Y-114656975D01*
X121622453Y-114656975D01*
X121421976Y-114619500D01*
X121218024Y-114619500D01*
X121017544Y-114656975D01*
X120937739Y-114687892D01*
X120876648Y-114691282D01*
X120831973Y-114665581D01*
X120409416Y-114243024D01*
X119971496Y-113805103D01*
X119943719Y-113750586D01*
X119942500Y-113735099D01*
X119942500Y-113180000D01*
X120214785Y-113180000D01*
X120233603Y-113383083D01*
X120289418Y-113579250D01*
X120380327Y-113761821D01*
X120503236Y-113924579D01*
X120653959Y-114061981D01*
X120827363Y-114169348D01*
X121017544Y-114243024D01*
X121218024Y-114280500D01*
X121421976Y-114280500D01*
X121622456Y-114243024D01*
X121812637Y-114169348D01*
X121986041Y-114061981D01*
X122136764Y-113924579D01*
X122259673Y-113761821D01*
X122350582Y-113579250D01*
X122406397Y-113383083D01*
X122425215Y-113180000D01*
X122406397Y-112976917D01*
X122350582Y-112780750D01*
X122259673Y-112598179D01*
X122136764Y-112435421D01*
X121986041Y-112298019D01*
X121812637Y-112190652D01*
X121622456Y-112116976D01*
X121622455Y-112116975D01*
X121622453Y-112116975D01*
X121421976Y-112079500D01*
X121218024Y-112079500D01*
X121017546Y-112116975D01*
X120995334Y-112125580D01*
X120827363Y-112190652D01*
X120718676Y-112257948D01*
X120653959Y-112298019D01*
X120503237Y-112435420D01*
X120380328Y-112598177D01*
X120380323Y-112598186D01*
X120298450Y-112762611D01*
X120289418Y-112780750D01*
X120233603Y-112976917D01*
X120214785Y-113180000D01*
X119942500Y-113180000D01*
X119942500Y-110714274D01*
X119942500Y-110714273D01*
X119915207Y-110612413D01*
X119862480Y-110521087D01*
X119854392Y-110512999D01*
X119787913Y-110446519D01*
X119787913Y-110446520D01*
X119280897Y-109939504D01*
X119253120Y-109884987D01*
X119262691Y-109824555D01*
X119305956Y-109781290D01*
X119350901Y-109770500D01*
X120398754Y-109770500D01*
X120456945Y-109789407D01*
X120492909Y-109838907D01*
X120492909Y-109900093D01*
X120477760Y-109929155D01*
X120408783Y-110020496D01*
X120380328Y-110058177D01*
X120380323Y-110058186D01*
X120298450Y-110222611D01*
X120289418Y-110240750D01*
X120233603Y-110436917D01*
X120214785Y-110640000D01*
X120233603Y-110843083D01*
X120289418Y-111039250D01*
X120380327Y-111221821D01*
X120503236Y-111384579D01*
X120653959Y-111521981D01*
X120827363Y-111629348D01*
X121017544Y-111703024D01*
X121218024Y-111740500D01*
X121421976Y-111740500D01*
X121622456Y-111703024D01*
X121812637Y-111629348D01*
X121986041Y-111521981D01*
X122136764Y-111384579D01*
X122259673Y-111221821D01*
X122350582Y-111039250D01*
X122406397Y-110843083D01*
X122425215Y-110640000D01*
X122406397Y-110436917D01*
X122350582Y-110240750D01*
X122259673Y-110058179D01*
X122136764Y-109895421D01*
X122035265Y-109802893D01*
X122005003Y-109749722D01*
X122011773Y-109688912D01*
X122031955Y-109659737D01*
X123392098Y-108299594D01*
X123446613Y-108271819D01*
X123507045Y-108281390D01*
G37*
G04 #@! TD.AperFunction*
G04 #@! TA.AperFunction,Conductor*
G36*
X111214117Y-82622010D02*
G01*
X114078018Y-85485910D01*
X114078020Y-85485913D01*
X114152587Y-85560480D01*
X114152589Y-85560481D01*
X114243909Y-85613205D01*
X114243913Y-85613207D01*
X114345770Y-85640500D01*
X114345772Y-85640501D01*
X114345773Y-85640501D01*
X114457290Y-85640501D01*
X114457306Y-85640500D01*
X116362887Y-85640500D01*
X116421078Y-85659407D01*
X116451508Y-85695373D01*
X116524824Y-85842614D01*
X116533837Y-85903132D01*
X116505556Y-85957389D01*
X116450785Y-85984661D01*
X116398318Y-85978205D01*
X116269766Y-85924957D01*
X116269758Y-85924955D01*
X116113001Y-85904318D01*
X116112999Y-85904318D01*
X115956241Y-85924955D01*
X115956233Y-85924957D01*
X115810161Y-85985462D01*
X115810160Y-85985462D01*
X115684723Y-86081713D01*
X115684719Y-86081716D01*
X115684718Y-86081718D01*
X115684716Y-86081721D01*
X115588462Y-86207160D01*
X115588462Y-86207161D01*
X115527957Y-86353233D01*
X115527955Y-86353241D01*
X115507318Y-86509999D01*
X115507318Y-86510000D01*
X115527955Y-86666758D01*
X115527957Y-86666766D01*
X115588462Y-86812838D01*
X115588462Y-86812839D01*
X115684713Y-86938276D01*
X115684718Y-86938282D01*
X115810159Y-87034536D01*
X115810160Y-87034536D01*
X115810161Y-87034537D01*
X115956233Y-87095042D01*
X115956238Y-87095044D01*
X116073809Y-87110522D01*
X116112999Y-87115682D01*
X116113000Y-87115682D01*
X116113001Y-87115682D01*
X116144352Y-87111554D01*
X116269762Y-87095044D01*
X116398319Y-87041793D01*
X116459314Y-87036993D01*
X116511483Y-87068962D01*
X116534898Y-87125490D01*
X116524825Y-87177385D01*
X116451509Y-87324627D01*
X116408646Y-87368290D01*
X116362887Y-87379500D01*
X114541900Y-87379500D01*
X114483709Y-87360593D01*
X114471896Y-87350504D01*
X112681871Y-85560479D01*
X110770913Y-83649520D01*
X110770910Y-83649518D01*
X110756680Y-83641302D01*
X110715739Y-83595831D01*
X110709345Y-83534981D01*
X110739489Y-83482401D01*
X110743872Y-83478407D01*
X110872366Y-83308255D01*
X110967405Y-83117389D01*
X111025756Y-82912310D01*
X111045429Y-82700000D01*
X111045429Y-82699996D01*
X111045429Y-82695423D01*
X111046827Y-82695423D01*
X111058991Y-82641464D01*
X111104960Y-82601085D01*
X111165885Y-82595438D01*
X111214117Y-82622010D01*
G37*
G04 #@! TD.AperFunction*
G04 #@! TA.AperFunction,Conductor*
G36*
X125133875Y-70075805D02*
G01*
X125309097Y-70089594D01*
X125324430Y-70092023D01*
X125491550Y-70132145D01*
X125506317Y-70136943D01*
X125665104Y-70202715D01*
X125678926Y-70209758D01*
X125825469Y-70299560D01*
X125838032Y-70308688D01*
X125968717Y-70420303D01*
X125979699Y-70431285D01*
X126091311Y-70561967D01*
X126100440Y-70574532D01*
X126190238Y-70721068D01*
X126197287Y-70734902D01*
X126263054Y-70893678D01*
X126267855Y-70908453D01*
X126307975Y-71075564D01*
X126310405Y-71090907D01*
X126324195Y-71266123D01*
X126324500Y-71273891D01*
X126324500Y-137306108D01*
X126324195Y-137313876D01*
X126310405Y-137489092D01*
X126307975Y-137504435D01*
X126267855Y-137671546D01*
X126263054Y-137686321D01*
X126197287Y-137845097D01*
X126190234Y-137858939D01*
X126100442Y-138005465D01*
X126091311Y-138018032D01*
X125979699Y-138148714D01*
X125968714Y-138159699D01*
X125838032Y-138271311D01*
X125825465Y-138280442D01*
X125678939Y-138370234D01*
X125665097Y-138377287D01*
X125506321Y-138443054D01*
X125491546Y-138447855D01*
X125324435Y-138487975D01*
X125309092Y-138490405D01*
X125149743Y-138502946D01*
X125133874Y-138504195D01*
X125126108Y-138504500D01*
X102273892Y-138504500D01*
X102266125Y-138504195D01*
X102247014Y-138502691D01*
X102090907Y-138490405D01*
X102075564Y-138487975D01*
X101908453Y-138447855D01*
X101893678Y-138443054D01*
X101734902Y-138377287D01*
X101721068Y-138370238D01*
X101574532Y-138280440D01*
X101561967Y-138271311D01*
X101462706Y-138186535D01*
X101431282Y-138159696D01*
X101420303Y-138148717D01*
X101308688Y-138018032D01*
X101299560Y-138005469D01*
X101209758Y-137858926D01*
X101202715Y-137845104D01*
X101136943Y-137686317D01*
X101132144Y-137671546D01*
X101092024Y-137504435D01*
X101089594Y-137489097D01*
X101075805Y-137313875D01*
X101075500Y-137306108D01*
X101075500Y-133500000D01*
X108734571Y-133500000D01*
X108754244Y-133712310D01*
X108812595Y-133917389D01*
X108907634Y-134108255D01*
X109036128Y-134278407D01*
X109036135Y-134278413D01*
X109193692Y-134422047D01*
X109193699Y-134422053D01*
X109297389Y-134486255D01*
X109374981Y-134534298D01*
X109573802Y-134611321D01*
X109783390Y-134650500D01*
X109996610Y-134650500D01*
X110206198Y-134611321D01*
X110405019Y-134534298D01*
X110586302Y-134422052D01*
X110743872Y-134278407D01*
X110872366Y-134108255D01*
X110967405Y-133917389D01*
X111025756Y-133712310D01*
X111045429Y-133500000D01*
X116354571Y-133500000D01*
X116374244Y-133712310D01*
X116432595Y-133917389D01*
X116527634Y-134108255D01*
X116656128Y-134278407D01*
X116656135Y-134278413D01*
X116813692Y-134422047D01*
X116813699Y-134422053D01*
X116917389Y-134486255D01*
X116994981Y-134534298D01*
X117193802Y-134611321D01*
X117403390Y-134650500D01*
X117616610Y-134650500D01*
X117826198Y-134611321D01*
X118025019Y-134534298D01*
X118206302Y-134422052D01*
X118363872Y-134278407D01*
X118492366Y-134108255D01*
X118587405Y-133917389D01*
X118645756Y-133712310D01*
X118665429Y-133500000D01*
X118645756Y-133287690D01*
X118587405Y-133082611D01*
X118492366Y-132891745D01*
X118363872Y-132721593D01*
X118309623Y-132672139D01*
X118206307Y-132577952D01*
X118206300Y-132577946D01*
X118025024Y-132465705D01*
X118025019Y-132465702D01*
X117826195Y-132388678D01*
X117616610Y-132349500D01*
X117403390Y-132349500D01*
X117193804Y-132388678D01*
X116994980Y-132465702D01*
X116994975Y-132465705D01*
X116813699Y-132577946D01*
X116813692Y-132577952D01*
X116656135Y-132721586D01*
X116656131Y-132721589D01*
X116656128Y-132721593D01*
X116656125Y-132721597D01*
X116527635Y-132891743D01*
X116527630Y-132891752D01*
X116432596Y-133082608D01*
X116374244Y-133287688D01*
X116374244Y-133287690D01*
X116354571Y-133500000D01*
X111045429Y-133500000D01*
X111025756Y-133287690D01*
X110967405Y-133082611D01*
X110872366Y-132891745D01*
X110743872Y-132721593D01*
X110689623Y-132672139D01*
X110586307Y-132577952D01*
X110586300Y-132577946D01*
X110405024Y-132465705D01*
X110405019Y-132465702D01*
X110206195Y-132388678D01*
X109996610Y-132349500D01*
X109783390Y-132349500D01*
X109573804Y-132388678D01*
X109374980Y-132465702D01*
X109374975Y-132465705D01*
X109193699Y-132577946D01*
X109193692Y-132577952D01*
X109036135Y-132721586D01*
X109036131Y-132721589D01*
X109036128Y-132721593D01*
X109036125Y-132721597D01*
X108907635Y-132891743D01*
X108907630Y-132891752D01*
X108812596Y-133082608D01*
X108754244Y-133287688D01*
X108754244Y-133287690D01*
X108734571Y-133500000D01*
X101075500Y-133500000D01*
X101075500Y-128420000D01*
X108734571Y-128420000D01*
X108754244Y-128632310D01*
X108812595Y-128837389D01*
X108907634Y-129028255D01*
X109036128Y-129198407D01*
X109061013Y-129221093D01*
X109193692Y-129342047D01*
X109193699Y-129342053D01*
X109224786Y-129361301D01*
X109374981Y-129454298D01*
X109573802Y-129531321D01*
X109783390Y-129570500D01*
X109996610Y-129570500D01*
X110206198Y-129531321D01*
X110405019Y-129454298D01*
X110586302Y-129342052D01*
X110743872Y-129198407D01*
X110872366Y-129028255D01*
X110967405Y-128837389D01*
X111025756Y-128632310D01*
X111045429Y-128420000D01*
X111025756Y-128207690D01*
X110967405Y-128002611D01*
X110872366Y-127811745D01*
X110743872Y-127641593D01*
X110689623Y-127592139D01*
X110586307Y-127497952D01*
X110586300Y-127497946D01*
X110405024Y-127385705D01*
X110405019Y-127385702D01*
X110206195Y-127308678D01*
X109996610Y-127269500D01*
X109783390Y-127269500D01*
X109573804Y-127308678D01*
X109374980Y-127385702D01*
X109374975Y-127385705D01*
X109193699Y-127497946D01*
X109193692Y-127497952D01*
X109036135Y-127641586D01*
X109036131Y-127641589D01*
X109036128Y-127641593D01*
X109036125Y-127641597D01*
X108907635Y-127811743D01*
X108907630Y-127811752D01*
X108812596Y-128002608D01*
X108754244Y-128207688D01*
X108754244Y-128207690D01*
X108734571Y-128420000D01*
X101075500Y-128420000D01*
X101075500Y-107048999D01*
X102426318Y-107048999D01*
X102426318Y-107049000D01*
X102446955Y-107205758D01*
X102446957Y-107205766D01*
X102507462Y-107351838D01*
X102507462Y-107351839D01*
X102507464Y-107351841D01*
X102603718Y-107477282D01*
X102729159Y-107573536D01*
X102729160Y-107573536D01*
X102729161Y-107573537D01*
X102875233Y-107634042D01*
X102875238Y-107634044D01*
X102992809Y-107649522D01*
X103031999Y-107654682D01*
X103032981Y-107654682D01*
X103033649Y-107654899D01*
X103038433Y-107655529D01*
X103038316Y-107656415D01*
X103091172Y-107673589D01*
X103102985Y-107683678D01*
X105224474Y-109805166D01*
X105252251Y-109859683D01*
X105242680Y-109920115D01*
X105233474Y-109934830D01*
X105140332Y-110058171D01*
X105140323Y-110058186D01*
X105058450Y-110222611D01*
X105049418Y-110240750D01*
X104993603Y-110436917D01*
X104974785Y-110640000D01*
X104993603Y-110843083D01*
X105049418Y-111039250D01*
X105140327Y-111221821D01*
X105263236Y-111384579D01*
X105413959Y-111521981D01*
X105587363Y-111629348D01*
X105777544Y-111703024D01*
X105978024Y-111740500D01*
X106181976Y-111740500D01*
X106382456Y-111703024D01*
X106572637Y-111629348D01*
X106746041Y-111521981D01*
X106896764Y-111384579D01*
X107019673Y-111221821D01*
X107110582Y-111039250D01*
X107136280Y-110948931D01*
X107170390Y-110898138D01*
X107227842Y-110877094D01*
X107286692Y-110893838D01*
X107324460Y-110941975D01*
X107330500Y-110976026D01*
X107330500Y-112843973D01*
X107311593Y-112902164D01*
X107262093Y-112938128D01*
X107200907Y-112938128D01*
X107151407Y-112902164D01*
X107136279Y-112871066D01*
X107110582Y-112780750D01*
X107019673Y-112598179D01*
X106896764Y-112435421D01*
X106746041Y-112298019D01*
X106572637Y-112190652D01*
X106382456Y-112116976D01*
X106382455Y-112116975D01*
X106382453Y-112116975D01*
X106181976Y-112079500D01*
X105978024Y-112079500D01*
X105777552Y-112116974D01*
X105777546Y-112116975D01*
X105777544Y-112116976D01*
X105711296Y-112142639D01*
X105697738Y-112147892D01*
X105636647Y-112151281D01*
X105591973Y-112125580D01*
X104264875Y-110798482D01*
X104237098Y-110743965D01*
X104243415Y-110690591D01*
X104252044Y-110669762D01*
X104272682Y-110513000D01*
X104252044Y-110356238D01*
X104191537Y-110210161D01*
X104191537Y-110210160D01*
X104095286Y-110084723D01*
X104095285Y-110084722D01*
X104095282Y-110084718D01*
X104095277Y-110084714D01*
X104095276Y-110084713D01*
X103969838Y-109988462D01*
X103823766Y-109927957D01*
X103823758Y-109927955D01*
X103667001Y-109907318D01*
X103666999Y-109907318D01*
X103510241Y-109927955D01*
X103510233Y-109927957D01*
X103364161Y-109988462D01*
X103364160Y-109988462D01*
X103238723Y-110084713D01*
X103238713Y-110084723D01*
X103142462Y-110210160D01*
X103142462Y-110210161D01*
X103081957Y-110356233D01*
X103081955Y-110356241D01*
X103061318Y-110512999D01*
X103061318Y-110513000D01*
X103081955Y-110669758D01*
X103081957Y-110669766D01*
X103142462Y-110815838D01*
X103142462Y-110815839D01*
X103232281Y-110932893D01*
X103238718Y-110941282D01*
X103238722Y-110941285D01*
X103238723Y-110941286D01*
X103364157Y-111037535D01*
X103369397Y-111040560D01*
X103389898Y-111056291D01*
X105022663Y-112689056D01*
X105050440Y-112743573D01*
X105047880Y-112786152D01*
X104993603Y-112976915D01*
X104993603Y-112976917D01*
X104974785Y-113180000D01*
X104993603Y-113383083D01*
X105049418Y-113579250D01*
X105140327Y-113761821D01*
X105263236Y-113924579D01*
X105413959Y-114061981D01*
X105587363Y-114169348D01*
X105777544Y-114243024D01*
X105978024Y-114280500D01*
X106181976Y-114280500D01*
X106382456Y-114243024D01*
X106572637Y-114169348D01*
X106746041Y-114061981D01*
X106896764Y-113924579D01*
X107019673Y-113761821D01*
X107110582Y-113579250D01*
X107136280Y-113488931D01*
X107170390Y-113438138D01*
X107227842Y-113417094D01*
X107286692Y-113433838D01*
X107324460Y-113481975D01*
X107330500Y-113516026D01*
X107330500Y-115383973D01*
X107311593Y-115442164D01*
X107262093Y-115478128D01*
X107200907Y-115478128D01*
X107151407Y-115442164D01*
X107136279Y-115411066D01*
X107110582Y-115320750D01*
X107019673Y-115138179D01*
X106896764Y-114975421D01*
X106746041Y-114838019D01*
X106572637Y-114730652D01*
X106382456Y-114656976D01*
X106382455Y-114656975D01*
X106382453Y-114656975D01*
X106181976Y-114619500D01*
X105978024Y-114619500D01*
X105777546Y-114656975D01*
X105707632Y-114684059D01*
X105587363Y-114730652D01*
X105478676Y-114797948D01*
X105413959Y-114838019D01*
X105263237Y-114975420D01*
X105140328Y-115138177D01*
X105140323Y-115138186D01*
X105058450Y-115302611D01*
X105049418Y-115320750D01*
X104993603Y-115516917D01*
X104974785Y-115720000D01*
X104993603Y-115923083D01*
X105049418Y-116119250D01*
X105140327Y-116301821D01*
X105263236Y-116464579D01*
X105413959Y-116601981D01*
X105587363Y-116709348D01*
X105777544Y-116783024D01*
X105978024Y-116820500D01*
X106181976Y-116820500D01*
X106382456Y-116783024D01*
X106572637Y-116709348D01*
X106746041Y-116601981D01*
X106896764Y-116464579D01*
X107019673Y-116301821D01*
X107110582Y-116119250D01*
X107136280Y-116028931D01*
X107170390Y-115978138D01*
X107227842Y-115957094D01*
X107286692Y-115973838D01*
X107324460Y-116021975D01*
X107330500Y-116056026D01*
X107330500Y-116402099D01*
X107311593Y-116460290D01*
X107301504Y-116472103D01*
X106568026Y-117205580D01*
X106513509Y-117233357D01*
X106462260Y-117227891D01*
X106382456Y-117196976D01*
X106181976Y-117159500D01*
X105978024Y-117159500D01*
X105777546Y-117196975D01*
X105707632Y-117224059D01*
X105587363Y-117270652D01*
X105478676Y-117337948D01*
X105413959Y-117378019D01*
X105263237Y-117515420D01*
X105140328Y-117678177D01*
X105140323Y-117678186D01*
X105058450Y-117842611D01*
X105049418Y-117860750D01*
X104993603Y-118056917D01*
X104974785Y-118260000D01*
X104993603Y-118463083D01*
X105049418Y-118659250D01*
X105140327Y-118841821D01*
X105263236Y-119004579D01*
X105413959Y-119141981D01*
X105587363Y-119249348D01*
X105777544Y-119323024D01*
X105978024Y-119360500D01*
X106181976Y-119360500D01*
X106382456Y-119323024D01*
X106572637Y-119249348D01*
X106746041Y-119141981D01*
X106896764Y-119004579D01*
X107019673Y-118841821D01*
X107110582Y-118659250D01*
X107166397Y-118463083D01*
X107185215Y-118260000D01*
X107166397Y-118056917D01*
X107112118Y-117866148D01*
X107114379Y-117805010D01*
X107137336Y-117769056D01*
X107561497Y-117344896D01*
X107616013Y-117317119D01*
X107676445Y-117326690D01*
X107719710Y-117369955D01*
X107730500Y-117414900D01*
X107730500Y-118542098D01*
X107711593Y-118600289D01*
X107701504Y-118612102D01*
X106568025Y-119745580D01*
X106513508Y-119773357D01*
X106462259Y-119767891D01*
X106382460Y-119736977D01*
X106382447Y-119736974D01*
X106181976Y-119699500D01*
X105978024Y-119699500D01*
X105777546Y-119736975D01*
X105707632Y-119764059D01*
X105587363Y-119810652D01*
X105437881Y-119903207D01*
X105413959Y-119918019D01*
X105263237Y-120055420D01*
X105140328Y-120218177D01*
X105140323Y-120218186D01*
X105058450Y-120382611D01*
X105049418Y-120400750D01*
X104993603Y-120596917D01*
X104974785Y-120800000D01*
X104993603Y-121003083D01*
X105049418Y-121199250D01*
X105140327Y-121381821D01*
X105263236Y-121544579D01*
X105413959Y-121681981D01*
X105587363Y-121789348D01*
X105777544Y-121863024D01*
X105815418Y-121870103D01*
X105869141Y-121899380D01*
X105895398Y-121954645D01*
X105884156Y-122014789D01*
X105839709Y-122056838D01*
X105822848Y-122063044D01*
X105633676Y-122113733D01*
X105427518Y-122209865D01*
X105241188Y-122340334D01*
X105080334Y-122501188D01*
X104949865Y-122687518D01*
X104853733Y-122893676D01*
X104801128Y-123090000D01*
X105764314Y-123090000D01*
X105759920Y-123094394D01*
X105707259Y-123185606D01*
X105680000Y-123287339D01*
X105680000Y-123392661D01*
X105707259Y-123494394D01*
X105759920Y-123585606D01*
X105764314Y-123590000D01*
X104801128Y-123590000D01*
X104853733Y-123786323D01*
X104949865Y-123992481D01*
X105080334Y-124178811D01*
X105241188Y-124339665D01*
X105427518Y-124470134D01*
X105633676Y-124566266D01*
X105830000Y-124618872D01*
X105830000Y-123655686D01*
X105834394Y-123660080D01*
X105925606Y-123712741D01*
X106027339Y-123740000D01*
X106132661Y-123740000D01*
X106234394Y-123712741D01*
X106325606Y-123660080D01*
X106330000Y-123655686D01*
X106330000Y-124618871D01*
X106526323Y-124566266D01*
X106732481Y-124470134D01*
X106918811Y-124339665D01*
X107079665Y-124178811D01*
X107210134Y-123992481D01*
X107306266Y-123786323D01*
X107358872Y-123590000D01*
X106395686Y-123590000D01*
X106400080Y-123585606D01*
X106452741Y-123494394D01*
X106480000Y-123392661D01*
X106480000Y-123340000D01*
X108734571Y-123340000D01*
X108754244Y-123552310D01*
X108812595Y-123757389D01*
X108907634Y-123948255D01*
X109036128Y-124118407D01*
X109061013Y-124141093D01*
X109193692Y-124262047D01*
X109193699Y-124262053D01*
X109224786Y-124281301D01*
X109374981Y-124374298D01*
X109573802Y-124451321D01*
X109783390Y-124490500D01*
X109996610Y-124490500D01*
X110206198Y-124451321D01*
X110405019Y-124374298D01*
X110586302Y-124262052D01*
X110743872Y-124118407D01*
X110872366Y-123948255D01*
X110967405Y-123757389D01*
X111025756Y-123552310D01*
X111045429Y-123340000D01*
X111025756Y-123127690D01*
X110967405Y-122922611D01*
X110872366Y-122731745D01*
X110743872Y-122561593D01*
X110677611Y-122501188D01*
X110586307Y-122417952D01*
X110586300Y-122417946D01*
X110405024Y-122305705D01*
X110405019Y-122305702D01*
X110206195Y-122228678D01*
X109996610Y-122189500D01*
X109783390Y-122189500D01*
X109573804Y-122228678D01*
X109374980Y-122305702D01*
X109374975Y-122305705D01*
X109193699Y-122417946D01*
X109193692Y-122417952D01*
X109036135Y-122561586D01*
X109036131Y-122561589D01*
X109036128Y-122561593D01*
X109036125Y-122561597D01*
X108907635Y-122731743D01*
X108907630Y-122731752D01*
X108812596Y-122922608D01*
X108754244Y-123127688D01*
X108754244Y-123127690D01*
X108734571Y-123340000D01*
X106480000Y-123340000D01*
X106480000Y-123287339D01*
X106452741Y-123185606D01*
X106400080Y-123094394D01*
X106395686Y-123090000D01*
X107358872Y-123090000D01*
X107306266Y-122893676D01*
X107210134Y-122687518D01*
X107079665Y-122501188D01*
X106918811Y-122340334D01*
X106732481Y-122209865D01*
X106526323Y-122113733D01*
X106337151Y-122063044D01*
X106285836Y-122029720D01*
X106263910Y-121972598D01*
X106279746Y-121913498D01*
X106327296Y-121874992D01*
X106344568Y-121870106D01*
X106382456Y-121863024D01*
X106572637Y-121789348D01*
X106746041Y-121681981D01*
X106896764Y-121544579D01*
X107019673Y-121381821D01*
X107110582Y-121199250D01*
X107166397Y-121003083D01*
X107185215Y-120800000D01*
X108734571Y-120800000D01*
X108754244Y-121012310D01*
X108812595Y-121217389D01*
X108907634Y-121408255D01*
X109036128Y-121578407D01*
X109036135Y-121578413D01*
X109193692Y-121722047D01*
X109193699Y-121722053D01*
X109297389Y-121786255D01*
X109374981Y-121834298D01*
X109573802Y-121911321D01*
X109783390Y-121950500D01*
X109996610Y-121950500D01*
X110206198Y-121911321D01*
X110405019Y-121834298D01*
X110586302Y-121722052D01*
X110743872Y-121578407D01*
X110872366Y-121408255D01*
X110967405Y-121217389D01*
X111025756Y-121012310D01*
X111045429Y-120800000D01*
X111025756Y-120587690D01*
X110967405Y-120382611D01*
X110872366Y-120191745D01*
X110743872Y-120021593D01*
X110664688Y-119949407D01*
X110586307Y-119877952D01*
X110586300Y-119877946D01*
X110405024Y-119765705D01*
X110405019Y-119765702D01*
X110353078Y-119745580D01*
X110206198Y-119688679D01*
X110206197Y-119688678D01*
X110206195Y-119688678D01*
X109996610Y-119649500D01*
X109783390Y-119649500D01*
X109573804Y-119688678D01*
X109374980Y-119765702D01*
X109374975Y-119765705D01*
X109193699Y-119877946D01*
X109193692Y-119877952D01*
X109036135Y-120021586D01*
X109036131Y-120021589D01*
X109036128Y-120021593D01*
X109036125Y-120021597D01*
X108907635Y-120191743D01*
X108907630Y-120191752D01*
X108812596Y-120382608D01*
X108754244Y-120587688D01*
X108754244Y-120587690D01*
X108734571Y-120800000D01*
X107185215Y-120800000D01*
X107166397Y-120596917D01*
X107112118Y-120406148D01*
X107114379Y-120345010D01*
X107137333Y-120309058D01*
X108451480Y-118994913D01*
X108465379Y-118970839D01*
X108504205Y-118903592D01*
X108504205Y-118903590D01*
X108504207Y-118903588D01*
X108531500Y-118801727D01*
X108531500Y-118696273D01*
X108531500Y-118260000D01*
X108734571Y-118260000D01*
X108754244Y-118472310D01*
X108812595Y-118677389D01*
X108907634Y-118868255D01*
X109036128Y-119038407D01*
X109036135Y-119038413D01*
X109193692Y-119182047D01*
X109193699Y-119182053D01*
X109238057Y-119209518D01*
X109374981Y-119294298D01*
X109573802Y-119371321D01*
X109783390Y-119410500D01*
X109996610Y-119410500D01*
X110206198Y-119371321D01*
X110405019Y-119294298D01*
X110586302Y-119182052D01*
X110743872Y-119038407D01*
X110872366Y-118868255D01*
X110967405Y-118677389D01*
X111025756Y-118472310D01*
X111045429Y-118260000D01*
X111025756Y-118047690D01*
X110967405Y-117842611D01*
X110872366Y-117651745D01*
X110743872Y-117481593D01*
X110670714Y-117414900D01*
X110586307Y-117337952D01*
X110586300Y-117337946D01*
X110405024Y-117225705D01*
X110405019Y-117225702D01*
X110206195Y-117148678D01*
X109996610Y-117109500D01*
X109783390Y-117109500D01*
X109573804Y-117148678D01*
X109374980Y-117225702D01*
X109374975Y-117225705D01*
X109193699Y-117337946D01*
X109193692Y-117337952D01*
X109036135Y-117481586D01*
X109036131Y-117481589D01*
X109036128Y-117481593D01*
X109036125Y-117481597D01*
X108907635Y-117651743D01*
X108907630Y-117651752D01*
X108812596Y-117842608D01*
X108754244Y-118047688D01*
X108754244Y-118047690D01*
X108734571Y-118260000D01*
X108531500Y-118260000D01*
X108531500Y-115720000D01*
X108734571Y-115720000D01*
X108754244Y-115932311D01*
X108766060Y-115973838D01*
X108812595Y-116137389D01*
X108907634Y-116328255D01*
X109036128Y-116498407D01*
X109036135Y-116498413D01*
X109193692Y-116642047D01*
X109193699Y-116642053D01*
X109238057Y-116669518D01*
X109374981Y-116754298D01*
X109573802Y-116831321D01*
X109783390Y-116870500D01*
X109996610Y-116870500D01*
X110206198Y-116831321D01*
X110405019Y-116754298D01*
X110586302Y-116642052D01*
X110743872Y-116498407D01*
X110872366Y-116328255D01*
X110967405Y-116137389D01*
X111025756Y-115932310D01*
X111045429Y-115720000D01*
X111025756Y-115507690D01*
X110967405Y-115302611D01*
X110872366Y-115111745D01*
X110743872Y-114941593D01*
X110681808Y-114885014D01*
X110586307Y-114797952D01*
X110586300Y-114797946D01*
X110405024Y-114685705D01*
X110405019Y-114685702D01*
X110206195Y-114608678D01*
X109996610Y-114569500D01*
X109783390Y-114569500D01*
X109573804Y-114608678D01*
X109374980Y-114685702D01*
X109374975Y-114685705D01*
X109193699Y-114797946D01*
X109193692Y-114797952D01*
X109036135Y-114941586D01*
X109036131Y-114941589D01*
X109036128Y-114941593D01*
X109036125Y-114941597D01*
X108907635Y-115111743D01*
X108907630Y-115111752D01*
X108812596Y-115302608D01*
X108754244Y-115507688D01*
X108734571Y-115720000D01*
X108531500Y-115720000D01*
X108531500Y-108100000D01*
X108734571Y-108100000D01*
X108754244Y-108312311D01*
X108761296Y-108337094D01*
X108812595Y-108517389D01*
X108907634Y-108708255D01*
X109036128Y-108878407D01*
X109036135Y-108878413D01*
X109193692Y-109022047D01*
X109193699Y-109022053D01*
X109297389Y-109086255D01*
X109374981Y-109134298D01*
X109573802Y-109211321D01*
X109783390Y-109250500D01*
X109996610Y-109250500D01*
X110206198Y-109211321D01*
X110405019Y-109134298D01*
X110586302Y-109022052D01*
X110743872Y-108878407D01*
X110872366Y-108708255D01*
X110967405Y-108517389D01*
X111025756Y-108312310D01*
X111045429Y-108100000D01*
X111025756Y-107887690D01*
X110967405Y-107682611D01*
X110872366Y-107491745D01*
X110743872Y-107321593D01*
X110689623Y-107272139D01*
X110586307Y-107177952D01*
X110586300Y-107177946D01*
X110405024Y-107065705D01*
X110405019Y-107065702D01*
X110206195Y-106988678D01*
X109996610Y-106949500D01*
X109783390Y-106949500D01*
X109573804Y-106988678D01*
X109374980Y-107065702D01*
X109374975Y-107065705D01*
X109193699Y-107177946D01*
X109193692Y-107177952D01*
X109036135Y-107321586D01*
X109036131Y-107321589D01*
X109036128Y-107321593D01*
X109036125Y-107321597D01*
X108907635Y-107491743D01*
X108907630Y-107491752D01*
X108817087Y-107673589D01*
X108812595Y-107682611D01*
X108807435Y-107700747D01*
X108754244Y-107887688D01*
X108734571Y-108100000D01*
X108531500Y-108100000D01*
X108531500Y-100480000D01*
X108734571Y-100480000D01*
X108748350Y-100628708D01*
X108754244Y-100692310D01*
X108812595Y-100897389D01*
X108907634Y-101088255D01*
X109036128Y-101258407D01*
X109036135Y-101258413D01*
X109193692Y-101402047D01*
X109193699Y-101402053D01*
X109297389Y-101466255D01*
X109374981Y-101514298D01*
X109573802Y-101591321D01*
X109783390Y-101630500D01*
X109996610Y-101630500D01*
X110206198Y-101591321D01*
X110310908Y-101550755D01*
X110371998Y-101547366D01*
X110416674Y-101573067D01*
X111365504Y-102521897D01*
X111393281Y-102576414D01*
X111394500Y-102591901D01*
X111394500Y-103719099D01*
X111375593Y-103777290D01*
X111326093Y-103813254D01*
X111264907Y-103813254D01*
X111225496Y-103789103D01*
X110986650Y-103550257D01*
X110958873Y-103495740D01*
X110967111Y-103442182D01*
X110965752Y-103441656D01*
X110967400Y-103437398D01*
X110967405Y-103437389D01*
X111025756Y-103232310D01*
X111045429Y-103020000D01*
X111025756Y-102807690D01*
X110967405Y-102602611D01*
X110872366Y-102411745D01*
X110743872Y-102241593D01*
X110689623Y-102192139D01*
X110586307Y-102097952D01*
X110586300Y-102097946D01*
X110405024Y-101985705D01*
X110405019Y-101985702D01*
X110206195Y-101908678D01*
X109996610Y-101869500D01*
X109783390Y-101869500D01*
X109573804Y-101908678D01*
X109374980Y-101985702D01*
X109374975Y-101985705D01*
X109193699Y-102097946D01*
X109193692Y-102097952D01*
X109036135Y-102241586D01*
X109036131Y-102241589D01*
X109036128Y-102241593D01*
X109036125Y-102241597D01*
X108907635Y-102411743D01*
X108907630Y-102411752D01*
X108812596Y-102602608D01*
X108754244Y-102807688D01*
X108754244Y-102807690D01*
X108734571Y-103020000D01*
X108754244Y-103232310D01*
X108812595Y-103437389D01*
X108907634Y-103628255D01*
X109036128Y-103798407D01*
X109106734Y-103862773D01*
X109193692Y-103942047D01*
X109193699Y-103942053D01*
X109297389Y-104006255D01*
X109374981Y-104054298D01*
X109573802Y-104131321D01*
X109783390Y-104170500D01*
X109996610Y-104170500D01*
X110206198Y-104131321D01*
X110310908Y-104090755D01*
X110371998Y-104087366D01*
X110416674Y-104113067D01*
X115429504Y-109125896D01*
X115457281Y-109180413D01*
X115458500Y-109195900D01*
X115458500Y-110323099D01*
X115439593Y-110381290D01*
X115390093Y-110417254D01*
X115328907Y-110417254D01*
X115289496Y-110393103D01*
X110986650Y-106090257D01*
X110958873Y-106035740D01*
X110967111Y-105982182D01*
X110965752Y-105981656D01*
X110967400Y-105977398D01*
X110967405Y-105977389D01*
X111025756Y-105772310D01*
X111045429Y-105560000D01*
X111025756Y-105347690D01*
X110967405Y-105142611D01*
X110872366Y-104951745D01*
X110743872Y-104781593D01*
X110689623Y-104732139D01*
X110586307Y-104637952D01*
X110586300Y-104637946D01*
X110405024Y-104525705D01*
X110405019Y-104525702D01*
X110319657Y-104492633D01*
X110206198Y-104448679D01*
X110206197Y-104448678D01*
X110206195Y-104448678D01*
X109996610Y-104409500D01*
X109783390Y-104409500D01*
X109573804Y-104448678D01*
X109374980Y-104525702D01*
X109374975Y-104525705D01*
X109193699Y-104637946D01*
X109193692Y-104637952D01*
X109036135Y-104781586D01*
X109036131Y-104781589D01*
X109036128Y-104781593D01*
X109036125Y-104781597D01*
X108907635Y-104951743D01*
X108907630Y-104951752D01*
X108812596Y-105142608D01*
X108754244Y-105347688D01*
X108754244Y-105347690D01*
X108734571Y-105560000D01*
X108754244Y-105772310D01*
X108812595Y-105977389D01*
X108907634Y-106168255D01*
X109036128Y-106338407D01*
X109036135Y-106338413D01*
X109193692Y-106482047D01*
X109193699Y-106482053D01*
X109297389Y-106546255D01*
X109374981Y-106594298D01*
X109573802Y-106671321D01*
X109783390Y-106710500D01*
X109996610Y-106710500D01*
X110206198Y-106671321D01*
X110310908Y-106630755D01*
X110371998Y-106627366D01*
X110416674Y-106653067D01*
X115029504Y-111265897D01*
X115057281Y-111320414D01*
X115058500Y-111335901D01*
X115058500Y-113733099D01*
X115039593Y-113791290D01*
X114990093Y-113827254D01*
X114928907Y-113827254D01*
X114889496Y-113803103D01*
X112224496Y-111138103D01*
X112196719Y-111083586D01*
X112195500Y-111068099D01*
X112195500Y-110375071D01*
X112214407Y-110316880D01*
X112221715Y-110308324D01*
X112273566Y-110240750D01*
X112319536Y-110180841D01*
X112380044Y-110034762D01*
X112400682Y-109878000D01*
X112380044Y-109721238D01*
X112319537Y-109575161D01*
X112319537Y-109575160D01*
X112223286Y-109449723D01*
X112223285Y-109449722D01*
X112223282Y-109449718D01*
X112223277Y-109449714D01*
X112223276Y-109449713D01*
X112097838Y-109353462D01*
X111951766Y-109292957D01*
X111951758Y-109292955D01*
X111795001Y-109272318D01*
X111794999Y-109272318D01*
X111638241Y-109292955D01*
X111638233Y-109292957D01*
X111492161Y-109353462D01*
X111492160Y-109353462D01*
X111366723Y-109449713D01*
X111366713Y-109449723D01*
X111270462Y-109575160D01*
X111270462Y-109575161D01*
X111209957Y-109721233D01*
X111209955Y-109721241D01*
X111189318Y-109877999D01*
X111189318Y-109878000D01*
X111209955Y-110034758D01*
X111209957Y-110034766D01*
X111270462Y-110180838D01*
X111270462Y-110180839D01*
X111370668Y-110311431D01*
X111369283Y-110312493D01*
X111393279Y-110359569D01*
X111394500Y-110375071D01*
X111394500Y-111334216D01*
X111393042Y-111334216D01*
X111383241Y-111387082D01*
X111338856Y-111429197D01*
X111278194Y-111437180D01*
X111226236Y-111409843D01*
X110986650Y-111170257D01*
X110958873Y-111115740D01*
X110967111Y-111062182D01*
X110965752Y-111061656D01*
X110967400Y-111057398D01*
X110967405Y-111057389D01*
X111025756Y-110852310D01*
X111045429Y-110640000D01*
X111025756Y-110427690D01*
X110967405Y-110222611D01*
X110872366Y-110031745D01*
X110743872Y-109861593D01*
X110664688Y-109789407D01*
X110586307Y-109717952D01*
X110586300Y-109717946D01*
X110405024Y-109605705D01*
X110405019Y-109605702D01*
X110206195Y-109528678D01*
X109996610Y-109489500D01*
X109783390Y-109489500D01*
X109573804Y-109528678D01*
X109374980Y-109605702D01*
X109374975Y-109605705D01*
X109193699Y-109717946D01*
X109193692Y-109717952D01*
X109036135Y-109861586D01*
X109036131Y-109861589D01*
X109036128Y-109861593D01*
X109036125Y-109861597D01*
X108907635Y-110031743D01*
X108907630Y-110031752D01*
X108818794Y-110210161D01*
X108812595Y-110222611D01*
X108807435Y-110240747D01*
X108754244Y-110427688D01*
X108734571Y-110640000D01*
X108750864Y-110815839D01*
X108754244Y-110852310D01*
X108812595Y-111057389D01*
X108907634Y-111248255D01*
X109036128Y-111418407D01*
X109036135Y-111418413D01*
X109193692Y-111562047D01*
X109193699Y-111562053D01*
X109297389Y-111626255D01*
X109374981Y-111674298D01*
X109573802Y-111751321D01*
X109783390Y-111790500D01*
X109996610Y-111790500D01*
X110206198Y-111751321D01*
X110310908Y-111710755D01*
X110371998Y-111707366D01*
X110416674Y-111733067D01*
X113824322Y-115140714D01*
X113852099Y-115195231D01*
X113853318Y-115210718D01*
X113853318Y-115212000D01*
X113873955Y-115368758D01*
X113873957Y-115368766D01*
X113934462Y-115514838D01*
X113934462Y-115514839D01*
X114030713Y-115640276D01*
X114030718Y-115640282D01*
X114156159Y-115736536D01*
X114156160Y-115736536D01*
X114156161Y-115736537D01*
X114302233Y-115797042D01*
X114302238Y-115797044D01*
X114459000Y-115817682D01*
X114554225Y-115805145D01*
X114614384Y-115816295D01*
X114656502Y-115860677D01*
X114662773Y-115877675D01*
X114685794Y-115963592D01*
X114738516Y-116054908D01*
X114738517Y-116054909D01*
X114738518Y-116054910D01*
X114738520Y-116054913D01*
X115793107Y-117109500D01*
X116413348Y-117729741D01*
X116441125Y-117784258D01*
X116432904Y-117837818D01*
X116434249Y-117838339D01*
X116432598Y-117842598D01*
X116374244Y-118047688D01*
X116374244Y-118047690D01*
X116354571Y-118260000D01*
X116374244Y-118472310D01*
X116432595Y-118677389D01*
X116527634Y-118868255D01*
X116554316Y-118903588D01*
X116605103Y-118970839D01*
X116625082Y-119028670D01*
X116607253Y-119087201D01*
X116558427Y-119124073D01*
X116526099Y-119129500D01*
X116446901Y-119129500D01*
X116388710Y-119110593D01*
X116376897Y-119100504D01*
X110986650Y-113710257D01*
X110958873Y-113655740D01*
X110967111Y-113602182D01*
X110965752Y-113601656D01*
X110967400Y-113597398D01*
X110967405Y-113597389D01*
X111025756Y-113392310D01*
X111045429Y-113180000D01*
X111025756Y-112967690D01*
X110967405Y-112762611D01*
X110872366Y-112571745D01*
X110743872Y-112401593D01*
X110689623Y-112352139D01*
X110586307Y-112257952D01*
X110586300Y-112257946D01*
X110405024Y-112145705D01*
X110405019Y-112145702D01*
X110206195Y-112068678D01*
X109996610Y-112029500D01*
X109783390Y-112029500D01*
X109573804Y-112068678D01*
X109374980Y-112145702D01*
X109374975Y-112145705D01*
X109193699Y-112257946D01*
X109193692Y-112257952D01*
X109036135Y-112401586D01*
X109036131Y-112401589D01*
X109036128Y-112401593D01*
X109036125Y-112401597D01*
X108907635Y-112571743D01*
X108907630Y-112571752D01*
X108813916Y-112759958D01*
X108812595Y-112762611D01*
X108807435Y-112780747D01*
X108754244Y-112967688D01*
X108754244Y-112967690D01*
X108734571Y-113180000D01*
X108754244Y-113392310D01*
X108812595Y-113597389D01*
X108907634Y-113788255D01*
X109036128Y-113958407D01*
X109036135Y-113958413D01*
X109193692Y-114102047D01*
X109193699Y-114102053D01*
X109238057Y-114129518D01*
X109374981Y-114214298D01*
X109573802Y-114291321D01*
X109783390Y-114330500D01*
X109996610Y-114330500D01*
X110206198Y-114291321D01*
X110310908Y-114250755D01*
X110371998Y-114247366D01*
X110416674Y-114273067D01*
X115994087Y-119850480D01*
X115994089Y-119850481D01*
X115994090Y-119850482D01*
X115994091Y-119850483D01*
X116085408Y-119903205D01*
X116085406Y-119903205D01*
X116085410Y-119903206D01*
X116085412Y-119903207D01*
X116187273Y-119930500D01*
X116526099Y-119930500D01*
X116584290Y-119949407D01*
X116620254Y-119998907D01*
X116620254Y-120060093D01*
X116605103Y-120089161D01*
X116527635Y-120191743D01*
X116527630Y-120191752D01*
X116432596Y-120382608D01*
X116374244Y-120587688D01*
X116374244Y-120587690D01*
X116354571Y-120800000D01*
X116374244Y-121012310D01*
X116432595Y-121217389D01*
X116527634Y-121408255D01*
X116656128Y-121578407D01*
X116656135Y-121578413D01*
X116813692Y-121722047D01*
X116813699Y-121722053D01*
X116917389Y-121786255D01*
X116994981Y-121834298D01*
X117193802Y-121911321D01*
X117403390Y-121950500D01*
X117616610Y-121950500D01*
X117826198Y-121911321D01*
X118025019Y-121834298D01*
X118206302Y-121722052D01*
X118363872Y-121578407D01*
X118492366Y-121408255D01*
X118587405Y-121217389D01*
X118645756Y-121012310D01*
X118661505Y-120842346D01*
X118685700Y-120786151D01*
X118738307Y-120754907D01*
X118799231Y-120760553D01*
X118830086Y-120781479D01*
X119112504Y-121063897D01*
X119140281Y-121118414D01*
X119141500Y-121133901D01*
X119141500Y-121509273D01*
X119141500Y-121614727D01*
X119159520Y-121681980D01*
X119168794Y-121716592D01*
X119221516Y-121807908D01*
X119221517Y-121807909D01*
X119221518Y-121807910D01*
X119221520Y-121807913D01*
X119744802Y-122331195D01*
X120262663Y-122849056D01*
X120290440Y-122903573D01*
X120287880Y-122946152D01*
X120233603Y-123136915D01*
X120233603Y-123136917D01*
X120214785Y-123340000D01*
X120233603Y-123543083D01*
X120281875Y-123712741D01*
X120289419Y-123739252D01*
X120329137Y-123819018D01*
X120380327Y-123921821D01*
X120477759Y-124050842D01*
X120497737Y-124108670D01*
X120479908Y-124167201D01*
X120431082Y-124204073D01*
X120398754Y-124209500D01*
X118493901Y-124209500D01*
X118435710Y-124190593D01*
X118399746Y-124141093D01*
X118399746Y-124079907D01*
X118414897Y-124050839D01*
X118492366Y-123948255D01*
X118587405Y-123757389D01*
X118645756Y-123552310D01*
X118665429Y-123340000D01*
X118645756Y-123127690D01*
X118587405Y-122922611D01*
X118492366Y-122731745D01*
X118363872Y-122561593D01*
X118297611Y-122501188D01*
X118206307Y-122417952D01*
X118206300Y-122417946D01*
X118025024Y-122305705D01*
X118025019Y-122305702D01*
X117826195Y-122228678D01*
X117616610Y-122189500D01*
X117403390Y-122189500D01*
X117193804Y-122228678D01*
X116994980Y-122305702D01*
X116994975Y-122305705D01*
X116813699Y-122417946D01*
X116813692Y-122417952D01*
X116656135Y-122561586D01*
X116656131Y-122561589D01*
X116656128Y-122561593D01*
X116656125Y-122561597D01*
X116527635Y-122731743D01*
X116527630Y-122731752D01*
X116432596Y-122922608D01*
X116374244Y-123127688D01*
X116374244Y-123127690D01*
X116354571Y-123340000D01*
X116374244Y-123552310D01*
X116432595Y-123757389D01*
X116527634Y-123948255D01*
X116656128Y-124118407D01*
X116660511Y-124122403D01*
X116690779Y-124175576D01*
X116684011Y-124236386D01*
X116643321Y-124281301D01*
X116629089Y-124289518D01*
X115468103Y-125450504D01*
X115413586Y-125478281D01*
X115398099Y-125479500D01*
X111037113Y-125479500D01*
X110978922Y-125460593D01*
X110948492Y-125424628D01*
X110908856Y-125345027D01*
X110872366Y-125271745D01*
X110743872Y-125101593D01*
X110649902Y-125015927D01*
X110586307Y-124957952D01*
X110586300Y-124957946D01*
X110405024Y-124845705D01*
X110405019Y-124845702D01*
X110206195Y-124768678D01*
X109996610Y-124729500D01*
X109783390Y-124729500D01*
X109573804Y-124768678D01*
X109374980Y-124845702D01*
X109374975Y-124845705D01*
X109193699Y-124957946D01*
X109193692Y-124957952D01*
X109036135Y-125101586D01*
X109036131Y-125101589D01*
X109036128Y-125101593D01*
X109036125Y-125101597D01*
X108907635Y-125271743D01*
X108907630Y-125271752D01*
X108812596Y-125462608D01*
X108812595Y-125462611D01*
X108807790Y-125479500D01*
X108754244Y-125667688D01*
X108754244Y-125667690D01*
X108734571Y-125880000D01*
X108754244Y-126092310D01*
X108812595Y-126297389D01*
X108907634Y-126488255D01*
X109036128Y-126658407D01*
X109036135Y-126658413D01*
X109193692Y-126802047D01*
X109193699Y-126802053D01*
X109297389Y-126866255D01*
X109374981Y-126914298D01*
X109573802Y-126991321D01*
X109783390Y-127030500D01*
X109996610Y-127030500D01*
X110206198Y-126991321D01*
X110405019Y-126914298D01*
X110586302Y-126802052D01*
X110743872Y-126658407D01*
X110872366Y-126488255D01*
X110948492Y-126335372D01*
X110991354Y-126291710D01*
X111037113Y-126280500D01*
X115657725Y-126280500D01*
X115657727Y-126280500D01*
X115759588Y-126253207D01*
X115759590Y-126253205D01*
X115759592Y-126253205D01*
X115850908Y-126200483D01*
X115850908Y-126200482D01*
X115850913Y-126200480D01*
X116189913Y-125861478D01*
X116244430Y-125833701D01*
X116304862Y-125843272D01*
X116348127Y-125886537D01*
X116358494Y-125922346D01*
X116374244Y-126092310D01*
X116432595Y-126297389D01*
X116527634Y-126488255D01*
X116656128Y-126658407D01*
X116656135Y-126658413D01*
X116813692Y-126802047D01*
X116813699Y-126802053D01*
X116917389Y-126866255D01*
X116994981Y-126914298D01*
X117193802Y-126991321D01*
X117403390Y-127030500D01*
X117616610Y-127030500D01*
X117826198Y-126991321D01*
X118025019Y-126914298D01*
X118206302Y-126802052D01*
X118363872Y-126658407D01*
X118492366Y-126488255D01*
X118587405Y-126297389D01*
X118645756Y-126092310D01*
X118665429Y-125880000D01*
X118645756Y-125667690D01*
X118587405Y-125462611D01*
X118492366Y-125271745D01*
X118414896Y-125169159D01*
X118394918Y-125111330D01*
X118412747Y-125052799D01*
X118461573Y-125015927D01*
X118493901Y-125010500D01*
X122017325Y-125010500D01*
X122017327Y-125010500D01*
X122119188Y-124983207D01*
X122119190Y-124983205D01*
X122119192Y-124983205D01*
X122210508Y-124930483D01*
X122210508Y-124930482D01*
X122210513Y-124930480D01*
X123293314Y-123847677D01*
X123347831Y-123819901D01*
X123359047Y-123819018D01*
X123361599Y-123818681D01*
X123361600Y-123818682D01*
X123449178Y-123807152D01*
X123509339Y-123818302D01*
X123551456Y-123862684D01*
X123561100Y-123905305D01*
X123561100Y-124809499D01*
X123542193Y-124867690D01*
X123532104Y-124879503D01*
X119151103Y-129260504D01*
X119096586Y-129288281D01*
X119081099Y-129289500D01*
X118493901Y-129289500D01*
X118435710Y-129270593D01*
X118399746Y-129221093D01*
X118399746Y-129159907D01*
X118414897Y-129130839D01*
X118492366Y-129028255D01*
X118587405Y-128837389D01*
X118645756Y-128632310D01*
X118665429Y-128420000D01*
X118645756Y-128207690D01*
X118587405Y-128002611D01*
X118492366Y-127811745D01*
X118363872Y-127641593D01*
X118309623Y-127592139D01*
X118206307Y-127497952D01*
X118206300Y-127497946D01*
X118025024Y-127385705D01*
X118025019Y-127385702D01*
X117826195Y-127308678D01*
X117616610Y-127269500D01*
X117403390Y-127269500D01*
X117193804Y-127308678D01*
X116994980Y-127385702D01*
X116994975Y-127385705D01*
X116813699Y-127497946D01*
X116813692Y-127497952D01*
X116656135Y-127641586D01*
X116656131Y-127641589D01*
X116656128Y-127641593D01*
X116656125Y-127641597D01*
X116527635Y-127811743D01*
X116527630Y-127811752D01*
X116432596Y-128002608D01*
X116374244Y-128207688D01*
X116374244Y-128207690D01*
X116354571Y-128420000D01*
X116374244Y-128632310D01*
X116432595Y-128837389D01*
X116527634Y-129028255D01*
X116656128Y-129198407D01*
X116660511Y-129202403D01*
X116690779Y-129255576D01*
X116684011Y-129316386D01*
X116643321Y-129361301D01*
X116629089Y-129369518D01*
X115468103Y-130530504D01*
X115413586Y-130558281D01*
X115398099Y-130559500D01*
X111037113Y-130559500D01*
X110978922Y-130540593D01*
X110948492Y-130504628D01*
X110872369Y-130351752D01*
X110872366Y-130351745D01*
X110743872Y-130181593D01*
X110649902Y-130095927D01*
X110586307Y-130037952D01*
X110586300Y-130037946D01*
X110405024Y-129925705D01*
X110405019Y-129925702D01*
X110206195Y-129848678D01*
X109996610Y-129809500D01*
X109783390Y-129809500D01*
X109573804Y-129848678D01*
X109374980Y-129925702D01*
X109374975Y-129925705D01*
X109193699Y-130037946D01*
X109193692Y-130037952D01*
X109036135Y-130181586D01*
X109036131Y-130181589D01*
X109036128Y-130181593D01*
X109036125Y-130181597D01*
X108907635Y-130351743D01*
X108907630Y-130351752D01*
X108812596Y-130542608D01*
X108812595Y-130542611D01*
X108807790Y-130559500D01*
X108754244Y-130747688D01*
X108754244Y-130747690D01*
X108734571Y-130960000D01*
X108754244Y-131172310D01*
X108812595Y-131377389D01*
X108907634Y-131568255D01*
X109036128Y-131738407D01*
X109036135Y-131738413D01*
X109193692Y-131882047D01*
X109193699Y-131882053D01*
X109297389Y-131946255D01*
X109374981Y-131994298D01*
X109573802Y-132071321D01*
X109783390Y-132110500D01*
X109996610Y-132110500D01*
X110206198Y-132071321D01*
X110405019Y-131994298D01*
X110586302Y-131882052D01*
X110743872Y-131738407D01*
X110872366Y-131568255D01*
X110948492Y-131415372D01*
X110991354Y-131371710D01*
X111037113Y-131360500D01*
X115657725Y-131360500D01*
X115657727Y-131360500D01*
X115759588Y-131333207D01*
X115759590Y-131333205D01*
X115759592Y-131333205D01*
X115850908Y-131280483D01*
X115850908Y-131280482D01*
X115850913Y-131280480D01*
X116189913Y-130941478D01*
X116244430Y-130913701D01*
X116304862Y-130923272D01*
X116348127Y-130966537D01*
X116358494Y-131002346D01*
X116374244Y-131172310D01*
X116432595Y-131377389D01*
X116527634Y-131568255D01*
X116656128Y-131738407D01*
X116656135Y-131738413D01*
X116813692Y-131882047D01*
X116813699Y-131882053D01*
X116917389Y-131946255D01*
X116994981Y-131994298D01*
X117193802Y-132071321D01*
X117403390Y-132110500D01*
X117616610Y-132110500D01*
X117826198Y-132071321D01*
X118025019Y-131994298D01*
X118206302Y-131882052D01*
X118363872Y-131738407D01*
X118492366Y-131568255D01*
X118587405Y-131377389D01*
X118645756Y-131172310D01*
X118665429Y-130960000D01*
X118645756Y-130747690D01*
X118587405Y-130542611D01*
X118492366Y-130351745D01*
X118414896Y-130249159D01*
X118394918Y-130191330D01*
X118412747Y-130132799D01*
X118461573Y-130095927D01*
X118493901Y-130090500D01*
X119340725Y-130090500D01*
X119340727Y-130090500D01*
X119442588Y-130063207D01*
X119442590Y-130063205D01*
X119442592Y-130063205D01*
X119533908Y-130010483D01*
X119533908Y-130010482D01*
X119533913Y-130010480D01*
X124207510Y-125336881D01*
X124207513Y-125336880D01*
X124282080Y-125262313D01*
X124334807Y-125170987D01*
X124359321Y-125079500D01*
X124359321Y-125079499D01*
X124359322Y-125079499D01*
X124359322Y-125079494D01*
X124362101Y-125069126D01*
X124362101Y-124963673D01*
X124362101Y-124957611D01*
X124362100Y-124957593D01*
X124362100Y-95562314D01*
X124362101Y-95562301D01*
X124362101Y-95448872D01*
X124362100Y-95448870D01*
X124334808Y-95347016D01*
X124334807Y-95347013D01*
X124325565Y-95331005D01*
X124325565Y-95331004D01*
X124301253Y-95288896D01*
X124282080Y-95255687D01*
X124207513Y-95181120D01*
X124207510Y-95181118D01*
X123315070Y-94288678D01*
X122377336Y-93350943D01*
X122349559Y-93296426D01*
X122352118Y-93253848D01*
X122406397Y-93063083D01*
X122425215Y-92860000D01*
X122406397Y-92656917D01*
X122350582Y-92460750D01*
X122259673Y-92278179D01*
X122136764Y-92115421D01*
X121986041Y-91978019D01*
X121812637Y-91870652D01*
X121622456Y-91796976D01*
X121622455Y-91796975D01*
X121622453Y-91796975D01*
X121421976Y-91759500D01*
X121218024Y-91759500D01*
X121017546Y-91796975D01*
X120947632Y-91824059D01*
X120827363Y-91870652D01*
X120718676Y-91937948D01*
X120653959Y-91978019D01*
X120503237Y-92115420D01*
X120380328Y-92278177D01*
X120380323Y-92278186D01*
X120298450Y-92442611D01*
X120289418Y-92460750D01*
X120233603Y-92656917D01*
X120214785Y-92860000D01*
X120233603Y-93063083D01*
X120289418Y-93259250D01*
X120380327Y-93441821D01*
X120503236Y-93604579D01*
X120653959Y-93741981D01*
X120827363Y-93849348D01*
X121017544Y-93923024D01*
X121218024Y-93960500D01*
X121421976Y-93960500D01*
X121622456Y-93923024D01*
X121702259Y-93892107D01*
X121763351Y-93888718D01*
X121808026Y-93914419D01*
X123532104Y-95638496D01*
X123559881Y-95693013D01*
X123561100Y-95708500D01*
X123561100Y-99375699D01*
X123542193Y-99433890D01*
X123492693Y-99469854D01*
X123431507Y-99469854D01*
X123392096Y-99445703D01*
X122377336Y-98430943D01*
X122349559Y-98376426D01*
X122352118Y-98333848D01*
X122406397Y-98143083D01*
X122425215Y-97940000D01*
X122406397Y-97736917D01*
X122350582Y-97540750D01*
X122259673Y-97358179D01*
X122136764Y-97195421D01*
X121986041Y-97058019D01*
X121812637Y-96950652D01*
X121622456Y-96876976D01*
X121622455Y-96876975D01*
X121622453Y-96876975D01*
X121421976Y-96839500D01*
X121218024Y-96839500D01*
X121017546Y-96876975D01*
X120967371Y-96896413D01*
X120827363Y-96950652D01*
X120718676Y-97017948D01*
X120653959Y-97058019D01*
X120503237Y-97195420D01*
X120380328Y-97358177D01*
X120380323Y-97358186D01*
X120298450Y-97522611D01*
X120289418Y-97540750D01*
X120233603Y-97736917D01*
X120214785Y-97940000D01*
X120233603Y-98143083D01*
X120289418Y-98339250D01*
X120380327Y-98521821D01*
X120503236Y-98684579D01*
X120653959Y-98821981D01*
X120827363Y-98929348D01*
X121017544Y-99003024D01*
X121218024Y-99040500D01*
X121421976Y-99040500D01*
X121622456Y-99003024D01*
X121702259Y-98972107D01*
X121763351Y-98968718D01*
X121808026Y-98994419D01*
X122922504Y-100108897D01*
X122950281Y-100163414D01*
X122951500Y-100178901D01*
X122951500Y-107566398D01*
X122932593Y-107624589D01*
X122922504Y-107636402D01*
X122577195Y-107981711D01*
X122522678Y-108009488D01*
X122462246Y-107999917D01*
X122418981Y-107956652D01*
X122408614Y-107920845D01*
X122406397Y-107896917D01*
X122350582Y-107700750D01*
X122259673Y-107518179D01*
X122136764Y-107355421D01*
X121986041Y-107218019D01*
X121812637Y-107110652D01*
X121622456Y-107036976D01*
X121622455Y-107036975D01*
X121622453Y-107036975D01*
X121421976Y-106999500D01*
X121218024Y-106999500D01*
X121017544Y-107036975D01*
X120937739Y-107067892D01*
X120876648Y-107071282D01*
X120831973Y-107045581D01*
X120409416Y-106623024D01*
X119971496Y-106185103D01*
X119943719Y-106130586D01*
X119942500Y-106115099D01*
X119942500Y-105560000D01*
X120214785Y-105560000D01*
X120233603Y-105763083D01*
X120289418Y-105959250D01*
X120380327Y-106141821D01*
X120503236Y-106304579D01*
X120653959Y-106441981D01*
X120827363Y-106549348D01*
X121017544Y-106623024D01*
X121218024Y-106660500D01*
X121421976Y-106660500D01*
X121622456Y-106623024D01*
X121812637Y-106549348D01*
X121986041Y-106441981D01*
X122136764Y-106304579D01*
X122259673Y-106141821D01*
X122350582Y-105959250D01*
X122406397Y-105763083D01*
X122425215Y-105560000D01*
X122406397Y-105356917D01*
X122350582Y-105160750D01*
X122259673Y-104978179D01*
X122136764Y-104815421D01*
X121986041Y-104678019D01*
X121812637Y-104570652D01*
X121622456Y-104496976D01*
X121622455Y-104496975D01*
X121622453Y-104496975D01*
X121421976Y-104459500D01*
X121218024Y-104459500D01*
X121017546Y-104496975D01*
X120995334Y-104505580D01*
X120827363Y-104570652D01*
X120718676Y-104637948D01*
X120653959Y-104678019D01*
X120503237Y-104815420D01*
X120380328Y-104978177D01*
X120380323Y-104978186D01*
X120298450Y-105142611D01*
X120289418Y-105160750D01*
X120233603Y-105356917D01*
X120214785Y-105560000D01*
X119942500Y-105560000D01*
X119942500Y-104999274D01*
X119942500Y-104999273D01*
X119929765Y-104951745D01*
X119915207Y-104897412D01*
X119908680Y-104886107D01*
X119862483Y-104806091D01*
X119862482Y-104806090D01*
X119862481Y-104806089D01*
X119862480Y-104806087D01*
X118606650Y-103550257D01*
X118578873Y-103495740D01*
X118587111Y-103442182D01*
X118585752Y-103441656D01*
X118587400Y-103437398D01*
X118587405Y-103437389D01*
X118645756Y-103232310D01*
X118665429Y-103020000D01*
X118645756Y-102807690D01*
X118587405Y-102602611D01*
X118492366Y-102411745D01*
X118363872Y-102241593D01*
X118309623Y-102192139D01*
X118206307Y-102097952D01*
X118206300Y-102097946D01*
X118025024Y-101985705D01*
X118025019Y-101985702D01*
X117826195Y-101908678D01*
X117616610Y-101869500D01*
X117403390Y-101869500D01*
X117193804Y-101908678D01*
X116994980Y-101985702D01*
X116994975Y-101985705D01*
X116813699Y-102097946D01*
X116813692Y-102097952D01*
X116656135Y-102241586D01*
X116656131Y-102241589D01*
X116656128Y-102241593D01*
X116656125Y-102241597D01*
X116527635Y-102411743D01*
X116527630Y-102411752D01*
X116432596Y-102602608D01*
X116374244Y-102807688D01*
X116374244Y-102807690D01*
X116354571Y-103020000D01*
X116374244Y-103232310D01*
X116432595Y-103437389D01*
X116527634Y-103628255D01*
X116656128Y-103798407D01*
X116726734Y-103862773D01*
X116813692Y-103942047D01*
X116813699Y-103942053D01*
X116917389Y-104006255D01*
X116994981Y-104054298D01*
X117193802Y-104131321D01*
X117403390Y-104170500D01*
X117616610Y-104170500D01*
X117826198Y-104131321D01*
X117930908Y-104090755D01*
X117991998Y-104087366D01*
X118036674Y-104113067D01*
X119112504Y-105188897D01*
X119140281Y-105243414D01*
X119141500Y-105258901D01*
X119141500Y-106269273D01*
X119141500Y-106374727D01*
X119159520Y-106441980D01*
X119168794Y-106476592D01*
X119221516Y-106567908D01*
X119221517Y-106567909D01*
X119221518Y-106567910D01*
X119221520Y-106567913D01*
X119744801Y-107091194D01*
X120262663Y-107609056D01*
X120290440Y-107663573D01*
X120287880Y-107706152D01*
X120233603Y-107896915D01*
X120233603Y-107896917D01*
X120214785Y-108100000D01*
X120233603Y-108303083D01*
X120289418Y-108499250D01*
X120380327Y-108681821D01*
X120477759Y-108810842D01*
X120497737Y-108868670D01*
X120479908Y-108927201D01*
X120431082Y-108964073D01*
X120398754Y-108969500D01*
X118986901Y-108969500D01*
X118928710Y-108950593D01*
X118916897Y-108940504D01*
X118606650Y-108630257D01*
X118578873Y-108575740D01*
X118587111Y-108522182D01*
X118585752Y-108521656D01*
X118587400Y-108517398D01*
X118587405Y-108517389D01*
X118645756Y-108312310D01*
X118665429Y-108100000D01*
X118645756Y-107887690D01*
X118587405Y-107682611D01*
X118492366Y-107491745D01*
X118363872Y-107321593D01*
X118309623Y-107272139D01*
X118206307Y-107177952D01*
X118206300Y-107177946D01*
X118025024Y-107065705D01*
X118025019Y-107065702D01*
X117826195Y-106988678D01*
X117616610Y-106949500D01*
X117403390Y-106949500D01*
X117193804Y-106988678D01*
X116994980Y-107065702D01*
X116994975Y-107065705D01*
X116813699Y-107177946D01*
X116813692Y-107177952D01*
X116656135Y-107321586D01*
X116656131Y-107321589D01*
X116656128Y-107321593D01*
X116656125Y-107321597D01*
X116527635Y-107491743D01*
X116527630Y-107491752D01*
X116437087Y-107673589D01*
X116432595Y-107682611D01*
X116427435Y-107700747D01*
X116374244Y-107887688D01*
X116358495Y-108057651D01*
X116334299Y-108113849D01*
X116281691Y-108145092D01*
X116220767Y-108139446D01*
X116189913Y-108118520D01*
X112224496Y-104153103D01*
X112196719Y-104098586D01*
X112195500Y-104083099D01*
X112195500Y-102332274D01*
X112195500Y-102332273D01*
X112168207Y-102230413D01*
X112168207Y-102230412D01*
X112168207Y-102230411D01*
X112115483Y-102139091D01*
X112115482Y-102139090D01*
X112115481Y-102139089D01*
X112115480Y-102139087D01*
X110986650Y-101010257D01*
X110958873Y-100955740D01*
X110967111Y-100902182D01*
X110965752Y-100901656D01*
X110967400Y-100897398D01*
X110967405Y-100897389D01*
X111025756Y-100692310D01*
X111045429Y-100480000D01*
X111025756Y-100267690D01*
X110967405Y-100062611D01*
X110872366Y-99871745D01*
X110743872Y-99701593D01*
X110648563Y-99614707D01*
X110586307Y-99557952D01*
X110586300Y-99557946D01*
X110405024Y-99445705D01*
X110405019Y-99445702D01*
X110234130Y-99379500D01*
X110206198Y-99368679D01*
X110206197Y-99368678D01*
X110206195Y-99368678D01*
X109996610Y-99329500D01*
X109783390Y-99329500D01*
X109573804Y-99368678D01*
X109374980Y-99445702D01*
X109374975Y-99445705D01*
X109193699Y-99557946D01*
X109193692Y-99557952D01*
X109036135Y-99701586D01*
X109036131Y-99701589D01*
X109036128Y-99701593D01*
X109036125Y-99701597D01*
X108907635Y-99871743D01*
X108907630Y-99871752D01*
X108812596Y-100062608D01*
X108754244Y-100267688D01*
X108734571Y-100480000D01*
X108531500Y-100480000D01*
X108531500Y-97940000D01*
X108734571Y-97940000D01*
X108754244Y-98152310D01*
X108812595Y-98357389D01*
X108907634Y-98548255D01*
X109036128Y-98718407D01*
X109098839Y-98775576D01*
X109193692Y-98862047D01*
X109193699Y-98862053D01*
X109278104Y-98914314D01*
X109374981Y-98974298D01*
X109573802Y-99051321D01*
X109783390Y-99090500D01*
X109996610Y-99090500D01*
X110206198Y-99051321D01*
X110405019Y-98974298D01*
X110586302Y-98862052D01*
X110743872Y-98718407D01*
X110872366Y-98548255D01*
X110967405Y-98357389D01*
X111025756Y-98152310D01*
X111045429Y-97940000D01*
X111025756Y-97727690D01*
X110967405Y-97522611D01*
X110872366Y-97331745D01*
X110743872Y-97161593D01*
X110645286Y-97071719D01*
X110586307Y-97017952D01*
X110586300Y-97017946D01*
X110405024Y-96905705D01*
X110405019Y-96905702D01*
X110381041Y-96896413D01*
X110206198Y-96828679D01*
X110206197Y-96828678D01*
X110206195Y-96828678D01*
X109996610Y-96789500D01*
X109783390Y-96789500D01*
X109573804Y-96828678D01*
X109374980Y-96905702D01*
X109374975Y-96905705D01*
X109193699Y-97017946D01*
X109193692Y-97017952D01*
X109036135Y-97161586D01*
X109036131Y-97161589D01*
X109036128Y-97161593D01*
X109036125Y-97161597D01*
X108907635Y-97331743D01*
X108907630Y-97331752D01*
X108812596Y-97522608D01*
X108754244Y-97727688D01*
X108754244Y-97727689D01*
X108754244Y-97727690D01*
X108734571Y-97940000D01*
X108531500Y-97940000D01*
X108531500Y-97365900D01*
X108550407Y-97307709D01*
X108560496Y-97295896D01*
X108959981Y-96896411D01*
X109363326Y-96493065D01*
X109417841Y-96465290D01*
X109469090Y-96470756D01*
X109573802Y-96511321D01*
X109783390Y-96550500D01*
X109996610Y-96550500D01*
X110206198Y-96511321D01*
X110405019Y-96434298D01*
X110586302Y-96322052D01*
X110743872Y-96178407D01*
X110872366Y-96008255D01*
X110967405Y-95817389D01*
X111025756Y-95612310D01*
X111045429Y-95400000D01*
X111025756Y-95187690D01*
X110967405Y-94982611D01*
X110872366Y-94791745D01*
X110743872Y-94621593D01*
X110689623Y-94572139D01*
X110586307Y-94477952D01*
X110586300Y-94477946D01*
X110405024Y-94365705D01*
X110405019Y-94365702D01*
X110206195Y-94288678D01*
X109996610Y-94249500D01*
X109783390Y-94249500D01*
X109573804Y-94288678D01*
X109374980Y-94365702D01*
X109374975Y-94365705D01*
X109193699Y-94477946D01*
X109193692Y-94477952D01*
X109036135Y-94621586D01*
X109036131Y-94621589D01*
X109036128Y-94621593D01*
X109036125Y-94621597D01*
X108907635Y-94791743D01*
X108907630Y-94791752D01*
X108812596Y-94982608D01*
X108754244Y-95187688D01*
X108734571Y-95400000D01*
X108754244Y-95612311D01*
X108812598Y-95817401D01*
X108814249Y-95821661D01*
X108812870Y-95822195D01*
X108820977Y-95876647D01*
X108793348Y-95930257D01*
X108300504Y-96423102D01*
X108245987Y-96450879D01*
X108185555Y-96441308D01*
X108142290Y-96398043D01*
X108131500Y-96353098D01*
X108131500Y-95225900D01*
X108150407Y-95167709D01*
X108160490Y-95155902D01*
X109363326Y-93953065D01*
X109417841Y-93925290D01*
X109469090Y-93930756D01*
X109573802Y-93971321D01*
X109783390Y-94010500D01*
X109996610Y-94010500D01*
X110206198Y-93971321D01*
X110405019Y-93894298D01*
X110586302Y-93782052D01*
X110743872Y-93638407D01*
X110872366Y-93468255D01*
X110967405Y-93277389D01*
X111025756Y-93072310D01*
X111045429Y-92860000D01*
X111039050Y-92791158D01*
X111052506Y-92731475D01*
X111098476Y-92691097D01*
X111159401Y-92685451D01*
X111207631Y-92712023D01*
X114141518Y-95645910D01*
X114141520Y-95645913D01*
X114216087Y-95720480D01*
X114262910Y-95747513D01*
X114307413Y-95773207D01*
X114409270Y-95800500D01*
X114409272Y-95800501D01*
X114409273Y-95800501D01*
X114520790Y-95800501D01*
X114520806Y-95800500D01*
X116362887Y-95800500D01*
X116421078Y-95819407D01*
X116451508Y-95855372D01*
X116527630Y-96008247D01*
X116527635Y-96008256D01*
X116605103Y-96110839D01*
X116625082Y-96168670D01*
X116607253Y-96227201D01*
X116558427Y-96264073D01*
X116526099Y-96269500D01*
X115480427Y-96269500D01*
X115374973Y-96269500D01*
X115312629Y-96286204D01*
X115273107Y-96296794D01*
X115181791Y-96349516D01*
X115181790Y-96349517D01*
X112727134Y-98804172D01*
X112672617Y-98831949D01*
X112661405Y-98832831D01*
X112502091Y-98853805D01*
X112502083Y-98853807D01*
X112356011Y-98914312D01*
X112356010Y-98914312D01*
X112230573Y-99010563D01*
X112230563Y-99010573D01*
X112134312Y-99136010D01*
X112134312Y-99136011D01*
X112073807Y-99282083D01*
X112073805Y-99282091D01*
X112053168Y-99438849D01*
X112053168Y-99438850D01*
X112073805Y-99595608D01*
X112073807Y-99595616D01*
X112134312Y-99741688D01*
X112134312Y-99741689D01*
X112134314Y-99741691D01*
X112230568Y-99867132D01*
X112356009Y-99963386D01*
X112502088Y-100023894D01*
X112619659Y-100039372D01*
X112658849Y-100044532D01*
X112658850Y-100044532D01*
X112658851Y-100044532D01*
X112690202Y-100040404D01*
X112815612Y-100023894D01*
X112961691Y-99963386D01*
X113087132Y-99867132D01*
X113183386Y-99741691D01*
X113243894Y-99595612D01*
X113264532Y-99438850D01*
X113264532Y-99438849D01*
X113265379Y-99432417D01*
X113267106Y-99432644D01*
X113283439Y-99382377D01*
X113293528Y-99370564D01*
X115564597Y-97099496D01*
X115619114Y-97071719D01*
X115634601Y-97070500D01*
X116526099Y-97070500D01*
X116584290Y-97089407D01*
X116620254Y-97138907D01*
X116620254Y-97200093D01*
X116605103Y-97229161D01*
X116527635Y-97331743D01*
X116527630Y-97331752D01*
X116432596Y-97522608D01*
X116374244Y-97727688D01*
X116374244Y-97727689D01*
X116374244Y-97727690D01*
X116354571Y-97940000D01*
X116374244Y-98152310D01*
X116432595Y-98357389D01*
X116527634Y-98548255D01*
X116656128Y-98718407D01*
X116660511Y-98722403D01*
X116690779Y-98775576D01*
X116684011Y-98836386D01*
X116643321Y-98881301D01*
X116629089Y-98889518D01*
X115284516Y-100234091D01*
X115231793Y-100325411D01*
X115231792Y-100325411D01*
X115231793Y-100325412D01*
X115231793Y-100325413D01*
X115204500Y-100427273D01*
X115204500Y-103602273D01*
X115204500Y-103707727D01*
X115219733Y-103764579D01*
X115231794Y-103809592D01*
X115284516Y-103900908D01*
X115284517Y-103900909D01*
X115284518Y-103900910D01*
X115284520Y-103900913D01*
X115850539Y-104466932D01*
X116413348Y-105029741D01*
X116441125Y-105084258D01*
X116432904Y-105137818D01*
X116434249Y-105138339D01*
X116432598Y-105142598D01*
X116374244Y-105347688D01*
X116374244Y-105347690D01*
X116354571Y-105560000D01*
X116374244Y-105772310D01*
X116432595Y-105977389D01*
X116527634Y-106168255D01*
X116656128Y-106338407D01*
X116656135Y-106338413D01*
X116813692Y-106482047D01*
X116813699Y-106482053D01*
X116917389Y-106546255D01*
X116994981Y-106594298D01*
X117193802Y-106671321D01*
X117403390Y-106710500D01*
X117616610Y-106710500D01*
X117826198Y-106671321D01*
X118025019Y-106594298D01*
X118206302Y-106482052D01*
X118363872Y-106338407D01*
X118492366Y-106168255D01*
X118587405Y-105977389D01*
X118645756Y-105772310D01*
X118665429Y-105560000D01*
X118645756Y-105347690D01*
X118587405Y-105142611D01*
X118492366Y-104951745D01*
X118363872Y-104781593D01*
X118309623Y-104732139D01*
X118206307Y-104637952D01*
X118206300Y-104637946D01*
X118025024Y-104525705D01*
X118025019Y-104525702D01*
X117939657Y-104492633D01*
X117826198Y-104448679D01*
X117826197Y-104448678D01*
X117826195Y-104448678D01*
X117616610Y-104409500D01*
X117403390Y-104409500D01*
X117193802Y-104448678D01*
X117089091Y-104489243D01*
X117028000Y-104492633D01*
X116983325Y-104466932D01*
X116034496Y-103518103D01*
X116006719Y-103463586D01*
X116005500Y-103448099D01*
X116005500Y-100686899D01*
X116024407Y-100628708D01*
X116034484Y-100616908D01*
X116189916Y-100461476D01*
X116244430Y-100433701D01*
X116304862Y-100443272D01*
X116348127Y-100486537D01*
X116358495Y-100522347D01*
X116368350Y-100628708D01*
X116374244Y-100692310D01*
X116432595Y-100897389D01*
X116527634Y-101088255D01*
X116656128Y-101258407D01*
X116656135Y-101258413D01*
X116813692Y-101402047D01*
X116813699Y-101402053D01*
X116917389Y-101466255D01*
X116994981Y-101514298D01*
X117193802Y-101591321D01*
X117403390Y-101630500D01*
X117616610Y-101630500D01*
X117826198Y-101591321D01*
X118025019Y-101514298D01*
X118206302Y-101402052D01*
X118290426Y-101325361D01*
X118346166Y-101300131D01*
X118406092Y-101312483D01*
X118427126Y-101328519D01*
X120199331Y-103100724D01*
X120227108Y-103155241D01*
X120227905Y-103161592D01*
X120233603Y-103223084D01*
X120243280Y-103257094D01*
X120289418Y-103419250D01*
X120380327Y-103601821D01*
X120503236Y-103764579D01*
X120653959Y-103901981D01*
X120827363Y-104009348D01*
X121017544Y-104083024D01*
X121218024Y-104120500D01*
X121421976Y-104120500D01*
X121622456Y-104083024D01*
X121812637Y-104009348D01*
X121986041Y-103901981D01*
X122136764Y-103764579D01*
X122259673Y-103601821D01*
X122350582Y-103419250D01*
X122406397Y-103223083D01*
X122425215Y-103020000D01*
X122406397Y-102816917D01*
X122350582Y-102620750D01*
X122259673Y-102438179D01*
X122136764Y-102275421D01*
X121986041Y-102138019D01*
X121812637Y-102030652D01*
X121622456Y-101956976D01*
X121622455Y-101956975D01*
X121622453Y-101956975D01*
X121421976Y-101919500D01*
X121218024Y-101919500D01*
X121017546Y-101956975D01*
X120947632Y-101984059D01*
X120827363Y-102030652D01*
X120718670Y-102097952D01*
X120653956Y-102138021D01*
X120574964Y-102210031D01*
X120519223Y-102235260D01*
X120459297Y-102222907D01*
X120438265Y-102206872D01*
X118711393Y-100480000D01*
X120214785Y-100480000D01*
X120233603Y-100683083D01*
X120289418Y-100879250D01*
X120380327Y-101061821D01*
X120503236Y-101224579D01*
X120653959Y-101361981D01*
X120827363Y-101469348D01*
X121017544Y-101543024D01*
X121218024Y-101580500D01*
X121421976Y-101580500D01*
X121622456Y-101543024D01*
X121812637Y-101469348D01*
X121986041Y-101361981D01*
X122136764Y-101224579D01*
X122259673Y-101061821D01*
X122350582Y-100879250D01*
X122406397Y-100683083D01*
X122425215Y-100480000D01*
X122406397Y-100276917D01*
X122350582Y-100080750D01*
X122259673Y-99898179D01*
X122136764Y-99735421D01*
X121986041Y-99598019D01*
X121812637Y-99490652D01*
X121622456Y-99416976D01*
X121622455Y-99416975D01*
X121622453Y-99416975D01*
X121421976Y-99379500D01*
X121218024Y-99379500D01*
X121017546Y-99416975D01*
X120961083Y-99438849D01*
X120827363Y-99490652D01*
X120653959Y-99598019D01*
X120503236Y-99735421D01*
X120498503Y-99741689D01*
X120380328Y-99898177D01*
X120380323Y-99898186D01*
X120298450Y-100062611D01*
X120289418Y-100080750D01*
X120233603Y-100276917D01*
X120214785Y-100480000D01*
X118711393Y-100480000D01*
X118686009Y-100454616D01*
X118658232Y-100400099D01*
X118657438Y-100393773D01*
X118645756Y-100267690D01*
X118587405Y-100062611D01*
X118492366Y-99871745D01*
X118363872Y-99701593D01*
X118359485Y-99697593D01*
X118329220Y-99644422D01*
X118335989Y-99583612D01*
X118376681Y-99538696D01*
X118390913Y-99530480D01*
X119862480Y-98058913D01*
X119909931Y-97976725D01*
X119915169Y-97967653D01*
X119915179Y-97967634D01*
X119915206Y-97967588D01*
X119915207Y-97967587D01*
X119942500Y-97865727D01*
X119942500Y-97257900D01*
X119961407Y-97199709D01*
X119971496Y-97187896D01*
X120354305Y-96805087D01*
X120740437Y-96418954D01*
X120794952Y-96391179D01*
X120846197Y-96396644D01*
X121017544Y-96463024D01*
X121218024Y-96500500D01*
X121421976Y-96500500D01*
X121622456Y-96463024D01*
X121812637Y-96389348D01*
X121986041Y-96281981D01*
X122136764Y-96144579D01*
X122259673Y-95981821D01*
X122350582Y-95799250D01*
X122406397Y-95603083D01*
X122425215Y-95400000D01*
X122406397Y-95196917D01*
X122350582Y-95000750D01*
X122259673Y-94818179D01*
X122136764Y-94655421D01*
X121986041Y-94518019D01*
X121812637Y-94410652D01*
X121622456Y-94336976D01*
X121622455Y-94336975D01*
X121622453Y-94336975D01*
X121421976Y-94299500D01*
X121218024Y-94299500D01*
X121017546Y-94336975D01*
X120947632Y-94364059D01*
X120827363Y-94410652D01*
X120718676Y-94477948D01*
X120653959Y-94518019D01*
X120503237Y-94655420D01*
X120380328Y-94818177D01*
X120380323Y-94818186D01*
X120298450Y-94982611D01*
X120289418Y-95000750D01*
X120239081Y-95177663D01*
X120233603Y-95196917D01*
X120214785Y-95400000D01*
X120233603Y-95603084D01*
X120259749Y-95694978D01*
X120257488Y-95756122D01*
X120234532Y-95792074D01*
X119221517Y-96805090D01*
X119221516Y-96805091D01*
X119168793Y-96896411D01*
X119168792Y-96896411D01*
X119168793Y-96896412D01*
X119141500Y-96998273D01*
X119141500Y-97606098D01*
X119122593Y-97664289D01*
X119112503Y-97676102D01*
X118830085Y-97958519D01*
X118775569Y-97986296D01*
X118715137Y-97976725D01*
X118671872Y-97933460D01*
X118661505Y-97897652D01*
X118645756Y-97727690D01*
X118587405Y-97522611D01*
X118492366Y-97331745D01*
X118363872Y-97161593D01*
X118359485Y-97157593D01*
X118329220Y-97104422D01*
X118335989Y-97043612D01*
X118376681Y-96998696D01*
X118390913Y-96990480D01*
X119735480Y-95645913D01*
X119760900Y-95601885D01*
X119788205Y-95554592D01*
X119788205Y-95554590D01*
X119788207Y-95554588D01*
X119815500Y-95452727D01*
X119815500Y-95347273D01*
X119815500Y-90320000D01*
X120214785Y-90320000D01*
X120233603Y-90523083D01*
X120289418Y-90719250D01*
X120380327Y-90901821D01*
X120503236Y-91064579D01*
X120653959Y-91201981D01*
X120827363Y-91309348D01*
X121017544Y-91383024D01*
X121218024Y-91420500D01*
X121421976Y-91420500D01*
X121622456Y-91383024D01*
X121812637Y-91309348D01*
X121986041Y-91201981D01*
X122136764Y-91064579D01*
X122259673Y-90901821D01*
X122350582Y-90719250D01*
X122406397Y-90523083D01*
X122425215Y-90320000D01*
X122406397Y-90116917D01*
X122350582Y-89920750D01*
X122259673Y-89738179D01*
X122136764Y-89575421D01*
X121986041Y-89438019D01*
X121812637Y-89330652D01*
X121622456Y-89256976D01*
X121622455Y-89256975D01*
X121622453Y-89256975D01*
X121421976Y-89219500D01*
X121218024Y-89219500D01*
X121017546Y-89256975D01*
X120947632Y-89284059D01*
X120827363Y-89330652D01*
X120718676Y-89397948D01*
X120653959Y-89438019D01*
X120503237Y-89575420D01*
X120380328Y-89738177D01*
X120380323Y-89738186D01*
X120298450Y-89902611D01*
X120289418Y-89920750D01*
X120233603Y-90116917D01*
X120214785Y-90320000D01*
X119815500Y-90320000D01*
X119815500Y-89891900D01*
X119834407Y-89833709D01*
X119844490Y-89821902D01*
X120831975Y-88834416D01*
X120886490Y-88806641D01*
X120937735Y-88812106D01*
X121017544Y-88843024D01*
X121218024Y-88880500D01*
X121421976Y-88880500D01*
X121622456Y-88843024D01*
X121812637Y-88769348D01*
X121986041Y-88661981D01*
X122136764Y-88524579D01*
X122259673Y-88361821D01*
X122350582Y-88179250D01*
X122406397Y-87983083D01*
X122425215Y-87780000D01*
X122406397Y-87576917D01*
X122350582Y-87380750D01*
X122259673Y-87198179D01*
X122136764Y-87035421D01*
X121986041Y-86898019D01*
X121812637Y-86790652D01*
X121622456Y-86716976D01*
X121622455Y-86716975D01*
X121622453Y-86716975D01*
X121421976Y-86679500D01*
X121218024Y-86679500D01*
X121017546Y-86716975D01*
X120947632Y-86744059D01*
X120827363Y-86790652D01*
X120653959Y-86898019D01*
X120503236Y-87035421D01*
X120477907Y-87068962D01*
X120380328Y-87198177D01*
X120380323Y-87198186D01*
X120298450Y-87362611D01*
X120289418Y-87380750D01*
X120233603Y-87576917D01*
X120214785Y-87780000D01*
X120233603Y-87983083D01*
X120267005Y-88100479D01*
X120287880Y-88173845D01*
X120285619Y-88234989D01*
X120262663Y-88270941D01*
X119094520Y-89439086D01*
X119094516Y-89439091D01*
X119041793Y-89530411D01*
X119041792Y-89530411D01*
X119041793Y-89530412D01*
X119014500Y-89632273D01*
X119014500Y-95193099D01*
X118995593Y-95251290D01*
X118985503Y-95263103D01*
X118830085Y-95418520D01*
X118775569Y-95446297D01*
X118715137Y-95436726D01*
X118671872Y-95393461D01*
X118661505Y-95357653D01*
X118645756Y-95187690D01*
X118587405Y-94982611D01*
X118492366Y-94791745D01*
X118363872Y-94621593D01*
X118309623Y-94572139D01*
X118206307Y-94477952D01*
X118206300Y-94477946D01*
X118025024Y-94365705D01*
X118025019Y-94365702D01*
X117826195Y-94288678D01*
X117616610Y-94249500D01*
X117403390Y-94249500D01*
X117193804Y-94288678D01*
X116994980Y-94365702D01*
X116994975Y-94365705D01*
X116813699Y-94477946D01*
X116813692Y-94477952D01*
X116656135Y-94621586D01*
X116656131Y-94621589D01*
X116656128Y-94621593D01*
X116656125Y-94621597D01*
X116527635Y-94791743D01*
X116527630Y-94791752D01*
X116451508Y-94944628D01*
X116408646Y-94988290D01*
X116362887Y-94999500D01*
X114668900Y-94999500D01*
X114610709Y-94980593D01*
X114598896Y-94970504D01*
X112808871Y-93180479D01*
X110897913Y-91269520D01*
X110897910Y-91269518D01*
X110897908Y-91269516D01*
X110800969Y-91213548D01*
X110801973Y-91211808D01*
X110762435Y-91178029D01*
X110748160Y-91118532D01*
X110767849Y-91066655D01*
X110872366Y-90928255D01*
X110967405Y-90737389D01*
X111025756Y-90532310D01*
X111041505Y-90362346D01*
X111065700Y-90306151D01*
X111118307Y-90274907D01*
X111179231Y-90280553D01*
X111210086Y-90301479D01*
X114014518Y-93105910D01*
X114014520Y-93105913D01*
X114089087Y-93180480D01*
X114089089Y-93180481D01*
X114180409Y-93233205D01*
X114180413Y-93233207D01*
X114282270Y-93260500D01*
X114282272Y-93260501D01*
X114282273Y-93260501D01*
X114393790Y-93260501D01*
X114393806Y-93260500D01*
X116362887Y-93260500D01*
X116421078Y-93279407D01*
X116451508Y-93315372D01*
X116514468Y-93441813D01*
X116527634Y-93468255D01*
X116656128Y-93638407D01*
X116656135Y-93638413D01*
X116813692Y-93782047D01*
X116813699Y-93782053D01*
X116917389Y-93846255D01*
X116994981Y-93894298D01*
X117193802Y-93971321D01*
X117403390Y-94010500D01*
X117616610Y-94010500D01*
X117826198Y-93971321D01*
X118025019Y-93894298D01*
X118206302Y-93782052D01*
X118363872Y-93638407D01*
X118492366Y-93468255D01*
X118587405Y-93277389D01*
X118645756Y-93072310D01*
X118665429Y-92860000D01*
X118645756Y-92647690D01*
X118587405Y-92442611D01*
X118492366Y-92251745D01*
X118363872Y-92081593D01*
X118309623Y-92032139D01*
X118206307Y-91937952D01*
X118206300Y-91937946D01*
X118025024Y-91825705D01*
X118025019Y-91825702D01*
X117826195Y-91748678D01*
X117616610Y-91709500D01*
X117403390Y-91709500D01*
X117193804Y-91748678D01*
X116994980Y-91825702D01*
X116994975Y-91825705D01*
X116813699Y-91937946D01*
X116813692Y-91937952D01*
X116656135Y-92081586D01*
X116656131Y-92081589D01*
X116656128Y-92081593D01*
X116656125Y-92081597D01*
X116527635Y-92251743D01*
X116527630Y-92251752D01*
X116451508Y-92404628D01*
X116408646Y-92448290D01*
X116362887Y-92459500D01*
X114541900Y-92459500D01*
X114483709Y-92440593D01*
X114471896Y-92430504D01*
X112681871Y-90640479D01*
X110770913Y-88729520D01*
X110770910Y-88729518D01*
X110756680Y-88721302D01*
X110715739Y-88675831D01*
X110709345Y-88614981D01*
X110739489Y-88562401D01*
X110743872Y-88558407D01*
X110872366Y-88388255D01*
X110967405Y-88197389D01*
X111025756Y-87992310D01*
X111041505Y-87822346D01*
X111065700Y-87766151D01*
X111118307Y-87734907D01*
X111179231Y-87740553D01*
X111210086Y-87761479D01*
X114014518Y-90565910D01*
X114014520Y-90565913D01*
X114089087Y-90640480D01*
X114089089Y-90640481D01*
X114180409Y-90693205D01*
X114180413Y-90693207D01*
X114282270Y-90720500D01*
X114282272Y-90720501D01*
X114282273Y-90720501D01*
X114393790Y-90720501D01*
X114393806Y-90720500D01*
X116362887Y-90720500D01*
X116421078Y-90739407D01*
X116451508Y-90775372D01*
X116527634Y-90928255D01*
X116656128Y-91098407D01*
X116678204Y-91118532D01*
X116813692Y-91242047D01*
X116813699Y-91242053D01*
X116858057Y-91269518D01*
X116994981Y-91354298D01*
X117193802Y-91431321D01*
X117403390Y-91470500D01*
X117616610Y-91470500D01*
X117826198Y-91431321D01*
X118025019Y-91354298D01*
X118206302Y-91242052D01*
X118363872Y-91098407D01*
X118492366Y-90928255D01*
X118587405Y-90737389D01*
X118645756Y-90532310D01*
X118665429Y-90320000D01*
X118645756Y-90107690D01*
X118587405Y-89902611D01*
X118492366Y-89711745D01*
X118363872Y-89541593D01*
X118309623Y-89492139D01*
X118206307Y-89397952D01*
X118206300Y-89397946D01*
X118025024Y-89285705D01*
X118025019Y-89285702D01*
X117826195Y-89208678D01*
X117616610Y-89169500D01*
X117403390Y-89169500D01*
X117193804Y-89208678D01*
X116994980Y-89285702D01*
X116994975Y-89285705D01*
X116813699Y-89397946D01*
X116813692Y-89397952D01*
X116656135Y-89541586D01*
X116656131Y-89541589D01*
X116656128Y-89541593D01*
X116656125Y-89541597D01*
X116527635Y-89711743D01*
X116527630Y-89711752D01*
X116451508Y-89864628D01*
X116408646Y-89908290D01*
X116362887Y-89919500D01*
X114541900Y-89919500D01*
X114483709Y-89900593D01*
X114471896Y-89890504D01*
X112681871Y-88100479D01*
X110770913Y-86189520D01*
X110770910Y-86189518D01*
X110756680Y-86181302D01*
X110715739Y-86135831D01*
X110709345Y-86074981D01*
X110739489Y-86022401D01*
X110743872Y-86018407D01*
X110872366Y-85848255D01*
X110967405Y-85657389D01*
X111025756Y-85452310D01*
X111041505Y-85282346D01*
X111065700Y-85226151D01*
X111118307Y-85194907D01*
X111179231Y-85200553D01*
X111210086Y-85221479D01*
X114014518Y-88025910D01*
X114014520Y-88025913D01*
X114089087Y-88100480D01*
X114089089Y-88100481D01*
X114180409Y-88153205D01*
X114180413Y-88153207D01*
X114282270Y-88180500D01*
X114282272Y-88180501D01*
X114282273Y-88180501D01*
X114393790Y-88180501D01*
X114393806Y-88180500D01*
X116362887Y-88180500D01*
X116421078Y-88199407D01*
X116451508Y-88235372D01*
X116527634Y-88388255D01*
X116656128Y-88558407D01*
X116718186Y-88614981D01*
X116813692Y-88702047D01*
X116813699Y-88702053D01*
X116858057Y-88729518D01*
X116994981Y-88814298D01*
X117193802Y-88891321D01*
X117403390Y-88930500D01*
X117616610Y-88930500D01*
X117826198Y-88891321D01*
X118025019Y-88814298D01*
X118206302Y-88702052D01*
X118363872Y-88558407D01*
X118492366Y-88388255D01*
X118587405Y-88197389D01*
X118645756Y-87992310D01*
X118665429Y-87780000D01*
X118645756Y-87567690D01*
X118587405Y-87362611D01*
X118492366Y-87171745D01*
X118363872Y-87001593D01*
X118359485Y-86997593D01*
X118329220Y-86944422D01*
X118335989Y-86883612D01*
X118376681Y-86838696D01*
X118390913Y-86830480D01*
X119551897Y-85669496D01*
X119606414Y-85641719D01*
X119621901Y-85640500D01*
X120228742Y-85640500D01*
X120286933Y-85659407D01*
X120317362Y-85695371D01*
X120380327Y-85821821D01*
X120503236Y-85984579D01*
X120653959Y-86121981D01*
X120827363Y-86229348D01*
X121017544Y-86303024D01*
X121218024Y-86340500D01*
X121421976Y-86340500D01*
X121622456Y-86303024D01*
X121812637Y-86229348D01*
X121986041Y-86121981D01*
X122136764Y-85984579D01*
X122259673Y-85821821D01*
X122350582Y-85639250D01*
X122406397Y-85443083D01*
X122425215Y-85240000D01*
X122406397Y-85036917D01*
X122350582Y-84840750D01*
X122259673Y-84658179D01*
X122136764Y-84495421D01*
X121986041Y-84358019D01*
X121812637Y-84250652D01*
X121622456Y-84176976D01*
X121622455Y-84176975D01*
X121622453Y-84176975D01*
X121421976Y-84139500D01*
X121218024Y-84139500D01*
X121017546Y-84176975D01*
X120947632Y-84204059D01*
X120827363Y-84250652D01*
X120718676Y-84317948D01*
X120653959Y-84358019D01*
X120503237Y-84495420D01*
X120380328Y-84658177D01*
X120380323Y-84658186D01*
X120317363Y-84784628D01*
X120274500Y-84828291D01*
X120228742Y-84839500D01*
X119467727Y-84839500D01*
X119362273Y-84839500D01*
X119299929Y-84856204D01*
X119260407Y-84866794D01*
X119169091Y-84919516D01*
X119169086Y-84919520D01*
X118830085Y-85258520D01*
X118775569Y-85286297D01*
X118715137Y-85276726D01*
X118671872Y-85233461D01*
X118661505Y-85197653D01*
X118645756Y-85027690D01*
X118587405Y-84822611D01*
X118492366Y-84631745D01*
X118363872Y-84461593D01*
X118309623Y-84412139D01*
X118206307Y-84317952D01*
X118206300Y-84317946D01*
X118025024Y-84205705D01*
X118025019Y-84205702D01*
X117826195Y-84128678D01*
X117616610Y-84089500D01*
X117403390Y-84089500D01*
X117193804Y-84128678D01*
X116994980Y-84205702D01*
X116994975Y-84205705D01*
X116813699Y-84317946D01*
X116813692Y-84317952D01*
X116656135Y-84461586D01*
X116656131Y-84461589D01*
X116656128Y-84461593D01*
X116656125Y-84461597D01*
X116527635Y-84631743D01*
X116527630Y-84631752D01*
X116451508Y-84784628D01*
X116408646Y-84828290D01*
X116362887Y-84839500D01*
X114605400Y-84839500D01*
X114547209Y-84820593D01*
X114535396Y-84810504D01*
X112745371Y-83020479D01*
X112424892Y-82700000D01*
X116354571Y-82700000D01*
X116374244Y-82912311D01*
X116397449Y-82993867D01*
X116432595Y-83117389D01*
X116527634Y-83308255D01*
X116656128Y-83478407D01*
X116718186Y-83534981D01*
X116813692Y-83622047D01*
X116813699Y-83622053D01*
X116858057Y-83649518D01*
X116994981Y-83734298D01*
X117193802Y-83811321D01*
X117403390Y-83850500D01*
X117616610Y-83850500D01*
X117826198Y-83811321D01*
X118025019Y-83734298D01*
X118206302Y-83622052D01*
X118363872Y-83478407D01*
X118492366Y-83308255D01*
X118587405Y-83117389D01*
X118645756Y-82912310D01*
X118665429Y-82700000D01*
X120214785Y-82700000D01*
X120233603Y-82903083D01*
X120289418Y-83099250D01*
X120380327Y-83281821D01*
X120503236Y-83444579D01*
X120653959Y-83581981D01*
X120827363Y-83689348D01*
X121017544Y-83763024D01*
X121218024Y-83800500D01*
X121421976Y-83800500D01*
X121622456Y-83763024D01*
X121812637Y-83689348D01*
X121986041Y-83581981D01*
X122136764Y-83444579D01*
X122259673Y-83281821D01*
X122350582Y-83099250D01*
X122406397Y-82903083D01*
X122425215Y-82700000D01*
X122406397Y-82496917D01*
X122350582Y-82300750D01*
X122259673Y-82118179D01*
X122136764Y-81955421D01*
X121986041Y-81818019D01*
X121812637Y-81710652D01*
X121622456Y-81636976D01*
X121622455Y-81636975D01*
X121622453Y-81636975D01*
X121421976Y-81599500D01*
X121218024Y-81599500D01*
X121017546Y-81636975D01*
X120947632Y-81664059D01*
X120827363Y-81710652D01*
X120718676Y-81777948D01*
X120653959Y-81818019D01*
X120503237Y-81955420D01*
X120380328Y-82118177D01*
X120380323Y-82118186D01*
X120298450Y-82282611D01*
X120289418Y-82300750D01*
X120233603Y-82496917D01*
X120214785Y-82700000D01*
X118665429Y-82700000D01*
X118645756Y-82487690D01*
X118587405Y-82282611D01*
X118492366Y-82091745D01*
X118363872Y-81921593D01*
X118309623Y-81872139D01*
X118206307Y-81777952D01*
X118206300Y-81777946D01*
X118025024Y-81665705D01*
X118025019Y-81665702D01*
X117826195Y-81588678D01*
X117616610Y-81549500D01*
X117403390Y-81549500D01*
X117193804Y-81588678D01*
X116994980Y-81665702D01*
X116994975Y-81665705D01*
X116813699Y-81777946D01*
X116813692Y-81777952D01*
X116656135Y-81921586D01*
X116656131Y-81921589D01*
X116656128Y-81921593D01*
X116656125Y-81921597D01*
X116527635Y-82091743D01*
X116527630Y-82091752D01*
X116432596Y-82282608D01*
X116432595Y-82282611D01*
X116427790Y-82299500D01*
X116374244Y-82487688D01*
X116354571Y-82700000D01*
X112424892Y-82700000D01*
X110834413Y-81109520D01*
X110834410Y-81109518D01*
X110778383Y-81077170D01*
X110737443Y-81031700D01*
X110731048Y-80970850D01*
X110748878Y-80931777D01*
X110872366Y-80768255D01*
X110967405Y-80577389D01*
X111025756Y-80372310D01*
X111045429Y-80160000D01*
X111025756Y-79947690D01*
X110967405Y-79742611D01*
X110872366Y-79551745D01*
X110743872Y-79381593D01*
X110649902Y-79295927D01*
X110586307Y-79237952D01*
X110586300Y-79237946D01*
X110405024Y-79125705D01*
X110405019Y-79125702D01*
X110206195Y-79048678D01*
X109996610Y-79009500D01*
X109783390Y-79009500D01*
X109573804Y-79048678D01*
X109374980Y-79125702D01*
X109374975Y-79125705D01*
X109193699Y-79237946D01*
X109193692Y-79237952D01*
X109036135Y-79381586D01*
X109036131Y-79381589D01*
X109036128Y-79381593D01*
X109036125Y-79381597D01*
X108907635Y-79551743D01*
X108907630Y-79551752D01*
X108812596Y-79742608D01*
X108754244Y-79947688D01*
X108753389Y-79956917D01*
X108734571Y-80160000D01*
X108754244Y-80372310D01*
X108812595Y-80577389D01*
X108907634Y-80768255D01*
X109036128Y-80938407D01*
X109040511Y-80942403D01*
X109070779Y-80995576D01*
X109064011Y-81056386D01*
X109023321Y-81101301D01*
X109009089Y-81109518D01*
X107848103Y-82270504D01*
X107793586Y-82298281D01*
X107778099Y-82299500D01*
X107171258Y-82299500D01*
X107113067Y-82280593D01*
X107082637Y-82244628D01*
X107019676Y-82118186D01*
X107019673Y-82118179D01*
X106896764Y-81955421D01*
X106746041Y-81818019D01*
X106572637Y-81710652D01*
X106382456Y-81636976D01*
X106382455Y-81636975D01*
X106382453Y-81636975D01*
X106181976Y-81599500D01*
X105978024Y-81599500D01*
X105777546Y-81636975D01*
X105707632Y-81664059D01*
X105587363Y-81710652D01*
X105478676Y-81777948D01*
X105413959Y-81818019D01*
X105263237Y-81955420D01*
X105140328Y-82118177D01*
X105140323Y-82118186D01*
X105058450Y-82282611D01*
X105049418Y-82300750D01*
X104993603Y-82496917D01*
X104974785Y-82700000D01*
X104993603Y-82903083D01*
X105049418Y-83099250D01*
X105140327Y-83281821D01*
X105263236Y-83444579D01*
X105413959Y-83581981D01*
X105587363Y-83689348D01*
X105777544Y-83763024D01*
X105978024Y-83800500D01*
X106181976Y-83800500D01*
X106382456Y-83763024D01*
X106572637Y-83689348D01*
X106746041Y-83581981D01*
X106896764Y-83444579D01*
X107019673Y-83281821D01*
X107082637Y-83155371D01*
X107125500Y-83111709D01*
X107171258Y-83100500D01*
X108037725Y-83100500D01*
X108037727Y-83100500D01*
X108139588Y-83073207D01*
X108139590Y-83073205D01*
X108139592Y-83073205D01*
X108230908Y-83020483D01*
X108230908Y-83020482D01*
X108230913Y-83020480D01*
X108569913Y-82681478D01*
X108624430Y-82653701D01*
X108684862Y-82663272D01*
X108728127Y-82706537D01*
X108738495Y-82742347D01*
X108754244Y-82912311D01*
X108777449Y-82993867D01*
X108812595Y-83117389D01*
X108907634Y-83308255D01*
X109036128Y-83478407D01*
X109040511Y-83482403D01*
X109070779Y-83535576D01*
X109064011Y-83596386D01*
X109023321Y-83641301D01*
X109009089Y-83649518D01*
X107848103Y-84810504D01*
X107793586Y-84838281D01*
X107778099Y-84839500D01*
X107171258Y-84839500D01*
X107113067Y-84820593D01*
X107082637Y-84784628D01*
X107019676Y-84658186D01*
X107019673Y-84658179D01*
X106896764Y-84495421D01*
X106746041Y-84358019D01*
X106572637Y-84250652D01*
X106382456Y-84176976D01*
X106382455Y-84176975D01*
X106382453Y-84176975D01*
X106181976Y-84139500D01*
X105978024Y-84139500D01*
X105777546Y-84176975D01*
X105707632Y-84204059D01*
X105587363Y-84250652D01*
X105478676Y-84317948D01*
X105413959Y-84358019D01*
X105263237Y-84495420D01*
X105140328Y-84658177D01*
X105140323Y-84658186D01*
X105050647Y-84838281D01*
X105049418Y-84840750D01*
X104993603Y-85036917D01*
X104974785Y-85240000D01*
X104993603Y-85443083D01*
X105049418Y-85639250D01*
X105140327Y-85821821D01*
X105263236Y-85984579D01*
X105413959Y-86121981D01*
X105587363Y-86229348D01*
X105777544Y-86303024D01*
X105978024Y-86340500D01*
X106181976Y-86340500D01*
X106382456Y-86303024D01*
X106572637Y-86229348D01*
X106746041Y-86121981D01*
X106896764Y-85984579D01*
X107019673Y-85821821D01*
X107082637Y-85695371D01*
X107125500Y-85651709D01*
X107171258Y-85640500D01*
X108037725Y-85640500D01*
X108037727Y-85640500D01*
X108139588Y-85613207D01*
X108139590Y-85613205D01*
X108139592Y-85613205D01*
X108230908Y-85560483D01*
X108230908Y-85560482D01*
X108230913Y-85560480D01*
X108569913Y-85221478D01*
X108624430Y-85193701D01*
X108684862Y-85203272D01*
X108728127Y-85246537D01*
X108738494Y-85282346D01*
X108754244Y-85452310D01*
X108812595Y-85657389D01*
X108907634Y-85848255D01*
X109036128Y-86018407D01*
X109040511Y-86022403D01*
X109070779Y-86075576D01*
X109064011Y-86136386D01*
X109023321Y-86181301D01*
X109009089Y-86189518D01*
X107848103Y-87350504D01*
X107793586Y-87378281D01*
X107778099Y-87379500D01*
X107171258Y-87379500D01*
X107113067Y-87360593D01*
X107082637Y-87324628D01*
X107019676Y-87198186D01*
X107019673Y-87198179D01*
X106896764Y-87035421D01*
X106746041Y-86898019D01*
X106572637Y-86790652D01*
X106382456Y-86716976D01*
X106382455Y-86716975D01*
X106382453Y-86716975D01*
X106181976Y-86679500D01*
X105978024Y-86679500D01*
X105777546Y-86716975D01*
X105707632Y-86744059D01*
X105587363Y-86790652D01*
X105413959Y-86898019D01*
X105263236Y-87035421D01*
X105237907Y-87068962D01*
X105140328Y-87198177D01*
X105140323Y-87198186D01*
X105058450Y-87362611D01*
X105049418Y-87380750D01*
X104993603Y-87576917D01*
X104974785Y-87780000D01*
X104993603Y-87983083D01*
X105049418Y-88179250D01*
X105140327Y-88361821D01*
X105263236Y-88524579D01*
X105413959Y-88661981D01*
X105587363Y-88769348D01*
X105777544Y-88843024D01*
X105978024Y-88880500D01*
X106181976Y-88880500D01*
X106382456Y-88843024D01*
X106572637Y-88769348D01*
X106746041Y-88661981D01*
X106896764Y-88524579D01*
X107019673Y-88361821D01*
X107082637Y-88235371D01*
X107125500Y-88191709D01*
X107171258Y-88180500D01*
X108037725Y-88180500D01*
X108037727Y-88180500D01*
X108139588Y-88153207D01*
X108139590Y-88153205D01*
X108139592Y-88153205D01*
X108230908Y-88100483D01*
X108230908Y-88100482D01*
X108230913Y-88100480D01*
X108569913Y-87761478D01*
X108624430Y-87733701D01*
X108684862Y-87743272D01*
X108728127Y-87786537D01*
X108738494Y-87822346D01*
X108754244Y-87992310D01*
X108812595Y-88197389D01*
X108907634Y-88388255D01*
X109036128Y-88558407D01*
X109040511Y-88562403D01*
X109070779Y-88615576D01*
X109064011Y-88676386D01*
X109023321Y-88721301D01*
X109009089Y-88729518D01*
X107848103Y-89890504D01*
X107793586Y-89918281D01*
X107778099Y-89919500D01*
X107171258Y-89919500D01*
X107113067Y-89900593D01*
X107082637Y-89864628D01*
X107019676Y-89738186D01*
X107019673Y-89738179D01*
X106896764Y-89575421D01*
X106746041Y-89438019D01*
X106572637Y-89330652D01*
X106382456Y-89256976D01*
X106382455Y-89256975D01*
X106382453Y-89256975D01*
X106181976Y-89219500D01*
X105978024Y-89219500D01*
X105777546Y-89256975D01*
X105707632Y-89284059D01*
X105587363Y-89330652D01*
X105478676Y-89397948D01*
X105413959Y-89438019D01*
X105263237Y-89575420D01*
X105140328Y-89738177D01*
X105140323Y-89738186D01*
X105058450Y-89902611D01*
X105049418Y-89920750D01*
X104993603Y-90116917D01*
X104974785Y-90320000D01*
X104993603Y-90523083D01*
X105049418Y-90719250D01*
X105140327Y-90901821D01*
X105263236Y-91064579D01*
X105413959Y-91201981D01*
X105587363Y-91309348D01*
X105777544Y-91383024D01*
X105978024Y-91420500D01*
X106181976Y-91420500D01*
X106382456Y-91383024D01*
X106572637Y-91309348D01*
X106746041Y-91201981D01*
X106896764Y-91064579D01*
X107019673Y-90901821D01*
X107082637Y-90775371D01*
X107125500Y-90731709D01*
X107171258Y-90720500D01*
X108037725Y-90720500D01*
X108037727Y-90720500D01*
X108139588Y-90693207D01*
X108139590Y-90693205D01*
X108139592Y-90693205D01*
X108230908Y-90640483D01*
X108230908Y-90640482D01*
X108230913Y-90640480D01*
X108569913Y-90301478D01*
X108624430Y-90273701D01*
X108684862Y-90283272D01*
X108728127Y-90326537D01*
X108738494Y-90362346D01*
X108754244Y-90532310D01*
X108812595Y-90737389D01*
X108907634Y-90928255D01*
X109036128Y-91098407D01*
X109040511Y-91102403D01*
X109070779Y-91155576D01*
X109064011Y-91216386D01*
X109023321Y-91261301D01*
X109009089Y-91269518D01*
X107848103Y-92430504D01*
X107793586Y-92458281D01*
X107778099Y-92459500D01*
X107171258Y-92459500D01*
X107113067Y-92440593D01*
X107082637Y-92404628D01*
X107019676Y-92278186D01*
X107019673Y-92278179D01*
X106896764Y-92115421D01*
X106746041Y-91978019D01*
X106572637Y-91870652D01*
X106382456Y-91796976D01*
X106382455Y-91796975D01*
X106382453Y-91796975D01*
X106181976Y-91759500D01*
X105978024Y-91759500D01*
X105777546Y-91796975D01*
X105707632Y-91824059D01*
X105587363Y-91870652D01*
X105478676Y-91937948D01*
X105413959Y-91978019D01*
X105263237Y-92115420D01*
X105140328Y-92278177D01*
X105140323Y-92278186D01*
X105058450Y-92442611D01*
X105049418Y-92460750D01*
X104993603Y-92656917D01*
X104974785Y-92860000D01*
X104993603Y-93063083D01*
X105049418Y-93259250D01*
X105140327Y-93441821D01*
X105263236Y-93604579D01*
X105413959Y-93741981D01*
X105587363Y-93849348D01*
X105777544Y-93923024D01*
X105978024Y-93960500D01*
X106181976Y-93960500D01*
X106382456Y-93923024D01*
X106572637Y-93849348D01*
X106746041Y-93741981D01*
X106896764Y-93604579D01*
X107019673Y-93441821D01*
X107082637Y-93315371D01*
X107125500Y-93271709D01*
X107171258Y-93260500D01*
X108037725Y-93260500D01*
X108037727Y-93260500D01*
X108139588Y-93233207D01*
X108139590Y-93233205D01*
X108139592Y-93233205D01*
X108230908Y-93180483D01*
X108230908Y-93180482D01*
X108230913Y-93180480D01*
X108569913Y-92841478D01*
X108624430Y-92813701D01*
X108684862Y-92823272D01*
X108728127Y-92866537D01*
X108738495Y-92902347D01*
X108754244Y-93072311D01*
X108812598Y-93277401D01*
X108814249Y-93281661D01*
X108812870Y-93282195D01*
X108820977Y-93336647D01*
X108793348Y-93390256D01*
X107410520Y-94773086D01*
X107410516Y-94773091D01*
X107357793Y-94864411D01*
X107357792Y-94864411D01*
X107357793Y-94864412D01*
X107330500Y-94966273D01*
X107330500Y-95063973D01*
X107311593Y-95122164D01*
X107262093Y-95158128D01*
X107200907Y-95158128D01*
X107151407Y-95122164D01*
X107136279Y-95091066D01*
X107110582Y-95000750D01*
X107019673Y-94818179D01*
X106896764Y-94655421D01*
X106746041Y-94518019D01*
X106572637Y-94410652D01*
X106382456Y-94336976D01*
X106382455Y-94336975D01*
X106382453Y-94336975D01*
X106181976Y-94299500D01*
X105978024Y-94299500D01*
X105777546Y-94336975D01*
X105707632Y-94364059D01*
X105587363Y-94410652D01*
X105478676Y-94477948D01*
X105413959Y-94518019D01*
X105263237Y-94655420D01*
X105140328Y-94818177D01*
X105140323Y-94818186D01*
X105058450Y-94982611D01*
X105049418Y-95000750D01*
X104993603Y-95196917D01*
X104974785Y-95400000D01*
X104993603Y-95603083D01*
X105049418Y-95799250D01*
X105140327Y-95981821D01*
X105263236Y-96144579D01*
X105413959Y-96281981D01*
X105587363Y-96389348D01*
X105777544Y-96463024D01*
X105978024Y-96500500D01*
X106181976Y-96500500D01*
X106382456Y-96463024D01*
X106572637Y-96389348D01*
X106746041Y-96281981D01*
X106896764Y-96144579D01*
X107019673Y-95981821D01*
X107110582Y-95799250D01*
X107136280Y-95708931D01*
X107170390Y-95658138D01*
X107227842Y-95637094D01*
X107286692Y-95653838D01*
X107324460Y-95701975D01*
X107330500Y-95736026D01*
X107330500Y-97603973D01*
X107311593Y-97662164D01*
X107262093Y-97698128D01*
X107200907Y-97698128D01*
X107151407Y-97662164D01*
X107136279Y-97631066D01*
X107129175Y-97606098D01*
X107110582Y-97540750D01*
X107019673Y-97358179D01*
X106896764Y-97195421D01*
X106746041Y-97058019D01*
X106572637Y-96950652D01*
X106382456Y-96876976D01*
X106382455Y-96876975D01*
X106382453Y-96876975D01*
X106181976Y-96839500D01*
X105978024Y-96839500D01*
X105777546Y-96876975D01*
X105727371Y-96896413D01*
X105587363Y-96950652D01*
X105478676Y-97017948D01*
X105413959Y-97058019D01*
X105263237Y-97195420D01*
X105140328Y-97358177D01*
X105140323Y-97358186D01*
X105058450Y-97522611D01*
X105049418Y-97540750D01*
X104993603Y-97736917D01*
X104974785Y-97940000D01*
X104993603Y-98143083D01*
X105049418Y-98339250D01*
X105140327Y-98521821D01*
X105263236Y-98684579D01*
X105413959Y-98821981D01*
X105587363Y-98929348D01*
X105777544Y-99003024D01*
X105978024Y-99040500D01*
X106181976Y-99040500D01*
X106382456Y-99003024D01*
X106572637Y-98929348D01*
X106746041Y-98821981D01*
X106896764Y-98684579D01*
X107019673Y-98521821D01*
X107110582Y-98339250D01*
X107136280Y-98248931D01*
X107170390Y-98198138D01*
X107227842Y-98177094D01*
X107286692Y-98193838D01*
X107324460Y-98241975D01*
X107330500Y-98276026D01*
X107330500Y-100143973D01*
X107311593Y-100202164D01*
X107262093Y-100238128D01*
X107200907Y-100238128D01*
X107151407Y-100202164D01*
X107136279Y-100171066D01*
X107134102Y-100163414D01*
X107110582Y-100080750D01*
X107019673Y-99898179D01*
X106896764Y-99735421D01*
X106746041Y-99598019D01*
X106572637Y-99490652D01*
X106382456Y-99416976D01*
X106382455Y-99416975D01*
X106382453Y-99416975D01*
X106181976Y-99379500D01*
X105978024Y-99379500D01*
X105777546Y-99416975D01*
X105721083Y-99438849D01*
X105587363Y-99490652D01*
X105413959Y-99598019D01*
X105263236Y-99735421D01*
X105258503Y-99741689D01*
X105140328Y-99898177D01*
X105140323Y-99898186D01*
X105058450Y-100062611D01*
X105049418Y-100080750D01*
X104993603Y-100276917D01*
X104974785Y-100480000D01*
X104993603Y-100683083D01*
X105049418Y-100879250D01*
X105140327Y-101061821D01*
X105263236Y-101224579D01*
X105413959Y-101361981D01*
X105587363Y-101469348D01*
X105777544Y-101543024D01*
X105978024Y-101580500D01*
X106181976Y-101580500D01*
X106382456Y-101543024D01*
X106572637Y-101469348D01*
X106746041Y-101361981D01*
X106896764Y-101224579D01*
X107019673Y-101061821D01*
X107110582Y-100879250D01*
X107136280Y-100788931D01*
X107170390Y-100738138D01*
X107227842Y-100717094D01*
X107286692Y-100733838D01*
X107324460Y-100781975D01*
X107330500Y-100816026D01*
X107330500Y-102683973D01*
X107311593Y-102742164D01*
X107262093Y-102778128D01*
X107200907Y-102778128D01*
X107151407Y-102742164D01*
X107136279Y-102711066D01*
X107110582Y-102620750D01*
X107019673Y-102438179D01*
X106896764Y-102275421D01*
X106746041Y-102138019D01*
X106572637Y-102030652D01*
X106382456Y-101956976D01*
X106382455Y-101956975D01*
X106382453Y-101956975D01*
X106181976Y-101919500D01*
X105978024Y-101919500D01*
X105777544Y-101956975D01*
X105697739Y-101987892D01*
X105636648Y-101991282D01*
X105591973Y-101965581D01*
X104782296Y-101155903D01*
X104754519Y-101101386D01*
X104753300Y-101085899D01*
X104753300Y-80316099D01*
X104772207Y-80257908D01*
X104782285Y-80246107D01*
X104816642Y-80211750D01*
X104871156Y-80183975D01*
X104931588Y-80193546D01*
X104974853Y-80236811D01*
X104985220Y-80272619D01*
X104993603Y-80363083D01*
X105049418Y-80559250D01*
X105140327Y-80741821D01*
X105263236Y-80904579D01*
X105413959Y-81041981D01*
X105587363Y-81149348D01*
X105777544Y-81223024D01*
X105978024Y-81260500D01*
X106181976Y-81260500D01*
X106382456Y-81223024D01*
X106572637Y-81149348D01*
X106746041Y-81041981D01*
X106896764Y-80904579D01*
X107019673Y-80741821D01*
X107110582Y-80559250D01*
X107166397Y-80363083D01*
X107185215Y-80160000D01*
X107166397Y-79956917D01*
X107110582Y-79760750D01*
X107019673Y-79578179D01*
X106922240Y-79449157D01*
X106902263Y-79391330D01*
X106920092Y-79332799D01*
X106968918Y-79295927D01*
X107001246Y-79290500D01*
X107275725Y-79290500D01*
X107275727Y-79290500D01*
X107377588Y-79263207D01*
X107377590Y-79263205D01*
X107377592Y-79263205D01*
X107468908Y-79210483D01*
X107468908Y-79210482D01*
X107468913Y-79210480D01*
X108629897Y-78049496D01*
X108684414Y-78021719D01*
X108699901Y-78020500D01*
X108742887Y-78020500D01*
X108801078Y-78039407D01*
X108831508Y-78075372D01*
X108907634Y-78228255D01*
X109036128Y-78398407D01*
X109036135Y-78398413D01*
X109193692Y-78542047D01*
X109193699Y-78542053D01*
X109238060Y-78569520D01*
X109374981Y-78654298D01*
X109573802Y-78731321D01*
X109783390Y-78770500D01*
X109996610Y-78770500D01*
X110206198Y-78731321D01*
X110405019Y-78654298D01*
X110586302Y-78542052D01*
X110743872Y-78398407D01*
X110872366Y-78228255D01*
X110967405Y-78037389D01*
X111025756Y-77832310D01*
X111045429Y-77620000D01*
X111039050Y-77551158D01*
X111052506Y-77491475D01*
X111098476Y-77451097D01*
X111159401Y-77445451D01*
X111207631Y-77472023D01*
X114141518Y-80405910D01*
X114141520Y-80405913D01*
X114216087Y-80480480D01*
X114266698Y-80509700D01*
X114307413Y-80533207D01*
X114409270Y-80560500D01*
X114409272Y-80560501D01*
X114409273Y-80560501D01*
X114520790Y-80560501D01*
X114520806Y-80560500D01*
X116362887Y-80560500D01*
X116421078Y-80579407D01*
X116451508Y-80615372D01*
X116527634Y-80768255D01*
X116656128Y-80938407D01*
X116691716Y-80970850D01*
X116813692Y-81082047D01*
X116813699Y-81082053D01*
X116844786Y-81101301D01*
X116994981Y-81194298D01*
X117193802Y-81271321D01*
X117403390Y-81310500D01*
X117616610Y-81310500D01*
X117826198Y-81271321D01*
X118025019Y-81194298D01*
X118206302Y-81082052D01*
X118363872Y-80938407D01*
X118492366Y-80768255D01*
X118587405Y-80577389D01*
X118645756Y-80372310D01*
X118665429Y-80160000D01*
X120214785Y-80160000D01*
X120233603Y-80363083D01*
X120289418Y-80559250D01*
X120380327Y-80741821D01*
X120503236Y-80904579D01*
X120653959Y-81041981D01*
X120827363Y-81149348D01*
X121017544Y-81223024D01*
X121218024Y-81260500D01*
X121421976Y-81260500D01*
X121622456Y-81223024D01*
X121812637Y-81149348D01*
X121986041Y-81041981D01*
X122136764Y-80904579D01*
X122259673Y-80741821D01*
X122350582Y-80559250D01*
X122406397Y-80363083D01*
X122425215Y-80160000D01*
X122406397Y-79956917D01*
X122350582Y-79760750D01*
X122259673Y-79578179D01*
X122136764Y-79415421D01*
X121986041Y-79278019D01*
X121812637Y-79170652D01*
X121622456Y-79096976D01*
X121622455Y-79096975D01*
X121622453Y-79096975D01*
X121421976Y-79059500D01*
X121218024Y-79059500D01*
X121017546Y-79096975D01*
X120947632Y-79124059D01*
X120827363Y-79170652D01*
X120677881Y-79263207D01*
X120653959Y-79278019D01*
X120503237Y-79415420D01*
X120380328Y-79578177D01*
X120380323Y-79578186D01*
X120298450Y-79742611D01*
X120289418Y-79760750D01*
X120233603Y-79956917D01*
X120214785Y-80160000D01*
X118665429Y-80160000D01*
X118645756Y-79947690D01*
X118587405Y-79742611D01*
X118492366Y-79551745D01*
X118363872Y-79381593D01*
X118269902Y-79295927D01*
X118206307Y-79237952D01*
X118206300Y-79237946D01*
X118025024Y-79125705D01*
X118025019Y-79125702D01*
X117826195Y-79048678D01*
X117616610Y-79009500D01*
X117403390Y-79009500D01*
X117193804Y-79048678D01*
X116994980Y-79125702D01*
X116994975Y-79125705D01*
X116813699Y-79237946D01*
X116813692Y-79237952D01*
X116656135Y-79381586D01*
X116656131Y-79381589D01*
X116656128Y-79381593D01*
X116656125Y-79381597D01*
X116527635Y-79551743D01*
X116527630Y-79551752D01*
X116451508Y-79704628D01*
X116408646Y-79748290D01*
X116362887Y-79759500D01*
X114668900Y-79759500D01*
X114610709Y-79740593D01*
X114598896Y-79730504D01*
X111182846Y-76314453D01*
X111155069Y-76259936D01*
X111164640Y-76199504D01*
X111173599Y-76185118D01*
X111183353Y-76172087D01*
X111183354Y-76172087D01*
X111233596Y-76037381D01*
X111233598Y-76037370D01*
X111240000Y-75977824D01*
X116159999Y-75977824D01*
X116166401Y-76037370D01*
X116166403Y-76037381D01*
X116216646Y-76172088D01*
X116216647Y-76172090D01*
X116302807Y-76287184D01*
X116302815Y-76287192D01*
X116417909Y-76373352D01*
X116417911Y-76373353D01*
X116552618Y-76423596D01*
X116552629Y-76423598D01*
X116612176Y-76430000D01*
X116898500Y-76430000D01*
X116956691Y-76448907D01*
X116992655Y-76498407D01*
X116992655Y-76559593D01*
X116956691Y-76609093D01*
X116950617Y-76613171D01*
X116813699Y-76697946D01*
X116813692Y-76697952D01*
X116656135Y-76841586D01*
X116656131Y-76841589D01*
X116656128Y-76841593D01*
X116656125Y-76841597D01*
X116527635Y-77011743D01*
X116527630Y-77011752D01*
X116432596Y-77202608D01*
X116432595Y-77202611D01*
X116427790Y-77219500D01*
X116374244Y-77407688D01*
X116354571Y-77620000D01*
X116374244Y-77832310D01*
X116432595Y-78037389D01*
X116527634Y-78228255D01*
X116656128Y-78398407D01*
X116656135Y-78398413D01*
X116813692Y-78542047D01*
X116813699Y-78542053D01*
X116858060Y-78569520D01*
X116994981Y-78654298D01*
X117193802Y-78731321D01*
X117403390Y-78770500D01*
X117616610Y-78770500D01*
X117826198Y-78731321D01*
X118025019Y-78654298D01*
X118206302Y-78542052D01*
X118363872Y-78398407D01*
X118492366Y-78228255D01*
X118587405Y-78037389D01*
X118645756Y-77832310D01*
X118665429Y-77620000D01*
X120214785Y-77620000D01*
X120233603Y-77823083D01*
X120289418Y-78019250D01*
X120380327Y-78201821D01*
X120503236Y-78364579D01*
X120653959Y-78501981D01*
X120827363Y-78609348D01*
X121017544Y-78683024D01*
X121218024Y-78720500D01*
X121421976Y-78720500D01*
X121622456Y-78683024D01*
X121812637Y-78609348D01*
X121986041Y-78501981D01*
X122136764Y-78364579D01*
X122259673Y-78201821D01*
X122350582Y-78019250D01*
X122406397Y-77823083D01*
X122425215Y-77620000D01*
X122406397Y-77416917D01*
X122350582Y-77220750D01*
X122259673Y-77038179D01*
X122136764Y-76875421D01*
X121986041Y-76738019D01*
X121812637Y-76630652D01*
X121622456Y-76556976D01*
X121622455Y-76556975D01*
X121622453Y-76556975D01*
X121421976Y-76519500D01*
X121218024Y-76519500D01*
X121017546Y-76556975D01*
X120993055Y-76566463D01*
X120827363Y-76630652D01*
X120718676Y-76697948D01*
X120653959Y-76738019D01*
X120503237Y-76875420D01*
X120380328Y-77038177D01*
X120380323Y-77038186D01*
X120298450Y-77202611D01*
X120289418Y-77220750D01*
X120233603Y-77416917D01*
X120214785Y-77620000D01*
X118665429Y-77620000D01*
X118645756Y-77407690D01*
X118587405Y-77202611D01*
X118492366Y-77011745D01*
X118363872Y-76841593D01*
X118309623Y-76792139D01*
X118206307Y-76697952D01*
X118206300Y-76697946D01*
X118069383Y-76613171D01*
X118029862Y-76566463D01*
X118025343Y-76505444D01*
X118057553Y-76453424D01*
X118114189Y-76430270D01*
X118121500Y-76430000D01*
X118407824Y-76430000D01*
X118467370Y-76423598D01*
X118467381Y-76423596D01*
X118602088Y-76373353D01*
X118602090Y-76373352D01*
X118717184Y-76287192D01*
X118717192Y-76287184D01*
X118803352Y-76172090D01*
X118803353Y-76172088D01*
X118853596Y-76037381D01*
X118853598Y-76037370D01*
X118860000Y-75977824D01*
X118860000Y-75330001D01*
X118859999Y-75330000D01*
X117943012Y-75330000D01*
X117975925Y-75272993D01*
X118010000Y-75145826D01*
X118010000Y-75080000D01*
X120214785Y-75080000D01*
X120233603Y-75283083D01*
X120289418Y-75479250D01*
X120380327Y-75661821D01*
X120503236Y-75824579D01*
X120653959Y-75961981D01*
X120827363Y-76069348D01*
X121017544Y-76143024D01*
X121218024Y-76180500D01*
X121421976Y-76180500D01*
X121622456Y-76143024D01*
X121812637Y-76069348D01*
X121986041Y-75961981D01*
X122136764Y-75824579D01*
X122216691Y-75718738D01*
X122266847Y-75683696D01*
X122295694Y-75679400D01*
X123176808Y-75679400D01*
X123234999Y-75698307D01*
X123255691Y-75718580D01*
X123289300Y-75762900D01*
X123407142Y-75852262D01*
X123544723Y-75906517D01*
X123631182Y-75916900D01*
X123631184Y-75916900D01*
X124190416Y-75916900D01*
X124190418Y-75916900D01*
X124276877Y-75906517D01*
X124414458Y-75852262D01*
X124532300Y-75762900D01*
X124621662Y-75645058D01*
X124675917Y-75507477D01*
X124686300Y-75421018D01*
X124686300Y-74736782D01*
X124675917Y-74650323D01*
X124621662Y-74512742D01*
X124540634Y-74405890D01*
X124520540Y-74348101D01*
X124538251Y-74289535D01*
X124567548Y-74261812D01*
X124608835Y-74236346D01*
X124730746Y-74114435D01*
X124821251Y-73967706D01*
X124875481Y-73804048D01*
X124885800Y-73703055D01*
X124885800Y-73603901D01*
X124885799Y-73603900D01*
X122935802Y-73603900D01*
X122935801Y-73603901D01*
X122935801Y-73703054D01*
X122946117Y-73804042D01*
X122946120Y-73804054D01*
X123000348Y-73967706D01*
X123090853Y-74114435D01*
X123212762Y-74236344D01*
X123254052Y-74261812D01*
X123293654Y-74308453D01*
X123298277Y-74369463D01*
X123280964Y-74405891D01*
X123255692Y-74439218D01*
X123205466Y-74474161D01*
X123176808Y-74478400D01*
X122294033Y-74478400D01*
X122235842Y-74459493D01*
X122215030Y-74439061D01*
X122162471Y-74369463D01*
X122136764Y-74335421D01*
X121986041Y-74198019D01*
X121812637Y-74090652D01*
X121622456Y-74016976D01*
X121622455Y-74016975D01*
X121622453Y-74016975D01*
X121421976Y-73979500D01*
X121218024Y-73979500D01*
X121017546Y-74016975D01*
X120989619Y-74027794D01*
X120827363Y-74090652D01*
X120679548Y-74182175D01*
X120653959Y-74198019D01*
X120532819Y-74308453D01*
X120503236Y-74335421D01*
X120493661Y-74348101D01*
X120380328Y-74498177D01*
X120380323Y-74498186D01*
X120289419Y-74680747D01*
X120289418Y-74680750D01*
X120233603Y-74876917D01*
X120214785Y-75080000D01*
X118010000Y-75080000D01*
X118010000Y-75014174D01*
X117975925Y-74887007D01*
X117943012Y-74830000D01*
X118859999Y-74830000D01*
X118860000Y-74829999D01*
X118860000Y-74182175D01*
X118853598Y-74122629D01*
X118853596Y-74122618D01*
X118803353Y-73987911D01*
X118803352Y-73987909D01*
X118717192Y-73872815D01*
X118717184Y-73872807D01*
X118602090Y-73786647D01*
X118602088Y-73786646D01*
X118467381Y-73736403D01*
X118467370Y-73736401D01*
X118407824Y-73730000D01*
X117760001Y-73730000D01*
X117760000Y-73730001D01*
X117760000Y-74646988D01*
X117702993Y-74614075D01*
X117575826Y-74580000D01*
X117444174Y-74580000D01*
X117317007Y-74614075D01*
X117260000Y-74646988D01*
X117260000Y-73730001D01*
X117259999Y-73730000D01*
X116612176Y-73730000D01*
X116552629Y-73736401D01*
X116552618Y-73736403D01*
X116417911Y-73786646D01*
X116417909Y-73786647D01*
X116302815Y-73872807D01*
X116302807Y-73872815D01*
X116216647Y-73987909D01*
X116216646Y-73987911D01*
X116166403Y-74122618D01*
X116166401Y-74122629D01*
X116160000Y-74182175D01*
X116160000Y-74829999D01*
X116160001Y-74830000D01*
X117076988Y-74830000D01*
X117044075Y-74887007D01*
X117010000Y-75014174D01*
X117010000Y-75145826D01*
X117044075Y-75272993D01*
X117076988Y-75330000D01*
X116160001Y-75330000D01*
X116160000Y-75330001D01*
X116160000Y-75977824D01*
X116159999Y-75977824D01*
X111240000Y-75977824D01*
X111240000Y-75330001D01*
X111239999Y-75330000D01*
X110323012Y-75330000D01*
X110355925Y-75272993D01*
X110390000Y-75145826D01*
X110390000Y-75014174D01*
X110355925Y-74887007D01*
X110323012Y-74830000D01*
X111239999Y-74830000D01*
X111240000Y-74829999D01*
X111240000Y-74182175D01*
X111233598Y-74122629D01*
X111233596Y-74122618D01*
X111183353Y-73987911D01*
X111183352Y-73987909D01*
X111097192Y-73872815D01*
X111097184Y-73872807D01*
X110982090Y-73786647D01*
X110982088Y-73786646D01*
X110847381Y-73736403D01*
X110847370Y-73736401D01*
X110787824Y-73730000D01*
X110140001Y-73730000D01*
X110140000Y-73730001D01*
X110140000Y-74646988D01*
X110082993Y-74614075D01*
X109955826Y-74580000D01*
X109824174Y-74580000D01*
X109697007Y-74614075D01*
X109640000Y-74646988D01*
X109640000Y-73730001D01*
X109639999Y-73730000D01*
X108992176Y-73730000D01*
X108932629Y-73736401D01*
X108932618Y-73736403D01*
X108797911Y-73786646D01*
X108797909Y-73786647D01*
X108682815Y-73872807D01*
X108682807Y-73872815D01*
X108596647Y-73987909D01*
X108596646Y-73987911D01*
X108546403Y-74122618D01*
X108546401Y-74122629D01*
X108540000Y-74182175D01*
X108540000Y-74829999D01*
X108540001Y-74830000D01*
X109456988Y-74830000D01*
X109424075Y-74887007D01*
X109390000Y-75014174D01*
X109390000Y-75145826D01*
X109424075Y-75272993D01*
X109456988Y-75330000D01*
X108540001Y-75330000D01*
X108540000Y-75330001D01*
X108540000Y-75977824D01*
X108539999Y-75977824D01*
X108546401Y-76037370D01*
X108546403Y-76037381D01*
X108596644Y-76172085D01*
X108606401Y-76185117D01*
X108626139Y-76243031D01*
X108608066Y-76301487D01*
X108597153Y-76314451D01*
X107721103Y-77190503D01*
X107666586Y-77218281D01*
X107651099Y-77219500D01*
X107171258Y-77219500D01*
X107113067Y-77200593D01*
X107082637Y-77164628D01*
X107019676Y-77038186D01*
X107019673Y-77038179D01*
X106896764Y-76875421D01*
X106746041Y-76738019D01*
X106572637Y-76630652D01*
X106382456Y-76556976D01*
X106382455Y-76556975D01*
X106382453Y-76556975D01*
X106181976Y-76519500D01*
X105978024Y-76519500D01*
X105777546Y-76556975D01*
X105753055Y-76566463D01*
X105587363Y-76630652D01*
X105478676Y-76697948D01*
X105413959Y-76738019D01*
X105263237Y-76875420D01*
X105140328Y-77038177D01*
X105140323Y-77038186D01*
X105058450Y-77202611D01*
X105049418Y-77220750D01*
X104993603Y-77416917D01*
X104974785Y-77620000D01*
X104993603Y-77823083D01*
X105049418Y-78019250D01*
X105140327Y-78201821D01*
X105263236Y-78364579D01*
X105326701Y-78422435D01*
X105356966Y-78475608D01*
X105350195Y-78536418D01*
X105330008Y-78565599D01*
X104032316Y-79863291D01*
X103979594Y-79954608D01*
X103979592Y-79954612D01*
X103965980Y-80005411D01*
X103965981Y-80005412D01*
X103952300Y-80056472D01*
X103952300Y-82388694D01*
X103933393Y-82446885D01*
X103883893Y-82482849D01*
X103840379Y-82486847D01*
X103752802Y-82475318D01*
X103752799Y-82475318D01*
X103596041Y-82495955D01*
X103596033Y-82495957D01*
X103449961Y-82556462D01*
X103449960Y-82556462D01*
X103324523Y-82652713D01*
X103324513Y-82652723D01*
X103228262Y-82778160D01*
X103228262Y-82778161D01*
X103167757Y-82924233D01*
X103167755Y-82924241D01*
X103147118Y-83080999D01*
X103147118Y-83081000D01*
X103167755Y-83237758D01*
X103167757Y-83237766D01*
X103228262Y-83383838D01*
X103228265Y-83383843D01*
X103246041Y-83407009D01*
X103266466Y-83464685D01*
X103266500Y-83467277D01*
X103266500Y-85817694D01*
X103247593Y-85875885D01*
X103198093Y-85911849D01*
X103154579Y-85915847D01*
X103067002Y-85904318D01*
X103066999Y-85904318D01*
X102910241Y-85924955D01*
X102910233Y-85924957D01*
X102764161Y-85985462D01*
X102764160Y-85985462D01*
X102638723Y-86081713D01*
X102638719Y-86081716D01*
X102638718Y-86081718D01*
X102638716Y-86081721D01*
X102542462Y-86207160D01*
X102542462Y-86207161D01*
X102481957Y-86353233D01*
X102481955Y-86353241D01*
X102461318Y-86509999D01*
X102461318Y-86510000D01*
X102481955Y-86666758D01*
X102481957Y-86666766D01*
X102542461Y-86812836D01*
X102542463Y-86812838D01*
X102542464Y-86812841D01*
X102611043Y-86902214D01*
X102631466Y-86959888D01*
X102631500Y-86962480D01*
X102631500Y-104999273D01*
X102631500Y-105104727D01*
X102654053Y-105188897D01*
X102658794Y-105206592D01*
X102711516Y-105297908D01*
X102711517Y-105297909D01*
X102711518Y-105297910D01*
X102711520Y-105297913D01*
X103877562Y-106463955D01*
X105022663Y-107609056D01*
X105050440Y-107663573D01*
X105047880Y-107706152D01*
X104993603Y-107896915D01*
X104993603Y-107896917D01*
X104974785Y-108100000D01*
X104982441Y-108182629D01*
X104968984Y-108242315D01*
X104923014Y-108282693D01*
X104862089Y-108288339D01*
X104813860Y-108261767D01*
X103666678Y-107114585D01*
X103638901Y-107060068D01*
X103638536Y-107055433D01*
X103638529Y-107055434D01*
X103631165Y-106999500D01*
X103617044Y-106892238D01*
X103556537Y-106746161D01*
X103556537Y-106746160D01*
X103460286Y-106620723D01*
X103460285Y-106620722D01*
X103460282Y-106620718D01*
X103460277Y-106620714D01*
X103460276Y-106620713D01*
X103389104Y-106566101D01*
X103334841Y-106524464D01*
X103334840Y-106524463D01*
X103334838Y-106524462D01*
X103188766Y-106463957D01*
X103188758Y-106463955D01*
X103032001Y-106443318D01*
X103031999Y-106443318D01*
X102875241Y-106463955D01*
X102875233Y-106463957D01*
X102729161Y-106524462D01*
X102729160Y-106524462D01*
X102603723Y-106620713D01*
X102603713Y-106620723D01*
X102507462Y-106746160D01*
X102507462Y-106746161D01*
X102446957Y-106892233D01*
X102446955Y-106892241D01*
X102426318Y-107048999D01*
X101075500Y-107048999D01*
X101075500Y-74235130D01*
X104979500Y-74235130D01*
X104979500Y-75924860D01*
X104979501Y-75924863D01*
X104982414Y-75949990D01*
X104987709Y-75961981D01*
X105027794Y-76052765D01*
X105107235Y-76132206D01*
X105210009Y-76177585D01*
X105235135Y-76180500D01*
X106924864Y-76180499D01*
X106949991Y-76177585D01*
X107052765Y-76132206D01*
X107132206Y-76052765D01*
X107177585Y-75949991D01*
X107180500Y-75924865D01*
X107180499Y-74235136D01*
X107177585Y-74210009D01*
X107132206Y-74107235D01*
X107052765Y-74027794D01*
X106949991Y-73982415D01*
X106949990Y-73982414D01*
X106949988Y-73982414D01*
X106924868Y-73979500D01*
X105235139Y-73979500D01*
X105235136Y-73979501D01*
X105210009Y-73982414D01*
X105107235Y-74027794D01*
X105027794Y-74107235D01*
X104982414Y-74210011D01*
X104979500Y-74235130D01*
X101075500Y-74235130D01*
X101075500Y-73004744D01*
X122935800Y-73004744D01*
X122935800Y-73103899D01*
X122935801Y-73103900D01*
X123660799Y-73103900D01*
X123660800Y-73103899D01*
X123660800Y-72316401D01*
X124160800Y-72316401D01*
X124160800Y-73103899D01*
X124160801Y-73103900D01*
X124885798Y-73103900D01*
X124885799Y-73103899D01*
X124885799Y-73004745D01*
X124875482Y-72903757D01*
X124875479Y-72903745D01*
X124821251Y-72740093D01*
X124730746Y-72593364D01*
X124608835Y-72471453D01*
X124462106Y-72380948D01*
X124298448Y-72326718D01*
X124197455Y-72316400D01*
X124160801Y-72316400D01*
X124160800Y-72316401D01*
X123660800Y-72316401D01*
X123660800Y-72316400D01*
X123624157Y-72316400D01*
X123624151Y-72316401D01*
X123523157Y-72326717D01*
X123523145Y-72326720D01*
X123359493Y-72380948D01*
X123212764Y-72471453D01*
X123090853Y-72593364D01*
X123000348Y-72740093D01*
X122946118Y-72903751D01*
X122935800Y-73004744D01*
X101075500Y-73004744D01*
X101075500Y-71273891D01*
X101075805Y-71266124D01*
X101076682Y-71254982D01*
X101089595Y-71090900D01*
X101092022Y-71075571D01*
X101132146Y-70908445D01*
X101136942Y-70893686D01*
X101202718Y-70734890D01*
X101209755Y-70721078D01*
X101299564Y-70574523D01*
X101308684Y-70561971D01*
X101420309Y-70431275D01*
X101431275Y-70420309D01*
X101561971Y-70308684D01*
X101574523Y-70299564D01*
X101721078Y-70209755D01*
X101734890Y-70202718D01*
X101893686Y-70136942D01*
X101908445Y-70132146D01*
X102075571Y-70092022D01*
X102090900Y-70089595D01*
X102266125Y-70075805D01*
X102273892Y-70075500D01*
X102294531Y-70075500D01*
X125105469Y-70075500D01*
X125126108Y-70075500D01*
X125133875Y-70075805D01*
G37*
G04 #@! TD.AperFunction*
M02*
