G04 #@! TF.GenerationSoftware,KiCad,Pcbnew,7.0.11+dfsg-1build4*
G04 #@! TF.CreationDate,2024-10-25T09:26:53+09:00*
G04 #@! TF.ProjectId,bionic-mc6809,62696f6e-6963-42d6-9d63-363830392e6b,5*
G04 #@! TF.SameCoordinates,Original*
G04 #@! TF.FileFunction,Copper,L1,Top*
G04 #@! TF.FilePolarity,Positive*
%FSLAX46Y46*%
G04 Gerber Fmt 4.6, Leading zero omitted, Abs format (unit mm)*
G04 Created by KiCad (PCBNEW 7.0.11+dfsg-1build4) date 2024-10-25 09:26:53*
%MOMM*%
%LPD*%
G01*
G04 APERTURE LIST*
G04 Aperture macros list*
%AMRoundRect*
0 Rectangle with rounded corners*
0 $1 Rounding radius*
0 $2 $3 $4 $5 $6 $7 $8 $9 X,Y pos of 4 corners*
0 Add a 4 corners polygon primitive as box body*
4,1,4,$2,$3,$4,$5,$6,$7,$8,$9,$2,$3,0*
0 Add four circle primitives for the rounded corners*
1,1,$1+$1,$2,$3*
1,1,$1+$1,$4,$5*
1,1,$1+$1,$6,$7*
1,1,$1+$1,$8,$9*
0 Add four rect primitives between the rounded corners*
20,1,$1+$1,$2,$3,$4,$5,0*
20,1,$1+$1,$4,$5,$6,$7,0*
20,1,$1+$1,$6,$7,$8,$9,0*
20,1,$1+$1,$8,$9,$2,$3,0*%
%AMFreePoly0*
4,1,19,0.500000,-0.750000,0.000000,-0.750000,0.000000,-0.744911,-0.071157,-0.744911,-0.207708,-0.704816,-0.327430,-0.627875,-0.420627,-0.520320,-0.479746,-0.390866,-0.500000,-0.250000,-0.500000,0.250000,-0.479746,0.390866,-0.420627,0.520320,-0.327430,0.627875,-0.207708,0.704816,-0.071157,0.744911,0.000000,0.744911,0.000000,0.750000,0.500000,0.750000,0.500000,-0.750000,0.500000,-0.750000,
$1*%
%AMFreePoly1*
4,1,19,0.000000,0.744911,0.071157,0.744911,0.207708,0.704816,0.327430,0.627875,0.420627,0.520320,0.479746,0.390866,0.500000,0.250000,0.500000,-0.250000,0.479746,-0.390866,0.420627,-0.520320,0.327430,-0.627875,0.207708,-0.704816,0.071157,-0.744911,0.000000,-0.744911,0.000000,-0.750000,-0.500000,-0.750000,-0.500000,0.750000,0.000000,0.750000,0.000000,0.744911,0.000000,0.744911,
$1*%
G04 Aperture macros list end*
G04 #@! TA.AperFunction,SMDPad,CuDef*
%ADD10FreePoly0,270.000000*%
G04 #@! TD*
G04 #@! TA.AperFunction,SMDPad,CuDef*
%ADD11FreePoly1,270.000000*%
G04 #@! TD*
G04 #@! TA.AperFunction,SMDPad,CuDef*
%ADD12RoundRect,0.237500X-0.250000X-0.237500X0.250000X-0.237500X0.250000X0.237500X-0.250000X0.237500X0*%
G04 #@! TD*
G04 #@! TA.AperFunction,SMDPad,CuDef*
%ADD13RoundRect,0.237500X0.237500X-0.300000X0.237500X0.300000X-0.237500X0.300000X-0.237500X-0.300000X0*%
G04 #@! TD*
G04 #@! TA.AperFunction,SMDPad,CuDef*
%ADD14R,0.762000X0.711200*%
G04 #@! TD*
G04 #@! TA.AperFunction,SMDPad,CuDef*
%ADD15R,0.660400X1.625600*%
G04 #@! TD*
G04 #@! TA.AperFunction,ComponentPad*
%ADD16R,1.600000X1.600000*%
G04 #@! TD*
G04 #@! TA.AperFunction,ComponentPad*
%ADD17O,1.600000X1.600000*%
G04 #@! TD*
G04 #@! TA.AperFunction,ComponentPad*
%ADD18O,1.700000X1.700000*%
G04 #@! TD*
G04 #@! TA.AperFunction,ComponentPad*
%ADD19R,1.700000X1.700000*%
G04 #@! TD*
G04 #@! TA.AperFunction,ViaPad*
%ADD20C,0.600000*%
G04 #@! TD*
G04 #@! TA.AperFunction,Conductor*
%ADD21C,0.200000*%
G04 #@! TD*
G04 #@! TA.AperFunction,Conductor*
%ADD22C,1.000000*%
G04 #@! TD*
G04 APERTURE END LIST*
D10*
X126400000Y-76350000D03*
D11*
X126400000Y-77650000D03*
D12*
X117613500Y-71778000D03*
X119438500Y-71778000D03*
D13*
X102778000Y-90166500D03*
X102778000Y-88441500D03*
D14*
X115744700Y-71778000D03*
X114195300Y-71778000D03*
D13*
X104556000Y-90166500D03*
X104556000Y-88441500D03*
D15*
X114019999Y-130960000D03*
X115920001Y-130960000D03*
X114970000Y-128828000D03*
D16*
X107350000Y-75080000D03*
D17*
X107350000Y-77620000D03*
X107350000Y-80160000D03*
X107350000Y-82700000D03*
X107350000Y-85240000D03*
X107350000Y-87780000D03*
X107350000Y-90320000D03*
X107350000Y-92860000D03*
X107350000Y-95400000D03*
X107350000Y-97940000D03*
X107350000Y-100480000D03*
X107350000Y-103020000D03*
X107350000Y-105560000D03*
X107350000Y-108100000D03*
X107350000Y-110640000D03*
X107350000Y-113180000D03*
X107350000Y-115720000D03*
X107350000Y-118260000D03*
X107350000Y-120800000D03*
X107350000Y-123340000D03*
X122590000Y-123340000D03*
X122590000Y-120800000D03*
X122590000Y-118260000D03*
X122590000Y-115720000D03*
X122590000Y-113180000D03*
X122590000Y-110640000D03*
X122590000Y-108100000D03*
X122590000Y-105560000D03*
X122590000Y-103020000D03*
X122590000Y-100480000D03*
X122590000Y-97940000D03*
X122590000Y-95400000D03*
X122590000Y-92860000D03*
X122590000Y-90320000D03*
X122590000Y-87780000D03*
X122590000Y-85240000D03*
X122590000Y-82700000D03*
X122590000Y-80160000D03*
X122590000Y-77620000D03*
X122590000Y-75080000D03*
D18*
X118780000Y-133500000D03*
X118780000Y-130960000D03*
X118780000Y-128420000D03*
X118780000Y-125880000D03*
X118780000Y-123340000D03*
X118780000Y-120800000D03*
X118780000Y-118260000D03*
X118780000Y-115720000D03*
X118780000Y-113180000D03*
X118780000Y-110640000D03*
X118780000Y-108100000D03*
X118780000Y-105560000D03*
X118780000Y-103020000D03*
X118780000Y-100480000D03*
X118780000Y-97940000D03*
X118780000Y-95400000D03*
X118780000Y-92860000D03*
X118780000Y-90320000D03*
X118780000Y-87780000D03*
X118780000Y-85240000D03*
X118780000Y-82700000D03*
X118780000Y-80160000D03*
X118780000Y-77620000D03*
D19*
X118780000Y-75080000D03*
X111160000Y-75080000D03*
D18*
X111160000Y-77620000D03*
X111160000Y-80160000D03*
X111160000Y-82700000D03*
X111160000Y-85240000D03*
X111160000Y-87780000D03*
X111160000Y-90320000D03*
X111160000Y-92860000D03*
X111160000Y-95400000D03*
X111160000Y-97940000D03*
X111160000Y-100480000D03*
X111160000Y-103020000D03*
X111160000Y-105560000D03*
X111160000Y-108100000D03*
X111160000Y-110640000D03*
X111160000Y-113180000D03*
X111160000Y-115720000D03*
X111160000Y-118260000D03*
X111160000Y-120800000D03*
X111160000Y-123340000D03*
X111160000Y-125880000D03*
X111160000Y-128420000D03*
X111160000Y-130960000D03*
X111160000Y-133500000D03*
D20*
X104810000Y-130960000D03*
X114970000Y-123340000D03*
X112938000Y-132230000D03*
X120939000Y-85367000D03*
X124714000Y-100988000D03*
X113700000Y-101242000D03*
X113700000Y-97686000D03*
X114208000Y-120292000D03*
X114208000Y-116390000D03*
X117256000Y-96924000D03*
D21*
X108836000Y-85532000D02*
X108836000Y-88834000D01*
X114195300Y-81950700D02*
X112176000Y-83970000D01*
X104645000Y-90320000D02*
X104556000Y-90231000D01*
D22*
X111160000Y-133500000D02*
X104810000Y-133500000D01*
X104556000Y-133500000D02*
X102778000Y-131722000D01*
X118780000Y-133500000D02*
X111160000Y-133500000D01*
D21*
X114195300Y-71778000D02*
X114195300Y-81950700D01*
X112176000Y-83970000D02*
X110398000Y-83970000D01*
D22*
X104810000Y-133500000D02*
X104556000Y-133500000D01*
X103286000Y-90320000D02*
X107350000Y-90320000D01*
X102778000Y-131722000D02*
X102778000Y-90828000D01*
D21*
X104556000Y-90231000D02*
X104556000Y-90166500D01*
D22*
X102778000Y-90828000D02*
X103286000Y-90320000D01*
D21*
X114970000Y-133500000D02*
X114970000Y-128828000D01*
X110398000Y-83970000D02*
X108836000Y-85532000D01*
X108836000Y-88834000D02*
X107350000Y-90320000D01*
X117613500Y-71778000D02*
X115744700Y-71778000D01*
X124876000Y-100826000D02*
X124714000Y-100988000D01*
X122082000Y-86510000D02*
X123294314Y-86510000D01*
X120939000Y-85367000D02*
X122082000Y-86510000D01*
X123294314Y-86510000D02*
X124876000Y-88091686D01*
X124876000Y-88091686D02*
X124876000Y-100826000D01*
X113700000Y-97686000D02*
X113700000Y-101242000D01*
X105826000Y-116736000D02*
X107350000Y-118260000D01*
X106842000Y-109370000D02*
X105826000Y-110386000D01*
X108874000Y-108369818D02*
X107873818Y-109370000D01*
X105826000Y-110386000D02*
X105826000Y-116736000D01*
X108874000Y-107592000D02*
X108874000Y-108369818D01*
X107873818Y-109370000D02*
X106842000Y-109370000D01*
X110906000Y-105560000D02*
X108874000Y-107592000D01*
X111160000Y-105560000D02*
X110906000Y-105560000D01*
X108874000Y-119276000D02*
X107350000Y-120800000D01*
X111160000Y-108100000D02*
X108874000Y-110386000D01*
X108874000Y-110386000D02*
X108874000Y-119276000D01*
X109636000Y-121054000D02*
X107350000Y-123340000D01*
X111160000Y-110640000D02*
X109636000Y-112164000D01*
X109636000Y-112164000D02*
X109636000Y-121054000D01*
X114208000Y-116390000D02*
X114208000Y-120292000D01*
X123548314Y-124610000D02*
X114970000Y-124610000D01*
X114970000Y-124610000D02*
X111160000Y-128420000D01*
X125384000Y-88034000D02*
X125384000Y-122774314D01*
X122590000Y-85240000D02*
X125384000Y-88034000D01*
X125384000Y-122774314D02*
X123548314Y-124610000D01*
X125784000Y-85894000D02*
X122590000Y-82700000D01*
X112684000Y-127912000D02*
X113446000Y-127150000D01*
X125784000Y-122940000D02*
X125784000Y-85894000D01*
X113446000Y-127150000D02*
X121574000Y-127150000D01*
X112684000Y-129436000D02*
X112684000Y-127912000D01*
X121574000Y-127150000D02*
X125784000Y-122940000D01*
X111160000Y-130960000D02*
X112684000Y-129436000D01*
X118780000Y-130960000D02*
X115920000Y-130960000D01*
X122590000Y-93338100D02*
X124114000Y-94862100D01*
X122590000Y-92860000D02*
X122590000Y-93338100D01*
X123098000Y-122070000D02*
X120050000Y-122070000D01*
X124114000Y-121054000D02*
X123098000Y-122070000D01*
X120050000Y-122070000D02*
X118780000Y-123340000D01*
X124114000Y-94862100D02*
X124114000Y-121054000D01*
X121320000Y-115720000D02*
X121320000Y-91590000D01*
X121320000Y-91590000D02*
X122590000Y-90320000D01*
X118780000Y-118260000D02*
X121320000Y-115720000D01*
X120812000Y-108354000D02*
X120812000Y-89558000D01*
X120812000Y-89558000D02*
X122590000Y-87780000D01*
X118780000Y-110386000D02*
X120812000Y-108354000D01*
X118780000Y-110640000D02*
X118780000Y-110386000D01*
X117256000Y-96924000D02*
X117256000Y-101496000D01*
X119034000Y-103020000D02*
X118780000Y-103020000D01*
X117256000Y-101496000D02*
X118780000Y-103020000D01*
X122590000Y-77620000D02*
X126370000Y-77620000D01*
X122590000Y-77874000D02*
X120304000Y-80160000D01*
X126370000Y-77620000D02*
X126400000Y-77650000D01*
X120304000Y-98956000D02*
X118780000Y-100480000D01*
X122590000Y-77620000D02*
X122590000Y-77762000D01*
X122590000Y-77762000D02*
X122732000Y-77620000D01*
X122590000Y-77762000D02*
X122590000Y-77874000D01*
X120304000Y-80160000D02*
X120304000Y-98956000D01*
X116240000Y-95400000D02*
X118780000Y-95400000D01*
X109636000Y-108862000D02*
X109636000Y-107794827D01*
X107350000Y-110640000D02*
X107858000Y-110640000D01*
X109636000Y-107794827D02*
X110600827Y-106830000D01*
X114462000Y-97178000D02*
X116240000Y-95400000D01*
X107858000Y-110640000D02*
X109636000Y-108862000D01*
X112938000Y-105814000D02*
X112938000Y-103782000D01*
X111922000Y-106830000D02*
X112938000Y-105814000D01*
X110600827Y-106830000D02*
X111922000Y-106830000D01*
X114462000Y-102258000D02*
X114462000Y-97178000D01*
X112938000Y-103782000D02*
X114462000Y-102258000D01*
X111922000Y-101750000D02*
X110600827Y-101750000D01*
X108874000Y-106576000D02*
X107350000Y-108100000D01*
X109636000Y-104290000D02*
X108874000Y-105052000D01*
X117510000Y-92860000D02*
X113084000Y-97286000D01*
X109636000Y-102714827D02*
X109636000Y-104290000D01*
X118780000Y-92860000D02*
X117510000Y-92860000D01*
X113084000Y-100588000D02*
X111922000Y-101750000D01*
X113084000Y-97286000D02*
X113084000Y-100588000D01*
X108874000Y-105052000D02*
X108874000Y-106576000D01*
X110600827Y-101750000D02*
X109636000Y-102714827D01*
X112684000Y-96416000D02*
X112684000Y-98448000D01*
X112684000Y-98448000D02*
X111922000Y-99210000D01*
X108874000Y-102258000D02*
X108874000Y-104036000D01*
X108874000Y-104036000D02*
X107350000Y-105560000D01*
X110544000Y-99210000D02*
X109636000Y-100118000D01*
X118780000Y-90320000D02*
X112684000Y-96416000D01*
X111922000Y-99210000D02*
X110544000Y-99210000D01*
X109636000Y-101496000D02*
X108874000Y-102258000D01*
X109636000Y-100118000D02*
X109636000Y-101496000D01*
X111668000Y-96670000D02*
X110398000Y-96670000D01*
X109636000Y-99210000D02*
X108874000Y-99972000D01*
X108874000Y-101496000D02*
X107350000Y-103020000D01*
X110398000Y-96670000D02*
X109636000Y-97432000D01*
X112684000Y-93876000D02*
X112684000Y-95654000D01*
X112684000Y-95654000D02*
X111668000Y-96670000D01*
X109636000Y-97432000D02*
X109636000Y-99210000D01*
X118780000Y-87780000D02*
X112684000Y-93876000D01*
X108874000Y-99972000D02*
X108874000Y-101496000D01*
X108874000Y-97305000D02*
X108874000Y-98956000D01*
X108874000Y-98956000D02*
X107350000Y-100480000D01*
X110473827Y-94130000D02*
X109636000Y-94967827D01*
X111864314Y-94130000D02*
X110473827Y-94130000D01*
X109636000Y-94967827D02*
X109636000Y-96543000D01*
X118780000Y-85240000D02*
X117256000Y-86764000D01*
X117256000Y-88738314D02*
X111864314Y-94130000D01*
X117256000Y-86764000D02*
X117256000Y-88738314D01*
X109636000Y-96543000D02*
X108874000Y-97305000D01*
X116856000Y-86598314D02*
X116856000Y-86656000D01*
X109674000Y-92352000D02*
X109674000Y-93838000D01*
X108874000Y-96416000D02*
X107350000Y-97940000D01*
X116856000Y-86656000D02*
X111922000Y-91590000D01*
X108874000Y-94638000D02*
X108874000Y-96416000D01*
X117256000Y-86198314D02*
X116856000Y-86598314D01*
X111922000Y-91590000D02*
X110436000Y-91590000D01*
X109674000Y-93838000D02*
X108874000Y-94638000D01*
X117256000Y-84224000D02*
X117256000Y-86198314D01*
X110436000Y-91590000D02*
X109674000Y-92352000D01*
X118780000Y-82700000D02*
X117256000Y-84224000D01*
X109274000Y-93476000D02*
X107350000Y-95400000D01*
X112684000Y-86256000D02*
X112684000Y-88288000D01*
X109636000Y-91824314D02*
X109274000Y-92186315D01*
X107267700Y-95317700D02*
X107350000Y-95400000D01*
X111922000Y-89050000D02*
X110036000Y-89050000D01*
X109274000Y-92186315D02*
X109274000Y-93476000D01*
X118780000Y-80160000D02*
X112684000Y-86256000D01*
X110036000Y-89050000D02*
X109636000Y-89450000D01*
X112684000Y-88288000D02*
X111922000Y-89050000D01*
X109636000Y-89450000D02*
X109636000Y-91824314D01*
X110697685Y-86464315D02*
X109236000Y-87926000D01*
X111910000Y-86464315D02*
X110697685Y-86464315D01*
X117256000Y-79144000D02*
X117256000Y-81118315D01*
X117256000Y-81118315D02*
X111910000Y-86464315D01*
X109236000Y-90974000D02*
X107350000Y-92860000D01*
X109236000Y-87926000D02*
X109236000Y-90974000D01*
X118780000Y-77620000D02*
X117256000Y-79144000D01*
G04 #@! TA.AperFunction,Conductor*
G36*
X106594210Y-91190185D02*
G01*
X106610709Y-91202863D01*
X106647520Y-91236420D01*
X106653698Y-91242052D01*
X106834981Y-91354298D01*
X107033802Y-91431321D01*
X107230613Y-91468111D01*
X107292893Y-91499779D01*
X107328166Y-91560092D01*
X107325232Y-91629900D01*
X107285023Y-91687040D01*
X107230613Y-91711888D01*
X107033802Y-91748679D01*
X107033799Y-91748679D01*
X107033799Y-91748680D01*
X106834982Y-91825701D01*
X106834980Y-91825702D01*
X106653699Y-91937947D01*
X106496127Y-92081593D01*
X106367632Y-92251746D01*
X106272596Y-92442605D01*
X106272596Y-92442607D01*
X106214244Y-92647689D01*
X106194571Y-92859999D01*
X106194571Y-92860000D01*
X106214244Y-93072310D01*
X106272596Y-93277392D01*
X106272596Y-93277394D01*
X106367632Y-93468253D01*
X106421330Y-93539360D01*
X106496128Y-93638407D01*
X106653698Y-93782052D01*
X106834981Y-93894298D01*
X107033802Y-93971321D01*
X107230613Y-94008111D01*
X107292893Y-94039779D01*
X107328166Y-94100092D01*
X107325232Y-94169900D01*
X107285023Y-94227040D01*
X107230613Y-94251888D01*
X107033802Y-94288679D01*
X107033799Y-94288679D01*
X107033799Y-94288680D01*
X106834982Y-94365701D01*
X106834980Y-94365702D01*
X106653699Y-94477947D01*
X106496127Y-94621593D01*
X106367632Y-94791746D01*
X106272596Y-94982605D01*
X106272596Y-94982607D01*
X106214244Y-95187689D01*
X106194571Y-95399999D01*
X106194571Y-95400000D01*
X106214244Y-95612310D01*
X106272596Y-95817392D01*
X106272596Y-95817394D01*
X106367632Y-96008253D01*
X106492930Y-96174172D01*
X106496128Y-96178407D01*
X106653698Y-96322052D01*
X106834981Y-96434298D01*
X107033802Y-96511321D01*
X107230613Y-96548111D01*
X107292893Y-96579779D01*
X107328166Y-96640092D01*
X107325232Y-96709900D01*
X107285023Y-96767040D01*
X107230613Y-96791888D01*
X107033802Y-96828679D01*
X107033799Y-96828679D01*
X107033799Y-96828680D01*
X106834982Y-96905701D01*
X106834980Y-96905702D01*
X106653699Y-97017947D01*
X106496127Y-97161593D01*
X106367632Y-97331746D01*
X106272596Y-97522605D01*
X106272596Y-97522607D01*
X106214244Y-97727689D01*
X106194571Y-97939999D01*
X106194571Y-97940000D01*
X106214244Y-98152310D01*
X106272596Y-98357392D01*
X106272596Y-98357394D01*
X106367632Y-98548253D01*
X106492930Y-98714172D01*
X106496128Y-98718407D01*
X106653698Y-98862052D01*
X106834981Y-98974298D01*
X107033802Y-99051321D01*
X107230613Y-99088111D01*
X107292893Y-99119779D01*
X107328166Y-99180092D01*
X107325232Y-99249900D01*
X107285023Y-99307040D01*
X107230613Y-99331888D01*
X107033802Y-99368679D01*
X107033799Y-99368679D01*
X107033799Y-99368680D01*
X106834982Y-99445701D01*
X106834980Y-99445702D01*
X106653699Y-99557947D01*
X106496127Y-99701593D01*
X106367632Y-99871746D01*
X106272596Y-100062605D01*
X106272596Y-100062607D01*
X106214244Y-100267689D01*
X106194571Y-100479999D01*
X106194571Y-100480000D01*
X106214244Y-100692310D01*
X106272596Y-100897392D01*
X106272596Y-100897394D01*
X106367632Y-101088253D01*
X106492930Y-101254172D01*
X106496128Y-101258407D01*
X106653698Y-101402052D01*
X106834981Y-101514298D01*
X107033802Y-101591321D01*
X107230613Y-101628111D01*
X107292893Y-101659779D01*
X107328166Y-101720092D01*
X107325232Y-101789900D01*
X107285023Y-101847040D01*
X107230613Y-101871888D01*
X107033802Y-101908679D01*
X107033799Y-101908679D01*
X107033799Y-101908680D01*
X106834982Y-101985701D01*
X106834980Y-101985702D01*
X106653699Y-102097947D01*
X106496127Y-102241593D01*
X106367632Y-102411746D01*
X106272596Y-102602605D01*
X106272596Y-102602607D01*
X106214244Y-102807689D01*
X106194571Y-103019999D01*
X106194571Y-103020000D01*
X106214244Y-103232310D01*
X106272596Y-103437392D01*
X106272596Y-103437394D01*
X106367632Y-103628253D01*
X106492930Y-103794172D01*
X106496128Y-103798407D01*
X106653698Y-103942052D01*
X106834981Y-104054298D01*
X107033802Y-104131321D01*
X107230613Y-104168111D01*
X107292893Y-104199779D01*
X107328166Y-104260092D01*
X107325232Y-104329900D01*
X107285023Y-104387040D01*
X107230613Y-104411888D01*
X107033802Y-104448679D01*
X107033799Y-104448679D01*
X107033799Y-104448680D01*
X106834982Y-104525701D01*
X106834980Y-104525702D01*
X106653699Y-104637947D01*
X106496127Y-104781593D01*
X106367632Y-104951746D01*
X106272596Y-105142605D01*
X106272596Y-105142607D01*
X106216870Y-105338462D01*
X106214244Y-105347690D01*
X106194571Y-105560000D01*
X106214244Y-105772310D01*
X106232922Y-105837957D01*
X106272596Y-105977392D01*
X106272596Y-105977394D01*
X106367632Y-106168253D01*
X106492930Y-106334172D01*
X106496128Y-106338407D01*
X106653698Y-106482052D01*
X106834981Y-106594298D01*
X107033802Y-106671321D01*
X107230613Y-106708111D01*
X107292893Y-106739779D01*
X107328166Y-106800092D01*
X107325232Y-106869900D01*
X107285023Y-106927040D01*
X107230613Y-106951888D01*
X107033802Y-106988679D01*
X107033799Y-106988679D01*
X107033799Y-106988680D01*
X106834982Y-107065701D01*
X106834980Y-107065702D01*
X106653699Y-107177947D01*
X106496127Y-107321593D01*
X106367632Y-107491746D01*
X106272596Y-107682605D01*
X106272596Y-107682607D01*
X106216870Y-107878462D01*
X106214244Y-107887690D01*
X106194571Y-108100000D01*
X106214244Y-108312310D01*
X106233266Y-108379166D01*
X106272596Y-108517392D01*
X106272596Y-108517394D01*
X106367632Y-108708253D01*
X106496128Y-108878407D01*
X106504110Y-108885684D01*
X106540390Y-108945397D01*
X106538627Y-109015244D01*
X106504913Y-109068215D01*
X106485809Y-109085941D01*
X106480015Y-109093207D01*
X106479363Y-109092687D01*
X106469969Y-109104925D01*
X105530263Y-110044632D01*
X105519898Y-110053895D01*
X105492033Y-110076117D01*
X105492030Y-110076121D01*
X105459823Y-110123357D01*
X105457144Y-110127132D01*
X105423206Y-110173118D01*
X105419216Y-110180667D01*
X105415528Y-110188325D01*
X105398673Y-110242967D01*
X105397225Y-110247368D01*
X105378353Y-110301304D01*
X105376771Y-110309659D01*
X105375500Y-110318100D01*
X105375500Y-110375260D01*
X105375413Y-110379897D01*
X105373275Y-110437009D01*
X105374316Y-110446243D01*
X105373485Y-110446336D01*
X105375500Y-110461635D01*
X105375500Y-116703738D01*
X105374720Y-116717623D01*
X105370729Y-116753036D01*
X105381355Y-116809196D01*
X105382132Y-116813765D01*
X105390652Y-116870291D01*
X105393162Y-116878427D01*
X105395976Y-116886470D01*
X105395976Y-116886471D01*
X105395977Y-116886472D01*
X105413961Y-116920500D01*
X105422688Y-116937011D01*
X105424776Y-116941149D01*
X105449574Y-116992641D01*
X105454362Y-116999665D01*
X105459431Y-117006532D01*
X105459434Y-117006538D01*
X105459438Y-117006542D01*
X105499847Y-117046951D01*
X105503064Y-117050290D01*
X105541947Y-117092196D01*
X105549210Y-117097988D01*
X105548689Y-117098641D01*
X105560930Y-117108034D01*
X106226142Y-117773246D01*
X106259627Y-117834569D01*
X106257727Y-117894861D01*
X106214244Y-118047687D01*
X106194571Y-118259999D01*
X106194571Y-118260000D01*
X106214244Y-118472310D01*
X106272596Y-118677392D01*
X106272596Y-118677394D01*
X106367632Y-118868253D01*
X106492930Y-119034172D01*
X106496128Y-119038407D01*
X106653698Y-119182052D01*
X106834981Y-119294298D01*
X107033802Y-119371321D01*
X107230613Y-119408111D01*
X107292893Y-119439779D01*
X107328166Y-119500092D01*
X107325232Y-119569900D01*
X107285023Y-119627040D01*
X107230613Y-119651888D01*
X107033802Y-119688679D01*
X107033799Y-119688679D01*
X107033799Y-119688680D01*
X106834982Y-119765701D01*
X106834980Y-119765702D01*
X106653699Y-119877947D01*
X106496127Y-120021593D01*
X106367632Y-120191746D01*
X106272596Y-120382605D01*
X106272596Y-120382607D01*
X106214244Y-120587689D01*
X106213426Y-120596523D01*
X106194571Y-120800000D01*
X106214244Y-121012310D01*
X106228503Y-121062426D01*
X106272596Y-121217392D01*
X106272596Y-121217394D01*
X106367632Y-121408253D01*
X106496127Y-121578406D01*
X106496128Y-121578407D01*
X106653698Y-121722052D01*
X106834981Y-121834298D01*
X107033802Y-121911321D01*
X107230613Y-121948111D01*
X107292893Y-121979779D01*
X107328166Y-122040092D01*
X107325232Y-122109900D01*
X107285023Y-122167040D01*
X107230613Y-122191888D01*
X107033802Y-122228679D01*
X107033799Y-122228679D01*
X107033799Y-122228680D01*
X106834982Y-122305701D01*
X106834980Y-122305702D01*
X106653699Y-122417947D01*
X106496127Y-122561593D01*
X106367632Y-122731746D01*
X106272596Y-122922605D01*
X106272596Y-122922607D01*
X106214244Y-123127689D01*
X106194571Y-123339999D01*
X106194571Y-123340000D01*
X106214244Y-123552310D01*
X106272596Y-123757392D01*
X106272596Y-123757394D01*
X106367632Y-123948253D01*
X106485462Y-124104283D01*
X106496128Y-124118407D01*
X106653698Y-124262052D01*
X106834981Y-124374298D01*
X107033802Y-124451321D01*
X107243390Y-124490500D01*
X107243392Y-124490500D01*
X107456608Y-124490500D01*
X107456610Y-124490500D01*
X107666198Y-124451321D01*
X107865019Y-124374298D01*
X108046302Y-124262052D01*
X108203872Y-124118407D01*
X108332366Y-123948255D01*
X108418373Y-123775528D01*
X108427403Y-123757394D01*
X108427403Y-123757393D01*
X108427405Y-123757389D01*
X108485756Y-123552310D01*
X108505429Y-123340000D01*
X108485756Y-123127690D01*
X108442271Y-122974858D01*
X108442857Y-122904995D01*
X108473854Y-122853248D01*
X109931744Y-121395357D01*
X109942084Y-121386116D01*
X109942886Y-121385476D01*
X110007569Y-121359073D01*
X110076264Y-121371831D01*
X110127156Y-121419704D01*
X110131191Y-121427157D01*
X110134938Y-121434683D01*
X110134943Y-121434691D01*
X110269020Y-121612238D01*
X110433437Y-121762123D01*
X110433439Y-121762125D01*
X110622595Y-121879245D01*
X110622596Y-121879245D01*
X110622599Y-121879247D01*
X110816524Y-121954374D01*
X110871924Y-121996946D01*
X110895515Y-122062713D01*
X110879804Y-122130793D01*
X110829780Y-122179572D01*
X110816533Y-122185622D01*
X110705389Y-122228680D01*
X110622601Y-122260752D01*
X110622595Y-122260754D01*
X110433439Y-122377874D01*
X110433437Y-122377876D01*
X110269020Y-122527761D01*
X110134943Y-122705308D01*
X110134938Y-122705316D01*
X110035775Y-122904461D01*
X110035769Y-122904476D01*
X109974885Y-123118462D01*
X109974884Y-123118464D01*
X109954357Y-123339999D01*
X109954357Y-123340000D01*
X109974884Y-123561535D01*
X109974885Y-123561537D01*
X110035769Y-123775523D01*
X110035775Y-123775538D01*
X110134938Y-123974683D01*
X110134943Y-123974691D01*
X110269020Y-124152238D01*
X110433437Y-124302123D01*
X110433439Y-124302125D01*
X110622595Y-124419245D01*
X110622596Y-124419245D01*
X110622599Y-124419247D01*
X110816524Y-124494374D01*
X110871924Y-124536946D01*
X110895515Y-124602713D01*
X110879804Y-124670793D01*
X110829780Y-124719572D01*
X110816533Y-124725622D01*
X110668488Y-124782975D01*
X110622601Y-124800752D01*
X110622595Y-124800754D01*
X110433439Y-124917874D01*
X110433437Y-124917876D01*
X110269020Y-125067761D01*
X110134943Y-125245308D01*
X110134938Y-125245316D01*
X110035775Y-125444461D01*
X110035769Y-125444476D01*
X109974885Y-125658462D01*
X109974884Y-125658464D01*
X109954357Y-125879999D01*
X109954357Y-125880000D01*
X109974884Y-126101535D01*
X109974885Y-126101537D01*
X110035769Y-126315523D01*
X110035775Y-126315538D01*
X110134938Y-126514683D01*
X110134943Y-126514691D01*
X110269020Y-126692238D01*
X110433437Y-126842123D01*
X110433439Y-126842125D01*
X110622595Y-126959245D01*
X110622596Y-126959245D01*
X110622599Y-126959247D01*
X110816524Y-127034374D01*
X110871924Y-127076946D01*
X110895515Y-127142713D01*
X110879804Y-127210793D01*
X110829780Y-127259572D01*
X110816533Y-127265622D01*
X110691259Y-127314154D01*
X110622601Y-127340752D01*
X110622595Y-127340754D01*
X110433439Y-127457874D01*
X110433437Y-127457876D01*
X110269020Y-127607761D01*
X110134943Y-127785308D01*
X110134938Y-127785316D01*
X110035775Y-127984461D01*
X110035769Y-127984476D01*
X109974885Y-128198462D01*
X109974884Y-128198464D01*
X109954357Y-128419999D01*
X109954357Y-128420000D01*
X109974884Y-128641535D01*
X109974885Y-128641537D01*
X110035769Y-128855523D01*
X110035775Y-128855538D01*
X110134938Y-129054683D01*
X110134943Y-129054691D01*
X110269020Y-129232238D01*
X110433437Y-129382123D01*
X110433439Y-129382125D01*
X110622595Y-129499245D01*
X110622596Y-129499245D01*
X110622599Y-129499247D01*
X110816524Y-129574374D01*
X110871924Y-129616946D01*
X110895515Y-129682713D01*
X110879804Y-129750793D01*
X110829780Y-129799572D01*
X110816533Y-129805622D01*
X110668488Y-129862975D01*
X110622601Y-129880752D01*
X110622595Y-129880754D01*
X110433439Y-129997874D01*
X110433437Y-129997876D01*
X110269020Y-130147761D01*
X110134943Y-130325308D01*
X110134938Y-130325316D01*
X110035775Y-130524461D01*
X110035769Y-130524476D01*
X109974885Y-130738462D01*
X109974884Y-130738464D01*
X109954357Y-130959999D01*
X109954357Y-130960000D01*
X109974884Y-131181535D01*
X109974885Y-131181537D01*
X110035769Y-131395523D01*
X110035775Y-131395538D01*
X110134938Y-131594683D01*
X110134943Y-131594691D01*
X110269020Y-131772238D01*
X110433437Y-131922123D01*
X110433439Y-131922125D01*
X110622595Y-132039245D01*
X110622596Y-132039245D01*
X110622599Y-132039247D01*
X110816524Y-132114374D01*
X110871924Y-132156946D01*
X110895515Y-132222713D01*
X110879804Y-132290793D01*
X110829780Y-132339572D01*
X110816533Y-132345622D01*
X110704803Y-132388907D01*
X110622601Y-132420752D01*
X110622595Y-132420754D01*
X110433439Y-132537874D01*
X110433437Y-132537876D01*
X110346492Y-132617137D01*
X110283688Y-132647754D01*
X110262954Y-132649500D01*
X104959651Y-132649500D01*
X104892612Y-132629815D01*
X104871970Y-132613181D01*
X103664819Y-131406030D01*
X103631334Y-131344707D01*
X103628500Y-131318349D01*
X103628500Y-91294500D01*
X103648185Y-91227461D01*
X103700989Y-91181706D01*
X103752500Y-91170500D01*
X106527171Y-91170500D01*
X106594210Y-91190185D01*
G37*
G04 #@! TD.AperFunction*
G04 #@! TA.AperFunction,Conductor*
G36*
X114326495Y-127620185D02*
G01*
X114372250Y-127672989D01*
X114382194Y-127742147D01*
X114355848Y-127799835D01*
X114356573Y-127800353D01*
X114353906Y-127804087D01*
X114353169Y-127805703D01*
X114351386Y-127807616D01*
X114350604Y-127808713D01*
X114299226Y-127913808D01*
X114289300Y-127981939D01*
X114289300Y-129576537D01*
X114269999Y-129642268D01*
X114269999Y-132272800D01*
X114395500Y-132272800D01*
X114462539Y-132292485D01*
X114508294Y-132345289D01*
X114519500Y-132396800D01*
X114519500Y-132525500D01*
X114499815Y-132592539D01*
X114447011Y-132638294D01*
X114395500Y-132649500D01*
X112057046Y-132649500D01*
X111990007Y-132629815D01*
X111973508Y-132617137D01*
X111886562Y-132537876D01*
X111886560Y-132537874D01*
X111697404Y-132420754D01*
X111697395Y-132420750D01*
X111603956Y-132384552D01*
X111503475Y-132345625D01*
X111448075Y-132303054D01*
X111424484Y-132237288D01*
X111440195Y-132169207D01*
X111490219Y-132120428D01*
X111503466Y-132114377D01*
X111697401Y-132039247D01*
X111886562Y-131922124D01*
X112050981Y-131772236D01*
X112185058Y-131594689D01*
X112284229Y-131395528D01*
X112337016Y-131210000D01*
X113189799Y-131210000D01*
X113189799Y-131820644D01*
X113196200Y-131880172D01*
X113196202Y-131880179D01*
X113246444Y-132014886D01*
X113246448Y-132014893D01*
X113332608Y-132129987D01*
X113332611Y-132129990D01*
X113447705Y-132216150D01*
X113447712Y-132216154D01*
X113582419Y-132266396D01*
X113582426Y-132266398D01*
X113641954Y-132272799D01*
X113641971Y-132272800D01*
X113769999Y-132272800D01*
X113769999Y-131210000D01*
X113189799Y-131210000D01*
X112337016Y-131210000D01*
X112345115Y-131181536D01*
X112365643Y-130960000D01*
X112345115Y-130738464D01*
X112337016Y-130710000D01*
X113189799Y-130710000D01*
X113769999Y-130710000D01*
X113769999Y-129647200D01*
X113641954Y-129647200D01*
X113582426Y-129653601D01*
X113582419Y-129653603D01*
X113447712Y-129703845D01*
X113447705Y-129703849D01*
X113332611Y-129790009D01*
X113332608Y-129790012D01*
X113246448Y-129905106D01*
X113246444Y-129905113D01*
X113196202Y-130039820D01*
X113196200Y-130039827D01*
X113189799Y-130099355D01*
X113189799Y-130710000D01*
X112337016Y-130710000D01*
X112334720Y-130701929D01*
X112292742Y-130554390D01*
X112293329Y-130484523D01*
X112324325Y-130432777D01*
X112979749Y-129777353D01*
X112990098Y-129768105D01*
X113017970Y-129745879D01*
X113050184Y-129698628D01*
X113052852Y-129694869D01*
X113086792Y-129648883D01*
X113086793Y-129648877D01*
X113090786Y-129641325D01*
X113094468Y-129633677D01*
X113094472Y-129633673D01*
X113111336Y-129578998D01*
X113112769Y-129574643D01*
X113131646Y-129520700D01*
X113131646Y-129520694D01*
X113133228Y-129512336D01*
X113134500Y-129503899D01*
X113134500Y-129446738D01*
X113134587Y-129442100D01*
X113136724Y-129384989D01*
X113135684Y-129375756D01*
X113136513Y-129375662D01*
X113134500Y-129360364D01*
X113134500Y-128149965D01*
X113154185Y-128082926D01*
X113170819Y-128062284D01*
X113596284Y-127636819D01*
X113657607Y-127603334D01*
X113683965Y-127600500D01*
X114259456Y-127600500D01*
X114326495Y-127620185D01*
G37*
G04 #@! TD.AperFunction*
G04 #@! TA.AperFunction,Conductor*
G36*
X117653488Y-95870185D02*
G01*
X117697449Y-95919229D01*
X117754936Y-96034679D01*
X117754943Y-96034691D01*
X117889020Y-96212238D01*
X118053437Y-96362123D01*
X118053439Y-96362125D01*
X118242595Y-96479245D01*
X118242596Y-96479245D01*
X118242599Y-96479247D01*
X118436524Y-96554374D01*
X118491924Y-96596946D01*
X118515515Y-96662713D01*
X118499804Y-96730793D01*
X118449780Y-96779572D01*
X118436533Y-96785622D01*
X118325389Y-96828680D01*
X118242601Y-96860752D01*
X118242595Y-96860754D01*
X118092285Y-96953822D01*
X118024924Y-96972377D01*
X117958225Y-96951569D01*
X117913364Y-96898004D01*
X117903913Y-96863343D01*
X117892237Y-96767182D01*
X117892183Y-96767040D01*
X117844038Y-96640092D01*
X117836220Y-96619477D01*
X117746483Y-96489470D01*
X117628240Y-96384717D01*
X117628238Y-96384716D01*
X117628237Y-96384715D01*
X117488365Y-96311303D01*
X117334986Y-96273500D01*
X117334985Y-96273500D01*
X117177015Y-96273500D01*
X117177014Y-96273500D01*
X117023634Y-96311303D01*
X116883762Y-96384715D01*
X116862529Y-96403526D01*
X116778582Y-96477896D01*
X116765516Y-96489471D01*
X116675781Y-96619475D01*
X116675780Y-96619476D01*
X116619762Y-96767181D01*
X116600722Y-96923999D01*
X116600722Y-96924000D01*
X116619762Y-97080818D01*
X116675780Y-97228523D01*
X116675781Y-97228524D01*
X116765518Y-97358532D01*
X116770491Y-97364145D01*
X116769044Y-97365426D01*
X116800850Y-97416120D01*
X116805500Y-97449759D01*
X116805500Y-101463738D01*
X116804720Y-101477623D01*
X116800729Y-101513036D01*
X116811355Y-101569196D01*
X116812132Y-101573765D01*
X116820652Y-101630291D01*
X116823162Y-101638427D01*
X116825976Y-101646470D01*
X116825976Y-101646471D01*
X116825977Y-101646472D01*
X116851725Y-101695190D01*
X116852688Y-101697011D01*
X116854776Y-101701149D01*
X116879574Y-101752641D01*
X116884362Y-101759665D01*
X116889431Y-101766532D01*
X116889434Y-101766538D01*
X116889438Y-101766542D01*
X116929847Y-101806951D01*
X116933064Y-101810290D01*
X116971947Y-101852196D01*
X116979210Y-101857988D01*
X116978689Y-101858641D01*
X116990930Y-101868034D01*
X117615672Y-102492776D01*
X117649157Y-102554099D01*
X117647258Y-102614391D01*
X117594884Y-102798468D01*
X117574357Y-103019999D01*
X117574357Y-103020000D01*
X117594884Y-103241535D01*
X117594885Y-103241537D01*
X117655769Y-103455523D01*
X117655775Y-103455538D01*
X117754938Y-103654683D01*
X117754943Y-103654691D01*
X117889020Y-103832238D01*
X118053437Y-103982123D01*
X118053439Y-103982125D01*
X118242595Y-104099245D01*
X118242596Y-104099245D01*
X118242599Y-104099247D01*
X118436524Y-104174374D01*
X118491924Y-104216946D01*
X118515515Y-104282713D01*
X118499804Y-104350793D01*
X118449780Y-104399572D01*
X118436533Y-104405622D01*
X118325389Y-104448680D01*
X118242601Y-104480752D01*
X118242595Y-104480754D01*
X118053439Y-104597874D01*
X118053437Y-104597876D01*
X117889020Y-104747761D01*
X117754943Y-104925308D01*
X117754938Y-104925316D01*
X117655775Y-105124461D01*
X117655769Y-105124476D01*
X117594885Y-105338462D01*
X117594884Y-105338464D01*
X117574357Y-105559999D01*
X117574357Y-105560000D01*
X117594884Y-105781535D01*
X117594885Y-105781537D01*
X117655769Y-105995523D01*
X117655775Y-105995538D01*
X117754938Y-106194683D01*
X117754943Y-106194691D01*
X117889020Y-106372238D01*
X118053437Y-106522123D01*
X118053439Y-106522125D01*
X118242595Y-106639245D01*
X118242596Y-106639245D01*
X118242599Y-106639247D01*
X118436524Y-106714374D01*
X118491924Y-106756946D01*
X118515515Y-106822713D01*
X118499804Y-106890793D01*
X118449780Y-106939572D01*
X118436533Y-106945622D01*
X118325389Y-106988680D01*
X118242601Y-107020752D01*
X118242595Y-107020754D01*
X118053439Y-107137874D01*
X118053437Y-107137876D01*
X117889020Y-107287761D01*
X117754943Y-107465308D01*
X117754938Y-107465316D01*
X117655775Y-107664461D01*
X117655769Y-107664476D01*
X117594885Y-107878462D01*
X117594884Y-107878464D01*
X117574357Y-108099999D01*
X117574357Y-108100000D01*
X117594884Y-108321535D01*
X117594885Y-108321537D01*
X117655769Y-108535523D01*
X117655775Y-108535538D01*
X117754938Y-108734683D01*
X117754943Y-108734691D01*
X117889020Y-108912238D01*
X118053437Y-109062123D01*
X118053439Y-109062125D01*
X118242595Y-109179245D01*
X118242596Y-109179245D01*
X118242599Y-109179247D01*
X118436524Y-109254374D01*
X118491924Y-109296946D01*
X118515515Y-109362713D01*
X118499804Y-109430793D01*
X118449780Y-109479572D01*
X118436533Y-109485622D01*
X118325389Y-109528680D01*
X118242601Y-109560752D01*
X118242595Y-109560754D01*
X118053439Y-109677874D01*
X118053437Y-109677876D01*
X117889020Y-109827761D01*
X117754943Y-110005308D01*
X117754938Y-110005316D01*
X117655775Y-110204461D01*
X117655769Y-110204476D01*
X117594885Y-110418462D01*
X117594884Y-110418464D01*
X117574357Y-110639999D01*
X117574357Y-110640000D01*
X117594884Y-110861535D01*
X117594885Y-110861537D01*
X117655769Y-111075523D01*
X117655775Y-111075538D01*
X117754938Y-111274683D01*
X117754943Y-111274691D01*
X117889020Y-111452238D01*
X118053437Y-111602123D01*
X118053439Y-111602125D01*
X118242595Y-111719245D01*
X118242596Y-111719245D01*
X118242599Y-111719247D01*
X118436524Y-111794374D01*
X118491924Y-111836946D01*
X118515515Y-111902713D01*
X118499804Y-111970793D01*
X118449780Y-112019572D01*
X118436533Y-112025622D01*
X118325389Y-112068680D01*
X118242601Y-112100752D01*
X118242595Y-112100754D01*
X118053439Y-112217874D01*
X118053437Y-112217876D01*
X117889020Y-112367761D01*
X117754943Y-112545308D01*
X117754938Y-112545316D01*
X117655775Y-112744461D01*
X117655769Y-112744476D01*
X117594885Y-112958462D01*
X117594884Y-112958464D01*
X117574357Y-113179999D01*
X117574357Y-113180000D01*
X117594884Y-113401535D01*
X117594885Y-113401537D01*
X117655769Y-113615523D01*
X117655775Y-113615538D01*
X117754938Y-113814683D01*
X117754943Y-113814691D01*
X117889020Y-113992238D01*
X118053437Y-114142123D01*
X118053439Y-114142125D01*
X118242595Y-114259245D01*
X118242596Y-114259245D01*
X118242599Y-114259247D01*
X118436524Y-114334374D01*
X118491924Y-114376946D01*
X118515515Y-114442713D01*
X118499804Y-114510793D01*
X118449780Y-114559572D01*
X118436533Y-114565622D01*
X118325389Y-114608680D01*
X118242601Y-114640752D01*
X118242595Y-114640754D01*
X118053439Y-114757874D01*
X118053437Y-114757876D01*
X117889020Y-114907761D01*
X117754943Y-115085308D01*
X117754938Y-115085316D01*
X117655775Y-115284461D01*
X117655769Y-115284476D01*
X117594885Y-115498462D01*
X117594884Y-115498464D01*
X117574357Y-115719999D01*
X117574357Y-115720000D01*
X117594884Y-115941535D01*
X117594885Y-115941537D01*
X117655769Y-116155523D01*
X117655775Y-116155538D01*
X117754938Y-116354683D01*
X117754943Y-116354691D01*
X117889020Y-116532238D01*
X118053437Y-116682123D01*
X118053439Y-116682125D01*
X118242595Y-116799245D01*
X118242596Y-116799245D01*
X118242599Y-116799247D01*
X118436524Y-116874374D01*
X118491924Y-116916946D01*
X118515515Y-116982713D01*
X118499804Y-117050793D01*
X118449780Y-117099572D01*
X118436533Y-117105622D01*
X118325389Y-117148680D01*
X118242601Y-117180752D01*
X118242595Y-117180754D01*
X118053439Y-117297874D01*
X118053437Y-117297876D01*
X117889020Y-117447761D01*
X117754943Y-117625308D01*
X117754938Y-117625316D01*
X117655775Y-117824461D01*
X117655769Y-117824476D01*
X117594885Y-118038462D01*
X117594884Y-118038464D01*
X117574357Y-118259999D01*
X117574357Y-118260000D01*
X117594884Y-118481535D01*
X117594885Y-118481537D01*
X117655769Y-118695523D01*
X117655775Y-118695538D01*
X117754938Y-118894683D01*
X117754943Y-118894691D01*
X117889020Y-119072238D01*
X118053437Y-119222123D01*
X118053439Y-119222125D01*
X118242595Y-119339245D01*
X118242596Y-119339245D01*
X118242599Y-119339247D01*
X118436524Y-119414374D01*
X118491924Y-119456946D01*
X118515515Y-119522713D01*
X118499804Y-119590793D01*
X118449780Y-119639572D01*
X118436533Y-119645622D01*
X118325389Y-119688680D01*
X118242601Y-119720752D01*
X118242595Y-119720754D01*
X118053439Y-119837874D01*
X118053437Y-119837876D01*
X117889020Y-119987761D01*
X117754943Y-120165308D01*
X117754938Y-120165316D01*
X117655775Y-120364461D01*
X117655769Y-120364476D01*
X117594885Y-120578462D01*
X117594884Y-120578464D01*
X117574357Y-120799999D01*
X117574357Y-120800000D01*
X117594884Y-121021535D01*
X117594885Y-121021537D01*
X117655769Y-121235523D01*
X117655775Y-121235538D01*
X117754938Y-121434683D01*
X117754943Y-121434691D01*
X117889020Y-121612238D01*
X118053437Y-121762123D01*
X118053439Y-121762125D01*
X118242595Y-121879245D01*
X118242596Y-121879245D01*
X118242599Y-121879247D01*
X118436524Y-121954374D01*
X118491924Y-121996946D01*
X118515515Y-122062713D01*
X118499804Y-122130793D01*
X118449780Y-122179572D01*
X118436533Y-122185622D01*
X118325389Y-122228680D01*
X118242601Y-122260752D01*
X118242595Y-122260754D01*
X118053439Y-122377874D01*
X118053437Y-122377876D01*
X117889020Y-122527761D01*
X117754943Y-122705308D01*
X117754938Y-122705316D01*
X117655775Y-122904461D01*
X117655769Y-122904476D01*
X117594885Y-123118462D01*
X117594884Y-123118464D01*
X117574357Y-123339999D01*
X117574357Y-123340000D01*
X117594884Y-123561535D01*
X117594885Y-123561537D01*
X117655769Y-123775523D01*
X117655775Y-123775538D01*
X117757497Y-123979821D01*
X117755142Y-123980993D01*
X117770731Y-124037584D01*
X117749923Y-124104283D01*
X117696358Y-124149144D01*
X117646749Y-124159500D01*
X115002262Y-124159500D01*
X114988379Y-124158720D01*
X114984371Y-124158268D01*
X114952965Y-124154729D01*
X114896782Y-124165358D01*
X114892218Y-124166133D01*
X114835715Y-124174651D01*
X114827556Y-124177167D01*
X114819529Y-124179976D01*
X114768964Y-124206700D01*
X114764829Y-124208787D01*
X114713358Y-124233575D01*
X114706308Y-124238380D01*
X114699459Y-124243435D01*
X114659059Y-124283836D01*
X114655722Y-124287051D01*
X114613804Y-124325946D01*
X114608013Y-124333208D01*
X114607362Y-124332688D01*
X114597967Y-124344928D01*
X112481418Y-126461477D01*
X112420095Y-126494962D01*
X112350403Y-126489978D01*
X112294470Y-126448106D01*
X112270053Y-126382642D01*
X112282264Y-126320926D01*
X112282154Y-126320884D01*
X112282396Y-126320258D01*
X112282741Y-126318516D01*
X112284229Y-126315528D01*
X112345115Y-126101536D01*
X112365643Y-125880000D01*
X112345115Y-125658464D01*
X112284229Y-125444472D01*
X112198438Y-125272181D01*
X112185061Y-125245316D01*
X112185056Y-125245308D01*
X112050979Y-125067761D01*
X111886562Y-124917876D01*
X111886560Y-124917874D01*
X111697404Y-124800754D01*
X111697395Y-124800750D01*
X111603956Y-124764552D01*
X111503475Y-124725625D01*
X111448075Y-124683054D01*
X111424484Y-124617288D01*
X111440195Y-124549207D01*
X111490219Y-124500428D01*
X111503466Y-124494377D01*
X111697401Y-124419247D01*
X111886562Y-124302124D01*
X112043013Y-124159500D01*
X112050979Y-124152238D01*
X112053316Y-124149144D01*
X112185058Y-123974689D01*
X112284229Y-123775528D01*
X112345115Y-123561536D01*
X112365643Y-123340000D01*
X112345115Y-123118464D01*
X112284229Y-122904472D01*
X112276520Y-122888990D01*
X112185061Y-122705316D01*
X112185056Y-122705308D01*
X112050979Y-122527761D01*
X111886562Y-122377876D01*
X111886560Y-122377874D01*
X111697404Y-122260754D01*
X111697395Y-122260750D01*
X111581023Y-122215668D01*
X111503475Y-122185625D01*
X111448075Y-122143054D01*
X111424484Y-122077288D01*
X111440195Y-122009207D01*
X111490219Y-121960428D01*
X111503466Y-121954377D01*
X111697401Y-121879247D01*
X111886562Y-121762124D01*
X112043013Y-121619500D01*
X112050979Y-121612238D01*
X112057139Y-121604082D01*
X112185058Y-121434689D01*
X112284229Y-121235528D01*
X112345115Y-121021536D01*
X112365643Y-120800000D01*
X112345115Y-120578464D01*
X112284229Y-120364472D01*
X112284224Y-120364461D01*
X112248143Y-120292000D01*
X113552722Y-120292000D01*
X113571762Y-120448818D01*
X113620930Y-120578462D01*
X113627780Y-120596523D01*
X113717517Y-120726530D01*
X113835760Y-120831283D01*
X113835762Y-120831284D01*
X113975634Y-120904696D01*
X114129014Y-120942500D01*
X114129015Y-120942500D01*
X114286985Y-120942500D01*
X114440365Y-120904696D01*
X114442234Y-120903715D01*
X114580240Y-120831283D01*
X114698483Y-120726530D01*
X114788220Y-120596523D01*
X114844237Y-120448818D01*
X114863278Y-120292000D01*
X114844237Y-120135182D01*
X114788220Y-119987477D01*
X114698483Y-119857470D01*
X114698479Y-119857466D01*
X114693509Y-119851856D01*
X114694953Y-119850576D01*
X114663145Y-119799860D01*
X114658500Y-119766240D01*
X114658500Y-116915759D01*
X114678185Y-116848720D01*
X114693846Y-116830444D01*
X114693509Y-116830145D01*
X114698481Y-116824532D01*
X114698481Y-116824531D01*
X114698483Y-116824530D01*
X114788220Y-116694523D01*
X114844237Y-116546818D01*
X114863278Y-116390000D01*
X114844237Y-116233182D01*
X114788220Y-116085477D01*
X114698483Y-115955470D01*
X114580240Y-115850717D01*
X114580238Y-115850716D01*
X114580237Y-115850715D01*
X114440365Y-115777303D01*
X114286986Y-115739500D01*
X114286985Y-115739500D01*
X114129015Y-115739500D01*
X114129014Y-115739500D01*
X113975634Y-115777303D01*
X113835762Y-115850715D01*
X113717516Y-115955471D01*
X113627781Y-116085475D01*
X113627780Y-116085476D01*
X113571762Y-116233181D01*
X113552722Y-116389999D01*
X113552722Y-116390000D01*
X113571762Y-116546818D01*
X113584211Y-116579642D01*
X113627780Y-116694523D01*
X113664859Y-116748241D01*
X113717518Y-116824532D01*
X113722491Y-116830145D01*
X113721044Y-116831426D01*
X113752850Y-116882120D01*
X113757500Y-116915759D01*
X113757500Y-119766240D01*
X113737815Y-119833279D01*
X113722153Y-119851556D01*
X113722491Y-119851856D01*
X113717515Y-119857472D01*
X113627781Y-119987475D01*
X113627780Y-119987476D01*
X113571762Y-120135181D01*
X113552722Y-120291999D01*
X113552722Y-120292000D01*
X112248143Y-120292000D01*
X112185061Y-120165316D01*
X112185056Y-120165308D01*
X112050979Y-119987761D01*
X111886562Y-119837876D01*
X111886560Y-119837874D01*
X111697404Y-119720754D01*
X111697395Y-119720750D01*
X111581023Y-119675668D01*
X111503475Y-119645625D01*
X111448075Y-119603054D01*
X111424484Y-119537288D01*
X111440195Y-119469207D01*
X111490219Y-119420428D01*
X111503466Y-119414377D01*
X111697401Y-119339247D01*
X111886562Y-119222124D01*
X112050981Y-119072236D01*
X112185058Y-118894689D01*
X112284229Y-118695528D01*
X112345115Y-118481536D01*
X112365643Y-118260000D01*
X112345115Y-118038464D01*
X112284229Y-117824472D01*
X112264337Y-117784523D01*
X112185061Y-117625316D01*
X112185056Y-117625308D01*
X112050979Y-117447761D01*
X111886562Y-117297876D01*
X111886560Y-117297874D01*
X111697404Y-117180754D01*
X111697395Y-117180750D01*
X111603956Y-117144552D01*
X111503475Y-117105625D01*
X111448075Y-117063054D01*
X111424484Y-116997288D01*
X111440195Y-116929207D01*
X111490219Y-116880428D01*
X111503466Y-116874377D01*
X111697401Y-116799247D01*
X111886562Y-116682124D01*
X112050981Y-116532236D01*
X112185058Y-116354689D01*
X112284229Y-116155528D01*
X112345115Y-115941536D01*
X112365643Y-115720000D01*
X112345115Y-115498464D01*
X112284229Y-115284472D01*
X112198221Y-115111745D01*
X112185061Y-115085316D01*
X112185056Y-115085308D01*
X112050979Y-114907761D01*
X111886562Y-114757876D01*
X111886560Y-114757874D01*
X111697404Y-114640754D01*
X111697395Y-114640750D01*
X111603956Y-114604552D01*
X111503475Y-114565625D01*
X111448075Y-114523054D01*
X111424484Y-114457288D01*
X111440195Y-114389207D01*
X111490219Y-114340428D01*
X111503466Y-114334377D01*
X111697401Y-114259247D01*
X111886562Y-114142124D01*
X112050981Y-113992236D01*
X112185058Y-113814689D01*
X112284229Y-113615528D01*
X112345115Y-113401536D01*
X112365643Y-113180000D01*
X112345115Y-112958464D01*
X112284229Y-112744472D01*
X112198221Y-112571745D01*
X112185061Y-112545316D01*
X112185056Y-112545308D01*
X112050979Y-112367761D01*
X111886562Y-112217876D01*
X111886560Y-112217874D01*
X111697404Y-112100754D01*
X111697395Y-112100750D01*
X111603956Y-112064552D01*
X111503475Y-112025625D01*
X111448075Y-111983054D01*
X111424484Y-111917288D01*
X111440195Y-111849207D01*
X111490219Y-111800428D01*
X111503466Y-111794377D01*
X111697401Y-111719247D01*
X111886562Y-111602124D01*
X112050981Y-111452236D01*
X112185058Y-111274689D01*
X112284229Y-111075528D01*
X112345115Y-110861536D01*
X112365643Y-110640000D01*
X112345115Y-110418464D01*
X112284229Y-110204472D01*
X112284224Y-110204461D01*
X112185061Y-110005316D01*
X112185056Y-110005308D01*
X112050979Y-109827761D01*
X111886562Y-109677876D01*
X111886560Y-109677874D01*
X111697404Y-109560754D01*
X111697395Y-109560750D01*
X111603956Y-109524552D01*
X111503475Y-109485625D01*
X111448075Y-109443054D01*
X111424484Y-109377288D01*
X111440195Y-109309207D01*
X111490219Y-109260428D01*
X111503466Y-109254377D01*
X111697401Y-109179247D01*
X111886562Y-109062124D01*
X112050981Y-108912236D01*
X112185058Y-108734689D01*
X112284229Y-108535528D01*
X112345115Y-108321536D01*
X112365643Y-108100000D01*
X112345115Y-107878464D01*
X112284229Y-107664472D01*
X112283797Y-107663604D01*
X112185061Y-107465316D01*
X112185056Y-107465308D01*
X112169975Y-107445338D01*
X112131189Y-107393977D01*
X112106498Y-107328618D01*
X112121063Y-107260283D01*
X112170260Y-107210671D01*
X112176328Y-107207538D01*
X112178642Y-107206425D01*
X112178645Y-107206421D01*
X112178647Y-107206421D01*
X112185695Y-107201616D01*
X112192534Y-107196567D01*
X112192538Y-107196566D01*
X112232974Y-107156128D01*
X112236260Y-107152962D01*
X112278194Y-107114055D01*
X112278196Y-107114050D01*
X112283987Y-107106790D01*
X112284643Y-107107313D01*
X112294032Y-107095070D01*
X113233744Y-106155357D01*
X113244093Y-106146109D01*
X113271970Y-106123879D01*
X113304198Y-106076607D01*
X113306812Y-106072923D01*
X113340793Y-106026882D01*
X113340793Y-106026879D01*
X113340795Y-106026878D01*
X113344787Y-106019324D01*
X113348471Y-106011675D01*
X113348472Y-106011673D01*
X113365330Y-105957014D01*
X113366762Y-105952662D01*
X113385646Y-105898699D01*
X113385646Y-105898696D01*
X113387232Y-105890311D01*
X113388500Y-105881904D01*
X113388500Y-105824738D01*
X113388587Y-105820100D01*
X113390724Y-105762992D01*
X113389684Y-105753761D01*
X113390513Y-105753667D01*
X113388500Y-105738366D01*
X113388500Y-104019965D01*
X113408185Y-103952926D01*
X113424814Y-103932289D01*
X114757749Y-102599353D01*
X114768098Y-102590105D01*
X114795970Y-102567879D01*
X114828184Y-102520628D01*
X114830852Y-102516869D01*
X114864792Y-102470883D01*
X114864793Y-102470877D01*
X114868786Y-102463325D01*
X114872468Y-102455677D01*
X114872472Y-102455673D01*
X114889336Y-102400998D01*
X114890769Y-102396643D01*
X114909646Y-102342700D01*
X114909646Y-102342694D01*
X114911228Y-102334336D01*
X114912500Y-102325899D01*
X114912500Y-102268738D01*
X114912587Y-102264100D01*
X114914724Y-102206989D01*
X114913684Y-102197756D01*
X114914513Y-102197662D01*
X114912500Y-102182364D01*
X114912500Y-97415965D01*
X114932185Y-97348926D01*
X114948819Y-97328284D01*
X116390284Y-95886819D01*
X116451607Y-95853334D01*
X116477965Y-95850500D01*
X117586449Y-95850500D01*
X117653488Y-95870185D01*
G37*
G04 #@! TD.AperFunction*
G04 #@! TA.AperFunction,Conductor*
G36*
X127674853Y-70075882D02*
G01*
X127704568Y-70078220D01*
X127847136Y-70089440D01*
X127866346Y-70092483D01*
X128029638Y-70131686D01*
X128048130Y-70137694D01*
X128171090Y-70188626D01*
X128203277Y-70201959D01*
X128220614Y-70210793D01*
X128363786Y-70298529D01*
X128379527Y-70309965D01*
X128507217Y-70419022D01*
X128520977Y-70432782D01*
X128630034Y-70560472D01*
X128641470Y-70576213D01*
X128729206Y-70719385D01*
X128738040Y-70736722D01*
X128802302Y-70891862D01*
X128808315Y-70910368D01*
X128847515Y-71073648D01*
X128850559Y-71092866D01*
X128864118Y-71265146D01*
X128864500Y-71274875D01*
X128864500Y-137305124D01*
X128864118Y-137314853D01*
X128850559Y-137487133D01*
X128847515Y-137506351D01*
X128808315Y-137669631D01*
X128802302Y-137688137D01*
X128738040Y-137843277D01*
X128729206Y-137860614D01*
X128641470Y-138003786D01*
X128630034Y-138019527D01*
X128520977Y-138147217D01*
X128507217Y-138160977D01*
X128379527Y-138270034D01*
X128363786Y-138281470D01*
X128220614Y-138369206D01*
X128203277Y-138378040D01*
X128048137Y-138442302D01*
X128029631Y-138448315D01*
X127866351Y-138487515D01*
X127847133Y-138490559D01*
X127674854Y-138504118D01*
X127665125Y-138504500D01*
X102274875Y-138504500D01*
X102265146Y-138504118D01*
X102092866Y-138490559D01*
X102073648Y-138487515D01*
X101910368Y-138448315D01*
X101891862Y-138442302D01*
X101736722Y-138378040D01*
X101719385Y-138369206D01*
X101576213Y-138281470D01*
X101560472Y-138270034D01*
X101432782Y-138160977D01*
X101419022Y-138147217D01*
X101309965Y-138019527D01*
X101298529Y-138003786D01*
X101210793Y-137860614D01*
X101201959Y-137843277D01*
X101188626Y-137811090D01*
X101137694Y-137688130D01*
X101131686Y-137669638D01*
X101092483Y-137506346D01*
X101089440Y-137487132D01*
X101075882Y-137314852D01*
X101075500Y-137305124D01*
X101075500Y-88790654D01*
X101803001Y-88790654D01*
X101813319Y-88891652D01*
X101867546Y-89055300D01*
X101867551Y-89055311D01*
X101958052Y-89202034D01*
X101958055Y-89202038D01*
X102079848Y-89323831D01*
X102113333Y-89385154D01*
X102108349Y-89454846D01*
X102090543Y-89486998D01*
X102026882Y-89569962D01*
X101967636Y-89712997D01*
X101967635Y-89713002D01*
X101952500Y-89827952D01*
X101952500Y-90505033D01*
X101952501Y-90505050D01*
X101959287Y-90556596D01*
X101957448Y-90599440D01*
X101950218Y-90632283D01*
X101949453Y-90635549D01*
X101930314Y-90712508D01*
X101930191Y-90713416D01*
X101927607Y-90734516D01*
X101927500Y-90735501D01*
X101927500Y-90814772D01*
X101927455Y-90818129D01*
X101925306Y-90897437D01*
X101925389Y-90898447D01*
X101927500Y-90920649D01*
X101927500Y-131682392D01*
X101927091Y-131692456D01*
X101922798Y-131745164D01*
X101933502Y-131823732D01*
X101933910Y-131827062D01*
X101942486Y-131905912D01*
X101942710Y-131906930D01*
X101947525Y-131927473D01*
X101947774Y-131928471D01*
X101975113Y-132002891D01*
X101976227Y-132006053D01*
X101987412Y-132039245D01*
X102001556Y-132081221D01*
X102001557Y-132081223D01*
X102001558Y-132081225D01*
X102002001Y-132082185D01*
X102011146Y-132101266D01*
X102011564Y-132102109D01*
X102011567Y-132102114D01*
X102011568Y-132102116D01*
X102048886Y-132160500D01*
X102054267Y-132168918D01*
X102056036Y-132171771D01*
X102096927Y-132239733D01*
X102097538Y-132240536D01*
X102110578Y-132257216D01*
X102111197Y-132257986D01*
X102111199Y-132257988D01*
X102111200Y-132257989D01*
X102167302Y-132314091D01*
X102169572Y-132316423D01*
X102196916Y-132345289D01*
X102224155Y-132374045D01*
X102224950Y-132374720D01*
X102242118Y-132388907D01*
X103926592Y-134073380D01*
X103933419Y-134080785D01*
X103967662Y-134121099D01*
X104030781Y-134169081D01*
X104033427Y-134171150D01*
X104095242Y-134220838D01*
X104095247Y-134220842D01*
X104095252Y-134220844D01*
X104096163Y-134221427D01*
X104113955Y-134232463D01*
X104114933Y-134233052D01*
X104114936Y-134233054D01*
X104114938Y-134233055D01*
X104114940Y-134233056D01*
X104186919Y-134266357D01*
X104189898Y-134267783D01*
X104260979Y-134303037D01*
X104260982Y-134303037D01*
X104260987Y-134303040D01*
X104262019Y-134303419D01*
X104281853Y-134310402D01*
X104282830Y-134310730D01*
X104282833Y-134310732D01*
X104282835Y-134310732D01*
X104282837Y-134310733D01*
X104360253Y-134327773D01*
X104363514Y-134328536D01*
X104440506Y-134347684D01*
X104440508Y-134347684D01*
X104440512Y-134347685D01*
X104441604Y-134347833D01*
X104462375Y-134350377D01*
X104463502Y-134350499D01*
X104463503Y-134350500D01*
X104542773Y-134350500D01*
X104546130Y-134350545D01*
X104625432Y-134352693D01*
X104625432Y-134352692D01*
X104625435Y-134352693D01*
X104626479Y-134352608D01*
X104648648Y-134350500D01*
X104717503Y-134350500D01*
X110262954Y-134350500D01*
X110329993Y-134370185D01*
X110346492Y-134382863D01*
X110433437Y-134462123D01*
X110433439Y-134462125D01*
X110622595Y-134579245D01*
X110622596Y-134579245D01*
X110622599Y-134579247D01*
X110830060Y-134659618D01*
X111048757Y-134700500D01*
X111048759Y-134700500D01*
X111271241Y-134700500D01*
X111271243Y-134700500D01*
X111489940Y-134659618D01*
X111697401Y-134579247D01*
X111886562Y-134462124D01*
X111926049Y-134426125D01*
X111973508Y-134382863D01*
X112036312Y-134352246D01*
X112057046Y-134350500D01*
X117882954Y-134350500D01*
X117949993Y-134370185D01*
X117966492Y-134382863D01*
X118053437Y-134462123D01*
X118053439Y-134462125D01*
X118242595Y-134579245D01*
X118242596Y-134579245D01*
X118242599Y-134579247D01*
X118450060Y-134659618D01*
X118668757Y-134700500D01*
X118668759Y-134700500D01*
X118891241Y-134700500D01*
X118891243Y-134700500D01*
X119109940Y-134659618D01*
X119317401Y-134579247D01*
X119506562Y-134462124D01*
X119646282Y-134334751D01*
X119670979Y-134312238D01*
X119672117Y-134310732D01*
X119805058Y-134134689D01*
X119904229Y-133935528D01*
X119965115Y-133721536D01*
X119985643Y-133500000D01*
X119965115Y-133278464D01*
X119904229Y-133064472D01*
X119904224Y-133064461D01*
X119805061Y-132865316D01*
X119805056Y-132865308D01*
X119670979Y-132687761D01*
X119506562Y-132537876D01*
X119506560Y-132537874D01*
X119317404Y-132420754D01*
X119317395Y-132420750D01*
X119223956Y-132384552D01*
X119123475Y-132345625D01*
X119068075Y-132303054D01*
X119044484Y-132237288D01*
X119060195Y-132169207D01*
X119110219Y-132120428D01*
X119123466Y-132114377D01*
X119317401Y-132039247D01*
X119506562Y-131922124D01*
X119670981Y-131772236D01*
X119805058Y-131594689D01*
X119904229Y-131395528D01*
X119965115Y-131181536D01*
X119985643Y-130960000D01*
X119965115Y-130738464D01*
X119904229Y-130524472D01*
X119896774Y-130509500D01*
X119805061Y-130325316D01*
X119805056Y-130325308D01*
X119670979Y-130147761D01*
X119506562Y-129997876D01*
X119506560Y-129997874D01*
X119317404Y-129880754D01*
X119317395Y-129880750D01*
X119223956Y-129844552D01*
X119123475Y-129805625D01*
X119068075Y-129763054D01*
X119044484Y-129697288D01*
X119060195Y-129629207D01*
X119110219Y-129580428D01*
X119123466Y-129574377D01*
X119317401Y-129499247D01*
X119506562Y-129382124D01*
X119670981Y-129232236D01*
X119805058Y-129054689D01*
X119904229Y-128855528D01*
X119965115Y-128641536D01*
X119985643Y-128420000D01*
X119965115Y-128198464D01*
X119904229Y-127984472D01*
X119902968Y-127981940D01*
X119802503Y-127780179D01*
X119804857Y-127779006D01*
X119789269Y-127722416D01*
X119810077Y-127655717D01*
X119863642Y-127610856D01*
X119913251Y-127600500D01*
X121541738Y-127600500D01*
X121555620Y-127601279D01*
X121568421Y-127602722D01*
X121591033Y-127605270D01*
X121591033Y-127605269D01*
X121591035Y-127605270D01*
X121647236Y-127594635D01*
X121651726Y-127593872D01*
X121708287Y-127585348D01*
X121708291Y-127585345D01*
X121716447Y-127582830D01*
X121724469Y-127580024D01*
X121724470Y-127580023D01*
X121724472Y-127580023D01*
X121775088Y-127553270D01*
X121779093Y-127551248D01*
X121830642Y-127526425D01*
X121830643Y-127526423D01*
X121830645Y-127526423D01*
X121837695Y-127521616D01*
X121844534Y-127516567D01*
X121844538Y-127516566D01*
X121884975Y-127476127D01*
X121888261Y-127472961D01*
X121930194Y-127434055D01*
X121930196Y-127434050D01*
X121935987Y-127426790D01*
X121936643Y-127427313D01*
X121946032Y-127415070D01*
X126079744Y-123281357D01*
X126090093Y-123272109D01*
X126117970Y-123249879D01*
X126150198Y-123202607D01*
X126152812Y-123198923D01*
X126186793Y-123152882D01*
X126186793Y-123152879D01*
X126186795Y-123152878D01*
X126190787Y-123145324D01*
X126194471Y-123137675D01*
X126197551Y-123127689D01*
X126211330Y-123083014D01*
X126212762Y-123078662D01*
X126231646Y-123024699D01*
X126231646Y-123024696D01*
X126233232Y-123016311D01*
X126234500Y-123007904D01*
X126234500Y-122950738D01*
X126234587Y-122946100D01*
X126236724Y-122888992D01*
X126235684Y-122879761D01*
X126236513Y-122879667D01*
X126234500Y-122864366D01*
X126234500Y-85926261D01*
X126235280Y-85912376D01*
X126239270Y-85876966D01*
X126239270Y-85876965D01*
X126228633Y-85820753D01*
X126227864Y-85816219D01*
X126219348Y-85759715D01*
X126219348Y-85759713D01*
X126219346Y-85759709D01*
X126216836Y-85751571D01*
X126214024Y-85743534D01*
X126214023Y-85743528D01*
X126187285Y-85692941D01*
X126185223Y-85688854D01*
X126178806Y-85675528D01*
X126160425Y-85637358D01*
X126160423Y-85637356D01*
X126160423Y-85637355D01*
X126155642Y-85630342D01*
X126150566Y-85623465D01*
X126150565Y-85623462D01*
X126110165Y-85583062D01*
X126106947Y-85579721D01*
X126068060Y-85537809D01*
X126060792Y-85532014D01*
X126061312Y-85531361D01*
X126049067Y-85521964D01*
X123713856Y-83186753D01*
X123680371Y-83125430D01*
X123682270Y-83065141D01*
X123725756Y-82912310D01*
X123745429Y-82700000D01*
X123725756Y-82487690D01*
X123667405Y-82282611D01*
X123667403Y-82282606D01*
X123667403Y-82282605D01*
X123572367Y-82091746D01*
X123443872Y-81921593D01*
X123419846Y-81899690D01*
X123286302Y-81777948D01*
X123105019Y-81665702D01*
X123105017Y-81665701D01*
X122988989Y-81620752D01*
X122906198Y-81588679D01*
X122709385Y-81551888D01*
X122647106Y-81520221D01*
X122611833Y-81459908D01*
X122614767Y-81390100D01*
X122654976Y-81332960D01*
X122709384Y-81308111D01*
X122906198Y-81271321D01*
X123105019Y-81194298D01*
X123286302Y-81082052D01*
X123443872Y-80938407D01*
X123572366Y-80768255D01*
X123658373Y-80595528D01*
X123667403Y-80577394D01*
X123667403Y-80577393D01*
X123667405Y-80577389D01*
X123725756Y-80372310D01*
X123745429Y-80160000D01*
X123725756Y-79947690D01*
X123667405Y-79742611D01*
X123667403Y-79742606D01*
X123667403Y-79742605D01*
X123572367Y-79551746D01*
X123443872Y-79381593D01*
X123286302Y-79237948D01*
X123105019Y-79125702D01*
X123105017Y-79125701D01*
X122988989Y-79080752D01*
X122906198Y-79048679D01*
X122709385Y-79011888D01*
X122647106Y-78980221D01*
X122611833Y-78919908D01*
X122614767Y-78850100D01*
X122654976Y-78792960D01*
X122709384Y-78768111D01*
X122906198Y-78731321D01*
X123105019Y-78654298D01*
X123286302Y-78542052D01*
X123443872Y-78398407D01*
X123572366Y-78228255D01*
X123616696Y-78139225D01*
X123664197Y-78087992D01*
X123727695Y-78070500D01*
X125335777Y-78070500D01*
X125402816Y-78090185D01*
X125440091Y-78127459D01*
X125452793Y-78147223D01*
X125469304Y-78172915D01*
X125469307Y-78172919D01*
X125535531Y-78249344D01*
X125535535Y-78249347D01*
X125535539Y-78249352D01*
X125644200Y-78343506D01*
X125644205Y-78343509D01*
X125644206Y-78343510D01*
X125729273Y-78398180D01*
X125729277Y-78398182D01*
X125729283Y-78398186D01*
X125860068Y-78457914D01*
X125957114Y-78486409D01*
X126099429Y-78506871D01*
X126099430Y-78506871D01*
X126200567Y-78506871D01*
X126200570Y-78506871D01*
X126201544Y-78506730D01*
X126202401Y-78506608D01*
X126220045Y-78505346D01*
X126579955Y-78505346D01*
X126597599Y-78506608D01*
X126598774Y-78506776D01*
X126599430Y-78506871D01*
X126599433Y-78506871D01*
X126700570Y-78506871D01*
X126700571Y-78506871D01*
X126842886Y-78486409D01*
X126939932Y-78457914D01*
X127070717Y-78398186D01*
X127155800Y-78343506D01*
X127264461Y-78249352D01*
X127330698Y-78172912D01*
X127408430Y-78051958D01*
X127450445Y-77959956D01*
X127490952Y-77822001D01*
X127505346Y-77721889D01*
X127505346Y-77150000D01*
X127494473Y-77062768D01*
X127447484Y-76955644D01*
X127425480Y-76931741D01*
X127368258Y-76869581D01*
X127265380Y-76813907D01*
X127169253Y-76797866D01*
X127150000Y-76794654D01*
X127149999Y-76794654D01*
X126720048Y-76794654D01*
X126702404Y-76793392D01*
X126700578Y-76793129D01*
X126700572Y-76793129D01*
X126599430Y-76793129D01*
X126599424Y-76793129D01*
X126597599Y-76793392D01*
X126579955Y-76794654D01*
X126220045Y-76794654D01*
X126202401Y-76793392D01*
X126200575Y-76793129D01*
X126200570Y-76793129D01*
X126099428Y-76793129D01*
X126099421Y-76793129D01*
X126097596Y-76793392D01*
X126079952Y-76794654D01*
X125650000Y-76794654D01*
X125562768Y-76805527D01*
X125562767Y-76805527D01*
X125455642Y-76852517D01*
X125369581Y-76931741D01*
X125369581Y-76931742D01*
X125313907Y-77034619D01*
X125308686Y-77065910D01*
X125278235Y-77128795D01*
X125218620Y-77165235D01*
X125186377Y-77169500D01*
X123727695Y-77169500D01*
X123660656Y-77149815D01*
X123616696Y-77100774D01*
X123572366Y-77011745D01*
X123443872Y-76841593D01*
X123286302Y-76697948D01*
X123105019Y-76585702D01*
X123105017Y-76585701D01*
X122982946Y-76538411D01*
X122906198Y-76508679D01*
X122709385Y-76471888D01*
X122647106Y-76440221D01*
X122611833Y-76379908D01*
X122614767Y-76310100D01*
X122654976Y-76252960D01*
X122709384Y-76228111D01*
X122906198Y-76191321D01*
X123105019Y-76114298D01*
X123286302Y-76002052D01*
X123443872Y-75858407D01*
X123572366Y-75688255D01*
X123626270Y-75580000D01*
X123667403Y-75497394D01*
X123667403Y-75497393D01*
X123667405Y-75497389D01*
X123725756Y-75292310D01*
X123745429Y-75080000D01*
X123725756Y-74867690D01*
X123667405Y-74662611D01*
X123667403Y-74662606D01*
X123667403Y-74662605D01*
X123572367Y-74471746D01*
X123443872Y-74301593D01*
X123367721Y-74232172D01*
X123286302Y-74157948D01*
X123105019Y-74045702D01*
X123105017Y-74045701D01*
X122955829Y-73987906D01*
X122906198Y-73968679D01*
X122696610Y-73929500D01*
X122483390Y-73929500D01*
X122273802Y-73968679D01*
X122273799Y-73968679D01*
X122273799Y-73968680D01*
X122074982Y-74045701D01*
X122074980Y-74045702D01*
X121893699Y-74157947D01*
X121736127Y-74301593D01*
X121607632Y-74471746D01*
X121512596Y-74662605D01*
X121512596Y-74662607D01*
X121454244Y-74867689D01*
X121434571Y-75079999D01*
X121434571Y-75080000D01*
X121454244Y-75292310D01*
X121512596Y-75497392D01*
X121512596Y-75497394D01*
X121607632Y-75688253D01*
X121607634Y-75688255D01*
X121736128Y-75858407D01*
X121893698Y-76002052D01*
X122074981Y-76114298D01*
X122273802Y-76191321D01*
X122470613Y-76228111D01*
X122532893Y-76259779D01*
X122568166Y-76320092D01*
X122565232Y-76389900D01*
X122525023Y-76447040D01*
X122470613Y-76471888D01*
X122273802Y-76508679D01*
X122273799Y-76508679D01*
X122273799Y-76508680D01*
X122074982Y-76585701D01*
X122074980Y-76585702D01*
X121893699Y-76697947D01*
X121736127Y-76841593D01*
X121607632Y-77011746D01*
X121512596Y-77202605D01*
X121512596Y-77202607D01*
X121454244Y-77407689D01*
X121434571Y-77619999D01*
X121434571Y-77620000D01*
X121454244Y-77832310D01*
X121512596Y-78037391D01*
X121564876Y-78142388D01*
X121577136Y-78211174D01*
X121550262Y-78275668D01*
X121541556Y-78285339D01*
X120091975Y-79734920D01*
X120030652Y-79768405D01*
X119960960Y-79763421D01*
X119905027Y-79721549D01*
X119893294Y-79702511D01*
X119805061Y-79525316D01*
X119805056Y-79525308D01*
X119670979Y-79347761D01*
X119506562Y-79197876D01*
X119506560Y-79197874D01*
X119317404Y-79080754D01*
X119317395Y-79080750D01*
X119223956Y-79044552D01*
X119123475Y-79005625D01*
X119068075Y-78963054D01*
X119044484Y-78897288D01*
X119060195Y-78829207D01*
X119110219Y-78780428D01*
X119123466Y-78774377D01*
X119317401Y-78699247D01*
X119506562Y-78582124D01*
X119670981Y-78432236D01*
X119805058Y-78254689D01*
X119904229Y-78055528D01*
X119965115Y-77841536D01*
X119985643Y-77620000D01*
X119965115Y-77398464D01*
X119904229Y-77184472D01*
X119896774Y-77169500D01*
X119805061Y-76985316D01*
X119805056Y-76985308D01*
X119670979Y-76807761D01*
X119506562Y-76657876D01*
X119501986Y-76654420D01*
X119503171Y-76652850D01*
X119462429Y-76607393D01*
X119451329Y-76538411D01*
X119479285Y-76474378D01*
X119537423Y-76435625D01*
X119574345Y-76430000D01*
X119677828Y-76430000D01*
X119677844Y-76429999D01*
X119737372Y-76423598D01*
X119737379Y-76423596D01*
X119872086Y-76373354D01*
X119872093Y-76373350D01*
X119987187Y-76287190D01*
X119987190Y-76287187D01*
X120073350Y-76172093D01*
X120073354Y-76172086D01*
X120123596Y-76037379D01*
X120123598Y-76037372D01*
X120129999Y-75977844D01*
X120130000Y-75977827D01*
X120130000Y-75330000D01*
X119213686Y-75330000D01*
X119239493Y-75289844D01*
X119280000Y-75151889D01*
X119280000Y-75008111D01*
X119239493Y-74870156D01*
X119213686Y-74830000D01*
X120130000Y-74830000D01*
X120130000Y-74182172D01*
X120129999Y-74182155D01*
X120123598Y-74122627D01*
X120123596Y-74122620D01*
X120073354Y-73987913D01*
X120073350Y-73987906D01*
X119987190Y-73872812D01*
X119987187Y-73872809D01*
X119872093Y-73786649D01*
X119872086Y-73786645D01*
X119737379Y-73736403D01*
X119737372Y-73736401D01*
X119677844Y-73730000D01*
X119030000Y-73730000D01*
X119030000Y-74644498D01*
X118922315Y-74595320D01*
X118815763Y-74580000D01*
X118744237Y-74580000D01*
X118637685Y-74595320D01*
X118530000Y-74644498D01*
X118530000Y-73730000D01*
X117882155Y-73730000D01*
X117822627Y-73736401D01*
X117822620Y-73736403D01*
X117687913Y-73786645D01*
X117687906Y-73786649D01*
X117572812Y-73872809D01*
X117572809Y-73872812D01*
X117486649Y-73987906D01*
X117486645Y-73987913D01*
X117436403Y-74122620D01*
X117436401Y-74122627D01*
X117430000Y-74182155D01*
X117430000Y-74830000D01*
X118346314Y-74830000D01*
X118320507Y-74870156D01*
X118280000Y-75008111D01*
X118280000Y-75151889D01*
X118320507Y-75289844D01*
X118346314Y-75330000D01*
X117430000Y-75330000D01*
X117430000Y-75977844D01*
X117436401Y-76037372D01*
X117436403Y-76037379D01*
X117486645Y-76172086D01*
X117486649Y-76172093D01*
X117572809Y-76287187D01*
X117572812Y-76287190D01*
X117687906Y-76373350D01*
X117687913Y-76373354D01*
X117822620Y-76423596D01*
X117822627Y-76423598D01*
X117882155Y-76429999D01*
X117882172Y-76430000D01*
X117985655Y-76430000D01*
X118052694Y-76449685D01*
X118098449Y-76502489D01*
X118108393Y-76571647D01*
X118079368Y-76635203D01*
X118057542Y-76653796D01*
X118058014Y-76654420D01*
X118053437Y-76657876D01*
X117889020Y-76807761D01*
X117754943Y-76985308D01*
X117754938Y-76985316D01*
X117655775Y-77184461D01*
X117655769Y-77184476D01*
X117594885Y-77398462D01*
X117594884Y-77398464D01*
X117574357Y-77619999D01*
X117574357Y-77620000D01*
X117594884Y-77841531D01*
X117594884Y-77841533D01*
X117594885Y-77841536D01*
X117644630Y-78016374D01*
X117647258Y-78025608D01*
X117646670Y-78095476D01*
X117615672Y-78147223D01*
X116960263Y-78802632D01*
X116949898Y-78811895D01*
X116922033Y-78834117D01*
X116922030Y-78834121D01*
X116889823Y-78881357D01*
X116887144Y-78885132D01*
X116853206Y-78931118D01*
X116849216Y-78938667D01*
X116845528Y-78946325D01*
X116828673Y-79000967D01*
X116827225Y-79005368D01*
X116808353Y-79059304D01*
X116806771Y-79067659D01*
X116805500Y-79076100D01*
X116805500Y-79133260D01*
X116805413Y-79137897D01*
X116803275Y-79195009D01*
X116804316Y-79204243D01*
X116803485Y-79204336D01*
X116805500Y-79219635D01*
X116805500Y-80880349D01*
X116785815Y-80947388D01*
X116769181Y-80968030D01*
X112563580Y-85173630D01*
X112502257Y-85207115D01*
X112432565Y-85202131D01*
X112376632Y-85160259D01*
X112352428Y-85097389D01*
X112350471Y-85076272D01*
X112345115Y-85018464D01*
X112284229Y-84804472D01*
X112284224Y-84804461D01*
X112185061Y-84605316D01*
X112182041Y-84600439D01*
X112184123Y-84599149D01*
X112163160Y-84543628D01*
X112177738Y-84475296D01*
X112226945Y-84425693D01*
X112268324Y-84411672D01*
X112310287Y-84405348D01*
X112310291Y-84405345D01*
X112318447Y-84402830D01*
X112326469Y-84400024D01*
X112326470Y-84400023D01*
X112326472Y-84400023D01*
X112377088Y-84373270D01*
X112381093Y-84371248D01*
X112432642Y-84346425D01*
X112432643Y-84346423D01*
X112432645Y-84346423D01*
X112439695Y-84341616D01*
X112446534Y-84336567D01*
X112446538Y-84336566D01*
X112486975Y-84296127D01*
X112490261Y-84292961D01*
X112532194Y-84254055D01*
X112532196Y-84254050D01*
X112537987Y-84246790D01*
X112538643Y-84247313D01*
X112548032Y-84235070D01*
X114491049Y-82292053D01*
X114501398Y-82282805D01*
X114529270Y-82260579D01*
X114561484Y-82213328D01*
X114564152Y-82209569D01*
X114573168Y-82197353D01*
X114598092Y-82163583D01*
X114598093Y-82163577D01*
X114602086Y-82156025D01*
X114605768Y-82148377D01*
X114605772Y-82148373D01*
X114622636Y-82093698D01*
X114624069Y-82089343D01*
X114642946Y-82035400D01*
X114642946Y-82035394D01*
X114644528Y-82027036D01*
X114645800Y-82018599D01*
X114645800Y-81961438D01*
X114645887Y-81956800D01*
X114648024Y-81899689D01*
X114646984Y-81890456D01*
X114647813Y-81890362D01*
X114645800Y-81875064D01*
X114645800Y-72567169D01*
X114665485Y-72500130D01*
X114715338Y-72455769D01*
X114782783Y-72422798D01*
X114865498Y-72340083D01*
X114865501Y-72340076D01*
X114869079Y-72335066D01*
X114924052Y-72291942D01*
X114993614Y-72285384D01*
X115055678Y-72317475D01*
X115070921Y-72335066D01*
X115074506Y-72340088D01*
X115157214Y-72422796D01*
X115157215Y-72422796D01*
X115157217Y-72422798D01*
X115262307Y-72474173D01*
X115294194Y-72478819D01*
X115330439Y-72484100D01*
X115330440Y-72484100D01*
X116158961Y-72484100D01*
X116181671Y-72480791D01*
X116227093Y-72474173D01*
X116332183Y-72422798D01*
X116414898Y-72340083D01*
X116435451Y-72298039D01*
X116482579Y-72246458D01*
X116546852Y-72228500D01*
X116732427Y-72228500D01*
X116799466Y-72248185D01*
X116845221Y-72300989D01*
X116846978Y-72305024D01*
X116849883Y-72312037D01*
X116944133Y-72434867D01*
X117066963Y-72529117D01*
X117066962Y-72529117D01*
X117145189Y-72561519D01*
X117210001Y-72588365D01*
X117324960Y-72603500D01*
X117324967Y-72603500D01*
X117902033Y-72603500D01*
X117902040Y-72603500D01*
X118016999Y-72588365D01*
X118160037Y-72529117D01*
X118282867Y-72434867D01*
X118338464Y-72362410D01*
X118394889Y-72321209D01*
X118464635Y-72317054D01*
X118525555Y-72351265D01*
X118542376Y-72372800D01*
X118606054Y-72476037D01*
X118727961Y-72597944D01*
X118727965Y-72597947D01*
X118874688Y-72688448D01*
X118874699Y-72688453D01*
X119038347Y-72742680D01*
X119139351Y-72752999D01*
X119188499Y-72752998D01*
X119188500Y-72752998D01*
X119188500Y-72028000D01*
X119688500Y-72028000D01*
X119688500Y-72752999D01*
X119737640Y-72752999D01*
X119737654Y-72752998D01*
X119838652Y-72742680D01*
X120002300Y-72688453D01*
X120002311Y-72688448D01*
X120149034Y-72597947D01*
X120149038Y-72597944D01*
X120270944Y-72476038D01*
X120270947Y-72476034D01*
X120361448Y-72329311D01*
X120361453Y-72329300D01*
X120415680Y-72165652D01*
X120425999Y-72064654D01*
X120426000Y-72064641D01*
X120426000Y-72028000D01*
X119688500Y-72028000D01*
X119188500Y-72028000D01*
X119188500Y-70803000D01*
X119688500Y-70803000D01*
X119688500Y-71528000D01*
X120425999Y-71528000D01*
X120425999Y-71491360D01*
X120425998Y-71491345D01*
X120415680Y-71390347D01*
X120361453Y-71226699D01*
X120361448Y-71226688D01*
X120270947Y-71079965D01*
X120270944Y-71079961D01*
X120149038Y-70958055D01*
X120149034Y-70958052D01*
X120002311Y-70867551D01*
X120002300Y-70867546D01*
X119838652Y-70813319D01*
X119737654Y-70803000D01*
X119688500Y-70803000D01*
X119188500Y-70803000D01*
X119188499Y-70802999D01*
X119139361Y-70803000D01*
X119139343Y-70803001D01*
X119038347Y-70813319D01*
X118874699Y-70867546D01*
X118874688Y-70867551D01*
X118727965Y-70958052D01*
X118727961Y-70958055D01*
X118606054Y-71079962D01*
X118542376Y-71183199D01*
X118490427Y-71229923D01*
X118421465Y-71241144D01*
X118357383Y-71213300D01*
X118338462Y-71193587D01*
X118282867Y-71121133D01*
X118160037Y-71026883D01*
X118160036Y-71026882D01*
X118160037Y-71026882D01*
X118017002Y-70967636D01*
X118017000Y-70967635D01*
X118016999Y-70967635D01*
X117991452Y-70964271D01*
X117902047Y-70952500D01*
X117902040Y-70952500D01*
X117324960Y-70952500D01*
X117324952Y-70952500D01*
X117222774Y-70965953D01*
X117210001Y-70967635D01*
X117210000Y-70967635D01*
X117209997Y-70967636D01*
X117066963Y-71026882D01*
X116944133Y-71121133D01*
X116849884Y-71243961D01*
X116849883Y-71243962D01*
X116849883Y-71243963D01*
X116846987Y-71250952D01*
X116803149Y-71305355D01*
X116736855Y-71327421D01*
X116732427Y-71327500D01*
X116546852Y-71327500D01*
X116479813Y-71307815D01*
X116435451Y-71257960D01*
X116414898Y-71215917D01*
X116414896Y-71215915D01*
X116414896Y-71215914D01*
X116332185Y-71133203D01*
X116227091Y-71081826D01*
X116158961Y-71071900D01*
X116158960Y-71071900D01*
X115330440Y-71071900D01*
X115330439Y-71071900D01*
X115262308Y-71081826D01*
X115157214Y-71133203D01*
X115074502Y-71215915D01*
X115070918Y-71220936D01*
X115015943Y-71264059D01*
X114946382Y-71270614D01*
X114884319Y-71238521D01*
X114869082Y-71220936D01*
X114865497Y-71215915D01*
X114782785Y-71133203D01*
X114677691Y-71081826D01*
X114609561Y-71071900D01*
X114609560Y-71071900D01*
X113781040Y-71071900D01*
X113781039Y-71071900D01*
X113712908Y-71081826D01*
X113607814Y-71133203D01*
X113525103Y-71215914D01*
X113473726Y-71321008D01*
X113463800Y-71389139D01*
X113463800Y-72166860D01*
X113473726Y-72234991D01*
X113525103Y-72340085D01*
X113607814Y-72422796D01*
X113607815Y-72422796D01*
X113607817Y-72422798D01*
X113675261Y-72455769D01*
X113726842Y-72502896D01*
X113744800Y-72567169D01*
X113744800Y-81712734D01*
X113725115Y-81779773D01*
X113708481Y-81800415D01*
X112563214Y-82945681D01*
X112501891Y-82979166D01*
X112432199Y-82974182D01*
X112376266Y-82932310D01*
X112351849Y-82866846D01*
X112352061Y-82846565D01*
X112365643Y-82700000D01*
X112345115Y-82478464D01*
X112284229Y-82264472D01*
X112284224Y-82264461D01*
X112185061Y-82065316D01*
X112185056Y-82065308D01*
X112050979Y-81887761D01*
X111886562Y-81737876D01*
X111886560Y-81737874D01*
X111697404Y-81620754D01*
X111697395Y-81620750D01*
X111603956Y-81584552D01*
X111503475Y-81545625D01*
X111448075Y-81503054D01*
X111424484Y-81437288D01*
X111440195Y-81369207D01*
X111490219Y-81320428D01*
X111503466Y-81314377D01*
X111697401Y-81239247D01*
X111886562Y-81122124D01*
X112026282Y-80994751D01*
X112050979Y-80972238D01*
X112120371Y-80880349D01*
X112185058Y-80794689D01*
X112284229Y-80595528D01*
X112345115Y-80381536D01*
X112365643Y-80160000D01*
X112345115Y-79938464D01*
X112284229Y-79724472D01*
X112233500Y-79622595D01*
X112185061Y-79525316D01*
X112185056Y-79525308D01*
X112050979Y-79347761D01*
X111886562Y-79197876D01*
X111886560Y-79197874D01*
X111697404Y-79080754D01*
X111697395Y-79080750D01*
X111603956Y-79044552D01*
X111503475Y-79005625D01*
X111448075Y-78963054D01*
X111424484Y-78897288D01*
X111440195Y-78829207D01*
X111490219Y-78780428D01*
X111503466Y-78774377D01*
X111697401Y-78699247D01*
X111886562Y-78582124D01*
X112050981Y-78432236D01*
X112185058Y-78254689D01*
X112284229Y-78055528D01*
X112345115Y-77841536D01*
X112365643Y-77620000D01*
X112345115Y-77398464D01*
X112284229Y-77184472D01*
X112276774Y-77169500D01*
X112185061Y-76985316D01*
X112185056Y-76985308D01*
X112050979Y-76807761D01*
X111886562Y-76657876D01*
X111881986Y-76654420D01*
X111883171Y-76652850D01*
X111842429Y-76607393D01*
X111831329Y-76538411D01*
X111859285Y-76474378D01*
X111917423Y-76435625D01*
X111954345Y-76430000D01*
X112057828Y-76430000D01*
X112057844Y-76429999D01*
X112117372Y-76423598D01*
X112117379Y-76423596D01*
X112252086Y-76373354D01*
X112252093Y-76373350D01*
X112367187Y-76287190D01*
X112367190Y-76287187D01*
X112453350Y-76172093D01*
X112453354Y-76172086D01*
X112503596Y-76037379D01*
X112503598Y-76037372D01*
X112509999Y-75977844D01*
X112510000Y-75977827D01*
X112510000Y-75330000D01*
X111593686Y-75330000D01*
X111619493Y-75289844D01*
X111660000Y-75151889D01*
X111660000Y-75008111D01*
X111619493Y-74870156D01*
X111593686Y-74830000D01*
X112510000Y-74830000D01*
X112510000Y-74182172D01*
X112509999Y-74182155D01*
X112503598Y-74122627D01*
X112503596Y-74122620D01*
X112453354Y-73987913D01*
X112453350Y-73987906D01*
X112367190Y-73872812D01*
X112367187Y-73872809D01*
X112252093Y-73786649D01*
X112252086Y-73786645D01*
X112117379Y-73736403D01*
X112117372Y-73736401D01*
X112057844Y-73730000D01*
X111410000Y-73730000D01*
X111410000Y-74644498D01*
X111302315Y-74595320D01*
X111195763Y-74580000D01*
X111124237Y-74580000D01*
X111017685Y-74595320D01*
X110910000Y-74644498D01*
X110910000Y-73730000D01*
X110262155Y-73730000D01*
X110202627Y-73736401D01*
X110202620Y-73736403D01*
X110067913Y-73786645D01*
X110067906Y-73786649D01*
X109952812Y-73872809D01*
X109952809Y-73872812D01*
X109866649Y-73987906D01*
X109866645Y-73987913D01*
X109816403Y-74122620D01*
X109816401Y-74122627D01*
X109810000Y-74182155D01*
X109810000Y-74830000D01*
X110726314Y-74830000D01*
X110700507Y-74870156D01*
X110660000Y-75008111D01*
X110660000Y-75151889D01*
X110700507Y-75289844D01*
X110726314Y-75330000D01*
X109810000Y-75330000D01*
X109810000Y-75977844D01*
X109816401Y-76037372D01*
X109816403Y-76037379D01*
X109866645Y-76172086D01*
X109866649Y-76172093D01*
X109952809Y-76287187D01*
X109952812Y-76287190D01*
X110067906Y-76373350D01*
X110067913Y-76373354D01*
X110202620Y-76423596D01*
X110202627Y-76423598D01*
X110262155Y-76429999D01*
X110262172Y-76430000D01*
X110365655Y-76430000D01*
X110432694Y-76449685D01*
X110478449Y-76502489D01*
X110488393Y-76571647D01*
X110459368Y-76635203D01*
X110437542Y-76653796D01*
X110438014Y-76654420D01*
X110433437Y-76657876D01*
X110269020Y-76807761D01*
X110134943Y-76985308D01*
X110134938Y-76985316D01*
X110035775Y-77184461D01*
X110035769Y-77184476D01*
X109974885Y-77398462D01*
X109974884Y-77398464D01*
X109954357Y-77619999D01*
X109954357Y-77620000D01*
X109974884Y-77841535D01*
X109974885Y-77841537D01*
X110035769Y-78055523D01*
X110035775Y-78055538D01*
X110134938Y-78254683D01*
X110134943Y-78254691D01*
X110269020Y-78432238D01*
X110433437Y-78582123D01*
X110433439Y-78582125D01*
X110622595Y-78699245D01*
X110622596Y-78699245D01*
X110622599Y-78699247D01*
X110816524Y-78774374D01*
X110871924Y-78816946D01*
X110895515Y-78882713D01*
X110879804Y-78950793D01*
X110829780Y-78999572D01*
X110816533Y-79005622D01*
X110705389Y-79048680D01*
X110622601Y-79080752D01*
X110622595Y-79080754D01*
X110433439Y-79197874D01*
X110433437Y-79197876D01*
X110269020Y-79347761D01*
X110134943Y-79525308D01*
X110134938Y-79525316D01*
X110035775Y-79724461D01*
X110035769Y-79724476D01*
X109974885Y-79938462D01*
X109974884Y-79938464D01*
X109954357Y-80159999D01*
X109954357Y-80160000D01*
X109974884Y-80381535D01*
X109974885Y-80381537D01*
X110035769Y-80595523D01*
X110035775Y-80595538D01*
X110134938Y-80794683D01*
X110134943Y-80794691D01*
X110269020Y-80972238D01*
X110433437Y-81122123D01*
X110433439Y-81122125D01*
X110622595Y-81239245D01*
X110622596Y-81239245D01*
X110622599Y-81239247D01*
X110816524Y-81314374D01*
X110871924Y-81356946D01*
X110895515Y-81422713D01*
X110879804Y-81490793D01*
X110829780Y-81539572D01*
X110816533Y-81545622D01*
X110705389Y-81588680D01*
X110622601Y-81620752D01*
X110622595Y-81620754D01*
X110433439Y-81737874D01*
X110433437Y-81737876D01*
X110269020Y-81887761D01*
X110134943Y-82065308D01*
X110134938Y-82065316D01*
X110035775Y-82264461D01*
X110035769Y-82264476D01*
X109974885Y-82478462D01*
X109974884Y-82478464D01*
X109954357Y-82699999D01*
X109954357Y-82700000D01*
X109974884Y-82921535D01*
X109974885Y-82921537D01*
X110035769Y-83135523D01*
X110035775Y-83135538D01*
X110134938Y-83334683D01*
X110134947Y-83334697D01*
X110188809Y-83406022D01*
X110213501Y-83471383D01*
X110198936Y-83539718D01*
X110149738Y-83589330D01*
X110143661Y-83592466D01*
X110141359Y-83593574D01*
X110134308Y-83598380D01*
X110127459Y-83603435D01*
X110087059Y-83643836D01*
X110083722Y-83647051D01*
X110041804Y-83685946D01*
X110036013Y-83693208D01*
X110035362Y-83692688D01*
X110025967Y-83704928D01*
X108683124Y-85047771D01*
X108621801Y-85081256D01*
X108552109Y-85076272D01*
X108496176Y-85034400D01*
X108476177Y-84994025D01*
X108427405Y-84822611D01*
X108427403Y-84822606D01*
X108427403Y-84822605D01*
X108332367Y-84631746D01*
X108203872Y-84461593D01*
X108175859Y-84436056D01*
X108046302Y-84317948D01*
X107865019Y-84205702D01*
X107865017Y-84205701D01*
X107748991Y-84160753D01*
X107666198Y-84128679D01*
X107469385Y-84091888D01*
X107407106Y-84060221D01*
X107371833Y-83999908D01*
X107374767Y-83930100D01*
X107414976Y-83872960D01*
X107469384Y-83848111D01*
X107666198Y-83811321D01*
X107865019Y-83734298D01*
X108046302Y-83622052D01*
X108203872Y-83478407D01*
X108332366Y-83308255D01*
X108392866Y-83186753D01*
X108427403Y-83117394D01*
X108427403Y-83117393D01*
X108427405Y-83117389D01*
X108485756Y-82912310D01*
X108505429Y-82700000D01*
X108485756Y-82487690D01*
X108427405Y-82282611D01*
X108427403Y-82282606D01*
X108427403Y-82282605D01*
X108332367Y-82091746D01*
X108203872Y-81921593D01*
X108179846Y-81899690D01*
X108046302Y-81777948D01*
X107865019Y-81665702D01*
X107865017Y-81665701D01*
X107748989Y-81620752D01*
X107666198Y-81588679D01*
X107469385Y-81551888D01*
X107407106Y-81520221D01*
X107371833Y-81459908D01*
X107374767Y-81390100D01*
X107414976Y-81332960D01*
X107469384Y-81308111D01*
X107666198Y-81271321D01*
X107865019Y-81194298D01*
X108046302Y-81082052D01*
X108203872Y-80938407D01*
X108332366Y-80768255D01*
X108418373Y-80595528D01*
X108427403Y-80577394D01*
X108427403Y-80577393D01*
X108427405Y-80577389D01*
X108485756Y-80372310D01*
X108505429Y-80160000D01*
X108485756Y-79947690D01*
X108427405Y-79742611D01*
X108427403Y-79742606D01*
X108427403Y-79742605D01*
X108332367Y-79551746D01*
X108203872Y-79381593D01*
X108046302Y-79237948D01*
X107865019Y-79125702D01*
X107865017Y-79125701D01*
X107748989Y-79080752D01*
X107666198Y-79048679D01*
X107469385Y-79011888D01*
X107407106Y-78980221D01*
X107371833Y-78919908D01*
X107374767Y-78850100D01*
X107414976Y-78792960D01*
X107469384Y-78768111D01*
X107666198Y-78731321D01*
X107865019Y-78654298D01*
X108046302Y-78542052D01*
X108203872Y-78398407D01*
X108332366Y-78228255D01*
X108382555Y-78127461D01*
X108427403Y-78037394D01*
X108427403Y-78037393D01*
X108427405Y-78037389D01*
X108485756Y-77832310D01*
X108505429Y-77620000D01*
X108485756Y-77407690D01*
X108427405Y-77202611D01*
X108427403Y-77202606D01*
X108427403Y-77202605D01*
X108332367Y-77011746D01*
X108203872Y-76841593D01*
X108173502Y-76813907D01*
X108046302Y-76697948D01*
X108046299Y-76697946D01*
X108046298Y-76697945D01*
X107903336Y-76609427D01*
X107856700Y-76557399D01*
X107845596Y-76488418D01*
X107873549Y-76424383D01*
X107931684Y-76385627D01*
X107968613Y-76380000D01*
X108197828Y-76380000D01*
X108197844Y-76379999D01*
X108257372Y-76373598D01*
X108257379Y-76373596D01*
X108392086Y-76323354D01*
X108392093Y-76323350D01*
X108507187Y-76237190D01*
X108507190Y-76237187D01*
X108593350Y-76122093D01*
X108593354Y-76122086D01*
X108643596Y-75987379D01*
X108643598Y-75987372D01*
X108649999Y-75927844D01*
X108650000Y-75927827D01*
X108650000Y-75330000D01*
X107665686Y-75330000D01*
X107677641Y-75318045D01*
X107735165Y-75205148D01*
X107754986Y-75080000D01*
X107735165Y-74954852D01*
X107677641Y-74841955D01*
X107665686Y-74830000D01*
X108650000Y-74830000D01*
X108650000Y-74232172D01*
X108649999Y-74232155D01*
X108643598Y-74172627D01*
X108643596Y-74172620D01*
X108593354Y-74037913D01*
X108593350Y-74037906D01*
X108507190Y-73922812D01*
X108507187Y-73922809D01*
X108392093Y-73836649D01*
X108392086Y-73836645D01*
X108257379Y-73786403D01*
X108257372Y-73786401D01*
X108197844Y-73780000D01*
X107600000Y-73780000D01*
X107600000Y-74764314D01*
X107588045Y-74752359D01*
X107475148Y-74694835D01*
X107381481Y-74680000D01*
X107318519Y-74680000D01*
X107224852Y-74694835D01*
X107111955Y-74752359D01*
X107100000Y-74764314D01*
X107100000Y-73780000D01*
X106502155Y-73780000D01*
X106442627Y-73786401D01*
X106442620Y-73786403D01*
X106307913Y-73836645D01*
X106307906Y-73836649D01*
X106192812Y-73922809D01*
X106192809Y-73922812D01*
X106106649Y-74037906D01*
X106106645Y-74037913D01*
X106056403Y-74172620D01*
X106056401Y-74172627D01*
X106050000Y-74232155D01*
X106050000Y-74830000D01*
X107034314Y-74830000D01*
X107022359Y-74841955D01*
X106964835Y-74954852D01*
X106945014Y-75080000D01*
X106964835Y-75205148D01*
X107022359Y-75318045D01*
X107034314Y-75330000D01*
X106050000Y-75330000D01*
X106050000Y-75927844D01*
X106056401Y-75987372D01*
X106056403Y-75987379D01*
X106106645Y-76122086D01*
X106106649Y-76122093D01*
X106192809Y-76237187D01*
X106192812Y-76237190D01*
X106307906Y-76323350D01*
X106307913Y-76323354D01*
X106442620Y-76373596D01*
X106442627Y-76373598D01*
X106502155Y-76379999D01*
X106502172Y-76380000D01*
X106731387Y-76380000D01*
X106798426Y-76399685D01*
X106844181Y-76452489D01*
X106854125Y-76521647D01*
X106825100Y-76585203D01*
X106796664Y-76609427D01*
X106653701Y-76697945D01*
X106496127Y-76841593D01*
X106367632Y-77011746D01*
X106272596Y-77202605D01*
X106272596Y-77202607D01*
X106214244Y-77407689D01*
X106194571Y-77619999D01*
X106194571Y-77620000D01*
X106214244Y-77832310D01*
X106272596Y-78037392D01*
X106272596Y-78037394D01*
X106367632Y-78228253D01*
X106495961Y-78398186D01*
X106496128Y-78398407D01*
X106653698Y-78542052D01*
X106834981Y-78654298D01*
X107033802Y-78731321D01*
X107230613Y-78768111D01*
X107292893Y-78799779D01*
X107328166Y-78860092D01*
X107325232Y-78929900D01*
X107285023Y-78987040D01*
X107230613Y-79011888D01*
X107033802Y-79048679D01*
X107033799Y-79048679D01*
X107033799Y-79048680D01*
X106834982Y-79125701D01*
X106834980Y-79125702D01*
X106653699Y-79237947D01*
X106496127Y-79381593D01*
X106367632Y-79551746D01*
X106272596Y-79742605D01*
X106272596Y-79742607D01*
X106214244Y-79947689D01*
X106194571Y-80159999D01*
X106194571Y-80160000D01*
X106214244Y-80372310D01*
X106272596Y-80577392D01*
X106272596Y-80577394D01*
X106367632Y-80768253D01*
X106452284Y-80880349D01*
X106496128Y-80938407D01*
X106653698Y-81082052D01*
X106834981Y-81194298D01*
X107033802Y-81271321D01*
X107230613Y-81308111D01*
X107292893Y-81339779D01*
X107328166Y-81400092D01*
X107325232Y-81469900D01*
X107285023Y-81527040D01*
X107230613Y-81551888D01*
X107033802Y-81588679D01*
X107033799Y-81588679D01*
X107033799Y-81588680D01*
X106834982Y-81665701D01*
X106834980Y-81665702D01*
X106653699Y-81777947D01*
X106496127Y-81921593D01*
X106367632Y-82091746D01*
X106272596Y-82282605D01*
X106272596Y-82282607D01*
X106216870Y-82478462D01*
X106214244Y-82487690D01*
X106194571Y-82700000D01*
X106214244Y-82912310D01*
X106257727Y-83065136D01*
X106272596Y-83117392D01*
X106272596Y-83117394D01*
X106367632Y-83308253D01*
X106496127Y-83478406D01*
X106496128Y-83478407D01*
X106653698Y-83622052D01*
X106834981Y-83734298D01*
X107033802Y-83811321D01*
X107230613Y-83848111D01*
X107292893Y-83879779D01*
X107328166Y-83940092D01*
X107325232Y-84009900D01*
X107285023Y-84067040D01*
X107230613Y-84091888D01*
X107033802Y-84128679D01*
X107033799Y-84128679D01*
X107033799Y-84128680D01*
X106834982Y-84205701D01*
X106834980Y-84205702D01*
X106653699Y-84317947D01*
X106496127Y-84461593D01*
X106367632Y-84631746D01*
X106272596Y-84822605D01*
X106272596Y-84822607D01*
X106214244Y-85027689D01*
X106207786Y-85097389D01*
X106194571Y-85240000D01*
X106214244Y-85452310D01*
X106257727Y-85605136D01*
X106272596Y-85657392D01*
X106272596Y-85657394D01*
X106367632Y-85848253D01*
X106416056Y-85912376D01*
X106496128Y-86018407D01*
X106653698Y-86162052D01*
X106834981Y-86274298D01*
X107033802Y-86351321D01*
X107230613Y-86388111D01*
X107292893Y-86419779D01*
X107328166Y-86480092D01*
X107325232Y-86549900D01*
X107285023Y-86607040D01*
X107230613Y-86631888D01*
X107033802Y-86668679D01*
X107033799Y-86668679D01*
X107033799Y-86668680D01*
X106834982Y-86745701D01*
X106834980Y-86745702D01*
X106653699Y-86857947D01*
X106496127Y-87001593D01*
X106367632Y-87171746D01*
X106272596Y-87362605D01*
X106272596Y-87362607D01*
X106214244Y-87567689D01*
X106208089Y-87634119D01*
X106194571Y-87780000D01*
X106214244Y-87992310D01*
X106270919Y-88191500D01*
X106272596Y-88197392D01*
X106272596Y-88197394D01*
X106367632Y-88388253D01*
X106490266Y-88550645D01*
X106496128Y-88558407D01*
X106653698Y-88702052D01*
X106834981Y-88814298D01*
X107033802Y-88891321D01*
X107230613Y-88928111D01*
X107292893Y-88959779D01*
X107328166Y-89020092D01*
X107325232Y-89089900D01*
X107285023Y-89147040D01*
X107230613Y-89171888D01*
X107033802Y-89208679D01*
X107033799Y-89208679D01*
X107033799Y-89208680D01*
X106834982Y-89285701D01*
X106834980Y-89285702D01*
X106653696Y-89397949D01*
X106610709Y-89437137D01*
X106547905Y-89467754D01*
X106527171Y-89469500D01*
X105407845Y-89469500D01*
X105340806Y-89449815D01*
X105295051Y-89397011D01*
X105285107Y-89327853D01*
X105314132Y-89264297D01*
X105320164Y-89257819D01*
X105375944Y-89202038D01*
X105375947Y-89202034D01*
X105466448Y-89055311D01*
X105466453Y-89055300D01*
X105520680Y-88891652D01*
X105530999Y-88790654D01*
X105531000Y-88790641D01*
X105531000Y-88691500D01*
X101803001Y-88691500D01*
X101803001Y-88790654D01*
X101075500Y-88790654D01*
X101075500Y-88191500D01*
X101803000Y-88191500D01*
X102528000Y-88191500D01*
X102528000Y-87404000D01*
X103028000Y-87404000D01*
X103028000Y-88191500D01*
X104306000Y-88191500D01*
X104306000Y-87404000D01*
X104806000Y-87404000D01*
X104806000Y-88191500D01*
X105530999Y-88191500D01*
X105530999Y-88092360D01*
X105530998Y-88092345D01*
X105520680Y-87991347D01*
X105466453Y-87827699D01*
X105466448Y-87827688D01*
X105375947Y-87680965D01*
X105375944Y-87680961D01*
X105254038Y-87559055D01*
X105254034Y-87559052D01*
X105107311Y-87468551D01*
X105107300Y-87468546D01*
X104943652Y-87414319D01*
X104842654Y-87404000D01*
X104806000Y-87404000D01*
X104306000Y-87404000D01*
X104269361Y-87404000D01*
X104269343Y-87404001D01*
X104168347Y-87414319D01*
X104004699Y-87468546D01*
X104004688Y-87468551D01*
X103857965Y-87559052D01*
X103857961Y-87559055D01*
X103754681Y-87662336D01*
X103693358Y-87695821D01*
X103623666Y-87690837D01*
X103579319Y-87662336D01*
X103476038Y-87559055D01*
X103476034Y-87559052D01*
X103329311Y-87468551D01*
X103329300Y-87468546D01*
X103165652Y-87414319D01*
X103064654Y-87404000D01*
X103028000Y-87404000D01*
X102528000Y-87404000D01*
X102491361Y-87404000D01*
X102491343Y-87404001D01*
X102390347Y-87414319D01*
X102226699Y-87468546D01*
X102226688Y-87468551D01*
X102079965Y-87559052D01*
X102079961Y-87559055D01*
X101958055Y-87680961D01*
X101958052Y-87680965D01*
X101867551Y-87827688D01*
X101867546Y-87827699D01*
X101813319Y-87991347D01*
X101803000Y-88092345D01*
X101803000Y-88191500D01*
X101075500Y-88191500D01*
X101075500Y-71274875D01*
X101075882Y-71265147D01*
X101079756Y-71215917D01*
X101089440Y-71092861D01*
X101092482Y-71073655D01*
X101131687Y-70910357D01*
X101137693Y-70891872D01*
X101201960Y-70736719D01*
X101210793Y-70719385D01*
X101298529Y-70576213D01*
X101309965Y-70560472D01*
X101419027Y-70432776D01*
X101432776Y-70419027D01*
X101560475Y-70309962D01*
X101576213Y-70298529D01*
X101719388Y-70210791D01*
X101736719Y-70201960D01*
X101891872Y-70137693D01*
X101910357Y-70131687D01*
X102073655Y-70092482D01*
X102092861Y-70089440D01*
X102240383Y-70077830D01*
X102265147Y-70075882D01*
X102274875Y-70075500D01*
X102294531Y-70075500D01*
X127645469Y-70075500D01*
X127665125Y-70075500D01*
X127674853Y-70075882D01*
G37*
G04 #@! TD.AperFunction*
M02*
