G04 #@! TF.GenerationSoftware,KiCad,Pcbnew,9.0.6*
G04 #@! TF.CreationDate,2025-12-03T22:02:21+09:00*
G04 #@! TF.ProjectId,bionic-z380,62696f6e-6963-42d7-9a33-38302e6b6963,2*
G04 #@! TF.SameCoordinates,Original*
G04 #@! TF.FileFunction,Soldermask,Bot*
G04 #@! TF.FilePolarity,Negative*
%FSLAX46Y46*%
G04 Gerber Fmt 4.6, Leading zero omitted, Abs format (unit mm)*
G04 Created by KiCad (PCBNEW 9.0.6) date 2025-12-03 22:02:21*
%MOMM*%
%LPD*%
G01*
G04 APERTURE LIST*
G04 Aperture macros list*
%AMRoundRect*
0 Rectangle with rounded corners*
0 $1 Rounding radius*
0 $2 $3 $4 $5 $6 $7 $8 $9 X,Y pos of 4 corners*
0 Add a 4 corners polygon primitive as box body*
4,1,4,$2,$3,$4,$5,$6,$7,$8,$9,$2,$3,0*
0 Add four circle primitives for the rounded corners*
1,1,$1+$1,$2,$3*
1,1,$1+$1,$4,$5*
1,1,$1+$1,$6,$7*
1,1,$1+$1,$8,$9*
0 Add four rect primitives between the rounded corners*
20,1,$1+$1,$2,$3,$4,$5,0*
20,1,$1+$1,$4,$5,$6,$7,0*
20,1,$1+$1,$6,$7,$8,$9,0*
20,1,$1+$1,$8,$9,$2,$3,0*%
G04 Aperture macros list end*
%ADD10O,1.700000X1.700000*%
%ADD11R,2.510000X1.000000*%
%ADD12R,1.700000X1.700000*%
%ADD13RoundRect,0.237500X0.237500X-0.300000X0.237500X0.300000X-0.237500X0.300000X-0.237500X-0.300000X0*%
G04 APERTURE END LIST*
D10*
X117535400Y-133500000D03*
D11*
X116290800Y-130960000D03*
X118780000Y-128420000D03*
X116290800Y-125880000D03*
X118780000Y-123340000D03*
X118780000Y-118260000D03*
X116290800Y-115720000D03*
X118780000Y-113180000D03*
X116290800Y-110640000D03*
X118780000Y-108100000D03*
X116290800Y-105560000D03*
X118780000Y-103020000D03*
X116290800Y-100480000D03*
X116290800Y-95400000D03*
X118780000Y-92860000D03*
X116290800Y-90320000D03*
X118780000Y-87780000D03*
X116290800Y-85240000D03*
X118780000Y-82700000D03*
X116290800Y-80160000D03*
X118780000Y-77620000D03*
D12*
X117535400Y-75080000D03*
X109915400Y-75080000D03*
D11*
X111160000Y-77620000D03*
X108670800Y-80160000D03*
X111160000Y-82700000D03*
X108670800Y-85240000D03*
X111160000Y-87780000D03*
X108670800Y-90320000D03*
X111160000Y-92860000D03*
X108670800Y-95400000D03*
X108670800Y-100480000D03*
X111160000Y-103020000D03*
X108670800Y-105560000D03*
X111160000Y-108100000D03*
X108670800Y-110640000D03*
X111160000Y-113180000D03*
X108670800Y-115720000D03*
X111160000Y-118260000D03*
X111160000Y-123340000D03*
X108670800Y-125880000D03*
X111160000Y-128420000D03*
X108670800Y-130960000D03*
D10*
X109915400Y-133500000D03*
D13*
X102270000Y-94001900D03*
X102270000Y-92276900D03*
M02*
