G04 #@! TF.GenerationSoftware,KiCad,Pcbnew,8.0.4+dfsg-1*
G04 #@! TF.CreationDate,2025-02-10T12:03:21+09:00*
G04 #@! TF.ProjectId,bionic-tms9981,62696f6e-6963-42d7-946d-73393938312e,3*
G04 #@! TF.SameCoordinates,Original*
G04 #@! TF.FileFunction,Legend,Bot*
G04 #@! TF.FilePolarity,Positive*
%FSLAX46Y46*%
G04 Gerber Fmt 4.6, Leading zero omitted, Abs format (unit mm)*
G04 Created by KiCad (PCBNEW 8.0.4+dfsg-1) date 2025-02-10 12:03:21*
%MOMM*%
%LPD*%
G01*
G04 APERTURE LIST*
%ADD10C,0.125000*%
%ADD11C,0.100000*%
%ADD12C,0.150000*%
%ADD13C,0.120000*%
G04 APERTURE END LIST*
D10*
X106204240Y-137308119D02*
X106537573Y-136831928D01*
X106775668Y-137308119D02*
X106775668Y-136308119D01*
X106775668Y-136308119D02*
X106394716Y-136308119D01*
X106394716Y-136308119D02*
X106299478Y-136355738D01*
X106299478Y-136355738D02*
X106251859Y-136403357D01*
X106251859Y-136403357D02*
X106204240Y-136498595D01*
X106204240Y-136498595D02*
X106204240Y-136641452D01*
X106204240Y-136641452D02*
X106251859Y-136736690D01*
X106251859Y-136736690D02*
X106299478Y-136784309D01*
X106299478Y-136784309D02*
X106394716Y-136831928D01*
X106394716Y-136831928D02*
X106775668Y-136831928D01*
X105394716Y-137260500D02*
X105489954Y-137308119D01*
X105489954Y-137308119D02*
X105680430Y-137308119D01*
X105680430Y-137308119D02*
X105775668Y-137260500D01*
X105775668Y-137260500D02*
X105823287Y-137165261D01*
X105823287Y-137165261D02*
X105823287Y-136784309D01*
X105823287Y-136784309D02*
X105775668Y-136689071D01*
X105775668Y-136689071D02*
X105680430Y-136641452D01*
X105680430Y-136641452D02*
X105489954Y-136641452D01*
X105489954Y-136641452D02*
X105394716Y-136689071D01*
X105394716Y-136689071D02*
X105347097Y-136784309D01*
X105347097Y-136784309D02*
X105347097Y-136879547D01*
X105347097Y-136879547D02*
X105823287Y-136974785D01*
X105013763Y-136641452D02*
X104775668Y-137308119D01*
X104775668Y-137308119D02*
X104537573Y-136641452D01*
X104156620Y-137212880D02*
X104109001Y-137260500D01*
X104109001Y-137260500D02*
X104156620Y-137308119D01*
X104156620Y-137308119D02*
X104204239Y-137260500D01*
X104204239Y-137260500D02*
X104156620Y-137212880D01*
X104156620Y-137212880D02*
X104156620Y-137308119D01*
X103013763Y-136308119D02*
X102394716Y-136308119D01*
X102394716Y-136308119D02*
X102728049Y-136689071D01*
X102728049Y-136689071D02*
X102585192Y-136689071D01*
X102585192Y-136689071D02*
X102489954Y-136736690D01*
X102489954Y-136736690D02*
X102442335Y-136784309D01*
X102442335Y-136784309D02*
X102394716Y-136879547D01*
X102394716Y-136879547D02*
X102394716Y-137117642D01*
X102394716Y-137117642D02*
X102442335Y-137212880D01*
X102442335Y-137212880D02*
X102489954Y-137260500D01*
X102489954Y-137260500D02*
X102585192Y-137308119D01*
X102585192Y-137308119D02*
X102870906Y-137308119D01*
X102870906Y-137308119D02*
X102966144Y-137260500D01*
X102966144Y-137260500D02*
X103013763Y-137212880D01*
D11*
X117903238Y-136620895D02*
X117903238Y-137192323D01*
X117903238Y-137192323D02*
X117941333Y-137306609D01*
X117941333Y-137306609D02*
X118017524Y-137382800D01*
X118017524Y-137382800D02*
X118131809Y-137420895D01*
X118131809Y-137420895D02*
X118208000Y-137420895D01*
X117141333Y-137420895D02*
X117522285Y-137420895D01*
X117522285Y-137420895D02*
X117522285Y-136620895D01*
X116417523Y-137344704D02*
X116455619Y-137382800D01*
X116455619Y-137382800D02*
X116569904Y-137420895D01*
X116569904Y-137420895D02*
X116646095Y-137420895D01*
X116646095Y-137420895D02*
X116760381Y-137382800D01*
X116760381Y-137382800D02*
X116836571Y-137306609D01*
X116836571Y-137306609D02*
X116874666Y-137230419D01*
X116874666Y-137230419D02*
X116912762Y-137078038D01*
X116912762Y-137078038D02*
X116912762Y-136963752D01*
X116912762Y-136963752D02*
X116874666Y-136811371D01*
X116874666Y-136811371D02*
X116836571Y-136735180D01*
X116836571Y-136735180D02*
X116760381Y-136658990D01*
X116760381Y-136658990D02*
X116646095Y-136620895D01*
X116646095Y-136620895D02*
X116569904Y-136620895D01*
X116569904Y-136620895D02*
X116455619Y-136658990D01*
X116455619Y-136658990D02*
X116417523Y-136697085D01*
X115846095Y-136620895D02*
X115846095Y-137192323D01*
X115846095Y-137192323D02*
X115884190Y-137306609D01*
X115884190Y-137306609D02*
X115960381Y-137382800D01*
X115960381Y-137382800D02*
X116074666Y-137420895D01*
X116074666Y-137420895D02*
X116150857Y-137420895D01*
X115084190Y-137420895D02*
X115465142Y-137420895D01*
X115465142Y-137420895D02*
X115465142Y-136620895D01*
X114360380Y-137344704D02*
X114398476Y-137382800D01*
X114398476Y-137382800D02*
X114512761Y-137420895D01*
X114512761Y-137420895D02*
X114588952Y-137420895D01*
X114588952Y-137420895D02*
X114703238Y-137382800D01*
X114703238Y-137382800D02*
X114779428Y-137306609D01*
X114779428Y-137306609D02*
X114817523Y-137230419D01*
X114817523Y-137230419D02*
X114855619Y-137078038D01*
X114855619Y-137078038D02*
X114855619Y-136963752D01*
X114855619Y-136963752D02*
X114817523Y-136811371D01*
X114817523Y-136811371D02*
X114779428Y-136735180D01*
X114779428Y-136735180D02*
X114703238Y-136658990D01*
X114703238Y-136658990D02*
X114588952Y-136620895D01*
X114588952Y-136620895D02*
X114512761Y-136620895D01*
X114512761Y-136620895D02*
X114398476Y-136658990D01*
X114398476Y-136658990D02*
X114360380Y-136697085D01*
X113788952Y-136620895D02*
X113788952Y-137192323D01*
X113788952Y-137192323D02*
X113827047Y-137306609D01*
X113827047Y-137306609D02*
X113903238Y-137382800D01*
X113903238Y-137382800D02*
X114017523Y-137420895D01*
X114017523Y-137420895D02*
X114093714Y-137420895D01*
X113027047Y-137420895D02*
X113407999Y-137420895D01*
X113407999Y-137420895D02*
X113407999Y-136620895D01*
X112303237Y-137344704D02*
X112341333Y-137382800D01*
X112341333Y-137382800D02*
X112455618Y-137420895D01*
X112455618Y-137420895D02*
X112531809Y-137420895D01*
X112531809Y-137420895D02*
X112646095Y-137382800D01*
X112646095Y-137382800D02*
X112722285Y-137306609D01*
X112722285Y-137306609D02*
X112760380Y-137230419D01*
X112760380Y-137230419D02*
X112798476Y-137078038D01*
X112798476Y-137078038D02*
X112798476Y-136963752D01*
X112798476Y-136963752D02*
X112760380Y-136811371D01*
X112760380Y-136811371D02*
X112722285Y-136735180D01*
X112722285Y-136735180D02*
X112646095Y-136658990D01*
X112646095Y-136658990D02*
X112531809Y-136620895D01*
X112531809Y-136620895D02*
X112455618Y-136620895D01*
X112455618Y-136620895D02*
X112341333Y-136658990D01*
X112341333Y-136658990D02*
X112303237Y-136697085D01*
X111731809Y-136620895D02*
X111731809Y-137192323D01*
X111731809Y-137192323D02*
X111769904Y-137306609D01*
X111769904Y-137306609D02*
X111846095Y-137382800D01*
X111846095Y-137382800D02*
X111960380Y-137420895D01*
X111960380Y-137420895D02*
X112036571Y-137420895D01*
X110969904Y-137420895D02*
X111350856Y-137420895D01*
X111350856Y-137420895D02*
X111350856Y-136620895D01*
X110246094Y-137344704D02*
X110284190Y-137382800D01*
X110284190Y-137382800D02*
X110398475Y-137420895D01*
X110398475Y-137420895D02*
X110474666Y-137420895D01*
X110474666Y-137420895D02*
X110588952Y-137382800D01*
X110588952Y-137382800D02*
X110665142Y-137306609D01*
X110665142Y-137306609D02*
X110703237Y-137230419D01*
X110703237Y-137230419D02*
X110741333Y-137078038D01*
X110741333Y-137078038D02*
X110741333Y-136963752D01*
X110741333Y-136963752D02*
X110703237Y-136811371D01*
X110703237Y-136811371D02*
X110665142Y-136735180D01*
X110665142Y-136735180D02*
X110588952Y-136658990D01*
X110588952Y-136658990D02*
X110474666Y-136620895D01*
X110474666Y-136620895D02*
X110398475Y-136620895D01*
X110398475Y-136620895D02*
X110284190Y-136658990D01*
X110284190Y-136658990D02*
X110246094Y-136697085D01*
D12*
X110223333Y-72204819D02*
X110223333Y-72919104D01*
X110223333Y-72919104D02*
X110270952Y-73061961D01*
X110270952Y-73061961D02*
X110366190Y-73157200D01*
X110366190Y-73157200D02*
X110509047Y-73204819D01*
X110509047Y-73204819D02*
X110604285Y-73204819D01*
X109223333Y-73204819D02*
X109794761Y-73204819D01*
X109509047Y-73204819D02*
X109509047Y-72204819D01*
X109509047Y-72204819D02*
X109604285Y-72347676D01*
X109604285Y-72347676D02*
X109699523Y-72442914D01*
X109699523Y-72442914D02*
X109794761Y-72490533D01*
X125423666Y-131262419D02*
X125756999Y-130786228D01*
X125995094Y-131262419D02*
X125995094Y-130262419D01*
X125995094Y-130262419D02*
X125614142Y-130262419D01*
X125614142Y-130262419D02*
X125518904Y-130310038D01*
X125518904Y-130310038D02*
X125471285Y-130357657D01*
X125471285Y-130357657D02*
X125423666Y-130452895D01*
X125423666Y-130452895D02*
X125423666Y-130595752D01*
X125423666Y-130595752D02*
X125471285Y-130690990D01*
X125471285Y-130690990D02*
X125518904Y-130738609D01*
X125518904Y-130738609D02*
X125614142Y-130786228D01*
X125614142Y-130786228D02*
X125995094Y-130786228D01*
X125090332Y-130262419D02*
X124471285Y-130262419D01*
X124471285Y-130262419D02*
X124804618Y-130643371D01*
X124804618Y-130643371D02*
X124661761Y-130643371D01*
X124661761Y-130643371D02*
X124566523Y-130690990D01*
X124566523Y-130690990D02*
X124518904Y-130738609D01*
X124518904Y-130738609D02*
X124471285Y-130833847D01*
X124471285Y-130833847D02*
X124471285Y-131071942D01*
X124471285Y-131071942D02*
X124518904Y-131167180D01*
X124518904Y-131167180D02*
X124566523Y-131214800D01*
X124566523Y-131214800D02*
X124661761Y-131262419D01*
X124661761Y-131262419D02*
X124947475Y-131262419D01*
X124947475Y-131262419D02*
X125042713Y-131214800D01*
X125042713Y-131214800D02*
X125090332Y-131167180D01*
X125372866Y-127865180D02*
X125420485Y-127912800D01*
X125420485Y-127912800D02*
X125563342Y-127960419D01*
X125563342Y-127960419D02*
X125658580Y-127960419D01*
X125658580Y-127960419D02*
X125801437Y-127912800D01*
X125801437Y-127912800D02*
X125896675Y-127817561D01*
X125896675Y-127817561D02*
X125944294Y-127722323D01*
X125944294Y-127722323D02*
X125991913Y-127531847D01*
X125991913Y-127531847D02*
X125991913Y-127388990D01*
X125991913Y-127388990D02*
X125944294Y-127198514D01*
X125944294Y-127198514D02*
X125896675Y-127103276D01*
X125896675Y-127103276D02*
X125801437Y-127008038D01*
X125801437Y-127008038D02*
X125658580Y-126960419D01*
X125658580Y-126960419D02*
X125563342Y-126960419D01*
X125563342Y-126960419D02*
X125420485Y-127008038D01*
X125420485Y-127008038D02*
X125372866Y-127055657D01*
X124468104Y-126960419D02*
X124944294Y-126960419D01*
X124944294Y-126960419D02*
X124991913Y-127436609D01*
X124991913Y-127436609D02*
X124944294Y-127388990D01*
X124944294Y-127388990D02*
X124849056Y-127341371D01*
X124849056Y-127341371D02*
X124610961Y-127341371D01*
X124610961Y-127341371D02*
X124515723Y-127388990D01*
X124515723Y-127388990D02*
X124468104Y-127436609D01*
X124468104Y-127436609D02*
X124420485Y-127531847D01*
X124420485Y-127531847D02*
X124420485Y-127769942D01*
X124420485Y-127769942D02*
X124468104Y-127865180D01*
X124468104Y-127865180D02*
X124515723Y-127912800D01*
X124515723Y-127912800D02*
X124610961Y-127960419D01*
X124610961Y-127960419D02*
X124849056Y-127960419D01*
X124849056Y-127960419D02*
X124944294Y-127912800D01*
X124944294Y-127912800D02*
X124991913Y-127865180D01*
X117843333Y-72204819D02*
X117843333Y-72919104D01*
X117843333Y-72919104D02*
X117890952Y-73061961D01*
X117890952Y-73061961D02*
X117986190Y-73157200D01*
X117986190Y-73157200D02*
X118129047Y-73204819D01*
X118129047Y-73204819D02*
X118224285Y-73204819D01*
X117414761Y-72300057D02*
X117367142Y-72252438D01*
X117367142Y-72252438D02*
X117271904Y-72204819D01*
X117271904Y-72204819D02*
X117033809Y-72204819D01*
X117033809Y-72204819D02*
X116938571Y-72252438D01*
X116938571Y-72252438D02*
X116890952Y-72300057D01*
X116890952Y-72300057D02*
X116843333Y-72395295D01*
X116843333Y-72395295D02*
X116843333Y-72490533D01*
X116843333Y-72490533D02*
X116890952Y-72633390D01*
X116890952Y-72633390D02*
X117462380Y-73204819D01*
X117462380Y-73204819D02*
X116843333Y-73204819D01*
X122020066Y-137313980D02*
X122067685Y-137361600D01*
X122067685Y-137361600D02*
X122210542Y-137409219D01*
X122210542Y-137409219D02*
X122305780Y-137409219D01*
X122305780Y-137409219D02*
X122448637Y-137361600D01*
X122448637Y-137361600D02*
X122543875Y-137266361D01*
X122543875Y-137266361D02*
X122591494Y-137171123D01*
X122591494Y-137171123D02*
X122639113Y-136980647D01*
X122639113Y-136980647D02*
X122639113Y-136837790D01*
X122639113Y-136837790D02*
X122591494Y-136647314D01*
X122591494Y-136647314D02*
X122543875Y-136552076D01*
X122543875Y-136552076D02*
X122448637Y-136456838D01*
X122448637Y-136456838D02*
X122305780Y-136409219D01*
X122305780Y-136409219D02*
X122210542Y-136409219D01*
X122210542Y-136409219D02*
X122067685Y-136456838D01*
X122067685Y-136456838D02*
X122020066Y-136504457D01*
X121686732Y-136409219D02*
X121067685Y-136409219D01*
X121067685Y-136409219D02*
X121401018Y-136790171D01*
X121401018Y-136790171D02*
X121258161Y-136790171D01*
X121258161Y-136790171D02*
X121162923Y-136837790D01*
X121162923Y-136837790D02*
X121115304Y-136885409D01*
X121115304Y-136885409D02*
X121067685Y-136980647D01*
X121067685Y-136980647D02*
X121067685Y-137218742D01*
X121067685Y-137218742D02*
X121115304Y-137313980D01*
X121115304Y-137313980D02*
X121162923Y-137361600D01*
X121162923Y-137361600D02*
X121258161Y-137409219D01*
X121258161Y-137409219D02*
X121543875Y-137409219D01*
X121543875Y-137409219D02*
X121639113Y-137361600D01*
X121639113Y-137361600D02*
X121686732Y-137313980D01*
X122782066Y-124784180D02*
X122829685Y-124831800D01*
X122829685Y-124831800D02*
X122972542Y-124879419D01*
X122972542Y-124879419D02*
X123067780Y-124879419D01*
X123067780Y-124879419D02*
X123210637Y-124831800D01*
X123210637Y-124831800D02*
X123305875Y-124736561D01*
X123305875Y-124736561D02*
X123353494Y-124641323D01*
X123353494Y-124641323D02*
X123401113Y-124450847D01*
X123401113Y-124450847D02*
X123401113Y-124307990D01*
X123401113Y-124307990D02*
X123353494Y-124117514D01*
X123353494Y-124117514D02*
X123305875Y-124022276D01*
X123305875Y-124022276D02*
X123210637Y-123927038D01*
X123210637Y-123927038D02*
X123067780Y-123879419D01*
X123067780Y-123879419D02*
X122972542Y-123879419D01*
X122972542Y-123879419D02*
X122829685Y-123927038D01*
X122829685Y-123927038D02*
X122782066Y-123974657D01*
X121924923Y-124212752D02*
X121924923Y-124879419D01*
X122163018Y-123831800D02*
X122401113Y-124546085D01*
X122401113Y-124546085D02*
X121782066Y-124546085D01*
X103645580Y-124951333D02*
X103693200Y-124903714D01*
X103693200Y-124903714D02*
X103740819Y-124760857D01*
X103740819Y-124760857D02*
X103740819Y-124665619D01*
X103740819Y-124665619D02*
X103693200Y-124522762D01*
X103693200Y-124522762D02*
X103597961Y-124427524D01*
X103597961Y-124427524D02*
X103502723Y-124379905D01*
X103502723Y-124379905D02*
X103312247Y-124332286D01*
X103312247Y-124332286D02*
X103169390Y-124332286D01*
X103169390Y-124332286D02*
X102978914Y-124379905D01*
X102978914Y-124379905D02*
X102883676Y-124427524D01*
X102883676Y-124427524D02*
X102788438Y-124522762D01*
X102788438Y-124522762D02*
X102740819Y-124665619D01*
X102740819Y-124665619D02*
X102740819Y-124760857D01*
X102740819Y-124760857D02*
X102788438Y-124903714D01*
X102788438Y-124903714D02*
X102836057Y-124951333D01*
X103740819Y-125903714D02*
X103740819Y-125332286D01*
X103740819Y-125618000D02*
X102740819Y-125618000D01*
X102740819Y-125618000D02*
X102883676Y-125522762D01*
X102883676Y-125522762D02*
X102978914Y-125427524D01*
X102978914Y-125427524D02*
X103026533Y-125332286D01*
X125449066Y-129636819D02*
X125782399Y-129160628D01*
X126020494Y-129636819D02*
X126020494Y-128636819D01*
X126020494Y-128636819D02*
X125639542Y-128636819D01*
X125639542Y-128636819D02*
X125544304Y-128684438D01*
X125544304Y-128684438D02*
X125496685Y-128732057D01*
X125496685Y-128732057D02*
X125449066Y-128827295D01*
X125449066Y-128827295D02*
X125449066Y-128970152D01*
X125449066Y-128970152D02*
X125496685Y-129065390D01*
X125496685Y-129065390D02*
X125544304Y-129113009D01*
X125544304Y-129113009D02*
X125639542Y-129160628D01*
X125639542Y-129160628D02*
X126020494Y-129160628D01*
X125068113Y-128732057D02*
X125020494Y-128684438D01*
X125020494Y-128684438D02*
X124925256Y-128636819D01*
X124925256Y-128636819D02*
X124687161Y-128636819D01*
X124687161Y-128636819D02*
X124591923Y-128684438D01*
X124591923Y-128684438D02*
X124544304Y-128732057D01*
X124544304Y-128732057D02*
X124496685Y-128827295D01*
X124496685Y-128827295D02*
X124496685Y-128922533D01*
X124496685Y-128922533D02*
X124544304Y-129065390D01*
X124544304Y-129065390D02*
X125115732Y-129636819D01*
X125115732Y-129636819D02*
X124496685Y-129636819D01*
D13*
X108560000Y-76350000D02*
X111220000Y-76350000D01*
X108560000Y-134830000D02*
X108560000Y-76350000D01*
X108560000Y-134830000D02*
X111220000Y-134830000D01*
X109890000Y-73750000D02*
X111220000Y-73750000D01*
X111220000Y-73750000D02*
X111220000Y-75080000D01*
X111220000Y-134830000D02*
X111220000Y-76350000D01*
X122870124Y-130310500D02*
X122360676Y-130310500D01*
X122870124Y-131355500D02*
X122360676Y-131355500D01*
X122469133Y-126995600D02*
X122761667Y-126995600D01*
X122469133Y-128015600D02*
X122761667Y-128015600D01*
X116180000Y-76350000D02*
X118840000Y-76350000D01*
X116180000Y-134830000D02*
X116180000Y-76350000D01*
X116180000Y-134830000D02*
X118840000Y-134830000D01*
X117510000Y-73750000D02*
X118840000Y-73750000D01*
X118840000Y-73750000D02*
X118840000Y-75080000D01*
X118840000Y-134830000D02*
X118840000Y-76350000D01*
X119692400Y-136809233D02*
X119692400Y-137101767D01*
X120712400Y-136809233D02*
X120712400Y-137101767D01*
X122469133Y-125344600D02*
X122761667Y-125344600D01*
X122469133Y-126364600D02*
X122761667Y-126364600D01*
X102826800Y-122330133D02*
X102826800Y-122622667D01*
X103846800Y-122330133D02*
X103846800Y-122622667D01*
X122360676Y-128659500D02*
X122870124Y-128659500D01*
X122360676Y-129704500D02*
X122870124Y-129704500D01*
M02*
