%TF.GenerationSoftware,KiCad,Pcbnew,8.0.8+dfsg-1*%
%TF.CreationDate,2025-05-23T17:59:01+09:00*%
%TF.ProjectId,bionic-tms9900,62696f6e-6963-42d7-946d-73393930302e,1*%
%TF.SameCoordinates,Original*%
%TF.FileFunction,Legend,Top*%
%TF.FilePolarity,Positive*%
%FSLAX46Y46*%
G04 Gerber Fmt 4.6, Leading zero omitted, Abs format (unit mm)*
G04 Created by KiCad (PCBNEW 8.0.8+dfsg-1) date 2025-05-23 17:59:01*
%MOMM*%
%LPD*%
G01*
G04 APERTURE LIST*
%ADD10C,0.100000*%
%ADD11C,0.150000*%
%ADD12C,0.120000*%
%ADD13C,0.152400*%
%ADD14C,0.000000*%
%ADD15C,0.200000*%
G04 APERTURE END LIST*
D10*
X101498400Y-41850000D02*
X110286800Y-41859200D01*
X99161600Y-41859200D02*
X90170000Y-41859200D01*
X90170000Y-123190000D02*
X110439200Y-123190000D01*
D11*
X102756009Y-110004219D02*
X102184581Y-110004219D01*
X102470295Y-110004219D02*
X102470295Y-109004219D01*
X102470295Y-109004219D02*
X102375057Y-109147076D01*
X102375057Y-109147076D02*
X102279819Y-109242314D01*
X102279819Y-109242314D02*
X102184581Y-109289933D01*
X103708390Y-110004219D02*
X103136962Y-110004219D01*
X103422676Y-110004219D02*
X103422676Y-109004219D01*
X103422676Y-109004219D02*
X103327438Y-109147076D01*
X103327438Y-109147076D02*
X103232200Y-109242314D01*
X103232200Y-109242314D02*
X103136962Y-109289933D01*
X104089343Y-109718504D02*
X104565533Y-109718504D01*
X103994105Y-110004219D02*
X104327438Y-109004219D01*
X104327438Y-109004219D02*
X104660771Y-110004219D01*
X104946486Y-109718504D02*
X105422676Y-109718504D01*
X104851248Y-110004219D02*
X105184581Y-109004219D01*
X105184581Y-109004219D02*
X105517914Y-110004219D01*
X106041724Y-109004219D02*
X106136962Y-109004219D01*
X106136962Y-109004219D02*
X106232200Y-109051838D01*
X106232200Y-109051838D02*
X106279819Y-109099457D01*
X106279819Y-109099457D02*
X106327438Y-109194695D01*
X106327438Y-109194695D02*
X106375057Y-109385171D01*
X106375057Y-109385171D02*
X106375057Y-109623266D01*
X106375057Y-109623266D02*
X106327438Y-109813742D01*
X106327438Y-109813742D02*
X106279819Y-109908980D01*
X106279819Y-109908980D02*
X106232200Y-109956600D01*
X106232200Y-109956600D02*
X106136962Y-110004219D01*
X106136962Y-110004219D02*
X106041724Y-110004219D01*
X106041724Y-110004219D02*
X105946486Y-109956600D01*
X105946486Y-109956600D02*
X105898867Y-109908980D01*
X105898867Y-109908980D02*
X105851248Y-109813742D01*
X105851248Y-109813742D02*
X105803629Y-109623266D01*
X105803629Y-109623266D02*
X105803629Y-109385171D01*
X105803629Y-109385171D02*
X105851248Y-109194695D01*
X105851248Y-109194695D02*
X105898867Y-109099457D01*
X105898867Y-109099457D02*
X105946486Y-109051838D01*
X105946486Y-109051838D02*
X106041724Y-109004219D01*
X107327438Y-110004219D02*
X106756010Y-110004219D01*
X107041724Y-110004219D02*
X107041724Y-109004219D01*
X107041724Y-109004219D02*
X106946486Y-109147076D01*
X106946486Y-109147076D02*
X106851248Y-109242314D01*
X106851248Y-109242314D02*
X106756010Y-109289933D01*
X107946486Y-109004219D02*
X108041724Y-109004219D01*
X108041724Y-109004219D02*
X108136962Y-109051838D01*
X108136962Y-109051838D02*
X108184581Y-109099457D01*
X108184581Y-109099457D02*
X108232200Y-109194695D01*
X108232200Y-109194695D02*
X108279819Y-109385171D01*
X108279819Y-109385171D02*
X108279819Y-109623266D01*
X108279819Y-109623266D02*
X108232200Y-109813742D01*
X108232200Y-109813742D02*
X108184581Y-109908980D01*
X108184581Y-109908980D02*
X108136962Y-109956600D01*
X108136962Y-109956600D02*
X108041724Y-110004219D01*
X108041724Y-110004219D02*
X107946486Y-110004219D01*
X107946486Y-110004219D02*
X107851248Y-109956600D01*
X107851248Y-109956600D02*
X107803629Y-109908980D01*
X107803629Y-109908980D02*
X107756010Y-109813742D01*
X107756010Y-109813742D02*
X107708391Y-109623266D01*
X107708391Y-109623266D02*
X107708391Y-109385171D01*
X107708391Y-109385171D02*
X107756010Y-109194695D01*
X107756010Y-109194695D02*
X107803629Y-109099457D01*
X107803629Y-109099457D02*
X107851248Y-109051838D01*
X107851248Y-109051838D02*
X107946486Y-109004219D01*
X93377143Y-116176419D02*
X93377143Y-115176419D01*
X93377143Y-115176419D02*
X93948571Y-116176419D01*
X93948571Y-116176419D02*
X93948571Y-115176419D01*
X94710476Y-115176419D02*
X94710476Y-115890704D01*
X94710476Y-115890704D02*
X94662857Y-116033561D01*
X94662857Y-116033561D02*
X94567619Y-116128800D01*
X94567619Y-116128800D02*
X94424762Y-116176419D01*
X94424762Y-116176419D02*
X94329524Y-116176419D01*
X95091429Y-115176419D02*
X95329524Y-116176419D01*
X95329524Y-116176419D02*
X95520000Y-115462133D01*
X95520000Y-115462133D02*
X95710476Y-116176419D01*
X95710476Y-116176419D02*
X95948572Y-115176419D01*
X96758095Y-115509752D02*
X96758095Y-116176419D01*
X96520000Y-115128800D02*
X96281905Y-115843085D01*
X96281905Y-115843085D02*
X96900952Y-115843085D01*
X97805714Y-116176419D02*
X97234286Y-116176419D01*
X97520000Y-116176419D02*
X97520000Y-115176419D01*
X97520000Y-115176419D02*
X97424762Y-115319276D01*
X97424762Y-115319276D02*
X97329524Y-115414514D01*
X97329524Y-115414514D02*
X97234286Y-115462133D01*
X98139048Y-115176419D02*
X98758095Y-115176419D01*
X98758095Y-115176419D02*
X98424762Y-115557371D01*
X98424762Y-115557371D02*
X98567619Y-115557371D01*
X98567619Y-115557371D02*
X98662857Y-115604990D01*
X98662857Y-115604990D02*
X98710476Y-115652609D01*
X98710476Y-115652609D02*
X98758095Y-115747847D01*
X98758095Y-115747847D02*
X98758095Y-115985942D01*
X98758095Y-115985942D02*
X98710476Y-116081180D01*
X98710476Y-116081180D02*
X98662857Y-116128800D01*
X98662857Y-116128800D02*
X98567619Y-116176419D01*
X98567619Y-116176419D02*
X98281905Y-116176419D01*
X98281905Y-116176419D02*
X98186667Y-116128800D01*
X98186667Y-116128800D02*
X98139048Y-116081180D01*
X99139048Y-115271657D02*
X99186667Y-115224038D01*
X99186667Y-115224038D02*
X99281905Y-115176419D01*
X99281905Y-115176419D02*
X99520000Y-115176419D01*
X99520000Y-115176419D02*
X99615238Y-115224038D01*
X99615238Y-115224038D02*
X99662857Y-115271657D01*
X99662857Y-115271657D02*
X99710476Y-115366895D01*
X99710476Y-115366895D02*
X99710476Y-115462133D01*
X99710476Y-115462133D02*
X99662857Y-115604990D01*
X99662857Y-115604990D02*
X99091429Y-116176419D01*
X99091429Y-116176419D02*
X99710476Y-116176419D01*
X90656114Y-58655057D02*
X90703733Y-58607438D01*
X90703733Y-58607438D02*
X90798971Y-58559819D01*
X90798971Y-58559819D02*
X91037066Y-58559819D01*
X91037066Y-58559819D02*
X91132304Y-58607438D01*
X91132304Y-58607438D02*
X91179923Y-58655057D01*
X91179923Y-58655057D02*
X91227542Y-58750295D01*
X91227542Y-58750295D02*
X91227542Y-58845533D01*
X91227542Y-58845533D02*
X91179923Y-58988390D01*
X91179923Y-58988390D02*
X90608495Y-59559819D01*
X90608495Y-59559819D02*
X91227542Y-59559819D01*
X91656114Y-59559819D02*
X91656114Y-58559819D01*
X91656114Y-58559819D02*
X92227542Y-59559819D01*
X92227542Y-59559819D02*
X92227542Y-58559819D01*
X92608495Y-58559819D02*
X93275161Y-58559819D01*
X93275161Y-58559819D02*
X92846590Y-59559819D01*
X93846590Y-58559819D02*
X93941828Y-58559819D01*
X93941828Y-58559819D02*
X94037066Y-58607438D01*
X94037066Y-58607438D02*
X94084685Y-58655057D01*
X94084685Y-58655057D02*
X94132304Y-58750295D01*
X94132304Y-58750295D02*
X94179923Y-58940771D01*
X94179923Y-58940771D02*
X94179923Y-59178866D01*
X94179923Y-59178866D02*
X94132304Y-59369342D01*
X94132304Y-59369342D02*
X94084685Y-59464580D01*
X94084685Y-59464580D02*
X94037066Y-59512200D01*
X94037066Y-59512200D02*
X93941828Y-59559819D01*
X93941828Y-59559819D02*
X93846590Y-59559819D01*
X93846590Y-59559819D02*
X93751352Y-59512200D01*
X93751352Y-59512200D02*
X93703733Y-59464580D01*
X93703733Y-59464580D02*
X93656114Y-59369342D01*
X93656114Y-59369342D02*
X93608495Y-59178866D01*
X93608495Y-59178866D02*
X93608495Y-58940771D01*
X93608495Y-58940771D02*
X93656114Y-58750295D01*
X93656114Y-58750295D02*
X93703733Y-58655057D01*
X93703733Y-58655057D02*
X93751352Y-58607438D01*
X93751352Y-58607438D02*
X93846590Y-58559819D01*
X94798971Y-58559819D02*
X94894209Y-58559819D01*
X94894209Y-58559819D02*
X94989447Y-58607438D01*
X94989447Y-58607438D02*
X95037066Y-58655057D01*
X95037066Y-58655057D02*
X95084685Y-58750295D01*
X95084685Y-58750295D02*
X95132304Y-58940771D01*
X95132304Y-58940771D02*
X95132304Y-59178866D01*
X95132304Y-59178866D02*
X95084685Y-59369342D01*
X95084685Y-59369342D02*
X95037066Y-59464580D01*
X95037066Y-59464580D02*
X94989447Y-59512200D01*
X94989447Y-59512200D02*
X94894209Y-59559819D01*
X94894209Y-59559819D02*
X94798971Y-59559819D01*
X94798971Y-59559819D02*
X94703733Y-59512200D01*
X94703733Y-59512200D02*
X94656114Y-59464580D01*
X94656114Y-59464580D02*
X94608495Y-59369342D01*
X94608495Y-59369342D02*
X94560876Y-59178866D01*
X94560876Y-59178866D02*
X94560876Y-58940771D01*
X94560876Y-58940771D02*
X94608495Y-58750295D01*
X94608495Y-58750295D02*
X94656114Y-58655057D01*
X94656114Y-58655057D02*
X94703733Y-58607438D01*
X94703733Y-58607438D02*
X94798971Y-58559819D01*
X95513257Y-58655057D02*
X95560876Y-58607438D01*
X95560876Y-58607438D02*
X95656114Y-58559819D01*
X95656114Y-58559819D02*
X95894209Y-58559819D01*
X95894209Y-58559819D02*
X95989447Y-58607438D01*
X95989447Y-58607438D02*
X96037066Y-58655057D01*
X96037066Y-58655057D02*
X96084685Y-58750295D01*
X96084685Y-58750295D02*
X96084685Y-58845533D01*
X96084685Y-58845533D02*
X96037066Y-58988390D01*
X96037066Y-58988390D02*
X95465638Y-59559819D01*
X95465638Y-59559819D02*
X96084685Y-59559819D01*
X91600781Y-93815019D02*
X92267447Y-93815019D01*
X92267447Y-93815019D02*
X91838876Y-94815019D01*
X93076971Y-94148352D02*
X93076971Y-94815019D01*
X92838876Y-93767400D02*
X92600781Y-94481685D01*
X92600781Y-94481685D02*
X93219828Y-94481685D01*
X93553162Y-94529304D02*
X94029352Y-94529304D01*
X93457924Y-94815019D02*
X93791257Y-93815019D01*
X93791257Y-93815019D02*
X94124590Y-94815019D01*
X95029352Y-94719780D02*
X94981733Y-94767400D01*
X94981733Y-94767400D02*
X94838876Y-94815019D01*
X94838876Y-94815019D02*
X94743638Y-94815019D01*
X94743638Y-94815019D02*
X94600781Y-94767400D01*
X94600781Y-94767400D02*
X94505543Y-94672161D01*
X94505543Y-94672161D02*
X94457924Y-94576923D01*
X94457924Y-94576923D02*
X94410305Y-94386447D01*
X94410305Y-94386447D02*
X94410305Y-94243590D01*
X94410305Y-94243590D02*
X94457924Y-94053114D01*
X94457924Y-94053114D02*
X94505543Y-93957876D01*
X94505543Y-93957876D02*
X94600781Y-93862638D01*
X94600781Y-93862638D02*
X94743638Y-93815019D01*
X94743638Y-93815019D02*
X94838876Y-93815019D01*
X94838876Y-93815019D02*
X94981733Y-93862638D01*
X94981733Y-93862638D02*
X95029352Y-93910257D01*
X95315067Y-93815019D02*
X95886495Y-93815019D01*
X95600781Y-94815019D02*
X95600781Y-93815019D01*
X96743638Y-94815019D02*
X96172210Y-94815019D01*
X96457924Y-94815019D02*
X96457924Y-93815019D01*
X96457924Y-93815019D02*
X96362686Y-93957876D01*
X96362686Y-93957876D02*
X96267448Y-94053114D01*
X96267448Y-94053114D02*
X96172210Y-94100733D01*
X97648400Y-93815019D02*
X97172210Y-93815019D01*
X97172210Y-93815019D02*
X97124591Y-94291209D01*
X97124591Y-94291209D02*
X97172210Y-94243590D01*
X97172210Y-94243590D02*
X97267448Y-94195971D01*
X97267448Y-94195971D02*
X97505543Y-94195971D01*
X97505543Y-94195971D02*
X97600781Y-94243590D01*
X97600781Y-94243590D02*
X97648400Y-94291209D01*
X97648400Y-94291209D02*
X97696019Y-94386447D01*
X97696019Y-94386447D02*
X97696019Y-94624542D01*
X97696019Y-94624542D02*
X97648400Y-94719780D01*
X97648400Y-94719780D02*
X97600781Y-94767400D01*
X97600781Y-94767400D02*
X97505543Y-94815019D01*
X97505543Y-94815019D02*
X97267448Y-94815019D01*
X97267448Y-94815019D02*
X97172210Y-94767400D01*
X97172210Y-94767400D02*
X97124591Y-94719780D01*
X98029353Y-93815019D02*
X98696019Y-93815019D01*
X98696019Y-93815019D02*
X98267448Y-94815019D01*
X101208343Y-113423819D02*
X101875009Y-113423819D01*
X101875009Y-113423819D02*
X101446438Y-114423819D01*
X102684533Y-113757152D02*
X102684533Y-114423819D01*
X102446438Y-113376200D02*
X102208343Y-114090485D01*
X102208343Y-114090485D02*
X102827390Y-114090485D01*
X103208343Y-114423819D02*
X103208343Y-113423819D01*
X103208343Y-113900009D02*
X103779771Y-113900009D01*
X103779771Y-114423819D02*
X103779771Y-113423819D01*
X104827390Y-114328580D02*
X104779771Y-114376200D01*
X104779771Y-114376200D02*
X104636914Y-114423819D01*
X104636914Y-114423819D02*
X104541676Y-114423819D01*
X104541676Y-114423819D02*
X104398819Y-114376200D01*
X104398819Y-114376200D02*
X104303581Y-114280961D01*
X104303581Y-114280961D02*
X104255962Y-114185723D01*
X104255962Y-114185723D02*
X104208343Y-113995247D01*
X104208343Y-113995247D02*
X104208343Y-113852390D01*
X104208343Y-113852390D02*
X104255962Y-113661914D01*
X104255962Y-113661914D02*
X104303581Y-113566676D01*
X104303581Y-113566676D02*
X104398819Y-113471438D01*
X104398819Y-113471438D02*
X104541676Y-113423819D01*
X104541676Y-113423819D02*
X104636914Y-113423819D01*
X104636914Y-113423819D02*
X104779771Y-113471438D01*
X104779771Y-113471438D02*
X104827390Y-113519057D01*
X105113105Y-113423819D02*
X105684533Y-113423819D01*
X105398819Y-114423819D02*
X105398819Y-113423819D01*
X105970248Y-113519057D02*
X106017867Y-113471438D01*
X106017867Y-113471438D02*
X106113105Y-113423819D01*
X106113105Y-113423819D02*
X106351200Y-113423819D01*
X106351200Y-113423819D02*
X106446438Y-113471438D01*
X106446438Y-113471438D02*
X106494057Y-113519057D01*
X106494057Y-113519057D02*
X106541676Y-113614295D01*
X106541676Y-113614295D02*
X106541676Y-113709533D01*
X106541676Y-113709533D02*
X106494057Y-113852390D01*
X106494057Y-113852390D02*
X105922629Y-114423819D01*
X105922629Y-114423819D02*
X106541676Y-114423819D01*
X107446438Y-113423819D02*
X106970248Y-113423819D01*
X106970248Y-113423819D02*
X106922629Y-113900009D01*
X106922629Y-113900009D02*
X106970248Y-113852390D01*
X106970248Y-113852390D02*
X107065486Y-113804771D01*
X107065486Y-113804771D02*
X107303581Y-113804771D01*
X107303581Y-113804771D02*
X107398819Y-113852390D01*
X107398819Y-113852390D02*
X107446438Y-113900009D01*
X107446438Y-113900009D02*
X107494057Y-113995247D01*
X107494057Y-113995247D02*
X107494057Y-114233342D01*
X107494057Y-114233342D02*
X107446438Y-114328580D01*
X107446438Y-114328580D02*
X107398819Y-114376200D01*
X107398819Y-114376200D02*
X107303581Y-114423819D01*
X107303581Y-114423819D02*
X107065486Y-114423819D01*
X107065486Y-114423819D02*
X106970248Y-114376200D01*
X106970248Y-114376200D02*
X106922629Y-114328580D01*
X107970248Y-114423819D02*
X108160724Y-114423819D01*
X108160724Y-114423819D02*
X108255962Y-114376200D01*
X108255962Y-114376200D02*
X108303581Y-114328580D01*
X108303581Y-114328580D02*
X108398819Y-114185723D01*
X108398819Y-114185723D02*
X108446438Y-113995247D01*
X108446438Y-113995247D02*
X108446438Y-113614295D01*
X108446438Y-113614295D02*
X108398819Y-113519057D01*
X108398819Y-113519057D02*
X108351200Y-113471438D01*
X108351200Y-113471438D02*
X108255962Y-113423819D01*
X108255962Y-113423819D02*
X108065486Y-113423819D01*
X108065486Y-113423819D02*
X107970248Y-113471438D01*
X107970248Y-113471438D02*
X107922629Y-113519057D01*
X107922629Y-113519057D02*
X107875010Y-113614295D01*
X107875010Y-113614295D02*
X107875010Y-113852390D01*
X107875010Y-113852390D02*
X107922629Y-113947628D01*
X107922629Y-113947628D02*
X107970248Y-113995247D01*
X107970248Y-113995247D02*
X108065486Y-114042866D01*
X108065486Y-114042866D02*
X108255962Y-114042866D01*
X108255962Y-114042866D02*
X108351200Y-113995247D01*
X108351200Y-113995247D02*
X108398819Y-113947628D01*
X108398819Y-113947628D02*
X108446438Y-113852390D01*
D10*
G36*
X92866045Y-124548163D02*
G01*
X92942851Y-124554737D01*
X93025029Y-124568411D01*
X93096312Y-124588397D01*
X93165702Y-124619690D01*
X93190901Y-124635731D01*
X93246680Y-124687319D01*
X93286522Y-124752692D01*
X93310427Y-124831850D01*
X93318271Y-124912421D01*
X93318396Y-124924792D01*
X93310489Y-125002473D01*
X93283526Y-125078004D01*
X93237429Y-125143145D01*
X93181244Y-125190722D01*
X93113896Y-125224919D01*
X93035385Y-125245734D01*
X93018343Y-125248292D01*
X93018343Y-125258550D01*
X93098543Y-125276227D01*
X93168049Y-125301415D01*
X93239894Y-125343461D01*
X93295031Y-125397242D01*
X93333460Y-125462758D01*
X93355181Y-125540009D01*
X93360527Y-125610260D01*
X93355904Y-125683581D01*
X93338821Y-125761374D01*
X93309151Y-125830822D01*
X93266893Y-125891926D01*
X93229003Y-125930462D01*
X93167045Y-125975715D01*
X93095937Y-126009853D01*
X93015677Y-126032876D01*
X92939599Y-126043764D01*
X92871065Y-126046600D01*
X92328113Y-126046600D01*
X92328113Y-125882835D01*
X92520821Y-125882835D01*
X92836993Y-125882835D01*
X92912126Y-125878455D01*
X92991955Y-125860665D01*
X93067089Y-125821252D01*
X93119682Y-125762133D01*
X93149735Y-125683307D01*
X93157562Y-125602566D01*
X93149413Y-125527735D01*
X93118123Y-125454680D01*
X93063366Y-125399888D01*
X92985142Y-125363361D01*
X92902028Y-125346872D01*
X92823804Y-125342814D01*
X92520821Y-125342814D01*
X92520821Y-125882835D01*
X92328113Y-125882835D01*
X92328113Y-125179049D01*
X92520821Y-125179049D01*
X92813179Y-125179049D01*
X92888147Y-125175546D01*
X92966528Y-125161313D01*
X93038107Y-125129783D01*
X93047652Y-125122995D01*
X93095331Y-125065359D01*
X93117768Y-124990689D01*
X93121292Y-124937615D01*
X93111984Y-124861922D01*
X93076984Y-124793565D01*
X93042523Y-124762859D01*
X92970464Y-124730487D01*
X92890579Y-124714924D01*
X92813689Y-124709944D01*
X92792663Y-124709736D01*
X92520821Y-124709736D01*
X92520821Y-125179049D01*
X92328113Y-125179049D01*
X92328113Y-124545971D01*
X92781672Y-124545971D01*
X92866045Y-124548163D01*
G37*
G36*
X94101316Y-124452182D02*
G01*
X94175948Y-124474552D01*
X94208787Y-124541661D01*
X94210493Y-124569052D01*
X94192151Y-124641180D01*
X94177886Y-124657713D01*
X94109522Y-124686401D01*
X94101316Y-124686655D01*
X94029917Y-124667246D01*
X93993733Y-124602932D01*
X93991040Y-124569052D01*
X94009240Y-124493384D01*
X94075470Y-124454008D01*
X94101316Y-124452182D01*
G37*
G36*
X94006794Y-125068407D02*
G01*
X93729456Y-125046791D01*
X93729456Y-124921128D01*
X94194006Y-124921128D01*
X94194006Y-125899321D01*
X94556707Y-125919837D01*
X94556707Y-126046600D01*
X93652153Y-126046600D01*
X93652153Y-125919837D01*
X94006794Y-125899321D01*
X94006794Y-125068407D01*
G37*
G36*
X95425749Y-124903297D02*
G01*
X95501389Y-124920144D01*
X95571310Y-124948222D01*
X95635512Y-124987532D01*
X95693996Y-125038073D01*
X95712220Y-125057416D01*
X95760902Y-125121000D01*
X95799512Y-125191952D01*
X95828049Y-125270271D01*
X95846515Y-125355957D01*
X95854209Y-125432990D01*
X95855468Y-125481666D01*
X95852016Y-125564248D01*
X95841658Y-125641177D01*
X95824395Y-125712454D01*
X95794565Y-125790524D01*
X95754792Y-125860454D01*
X95714052Y-125912510D01*
X95657860Y-125966048D01*
X95595075Y-126008509D01*
X95525694Y-126039893D01*
X95449720Y-126060201D01*
X95367150Y-126069431D01*
X95338162Y-126070047D01*
X95257400Y-126064418D01*
X95182176Y-126047533D01*
X95112491Y-126019390D01*
X95048345Y-125979990D01*
X94989736Y-125929333D01*
X94971431Y-125909946D01*
X94922625Y-125845996D01*
X94883916Y-125774500D01*
X94855305Y-125695455D01*
X94839176Y-125623819D01*
X94830060Y-125546942D01*
X94827816Y-125481666D01*
X95021623Y-125481666D01*
X95024441Y-125558990D01*
X95036963Y-125650257D01*
X95059503Y-125728004D01*
X95101765Y-125806173D01*
X95159680Y-125863215D01*
X95233248Y-125899131D01*
X95322469Y-125913919D01*
X95342192Y-125914342D01*
X95417067Y-125907581D01*
X95496623Y-125880117D01*
X95560579Y-125831525D01*
X95608936Y-125761807D01*
X95636391Y-125690821D01*
X95653862Y-125606314D01*
X95661349Y-125508286D01*
X95661661Y-125481666D01*
X95658834Y-125405128D01*
X95646269Y-125314787D01*
X95623652Y-125237831D01*
X95581244Y-125160456D01*
X95523131Y-125103993D01*
X95449310Y-125068443D01*
X95359784Y-125053804D01*
X95339994Y-125053386D01*
X95265375Y-125060078D01*
X95186094Y-125087264D01*
X95122357Y-125135361D01*
X95074167Y-125204371D01*
X95046807Y-125274636D01*
X95029396Y-125358284D01*
X95021934Y-125455317D01*
X95021623Y-125481666D01*
X94827816Y-125481666D01*
X94831224Y-125399849D01*
X94841448Y-125323614D01*
X94862713Y-125239499D01*
X94893792Y-125163421D01*
X94934686Y-125095380D01*
X94967401Y-125054485D01*
X95023184Y-125001196D01*
X95085846Y-124958933D01*
X95155385Y-124927694D01*
X95231802Y-124907481D01*
X95315097Y-124898294D01*
X95344390Y-124897681D01*
X95425749Y-124903297D01*
G37*
G36*
X96883853Y-126046600D02*
G01*
X96883853Y-125320466D01*
X96877869Y-125243524D01*
X96854891Y-125168408D01*
X96806302Y-125104507D01*
X96734257Y-125066166D01*
X96653834Y-125053647D01*
X96638755Y-125053386D01*
X96564566Y-125059774D01*
X96485741Y-125085728D01*
X96422371Y-125131645D01*
X96374457Y-125197526D01*
X96342000Y-125283371D01*
X96327162Y-125366421D01*
X96322216Y-125462248D01*
X96322216Y-126046600D01*
X96134638Y-126046600D01*
X96134638Y-124921128D01*
X96285946Y-124921128D01*
X96313790Y-125070971D01*
X96324048Y-125070971D01*
X96368604Y-125012080D01*
X96432503Y-124958773D01*
X96509234Y-124922050D01*
X96585217Y-124903773D01*
X96670629Y-124897681D01*
X96764567Y-124904121D01*
X96845980Y-124923441D01*
X96914868Y-124955641D01*
X96983364Y-125014004D01*
X97024071Y-125075184D01*
X97052252Y-125149244D01*
X97067908Y-125236183D01*
X97071431Y-125309841D01*
X97071431Y-126046600D01*
X96883853Y-126046600D01*
G37*
G36*
X97882195Y-124452182D02*
G01*
X97956828Y-124474552D01*
X97989666Y-124541661D01*
X97991372Y-124569052D01*
X97973031Y-124641180D01*
X97958765Y-124657713D01*
X97890401Y-124686401D01*
X97882195Y-124686655D01*
X97810796Y-124667246D01*
X97774612Y-124602932D01*
X97771920Y-124569052D01*
X97790119Y-124493384D01*
X97856349Y-124454008D01*
X97882195Y-124452182D01*
G37*
G36*
X97787673Y-125068407D02*
G01*
X97510336Y-125046791D01*
X97510336Y-124921128D01*
X97974885Y-124921128D01*
X97974885Y-125899321D01*
X98337586Y-125919837D01*
X98337586Y-126046600D01*
X97433033Y-126046600D01*
X97433033Y-125919837D01*
X97787673Y-125899321D01*
X97787673Y-125068407D01*
G37*
G36*
X99583591Y-124958498D02*
G01*
X99519844Y-125121163D01*
X99444601Y-125095037D01*
X99373481Y-125076375D01*
X99298397Y-125064304D01*
X99243605Y-125061446D01*
X99154046Y-125068104D01*
X99076428Y-125088076D01*
X99010752Y-125121364D01*
X98945448Y-125181698D01*
X98906640Y-125244944D01*
X98879772Y-125321506D01*
X98864845Y-125411382D01*
X98861487Y-125487528D01*
X98864755Y-125562364D01*
X98879281Y-125650695D01*
X98905427Y-125725940D01*
X98954452Y-125801593D01*
X99021634Y-125856800D01*
X99106972Y-125891560D01*
X99188317Y-125904646D01*
X99233347Y-125906282D01*
X99314748Y-125902298D01*
X99397020Y-125890345D01*
X99469721Y-125873350D01*
X99543089Y-125850254D01*
X99564174Y-125842535D01*
X99564174Y-126007399D01*
X99491198Y-126034807D01*
X99410392Y-126054385D01*
X99333263Y-126065091D01*
X99250138Y-126069802D01*
X99225287Y-126070047D01*
X99145400Y-126066389D01*
X99071292Y-126055414D01*
X98989989Y-126032586D01*
X98917007Y-125999223D01*
X98852345Y-125955323D01*
X98813860Y-125920204D01*
X98764181Y-125859427D01*
X98724782Y-125789480D01*
X98695660Y-125710363D01*
X98679243Y-125637426D01*
X98669964Y-125558121D01*
X98667680Y-125490092D01*
X98671330Y-125403018D01*
X98682278Y-125322688D01*
X98700524Y-125249102D01*
X98732054Y-125169701D01*
X98774095Y-125100012D01*
X98817157Y-125049356D01*
X98877474Y-124997810D01*
X98946317Y-124956929D01*
X99023688Y-124926713D01*
X99109584Y-124907161D01*
X99187678Y-124899014D01*
X99237377Y-124897681D01*
X99316680Y-124900591D01*
X99393985Y-124909322D01*
X99469291Y-124923873D01*
X99542598Y-124944244D01*
X99583591Y-124958498D01*
G37*
G36*
X100478985Y-126046600D02*
G01*
X100286644Y-126046600D01*
X100286644Y-124714865D01*
X99855800Y-124714865D01*
X99855800Y-124545971D01*
X100908731Y-124545971D01*
X100908731Y-124714865D01*
X100478985Y-124714865D01*
X100478985Y-126046600D01*
G37*
G36*
X101559027Y-126046600D02*
G01*
X101272897Y-124733550D01*
X101264470Y-124727688D01*
X101269853Y-124810159D01*
X101274323Y-124886298D01*
X101278484Y-124969305D01*
X101281330Y-125043194D01*
X101282991Y-125117871D01*
X101283155Y-125146076D01*
X101283155Y-126046600D01*
X101127450Y-126046600D01*
X101127450Y-124545971D01*
X101382073Y-124545971D01*
X101637429Y-125768529D01*
X101643657Y-125768529D01*
X101901211Y-124545971D01*
X102160964Y-124545971D01*
X102160964Y-126046600D01*
X102003061Y-126046600D01*
X102003061Y-125132887D01*
X102004220Y-125058499D01*
X102006724Y-124979564D01*
X102009987Y-124897226D01*
X102013493Y-124818261D01*
X102017715Y-124729886D01*
X102009655Y-124729886D01*
X101718029Y-126046600D01*
X101559027Y-126046600D01*
G37*
G36*
X102416686Y-125999705D02*
G01*
X102416686Y-125817988D01*
X102497873Y-125847994D01*
X102578493Y-125871792D01*
X102658546Y-125889382D01*
X102738033Y-125900764D01*
X102816953Y-125905937D01*
X102843134Y-125906282D01*
X102927627Y-125902389D01*
X103000854Y-125890712D01*
X103076545Y-125865166D01*
X103144139Y-125818455D01*
X103186386Y-125754227D01*
X103203284Y-125672481D01*
X103203636Y-125657154D01*
X103193435Y-125583876D01*
X103155748Y-125515965D01*
X103131096Y-125492657D01*
X103063605Y-125450350D01*
X102992388Y-125416426D01*
X102914782Y-125384565D01*
X102836906Y-125355636D01*
X102760785Y-125326317D01*
X102693165Y-125294963D01*
X102625019Y-125255811D01*
X102561306Y-125207674D01*
X102529160Y-125175752D01*
X102484176Y-125112092D01*
X102453915Y-125038580D01*
X102439375Y-124964963D01*
X102436103Y-124904642D01*
X102442432Y-124829980D01*
X102465164Y-124753753D01*
X102504428Y-124687235D01*
X102560224Y-124630426D01*
X102568361Y-124624007D01*
X102631082Y-124584464D01*
X102703200Y-124554634D01*
X102784714Y-124534516D01*
X102862063Y-124525002D01*
X102931794Y-124522524D01*
X103018751Y-124525345D01*
X103102669Y-124533807D01*
X103183546Y-124547911D01*
X103261384Y-124567656D01*
X103336183Y-124593042D01*
X103360440Y-124602758D01*
X103294495Y-124772018D01*
X103220834Y-124744627D01*
X103149054Y-124722902D01*
X103067687Y-124704720D01*
X102988880Y-124694252D01*
X102923368Y-124691418D01*
X102836399Y-124696668D01*
X102764171Y-124712420D01*
X102696955Y-124745182D01*
X102645363Y-124802516D01*
X102622663Y-124880432D01*
X102621483Y-124906474D01*
X102630963Y-124979512D01*
X102665985Y-125050007D01*
X102688895Y-125075368D01*
X102752253Y-125120320D01*
X102819704Y-125154426D01*
X102893487Y-125185246D01*
X102967698Y-125212388D01*
X103042810Y-125240810D01*
X103122082Y-125275294D01*
X103189504Y-125310190D01*
X103253187Y-125351423D01*
X103306218Y-125399234D01*
X103351041Y-125464822D01*
X103379262Y-125541143D01*
X103390468Y-125619009D01*
X103391215Y-125646896D01*
X103384378Y-125729240D01*
X103363866Y-125803484D01*
X103329681Y-125869629D01*
X103281821Y-125927674D01*
X103248333Y-125957207D01*
X103180232Y-126001175D01*
X103112706Y-126030266D01*
X103036732Y-126051424D01*
X102952308Y-126064647D01*
X102875500Y-126069606D01*
X102843134Y-126070047D01*
X102760756Y-126068329D01*
X102684209Y-126063177D01*
X102600051Y-126052461D01*
X102524291Y-126036799D01*
X102446518Y-126012276D01*
X102416686Y-125999705D01*
G37*
G36*
X104229352Y-124528719D02*
G01*
X104304326Y-124547305D01*
X104372680Y-124578282D01*
X104434414Y-124621649D01*
X104489528Y-124677406D01*
X104506428Y-124698745D01*
X104551499Y-124769482D01*
X104587245Y-124849802D01*
X104609911Y-124924055D01*
X104626100Y-125004963D01*
X104635814Y-125092525D01*
X104638922Y-125167367D01*
X104639052Y-125186743D01*
X104636481Y-125293705D01*
X104628770Y-125393767D01*
X104615919Y-125486928D01*
X104597927Y-125573188D01*
X104574795Y-125652548D01*
X104546522Y-125725006D01*
X104513108Y-125790564D01*
X104453349Y-125875961D01*
X104382024Y-125945832D01*
X104299133Y-126000176D01*
X104204675Y-126038993D01*
X104098651Y-126062283D01*
X104021543Y-126069184D01*
X103981061Y-126070047D01*
X103905293Y-126067419D01*
X103830961Y-126057712D01*
X103803741Y-126051362D01*
X103803741Y-125890895D01*
X103875638Y-125913773D01*
X103949800Y-125922270D01*
X103974833Y-125922768D01*
X104057218Y-125917591D01*
X104131540Y-125902057D01*
X104208058Y-125870847D01*
X104273602Y-125825542D01*
X104321047Y-125775490D01*
X104366791Y-125702816D01*
X104397935Y-125627408D01*
X104418201Y-125555319D01*
X104433298Y-125474823D01*
X104443224Y-125385919D01*
X104447443Y-125308742D01*
X104434987Y-125308742D01*
X104385995Y-125376978D01*
X104325572Y-125428454D01*
X104253720Y-125463171D01*
X104170437Y-125481128D01*
X104117715Y-125483864D01*
X104034462Y-125478061D01*
X103959414Y-125460653D01*
X103883691Y-125426547D01*
X103818685Y-125377282D01*
X103804107Y-125362597D01*
X103754259Y-125296194D01*
X103722325Y-125228624D01*
X103701295Y-125152218D01*
X103691169Y-125066977D01*
X103690187Y-125028473D01*
X103871518Y-125028473D01*
X103877083Y-125106516D01*
X103896317Y-125180519D01*
X103933342Y-125246467D01*
X103941860Y-125256718D01*
X104003392Y-125305387D01*
X104074732Y-125330268D01*
X104143727Y-125336586D01*
X104221358Y-125328428D01*
X104290759Y-125303956D01*
X104351932Y-125263170D01*
X104363179Y-125253054D01*
X104413657Y-125193073D01*
X104444826Y-125121812D01*
X104451839Y-125064377D01*
X104446687Y-124989478D01*
X104428575Y-124911403D01*
X104397421Y-124839877D01*
X104369407Y-124795832D01*
X104318721Y-124740931D01*
X104252275Y-124701003D01*
X104175167Y-124683257D01*
X104149955Y-124682259D01*
X104073248Y-124690953D01*
X104002093Y-124720599D01*
X103944791Y-124771285D01*
X103906151Y-124834655D01*
X103883611Y-124904903D01*
X103873307Y-124977855D01*
X103871518Y-125028473D01*
X103690187Y-125028473D01*
X103690168Y-125027740D01*
X103694534Y-124943415D01*
X103707633Y-124866019D01*
X103729465Y-124795553D01*
X103765972Y-124722100D01*
X103814366Y-124658079D01*
X103872769Y-124605260D01*
X103939307Y-124565415D01*
X104013980Y-124538542D01*
X104096787Y-124524642D01*
X104147757Y-124522524D01*
X104229352Y-124528719D01*
G37*
G36*
X105489645Y-124528719D02*
G01*
X105564619Y-124547305D01*
X105632973Y-124578282D01*
X105694707Y-124621649D01*
X105749821Y-124677406D01*
X105766721Y-124698745D01*
X105811792Y-124769482D01*
X105847538Y-124849802D01*
X105870204Y-124924055D01*
X105886393Y-125004963D01*
X105896107Y-125092525D01*
X105899215Y-125167367D01*
X105899345Y-125186743D01*
X105896774Y-125293705D01*
X105889064Y-125393767D01*
X105876212Y-125486928D01*
X105858220Y-125573188D01*
X105835088Y-125652548D01*
X105806815Y-125725006D01*
X105773401Y-125790564D01*
X105713642Y-125875961D01*
X105642317Y-125945832D01*
X105559426Y-126000176D01*
X105464968Y-126038993D01*
X105358944Y-126062283D01*
X105281836Y-126069184D01*
X105241354Y-126070047D01*
X105165586Y-126067419D01*
X105091254Y-126057712D01*
X105064034Y-126051362D01*
X105064034Y-125890895D01*
X105135931Y-125913773D01*
X105210093Y-125922270D01*
X105235126Y-125922768D01*
X105317511Y-125917591D01*
X105391833Y-125902057D01*
X105468351Y-125870847D01*
X105533895Y-125825542D01*
X105581340Y-125775490D01*
X105627084Y-125702816D01*
X105658228Y-125627408D01*
X105678494Y-125555319D01*
X105693591Y-125474823D01*
X105703517Y-125385919D01*
X105707736Y-125308742D01*
X105695280Y-125308742D01*
X105646288Y-125376978D01*
X105585866Y-125428454D01*
X105514013Y-125463171D01*
X105430730Y-125481128D01*
X105378008Y-125483864D01*
X105294756Y-125478061D01*
X105219707Y-125460653D01*
X105143984Y-125426547D01*
X105078978Y-125377282D01*
X105064400Y-125362597D01*
X105014552Y-125296194D01*
X104982618Y-125228624D01*
X104961588Y-125152218D01*
X104951463Y-125066977D01*
X104950480Y-125028473D01*
X105131811Y-125028473D01*
X105137376Y-125106516D01*
X105156610Y-125180519D01*
X105193635Y-125246467D01*
X105202153Y-125256718D01*
X105263685Y-125305387D01*
X105335025Y-125330268D01*
X105404020Y-125336586D01*
X105481651Y-125328428D01*
X105551052Y-125303956D01*
X105612225Y-125263170D01*
X105623472Y-125253054D01*
X105673950Y-125193073D01*
X105705119Y-125121812D01*
X105712132Y-125064377D01*
X105706980Y-124989478D01*
X105688868Y-124911403D01*
X105657714Y-124839877D01*
X105629701Y-124795832D01*
X105579015Y-124740931D01*
X105512568Y-124701003D01*
X105435460Y-124683257D01*
X105410248Y-124682259D01*
X105333541Y-124690953D01*
X105262386Y-124720599D01*
X105205084Y-124771285D01*
X105166444Y-124834655D01*
X105143904Y-124904903D01*
X105133600Y-124977855D01*
X105131811Y-125028473D01*
X104950480Y-125028473D01*
X104950461Y-125027740D01*
X104954827Y-124943415D01*
X104967926Y-124866019D01*
X104989758Y-124795553D01*
X105026265Y-124722100D01*
X105074659Y-124658079D01*
X105133062Y-124605260D01*
X105199600Y-124565415D01*
X105274273Y-124538542D01*
X105357080Y-124524642D01*
X105408050Y-124522524D01*
X105489645Y-124528719D01*
G37*
G36*
X106768099Y-124529518D02*
G01*
X106845349Y-124550499D01*
X106914381Y-124585469D01*
X106975196Y-124634426D01*
X107027794Y-124697370D01*
X107043500Y-124721460D01*
X107078752Y-124787939D01*
X107108029Y-124863040D01*
X107131331Y-124946763D01*
X107145671Y-125019950D01*
X107156187Y-125098656D01*
X107162878Y-125182879D01*
X107165746Y-125272621D01*
X107165866Y-125295919D01*
X107163978Y-125389661D01*
X107158315Y-125477355D01*
X107148877Y-125559002D01*
X107135664Y-125634600D01*
X107108765Y-125736658D01*
X107073372Y-125825108D01*
X107029484Y-125899950D01*
X106977102Y-125961185D01*
X106916226Y-126008812D01*
X106846856Y-126042831D01*
X106768991Y-126063243D01*
X106682631Y-126070047D01*
X106598173Y-126063053D01*
X106521752Y-126042071D01*
X106453368Y-126007102D01*
X106393020Y-125958145D01*
X106340711Y-125895201D01*
X106325060Y-125871111D01*
X106290019Y-125804614D01*
X106260918Y-125729460D01*
X106237755Y-125645647D01*
X106223501Y-125572362D01*
X106213048Y-125493537D01*
X106206397Y-125409170D01*
X106203546Y-125319262D01*
X106203427Y-125295919D01*
X106203442Y-125295186D01*
X106394303Y-125295186D01*
X106395390Y-125374115D01*
X106398653Y-125447319D01*
X106405791Y-125530774D01*
X106416328Y-125605285D01*
X106433458Y-125682891D01*
X106459629Y-125757153D01*
X106463912Y-125766331D01*
X106503685Y-125829323D01*
X106560309Y-125878676D01*
X106629510Y-125905250D01*
X106682631Y-125910312D01*
X106761573Y-125898894D01*
X106827763Y-125864640D01*
X106881202Y-125807549D01*
X106905381Y-125765964D01*
X106933075Y-125693974D01*
X106951399Y-125618455D01*
X106962851Y-125545781D01*
X106970833Y-125464252D01*
X106975345Y-125373869D01*
X106976456Y-125295186D01*
X106975345Y-125217025D01*
X106970833Y-125127212D01*
X106962851Y-125046165D01*
X106948692Y-124960478D01*
X106929535Y-124887414D01*
X106905381Y-124826973D01*
X106864806Y-124763661D01*
X106807117Y-124714056D01*
X106736676Y-124687347D01*
X106682631Y-124682259D01*
X106605046Y-124693619D01*
X106540037Y-124727700D01*
X106487606Y-124784500D01*
X106463912Y-124825874D01*
X106436789Y-124897293D01*
X106418843Y-124972435D01*
X106407626Y-125044872D01*
X106399809Y-125126236D01*
X106395390Y-125216527D01*
X106394303Y-125295186D01*
X106203442Y-125295186D01*
X106205299Y-125202266D01*
X106210915Y-125114655D01*
X106220274Y-125033086D01*
X106233377Y-124957559D01*
X106260052Y-124855598D01*
X106295150Y-124767231D01*
X106338671Y-124692460D01*
X106390616Y-124631283D01*
X106450985Y-124583701D01*
X106519777Y-124549714D01*
X106596992Y-124529322D01*
X106682631Y-124522524D01*
X106768099Y-124529518D01*
G37*
G36*
X108028392Y-124529518D02*
G01*
X108105642Y-124550499D01*
X108174674Y-124585469D01*
X108235489Y-124634426D01*
X108288087Y-124697370D01*
X108303793Y-124721460D01*
X108339045Y-124787939D01*
X108368322Y-124863040D01*
X108391624Y-124946763D01*
X108405964Y-125019950D01*
X108416480Y-125098656D01*
X108423172Y-125182879D01*
X108426039Y-125272621D01*
X108426159Y-125295919D01*
X108424271Y-125389661D01*
X108418608Y-125477355D01*
X108409170Y-125559002D01*
X108395957Y-125634600D01*
X108369058Y-125736658D01*
X108333665Y-125825108D01*
X108289777Y-125899950D01*
X108237396Y-125961185D01*
X108176519Y-126008812D01*
X108107149Y-126042831D01*
X108029284Y-126063243D01*
X107942925Y-126070047D01*
X107858466Y-126063053D01*
X107782045Y-126042071D01*
X107713661Y-126007102D01*
X107653314Y-125958145D01*
X107601004Y-125895201D01*
X107585353Y-125871111D01*
X107550312Y-125804614D01*
X107521211Y-125729460D01*
X107498048Y-125645647D01*
X107483794Y-125572362D01*
X107473341Y-125493537D01*
X107466690Y-125409170D01*
X107463839Y-125319262D01*
X107463720Y-125295919D01*
X107463735Y-125295186D01*
X107654596Y-125295186D01*
X107655683Y-125374115D01*
X107658946Y-125447319D01*
X107666084Y-125530774D01*
X107676621Y-125605285D01*
X107693751Y-125682891D01*
X107719922Y-125757153D01*
X107724205Y-125766331D01*
X107763978Y-125829323D01*
X107820602Y-125878676D01*
X107889803Y-125905250D01*
X107942925Y-125910312D01*
X108021866Y-125898894D01*
X108088056Y-125864640D01*
X108141495Y-125807549D01*
X108165674Y-125765964D01*
X108193368Y-125693974D01*
X108211692Y-125618455D01*
X108223145Y-125545781D01*
X108231127Y-125464252D01*
X108235638Y-125373869D01*
X108236749Y-125295186D01*
X108235638Y-125217025D01*
X108231127Y-125127212D01*
X108223145Y-125046165D01*
X108208985Y-124960478D01*
X108189828Y-124887414D01*
X108165674Y-124826973D01*
X108125099Y-124763661D01*
X108067410Y-124714056D01*
X107996969Y-124687347D01*
X107942925Y-124682259D01*
X107865339Y-124693619D01*
X107800330Y-124727700D01*
X107747899Y-124784500D01*
X107724205Y-124825874D01*
X107697082Y-124897293D01*
X107679136Y-124972435D01*
X107667919Y-125044872D01*
X107660102Y-125126236D01*
X107655683Y-125216527D01*
X107654596Y-125295186D01*
X107463735Y-125295186D01*
X107465592Y-125202266D01*
X107471208Y-125114655D01*
X107480567Y-125033086D01*
X107493670Y-124957559D01*
X107520345Y-124855598D01*
X107555443Y-124767231D01*
X107598964Y-124692460D01*
X107650909Y-124631283D01*
X107711278Y-124583701D01*
X107780070Y-124549714D01*
X107857285Y-124529322D01*
X107942925Y-124522524D01*
X108028392Y-124529518D01*
G37*
D11*
X91499181Y-81775419D02*
X92165847Y-81775419D01*
X92165847Y-81775419D02*
X91737276Y-82775419D01*
X92975371Y-82108752D02*
X92975371Y-82775419D01*
X92737276Y-81727800D02*
X92499181Y-82442085D01*
X92499181Y-82442085D02*
X93118228Y-82442085D01*
X93451562Y-82489704D02*
X93927752Y-82489704D01*
X93356324Y-82775419D02*
X93689657Y-81775419D01*
X93689657Y-81775419D02*
X94022990Y-82775419D01*
X94927752Y-82680180D02*
X94880133Y-82727800D01*
X94880133Y-82727800D02*
X94737276Y-82775419D01*
X94737276Y-82775419D02*
X94642038Y-82775419D01*
X94642038Y-82775419D02*
X94499181Y-82727800D01*
X94499181Y-82727800D02*
X94403943Y-82632561D01*
X94403943Y-82632561D02*
X94356324Y-82537323D01*
X94356324Y-82537323D02*
X94308705Y-82346847D01*
X94308705Y-82346847D02*
X94308705Y-82203990D01*
X94308705Y-82203990D02*
X94356324Y-82013514D01*
X94356324Y-82013514D02*
X94403943Y-81918276D01*
X94403943Y-81918276D02*
X94499181Y-81823038D01*
X94499181Y-81823038D02*
X94642038Y-81775419D01*
X94642038Y-81775419D02*
X94737276Y-81775419D01*
X94737276Y-81775419D02*
X94880133Y-81823038D01*
X94880133Y-81823038D02*
X94927752Y-81870657D01*
X95213467Y-81775419D02*
X95784895Y-81775419D01*
X95499181Y-82775419D02*
X95499181Y-81775419D01*
X96642038Y-82775419D02*
X96070610Y-82775419D01*
X96356324Y-82775419D02*
X96356324Y-81775419D01*
X96356324Y-81775419D02*
X96261086Y-81918276D01*
X96261086Y-81918276D02*
X96165848Y-82013514D01*
X96165848Y-82013514D02*
X96070610Y-82061133D01*
X97546800Y-81775419D02*
X97070610Y-81775419D01*
X97070610Y-81775419D02*
X97022991Y-82251609D01*
X97022991Y-82251609D02*
X97070610Y-82203990D01*
X97070610Y-82203990D02*
X97165848Y-82156371D01*
X97165848Y-82156371D02*
X97403943Y-82156371D01*
X97403943Y-82156371D02*
X97499181Y-82203990D01*
X97499181Y-82203990D02*
X97546800Y-82251609D01*
X97546800Y-82251609D02*
X97594419Y-82346847D01*
X97594419Y-82346847D02*
X97594419Y-82584942D01*
X97594419Y-82584942D02*
X97546800Y-82680180D01*
X97546800Y-82680180D02*
X97499181Y-82727800D01*
X97499181Y-82727800D02*
X97403943Y-82775419D01*
X97403943Y-82775419D02*
X97165848Y-82775419D01*
X97165848Y-82775419D02*
X97070610Y-82727800D01*
X97070610Y-82727800D02*
X97022991Y-82680180D01*
X97927753Y-81775419D02*
X98594419Y-81775419D01*
X98594419Y-81775419D02*
X98165848Y-82775419D01*
X90656114Y-98126657D02*
X90703733Y-98079038D01*
X90703733Y-98079038D02*
X90798971Y-98031419D01*
X90798971Y-98031419D02*
X91037066Y-98031419D01*
X91037066Y-98031419D02*
X91132304Y-98079038D01*
X91132304Y-98079038D02*
X91179923Y-98126657D01*
X91179923Y-98126657D02*
X91227542Y-98221895D01*
X91227542Y-98221895D02*
X91227542Y-98317133D01*
X91227542Y-98317133D02*
X91179923Y-98459990D01*
X91179923Y-98459990D02*
X90608495Y-99031419D01*
X90608495Y-99031419D02*
X91227542Y-99031419D01*
X91656114Y-99031419D02*
X91656114Y-98031419D01*
X91656114Y-98031419D02*
X92227542Y-99031419D01*
X92227542Y-99031419D02*
X92227542Y-98031419D01*
X92608495Y-98031419D02*
X93275161Y-98031419D01*
X93275161Y-98031419D02*
X92846590Y-99031419D01*
X93846590Y-98031419D02*
X93941828Y-98031419D01*
X93941828Y-98031419D02*
X94037066Y-98079038D01*
X94037066Y-98079038D02*
X94084685Y-98126657D01*
X94084685Y-98126657D02*
X94132304Y-98221895D01*
X94132304Y-98221895D02*
X94179923Y-98412371D01*
X94179923Y-98412371D02*
X94179923Y-98650466D01*
X94179923Y-98650466D02*
X94132304Y-98840942D01*
X94132304Y-98840942D02*
X94084685Y-98936180D01*
X94084685Y-98936180D02*
X94037066Y-98983800D01*
X94037066Y-98983800D02*
X93941828Y-99031419D01*
X93941828Y-99031419D02*
X93846590Y-99031419D01*
X93846590Y-99031419D02*
X93751352Y-98983800D01*
X93751352Y-98983800D02*
X93703733Y-98936180D01*
X93703733Y-98936180D02*
X93656114Y-98840942D01*
X93656114Y-98840942D02*
X93608495Y-98650466D01*
X93608495Y-98650466D02*
X93608495Y-98412371D01*
X93608495Y-98412371D02*
X93656114Y-98221895D01*
X93656114Y-98221895D02*
X93703733Y-98126657D01*
X93703733Y-98126657D02*
X93751352Y-98079038D01*
X93751352Y-98079038D02*
X93846590Y-98031419D01*
X94798971Y-98031419D02*
X94894209Y-98031419D01*
X94894209Y-98031419D02*
X94989447Y-98079038D01*
X94989447Y-98079038D02*
X95037066Y-98126657D01*
X95037066Y-98126657D02*
X95084685Y-98221895D01*
X95084685Y-98221895D02*
X95132304Y-98412371D01*
X95132304Y-98412371D02*
X95132304Y-98650466D01*
X95132304Y-98650466D02*
X95084685Y-98840942D01*
X95084685Y-98840942D02*
X95037066Y-98936180D01*
X95037066Y-98936180D02*
X94989447Y-98983800D01*
X94989447Y-98983800D02*
X94894209Y-99031419D01*
X94894209Y-99031419D02*
X94798971Y-99031419D01*
X94798971Y-99031419D02*
X94703733Y-98983800D01*
X94703733Y-98983800D02*
X94656114Y-98936180D01*
X94656114Y-98936180D02*
X94608495Y-98840942D01*
X94608495Y-98840942D02*
X94560876Y-98650466D01*
X94560876Y-98650466D02*
X94560876Y-98412371D01*
X94560876Y-98412371D02*
X94608495Y-98221895D01*
X94608495Y-98221895D02*
X94656114Y-98126657D01*
X94656114Y-98126657D02*
X94703733Y-98079038D01*
X94703733Y-98079038D02*
X94798971Y-98031419D01*
X95513257Y-98126657D02*
X95560876Y-98079038D01*
X95560876Y-98079038D02*
X95656114Y-98031419D01*
X95656114Y-98031419D02*
X95894209Y-98031419D01*
X95894209Y-98031419D02*
X95989447Y-98079038D01*
X95989447Y-98079038D02*
X96037066Y-98126657D01*
X96037066Y-98126657D02*
X96084685Y-98221895D01*
X96084685Y-98221895D02*
X96084685Y-98317133D01*
X96084685Y-98317133D02*
X96037066Y-98459990D01*
X96037066Y-98459990D02*
X95465638Y-99031419D01*
X95465638Y-99031419D02*
X96084685Y-99031419D01*
X95867981Y-70701019D02*
X96534647Y-70701019D01*
X96534647Y-70701019D02*
X96106076Y-71701019D01*
X97344171Y-71034352D02*
X97344171Y-71701019D01*
X97106076Y-70653400D02*
X96867981Y-71367685D01*
X96867981Y-71367685D02*
X97487028Y-71367685D01*
X97820362Y-71415304D02*
X98296552Y-71415304D01*
X97725124Y-71701019D02*
X98058457Y-70701019D01*
X98058457Y-70701019D02*
X98391790Y-71701019D01*
X99296552Y-71605780D02*
X99248933Y-71653400D01*
X99248933Y-71653400D02*
X99106076Y-71701019D01*
X99106076Y-71701019D02*
X99010838Y-71701019D01*
X99010838Y-71701019D02*
X98867981Y-71653400D01*
X98867981Y-71653400D02*
X98772743Y-71558161D01*
X98772743Y-71558161D02*
X98725124Y-71462923D01*
X98725124Y-71462923D02*
X98677505Y-71272447D01*
X98677505Y-71272447D02*
X98677505Y-71129590D01*
X98677505Y-71129590D02*
X98725124Y-70939114D01*
X98725124Y-70939114D02*
X98772743Y-70843876D01*
X98772743Y-70843876D02*
X98867981Y-70748638D01*
X98867981Y-70748638D02*
X99010838Y-70701019D01*
X99010838Y-70701019D02*
X99106076Y-70701019D01*
X99106076Y-70701019D02*
X99248933Y-70748638D01*
X99248933Y-70748638D02*
X99296552Y-70796257D01*
X99582267Y-70701019D02*
X100153695Y-70701019D01*
X99867981Y-71701019D02*
X99867981Y-70701019D01*
X101010838Y-71701019D02*
X100439410Y-71701019D01*
X100725124Y-71701019D02*
X100725124Y-70701019D01*
X100725124Y-70701019D02*
X100629886Y-70843876D01*
X100629886Y-70843876D02*
X100534648Y-70939114D01*
X100534648Y-70939114D02*
X100439410Y-70986733D01*
X101867981Y-70701019D02*
X101677505Y-70701019D01*
X101677505Y-70701019D02*
X101582267Y-70748638D01*
X101582267Y-70748638D02*
X101534648Y-70796257D01*
X101534648Y-70796257D02*
X101439410Y-70939114D01*
X101439410Y-70939114D02*
X101391791Y-71129590D01*
X101391791Y-71129590D02*
X101391791Y-71510542D01*
X101391791Y-71510542D02*
X101439410Y-71605780D01*
X101439410Y-71605780D02*
X101487029Y-71653400D01*
X101487029Y-71653400D02*
X101582267Y-71701019D01*
X101582267Y-71701019D02*
X101772743Y-71701019D01*
X101772743Y-71701019D02*
X101867981Y-71653400D01*
X101867981Y-71653400D02*
X101915600Y-71605780D01*
X101915600Y-71605780D02*
X101963219Y-71510542D01*
X101963219Y-71510542D02*
X101963219Y-71272447D01*
X101963219Y-71272447D02*
X101915600Y-71177209D01*
X101915600Y-71177209D02*
X101867981Y-71129590D01*
X101867981Y-71129590D02*
X101772743Y-71081971D01*
X101772743Y-71081971D02*
X101582267Y-71081971D01*
X101582267Y-71081971D02*
X101487029Y-71129590D01*
X101487029Y-71129590D02*
X101439410Y-71177209D01*
X101439410Y-71177209D02*
X101391791Y-71272447D01*
X102820362Y-71034352D02*
X102820362Y-71701019D01*
X102582267Y-70653400D02*
X102344172Y-71367685D01*
X102344172Y-71367685D02*
X102963219Y-71367685D01*
X99941142Y-49279980D02*
X99893523Y-49327600D01*
X99893523Y-49327600D02*
X99750666Y-49375219D01*
X99750666Y-49375219D02*
X99655428Y-49375219D01*
X99655428Y-49375219D02*
X99512571Y-49327600D01*
X99512571Y-49327600D02*
X99417333Y-49232361D01*
X99417333Y-49232361D02*
X99369714Y-49137123D01*
X99369714Y-49137123D02*
X99322095Y-48946647D01*
X99322095Y-48946647D02*
X99322095Y-48803790D01*
X99322095Y-48803790D02*
X99369714Y-48613314D01*
X99369714Y-48613314D02*
X99417333Y-48518076D01*
X99417333Y-48518076D02*
X99512571Y-48422838D01*
X99512571Y-48422838D02*
X99655428Y-48375219D01*
X99655428Y-48375219D02*
X99750666Y-48375219D01*
X99750666Y-48375219D02*
X99893523Y-48422838D01*
X99893523Y-48422838D02*
X99941142Y-48470457D01*
X100893523Y-49375219D02*
X100322095Y-49375219D01*
X100607809Y-49375219D02*
X100607809Y-48375219D01*
X100607809Y-48375219D02*
X100512571Y-48518076D01*
X100512571Y-48518076D02*
X100417333Y-48613314D01*
X100417333Y-48613314D02*
X100322095Y-48660933D01*
X101274476Y-48470457D02*
X101322095Y-48422838D01*
X101322095Y-48422838D02*
X101417333Y-48375219D01*
X101417333Y-48375219D02*
X101655428Y-48375219D01*
X101655428Y-48375219D02*
X101750666Y-48422838D01*
X101750666Y-48422838D02*
X101798285Y-48470457D01*
X101798285Y-48470457D02*
X101845904Y-48565695D01*
X101845904Y-48565695D02*
X101845904Y-48660933D01*
X101845904Y-48660933D02*
X101798285Y-48803790D01*
X101798285Y-48803790D02*
X101226857Y-49375219D01*
X101226857Y-49375219D02*
X101845904Y-49375219D01*
X99568095Y-43066619D02*
X99568095Y-43876142D01*
X99568095Y-43876142D02*
X99615714Y-43971380D01*
X99615714Y-43971380D02*
X99663333Y-44019000D01*
X99663333Y-44019000D02*
X99758571Y-44066619D01*
X99758571Y-44066619D02*
X99949047Y-44066619D01*
X99949047Y-44066619D02*
X100044285Y-44019000D01*
X100044285Y-44019000D02*
X100091904Y-43971380D01*
X100091904Y-43971380D02*
X100139523Y-43876142D01*
X100139523Y-43876142D02*
X100139523Y-43066619D01*
X101139523Y-44066619D02*
X100568095Y-44066619D01*
X100853809Y-44066619D02*
X100853809Y-43066619D01*
X100853809Y-43066619D02*
X100758571Y-43209476D01*
X100758571Y-43209476D02*
X100663333Y-43304714D01*
X100663333Y-43304714D02*
X100568095Y-43352333D01*
X98018695Y-92215619D02*
X98018695Y-93025142D01*
X98018695Y-93025142D02*
X98066314Y-93120380D01*
X98066314Y-93120380D02*
X98113933Y-93168000D01*
X98113933Y-93168000D02*
X98209171Y-93215619D01*
X98209171Y-93215619D02*
X98399647Y-93215619D01*
X98399647Y-93215619D02*
X98494885Y-93168000D01*
X98494885Y-93168000D02*
X98542504Y-93120380D01*
X98542504Y-93120380D02*
X98590123Y-93025142D01*
X98590123Y-93025142D02*
X98590123Y-92215619D01*
X99494885Y-92548952D02*
X99494885Y-93215619D01*
X99256790Y-92168000D02*
X99018695Y-92882285D01*
X99018695Y-92882285D02*
X99637742Y-92882285D01*
X97600419Y-85801199D02*
X97838514Y-85801199D01*
X97743276Y-86039294D02*
X97838514Y-85801199D01*
X97838514Y-85801199D02*
X97743276Y-85563104D01*
X98028990Y-85944056D02*
X97838514Y-85801199D01*
X97838514Y-85801199D02*
X98028990Y-85658342D01*
X92453619Y-45670694D02*
X91453619Y-45670694D01*
X91453619Y-45670694D02*
X91453619Y-45432599D01*
X91453619Y-45432599D02*
X91501238Y-45289742D01*
X91501238Y-45289742D02*
X91596476Y-45194504D01*
X91596476Y-45194504D02*
X91691714Y-45146885D01*
X91691714Y-45146885D02*
X91882190Y-45099266D01*
X91882190Y-45099266D02*
X92025047Y-45099266D01*
X92025047Y-45099266D02*
X92215523Y-45146885D01*
X92215523Y-45146885D02*
X92310761Y-45194504D01*
X92310761Y-45194504D02*
X92406000Y-45289742D01*
X92406000Y-45289742D02*
X92453619Y-45432599D01*
X92453619Y-45432599D02*
X92453619Y-45670694D01*
X91453619Y-44765932D02*
X91453619Y-44146885D01*
X91453619Y-44146885D02*
X91834571Y-44480218D01*
X91834571Y-44480218D02*
X91834571Y-44337361D01*
X91834571Y-44337361D02*
X91882190Y-44242123D01*
X91882190Y-44242123D02*
X91929809Y-44194504D01*
X91929809Y-44194504D02*
X92025047Y-44146885D01*
X92025047Y-44146885D02*
X92263142Y-44146885D01*
X92263142Y-44146885D02*
X92358380Y-44194504D01*
X92358380Y-44194504D02*
X92406000Y-44242123D01*
X92406000Y-44242123D02*
X92453619Y-44337361D01*
X92453619Y-44337361D02*
X92453619Y-44623075D01*
X92453619Y-44623075D02*
X92406000Y-44718313D01*
X92406000Y-44718313D02*
X92358380Y-44765932D01*
X90691619Y-47980599D02*
X90929714Y-47980599D01*
X90834476Y-48218694D02*
X90929714Y-47980599D01*
X90929714Y-47980599D02*
X90834476Y-47742504D01*
X91120190Y-48123456D02*
X90929714Y-47980599D01*
X90929714Y-47980599D02*
X91120190Y-47837742D01*
X91797980Y-106742005D02*
X92797980Y-106742005D01*
X92797980Y-106742005D02*
X92797980Y-106980100D01*
X92797980Y-106980100D02*
X92750361Y-107122957D01*
X92750361Y-107122957D02*
X92655123Y-107218195D01*
X92655123Y-107218195D02*
X92559885Y-107265814D01*
X92559885Y-107265814D02*
X92369409Y-107313433D01*
X92369409Y-107313433D02*
X92226552Y-107313433D01*
X92226552Y-107313433D02*
X92036076Y-107265814D01*
X92036076Y-107265814D02*
X91940838Y-107218195D01*
X91940838Y-107218195D02*
X91845600Y-107122957D01*
X91845600Y-107122957D02*
X91797980Y-106980100D01*
X91797980Y-106980100D02*
X91797980Y-106742005D01*
X92702742Y-107694386D02*
X92750361Y-107742005D01*
X92750361Y-107742005D02*
X92797980Y-107837243D01*
X92797980Y-107837243D02*
X92797980Y-108075338D01*
X92797980Y-108075338D02*
X92750361Y-108170576D01*
X92750361Y-108170576D02*
X92702742Y-108218195D01*
X92702742Y-108218195D02*
X92607504Y-108265814D01*
X92607504Y-108265814D02*
X92512266Y-108265814D01*
X92512266Y-108265814D02*
X92369409Y-108218195D01*
X92369409Y-108218195D02*
X91797980Y-107646767D01*
X91797980Y-107646767D02*
X91797980Y-108265814D01*
X90945619Y-110528099D02*
X91183714Y-110528099D01*
X91088476Y-110766194D02*
X91183714Y-110528099D01*
X91183714Y-110528099D02*
X91088476Y-110290004D01*
X91374190Y-110670956D02*
X91183714Y-110528099D01*
X91183714Y-110528099D02*
X91374190Y-110385242D01*
X87825342Y-41037780D02*
X87777723Y-41085400D01*
X87777723Y-41085400D02*
X87634866Y-41133019D01*
X87634866Y-41133019D02*
X87539628Y-41133019D01*
X87539628Y-41133019D02*
X87396771Y-41085400D01*
X87396771Y-41085400D02*
X87301533Y-40990161D01*
X87301533Y-40990161D02*
X87253914Y-40894923D01*
X87253914Y-40894923D02*
X87206295Y-40704447D01*
X87206295Y-40704447D02*
X87206295Y-40561590D01*
X87206295Y-40561590D02*
X87253914Y-40371114D01*
X87253914Y-40371114D02*
X87301533Y-40275876D01*
X87301533Y-40275876D02*
X87396771Y-40180638D01*
X87396771Y-40180638D02*
X87539628Y-40133019D01*
X87539628Y-40133019D02*
X87634866Y-40133019D01*
X87634866Y-40133019D02*
X87777723Y-40180638D01*
X87777723Y-40180638D02*
X87825342Y-40228257D01*
X88777723Y-41133019D02*
X88206295Y-41133019D01*
X88492009Y-41133019D02*
X88492009Y-40133019D01*
X88492009Y-40133019D02*
X88396771Y-40275876D01*
X88396771Y-40275876D02*
X88301533Y-40371114D01*
X88301533Y-40371114D02*
X88206295Y-40418733D01*
X89111057Y-40133019D02*
X89730104Y-40133019D01*
X89730104Y-40133019D02*
X89396771Y-40513971D01*
X89396771Y-40513971D02*
X89539628Y-40513971D01*
X89539628Y-40513971D02*
X89634866Y-40561590D01*
X89634866Y-40561590D02*
X89682485Y-40609209D01*
X89682485Y-40609209D02*
X89730104Y-40704447D01*
X89730104Y-40704447D02*
X89730104Y-40942542D01*
X89730104Y-40942542D02*
X89682485Y-41037780D01*
X89682485Y-41037780D02*
X89634866Y-41085400D01*
X89634866Y-41085400D02*
X89539628Y-41133019D01*
X89539628Y-41133019D02*
X89253914Y-41133019D01*
X89253914Y-41133019D02*
X89158676Y-41085400D01*
X89158676Y-41085400D02*
X89111057Y-41037780D01*
X96607333Y-107896819D02*
X96131143Y-107896819D01*
X96131143Y-107896819D02*
X96131143Y-106896819D01*
X97464476Y-107896819D02*
X96893048Y-107896819D01*
X97178762Y-107896819D02*
X97178762Y-106896819D01*
X97178762Y-106896819D02*
X97083524Y-107039676D01*
X97083524Y-107039676D02*
X96988286Y-107134914D01*
X96988286Y-107134914D02*
X96893048Y-107182533D01*
X91355942Y-52175580D02*
X91308323Y-52223200D01*
X91308323Y-52223200D02*
X91165466Y-52270819D01*
X91165466Y-52270819D02*
X91070228Y-52270819D01*
X91070228Y-52270819D02*
X90927371Y-52223200D01*
X90927371Y-52223200D02*
X90832133Y-52127961D01*
X90832133Y-52127961D02*
X90784514Y-52032723D01*
X90784514Y-52032723D02*
X90736895Y-51842247D01*
X90736895Y-51842247D02*
X90736895Y-51699390D01*
X90736895Y-51699390D02*
X90784514Y-51508914D01*
X90784514Y-51508914D02*
X90832133Y-51413676D01*
X90832133Y-51413676D02*
X90927371Y-51318438D01*
X90927371Y-51318438D02*
X91070228Y-51270819D01*
X91070228Y-51270819D02*
X91165466Y-51270819D01*
X91165466Y-51270819D02*
X91308323Y-51318438D01*
X91308323Y-51318438D02*
X91355942Y-51366057D01*
X92308323Y-52270819D02*
X91736895Y-52270819D01*
X92022609Y-52270819D02*
X92022609Y-51270819D01*
X92022609Y-51270819D02*
X91927371Y-51413676D01*
X91927371Y-51413676D02*
X91832133Y-51508914D01*
X91832133Y-51508914D02*
X91736895Y-51556533D01*
X93260704Y-52270819D02*
X92689276Y-52270819D01*
X92974990Y-52270819D02*
X92974990Y-51270819D01*
X92974990Y-51270819D02*
X92879752Y-51413676D01*
X92879752Y-51413676D02*
X92784514Y-51508914D01*
X92784514Y-51508914D02*
X92689276Y-51556533D01*
X93700695Y-43676219D02*
X93700695Y-44485742D01*
X93700695Y-44485742D02*
X93748314Y-44580980D01*
X93748314Y-44580980D02*
X93795933Y-44628600D01*
X93795933Y-44628600D02*
X93891171Y-44676219D01*
X93891171Y-44676219D02*
X94081647Y-44676219D01*
X94081647Y-44676219D02*
X94176885Y-44628600D01*
X94176885Y-44628600D02*
X94224504Y-44580980D01*
X94224504Y-44580980D02*
X94272123Y-44485742D01*
X94272123Y-44485742D02*
X94272123Y-43676219D01*
X94653076Y-43676219D02*
X95319742Y-43676219D01*
X95319742Y-43676219D02*
X94891171Y-44676219D01*
X94048533Y-50264219D02*
X93572343Y-50264219D01*
X93572343Y-50264219D02*
X93572343Y-49264219D01*
X94381867Y-50264219D02*
X94381867Y-49264219D01*
X94381867Y-49264219D02*
X94715200Y-49978504D01*
X94715200Y-49978504D02*
X95048533Y-49264219D01*
X95048533Y-49264219D02*
X95048533Y-50264219D01*
X95429486Y-49264219D02*
X96096152Y-49264219D01*
X96096152Y-49264219D02*
X95667581Y-50264219D01*
X96429486Y-49359457D02*
X96477105Y-49311838D01*
X96477105Y-49311838D02*
X96572343Y-49264219D01*
X96572343Y-49264219D02*
X96810438Y-49264219D01*
X96810438Y-49264219D02*
X96905676Y-49311838D01*
X96905676Y-49311838D02*
X96953295Y-49359457D01*
X96953295Y-49359457D02*
X97000914Y-49454695D01*
X97000914Y-49454695D02*
X97000914Y-49549933D01*
X97000914Y-49549933D02*
X96953295Y-49692790D01*
X96953295Y-49692790D02*
X96381867Y-50264219D01*
X96381867Y-50264219D02*
X97000914Y-50264219D01*
X97381867Y-49359457D02*
X97429486Y-49311838D01*
X97429486Y-49311838D02*
X97524724Y-49264219D01*
X97524724Y-49264219D02*
X97762819Y-49264219D01*
X97762819Y-49264219D02*
X97858057Y-49311838D01*
X97858057Y-49311838D02*
X97905676Y-49359457D01*
X97905676Y-49359457D02*
X97953295Y-49454695D01*
X97953295Y-49454695D02*
X97953295Y-49549933D01*
X97953295Y-49549933D02*
X97905676Y-49692790D01*
X97905676Y-49692790D02*
X97334248Y-50264219D01*
X97334248Y-50264219D02*
X97953295Y-50264219D01*
X98810438Y-49264219D02*
X98619962Y-49264219D01*
X98619962Y-49264219D02*
X98524724Y-49311838D01*
X98524724Y-49311838D02*
X98477105Y-49359457D01*
X98477105Y-49359457D02*
X98381867Y-49502314D01*
X98381867Y-49502314D02*
X98334248Y-49692790D01*
X98334248Y-49692790D02*
X98334248Y-50073742D01*
X98334248Y-50073742D02*
X98381867Y-50168980D01*
X98381867Y-50168980D02*
X98429486Y-50216600D01*
X98429486Y-50216600D02*
X98524724Y-50264219D01*
X98524724Y-50264219D02*
X98715200Y-50264219D01*
X98715200Y-50264219D02*
X98810438Y-50216600D01*
X98810438Y-50216600D02*
X98858057Y-50168980D01*
X98858057Y-50168980D02*
X98905676Y-50073742D01*
X98905676Y-50073742D02*
X98905676Y-49835647D01*
X98905676Y-49835647D02*
X98858057Y-49740409D01*
X98858057Y-49740409D02*
X98810438Y-49692790D01*
X98810438Y-49692790D02*
X98715200Y-49645171D01*
X98715200Y-49645171D02*
X98524724Y-49645171D01*
X98524724Y-49645171D02*
X98429486Y-49692790D01*
X98429486Y-49692790D02*
X98381867Y-49740409D01*
X98381867Y-49740409D02*
X98334248Y-49835647D01*
X100787295Y-115278819D02*
X100787295Y-116088342D01*
X100787295Y-116088342D02*
X100834914Y-116183580D01*
X100834914Y-116183580D02*
X100882533Y-116231200D01*
X100882533Y-116231200D02*
X100977771Y-116278819D01*
X100977771Y-116278819D02*
X101168247Y-116278819D01*
X101168247Y-116278819D02*
X101263485Y-116231200D01*
X101263485Y-116231200D02*
X101311104Y-116183580D01*
X101311104Y-116183580D02*
X101358723Y-116088342D01*
X101358723Y-116088342D02*
X101358723Y-115278819D01*
X102311104Y-115278819D02*
X101834914Y-115278819D01*
X101834914Y-115278819D02*
X101787295Y-115755009D01*
X101787295Y-115755009D02*
X101834914Y-115707390D01*
X101834914Y-115707390D02*
X101930152Y-115659771D01*
X101930152Y-115659771D02*
X102168247Y-115659771D01*
X102168247Y-115659771D02*
X102263485Y-115707390D01*
X102263485Y-115707390D02*
X102311104Y-115755009D01*
X102311104Y-115755009D02*
X102358723Y-115850247D01*
X102358723Y-115850247D02*
X102358723Y-116088342D01*
X102358723Y-116088342D02*
X102311104Y-116183580D01*
X102311104Y-116183580D02*
X102263485Y-116231200D01*
X102263485Y-116231200D02*
X102168247Y-116278819D01*
X102168247Y-116278819D02*
X101930152Y-116278819D01*
X101930152Y-116278819D02*
X101834914Y-116231200D01*
X101834914Y-116231200D02*
X101787295Y-116183580D01*
X101523800Y-116320219D02*
X101523800Y-116558314D01*
X101285705Y-116463076D02*
X101523800Y-116558314D01*
X101523800Y-116558314D02*
X101761895Y-116463076D01*
X101380943Y-116748790D02*
X101523800Y-116558314D01*
X101523800Y-116558314D02*
X101666657Y-116748790D01*
X86218733Y-67256819D02*
X85885400Y-66780628D01*
X85647305Y-67256819D02*
X85647305Y-66256819D01*
X85647305Y-66256819D02*
X86028257Y-66256819D01*
X86028257Y-66256819D02*
X86123495Y-66304438D01*
X86123495Y-66304438D02*
X86171114Y-66352057D01*
X86171114Y-66352057D02*
X86218733Y-66447295D01*
X86218733Y-66447295D02*
X86218733Y-66590152D01*
X86218733Y-66590152D02*
X86171114Y-66685390D01*
X86171114Y-66685390D02*
X86123495Y-66733009D01*
X86123495Y-66733009D02*
X86028257Y-66780628D01*
X86028257Y-66780628D02*
X85647305Y-66780628D01*
X87075876Y-66590152D02*
X87075876Y-67256819D01*
X86837781Y-66209200D02*
X86599686Y-66923485D01*
X86599686Y-66923485D02*
X87218733Y-66923485D01*
X101625495Y-69177819D02*
X101625495Y-69987342D01*
X101625495Y-69987342D02*
X101673114Y-70082580D01*
X101673114Y-70082580D02*
X101720733Y-70130200D01*
X101720733Y-70130200D02*
X101815971Y-70177819D01*
X101815971Y-70177819D02*
X102006447Y-70177819D01*
X102006447Y-70177819D02*
X102101685Y-70130200D01*
X102101685Y-70130200D02*
X102149304Y-70082580D01*
X102149304Y-70082580D02*
X102196923Y-69987342D01*
X102196923Y-69987342D02*
X102196923Y-69177819D01*
X103101685Y-69177819D02*
X102911209Y-69177819D01*
X102911209Y-69177819D02*
X102815971Y-69225438D01*
X102815971Y-69225438D02*
X102768352Y-69273057D01*
X102768352Y-69273057D02*
X102673114Y-69415914D01*
X102673114Y-69415914D02*
X102625495Y-69606390D01*
X102625495Y-69606390D02*
X102625495Y-69987342D01*
X102625495Y-69987342D02*
X102673114Y-70082580D01*
X102673114Y-70082580D02*
X102720733Y-70130200D01*
X102720733Y-70130200D02*
X102815971Y-70177819D01*
X102815971Y-70177819D02*
X103006447Y-70177819D01*
X103006447Y-70177819D02*
X103101685Y-70130200D01*
X103101685Y-70130200D02*
X103149304Y-70082580D01*
X103149304Y-70082580D02*
X103196923Y-69987342D01*
X103196923Y-69987342D02*
X103196923Y-69749247D01*
X103196923Y-69749247D02*
X103149304Y-69654009D01*
X103149304Y-69654009D02*
X103101685Y-69606390D01*
X103101685Y-69606390D02*
X103006447Y-69558771D01*
X103006447Y-69558771D02*
X102815971Y-69558771D01*
X102815971Y-69558771D02*
X102720733Y-69606390D01*
X102720733Y-69606390D02*
X102673114Y-69654009D01*
X102673114Y-69654009D02*
X102625495Y-69749247D01*
X101858880Y-62776100D02*
X101620785Y-62776100D01*
X101716023Y-62538005D02*
X101620785Y-62776100D01*
X101620785Y-62776100D02*
X101716023Y-63014195D01*
X101430309Y-62633243D02*
X101620785Y-62776100D01*
X101620785Y-62776100D02*
X101430309Y-62918957D01*
X99943295Y-111797619D02*
X99943295Y-112607142D01*
X99943295Y-112607142D02*
X99990914Y-112702380D01*
X99990914Y-112702380D02*
X100038533Y-112750000D01*
X100038533Y-112750000D02*
X100133771Y-112797619D01*
X100133771Y-112797619D02*
X100324247Y-112797619D01*
X100324247Y-112797619D02*
X100419485Y-112750000D01*
X100419485Y-112750000D02*
X100467104Y-112702380D01*
X100467104Y-112702380D02*
X100514723Y-112607142D01*
X100514723Y-112607142D02*
X100514723Y-111797619D01*
X101133771Y-112226190D02*
X101038533Y-112178571D01*
X101038533Y-112178571D02*
X100990914Y-112130952D01*
X100990914Y-112130952D02*
X100943295Y-112035714D01*
X100943295Y-112035714D02*
X100943295Y-111988095D01*
X100943295Y-111988095D02*
X100990914Y-111892857D01*
X100990914Y-111892857D02*
X101038533Y-111845238D01*
X101038533Y-111845238D02*
X101133771Y-111797619D01*
X101133771Y-111797619D02*
X101324247Y-111797619D01*
X101324247Y-111797619D02*
X101419485Y-111845238D01*
X101419485Y-111845238D02*
X101467104Y-111892857D01*
X101467104Y-111892857D02*
X101514723Y-111988095D01*
X101514723Y-111988095D02*
X101514723Y-112035714D01*
X101514723Y-112035714D02*
X101467104Y-112130952D01*
X101467104Y-112130952D02*
X101419485Y-112178571D01*
X101419485Y-112178571D02*
X101324247Y-112226190D01*
X101324247Y-112226190D02*
X101133771Y-112226190D01*
X101133771Y-112226190D02*
X101038533Y-112273809D01*
X101038533Y-112273809D02*
X100990914Y-112321428D01*
X100990914Y-112321428D02*
X100943295Y-112416666D01*
X100943295Y-112416666D02*
X100943295Y-112607142D01*
X100943295Y-112607142D02*
X100990914Y-112702380D01*
X100990914Y-112702380D02*
X101038533Y-112750000D01*
X101038533Y-112750000D02*
X101133771Y-112797619D01*
X101133771Y-112797619D02*
X101324247Y-112797619D01*
X101324247Y-112797619D02*
X101419485Y-112750000D01*
X101419485Y-112750000D02*
X101467104Y-112702380D01*
X101467104Y-112702380D02*
X101514723Y-112607142D01*
X101514723Y-112607142D02*
X101514723Y-112416666D01*
X101514723Y-112416666D02*
X101467104Y-112321428D01*
X101467104Y-112321428D02*
X101419485Y-112273809D01*
X101419485Y-112273809D02*
X101324247Y-112226190D01*
X92086133Y-114761180D02*
X92038514Y-114808800D01*
X92038514Y-114808800D02*
X91895657Y-114856419D01*
X91895657Y-114856419D02*
X91800419Y-114856419D01*
X91800419Y-114856419D02*
X91657562Y-114808800D01*
X91657562Y-114808800D02*
X91562324Y-114713561D01*
X91562324Y-114713561D02*
X91514705Y-114618323D01*
X91514705Y-114618323D02*
X91467086Y-114427847D01*
X91467086Y-114427847D02*
X91467086Y-114284990D01*
X91467086Y-114284990D02*
X91514705Y-114094514D01*
X91514705Y-114094514D02*
X91562324Y-113999276D01*
X91562324Y-113999276D02*
X91657562Y-113904038D01*
X91657562Y-113904038D02*
X91800419Y-113856419D01*
X91800419Y-113856419D02*
X91895657Y-113856419D01*
X91895657Y-113856419D02*
X92038514Y-113904038D01*
X92038514Y-113904038D02*
X92086133Y-113951657D01*
X92562324Y-114856419D02*
X92752800Y-114856419D01*
X92752800Y-114856419D02*
X92848038Y-114808800D01*
X92848038Y-114808800D02*
X92895657Y-114761180D01*
X92895657Y-114761180D02*
X92990895Y-114618323D01*
X92990895Y-114618323D02*
X93038514Y-114427847D01*
X93038514Y-114427847D02*
X93038514Y-114046895D01*
X93038514Y-114046895D02*
X92990895Y-113951657D01*
X92990895Y-113951657D02*
X92943276Y-113904038D01*
X92943276Y-113904038D02*
X92848038Y-113856419D01*
X92848038Y-113856419D02*
X92657562Y-113856419D01*
X92657562Y-113856419D02*
X92562324Y-113904038D01*
X92562324Y-113904038D02*
X92514705Y-113951657D01*
X92514705Y-113951657D02*
X92467086Y-114046895D01*
X92467086Y-114046895D02*
X92467086Y-114284990D01*
X92467086Y-114284990D02*
X92514705Y-114380228D01*
X92514705Y-114380228D02*
X92562324Y-114427847D01*
X92562324Y-114427847D02*
X92657562Y-114475466D01*
X92657562Y-114475466D02*
X92848038Y-114475466D01*
X92848038Y-114475466D02*
X92943276Y-114427847D01*
X92943276Y-114427847D02*
X92990895Y-114380228D01*
X92990895Y-114380228D02*
X93038514Y-114284990D01*
X102843105Y-40332819D02*
X102843105Y-39332819D01*
X102843105Y-39332819D02*
X103081200Y-39332819D01*
X103081200Y-39332819D02*
X103224057Y-39380438D01*
X103224057Y-39380438D02*
X103319295Y-39475676D01*
X103319295Y-39475676D02*
X103366914Y-39570914D01*
X103366914Y-39570914D02*
X103414533Y-39761390D01*
X103414533Y-39761390D02*
X103414533Y-39904247D01*
X103414533Y-39904247D02*
X103366914Y-40094723D01*
X103366914Y-40094723D02*
X103319295Y-40189961D01*
X103319295Y-40189961D02*
X103224057Y-40285200D01*
X103224057Y-40285200D02*
X103081200Y-40332819D01*
X103081200Y-40332819D02*
X102843105Y-40332819D01*
X104366914Y-40332819D02*
X103795486Y-40332819D01*
X104081200Y-40332819D02*
X104081200Y-39332819D01*
X104081200Y-39332819D02*
X103985962Y-39475676D01*
X103985962Y-39475676D02*
X103890724Y-39570914D01*
X103890724Y-39570914D02*
X103795486Y-39618533D01*
X86244133Y-113738819D02*
X85910800Y-113262628D01*
X85672705Y-113738819D02*
X85672705Y-112738819D01*
X85672705Y-112738819D02*
X86053657Y-112738819D01*
X86053657Y-112738819D02*
X86148895Y-112786438D01*
X86148895Y-112786438D02*
X86196514Y-112834057D01*
X86196514Y-112834057D02*
X86244133Y-112929295D01*
X86244133Y-112929295D02*
X86244133Y-113072152D01*
X86244133Y-113072152D02*
X86196514Y-113167390D01*
X86196514Y-113167390D02*
X86148895Y-113215009D01*
X86148895Y-113215009D02*
X86053657Y-113262628D01*
X86053657Y-113262628D02*
X85672705Y-113262628D01*
X86577467Y-112738819D02*
X87196514Y-112738819D01*
X87196514Y-112738819D02*
X86863181Y-113119771D01*
X86863181Y-113119771D02*
X87006038Y-113119771D01*
X87006038Y-113119771D02*
X87101276Y-113167390D01*
X87101276Y-113167390D02*
X87148895Y-113215009D01*
X87148895Y-113215009D02*
X87196514Y-113310247D01*
X87196514Y-113310247D02*
X87196514Y-113548342D01*
X87196514Y-113548342D02*
X87148895Y-113643580D01*
X87148895Y-113643580D02*
X87101276Y-113691200D01*
X87101276Y-113691200D02*
X87006038Y-113738819D01*
X87006038Y-113738819D02*
X86720324Y-113738819D01*
X86720324Y-113738819D02*
X86625086Y-113691200D01*
X86625086Y-113691200D02*
X86577467Y-113643580D01*
X98791733Y-87024380D02*
X98744114Y-87072000D01*
X98744114Y-87072000D02*
X98601257Y-87119619D01*
X98601257Y-87119619D02*
X98506019Y-87119619D01*
X98506019Y-87119619D02*
X98363162Y-87072000D01*
X98363162Y-87072000D02*
X98267924Y-86976761D01*
X98267924Y-86976761D02*
X98220305Y-86881523D01*
X98220305Y-86881523D02*
X98172686Y-86691047D01*
X98172686Y-86691047D02*
X98172686Y-86548190D01*
X98172686Y-86548190D02*
X98220305Y-86357714D01*
X98220305Y-86357714D02*
X98267924Y-86262476D01*
X98267924Y-86262476D02*
X98363162Y-86167238D01*
X98363162Y-86167238D02*
X98506019Y-86119619D01*
X98506019Y-86119619D02*
X98601257Y-86119619D01*
X98601257Y-86119619D02*
X98744114Y-86167238D01*
X98744114Y-86167238D02*
X98791733Y-86214857D01*
X99648876Y-86452952D02*
X99648876Y-87119619D01*
X99410781Y-86072000D02*
X99172686Y-86786285D01*
X99172686Y-86786285D02*
X99791733Y-86786285D01*
X98069495Y-80226819D02*
X98069495Y-81036342D01*
X98069495Y-81036342D02*
X98117114Y-81131580D01*
X98117114Y-81131580D02*
X98164733Y-81179200D01*
X98164733Y-81179200D02*
X98259971Y-81226819D01*
X98259971Y-81226819D02*
X98450447Y-81226819D01*
X98450447Y-81226819D02*
X98545685Y-81179200D01*
X98545685Y-81179200D02*
X98593304Y-81131580D01*
X98593304Y-81131580D02*
X98640923Y-81036342D01*
X98640923Y-81036342D02*
X98640923Y-80226819D01*
X99021876Y-80226819D02*
X99640923Y-80226819D01*
X99640923Y-80226819D02*
X99307590Y-80607771D01*
X99307590Y-80607771D02*
X99450447Y-80607771D01*
X99450447Y-80607771D02*
X99545685Y-80655390D01*
X99545685Y-80655390D02*
X99593304Y-80703009D01*
X99593304Y-80703009D02*
X99640923Y-80798247D01*
X99640923Y-80798247D02*
X99640923Y-81036342D01*
X99640923Y-81036342D02*
X99593304Y-81131580D01*
X99593304Y-81131580D02*
X99545685Y-81179200D01*
X99545685Y-81179200D02*
X99450447Y-81226819D01*
X99450447Y-81226819D02*
X99164733Y-81226819D01*
X99164733Y-81226819D02*
X99069495Y-81179200D01*
X99069495Y-81179200D02*
X99021876Y-81131580D01*
X97702019Y-73355199D02*
X97940114Y-73355199D01*
X97844876Y-73593294D02*
X97940114Y-73355199D01*
X97940114Y-73355199D02*
X97844876Y-73117104D01*
X98130590Y-73498056D02*
X97940114Y-73355199D01*
X97940114Y-73355199D02*
X98130590Y-73212342D01*
X99960133Y-104804380D02*
X99912514Y-104852000D01*
X99912514Y-104852000D02*
X99769657Y-104899619D01*
X99769657Y-104899619D02*
X99674419Y-104899619D01*
X99674419Y-104899619D02*
X99531562Y-104852000D01*
X99531562Y-104852000D02*
X99436324Y-104756761D01*
X99436324Y-104756761D02*
X99388705Y-104661523D01*
X99388705Y-104661523D02*
X99341086Y-104471047D01*
X99341086Y-104471047D02*
X99341086Y-104328190D01*
X99341086Y-104328190D02*
X99388705Y-104137714D01*
X99388705Y-104137714D02*
X99436324Y-104042476D01*
X99436324Y-104042476D02*
X99531562Y-103947238D01*
X99531562Y-103947238D02*
X99674419Y-103899619D01*
X99674419Y-103899619D02*
X99769657Y-103899619D01*
X99769657Y-103899619D02*
X99912514Y-103947238D01*
X99912514Y-103947238D02*
X99960133Y-103994857D01*
X100531562Y-104328190D02*
X100436324Y-104280571D01*
X100436324Y-104280571D02*
X100388705Y-104232952D01*
X100388705Y-104232952D02*
X100341086Y-104137714D01*
X100341086Y-104137714D02*
X100341086Y-104090095D01*
X100341086Y-104090095D02*
X100388705Y-103994857D01*
X100388705Y-103994857D02*
X100436324Y-103947238D01*
X100436324Y-103947238D02*
X100531562Y-103899619D01*
X100531562Y-103899619D02*
X100722038Y-103899619D01*
X100722038Y-103899619D02*
X100817276Y-103947238D01*
X100817276Y-103947238D02*
X100864895Y-103994857D01*
X100864895Y-103994857D02*
X100912514Y-104090095D01*
X100912514Y-104090095D02*
X100912514Y-104137714D01*
X100912514Y-104137714D02*
X100864895Y-104232952D01*
X100864895Y-104232952D02*
X100817276Y-104280571D01*
X100817276Y-104280571D02*
X100722038Y-104328190D01*
X100722038Y-104328190D02*
X100531562Y-104328190D01*
X100531562Y-104328190D02*
X100436324Y-104375809D01*
X100436324Y-104375809D02*
X100388705Y-104423428D01*
X100388705Y-104423428D02*
X100341086Y-104518666D01*
X100341086Y-104518666D02*
X100341086Y-104709142D01*
X100341086Y-104709142D02*
X100388705Y-104804380D01*
X100388705Y-104804380D02*
X100436324Y-104852000D01*
X100436324Y-104852000D02*
X100531562Y-104899619D01*
X100531562Y-104899619D02*
X100722038Y-104899619D01*
X100722038Y-104899619D02*
X100817276Y-104852000D01*
X100817276Y-104852000D02*
X100864895Y-104804380D01*
X100864895Y-104804380D02*
X100912514Y-104709142D01*
X100912514Y-104709142D02*
X100912514Y-104518666D01*
X100912514Y-104518666D02*
X100864895Y-104423428D01*
X100864895Y-104423428D02*
X100817276Y-104375809D01*
X100817276Y-104375809D02*
X100722038Y-104328190D01*
X107199133Y-115929580D02*
X107151514Y-115977200D01*
X107151514Y-115977200D02*
X107008657Y-116024819D01*
X107008657Y-116024819D02*
X106913419Y-116024819D01*
X106913419Y-116024819D02*
X106770562Y-115977200D01*
X106770562Y-115977200D02*
X106675324Y-115881961D01*
X106675324Y-115881961D02*
X106627705Y-115786723D01*
X106627705Y-115786723D02*
X106580086Y-115596247D01*
X106580086Y-115596247D02*
X106580086Y-115453390D01*
X106580086Y-115453390D02*
X106627705Y-115262914D01*
X106627705Y-115262914D02*
X106675324Y-115167676D01*
X106675324Y-115167676D02*
X106770562Y-115072438D01*
X106770562Y-115072438D02*
X106913419Y-115024819D01*
X106913419Y-115024819D02*
X107008657Y-115024819D01*
X107008657Y-115024819D02*
X107151514Y-115072438D01*
X107151514Y-115072438D02*
X107199133Y-115120057D01*
X108103895Y-115024819D02*
X107627705Y-115024819D01*
X107627705Y-115024819D02*
X107580086Y-115501009D01*
X107580086Y-115501009D02*
X107627705Y-115453390D01*
X107627705Y-115453390D02*
X107722943Y-115405771D01*
X107722943Y-115405771D02*
X107961038Y-115405771D01*
X107961038Y-115405771D02*
X108056276Y-115453390D01*
X108056276Y-115453390D02*
X108103895Y-115501009D01*
X108103895Y-115501009D02*
X108151514Y-115596247D01*
X108151514Y-115596247D02*
X108151514Y-115834342D01*
X108151514Y-115834342D02*
X108103895Y-115929580D01*
X108103895Y-115929580D02*
X108056276Y-115977200D01*
X108056276Y-115977200D02*
X107961038Y-116024819D01*
X107961038Y-116024819D02*
X107722943Y-116024819D01*
X107722943Y-116024819D02*
X107627705Y-115977200D01*
X107627705Y-115977200D02*
X107580086Y-115929580D01*
X86269533Y-58112819D02*
X85936200Y-57636628D01*
X85698105Y-58112819D02*
X85698105Y-57112819D01*
X85698105Y-57112819D02*
X86079057Y-57112819D01*
X86079057Y-57112819D02*
X86174295Y-57160438D01*
X86174295Y-57160438D02*
X86221914Y-57208057D01*
X86221914Y-57208057D02*
X86269533Y-57303295D01*
X86269533Y-57303295D02*
X86269533Y-57446152D01*
X86269533Y-57446152D02*
X86221914Y-57541390D01*
X86221914Y-57541390D02*
X86174295Y-57589009D01*
X86174295Y-57589009D02*
X86079057Y-57636628D01*
X86079057Y-57636628D02*
X85698105Y-57636628D01*
X87174295Y-57112819D02*
X86698105Y-57112819D01*
X86698105Y-57112819D02*
X86650486Y-57589009D01*
X86650486Y-57589009D02*
X86698105Y-57541390D01*
X86698105Y-57541390D02*
X86793343Y-57493771D01*
X86793343Y-57493771D02*
X87031438Y-57493771D01*
X87031438Y-57493771D02*
X87126676Y-57541390D01*
X87126676Y-57541390D02*
X87174295Y-57589009D01*
X87174295Y-57589009D02*
X87221914Y-57684247D01*
X87221914Y-57684247D02*
X87221914Y-57922342D01*
X87221914Y-57922342D02*
X87174295Y-58017580D01*
X87174295Y-58017580D02*
X87126676Y-58065200D01*
X87126676Y-58065200D02*
X87031438Y-58112819D01*
X87031438Y-58112819D02*
X86793343Y-58112819D01*
X86793343Y-58112819D02*
X86698105Y-58065200D01*
X86698105Y-58065200D02*
X86650486Y-58017580D01*
X98893333Y-75035580D02*
X98845714Y-75083200D01*
X98845714Y-75083200D02*
X98702857Y-75130819D01*
X98702857Y-75130819D02*
X98607619Y-75130819D01*
X98607619Y-75130819D02*
X98464762Y-75083200D01*
X98464762Y-75083200D02*
X98369524Y-74987961D01*
X98369524Y-74987961D02*
X98321905Y-74892723D01*
X98321905Y-74892723D02*
X98274286Y-74702247D01*
X98274286Y-74702247D02*
X98274286Y-74559390D01*
X98274286Y-74559390D02*
X98321905Y-74368914D01*
X98321905Y-74368914D02*
X98369524Y-74273676D01*
X98369524Y-74273676D02*
X98464762Y-74178438D01*
X98464762Y-74178438D02*
X98607619Y-74130819D01*
X98607619Y-74130819D02*
X98702857Y-74130819D01*
X98702857Y-74130819D02*
X98845714Y-74178438D01*
X98845714Y-74178438D02*
X98893333Y-74226057D01*
X99226667Y-74130819D02*
X99845714Y-74130819D01*
X99845714Y-74130819D02*
X99512381Y-74511771D01*
X99512381Y-74511771D02*
X99655238Y-74511771D01*
X99655238Y-74511771D02*
X99750476Y-74559390D01*
X99750476Y-74559390D02*
X99798095Y-74607009D01*
X99798095Y-74607009D02*
X99845714Y-74702247D01*
X99845714Y-74702247D02*
X99845714Y-74940342D01*
X99845714Y-74940342D02*
X99798095Y-75035580D01*
X99798095Y-75035580D02*
X99750476Y-75083200D01*
X99750476Y-75083200D02*
X99655238Y-75130819D01*
X99655238Y-75130819D02*
X99369524Y-75130819D01*
X99369524Y-75130819D02*
X99274286Y-75083200D01*
X99274286Y-75083200D02*
X99226667Y-75035580D01*
X92360761Y-65777257D02*
X92265523Y-65729638D01*
X92265523Y-65729638D02*
X92170285Y-65634400D01*
X92170285Y-65634400D02*
X92027428Y-65491542D01*
X92027428Y-65491542D02*
X91932190Y-65443923D01*
X91932190Y-65443923D02*
X91836952Y-65443923D01*
X91884571Y-65682019D02*
X91789333Y-65634400D01*
X91789333Y-65634400D02*
X91694095Y-65539161D01*
X91694095Y-65539161D02*
X91646476Y-65348685D01*
X91646476Y-65348685D02*
X91646476Y-65015352D01*
X91646476Y-65015352D02*
X91694095Y-64824876D01*
X91694095Y-64824876D02*
X91789333Y-64729638D01*
X91789333Y-64729638D02*
X91884571Y-64682019D01*
X91884571Y-64682019D02*
X92075047Y-64682019D01*
X92075047Y-64682019D02*
X92170285Y-64729638D01*
X92170285Y-64729638D02*
X92265523Y-64824876D01*
X92265523Y-64824876D02*
X92313142Y-65015352D01*
X92313142Y-65015352D02*
X92313142Y-65348685D01*
X92313142Y-65348685D02*
X92265523Y-65539161D01*
X92265523Y-65539161D02*
X92170285Y-65634400D01*
X92170285Y-65634400D02*
X92075047Y-65682019D01*
X92075047Y-65682019D02*
X91884571Y-65682019D01*
X92694095Y-64777257D02*
X92741714Y-64729638D01*
X92741714Y-64729638D02*
X92836952Y-64682019D01*
X92836952Y-64682019D02*
X93075047Y-64682019D01*
X93075047Y-64682019D02*
X93170285Y-64729638D01*
X93170285Y-64729638D02*
X93217904Y-64777257D01*
X93217904Y-64777257D02*
X93265523Y-64872495D01*
X93265523Y-64872495D02*
X93265523Y-64967733D01*
X93265523Y-64967733D02*
X93217904Y-65110590D01*
X93217904Y-65110590D02*
X92646476Y-65682019D01*
X92646476Y-65682019D02*
X93265523Y-65682019D01*
X90910819Y-64028399D02*
X91148914Y-64028399D01*
X91053676Y-64266494D02*
X91148914Y-64028399D01*
X91148914Y-64028399D02*
X91053676Y-63790304D01*
X91339390Y-64171256D02*
X91148914Y-64028399D01*
X91148914Y-64028399D02*
X91339390Y-63885542D01*
X86117133Y-47603580D02*
X86069514Y-47651200D01*
X86069514Y-47651200D02*
X85926657Y-47698819D01*
X85926657Y-47698819D02*
X85831419Y-47698819D01*
X85831419Y-47698819D02*
X85688562Y-47651200D01*
X85688562Y-47651200D02*
X85593324Y-47555961D01*
X85593324Y-47555961D02*
X85545705Y-47460723D01*
X85545705Y-47460723D02*
X85498086Y-47270247D01*
X85498086Y-47270247D02*
X85498086Y-47127390D01*
X85498086Y-47127390D02*
X85545705Y-46936914D01*
X85545705Y-46936914D02*
X85593324Y-46841676D01*
X85593324Y-46841676D02*
X85688562Y-46746438D01*
X85688562Y-46746438D02*
X85831419Y-46698819D01*
X85831419Y-46698819D02*
X85926657Y-46698819D01*
X85926657Y-46698819D02*
X86069514Y-46746438D01*
X86069514Y-46746438D02*
X86117133Y-46794057D01*
X87069514Y-47698819D02*
X86498086Y-47698819D01*
X86783800Y-47698819D02*
X86783800Y-46698819D01*
X86783800Y-46698819D02*
X86688562Y-46841676D01*
X86688562Y-46841676D02*
X86593324Y-46936914D01*
X86593324Y-46936914D02*
X86498086Y-46984533D01*
X86244133Y-103145119D02*
X85910800Y-102668928D01*
X85672705Y-103145119D02*
X85672705Y-102145119D01*
X85672705Y-102145119D02*
X86053657Y-102145119D01*
X86053657Y-102145119D02*
X86148895Y-102192738D01*
X86148895Y-102192738D02*
X86196514Y-102240357D01*
X86196514Y-102240357D02*
X86244133Y-102335595D01*
X86244133Y-102335595D02*
X86244133Y-102478452D01*
X86244133Y-102478452D02*
X86196514Y-102573690D01*
X86196514Y-102573690D02*
X86148895Y-102621309D01*
X86148895Y-102621309D02*
X86053657Y-102668928D01*
X86053657Y-102668928D02*
X85672705Y-102668928D01*
X86625086Y-102240357D02*
X86672705Y-102192738D01*
X86672705Y-102192738D02*
X86767943Y-102145119D01*
X86767943Y-102145119D02*
X87006038Y-102145119D01*
X87006038Y-102145119D02*
X87101276Y-102192738D01*
X87101276Y-102192738D02*
X87148895Y-102240357D01*
X87148895Y-102240357D02*
X87196514Y-102335595D01*
X87196514Y-102335595D02*
X87196514Y-102430833D01*
X87196514Y-102430833D02*
X87148895Y-102573690D01*
X87148895Y-102573690D02*
X86577467Y-103145119D01*
X86577467Y-103145119D02*
X87196514Y-103145119D01*
X95053161Y-100727657D02*
X94957923Y-100680038D01*
X94957923Y-100680038D02*
X94862685Y-100584800D01*
X94862685Y-100584800D02*
X94719828Y-100441942D01*
X94719828Y-100441942D02*
X94624590Y-100394323D01*
X94624590Y-100394323D02*
X94529352Y-100394323D01*
X94576971Y-100632419D02*
X94481733Y-100584800D01*
X94481733Y-100584800D02*
X94386495Y-100489561D01*
X94386495Y-100489561D02*
X94338876Y-100299085D01*
X94338876Y-100299085D02*
X94338876Y-99965752D01*
X94338876Y-99965752D02*
X94386495Y-99775276D01*
X94386495Y-99775276D02*
X94481733Y-99680038D01*
X94481733Y-99680038D02*
X94576971Y-99632419D01*
X94576971Y-99632419D02*
X94767447Y-99632419D01*
X94767447Y-99632419D02*
X94862685Y-99680038D01*
X94862685Y-99680038D02*
X94957923Y-99775276D01*
X94957923Y-99775276D02*
X95005542Y-99965752D01*
X95005542Y-99965752D02*
X95005542Y-100299085D01*
X95005542Y-100299085D02*
X94957923Y-100489561D01*
X94957923Y-100489561D02*
X94862685Y-100584800D01*
X94862685Y-100584800D02*
X94767447Y-100632419D01*
X94767447Y-100632419D02*
X94576971Y-100632419D01*
X95957923Y-100632419D02*
X95386495Y-100632419D01*
X95672209Y-100632419D02*
X95672209Y-99632419D01*
X95672209Y-99632419D02*
X95576971Y-99775276D01*
X95576971Y-99775276D02*
X95481733Y-99870514D01*
X95481733Y-99870514D02*
X95386495Y-99918133D01*
X90921219Y-103449199D02*
X91159314Y-103449199D01*
X91064076Y-103687294D02*
X91159314Y-103449199D01*
X91159314Y-103449199D02*
X91064076Y-103211104D01*
X91349790Y-103592056D02*
X91159314Y-103449199D01*
X91159314Y-103449199D02*
X91349790Y-103306342D01*
X93229133Y-40332819D02*
X92895800Y-39856628D01*
X92657705Y-40332819D02*
X92657705Y-39332819D01*
X92657705Y-39332819D02*
X93038657Y-39332819D01*
X93038657Y-39332819D02*
X93133895Y-39380438D01*
X93133895Y-39380438D02*
X93181514Y-39428057D01*
X93181514Y-39428057D02*
X93229133Y-39523295D01*
X93229133Y-39523295D02*
X93229133Y-39666152D01*
X93229133Y-39666152D02*
X93181514Y-39761390D01*
X93181514Y-39761390D02*
X93133895Y-39809009D01*
X93133895Y-39809009D02*
X93038657Y-39856628D01*
X93038657Y-39856628D02*
X92657705Y-39856628D01*
X94181514Y-40332819D02*
X93610086Y-40332819D01*
X93895800Y-40332819D02*
X93895800Y-39332819D01*
X93895800Y-39332819D02*
X93800562Y-39475676D01*
X93800562Y-39475676D02*
X93705324Y-39570914D01*
X93705324Y-39570914D02*
X93610086Y-39618533D01*
X104317895Y-102731219D02*
X104317895Y-103540742D01*
X104317895Y-103540742D02*
X104365514Y-103635980D01*
X104365514Y-103635980D02*
X104413133Y-103683600D01*
X104413133Y-103683600D02*
X104508371Y-103731219D01*
X104508371Y-103731219D02*
X104698847Y-103731219D01*
X104698847Y-103731219D02*
X104794085Y-103683600D01*
X104794085Y-103683600D02*
X104841704Y-103635980D01*
X104841704Y-103635980D02*
X104889323Y-103540742D01*
X104889323Y-103540742D02*
X104889323Y-102731219D01*
X105317895Y-102826457D02*
X105365514Y-102778838D01*
X105365514Y-102778838D02*
X105460752Y-102731219D01*
X105460752Y-102731219D02*
X105698847Y-102731219D01*
X105698847Y-102731219D02*
X105794085Y-102778838D01*
X105794085Y-102778838D02*
X105841704Y-102826457D01*
X105841704Y-102826457D02*
X105889323Y-102921695D01*
X105889323Y-102921695D02*
X105889323Y-103016933D01*
X105889323Y-103016933D02*
X105841704Y-103159790D01*
X105841704Y-103159790D02*
X105270276Y-103731219D01*
X105270276Y-103731219D02*
X105889323Y-103731219D01*
X102747233Y-63961180D02*
X102699614Y-64008800D01*
X102699614Y-64008800D02*
X102556757Y-64056419D01*
X102556757Y-64056419D02*
X102461519Y-64056419D01*
X102461519Y-64056419D02*
X102318662Y-64008800D01*
X102318662Y-64008800D02*
X102223424Y-63913561D01*
X102223424Y-63913561D02*
X102175805Y-63818323D01*
X102175805Y-63818323D02*
X102128186Y-63627847D01*
X102128186Y-63627847D02*
X102128186Y-63484990D01*
X102128186Y-63484990D02*
X102175805Y-63294514D01*
X102175805Y-63294514D02*
X102223424Y-63199276D01*
X102223424Y-63199276D02*
X102318662Y-63104038D01*
X102318662Y-63104038D02*
X102461519Y-63056419D01*
X102461519Y-63056419D02*
X102556757Y-63056419D01*
X102556757Y-63056419D02*
X102699614Y-63104038D01*
X102699614Y-63104038D02*
X102747233Y-63151657D01*
X103604376Y-63056419D02*
X103413900Y-63056419D01*
X103413900Y-63056419D02*
X103318662Y-63104038D01*
X103318662Y-63104038D02*
X103271043Y-63151657D01*
X103271043Y-63151657D02*
X103175805Y-63294514D01*
X103175805Y-63294514D02*
X103128186Y-63484990D01*
X103128186Y-63484990D02*
X103128186Y-63865942D01*
X103128186Y-63865942D02*
X103175805Y-63961180D01*
X103175805Y-63961180D02*
X103223424Y-64008800D01*
X103223424Y-64008800D02*
X103318662Y-64056419D01*
X103318662Y-64056419D02*
X103509138Y-64056419D01*
X103509138Y-64056419D02*
X103604376Y-64008800D01*
X103604376Y-64008800D02*
X103651995Y-63961180D01*
X103651995Y-63961180D02*
X103699614Y-63865942D01*
X103699614Y-63865942D02*
X103699614Y-63627847D01*
X103699614Y-63627847D02*
X103651995Y-63532609D01*
X103651995Y-63532609D02*
X103604376Y-63484990D01*
X103604376Y-63484990D02*
X103509138Y-63437371D01*
X103509138Y-63437371D02*
X103318662Y-63437371D01*
X103318662Y-63437371D02*
X103223424Y-63484990D01*
X103223424Y-63484990D02*
X103175805Y-63532609D01*
X103175805Y-63532609D02*
X103128186Y-63627847D01*
D12*
%TO.C,C12*%
X99134200Y-46677967D02*
X99134200Y-46385433D01*
X100154200Y-46677967D02*
X100154200Y-46385433D01*
%TO.C,U1*%
X87570000Y-41790000D02*
X87570000Y-123310000D01*
D10*
X87570000Y-123310000D02*
X90060000Y-123310000D01*
X90060000Y-41790000D02*
X87570000Y-41790000D01*
D12*
X90060000Y-41790000D02*
X90060000Y-123310000D01*
X110591600Y-123310000D02*
X110600000Y-41790000D01*
D10*
X110591600Y-123310000D02*
X113090000Y-123310000D01*
X113090000Y-41790000D02*
X110600000Y-41790000D01*
D12*
X113090000Y-123310000D02*
X113090000Y-41790000D01*
X101330000Y-41850000D02*
G75*
G02*
X99330000Y-41850000I-1000000J0D01*
G01*
D13*
%TO.C,U4*%
X92214700Y-87187576D02*
X92214700Y-90866424D01*
X97574100Y-90866424D02*
X97574100Y-87187576D01*
D14*
G36*
X93459899Y-93395800D02*
G01*
X93078899Y-93395800D01*
X93078899Y-93141800D01*
X93459899Y-93141800D01*
X93459899Y-93395800D01*
G37*
D13*
%TO.C,D3*%
X91020900Y-43459400D02*
X91020900Y-46405800D01*
X92976700Y-46405800D02*
X92976700Y-43459400D01*
%TO.C,D2*%
X91274900Y-106006900D02*
X91274900Y-108953300D01*
X93230700Y-108953300D02*
X93230700Y-106006900D01*
D12*
%TO.C,C13*%
X85773800Y-41649867D02*
X85773800Y-41357333D01*
X86793800Y-41649867D02*
X86793800Y-41357333D01*
D13*
%TO.C,L1*%
X96201849Y-108915200D02*
X97346151Y-108915200D01*
X97346151Y-105968800D02*
X96201849Y-105968800D01*
X99949000Y-107442000D02*
G75*
G02*
X99796600Y-107442000I-76200J0D01*
G01*
X99796600Y-107442000D02*
G75*
G02*
X99949000Y-107442000I76200J0D01*
G01*
D12*
%TO.C,C11*%
X91488800Y-49256733D02*
X91488800Y-49549267D01*
X92508800Y-49256733D02*
X92508800Y-49549267D01*
D15*
%TO.C,U7*%
X94390200Y-45389201D02*
X96565199Y-45389201D01*
X95815201Y-48489199D02*
X96590203Y-48489199D01*
D13*
%TO.C,U5*%
X102795876Y-122313700D02*
X106804924Y-122313700D01*
X106804924Y-116954300D02*
X102795876Y-116954300D01*
D14*
G36*
X109169200Y-121449501D02*
G01*
X108915200Y-121449501D01*
X108915200Y-121068501D01*
X109169200Y-121068501D01*
X109169200Y-121449501D01*
G37*
D12*
%TO.C,R4*%
X85888300Y-64667224D02*
X85888300Y-64157776D01*
X86933300Y-64667224D02*
X86933300Y-64157776D01*
D13*
%TO.C,U6*%
X96170200Y-63576200D02*
X96170200Y-68326000D01*
X101529600Y-68326000D02*
X101529600Y-63576200D01*
D14*
G36*
X98390401Y-70319900D02*
G01*
X98009401Y-70319900D01*
X98009401Y-70065900D01*
X98390401Y-70065900D01*
X98390401Y-70319900D01*
G37*
D13*
%TO.C,U8*%
X95118000Y-109866300D02*
X95118000Y-110217960D01*
X95118000Y-111366040D02*
X95118000Y-111656335D01*
X95118000Y-112927665D02*
X95118000Y-113217960D01*
X95118000Y-114366040D02*
X95118000Y-114717700D01*
X95118000Y-114717700D02*
X98166000Y-114717700D01*
X98166000Y-109866300D02*
X95118000Y-109866300D01*
X98166000Y-110217960D02*
X98166000Y-109866300D01*
X98166000Y-114717700D02*
X98166000Y-114366040D01*
X94569000Y-109692000D02*
G75*
G02*
X94315000Y-109692000I-127000J0D01*
G01*
X94315000Y-109692000D02*
G75*
G02*
X94569000Y-109692000I127000J0D01*
G01*
D12*
%TO.C,C9*%
X91742800Y-111866633D02*
X91742800Y-112159167D01*
X92762800Y-111866633D02*
X92762800Y-112159167D01*
D13*
%TO.C,D1*%
X98755200Y-40563800D02*
G75*
G02*
X98602800Y-40563800I-76200J0D01*
G01*
X98602800Y-40563800D02*
G75*
G02*
X98755200Y-40563800I76200J0D01*
G01*
D12*
%TO.C,R3*%
X85888300Y-110592776D02*
X85888300Y-111102224D01*
X86933300Y-110592776D02*
X86933300Y-111102224D01*
%TO.C,C4*%
X98448400Y-89097067D02*
X98448400Y-88804533D01*
X99468400Y-89097067D02*
X99468400Y-88804533D01*
D13*
%TO.C,U3*%
X92265500Y-75198776D02*
X92265500Y-78877624D01*
X97624900Y-78877624D02*
X97624900Y-75198776D01*
D14*
G36*
X93510699Y-81407000D02*
G01*
X93129699Y-81407000D01*
X93129699Y-81153000D01*
X93510699Y-81153000D01*
X93510699Y-81407000D01*
G37*
D12*
%TO.C,C8*%
X97632567Y-103884000D02*
X97340033Y-103884000D01*
X97632567Y-104904000D02*
X97340033Y-104904000D01*
%TO.C,C5*%
X104902267Y-115060000D02*
X104609733Y-115060000D01*
X104902267Y-116080000D02*
X104609733Y-116080000D01*
%TO.C,R5*%
X85888300Y-59792776D02*
X85888300Y-60302224D01*
X86933300Y-59792776D02*
X86933300Y-60302224D01*
%TO.C,C3*%
X98499200Y-77108267D02*
X98499200Y-76815733D01*
X99519200Y-77108267D02*
X99519200Y-76815733D01*
D13*
%TO.C,Q2*%
X91224100Y-61328300D02*
X91224100Y-62928500D01*
X93687900Y-62928500D02*
X93687900Y-61328300D01*
D12*
%TO.C,C1*%
X85773800Y-45002667D02*
X85773800Y-44710133D01*
X86793800Y-45002667D02*
X86793800Y-44710133D01*
%TO.C,R2*%
X85888300Y-105309124D02*
X85888300Y-104799676D01*
X86933300Y-105309124D02*
X86933300Y-104799676D01*
D13*
%TO.C,Q1*%
X91234500Y-100749100D02*
X91234500Y-102349300D01*
X93698300Y-102349300D02*
X93698300Y-100749100D01*
D12*
%TO.C,R1*%
X96370224Y-39355500D02*
X95860776Y-39355500D01*
X96370224Y-40400500D02*
X95860776Y-40400500D01*
D13*
%TO.C,U2*%
X103438000Y-105445800D02*
X103438000Y-107099800D01*
X103438000Y-107099800D02*
X104427060Y-107099800D01*
X105377061Y-105445800D02*
X104802939Y-105445800D01*
X105752940Y-107099800D02*
X106742000Y-107099800D01*
X106742000Y-107099800D02*
X106742000Y-105445800D01*
D12*
%TO.C,C6*%
X102403900Y-66097367D02*
X102403900Y-65804833D01*
X103423900Y-66097367D02*
X103423900Y-65804833D01*
%TD*%
M02*
