%TF.GenerationSoftware,KiCad,Pcbnew,8.0.8+dfsg-1*%
%TF.CreationDate,2025-05-23T17:59:01+09:00*%
%TF.ProjectId,bionic-tms9900,62696f6e-6963-42d7-946d-73393930302e,1*%
%TF.SameCoordinates,Original*%
%TF.FileFunction,Copper,L2,Inr*%
%TF.FilePolarity,Positive*%
%FSLAX46Y46*%
G04 Gerber Fmt 4.6, Leading zero omitted, Abs format (unit mm)*
G04 Created by KiCad (PCBNEW 8.0.8+dfsg-1) date 2025-05-23 17:59:01*
%MOMM*%
%LPD*%
G01*
G04 APERTURE LIST*
%TA.AperFunction,ComponentPad*%
%ADD10R,1.600000X1.600000*%
%TD*%
%TA.AperFunction,ComponentPad*%
%ADD11O,1.600000X1.600000*%
%TD*%
%TA.AperFunction,ComponentPad*%
%ADD12R,1.700000X1.700000*%
%TD*%
%TA.AperFunction,ComponentPad*%
%ADD13O,1.700000X1.700000*%
%TD*%
%TA.AperFunction,ViaPad*%
%ADD14C,0.600000*%
%TD*%
%TA.AperFunction,Conductor*%
%ADD15C,0.200000*%
%TD*%
%TA.AperFunction,Conductor*%
%ADD16C,0.300000*%
%TD*%
G04 APERTURE END LIST*
D10*
%TO.N,VBB*%
%TO.C,U1*%
X88900000Y-43180000D03*
D11*
%TO.N,VCC*%
X88900000Y-45720000D03*
%TO.N,unconnected-(U1-WAIT-Pad3)*%
X88900000Y-48260000D03*
%TO.N,/Q0*%
X88900000Y-50800000D03*
%TO.N,unconnected-(U1-HOLDA-Pad5)*%
X88900000Y-53340000D03*
%TO.N,/P53*%
X88900000Y-55880000D03*
%TO.N,/P43*%
X88900000Y-58420000D03*
%TO.N,Net-(Q2B-D2)*%
X88900000Y-60960000D03*
%TO.N,Net-(Q2A-D1)*%
X88900000Y-63500000D03*
%TO.N,/A1*%
X88900000Y-66040000D03*
%TO.N,/A2*%
X88900000Y-68580000D03*
%TO.N,/A3*%
X88900000Y-71120000D03*
%TO.N,/A4*%
X88900000Y-73660000D03*
%TO.N,/A5*%
X88900000Y-76200000D03*
%TO.N,/A6*%
X88900000Y-78740000D03*
%TO.N,/A7*%
X88900000Y-81280000D03*
%TO.N,/B0*%
X88900000Y-83820000D03*
%TO.N,/B1*%
X88900000Y-86360000D03*
%TO.N,/B2*%
X88900000Y-88900000D03*
%TO.N,/B3*%
X88900000Y-91440000D03*
%TO.N,/B4*%
X88900000Y-93980000D03*
%TO.N,/B5*%
X88900000Y-96520000D03*
%TO.N,/B6*%
X88900000Y-99060000D03*
%TO.N,/B7*%
X88900000Y-101600000D03*
%TO.N,Net-(Q1B-D2)*%
X88900000Y-104140000D03*
%TO.N,GND*%
X88900000Y-106680000D03*
%TO.N,VDD*%
X88900000Y-109220000D03*
%TO.N,Net-(Q1A-D1)*%
X88900000Y-111760000D03*
%TO.N,/P41*%
X88900000Y-114300000D03*
%TO.N,/A0*%
X88900000Y-116840000D03*
%TO.N,/P44*%
X88900000Y-119380000D03*
%TO.N,/Q1*%
X88900000Y-121920000D03*
%TO.N,/Q4*%
X111760000Y-121920000D03*
%TO.N,/Q5*%
X111760000Y-119380000D03*
%TO.N,/Q6*%
X111760000Y-116840000D03*
%TO.N,/Q7*%
X111760000Y-114300000D03*
%TO.N,unconnected-(U1-NC-Pad37)*%
X111760000Y-111760000D03*
%TO.N,unconnected-(U1-NC-Pad38)*%
X111760000Y-109220000D03*
%TO.N,unconnected-(U1-NC-Pad39)*%
X111760000Y-106680000D03*
%TO.N,GND*%
X111760000Y-104140000D03*
%TO.N,/P27*%
X111760000Y-101600000D03*
%TO.N,/P26*%
X111760000Y-99060000D03*
%TO.N,/P25*%
X111760000Y-96520000D03*
%TO.N,/P24*%
X111760000Y-93980000D03*
%TO.N,/P23*%
X111760000Y-91440000D03*
%TO.N,/P22*%
X111760000Y-88900000D03*
%TO.N,/P21*%
X111760000Y-86360000D03*
%TO.N,/P20*%
X111760000Y-83820000D03*
%TO.N,/P17*%
X111760000Y-81280000D03*
%TO.N,/P16*%
X111760000Y-78740000D03*
%TO.N,/P15*%
X111760000Y-76200000D03*
%TO.N,/P14*%
X111760000Y-73660000D03*
%TO.N,/P13*%
X111760000Y-71120000D03*
%TO.N,/P12*%
X111760000Y-68580000D03*
%TO.N,/P11*%
X111760000Y-66040000D03*
%TO.N,/P10*%
X111760000Y-63500000D03*
%TO.N,unconnected-(U1-NC-Pad57)*%
X111760000Y-60960000D03*
%TO.N,unconnected-(U1-NC-Pad58)*%
X111760000Y-58420000D03*
%TO.N,VCC*%
X111760000Y-55880000D03*
%TO.N,/P45*%
X111760000Y-53340000D03*
%TO.N,/P42*%
X111760000Y-50800000D03*
%TO.N,/P54*%
X111760000Y-48260000D03*
%TO.N,/P40*%
X111760000Y-45720000D03*
%TO.N,/Q3*%
X111760000Y-43180000D03*
%TD*%
D12*
%TO.N,GND*%
%TO.C,J1*%
X96520000Y-43180000D03*
D13*
%TO.N,VCC*%
X96520000Y-101600000D03*
%TD*%
%TO.N,VCC*%
%TO.C,J2*%
X104140000Y-101600000D03*
D12*
%TO.N,GND*%
X104140000Y-43180000D03*
%TD*%
D14*
%TO.N,/P55*%
X103809800Y-93967400D03*
%TO.N,VCC*%
X101219000Y-39878000D03*
X102920800Y-66802000D03*
X98592000Y-110792000D03*
X98602800Y-113792000D03*
X92456000Y-62103000D03*
X97549900Y-69977000D03*
X98958400Y-89814400D03*
X91998800Y-48514000D03*
X105613000Y-115570000D03*
X104139999Y-105206800D03*
X99009200Y-77774800D03*
X92466400Y-101422200D03*
X86283800Y-45718900D03*
%TO.N,GND*%
X100380800Y-65659000D03*
X91440000Y-85217000D03*
X99009200Y-74968200D03*
X86283800Y-43993900D03*
X105090000Y-107338800D03*
X102913900Y-65088600D03*
X98755200Y-85090000D03*
X103886000Y-114427000D03*
X98831400Y-80022800D03*
X103886000Y-115570000D03*
X91948000Y-46736000D03*
X96647000Y-104381400D03*
X101727000Y-122910600D03*
X91948000Y-50292000D03*
X92252800Y-112875400D03*
X86283800Y-40641100D03*
X92456000Y-66802000D03*
X102946200Y-80759400D03*
X97536000Y-112344200D03*
X98958400Y-88088300D03*
%TO.N,VDD*%
X86410800Y-65325000D03*
X86410800Y-105981600D03*
X86410800Y-59135000D03*
X92252800Y-110236000D03*
%TO.N,Net-(U8-IN-)*%
X95504000Y-113792000D03*
%TO.N,/P31*%
X93320200Y-72263000D03*
%TO.N,/P51*%
X99593400Y-100596800D03*
%TO.N,/P15*%
X95275400Y-58420000D03*
%TO.N,/P30*%
X95275400Y-68580000D03*
%TO.N,/P14*%
X97764600Y-55880000D03*
%TO.N,/P52*%
X100330000Y-118313200D03*
%TO.N,/P10*%
X97764600Y-49187200D03*
%TO.N,/P50*%
X100052382Y-86056644D03*
X97248003Y-74066400D03*
X100613735Y-93470135D03*
%TO.N,/P53*%
X87299800Y-97599600D03*
X87172800Y-67373600D03*
%TO.N,/P33*%
X95320200Y-77078362D03*
%TO.N,/P16*%
X97764600Y-60960000D03*
%TO.N,/P32*%
X92956100Y-76892500D03*
%TO.N,/P36*%
X92749315Y-89614786D03*
%TO.N,/P34*%
X95275400Y-82054800D03*
%TO.N,/P17*%
X95275400Y-63500000D03*
%TO.N,/P35*%
X93268800Y-83782000D03*
%TO.N,/P11*%
X95275400Y-49619000D03*
%TO.N,/P37*%
X94569550Y-89547800D03*
%TO.N,/P44*%
X105008800Y-98119000D03*
X105008800Y-79756000D03*
%TO.N,/P47*%
X100786100Y-85001200D03*
%TO.N,/P20*%
X109982000Y-56134000D03*
%TO.N,Net-(J2-P57)*%
X106040001Y-105206800D03*
%TO.N,/P26*%
X106873700Y-62921100D03*
%TO.N,/P41*%
X108134100Y-92146300D03*
X108134100Y-71482400D03*
%TO.N,/P22*%
X105384600Y-50800000D03*
X106322200Y-88214200D03*
%TO.N,/P54*%
X108734100Y-90640000D03*
%TO.N,/P46*%
X102895400Y-83820000D03*
%TO.N,/P25*%
X106227900Y-59645100D03*
%TO.N,/P24*%
X113490700Y-57324300D03*
%TO.N,/P40*%
X108132400Y-67945000D03*
%TO.N,/P42*%
X114274050Y-70713050D03*
%TO.N,/P21*%
X102895400Y-48260000D03*
%TO.N,/P45*%
X109334100Y-79340000D03*
%TO.N,/P23*%
X104408800Y-89141400D03*
X102895400Y-53340000D03*
%TO.N,/P27*%
X105725600Y-65767200D03*
%TO.N,Net-(Q1B-S2)*%
X101586100Y-92519600D03*
X91788598Y-102717600D03*
%TO.N,Net-(Q1A-D1)*%
X93116400Y-103683000D03*
%TO.N,Net-(Q2A-D1)*%
X93133802Y-63296800D03*
%TO.N,/A7*%
X95580200Y-90449400D03*
%TO.N,/A3*%
X95920200Y-77698600D03*
%TO.N,/A0*%
X97029513Y-78210215D03*
%TO.N,/B2*%
X92469200Y-84112200D03*
%TO.N,/A4*%
X96519400Y-84820002D03*
%TO.N,/B3*%
X94183200Y-82140600D03*
%TO.N,/A2*%
X93253000Y-77978000D03*
%TO.N,/B5*%
X93969550Y-87766600D03*
%TO.N,/A5*%
X93069200Y-82644436D03*
%TO.N,/B4*%
X93369550Y-88366600D03*
%TO.N,/Q0*%
X102154400Y-70565600D03*
%TO.N,/B0*%
X93853000Y-77292200D03*
%TD*%
D15*
%TO.N,/P53*%
X87172800Y-67373600D02*
X87172800Y-57607200D01*
X87172800Y-57607200D02*
X88900000Y-55880000D01*
%TO.N,/P15*%
X96304000Y-58420000D02*
X98729800Y-60845800D01*
X98729800Y-67989529D02*
X106940271Y-76200000D01*
X98729800Y-60845800D02*
X98729800Y-67989529D01*
X95275400Y-58420000D02*
X96304000Y-58420000D01*
X106940271Y-76200000D02*
X111760000Y-76200000D01*
%TO.N,/P14*%
X97764600Y-55880000D02*
X97777200Y-55880000D01*
X109677200Y-71575100D02*
X111760000Y-73657900D01*
X111760000Y-73657900D02*
X111760000Y-73660000D01*
X97777200Y-55880000D02*
X109677200Y-67780000D01*
X109677200Y-67780000D02*
X109677200Y-71575100D01*
%TO.N,/P10*%
X111760000Y-63487400D02*
X111760000Y-63500000D01*
X97764600Y-49492000D02*
X111760000Y-63487400D01*
X97764600Y-49187200D02*
X97764600Y-49492000D01*
%TO.N,/P50*%
X100052382Y-86056644D02*
X100052382Y-80384555D01*
X97248003Y-77580176D02*
X97248003Y-74066400D01*
X100052382Y-80384555D02*
X97248003Y-77580176D01*
%TO.N,/P16*%
X97764600Y-60960000D02*
X97764600Y-67967900D01*
X97764600Y-67967900D02*
X108536700Y-78740000D01*
X108536700Y-78740000D02*
X111760000Y-78740000D01*
%TO.N,/P17*%
X110170000Y-81280000D02*
X111760000Y-81280000D01*
X95275400Y-66385400D02*
X110170000Y-81280000D01*
X95275400Y-63500000D02*
X95275400Y-66385400D01*
%TO.N,/P11*%
X95339000Y-49619000D02*
X111760000Y-66040000D01*
X95275400Y-49619000D02*
X95339000Y-49619000D01*
%TO.N,/P44*%
X101346000Y-101781800D02*
X105008800Y-98119000D01*
X88900000Y-119380000D02*
X101346000Y-106934000D01*
X101346000Y-106934000D02*
X101346000Y-101781800D01*
%TO.N,/P41*%
X108134100Y-92146300D02*
X100888800Y-99391600D01*
X100888800Y-106642000D02*
X93230800Y-114300000D01*
X100888800Y-99391600D02*
X100888800Y-106642000D01*
X93230800Y-114300000D02*
X88900000Y-114300000D01*
%TO.N,/P22*%
X107122800Y-89014800D02*
X111645200Y-89014800D01*
X106322200Y-88214200D02*
X107122800Y-89014800D01*
X111645200Y-89014800D02*
X111760000Y-88900000D01*
%TO.N,/P21*%
X111150400Y-59753600D02*
X112445800Y-59753600D01*
X102895400Y-51498600D02*
X111150400Y-59753600D01*
X112445800Y-59753600D02*
X113639600Y-60947400D01*
X113639600Y-84480400D02*
X111760000Y-86360000D01*
X102895400Y-48260000D02*
X102895400Y-51498600D01*
X113639600Y-60947400D02*
X113639600Y-84480400D01*
%TO.N,/P23*%
X104408800Y-89177400D02*
X106671400Y-91440000D01*
X106671400Y-91440000D02*
X111760000Y-91440000D01*
X104408800Y-89141400D02*
X104408800Y-89177400D01*
%TO.N,Net-(Q1B-S2)*%
X101586100Y-93346300D02*
X92214800Y-102717600D01*
X101586100Y-92519600D02*
X101586100Y-93346300D01*
X92214800Y-102717600D02*
X91788598Y-102717600D01*
D16*
%TO.N,Net-(Q2A-D1)*%
X92930602Y-63500000D02*
X88900000Y-63500000D01*
X93133802Y-63296800D02*
X92930602Y-63500000D01*
D15*
%TO.N,/A3*%
X93025729Y-71120000D02*
X95920200Y-74014471D01*
X88900000Y-71120000D02*
X93025729Y-71120000D01*
X95920200Y-74014471D02*
X95920200Y-77698600D01*
%TO.N,/A0*%
X97029513Y-78210215D02*
X98018600Y-79199302D01*
X87172800Y-103962200D02*
X87172800Y-115112800D01*
X98018600Y-79199302D02*
X98018600Y-94259400D01*
X87172800Y-115112800D02*
X88900000Y-116840000D01*
X98018600Y-94259400D02*
X89407900Y-102870100D01*
X89407900Y-102870100D02*
X88264900Y-102870100D01*
X88264900Y-102870100D02*
X87172800Y-103962200D01*
%TO.N,/B2*%
X92469200Y-85330800D02*
X88900000Y-88900000D01*
X92469200Y-84112200D02*
X92469200Y-85330800D01*
%TO.N,/A4*%
X96519400Y-82117600D02*
X94589600Y-80187800D01*
X94589600Y-80187800D02*
X94589600Y-76962000D01*
X91287600Y-73660000D02*
X88900000Y-73660000D01*
X96519400Y-84820002D02*
X96519400Y-82117600D01*
X94589600Y-76962000D02*
X91287600Y-73660000D01*
%TO.N,/B3*%
X93929200Y-86410800D02*
X88900000Y-91440000D01*
X94183200Y-82140600D02*
X93929200Y-82394600D01*
X93929200Y-82394600D02*
X93929200Y-86410800D01*
%TO.N,/B5*%
X93969550Y-91450450D02*
X88900000Y-96520000D01*
X93969550Y-87766600D02*
X93969550Y-91450450D01*
%TO.N,/B4*%
X90982800Y-89979600D02*
X90982800Y-91897200D01*
X93369550Y-88366600D02*
X92595800Y-88366600D01*
X92595800Y-88366600D02*
X90982800Y-89979600D01*
X90982800Y-91897200D02*
X88900000Y-93980000D01*
%TO.N,/Q0*%
X89649200Y-50800000D02*
X88900000Y-50800000D01*
X102158800Y-70561200D02*
X102158800Y-63309600D01*
X102154400Y-70565600D02*
X102158800Y-70561200D01*
X102158800Y-63309600D02*
X89649200Y-50800000D01*
%TO.N,/B0*%
X93853000Y-78867000D02*
X88900000Y-83820000D01*
X93853000Y-77292200D02*
X93853000Y-78867000D01*
%TD*%
%TA.AperFunction,Conductor*%
%TO.N,GND*%
G36*
X99299304Y-61016497D02*
G01*
X101729304Y-63446497D01*
X101757081Y-63501014D01*
X101758300Y-63516501D01*
X101758300Y-70064129D01*
X101739393Y-70122320D01*
X101729304Y-70134133D01*
X101726117Y-70137319D01*
X101672344Y-70207398D01*
X101621919Y-70242053D01*
X101560755Y-70240451D01*
X101523798Y-70217134D01*
X99159296Y-67852632D01*
X99131519Y-67798115D01*
X99130300Y-67782628D01*
X99130300Y-61086501D01*
X99149207Y-61028310D01*
X99198707Y-60992346D01*
X99259893Y-60992346D01*
X99299304Y-61016497D01*
G37*
%TD.AperFunction*%
%TA.AperFunction,Conductor*%
G36*
X114304309Y-38200877D02*
G01*
X114494457Y-38217512D01*
X114511437Y-38220505D01*
X114691635Y-38268789D01*
X114707839Y-38274687D01*
X114876902Y-38353523D01*
X114891842Y-38362149D01*
X115044641Y-38469140D01*
X115057861Y-38480232D01*
X115189767Y-38612138D01*
X115200859Y-38625358D01*
X115307850Y-38778157D01*
X115316478Y-38793101D01*
X115395308Y-38962151D01*
X115401211Y-38978368D01*
X115449492Y-39158555D01*
X115452488Y-39175550D01*
X115469123Y-39365690D01*
X115469500Y-39374318D01*
X115469500Y-125725681D01*
X115469123Y-125734309D01*
X115452488Y-125924449D01*
X115449492Y-125941444D01*
X115401211Y-126121631D01*
X115395308Y-126137848D01*
X115316478Y-126306898D01*
X115307850Y-126321842D01*
X115200859Y-126474641D01*
X115189767Y-126487861D01*
X115057861Y-126619767D01*
X115044641Y-126630859D01*
X114891842Y-126737850D01*
X114876898Y-126746478D01*
X114707848Y-126825308D01*
X114691631Y-126831211D01*
X114511444Y-126879492D01*
X114494449Y-126882488D01*
X114304309Y-126899123D01*
X114295681Y-126899500D01*
X86364319Y-126899500D01*
X86355691Y-126899123D01*
X86165550Y-126882488D01*
X86148555Y-126879492D01*
X85968368Y-126831211D01*
X85952154Y-126825309D01*
X85783100Y-126746477D01*
X85768157Y-126737850D01*
X85615358Y-126630859D01*
X85602138Y-126619767D01*
X85470232Y-126487861D01*
X85459140Y-126474641D01*
X85352149Y-126321842D01*
X85343523Y-126306902D01*
X85264687Y-126137839D01*
X85258788Y-126121631D01*
X85239843Y-126050926D01*
X85210505Y-125941437D01*
X85207512Y-125924457D01*
X85190877Y-125734309D01*
X85190500Y-125725681D01*
X85190500Y-121920000D01*
X87794785Y-121920000D01*
X87813603Y-122123083D01*
X87869418Y-122319250D01*
X87960327Y-122501821D01*
X88083236Y-122664579D01*
X88233959Y-122801981D01*
X88407363Y-122909348D01*
X88597544Y-122983024D01*
X88798024Y-123020500D01*
X89001976Y-123020500D01*
X89202456Y-122983024D01*
X89392637Y-122909348D01*
X89566041Y-122801981D01*
X89716764Y-122664579D01*
X89839673Y-122501821D01*
X89930582Y-122319250D01*
X89986397Y-122123083D01*
X90005215Y-121920000D01*
X110654785Y-121920000D01*
X110673603Y-122123083D01*
X110729418Y-122319250D01*
X110820327Y-122501821D01*
X110943236Y-122664579D01*
X111093959Y-122801981D01*
X111267363Y-122909348D01*
X111457544Y-122983024D01*
X111658024Y-123020500D01*
X111861976Y-123020500D01*
X112062456Y-122983024D01*
X112252637Y-122909348D01*
X112426041Y-122801981D01*
X112576764Y-122664579D01*
X112699673Y-122501821D01*
X112790582Y-122319250D01*
X112846397Y-122123083D01*
X112865215Y-121920000D01*
X112846397Y-121716917D01*
X112790582Y-121520750D01*
X112699673Y-121338179D01*
X112576764Y-121175421D01*
X112426041Y-121038019D01*
X112252637Y-120930652D01*
X112062456Y-120856976D01*
X112062455Y-120856975D01*
X112062453Y-120856975D01*
X111861976Y-120819500D01*
X111658024Y-120819500D01*
X111457546Y-120856975D01*
X111387632Y-120884059D01*
X111267363Y-120930652D01*
X111093959Y-121038019D01*
X110943237Y-121175420D01*
X110820328Y-121338177D01*
X110820323Y-121338186D01*
X110729419Y-121520747D01*
X110729418Y-121520750D01*
X110673603Y-121716917D01*
X110654785Y-121920000D01*
X90005215Y-121920000D01*
X89986397Y-121716917D01*
X89930582Y-121520750D01*
X89839673Y-121338179D01*
X89716764Y-121175421D01*
X89566041Y-121038019D01*
X89392637Y-120930652D01*
X89202456Y-120856976D01*
X89202455Y-120856975D01*
X89202453Y-120856975D01*
X89001976Y-120819500D01*
X88798024Y-120819500D01*
X88597546Y-120856975D01*
X88527632Y-120884059D01*
X88407363Y-120930652D01*
X88233959Y-121038019D01*
X88083237Y-121175420D01*
X87960328Y-121338177D01*
X87960323Y-121338186D01*
X87869419Y-121520747D01*
X87869418Y-121520750D01*
X87813603Y-121716917D01*
X87794785Y-121920000D01*
X85190500Y-121920000D01*
X85190500Y-105981599D01*
X85805118Y-105981599D01*
X85805118Y-105981600D01*
X85825755Y-106138358D01*
X85825757Y-106138366D01*
X85886262Y-106284438D01*
X85886262Y-106284439D01*
X85982513Y-106409876D01*
X85982518Y-106409882D01*
X86107959Y-106506136D01*
X86107960Y-106506136D01*
X86107961Y-106506137D01*
X86186184Y-106538538D01*
X86254038Y-106566644D01*
X86371609Y-106582122D01*
X86410799Y-106587282D01*
X86410800Y-106587282D01*
X86410801Y-106587282D01*
X86442152Y-106583154D01*
X86567562Y-106566644D01*
X86635416Y-106538537D01*
X86696410Y-106533737D01*
X86748580Y-106565706D01*
X86771995Y-106622234D01*
X86772300Y-106630002D01*
X86772300Y-115060073D01*
X86772300Y-115165527D01*
X86776709Y-115181981D01*
X86799594Y-115267392D01*
X86852316Y-115358708D01*
X86852317Y-115358709D01*
X86852318Y-115358710D01*
X86852320Y-115358713D01*
X87366445Y-115872838D01*
X87842663Y-116349056D01*
X87870440Y-116403573D01*
X87867880Y-116446152D01*
X87813603Y-116636915D01*
X87813603Y-116636917D01*
X87794785Y-116840000D01*
X87813603Y-117043083D01*
X87869418Y-117239250D01*
X87960327Y-117421821D01*
X88083236Y-117584579D01*
X88233959Y-117721981D01*
X88407363Y-117829348D01*
X88597544Y-117903024D01*
X88798024Y-117940500D01*
X89001976Y-117940500D01*
X89202456Y-117903024D01*
X89392637Y-117829348D01*
X89566041Y-117721981D01*
X89716764Y-117584579D01*
X89839673Y-117421821D01*
X89930582Y-117239250D01*
X89986397Y-117043083D01*
X90005215Y-116840000D01*
X89986397Y-116636917D01*
X89930582Y-116440750D01*
X89839673Y-116258179D01*
X89716764Y-116095421D01*
X89566041Y-115958019D01*
X89392637Y-115850652D01*
X89202456Y-115776976D01*
X89202455Y-115776975D01*
X89202453Y-115776975D01*
X89001976Y-115739500D01*
X88798024Y-115739500D01*
X88597544Y-115776975D01*
X88517739Y-115807892D01*
X88456648Y-115811282D01*
X88411973Y-115785581D01*
X87602296Y-114975903D01*
X87574519Y-114921386D01*
X87573300Y-114905899D01*
X87573300Y-114300000D01*
X87794785Y-114300000D01*
X87813603Y-114503083D01*
X87869418Y-114699250D01*
X87960327Y-114881821D01*
X88083236Y-115044579D01*
X88233959Y-115181981D01*
X88407363Y-115289348D01*
X88597544Y-115363024D01*
X88798024Y-115400500D01*
X89001976Y-115400500D01*
X89202456Y-115363024D01*
X89392637Y-115289348D01*
X89566041Y-115181981D01*
X89716764Y-115044579D01*
X89839673Y-114881821D01*
X89902637Y-114755371D01*
X89945500Y-114711709D01*
X89991258Y-114700500D01*
X92774099Y-114700500D01*
X92832290Y-114719407D01*
X92868254Y-114768907D01*
X92868254Y-114830093D01*
X92844103Y-114869504D01*
X89388025Y-118325580D01*
X89333508Y-118353357D01*
X89282259Y-118347891D01*
X89202460Y-118316977D01*
X89202447Y-118316974D01*
X89001976Y-118279500D01*
X88798024Y-118279500D01*
X88597546Y-118316975D01*
X88597541Y-118316977D01*
X88407363Y-118390652D01*
X88233959Y-118498019D01*
X88083237Y-118635420D01*
X87960328Y-118798177D01*
X87960323Y-118798186D01*
X87900224Y-118918882D01*
X87869418Y-118980750D01*
X87813603Y-119176917D01*
X87794785Y-119380000D01*
X87813603Y-119583083D01*
X87869418Y-119779250D01*
X87960327Y-119961821D01*
X88083236Y-120124579D01*
X88233959Y-120261981D01*
X88407363Y-120369348D01*
X88597544Y-120443024D01*
X88798024Y-120480500D01*
X89001976Y-120480500D01*
X89202456Y-120443024D01*
X89392637Y-120369348D01*
X89566041Y-120261981D01*
X89716764Y-120124579D01*
X89839673Y-119961821D01*
X89930582Y-119779250D01*
X89986397Y-119583083D01*
X90005215Y-119380000D01*
X110654785Y-119380000D01*
X110673603Y-119583083D01*
X110729418Y-119779250D01*
X110820327Y-119961821D01*
X110943236Y-120124579D01*
X111093959Y-120261981D01*
X111267363Y-120369348D01*
X111457544Y-120443024D01*
X111658024Y-120480500D01*
X111861976Y-120480500D01*
X112062456Y-120443024D01*
X112252637Y-120369348D01*
X112426041Y-120261981D01*
X112576764Y-120124579D01*
X112699673Y-119961821D01*
X112790582Y-119779250D01*
X112846397Y-119583083D01*
X112865215Y-119380000D01*
X112846397Y-119176917D01*
X112790582Y-118980750D01*
X112699673Y-118798179D01*
X112576764Y-118635421D01*
X112426041Y-118498019D01*
X112252637Y-118390652D01*
X112062456Y-118316976D01*
X112062455Y-118316975D01*
X112062453Y-118316975D01*
X111861976Y-118279500D01*
X111658024Y-118279500D01*
X111457546Y-118316975D01*
X111457541Y-118316977D01*
X111267363Y-118390652D01*
X111093959Y-118498019D01*
X110943237Y-118635420D01*
X110820328Y-118798177D01*
X110820323Y-118798186D01*
X110760224Y-118918882D01*
X110729418Y-118980750D01*
X110673603Y-119176917D01*
X110654785Y-119380000D01*
X90005215Y-119380000D01*
X89986397Y-119176917D01*
X89932118Y-118986148D01*
X89934379Y-118925010D01*
X89957333Y-118889058D01*
X90533192Y-118313199D01*
X99724318Y-118313199D01*
X99724318Y-118313200D01*
X99744955Y-118469958D01*
X99744957Y-118469966D01*
X99805462Y-118616038D01*
X99805462Y-118616039D01*
X99901713Y-118741476D01*
X99901718Y-118741482D01*
X100027159Y-118837736D01*
X100173238Y-118898244D01*
X100290809Y-118913722D01*
X100329999Y-118918882D01*
X100330000Y-118918882D01*
X100330001Y-118918882D01*
X100361352Y-118914754D01*
X100486762Y-118898244D01*
X100632841Y-118837736D01*
X100758282Y-118741482D01*
X100854536Y-118616041D01*
X100915044Y-118469962D01*
X100935682Y-118313200D01*
X100915044Y-118156438D01*
X100854537Y-118010361D01*
X100854537Y-118010360D01*
X100758286Y-117884923D01*
X100758285Y-117884922D01*
X100758282Y-117884918D01*
X100758277Y-117884914D01*
X100758276Y-117884913D01*
X100632838Y-117788662D01*
X100486766Y-117728157D01*
X100486758Y-117728155D01*
X100330001Y-117707518D01*
X100329999Y-117707518D01*
X100173241Y-117728155D01*
X100173233Y-117728157D01*
X100027161Y-117788662D01*
X100027160Y-117788662D01*
X99901723Y-117884913D01*
X99901713Y-117884923D01*
X99805462Y-118010360D01*
X99805462Y-118010361D01*
X99744957Y-118156433D01*
X99744955Y-118156441D01*
X99724318Y-118313199D01*
X90533192Y-118313199D01*
X92006391Y-116840000D01*
X110654785Y-116840000D01*
X110673603Y-117043083D01*
X110729418Y-117239250D01*
X110820327Y-117421821D01*
X110943236Y-117584579D01*
X111093959Y-117721981D01*
X111267363Y-117829348D01*
X111457544Y-117903024D01*
X111658024Y-117940500D01*
X111861976Y-117940500D01*
X112062456Y-117903024D01*
X112252637Y-117829348D01*
X112426041Y-117721981D01*
X112576764Y-117584579D01*
X112699673Y-117421821D01*
X112790582Y-117239250D01*
X112846397Y-117043083D01*
X112865215Y-116840000D01*
X112846397Y-116636917D01*
X112790582Y-116440750D01*
X112699673Y-116258179D01*
X112576764Y-116095421D01*
X112426041Y-115958019D01*
X112252637Y-115850652D01*
X112062456Y-115776976D01*
X112062455Y-115776975D01*
X112062453Y-115776975D01*
X111861976Y-115739500D01*
X111658024Y-115739500D01*
X111457546Y-115776975D01*
X111387632Y-115804059D01*
X111267363Y-115850652D01*
X111093959Y-115958019D01*
X110943237Y-116095420D01*
X110820328Y-116258177D01*
X110820323Y-116258186D01*
X110729419Y-116440747D01*
X110729418Y-116440750D01*
X110673603Y-116636917D01*
X110654785Y-116840000D01*
X92006391Y-116840000D01*
X93276392Y-115569999D01*
X105007318Y-115569999D01*
X105007318Y-115570000D01*
X105027955Y-115726758D01*
X105027957Y-115726766D01*
X105088462Y-115872838D01*
X105088462Y-115872839D01*
X105088464Y-115872841D01*
X105184718Y-115998282D01*
X105310159Y-116094536D01*
X105310160Y-116094536D01*
X105310161Y-116094537D01*
X105456233Y-116155042D01*
X105456238Y-116155044D01*
X105573809Y-116170522D01*
X105612999Y-116175682D01*
X105613000Y-116175682D01*
X105613001Y-116175682D01*
X105644352Y-116171554D01*
X105769762Y-116155044D01*
X105915841Y-116094536D01*
X106041282Y-115998282D01*
X106137536Y-115872841D01*
X106198044Y-115726762D01*
X106218682Y-115570000D01*
X106198044Y-115413238D01*
X106137537Y-115267161D01*
X106137537Y-115267160D01*
X106041286Y-115141723D01*
X106041285Y-115141722D01*
X106041282Y-115141718D01*
X106041277Y-115141714D01*
X106041276Y-115141713D01*
X105915838Y-115045462D01*
X105769766Y-114984957D01*
X105769758Y-114984955D01*
X105613001Y-114964318D01*
X105612999Y-114964318D01*
X105456241Y-114984955D01*
X105456233Y-114984957D01*
X105310161Y-115045462D01*
X105310160Y-115045462D01*
X105184723Y-115141713D01*
X105184713Y-115141723D01*
X105088462Y-115267160D01*
X105088462Y-115267161D01*
X105027957Y-115413233D01*
X105027955Y-115413241D01*
X105007318Y-115569999D01*
X93276392Y-115569999D01*
X94807943Y-114038448D01*
X94862458Y-114010673D01*
X94922890Y-114020244D01*
X94966155Y-114063509D01*
X94969408Y-114070567D01*
X94979461Y-114094836D01*
X94979462Y-114094839D01*
X94979464Y-114094841D01*
X95075718Y-114220282D01*
X95201159Y-114316536D01*
X95347238Y-114377044D01*
X95464809Y-114392522D01*
X95503999Y-114397682D01*
X95504000Y-114397682D01*
X95504001Y-114397682D01*
X95535352Y-114393554D01*
X95660762Y-114377044D01*
X95806841Y-114316536D01*
X95932282Y-114220282D01*
X96028536Y-114094841D01*
X96089044Y-113948762D01*
X96109682Y-113792000D01*
X96109682Y-113791999D01*
X97997118Y-113791999D01*
X97997118Y-113792000D01*
X98017755Y-113948758D01*
X98017757Y-113948766D01*
X98078262Y-114094838D01*
X98078262Y-114094839D01*
X98078264Y-114094841D01*
X98174518Y-114220282D01*
X98299959Y-114316536D01*
X98446038Y-114377044D01*
X98563609Y-114392522D01*
X98602799Y-114397682D01*
X98602800Y-114397682D01*
X98602801Y-114397682D01*
X98634152Y-114393554D01*
X98759562Y-114377044D01*
X98905641Y-114316536D01*
X98927191Y-114300000D01*
X110654785Y-114300000D01*
X110673603Y-114503083D01*
X110729418Y-114699250D01*
X110820327Y-114881821D01*
X110943236Y-115044579D01*
X111093959Y-115181981D01*
X111267363Y-115289348D01*
X111457544Y-115363024D01*
X111658024Y-115400500D01*
X111861976Y-115400500D01*
X112062456Y-115363024D01*
X112252637Y-115289348D01*
X112426041Y-115181981D01*
X112576764Y-115044579D01*
X112699673Y-114881821D01*
X112790582Y-114699250D01*
X112846397Y-114503083D01*
X112865215Y-114300000D01*
X112846397Y-114096917D01*
X112790582Y-113900750D01*
X112699673Y-113718179D01*
X112576764Y-113555421D01*
X112426041Y-113418019D01*
X112252637Y-113310652D01*
X112062456Y-113236976D01*
X112062455Y-113236975D01*
X112062453Y-113236975D01*
X111861976Y-113199500D01*
X111658024Y-113199500D01*
X111457546Y-113236975D01*
X111387632Y-113264059D01*
X111267363Y-113310652D01*
X111093959Y-113418019D01*
X110943237Y-113555420D01*
X110820328Y-113718177D01*
X110820323Y-113718186D01*
X110730647Y-113898281D01*
X110729418Y-113900750D01*
X110673603Y-114096917D01*
X110654785Y-114300000D01*
X98927191Y-114300000D01*
X99031082Y-114220282D01*
X99127336Y-114094841D01*
X99187844Y-113948762D01*
X99208482Y-113792000D01*
X99187844Y-113635238D01*
X99127337Y-113489161D01*
X99127337Y-113489160D01*
X99031086Y-113363723D01*
X99031085Y-113363722D01*
X99031082Y-113363718D01*
X99031077Y-113363714D01*
X99031076Y-113363713D01*
X98905638Y-113267462D01*
X98759566Y-113206957D01*
X98759558Y-113206955D01*
X98602801Y-113186318D01*
X98602799Y-113186318D01*
X98446041Y-113206955D01*
X98446033Y-113206957D01*
X98299961Y-113267462D01*
X98299960Y-113267462D01*
X98174523Y-113363713D01*
X98174513Y-113363723D01*
X98078262Y-113489160D01*
X98078262Y-113489161D01*
X98017757Y-113635233D01*
X98017755Y-113635241D01*
X97997118Y-113791999D01*
X96109682Y-113791999D01*
X96089044Y-113635238D01*
X96028537Y-113489161D01*
X96028537Y-113489160D01*
X95932286Y-113363723D01*
X95932285Y-113363722D01*
X95932282Y-113363718D01*
X95932277Y-113363714D01*
X95932276Y-113363713D01*
X95806839Y-113267462D01*
X95806836Y-113267461D01*
X95782567Y-113257408D01*
X95736042Y-113217671D01*
X95721759Y-113158176D01*
X95745175Y-113101648D01*
X95750437Y-113095954D01*
X97086391Y-111760000D01*
X110654785Y-111760000D01*
X110673603Y-111963083D01*
X110729418Y-112159250D01*
X110820327Y-112341821D01*
X110943236Y-112504579D01*
X111093959Y-112641981D01*
X111267363Y-112749348D01*
X111457544Y-112823024D01*
X111658024Y-112860500D01*
X111861976Y-112860500D01*
X112062456Y-112823024D01*
X112252637Y-112749348D01*
X112426041Y-112641981D01*
X112576764Y-112504579D01*
X112699673Y-112341821D01*
X112790582Y-112159250D01*
X112846397Y-111963083D01*
X112865215Y-111760000D01*
X112846397Y-111556917D01*
X112790582Y-111360750D01*
X112699673Y-111178179D01*
X112576764Y-111015421D01*
X112426041Y-110878019D01*
X112252637Y-110770652D01*
X112062456Y-110696976D01*
X112062455Y-110696975D01*
X112062453Y-110696975D01*
X111861976Y-110659500D01*
X111658024Y-110659500D01*
X111457546Y-110696975D01*
X111387632Y-110724059D01*
X111267363Y-110770652D01*
X111135731Y-110852155D01*
X111093959Y-110878019D01*
X110943237Y-111015420D01*
X110820328Y-111178177D01*
X110820323Y-111178186D01*
X110751433Y-111316537D01*
X110729418Y-111360750D01*
X110673603Y-111556917D01*
X110654785Y-111760000D01*
X97086391Y-111760000D01*
X97870169Y-110976222D01*
X97924684Y-110948447D01*
X97985116Y-110958018D01*
X98028381Y-111001283D01*
X98031635Y-111008343D01*
X98067462Y-111094838D01*
X98067462Y-111094839D01*
X98163713Y-111220276D01*
X98163718Y-111220282D01*
X98289159Y-111316536D01*
X98289160Y-111316536D01*
X98289161Y-111316537D01*
X98395901Y-111360750D01*
X98435238Y-111377044D01*
X98552809Y-111392522D01*
X98591999Y-111397682D01*
X98592000Y-111397682D01*
X98592001Y-111397682D01*
X98623352Y-111393554D01*
X98748762Y-111377044D01*
X98894841Y-111316536D01*
X99020282Y-111220282D01*
X99116536Y-111094841D01*
X99177044Y-110948762D01*
X99197682Y-110792000D01*
X99194871Y-110770652D01*
X99180868Y-110664286D01*
X99177044Y-110635238D01*
X99116537Y-110489161D01*
X99116537Y-110489160D01*
X99020286Y-110363723D01*
X99020285Y-110363722D01*
X99020282Y-110363718D01*
X99020277Y-110363714D01*
X99020276Y-110363713D01*
X98894838Y-110267462D01*
X98808343Y-110231635D01*
X98761817Y-110191899D01*
X98747533Y-110132404D01*
X98770948Y-110075876D01*
X98776211Y-110070180D01*
X99626392Y-109220000D01*
X110654785Y-109220000D01*
X110673603Y-109423083D01*
X110729418Y-109619250D01*
X110820327Y-109801821D01*
X110943236Y-109964579D01*
X111093959Y-110101981D01*
X111267363Y-110209348D01*
X111457544Y-110283024D01*
X111658024Y-110320500D01*
X111861976Y-110320500D01*
X112062456Y-110283024D01*
X112252637Y-110209348D01*
X112426041Y-110101981D01*
X112576764Y-109964579D01*
X112699673Y-109801821D01*
X112790582Y-109619250D01*
X112846397Y-109423083D01*
X112865215Y-109220000D01*
X112846397Y-109016917D01*
X112790582Y-108820750D01*
X112699673Y-108638179D01*
X112576764Y-108475421D01*
X112426041Y-108338019D01*
X112252637Y-108230652D01*
X112062456Y-108156976D01*
X112062455Y-108156975D01*
X112062453Y-108156975D01*
X111861976Y-108119500D01*
X111658024Y-108119500D01*
X111457546Y-108156975D01*
X111387632Y-108184059D01*
X111267363Y-108230652D01*
X111093959Y-108338019D01*
X110943237Y-108475420D01*
X110820328Y-108638177D01*
X110820323Y-108638186D01*
X110729419Y-108820747D01*
X110729418Y-108820750D01*
X110673603Y-109016917D01*
X110654785Y-109220000D01*
X99626392Y-109220000D01*
X101666480Y-107179913D01*
X101666483Y-107179908D01*
X101719205Y-107088592D01*
X101719205Y-107088590D01*
X101719207Y-107088588D01*
X101746500Y-106986727D01*
X101746500Y-106881273D01*
X101746500Y-105206799D01*
X103534317Y-105206799D01*
X103534317Y-105206800D01*
X103554954Y-105363558D01*
X103554956Y-105363566D01*
X103615461Y-105509638D01*
X103615461Y-105509639D01*
X103711712Y-105635076D01*
X103711717Y-105635082D01*
X103837158Y-105731336D01*
X103983237Y-105791844D01*
X104100808Y-105807322D01*
X104139998Y-105812482D01*
X104139999Y-105812482D01*
X104140000Y-105812482D01*
X104171351Y-105808354D01*
X104296761Y-105791844D01*
X104442840Y-105731336D01*
X104568281Y-105635082D01*
X104664535Y-105509641D01*
X104725043Y-105363562D01*
X104745681Y-105206800D01*
X104745681Y-105206799D01*
X105434319Y-105206799D01*
X105434319Y-105206800D01*
X105454956Y-105363558D01*
X105454958Y-105363566D01*
X105515463Y-105509638D01*
X105515463Y-105509639D01*
X105611714Y-105635076D01*
X105611719Y-105635082D01*
X105737160Y-105731336D01*
X105883239Y-105791844D01*
X106000810Y-105807322D01*
X106040000Y-105812482D01*
X106040001Y-105812482D01*
X106040002Y-105812482D01*
X106071353Y-105808354D01*
X106196763Y-105791844D01*
X106342842Y-105731336D01*
X106468283Y-105635082D01*
X106564537Y-105509641D01*
X106625045Y-105363562D01*
X106645683Y-105206800D01*
X106625045Y-105050038D01*
X106564538Y-104903961D01*
X106564538Y-104903960D01*
X106468287Y-104778523D01*
X106468286Y-104778522D01*
X106468283Y-104778518D01*
X106468278Y-104778514D01*
X106468277Y-104778513D01*
X106342839Y-104682262D01*
X106196767Y-104621757D01*
X106196759Y-104621755D01*
X106040002Y-104601118D01*
X106040000Y-104601118D01*
X105883242Y-104621755D01*
X105883234Y-104621757D01*
X105737162Y-104682262D01*
X105737161Y-104682262D01*
X105611724Y-104778513D01*
X105611714Y-104778523D01*
X105515463Y-104903960D01*
X105515463Y-104903961D01*
X105454958Y-105050033D01*
X105454956Y-105050041D01*
X105434319Y-105206799D01*
X104745681Y-105206799D01*
X104725043Y-105050038D01*
X104664536Y-104903961D01*
X104664536Y-104903960D01*
X104568285Y-104778523D01*
X104568284Y-104778522D01*
X104568281Y-104778518D01*
X104568276Y-104778514D01*
X104568275Y-104778513D01*
X104442837Y-104682262D01*
X104296765Y-104621757D01*
X104296757Y-104621755D01*
X104140000Y-104601118D01*
X104139998Y-104601118D01*
X103983240Y-104621755D01*
X103983232Y-104621757D01*
X103837160Y-104682262D01*
X103837159Y-104682262D01*
X103711722Y-104778513D01*
X103711712Y-104778523D01*
X103615461Y-104903960D01*
X103615461Y-104903961D01*
X103554956Y-105050033D01*
X103554954Y-105050041D01*
X103534317Y-105206799D01*
X101746500Y-105206799D01*
X101746500Y-103890000D01*
X110481128Y-103890000D01*
X111444314Y-103890000D01*
X111439920Y-103894394D01*
X111387259Y-103985606D01*
X111360000Y-104087339D01*
X111360000Y-104192661D01*
X111387259Y-104294394D01*
X111439920Y-104385606D01*
X111444314Y-104390000D01*
X110481128Y-104390000D01*
X110533733Y-104586323D01*
X110629865Y-104792481D01*
X110760334Y-104978811D01*
X110921188Y-105139665D01*
X111107518Y-105270134D01*
X111313675Y-105366266D01*
X111502848Y-105416955D01*
X111554162Y-105450279D01*
X111576089Y-105507401D01*
X111560254Y-105566501D01*
X111512704Y-105605006D01*
X111495417Y-105609896D01*
X111457545Y-105616975D01*
X111341040Y-105662109D01*
X111267363Y-105690652D01*
X111103935Y-105791842D01*
X111093959Y-105798019D01*
X110943237Y-105935420D01*
X110820328Y-106098177D01*
X110820323Y-106098186D01*
X110729791Y-106280000D01*
X110729418Y-106280750D01*
X110673603Y-106476917D01*
X110654785Y-106680000D01*
X110673603Y-106883083D01*
X110729418Y-107079250D01*
X110820327Y-107261821D01*
X110943236Y-107424579D01*
X111093959Y-107561981D01*
X111267363Y-107669348D01*
X111457544Y-107743024D01*
X111658024Y-107780500D01*
X111861976Y-107780500D01*
X112062456Y-107743024D01*
X112252637Y-107669348D01*
X112426041Y-107561981D01*
X112576764Y-107424579D01*
X112699673Y-107261821D01*
X112790582Y-107079250D01*
X112846397Y-106883083D01*
X112865215Y-106680000D01*
X112846397Y-106476917D01*
X112790582Y-106280750D01*
X112699673Y-106098179D01*
X112576764Y-105935421D01*
X112426041Y-105798019D01*
X112252637Y-105690652D01*
X112105283Y-105633567D01*
X112062454Y-105616975D01*
X112024582Y-105609896D01*
X111970857Y-105580618D01*
X111944601Y-105525352D01*
X111955844Y-105465209D01*
X112000292Y-105423160D01*
X112017151Y-105416955D01*
X112206324Y-105366266D01*
X112412481Y-105270134D01*
X112598811Y-105139665D01*
X112759665Y-104978811D01*
X112890134Y-104792481D01*
X112986266Y-104586323D01*
X113038872Y-104390000D01*
X112075686Y-104390000D01*
X112080080Y-104385606D01*
X112132741Y-104294394D01*
X112160000Y-104192661D01*
X112160000Y-104087339D01*
X112132741Y-103985606D01*
X112080080Y-103894394D01*
X112075686Y-103890000D01*
X113038872Y-103890000D01*
X112986266Y-103693676D01*
X112890134Y-103487518D01*
X112759665Y-103301188D01*
X112598811Y-103140334D01*
X112412481Y-103009865D01*
X112206323Y-102913733D01*
X112017151Y-102863044D01*
X111965836Y-102829720D01*
X111943910Y-102772598D01*
X111959746Y-102713498D01*
X112007296Y-102674992D01*
X112024568Y-102670106D01*
X112062456Y-102663024D01*
X112252637Y-102589348D01*
X112426041Y-102481981D01*
X112576764Y-102344579D01*
X112699673Y-102181821D01*
X112790582Y-101999250D01*
X112846397Y-101803083D01*
X112865215Y-101600000D01*
X112846397Y-101396917D01*
X112790582Y-101200750D01*
X112699673Y-101018179D01*
X112576764Y-100855421D01*
X112426041Y-100718019D01*
X112252637Y-100610652D01*
X112062456Y-100536976D01*
X112062455Y-100536975D01*
X112062453Y-100536975D01*
X111861976Y-100499500D01*
X111658024Y-100499500D01*
X111457546Y-100536975D01*
X111387632Y-100564059D01*
X111267363Y-100610652D01*
X111158676Y-100677948D01*
X111093959Y-100718019D01*
X110943237Y-100855420D01*
X110820328Y-101018177D01*
X110820323Y-101018186D01*
X110729419Y-101200747D01*
X110729418Y-101200750D01*
X110673603Y-101396917D01*
X110654785Y-101600000D01*
X110673603Y-101803083D01*
X110729418Y-101999250D01*
X110820327Y-102181821D01*
X110943236Y-102344579D01*
X111093959Y-102481981D01*
X111267363Y-102589348D01*
X111457544Y-102663024D01*
X111495418Y-102670103D01*
X111549141Y-102699380D01*
X111575398Y-102754645D01*
X111564156Y-102814789D01*
X111519709Y-102856838D01*
X111502848Y-102863044D01*
X111313676Y-102913733D01*
X111107518Y-103009865D01*
X110921188Y-103140334D01*
X110760334Y-103301188D01*
X110629865Y-103487518D01*
X110533733Y-103693676D01*
X110481128Y-103890000D01*
X101746500Y-103890000D01*
X101746500Y-101988700D01*
X101765407Y-101930509D01*
X101775490Y-101918702D01*
X102094192Y-101600000D01*
X102984571Y-101600000D01*
X102996157Y-101725041D01*
X103004244Y-101812310D01*
X103062595Y-102017389D01*
X103157634Y-102208255D01*
X103286128Y-102378407D01*
X103326004Y-102414759D01*
X103443692Y-102522047D01*
X103443699Y-102522053D01*
X103506331Y-102560833D01*
X103624981Y-102634298D01*
X103823802Y-102711321D01*
X104033390Y-102750500D01*
X104246610Y-102750500D01*
X104456198Y-102711321D01*
X104655019Y-102634298D01*
X104836302Y-102522052D01*
X104993872Y-102378407D01*
X105122366Y-102208255D01*
X105217405Y-102017389D01*
X105275756Y-101812310D01*
X105295429Y-101600000D01*
X105275756Y-101387690D01*
X105217405Y-101182611D01*
X105122366Y-100991745D01*
X104993872Y-100821593D01*
X104939623Y-100772139D01*
X104836307Y-100677952D01*
X104836300Y-100677946D01*
X104655024Y-100565705D01*
X104655019Y-100565702D01*
X104456195Y-100488678D01*
X104246610Y-100449500D01*
X104033390Y-100449500D01*
X103823804Y-100488678D01*
X103624980Y-100565702D01*
X103624975Y-100565705D01*
X103443699Y-100677946D01*
X103443692Y-100677952D01*
X103286135Y-100821586D01*
X103286131Y-100821589D01*
X103286128Y-100821593D01*
X103286125Y-100821597D01*
X103157635Y-100991743D01*
X103157630Y-100991752D01*
X103062596Y-101182608D01*
X103062595Y-101182611D01*
X103057435Y-101200747D01*
X103004244Y-101387688D01*
X102984571Y-101600000D01*
X102094192Y-101600000D01*
X104634191Y-99060000D01*
X110654785Y-99060000D01*
X110673603Y-99263083D01*
X110729418Y-99459250D01*
X110820327Y-99641821D01*
X110943236Y-99804579D01*
X111093959Y-99941981D01*
X111267363Y-100049348D01*
X111457544Y-100123024D01*
X111658024Y-100160500D01*
X111861976Y-100160500D01*
X112062456Y-100123024D01*
X112252637Y-100049348D01*
X112426041Y-99941981D01*
X112576764Y-99804579D01*
X112699673Y-99641821D01*
X112790582Y-99459250D01*
X112846397Y-99263083D01*
X112865215Y-99060000D01*
X112846397Y-98856917D01*
X112790582Y-98660750D01*
X112699673Y-98478179D01*
X112576764Y-98315421D01*
X112426041Y-98178019D01*
X112252637Y-98070652D01*
X112062456Y-97996976D01*
X112062455Y-97996975D01*
X112062453Y-97996975D01*
X111861976Y-97959500D01*
X111658024Y-97959500D01*
X111457546Y-97996975D01*
X111387632Y-98024059D01*
X111267363Y-98070652D01*
X111133207Y-98153718D01*
X111093959Y-98178019D01*
X110943237Y-98315420D01*
X110820328Y-98478177D01*
X110820323Y-98478186D01*
X110737989Y-98643537D01*
X110729418Y-98660750D01*
X110673603Y-98856917D01*
X110654785Y-99060000D01*
X104634191Y-99060000D01*
X104940514Y-98753677D01*
X104995031Y-98725901D01*
X105006247Y-98725018D01*
X105008799Y-98724681D01*
X105008800Y-98724682D01*
X105165562Y-98704044D01*
X105311641Y-98643536D01*
X105437082Y-98547282D01*
X105533336Y-98421841D01*
X105593844Y-98275762D01*
X105614482Y-98119000D01*
X105593844Y-97962238D01*
X105569075Y-97902441D01*
X105533337Y-97816161D01*
X105533337Y-97816160D01*
X105437086Y-97690723D01*
X105437085Y-97690722D01*
X105437082Y-97690718D01*
X105437077Y-97690714D01*
X105437076Y-97690713D01*
X105311638Y-97594462D01*
X105165566Y-97533957D01*
X105165558Y-97533955D01*
X105008801Y-97513318D01*
X105008799Y-97513318D01*
X104852041Y-97533955D01*
X104852033Y-97533957D01*
X104705961Y-97594462D01*
X104705960Y-97594462D01*
X104580523Y-97690713D01*
X104580513Y-97690723D01*
X104484262Y-97816160D01*
X104484262Y-97816161D01*
X104423757Y-97962233D01*
X104423755Y-97962241D01*
X104402271Y-98125433D01*
X104400542Y-98125205D01*
X104384211Y-98175471D01*
X104374122Y-98187284D01*
X101458304Y-101103102D01*
X101403787Y-101130879D01*
X101343355Y-101121308D01*
X101300090Y-101078043D01*
X101289300Y-101033098D01*
X101289300Y-99598499D01*
X101308207Y-99540308D01*
X101318290Y-99528501D01*
X104326790Y-96520000D01*
X110654785Y-96520000D01*
X110673603Y-96723083D01*
X110729418Y-96919250D01*
X110820327Y-97101821D01*
X110943236Y-97264579D01*
X111093959Y-97401981D01*
X111267363Y-97509348D01*
X111457544Y-97583024D01*
X111658024Y-97620500D01*
X111861976Y-97620500D01*
X112062456Y-97583024D01*
X112252637Y-97509348D01*
X112426041Y-97401981D01*
X112576764Y-97264579D01*
X112699673Y-97101821D01*
X112790582Y-96919250D01*
X112846397Y-96723083D01*
X112865215Y-96520000D01*
X112846397Y-96316917D01*
X112790582Y-96120750D01*
X112699673Y-95938179D01*
X112576764Y-95775421D01*
X112426041Y-95638019D01*
X112252637Y-95530652D01*
X112062456Y-95456976D01*
X112062455Y-95456975D01*
X112062453Y-95456975D01*
X111861976Y-95419500D01*
X111658024Y-95419500D01*
X111457546Y-95456975D01*
X111457541Y-95456977D01*
X111267363Y-95530652D01*
X111093959Y-95638019D01*
X110943237Y-95775420D01*
X110820328Y-95938177D01*
X110820323Y-95938186D01*
X110757173Y-96065010D01*
X110729418Y-96120750D01*
X110673603Y-96316917D01*
X110654785Y-96520000D01*
X104326790Y-96520000D01*
X106866790Y-93980000D01*
X110654785Y-93980000D01*
X110673603Y-94183083D01*
X110729418Y-94379250D01*
X110820327Y-94561821D01*
X110943236Y-94724579D01*
X111093959Y-94861981D01*
X111267363Y-94969348D01*
X111457544Y-95043024D01*
X111658024Y-95080500D01*
X111861976Y-95080500D01*
X112062456Y-95043024D01*
X112252637Y-94969348D01*
X112426041Y-94861981D01*
X112576764Y-94724579D01*
X112699673Y-94561821D01*
X112790582Y-94379250D01*
X112846397Y-94183083D01*
X112865215Y-93980000D01*
X112846397Y-93776917D01*
X112790582Y-93580750D01*
X112699673Y-93398179D01*
X112576764Y-93235421D01*
X112426041Y-93098019D01*
X112252637Y-92990652D01*
X112062456Y-92916976D01*
X112062455Y-92916975D01*
X112062453Y-92916975D01*
X111861976Y-92879500D01*
X111658024Y-92879500D01*
X111457546Y-92916975D01*
X111457541Y-92916977D01*
X111267363Y-92990652D01*
X111093959Y-93098019D01*
X110943237Y-93235420D01*
X110820328Y-93398177D01*
X110820323Y-93398186D01*
X110729419Y-93580747D01*
X110729418Y-93580750D01*
X110673603Y-93776917D01*
X110654785Y-93980000D01*
X106866790Y-93980000D01*
X108065813Y-92780977D01*
X108120330Y-92753201D01*
X108131548Y-92752317D01*
X108134096Y-92751981D01*
X108134100Y-92751982D01*
X108290862Y-92731344D01*
X108436941Y-92670836D01*
X108562382Y-92574582D01*
X108658636Y-92449141D01*
X108719144Y-92303062D01*
X108739782Y-92146300D01*
X108739362Y-92143113D01*
X108732544Y-92091323D01*
X108719144Y-91989538D01*
X108714109Y-91977384D01*
X108709309Y-91916390D01*
X108741278Y-91864221D01*
X108797805Y-91840805D01*
X108805574Y-91840500D01*
X110668742Y-91840500D01*
X110726933Y-91859407D01*
X110757362Y-91895371D01*
X110820327Y-92021821D01*
X110943236Y-92184579D01*
X111093959Y-92321981D01*
X111267363Y-92429348D01*
X111457544Y-92503024D01*
X111658024Y-92540500D01*
X111861976Y-92540500D01*
X112062456Y-92503024D01*
X112252637Y-92429348D01*
X112426041Y-92321981D01*
X112576764Y-92184579D01*
X112699673Y-92021821D01*
X112790582Y-91839250D01*
X112846397Y-91643083D01*
X112865215Y-91440000D01*
X112846397Y-91236917D01*
X112790582Y-91040750D01*
X112699673Y-90858179D01*
X112576764Y-90695421D01*
X112426041Y-90558019D01*
X112252637Y-90450652D01*
X112062456Y-90376976D01*
X112062455Y-90376975D01*
X112062453Y-90376975D01*
X111861976Y-90339500D01*
X111658024Y-90339500D01*
X111457546Y-90376975D01*
X111457541Y-90376977D01*
X111267363Y-90450652D01*
X111158342Y-90518155D01*
X111093959Y-90558019D01*
X110943237Y-90695420D01*
X110820328Y-90858177D01*
X110820323Y-90858186D01*
X110757363Y-90984628D01*
X110714500Y-91028291D01*
X110668742Y-91039500D01*
X109366763Y-91039500D01*
X109308572Y-91020593D01*
X109272608Y-90971093D01*
X109272608Y-90909907D01*
X109275299Y-90902615D01*
X109319142Y-90796767D01*
X109319142Y-90796766D01*
X109319144Y-90796762D01*
X109339782Y-90640000D01*
X109319144Y-90483238D01*
X109311722Y-90465319D01*
X109258637Y-90337161D01*
X109258637Y-90337160D01*
X109162386Y-90211723D01*
X109162385Y-90211722D01*
X109162382Y-90211718D01*
X109162377Y-90211714D01*
X109162376Y-90211713D01*
X109086487Y-90153482D01*
X109036941Y-90115464D01*
X109036940Y-90115463D01*
X109036938Y-90115462D01*
X108890866Y-90054957D01*
X108890858Y-90054955D01*
X108734101Y-90034318D01*
X108734099Y-90034318D01*
X108577341Y-90054955D01*
X108577333Y-90054957D01*
X108431261Y-90115462D01*
X108431260Y-90115462D01*
X108305823Y-90211713D01*
X108305813Y-90211723D01*
X108209562Y-90337160D01*
X108209562Y-90337161D01*
X108149057Y-90483233D01*
X108149055Y-90483241D01*
X108128418Y-90639999D01*
X108128418Y-90640000D01*
X108149055Y-90796758D01*
X108149057Y-90796767D01*
X108192901Y-90902615D01*
X108197702Y-90963611D01*
X108165732Y-91015780D01*
X108109204Y-91039195D01*
X108101437Y-91039500D01*
X106878300Y-91039500D01*
X106820109Y-91020593D01*
X106808296Y-91010504D01*
X105040244Y-89242451D01*
X105012467Y-89187934D01*
X105012095Y-89159529D01*
X105014482Y-89141400D01*
X104993844Y-88984638D01*
X104981007Y-88953647D01*
X104933337Y-88838561D01*
X104933337Y-88838560D01*
X104837086Y-88713123D01*
X104837085Y-88713122D01*
X104837082Y-88713118D01*
X104837077Y-88713114D01*
X104837076Y-88713113D01*
X104711638Y-88616862D01*
X104565566Y-88556357D01*
X104565558Y-88556355D01*
X104408801Y-88535718D01*
X104408799Y-88535718D01*
X104252041Y-88556355D01*
X104252033Y-88556357D01*
X104105961Y-88616862D01*
X104105960Y-88616862D01*
X103980523Y-88713113D01*
X103980513Y-88713123D01*
X103884262Y-88838560D01*
X103884262Y-88838561D01*
X103823757Y-88984633D01*
X103823755Y-88984641D01*
X103803118Y-89141399D01*
X103803118Y-89141400D01*
X103823755Y-89298158D01*
X103823757Y-89298166D01*
X103884262Y-89444238D01*
X103884262Y-89444239D01*
X103963727Y-89547800D01*
X103980518Y-89569682D01*
X103980522Y-89569685D01*
X103980523Y-89569686D01*
X104009882Y-89592213D01*
X104105959Y-89665936D01*
X104105960Y-89665936D01*
X104105961Y-89665937D01*
X104252033Y-89726442D01*
X104252038Y-89726444D01*
X104379268Y-89743194D01*
X104434492Y-89769533D01*
X104436349Y-89771342D01*
X106350918Y-91685910D01*
X106350920Y-91685913D01*
X106425487Y-91760480D01*
X106425489Y-91760481D01*
X106497968Y-91802328D01*
X106497977Y-91802331D01*
X106497979Y-91802333D01*
X106516813Y-91813207D01*
X106618670Y-91840500D01*
X106618672Y-91840501D01*
X106618673Y-91840501D01*
X106730190Y-91840501D01*
X106730206Y-91840500D01*
X107462626Y-91840500D01*
X107520817Y-91859407D01*
X107556781Y-91908907D01*
X107556781Y-91970093D01*
X107554097Y-91977367D01*
X107549056Y-91989538D01*
X107549056Y-91989539D01*
X107549055Y-91989541D01*
X107527571Y-92152733D01*
X107525843Y-92152505D01*
X107509511Y-92202772D01*
X107499422Y-92214585D01*
X100568316Y-99145691D01*
X100515594Y-99237008D01*
X100515593Y-99237010D01*
X100508273Y-99264326D01*
X100508274Y-99264327D01*
X100488300Y-99338873D01*
X100488300Y-106435099D01*
X100469393Y-106493290D01*
X100459304Y-106505103D01*
X93093903Y-113870504D01*
X93039386Y-113898281D01*
X93023899Y-113899500D01*
X89991258Y-113899500D01*
X89933067Y-113880593D01*
X89902637Y-113844628D01*
X89839676Y-113718186D01*
X89839673Y-113718179D01*
X89716764Y-113555421D01*
X89566041Y-113418019D01*
X89392637Y-113310652D01*
X89202456Y-113236976D01*
X89202455Y-113236975D01*
X89202453Y-113236975D01*
X89001976Y-113199500D01*
X88798024Y-113199500D01*
X88597546Y-113236975D01*
X88527632Y-113264059D01*
X88407363Y-113310652D01*
X88233959Y-113418019D01*
X88083237Y-113555420D01*
X87960328Y-113718177D01*
X87960323Y-113718186D01*
X87870647Y-113898281D01*
X87869418Y-113900750D01*
X87813603Y-114096917D01*
X87794785Y-114300000D01*
X87573300Y-114300000D01*
X87573300Y-111760000D01*
X87794785Y-111760000D01*
X87813603Y-111963083D01*
X87869418Y-112159250D01*
X87960327Y-112341821D01*
X88083236Y-112504579D01*
X88233959Y-112641981D01*
X88407363Y-112749348D01*
X88597544Y-112823024D01*
X88798024Y-112860500D01*
X89001976Y-112860500D01*
X89202456Y-112823024D01*
X89392637Y-112749348D01*
X89566041Y-112641981D01*
X89716764Y-112504579D01*
X89839673Y-112341821D01*
X89930582Y-112159250D01*
X89986397Y-111963083D01*
X90005215Y-111760000D01*
X89986397Y-111556917D01*
X89930582Y-111360750D01*
X89839673Y-111178179D01*
X89716764Y-111015421D01*
X89566041Y-110878019D01*
X89392637Y-110770652D01*
X89202456Y-110696976D01*
X89202455Y-110696975D01*
X89202453Y-110696975D01*
X89001976Y-110659500D01*
X88798024Y-110659500D01*
X88597546Y-110696975D01*
X88527632Y-110724059D01*
X88407363Y-110770652D01*
X88275731Y-110852155D01*
X88233959Y-110878019D01*
X88083237Y-111015420D01*
X87960328Y-111178177D01*
X87960323Y-111178186D01*
X87891433Y-111316537D01*
X87869418Y-111360750D01*
X87813603Y-111556917D01*
X87794785Y-111760000D01*
X87573300Y-111760000D01*
X87573300Y-107357506D01*
X87592207Y-107299315D01*
X87641707Y-107263351D01*
X87702893Y-107263351D01*
X87752393Y-107299315D01*
X87762025Y-107315668D01*
X87769863Y-107332478D01*
X87769864Y-107332480D01*
X87900334Y-107518811D01*
X88061188Y-107679665D01*
X88247518Y-107810134D01*
X88453675Y-107906266D01*
X88642848Y-107956955D01*
X88694162Y-107990279D01*
X88716089Y-108047401D01*
X88700254Y-108106501D01*
X88652704Y-108145006D01*
X88635417Y-108149896D01*
X88597545Y-108156975D01*
X88481040Y-108202109D01*
X88407363Y-108230652D01*
X88233959Y-108338019D01*
X88083237Y-108475420D01*
X87960328Y-108638177D01*
X87960323Y-108638186D01*
X87869419Y-108820747D01*
X87869418Y-108820750D01*
X87813603Y-109016917D01*
X87794785Y-109220000D01*
X87813603Y-109423083D01*
X87869418Y-109619250D01*
X87960327Y-109801821D01*
X88083236Y-109964579D01*
X88233959Y-110101981D01*
X88407363Y-110209348D01*
X88597544Y-110283024D01*
X88798024Y-110320500D01*
X89001976Y-110320500D01*
X89202456Y-110283024D01*
X89323842Y-110235999D01*
X91647118Y-110235999D01*
X91647118Y-110236000D01*
X91667755Y-110392758D01*
X91667757Y-110392766D01*
X91728262Y-110538838D01*
X91728262Y-110538839D01*
X91824513Y-110664276D01*
X91824518Y-110664282D01*
X91949959Y-110760536D01*
X91949960Y-110760536D01*
X91949961Y-110760537D01*
X92096033Y-110821042D01*
X92096038Y-110821044D01*
X92213609Y-110836522D01*
X92252799Y-110841682D01*
X92252800Y-110841682D01*
X92252801Y-110841682D01*
X92284152Y-110837554D01*
X92409562Y-110821044D01*
X92555641Y-110760536D01*
X92681082Y-110664282D01*
X92777336Y-110538841D01*
X92837844Y-110392762D01*
X92858482Y-110236000D01*
X92837844Y-110079238D01*
X92777337Y-109933161D01*
X92777337Y-109933160D01*
X92681086Y-109807723D01*
X92681085Y-109807722D01*
X92681082Y-109807718D01*
X92681077Y-109807714D01*
X92681076Y-109807713D01*
X92555638Y-109711462D01*
X92409566Y-109650957D01*
X92409558Y-109650955D01*
X92252801Y-109630318D01*
X92252799Y-109630318D01*
X92096041Y-109650955D01*
X92096033Y-109650957D01*
X91949961Y-109711462D01*
X91949960Y-109711462D01*
X91824523Y-109807713D01*
X91824513Y-109807723D01*
X91728262Y-109933160D01*
X91728262Y-109933161D01*
X91667757Y-110079233D01*
X91667755Y-110079241D01*
X91647118Y-110235999D01*
X89323842Y-110235999D01*
X89392637Y-110209348D01*
X89566041Y-110101981D01*
X89716764Y-109964579D01*
X89839673Y-109801821D01*
X89930582Y-109619250D01*
X89986397Y-109423083D01*
X90005215Y-109220000D01*
X89986397Y-109016917D01*
X89930582Y-108820750D01*
X89839673Y-108638179D01*
X89716764Y-108475421D01*
X89566041Y-108338019D01*
X89392637Y-108230652D01*
X89245283Y-108173567D01*
X89202454Y-108156975D01*
X89164582Y-108149896D01*
X89110857Y-108120618D01*
X89084601Y-108065352D01*
X89095844Y-108005209D01*
X89140292Y-107963160D01*
X89157151Y-107956955D01*
X89346324Y-107906266D01*
X89552481Y-107810134D01*
X89738811Y-107679665D01*
X89899665Y-107518811D01*
X90030134Y-107332481D01*
X90126266Y-107126323D01*
X90178872Y-106930000D01*
X89215686Y-106930000D01*
X89220080Y-106925606D01*
X89272741Y-106834394D01*
X89300000Y-106732661D01*
X89300000Y-106627339D01*
X89272741Y-106525606D01*
X89220080Y-106434394D01*
X89215686Y-106430000D01*
X90178872Y-106430000D01*
X90126266Y-106233676D01*
X90030134Y-106027518D01*
X89899665Y-105841188D01*
X89738811Y-105680334D01*
X89552481Y-105549865D01*
X89346323Y-105453733D01*
X89157151Y-105403044D01*
X89105836Y-105369720D01*
X89083910Y-105312598D01*
X89099746Y-105253498D01*
X89147296Y-105214992D01*
X89164568Y-105210106D01*
X89202456Y-105203024D01*
X89392637Y-105129348D01*
X89566041Y-105021981D01*
X89716764Y-104884579D01*
X89839673Y-104721821D01*
X89930582Y-104539250D01*
X89986397Y-104343083D01*
X90005215Y-104140000D01*
X89986397Y-103936917D01*
X89930582Y-103740750D01*
X89901826Y-103682999D01*
X92510718Y-103682999D01*
X92510718Y-103683000D01*
X92531355Y-103839758D01*
X92531357Y-103839766D01*
X92591862Y-103985838D01*
X92591862Y-103985839D01*
X92687830Y-104110907D01*
X92688118Y-104111282D01*
X92813559Y-104207536D01*
X92959638Y-104268044D01*
X93077209Y-104283522D01*
X93116399Y-104288682D01*
X93116400Y-104288682D01*
X93116401Y-104288682D01*
X93147752Y-104284554D01*
X93273162Y-104268044D01*
X93419241Y-104207536D01*
X93544682Y-104111282D01*
X93640936Y-103985841D01*
X93701444Y-103839762D01*
X93722082Y-103683000D01*
X93701444Y-103526238D01*
X93640937Y-103380161D01*
X93640937Y-103380160D01*
X93544686Y-103254723D01*
X93544685Y-103254722D01*
X93544682Y-103254718D01*
X93544677Y-103254714D01*
X93544676Y-103254713D01*
X93466074Y-103194400D01*
X93419241Y-103158464D01*
X93419240Y-103158463D01*
X93419238Y-103158462D01*
X93273166Y-103097957D01*
X93273158Y-103097955D01*
X93116401Y-103077318D01*
X93116399Y-103077318D01*
X92959641Y-103097955D01*
X92959633Y-103097957D01*
X92813561Y-103158462D01*
X92813560Y-103158462D01*
X92688123Y-103254713D01*
X92688113Y-103254723D01*
X92591862Y-103380160D01*
X92591862Y-103380161D01*
X92531357Y-103526233D01*
X92531355Y-103526241D01*
X92510718Y-103682999D01*
X89901826Y-103682999D01*
X89839673Y-103558179D01*
X89716764Y-103395421D01*
X89653297Y-103337564D01*
X89623033Y-103284390D01*
X89629804Y-103223581D01*
X89649991Y-103194400D01*
X89653808Y-103190582D01*
X89653813Y-103190580D01*
X91743258Y-101101134D01*
X91797770Y-101073360D01*
X91858202Y-101082931D01*
X91901467Y-101126196D01*
X91911038Y-101186628D01*
X91904722Y-101209025D01*
X91881356Y-101265436D01*
X91881355Y-101265441D01*
X91860718Y-101422199D01*
X91860718Y-101422200D01*
X91881355Y-101578958D01*
X91881357Y-101578966D01*
X91941862Y-101725038D01*
X91941862Y-101725039D01*
X92008828Y-101812311D01*
X92038118Y-101850482D01*
X92163559Y-101946736D01*
X92163560Y-101946736D01*
X92163561Y-101946737D01*
X92207487Y-101964932D01*
X92254013Y-102004668D01*
X92268297Y-102064163D01*
X92244882Y-102120691D01*
X92239606Y-102126400D01*
X92195845Y-102170161D01*
X92141328Y-102197938D01*
X92087955Y-102191621D01*
X92064296Y-102181821D01*
X91945360Y-102132556D01*
X91945357Y-102132555D01*
X91945356Y-102132555D01*
X91788599Y-102111918D01*
X91788597Y-102111918D01*
X91631839Y-102132555D01*
X91631831Y-102132557D01*
X91485759Y-102193062D01*
X91485758Y-102193062D01*
X91360321Y-102289313D01*
X91360311Y-102289323D01*
X91264060Y-102414760D01*
X91264060Y-102414761D01*
X91203555Y-102560833D01*
X91203553Y-102560841D01*
X91182916Y-102717599D01*
X91182916Y-102717600D01*
X91203553Y-102874358D01*
X91203555Y-102874366D01*
X91264060Y-103020438D01*
X91264060Y-103020439D01*
X91357285Y-103141932D01*
X91360316Y-103145882D01*
X91485757Y-103242136D01*
X91485758Y-103242136D01*
X91485759Y-103242137D01*
X91524102Y-103258019D01*
X91631836Y-103302644D01*
X91749407Y-103318122D01*
X91788597Y-103323282D01*
X91788598Y-103323282D01*
X91788599Y-103323282D01*
X91819950Y-103319154D01*
X91945360Y-103302644D01*
X92091439Y-103242136D01*
X92216880Y-103145882D01*
X92216886Y-103145873D01*
X92217529Y-103145232D01*
X92218330Y-103144769D01*
X92222028Y-103141932D01*
X92222401Y-103142418D01*
X92261917Y-103119602D01*
X92267523Y-103118100D01*
X92267527Y-103118100D01*
X92369388Y-103090807D01*
X92460713Y-103038080D01*
X93898793Y-101600000D01*
X95364571Y-101600000D01*
X95376157Y-101725041D01*
X95384244Y-101812310D01*
X95442595Y-102017389D01*
X95537634Y-102208255D01*
X95666128Y-102378407D01*
X95706004Y-102414759D01*
X95823692Y-102522047D01*
X95823699Y-102522053D01*
X95886331Y-102560833D01*
X96004981Y-102634298D01*
X96203802Y-102711321D01*
X96413390Y-102750500D01*
X96626610Y-102750500D01*
X96836198Y-102711321D01*
X97035019Y-102634298D01*
X97216302Y-102522052D01*
X97373872Y-102378407D01*
X97502366Y-102208255D01*
X97597405Y-102017389D01*
X97655756Y-101812310D01*
X97675429Y-101600000D01*
X97655756Y-101387690D01*
X97597405Y-101182611D01*
X97502366Y-100991745D01*
X97373872Y-100821593D01*
X97319623Y-100772139D01*
X97216307Y-100677952D01*
X97216300Y-100677946D01*
X97085243Y-100596799D01*
X98987718Y-100596799D01*
X98987718Y-100596800D01*
X99008355Y-100753558D01*
X99008357Y-100753566D01*
X99068862Y-100899638D01*
X99068862Y-100899639D01*
X99165113Y-101025076D01*
X99165118Y-101025082D01*
X99290559Y-101121336D01*
X99290560Y-101121336D01*
X99290561Y-101121337D01*
X99408882Y-101170347D01*
X99436638Y-101181844D01*
X99554209Y-101197322D01*
X99593399Y-101202482D01*
X99593400Y-101202482D01*
X99593401Y-101202482D01*
X99624752Y-101198354D01*
X99750162Y-101181844D01*
X99896241Y-101121336D01*
X100021682Y-101025082D01*
X100117936Y-100899641D01*
X100178444Y-100753562D01*
X100199082Y-100596800D01*
X100178444Y-100440038D01*
X100117937Y-100293961D01*
X100117937Y-100293960D01*
X100021686Y-100168523D01*
X100021685Y-100168522D01*
X100021682Y-100168518D01*
X100021677Y-100168514D01*
X100021676Y-100168513D01*
X99896238Y-100072262D01*
X99750166Y-100011757D01*
X99750158Y-100011755D01*
X99593401Y-99991118D01*
X99593399Y-99991118D01*
X99436641Y-100011755D01*
X99436633Y-100011757D01*
X99290561Y-100072262D01*
X99290560Y-100072262D01*
X99165123Y-100168513D01*
X99165113Y-100168523D01*
X99068862Y-100293960D01*
X99068862Y-100293961D01*
X99008357Y-100440033D01*
X99008355Y-100440041D01*
X98987718Y-100596799D01*
X97085243Y-100596799D01*
X97035024Y-100565705D01*
X97035019Y-100565702D01*
X96836195Y-100488678D01*
X96626610Y-100449500D01*
X96413390Y-100449500D01*
X96203804Y-100488678D01*
X96004980Y-100565702D01*
X96004975Y-100565705D01*
X95823699Y-100677946D01*
X95823692Y-100677952D01*
X95666135Y-100821586D01*
X95666131Y-100821589D01*
X95666128Y-100821593D01*
X95666125Y-100821597D01*
X95537635Y-100991743D01*
X95537630Y-100991752D01*
X95442596Y-101182608D01*
X95442595Y-101182611D01*
X95437435Y-101200747D01*
X95384244Y-101387688D01*
X95364571Y-101600000D01*
X93898793Y-101600000D01*
X101531392Y-93967399D01*
X103204118Y-93967399D01*
X103204118Y-93967400D01*
X103224755Y-94124158D01*
X103224757Y-94124166D01*
X103285262Y-94270238D01*
X103285262Y-94270239D01*
X103381513Y-94395676D01*
X103381518Y-94395682D01*
X103506959Y-94491936D01*
X103506960Y-94491936D01*
X103506961Y-94491937D01*
X103539254Y-94505313D01*
X103653038Y-94552444D01*
X103770609Y-94567922D01*
X103809799Y-94573082D01*
X103809800Y-94573082D01*
X103809801Y-94573082D01*
X103841152Y-94568954D01*
X103966562Y-94552444D01*
X104112641Y-94491936D01*
X104238082Y-94395682D01*
X104334336Y-94270241D01*
X104394844Y-94124162D01*
X104415482Y-93967400D01*
X104394844Y-93810638D01*
X104338631Y-93674927D01*
X104334337Y-93664561D01*
X104334337Y-93664560D01*
X104238086Y-93539123D01*
X104238085Y-93539122D01*
X104238082Y-93539118D01*
X104238077Y-93539114D01*
X104238076Y-93539113D01*
X104166904Y-93484501D01*
X104112641Y-93442864D01*
X104112640Y-93442863D01*
X104112638Y-93442862D01*
X103966566Y-93382357D01*
X103966558Y-93382355D01*
X103809801Y-93361718D01*
X103809799Y-93361718D01*
X103653041Y-93382355D01*
X103653033Y-93382357D01*
X103506961Y-93442862D01*
X103506960Y-93442862D01*
X103381523Y-93539113D01*
X103381513Y-93539123D01*
X103285262Y-93664560D01*
X103285262Y-93664561D01*
X103224757Y-93810633D01*
X103224755Y-93810641D01*
X103204118Y-93967399D01*
X101531392Y-93967399D01*
X101832010Y-93666781D01*
X101832013Y-93666780D01*
X101906580Y-93592213D01*
X101959307Y-93500887D01*
X101967547Y-93470135D01*
X101986601Y-93399027D01*
X101986601Y-93293573D01*
X101986601Y-93287511D01*
X101986600Y-93287493D01*
X101986600Y-93016671D01*
X102005507Y-92958480D01*
X102012815Y-92949924D01*
X102016134Y-92945599D01*
X102110636Y-92822441D01*
X102171144Y-92676362D01*
X102191782Y-92519600D01*
X102171144Y-92362838D01*
X102171142Y-92362833D01*
X102110637Y-92216761D01*
X102110637Y-92216760D01*
X102014386Y-92091323D01*
X102014385Y-92091322D01*
X102014382Y-92091318D01*
X102014377Y-92091314D01*
X102014376Y-92091313D01*
X101888938Y-91995062D01*
X101742866Y-91934557D01*
X101742858Y-91934555D01*
X101586101Y-91913918D01*
X101586099Y-91913918D01*
X101429341Y-91934555D01*
X101429333Y-91934557D01*
X101283261Y-91995062D01*
X101283260Y-91995062D01*
X101157823Y-92091313D01*
X101157813Y-92091323D01*
X101061562Y-92216760D01*
X101061562Y-92216761D01*
X101001057Y-92362833D01*
X101001055Y-92362841D01*
X100980418Y-92519599D01*
X100980418Y-92519600D01*
X101001055Y-92676358D01*
X101001057Y-92676367D01*
X101062575Y-92824885D01*
X101067375Y-92885882D01*
X101035406Y-92938051D01*
X100978878Y-92961465D01*
X100921606Y-92948503D01*
X100916575Y-92945598D01*
X100770501Y-92885092D01*
X100770493Y-92885090D01*
X100613736Y-92864453D01*
X100613734Y-92864453D01*
X100456976Y-92885090D01*
X100456968Y-92885092D01*
X100310896Y-92945597D01*
X100310895Y-92945597D01*
X100185458Y-93041848D01*
X100185448Y-93041858D01*
X100089197Y-93167295D01*
X100089197Y-93167296D01*
X100028692Y-93313368D01*
X100028690Y-93313376D01*
X100008053Y-93470132D01*
X100028690Y-93626893D01*
X100028692Y-93626901D01*
X100089197Y-93772973D01*
X100089197Y-93772974D01*
X100089199Y-93772976D01*
X100185453Y-93898417D01*
X100255533Y-93952191D01*
X100290188Y-94002616D01*
X100288586Y-94063780D01*
X100265269Y-94100737D01*
X93170600Y-101195406D01*
X93116083Y-101223183D01*
X93055651Y-101213612D01*
X93012386Y-101170347D01*
X93009132Y-101163287D01*
X92990937Y-101119361D01*
X92990937Y-101119360D01*
X92894686Y-100993923D01*
X92894685Y-100993922D01*
X92894682Y-100993918D01*
X92894677Y-100993914D01*
X92894676Y-100993913D01*
X92771815Y-100899639D01*
X92769241Y-100897664D01*
X92769240Y-100897663D01*
X92769238Y-100897662D01*
X92623166Y-100837157D01*
X92623158Y-100837155D01*
X92466401Y-100816518D01*
X92466399Y-100816518D01*
X92309641Y-100837155D01*
X92309636Y-100837156D01*
X92253225Y-100860522D01*
X92192228Y-100865321D01*
X92140060Y-100833351D01*
X92116646Y-100776823D01*
X92130931Y-100717328D01*
X92145327Y-100699064D01*
X98264510Y-94579881D01*
X98264513Y-94579880D01*
X98339080Y-94505313D01*
X98391807Y-94413987D01*
X98396712Y-94395682D01*
X98419101Y-94312127D01*
X98419101Y-94206673D01*
X98419101Y-94200611D01*
X98419100Y-94200593D01*
X98419100Y-90358246D01*
X98438007Y-90300055D01*
X98487507Y-90264091D01*
X98548693Y-90264091D01*
X98578362Y-90279700D01*
X98655559Y-90338936D01*
X98655562Y-90338937D01*
X98655563Y-90338938D01*
X98747398Y-90376977D01*
X98801638Y-90399444D01*
X98919209Y-90414922D01*
X98958399Y-90420082D01*
X98958400Y-90420082D01*
X98958401Y-90420082D01*
X98989752Y-90415954D01*
X99115162Y-90399444D01*
X99261241Y-90338936D01*
X99386682Y-90242682D01*
X99482936Y-90117241D01*
X99543444Y-89971162D01*
X99564082Y-89814400D01*
X99543444Y-89657638D01*
X99524088Y-89610908D01*
X99482937Y-89511561D01*
X99482937Y-89511560D01*
X99386686Y-89386123D01*
X99386685Y-89386122D01*
X99386682Y-89386118D01*
X99386677Y-89386114D01*
X99386676Y-89386113D01*
X99290019Y-89311946D01*
X99261241Y-89289864D01*
X99261240Y-89289863D01*
X99261238Y-89289862D01*
X99115166Y-89229357D01*
X99115158Y-89229355D01*
X98958401Y-89208718D01*
X98958399Y-89208718D01*
X98801641Y-89229355D01*
X98801633Y-89229357D01*
X98655561Y-89289862D01*
X98655560Y-89289862D01*
X98578367Y-89349095D01*
X98520691Y-89369519D01*
X98462025Y-89352141D01*
X98424778Y-89303599D01*
X98419100Y-89270553D01*
X98419100Y-88214199D01*
X105716518Y-88214199D01*
X105716518Y-88214200D01*
X105737155Y-88370958D01*
X105737157Y-88370966D01*
X105797662Y-88517038D01*
X105797662Y-88517039D01*
X105893913Y-88642476D01*
X105893918Y-88642482D01*
X106019359Y-88738736D01*
X106019360Y-88738736D01*
X106019361Y-88738737D01*
X106133481Y-88786007D01*
X106165438Y-88799244D01*
X106322200Y-88819882D01*
X106328633Y-88820729D01*
X106328405Y-88822456D01*
X106378672Y-88838789D01*
X106390485Y-88848878D01*
X106802320Y-89260713D01*
X106802319Y-89260713D01*
X106839765Y-89298158D01*
X106876887Y-89335280D01*
X106968213Y-89388007D01*
X107070073Y-89415300D01*
X107175527Y-89415300D01*
X110725906Y-89415300D01*
X110784097Y-89434207D01*
X110814528Y-89470175D01*
X110820321Y-89481810D01*
X110820323Y-89481813D01*
X110820327Y-89481821D01*
X110943236Y-89644579D01*
X111093959Y-89781981D01*
X111267363Y-89889348D01*
X111457544Y-89963024D01*
X111658024Y-90000500D01*
X111861976Y-90000500D01*
X112062456Y-89963024D01*
X112252637Y-89889348D01*
X112426041Y-89781981D01*
X112576764Y-89644579D01*
X112699673Y-89481821D01*
X112790582Y-89299250D01*
X112846397Y-89103083D01*
X112865215Y-88900000D01*
X112846397Y-88696917D01*
X112790582Y-88500750D01*
X112699673Y-88318179D01*
X112576764Y-88155421D01*
X112426041Y-88018019D01*
X112252637Y-87910652D01*
X112062456Y-87836976D01*
X112062455Y-87836975D01*
X112062453Y-87836975D01*
X111861976Y-87799500D01*
X111658024Y-87799500D01*
X111457546Y-87836975D01*
X111457541Y-87836977D01*
X111267363Y-87910652D01*
X111093959Y-88018019D01*
X110943236Y-88155421D01*
X110911894Y-88196924D01*
X110820328Y-88318177D01*
X110820323Y-88318186D01*
X110757173Y-88445010D01*
X110729418Y-88500750D01*
X110717569Y-88542394D01*
X110683459Y-88593188D01*
X110626007Y-88614232D01*
X110622349Y-88614300D01*
X107329701Y-88614300D01*
X107271510Y-88595393D01*
X107259697Y-88585304D01*
X106956878Y-88282485D01*
X106929101Y-88227968D01*
X106928218Y-88216754D01*
X106926734Y-88205480D01*
X106907244Y-88057438D01*
X106890916Y-88018019D01*
X106846737Y-87911361D01*
X106846737Y-87911360D01*
X106750486Y-87785923D01*
X106750485Y-87785922D01*
X106750482Y-87785918D01*
X106750477Y-87785914D01*
X106750476Y-87785913D01*
X106625038Y-87689662D01*
X106478966Y-87629157D01*
X106478958Y-87629155D01*
X106322201Y-87608518D01*
X106322199Y-87608518D01*
X106165441Y-87629155D01*
X106165433Y-87629157D01*
X106019361Y-87689662D01*
X106019360Y-87689662D01*
X105893923Y-87785913D01*
X105893913Y-87785923D01*
X105797662Y-87911360D01*
X105797662Y-87911361D01*
X105737157Y-88057433D01*
X105737155Y-88057441D01*
X105716518Y-88214199D01*
X98419100Y-88214199D01*
X98419100Y-79556674D01*
X98438007Y-79498483D01*
X98487507Y-79462519D01*
X98548693Y-79462519D01*
X98588104Y-79486670D01*
X99622886Y-80521452D01*
X99650663Y-80575969D01*
X99651882Y-80591456D01*
X99651882Y-85559573D01*
X99632975Y-85617764D01*
X99625658Y-85626331D01*
X99527844Y-85753804D01*
X99527844Y-85753805D01*
X99467339Y-85899877D01*
X99467337Y-85899885D01*
X99446700Y-86056643D01*
X99446700Y-86056644D01*
X99467337Y-86213402D01*
X99467339Y-86213410D01*
X99527844Y-86359482D01*
X99527844Y-86359483D01*
X99527846Y-86359485D01*
X99624100Y-86484926D01*
X99749541Y-86581180D01*
X99895620Y-86641688D01*
X100009709Y-86656708D01*
X100052381Y-86662326D01*
X100052382Y-86662326D01*
X100052383Y-86662326D01*
X100095055Y-86656708D01*
X100209144Y-86641688D01*
X100355223Y-86581180D01*
X100480664Y-86484926D01*
X100576918Y-86359485D01*
X100637426Y-86213406D01*
X100658064Y-86056644D01*
X100637426Y-85899882D01*
X100637424Y-85899877D01*
X100576919Y-85753805D01*
X100576919Y-85753804D01*
X100573504Y-85749354D01*
X100553080Y-85691678D01*
X100570458Y-85633013D01*
X100618999Y-85595765D01*
X100664965Y-85590934D01*
X100786100Y-85606882D01*
X100942862Y-85586244D01*
X101088941Y-85525736D01*
X101214382Y-85429482D01*
X101310636Y-85304041D01*
X101371144Y-85157962D01*
X101391782Y-85001200D01*
X101388565Y-84976768D01*
X101371144Y-84844441D01*
X101371144Y-84844438D01*
X101310637Y-84698361D01*
X101310637Y-84698360D01*
X101214386Y-84572923D01*
X101214385Y-84572922D01*
X101214382Y-84572918D01*
X101214377Y-84572914D01*
X101214376Y-84572913D01*
X101088938Y-84476662D01*
X100942866Y-84416157D01*
X100942858Y-84416155D01*
X100786101Y-84395518D01*
X100786099Y-84395518D01*
X100629341Y-84416155D01*
X100629339Y-84416155D01*
X100629338Y-84416156D01*
X100601534Y-84427673D01*
X100589767Y-84432547D01*
X100528770Y-84437346D01*
X100476601Y-84405376D01*
X100453187Y-84348848D01*
X100452882Y-84341082D01*
X100452882Y-83819999D01*
X102289718Y-83819999D01*
X102289718Y-83820000D01*
X102310355Y-83976758D01*
X102310357Y-83976766D01*
X102370862Y-84122838D01*
X102370862Y-84122839D01*
X102467113Y-84248276D01*
X102467118Y-84248282D01*
X102592559Y-84344536D01*
X102592560Y-84344536D01*
X102592561Y-84344537D01*
X102696722Y-84387682D01*
X102738638Y-84405044D01*
X102856209Y-84420522D01*
X102895399Y-84425682D01*
X102895400Y-84425682D01*
X102895401Y-84425682D01*
X102926752Y-84421554D01*
X103052162Y-84405044D01*
X103198241Y-84344536D01*
X103323682Y-84248282D01*
X103419936Y-84122841D01*
X103480444Y-83976762D01*
X103501082Y-83820000D01*
X110654785Y-83820000D01*
X110673603Y-84023083D01*
X110729418Y-84219250D01*
X110820327Y-84401821D01*
X110943236Y-84564579D01*
X111093959Y-84701981D01*
X111267363Y-84809348D01*
X111457544Y-84883024D01*
X111658024Y-84920500D01*
X111861976Y-84920500D01*
X112062456Y-84883024D01*
X112252637Y-84809348D01*
X112426041Y-84701981D01*
X112576764Y-84564579D01*
X112699673Y-84401821D01*
X112790582Y-84219250D01*
X112846397Y-84023083D01*
X112865215Y-83820000D01*
X112846397Y-83616917D01*
X112790582Y-83420750D01*
X112699673Y-83238179D01*
X112576764Y-83075421D01*
X112426041Y-82938019D01*
X112252637Y-82830652D01*
X112062456Y-82756976D01*
X112062455Y-82756975D01*
X112062453Y-82756975D01*
X111861976Y-82719500D01*
X111658024Y-82719500D01*
X111457546Y-82756975D01*
X111457541Y-82756977D01*
X111267363Y-82830652D01*
X111093959Y-82938019D01*
X110943237Y-83075420D01*
X110820328Y-83238177D01*
X110820323Y-83238186D01*
X110729419Y-83420747D01*
X110729418Y-83420750D01*
X110673603Y-83616917D01*
X110654785Y-83820000D01*
X103501082Y-83820000D01*
X103480444Y-83663238D01*
X103424077Y-83527156D01*
X103419937Y-83517161D01*
X103419937Y-83517160D01*
X103323686Y-83391723D01*
X103323685Y-83391722D01*
X103323682Y-83391718D01*
X103323677Y-83391714D01*
X103323676Y-83391713D01*
X103198238Y-83295462D01*
X103052166Y-83234957D01*
X103052158Y-83234955D01*
X102895401Y-83214318D01*
X102895399Y-83214318D01*
X102738641Y-83234955D01*
X102738633Y-83234957D01*
X102592561Y-83295462D01*
X102592560Y-83295462D01*
X102467123Y-83391713D01*
X102467113Y-83391723D01*
X102370862Y-83517160D01*
X102370862Y-83517161D01*
X102310357Y-83663233D01*
X102310355Y-83663241D01*
X102289718Y-83819999D01*
X100452882Y-83819999D01*
X100452882Y-80331829D01*
X100452882Y-80331828D01*
X100425589Y-80229968D01*
X100425589Y-80229967D01*
X100425589Y-80229966D01*
X100372865Y-80138646D01*
X100372864Y-80138645D01*
X100372863Y-80138644D01*
X100372862Y-80138642D01*
X99990219Y-79755999D01*
X104403118Y-79755999D01*
X104403118Y-79756000D01*
X104423755Y-79912758D01*
X104423757Y-79912766D01*
X104484262Y-80058838D01*
X104484262Y-80058839D01*
X104580513Y-80184276D01*
X104580518Y-80184282D01*
X104705959Y-80280536D01*
X104705960Y-80280536D01*
X104705961Y-80280537D01*
X104829791Y-80331829D01*
X104852038Y-80341044D01*
X104969609Y-80356522D01*
X105008799Y-80361682D01*
X105008800Y-80361682D01*
X105008801Y-80361682D01*
X105040152Y-80357554D01*
X105165562Y-80341044D01*
X105311641Y-80280536D01*
X105437082Y-80184282D01*
X105533336Y-80058841D01*
X105593844Y-79912762D01*
X105614482Y-79756000D01*
X105593844Y-79599238D01*
X105533337Y-79453161D01*
X105533337Y-79453160D01*
X105437086Y-79327723D01*
X105437085Y-79327722D01*
X105437082Y-79327718D01*
X105437077Y-79327714D01*
X105437076Y-79327713D01*
X105311638Y-79231462D01*
X105165566Y-79170957D01*
X105165558Y-79170955D01*
X105008801Y-79150318D01*
X105008799Y-79150318D01*
X104852041Y-79170955D01*
X104852033Y-79170957D01*
X104705961Y-79231462D01*
X104705960Y-79231462D01*
X104580523Y-79327713D01*
X104580513Y-79327723D01*
X104484262Y-79453160D01*
X104484262Y-79453161D01*
X104423757Y-79599233D01*
X104423755Y-79599241D01*
X104403118Y-79755999D01*
X99990219Y-79755999D01*
X98760749Y-78526529D01*
X98732972Y-78472012D01*
X98742543Y-78411580D01*
X98785808Y-78368315D01*
X98846240Y-78358744D01*
X98849745Y-78359489D01*
X98852436Y-78359843D01*
X98852438Y-78359844D01*
X98973819Y-78375824D01*
X99009199Y-78380482D01*
X99009200Y-78380482D01*
X99009201Y-78380482D01*
X99040552Y-78376354D01*
X99165962Y-78359844D01*
X99312041Y-78299336D01*
X99437482Y-78203082D01*
X99533736Y-78077641D01*
X99594244Y-77931562D01*
X99614882Y-77774800D01*
X99594244Y-77618038D01*
X99541609Y-77490965D01*
X99533737Y-77471961D01*
X99533737Y-77471960D01*
X99437486Y-77346523D01*
X99437485Y-77346522D01*
X99437482Y-77346518D01*
X99437477Y-77346514D01*
X99437476Y-77346513D01*
X99312038Y-77250262D01*
X99165966Y-77189757D01*
X99165958Y-77189755D01*
X99009201Y-77169118D01*
X99009199Y-77169118D01*
X98852441Y-77189755D01*
X98852433Y-77189757D01*
X98706361Y-77250262D01*
X98706360Y-77250262D01*
X98580923Y-77346513D01*
X98580913Y-77346523D01*
X98484662Y-77471960D01*
X98484662Y-77471961D01*
X98424157Y-77618033D01*
X98424155Y-77618041D01*
X98410415Y-77722413D01*
X98403518Y-77774800D01*
X98424155Y-77931558D01*
X98425003Y-77937995D01*
X98422540Y-77938319D01*
X98419898Y-77988726D01*
X98381391Y-78036276D01*
X98322291Y-78052110D01*
X98265170Y-78030182D01*
X98257470Y-78023250D01*
X97677499Y-77443279D01*
X97649722Y-77388762D01*
X97648503Y-77373275D01*
X97648503Y-74563471D01*
X97667410Y-74505280D01*
X97674718Y-74496724D01*
X97745423Y-74404579D01*
X97772539Y-74369241D01*
X97833047Y-74223162D01*
X97853685Y-74066400D01*
X97833047Y-73909638D01*
X97772540Y-73763561D01*
X97772540Y-73763560D01*
X97676289Y-73638123D01*
X97676288Y-73638122D01*
X97676285Y-73638118D01*
X97676280Y-73638114D01*
X97676279Y-73638113D01*
X97550841Y-73541862D01*
X97404769Y-73481357D01*
X97404761Y-73481355D01*
X97248004Y-73460718D01*
X97248002Y-73460718D01*
X97091244Y-73481355D01*
X97091236Y-73481357D01*
X96945164Y-73541862D01*
X96945163Y-73541862D01*
X96819726Y-73638113D01*
X96819716Y-73638123D01*
X96723465Y-73763560D01*
X96723465Y-73763561D01*
X96662960Y-73909633D01*
X96662958Y-73909641D01*
X96642321Y-74066399D01*
X96642321Y-74066400D01*
X96662958Y-74223158D01*
X96662960Y-74223166D01*
X96723465Y-74369238D01*
X96723465Y-74369239D01*
X96823671Y-74499831D01*
X96822286Y-74500893D01*
X96846282Y-74547969D01*
X96847503Y-74563471D01*
X96847503Y-77569478D01*
X96828596Y-77627669D01*
X96786390Y-77660941D01*
X96726676Y-77685676D01*
X96726669Y-77685680D01*
X96678798Y-77722413D01*
X96621122Y-77742837D01*
X96562456Y-77725459D01*
X96525209Y-77676917D01*
X96520378Y-77656793D01*
X96513597Y-77605284D01*
X96505244Y-77541838D01*
X96468676Y-77453554D01*
X96444737Y-77395761D01*
X96444737Y-77395760D01*
X96344532Y-77265170D01*
X96345913Y-77264109D01*
X96321919Y-77217016D01*
X96320700Y-77201529D01*
X96320700Y-73961745D01*
X96320700Y-73961744D01*
X96307321Y-73911813D01*
X96293407Y-73859883D01*
X96293404Y-73859877D01*
X96240683Y-73768562D01*
X96240681Y-73768560D01*
X96240680Y-73768558D01*
X93271642Y-70799520D01*
X93271639Y-70799518D01*
X93271637Y-70799516D01*
X93180320Y-70746794D01*
X93180322Y-70746794D01*
X93140799Y-70736204D01*
X93078456Y-70719500D01*
X93078454Y-70719500D01*
X89991258Y-70719500D01*
X89933067Y-70700593D01*
X89902637Y-70664628D01*
X89853327Y-70565600D01*
X89839673Y-70538179D01*
X89716764Y-70375421D01*
X89566041Y-70238019D01*
X89392637Y-70130652D01*
X89202456Y-70056976D01*
X89202455Y-70056975D01*
X89202453Y-70056975D01*
X89001976Y-70019500D01*
X88798024Y-70019500D01*
X88597546Y-70056975D01*
X88555561Y-70073240D01*
X88407363Y-70130652D01*
X88233959Y-70238019D01*
X88083236Y-70375421D01*
X88056965Y-70410209D01*
X87960328Y-70538177D01*
X87960323Y-70538186D01*
X87873252Y-70713050D01*
X87869418Y-70720750D01*
X87813603Y-70916917D01*
X87794785Y-71120000D01*
X87813603Y-71323083D01*
X87869418Y-71519250D01*
X87960327Y-71701821D01*
X88083236Y-71864579D01*
X88233959Y-72001981D01*
X88407363Y-72109348D01*
X88597544Y-72183024D01*
X88798024Y-72220500D01*
X89001976Y-72220500D01*
X89202456Y-72183024D01*
X89392637Y-72109348D01*
X89566041Y-72001981D01*
X89716764Y-71864579D01*
X89839673Y-71701821D01*
X89902637Y-71575371D01*
X89945500Y-71531709D01*
X89991258Y-71520500D01*
X92818828Y-71520500D01*
X92877019Y-71539407D01*
X92888832Y-71549496D01*
X92971734Y-71632398D01*
X92999511Y-71686915D01*
X92989940Y-71747347D01*
X92961998Y-71780943D01*
X92956398Y-71785241D01*
X92891919Y-71834717D01*
X92891913Y-71834723D01*
X92795662Y-71960160D01*
X92795662Y-71960161D01*
X92735157Y-72106233D01*
X92735155Y-72106241D01*
X92714518Y-72262999D01*
X92714518Y-72263000D01*
X92735155Y-72419758D01*
X92735157Y-72419766D01*
X92795662Y-72565838D01*
X92795662Y-72565839D01*
X92876088Y-72670652D01*
X92891918Y-72691282D01*
X93017359Y-72787536D01*
X93163438Y-72848044D01*
X93281009Y-72863522D01*
X93320199Y-72868682D01*
X93320200Y-72868682D01*
X93320201Y-72868682D01*
X93351552Y-72864554D01*
X93476962Y-72848044D01*
X93623041Y-72787536D01*
X93748482Y-72691282D01*
X93802256Y-72621201D01*
X93852678Y-72586546D01*
X93913843Y-72588147D01*
X93950801Y-72611465D01*
X95490704Y-74151368D01*
X95518481Y-74205885D01*
X95519700Y-74221372D01*
X95519700Y-76386056D01*
X95500793Y-76444247D01*
X95451293Y-76480211D01*
X95407779Y-76484209D01*
X95320202Y-76472680D01*
X95320199Y-76472680D01*
X95163441Y-76493317D01*
X95163433Y-76493319D01*
X95017361Y-76553824D01*
X94933724Y-76618000D01*
X94876048Y-76638423D01*
X94817383Y-76621045D01*
X94803454Y-76609461D01*
X93293493Y-75099500D01*
X91533513Y-73339520D01*
X91533510Y-73339518D01*
X91533509Y-73339517D01*
X91533508Y-73339516D01*
X91442191Y-73286794D01*
X91442193Y-73286794D01*
X91402670Y-73276204D01*
X91340327Y-73259500D01*
X91340325Y-73259500D01*
X89991258Y-73259500D01*
X89933067Y-73240593D01*
X89902637Y-73204628D01*
X89839676Y-73078186D01*
X89839673Y-73078179D01*
X89716764Y-72915421D01*
X89566041Y-72778019D01*
X89392637Y-72670652D01*
X89202456Y-72596976D01*
X89202455Y-72596975D01*
X89202453Y-72596975D01*
X89001976Y-72559500D01*
X88798024Y-72559500D01*
X88597546Y-72596975D01*
X88597536Y-72596979D01*
X88407363Y-72670652D01*
X88233959Y-72778019D01*
X88083237Y-72915420D01*
X87960328Y-73078177D01*
X87960323Y-73078186D01*
X87870040Y-73259500D01*
X87869418Y-73260750D01*
X87813603Y-73456917D01*
X87794785Y-73660000D01*
X87813603Y-73863083D01*
X87869418Y-74059250D01*
X87960327Y-74241821D01*
X88083236Y-74404579D01*
X88233959Y-74541981D01*
X88407363Y-74649348D01*
X88597544Y-74723024D01*
X88798024Y-74760500D01*
X89001976Y-74760500D01*
X89202456Y-74723024D01*
X89392637Y-74649348D01*
X89566041Y-74541981D01*
X89716764Y-74404579D01*
X89839673Y-74241821D01*
X89902637Y-74115371D01*
X89945500Y-74071709D01*
X89991258Y-74060500D01*
X91080699Y-74060500D01*
X91138890Y-74079407D01*
X91150703Y-74089496D01*
X93201221Y-76140014D01*
X93228998Y-76194531D01*
X93219427Y-76254963D01*
X93176162Y-76298228D01*
X93118295Y-76308171D01*
X92956101Y-76286818D01*
X92956099Y-76286818D01*
X92799341Y-76307455D01*
X92799333Y-76307457D01*
X92653261Y-76367962D01*
X92653260Y-76367962D01*
X92527823Y-76464213D01*
X92527813Y-76464223D01*
X92431562Y-76589660D01*
X92431562Y-76589661D01*
X92371057Y-76735733D01*
X92371055Y-76735741D01*
X92350418Y-76892499D01*
X92350418Y-76892500D01*
X92371055Y-77049258D01*
X92371057Y-77049266D01*
X92431562Y-77195338D01*
X92431562Y-77195339D01*
X92512255Y-77300500D01*
X92527818Y-77320782D01*
X92653259Y-77417036D01*
X92741422Y-77453554D01*
X92787948Y-77493290D01*
X92802232Y-77552785D01*
X92782080Y-77605284D01*
X92728462Y-77675161D01*
X92667957Y-77821233D01*
X92667955Y-77821241D01*
X92647318Y-77977999D01*
X92647318Y-77978000D01*
X92667955Y-78134758D01*
X92667957Y-78134766D01*
X92728462Y-78280838D01*
X92728462Y-78280839D01*
X92789083Y-78359842D01*
X92824718Y-78406282D01*
X92824722Y-78406285D01*
X92824723Y-78406286D01*
X92854082Y-78428813D01*
X92950159Y-78502536D01*
X92950160Y-78502536D01*
X92950161Y-78502537D01*
X92975556Y-78513056D01*
X93096238Y-78563044D01*
X93253000Y-78583682D01*
X93328825Y-78573699D01*
X93388984Y-78584849D01*
X93431102Y-78629231D01*
X93439088Y-78689893D01*
X93411750Y-78741856D01*
X89388025Y-82765580D01*
X89333508Y-82793357D01*
X89282259Y-82787891D01*
X89202460Y-82756977D01*
X89202447Y-82756974D01*
X89001976Y-82719500D01*
X88798024Y-82719500D01*
X88597546Y-82756975D01*
X88597541Y-82756977D01*
X88407363Y-82830652D01*
X88233959Y-82938019D01*
X88083237Y-83075420D01*
X87960328Y-83238177D01*
X87960323Y-83238186D01*
X87869419Y-83420747D01*
X87869418Y-83420750D01*
X87813603Y-83616917D01*
X87794785Y-83820000D01*
X87813603Y-84023083D01*
X87869418Y-84219250D01*
X87960327Y-84401821D01*
X88083236Y-84564579D01*
X88233959Y-84701981D01*
X88407363Y-84809348D01*
X88597544Y-84883024D01*
X88798024Y-84920500D01*
X89001976Y-84920500D01*
X89202456Y-84883024D01*
X89392637Y-84809348D01*
X89566041Y-84701981D01*
X89716764Y-84564579D01*
X89839673Y-84401821D01*
X89930582Y-84219250D01*
X89986397Y-84023083D01*
X90005215Y-83820000D01*
X89986397Y-83616917D01*
X89932118Y-83426148D01*
X89934379Y-83365010D01*
X89957333Y-83329058D01*
X94020096Y-79266294D01*
X94074613Y-79238518D01*
X94135045Y-79248089D01*
X94178310Y-79291354D01*
X94189100Y-79336299D01*
X94189100Y-80135073D01*
X94189100Y-80240527D01*
X94202531Y-80290652D01*
X94216394Y-80342392D01*
X94269116Y-80433708D01*
X94269117Y-80433709D01*
X94269118Y-80433710D01*
X94269120Y-80433713D01*
X94714907Y-80879500D01*
X95145763Y-81310356D01*
X95173540Y-81364873D01*
X95163969Y-81425305D01*
X95120704Y-81468570D01*
X95113645Y-81471824D01*
X94972560Y-81530263D01*
X94847123Y-81626513D01*
X94847116Y-81626520D01*
X94774923Y-81720604D01*
X94724498Y-81755259D01*
X94663334Y-81753657D01*
X94617839Y-81720602D01*
X94611482Y-81712318D01*
X94611477Y-81712314D01*
X94611476Y-81712313D01*
X94534444Y-81653205D01*
X94486041Y-81616064D01*
X94486040Y-81616063D01*
X94486038Y-81616062D01*
X94339966Y-81555557D01*
X94339958Y-81555555D01*
X94183201Y-81534918D01*
X94183199Y-81534918D01*
X94026441Y-81555555D01*
X94026433Y-81555557D01*
X93880361Y-81616062D01*
X93880360Y-81616062D01*
X93754923Y-81712313D01*
X93754913Y-81712323D01*
X93658662Y-81837760D01*
X93658662Y-81837761D01*
X93598157Y-81983833D01*
X93598155Y-81983840D01*
X93583521Y-82094996D01*
X93557180Y-82150221D01*
X93503409Y-82179415D01*
X93442747Y-82171429D01*
X93425109Y-82160620D01*
X93372041Y-82119900D01*
X93372038Y-82119899D01*
X93372036Y-82119897D01*
X93225966Y-82059393D01*
X93225958Y-82059391D01*
X93069201Y-82038754D01*
X93069199Y-82038754D01*
X92912441Y-82059391D01*
X92912433Y-82059393D01*
X92766361Y-82119898D01*
X92766360Y-82119898D01*
X92640923Y-82216149D01*
X92640913Y-82216159D01*
X92544662Y-82341596D01*
X92544662Y-82341597D01*
X92484157Y-82487669D01*
X92484155Y-82487677D01*
X92463518Y-82644435D01*
X92463518Y-82644436D01*
X92484155Y-82801194D01*
X92484157Y-82801202D01*
X92544662Y-82947274D01*
X92544662Y-82947275D01*
X92544664Y-82947277D01*
X92640918Y-83072718D01*
X92640922Y-83072721D01*
X92640923Y-83072722D01*
X92766359Y-83168972D01*
X92812547Y-83188103D01*
X92859072Y-83227838D01*
X92873356Y-83287333D01*
X92849942Y-83343861D01*
X92844669Y-83349567D01*
X92840515Y-83353720D01*
X92744260Y-83479162D01*
X92742391Y-83482400D01*
X92740404Y-83484188D01*
X92740314Y-83484306D01*
X92740292Y-83484289D01*
X92696917Y-83523335D01*
X92636066Y-83529723D01*
X92631043Y-83528517D01*
X92625963Y-83527156D01*
X92469201Y-83506518D01*
X92469199Y-83506518D01*
X92312441Y-83527155D01*
X92312433Y-83527157D01*
X92166361Y-83587662D01*
X92166360Y-83587662D01*
X92040923Y-83683913D01*
X92040913Y-83683923D01*
X91944662Y-83809360D01*
X91944662Y-83809361D01*
X91884157Y-83955433D01*
X91884155Y-83955441D01*
X91863518Y-84112199D01*
X91863518Y-84112200D01*
X91884155Y-84268958D01*
X91884157Y-84268966D01*
X91944662Y-84415038D01*
X91944662Y-84415039D01*
X92044868Y-84545631D01*
X92043483Y-84546693D01*
X92067479Y-84593769D01*
X92068700Y-84609271D01*
X92068700Y-85123898D01*
X92049793Y-85182089D01*
X92039704Y-85193902D01*
X89388025Y-87845580D01*
X89333508Y-87873357D01*
X89282259Y-87867891D01*
X89202460Y-87836977D01*
X89202447Y-87836974D01*
X89001976Y-87799500D01*
X88798024Y-87799500D01*
X88597546Y-87836975D01*
X88597541Y-87836977D01*
X88407363Y-87910652D01*
X88233959Y-88018019D01*
X88083236Y-88155421D01*
X88051894Y-88196924D01*
X87960328Y-88318177D01*
X87960323Y-88318186D01*
X87897173Y-88445010D01*
X87869418Y-88500750D01*
X87813603Y-88696917D01*
X87794785Y-88900000D01*
X87813603Y-89103083D01*
X87869108Y-89298162D01*
X87869419Y-89299252D01*
X87941613Y-89444239D01*
X87960327Y-89481821D01*
X88083236Y-89644579D01*
X88233959Y-89781981D01*
X88407363Y-89889348D01*
X88597544Y-89963024D01*
X88798024Y-90000500D01*
X89001976Y-90000500D01*
X89202456Y-89963024D01*
X89392637Y-89889348D01*
X89566041Y-89781981D01*
X89716764Y-89644579D01*
X89839673Y-89481821D01*
X89930582Y-89299250D01*
X89986397Y-89103083D01*
X90005215Y-88900000D01*
X89986397Y-88696917D01*
X89932118Y-88506148D01*
X89934379Y-88445010D01*
X89957333Y-88409058D01*
X92789680Y-85576713D01*
X92799576Y-85559573D01*
X92842405Y-85485392D01*
X92842405Y-85485390D01*
X92842407Y-85485388D01*
X92869700Y-85383527D01*
X92869700Y-85278073D01*
X92869700Y-84609271D01*
X92888607Y-84551080D01*
X92895915Y-84542524D01*
X92897482Y-84540482D01*
X92993736Y-84415041D01*
X92993740Y-84415030D01*
X92995598Y-84411814D01*
X92997584Y-84410025D01*
X92997686Y-84409893D01*
X92997710Y-84409911D01*
X93041066Y-84370871D01*
X93101916Y-84364472D01*
X93106961Y-84365684D01*
X93112035Y-84367043D01*
X93112038Y-84367044D01*
X93218972Y-84381122D01*
X93268799Y-84387682D01*
X93268800Y-84387682D01*
X93416779Y-84368200D01*
X93476938Y-84379350D01*
X93519056Y-84423732D01*
X93528700Y-84466353D01*
X93528700Y-86203898D01*
X93509793Y-86262089D01*
X93499704Y-86273902D01*
X89388025Y-90385580D01*
X89333508Y-90413357D01*
X89282259Y-90407891D01*
X89202460Y-90376977D01*
X89202447Y-90376974D01*
X89001976Y-90339500D01*
X88798024Y-90339500D01*
X88597546Y-90376975D01*
X88597541Y-90376977D01*
X88407363Y-90450652D01*
X88298342Y-90518155D01*
X88233959Y-90558019D01*
X88083237Y-90695420D01*
X87960328Y-90858177D01*
X87960323Y-90858186D01*
X87872558Y-91034444D01*
X87869418Y-91040750D01*
X87813603Y-91236917D01*
X87794785Y-91440000D01*
X87813603Y-91643083D01*
X87869418Y-91839250D01*
X87960327Y-92021821D01*
X88083236Y-92184579D01*
X88233959Y-92321981D01*
X88407363Y-92429348D01*
X88597544Y-92503024D01*
X88798024Y-92540500D01*
X89001976Y-92540500D01*
X89202456Y-92503024D01*
X89392637Y-92429348D01*
X89566041Y-92321981D01*
X89716764Y-92184579D01*
X89839673Y-92021821D01*
X89930582Y-91839250D01*
X89986397Y-91643083D01*
X90005215Y-91440000D01*
X89986397Y-91236917D01*
X89932118Y-91046148D01*
X89934379Y-90985010D01*
X89957336Y-90949056D01*
X90413297Y-90493096D01*
X90467813Y-90465319D01*
X90528245Y-90474890D01*
X90571510Y-90518155D01*
X90582300Y-90563100D01*
X90582300Y-91690298D01*
X90563393Y-91748489D01*
X90553304Y-91760302D01*
X89388025Y-92925580D01*
X89333508Y-92953357D01*
X89282259Y-92947891D01*
X89202460Y-92916977D01*
X89202447Y-92916974D01*
X89001976Y-92879500D01*
X88798024Y-92879500D01*
X88597546Y-92916975D01*
X88597541Y-92916977D01*
X88407363Y-92990652D01*
X88233959Y-93098019D01*
X88083237Y-93235420D01*
X87960328Y-93398177D01*
X87960323Y-93398186D01*
X87869419Y-93580747D01*
X87869418Y-93580750D01*
X87813603Y-93776917D01*
X87794785Y-93980000D01*
X87813603Y-94183083D01*
X87869418Y-94379250D01*
X87960327Y-94561821D01*
X88083236Y-94724579D01*
X88233959Y-94861981D01*
X88407363Y-94969348D01*
X88597544Y-95043024D01*
X88798024Y-95080500D01*
X89001976Y-95080500D01*
X89202456Y-95043024D01*
X89392637Y-94969348D01*
X89566041Y-94861981D01*
X89716764Y-94724579D01*
X89839673Y-94561821D01*
X89930582Y-94379250D01*
X89986397Y-94183083D01*
X90005215Y-93980000D01*
X89986397Y-93776917D01*
X89932118Y-93586148D01*
X89934379Y-93525010D01*
X89957333Y-93489058D01*
X91303280Y-92143113D01*
X91356007Y-92051788D01*
X91383300Y-91949927D01*
X91383300Y-91844473D01*
X91383300Y-90186500D01*
X91402207Y-90128309D01*
X91412290Y-90116502D01*
X91974967Y-89553824D01*
X92029482Y-89526049D01*
X92089914Y-89535620D01*
X92133179Y-89578885D01*
X92143122Y-89610908D01*
X92164270Y-89771544D01*
X92164272Y-89771552D01*
X92224777Y-89917624D01*
X92224777Y-89917625D01*
X92304186Y-90021113D01*
X92321033Y-90043068D01*
X92446474Y-90139322D01*
X92446475Y-90139322D01*
X92446476Y-90139323D01*
X92592548Y-90199828D01*
X92592553Y-90199830D01*
X92682852Y-90211718D01*
X92749314Y-90220468D01*
X92749315Y-90220468D01*
X92749316Y-90220468D01*
X92780667Y-90216340D01*
X92906077Y-90199830D01*
X93052156Y-90139322D01*
X93177597Y-90043068D01*
X93273851Y-89917627D01*
X93334359Y-89771548D01*
X93354997Y-89614786D01*
X93354486Y-89610908D01*
X93349837Y-89575595D01*
X93334359Y-89458024D01*
X93306614Y-89391041D01*
X93273852Y-89311947D01*
X93273852Y-89311946D01*
X93177601Y-89186509D01*
X93177600Y-89186508D01*
X93177597Y-89186504D01*
X93177592Y-89186500D01*
X93177591Y-89186499D01*
X93067788Y-89102245D01*
X93033132Y-89051821D01*
X93033355Y-89043277D01*
X92988218Y-89056648D01*
X92952924Y-89049146D01*
X92906082Y-89029743D01*
X92906073Y-89029741D01*
X92745437Y-89008593D01*
X92690212Y-88982252D01*
X92661017Y-88928481D01*
X92669003Y-88867819D01*
X92688354Y-88840438D01*
X92732697Y-88796096D01*
X92787214Y-88768319D01*
X92802700Y-88767100D01*
X92872479Y-88767100D01*
X92930670Y-88786007D01*
X92939237Y-88793323D01*
X92941266Y-88794880D01*
X92941268Y-88794882D01*
X93051076Y-88879140D01*
X93085732Y-88929564D01*
X93085508Y-88938107D01*
X93130646Y-88924737D01*
X93165939Y-88932238D01*
X93212788Y-88951644D01*
X93330359Y-88967122D01*
X93369549Y-88972282D01*
X93369550Y-88972282D01*
X93457128Y-88960752D01*
X93517289Y-88971902D01*
X93559406Y-89016284D01*
X93569050Y-89058905D01*
X93569050Y-91243548D01*
X93550143Y-91301739D01*
X93540054Y-91313552D01*
X89388025Y-95465580D01*
X89333508Y-95493357D01*
X89282259Y-95487891D01*
X89202460Y-95456977D01*
X89202447Y-95456974D01*
X89001976Y-95419500D01*
X88798024Y-95419500D01*
X88597546Y-95456975D01*
X88597541Y-95456977D01*
X88407363Y-95530652D01*
X88233959Y-95638019D01*
X88083237Y-95775420D01*
X87960328Y-95938177D01*
X87960323Y-95938186D01*
X87897173Y-96065010D01*
X87869418Y-96120750D01*
X87813603Y-96316917D01*
X87794785Y-96520000D01*
X87813603Y-96723083D01*
X87869418Y-96919250D01*
X87960327Y-97101821D01*
X88083236Y-97264579D01*
X88233959Y-97401981D01*
X88407363Y-97509348D01*
X88597544Y-97583024D01*
X88798024Y-97620500D01*
X89001976Y-97620500D01*
X89202456Y-97583024D01*
X89392637Y-97509348D01*
X89566041Y-97401981D01*
X89716764Y-97264579D01*
X89839673Y-97101821D01*
X89930582Y-96919250D01*
X89986397Y-96723083D01*
X90005215Y-96520000D01*
X89986397Y-96316917D01*
X89932118Y-96126148D01*
X89934379Y-96065010D01*
X89957333Y-96029058D01*
X94290030Y-91696363D01*
X94296063Y-91685913D01*
X94342757Y-91605037D01*
X94370050Y-91503177D01*
X94370050Y-90240105D01*
X94388957Y-90181914D01*
X94438457Y-90145950D01*
X94481971Y-90141952D01*
X94569550Y-90153482D01*
X94569551Y-90153482D01*
X94622120Y-90146561D01*
X94726312Y-90132844D01*
X94800747Y-90102012D01*
X94872387Y-90072338D01*
X94872387Y-90072337D01*
X94872391Y-90072336D01*
X94893002Y-90056520D01*
X94950674Y-90036096D01*
X95009340Y-90053472D01*
X95046589Y-90102012D01*
X95048192Y-90163177D01*
X95044732Y-90172947D01*
X94995157Y-90292632D01*
X94995155Y-90292641D01*
X94974518Y-90449399D01*
X94974518Y-90449400D01*
X94995155Y-90606158D01*
X94995157Y-90606166D01*
X95055662Y-90752238D01*
X95055662Y-90752239D01*
X95136958Y-90858186D01*
X95151918Y-90877682D01*
X95277359Y-90973936D01*
X95277360Y-90973936D01*
X95277361Y-90973937D01*
X95365642Y-91010504D01*
X95423438Y-91034444D01*
X95541009Y-91049922D01*
X95580199Y-91055082D01*
X95580200Y-91055082D01*
X95580201Y-91055082D01*
X95611552Y-91050954D01*
X95736962Y-91034444D01*
X95883041Y-90973936D01*
X96008482Y-90877682D01*
X96104736Y-90752241D01*
X96165244Y-90606162D01*
X96185882Y-90449400D01*
X96165244Y-90292638D01*
X96159887Y-90279704D01*
X96104737Y-90146561D01*
X96104737Y-90146560D01*
X96008486Y-90021123D01*
X96008485Y-90021122D01*
X96008482Y-90021118D01*
X96008477Y-90021114D01*
X96008476Y-90021113D01*
X95883038Y-89924862D01*
X95736966Y-89864357D01*
X95736958Y-89864355D01*
X95580201Y-89843718D01*
X95580199Y-89843718D01*
X95423441Y-89864355D01*
X95423433Y-89864357D01*
X95277361Y-89924862D01*
X95256747Y-89940680D01*
X95199071Y-89961103D01*
X95140406Y-89943725D01*
X95103159Y-89895183D01*
X95101558Y-89834018D01*
X95105017Y-89824251D01*
X95154594Y-89704562D01*
X95175232Y-89547800D01*
X95173628Y-89535620D01*
X95166544Y-89481810D01*
X95154594Y-89391038D01*
X95131498Y-89335280D01*
X95094087Y-89244961D01*
X95094087Y-89244960D01*
X94997836Y-89119523D01*
X94997835Y-89119522D01*
X94997832Y-89119518D01*
X94997827Y-89119514D01*
X94997826Y-89119513D01*
X94906121Y-89049146D01*
X94872391Y-89023264D01*
X94872390Y-89023263D01*
X94872388Y-89023262D01*
X94726316Y-88962757D01*
X94726308Y-88962755D01*
X94569551Y-88942118D01*
X94569548Y-88942118D01*
X94481971Y-88953647D01*
X94421811Y-88942497D01*
X94379694Y-88898114D01*
X94370050Y-88855494D01*
X94370050Y-88263671D01*
X94388957Y-88205480D01*
X94396265Y-88196924D01*
X94428112Y-88155420D01*
X94494086Y-88069441D01*
X94554594Y-87923362D01*
X94575232Y-87766600D01*
X94554594Y-87609838D01*
X94494087Y-87463761D01*
X94494087Y-87463760D01*
X94397836Y-87338323D01*
X94397835Y-87338322D01*
X94397832Y-87338318D01*
X94397827Y-87338314D01*
X94397826Y-87338313D01*
X94326654Y-87283701D01*
X94272391Y-87242064D01*
X94272390Y-87242063D01*
X94272388Y-87242062D01*
X94126316Y-87181557D01*
X94126308Y-87181555D01*
X93970577Y-87161053D01*
X93915352Y-87134712D01*
X93886157Y-87080941D01*
X93894143Y-87020279D01*
X93913496Y-86992896D01*
X94249680Y-86656713D01*
X94293289Y-86581181D01*
X94302405Y-86565392D01*
X94302405Y-86565390D01*
X94302407Y-86565388D01*
X94329700Y-86463527D01*
X94329700Y-86358073D01*
X94329700Y-82796044D01*
X94348607Y-82737853D01*
X94390815Y-82704580D01*
X94403136Y-82699476D01*
X94486041Y-82665136D01*
X94611482Y-82568882D01*
X94683677Y-82474795D01*
X94734100Y-82440140D01*
X94795264Y-82441741D01*
X94840760Y-82474796D01*
X94847118Y-82483082D01*
X94972559Y-82579336D01*
X95118638Y-82639844D01*
X95236209Y-82655322D01*
X95275399Y-82660482D01*
X95275400Y-82660482D01*
X95275401Y-82660482D01*
X95306752Y-82656354D01*
X95432162Y-82639844D01*
X95578241Y-82579336D01*
X95703682Y-82483082D01*
X95799936Y-82357641D01*
X95858376Y-82216553D01*
X95898111Y-82170029D01*
X95957606Y-82155745D01*
X96014134Y-82179159D01*
X96019843Y-82184436D01*
X96089904Y-82254497D01*
X96117681Y-82309014D01*
X96118900Y-82324501D01*
X96118900Y-84322931D01*
X96099993Y-84381122D01*
X96092676Y-84389689D01*
X95994862Y-84517162D01*
X95994862Y-84517163D01*
X95934357Y-84663235D01*
X95934355Y-84663243D01*
X95913718Y-84820001D01*
X95913718Y-84820002D01*
X95934355Y-84976760D01*
X95934357Y-84976768D01*
X95994862Y-85122840D01*
X95994862Y-85122841D01*
X96049389Y-85193902D01*
X96091118Y-85248284D01*
X96216559Y-85344538D01*
X96216560Y-85344538D01*
X96216561Y-85344539D01*
X96362633Y-85405044D01*
X96362638Y-85405046D01*
X96480209Y-85420524D01*
X96519399Y-85425684D01*
X96519400Y-85425684D01*
X96519401Y-85425684D01*
X96550752Y-85421556D01*
X96676162Y-85405046D01*
X96822241Y-85344538D01*
X96947682Y-85248284D01*
X97043936Y-85122843D01*
X97104444Y-84976764D01*
X97125082Y-84820002D01*
X97104444Y-84663240D01*
X97075668Y-84593769D01*
X97043937Y-84517163D01*
X97043937Y-84517162D01*
X96943732Y-84386572D01*
X96945113Y-84385511D01*
X96921119Y-84338418D01*
X96919900Y-84322931D01*
X96919900Y-82064874D01*
X96919900Y-82064873D01*
X96892607Y-81963013D01*
X96839880Y-81871687D01*
X96805952Y-81837759D01*
X96765313Y-81797119D01*
X96765313Y-81797120D01*
X95019096Y-80050903D01*
X94991319Y-79996386D01*
X94990100Y-79980899D01*
X94990100Y-77739770D01*
X95009007Y-77681579D01*
X95058507Y-77645615D01*
X95119693Y-77645615D01*
X95126976Y-77648303D01*
X95145056Y-77655792D01*
X95163432Y-77663404D01*
X95163434Y-77663404D01*
X95163438Y-77663406D01*
X95237151Y-77673110D01*
X95292376Y-77699451D01*
X95321571Y-77753221D01*
X95322382Y-77758340D01*
X95335155Y-77855359D01*
X95335157Y-77855366D01*
X95395662Y-78001438D01*
X95395662Y-78001439D01*
X95454134Y-78077641D01*
X95491918Y-78126882D01*
X95617359Y-78223136D01*
X95617360Y-78223136D01*
X95617361Y-78223137D01*
X95638507Y-78231896D01*
X95763438Y-78283644D01*
X95881009Y-78299122D01*
X95920199Y-78304282D01*
X95920200Y-78304282D01*
X95920201Y-78304282D01*
X95957769Y-78299336D01*
X96076962Y-78283644D01*
X96223041Y-78223136D01*
X96270916Y-78186399D01*
X96328589Y-78165977D01*
X96387255Y-78183354D01*
X96424502Y-78231896D01*
X96429334Y-78252020D01*
X96444468Y-78366974D01*
X96444470Y-78366981D01*
X96504975Y-78513053D01*
X96504975Y-78513054D01*
X96594121Y-78629231D01*
X96601231Y-78638497D01*
X96726672Y-78734751D01*
X96872751Y-78795259D01*
X97029513Y-78815897D01*
X97035946Y-78816744D01*
X97035718Y-78818471D01*
X97085985Y-78834804D01*
X97097798Y-78844893D01*
X97589104Y-79336199D01*
X97616881Y-79390716D01*
X97618100Y-79406203D01*
X97618100Y-94052498D01*
X97599193Y-94110689D01*
X97589104Y-94122502D01*
X90163360Y-101548245D01*
X90108843Y-101576022D01*
X90048411Y-101566451D01*
X90005146Y-101523186D01*
X89994779Y-101487380D01*
X89986397Y-101396917D01*
X89930582Y-101200750D01*
X89839673Y-101018179D01*
X89716764Y-100855421D01*
X89566041Y-100718019D01*
X89392637Y-100610652D01*
X89202456Y-100536976D01*
X89202455Y-100536975D01*
X89202453Y-100536975D01*
X89001976Y-100499500D01*
X88798024Y-100499500D01*
X88597546Y-100536975D01*
X88527632Y-100564059D01*
X88407363Y-100610652D01*
X88298676Y-100677948D01*
X88233959Y-100718019D01*
X88083237Y-100855420D01*
X87960328Y-101018177D01*
X87960323Y-101018186D01*
X87869419Y-101200747D01*
X87869418Y-101200750D01*
X87813603Y-101396917D01*
X87794785Y-101600000D01*
X87813603Y-101803083D01*
X87869418Y-101999250D01*
X87960327Y-102181821D01*
X88083236Y-102344579D01*
X88095979Y-102356196D01*
X88126246Y-102409369D01*
X88119477Y-102470179D01*
X88078786Y-102515094D01*
X88018986Y-102549620D01*
X87944419Y-102624186D01*
X87944420Y-102624187D01*
X86852316Y-103716291D01*
X86799592Y-103807611D01*
X86798627Y-103811217D01*
X86798625Y-103811225D01*
X86772300Y-103909473D01*
X86772300Y-105333197D01*
X86753393Y-105391388D01*
X86703893Y-105427352D01*
X86642707Y-105427352D01*
X86635415Y-105424661D01*
X86567567Y-105396557D01*
X86567558Y-105396555D01*
X86410801Y-105375918D01*
X86410799Y-105375918D01*
X86254041Y-105396555D01*
X86254033Y-105396557D01*
X86107961Y-105457062D01*
X86107960Y-105457062D01*
X85982523Y-105553313D01*
X85982513Y-105553323D01*
X85886262Y-105678760D01*
X85886262Y-105678761D01*
X85825757Y-105824833D01*
X85825755Y-105824841D01*
X85805118Y-105981599D01*
X85190500Y-105981599D01*
X85190500Y-99060000D01*
X87794785Y-99060000D01*
X87813603Y-99263083D01*
X87869418Y-99459250D01*
X87960327Y-99641821D01*
X88083236Y-99804579D01*
X88233959Y-99941981D01*
X88407363Y-100049348D01*
X88597544Y-100123024D01*
X88798024Y-100160500D01*
X89001976Y-100160500D01*
X89202456Y-100123024D01*
X89392637Y-100049348D01*
X89566041Y-99941981D01*
X89716764Y-99804579D01*
X89839673Y-99641821D01*
X89930582Y-99459250D01*
X89986397Y-99263083D01*
X90005215Y-99060000D01*
X89986397Y-98856917D01*
X89930582Y-98660750D01*
X89839673Y-98478179D01*
X89716764Y-98315421D01*
X89566041Y-98178019D01*
X89392637Y-98070652D01*
X89202456Y-97996976D01*
X89202455Y-97996975D01*
X89202453Y-97996975D01*
X89001976Y-97959500D01*
X88798024Y-97959500D01*
X88597546Y-97996975D01*
X88527632Y-98024059D01*
X88407363Y-98070652D01*
X88273207Y-98153718D01*
X88233959Y-98178019D01*
X88083237Y-98315420D01*
X87960328Y-98478177D01*
X87960323Y-98478186D01*
X87877989Y-98643537D01*
X87869418Y-98660750D01*
X87813603Y-98856917D01*
X87794785Y-99060000D01*
X85190500Y-99060000D01*
X85190500Y-97599599D01*
X86694118Y-97599599D01*
X86694118Y-97599600D01*
X86714755Y-97756358D01*
X86714757Y-97756366D01*
X86775262Y-97902438D01*
X86775262Y-97902439D01*
X86821150Y-97962241D01*
X86871518Y-98027882D01*
X86996959Y-98124136D01*
X86996960Y-98124136D01*
X86996961Y-98124137D01*
X87000090Y-98125433D01*
X87143038Y-98184644D01*
X87260609Y-98200122D01*
X87299799Y-98205282D01*
X87299800Y-98205282D01*
X87299801Y-98205282D01*
X87331152Y-98201154D01*
X87456562Y-98184644D01*
X87602641Y-98124136D01*
X87728082Y-98027882D01*
X87824336Y-97902441D01*
X87884844Y-97756362D01*
X87905482Y-97599600D01*
X87884844Y-97442838D01*
X87884842Y-97442833D01*
X87824337Y-97296761D01*
X87824337Y-97296760D01*
X87728086Y-97171323D01*
X87728085Y-97171322D01*
X87728082Y-97171318D01*
X87728077Y-97171314D01*
X87728076Y-97171313D01*
X87602638Y-97075062D01*
X87456566Y-97014557D01*
X87456558Y-97014555D01*
X87299801Y-96993918D01*
X87299799Y-96993918D01*
X87143041Y-97014555D01*
X87143033Y-97014557D01*
X86996961Y-97075062D01*
X86996960Y-97075062D01*
X86871523Y-97171313D01*
X86871513Y-97171323D01*
X86775262Y-97296760D01*
X86775262Y-97296761D01*
X86714757Y-97442833D01*
X86714755Y-97442841D01*
X86694118Y-97599599D01*
X85190500Y-97599599D01*
X85190500Y-86360000D01*
X87794785Y-86360000D01*
X87813603Y-86563083D01*
X87869418Y-86759250D01*
X87960327Y-86941821D01*
X88083236Y-87104579D01*
X88233959Y-87241981D01*
X88407363Y-87349348D01*
X88597544Y-87423024D01*
X88798024Y-87460500D01*
X89001976Y-87460500D01*
X89202456Y-87423024D01*
X89392637Y-87349348D01*
X89566041Y-87241981D01*
X89716764Y-87104579D01*
X89839673Y-86941821D01*
X89930582Y-86759250D01*
X89986397Y-86563083D01*
X90005215Y-86360000D01*
X89986397Y-86156917D01*
X89930582Y-85960750D01*
X89839673Y-85778179D01*
X89716764Y-85615421D01*
X89566041Y-85478019D01*
X89392637Y-85370652D01*
X89202456Y-85296976D01*
X89202455Y-85296975D01*
X89202453Y-85296975D01*
X89001976Y-85259500D01*
X88798024Y-85259500D01*
X88597546Y-85296975D01*
X88579312Y-85304039D01*
X88407363Y-85370652D01*
X88233959Y-85478019D01*
X88083236Y-85615421D01*
X88069951Y-85633013D01*
X87960328Y-85778177D01*
X87960323Y-85778186D01*
X87897173Y-85905010D01*
X87869418Y-85960750D01*
X87813603Y-86156917D01*
X87794785Y-86360000D01*
X85190500Y-86360000D01*
X85190500Y-81280000D01*
X87794785Y-81280000D01*
X87813603Y-81483083D01*
X87869418Y-81679250D01*
X87960327Y-81861821D01*
X88083236Y-82024579D01*
X88233959Y-82161981D01*
X88407363Y-82269348D01*
X88597544Y-82343024D01*
X88798024Y-82380500D01*
X89001976Y-82380500D01*
X89202456Y-82343024D01*
X89392637Y-82269348D01*
X89566041Y-82161981D01*
X89716764Y-82024579D01*
X89839673Y-81861821D01*
X89930582Y-81679250D01*
X89986397Y-81483083D01*
X90005215Y-81280000D01*
X89986397Y-81076917D01*
X89930582Y-80880750D01*
X89839673Y-80698179D01*
X89716764Y-80535421D01*
X89566041Y-80398019D01*
X89392637Y-80290652D01*
X89202456Y-80216976D01*
X89202455Y-80216975D01*
X89202453Y-80216975D01*
X89001976Y-80179500D01*
X88798024Y-80179500D01*
X88597546Y-80216975D01*
X88536757Y-80240525D01*
X88407363Y-80290652D01*
X88233959Y-80398019D01*
X88083237Y-80535420D01*
X87960328Y-80698177D01*
X87960323Y-80698186D01*
X87870040Y-80879500D01*
X87869418Y-80880750D01*
X87813603Y-81076917D01*
X87794785Y-81280000D01*
X85190500Y-81280000D01*
X85190500Y-78740000D01*
X87794785Y-78740000D01*
X87813603Y-78943083D01*
X87861924Y-79112913D01*
X87869419Y-79139252D01*
X87932678Y-79266295D01*
X87960327Y-79321821D01*
X88083236Y-79484579D01*
X88233959Y-79621981D01*
X88407363Y-79729348D01*
X88597544Y-79803024D01*
X88798024Y-79840500D01*
X89001976Y-79840500D01*
X89202456Y-79803024D01*
X89392637Y-79729348D01*
X89566041Y-79621981D01*
X89716764Y-79484579D01*
X89839673Y-79321821D01*
X89930582Y-79139250D01*
X89986397Y-78943083D01*
X90005215Y-78740000D01*
X89986397Y-78536917D01*
X89930582Y-78340750D01*
X89839673Y-78158179D01*
X89716764Y-77995421D01*
X89566041Y-77858019D01*
X89392637Y-77750652D01*
X89202456Y-77676976D01*
X89202455Y-77676975D01*
X89202453Y-77676975D01*
X89001976Y-77639500D01*
X88798024Y-77639500D01*
X88597546Y-77676975D01*
X88575076Y-77685680D01*
X88407363Y-77750652D01*
X88233959Y-77858019D01*
X88083236Y-77995421D01*
X88078690Y-78001441D01*
X87960328Y-78158177D01*
X87960323Y-78158186D01*
X87870040Y-78339500D01*
X87869418Y-78340750D01*
X87813603Y-78536917D01*
X87794785Y-78740000D01*
X85190500Y-78740000D01*
X85190500Y-76200000D01*
X87794785Y-76200000D01*
X87813603Y-76403083D01*
X87869418Y-76599250D01*
X87960327Y-76781821D01*
X88083236Y-76944579D01*
X88233959Y-77081981D01*
X88407363Y-77189348D01*
X88597544Y-77263024D01*
X88798024Y-77300500D01*
X89001976Y-77300500D01*
X89202456Y-77263024D01*
X89392637Y-77189348D01*
X89566041Y-77081981D01*
X89716764Y-76944579D01*
X89839673Y-76781821D01*
X89930582Y-76599250D01*
X89986397Y-76403083D01*
X90005215Y-76200000D01*
X89986397Y-75996917D01*
X89930582Y-75800750D01*
X89839673Y-75618179D01*
X89716764Y-75455421D01*
X89566041Y-75318019D01*
X89392637Y-75210652D01*
X89202456Y-75136976D01*
X89202455Y-75136975D01*
X89202453Y-75136975D01*
X89001976Y-75099500D01*
X88798024Y-75099500D01*
X88597546Y-75136975D01*
X88527632Y-75164059D01*
X88407363Y-75210652D01*
X88233959Y-75318019D01*
X88083237Y-75455420D01*
X87960328Y-75618177D01*
X87960323Y-75618186D01*
X87870040Y-75799500D01*
X87869418Y-75800750D01*
X87813603Y-75996917D01*
X87794785Y-76200000D01*
X85190500Y-76200000D01*
X85190500Y-68580000D01*
X87794785Y-68580000D01*
X87813603Y-68783083D01*
X87869418Y-68979250D01*
X87960327Y-69161821D01*
X88083236Y-69324579D01*
X88233959Y-69461981D01*
X88407363Y-69569348D01*
X88597544Y-69643024D01*
X88798024Y-69680500D01*
X89001976Y-69680500D01*
X89202456Y-69643024D01*
X89392637Y-69569348D01*
X89566041Y-69461981D01*
X89716764Y-69324579D01*
X89839673Y-69161821D01*
X89930582Y-68979250D01*
X89986397Y-68783083D01*
X90005215Y-68580000D01*
X90005215Y-68579999D01*
X94669718Y-68579999D01*
X94669718Y-68580000D01*
X94690355Y-68736758D01*
X94690357Y-68736766D01*
X94750862Y-68882838D01*
X94750862Y-68882839D01*
X94847113Y-69008276D01*
X94847118Y-69008282D01*
X94972559Y-69104536D01*
X95118638Y-69165044D01*
X95236209Y-69180522D01*
X95275399Y-69185682D01*
X95275400Y-69185682D01*
X95275401Y-69185682D01*
X95306752Y-69181554D01*
X95432162Y-69165044D01*
X95578241Y-69104536D01*
X95703682Y-69008282D01*
X95799936Y-68882841D01*
X95860444Y-68736762D01*
X95881082Y-68580000D01*
X95860444Y-68423238D01*
X95799937Y-68277161D01*
X95799937Y-68277160D01*
X95703686Y-68151723D01*
X95703685Y-68151722D01*
X95703682Y-68151718D01*
X95703677Y-68151714D01*
X95703676Y-68151713D01*
X95578238Y-68055462D01*
X95432166Y-67994957D01*
X95432158Y-67994955D01*
X95275401Y-67974318D01*
X95275399Y-67974318D01*
X95118641Y-67994955D01*
X95118633Y-67994957D01*
X94972561Y-68055462D01*
X94972560Y-68055462D01*
X94847123Y-68151713D01*
X94847113Y-68151723D01*
X94750862Y-68277160D01*
X94750862Y-68277161D01*
X94690357Y-68423233D01*
X94690355Y-68423241D01*
X94669718Y-68579999D01*
X90005215Y-68579999D01*
X89986397Y-68376917D01*
X89930582Y-68180750D01*
X89839673Y-67998179D01*
X89716764Y-67835421D01*
X89566041Y-67698019D01*
X89392637Y-67590652D01*
X89202456Y-67516976D01*
X89202455Y-67516975D01*
X89202453Y-67516975D01*
X89001976Y-67479500D01*
X88798024Y-67479500D01*
X88597546Y-67516975D01*
X88562980Y-67530366D01*
X88407363Y-67590652D01*
X88324175Y-67642160D01*
X88233959Y-67698019D01*
X88083237Y-67835420D01*
X87960328Y-67998177D01*
X87960323Y-67998186D01*
X87869419Y-68180747D01*
X87869418Y-68180750D01*
X87813603Y-68376917D01*
X87794785Y-68580000D01*
X85190500Y-68580000D01*
X85190500Y-59134999D01*
X85805118Y-59134999D01*
X85805118Y-59135000D01*
X85825755Y-59291758D01*
X85825757Y-59291766D01*
X85886262Y-59437838D01*
X85886262Y-59437839D01*
X85949690Y-59520500D01*
X85982518Y-59563282D01*
X86107959Y-59659536D01*
X86107960Y-59659536D01*
X86107961Y-59659537D01*
X86186184Y-59691938D01*
X86254038Y-59720044D01*
X86371609Y-59735522D01*
X86410799Y-59740682D01*
X86410800Y-59740682D01*
X86410801Y-59740682D01*
X86442152Y-59736554D01*
X86567562Y-59720044D01*
X86635416Y-59691937D01*
X86696410Y-59687137D01*
X86748580Y-59719106D01*
X86771995Y-59775634D01*
X86772300Y-59783402D01*
X86772300Y-64676597D01*
X86753393Y-64734788D01*
X86703893Y-64770752D01*
X86642707Y-64770752D01*
X86635415Y-64768061D01*
X86567567Y-64739957D01*
X86567558Y-64739955D01*
X86410801Y-64719318D01*
X86410799Y-64719318D01*
X86254041Y-64739955D01*
X86254033Y-64739957D01*
X86107961Y-64800462D01*
X86107960Y-64800462D01*
X85982523Y-64896713D01*
X85982513Y-64896723D01*
X85886262Y-65022160D01*
X85886262Y-65022161D01*
X85825757Y-65168233D01*
X85825755Y-65168241D01*
X85805118Y-65324999D01*
X85805118Y-65325000D01*
X85825755Y-65481758D01*
X85825757Y-65481766D01*
X85886262Y-65627838D01*
X85886262Y-65627839D01*
X85886264Y-65627841D01*
X85982518Y-65753282D01*
X86107959Y-65849536D01*
X86107960Y-65849536D01*
X86107961Y-65849537D01*
X86186184Y-65881938D01*
X86254038Y-65910044D01*
X86359787Y-65923966D01*
X86410799Y-65930682D01*
X86410800Y-65930682D01*
X86410801Y-65930682D01*
X86461813Y-65923966D01*
X86567562Y-65910044D01*
X86635416Y-65881937D01*
X86696410Y-65877137D01*
X86748580Y-65909106D01*
X86771995Y-65965634D01*
X86772300Y-65973402D01*
X86772300Y-66876529D01*
X86753393Y-66934720D01*
X86746076Y-66943287D01*
X86648262Y-67070760D01*
X86648262Y-67070761D01*
X86587757Y-67216833D01*
X86587755Y-67216841D01*
X86567118Y-67373599D01*
X86567118Y-67373600D01*
X86587755Y-67530358D01*
X86587757Y-67530366D01*
X86648262Y-67676438D01*
X86648262Y-67676439D01*
X86734051Y-67788241D01*
X86744518Y-67801882D01*
X86869959Y-67898136D01*
X86869960Y-67898136D01*
X86869961Y-67898137D01*
X86985254Y-67945893D01*
X87016038Y-67958644D01*
X87133609Y-67974122D01*
X87172799Y-67979282D01*
X87172800Y-67979282D01*
X87172801Y-67979282D01*
X87204152Y-67975154D01*
X87329562Y-67958644D01*
X87475641Y-67898136D01*
X87601082Y-67801882D01*
X87697336Y-67676441D01*
X87757844Y-67530362D01*
X87778482Y-67373600D01*
X87776197Y-67356247D01*
X87757844Y-67216841D01*
X87757844Y-67216838D01*
X87711453Y-67104841D01*
X87697337Y-67070761D01*
X87697337Y-67070760D01*
X87597132Y-66940170D01*
X87598513Y-66939109D01*
X87574519Y-66892016D01*
X87573300Y-66876529D01*
X87573300Y-66040000D01*
X87794785Y-66040000D01*
X87813603Y-66243083D01*
X87869418Y-66439250D01*
X87960327Y-66621821D01*
X88083236Y-66784579D01*
X88233959Y-66921981D01*
X88407363Y-67029348D01*
X88597544Y-67103024D01*
X88798024Y-67140500D01*
X89001976Y-67140500D01*
X89202456Y-67103024D01*
X89392637Y-67029348D01*
X89566041Y-66921981D01*
X89716764Y-66784579D01*
X89839673Y-66621821D01*
X89930582Y-66439250D01*
X89986397Y-66243083D01*
X90005215Y-66040000D01*
X89986397Y-65836917D01*
X89930582Y-65640750D01*
X89839673Y-65458179D01*
X89716764Y-65295421D01*
X89566041Y-65158019D01*
X89392637Y-65050652D01*
X89202456Y-64976976D01*
X89202455Y-64976975D01*
X89202453Y-64976975D01*
X89001976Y-64939500D01*
X88798024Y-64939500D01*
X88597546Y-64976975D01*
X88575334Y-64985580D01*
X88407363Y-65050652D01*
X88233959Y-65158019D01*
X88083237Y-65295420D01*
X87960328Y-65458177D01*
X87960323Y-65458186D01*
X87869419Y-65640747D01*
X87869418Y-65640750D01*
X87813603Y-65836917D01*
X87794785Y-66040000D01*
X87573300Y-66040000D01*
X87573300Y-63500000D01*
X87794785Y-63500000D01*
X87813603Y-63703083D01*
X87869418Y-63899250D01*
X87960327Y-64081821D01*
X88083236Y-64244579D01*
X88233959Y-64381981D01*
X88407363Y-64489348D01*
X88597544Y-64563024D01*
X88798024Y-64600500D01*
X89001976Y-64600500D01*
X89202456Y-64563024D01*
X89392637Y-64489348D01*
X89566041Y-64381981D01*
X89716764Y-64244579D01*
X89839673Y-64081821D01*
X89877740Y-64005371D01*
X89920603Y-63961709D01*
X89966361Y-63950500D01*
X92989911Y-63950500D01*
X93080271Y-63926287D01*
X93080274Y-63926287D01*
X93080274Y-63926286D01*
X93080275Y-63926286D01*
X93104489Y-63919799D01*
X93117630Y-63912211D01*
X93154206Y-63899794D01*
X93290564Y-63881844D01*
X93436643Y-63821336D01*
X93562084Y-63725082D01*
X93658338Y-63599641D01*
X93718846Y-63453562D01*
X93739484Y-63296800D01*
X93718846Y-63140038D01*
X93700639Y-63096083D01*
X93658339Y-62993961D01*
X93658339Y-62993960D01*
X93562088Y-62868523D01*
X93562087Y-62868522D01*
X93562084Y-62868518D01*
X93562079Y-62868514D01*
X93562078Y-62868513D01*
X93436640Y-62772262D01*
X93290568Y-62711757D01*
X93290560Y-62711755D01*
X93133803Y-62691118D01*
X93133801Y-62691118D01*
X92977043Y-62711755D01*
X92977035Y-62711757D01*
X92959115Y-62719180D01*
X92898118Y-62723979D01*
X92845950Y-62692008D01*
X92822537Y-62635480D01*
X92836822Y-62575985D01*
X92860963Y-62549175D01*
X92884282Y-62531282D01*
X92980536Y-62405841D01*
X93041044Y-62259762D01*
X93061682Y-62103000D01*
X93041044Y-61946238D01*
X92980537Y-61800161D01*
X92980537Y-61800160D01*
X92884286Y-61674723D01*
X92884285Y-61674722D01*
X92884282Y-61674718D01*
X92884277Y-61674714D01*
X92884276Y-61674713D01*
X92758838Y-61578462D01*
X92612766Y-61517957D01*
X92612758Y-61517955D01*
X92456001Y-61497318D01*
X92455999Y-61497318D01*
X92299241Y-61517955D01*
X92299233Y-61517957D01*
X92153161Y-61578462D01*
X92153160Y-61578462D01*
X92027723Y-61674713D01*
X92027713Y-61674723D01*
X91931462Y-61800160D01*
X91931462Y-61800161D01*
X91870957Y-61946233D01*
X91870955Y-61946241D01*
X91850318Y-62102999D01*
X91850318Y-62103000D01*
X91870955Y-62259758D01*
X91870957Y-62259766D01*
X91931462Y-62405838D01*
X91931462Y-62405839D01*
X91998207Y-62492823D01*
X92027718Y-62531282D01*
X92153159Y-62627536D01*
X92299238Y-62688044D01*
X92416809Y-62703522D01*
X92455999Y-62708682D01*
X92456000Y-62708682D01*
X92456001Y-62708682D01*
X92487352Y-62704554D01*
X92612762Y-62688044D01*
X92630683Y-62680620D01*
X92691678Y-62675819D01*
X92743848Y-62707787D01*
X92767264Y-62764314D01*
X92752982Y-62823809D01*
X92728838Y-62850625D01*
X92705523Y-62868515D01*
X92705515Y-62868523D01*
X92609264Y-62993960D01*
X92606019Y-62999582D01*
X92603341Y-62998036D01*
X92571803Y-63034932D01*
X92520110Y-63049500D01*
X89966361Y-63049500D01*
X89908170Y-63030593D01*
X89877740Y-62994628D01*
X89877407Y-62993959D01*
X89839673Y-62918179D01*
X89716764Y-62755421D01*
X89566041Y-62618019D01*
X89392637Y-62510652D01*
X89202456Y-62436976D01*
X89202455Y-62436975D01*
X89202453Y-62436975D01*
X89001976Y-62399500D01*
X88798024Y-62399500D01*
X88597546Y-62436975D01*
X88597536Y-62436979D01*
X88407363Y-62510652D01*
X88233959Y-62618019D01*
X88122991Y-62719180D01*
X88083236Y-62755421D01*
X88076506Y-62764333D01*
X87960328Y-62918177D01*
X87960323Y-62918186D01*
X87869419Y-63100747D01*
X87869418Y-63100750D01*
X87813603Y-63296917D01*
X87794785Y-63500000D01*
X87573300Y-63500000D01*
X87573300Y-60960000D01*
X87794785Y-60960000D01*
X87813603Y-61163083D01*
X87869418Y-61359250D01*
X87960327Y-61541821D01*
X88083236Y-61704579D01*
X88233959Y-61841981D01*
X88407363Y-61949348D01*
X88597544Y-62023024D01*
X88798024Y-62060500D01*
X89001976Y-62060500D01*
X89202456Y-62023024D01*
X89392637Y-61949348D01*
X89566041Y-61841981D01*
X89716764Y-61704579D01*
X89839673Y-61541821D01*
X89930582Y-61359250D01*
X89986397Y-61163083D01*
X90005215Y-60960000D01*
X89986397Y-60756917D01*
X89930582Y-60560750D01*
X89839673Y-60378179D01*
X89716764Y-60215421D01*
X89566041Y-60078019D01*
X89392637Y-59970652D01*
X89202456Y-59896976D01*
X89202455Y-59896975D01*
X89202453Y-59896975D01*
X89001976Y-59859500D01*
X88798024Y-59859500D01*
X88597546Y-59896975D01*
X88527632Y-59924059D01*
X88407363Y-59970652D01*
X88233959Y-60078019D01*
X88083236Y-60215421D01*
X88074205Y-60227380D01*
X87960328Y-60378177D01*
X87960323Y-60378186D01*
X87869419Y-60560747D01*
X87869418Y-60560750D01*
X87813603Y-60756917D01*
X87794785Y-60960000D01*
X87573300Y-60960000D01*
X87573300Y-58420000D01*
X87794785Y-58420000D01*
X87813603Y-58623083D01*
X87869418Y-58819250D01*
X87960327Y-59001821D01*
X88083236Y-59164579D01*
X88233959Y-59301981D01*
X88407363Y-59409348D01*
X88597544Y-59483024D01*
X88798024Y-59520500D01*
X89001976Y-59520500D01*
X89202456Y-59483024D01*
X89392637Y-59409348D01*
X89566041Y-59301981D01*
X89716764Y-59164579D01*
X89839673Y-59001821D01*
X89930582Y-58819250D01*
X89986397Y-58623083D01*
X90005215Y-58420000D01*
X89986397Y-58216917D01*
X89930582Y-58020750D01*
X89839673Y-57838179D01*
X89716764Y-57675421D01*
X89566041Y-57538019D01*
X89392637Y-57430652D01*
X89202456Y-57356976D01*
X89202455Y-57356975D01*
X89202453Y-57356975D01*
X89001976Y-57319500D01*
X88798024Y-57319500D01*
X88597546Y-57356975D01*
X88527632Y-57384059D01*
X88407363Y-57430652D01*
X88233959Y-57538019D01*
X88083237Y-57675420D01*
X87960328Y-57838177D01*
X87960323Y-57838186D01*
X87875413Y-58008710D01*
X87869418Y-58020750D01*
X87813603Y-58216917D01*
X87794785Y-58420000D01*
X87573300Y-58420000D01*
X87573300Y-57814099D01*
X87592207Y-57755908D01*
X87602290Y-57744101D01*
X88411974Y-56934416D01*
X88466489Y-56906641D01*
X88517738Y-56912106D01*
X88597544Y-56943024D01*
X88798024Y-56980500D01*
X89001976Y-56980500D01*
X89202456Y-56943024D01*
X89392637Y-56869348D01*
X89566041Y-56761981D01*
X89716764Y-56624579D01*
X89839673Y-56461821D01*
X89930582Y-56279250D01*
X89986397Y-56083083D01*
X90005215Y-55880000D01*
X89986397Y-55676917D01*
X89930582Y-55480750D01*
X89839673Y-55298179D01*
X89716764Y-55135421D01*
X89566041Y-54998019D01*
X89392637Y-54890652D01*
X89202456Y-54816976D01*
X89202455Y-54816975D01*
X89202453Y-54816975D01*
X89001976Y-54779500D01*
X88798024Y-54779500D01*
X88597546Y-54816975D01*
X88527632Y-54844059D01*
X88407363Y-54890652D01*
X88233959Y-54998019D01*
X88083237Y-55135420D01*
X87960328Y-55298177D01*
X87960323Y-55298186D01*
X87869419Y-55480747D01*
X87869418Y-55480750D01*
X87813603Y-55676917D01*
X87794785Y-55880000D01*
X87809310Y-56036758D01*
X87813603Y-56083082D01*
X87867880Y-56273845D01*
X87865619Y-56334989D01*
X87842663Y-56370941D01*
X86852320Y-57361286D01*
X86852316Y-57361291D01*
X86799593Y-57452611D01*
X86799592Y-57452611D01*
X86799593Y-57452612D01*
X86772300Y-57554473D01*
X86772300Y-58486597D01*
X86753393Y-58544788D01*
X86703893Y-58580752D01*
X86642707Y-58580752D01*
X86635415Y-58578061D01*
X86567567Y-58549957D01*
X86567558Y-58549955D01*
X86410801Y-58529318D01*
X86410799Y-58529318D01*
X86254041Y-58549955D01*
X86254033Y-58549957D01*
X86107961Y-58610462D01*
X86107960Y-58610462D01*
X85982523Y-58706713D01*
X85982513Y-58706723D01*
X85886262Y-58832160D01*
X85886262Y-58832161D01*
X85825757Y-58978233D01*
X85825755Y-58978241D01*
X85805118Y-59134999D01*
X85190500Y-59134999D01*
X85190500Y-53340000D01*
X87794785Y-53340000D01*
X87813603Y-53543083D01*
X87869418Y-53739250D01*
X87960327Y-53921821D01*
X88083236Y-54084579D01*
X88233959Y-54221981D01*
X88407363Y-54329348D01*
X88597544Y-54403024D01*
X88798024Y-54440500D01*
X89001976Y-54440500D01*
X89202456Y-54403024D01*
X89392637Y-54329348D01*
X89566041Y-54221981D01*
X89716764Y-54084579D01*
X89839673Y-53921821D01*
X89930582Y-53739250D01*
X89986397Y-53543083D01*
X90005215Y-53340000D01*
X89986397Y-53136917D01*
X89930582Y-52940750D01*
X89839673Y-52758179D01*
X89716764Y-52595421D01*
X89566041Y-52458019D01*
X89392637Y-52350652D01*
X89202456Y-52276976D01*
X89202455Y-52276975D01*
X89202453Y-52276975D01*
X89001976Y-52239500D01*
X88798024Y-52239500D01*
X88597546Y-52276975D01*
X88527632Y-52304059D01*
X88407363Y-52350652D01*
X88233959Y-52458019D01*
X88083237Y-52595420D01*
X87960328Y-52758177D01*
X87960323Y-52758186D01*
X87869419Y-52940747D01*
X87869418Y-52940750D01*
X87813603Y-53136917D01*
X87794785Y-53340000D01*
X85190500Y-53340000D01*
X85190500Y-50800000D01*
X87794785Y-50800000D01*
X87813603Y-51003083D01*
X87869418Y-51199250D01*
X87960327Y-51381821D01*
X88083236Y-51544579D01*
X88233959Y-51681981D01*
X88407363Y-51789348D01*
X88597544Y-51863024D01*
X88798024Y-51900500D01*
X89001976Y-51900500D01*
X89202456Y-51863024D01*
X89392637Y-51789348D01*
X89566041Y-51681981D01*
X89704777Y-51555505D01*
X89760514Y-51530278D01*
X89820440Y-51542630D01*
X89841473Y-51558666D01*
X96133303Y-57850496D01*
X96161080Y-57905013D01*
X96151509Y-57965445D01*
X96108244Y-58008710D01*
X96063299Y-58019500D01*
X95772471Y-58019500D01*
X95714280Y-58000593D01*
X95705712Y-57993276D01*
X95623225Y-57929982D01*
X95578241Y-57895464D01*
X95578240Y-57895463D01*
X95578238Y-57895462D01*
X95432166Y-57834957D01*
X95432158Y-57834955D01*
X95275401Y-57814318D01*
X95275399Y-57814318D01*
X95118641Y-57834955D01*
X95118633Y-57834957D01*
X94972561Y-57895462D01*
X94972560Y-57895462D01*
X94847123Y-57991713D01*
X94847113Y-57991723D01*
X94750862Y-58117160D01*
X94750862Y-58117161D01*
X94690357Y-58263233D01*
X94690355Y-58263241D01*
X94669718Y-58419999D01*
X94669718Y-58420000D01*
X94690355Y-58576758D01*
X94690357Y-58576766D01*
X94750862Y-58722838D01*
X94750862Y-58722839D01*
X94847113Y-58848276D01*
X94847118Y-58848282D01*
X94972559Y-58944536D01*
X94972560Y-58944536D01*
X94972561Y-58944537D01*
X95053930Y-58978241D01*
X95118638Y-59005044D01*
X95236209Y-59020522D01*
X95275399Y-59025682D01*
X95275400Y-59025682D01*
X95275401Y-59025682D01*
X95306752Y-59021554D01*
X95432162Y-59005044D01*
X95578241Y-58944536D01*
X95703682Y-58848282D01*
X95703681Y-58848282D01*
X95708830Y-58844332D01*
X95709890Y-58845713D01*
X95756984Y-58821719D01*
X95772471Y-58820500D01*
X96097099Y-58820500D01*
X96155290Y-58839407D01*
X96167103Y-58849496D01*
X97562979Y-60245372D01*
X97590756Y-60299889D01*
X97581185Y-60360321D01*
X97537920Y-60403586D01*
X97530861Y-60406840D01*
X97461760Y-60435463D01*
X97336323Y-60531713D01*
X97336313Y-60531723D01*
X97240062Y-60657160D01*
X97240062Y-60657161D01*
X97179557Y-60803233D01*
X97179555Y-60803241D01*
X97158918Y-60959999D01*
X97158918Y-60960000D01*
X97179555Y-61116758D01*
X97179557Y-61116766D01*
X97240062Y-61262838D01*
X97240062Y-61262839D01*
X97340268Y-61393431D01*
X97338883Y-61394493D01*
X97362879Y-61441569D01*
X97364100Y-61457071D01*
X97364100Y-67668699D01*
X97345193Y-67726890D01*
X97295693Y-67762854D01*
X97234507Y-67762854D01*
X97195096Y-67738703D01*
X95704896Y-66248503D01*
X95677119Y-66193986D01*
X95675900Y-66178499D01*
X95675900Y-63997071D01*
X95694807Y-63938880D01*
X95702115Y-63930324D01*
X95705213Y-63926287D01*
X95799936Y-63802841D01*
X95860444Y-63656762D01*
X95881082Y-63500000D01*
X95860444Y-63343238D01*
X95824671Y-63256874D01*
X95799937Y-63197161D01*
X95799937Y-63197160D01*
X95703686Y-63071723D01*
X95703685Y-63071722D01*
X95703682Y-63071718D01*
X95703677Y-63071714D01*
X95703676Y-63071713D01*
X95602347Y-62993961D01*
X95578241Y-62975464D01*
X95578240Y-62975463D01*
X95578238Y-62975462D01*
X95432166Y-62914957D01*
X95432158Y-62914955D01*
X95275401Y-62894318D01*
X95275399Y-62894318D01*
X95118641Y-62914955D01*
X95118633Y-62914957D01*
X94972561Y-62975462D01*
X94972560Y-62975462D01*
X94847123Y-63071713D01*
X94847113Y-63071723D01*
X94750862Y-63197160D01*
X94750862Y-63197161D01*
X94690357Y-63343233D01*
X94690355Y-63343241D01*
X94669718Y-63499999D01*
X94669718Y-63500000D01*
X94690355Y-63656758D01*
X94690357Y-63656766D01*
X94750862Y-63802838D01*
X94750862Y-63802839D01*
X94851068Y-63933431D01*
X94849683Y-63934493D01*
X94873679Y-63981569D01*
X94874900Y-63997071D01*
X94874900Y-66332673D01*
X94874900Y-66438127D01*
X94891254Y-66499161D01*
X94902194Y-66539992D01*
X94954916Y-66631308D01*
X94954917Y-66631309D01*
X94954918Y-66631310D01*
X94954920Y-66631313D01*
X96260409Y-67936802D01*
X97536099Y-69212492D01*
X97563876Y-69267009D01*
X97554305Y-69327441D01*
X97511040Y-69370706D01*
X97479018Y-69380649D01*
X97393140Y-69391955D01*
X97393133Y-69391957D01*
X97247061Y-69452462D01*
X97247060Y-69452462D01*
X97121623Y-69548713D01*
X97121613Y-69548723D01*
X97025362Y-69674160D01*
X97025362Y-69674161D01*
X96964857Y-69820233D01*
X96964855Y-69820241D01*
X96944218Y-69976999D01*
X96944218Y-69977000D01*
X96964855Y-70133758D01*
X96964857Y-70133766D01*
X97025362Y-70279838D01*
X97025362Y-70279839D01*
X97121613Y-70405276D01*
X97121618Y-70405282D01*
X97121622Y-70405285D01*
X97121623Y-70405286D01*
X97150982Y-70427813D01*
X97247059Y-70501536D01*
X97393138Y-70562044D01*
X97510709Y-70577522D01*
X97549899Y-70582682D01*
X97549900Y-70582682D01*
X97549901Y-70582682D01*
X97581252Y-70578554D01*
X97706662Y-70562044D01*
X97852741Y-70501536D01*
X97978182Y-70405282D01*
X98074436Y-70279841D01*
X98134944Y-70133762D01*
X98146250Y-70047881D01*
X98172591Y-69992657D01*
X98226361Y-69963462D01*
X98287023Y-69971448D01*
X98314407Y-69990800D01*
X109849520Y-81525913D01*
X109849519Y-81525913D01*
X109924087Y-81600480D01*
X110015413Y-81653207D01*
X110117273Y-81680500D01*
X110222727Y-81680500D01*
X110668742Y-81680500D01*
X110726933Y-81699407D01*
X110757362Y-81735371D01*
X110820327Y-81861821D01*
X110943236Y-82024579D01*
X111093959Y-82161981D01*
X111267363Y-82269348D01*
X111457544Y-82343024D01*
X111658024Y-82380500D01*
X111861976Y-82380500D01*
X112062456Y-82343024D01*
X112252637Y-82269348D01*
X112426041Y-82161981D01*
X112576764Y-82024579D01*
X112699673Y-81861821D01*
X112790582Y-81679250D01*
X112846397Y-81483083D01*
X112865215Y-81280000D01*
X112846397Y-81076917D01*
X112790582Y-80880750D01*
X112699673Y-80698179D01*
X112576764Y-80535421D01*
X112426041Y-80398019D01*
X112252637Y-80290652D01*
X112062456Y-80216976D01*
X112062455Y-80216975D01*
X112062453Y-80216975D01*
X111861976Y-80179500D01*
X111658024Y-80179500D01*
X111457546Y-80216975D01*
X111396757Y-80240525D01*
X111267363Y-80290652D01*
X111093959Y-80398019D01*
X110943237Y-80535420D01*
X110820328Y-80698177D01*
X110820323Y-80698186D01*
X110757363Y-80824628D01*
X110714500Y-80868291D01*
X110668742Y-80879500D01*
X110376901Y-80879500D01*
X110318710Y-80860593D01*
X110306897Y-80850504D01*
X109518254Y-80061861D01*
X109490477Y-80007344D01*
X109500048Y-79946912D01*
X109543313Y-79903647D01*
X109550336Y-79900408D01*
X109636941Y-79864536D01*
X109762382Y-79768282D01*
X109858636Y-79642841D01*
X109919144Y-79496762D01*
X109939782Y-79340000D01*
X109928252Y-79252421D01*
X109939402Y-79192261D01*
X109983784Y-79150144D01*
X110026405Y-79140500D01*
X110668742Y-79140500D01*
X110726933Y-79159407D01*
X110757362Y-79195371D01*
X110820327Y-79321821D01*
X110943236Y-79484579D01*
X111093959Y-79621981D01*
X111267363Y-79729348D01*
X111457544Y-79803024D01*
X111658024Y-79840500D01*
X111861976Y-79840500D01*
X112062456Y-79803024D01*
X112252637Y-79729348D01*
X112426041Y-79621981D01*
X112576764Y-79484579D01*
X112699673Y-79321821D01*
X112790582Y-79139250D01*
X112846397Y-78943083D01*
X112865215Y-78740000D01*
X112846397Y-78536917D01*
X112790582Y-78340750D01*
X112699673Y-78158179D01*
X112576764Y-77995421D01*
X112426041Y-77858019D01*
X112252637Y-77750652D01*
X112062456Y-77676976D01*
X112062455Y-77676975D01*
X112062453Y-77676975D01*
X111861976Y-77639500D01*
X111658024Y-77639500D01*
X111457546Y-77676975D01*
X111435076Y-77685680D01*
X111267363Y-77750652D01*
X111093959Y-77858019D01*
X110943236Y-77995421D01*
X110938690Y-78001441D01*
X110820328Y-78158177D01*
X110820323Y-78158186D01*
X110757363Y-78284628D01*
X110714500Y-78328291D01*
X110668742Y-78339500D01*
X108743601Y-78339500D01*
X108685410Y-78320593D01*
X108673597Y-78310504D01*
X107132597Y-76769504D01*
X107104820Y-76714987D01*
X107114391Y-76654555D01*
X107157656Y-76611290D01*
X107202601Y-76600500D01*
X110668742Y-76600500D01*
X110726933Y-76619407D01*
X110757362Y-76655371D01*
X110820327Y-76781821D01*
X110943236Y-76944579D01*
X111093959Y-77081981D01*
X111267363Y-77189348D01*
X111457544Y-77263024D01*
X111658024Y-77300500D01*
X111861976Y-77300500D01*
X112062456Y-77263024D01*
X112252637Y-77189348D01*
X112426041Y-77081981D01*
X112576764Y-76944579D01*
X112699673Y-76781821D01*
X112790582Y-76599250D01*
X112846397Y-76403083D01*
X112865215Y-76200000D01*
X112846397Y-75996917D01*
X112790582Y-75800750D01*
X112699673Y-75618179D01*
X112576764Y-75455421D01*
X112426041Y-75318019D01*
X112252637Y-75210652D01*
X112062456Y-75136976D01*
X112062455Y-75136975D01*
X112062453Y-75136975D01*
X111861976Y-75099500D01*
X111658024Y-75099500D01*
X111457546Y-75136975D01*
X111387632Y-75164059D01*
X111267363Y-75210652D01*
X111093959Y-75318019D01*
X110943237Y-75455420D01*
X110820328Y-75618177D01*
X110820323Y-75618186D01*
X110757363Y-75744628D01*
X110714500Y-75788291D01*
X110668742Y-75799500D01*
X107147172Y-75799500D01*
X107088981Y-75780593D01*
X107077168Y-75770504D01*
X102789063Y-71482399D01*
X107528418Y-71482399D01*
X107528418Y-71482400D01*
X107549055Y-71639158D01*
X107549057Y-71639166D01*
X107609562Y-71785238D01*
X107609562Y-71785239D01*
X107670442Y-71864579D01*
X107705818Y-71910682D01*
X107831259Y-72006936D01*
X107977338Y-72067444D01*
X108094909Y-72082922D01*
X108134099Y-72088082D01*
X108134100Y-72088082D01*
X108134101Y-72088082D01*
X108165452Y-72083954D01*
X108290862Y-72067444D01*
X108436941Y-72006936D01*
X108562382Y-71910682D01*
X108658636Y-71785241D01*
X108719144Y-71639162D01*
X108739782Y-71482400D01*
X108719144Y-71325638D01*
X108718085Y-71323082D01*
X108658637Y-71179561D01*
X108658637Y-71179560D01*
X108562386Y-71054123D01*
X108562385Y-71054122D01*
X108562382Y-71054118D01*
X108562377Y-71054114D01*
X108562376Y-71054113D01*
X108436938Y-70957862D01*
X108290866Y-70897357D01*
X108290858Y-70897355D01*
X108134101Y-70876718D01*
X108134099Y-70876718D01*
X107977341Y-70897355D01*
X107977333Y-70897357D01*
X107831261Y-70957862D01*
X107831260Y-70957862D01*
X107705823Y-71054113D01*
X107705813Y-71054123D01*
X107609562Y-71179560D01*
X107609562Y-71179561D01*
X107549057Y-71325633D01*
X107549055Y-71325641D01*
X107528418Y-71482399D01*
X102789063Y-71482399D01*
X102502865Y-71196201D01*
X102475088Y-71141684D01*
X102484659Y-71081252D01*
X102512599Y-71047657D01*
X102582682Y-70993882D01*
X102678936Y-70868441D01*
X102739444Y-70722362D01*
X102760082Y-70565600D01*
X102758856Y-70556291D01*
X102751648Y-70501536D01*
X102739444Y-70408838D01*
X102688055Y-70284773D01*
X102678937Y-70262761D01*
X102678937Y-70262760D01*
X102579758Y-70133507D01*
X102559334Y-70075831D01*
X102559300Y-70073240D01*
X102559300Y-67944999D01*
X107526718Y-67944999D01*
X107526718Y-67945000D01*
X107547355Y-68101758D01*
X107547357Y-68101766D01*
X107607862Y-68247838D01*
X107607862Y-68247839D01*
X107607864Y-68247841D01*
X107704118Y-68373282D01*
X107829559Y-68469536D01*
X107975638Y-68530044D01*
X108093209Y-68545522D01*
X108132399Y-68550682D01*
X108132400Y-68550682D01*
X108132401Y-68550682D01*
X108163752Y-68546554D01*
X108289162Y-68530044D01*
X108435241Y-68469536D01*
X108560682Y-68373282D01*
X108656936Y-68247841D01*
X108717444Y-68101762D01*
X108738082Y-67945000D01*
X108717444Y-67788238D01*
X108692192Y-67727274D01*
X108656937Y-67642161D01*
X108656937Y-67642160D01*
X108560686Y-67516723D01*
X108560685Y-67516722D01*
X108560682Y-67516718D01*
X108560677Y-67516714D01*
X108560676Y-67516713D01*
X108435238Y-67420462D01*
X108289166Y-67359957D01*
X108289158Y-67359955D01*
X108132401Y-67339318D01*
X108132399Y-67339318D01*
X107975641Y-67359955D01*
X107975633Y-67359957D01*
X107829561Y-67420462D01*
X107829560Y-67420462D01*
X107704123Y-67516713D01*
X107704113Y-67516723D01*
X107607862Y-67642160D01*
X107607862Y-67642161D01*
X107547357Y-67788233D01*
X107547355Y-67788241D01*
X107526718Y-67944999D01*
X102559300Y-67944999D01*
X102559300Y-67450402D01*
X102578207Y-67392211D01*
X102627707Y-67356247D01*
X102688893Y-67356247D01*
X102696169Y-67358931D01*
X102764038Y-67387044D01*
X102881609Y-67402522D01*
X102920799Y-67407682D01*
X102920800Y-67407682D01*
X102920801Y-67407682D01*
X102952152Y-67403554D01*
X103077562Y-67387044D01*
X103223641Y-67326536D01*
X103349082Y-67230282D01*
X103445336Y-67104841D01*
X103505844Y-66958762D01*
X103526482Y-66802000D01*
X103524188Y-66784579D01*
X103505844Y-66645241D01*
X103505844Y-66645238D01*
X103445337Y-66499161D01*
X103445337Y-66499160D01*
X103349086Y-66373723D01*
X103349085Y-66373722D01*
X103349082Y-66373718D01*
X103349077Y-66373714D01*
X103349076Y-66373713D01*
X103242242Y-66291737D01*
X103223641Y-66277464D01*
X103223640Y-66277463D01*
X103223638Y-66277462D01*
X103077566Y-66216957D01*
X103077558Y-66216955D01*
X102920801Y-66196318D01*
X102920799Y-66196318D01*
X102764041Y-66216955D01*
X102764032Y-66216957D01*
X102696185Y-66245061D01*
X102635188Y-66249862D01*
X102583019Y-66217892D01*
X102559605Y-66161364D01*
X102559300Y-66153597D01*
X102559300Y-65767199D01*
X105119918Y-65767199D01*
X105119918Y-65767200D01*
X105140555Y-65923958D01*
X105140557Y-65923966D01*
X105201062Y-66070038D01*
X105201062Y-66070039D01*
X105296170Y-66193986D01*
X105297318Y-66195482D01*
X105422759Y-66291736D01*
X105422760Y-66291736D01*
X105422761Y-66291737D01*
X105568833Y-66352242D01*
X105568838Y-66352244D01*
X105686409Y-66367722D01*
X105725599Y-66372882D01*
X105725600Y-66372882D01*
X105725601Y-66372882D01*
X105756952Y-66368754D01*
X105882362Y-66352244D01*
X106028441Y-66291736D01*
X106153882Y-66195482D01*
X106250136Y-66070041D01*
X106310644Y-65923962D01*
X106331282Y-65767200D01*
X106310644Y-65610438D01*
X106250137Y-65464361D01*
X106250137Y-65464360D01*
X106153886Y-65338923D01*
X106153885Y-65338922D01*
X106153882Y-65338918D01*
X106153877Y-65338914D01*
X106153876Y-65338913D01*
X106028438Y-65242662D01*
X105882366Y-65182157D01*
X105882358Y-65182155D01*
X105725601Y-65161518D01*
X105725599Y-65161518D01*
X105568841Y-65182155D01*
X105568833Y-65182157D01*
X105422761Y-65242662D01*
X105422760Y-65242662D01*
X105297323Y-65338913D01*
X105297313Y-65338923D01*
X105201062Y-65464360D01*
X105201062Y-65464361D01*
X105140557Y-65610433D01*
X105140555Y-65610441D01*
X105119918Y-65767199D01*
X102559300Y-65767199D01*
X102559300Y-63256874D01*
X102559300Y-63256873D01*
X102535641Y-63168574D01*
X102532007Y-63155012D01*
X102532006Y-63155011D01*
X102532006Y-63155009D01*
X102532005Y-63155008D01*
X102479283Y-63063691D01*
X102479282Y-63063690D01*
X102479281Y-63063689D01*
X102479280Y-63063687D01*
X95295592Y-55879999D01*
X97158918Y-55879999D01*
X97158918Y-55880000D01*
X97179555Y-56036758D01*
X97179557Y-56036766D01*
X97240062Y-56182838D01*
X97240062Y-56182839D01*
X97335566Y-56307302D01*
X97336318Y-56308282D01*
X97461759Y-56404536D01*
X97607838Y-56465044D01*
X97718744Y-56479645D01*
X97764599Y-56485682D01*
X97771090Y-56485682D01*
X97771090Y-56487695D01*
X97822205Y-56497166D01*
X97844974Y-56514167D01*
X109247704Y-67916897D01*
X109275481Y-67971414D01*
X109276700Y-67986901D01*
X109276700Y-71522373D01*
X109276700Y-71627827D01*
X109300770Y-71717659D01*
X109303994Y-71729692D01*
X109356716Y-71821008D01*
X109356717Y-71821009D01*
X109356718Y-71821010D01*
X109356720Y-71821013D01*
X110058809Y-72523102D01*
X110703129Y-73167422D01*
X110730906Y-73221939D01*
X110728346Y-73264517D01*
X110673603Y-73456917D01*
X110654785Y-73660000D01*
X110673603Y-73863083D01*
X110729418Y-74059250D01*
X110820327Y-74241821D01*
X110943236Y-74404579D01*
X111093959Y-74541981D01*
X111267363Y-74649348D01*
X111457544Y-74723024D01*
X111658024Y-74760500D01*
X111861976Y-74760500D01*
X112062456Y-74723024D01*
X112252637Y-74649348D01*
X112426041Y-74541981D01*
X112576764Y-74404579D01*
X112699673Y-74241821D01*
X112790582Y-74059250D01*
X112846397Y-73863083D01*
X112865215Y-73660000D01*
X112846397Y-73456917D01*
X112790582Y-73260750D01*
X112699673Y-73078179D01*
X112576764Y-72915421D01*
X112426041Y-72778019D01*
X112252637Y-72670652D01*
X112062456Y-72596976D01*
X112062455Y-72596975D01*
X112062453Y-72596975D01*
X111861976Y-72559500D01*
X111658024Y-72559500D01*
X111457552Y-72596974D01*
X111457547Y-72596975D01*
X111457544Y-72596976D01*
X111457537Y-72596978D01*
X111457536Y-72596979D01*
X111379252Y-72627305D01*
X111318161Y-72630695D01*
X111273487Y-72604994D01*
X110106696Y-71438203D01*
X110078919Y-71383686D01*
X110077700Y-71368199D01*
X110077700Y-71120000D01*
X110654785Y-71120000D01*
X110673603Y-71323083D01*
X110729418Y-71519250D01*
X110820327Y-71701821D01*
X110943236Y-71864579D01*
X111093959Y-72001981D01*
X111267363Y-72109348D01*
X111457544Y-72183024D01*
X111658024Y-72220500D01*
X111861976Y-72220500D01*
X112062456Y-72183024D01*
X112252637Y-72109348D01*
X112426041Y-72001981D01*
X112576764Y-71864579D01*
X112699673Y-71701821D01*
X112790582Y-71519250D01*
X112846397Y-71323083D01*
X112865215Y-71120000D01*
X112846397Y-70916917D01*
X112790582Y-70720750D01*
X112699673Y-70538179D01*
X112576764Y-70375421D01*
X112426041Y-70238019D01*
X112252637Y-70130652D01*
X112062456Y-70056976D01*
X112062455Y-70056975D01*
X112062453Y-70056975D01*
X111861976Y-70019500D01*
X111658024Y-70019500D01*
X111457546Y-70056975D01*
X111415561Y-70073240D01*
X111267363Y-70130652D01*
X111093959Y-70238019D01*
X110943236Y-70375421D01*
X110916965Y-70410209D01*
X110820328Y-70538177D01*
X110820323Y-70538186D01*
X110733252Y-70713050D01*
X110729418Y-70720750D01*
X110673603Y-70916917D01*
X110654785Y-71120000D01*
X110077700Y-71120000D01*
X110077700Y-68580000D01*
X110654785Y-68580000D01*
X110673603Y-68783083D01*
X110729418Y-68979250D01*
X110820327Y-69161821D01*
X110943236Y-69324579D01*
X111093959Y-69461981D01*
X111267363Y-69569348D01*
X111457544Y-69643024D01*
X111658024Y-69680500D01*
X111861976Y-69680500D01*
X112062456Y-69643024D01*
X112252637Y-69569348D01*
X112426041Y-69461981D01*
X112576764Y-69324579D01*
X112699673Y-69161821D01*
X112790582Y-68979250D01*
X112846397Y-68783083D01*
X112865215Y-68580000D01*
X112846397Y-68376917D01*
X112790582Y-68180750D01*
X112699673Y-67998179D01*
X112576764Y-67835421D01*
X112426041Y-67698019D01*
X112252637Y-67590652D01*
X112062456Y-67516976D01*
X112062455Y-67516975D01*
X112062453Y-67516975D01*
X111861976Y-67479500D01*
X111658024Y-67479500D01*
X111457546Y-67516975D01*
X111422980Y-67530366D01*
X111267363Y-67590652D01*
X111184175Y-67642160D01*
X111093959Y-67698019D01*
X110943237Y-67835420D01*
X110820328Y-67998177D01*
X110820323Y-67998186D01*
X110729419Y-68180747D01*
X110729418Y-68180750D01*
X110673603Y-68376917D01*
X110654785Y-68580000D01*
X110077700Y-68580000D01*
X110077700Y-67727274D01*
X110077597Y-67726890D01*
X110050407Y-67625413D01*
X109997680Y-67534087D01*
X109980306Y-67516713D01*
X109923113Y-67459519D01*
X109923113Y-67459520D01*
X105384692Y-62921099D01*
X106268018Y-62921099D01*
X106268018Y-62921100D01*
X106288655Y-63077858D01*
X106288657Y-63077866D01*
X106349162Y-63223938D01*
X106349162Y-63223939D01*
X106445413Y-63349376D01*
X106445418Y-63349382D01*
X106570859Y-63445636D01*
X106570860Y-63445636D01*
X106570861Y-63445637D01*
X106702105Y-63500000D01*
X106716938Y-63506144D01*
X106834509Y-63521622D01*
X106873699Y-63526782D01*
X106873700Y-63526782D01*
X106873701Y-63526782D01*
X106905052Y-63522654D01*
X107030462Y-63506144D01*
X107176541Y-63445636D01*
X107301982Y-63349382D01*
X107398236Y-63223941D01*
X107458744Y-63077862D01*
X107479382Y-62921100D01*
X107478997Y-62918179D01*
X107458744Y-62764341D01*
X107458744Y-62764338D01*
X107458734Y-62764314D01*
X107398237Y-62618261D01*
X107398237Y-62618260D01*
X107301986Y-62492823D01*
X107301985Y-62492822D01*
X107301982Y-62492818D01*
X107301977Y-62492814D01*
X107301976Y-62492813D01*
X107176538Y-62396562D01*
X107030466Y-62336057D01*
X107030458Y-62336055D01*
X106873701Y-62315418D01*
X106873699Y-62315418D01*
X106716941Y-62336055D01*
X106716933Y-62336057D01*
X106570861Y-62396562D01*
X106570860Y-62396562D01*
X106445423Y-62492813D01*
X106445413Y-62492823D01*
X106349162Y-62618260D01*
X106349162Y-62618261D01*
X106288657Y-62764333D01*
X106288655Y-62764341D01*
X106268018Y-62921099D01*
X105384692Y-62921099D01*
X98398090Y-55934497D01*
X98370313Y-55879980D01*
X98369948Y-55877465D01*
X98349644Y-55723238D01*
X98302517Y-55609464D01*
X98289137Y-55577161D01*
X98289137Y-55577160D01*
X98192886Y-55451723D01*
X98192885Y-55451722D01*
X98192882Y-55451718D01*
X98192877Y-55451714D01*
X98192876Y-55451713D01*
X98067438Y-55355462D01*
X97921366Y-55294957D01*
X97921358Y-55294955D01*
X97764601Y-55274318D01*
X97764599Y-55274318D01*
X97607841Y-55294955D01*
X97607833Y-55294957D01*
X97461761Y-55355462D01*
X97461760Y-55355462D01*
X97336323Y-55451713D01*
X97336313Y-55451723D01*
X97240062Y-55577160D01*
X97240062Y-55577161D01*
X97179557Y-55723233D01*
X97179555Y-55723241D01*
X97158918Y-55879999D01*
X95295592Y-55879999D01*
X89994192Y-50578599D01*
X89968975Y-50535688D01*
X89958013Y-50497160D01*
X89930582Y-50400750D01*
X89839673Y-50218179D01*
X89716764Y-50055421D01*
X89566041Y-49918019D01*
X89392637Y-49810652D01*
X89202456Y-49736976D01*
X89202455Y-49736975D01*
X89202453Y-49736975D01*
X89001976Y-49699500D01*
X88798024Y-49699500D01*
X88597546Y-49736975D01*
X88595130Y-49737911D01*
X88407363Y-49810652D01*
X88233959Y-49918019D01*
X88083237Y-50055420D01*
X87960328Y-50218177D01*
X87960323Y-50218186D01*
X87869419Y-50400747D01*
X87869418Y-50400750D01*
X87813603Y-50596917D01*
X87794785Y-50800000D01*
X85190500Y-50800000D01*
X85190500Y-49618999D01*
X94669718Y-49618999D01*
X94669718Y-49619000D01*
X94690355Y-49775758D01*
X94690357Y-49775766D01*
X94750862Y-49921838D01*
X94750862Y-49921839D01*
X94750864Y-49921841D01*
X94847118Y-50047282D01*
X94972559Y-50143536D01*
X95118638Y-50204044D01*
X95275400Y-50224682D01*
X95317915Y-50219084D01*
X95378073Y-50230233D01*
X95400840Y-50247233D01*
X110702663Y-65549056D01*
X110730440Y-65603573D01*
X110727880Y-65646152D01*
X110673603Y-65836915D01*
X110661676Y-65965634D01*
X110654785Y-66040000D01*
X110673603Y-66243083D01*
X110729418Y-66439250D01*
X110820327Y-66621821D01*
X110943236Y-66784579D01*
X111093959Y-66921981D01*
X111267363Y-67029348D01*
X111457544Y-67103024D01*
X111658024Y-67140500D01*
X111861976Y-67140500D01*
X112062456Y-67103024D01*
X112252637Y-67029348D01*
X112426041Y-66921981D01*
X112576764Y-66784579D01*
X112699673Y-66621821D01*
X112790582Y-66439250D01*
X112846397Y-66243083D01*
X112865215Y-66040000D01*
X112846397Y-65836917D01*
X112790582Y-65640750D01*
X112699673Y-65458179D01*
X112576764Y-65295421D01*
X112426041Y-65158019D01*
X112252637Y-65050652D01*
X112062456Y-64976976D01*
X112062455Y-64976975D01*
X112062453Y-64976975D01*
X111861976Y-64939500D01*
X111658024Y-64939500D01*
X111457552Y-64976974D01*
X111457546Y-64976975D01*
X111457544Y-64976976D01*
X111391296Y-65002639D01*
X111377738Y-65007892D01*
X111316647Y-65011281D01*
X111271973Y-64985580D01*
X106568290Y-60281897D01*
X106540513Y-60227380D01*
X106550084Y-60166948D01*
X106578024Y-60133354D01*
X106656182Y-60073382D01*
X106752436Y-59947941D01*
X106812944Y-59801862D01*
X106833582Y-59645100D01*
X106812944Y-59488338D01*
X106810743Y-59483024D01*
X106752437Y-59342261D01*
X106752436Y-59342260D01*
X106752436Y-59342259D01*
X106695668Y-59268278D01*
X106675245Y-59210603D01*
X106680874Y-59191600D01*
X106649500Y-59196569D01*
X106604720Y-59177330D01*
X106530741Y-59120564D01*
X106530740Y-59120563D01*
X106530738Y-59120562D01*
X106384666Y-59060057D01*
X106384658Y-59060055D01*
X106227901Y-59039418D01*
X106227899Y-59039418D01*
X106071141Y-59060055D01*
X106071133Y-59060057D01*
X105925061Y-59120562D01*
X105925060Y-59120562D01*
X105799623Y-59216813D01*
X105799613Y-59216823D01*
X105739648Y-59294972D01*
X105689223Y-59329628D01*
X105628059Y-59328026D01*
X105591102Y-59304709D01*
X95901158Y-49614765D01*
X95873381Y-49560248D01*
X95873009Y-49557683D01*
X95860444Y-49462240D01*
X95860444Y-49462238D01*
X95811454Y-49343966D01*
X95799937Y-49316161D01*
X95799937Y-49316160D01*
X95703686Y-49190723D01*
X95703685Y-49190722D01*
X95703682Y-49190718D01*
X95703677Y-49190714D01*
X95703676Y-49190713D01*
X95699096Y-49187199D01*
X97158918Y-49187199D01*
X97158918Y-49187200D01*
X97179555Y-49343958D01*
X97179557Y-49343966D01*
X97240062Y-49490038D01*
X97240062Y-49490039D01*
X97336313Y-49615476D01*
X97336318Y-49615482D01*
X97340901Y-49618999D01*
X97387332Y-49654626D01*
X97412799Y-49683665D01*
X97444120Y-49737913D01*
X102109231Y-54403024D01*
X106734991Y-59028784D01*
X106762768Y-59083301D01*
X106757865Y-59114252D01*
X106802329Y-59113089D01*
X106844215Y-59138008D01*
X110705455Y-62999248D01*
X110733232Y-63053765D01*
X110729740Y-63096083D01*
X110730671Y-63096348D01*
X110729419Y-63100747D01*
X110729418Y-63100750D01*
X110673603Y-63296917D01*
X110654785Y-63500000D01*
X110673603Y-63703083D01*
X110729418Y-63899250D01*
X110820327Y-64081821D01*
X110943236Y-64244579D01*
X111093959Y-64381981D01*
X111267363Y-64489348D01*
X111457544Y-64563024D01*
X111658024Y-64600500D01*
X111861976Y-64600500D01*
X112062456Y-64563024D01*
X112252637Y-64489348D01*
X112426041Y-64381981D01*
X112576764Y-64244579D01*
X112699673Y-64081821D01*
X112790582Y-63899250D01*
X112846397Y-63703083D01*
X112865215Y-63500000D01*
X112846397Y-63296917D01*
X112790582Y-63100750D01*
X112699673Y-62918179D01*
X112576764Y-62755421D01*
X112426041Y-62618019D01*
X112252637Y-62510652D01*
X112062456Y-62436976D01*
X112062455Y-62436975D01*
X112062453Y-62436975D01*
X111861976Y-62399500D01*
X111658024Y-62399500D01*
X111457552Y-62436974D01*
X111457547Y-62436975D01*
X111457544Y-62436976D01*
X111457540Y-62436977D01*
X111457535Y-62436979D01*
X111386820Y-62464373D01*
X111325729Y-62467763D01*
X111281055Y-62442062D01*
X102939509Y-54100516D01*
X102911732Y-54045999D01*
X102921303Y-53985567D01*
X102964568Y-53942302D01*
X102996587Y-53932360D01*
X103052162Y-53925044D01*
X103198241Y-53864536D01*
X103323682Y-53768282D01*
X103419936Y-53642841D01*
X103480444Y-53496762D01*
X103501082Y-53340000D01*
X103480444Y-53183238D01*
X103419937Y-53037161D01*
X103419937Y-53037160D01*
X103323686Y-52911723D01*
X103323685Y-52911722D01*
X103323682Y-52911718D01*
X103323677Y-52911714D01*
X103323676Y-52911713D01*
X103198238Y-52815462D01*
X103052166Y-52754957D01*
X103052158Y-52754955D01*
X102895401Y-52734318D01*
X102895399Y-52734318D01*
X102738641Y-52754955D01*
X102738633Y-52754957D01*
X102592561Y-52815462D01*
X102592560Y-52815462D01*
X102467123Y-52911713D01*
X102467113Y-52911723D01*
X102370862Y-53037160D01*
X102370862Y-53037161D01*
X102310357Y-53183233D01*
X102310355Y-53183241D01*
X102303040Y-53238808D01*
X102276699Y-53294033D01*
X102222928Y-53323228D01*
X102162266Y-53315242D01*
X102134883Y-53295890D01*
X98347596Y-49508603D01*
X98319819Y-49454086D01*
X98326135Y-49400714D01*
X98349644Y-49343962D01*
X98370282Y-49187200D01*
X98349644Y-49030438D01*
X98289137Y-48884361D01*
X98289137Y-48884360D01*
X98192886Y-48758923D01*
X98192885Y-48758922D01*
X98192882Y-48758918D01*
X98192877Y-48758914D01*
X98192876Y-48758913D01*
X98100827Y-48688282D01*
X98067441Y-48662664D01*
X98067440Y-48662663D01*
X98067438Y-48662662D01*
X97921366Y-48602157D01*
X97921358Y-48602155D01*
X97764601Y-48581518D01*
X97764599Y-48581518D01*
X97607841Y-48602155D01*
X97607833Y-48602157D01*
X97461761Y-48662662D01*
X97461760Y-48662662D01*
X97336323Y-48758913D01*
X97336313Y-48758923D01*
X97240062Y-48884360D01*
X97240062Y-48884361D01*
X97179557Y-49030433D01*
X97179555Y-49030441D01*
X97158918Y-49187199D01*
X95699096Y-49187199D01*
X95611106Y-49119682D01*
X95578241Y-49094464D01*
X95578240Y-49094463D01*
X95578238Y-49094462D01*
X95432166Y-49033957D01*
X95432158Y-49033955D01*
X95275401Y-49013318D01*
X95275399Y-49013318D01*
X95118641Y-49033955D01*
X95118633Y-49033957D01*
X94972561Y-49094462D01*
X94972560Y-49094462D01*
X94847123Y-49190713D01*
X94847113Y-49190723D01*
X94750862Y-49316160D01*
X94750862Y-49316161D01*
X94690357Y-49462233D01*
X94690355Y-49462241D01*
X94669718Y-49618999D01*
X85190500Y-49618999D01*
X85190500Y-48260000D01*
X87794785Y-48260000D01*
X87813603Y-48463083D01*
X87869418Y-48659250D01*
X87960327Y-48841821D01*
X88083236Y-49004579D01*
X88233959Y-49141981D01*
X88407363Y-49249348D01*
X88597544Y-49323024D01*
X88798024Y-49360500D01*
X89001976Y-49360500D01*
X89202456Y-49323024D01*
X89392637Y-49249348D01*
X89566041Y-49141981D01*
X89716764Y-49004579D01*
X89839673Y-48841821D01*
X89930582Y-48659250D01*
X89971910Y-48513999D01*
X91393118Y-48513999D01*
X91393118Y-48514000D01*
X91413755Y-48670758D01*
X91413757Y-48670766D01*
X91474262Y-48816838D01*
X91474262Y-48816839D01*
X91570513Y-48942276D01*
X91570518Y-48942282D01*
X91695959Y-49038536D01*
X91842038Y-49099044D01*
X91959609Y-49114522D01*
X91998799Y-49119682D01*
X91998800Y-49119682D01*
X91998801Y-49119682D01*
X92030152Y-49115554D01*
X92155562Y-49099044D01*
X92301641Y-49038536D01*
X92427082Y-48942282D01*
X92523336Y-48816841D01*
X92583844Y-48670762D01*
X92604482Y-48514000D01*
X92583844Y-48357238D01*
X92543566Y-48259999D01*
X102289718Y-48259999D01*
X102289718Y-48260000D01*
X102310355Y-48416758D01*
X102310357Y-48416766D01*
X102370862Y-48562838D01*
X102370862Y-48562839D01*
X102471068Y-48693431D01*
X102469683Y-48694493D01*
X102493679Y-48741569D01*
X102494900Y-48757071D01*
X102494900Y-51445873D01*
X102494900Y-51551327D01*
X102518970Y-51641159D01*
X102522194Y-51653192D01*
X102574916Y-51744508D01*
X102574918Y-51744510D01*
X102574920Y-51744513D01*
X110904487Y-60074080D01*
X110904489Y-60074081D01*
X110904491Y-60074083D01*
X110908793Y-60076567D01*
X110949733Y-60122038D01*
X110956127Y-60182888D01*
X110938295Y-60221962D01*
X110820332Y-60378171D01*
X110820323Y-60378186D01*
X110729419Y-60560747D01*
X110729418Y-60560750D01*
X110673603Y-60756917D01*
X110654785Y-60960000D01*
X110673603Y-61163083D01*
X110729418Y-61359250D01*
X110820327Y-61541821D01*
X110943236Y-61704579D01*
X111093959Y-61841981D01*
X111267363Y-61949348D01*
X111457544Y-62023024D01*
X111658024Y-62060500D01*
X111861976Y-62060500D01*
X112062456Y-62023024D01*
X112252637Y-61949348D01*
X112426041Y-61841981D01*
X112576764Y-61704579D01*
X112699673Y-61541821D01*
X112790582Y-61359250D01*
X112846397Y-61163083D01*
X112864463Y-60968105D01*
X112888659Y-60911910D01*
X112941266Y-60880666D01*
X113002190Y-60886312D01*
X113033045Y-60907238D01*
X113210104Y-61084297D01*
X113237881Y-61138814D01*
X113239100Y-61154301D01*
X113239100Y-84273498D01*
X113220193Y-84331689D01*
X113210104Y-84343502D01*
X112248025Y-85305580D01*
X112193508Y-85333357D01*
X112142259Y-85327891D01*
X112062460Y-85296977D01*
X112062447Y-85296974D01*
X111861976Y-85259500D01*
X111658024Y-85259500D01*
X111457546Y-85296975D01*
X111439312Y-85304039D01*
X111267363Y-85370652D01*
X111093959Y-85478019D01*
X110943236Y-85615421D01*
X110929951Y-85633013D01*
X110820328Y-85778177D01*
X110820323Y-85778186D01*
X110757173Y-85905010D01*
X110729418Y-85960750D01*
X110673603Y-86156917D01*
X110654785Y-86360000D01*
X110673603Y-86563083D01*
X110729418Y-86759250D01*
X110820327Y-86941821D01*
X110943236Y-87104579D01*
X111093959Y-87241981D01*
X111267363Y-87349348D01*
X111457544Y-87423024D01*
X111658024Y-87460500D01*
X111861976Y-87460500D01*
X112062456Y-87423024D01*
X112252637Y-87349348D01*
X112426041Y-87241981D01*
X112576764Y-87104579D01*
X112699673Y-86941821D01*
X112790582Y-86759250D01*
X112846397Y-86563083D01*
X112865215Y-86360000D01*
X112846397Y-86156917D01*
X112792118Y-85966148D01*
X112794379Y-85905010D01*
X112817333Y-85869058D01*
X113960080Y-84726313D01*
X113976219Y-84698360D01*
X114012805Y-84634992D01*
X114012805Y-84634990D01*
X114012807Y-84634988D01*
X114040100Y-84533127D01*
X114040100Y-84427673D01*
X114040100Y-71400819D01*
X114059007Y-71342628D01*
X114108507Y-71306664D01*
X114152018Y-71302666D01*
X114274050Y-71318732D01*
X114430812Y-71298094D01*
X114576891Y-71237586D01*
X114702332Y-71141332D01*
X114798586Y-71015891D01*
X114859094Y-70869812D01*
X114879732Y-70713050D01*
X114859094Y-70556288D01*
X114798587Y-70410211D01*
X114798587Y-70410210D01*
X114702336Y-70284773D01*
X114702335Y-70284772D01*
X114702332Y-70284768D01*
X114702327Y-70284764D01*
X114702326Y-70284763D01*
X114576888Y-70188512D01*
X114430816Y-70128007D01*
X114430808Y-70128005D01*
X114274051Y-70107368D01*
X114274049Y-70107368D01*
X114152022Y-70123433D01*
X114091861Y-70112283D01*
X114049744Y-70067900D01*
X114040100Y-70025280D01*
X114040100Y-60894671D01*
X114039119Y-60891010D01*
X114039119Y-60891011D01*
X114039118Y-60891007D01*
X114012807Y-60792812D01*
X114012805Y-60792809D01*
X114012805Y-60792807D01*
X113960083Y-60701491D01*
X113960081Y-60701489D01*
X113960080Y-60701487D01*
X112691713Y-59433120D01*
X112691710Y-59433118D01*
X112691708Y-59433116D01*
X112600393Y-59380395D01*
X112600390Y-59380394D01*
X112600388Y-59380393D01*
X112574002Y-59373323D01*
X112522690Y-59339999D01*
X112500764Y-59282878D01*
X112516600Y-59223777D01*
X112532924Y-59204543D01*
X112576764Y-59164579D01*
X112699673Y-59001821D01*
X112790582Y-58819250D01*
X112846397Y-58623083D01*
X112865215Y-58420000D01*
X112846397Y-58216917D01*
X112790582Y-58020750D01*
X112699673Y-57838179D01*
X112576764Y-57675421D01*
X112426041Y-57538019D01*
X112252637Y-57430652D01*
X112062456Y-57356976D01*
X112062455Y-57356975D01*
X112062453Y-57356975D01*
X111887649Y-57324299D01*
X112885018Y-57324299D01*
X112885018Y-57324300D01*
X112905655Y-57481058D01*
X112905657Y-57481066D01*
X112966162Y-57627138D01*
X112966162Y-57627139D01*
X113062413Y-57752576D01*
X113062418Y-57752582D01*
X113062422Y-57752585D01*
X113062423Y-57752586D01*
X113089147Y-57773092D01*
X113187859Y-57848836D01*
X113187860Y-57848836D01*
X113187861Y-57848837D01*
X113300424Y-57895462D01*
X113333938Y-57909344D01*
X113451509Y-57924822D01*
X113490699Y-57929982D01*
X113490700Y-57929982D01*
X113490701Y-57929982D01*
X113522052Y-57925854D01*
X113647462Y-57909344D01*
X113793541Y-57848836D01*
X113918982Y-57752582D01*
X114015236Y-57627141D01*
X114075744Y-57481062D01*
X114096382Y-57324300D01*
X114075744Y-57167538D01*
X114015237Y-57021461D01*
X114015237Y-57021460D01*
X113918986Y-56896023D01*
X113918985Y-56896022D01*
X113918982Y-56896018D01*
X113918977Y-56896014D01*
X113918976Y-56896013D01*
X113793538Y-56799762D01*
X113647466Y-56739257D01*
X113647458Y-56739255D01*
X113490701Y-56718618D01*
X113490699Y-56718618D01*
X113333941Y-56739255D01*
X113333933Y-56739257D01*
X113187861Y-56799762D01*
X113187860Y-56799762D01*
X113062423Y-56896013D01*
X113062413Y-56896023D01*
X112966162Y-57021460D01*
X112966162Y-57021461D01*
X112905657Y-57167533D01*
X112905655Y-57167541D01*
X112885018Y-57324299D01*
X111887649Y-57324299D01*
X111861976Y-57319500D01*
X111658024Y-57319500D01*
X111457546Y-57356975D01*
X111387632Y-57384059D01*
X111267363Y-57430652D01*
X111093959Y-57538019D01*
X110943237Y-57675420D01*
X110820328Y-57838177D01*
X110820323Y-57838186D01*
X110729419Y-58020747D01*
X110673603Y-58216917D01*
X110654785Y-58420000D01*
X110657223Y-58446310D01*
X110643765Y-58505997D01*
X110597794Y-58546375D01*
X110536870Y-58552020D01*
X110488641Y-58525448D01*
X108097192Y-56133999D01*
X109376318Y-56133999D01*
X109376318Y-56134000D01*
X109396955Y-56290758D01*
X109396957Y-56290766D01*
X109457462Y-56436838D01*
X109457462Y-56436839D01*
X109516798Y-56514167D01*
X109553718Y-56562282D01*
X109679159Y-56658536D01*
X109679160Y-56658536D01*
X109679161Y-56658537D01*
X109825233Y-56719042D01*
X109825238Y-56719044D01*
X109942809Y-56734522D01*
X109981999Y-56739682D01*
X109982000Y-56739682D01*
X109982001Y-56739682D01*
X110013352Y-56735554D01*
X110138762Y-56719044D01*
X110284841Y-56658536D01*
X110410282Y-56562282D01*
X110506536Y-56436841D01*
X110560193Y-56307299D01*
X110599928Y-56260776D01*
X110659423Y-56246492D01*
X110715951Y-56269906D01*
X110740277Y-56301059D01*
X110820323Y-56461813D01*
X110820327Y-56461821D01*
X110943236Y-56624579D01*
X111093959Y-56761981D01*
X111267363Y-56869348D01*
X111457544Y-56943024D01*
X111658024Y-56980500D01*
X111861976Y-56980500D01*
X112062456Y-56943024D01*
X112252637Y-56869348D01*
X112426041Y-56761981D01*
X112576764Y-56624579D01*
X112699673Y-56461821D01*
X112790582Y-56279250D01*
X112846397Y-56083083D01*
X112865215Y-55880000D01*
X112846397Y-55676917D01*
X112790582Y-55480750D01*
X112699673Y-55298179D01*
X112576764Y-55135421D01*
X112426041Y-54998019D01*
X112252637Y-54890652D01*
X112062456Y-54816976D01*
X112062455Y-54816975D01*
X112062453Y-54816975D01*
X111861976Y-54779500D01*
X111658024Y-54779500D01*
X111457546Y-54816975D01*
X111387632Y-54844059D01*
X111267363Y-54890652D01*
X111093959Y-54998019D01*
X110943237Y-55135420D01*
X110820328Y-55298177D01*
X110820323Y-55298186D01*
X110729419Y-55480747D01*
X110673603Y-55676916D01*
X110666161Y-55757229D01*
X110641964Y-55813426D01*
X110589357Y-55844669D01*
X110528432Y-55839023D01*
X110489042Y-55808361D01*
X110410282Y-55705718D01*
X110410277Y-55705714D01*
X110410276Y-55705713D01*
X110284838Y-55609462D01*
X110138766Y-55548957D01*
X110138758Y-55548955D01*
X109982001Y-55528318D01*
X109981999Y-55528318D01*
X109825241Y-55548955D01*
X109825233Y-55548957D01*
X109679161Y-55609462D01*
X109679160Y-55609462D01*
X109553723Y-55705713D01*
X109553713Y-55705723D01*
X109457462Y-55831160D01*
X109457462Y-55831161D01*
X109396957Y-55977233D01*
X109396955Y-55977241D01*
X109376318Y-56133999D01*
X108097192Y-56133999D01*
X105303193Y-53340000D01*
X110654785Y-53340000D01*
X110673603Y-53543083D01*
X110729418Y-53739250D01*
X110820327Y-53921821D01*
X110943236Y-54084579D01*
X111093959Y-54221981D01*
X111267363Y-54329348D01*
X111457544Y-54403024D01*
X111658024Y-54440500D01*
X111861976Y-54440500D01*
X112062456Y-54403024D01*
X112252637Y-54329348D01*
X112426041Y-54221981D01*
X112576764Y-54084579D01*
X112699673Y-53921821D01*
X112790582Y-53739250D01*
X112846397Y-53543083D01*
X112865215Y-53340000D01*
X112846397Y-53136917D01*
X112790582Y-52940750D01*
X112699673Y-52758179D01*
X112576764Y-52595421D01*
X112426041Y-52458019D01*
X112252637Y-52350652D01*
X112062456Y-52276976D01*
X112062455Y-52276975D01*
X112062453Y-52276975D01*
X111861976Y-52239500D01*
X111658024Y-52239500D01*
X111457546Y-52276975D01*
X111387632Y-52304059D01*
X111267363Y-52350652D01*
X111093959Y-52458019D01*
X110943237Y-52595420D01*
X110820328Y-52758177D01*
X110820323Y-52758186D01*
X110729419Y-52940747D01*
X110729418Y-52940750D01*
X110673603Y-53136917D01*
X110654785Y-53340000D01*
X105303193Y-53340000D01*
X103324896Y-51361703D01*
X103297119Y-51307186D01*
X103295900Y-51291699D01*
X103295900Y-50799999D01*
X104778918Y-50799999D01*
X104778918Y-50800000D01*
X104799555Y-50956758D01*
X104799557Y-50956766D01*
X104860062Y-51102838D01*
X104860062Y-51102839D01*
X104956313Y-51228276D01*
X104956318Y-51228282D01*
X105081759Y-51324536D01*
X105081760Y-51324536D01*
X105081761Y-51324537D01*
X105171488Y-51361703D01*
X105227838Y-51385044D01*
X105345409Y-51400522D01*
X105384599Y-51405682D01*
X105384600Y-51405682D01*
X105384601Y-51405682D01*
X105415952Y-51401554D01*
X105541362Y-51385044D01*
X105687441Y-51324536D01*
X105812882Y-51228282D01*
X105909136Y-51102841D01*
X105969644Y-50956762D01*
X105990282Y-50800000D01*
X110654785Y-50800000D01*
X110673603Y-51003083D01*
X110729418Y-51199250D01*
X110820327Y-51381821D01*
X110943236Y-51544579D01*
X111093959Y-51681981D01*
X111267363Y-51789348D01*
X111457544Y-51863024D01*
X111658024Y-51900500D01*
X111861976Y-51900500D01*
X112062456Y-51863024D01*
X112252637Y-51789348D01*
X112426041Y-51681981D01*
X112576764Y-51544579D01*
X112699673Y-51381821D01*
X112790582Y-51199250D01*
X112846397Y-51003083D01*
X112865215Y-50800000D01*
X112846397Y-50596917D01*
X112790582Y-50400750D01*
X112699673Y-50218179D01*
X112576764Y-50055421D01*
X112426041Y-49918019D01*
X112252637Y-49810652D01*
X112062456Y-49736976D01*
X112062455Y-49736975D01*
X112062453Y-49736975D01*
X111861976Y-49699500D01*
X111658024Y-49699500D01*
X111457546Y-49736975D01*
X111455130Y-49737911D01*
X111267363Y-49810652D01*
X111093959Y-49918019D01*
X110943237Y-50055420D01*
X110820328Y-50218177D01*
X110820323Y-50218186D01*
X110729419Y-50400747D01*
X110729418Y-50400750D01*
X110673603Y-50596917D01*
X110654785Y-50800000D01*
X105990282Y-50800000D01*
X105969644Y-50643238D01*
X105909137Y-50497161D01*
X105909137Y-50497160D01*
X105812886Y-50371723D01*
X105812885Y-50371722D01*
X105812882Y-50371718D01*
X105812877Y-50371714D01*
X105812876Y-50371713D01*
X105687438Y-50275462D01*
X105541366Y-50214957D01*
X105541358Y-50214955D01*
X105384601Y-50194318D01*
X105384599Y-50194318D01*
X105227841Y-50214955D01*
X105227833Y-50214957D01*
X105081761Y-50275462D01*
X105081760Y-50275462D01*
X104956323Y-50371713D01*
X104956313Y-50371723D01*
X104860062Y-50497160D01*
X104860062Y-50497161D01*
X104799557Y-50643233D01*
X104799555Y-50643241D01*
X104778918Y-50799999D01*
X103295900Y-50799999D01*
X103295900Y-48757071D01*
X103314807Y-48698880D01*
X103322115Y-48690324D01*
X103337122Y-48670766D01*
X103419936Y-48562841D01*
X103480444Y-48416762D01*
X103501082Y-48260000D01*
X110654785Y-48260000D01*
X110673603Y-48463083D01*
X110729418Y-48659250D01*
X110820327Y-48841821D01*
X110943236Y-49004579D01*
X111093959Y-49141981D01*
X111267363Y-49249348D01*
X111457544Y-49323024D01*
X111658024Y-49360500D01*
X111861976Y-49360500D01*
X112062456Y-49323024D01*
X112252637Y-49249348D01*
X112426041Y-49141981D01*
X112576764Y-49004579D01*
X112699673Y-48841821D01*
X112790582Y-48659250D01*
X112846397Y-48463083D01*
X112865215Y-48260000D01*
X112846397Y-48056917D01*
X112790582Y-47860750D01*
X112699673Y-47678179D01*
X112576764Y-47515421D01*
X112426041Y-47378019D01*
X112252637Y-47270652D01*
X112062456Y-47196976D01*
X112062455Y-47196975D01*
X112062453Y-47196975D01*
X111861976Y-47159500D01*
X111658024Y-47159500D01*
X111457546Y-47196975D01*
X111387632Y-47224059D01*
X111267363Y-47270652D01*
X111093959Y-47378019D01*
X110943237Y-47515420D01*
X110820328Y-47678177D01*
X110820323Y-47678186D01*
X110729419Y-47860747D01*
X110729418Y-47860750D01*
X110673603Y-48056917D01*
X110654785Y-48260000D01*
X103501082Y-48260000D01*
X103480444Y-48103238D01*
X103433317Y-47989464D01*
X103419937Y-47957161D01*
X103419937Y-47957160D01*
X103323686Y-47831723D01*
X103323685Y-47831722D01*
X103323682Y-47831718D01*
X103323677Y-47831714D01*
X103323676Y-47831713D01*
X103198238Y-47735462D01*
X103052166Y-47674957D01*
X103052158Y-47674955D01*
X102895401Y-47654318D01*
X102895399Y-47654318D01*
X102738641Y-47674955D01*
X102738633Y-47674957D01*
X102592561Y-47735462D01*
X102592560Y-47735462D01*
X102467123Y-47831713D01*
X102467113Y-47831723D01*
X102370862Y-47957160D01*
X102370862Y-47957161D01*
X102310357Y-48103233D01*
X102310355Y-48103241D01*
X102289718Y-48259999D01*
X92543566Y-48259999D01*
X92523337Y-48211161D01*
X92523337Y-48211160D01*
X92427086Y-48085723D01*
X92427085Y-48085722D01*
X92427082Y-48085718D01*
X92427077Y-48085714D01*
X92427076Y-48085713D01*
X92301638Y-47989462D01*
X92155566Y-47928957D01*
X92155558Y-47928955D01*
X91998801Y-47908318D01*
X91998799Y-47908318D01*
X91842041Y-47928955D01*
X91842033Y-47928957D01*
X91695961Y-47989462D01*
X91695960Y-47989462D01*
X91570523Y-48085713D01*
X91570513Y-48085723D01*
X91474262Y-48211160D01*
X91474262Y-48211161D01*
X91413757Y-48357233D01*
X91413755Y-48357241D01*
X91393118Y-48513999D01*
X89971910Y-48513999D01*
X89986397Y-48463083D01*
X90005215Y-48260000D01*
X89986397Y-48056917D01*
X89930582Y-47860750D01*
X89839673Y-47678179D01*
X89716764Y-47515421D01*
X89566041Y-47378019D01*
X89392637Y-47270652D01*
X89202456Y-47196976D01*
X89202455Y-47196975D01*
X89202453Y-47196975D01*
X89001976Y-47159500D01*
X88798024Y-47159500D01*
X88597546Y-47196975D01*
X88527632Y-47224059D01*
X88407363Y-47270652D01*
X88233959Y-47378019D01*
X88083237Y-47515420D01*
X87960328Y-47678177D01*
X87960323Y-47678186D01*
X87869419Y-47860747D01*
X87869418Y-47860750D01*
X87813603Y-48056917D01*
X87794785Y-48260000D01*
X85190500Y-48260000D01*
X85190500Y-45718899D01*
X85678118Y-45718899D01*
X85678118Y-45718900D01*
X85698755Y-45875658D01*
X85698757Y-45875666D01*
X85759262Y-46021738D01*
X85759262Y-46021739D01*
X85855513Y-46147176D01*
X85855518Y-46147182D01*
X85980959Y-46243436D01*
X85980960Y-46243436D01*
X85980961Y-46243437D01*
X86121915Y-46301822D01*
X86127038Y-46303944D01*
X86244609Y-46319422D01*
X86283799Y-46324582D01*
X86283800Y-46324582D01*
X86283801Y-46324582D01*
X86315152Y-46320454D01*
X86440562Y-46303944D01*
X86586641Y-46243436D01*
X86712082Y-46147182D01*
X86808336Y-46021741D01*
X86868844Y-45875662D01*
X86889337Y-45720000D01*
X87794785Y-45720000D01*
X87813603Y-45923083D01*
X87869418Y-46119250D01*
X87960327Y-46301821D01*
X88083236Y-46464579D01*
X88233959Y-46601981D01*
X88407363Y-46709348D01*
X88597544Y-46783024D01*
X88798024Y-46820500D01*
X89001976Y-46820500D01*
X89202456Y-46783024D01*
X89392637Y-46709348D01*
X89566041Y-46601981D01*
X89716764Y-46464579D01*
X89839673Y-46301821D01*
X89930582Y-46119250D01*
X89986397Y-45923083D01*
X90005215Y-45720000D01*
X110654785Y-45720000D01*
X110673603Y-45923083D01*
X110729418Y-46119250D01*
X110820327Y-46301821D01*
X110943236Y-46464579D01*
X111093959Y-46601981D01*
X111267363Y-46709348D01*
X111457544Y-46783024D01*
X111658024Y-46820500D01*
X111861976Y-46820500D01*
X112062456Y-46783024D01*
X112252637Y-46709348D01*
X112426041Y-46601981D01*
X112576764Y-46464579D01*
X112699673Y-46301821D01*
X112790582Y-46119250D01*
X112846397Y-45923083D01*
X112865215Y-45720000D01*
X112846397Y-45516917D01*
X112790582Y-45320750D01*
X112699673Y-45138179D01*
X112576764Y-44975421D01*
X112426041Y-44838019D01*
X112252637Y-44730652D01*
X112062456Y-44656976D01*
X112062455Y-44656975D01*
X112062453Y-44656975D01*
X111861976Y-44619500D01*
X111658024Y-44619500D01*
X111457546Y-44656975D01*
X111387632Y-44684059D01*
X111267363Y-44730652D01*
X111093959Y-44838019D01*
X110943237Y-44975420D01*
X110820328Y-45138177D01*
X110820323Y-45138186D01*
X110744419Y-45290623D01*
X110729418Y-45320750D01*
X110673603Y-45516917D01*
X110654785Y-45720000D01*
X90005215Y-45720000D01*
X89986397Y-45516917D01*
X89930582Y-45320750D01*
X89839673Y-45138179D01*
X89716764Y-44975421D01*
X89566041Y-44838019D01*
X89392637Y-44730652D01*
X89202456Y-44656976D01*
X89202455Y-44656975D01*
X89202453Y-44656975D01*
X89001976Y-44619500D01*
X88798024Y-44619500D01*
X88597546Y-44656975D01*
X88527632Y-44684059D01*
X88407363Y-44730652D01*
X88233959Y-44838019D01*
X88083237Y-44975420D01*
X87960328Y-45138177D01*
X87960323Y-45138186D01*
X87884419Y-45290623D01*
X87869418Y-45320750D01*
X87813603Y-45516917D01*
X87794785Y-45720000D01*
X86889337Y-45720000D01*
X86889482Y-45718900D01*
X86868844Y-45562138D01*
X86808337Y-45416061D01*
X86808337Y-45416060D01*
X86712086Y-45290623D01*
X86712085Y-45290622D01*
X86712082Y-45290618D01*
X86712077Y-45290614D01*
X86712076Y-45290613D01*
X86586638Y-45194362D01*
X86440566Y-45133857D01*
X86440558Y-45133855D01*
X86283801Y-45113218D01*
X86283799Y-45113218D01*
X86127041Y-45133855D01*
X86127033Y-45133857D01*
X85980961Y-45194362D01*
X85980960Y-45194362D01*
X85855523Y-45290613D01*
X85855513Y-45290623D01*
X85759262Y-45416060D01*
X85759262Y-45416061D01*
X85698757Y-45562133D01*
X85698755Y-45562141D01*
X85678118Y-45718899D01*
X85190500Y-45718899D01*
X85190500Y-42335130D01*
X87799500Y-42335130D01*
X87799500Y-44024860D01*
X87799501Y-44024863D01*
X87802414Y-44049990D01*
X87807709Y-44061981D01*
X87847794Y-44152765D01*
X87927235Y-44232206D01*
X88030009Y-44277585D01*
X88055135Y-44280500D01*
X89744864Y-44280499D01*
X89769991Y-44277585D01*
X89872765Y-44232206D01*
X89952206Y-44152765D01*
X89985296Y-44077824D01*
X95169999Y-44077824D01*
X95176401Y-44137370D01*
X95176403Y-44137381D01*
X95226646Y-44272088D01*
X95226647Y-44272090D01*
X95312807Y-44387184D01*
X95312815Y-44387192D01*
X95427909Y-44473352D01*
X95427911Y-44473353D01*
X95562618Y-44523596D01*
X95562629Y-44523598D01*
X95622176Y-44530000D01*
X96269999Y-44530000D01*
X96270000Y-44529999D01*
X96270000Y-43613012D01*
X96327007Y-43645925D01*
X96454174Y-43680000D01*
X96585826Y-43680000D01*
X96712993Y-43645925D01*
X96770000Y-43613012D01*
X96770000Y-44529999D01*
X96770001Y-44530000D01*
X97417824Y-44530000D01*
X97477370Y-44523598D01*
X97477381Y-44523596D01*
X97612088Y-44473353D01*
X97612090Y-44473352D01*
X97727184Y-44387192D01*
X97727192Y-44387184D01*
X97813352Y-44272090D01*
X97813353Y-44272088D01*
X97863596Y-44137381D01*
X97863598Y-44137370D01*
X97870000Y-44077824D01*
X102789999Y-44077824D01*
X102796401Y-44137370D01*
X102796403Y-44137381D01*
X102846646Y-44272088D01*
X102846647Y-44272090D01*
X102932807Y-44387184D01*
X102932815Y-44387192D01*
X103047909Y-44473352D01*
X103047911Y-44473353D01*
X103182618Y-44523596D01*
X103182629Y-44523598D01*
X103242176Y-44530000D01*
X103889999Y-44530000D01*
X103890000Y-44529999D01*
X103890000Y-43613012D01*
X103947007Y-43645925D01*
X104074174Y-43680000D01*
X104205826Y-43680000D01*
X104332993Y-43645925D01*
X104390000Y-43613012D01*
X104390000Y-44529999D01*
X104390001Y-44530000D01*
X105037824Y-44530000D01*
X105097370Y-44523598D01*
X105097381Y-44523596D01*
X105232088Y-44473353D01*
X105232090Y-44473352D01*
X105347184Y-44387192D01*
X105347192Y-44387184D01*
X105433352Y-44272090D01*
X105433353Y-44272088D01*
X105483596Y-44137381D01*
X105483598Y-44137370D01*
X105490000Y-44077824D01*
X105490000Y-43430001D01*
X105489999Y-43430000D01*
X104573012Y-43430000D01*
X104605925Y-43372993D01*
X104640000Y-43245826D01*
X104640000Y-43180000D01*
X110654785Y-43180000D01*
X110673603Y-43383083D01*
X110729418Y-43579250D01*
X110820327Y-43761821D01*
X110943236Y-43924579D01*
X111093959Y-44061981D01*
X111267363Y-44169348D01*
X111457544Y-44243024D01*
X111658024Y-44280500D01*
X111861976Y-44280500D01*
X112062456Y-44243024D01*
X112252637Y-44169348D01*
X112426041Y-44061981D01*
X112576764Y-43924579D01*
X112699673Y-43761821D01*
X112790582Y-43579250D01*
X112846397Y-43383083D01*
X112865215Y-43180000D01*
X112846397Y-42976917D01*
X112790582Y-42780750D01*
X112699673Y-42598179D01*
X112576764Y-42435421D01*
X112426041Y-42298019D01*
X112252637Y-42190652D01*
X112062456Y-42116976D01*
X112062455Y-42116975D01*
X112062453Y-42116975D01*
X111861976Y-42079500D01*
X111658024Y-42079500D01*
X111457546Y-42116975D01*
X111429619Y-42127794D01*
X111267363Y-42190652D01*
X111119548Y-42282175D01*
X111093959Y-42298019D01*
X110943237Y-42435420D01*
X110820328Y-42598177D01*
X110820323Y-42598186D01*
X110729419Y-42780747D01*
X110729418Y-42780750D01*
X110673603Y-42976917D01*
X110654785Y-43180000D01*
X104640000Y-43180000D01*
X104640000Y-43114174D01*
X104605925Y-42987007D01*
X104573012Y-42930000D01*
X105489999Y-42930000D01*
X105490000Y-42929999D01*
X105490000Y-42282175D01*
X105483598Y-42222629D01*
X105483596Y-42222618D01*
X105433353Y-42087911D01*
X105433352Y-42087909D01*
X105347192Y-41972815D01*
X105347184Y-41972807D01*
X105232090Y-41886647D01*
X105232088Y-41886646D01*
X105097381Y-41836403D01*
X105097370Y-41836401D01*
X105037824Y-41830000D01*
X104390001Y-41830000D01*
X104390000Y-41830001D01*
X104390000Y-42746988D01*
X104332993Y-42714075D01*
X104205826Y-42680000D01*
X104074174Y-42680000D01*
X103947007Y-42714075D01*
X103890000Y-42746988D01*
X103890000Y-41830001D01*
X103889999Y-41830000D01*
X103242176Y-41830000D01*
X103182629Y-41836401D01*
X103182618Y-41836403D01*
X103047911Y-41886646D01*
X103047909Y-41886647D01*
X102932815Y-41972807D01*
X102932807Y-41972815D01*
X102846647Y-42087909D01*
X102846646Y-42087911D01*
X102796403Y-42222618D01*
X102796401Y-42222629D01*
X102790000Y-42282175D01*
X102790000Y-42929999D01*
X102790001Y-42930000D01*
X103706988Y-42930000D01*
X103674075Y-42987007D01*
X103640000Y-43114174D01*
X103640000Y-43245826D01*
X103674075Y-43372993D01*
X103706988Y-43430000D01*
X102790001Y-43430000D01*
X102790000Y-43430001D01*
X102790000Y-44077824D01*
X102789999Y-44077824D01*
X97870000Y-44077824D01*
X97870000Y-43430001D01*
X97869999Y-43430000D01*
X96953012Y-43430000D01*
X96985925Y-43372993D01*
X97020000Y-43245826D01*
X97020000Y-43114174D01*
X96985925Y-42987007D01*
X96953012Y-42930000D01*
X97869999Y-42930000D01*
X97870000Y-42929999D01*
X97870000Y-42282175D01*
X97863598Y-42222629D01*
X97863596Y-42222618D01*
X97813353Y-42087911D01*
X97813352Y-42087909D01*
X97727192Y-41972815D01*
X97727184Y-41972807D01*
X97612090Y-41886647D01*
X97612088Y-41886646D01*
X97477381Y-41836403D01*
X97477370Y-41836401D01*
X97417824Y-41830000D01*
X96770001Y-41830000D01*
X96770000Y-41830001D01*
X96770000Y-42746988D01*
X96712993Y-42714075D01*
X96585826Y-42680000D01*
X96454174Y-42680000D01*
X96327007Y-42714075D01*
X96270000Y-42746988D01*
X96270000Y-41830001D01*
X96269999Y-41830000D01*
X95622176Y-41830000D01*
X95562629Y-41836401D01*
X95562618Y-41836403D01*
X95427911Y-41886646D01*
X95427909Y-41886647D01*
X95312815Y-41972807D01*
X95312807Y-41972815D01*
X95226647Y-42087909D01*
X95226646Y-42087911D01*
X95176403Y-42222618D01*
X95176401Y-42222629D01*
X95170000Y-42282175D01*
X95170000Y-42929999D01*
X95170001Y-42930000D01*
X96086988Y-42930000D01*
X96054075Y-42987007D01*
X96020000Y-43114174D01*
X96020000Y-43245826D01*
X96054075Y-43372993D01*
X96086988Y-43430000D01*
X95170001Y-43430000D01*
X95170000Y-43430001D01*
X95170000Y-44077824D01*
X95169999Y-44077824D01*
X89985296Y-44077824D01*
X89997585Y-44049991D01*
X90000500Y-44024865D01*
X90000499Y-42335136D01*
X89997585Y-42310009D01*
X89952206Y-42207235D01*
X89872765Y-42127794D01*
X89769991Y-42082415D01*
X89769990Y-42082414D01*
X89769988Y-42082414D01*
X89744868Y-42079500D01*
X88055139Y-42079500D01*
X88055136Y-42079501D01*
X88030009Y-42082414D01*
X87927235Y-42127794D01*
X87847794Y-42207235D01*
X87802414Y-42310011D01*
X87799500Y-42335130D01*
X85190500Y-42335130D01*
X85190500Y-39877999D01*
X100613318Y-39877999D01*
X100613318Y-39878000D01*
X100633955Y-40034758D01*
X100633957Y-40034766D01*
X100694462Y-40180838D01*
X100694462Y-40180839D01*
X100694464Y-40180841D01*
X100790718Y-40306282D01*
X100916159Y-40402536D01*
X101062238Y-40463044D01*
X101179809Y-40478522D01*
X101218999Y-40483682D01*
X101219000Y-40483682D01*
X101219001Y-40483682D01*
X101250352Y-40479554D01*
X101375762Y-40463044D01*
X101521841Y-40402536D01*
X101647282Y-40306282D01*
X101743536Y-40180841D01*
X101804044Y-40034762D01*
X101824682Y-39878000D01*
X101804044Y-39721238D01*
X101743537Y-39575161D01*
X101743537Y-39575160D01*
X101647286Y-39449723D01*
X101647285Y-39449722D01*
X101647282Y-39449718D01*
X101647277Y-39449714D01*
X101647276Y-39449713D01*
X101576104Y-39395101D01*
X101521841Y-39353464D01*
X101521840Y-39353463D01*
X101521838Y-39353462D01*
X101375766Y-39292957D01*
X101375758Y-39292955D01*
X101219001Y-39272318D01*
X101218999Y-39272318D01*
X101062241Y-39292955D01*
X101062233Y-39292957D01*
X100916161Y-39353462D01*
X100916160Y-39353462D01*
X100790723Y-39449713D01*
X100790713Y-39449723D01*
X100694462Y-39575160D01*
X100694462Y-39575161D01*
X100633957Y-39721233D01*
X100633955Y-39721241D01*
X100613318Y-39877999D01*
X85190500Y-39877999D01*
X85190500Y-39374318D01*
X85190877Y-39365690D01*
X85197240Y-39292955D01*
X85207512Y-39175540D01*
X85210505Y-39158564D01*
X85258790Y-38978360D01*
X85264686Y-38962163D01*
X85343526Y-38793091D01*
X85352146Y-38778161D01*
X85459145Y-38625351D01*
X85470226Y-38612144D01*
X85602144Y-38480226D01*
X85615351Y-38469145D01*
X85768161Y-38362146D01*
X85783091Y-38353526D01*
X85952163Y-38274686D01*
X85968360Y-38268790D01*
X86148564Y-38220505D01*
X86165540Y-38217512D01*
X86355691Y-38200877D01*
X86364319Y-38200500D01*
X86386929Y-38200500D01*
X114273071Y-38200500D01*
X114295681Y-38200500D01*
X114304309Y-38200877D01*
G37*
%TD.AperFunction*%
%TD*%
M02*
