G04 #@! TF.GenerationSoftware,KiCad,Pcbnew,8.0.4+dfsg-1*
G04 #@! TF.CreationDate,2025-02-23T16:56:38+09:00*
G04 #@! TF.ProjectId,bionic-p8085,62696f6e-6963-42d7-9038-3038352e6b69,6*
G04 #@! TF.SameCoordinates,Original*
G04 #@! TF.FileFunction,Legend,Top*
G04 #@! TF.FilePolarity,Positive*
%FSLAX46Y46*%
G04 Gerber Fmt 4.6, Leading zero omitted, Abs format (unit mm)*
G04 Created by KiCad (PCBNEW 8.0.4+dfsg-1) date 2025-02-23 16:56:38*
%MOMM*%
%LPD*%
G01*
G04 APERTURE LIST*
%ADD10C,0.150000*%
%ADD11C,0.152400*%
%ADD12C,0.120000*%
G04 APERTURE END LIST*
D10*
G36*
X107445538Y-135672063D02*
G01*
X107522344Y-135678637D01*
X107604522Y-135692311D01*
X107675805Y-135712297D01*
X107745195Y-135743590D01*
X107770394Y-135759631D01*
X107826173Y-135811219D01*
X107866015Y-135876592D01*
X107889920Y-135955750D01*
X107897764Y-136036321D01*
X107897889Y-136048692D01*
X107889982Y-136126373D01*
X107863019Y-136201904D01*
X107816922Y-136267045D01*
X107760737Y-136314622D01*
X107693389Y-136348819D01*
X107614878Y-136369634D01*
X107597836Y-136372192D01*
X107597836Y-136382450D01*
X107678036Y-136400127D01*
X107747542Y-136425315D01*
X107819387Y-136467361D01*
X107874524Y-136521142D01*
X107912953Y-136586658D01*
X107934674Y-136663909D01*
X107940020Y-136734160D01*
X107935397Y-136807481D01*
X107918314Y-136885274D01*
X107888644Y-136954722D01*
X107846386Y-137015826D01*
X107808496Y-137054362D01*
X107746538Y-137099615D01*
X107675430Y-137133753D01*
X107595170Y-137156776D01*
X107519092Y-137167664D01*
X107450558Y-137170500D01*
X106907606Y-137170500D01*
X106907606Y-137006735D01*
X107100314Y-137006735D01*
X107416486Y-137006735D01*
X107491619Y-137002355D01*
X107571448Y-136984565D01*
X107646582Y-136945152D01*
X107699175Y-136886033D01*
X107729228Y-136807207D01*
X107737055Y-136726466D01*
X107728906Y-136651635D01*
X107697616Y-136578580D01*
X107642859Y-136523788D01*
X107564635Y-136487261D01*
X107481521Y-136470772D01*
X107403297Y-136466714D01*
X107100314Y-136466714D01*
X107100314Y-137006735D01*
X106907606Y-137006735D01*
X106907606Y-136302949D01*
X107100314Y-136302949D01*
X107392672Y-136302949D01*
X107467640Y-136299446D01*
X107546021Y-136285213D01*
X107617600Y-136253683D01*
X107627145Y-136246895D01*
X107674824Y-136189259D01*
X107697261Y-136114589D01*
X107700785Y-136061515D01*
X107691477Y-135985822D01*
X107656477Y-135917465D01*
X107622016Y-135886759D01*
X107549957Y-135854387D01*
X107470072Y-135838824D01*
X107393182Y-135833844D01*
X107372156Y-135833636D01*
X107100314Y-135833636D01*
X107100314Y-136302949D01*
X106907606Y-136302949D01*
X106907606Y-135669871D01*
X107361165Y-135669871D01*
X107445538Y-135672063D01*
G37*
G36*
X108680809Y-135576082D02*
G01*
X108755441Y-135598452D01*
X108788280Y-135665561D01*
X108789986Y-135692952D01*
X108771644Y-135765080D01*
X108757379Y-135781613D01*
X108689015Y-135810301D01*
X108680809Y-135810555D01*
X108609410Y-135791146D01*
X108573226Y-135726832D01*
X108570533Y-135692952D01*
X108588733Y-135617284D01*
X108654963Y-135577908D01*
X108680809Y-135576082D01*
G37*
G36*
X108586287Y-136192307D02*
G01*
X108308949Y-136170691D01*
X108308949Y-136045028D01*
X108773499Y-136045028D01*
X108773499Y-137023221D01*
X109136200Y-137043737D01*
X109136200Y-137170500D01*
X108231646Y-137170500D01*
X108231646Y-137043737D01*
X108586287Y-137023221D01*
X108586287Y-136192307D01*
G37*
G36*
X110005242Y-136027197D02*
G01*
X110080882Y-136044044D01*
X110150803Y-136072122D01*
X110215005Y-136111432D01*
X110273489Y-136161973D01*
X110291713Y-136181316D01*
X110340395Y-136244900D01*
X110379005Y-136315852D01*
X110407542Y-136394171D01*
X110426008Y-136479857D01*
X110433702Y-136556890D01*
X110434961Y-136605566D01*
X110431509Y-136688148D01*
X110421151Y-136765077D01*
X110403888Y-136836354D01*
X110374058Y-136914424D01*
X110334285Y-136984354D01*
X110293545Y-137036410D01*
X110237353Y-137089948D01*
X110174568Y-137132409D01*
X110105187Y-137163793D01*
X110029213Y-137184101D01*
X109946643Y-137193331D01*
X109917655Y-137193947D01*
X109836893Y-137188318D01*
X109761669Y-137171433D01*
X109691984Y-137143290D01*
X109627838Y-137103890D01*
X109569229Y-137053233D01*
X109550924Y-137033846D01*
X109502118Y-136969896D01*
X109463409Y-136898400D01*
X109434798Y-136819355D01*
X109418669Y-136747719D01*
X109409553Y-136670842D01*
X109407309Y-136605566D01*
X109601116Y-136605566D01*
X109603934Y-136682890D01*
X109616456Y-136774157D01*
X109638996Y-136851904D01*
X109681258Y-136930073D01*
X109739173Y-136987115D01*
X109812741Y-137023031D01*
X109901962Y-137037819D01*
X109921685Y-137038242D01*
X109996560Y-137031481D01*
X110076116Y-137004017D01*
X110140072Y-136955425D01*
X110188429Y-136885707D01*
X110215884Y-136814721D01*
X110233355Y-136730214D01*
X110240842Y-136632186D01*
X110241154Y-136605566D01*
X110238327Y-136529028D01*
X110225762Y-136438687D01*
X110203145Y-136361731D01*
X110160737Y-136284356D01*
X110102624Y-136227893D01*
X110028803Y-136192343D01*
X109939277Y-136177704D01*
X109919487Y-136177286D01*
X109844868Y-136183978D01*
X109765587Y-136211164D01*
X109701850Y-136259261D01*
X109653660Y-136328271D01*
X109626300Y-136398536D01*
X109608889Y-136482184D01*
X109601427Y-136579217D01*
X109601116Y-136605566D01*
X109407309Y-136605566D01*
X109410717Y-136523749D01*
X109420941Y-136447514D01*
X109442206Y-136363399D01*
X109473285Y-136287321D01*
X109514179Y-136219280D01*
X109546894Y-136178385D01*
X109602677Y-136125096D01*
X109665339Y-136082833D01*
X109734878Y-136051594D01*
X109811295Y-136031381D01*
X109894590Y-136022194D01*
X109923883Y-136021581D01*
X110005242Y-136027197D01*
G37*
G36*
X111463346Y-137170500D02*
G01*
X111463346Y-136444366D01*
X111457362Y-136367424D01*
X111434384Y-136292308D01*
X111385795Y-136228407D01*
X111313750Y-136190066D01*
X111233327Y-136177547D01*
X111218248Y-136177286D01*
X111144059Y-136183674D01*
X111065234Y-136209628D01*
X111001864Y-136255545D01*
X110953950Y-136321426D01*
X110921493Y-136407271D01*
X110906655Y-136490321D01*
X110901709Y-136586148D01*
X110901709Y-137170500D01*
X110714131Y-137170500D01*
X110714131Y-136045028D01*
X110865439Y-136045028D01*
X110893283Y-136194871D01*
X110903541Y-136194871D01*
X110948097Y-136135980D01*
X111011996Y-136082673D01*
X111088727Y-136045950D01*
X111164710Y-136027673D01*
X111250122Y-136021581D01*
X111344060Y-136028021D01*
X111425473Y-136047341D01*
X111494361Y-136079541D01*
X111562857Y-136137904D01*
X111603564Y-136199084D01*
X111631745Y-136273144D01*
X111647401Y-136360083D01*
X111650924Y-136433741D01*
X111650924Y-137170500D01*
X111463346Y-137170500D01*
G37*
G36*
X112461688Y-135576082D02*
G01*
X112536321Y-135598452D01*
X112569159Y-135665561D01*
X112570865Y-135692952D01*
X112552524Y-135765080D01*
X112538258Y-135781613D01*
X112469894Y-135810301D01*
X112461688Y-135810555D01*
X112390289Y-135791146D01*
X112354105Y-135726832D01*
X112351413Y-135692952D01*
X112369612Y-135617284D01*
X112435842Y-135577908D01*
X112461688Y-135576082D01*
G37*
G36*
X112367166Y-136192307D02*
G01*
X112089829Y-136170691D01*
X112089829Y-136045028D01*
X112554378Y-136045028D01*
X112554378Y-137023221D01*
X112917079Y-137043737D01*
X112917079Y-137170500D01*
X112012526Y-137170500D01*
X112012526Y-137043737D01*
X112367166Y-137023221D01*
X112367166Y-136192307D01*
G37*
G36*
X114163084Y-136082398D02*
G01*
X114099337Y-136245063D01*
X114024094Y-136218937D01*
X113952974Y-136200275D01*
X113877890Y-136188204D01*
X113823098Y-136185346D01*
X113733539Y-136192004D01*
X113655921Y-136211976D01*
X113590245Y-136245264D01*
X113524941Y-136305598D01*
X113486133Y-136368844D01*
X113459265Y-136445406D01*
X113444338Y-136535282D01*
X113440980Y-136611428D01*
X113444248Y-136686264D01*
X113458774Y-136774595D01*
X113484920Y-136849840D01*
X113533945Y-136925493D01*
X113601127Y-136980700D01*
X113686465Y-137015460D01*
X113767810Y-137028546D01*
X113812840Y-137030182D01*
X113894241Y-137026198D01*
X113976513Y-137014245D01*
X114049214Y-136997250D01*
X114122582Y-136974154D01*
X114143667Y-136966435D01*
X114143667Y-137131299D01*
X114070691Y-137158707D01*
X113989885Y-137178285D01*
X113912756Y-137188991D01*
X113829631Y-137193702D01*
X113804780Y-137193947D01*
X113724893Y-137190289D01*
X113650785Y-137179314D01*
X113569482Y-137156486D01*
X113496500Y-137123123D01*
X113431838Y-137079223D01*
X113393353Y-137044104D01*
X113343674Y-136983327D01*
X113304275Y-136913380D01*
X113275153Y-136834263D01*
X113258736Y-136761326D01*
X113249457Y-136682021D01*
X113247173Y-136613992D01*
X113250823Y-136526918D01*
X113261771Y-136446588D01*
X113280017Y-136373002D01*
X113311547Y-136293601D01*
X113353588Y-136223912D01*
X113396650Y-136173256D01*
X113456967Y-136121710D01*
X113525810Y-136080829D01*
X113603181Y-136050613D01*
X113689077Y-136031061D01*
X113767171Y-136022914D01*
X113816870Y-136021581D01*
X113896173Y-136024491D01*
X113973478Y-136033222D01*
X114048784Y-136047773D01*
X114122091Y-136068144D01*
X114163084Y-136082398D01*
G37*
G36*
X115022361Y-135673723D02*
G01*
X115107723Y-135685276D01*
X115183773Y-135704532D01*
X115270687Y-135742187D01*
X115341046Y-135793535D01*
X115394850Y-135858576D01*
X115432099Y-135937310D01*
X115452793Y-136029737D01*
X115457449Y-136108043D01*
X115452426Y-136188672D01*
X115437356Y-136262397D01*
X115407077Y-136339684D01*
X115363124Y-136407575D01*
X115314567Y-136458287D01*
X115246010Y-136507252D01*
X115177368Y-136539649D01*
X115099608Y-136563211D01*
X115012728Y-136577937D01*
X114933362Y-136583459D01*
X114899842Y-136583950D01*
X114703105Y-136583950D01*
X114703105Y-137170500D01*
X114511496Y-137170500D01*
X114511496Y-136420185D01*
X114703105Y-136420185D01*
X114878227Y-136420185D01*
X114961948Y-136416679D01*
X115034554Y-136406161D01*
X115111573Y-136382333D01*
X115170219Y-136346913D01*
X115220488Y-136286754D01*
X115248080Y-136215084D01*
X115258168Y-136136754D01*
X115258513Y-136117569D01*
X115250007Y-136035772D01*
X115217343Y-135955916D01*
X115160182Y-135896024D01*
X115093834Y-135861364D01*
X115010473Y-135840568D01*
X114931536Y-135833914D01*
X114910101Y-135833636D01*
X114703105Y-135833636D01*
X114703105Y-136420185D01*
X114511496Y-136420185D01*
X114511496Y-135669871D01*
X114927686Y-135669871D01*
X115022361Y-135673723D01*
G37*
G36*
X116302706Y-135651087D02*
G01*
X116375320Y-135665077D01*
X116449807Y-135692486D01*
X116515226Y-135732076D01*
X116530163Y-135743877D01*
X116581615Y-135796885D01*
X116621926Y-135866756D01*
X116642139Y-135937962D01*
X116647766Y-136007293D01*
X116638274Y-136092000D01*
X116609796Y-136169443D01*
X116562333Y-136239622D01*
X116508279Y-136292555D01*
X116441040Y-136340444D01*
X116377756Y-136375123D01*
X116452374Y-136417518D01*
X116517043Y-136462272D01*
X116583888Y-136521530D01*
X116635188Y-136584474D01*
X116670943Y-136651103D01*
X116693328Y-136735922D01*
X116696127Y-136780322D01*
X116689903Y-136858560D01*
X116671232Y-136929787D01*
X116634653Y-137002602D01*
X116581817Y-137066257D01*
X116566067Y-137080740D01*
X116505329Y-137124851D01*
X116436597Y-137158128D01*
X116359871Y-137180570D01*
X116275151Y-137192178D01*
X116223150Y-137193947D01*
X116143183Y-137190199D01*
X116070067Y-137178955D01*
X115993426Y-137156362D01*
X115926112Y-137123566D01*
X115875837Y-137087335D01*
X115821340Y-137028556D01*
X115782414Y-136959199D01*
X115759058Y-136879263D01*
X115751395Y-136800641D01*
X115751273Y-136788748D01*
X115751338Y-136788015D01*
X115934455Y-136788015D01*
X115944450Y-136871684D01*
X115981376Y-136947418D01*
X116045509Y-136999591D01*
X116122137Y-137025557D01*
X116201263Y-137033972D01*
X116218754Y-137034212D01*
X116292640Y-137028909D01*
X116369249Y-137008023D01*
X116435642Y-136967167D01*
X116482525Y-136909242D01*
X116507769Y-136836581D01*
X116512578Y-136779955D01*
X116500166Y-136703239D01*
X116462930Y-136634657D01*
X116447732Y-136616557D01*
X116392413Y-136566922D01*
X116331182Y-136525538D01*
X116264687Y-136488169D01*
X116227180Y-136469278D01*
X116196406Y-136454990D01*
X116120941Y-136495868D01*
X116058268Y-136540878D01*
X115999943Y-136600345D01*
X115960036Y-136665763D01*
X115938548Y-136737131D01*
X115934455Y-136788015D01*
X115751338Y-136788015D01*
X115758366Y-136709014D01*
X115779645Y-136635362D01*
X115815110Y-136567792D01*
X115864760Y-136506304D01*
X115928597Y-136450899D01*
X116006619Y-136401575D01*
X116041800Y-136383549D01*
X115972035Y-136334800D01*
X115914095Y-136282205D01*
X115860175Y-136214014D01*
X115823282Y-136140285D01*
X115803417Y-136061017D01*
X115800401Y-136016452D01*
X115983182Y-136016452D01*
X115992929Y-136091265D01*
X116025005Y-136159593D01*
X116034106Y-136171790D01*
X116090236Y-136223409D01*
X116153491Y-136263279D01*
X116225348Y-136299285D01*
X116294163Y-136264753D01*
X116361345Y-136218591D01*
X116418497Y-136158224D01*
X116452788Y-136090844D01*
X116464218Y-136016452D01*
X116453516Y-135941146D01*
X116414570Y-135874240D01*
X116399371Y-135860015D01*
X116333304Y-135823199D01*
X116255254Y-135807474D01*
X116220952Y-135806159D01*
X116145355Y-135813732D01*
X116073047Y-135841712D01*
X116047295Y-135860015D01*
X116001276Y-135921211D01*
X115983745Y-135997646D01*
X115983182Y-136016452D01*
X115800401Y-136016452D01*
X115799633Y-136005095D01*
X115807121Y-135926922D01*
X115833444Y-135849159D01*
X115878721Y-135782176D01*
X115919434Y-135743511D01*
X115983479Y-135701035D01*
X116055447Y-135670696D01*
X116135337Y-135652492D01*
X116211740Y-135646519D01*
X116223150Y-135646424D01*
X116302706Y-135651087D01*
G37*
G36*
X117566712Y-135653418D02*
G01*
X117643962Y-135674399D01*
X117712995Y-135709369D01*
X117773810Y-135758326D01*
X117826408Y-135821270D01*
X117842114Y-135845360D01*
X117877366Y-135911839D01*
X117906643Y-135986940D01*
X117929945Y-136070663D01*
X117944284Y-136143850D01*
X117954800Y-136222556D01*
X117961492Y-136306779D01*
X117964360Y-136396521D01*
X117964480Y-136419819D01*
X117962592Y-136513561D01*
X117956929Y-136601255D01*
X117947491Y-136682902D01*
X117934277Y-136758500D01*
X117907379Y-136860558D01*
X117871986Y-136949008D01*
X117828098Y-137023850D01*
X117775716Y-137085085D01*
X117714840Y-137132712D01*
X117645469Y-137166731D01*
X117567604Y-137187143D01*
X117481245Y-137193947D01*
X117396787Y-137186953D01*
X117320365Y-137165971D01*
X117251981Y-137131002D01*
X117191634Y-137082045D01*
X117139324Y-137019101D01*
X117123674Y-136995011D01*
X117088633Y-136928514D01*
X117059531Y-136853360D01*
X117036369Y-136769547D01*
X117022115Y-136696262D01*
X117011662Y-136617437D01*
X117005010Y-136533070D01*
X117002159Y-136443162D01*
X117002041Y-136419819D01*
X117002056Y-136419086D01*
X117192916Y-136419086D01*
X117194004Y-136498015D01*
X117197267Y-136571219D01*
X117204405Y-136654674D01*
X117214941Y-136729185D01*
X117232072Y-136806791D01*
X117258243Y-136881053D01*
X117262526Y-136890231D01*
X117302299Y-136953223D01*
X117358923Y-137002576D01*
X117428124Y-137029150D01*
X117481245Y-137034212D01*
X117560187Y-137022794D01*
X117626377Y-136988540D01*
X117679816Y-136931449D01*
X117703995Y-136889864D01*
X117731689Y-136817874D01*
X117750013Y-136742355D01*
X117761465Y-136669681D01*
X117769447Y-136588152D01*
X117773959Y-136497769D01*
X117775069Y-136419086D01*
X117773959Y-136340925D01*
X117769447Y-136251112D01*
X117761465Y-136170065D01*
X117747306Y-136084378D01*
X117728149Y-136011314D01*
X117703995Y-135950873D01*
X117663420Y-135887561D01*
X117605730Y-135837956D01*
X117535290Y-135811247D01*
X117481245Y-135806159D01*
X117403659Y-135817519D01*
X117338651Y-135851600D01*
X117286219Y-135908400D01*
X117262526Y-135949774D01*
X117235403Y-136021193D01*
X117217456Y-136096335D01*
X117206240Y-136168772D01*
X117198423Y-136250136D01*
X117194004Y-136340427D01*
X117192916Y-136419086D01*
X117002056Y-136419086D01*
X117003913Y-136326166D01*
X117009528Y-136238555D01*
X117018888Y-136156986D01*
X117031991Y-136081459D01*
X117058665Y-135979498D01*
X117093763Y-135891131D01*
X117137285Y-135816360D01*
X117189230Y-135755183D01*
X117249598Y-135707601D01*
X117318390Y-135673614D01*
X117395606Y-135653222D01*
X117481245Y-135646424D01*
X117566712Y-135653418D01*
G37*
G36*
X118823293Y-135651087D02*
G01*
X118895906Y-135665077D01*
X118970393Y-135692486D01*
X119035812Y-135732076D01*
X119050750Y-135743877D01*
X119102201Y-135796885D01*
X119142512Y-135866756D01*
X119162725Y-135937962D01*
X119168353Y-136007293D01*
X119158860Y-136092000D01*
X119130382Y-136169443D01*
X119082920Y-136239622D01*
X119028865Y-136292555D01*
X118961626Y-136340444D01*
X118898342Y-136375123D01*
X118972960Y-136417518D01*
X119037629Y-136462272D01*
X119104475Y-136521530D01*
X119155775Y-136584474D01*
X119191529Y-136651103D01*
X119213915Y-136735922D01*
X119216713Y-136780322D01*
X119210489Y-136858560D01*
X119191819Y-136929787D01*
X119155239Y-137002602D01*
X119102403Y-137066257D01*
X119086653Y-137080740D01*
X119025916Y-137124851D01*
X118957184Y-137158128D01*
X118880458Y-137180570D01*
X118795737Y-137192178D01*
X118743736Y-137193947D01*
X118663769Y-137190199D01*
X118590653Y-137178955D01*
X118514012Y-137156362D01*
X118446698Y-137123566D01*
X118396423Y-137087335D01*
X118341926Y-137028556D01*
X118303000Y-136959199D01*
X118279644Y-136879263D01*
X118271981Y-136800641D01*
X118271859Y-136788748D01*
X118271924Y-136788015D01*
X118455041Y-136788015D01*
X118465036Y-136871684D01*
X118501962Y-136947418D01*
X118566096Y-136999591D01*
X118642723Y-137025557D01*
X118721849Y-137033972D01*
X118739340Y-137034212D01*
X118813226Y-137028909D01*
X118889836Y-137008023D01*
X118956228Y-136967167D01*
X119003111Y-136909242D01*
X119028356Y-136836581D01*
X119033164Y-136779955D01*
X119020752Y-136703239D01*
X118983516Y-136634657D01*
X118968318Y-136616557D01*
X118913000Y-136566922D01*
X118851768Y-136525538D01*
X118785273Y-136488169D01*
X118747766Y-136469278D01*
X118716992Y-136454990D01*
X118641528Y-136495868D01*
X118578854Y-136540878D01*
X118520529Y-136600345D01*
X118480622Y-136665763D01*
X118459134Y-136737131D01*
X118455041Y-136788015D01*
X118271924Y-136788015D01*
X118278952Y-136709014D01*
X118300231Y-136635362D01*
X118335696Y-136567792D01*
X118385346Y-136506304D01*
X118449183Y-136450899D01*
X118527205Y-136401575D01*
X118562386Y-136383549D01*
X118492621Y-136334800D01*
X118434681Y-136282205D01*
X118380761Y-136214014D01*
X118343868Y-136140285D01*
X118324003Y-136061017D01*
X118320987Y-136016452D01*
X118503768Y-136016452D01*
X118513515Y-136091265D01*
X118545592Y-136159593D01*
X118554692Y-136171790D01*
X118610822Y-136223409D01*
X118674077Y-136263279D01*
X118745935Y-136299285D01*
X118814750Y-136264753D01*
X118881932Y-136218591D01*
X118939083Y-136158224D01*
X118973374Y-136090844D01*
X118984804Y-136016452D01*
X118974102Y-135941146D01*
X118935156Y-135874240D01*
X118919958Y-135860015D01*
X118853890Y-135823199D01*
X118775840Y-135807474D01*
X118741538Y-135806159D01*
X118665941Y-135813732D01*
X118593633Y-135841712D01*
X118567882Y-135860015D01*
X118521862Y-135921211D01*
X118504331Y-135997646D01*
X118503768Y-136016452D01*
X118320987Y-136016452D01*
X118320219Y-136005095D01*
X118327707Y-135926922D01*
X118354030Y-135849159D01*
X118399307Y-135782176D01*
X118440020Y-135743511D01*
X118504065Y-135701035D01*
X118576033Y-135670696D01*
X118655923Y-135652492D01*
X118732327Y-135646519D01*
X118743736Y-135646424D01*
X118823293Y-135651087D01*
G37*
G36*
X119548639Y-137112614D02*
G01*
X119548639Y-136935294D01*
X119617095Y-136973837D01*
X119692634Y-137002914D01*
X119775256Y-137022523D01*
X119851711Y-137031797D01*
X119919399Y-137034212D01*
X120000543Y-137029220D01*
X120086759Y-137008941D01*
X120156069Y-136973064D01*
X120208475Y-136921586D01*
X120243975Y-136854510D01*
X120262571Y-136771835D01*
X120265614Y-136714742D01*
X120256964Y-136628618D01*
X120231017Y-136557091D01*
X120177045Y-136490527D01*
X120113040Y-136451115D01*
X120031737Y-136426299D01*
X119954240Y-136416957D01*
X119911339Y-136415789D01*
X119834746Y-136419396D01*
X119759270Y-136427911D01*
X119682286Y-136439857D01*
X119673203Y-136441435D01*
X119580512Y-136382450D01*
X119637299Y-135669871D01*
X120348046Y-135669871D01*
X120348046Y-135840964D01*
X119799965Y-135840964D01*
X119759665Y-136276571D01*
X119834873Y-136264890D01*
X119908869Y-136258058D01*
X119975087Y-136256054D01*
X120053358Y-136260176D01*
X120125783Y-136272541D01*
X120202887Y-136297385D01*
X120272032Y-136333449D01*
X120324965Y-136373291D01*
X120376927Y-136428576D01*
X120416126Y-136492172D01*
X120442563Y-136564077D01*
X120456238Y-136644292D01*
X120458321Y-136693860D01*
X120453324Y-136779748D01*
X120438331Y-136857985D01*
X120413344Y-136928572D01*
X120371560Y-137001253D01*
X120316172Y-137063521D01*
X120248407Y-137114341D01*
X120181448Y-137147967D01*
X120106297Y-137172421D01*
X120022955Y-137187706D01*
X119947246Y-137193437D01*
X119915369Y-137193947D01*
X119832152Y-137191087D01*
X119755606Y-137182509D01*
X119674735Y-137165274D01*
X119602945Y-137140254D01*
X119548639Y-137112614D01*
G37*
X112938095Y-125842819D02*
X112938095Y-126652342D01*
X112938095Y-126652342D02*
X112985714Y-126747580D01*
X112985714Y-126747580D02*
X113033333Y-126795200D01*
X113033333Y-126795200D02*
X113128571Y-126842819D01*
X113128571Y-126842819D02*
X113319047Y-126842819D01*
X113319047Y-126842819D02*
X113414285Y-126795200D01*
X113414285Y-126795200D02*
X113461904Y-126747580D01*
X113461904Y-126747580D02*
X113509523Y-126652342D01*
X113509523Y-126652342D02*
X113509523Y-125842819D01*
X113938095Y-125938057D02*
X113985714Y-125890438D01*
X113985714Y-125890438D02*
X114080952Y-125842819D01*
X114080952Y-125842819D02*
X114319047Y-125842819D01*
X114319047Y-125842819D02*
X114414285Y-125890438D01*
X114414285Y-125890438D02*
X114461904Y-125938057D01*
X114461904Y-125938057D02*
X114509523Y-126033295D01*
X114509523Y-126033295D02*
X114509523Y-126128533D01*
X114509523Y-126128533D02*
X114461904Y-126271390D01*
X114461904Y-126271390D02*
X113890476Y-126842819D01*
X113890476Y-126842819D02*
X114509523Y-126842819D01*
X112938095Y-76947819D02*
X112938095Y-77757342D01*
X112938095Y-77757342D02*
X112985714Y-77852580D01*
X112985714Y-77852580D02*
X113033333Y-77900200D01*
X113033333Y-77900200D02*
X113128571Y-77947819D01*
X113128571Y-77947819D02*
X113319047Y-77947819D01*
X113319047Y-77947819D02*
X113414285Y-77900200D01*
X113414285Y-77900200D02*
X113461904Y-77852580D01*
X113461904Y-77852580D02*
X113509523Y-77757342D01*
X113509523Y-77757342D02*
X113509523Y-76947819D01*
X114509523Y-77947819D02*
X113938095Y-77947819D01*
X114223809Y-77947819D02*
X114223809Y-76947819D01*
X114223809Y-76947819D02*
X114128571Y-77090676D01*
X114128571Y-77090676D02*
X114033333Y-77185914D01*
X114033333Y-77185914D02*
X113938095Y-77233533D01*
X115882905Y-72232819D02*
X115882905Y-71232819D01*
X115882905Y-71232819D02*
X116121000Y-71232819D01*
X116121000Y-71232819D02*
X116263857Y-71280438D01*
X116263857Y-71280438D02*
X116359095Y-71375676D01*
X116359095Y-71375676D02*
X116406714Y-71470914D01*
X116406714Y-71470914D02*
X116454333Y-71661390D01*
X116454333Y-71661390D02*
X116454333Y-71804247D01*
X116454333Y-71804247D02*
X116406714Y-71994723D01*
X116406714Y-71994723D02*
X116359095Y-72089961D01*
X116359095Y-72089961D02*
X116263857Y-72185200D01*
X116263857Y-72185200D02*
X116121000Y-72232819D01*
X116121000Y-72232819D02*
X115882905Y-72232819D01*
X117406714Y-72232819D02*
X116835286Y-72232819D01*
X117121000Y-72232819D02*
X117121000Y-71232819D01*
X117121000Y-71232819D02*
X117025762Y-71375676D01*
X117025762Y-71375676D02*
X116930524Y-71470914D01*
X116930524Y-71470914D02*
X116835286Y-71518533D01*
X124270380Y-77178166D02*
X124318000Y-77225785D01*
X124318000Y-77225785D02*
X124365619Y-77368642D01*
X124365619Y-77368642D02*
X124365619Y-77463880D01*
X124365619Y-77463880D02*
X124318000Y-77606737D01*
X124318000Y-77606737D02*
X124222761Y-77701975D01*
X124222761Y-77701975D02*
X124127523Y-77749594D01*
X124127523Y-77749594D02*
X123937047Y-77797213D01*
X123937047Y-77797213D02*
X123794190Y-77797213D01*
X123794190Y-77797213D02*
X123603714Y-77749594D01*
X123603714Y-77749594D02*
X123508476Y-77701975D01*
X123508476Y-77701975D02*
X123413238Y-77606737D01*
X123413238Y-77606737D02*
X123365619Y-77463880D01*
X123365619Y-77463880D02*
X123365619Y-77368642D01*
X123365619Y-77368642D02*
X123413238Y-77225785D01*
X123413238Y-77225785D02*
X123460857Y-77178166D01*
X124365619Y-76225785D02*
X124365619Y-76797213D01*
X124365619Y-76511499D02*
X123365619Y-76511499D01*
X123365619Y-76511499D02*
X123508476Y-76606737D01*
X123508476Y-76606737D02*
X123603714Y-76701975D01*
X123603714Y-76701975D02*
X123651333Y-76797213D01*
X106929333Y-72232819D02*
X106596000Y-71756628D01*
X106357905Y-72232819D02*
X106357905Y-71232819D01*
X106357905Y-71232819D02*
X106738857Y-71232819D01*
X106738857Y-71232819D02*
X106834095Y-71280438D01*
X106834095Y-71280438D02*
X106881714Y-71328057D01*
X106881714Y-71328057D02*
X106929333Y-71423295D01*
X106929333Y-71423295D02*
X106929333Y-71566152D01*
X106929333Y-71566152D02*
X106881714Y-71661390D01*
X106881714Y-71661390D02*
X106834095Y-71709009D01*
X106834095Y-71709009D02*
X106738857Y-71756628D01*
X106738857Y-71756628D02*
X106357905Y-71756628D01*
X107881714Y-72232819D02*
X107310286Y-72232819D01*
X107596000Y-72232819D02*
X107596000Y-71232819D01*
X107596000Y-71232819D02*
X107500762Y-71375676D01*
X107500762Y-71375676D02*
X107405524Y-71470914D01*
X107405524Y-71470914D02*
X107310286Y-71518533D01*
D11*
X115352000Y-130313000D02*
X115352000Y-128659000D01*
X114362940Y-130313000D02*
X115352000Y-130313000D01*
X113987061Y-128659000D02*
X113412939Y-128659000D01*
X112048000Y-130313000D02*
X113037060Y-130313000D01*
X112048000Y-128659000D02*
X112048000Y-130313000D01*
D12*
X104750000Y-73690000D02*
X104750000Y-124730000D01*
X104750000Y-124730000D02*
X122650000Y-124730000D01*
X107240000Y-73750000D02*
X107240000Y-124670000D01*
X107240000Y-124670000D02*
X120160000Y-124670000D01*
X112700000Y-73750000D02*
X107240000Y-73750000D01*
X120160000Y-73750000D02*
X114700000Y-73750000D01*
X120160000Y-124670000D02*
X120160000Y-73750000D01*
X122650000Y-73690000D02*
X104750000Y-73690000D01*
X122650000Y-124730000D02*
X122650000Y-73690000D01*
X114700000Y-73750000D02*
G75*
G02*
X112700000Y-73750000I-1000000J0D01*
G01*
D11*
X112125200Y-72463800D02*
G75*
G02*
X111972800Y-72463800I-76200J0D01*
G01*
X111972800Y-72463800D02*
G75*
G02*
X112125200Y-72463800I76200J0D01*
G01*
D12*
X123400800Y-74363767D02*
X123400800Y-74071233D01*
X124420800Y-74363767D02*
X124420800Y-74071233D01*
X109994224Y-71255500D02*
X109484776Y-71255500D01*
X109994224Y-72300500D02*
X109484776Y-72300500D01*
M02*
