G04 #@! TF.GenerationSoftware,KiCad,Pcbnew,7.0.11+dfsg-1build4*
G04 #@! TF.CreationDate,2024-12-02T20:56:25+09:00*
G04 #@! TF.ProjectId,bionic-mos6502,62696f6e-6963-42d6-9d6f-73363530322e,9*
G04 #@! TF.SameCoordinates,Original*
G04 #@! TF.FileFunction,Legend,Bot*
G04 #@! TF.FilePolarity,Positive*
%FSLAX46Y46*%
G04 Gerber Fmt 4.6, Leading zero omitted, Abs format (unit mm)*
G04 Created by KiCad (PCBNEW 7.0.11+dfsg-1build4) date 2024-12-02 20:56:25*
%MOMM*%
%LPD*%
G01*
G04 APERTURE LIST*
%ADD10C,0.125000*%
%ADD11C,0.100000*%
%ADD12C,0.150000*%
%ADD13C,0.120000*%
G04 APERTURE END LIST*
D10*
X106098236Y-137258119D02*
X106431569Y-136781928D01*
X106669664Y-137258119D02*
X106669664Y-136258119D01*
X106669664Y-136258119D02*
X106288712Y-136258119D01*
X106288712Y-136258119D02*
X106193474Y-136305738D01*
X106193474Y-136305738D02*
X106145855Y-136353357D01*
X106145855Y-136353357D02*
X106098236Y-136448595D01*
X106098236Y-136448595D02*
X106098236Y-136591452D01*
X106098236Y-136591452D02*
X106145855Y-136686690D01*
X106145855Y-136686690D02*
X106193474Y-136734309D01*
X106193474Y-136734309D02*
X106288712Y-136781928D01*
X106288712Y-136781928D02*
X106669664Y-136781928D01*
X105288712Y-137210500D02*
X105383950Y-137258119D01*
X105383950Y-137258119D02*
X105574426Y-137258119D01*
X105574426Y-137258119D02*
X105669664Y-137210500D01*
X105669664Y-137210500D02*
X105717283Y-137115261D01*
X105717283Y-137115261D02*
X105717283Y-136734309D01*
X105717283Y-136734309D02*
X105669664Y-136639071D01*
X105669664Y-136639071D02*
X105574426Y-136591452D01*
X105574426Y-136591452D02*
X105383950Y-136591452D01*
X105383950Y-136591452D02*
X105288712Y-136639071D01*
X105288712Y-136639071D02*
X105241093Y-136734309D01*
X105241093Y-136734309D02*
X105241093Y-136829547D01*
X105241093Y-136829547D02*
X105717283Y-136924785D01*
X104907759Y-136591452D02*
X104669664Y-137258119D01*
X104669664Y-137258119D02*
X104431569Y-136591452D01*
X104050616Y-137162880D02*
X104002997Y-137210500D01*
X104002997Y-137210500D02*
X104050616Y-137258119D01*
X104050616Y-137258119D02*
X104098235Y-137210500D01*
X104098235Y-137210500D02*
X104050616Y-137162880D01*
X104050616Y-137162880D02*
X104050616Y-137258119D01*
X102764902Y-137258119D02*
X102574426Y-137258119D01*
X102574426Y-137258119D02*
X102479188Y-137210500D01*
X102479188Y-137210500D02*
X102431569Y-137162880D01*
X102431569Y-137162880D02*
X102336331Y-137020023D01*
X102336331Y-137020023D02*
X102288712Y-136829547D01*
X102288712Y-136829547D02*
X102288712Y-136448595D01*
X102288712Y-136448595D02*
X102336331Y-136353357D01*
X102336331Y-136353357D02*
X102383950Y-136305738D01*
X102383950Y-136305738D02*
X102479188Y-136258119D01*
X102479188Y-136258119D02*
X102669664Y-136258119D01*
X102669664Y-136258119D02*
X102764902Y-136305738D01*
X102764902Y-136305738D02*
X102812521Y-136353357D01*
X102812521Y-136353357D02*
X102860140Y-136448595D01*
X102860140Y-136448595D02*
X102860140Y-136686690D01*
X102860140Y-136686690D02*
X102812521Y-136781928D01*
X102812521Y-136781928D02*
X102764902Y-136829547D01*
X102764902Y-136829547D02*
X102669664Y-136877166D01*
X102669664Y-136877166D02*
X102479188Y-136877166D01*
X102479188Y-136877166D02*
X102383950Y-136829547D01*
X102383950Y-136829547D02*
X102336331Y-136781928D01*
X102336331Y-136781928D02*
X102288712Y-136686690D01*
D11*
X117649238Y-136406895D02*
X117649238Y-136978323D01*
X117649238Y-136978323D02*
X117687333Y-137092609D01*
X117687333Y-137092609D02*
X117763524Y-137168800D01*
X117763524Y-137168800D02*
X117877809Y-137206895D01*
X117877809Y-137206895D02*
X117954000Y-137206895D01*
X116887333Y-137206895D02*
X117268285Y-137206895D01*
X117268285Y-137206895D02*
X117268285Y-136406895D01*
X116163523Y-137130704D02*
X116201619Y-137168800D01*
X116201619Y-137168800D02*
X116315904Y-137206895D01*
X116315904Y-137206895D02*
X116392095Y-137206895D01*
X116392095Y-137206895D02*
X116506381Y-137168800D01*
X116506381Y-137168800D02*
X116582571Y-137092609D01*
X116582571Y-137092609D02*
X116620666Y-137016419D01*
X116620666Y-137016419D02*
X116658762Y-136864038D01*
X116658762Y-136864038D02*
X116658762Y-136749752D01*
X116658762Y-136749752D02*
X116620666Y-136597371D01*
X116620666Y-136597371D02*
X116582571Y-136521180D01*
X116582571Y-136521180D02*
X116506381Y-136444990D01*
X116506381Y-136444990D02*
X116392095Y-136406895D01*
X116392095Y-136406895D02*
X116315904Y-136406895D01*
X116315904Y-136406895D02*
X116201619Y-136444990D01*
X116201619Y-136444990D02*
X116163523Y-136483085D01*
X115592095Y-136406895D02*
X115592095Y-136978323D01*
X115592095Y-136978323D02*
X115630190Y-137092609D01*
X115630190Y-137092609D02*
X115706381Y-137168800D01*
X115706381Y-137168800D02*
X115820666Y-137206895D01*
X115820666Y-137206895D02*
X115896857Y-137206895D01*
X114830190Y-137206895D02*
X115211142Y-137206895D01*
X115211142Y-137206895D02*
X115211142Y-136406895D01*
X114106380Y-137130704D02*
X114144476Y-137168800D01*
X114144476Y-137168800D02*
X114258761Y-137206895D01*
X114258761Y-137206895D02*
X114334952Y-137206895D01*
X114334952Y-137206895D02*
X114449238Y-137168800D01*
X114449238Y-137168800D02*
X114525428Y-137092609D01*
X114525428Y-137092609D02*
X114563523Y-137016419D01*
X114563523Y-137016419D02*
X114601619Y-136864038D01*
X114601619Y-136864038D02*
X114601619Y-136749752D01*
X114601619Y-136749752D02*
X114563523Y-136597371D01*
X114563523Y-136597371D02*
X114525428Y-136521180D01*
X114525428Y-136521180D02*
X114449238Y-136444990D01*
X114449238Y-136444990D02*
X114334952Y-136406895D01*
X114334952Y-136406895D02*
X114258761Y-136406895D01*
X114258761Y-136406895D02*
X114144476Y-136444990D01*
X114144476Y-136444990D02*
X114106380Y-136483085D01*
X113534952Y-136406895D02*
X113534952Y-136978323D01*
X113534952Y-136978323D02*
X113573047Y-137092609D01*
X113573047Y-137092609D02*
X113649238Y-137168800D01*
X113649238Y-137168800D02*
X113763523Y-137206895D01*
X113763523Y-137206895D02*
X113839714Y-137206895D01*
X112773047Y-137206895D02*
X113153999Y-137206895D01*
X113153999Y-137206895D02*
X113153999Y-136406895D01*
X112049237Y-137130704D02*
X112087333Y-137168800D01*
X112087333Y-137168800D02*
X112201618Y-137206895D01*
X112201618Y-137206895D02*
X112277809Y-137206895D01*
X112277809Y-137206895D02*
X112392095Y-137168800D01*
X112392095Y-137168800D02*
X112468285Y-137092609D01*
X112468285Y-137092609D02*
X112506380Y-137016419D01*
X112506380Y-137016419D02*
X112544476Y-136864038D01*
X112544476Y-136864038D02*
X112544476Y-136749752D01*
X112544476Y-136749752D02*
X112506380Y-136597371D01*
X112506380Y-136597371D02*
X112468285Y-136521180D01*
X112468285Y-136521180D02*
X112392095Y-136444990D01*
X112392095Y-136444990D02*
X112277809Y-136406895D01*
X112277809Y-136406895D02*
X112201618Y-136406895D01*
X112201618Y-136406895D02*
X112087333Y-136444990D01*
X112087333Y-136444990D02*
X112049237Y-136483085D01*
X111477809Y-136406895D02*
X111477809Y-136978323D01*
X111477809Y-136978323D02*
X111515904Y-137092609D01*
X111515904Y-137092609D02*
X111592095Y-137168800D01*
X111592095Y-137168800D02*
X111706380Y-137206895D01*
X111706380Y-137206895D02*
X111782571Y-137206895D01*
X110715904Y-137206895D02*
X111096856Y-137206895D01*
X111096856Y-137206895D02*
X111096856Y-136406895D01*
X109992094Y-137130704D02*
X110030190Y-137168800D01*
X110030190Y-137168800D02*
X110144475Y-137206895D01*
X110144475Y-137206895D02*
X110220666Y-137206895D01*
X110220666Y-137206895D02*
X110334952Y-137168800D01*
X110334952Y-137168800D02*
X110411142Y-137092609D01*
X110411142Y-137092609D02*
X110449237Y-137016419D01*
X110449237Y-137016419D02*
X110487333Y-136864038D01*
X110487333Y-136864038D02*
X110487333Y-136749752D01*
X110487333Y-136749752D02*
X110449237Y-136597371D01*
X110449237Y-136597371D02*
X110411142Y-136521180D01*
X110411142Y-136521180D02*
X110334952Y-136444990D01*
X110334952Y-136444990D02*
X110220666Y-136406895D01*
X110220666Y-136406895D02*
X110144475Y-136406895D01*
X110144475Y-136406895D02*
X110030190Y-136444990D01*
X110030190Y-136444990D02*
X109992094Y-136483085D01*
D12*
X117843333Y-72204819D02*
X117843333Y-72919104D01*
X117843333Y-72919104D02*
X117890952Y-73061961D01*
X117890952Y-73061961D02*
X117986190Y-73157200D01*
X117986190Y-73157200D02*
X118129047Y-73204819D01*
X118129047Y-73204819D02*
X118224285Y-73204819D01*
X117414761Y-72300057D02*
X117367142Y-72252438D01*
X117367142Y-72252438D02*
X117271904Y-72204819D01*
X117271904Y-72204819D02*
X117033809Y-72204819D01*
X117033809Y-72204819D02*
X116938571Y-72252438D01*
X116938571Y-72252438D02*
X116890952Y-72300057D01*
X116890952Y-72300057D02*
X116843333Y-72395295D01*
X116843333Y-72395295D02*
X116843333Y-72490533D01*
X116843333Y-72490533D02*
X116890952Y-72633390D01*
X116890952Y-72633390D02*
X117462380Y-73204819D01*
X117462380Y-73204819D02*
X116843333Y-73204819D01*
X110223333Y-72204819D02*
X110223333Y-72919104D01*
X110223333Y-72919104D02*
X110270952Y-73061961D01*
X110270952Y-73061961D02*
X110366190Y-73157200D01*
X110366190Y-73157200D02*
X110509047Y-73204819D01*
X110509047Y-73204819D02*
X110604285Y-73204819D01*
X109223333Y-73204819D02*
X109794761Y-73204819D01*
X109509047Y-73204819D02*
X109509047Y-72204819D01*
X109509047Y-72204819D02*
X109604285Y-72347676D01*
X109604285Y-72347676D02*
X109699523Y-72442914D01*
X109699523Y-72442914D02*
X109794761Y-72490533D01*
X103899580Y-89188133D02*
X103947200Y-89140514D01*
X103947200Y-89140514D02*
X103994819Y-88997657D01*
X103994819Y-88997657D02*
X103994819Y-88902419D01*
X103994819Y-88902419D02*
X103947200Y-88759562D01*
X103947200Y-88759562D02*
X103851961Y-88664324D01*
X103851961Y-88664324D02*
X103756723Y-88616705D01*
X103756723Y-88616705D02*
X103566247Y-88569086D01*
X103566247Y-88569086D02*
X103423390Y-88569086D01*
X103423390Y-88569086D02*
X103232914Y-88616705D01*
X103232914Y-88616705D02*
X103137676Y-88664324D01*
X103137676Y-88664324D02*
X103042438Y-88759562D01*
X103042438Y-88759562D02*
X102994819Y-88902419D01*
X102994819Y-88902419D02*
X102994819Y-88997657D01*
X102994819Y-88997657D02*
X103042438Y-89140514D01*
X103042438Y-89140514D02*
X103090057Y-89188133D01*
X103090057Y-89569086D02*
X103042438Y-89616705D01*
X103042438Y-89616705D02*
X102994819Y-89711943D01*
X102994819Y-89711943D02*
X102994819Y-89950038D01*
X102994819Y-89950038D02*
X103042438Y-90045276D01*
X103042438Y-90045276D02*
X103090057Y-90092895D01*
X103090057Y-90092895D02*
X103185295Y-90140514D01*
X103185295Y-90140514D02*
X103280533Y-90140514D01*
X103280533Y-90140514D02*
X103423390Y-90092895D01*
X103423390Y-90092895D02*
X103994819Y-89521467D01*
X103994819Y-89521467D02*
X103994819Y-90140514D01*
D13*
X118840000Y-134830000D02*
X116180000Y-134830000D01*
X118840000Y-76350000D02*
X118840000Y-134830000D01*
X118840000Y-76350000D02*
X116180000Y-76350000D01*
X118840000Y-75080000D02*
X118840000Y-73750000D01*
X118840000Y-73750000D02*
X117510000Y-73750000D01*
X116180000Y-76350000D02*
X116180000Y-134830000D01*
X111220000Y-134830000D02*
X108560000Y-134830000D01*
X111220000Y-76350000D02*
X111220000Y-134830000D01*
X111220000Y-76350000D02*
X108560000Y-76350000D01*
X111220000Y-75080000D02*
X111220000Y-73750000D01*
X111220000Y-73750000D02*
X109890000Y-73750000D01*
X108560000Y-76350000D02*
X108560000Y-134830000D01*
X103030000Y-92141567D02*
X103030000Y-91849033D01*
X104050000Y-92141567D02*
X104050000Y-91849033D01*
M02*
