G04 #@! TF.GenerationSoftware,KiCad,Pcbnew,7.0.11+dfsg-1build4*
G04 #@! TF.CreationDate,2024-11-28T14:18:39+09:00*
G04 #@! TF.ProjectId,bionic-mos6502,62696f6e-6963-42d6-9d6f-73363530322e,9*
G04 #@! TF.SameCoordinates,Original*
G04 #@! TF.FileFunction,Legend,Top*
G04 #@! TF.FilePolarity,Positive*
%FSLAX46Y46*%
G04 Gerber Fmt 4.6, Leading zero omitted, Abs format (unit mm)*
G04 Created by KiCad (PCBNEW 7.0.11+dfsg-1build4) date 2024-11-28 14:18:39*
%MOMM*%
%LPD*%
G01*
G04 APERTURE LIST*
%ADD10C,0.150000*%
%ADD11C,0.152400*%
%ADD12C,0.120000*%
G04 APERTURE END LIST*
D10*
G36*
X106626352Y-135669959D02*
G01*
X106643529Y-135670222D01*
X106660404Y-135670660D01*
X106676976Y-135671274D01*
X106693245Y-135672063D01*
X106709211Y-135673027D01*
X106724875Y-135674167D01*
X106740236Y-135675481D01*
X106755295Y-135676972D01*
X106770051Y-135678637D01*
X106798654Y-135682494D01*
X106826047Y-135687052D01*
X106852229Y-135692311D01*
X106877201Y-135698272D01*
X106900962Y-135704934D01*
X106923512Y-135712297D01*
X106944851Y-135720361D01*
X106964979Y-135729127D01*
X106983897Y-135738593D01*
X107001604Y-135748761D01*
X107018101Y-135759631D01*
X107033540Y-135771236D01*
X107047982Y-135783702D01*
X107061429Y-135797030D01*
X107073880Y-135811219D01*
X107085334Y-135826270D01*
X107095793Y-135842183D01*
X107105255Y-135858957D01*
X107113722Y-135876592D01*
X107121192Y-135895090D01*
X107127667Y-135914448D01*
X107133145Y-135934668D01*
X107137627Y-135955750D01*
X107141113Y-135977693D01*
X107143603Y-136000498D01*
X107145098Y-136024164D01*
X107145596Y-136048692D01*
X107145279Y-136064915D01*
X107144330Y-136080795D01*
X107142749Y-136096331D01*
X107140535Y-136111524D01*
X107137689Y-136126373D01*
X107134210Y-136140879D01*
X107130098Y-136155041D01*
X107122745Y-136175640D01*
X107113968Y-136195467D01*
X107103768Y-136214521D01*
X107092145Y-136232802D01*
X107079099Y-136250310D01*
X107069610Y-136261553D01*
X107064629Y-136267045D01*
X107054285Y-136277631D01*
X107043494Y-136287682D01*
X107032257Y-136297197D01*
X107020574Y-136306177D01*
X107008444Y-136314622D01*
X106995867Y-136322532D01*
X106982844Y-136329907D01*
X106969374Y-136336746D01*
X106955458Y-136343050D01*
X106941096Y-136348819D01*
X106926286Y-136354052D01*
X106911031Y-136358751D01*
X106895329Y-136362914D01*
X106879180Y-136366542D01*
X106862585Y-136369634D01*
X106845543Y-136372192D01*
X106845543Y-136382450D01*
X106866596Y-136386165D01*
X106886980Y-136390350D01*
X106906695Y-136395004D01*
X106925743Y-136400127D01*
X106944122Y-136405720D01*
X106961832Y-136411782D01*
X106978875Y-136418314D01*
X106995249Y-136425315D01*
X107010955Y-136432785D01*
X107025992Y-136440725D01*
X107040361Y-136449134D01*
X107054062Y-136458013D01*
X107067094Y-136467361D01*
X107079458Y-136477178D01*
X107091154Y-136487465D01*
X107102181Y-136498221D01*
X107112540Y-136509447D01*
X107122231Y-136521142D01*
X107131254Y-136533306D01*
X107139608Y-136545940D01*
X107147294Y-136559043D01*
X107154311Y-136572616D01*
X107160660Y-136586658D01*
X107166341Y-136601169D01*
X107171353Y-136616150D01*
X107175698Y-136631601D01*
X107179373Y-136647520D01*
X107182381Y-136663909D01*
X107184720Y-136680768D01*
X107186391Y-136698096D01*
X107187393Y-136715893D01*
X107187727Y-136734160D01*
X107187214Y-136759281D01*
X107185672Y-136783722D01*
X107183104Y-136807481D01*
X107179507Y-136830559D01*
X107174883Y-136852956D01*
X107169232Y-136874672D01*
X107162553Y-136895706D01*
X107154846Y-136916060D01*
X107146112Y-136935732D01*
X107136351Y-136954722D01*
X107125561Y-136973032D01*
X107113745Y-136990660D01*
X107100901Y-137007608D01*
X107087029Y-137023874D01*
X107072129Y-137039458D01*
X107056203Y-137054362D01*
X107039434Y-137068426D01*
X107021919Y-137081582D01*
X107003657Y-137093831D01*
X106984647Y-137105172D01*
X106964891Y-137115606D01*
X106944387Y-137125133D01*
X106923137Y-137133753D01*
X106901139Y-137141465D01*
X106878394Y-137148270D01*
X106854903Y-137154168D01*
X106830664Y-137159158D01*
X106805678Y-137163241D01*
X106779945Y-137166417D01*
X106753466Y-137168685D01*
X106726239Y-137170046D01*
X106698265Y-137170500D01*
X106155313Y-137170500D01*
X106155313Y-136466714D01*
X106348021Y-136466714D01*
X106348021Y-137006735D01*
X106664193Y-137006735D01*
X106683915Y-137006461D01*
X106703012Y-137005640D01*
X106721482Y-137004271D01*
X106739326Y-137002355D01*
X106756544Y-136999892D01*
X106773136Y-136996881D01*
X106789102Y-136993323D01*
X106804442Y-136989218D01*
X106819155Y-136984565D01*
X106833243Y-136979365D01*
X106859539Y-136967322D01*
X106883332Y-136953089D01*
X106904619Y-136936668D01*
X106923403Y-136918056D01*
X106939682Y-136897255D01*
X106953456Y-136874264D01*
X106964726Y-136849084D01*
X106973492Y-136821714D01*
X106976935Y-136807207D01*
X106979753Y-136792154D01*
X106981944Y-136776553D01*
X106983509Y-136760405D01*
X106984449Y-136743709D01*
X106984762Y-136726466D01*
X106984436Y-136710485D01*
X106983458Y-136695012D01*
X106981828Y-136680045D01*
X106976613Y-136651635D01*
X106968791Y-136625254D01*
X106958361Y-136600902D01*
X106945323Y-136578580D01*
X106929679Y-136558287D01*
X106911426Y-136540023D01*
X106890566Y-136523788D01*
X106867099Y-136509583D01*
X106841024Y-136497407D01*
X106827009Y-136492080D01*
X106812342Y-136487261D01*
X106797023Y-136482948D01*
X106781052Y-136479143D01*
X106764429Y-136475846D01*
X106747155Y-136473055D01*
X106729228Y-136470772D01*
X106710650Y-136468997D01*
X106691420Y-136467728D01*
X106671538Y-136466967D01*
X106651004Y-136466714D01*
X106348021Y-136466714D01*
X106155313Y-136466714D01*
X106155313Y-135833636D01*
X106348021Y-135833636D01*
X106348021Y-136302949D01*
X106640379Y-136302949D01*
X106660143Y-136302730D01*
X106679225Y-136302073D01*
X106697626Y-136300978D01*
X106715347Y-136299446D01*
X106732385Y-136297475D01*
X106748743Y-136295066D01*
X106764419Y-136292220D01*
X106779414Y-136288935D01*
X106793728Y-136285213D01*
X106813922Y-136278809D01*
X106832583Y-136271419D01*
X106849711Y-136263043D01*
X106865307Y-136253683D01*
X106874852Y-136246895D01*
X106888012Y-136235741D01*
X106899878Y-136223299D01*
X106910449Y-136209569D01*
X106919726Y-136194551D01*
X106927709Y-136178245D01*
X106934397Y-136160651D01*
X106939790Y-136141769D01*
X106943889Y-136121599D01*
X106946694Y-136100141D01*
X106947844Y-136085120D01*
X106948420Y-136069526D01*
X106948492Y-136061515D01*
X106948184Y-136046535D01*
X106946569Y-136025081D01*
X106943569Y-136004843D01*
X106939184Y-135985822D01*
X106933415Y-135968019D01*
X106926261Y-135951433D01*
X106917723Y-135936064D01*
X106907800Y-135921912D01*
X106896492Y-135908977D01*
X106883800Y-135897260D01*
X106869723Y-135886759D01*
X106854143Y-135877265D01*
X106836939Y-135868706D01*
X106818113Y-135861080D01*
X106797664Y-135854387D01*
X106783130Y-135850445D01*
X106767874Y-135846917D01*
X106751897Y-135843804D01*
X106735199Y-135841107D01*
X106717779Y-135838824D01*
X106699639Y-135836956D01*
X106680777Y-135835504D01*
X106661193Y-135834466D01*
X106640889Y-135833844D01*
X106619863Y-135833636D01*
X106348021Y-135833636D01*
X106155313Y-135833636D01*
X106155313Y-135669871D01*
X106608872Y-135669871D01*
X106626352Y-135669959D01*
G37*
G36*
X107928516Y-135576082D02*
G01*
X107948027Y-135577109D01*
X107965619Y-135580191D01*
X107981292Y-135585327D01*
X107995045Y-135592517D01*
X108006880Y-135601762D01*
X108016795Y-135613061D01*
X108024792Y-135626414D01*
X108030869Y-135641822D01*
X108035027Y-135659284D01*
X108037266Y-135678800D01*
X108037693Y-135692952D01*
X108036896Y-135710766D01*
X108034508Y-135727113D01*
X108030528Y-135741993D01*
X108023650Y-135757913D01*
X108014480Y-135771720D01*
X108005086Y-135781613D01*
X107992571Y-135791449D01*
X107979206Y-135799250D01*
X107964991Y-135805015D01*
X107949925Y-135808746D01*
X107934010Y-135810442D01*
X107928516Y-135810555D01*
X107908809Y-135809522D01*
X107891040Y-135806421D01*
X107875209Y-135801253D01*
X107861317Y-135794017D01*
X107849363Y-135784715D01*
X107839348Y-135773345D01*
X107831271Y-135759908D01*
X107825133Y-135744404D01*
X107820933Y-135726832D01*
X107818671Y-135707193D01*
X107818240Y-135692952D01*
X107819210Y-135672066D01*
X107822117Y-135653235D01*
X107826963Y-135636458D01*
X107833748Y-135621735D01*
X107842471Y-135609066D01*
X107853132Y-135598452D01*
X107865732Y-135589892D01*
X107880270Y-135583387D01*
X107896747Y-135578935D01*
X107915162Y-135576539D01*
X107928516Y-135576082D01*
G37*
G36*
X107833994Y-136192307D02*
G01*
X107556656Y-136170691D01*
X107556656Y-136045028D01*
X108021206Y-136045028D01*
X108021206Y-137023221D01*
X108383907Y-137043737D01*
X108383907Y-137170500D01*
X107479353Y-137170500D01*
X107479353Y-137043737D01*
X107833994Y-137023221D01*
X107833994Y-136192307D01*
G37*
G36*
X109199345Y-136022205D02*
G01*
X109226464Y-136024077D01*
X109252949Y-136027197D01*
X109278797Y-136031565D01*
X109304011Y-136037180D01*
X109328589Y-136044044D01*
X109352531Y-136052155D01*
X109375838Y-136061515D01*
X109398510Y-136072122D01*
X109420546Y-136083978D01*
X109441947Y-136097081D01*
X109462712Y-136111432D01*
X109482842Y-136127031D01*
X109502337Y-136143878D01*
X109521196Y-136161973D01*
X109539420Y-136181316D01*
X109556766Y-136201692D01*
X109572994Y-136222887D01*
X109588102Y-136244900D01*
X109602091Y-136267732D01*
X109614961Y-136291383D01*
X109626712Y-136315852D01*
X109637343Y-136341140D01*
X109646856Y-136367246D01*
X109655249Y-136394171D01*
X109662524Y-136421914D01*
X109668679Y-136450476D01*
X109671337Y-136465064D01*
X109673715Y-136479857D01*
X109675813Y-136494854D01*
X109677632Y-136510056D01*
X109679171Y-136525463D01*
X109680430Y-136541074D01*
X109681409Y-136556890D01*
X109682109Y-136572911D01*
X109682528Y-136589136D01*
X109682668Y-136605566D01*
X109682530Y-136622534D01*
X109682116Y-136639277D01*
X109681425Y-136655793D01*
X109680458Y-136672084D01*
X109679216Y-136688148D01*
X109677696Y-136703986D01*
X109675901Y-136719598D01*
X109673830Y-136734984D01*
X109671482Y-136750144D01*
X109668858Y-136765077D01*
X109665958Y-136779785D01*
X109662781Y-136794266D01*
X109659329Y-136808522D01*
X109651595Y-136836354D01*
X109642757Y-136863282D01*
X109632813Y-136889305D01*
X109621765Y-136914424D01*
X109609612Y-136938638D01*
X109596354Y-136961948D01*
X109581992Y-136984354D01*
X109566524Y-137005855D01*
X109549952Y-137026451D01*
X109541252Y-137036410D01*
X109523254Y-137055487D01*
X109504523Y-137073333D01*
X109485060Y-137089948D01*
X109464865Y-137105332D01*
X109443936Y-137119486D01*
X109422275Y-137132409D01*
X109399881Y-137144101D01*
X109376754Y-137154563D01*
X109352894Y-137163793D01*
X109328302Y-137171793D01*
X109302977Y-137178562D01*
X109276920Y-137184101D01*
X109250129Y-137188408D01*
X109222606Y-137191485D01*
X109194350Y-137193331D01*
X109165362Y-137193947D01*
X109137826Y-137193321D01*
X109110905Y-137191445D01*
X109084600Y-137188318D01*
X109058910Y-137183940D01*
X109033836Y-137178312D01*
X109009376Y-137171433D01*
X108985533Y-137163302D01*
X108962304Y-137153922D01*
X108939691Y-137143290D01*
X108917694Y-137131407D01*
X108896312Y-137118274D01*
X108875545Y-137103890D01*
X108855393Y-137088255D01*
X108835857Y-137071369D01*
X108816936Y-137053233D01*
X108798631Y-137033846D01*
X108781240Y-137013368D01*
X108764971Y-136992051D01*
X108749825Y-136969896D01*
X108735800Y-136946903D01*
X108722897Y-136923071D01*
X108711116Y-136898400D01*
X108700457Y-136872890D01*
X108690920Y-136846542D01*
X108682505Y-136819355D01*
X108675212Y-136791330D01*
X108671986Y-136777002D01*
X108669041Y-136762466D01*
X108666376Y-136747719D01*
X108663992Y-136732763D01*
X108661889Y-136717597D01*
X108660065Y-136702222D01*
X108658523Y-136686636D01*
X108657260Y-136670842D01*
X108656279Y-136654837D01*
X108655577Y-136638623D01*
X108655157Y-136622199D01*
X108655016Y-136605566D01*
X108848823Y-136605566D01*
X108849136Y-136632186D01*
X108850075Y-136657960D01*
X108851641Y-136682890D01*
X108853832Y-136706974D01*
X108856649Y-136730214D01*
X108860093Y-136752608D01*
X108864163Y-136774157D01*
X108868859Y-136794862D01*
X108874181Y-136814721D01*
X108880129Y-136833735D01*
X108886703Y-136851904D01*
X108893903Y-136869228D01*
X108901729Y-136885707D01*
X108910182Y-136901341D01*
X108919261Y-136916129D01*
X108928965Y-136930073D01*
X108939296Y-136943172D01*
X108950253Y-136955425D01*
X108961836Y-136966834D01*
X108974045Y-136977397D01*
X108986880Y-136987115D01*
X109000342Y-136995988D01*
X109014429Y-137004017D01*
X109029143Y-137011200D01*
X109044483Y-137017538D01*
X109060448Y-137023031D01*
X109077040Y-137027679D01*
X109094258Y-137031481D01*
X109112103Y-137034439D01*
X109130573Y-137036552D01*
X109149669Y-137037819D01*
X109169392Y-137038242D01*
X109189047Y-137037819D01*
X109208078Y-137036552D01*
X109226484Y-137034439D01*
X109244267Y-137031481D01*
X109261426Y-137027679D01*
X109277962Y-137023031D01*
X109293873Y-137017538D01*
X109309160Y-137011200D01*
X109323823Y-137004017D01*
X109337862Y-136995988D01*
X109351277Y-136987115D01*
X109364069Y-136977397D01*
X109376236Y-136966834D01*
X109387779Y-136955425D01*
X109398699Y-136943172D01*
X109408994Y-136930073D01*
X109418665Y-136916129D01*
X109427713Y-136901341D01*
X109436136Y-136885707D01*
X109443936Y-136869228D01*
X109451112Y-136851904D01*
X109457663Y-136833735D01*
X109463591Y-136814721D01*
X109468895Y-136794862D01*
X109473574Y-136774157D01*
X109477630Y-136752608D01*
X109481062Y-136730214D01*
X109483870Y-136706974D01*
X109486054Y-136682890D01*
X109487613Y-136657960D01*
X109488549Y-136632186D01*
X109488861Y-136605566D01*
X109488547Y-136579217D01*
X109487605Y-136553704D01*
X109486034Y-136529028D01*
X109483835Y-136505188D01*
X109481008Y-136482184D01*
X109477553Y-136460018D01*
X109473469Y-136438687D01*
X109468757Y-136418193D01*
X109463417Y-136398536D01*
X109457449Y-136379715D01*
X109450852Y-136361731D01*
X109443627Y-136344583D01*
X109435774Y-136328271D01*
X109427292Y-136312796D01*
X109418182Y-136298158D01*
X109408444Y-136284356D01*
X109398078Y-136271390D01*
X109387084Y-136259261D01*
X109375461Y-136247969D01*
X109363210Y-136237513D01*
X109350331Y-136227893D01*
X109336823Y-136219110D01*
X109322687Y-136211164D01*
X109307923Y-136204053D01*
X109292531Y-136197780D01*
X109276510Y-136192343D01*
X109259862Y-136187742D01*
X109242584Y-136183978D01*
X109224679Y-136181050D01*
X109206146Y-136178959D01*
X109186984Y-136177704D01*
X109167194Y-136177286D01*
X109147606Y-136177704D01*
X109128641Y-136178959D01*
X109110297Y-136181050D01*
X109092575Y-136183978D01*
X109075476Y-136187742D01*
X109058997Y-136192343D01*
X109043141Y-136197780D01*
X109027906Y-136204053D01*
X109013294Y-136211164D01*
X108999303Y-136219110D01*
X108985934Y-136227893D01*
X108973187Y-136237513D01*
X108961061Y-136247969D01*
X108949557Y-136259261D01*
X108938676Y-136271390D01*
X108928416Y-136284356D01*
X108918778Y-136298158D01*
X108909761Y-136312796D01*
X108901367Y-136328271D01*
X108893594Y-136344583D01*
X108886443Y-136361731D01*
X108879914Y-136379715D01*
X108874007Y-136398536D01*
X108868721Y-136418193D01*
X108864058Y-136438687D01*
X108860016Y-136460018D01*
X108856596Y-136482184D01*
X108853798Y-136505188D01*
X108851621Y-136529028D01*
X108850067Y-136553704D01*
X108849134Y-136579217D01*
X108848823Y-136605566D01*
X108655016Y-136605566D01*
X108655153Y-136588756D01*
X108655562Y-136572169D01*
X108656243Y-136555806D01*
X108657197Y-136539666D01*
X108658424Y-136523749D01*
X108659924Y-136508056D01*
X108661696Y-136492585D01*
X108663740Y-136477338D01*
X108666058Y-136462315D01*
X108668648Y-136447514D01*
X108671510Y-136432937D01*
X108674645Y-136418583D01*
X108681734Y-136390544D01*
X108689913Y-136363399D01*
X108699182Y-136337147D01*
X108709542Y-136311787D01*
X108720992Y-136287321D01*
X108733533Y-136263748D01*
X108747164Y-136241068D01*
X108761886Y-136219280D01*
X108777698Y-136198386D01*
X108794601Y-136178385D01*
X108812431Y-136159397D01*
X108831026Y-136141634D01*
X108850384Y-136125096D01*
X108870507Y-136109783D01*
X108891394Y-136095695D01*
X108913046Y-136082833D01*
X108935461Y-136071195D01*
X108958641Y-136060782D01*
X108982585Y-136051594D01*
X109007293Y-136043632D01*
X109032765Y-136036894D01*
X109059002Y-136031381D01*
X109086002Y-136027094D01*
X109113767Y-136024031D01*
X109142297Y-136022194D01*
X109171590Y-136021581D01*
X109199345Y-136022205D01*
G37*
G36*
X110711053Y-137170500D02*
G01*
X110711053Y-136444366D01*
X110710813Y-136427934D01*
X110710095Y-136412024D01*
X110708898Y-136396635D01*
X110707223Y-136381769D01*
X110702436Y-136353600D01*
X110695734Y-136327518D01*
X110687117Y-136303523D01*
X110676586Y-136281614D01*
X110664139Y-136261792D01*
X110649778Y-136244056D01*
X110633502Y-136228407D01*
X110615311Y-136214844D01*
X110595206Y-136203368D01*
X110573185Y-136193978D01*
X110549250Y-136186675D01*
X110523400Y-136181459D01*
X110495635Y-136178329D01*
X110465955Y-136177286D01*
X110446480Y-136177685D01*
X110427624Y-136178883D01*
X110409386Y-136180879D01*
X110391766Y-136183674D01*
X110374765Y-136187268D01*
X110358381Y-136191660D01*
X110342616Y-136196851D01*
X110327469Y-136202840D01*
X110312941Y-136209628D01*
X110299030Y-136217214D01*
X110285738Y-136225599D01*
X110273064Y-136234782D01*
X110261008Y-136244764D01*
X110249571Y-136255545D01*
X110238752Y-136267124D01*
X110228551Y-136279502D01*
X110218968Y-136292678D01*
X110210004Y-136306653D01*
X110201657Y-136321426D01*
X110193929Y-136336998D01*
X110186820Y-136353368D01*
X110180328Y-136370537D01*
X110174455Y-136388505D01*
X110169200Y-136407271D01*
X110164563Y-136426836D01*
X110160545Y-136447199D01*
X110157144Y-136468361D01*
X110154362Y-136490321D01*
X110152198Y-136513080D01*
X110150653Y-136536638D01*
X110149725Y-136560994D01*
X110149416Y-136586148D01*
X110149416Y-137170500D01*
X109961838Y-137170500D01*
X109961838Y-136045028D01*
X110113146Y-136045028D01*
X110140990Y-136194871D01*
X110151248Y-136194871D01*
X110165053Y-136173887D01*
X110179905Y-136154257D01*
X110195804Y-136135980D01*
X110212751Y-136119057D01*
X110230746Y-136103488D01*
X110249789Y-136089273D01*
X110269878Y-136076411D01*
X110291016Y-136064904D01*
X110313201Y-136054750D01*
X110336434Y-136045950D01*
X110360714Y-136038504D01*
X110386042Y-136032412D01*
X110412417Y-136027673D01*
X110439840Y-136024289D01*
X110468311Y-136022258D01*
X110497829Y-136021581D01*
X110522487Y-136021984D01*
X110546363Y-136023191D01*
X110569456Y-136025204D01*
X110591767Y-136028021D01*
X110613294Y-136031644D01*
X110634039Y-136036071D01*
X110654001Y-136041304D01*
X110673180Y-136047341D01*
X110691576Y-136054184D01*
X110709189Y-136061831D01*
X110726020Y-136070284D01*
X110742068Y-136079541D01*
X110757333Y-136089604D01*
X110771815Y-136100471D01*
X110785514Y-136112144D01*
X110798431Y-136124621D01*
X110810564Y-136137904D01*
X110821915Y-136151991D01*
X110832483Y-136166884D01*
X110842268Y-136182581D01*
X110851271Y-136199084D01*
X110859490Y-136216391D01*
X110866927Y-136234504D01*
X110873581Y-136253421D01*
X110879452Y-136273144D01*
X110884540Y-136293671D01*
X110888846Y-136315004D01*
X110892369Y-136337141D01*
X110895108Y-136360083D01*
X110897066Y-136383831D01*
X110898240Y-136408383D01*
X110898631Y-136433741D01*
X110898631Y-137170500D01*
X110711053Y-137170500D01*
G37*
G36*
X111709395Y-135576082D02*
G01*
X111728906Y-135577109D01*
X111746498Y-135580191D01*
X111762171Y-135585327D01*
X111775925Y-135592517D01*
X111787759Y-135601762D01*
X111797675Y-135613061D01*
X111805671Y-135626414D01*
X111811748Y-135641822D01*
X111815906Y-135659284D01*
X111818145Y-135678800D01*
X111818572Y-135692952D01*
X111817776Y-135710766D01*
X111815388Y-135727113D01*
X111811407Y-135741993D01*
X111804529Y-135757913D01*
X111795359Y-135771720D01*
X111785965Y-135781613D01*
X111773450Y-135791449D01*
X111760085Y-135799250D01*
X111745870Y-135805015D01*
X111730805Y-135808746D01*
X111714889Y-135810442D01*
X111709395Y-135810555D01*
X111689688Y-135809522D01*
X111671919Y-135806421D01*
X111656088Y-135801253D01*
X111642196Y-135794017D01*
X111630242Y-135784715D01*
X111620227Y-135773345D01*
X111612150Y-135759908D01*
X111606012Y-135744404D01*
X111601812Y-135726832D01*
X111599550Y-135707193D01*
X111599120Y-135692952D01*
X111600089Y-135672066D01*
X111602997Y-135653235D01*
X111607843Y-135636458D01*
X111614627Y-135621735D01*
X111623350Y-135609066D01*
X111634012Y-135598452D01*
X111646611Y-135589892D01*
X111661150Y-135583387D01*
X111677626Y-135578935D01*
X111696042Y-135576539D01*
X111709395Y-135576082D01*
G37*
G36*
X111614873Y-136192307D02*
G01*
X111337536Y-136170691D01*
X111337536Y-136045028D01*
X111802085Y-136045028D01*
X111802085Y-137023221D01*
X112164786Y-137043737D01*
X112164786Y-137170500D01*
X111260233Y-137170500D01*
X111260233Y-137043737D01*
X111614873Y-137023221D01*
X111614873Y-136192307D01*
G37*
G36*
X113410791Y-136082398D02*
G01*
X113347044Y-136245063D01*
X113327847Y-136237832D01*
X113308907Y-136231067D01*
X113290226Y-136224769D01*
X113271801Y-136218937D01*
X113253635Y-136213572D01*
X113235726Y-136208673D01*
X113218075Y-136204241D01*
X113200681Y-136200275D01*
X113183545Y-136196776D01*
X113166666Y-136193744D01*
X113150045Y-136191178D01*
X113133682Y-136189078D01*
X113117576Y-136187445D01*
X113101728Y-136186279D01*
X113086138Y-136185579D01*
X113070805Y-136185346D01*
X113047296Y-136185762D01*
X113024533Y-136187010D01*
X113002516Y-136189091D01*
X112981246Y-136192004D01*
X112960722Y-136195748D01*
X112940945Y-136200325D01*
X112921913Y-136205735D01*
X112903628Y-136211976D01*
X112886090Y-136219050D01*
X112869297Y-136226956D01*
X112853251Y-136235694D01*
X112837952Y-136245264D01*
X112823398Y-136255666D01*
X112809591Y-136266901D01*
X112796531Y-136278967D01*
X112784216Y-136291866D01*
X112772648Y-136305598D01*
X112761827Y-136320161D01*
X112751751Y-136335556D01*
X112742422Y-136351784D01*
X112733840Y-136368844D01*
X112726003Y-136386736D01*
X112718913Y-136405460D01*
X112712569Y-136425017D01*
X112706972Y-136445406D01*
X112702121Y-136466626D01*
X112698016Y-136488679D01*
X112694658Y-136511565D01*
X112692045Y-136535282D01*
X112690180Y-136559832D01*
X112689060Y-136585214D01*
X112688687Y-136611428D01*
X112689050Y-136637191D01*
X112690140Y-136662136D01*
X112691955Y-136686264D01*
X112694497Y-136709573D01*
X112697766Y-136732065D01*
X112701760Y-136753739D01*
X112706481Y-136774595D01*
X112711928Y-136794633D01*
X112718102Y-136813853D01*
X112725001Y-136832255D01*
X112732627Y-136849840D01*
X112740980Y-136866606D01*
X112750058Y-136882555D01*
X112759863Y-136897685D01*
X112770394Y-136911998D01*
X112781652Y-136925493D01*
X112793636Y-136938171D01*
X112806346Y-136950030D01*
X112819782Y-136961071D01*
X112833945Y-136971295D01*
X112848834Y-136980700D01*
X112864449Y-136989288D01*
X112880790Y-136997058D01*
X112897858Y-137004010D01*
X112915652Y-137010144D01*
X112934172Y-137015460D01*
X112953419Y-137019958D01*
X112973392Y-137023639D01*
X112994091Y-137026502D01*
X113015517Y-137028546D01*
X113037669Y-137029773D01*
X113060547Y-137030182D01*
X113080816Y-137029933D01*
X113101139Y-137029186D01*
X113121516Y-137027941D01*
X113141948Y-137026198D01*
X113162435Y-137023957D01*
X113182975Y-137021218D01*
X113203570Y-137017980D01*
X113224220Y-137014245D01*
X113244924Y-137010012D01*
X113265682Y-137005281D01*
X113286495Y-137000051D01*
X113307362Y-136994324D01*
X113328283Y-136988099D01*
X113349259Y-136981375D01*
X113370289Y-136974154D01*
X113391374Y-136966435D01*
X113391374Y-137131299D01*
X113373864Y-137138885D01*
X113355865Y-137145982D01*
X113337376Y-137152589D01*
X113318398Y-137158707D01*
X113298931Y-137164336D01*
X113278974Y-137169475D01*
X113258528Y-137174125D01*
X113237592Y-137178285D01*
X113216167Y-137181956D01*
X113194252Y-137185137D01*
X113171848Y-137187829D01*
X113148955Y-137190031D01*
X113125572Y-137191744D01*
X113101700Y-137192968D01*
X113077338Y-137193702D01*
X113052487Y-137193947D01*
X113036047Y-137193800D01*
X113019839Y-137193361D01*
X113003861Y-137192630D01*
X112988115Y-137191606D01*
X112972600Y-137190289D01*
X112957316Y-137188679D01*
X112942264Y-137186777D01*
X112927442Y-137184582D01*
X112912851Y-137182094D01*
X112884364Y-137176241D01*
X112856801Y-137169217D01*
X112830162Y-137161022D01*
X112804448Y-137151657D01*
X112779658Y-137141121D01*
X112755793Y-137129415D01*
X112732852Y-137116538D01*
X112710836Y-137102490D01*
X112689744Y-137087271D01*
X112669577Y-137070882D01*
X112650334Y-137053323D01*
X112641060Y-137044104D01*
X112623358Y-137024864D01*
X112606799Y-137004605D01*
X112591381Y-136983327D01*
X112577106Y-136961031D01*
X112563973Y-136937715D01*
X112551982Y-136913380D01*
X112541132Y-136888027D01*
X112531425Y-136861654D01*
X112522860Y-136834263D01*
X112515437Y-136805853D01*
X112512153Y-136791265D01*
X112509156Y-136776423D01*
X112506443Y-136761326D01*
X112504016Y-136745975D01*
X112501875Y-136730369D01*
X112500019Y-136714508D01*
X112498449Y-136698392D01*
X112497164Y-136682021D01*
X112496165Y-136665396D01*
X112495451Y-136648516D01*
X112495023Y-136631382D01*
X112494880Y-136613992D01*
X112495026Y-136596038D01*
X112495464Y-136578353D01*
X112496194Y-136560938D01*
X112497216Y-136543793D01*
X112498530Y-136526918D01*
X112500135Y-136510313D01*
X112502033Y-136493977D01*
X112504223Y-136477911D01*
X112506704Y-136462115D01*
X112509478Y-136446588D01*
X112512543Y-136431331D01*
X112515900Y-136416344D01*
X112519550Y-136401627D01*
X112523491Y-136387180D01*
X112527724Y-136373002D01*
X112537067Y-136345456D01*
X112547577Y-136318989D01*
X112559254Y-136293601D01*
X112572100Y-136269292D01*
X112586114Y-136246063D01*
X112601295Y-136223912D01*
X112617644Y-136202840D01*
X112635161Y-136182848D01*
X112644357Y-136173256D01*
X112663515Y-136154889D01*
X112683621Y-136137707D01*
X112704674Y-136121710D01*
X112726674Y-136106898D01*
X112749622Y-136093271D01*
X112773517Y-136080829D01*
X112798360Y-136069572D01*
X112824150Y-136059500D01*
X112850888Y-136050613D01*
X112878572Y-136042910D01*
X112907205Y-136036393D01*
X112921876Y-136033579D01*
X112936784Y-136031061D01*
X112951929Y-136028839D01*
X112967311Y-136026913D01*
X112982930Y-136025284D01*
X112998786Y-136023951D01*
X113014878Y-136022914D01*
X113031208Y-136022174D01*
X113047774Y-136021729D01*
X113064577Y-136021581D01*
X113087439Y-136021819D01*
X113110138Y-136022531D01*
X113132673Y-136023719D01*
X113155046Y-136025382D01*
X113177255Y-136027520D01*
X113199301Y-136030133D01*
X113221185Y-136033222D01*
X113242905Y-136036785D01*
X113264461Y-136040824D01*
X113285855Y-136045338D01*
X113307086Y-136050326D01*
X113328153Y-136055790D01*
X113349057Y-136061730D01*
X113369798Y-136068144D01*
X113390376Y-136075033D01*
X113410791Y-136082398D01*
G37*
G36*
X114125934Y-137170500D02*
G01*
X113839804Y-135857450D01*
X113831377Y-135851588D01*
X113832527Y-135868589D01*
X113833640Y-135885337D01*
X113834716Y-135901831D01*
X113835756Y-135918072D01*
X113836760Y-135934059D01*
X113837727Y-135949794D01*
X113838658Y-135965275D01*
X113839552Y-135980503D01*
X113840409Y-135995477D01*
X113841230Y-136010198D01*
X113842763Y-136038880D01*
X113844150Y-136066549D01*
X113845391Y-136093205D01*
X113846485Y-136118848D01*
X113847434Y-136143477D01*
X113848237Y-136167094D01*
X113848894Y-136189697D01*
X113849405Y-136211286D01*
X113849770Y-136231863D01*
X113849989Y-136251426D01*
X113850062Y-136269976D01*
X113850062Y-137170500D01*
X113694357Y-137170500D01*
X113694357Y-135669871D01*
X113948980Y-135669871D01*
X114204336Y-136892429D01*
X114210564Y-136892429D01*
X114468118Y-135669871D01*
X114727870Y-135669871D01*
X114727870Y-137170500D01*
X114569967Y-137170500D01*
X114569967Y-136256787D01*
X114570096Y-136235378D01*
X114570325Y-136219224D01*
X114570669Y-136201564D01*
X114571127Y-136182399D01*
X114571699Y-136161728D01*
X114572386Y-136139551D01*
X114573187Y-136115869D01*
X114574103Y-136090682D01*
X114575134Y-136063989D01*
X114576279Y-136035790D01*
X114576894Y-136021126D01*
X114577538Y-136006086D01*
X114578211Y-135990669D01*
X114578912Y-135974876D01*
X114579642Y-135958707D01*
X114580400Y-135942161D01*
X114581187Y-135925239D01*
X114582003Y-135907940D01*
X114582847Y-135890265D01*
X114583720Y-135872214D01*
X114584622Y-135853786D01*
X114576562Y-135853786D01*
X114284936Y-137170500D01*
X114125934Y-137170500D01*
G37*
G36*
X115491253Y-135646621D02*
G01*
X115507379Y-135647210D01*
X115523264Y-135648192D01*
X115538909Y-135649567D01*
X115554314Y-135651335D01*
X115569478Y-135653495D01*
X115584402Y-135656049D01*
X115599085Y-135658995D01*
X115613527Y-135662334D01*
X115627730Y-135666066D01*
X115655413Y-135674709D01*
X115682135Y-135684922D01*
X115707895Y-135696708D01*
X115732693Y-135710064D01*
X115756530Y-135724992D01*
X115779405Y-135741491D01*
X115801318Y-135759562D01*
X115822269Y-135779204D01*
X115842259Y-135800417D01*
X115851893Y-135811613D01*
X115861287Y-135823202D01*
X115870440Y-135835184D01*
X115879353Y-135847558D01*
X115888009Y-135860273D01*
X115896389Y-135873321D01*
X115904495Y-135886703D01*
X115912326Y-135900418D01*
X115919882Y-135914466D01*
X115927164Y-135928848D01*
X115934171Y-135943563D01*
X115940903Y-135958612D01*
X115947360Y-135973995D01*
X115953542Y-135989710D01*
X115959450Y-136005760D01*
X115965083Y-136022142D01*
X115970441Y-136038858D01*
X115975524Y-136055908D01*
X115980333Y-136073291D01*
X115984866Y-136091007D01*
X115989125Y-136109057D01*
X115993110Y-136127440D01*
X115996819Y-136146157D01*
X116000254Y-136165207D01*
X116003413Y-136184591D01*
X116006299Y-136204308D01*
X116008909Y-136224359D01*
X116011245Y-136244743D01*
X116013305Y-136265460D01*
X116015091Y-136286511D01*
X116016603Y-136307896D01*
X116017839Y-136329613D01*
X116018801Y-136351665D01*
X116019488Y-136374049D01*
X116019900Y-136396767D01*
X116020037Y-136419819D01*
X116019898Y-136442849D01*
X116019482Y-136465547D01*
X116018788Y-136487915D01*
X116017816Y-136509950D01*
X116016567Y-136531655D01*
X116015040Y-136553028D01*
X116013235Y-136574070D01*
X116011153Y-136594781D01*
X116008793Y-136615160D01*
X116006156Y-136635208D01*
X116003240Y-136654925D01*
X116000048Y-136674311D01*
X115996577Y-136693365D01*
X115992829Y-136712088D01*
X115988803Y-136730479D01*
X115984500Y-136748539D01*
X115979919Y-136766268D01*
X115975060Y-136783666D01*
X115969924Y-136800732D01*
X115964510Y-136817467D01*
X115958819Y-136833871D01*
X115952850Y-136849944D01*
X115946603Y-136865685D01*
X115940078Y-136881095D01*
X115933276Y-136896173D01*
X115926197Y-136910920D01*
X115918839Y-136925336D01*
X115911204Y-136939421D01*
X115903292Y-136953174D01*
X115895101Y-136966596D01*
X115886633Y-136979687D01*
X115877888Y-136992446D01*
X115868886Y-137004843D01*
X115859647Y-137016847D01*
X115850172Y-137028457D01*
X115840462Y-137039673D01*
X115830515Y-137050496D01*
X115809912Y-137070961D01*
X115788366Y-137089851D01*
X115765874Y-137107168D01*
X115742438Y-137122910D01*
X115718058Y-137137078D01*
X115692733Y-137149672D01*
X115666464Y-137160691D01*
X115639250Y-137170137D01*
X115611091Y-137178008D01*
X115596658Y-137181353D01*
X115581988Y-137184305D01*
X115567082Y-137186863D01*
X115551940Y-137189027D01*
X115536562Y-137190798D01*
X115520948Y-137192176D01*
X115505098Y-137193160D01*
X115489012Y-137193750D01*
X115472689Y-137193947D01*
X115438969Y-137193189D01*
X115406320Y-137190914D01*
X115374741Y-137187124D01*
X115344233Y-137181817D01*
X115314795Y-137174994D01*
X115286427Y-137166654D01*
X115259130Y-137156798D01*
X115232904Y-137145426D01*
X115207748Y-137132538D01*
X115183662Y-137118134D01*
X115160647Y-137102213D01*
X115138702Y-137084776D01*
X115117828Y-137065823D01*
X115098024Y-137045353D01*
X115079291Y-137023367D01*
X115061628Y-136999865D01*
X115045036Y-136974847D01*
X115029514Y-136948312D01*
X115015063Y-136920262D01*
X115001682Y-136890695D01*
X114989372Y-136859611D01*
X114978132Y-136827012D01*
X114967962Y-136792896D01*
X114958863Y-136757264D01*
X114950835Y-136720115D01*
X114943877Y-136681450D01*
X114937989Y-136641269D01*
X114933172Y-136599572D01*
X114929425Y-136556359D01*
X114926749Y-136511629D01*
X114925143Y-136465383D01*
X114924624Y-136419086D01*
X115127574Y-136419086D01*
X115127911Y-136456368D01*
X115128922Y-136492465D01*
X115130607Y-136527379D01*
X115132966Y-136561110D01*
X115136000Y-136593657D01*
X115139707Y-136625020D01*
X115144088Y-136655200D01*
X115149144Y-136684197D01*
X115154873Y-136712010D01*
X115161277Y-136738639D01*
X115168354Y-136764085D01*
X115176106Y-136788347D01*
X115184531Y-136811426D01*
X115193631Y-136833321D01*
X115203405Y-136854033D01*
X115213853Y-136873561D01*
X115224975Y-136891906D01*
X115236771Y-136909067D01*
X115249240Y-136925045D01*
X115262385Y-136939839D01*
X115276203Y-136953449D01*
X115290695Y-136965876D01*
X115305861Y-136977120D01*
X115321701Y-136987180D01*
X115338215Y-136996056D01*
X115355404Y-137003749D01*
X115373266Y-137010259D01*
X115391803Y-137015585D01*
X115411013Y-137019727D01*
X115430898Y-137022686D01*
X115451456Y-137024461D01*
X115472689Y-137025053D01*
X115494618Y-137024472D01*
X115515800Y-137022729D01*
X115536235Y-137019824D01*
X115555922Y-137015756D01*
X115574863Y-137010527D01*
X115593057Y-137004136D01*
X115610504Y-136996582D01*
X115627203Y-136987867D01*
X115643156Y-136977989D01*
X115658361Y-136966950D01*
X115672820Y-136954748D01*
X115686531Y-136941384D01*
X115699496Y-136926859D01*
X115711713Y-136911171D01*
X115723183Y-136894321D01*
X115733907Y-136876309D01*
X115743978Y-136857049D01*
X115753399Y-136836547D01*
X115762170Y-136814803D01*
X115770291Y-136791816D01*
X115777763Y-136767588D01*
X115784585Y-136742117D01*
X115790758Y-136715404D01*
X115796280Y-136687448D01*
X115798798Y-136673005D01*
X115801153Y-136658251D01*
X115803346Y-136643186D01*
X115805376Y-136627811D01*
X115807244Y-136612125D01*
X115808950Y-136596129D01*
X115810493Y-136579822D01*
X115811874Y-136563205D01*
X115813092Y-136546277D01*
X115814148Y-136529039D01*
X115815041Y-136511490D01*
X115815772Y-136493630D01*
X115816341Y-136475460D01*
X115816747Y-136456979D01*
X115816990Y-136438188D01*
X115817071Y-136419086D01*
X115816989Y-136399807D01*
X115816742Y-136380850D01*
X115816331Y-136362215D01*
X115815755Y-136343902D01*
X115815014Y-136325910D01*
X115814109Y-136308241D01*
X115813039Y-136290894D01*
X115811805Y-136273869D01*
X115810406Y-136257166D01*
X115808843Y-136240784D01*
X115807115Y-136224725D01*
X115805222Y-136208988D01*
X115803165Y-136193573D01*
X115800943Y-136178480D01*
X115798556Y-136163708D01*
X115796006Y-136149259D01*
X115790410Y-136121327D01*
X115784156Y-136094682D01*
X115777244Y-136069326D01*
X115769673Y-136045257D01*
X115761444Y-136022477D01*
X115752557Y-136000985D01*
X115743012Y-135980780D01*
X115732808Y-135961864D01*
X115721968Y-135944118D01*
X115710425Y-135927517D01*
X115698178Y-135912061D01*
X115685226Y-135897750D01*
X115671570Y-135884584D01*
X115657211Y-135872562D01*
X115642147Y-135861686D01*
X115626379Y-135851954D01*
X115609907Y-135843368D01*
X115592731Y-135835926D01*
X115574850Y-135829629D01*
X115556266Y-135824477D01*
X115536977Y-135820470D01*
X115516985Y-135817608D01*
X115496288Y-135815891D01*
X115474887Y-135815318D01*
X115453519Y-135815908D01*
X115432830Y-135817677D01*
X115412819Y-135820625D01*
X115393486Y-135824752D01*
X115374831Y-135830058D01*
X115356855Y-135836544D01*
X115339557Y-135844209D01*
X115322938Y-135853054D01*
X115306997Y-135863077D01*
X115291734Y-135874280D01*
X115277149Y-135886662D01*
X115263243Y-135900223D01*
X115250015Y-135914963D01*
X115237466Y-135930883D01*
X115225595Y-135947982D01*
X115214402Y-135966260D01*
X115203888Y-135985718D01*
X115194052Y-136006354D01*
X115184894Y-136028170D01*
X115176415Y-136051165D01*
X115168614Y-136075339D01*
X115161491Y-136100693D01*
X115155047Y-136127226D01*
X115149281Y-136154938D01*
X115144193Y-136183829D01*
X115139784Y-136213899D01*
X115136053Y-136245149D01*
X115133001Y-136277578D01*
X115130626Y-136311186D01*
X115128931Y-136345974D01*
X115127913Y-136381940D01*
X115127574Y-136419086D01*
X114924624Y-136419086D01*
X114924608Y-136417621D01*
X114925145Y-136370174D01*
X114926758Y-136324234D01*
X114929445Y-136279800D01*
X114933206Y-136236872D01*
X114938043Y-136195450D01*
X114943954Y-136155535D01*
X114950940Y-136117125D01*
X114959001Y-136080222D01*
X114968136Y-136044826D01*
X114978346Y-136010935D01*
X114989631Y-135978551D01*
X115001991Y-135947673D01*
X115015426Y-135918301D01*
X115029935Y-135890436D01*
X115045519Y-135864076D01*
X115062178Y-135839223D01*
X115079911Y-135815877D01*
X115098720Y-135794036D01*
X115118603Y-135773702D01*
X115139561Y-135754874D01*
X115161594Y-135737552D01*
X115184701Y-135721736D01*
X115208883Y-135707427D01*
X115234140Y-135694624D01*
X115260472Y-135683327D01*
X115287878Y-135673537D01*
X115316360Y-135665252D01*
X115345916Y-135658474D01*
X115376546Y-135653202D01*
X115408252Y-135649437D01*
X115441032Y-135647177D01*
X115474887Y-135646424D01*
X115491253Y-135646621D01*
G37*
G36*
X116243886Y-137123605D02*
G01*
X116243886Y-136941888D01*
X116271011Y-136952580D01*
X116298073Y-136962582D01*
X116325073Y-136971894D01*
X116352009Y-136980517D01*
X116378882Y-136988449D01*
X116405693Y-136995692D01*
X116432440Y-137002245D01*
X116459125Y-137008109D01*
X116485746Y-137013282D01*
X116512305Y-137017766D01*
X116538800Y-137021560D01*
X116565233Y-137024664D01*
X116591603Y-137027078D01*
X116617909Y-137028802D01*
X116644153Y-137029837D01*
X116670334Y-137030182D01*
X116692513Y-137029939D01*
X116713988Y-137029209D01*
X116734760Y-137027992D01*
X116754827Y-137026289D01*
X116774190Y-137024100D01*
X116792848Y-137021424D01*
X116810803Y-137018261D01*
X116828054Y-137014612D01*
X116844600Y-137010476D01*
X116860443Y-137005853D01*
X116875581Y-137000744D01*
X116890015Y-136995148D01*
X116903745Y-136989066D01*
X116929093Y-136975442D01*
X116951624Y-136959872D01*
X116971339Y-136942355D01*
X116988238Y-136922892D01*
X117002320Y-136901482D01*
X117013586Y-136878127D01*
X117022035Y-136852824D01*
X117027668Y-136825576D01*
X117030484Y-136796381D01*
X117030836Y-136781054D01*
X117030199Y-136761431D01*
X117028286Y-136742676D01*
X117025098Y-136724791D01*
X117020635Y-136707776D01*
X117014897Y-136691630D01*
X117007884Y-136676353D01*
X116999596Y-136661945D01*
X116990032Y-136648408D01*
X116979194Y-136635739D01*
X116967080Y-136623940D01*
X116958296Y-136616557D01*
X116943384Y-136605516D01*
X116925851Y-136594103D01*
X116912707Y-136586286D01*
X116898397Y-136578303D01*
X116882922Y-136570154D01*
X116866283Y-136561840D01*
X116848478Y-136553359D01*
X116829509Y-136544712D01*
X116809375Y-136535899D01*
X116788076Y-136526921D01*
X116765611Y-136517776D01*
X116741982Y-136508465D01*
X116717188Y-136498988D01*
X116691230Y-136489345D01*
X116664106Y-136479536D01*
X116637788Y-136469990D01*
X116612414Y-136460216D01*
X116587985Y-136450217D01*
X116564500Y-136439992D01*
X116541960Y-136429541D01*
X116520365Y-136418863D01*
X116499714Y-136407959D01*
X116480008Y-136396830D01*
X116461246Y-136385474D01*
X116443428Y-136373892D01*
X116426556Y-136362084D01*
X116410627Y-136350050D01*
X116395644Y-136337789D01*
X116381604Y-136325303D01*
X116368510Y-136312590D01*
X116356360Y-136299652D01*
X116345091Y-136286357D01*
X116334550Y-136272575D01*
X116324735Y-136258307D01*
X116315647Y-136243552D01*
X116307287Y-136228311D01*
X116299653Y-136212583D01*
X116292747Y-136196368D01*
X116286567Y-136179667D01*
X116281115Y-136162480D01*
X116276389Y-136144805D01*
X116272391Y-136126645D01*
X116269119Y-136107997D01*
X116266575Y-136088863D01*
X116264757Y-136069243D01*
X116263667Y-136049136D01*
X116263303Y-136028542D01*
X116263820Y-136006451D01*
X116265370Y-135984968D01*
X116267953Y-135964091D01*
X116271569Y-135943820D01*
X116276219Y-135924157D01*
X116281902Y-135905100D01*
X116288618Y-135886650D01*
X116296368Y-135868807D01*
X116305150Y-135851571D01*
X116314966Y-135834941D01*
X116325815Y-135818919D01*
X116337698Y-135803503D01*
X116350614Y-135788694D01*
X116364563Y-135774491D01*
X116379545Y-135760896D01*
X116395561Y-135747907D01*
X116412522Y-135735618D01*
X116430251Y-135724122D01*
X116448746Y-135713419D01*
X116468009Y-135703508D01*
X116488039Y-135694391D01*
X116508836Y-135686066D01*
X116530400Y-135678534D01*
X116552731Y-135671795D01*
X116575829Y-135665849D01*
X116599694Y-135660695D01*
X116624327Y-135656335D01*
X116649726Y-135652767D01*
X116675892Y-135649992D01*
X116702826Y-135648010D01*
X116730526Y-135646821D01*
X116758994Y-135646424D01*
X116773698Y-135646502D01*
X116802853Y-135647129D01*
X116831669Y-135648383D01*
X116860148Y-135650263D01*
X116888290Y-135652771D01*
X116916093Y-135655905D01*
X116943559Y-135659666D01*
X116970687Y-135664054D01*
X116997478Y-135669068D01*
X117023930Y-135674710D01*
X117050045Y-135680978D01*
X117075823Y-135687873D01*
X117101262Y-135695395D01*
X117126364Y-135703544D01*
X117151128Y-135712319D01*
X117175554Y-135721722D01*
X117187640Y-135726658D01*
X117121695Y-135895918D01*
X117096932Y-135886158D01*
X117072379Y-135877028D01*
X117048034Y-135868527D01*
X117023898Y-135860656D01*
X116999972Y-135853414D01*
X116976254Y-135846802D01*
X116952745Y-135840820D01*
X116929445Y-135835468D01*
X116906354Y-135830745D01*
X116883472Y-135826652D01*
X116860799Y-135823189D01*
X116838335Y-135820356D01*
X116816080Y-135818152D01*
X116794033Y-135816577D01*
X116772196Y-135815633D01*
X116750568Y-135815318D01*
X116731995Y-135815528D01*
X116714011Y-135816158D01*
X116696618Y-135817208D01*
X116679814Y-135818678D01*
X116663599Y-135820568D01*
X116647974Y-135822879D01*
X116632939Y-135825609D01*
X116618493Y-135828759D01*
X116591371Y-135836320D01*
X116566607Y-135845560D01*
X116544202Y-135856481D01*
X116524155Y-135869082D01*
X116506466Y-135883363D01*
X116491136Y-135899324D01*
X116478164Y-135916966D01*
X116467551Y-135936287D01*
X116459297Y-135957289D01*
X116453400Y-135979970D01*
X116449863Y-136004332D01*
X116448683Y-136030374D01*
X116449276Y-136049725D01*
X116451053Y-136068348D01*
X116454016Y-136086244D01*
X116458163Y-136103412D01*
X116463495Y-136119852D01*
X116470013Y-136135565D01*
X116477715Y-136150550D01*
X116486602Y-136164807D01*
X116496674Y-136178336D01*
X116507931Y-136191138D01*
X116516095Y-136199268D01*
X116530000Y-136211304D01*
X116546435Y-136223508D01*
X116558799Y-136231737D01*
X116572287Y-136240040D01*
X116586900Y-136248418D01*
X116602638Y-136256870D01*
X116619501Y-136265397D01*
X116637488Y-136273998D01*
X116656601Y-136282673D01*
X116676838Y-136291423D01*
X116698200Y-136300247D01*
X116720687Y-136309146D01*
X116744299Y-136318119D01*
X116769036Y-136327166D01*
X116794898Y-136336288D01*
X116810578Y-136341950D01*
X116825930Y-136347622D01*
X116840952Y-136353307D01*
X116855645Y-136359003D01*
X116870010Y-136364710D01*
X116884044Y-136370429D01*
X116897750Y-136376159D01*
X116924174Y-136387653D01*
X116949282Y-136399194D01*
X116973072Y-136410780D01*
X116995547Y-136422412D01*
X117016704Y-136434090D01*
X117036545Y-136445814D01*
X117055069Y-136457583D01*
X117072277Y-136469398D01*
X117088168Y-136481260D01*
X117102742Y-136493166D01*
X117116000Y-136505119D01*
X117127941Y-136517117D01*
X117133418Y-136523134D01*
X117143711Y-136535393D01*
X117153339Y-136548081D01*
X117162304Y-136561199D01*
X117170604Y-136574745D01*
X117178241Y-136588722D01*
X117185213Y-136603127D01*
X117191521Y-136617962D01*
X117197166Y-136633226D01*
X117202146Y-136648920D01*
X117206462Y-136665043D01*
X117210114Y-136681595D01*
X117213103Y-136698577D01*
X117215427Y-136715987D01*
X117217087Y-136733828D01*
X117218083Y-136752097D01*
X117218415Y-136770796D01*
X117217857Y-136795149D01*
X117216182Y-136818841D01*
X117213392Y-136841872D01*
X117209485Y-136864242D01*
X117204461Y-136885950D01*
X117198322Y-136906998D01*
X117191066Y-136927384D01*
X117182694Y-136947109D01*
X117173206Y-136966173D01*
X117162602Y-136984575D01*
X117150881Y-137002317D01*
X117138044Y-137019397D01*
X117124090Y-137035816D01*
X117109021Y-137051574D01*
X117092835Y-137066671D01*
X117075533Y-137081107D01*
X117057249Y-137094771D01*
X117038026Y-137107554D01*
X117017865Y-137119455D01*
X116996764Y-137130474D01*
X116974725Y-137140612D01*
X116951747Y-137149869D01*
X116927831Y-137158243D01*
X116902975Y-137165737D01*
X116877181Y-137172348D01*
X116850448Y-137178079D01*
X116822776Y-137182927D01*
X116794165Y-137186894D01*
X116779508Y-137188547D01*
X116764615Y-137189980D01*
X116749489Y-137191192D01*
X116734127Y-137192184D01*
X116718531Y-137192955D01*
X116702700Y-137193506D01*
X116686634Y-137193837D01*
X116670334Y-137193947D01*
X116653392Y-137193878D01*
X116636683Y-137193672D01*
X116620207Y-137193329D01*
X116603965Y-137192848D01*
X116587956Y-137192229D01*
X116572180Y-137191474D01*
X116556637Y-137190581D01*
X116541328Y-137189550D01*
X116526252Y-137188383D01*
X116511409Y-137187077D01*
X116496800Y-137185635D01*
X116468280Y-137182338D01*
X116440694Y-137178491D01*
X116414041Y-137174094D01*
X116388321Y-137169149D01*
X116363535Y-137163653D01*
X116339681Y-137157608D01*
X116316760Y-137151014D01*
X116294773Y-137143869D01*
X116273718Y-137136176D01*
X116253597Y-137127933D01*
X116243886Y-137123605D01*
G37*
G36*
X118195523Y-135646595D02*
G01*
X118214665Y-135647107D01*
X118233150Y-135647960D01*
X118250978Y-135649155D01*
X118268149Y-135650691D01*
X118284664Y-135652568D01*
X118300521Y-135654786D01*
X118315722Y-135657346D01*
X118330265Y-135660248D01*
X118348635Y-135664647D01*
X118353045Y-135665841D01*
X118353045Y-135825576D01*
X118334343Y-135821025D01*
X118319813Y-135818010D01*
X118304852Y-135815337D01*
X118289460Y-135813004D01*
X118273635Y-135811013D01*
X118257380Y-135809364D01*
X118240693Y-135808055D01*
X118223574Y-135807088D01*
X118206024Y-135806462D01*
X118188043Y-135806178D01*
X118181953Y-135806159D01*
X118153550Y-135806723D01*
X118126042Y-135808414D01*
X118099431Y-135811234D01*
X118073715Y-135815181D01*
X118048895Y-135820255D01*
X118024971Y-135826458D01*
X118001943Y-135833788D01*
X117979811Y-135842246D01*
X117958575Y-135851831D01*
X117938235Y-135862545D01*
X117918790Y-135874386D01*
X117900242Y-135887354D01*
X117882589Y-135901451D01*
X117865832Y-135916675D01*
X117849971Y-135933027D01*
X117835006Y-135950506D01*
X117820947Y-135969165D01*
X117807712Y-135989146D01*
X117795301Y-136010450D01*
X117783715Y-136033076D01*
X117772953Y-136057024D01*
X117763015Y-136082295D01*
X117753902Y-136108887D01*
X117745613Y-136136803D01*
X117741778Y-136151256D01*
X117738148Y-136166040D01*
X117734725Y-136181155D01*
X117731508Y-136196600D01*
X117728497Y-136212376D01*
X117725692Y-136228483D01*
X117723093Y-136244920D01*
X117720700Y-136261687D01*
X117718513Y-136278785D01*
X117716533Y-136296214D01*
X117714758Y-136313973D01*
X117713190Y-136332063D01*
X117711827Y-136350484D01*
X117710671Y-136369235D01*
X117709721Y-136388317D01*
X117708977Y-136407729D01*
X117721433Y-136407729D01*
X117734131Y-136386523D01*
X117747771Y-136366685D01*
X117762353Y-136348215D01*
X117777876Y-136331113D01*
X117794341Y-136315380D01*
X117811747Y-136301014D01*
X117830096Y-136288017D01*
X117849386Y-136276387D01*
X117869617Y-136266126D01*
X117890791Y-136257234D01*
X117912906Y-136249709D01*
X117935962Y-136243552D01*
X117959960Y-136238764D01*
X117984900Y-136235343D01*
X118010782Y-136233291D01*
X118037605Y-136232607D01*
X118062362Y-136233085D01*
X118086441Y-136234519D01*
X118109841Y-136236909D01*
X118132562Y-136240255D01*
X118154606Y-136244557D01*
X118175971Y-136249815D01*
X118196657Y-136256029D01*
X118216666Y-136263198D01*
X118235996Y-136271324D01*
X118254648Y-136280406D01*
X118272621Y-136290444D01*
X118289916Y-136301438D01*
X118306532Y-136313387D01*
X118322471Y-136326293D01*
X118337731Y-136340155D01*
X118352312Y-136354973D01*
X118366110Y-136370618D01*
X118379017Y-136386961D01*
X118391034Y-136404002D01*
X118402161Y-136421743D01*
X118412397Y-136440181D01*
X118421744Y-136459318D01*
X118430200Y-136479153D01*
X118437767Y-136499687D01*
X118444443Y-136520918D01*
X118450229Y-136542849D01*
X118455125Y-136565478D01*
X118459130Y-136588805D01*
X118462246Y-136612830D01*
X118464471Y-136637554D01*
X118465806Y-136662976D01*
X118466252Y-136689097D01*
X118465766Y-136718018D01*
X118464311Y-136746164D01*
X118461885Y-136773534D01*
X118458489Y-136800128D01*
X118454123Y-136825947D01*
X118448786Y-136850990D01*
X118442479Y-136875257D01*
X118435202Y-136898749D01*
X118426955Y-136921465D01*
X118417737Y-136943405D01*
X118407549Y-136964570D01*
X118396390Y-136984959D01*
X118384262Y-137004572D01*
X118371163Y-137023410D01*
X118357094Y-137041472D01*
X118342054Y-137058758D01*
X118326197Y-137075129D01*
X118309677Y-137090443D01*
X118292492Y-137104701D01*
X118274643Y-137117903D01*
X118256130Y-137130049D01*
X118236953Y-137141139D01*
X118217112Y-137151172D01*
X118196607Y-137160150D01*
X118175438Y-137168071D01*
X118153605Y-137174936D01*
X118131108Y-137180745D01*
X118107947Y-137185498D01*
X118084122Y-137189194D01*
X118059633Y-137191834D01*
X118034480Y-137193419D01*
X118008663Y-137193947D01*
X117980946Y-137193270D01*
X117953943Y-137191239D01*
X117927652Y-137187855D01*
X117902073Y-137183116D01*
X117877208Y-137177024D01*
X117853055Y-137169578D01*
X117829615Y-137160778D01*
X117806887Y-137150624D01*
X117784873Y-137139117D01*
X117763571Y-137126255D01*
X117742981Y-137112040D01*
X117723104Y-137096471D01*
X117703940Y-137079548D01*
X117685489Y-137061271D01*
X117667751Y-137041641D01*
X117650725Y-137020657D01*
X117634576Y-136998388D01*
X117619469Y-136974998D01*
X117605404Y-136950486D01*
X117592381Y-136924852D01*
X117580400Y-136898096D01*
X117574800Y-136884297D01*
X117569460Y-136870218D01*
X117564381Y-136855858D01*
X117559563Y-136841218D01*
X117555005Y-136826297D01*
X117550707Y-136811096D01*
X117546670Y-136795614D01*
X117542893Y-136779852D01*
X117539377Y-136763809D01*
X117536121Y-136747486D01*
X117533126Y-136730882D01*
X117530391Y-136713998D01*
X117527917Y-136696833D01*
X117525703Y-136679388D01*
X117523749Y-136661662D01*
X117522849Y-136652094D01*
X117704947Y-136652094D01*
X117705271Y-136671391D01*
X117706246Y-136690356D01*
X117707870Y-136708989D01*
X117710144Y-136727290D01*
X117713068Y-136745259D01*
X117716642Y-136762896D01*
X117720865Y-136780201D01*
X117725738Y-136797174D01*
X117731260Y-136813815D01*
X117737433Y-136830124D01*
X117744255Y-136846101D01*
X117751727Y-136861746D01*
X117759848Y-136877059D01*
X117768620Y-136892040D01*
X117778041Y-136906689D01*
X117788111Y-136921005D01*
X117798754Y-136934714D01*
X117809801Y-136947538D01*
X117821251Y-136959478D01*
X117833105Y-136970533D01*
X117845363Y-136980704D01*
X117858024Y-136989991D01*
X117871088Y-136998393D01*
X117884557Y-137005910D01*
X117898428Y-137012544D01*
X117912704Y-137018292D01*
X117927383Y-137023157D01*
X117942465Y-137027137D01*
X117957951Y-137030232D01*
X117973841Y-137032443D01*
X117990134Y-137033770D01*
X118006831Y-137034212D01*
X118022956Y-137033860D01*
X118038636Y-137032804D01*
X118053868Y-137031044D01*
X118068655Y-137028579D01*
X118082994Y-137025411D01*
X118103667Y-137019338D01*
X118123335Y-137011681D01*
X118141998Y-137002439D01*
X118159656Y-136991614D01*
X118176310Y-136979204D01*
X118191959Y-136965210D01*
X118206604Y-136949631D01*
X118211262Y-136944086D01*
X118224422Y-136926521D01*
X118232476Y-136914071D01*
X118239955Y-136901027D01*
X118246859Y-136887392D01*
X118253187Y-136873164D01*
X118258940Y-136858343D01*
X118264118Y-136842930D01*
X118268721Y-136826925D01*
X118272748Y-136810327D01*
X118276200Y-136793136D01*
X118279076Y-136775353D01*
X118281377Y-136756978D01*
X118283103Y-136738010D01*
X118284254Y-136718449D01*
X118284829Y-136698296D01*
X118284901Y-136687998D01*
X118284625Y-136669718D01*
X118283796Y-136651974D01*
X118282415Y-136634765D01*
X118280482Y-136618091D01*
X118277996Y-136601952D01*
X118274958Y-136586349D01*
X118271367Y-136571281D01*
X118267224Y-136556748D01*
X118262529Y-136542750D01*
X118254450Y-136522757D01*
X118245128Y-136503968D01*
X118234563Y-136486384D01*
X118222755Y-136470004D01*
X118214193Y-136459753D01*
X118200472Y-136445480D01*
X118185689Y-136432610D01*
X118169844Y-136421145D01*
X118152936Y-136411084D01*
X118134965Y-136402426D01*
X118115931Y-136395173D01*
X118095835Y-136389323D01*
X118074677Y-136384877D01*
X118059981Y-136382693D01*
X118044812Y-136381133D01*
X118029172Y-136380197D01*
X118013059Y-136379885D01*
X117996874Y-136380210D01*
X117981019Y-136381185D01*
X117965493Y-136382809D01*
X117950296Y-136385083D01*
X117935428Y-136388007D01*
X117920890Y-136391580D01*
X117906680Y-136395804D01*
X117892800Y-136400677D01*
X117872596Y-136409204D01*
X117853134Y-136419194D01*
X117834412Y-136430645D01*
X117822342Y-136439092D01*
X117810601Y-136448188D01*
X117799189Y-136457934D01*
X117793607Y-136463050D01*
X117782871Y-136473491D01*
X117768065Y-136489497D01*
X117754818Y-136505915D01*
X117743129Y-136522745D01*
X117732999Y-136539987D01*
X117724428Y-136557641D01*
X117717414Y-136575707D01*
X117711960Y-136594186D01*
X117708064Y-136613076D01*
X117705726Y-136632379D01*
X117704947Y-136652094D01*
X117522849Y-136652094D01*
X117522056Y-136643656D01*
X117520624Y-136625370D01*
X117519452Y-136606802D01*
X117518540Y-136587955D01*
X117517889Y-136568826D01*
X117517498Y-136549418D01*
X117517368Y-136529728D01*
X117518011Y-136475384D01*
X117519940Y-136422766D01*
X117523154Y-136371872D01*
X117527655Y-136322704D01*
X117533441Y-136275261D01*
X117540513Y-136229543D01*
X117548871Y-136185550D01*
X117558515Y-136143283D01*
X117569445Y-136102740D01*
X117581661Y-136063923D01*
X117595162Y-136026832D01*
X117609949Y-135991465D01*
X117626023Y-135957823D01*
X117643382Y-135925907D01*
X117662026Y-135895716D01*
X117681957Y-135867250D01*
X117703174Y-135840510D01*
X117725676Y-135815494D01*
X117749464Y-135792204D01*
X117774539Y-135770639D01*
X117800899Y-135750799D01*
X117828544Y-135732684D01*
X117857476Y-135716295D01*
X117887694Y-135701631D01*
X117919197Y-135688692D01*
X117951986Y-135677478D01*
X117986061Y-135667989D01*
X118021422Y-135660226D01*
X118058069Y-135654188D01*
X118096002Y-135649875D01*
X118135220Y-135647287D01*
X118175725Y-135646424D01*
X118195523Y-135646595D01*
G37*
G36*
X118796346Y-137112614D02*
G01*
X118796346Y-136935294D01*
X118815182Y-136947272D01*
X118834596Y-136958478D01*
X118854589Y-136968910D01*
X118875160Y-136978570D01*
X118896309Y-136987458D01*
X118918036Y-136995572D01*
X118940341Y-137002914D01*
X118963225Y-137009482D01*
X118986686Y-137015278D01*
X119010726Y-137020302D01*
X119035344Y-137024552D01*
X119060540Y-137028030D01*
X119086314Y-137030734D01*
X119112667Y-137032666D01*
X119139598Y-137033826D01*
X119167106Y-137034212D01*
X119188407Y-137033900D01*
X119209031Y-137032964D01*
X119228979Y-137031404D01*
X119248250Y-137029220D01*
X119266846Y-137026412D01*
X119284765Y-137022981D01*
X119302008Y-137018925D01*
X119318575Y-137014245D01*
X119334466Y-137008941D01*
X119349680Y-137003014D01*
X119364219Y-136996462D01*
X119378081Y-136989287D01*
X119391267Y-136981487D01*
X119403776Y-136973064D01*
X119415610Y-136964016D01*
X119426767Y-136954345D01*
X119437248Y-136944049D01*
X119447053Y-136933130D01*
X119456182Y-136921586D01*
X119464634Y-136909419D01*
X119472411Y-136896628D01*
X119479511Y-136883213D01*
X119485935Y-136869173D01*
X119491682Y-136854510D01*
X119496754Y-136839223D01*
X119501149Y-136823312D01*
X119504868Y-136806777D01*
X119507911Y-136789618D01*
X119510278Y-136771835D01*
X119511968Y-136753428D01*
X119512982Y-136734397D01*
X119513321Y-136714742D01*
X119512975Y-136696350D01*
X119511937Y-136678541D01*
X119510207Y-136661316D01*
X119507785Y-136644675D01*
X119504671Y-136628618D01*
X119500866Y-136613145D01*
X119496368Y-136598256D01*
X119491178Y-136583950D01*
X119485297Y-136570229D01*
X119478724Y-136557091D01*
X119463501Y-136532568D01*
X119445510Y-136510380D01*
X119424752Y-136490527D01*
X119401226Y-136473011D01*
X119388425Y-136465128D01*
X119374932Y-136457829D01*
X119360747Y-136451115D01*
X119345871Y-136444984D01*
X119330302Y-136439437D01*
X119314041Y-136434474D01*
X119297089Y-136430094D01*
X119279444Y-136426299D01*
X119261108Y-136423088D01*
X119242079Y-136420460D01*
X119222359Y-136418417D01*
X119201947Y-136416957D01*
X119180843Y-136416081D01*
X119159046Y-136415789D01*
X119141328Y-136416015D01*
X119122656Y-136416691D01*
X119103031Y-136417818D01*
X119082453Y-136419396D01*
X119060922Y-136421424D01*
X119046039Y-136423027D01*
X119030732Y-136424830D01*
X119015001Y-136426834D01*
X118998846Y-136429038D01*
X118982268Y-136431442D01*
X118965267Y-136434046D01*
X118947842Y-136436851D01*
X118929993Y-136439857D01*
X118920910Y-136441435D01*
X118828219Y-136382450D01*
X118885006Y-135669871D01*
X119595753Y-135669871D01*
X119595753Y-135840964D01*
X119047672Y-135840964D01*
X119007372Y-136276571D01*
X119028003Y-136272904D01*
X119048545Y-136269598D01*
X119068996Y-136266653D01*
X119089357Y-136264068D01*
X119109628Y-136261845D01*
X119129809Y-136259981D01*
X119149899Y-136258479D01*
X119169900Y-136257337D01*
X119189810Y-136256555D01*
X119209630Y-136256134D01*
X119222794Y-136256054D01*
X119249534Y-136256512D01*
X119275625Y-136257886D01*
X119301065Y-136260176D01*
X119325857Y-136263382D01*
X119349998Y-136267503D01*
X119373490Y-136272541D01*
X119396332Y-136278494D01*
X119418524Y-136285363D01*
X119440066Y-136293149D01*
X119460959Y-136301850D01*
X119481202Y-136311467D01*
X119500796Y-136322000D01*
X119519739Y-136333449D01*
X119538033Y-136345814D01*
X119555677Y-136359094D01*
X119572672Y-136373291D01*
X119588820Y-136388239D01*
X119603927Y-136403865D01*
X119617992Y-136420170D01*
X119631015Y-136437153D01*
X119642996Y-136454814D01*
X119653936Y-136473154D01*
X119663833Y-136492172D01*
X119672689Y-136511868D01*
X119680503Y-136532243D01*
X119687275Y-136553296D01*
X119693005Y-136575027D01*
X119697693Y-136597437D01*
X119701340Y-136620525D01*
X119703945Y-136644292D01*
X119705507Y-136668736D01*
X119706028Y-136693860D01*
X119705889Y-136708706D01*
X119704779Y-136737760D01*
X119702558Y-136765964D01*
X119699226Y-136793319D01*
X119694784Y-136819823D01*
X119689231Y-136845477D01*
X119682568Y-136870281D01*
X119674794Y-136894235D01*
X119665910Y-136917339D01*
X119655915Y-136939592D01*
X119644810Y-136960996D01*
X119632594Y-136981550D01*
X119619267Y-137001253D01*
X119604830Y-137020107D01*
X119589283Y-137038110D01*
X119572624Y-137055263D01*
X119563879Y-137063521D01*
X119545655Y-137079315D01*
X119526521Y-137094090D01*
X119506477Y-137107845D01*
X119485523Y-137120582D01*
X119463658Y-137132300D01*
X119440884Y-137142999D01*
X119417199Y-137152679D01*
X119392604Y-137161340D01*
X119367098Y-137168983D01*
X119340683Y-137175606D01*
X119313357Y-137181210D01*
X119285121Y-137185795D01*
X119255975Y-137189362D01*
X119241061Y-137190763D01*
X119225919Y-137191909D01*
X119210550Y-137192800D01*
X119194953Y-137193437D01*
X119179128Y-137193819D01*
X119163076Y-137193947D01*
X119134596Y-137193629D01*
X119106857Y-137192676D01*
X119079859Y-137191087D01*
X119053602Y-137188864D01*
X119028087Y-137186004D01*
X119003313Y-137182509D01*
X118979280Y-137178379D01*
X118955989Y-137173614D01*
X118933439Y-137168213D01*
X118911630Y-137162176D01*
X118890563Y-137155504D01*
X118870237Y-137148197D01*
X118850652Y-137140254D01*
X118831809Y-137131676D01*
X118813707Y-137122463D01*
X118796346Y-137112614D01*
G37*
G36*
X120524647Y-135646618D02*
G01*
X120553592Y-135648173D01*
X120581625Y-135651281D01*
X120608744Y-135655944D01*
X120634951Y-135662160D01*
X120660244Y-135669931D01*
X120684625Y-135679256D01*
X120708092Y-135690136D01*
X120730646Y-135702569D01*
X120752288Y-135716557D01*
X120773016Y-135732099D01*
X120792831Y-135749195D01*
X120811733Y-135767845D01*
X120829722Y-135788049D01*
X120846798Y-135809808D01*
X120862961Y-135833121D01*
X120870700Y-135845360D01*
X120878229Y-135857966D01*
X120885518Y-135870917D01*
X120892568Y-135884212D01*
X120899380Y-135897853D01*
X120905952Y-135911839D01*
X120912285Y-135926169D01*
X120918380Y-135940844D01*
X120924235Y-135955865D01*
X120929852Y-135971230D01*
X120935229Y-135986940D01*
X120940367Y-136002995D01*
X120945267Y-136019394D01*
X120949927Y-136036139D01*
X120954349Y-136053229D01*
X120958531Y-136070663D01*
X120962474Y-136088443D01*
X120966179Y-136106567D01*
X120969644Y-136125036D01*
X120972871Y-136143850D01*
X120975858Y-136163009D01*
X120978607Y-136182513D01*
X120981116Y-136202362D01*
X120983387Y-136222556D01*
X120985418Y-136243094D01*
X120987211Y-136263978D01*
X120988764Y-136285206D01*
X120990078Y-136306779D01*
X120991154Y-136328697D01*
X120991990Y-136350961D01*
X120992588Y-136373568D01*
X120992946Y-136396521D01*
X120993066Y-136419819D01*
X120992594Y-136467446D01*
X120991178Y-136513561D01*
X120988819Y-136558164D01*
X120985515Y-136601255D01*
X120981268Y-136642834D01*
X120976077Y-136682902D01*
X120969942Y-136721457D01*
X120962864Y-136758500D01*
X120954841Y-136794031D01*
X120945875Y-136828051D01*
X120935965Y-136860558D01*
X120925111Y-136891553D01*
X120913313Y-136921037D01*
X120900572Y-136949008D01*
X120886886Y-136975467D01*
X120872257Y-137000415D01*
X120856684Y-137023850D01*
X120840167Y-137045774D01*
X120822707Y-137066186D01*
X120804302Y-137085085D01*
X120784954Y-137102473D01*
X120764662Y-137118348D01*
X120743426Y-137132712D01*
X120721246Y-137145564D01*
X120698123Y-137156904D01*
X120674056Y-137166731D01*
X120649044Y-137175047D01*
X120623089Y-137181851D01*
X120596191Y-137187143D01*
X120568348Y-137190923D01*
X120539562Y-137193191D01*
X120509831Y-137193947D01*
X120480786Y-137193170D01*
X120452633Y-137190838D01*
X120425373Y-137186953D01*
X120399006Y-137181513D01*
X120373532Y-137174519D01*
X120348952Y-137165971D01*
X120325264Y-137155869D01*
X120302469Y-137144213D01*
X120280568Y-137131002D01*
X120259559Y-137116238D01*
X120239443Y-137099919D01*
X120220220Y-137082045D01*
X120201891Y-137062618D01*
X120184454Y-137041637D01*
X120167911Y-137019101D01*
X120152260Y-136995011D01*
X120144777Y-136982404D01*
X120137531Y-136969451D01*
X120130523Y-136956152D01*
X120123752Y-136942506D01*
X120117219Y-136928514D01*
X120110924Y-136914176D01*
X120104866Y-136899492D01*
X120099045Y-136884461D01*
X120093463Y-136869083D01*
X120088118Y-136853360D01*
X120083010Y-136837290D01*
X120078140Y-136820873D01*
X120073507Y-136804111D01*
X120069112Y-136787002D01*
X120064955Y-136769547D01*
X120061035Y-136751745D01*
X120057353Y-136733597D01*
X120053908Y-136715103D01*
X120050701Y-136696262D01*
X120047732Y-136677076D01*
X120045000Y-136657542D01*
X120042505Y-136637663D01*
X120040248Y-136617437D01*
X120038229Y-136596865D01*
X120036447Y-136575946D01*
X120034903Y-136554681D01*
X120033597Y-136533070D01*
X120032527Y-136511113D01*
X120031696Y-136488809D01*
X120031102Y-136466158D01*
X120030746Y-136443162D01*
X120030627Y-136419819D01*
X120030634Y-136419086D01*
X120221503Y-136419086D01*
X120221571Y-136439355D01*
X120221775Y-136459266D01*
X120222115Y-136478819D01*
X120222590Y-136498015D01*
X120223202Y-136516853D01*
X120223950Y-136535333D01*
X120224834Y-136553455D01*
X120225853Y-136571219D01*
X120227009Y-136588626D01*
X120228301Y-136605675D01*
X120229728Y-136622366D01*
X120231292Y-136638699D01*
X120232991Y-136654674D01*
X120234826Y-136670292D01*
X120236798Y-136685552D01*
X120238905Y-136700454D01*
X120241148Y-136714999D01*
X120246043Y-136743014D01*
X120251481Y-136769598D01*
X120257463Y-136794751D01*
X120263989Y-136818474D01*
X120271059Y-136840765D01*
X120278672Y-136861624D01*
X120286829Y-136881053D01*
X120291112Y-136890231D01*
X120300124Y-136907666D01*
X120309756Y-136923976D01*
X120320010Y-136939162D01*
X120330885Y-136953223D01*
X120342381Y-136966158D01*
X120354499Y-136977969D01*
X120367237Y-136988655D01*
X120380596Y-136998217D01*
X120394577Y-137006653D01*
X120409179Y-137013965D01*
X120424401Y-137020151D01*
X120440245Y-137025213D01*
X120456710Y-137029150D01*
X120473796Y-137031962D01*
X120491503Y-137033650D01*
X120509831Y-137034212D01*
X120528476Y-137033648D01*
X120546491Y-137031957D01*
X120563876Y-137029137D01*
X120580631Y-137025190D01*
X120596757Y-137020116D01*
X120612253Y-137013913D01*
X120627120Y-137006583D01*
X120641356Y-136998125D01*
X120654963Y-136988540D01*
X120667940Y-136977826D01*
X120680288Y-136965985D01*
X120692006Y-136953017D01*
X120703094Y-136938920D01*
X120713553Y-136923696D01*
X120723382Y-136907344D01*
X120732581Y-136889864D01*
X120741188Y-136871067D01*
X120749239Y-136850852D01*
X120756735Y-136829221D01*
X120763676Y-136806173D01*
X120770062Y-136781708D01*
X120775892Y-136755827D01*
X120781167Y-136728528D01*
X120785887Y-136699813D01*
X120788039Y-136684924D01*
X120790051Y-136669681D01*
X120791925Y-136654084D01*
X120793661Y-136638132D01*
X120795257Y-136621826D01*
X120796715Y-136605167D01*
X120798033Y-136588152D01*
X120799213Y-136570784D01*
X120800255Y-136553062D01*
X120801157Y-136534985D01*
X120801920Y-136516554D01*
X120802545Y-136497769D01*
X120803031Y-136478630D01*
X120803378Y-136459136D01*
X120803586Y-136439288D01*
X120803656Y-136419086D01*
X120803586Y-136399020D01*
X120803378Y-136379304D01*
X120803031Y-136359939D01*
X120802545Y-136340925D01*
X120801920Y-136322261D01*
X120801157Y-136303948D01*
X120800255Y-136285985D01*
X120799213Y-136268373D01*
X120798033Y-136251112D01*
X120796715Y-136234201D01*
X120795257Y-136217641D01*
X120793661Y-136201432D01*
X120791925Y-136185573D01*
X120790051Y-136170065D01*
X120788039Y-136154907D01*
X120785887Y-136140100D01*
X120781167Y-136111538D01*
X120775892Y-136084378D01*
X120770062Y-136058621D01*
X120763676Y-136034267D01*
X120756735Y-136011314D01*
X120749239Y-135989765D01*
X120741188Y-135969618D01*
X120732581Y-135950873D01*
X120723382Y-135933349D01*
X120713553Y-135916956D01*
X120703094Y-135901693D01*
X120692006Y-135887561D01*
X120680288Y-135874559D01*
X120667940Y-135862688D01*
X120654963Y-135851947D01*
X120641356Y-135842337D01*
X120627120Y-135833858D01*
X120612253Y-135826509D01*
X120596757Y-135820291D01*
X120580631Y-135815204D01*
X120563876Y-135811247D01*
X120546491Y-135808420D01*
X120528476Y-135806724D01*
X120509831Y-135806159D01*
X120491503Y-135806720D01*
X120473796Y-135808403D01*
X120456710Y-135811208D01*
X120440245Y-135815135D01*
X120424401Y-135820184D01*
X120409179Y-135826355D01*
X120394577Y-135833648D01*
X120380596Y-135842063D01*
X120367237Y-135851600D01*
X120354499Y-135862258D01*
X120342381Y-135874039D01*
X120330885Y-135886942D01*
X120320010Y-135900967D01*
X120309756Y-135916114D01*
X120300124Y-135932383D01*
X120291112Y-135949774D01*
X120282683Y-135968394D01*
X120274797Y-135988442D01*
X120267456Y-136009919D01*
X120260658Y-136032824D01*
X120254404Y-136057157D01*
X120248694Y-136082919D01*
X120243528Y-136110108D01*
X120238905Y-136138726D01*
X120236798Y-136153571D01*
X120234826Y-136168772D01*
X120232991Y-136184331D01*
X120231292Y-136200247D01*
X120229728Y-136216519D01*
X120228301Y-136233149D01*
X120227009Y-136250136D01*
X120225853Y-136267480D01*
X120224834Y-136285181D01*
X120223950Y-136303239D01*
X120223202Y-136321655D01*
X120222590Y-136340427D01*
X120222115Y-136359556D01*
X120221775Y-136379042D01*
X120221571Y-136398886D01*
X120221503Y-136419086D01*
X120030634Y-136419086D01*
X120031095Y-136372237D01*
X120032499Y-136326166D01*
X120034839Y-136281605D01*
X120038115Y-136238555D01*
X120042326Y-136197015D01*
X120047474Y-136156986D01*
X120053558Y-136118467D01*
X120060577Y-136081459D01*
X120068533Y-136045961D01*
X120077424Y-136011974D01*
X120087252Y-135979498D01*
X120098015Y-135948532D01*
X120109714Y-135919076D01*
X120122350Y-135891131D01*
X120135921Y-135864697D01*
X120150428Y-135839773D01*
X120165871Y-135816360D01*
X120182250Y-135794457D01*
X120199565Y-135774065D01*
X120217816Y-135755183D01*
X120237003Y-135737812D01*
X120257126Y-135721951D01*
X120278185Y-135707601D01*
X120300179Y-135694761D01*
X120323110Y-135683432D01*
X120346977Y-135673614D01*
X120371779Y-135665306D01*
X120397518Y-135658508D01*
X120424192Y-135653222D01*
X120451803Y-135649445D01*
X120480349Y-135647179D01*
X120509831Y-135646424D01*
X120524647Y-135646618D01*
G37*
G36*
X122241269Y-137170500D02*
G01*
X121302277Y-137170500D01*
X121302277Y-137009666D01*
X121663146Y-136618389D01*
X121675560Y-136604805D01*
X121687707Y-136591439D01*
X121699586Y-136578292D01*
X121711197Y-136565363D01*
X121722541Y-136552652D01*
X121733617Y-136540160D01*
X121744425Y-136527885D01*
X121754966Y-136515829D01*
X121765239Y-136503992D01*
X121775245Y-136492372D01*
X121784983Y-136480971D01*
X121803656Y-136458823D01*
X121821259Y-136437548D01*
X121837791Y-136417146D01*
X121853253Y-136397617D01*
X121867644Y-136378961D01*
X121880965Y-136361178D01*
X121893215Y-136344268D01*
X121904395Y-136328231D01*
X121914504Y-136313067D01*
X121923543Y-136298776D01*
X121927661Y-136291958D01*
X121935425Y-136278454D01*
X121942688Y-136264778D01*
X121949450Y-136250931D01*
X121955711Y-136236912D01*
X121961471Y-136222721D01*
X121966730Y-136208358D01*
X121971489Y-136193824D01*
X121975746Y-136179118D01*
X121979503Y-136164240D01*
X121982759Y-136149190D01*
X121985514Y-136133969D01*
X121987768Y-136118576D01*
X121989521Y-136103011D01*
X121990773Y-136087275D01*
X121991524Y-136071367D01*
X121991775Y-136055287D01*
X121991199Y-136034077D01*
X121989469Y-136013723D01*
X121986587Y-135994226D01*
X121982553Y-135975585D01*
X121977365Y-135957801D01*
X121971025Y-135940874D01*
X121963532Y-135924803D01*
X121954887Y-135909588D01*
X121945088Y-135895230D01*
X121934137Y-135881729D01*
X121926196Y-135873204D01*
X121913563Y-135861222D01*
X121900118Y-135850419D01*
X121885862Y-135840794D01*
X121870795Y-135832348D01*
X121854916Y-135825081D01*
X121838225Y-135818992D01*
X121820724Y-135814081D01*
X121802410Y-135810349D01*
X121783286Y-135807796D01*
X121763350Y-135806421D01*
X121749608Y-135806159D01*
X121729009Y-135806706D01*
X121708426Y-135808346D01*
X121687861Y-135811079D01*
X121667314Y-135814906D01*
X121646783Y-135819826D01*
X121626269Y-135825840D01*
X121605773Y-135832946D01*
X121585294Y-135841147D01*
X121564832Y-135850440D01*
X121544387Y-135860827D01*
X121523959Y-135872308D01*
X121503549Y-135884881D01*
X121483155Y-135898549D01*
X121462779Y-135913309D01*
X121442420Y-135929163D01*
X121422078Y-135946110D01*
X121316932Y-135823378D01*
X121329335Y-135812491D01*
X121341815Y-135801950D01*
X121354371Y-135791754D01*
X121367004Y-135781904D01*
X121379713Y-135772400D01*
X121392499Y-135763241D01*
X121405361Y-135754428D01*
X121418300Y-135745961D01*
X121431316Y-135737839D01*
X121444408Y-135730063D01*
X121457577Y-135722632D01*
X121470822Y-135715547D01*
X121484144Y-135708807D01*
X121497542Y-135702413D01*
X121511017Y-135696365D01*
X121524569Y-135690663D01*
X121551902Y-135680294D01*
X121579541Y-135671308D01*
X121607486Y-135663705D01*
X121635738Y-135657484D01*
X121664295Y-135652645D01*
X121693159Y-135649189D01*
X121722330Y-135647115D01*
X121737030Y-135646597D01*
X121751806Y-135646424D01*
X121776436Y-135646849D01*
X121800407Y-135648124D01*
X121823720Y-135650249D01*
X121846374Y-135653225D01*
X121868370Y-135657050D01*
X121889708Y-135661726D01*
X121910388Y-135667251D01*
X121930409Y-135673627D01*
X121949772Y-135680852D01*
X121968476Y-135688928D01*
X121986523Y-135697854D01*
X122003911Y-135707630D01*
X122020640Y-135718256D01*
X122036712Y-135729732D01*
X122052125Y-135742058D01*
X122066880Y-135755234D01*
X122080854Y-135769129D01*
X122093928Y-135783610D01*
X122106099Y-135798679D01*
X122117369Y-135814333D01*
X122127738Y-135830575D01*
X122137204Y-135847404D01*
X122145770Y-135864819D01*
X122153433Y-135882821D01*
X122160195Y-135901409D01*
X122166056Y-135920585D01*
X122171014Y-135940347D01*
X122175072Y-135960696D01*
X122178227Y-135981632D01*
X122180481Y-136003154D01*
X122181834Y-136025263D01*
X122182284Y-136047959D01*
X122182047Y-136063279D01*
X122181334Y-136078648D01*
X122180146Y-136094065D01*
X122178483Y-136109531D01*
X122176345Y-136125046D01*
X122173732Y-136140609D01*
X122170644Y-136156221D01*
X122167080Y-136171882D01*
X122163042Y-136187591D01*
X122158528Y-136203349D01*
X122153539Y-136219156D01*
X122148075Y-136235011D01*
X122142136Y-136250915D01*
X122135722Y-136266868D01*
X122128832Y-136282869D01*
X122121468Y-136298919D01*
X122113170Y-136315450D01*
X122103482Y-136332985D01*
X122092402Y-136351525D01*
X122079931Y-136371070D01*
X122066070Y-136391619D01*
X122050817Y-136413173D01*
X122034173Y-136435732D01*
X122016138Y-136459295D01*
X122006599Y-136471453D01*
X121996712Y-136483863D01*
X121986478Y-136496523D01*
X121975895Y-136509435D01*
X121964965Y-136522598D01*
X121953687Y-136536012D01*
X121942062Y-136549678D01*
X121930088Y-136563594D01*
X121917767Y-136577762D01*
X121905098Y-136592181D01*
X121892082Y-136606851D01*
X121878717Y-136621772D01*
X121865005Y-136636944D01*
X121850945Y-136652367D01*
X121836537Y-136668042D01*
X121821782Y-136683968D01*
X121532354Y-136991347D01*
X121532354Y-136999407D01*
X122241269Y-136999407D01*
X122241269Y-137170500D01*
G37*
X112922896Y-125588019D02*
X112922896Y-126397542D01*
X112922896Y-126397542D02*
X112970515Y-126492780D01*
X112970515Y-126492780D02*
X113018134Y-126540400D01*
X113018134Y-126540400D02*
X113113372Y-126588019D01*
X113113372Y-126588019D02*
X113303848Y-126588019D01*
X113303848Y-126588019D02*
X113399086Y-126540400D01*
X113399086Y-126540400D02*
X113446705Y-126492780D01*
X113446705Y-126492780D02*
X113494324Y-126397542D01*
X113494324Y-126397542D02*
X113494324Y-125588019D01*
X113922896Y-125683257D02*
X113970515Y-125635638D01*
X113970515Y-125635638D02*
X114065753Y-125588019D01*
X114065753Y-125588019D02*
X114303848Y-125588019D01*
X114303848Y-125588019D02*
X114399086Y-125635638D01*
X114399086Y-125635638D02*
X114446705Y-125683257D01*
X114446705Y-125683257D02*
X114494324Y-125778495D01*
X114494324Y-125778495D02*
X114494324Y-125873733D01*
X114494324Y-125873733D02*
X114446705Y-126016590D01*
X114446705Y-126016590D02*
X113875277Y-126588019D01*
X113875277Y-126588019D02*
X114494324Y-126588019D01*
X120137333Y-72232819D02*
X119804000Y-71756628D01*
X119565905Y-72232819D02*
X119565905Y-71232819D01*
X119565905Y-71232819D02*
X119946857Y-71232819D01*
X119946857Y-71232819D02*
X120042095Y-71280438D01*
X120042095Y-71280438D02*
X120089714Y-71328057D01*
X120089714Y-71328057D02*
X120137333Y-71423295D01*
X120137333Y-71423295D02*
X120137333Y-71566152D01*
X120137333Y-71566152D02*
X120089714Y-71661390D01*
X120089714Y-71661390D02*
X120042095Y-71709009D01*
X120042095Y-71709009D02*
X119946857Y-71756628D01*
X119946857Y-71756628D02*
X119565905Y-71756628D01*
X121089714Y-72232819D02*
X120518286Y-72232819D01*
X120804000Y-72232819D02*
X120804000Y-71232819D01*
X120804000Y-71232819D02*
X120708762Y-71375676D01*
X120708762Y-71375676D02*
X120613524Y-71470914D01*
X120613524Y-71470914D02*
X120518286Y-71518533D01*
X110409205Y-72232819D02*
X110409205Y-71232819D01*
X110409205Y-71232819D02*
X110647300Y-71232819D01*
X110647300Y-71232819D02*
X110790157Y-71280438D01*
X110790157Y-71280438D02*
X110885395Y-71375676D01*
X110885395Y-71375676D02*
X110933014Y-71470914D01*
X110933014Y-71470914D02*
X110980633Y-71661390D01*
X110980633Y-71661390D02*
X110980633Y-71804247D01*
X110980633Y-71804247D02*
X110933014Y-71994723D01*
X110933014Y-71994723D02*
X110885395Y-72089961D01*
X110885395Y-72089961D02*
X110790157Y-72185200D01*
X110790157Y-72185200D02*
X110647300Y-72232819D01*
X110647300Y-72232819D02*
X110409205Y-72232819D01*
X111933014Y-72232819D02*
X111361586Y-72232819D01*
X111647300Y-72232819D02*
X111647300Y-71232819D01*
X111647300Y-71232819D02*
X111552062Y-71375676D01*
X111552062Y-71375676D02*
X111456824Y-71470914D01*
X111456824Y-71470914D02*
X111361586Y-71518533D01*
X103899580Y-89367966D02*
X103947200Y-89415585D01*
X103947200Y-89415585D02*
X103994819Y-89558442D01*
X103994819Y-89558442D02*
X103994819Y-89653680D01*
X103994819Y-89653680D02*
X103947200Y-89796537D01*
X103947200Y-89796537D02*
X103851961Y-89891775D01*
X103851961Y-89891775D02*
X103756723Y-89939394D01*
X103756723Y-89939394D02*
X103566247Y-89987013D01*
X103566247Y-89987013D02*
X103423390Y-89987013D01*
X103423390Y-89987013D02*
X103232914Y-89939394D01*
X103232914Y-89939394D02*
X103137676Y-89891775D01*
X103137676Y-89891775D02*
X103042438Y-89796537D01*
X103042438Y-89796537D02*
X102994819Y-89653680D01*
X102994819Y-89653680D02*
X102994819Y-89558442D01*
X102994819Y-89558442D02*
X103042438Y-89415585D01*
X103042438Y-89415585D02*
X103090057Y-89367966D01*
X103994819Y-88415585D02*
X103994819Y-88987013D01*
X103994819Y-88701299D02*
X102994819Y-88701299D01*
X102994819Y-88701299D02*
X103137676Y-88796537D01*
X103137676Y-88796537D02*
X103232914Y-88891775D01*
X103232914Y-88891775D02*
X103280533Y-88987013D01*
X112938095Y-76820819D02*
X112938095Y-77630342D01*
X112938095Y-77630342D02*
X112985714Y-77725580D01*
X112985714Y-77725580D02*
X113033333Y-77773200D01*
X113033333Y-77773200D02*
X113128571Y-77820819D01*
X113128571Y-77820819D02*
X113319047Y-77820819D01*
X113319047Y-77820819D02*
X113414285Y-77773200D01*
X113414285Y-77773200D02*
X113461904Y-77725580D01*
X113461904Y-77725580D02*
X113509523Y-77630342D01*
X113509523Y-77630342D02*
X113509523Y-76820819D01*
X114509523Y-77820819D02*
X113938095Y-77820819D01*
X114223809Y-77820819D02*
X114223809Y-76820819D01*
X114223809Y-76820819D02*
X114128571Y-76963676D01*
X114128571Y-76963676D02*
X114033333Y-77058914D01*
X114033333Y-77058914D02*
X113938095Y-77106533D01*
D11*
X115336801Y-130414600D02*
X115336801Y-128760600D01*
X114347741Y-130414600D02*
X115336801Y-130414600D01*
X113971862Y-128760600D02*
X113397740Y-128760600D01*
X112032801Y-130414600D02*
X113021861Y-130414600D01*
X112032801Y-128760600D02*
X112032801Y-130414600D01*
D12*
X117255276Y-71255500D02*
X117764724Y-71255500D01*
X117255276Y-72300500D02*
X117764724Y-72300500D01*
D11*
X115541500Y-71270000D02*
G75*
G03*
X115389100Y-71270000I-76200J0D01*
G01*
X115389100Y-71270000D02*
G75*
G03*
X115541500Y-71270000I76200J0D01*
G01*
D12*
X103030000Y-92141567D02*
X103030000Y-91849033D01*
X104050000Y-92141567D02*
X104050000Y-91849033D01*
X104750000Y-73690000D02*
X104750000Y-124730000D01*
X104750000Y-124730000D02*
X122650000Y-124730000D01*
X107240000Y-73750000D02*
X107240000Y-124670000D01*
X107240000Y-124670000D02*
X120160000Y-124670000D01*
X112700000Y-73750000D02*
X107240000Y-73750000D01*
X120160000Y-73750000D02*
X114700000Y-73750000D01*
X120160000Y-124670000D02*
X120160000Y-73750000D01*
X122650000Y-73690000D02*
X104750000Y-73690000D01*
X122650000Y-124730000D02*
X122650000Y-73690000D01*
X112700000Y-73750000D02*
G75*
G03*
X114700000Y-73750000I1000000J0D01*
G01*
M02*
