G04 #@! TF.GenerationSoftware,KiCad,Pcbnew,9.0.8+dfsg-1*
G04 #@! TF.CreationDate,2026-10-02T09:55:23+09:00*
G04 #@! TF.ProjectId,bionic-p8051,62696f6e-6963-42d7-9038-3035312e6b69,7*
G04 #@! TF.SameCoordinates,Original*
G04 #@! TF.FileFunction,Legend,Top*
G04 #@! TF.FilePolarity,Positive*
%FSLAX46Y46*%
G04 Gerber Fmt 4.6, Leading zero omitted, Abs format (unit mm)*
G04 Created by KiCad (PCBNEW 9.0.8+dfsg-1) date 2026-10-02 09:55:23*
%MOMM*%
%LPD*%
G01*
G04 APERTURE LIST*
%ADD10C,0.150000*%
%ADD11C,0.100000*%
%ADD12C,0.120000*%
%ADD13C,0.152400*%
G04 APERTURE END LIST*
D10*
X104360057Y-126165713D02*
X104312438Y-126118094D01*
X104312438Y-126118094D02*
X104264819Y-126022856D01*
X104264819Y-126022856D02*
X104264819Y-125784761D01*
X104264819Y-125784761D02*
X104312438Y-125689523D01*
X104312438Y-125689523D02*
X104360057Y-125641904D01*
X104360057Y-125641904D02*
X104455295Y-125594285D01*
X104455295Y-125594285D02*
X104550533Y-125594285D01*
X104550533Y-125594285D02*
X104693390Y-125641904D01*
X104693390Y-125641904D02*
X105264819Y-126213332D01*
X105264819Y-126213332D02*
X105264819Y-125594285D01*
D11*
X104530918Y-135292218D02*
X103730918Y-135292218D01*
X103730918Y-135292218D02*
X103730918Y-134987456D01*
X103730918Y-134987456D02*
X103769013Y-134911266D01*
X103769013Y-134911266D02*
X103807108Y-134873171D01*
X103807108Y-134873171D02*
X103883299Y-134835075D01*
X103883299Y-134835075D02*
X103997584Y-134835075D01*
X103997584Y-134835075D02*
X104073775Y-134873171D01*
X104073775Y-134873171D02*
X104111870Y-134911266D01*
X104111870Y-134911266D02*
X104149965Y-134987456D01*
X104149965Y-134987456D02*
X104149965Y-135292218D01*
X104073775Y-134377933D02*
X104035680Y-134454123D01*
X104035680Y-134454123D02*
X103997584Y-134492218D01*
X103997584Y-134492218D02*
X103921394Y-134530314D01*
X103921394Y-134530314D02*
X103883299Y-134530314D01*
X103883299Y-134530314D02*
X103807108Y-134492218D01*
X103807108Y-134492218D02*
X103769013Y-134454123D01*
X103769013Y-134454123D02*
X103730918Y-134377933D01*
X103730918Y-134377933D02*
X103730918Y-134225552D01*
X103730918Y-134225552D02*
X103769013Y-134149361D01*
X103769013Y-134149361D02*
X103807108Y-134111266D01*
X103807108Y-134111266D02*
X103883299Y-134073171D01*
X103883299Y-134073171D02*
X103921394Y-134073171D01*
X103921394Y-134073171D02*
X103997584Y-134111266D01*
X103997584Y-134111266D02*
X104035680Y-134149361D01*
X104035680Y-134149361D02*
X104073775Y-134225552D01*
X104073775Y-134225552D02*
X104073775Y-134377933D01*
X104073775Y-134377933D02*
X104111870Y-134454123D01*
X104111870Y-134454123D02*
X104149965Y-134492218D01*
X104149965Y-134492218D02*
X104226156Y-134530314D01*
X104226156Y-134530314D02*
X104378537Y-134530314D01*
X104378537Y-134530314D02*
X104454727Y-134492218D01*
X104454727Y-134492218D02*
X104492823Y-134454123D01*
X104492823Y-134454123D02*
X104530918Y-134377933D01*
X104530918Y-134377933D02*
X104530918Y-134225552D01*
X104530918Y-134225552D02*
X104492823Y-134149361D01*
X104492823Y-134149361D02*
X104454727Y-134111266D01*
X104454727Y-134111266D02*
X104378537Y-134073171D01*
X104378537Y-134073171D02*
X104226156Y-134073171D01*
X104226156Y-134073171D02*
X104149965Y-134111266D01*
X104149965Y-134111266D02*
X104111870Y-134149361D01*
X104111870Y-134149361D02*
X104073775Y-134225552D01*
X103730918Y-133577932D02*
X103730918Y-133501742D01*
X103730918Y-133501742D02*
X103769013Y-133425551D01*
X103769013Y-133425551D02*
X103807108Y-133387456D01*
X103807108Y-133387456D02*
X103883299Y-133349361D01*
X103883299Y-133349361D02*
X104035680Y-133311266D01*
X104035680Y-133311266D02*
X104226156Y-133311266D01*
X104226156Y-133311266D02*
X104378537Y-133349361D01*
X104378537Y-133349361D02*
X104454727Y-133387456D01*
X104454727Y-133387456D02*
X104492823Y-133425551D01*
X104492823Y-133425551D02*
X104530918Y-133501742D01*
X104530918Y-133501742D02*
X104530918Y-133577932D01*
X104530918Y-133577932D02*
X104492823Y-133654123D01*
X104492823Y-133654123D02*
X104454727Y-133692218D01*
X104454727Y-133692218D02*
X104378537Y-133730313D01*
X104378537Y-133730313D02*
X104226156Y-133768409D01*
X104226156Y-133768409D02*
X104035680Y-133768409D01*
X104035680Y-133768409D02*
X103883299Y-133730313D01*
X103883299Y-133730313D02*
X103807108Y-133692218D01*
X103807108Y-133692218D02*
X103769013Y-133654123D01*
X103769013Y-133654123D02*
X103730918Y-133577932D01*
X103730918Y-132587456D02*
X103730918Y-132968408D01*
X103730918Y-132968408D02*
X104111870Y-133006504D01*
X104111870Y-133006504D02*
X104073775Y-132968408D01*
X104073775Y-132968408D02*
X104035680Y-132892218D01*
X104035680Y-132892218D02*
X104035680Y-132701742D01*
X104035680Y-132701742D02*
X104073775Y-132625551D01*
X104073775Y-132625551D02*
X104111870Y-132587456D01*
X104111870Y-132587456D02*
X104188061Y-132549361D01*
X104188061Y-132549361D02*
X104378537Y-132549361D01*
X104378537Y-132549361D02*
X104454727Y-132587456D01*
X104454727Y-132587456D02*
X104492823Y-132625551D01*
X104492823Y-132625551D02*
X104530918Y-132701742D01*
X104530918Y-132701742D02*
X104530918Y-132892218D01*
X104530918Y-132892218D02*
X104492823Y-132968408D01*
X104492823Y-132968408D02*
X104454727Y-133006504D01*
X104530918Y-131787456D02*
X104530918Y-132244599D01*
X104530918Y-132016027D02*
X103730918Y-132016027D01*
X103730918Y-132016027D02*
X103845203Y-132092218D01*
X103845203Y-132092218D02*
X103921394Y-132168408D01*
X103921394Y-132168408D02*
X103959489Y-132244599D01*
X104226156Y-131444598D02*
X104226156Y-130835075D01*
X104530918Y-130035075D02*
X104530918Y-130492218D01*
X104530918Y-130263646D02*
X103730918Y-130263646D01*
X103730918Y-130263646D02*
X103845203Y-130339837D01*
X103845203Y-130339837D02*
X103921394Y-130416027D01*
X103921394Y-130416027D02*
X103959489Y-130492218D01*
X103807108Y-129730313D02*
X103769013Y-129692217D01*
X103769013Y-129692217D02*
X103730918Y-129616027D01*
X103730918Y-129616027D02*
X103730918Y-129425551D01*
X103730918Y-129425551D02*
X103769013Y-129349360D01*
X103769013Y-129349360D02*
X103807108Y-129311265D01*
X103807108Y-129311265D02*
X103883299Y-129273170D01*
X103883299Y-129273170D02*
X103959489Y-129273170D01*
X103959489Y-129273170D02*
X104073775Y-129311265D01*
X104073775Y-129311265D02*
X104530918Y-129768408D01*
X104530918Y-129768408D02*
X104530918Y-129273170D01*
X105818873Y-136092218D02*
X105018873Y-136092218D01*
X105018873Y-136092218D02*
X105018873Y-135787456D01*
X105018873Y-135787456D02*
X105056968Y-135711266D01*
X105056968Y-135711266D02*
X105095063Y-135673171D01*
X105095063Y-135673171D02*
X105171254Y-135635075D01*
X105171254Y-135635075D02*
X105285539Y-135635075D01*
X105285539Y-135635075D02*
X105361730Y-135673171D01*
X105361730Y-135673171D02*
X105399825Y-135711266D01*
X105399825Y-135711266D02*
X105437920Y-135787456D01*
X105437920Y-135787456D02*
X105437920Y-136092218D01*
X105361730Y-135177933D02*
X105323635Y-135254123D01*
X105323635Y-135254123D02*
X105285539Y-135292218D01*
X105285539Y-135292218D02*
X105209349Y-135330314D01*
X105209349Y-135330314D02*
X105171254Y-135330314D01*
X105171254Y-135330314D02*
X105095063Y-135292218D01*
X105095063Y-135292218D02*
X105056968Y-135254123D01*
X105056968Y-135254123D02*
X105018873Y-135177933D01*
X105018873Y-135177933D02*
X105018873Y-135025552D01*
X105018873Y-135025552D02*
X105056968Y-134949361D01*
X105056968Y-134949361D02*
X105095063Y-134911266D01*
X105095063Y-134911266D02*
X105171254Y-134873171D01*
X105171254Y-134873171D02*
X105209349Y-134873171D01*
X105209349Y-134873171D02*
X105285539Y-134911266D01*
X105285539Y-134911266D02*
X105323635Y-134949361D01*
X105323635Y-134949361D02*
X105361730Y-135025552D01*
X105361730Y-135025552D02*
X105361730Y-135177933D01*
X105361730Y-135177933D02*
X105399825Y-135254123D01*
X105399825Y-135254123D02*
X105437920Y-135292218D01*
X105437920Y-135292218D02*
X105514111Y-135330314D01*
X105514111Y-135330314D02*
X105666492Y-135330314D01*
X105666492Y-135330314D02*
X105742682Y-135292218D01*
X105742682Y-135292218D02*
X105780778Y-135254123D01*
X105780778Y-135254123D02*
X105818873Y-135177933D01*
X105818873Y-135177933D02*
X105818873Y-135025552D01*
X105818873Y-135025552D02*
X105780778Y-134949361D01*
X105780778Y-134949361D02*
X105742682Y-134911266D01*
X105742682Y-134911266D02*
X105666492Y-134873171D01*
X105666492Y-134873171D02*
X105514111Y-134873171D01*
X105514111Y-134873171D02*
X105437920Y-134911266D01*
X105437920Y-134911266D02*
X105399825Y-134949361D01*
X105399825Y-134949361D02*
X105361730Y-135025552D01*
X105018873Y-134377932D02*
X105018873Y-134301742D01*
X105018873Y-134301742D02*
X105056968Y-134225551D01*
X105056968Y-134225551D02*
X105095063Y-134187456D01*
X105095063Y-134187456D02*
X105171254Y-134149361D01*
X105171254Y-134149361D02*
X105323635Y-134111266D01*
X105323635Y-134111266D02*
X105514111Y-134111266D01*
X105514111Y-134111266D02*
X105666492Y-134149361D01*
X105666492Y-134149361D02*
X105742682Y-134187456D01*
X105742682Y-134187456D02*
X105780778Y-134225551D01*
X105780778Y-134225551D02*
X105818873Y-134301742D01*
X105818873Y-134301742D02*
X105818873Y-134377932D01*
X105818873Y-134377932D02*
X105780778Y-134454123D01*
X105780778Y-134454123D02*
X105742682Y-134492218D01*
X105742682Y-134492218D02*
X105666492Y-134530313D01*
X105666492Y-134530313D02*
X105514111Y-134568409D01*
X105514111Y-134568409D02*
X105323635Y-134568409D01*
X105323635Y-134568409D02*
X105171254Y-134530313D01*
X105171254Y-134530313D02*
X105095063Y-134492218D01*
X105095063Y-134492218D02*
X105056968Y-134454123D01*
X105056968Y-134454123D02*
X105018873Y-134377932D01*
X105742682Y-133311265D02*
X105780778Y-133349361D01*
X105780778Y-133349361D02*
X105818873Y-133463646D01*
X105818873Y-133463646D02*
X105818873Y-133539837D01*
X105818873Y-133539837D02*
X105780778Y-133654123D01*
X105780778Y-133654123D02*
X105704587Y-133730313D01*
X105704587Y-133730313D02*
X105628397Y-133768408D01*
X105628397Y-133768408D02*
X105476016Y-133806504D01*
X105476016Y-133806504D02*
X105361730Y-133806504D01*
X105361730Y-133806504D02*
X105209349Y-133768408D01*
X105209349Y-133768408D02*
X105133158Y-133730313D01*
X105133158Y-133730313D02*
X105056968Y-133654123D01*
X105056968Y-133654123D02*
X105018873Y-133539837D01*
X105018873Y-133539837D02*
X105018873Y-133463646D01*
X105018873Y-133463646D02*
X105056968Y-133349361D01*
X105056968Y-133349361D02*
X105095063Y-133311265D01*
X105018873Y-132587456D02*
X105018873Y-132968408D01*
X105018873Y-132968408D02*
X105399825Y-133006504D01*
X105399825Y-133006504D02*
X105361730Y-132968408D01*
X105361730Y-132968408D02*
X105323635Y-132892218D01*
X105323635Y-132892218D02*
X105323635Y-132701742D01*
X105323635Y-132701742D02*
X105361730Y-132625551D01*
X105361730Y-132625551D02*
X105399825Y-132587456D01*
X105399825Y-132587456D02*
X105476016Y-132549361D01*
X105476016Y-132549361D02*
X105666492Y-132549361D01*
X105666492Y-132549361D02*
X105742682Y-132587456D01*
X105742682Y-132587456D02*
X105780778Y-132625551D01*
X105780778Y-132625551D02*
X105818873Y-132701742D01*
X105818873Y-132701742D02*
X105818873Y-132892218D01*
X105818873Y-132892218D02*
X105780778Y-132968408D01*
X105780778Y-132968408D02*
X105742682Y-133006504D01*
X105818873Y-131787456D02*
X105818873Y-132244599D01*
X105818873Y-132016027D02*
X105018873Y-132016027D01*
X105018873Y-132016027D02*
X105133158Y-132092218D01*
X105133158Y-132092218D02*
X105209349Y-132168408D01*
X105209349Y-132168408D02*
X105247444Y-132244599D01*
X105514111Y-131444598D02*
X105514111Y-130835075D01*
X105095063Y-130492218D02*
X105056968Y-130454122D01*
X105056968Y-130454122D02*
X105018873Y-130377932D01*
X105018873Y-130377932D02*
X105018873Y-130187456D01*
X105018873Y-130187456D02*
X105056968Y-130111265D01*
X105056968Y-130111265D02*
X105095063Y-130073170D01*
X105095063Y-130073170D02*
X105171254Y-130035075D01*
X105171254Y-130035075D02*
X105247444Y-130035075D01*
X105247444Y-130035075D02*
X105361730Y-130073170D01*
X105361730Y-130073170D02*
X105818873Y-130530313D01*
X105818873Y-130530313D02*
X105818873Y-130035075D01*
X105018873Y-129768408D02*
X105018873Y-129273170D01*
X105018873Y-129273170D02*
X105323635Y-129539836D01*
X105323635Y-129539836D02*
X105323635Y-129425551D01*
X105323635Y-129425551D02*
X105361730Y-129349360D01*
X105361730Y-129349360D02*
X105399825Y-129311265D01*
X105399825Y-129311265D02*
X105476016Y-129273170D01*
X105476016Y-129273170D02*
X105666492Y-129273170D01*
X105666492Y-129273170D02*
X105742682Y-129311265D01*
X105742682Y-129311265D02*
X105780778Y-129349360D01*
X105780778Y-129349360D02*
X105818873Y-129425551D01*
X105818873Y-129425551D02*
X105818873Y-129654122D01*
X105818873Y-129654122D02*
X105780778Y-129730313D01*
X105780778Y-129730313D02*
X105742682Y-129768408D01*
D10*
G36*
X107511372Y-135676957D02*
G01*
X107623784Y-135695966D01*
X107709176Y-135724097D01*
X107772959Y-135759448D01*
X107826624Y-135808979D01*
X107865690Y-135871540D01*
X107890553Y-135949979D01*
X107899538Y-136048509D01*
X107890191Y-136132661D01*
X107863332Y-136204404D01*
X107819030Y-136266496D01*
X107760559Y-136315933D01*
X107688969Y-136351161D01*
X107601318Y-136371917D01*
X107601318Y-136382175D01*
X107713579Y-136410284D01*
X107798032Y-136450758D01*
X107860365Y-136502106D01*
X107904417Y-136564717D01*
X107931762Y-136640817D01*
X107941487Y-136734160D01*
X107932632Y-136834321D01*
X107907490Y-136919279D01*
X107867061Y-136991916D01*
X107810786Y-137054270D01*
X107742688Y-137103334D01*
X107662328Y-137139492D01*
X107567350Y-137162373D01*
X107454772Y-137170500D01*
X106914751Y-137170500D01*
X106914751Y-137007559D01*
X107106360Y-137007559D01*
X107420975Y-137007559D01*
X107527040Y-136998123D01*
X107605611Y-136972830D01*
X107663203Y-136934364D01*
X107704184Y-136882684D01*
X107730147Y-136815043D01*
X107739620Y-136726466D01*
X107730320Y-136646542D01*
X107704539Y-136584595D01*
X107663079Y-136536312D01*
X107603556Y-136499629D01*
X107520816Y-136475119D01*
X107407603Y-136465889D01*
X107106360Y-136465889D01*
X107106360Y-137007559D01*
X106914751Y-137007559D01*
X106914751Y-136302949D01*
X107106360Y-136302949D01*
X107397436Y-136302949D01*
X107503179Y-136295385D01*
X107578352Y-136275652D01*
X107630535Y-136246895D01*
X107669507Y-136204117D01*
X107694505Y-136144221D01*
X107703808Y-136061240D01*
X107694100Y-135983708D01*
X107667658Y-135927028D01*
X107625406Y-135885843D01*
X107570166Y-135858816D01*
X107490034Y-135840044D01*
X107376920Y-135832812D01*
X107106360Y-135832812D01*
X107106360Y-136302949D01*
X106914751Y-136302949D01*
X106914751Y-135669871D01*
X107365654Y-135669871D01*
X107511372Y-135676957D01*
G37*
G36*
X108683924Y-135581944D02*
G01*
X108732617Y-135589664D01*
X108764753Y-135610434D01*
X108784881Y-135644856D01*
X108792551Y-135698631D01*
X108783787Y-135752334D01*
X108760219Y-135787291D01*
X108725093Y-135809110D01*
X108683924Y-135816417D01*
X108634780Y-135808625D01*
X108602347Y-135787660D01*
X108582032Y-135752914D01*
X108574290Y-135698631D01*
X108581999Y-135644950D01*
X108602262Y-135610522D01*
X108634689Y-135589697D01*
X108683924Y-135581944D01*
G37*
G36*
X108589585Y-136191574D02*
G01*
X108313988Y-136170233D01*
X108313988Y-136045028D01*
X108776156Y-136045028D01*
X108776156Y-137023954D01*
X109136842Y-137044470D01*
X109136842Y-137170500D01*
X108237143Y-137170500D01*
X108237143Y-137044470D01*
X108589585Y-137023954D01*
X108589585Y-136191574D01*
G37*
G36*
X110034020Y-136037777D02*
G01*
X110129591Y-136067647D01*
X110214708Y-136116695D01*
X110291164Y-136186353D01*
X110351745Y-136269333D01*
X110396010Y-136365595D01*
X110423788Y-136477641D01*
X110433588Y-136608680D01*
X110423767Y-136744302D01*
X110396125Y-136858635D01*
X110352448Y-136955297D01*
X110293179Y-137037143D01*
X110217937Y-137105204D01*
X110132087Y-137153664D01*
X110033523Y-137183517D01*
X109919213Y-137193947D01*
X109811648Y-137183632D01*
X109716644Y-137153756D01*
X109631629Y-137104580D01*
X109554864Y-137034578D01*
X109494167Y-136951290D01*
X109449752Y-136854379D01*
X109421840Y-136741273D01*
X109411981Y-136608680D01*
X109604597Y-136608680D01*
X109613231Y-136738761D01*
X109636420Y-136837817D01*
X109671139Y-136912285D01*
X109715969Y-136967293D01*
X109771281Y-137006274D01*
X109839187Y-137030571D01*
X109923243Y-137039250D01*
X110006967Y-137030585D01*
X110074629Y-137006323D01*
X110129766Y-136967383D01*
X110174476Y-136912403D01*
X110209118Y-136837937D01*
X110232262Y-136738845D01*
X110240881Y-136608680D01*
X110232269Y-136480148D01*
X110209120Y-136382160D01*
X110174420Y-136308379D01*
X110129536Y-136253774D01*
X110074051Y-136215002D01*
X110005810Y-136190796D01*
X109921228Y-136182140D01*
X109837641Y-136190752D01*
X109770135Y-136214855D01*
X109715173Y-136253508D01*
X109670648Y-136308029D01*
X109636180Y-136381803D01*
X109613165Y-136479897D01*
X109604597Y-136608680D01*
X109411981Y-136608680D01*
X109421699Y-136473982D01*
X109449045Y-136360445D01*
X109492242Y-136264476D01*
X109550834Y-136183239D01*
X109625299Y-136115805D01*
X109710912Y-136067643D01*
X109809875Y-136037874D01*
X109925349Y-136027443D01*
X110034020Y-136037777D01*
G37*
G36*
X111461790Y-137170500D02*
G01*
X111461790Y-136447846D01*
X111453754Y-136360143D01*
X111432142Y-136294869D01*
X111399088Y-136246713D01*
X111354364Y-136212199D01*
X111295435Y-136190198D01*
X111217883Y-136182140D01*
X111134018Y-136190532D01*
X111066579Y-136213944D01*
X111011988Y-136251290D01*
X110968041Y-136303628D01*
X110934210Y-136374009D01*
X110911713Y-136467116D01*
X110903359Y-136588896D01*
X110903359Y-137170500D01*
X110716879Y-137170500D01*
X110716879Y-136045028D01*
X110867547Y-136045028D01*
X110895207Y-136199543D01*
X110905465Y-136199543D01*
X110952242Y-136138377D01*
X111008399Y-136091230D01*
X111075154Y-136056826D01*
X111154626Y-136035147D01*
X111249665Y-136027443D01*
X111361829Y-136036951D01*
X111449950Y-136063033D01*
X111519072Y-136103486D01*
X111572778Y-136158227D01*
X111612797Y-136229294D01*
X111638765Y-136320575D01*
X111648269Y-136437405D01*
X111648269Y-137170500D01*
X111461790Y-137170500D01*
G37*
G36*
X112460407Y-135581944D02*
G01*
X112509100Y-135589664D01*
X112541235Y-135610434D01*
X112561364Y-135644856D01*
X112569034Y-135698631D01*
X112560270Y-135752334D01*
X112536702Y-135787291D01*
X112501576Y-135809110D01*
X112460407Y-135816417D01*
X112411263Y-135808625D01*
X112378830Y-135787660D01*
X112358515Y-135752914D01*
X112350772Y-135698631D01*
X112358482Y-135644950D01*
X112378745Y-135610522D01*
X112411172Y-135589697D01*
X112460407Y-135581944D01*
G37*
G36*
X112366068Y-136191574D02*
G01*
X112090471Y-136170233D01*
X112090471Y-136045028D01*
X112552639Y-136045028D01*
X112552639Y-137023954D01*
X112913325Y-137044470D01*
X112913325Y-137170500D01*
X112013626Y-137170500D01*
X112013626Y-137044470D01*
X112366068Y-137023954D01*
X112366068Y-136191574D01*
G37*
G36*
X114157773Y-136087893D02*
G01*
X114094208Y-136249826D01*
X113990147Y-136215363D01*
X113899262Y-136196314D01*
X113819618Y-136190383D01*
X113714632Y-136199824D01*
X113631481Y-136225870D01*
X113565541Y-136266656D01*
X113513662Y-136322524D01*
X113474548Y-136395962D01*
X113448938Y-136491295D01*
X113439515Y-136614267D01*
X113448729Y-136735439D01*
X113473754Y-136829283D01*
X113511932Y-136901479D01*
X113562494Y-136956313D01*
X113626657Y-136996281D01*
X113707453Y-137021773D01*
X113809360Y-137031006D01*
X113915542Y-137024181D01*
X114024883Y-137003300D01*
X114138264Y-136967442D01*
X114138264Y-137131390D01*
X114044665Y-137164837D01*
X113933360Y-137186282D01*
X113801117Y-137193947D01*
X113670303Y-137183556D01*
X113560995Y-137154347D01*
X113469291Y-137108077D01*
X113392255Y-137044837D01*
X113331222Y-136966413D01*
X113286005Y-136871374D01*
X113257151Y-136756309D01*
X113246808Y-136616831D01*
X113253700Y-136499118D01*
X113273107Y-136398757D01*
X113303587Y-136313178D01*
X113344364Y-136240199D01*
X113395369Y-136178110D01*
X113473900Y-136114306D01*
X113567574Y-136067538D01*
X113679431Y-136037971D01*
X113813482Y-136027443D01*
X113933931Y-136034292D01*
X114048392Y-136054512D01*
X114157773Y-136087893D01*
G37*
G36*
X115061568Y-135678599D02*
G01*
X115171331Y-135702481D01*
X115258181Y-135738910D01*
X115326333Y-135786554D01*
X115378825Y-135845478D01*
X115417265Y-135917139D01*
X115441658Y-136004230D01*
X115450397Y-136110424D01*
X115440716Y-136221410D01*
X115413304Y-136315040D01*
X115369373Y-136394594D01*
X115308431Y-136462409D01*
X115234686Y-136514889D01*
X115143903Y-136554339D01*
X115032513Y-136579797D01*
X114896088Y-136588988D01*
X114700358Y-136588988D01*
X114700358Y-137170500D01*
X114509757Y-137170500D01*
X114509757Y-136426047D01*
X114700358Y-136426047D01*
X114874564Y-136426047D01*
X114979344Y-136420212D01*
X115059565Y-136404576D01*
X115120092Y-136381374D01*
X115165000Y-136351950D01*
X115201668Y-136312036D01*
X115228843Y-136261776D01*
X115246318Y-136198852D01*
X115252652Y-136120133D01*
X115242671Y-136030857D01*
X115215154Y-135962152D01*
X115171298Y-135909109D01*
X115108972Y-135869201D01*
X115023100Y-135842735D01*
X114906346Y-135832812D01*
X114700358Y-135832812D01*
X114700358Y-136426047D01*
X114509757Y-136426047D01*
X114509757Y-135669871D01*
X114923749Y-135669871D01*
X115061568Y-135678599D01*
G37*
G36*
X116311305Y-135653125D02*
G01*
X116392147Y-135672151D01*
X116462033Y-135702472D01*
X116522654Y-135743877D01*
X116573565Y-135796610D01*
X116609626Y-135856979D01*
X116631783Y-135926507D01*
X116639524Y-136007476D01*
X116629342Y-136095417D01*
X116599403Y-136174362D01*
X116548821Y-136246688D01*
X116474427Y-136313735D01*
X116371071Y-136375672D01*
X116478260Y-136439854D01*
X116558800Y-136504882D01*
X116617143Y-136570733D01*
X116656760Y-136637900D01*
X116679953Y-136707396D01*
X116687701Y-136780688D01*
X116679180Y-136871709D01*
X116654716Y-136950576D01*
X116614838Y-137019679D01*
X116558558Y-137080649D01*
X116491262Y-137128832D01*
X116413375Y-137164056D01*
X116322921Y-137186156D01*
X116217381Y-137193947D01*
X116106194Y-137186359D01*
X116013560Y-137165146D01*
X115936336Y-137131932D01*
X115871991Y-137087335D01*
X115818677Y-137029906D01*
X115780361Y-136962499D01*
X115756494Y-136883123D01*
X115748068Y-136788931D01*
X115930518Y-136788931D01*
X115938870Y-136866277D01*
X115961791Y-136925440D01*
X115998044Y-136970745D01*
X116049116Y-137004545D01*
X116118942Y-137026812D01*
X116213351Y-137035128D01*
X116303923Y-137026748D01*
X116374308Y-137003783D01*
X116428956Y-136967992D01*
X116470644Y-136918550D01*
X116496240Y-136857333D01*
X116505343Y-136780780D01*
X116498196Y-136721679D01*
X116476986Y-136667667D01*
X116440772Y-136617198D01*
X116394000Y-136574050D01*
X116323170Y-136525229D01*
X116221503Y-136470011D01*
X116190728Y-136455631D01*
X116088969Y-136514258D01*
X116016697Y-136576332D01*
X115968284Y-136641888D01*
X115940030Y-136712049D01*
X115930518Y-136788931D01*
X115748068Y-136788931D01*
X115755884Y-136705151D01*
X115778689Y-136629651D01*
X115816450Y-136560678D01*
X115870369Y-136497004D01*
X115942788Y-136438032D01*
X116037038Y-136383824D01*
X115945165Y-136316254D01*
X115878286Y-136245460D01*
X115832505Y-136170978D01*
X115805405Y-136091579D01*
X115797403Y-136016269D01*
X115978603Y-136016269D01*
X115984518Y-136075670D01*
X116001515Y-136126952D01*
X116029345Y-136171790D01*
X116067252Y-136209652D01*
X116128158Y-136252108D01*
X116219488Y-136299743D01*
X116313512Y-136249346D01*
X116379582Y-136196196D01*
X116423363Y-136140408D01*
X116448684Y-136081062D01*
X116457166Y-136016269D01*
X116449366Y-135950614D01*
X116427656Y-135899428D01*
X116392595Y-135859282D01*
X116346649Y-135830370D01*
X116288657Y-135811927D01*
X116215366Y-135805243D01*
X116144824Y-135811854D01*
X116088220Y-135830229D01*
X116042625Y-135859282D01*
X116007890Y-135899385D01*
X115986349Y-135950568D01*
X115978603Y-136016269D01*
X115797403Y-136016269D01*
X115796245Y-136005370D01*
X115804107Y-135925094D01*
X115826648Y-135856052D01*
X115863441Y-135795960D01*
X115915588Y-135743327D01*
X115977542Y-135701850D01*
X116047479Y-135671715D01*
X116126826Y-135652972D01*
X116217381Y-135646424D01*
X116311305Y-135653125D01*
G37*
G36*
X117566876Y-135654805D02*
G01*
X117647119Y-135678827D01*
X117717307Y-135717859D01*
X117779107Y-135772688D01*
X117833322Y-135845452D01*
X117882333Y-135945187D01*
X117920454Y-136070514D01*
X117945596Y-136226671D01*
X117954772Y-136419636D01*
X117946093Y-136613762D01*
X117922403Y-136769394D01*
X117886699Y-136892798D01*
X117841186Y-136989505D01*
X117787132Y-137064177D01*
X117724757Y-137120409D01*
X117653194Y-137160501D01*
X117570572Y-137185267D01*
X117474194Y-137193947D01*
X117382887Y-137185610D01*
X117303638Y-137161681D01*
X117234119Y-137122731D01*
X117172706Y-137067906D01*
X117118637Y-136995011D01*
X117069887Y-136895281D01*
X117031933Y-136769791D01*
X117006884Y-136613252D01*
X116997737Y-136419636D01*
X116997757Y-136419178D01*
X117187239Y-136419178D01*
X117192905Y-136591671D01*
X117207959Y-136722834D01*
X117229812Y-136820328D01*
X117256390Y-136890964D01*
X117297550Y-136955978D01*
X117346535Y-136999822D01*
X117404459Y-137026012D01*
X117474194Y-137035128D01*
X117544929Y-137025961D01*
X117603755Y-136999630D01*
X117653554Y-136955597D01*
X117695478Y-136890414D01*
X117722707Y-136819475D01*
X117745045Y-136721905D01*
X117760409Y-136590991D01*
X117766186Y-136419178D01*
X117760420Y-136248511D01*
X117745075Y-136118229D01*
X117722739Y-136020910D01*
X117695478Y-135949957D01*
X117653554Y-135884774D01*
X117603755Y-135840741D01*
X117544929Y-135814410D01*
X117474194Y-135805243D01*
X117404428Y-135814339D01*
X117346495Y-135840463D01*
X117297524Y-135884173D01*
X117256390Y-135948949D01*
X117229812Y-136019327D01*
X117207959Y-136116484D01*
X117192905Y-136247217D01*
X117187239Y-136419178D01*
X116997757Y-136419178D01*
X117006368Y-136225507D01*
X117029922Y-136069943D01*
X117065405Y-135946664D01*
X117110612Y-135850124D01*
X117164262Y-135775646D01*
X117226119Y-135719612D01*
X117297025Y-135679696D01*
X117378826Y-135655057D01*
X117474194Y-135646424D01*
X117566876Y-135654805D01*
G37*
G36*
X118282118Y-137112980D02*
G01*
X118282118Y-136936759D01*
X118357471Y-136978434D01*
X118442932Y-137009127D01*
X118540142Y-137028379D01*
X118651047Y-137035128D01*
X118749922Y-137027288D01*
X118826915Y-137005917D01*
X118886585Y-136973110D01*
X118932301Y-136929305D01*
X118965909Y-136873228D01*
X118987490Y-136802071D01*
X118995338Y-136711811D01*
X118984997Y-136616973D01*
X118956584Y-136544307D01*
X118911547Y-136488536D01*
X118847948Y-136446829D01*
X118760807Y-136419303D01*
X118642804Y-136409011D01*
X118545328Y-136414655D01*
X118406133Y-136434657D01*
X118313901Y-136376130D01*
X118370229Y-135669871D01*
X119077312Y-135669871D01*
X119077312Y-135839956D01*
X118532162Y-135839956D01*
X118492228Y-136270709D01*
X118601431Y-136255240D01*
X118706368Y-136250192D01*
X118813190Y-136258243D01*
X118905208Y-136281142D01*
X118984910Y-136317769D01*
X119054231Y-136368070D01*
X119111464Y-136431243D01*
X119152507Y-136504581D01*
X119177986Y-136590098D01*
X119186947Y-136690654D01*
X119177122Y-136810020D01*
X119149499Y-136909537D01*
X119105663Y-136992888D01*
X119045530Y-137062788D01*
X118971578Y-137117838D01*
X118882634Y-137158641D01*
X118775689Y-137184646D01*
X118646926Y-137193947D01*
X118530022Y-137188063D01*
X118432054Y-137171667D01*
X118350233Y-137146298D01*
X118282118Y-137112980D01*
G37*
G36*
X120141417Y-137170500D02*
G01*
X119961074Y-137170500D01*
X119961074Y-136233614D01*
X119969317Y-135863129D01*
X119845303Y-135979266D01*
X119694636Y-136103647D01*
X119595260Y-135977251D01*
X119987727Y-135669871D01*
X120141417Y-135669871D01*
X120141417Y-137170500D01*
G37*
D11*
X121675918Y-136816028D02*
X120875918Y-136816028D01*
X120875918Y-136816028D02*
X120875918Y-136511266D01*
X120875918Y-136511266D02*
X120914013Y-136435076D01*
X120914013Y-136435076D02*
X120952108Y-136396981D01*
X120952108Y-136396981D02*
X121028299Y-136358885D01*
X121028299Y-136358885D02*
X121142584Y-136358885D01*
X121142584Y-136358885D02*
X121218775Y-136396981D01*
X121218775Y-136396981D02*
X121256870Y-136435076D01*
X121256870Y-136435076D02*
X121294965Y-136511266D01*
X121294965Y-136511266D02*
X121294965Y-136816028D01*
X121218775Y-135901743D02*
X121180680Y-135977933D01*
X121180680Y-135977933D02*
X121142584Y-136016028D01*
X121142584Y-136016028D02*
X121066394Y-136054124D01*
X121066394Y-136054124D02*
X121028299Y-136054124D01*
X121028299Y-136054124D02*
X120952108Y-136016028D01*
X120952108Y-136016028D02*
X120914013Y-135977933D01*
X120914013Y-135977933D02*
X120875918Y-135901743D01*
X120875918Y-135901743D02*
X120875918Y-135749362D01*
X120875918Y-135749362D02*
X120914013Y-135673171D01*
X120914013Y-135673171D02*
X120952108Y-135635076D01*
X120952108Y-135635076D02*
X121028299Y-135596981D01*
X121028299Y-135596981D02*
X121066394Y-135596981D01*
X121066394Y-135596981D02*
X121142584Y-135635076D01*
X121142584Y-135635076D02*
X121180680Y-135673171D01*
X121180680Y-135673171D02*
X121218775Y-135749362D01*
X121218775Y-135749362D02*
X121218775Y-135901743D01*
X121218775Y-135901743D02*
X121256870Y-135977933D01*
X121256870Y-135977933D02*
X121294965Y-136016028D01*
X121294965Y-136016028D02*
X121371156Y-136054124D01*
X121371156Y-136054124D02*
X121523537Y-136054124D01*
X121523537Y-136054124D02*
X121599727Y-136016028D01*
X121599727Y-136016028D02*
X121637823Y-135977933D01*
X121637823Y-135977933D02*
X121675918Y-135901743D01*
X121675918Y-135901743D02*
X121675918Y-135749362D01*
X121675918Y-135749362D02*
X121637823Y-135673171D01*
X121637823Y-135673171D02*
X121599727Y-135635076D01*
X121599727Y-135635076D02*
X121523537Y-135596981D01*
X121523537Y-135596981D02*
X121371156Y-135596981D01*
X121371156Y-135596981D02*
X121294965Y-135635076D01*
X121294965Y-135635076D02*
X121256870Y-135673171D01*
X121256870Y-135673171D02*
X121218775Y-135749362D01*
X120875918Y-135101742D02*
X120875918Y-135025552D01*
X120875918Y-135025552D02*
X120914013Y-134949361D01*
X120914013Y-134949361D02*
X120952108Y-134911266D01*
X120952108Y-134911266D02*
X121028299Y-134873171D01*
X121028299Y-134873171D02*
X121180680Y-134835076D01*
X121180680Y-134835076D02*
X121371156Y-134835076D01*
X121371156Y-134835076D02*
X121523537Y-134873171D01*
X121523537Y-134873171D02*
X121599727Y-134911266D01*
X121599727Y-134911266D02*
X121637823Y-134949361D01*
X121637823Y-134949361D02*
X121675918Y-135025552D01*
X121675918Y-135025552D02*
X121675918Y-135101742D01*
X121675918Y-135101742D02*
X121637823Y-135177933D01*
X121637823Y-135177933D02*
X121599727Y-135216028D01*
X121599727Y-135216028D02*
X121523537Y-135254123D01*
X121523537Y-135254123D02*
X121371156Y-135292219D01*
X121371156Y-135292219D02*
X121180680Y-135292219D01*
X121180680Y-135292219D02*
X121028299Y-135254123D01*
X121028299Y-135254123D02*
X120952108Y-135216028D01*
X120952108Y-135216028D02*
X120914013Y-135177933D01*
X120914013Y-135177933D02*
X120875918Y-135101742D01*
X120875918Y-134111266D02*
X120875918Y-134492218D01*
X120875918Y-134492218D02*
X121256870Y-134530314D01*
X121256870Y-134530314D02*
X121218775Y-134492218D01*
X121218775Y-134492218D02*
X121180680Y-134416028D01*
X121180680Y-134416028D02*
X121180680Y-134225552D01*
X121180680Y-134225552D02*
X121218775Y-134149361D01*
X121218775Y-134149361D02*
X121256870Y-134111266D01*
X121256870Y-134111266D02*
X121333061Y-134073171D01*
X121333061Y-134073171D02*
X121523537Y-134073171D01*
X121523537Y-134073171D02*
X121599727Y-134111266D01*
X121599727Y-134111266D02*
X121637823Y-134149361D01*
X121637823Y-134149361D02*
X121675918Y-134225552D01*
X121675918Y-134225552D02*
X121675918Y-134416028D01*
X121675918Y-134416028D02*
X121637823Y-134492218D01*
X121637823Y-134492218D02*
X121599727Y-134530314D01*
X121675918Y-133311266D02*
X121675918Y-133768409D01*
X121675918Y-133539837D02*
X120875918Y-133539837D01*
X120875918Y-133539837D02*
X120990203Y-133616028D01*
X120990203Y-133616028D02*
X121066394Y-133692218D01*
X121066394Y-133692218D02*
X121104489Y-133768409D01*
X121371156Y-132968408D02*
X121371156Y-132358885D01*
X121637823Y-132016028D02*
X121675918Y-131939837D01*
X121675918Y-131939837D02*
X121675918Y-131787456D01*
X121675918Y-131787456D02*
X121637823Y-131711266D01*
X121637823Y-131711266D02*
X121561632Y-131673170D01*
X121561632Y-131673170D02*
X121523537Y-131673170D01*
X121523537Y-131673170D02*
X121447346Y-131711266D01*
X121447346Y-131711266D02*
X121409251Y-131787456D01*
X121409251Y-131787456D02*
X121409251Y-131901742D01*
X121409251Y-131901742D02*
X121371156Y-131977932D01*
X121371156Y-131977932D02*
X121294965Y-132016028D01*
X121294965Y-132016028D02*
X121256870Y-132016028D01*
X121256870Y-132016028D02*
X121180680Y-131977932D01*
X121180680Y-131977932D02*
X121142584Y-131901742D01*
X121142584Y-131901742D02*
X121142584Y-131787456D01*
X121142584Y-131787456D02*
X121180680Y-131711266D01*
X121675918Y-131330313D02*
X120875918Y-131330313D01*
X121675918Y-130987456D02*
X121256870Y-130987456D01*
X121256870Y-130987456D02*
X121180680Y-131025551D01*
X121180680Y-131025551D02*
X121142584Y-131101742D01*
X121142584Y-131101742D02*
X121142584Y-131216028D01*
X121142584Y-131216028D02*
X121180680Y-131292218D01*
X121180680Y-131292218D02*
X121218775Y-131330313D01*
X121675918Y-130492218D02*
X121637823Y-130568408D01*
X121637823Y-130568408D02*
X121599727Y-130606503D01*
X121599727Y-130606503D02*
X121523537Y-130644599D01*
X121523537Y-130644599D02*
X121294965Y-130644599D01*
X121294965Y-130644599D02*
X121218775Y-130606503D01*
X121218775Y-130606503D02*
X121180680Y-130568408D01*
X121180680Y-130568408D02*
X121142584Y-130492218D01*
X121142584Y-130492218D02*
X121142584Y-130377932D01*
X121142584Y-130377932D02*
X121180680Y-130301741D01*
X121180680Y-130301741D02*
X121218775Y-130263646D01*
X121218775Y-130263646D02*
X121294965Y-130225551D01*
X121294965Y-130225551D02*
X121523537Y-130225551D01*
X121523537Y-130225551D02*
X121599727Y-130263646D01*
X121599727Y-130263646D02*
X121637823Y-130301741D01*
X121637823Y-130301741D02*
X121675918Y-130377932D01*
X121675918Y-130377932D02*
X121675918Y-130492218D01*
X121675918Y-129882693D02*
X121142584Y-129882693D01*
X121294965Y-129882693D02*
X121218775Y-129844598D01*
X121218775Y-129844598D02*
X121180680Y-129806503D01*
X121180680Y-129806503D02*
X121142584Y-129730312D01*
X121142584Y-129730312D02*
X121142584Y-129654122D01*
X121142584Y-129501741D02*
X121142584Y-129196979D01*
X120875918Y-129387455D02*
X121561632Y-129387455D01*
X121561632Y-129387455D02*
X121637823Y-129349360D01*
X121637823Y-129349360D02*
X121675918Y-129273170D01*
X121675918Y-129273170D02*
X121675918Y-129196979D01*
X122963873Y-137425552D02*
X122163873Y-137425552D01*
X122163873Y-137425552D02*
X122163873Y-137120790D01*
X122163873Y-137120790D02*
X122201968Y-137044600D01*
X122201968Y-137044600D02*
X122240063Y-137006505D01*
X122240063Y-137006505D02*
X122316254Y-136968409D01*
X122316254Y-136968409D02*
X122430539Y-136968409D01*
X122430539Y-136968409D02*
X122506730Y-137006505D01*
X122506730Y-137006505D02*
X122544825Y-137044600D01*
X122544825Y-137044600D02*
X122582920Y-137120790D01*
X122582920Y-137120790D02*
X122582920Y-137425552D01*
X122506730Y-136511267D02*
X122468635Y-136587457D01*
X122468635Y-136587457D02*
X122430539Y-136625552D01*
X122430539Y-136625552D02*
X122354349Y-136663648D01*
X122354349Y-136663648D02*
X122316254Y-136663648D01*
X122316254Y-136663648D02*
X122240063Y-136625552D01*
X122240063Y-136625552D02*
X122201968Y-136587457D01*
X122201968Y-136587457D02*
X122163873Y-136511267D01*
X122163873Y-136511267D02*
X122163873Y-136358886D01*
X122163873Y-136358886D02*
X122201968Y-136282695D01*
X122201968Y-136282695D02*
X122240063Y-136244600D01*
X122240063Y-136244600D02*
X122316254Y-136206505D01*
X122316254Y-136206505D02*
X122354349Y-136206505D01*
X122354349Y-136206505D02*
X122430539Y-136244600D01*
X122430539Y-136244600D02*
X122468635Y-136282695D01*
X122468635Y-136282695D02*
X122506730Y-136358886D01*
X122506730Y-136358886D02*
X122506730Y-136511267D01*
X122506730Y-136511267D02*
X122544825Y-136587457D01*
X122544825Y-136587457D02*
X122582920Y-136625552D01*
X122582920Y-136625552D02*
X122659111Y-136663648D01*
X122659111Y-136663648D02*
X122811492Y-136663648D01*
X122811492Y-136663648D02*
X122887682Y-136625552D01*
X122887682Y-136625552D02*
X122925778Y-136587457D01*
X122925778Y-136587457D02*
X122963873Y-136511267D01*
X122963873Y-136511267D02*
X122963873Y-136358886D01*
X122963873Y-136358886D02*
X122925778Y-136282695D01*
X122925778Y-136282695D02*
X122887682Y-136244600D01*
X122887682Y-136244600D02*
X122811492Y-136206505D01*
X122811492Y-136206505D02*
X122659111Y-136206505D01*
X122659111Y-136206505D02*
X122582920Y-136244600D01*
X122582920Y-136244600D02*
X122544825Y-136282695D01*
X122544825Y-136282695D02*
X122506730Y-136358886D01*
X122163873Y-135711266D02*
X122163873Y-135635076D01*
X122163873Y-135635076D02*
X122201968Y-135558885D01*
X122201968Y-135558885D02*
X122240063Y-135520790D01*
X122240063Y-135520790D02*
X122316254Y-135482695D01*
X122316254Y-135482695D02*
X122468635Y-135444600D01*
X122468635Y-135444600D02*
X122659111Y-135444600D01*
X122659111Y-135444600D02*
X122811492Y-135482695D01*
X122811492Y-135482695D02*
X122887682Y-135520790D01*
X122887682Y-135520790D02*
X122925778Y-135558885D01*
X122925778Y-135558885D02*
X122963873Y-135635076D01*
X122963873Y-135635076D02*
X122963873Y-135711266D01*
X122963873Y-135711266D02*
X122925778Y-135787457D01*
X122925778Y-135787457D02*
X122887682Y-135825552D01*
X122887682Y-135825552D02*
X122811492Y-135863647D01*
X122811492Y-135863647D02*
X122659111Y-135901743D01*
X122659111Y-135901743D02*
X122468635Y-135901743D01*
X122468635Y-135901743D02*
X122316254Y-135863647D01*
X122316254Y-135863647D02*
X122240063Y-135825552D01*
X122240063Y-135825552D02*
X122201968Y-135787457D01*
X122201968Y-135787457D02*
X122163873Y-135711266D01*
X122887682Y-134644599D02*
X122925778Y-134682695D01*
X122925778Y-134682695D02*
X122963873Y-134796980D01*
X122963873Y-134796980D02*
X122963873Y-134873171D01*
X122963873Y-134873171D02*
X122925778Y-134987457D01*
X122925778Y-134987457D02*
X122849587Y-135063647D01*
X122849587Y-135063647D02*
X122773397Y-135101742D01*
X122773397Y-135101742D02*
X122621016Y-135139838D01*
X122621016Y-135139838D02*
X122506730Y-135139838D01*
X122506730Y-135139838D02*
X122354349Y-135101742D01*
X122354349Y-135101742D02*
X122278158Y-135063647D01*
X122278158Y-135063647D02*
X122201968Y-134987457D01*
X122201968Y-134987457D02*
X122163873Y-134873171D01*
X122163873Y-134873171D02*
X122163873Y-134796980D01*
X122163873Y-134796980D02*
X122201968Y-134682695D01*
X122201968Y-134682695D02*
X122240063Y-134644599D01*
X122163873Y-133920790D02*
X122163873Y-134301742D01*
X122163873Y-134301742D02*
X122544825Y-134339838D01*
X122544825Y-134339838D02*
X122506730Y-134301742D01*
X122506730Y-134301742D02*
X122468635Y-134225552D01*
X122468635Y-134225552D02*
X122468635Y-134035076D01*
X122468635Y-134035076D02*
X122506730Y-133958885D01*
X122506730Y-133958885D02*
X122544825Y-133920790D01*
X122544825Y-133920790D02*
X122621016Y-133882695D01*
X122621016Y-133882695D02*
X122811492Y-133882695D01*
X122811492Y-133882695D02*
X122887682Y-133920790D01*
X122887682Y-133920790D02*
X122925778Y-133958885D01*
X122925778Y-133958885D02*
X122963873Y-134035076D01*
X122963873Y-134035076D02*
X122963873Y-134225552D01*
X122963873Y-134225552D02*
X122925778Y-134301742D01*
X122925778Y-134301742D02*
X122887682Y-134339838D01*
X122963873Y-133120790D02*
X122963873Y-133577933D01*
X122963873Y-133349361D02*
X122163873Y-133349361D01*
X122163873Y-133349361D02*
X122278158Y-133425552D01*
X122278158Y-133425552D02*
X122354349Y-133501742D01*
X122354349Y-133501742D02*
X122392444Y-133577933D01*
X122659111Y-132777932D02*
X122659111Y-132168409D01*
X122963873Y-131673171D02*
X122925778Y-131749361D01*
X122925778Y-131749361D02*
X122887682Y-131787456D01*
X122887682Y-131787456D02*
X122811492Y-131825552D01*
X122811492Y-131825552D02*
X122582920Y-131825552D01*
X122582920Y-131825552D02*
X122506730Y-131787456D01*
X122506730Y-131787456D02*
X122468635Y-131749361D01*
X122468635Y-131749361D02*
X122430539Y-131673171D01*
X122430539Y-131673171D02*
X122430539Y-131558885D01*
X122430539Y-131558885D02*
X122468635Y-131482694D01*
X122468635Y-131482694D02*
X122506730Y-131444599D01*
X122506730Y-131444599D02*
X122582920Y-131406504D01*
X122582920Y-131406504D02*
X122811492Y-131406504D01*
X122811492Y-131406504D02*
X122887682Y-131444599D01*
X122887682Y-131444599D02*
X122925778Y-131482694D01*
X122925778Y-131482694D02*
X122963873Y-131558885D01*
X122963873Y-131558885D02*
X122963873Y-131673171D01*
X122430539Y-131063646D02*
X123230539Y-131063646D01*
X122468635Y-131063646D02*
X122430539Y-130987456D01*
X122430539Y-130987456D02*
X122430539Y-130835075D01*
X122430539Y-130835075D02*
X122468635Y-130758884D01*
X122468635Y-130758884D02*
X122506730Y-130720789D01*
X122506730Y-130720789D02*
X122582920Y-130682694D01*
X122582920Y-130682694D02*
X122811492Y-130682694D01*
X122811492Y-130682694D02*
X122887682Y-130720789D01*
X122887682Y-130720789D02*
X122925778Y-130758884D01*
X122925778Y-130758884D02*
X122963873Y-130835075D01*
X122963873Y-130835075D02*
X122963873Y-130987456D01*
X122963873Y-130987456D02*
X122925778Y-131063646D01*
X122925778Y-130035074D02*
X122963873Y-130111265D01*
X122963873Y-130111265D02*
X122963873Y-130263646D01*
X122963873Y-130263646D02*
X122925778Y-130339836D01*
X122925778Y-130339836D02*
X122849587Y-130377932D01*
X122849587Y-130377932D02*
X122544825Y-130377932D01*
X122544825Y-130377932D02*
X122468635Y-130339836D01*
X122468635Y-130339836D02*
X122430539Y-130263646D01*
X122430539Y-130263646D02*
X122430539Y-130111265D01*
X122430539Y-130111265D02*
X122468635Y-130035074D01*
X122468635Y-130035074D02*
X122544825Y-129996979D01*
X122544825Y-129996979D02*
X122621016Y-129996979D01*
X122621016Y-129996979D02*
X122697206Y-130377932D01*
X122430539Y-129654122D02*
X122963873Y-129654122D01*
X122506730Y-129654122D02*
X122468635Y-129616027D01*
X122468635Y-129616027D02*
X122430539Y-129539837D01*
X122430539Y-129539837D02*
X122430539Y-129425551D01*
X122430539Y-129425551D02*
X122468635Y-129349360D01*
X122468635Y-129349360D02*
X122544825Y-129311265D01*
X122544825Y-129311265D02*
X122963873Y-129311265D01*
D10*
X124219580Y-77128166D02*
X124267200Y-77175785D01*
X124267200Y-77175785D02*
X124314819Y-77318642D01*
X124314819Y-77318642D02*
X124314819Y-77413880D01*
X124314819Y-77413880D02*
X124267200Y-77556737D01*
X124267200Y-77556737D02*
X124171961Y-77651975D01*
X124171961Y-77651975D02*
X124076723Y-77699594D01*
X124076723Y-77699594D02*
X123886247Y-77747213D01*
X123886247Y-77747213D02*
X123743390Y-77747213D01*
X123743390Y-77747213D02*
X123552914Y-77699594D01*
X123552914Y-77699594D02*
X123457676Y-77651975D01*
X123457676Y-77651975D02*
X123362438Y-77556737D01*
X123362438Y-77556737D02*
X123314819Y-77413880D01*
X123314819Y-77413880D02*
X123314819Y-77318642D01*
X123314819Y-77318642D02*
X123362438Y-77175785D01*
X123362438Y-77175785D02*
X123410057Y-77128166D01*
X123410057Y-76747213D02*
X123362438Y-76699594D01*
X123362438Y-76699594D02*
X123314819Y-76604356D01*
X123314819Y-76604356D02*
X123314819Y-76366261D01*
X123314819Y-76366261D02*
X123362438Y-76271023D01*
X123362438Y-76271023D02*
X123410057Y-76223404D01*
X123410057Y-76223404D02*
X123505295Y-76175785D01*
X123505295Y-76175785D02*
X123600533Y-76175785D01*
X123600533Y-76175785D02*
X123743390Y-76223404D01*
X123743390Y-76223404D02*
X124314819Y-76794832D01*
X124314819Y-76794832D02*
X124314819Y-76175785D01*
X107183333Y-72232819D02*
X106850000Y-71756628D01*
X106611905Y-72232819D02*
X106611905Y-71232819D01*
X106611905Y-71232819D02*
X106992857Y-71232819D01*
X106992857Y-71232819D02*
X107088095Y-71280438D01*
X107088095Y-71280438D02*
X107135714Y-71328057D01*
X107135714Y-71328057D02*
X107183333Y-71423295D01*
X107183333Y-71423295D02*
X107183333Y-71566152D01*
X107183333Y-71566152D02*
X107135714Y-71661390D01*
X107135714Y-71661390D02*
X107088095Y-71709009D01*
X107088095Y-71709009D02*
X106992857Y-71756628D01*
X106992857Y-71756628D02*
X106611905Y-71756628D01*
X108135714Y-72232819D02*
X107564286Y-72232819D01*
X107850000Y-72232819D02*
X107850000Y-71232819D01*
X107850000Y-71232819D02*
X107754762Y-71375676D01*
X107754762Y-71375676D02*
X107659524Y-71470914D01*
X107659524Y-71470914D02*
X107564286Y-71518533D01*
X115882905Y-72232819D02*
X115882905Y-71232819D01*
X115882905Y-71232819D02*
X116121000Y-71232819D01*
X116121000Y-71232819D02*
X116263857Y-71280438D01*
X116263857Y-71280438D02*
X116359095Y-71375676D01*
X116359095Y-71375676D02*
X116406714Y-71470914D01*
X116406714Y-71470914D02*
X116454333Y-71661390D01*
X116454333Y-71661390D02*
X116454333Y-71804247D01*
X116454333Y-71804247D02*
X116406714Y-71994723D01*
X116406714Y-71994723D02*
X116359095Y-72089961D01*
X116359095Y-72089961D02*
X116263857Y-72185200D01*
X116263857Y-72185200D02*
X116121000Y-72232819D01*
X116121000Y-72232819D02*
X115882905Y-72232819D01*
X117406714Y-72232819D02*
X116835286Y-72232819D01*
X117121000Y-72232819D02*
X117121000Y-71232819D01*
X117121000Y-71232819D02*
X117025762Y-71375676D01*
X117025762Y-71375676D02*
X116930524Y-71470914D01*
X116930524Y-71470914D02*
X116835286Y-71518533D01*
X112938095Y-125842819D02*
X112938095Y-126652342D01*
X112938095Y-126652342D02*
X112985714Y-126747580D01*
X112985714Y-126747580D02*
X113033333Y-126795200D01*
X113033333Y-126795200D02*
X113128571Y-126842819D01*
X113128571Y-126842819D02*
X113319047Y-126842819D01*
X113319047Y-126842819D02*
X113414285Y-126795200D01*
X113414285Y-126795200D02*
X113461904Y-126747580D01*
X113461904Y-126747580D02*
X113509523Y-126652342D01*
X113509523Y-126652342D02*
X113509523Y-125842819D01*
X113938095Y-125938057D02*
X113985714Y-125890438D01*
X113985714Y-125890438D02*
X114080952Y-125842819D01*
X114080952Y-125842819D02*
X114319047Y-125842819D01*
X114319047Y-125842819D02*
X114414285Y-125890438D01*
X114414285Y-125890438D02*
X114461904Y-125938057D01*
X114461904Y-125938057D02*
X114509523Y-126033295D01*
X114509523Y-126033295D02*
X114509523Y-126128533D01*
X114509523Y-126128533D02*
X114461904Y-126271390D01*
X114461904Y-126271390D02*
X113890476Y-126842819D01*
X113890476Y-126842819D02*
X114509523Y-126842819D01*
X112938095Y-76947819D02*
X112938095Y-77757342D01*
X112938095Y-77757342D02*
X112985714Y-77852580D01*
X112985714Y-77852580D02*
X113033333Y-77900200D01*
X113033333Y-77900200D02*
X113128571Y-77947819D01*
X113128571Y-77947819D02*
X113319047Y-77947819D01*
X113319047Y-77947819D02*
X113414285Y-77900200D01*
X113414285Y-77900200D02*
X113461904Y-77852580D01*
X113461904Y-77852580D02*
X113509523Y-77757342D01*
X113509523Y-77757342D02*
X113509523Y-76947819D01*
X114509523Y-77947819D02*
X113938095Y-77947819D01*
X114223809Y-77947819D02*
X114223809Y-76947819D01*
X114223809Y-76947819D02*
X114128571Y-77090676D01*
X114128571Y-77090676D02*
X114033333Y-77185914D01*
X114033333Y-77185914D02*
X113938095Y-77233533D01*
X123822819Y-128491333D02*
X124537104Y-128491333D01*
X124537104Y-128491333D02*
X124679961Y-128538952D01*
X124679961Y-128538952D02*
X124775200Y-128634190D01*
X124775200Y-128634190D02*
X124822819Y-128777047D01*
X124822819Y-128777047D02*
X124822819Y-128872285D01*
X124822819Y-128015142D02*
X123822819Y-128015142D01*
X123822819Y-128015142D02*
X123822819Y-127634190D01*
X123822819Y-127634190D02*
X123870438Y-127538952D01*
X123870438Y-127538952D02*
X123918057Y-127491333D01*
X123918057Y-127491333D02*
X124013295Y-127443714D01*
X124013295Y-127443714D02*
X124156152Y-127443714D01*
X124156152Y-127443714D02*
X124251390Y-127491333D01*
X124251390Y-127491333D02*
X124299009Y-127538952D01*
X124299009Y-127538952D02*
X124346628Y-127634190D01*
X124346628Y-127634190D02*
X124346628Y-128015142D01*
X123918057Y-127062761D02*
X123870438Y-127015142D01*
X123870438Y-127015142D02*
X123822819Y-126919904D01*
X123822819Y-126919904D02*
X123822819Y-126681809D01*
X123822819Y-126681809D02*
X123870438Y-126586571D01*
X123870438Y-126586571D02*
X123918057Y-126538952D01*
X123918057Y-126538952D02*
X124013295Y-126491333D01*
X124013295Y-126491333D02*
X124108533Y-126491333D01*
X124108533Y-126491333D02*
X124251390Y-126538952D01*
X124251390Y-126538952D02*
X124822819Y-127110380D01*
X124822819Y-127110380D02*
X124822819Y-126491333D01*
X107312819Y-128491333D02*
X108027104Y-128491333D01*
X108027104Y-128491333D02*
X108169961Y-128538952D01*
X108169961Y-128538952D02*
X108265200Y-128634190D01*
X108265200Y-128634190D02*
X108312819Y-128777047D01*
X108312819Y-128777047D02*
X108312819Y-128872285D01*
X108312819Y-128015142D02*
X107312819Y-128015142D01*
X107312819Y-128015142D02*
X107312819Y-127634190D01*
X107312819Y-127634190D02*
X107360438Y-127538952D01*
X107360438Y-127538952D02*
X107408057Y-127491333D01*
X107408057Y-127491333D02*
X107503295Y-127443714D01*
X107503295Y-127443714D02*
X107646152Y-127443714D01*
X107646152Y-127443714D02*
X107741390Y-127491333D01*
X107741390Y-127491333D02*
X107789009Y-127538952D01*
X107789009Y-127538952D02*
X107836628Y-127634190D01*
X107836628Y-127634190D02*
X107836628Y-128015142D01*
X108312819Y-126491333D02*
X108312819Y-127062761D01*
X108312819Y-126777047D02*
X107312819Y-126777047D01*
X107312819Y-126777047D02*
X107455676Y-126872285D01*
X107455676Y-126872285D02*
X107550914Y-126967523D01*
X107550914Y-126967523D02*
X107598533Y-127062761D01*
X103867819Y-125594285D02*
X103867819Y-126165713D01*
X103867819Y-125879999D02*
X102867819Y-125879999D01*
X102867819Y-125879999D02*
X103010676Y-125975237D01*
X103010676Y-125975237D02*
X103105914Y-126070475D01*
X103105914Y-126070475D02*
X103153533Y-126165713D01*
X105661819Y-126213332D02*
X105661819Y-125594285D01*
X105661819Y-125594285D02*
X106042771Y-125927618D01*
X106042771Y-125927618D02*
X106042771Y-125784761D01*
X106042771Y-125784761D02*
X106090390Y-125689523D01*
X106090390Y-125689523D02*
X106138009Y-125641904D01*
X106138009Y-125641904D02*
X106233247Y-125594285D01*
X106233247Y-125594285D02*
X106471342Y-125594285D01*
X106471342Y-125594285D02*
X106566580Y-125641904D01*
X106566580Y-125641904D02*
X106614200Y-125689523D01*
X106614200Y-125689523D02*
X106661819Y-125784761D01*
X106661819Y-125784761D02*
X106661819Y-126070475D01*
X106661819Y-126070475D02*
X106614200Y-126165713D01*
X106614200Y-126165713D02*
X106566580Y-126213332D01*
D12*
X123337500Y-74422224D02*
X123337500Y-73912776D01*
X124382500Y-74422224D02*
X124382500Y-73912776D01*
X110144724Y-72300500D02*
X109635276Y-72300500D01*
X110144724Y-71255500D02*
X109635276Y-71255500D01*
D13*
X112125200Y-72463800D02*
G75*
G02*
X111972800Y-72463800I-76200J0D01*
G01*
X111972800Y-72463800D02*
G75*
G02*
X112125200Y-72463800I76200J0D01*
G01*
X112048000Y-128659000D02*
X112048000Y-130313000D01*
X112048000Y-130313000D02*
X113037060Y-130313000D01*
X113987061Y-128659000D02*
X113412939Y-128659000D01*
X114362940Y-130313000D02*
X115352000Y-130313000D01*
X115352000Y-130313000D02*
X115352000Y-128659000D01*
D12*
X104750000Y-73690000D02*
X104750000Y-124730000D01*
X104750000Y-124730000D02*
X122650000Y-124730000D01*
X107240000Y-73750000D02*
X107240000Y-124670000D01*
X107240000Y-124670000D02*
X120160000Y-124670000D01*
X112700000Y-73750000D02*
X107240000Y-73750000D01*
X120160000Y-73750000D02*
X114700000Y-73750000D01*
X120160000Y-124670000D02*
X120160000Y-73750000D01*
X122650000Y-73690000D02*
X104750000Y-73690000D01*
X122650000Y-124730000D02*
X122650000Y-73690000D01*
X114700000Y-73750000D02*
G75*
G02*
X112700000Y-73750000I-1000000J0D01*
G01*
X120555000Y-127958000D02*
X120555000Y-127358000D01*
X121255000Y-126658000D02*
X122655000Y-126658000D01*
X122655000Y-128658000D02*
X121255000Y-128658000D01*
X123355000Y-127358000D02*
X123355000Y-127958000D01*
X120555000Y-127358000D02*
G75*
G02*
X121255000Y-126658000I700000J0D01*
G01*
X121255000Y-128658000D02*
G75*
G02*
X120555000Y-127958000I0J700000D01*
G01*
X122655000Y-126658000D02*
G75*
G02*
X123355000Y-127358000I1J-699999D01*
G01*
X123355000Y-127958000D02*
G75*
G02*
X122655000Y-128658000I-699999J-1D01*
G01*
X102760000Y-127958000D02*
X102760000Y-127358000D01*
X103410000Y-126658000D02*
X106210000Y-126658000D01*
X106210000Y-128658000D02*
X103410000Y-128658000D01*
X106860000Y-127358000D02*
X106860000Y-127958000D01*
X102760000Y-127358000D02*
G75*
G02*
X103460000Y-126658000I699999J1D01*
G01*
X103460000Y-128658000D02*
G75*
G02*
X102760000Y-127958000I-1J699999D01*
G01*
X106160000Y-126658000D02*
G75*
G02*
X106860000Y-127358000I0J-700000D01*
G01*
X106860000Y-127958000D02*
G75*
G02*
X106160000Y-128658000I-700000J0D01*
G01*
M02*
