G04 #@! TF.GenerationSoftware,KiCad,Pcbnew,9.0.6*
G04 #@! TF.CreationDate,2025-12-15T20:36:39+09:00*
G04 #@! TF.ProjectId,bionic-hd64180s,62696f6e-6963-42d6-9864-363431383073,1*
G04 #@! TF.SameCoordinates,Original*
G04 #@! TF.FileFunction,Paste,Top*
G04 #@! TF.FilePolarity,Positive*
%FSLAX46Y46*%
G04 Gerber Fmt 4.6, Leading zero omitted, Abs format (unit mm)*
G04 Created by KiCad (PCBNEW 9.0.6) date 2025-12-15 20:36:39*
%MOMM*%
%LPD*%
G01*
G04 APERTURE LIST*
G04 Aperture macros list*
%AMRoundRect*
0 Rectangle with rounded corners*
0 $1 Rounding radius*
0 $2 $3 $4 $5 $6 $7 $8 $9 X,Y pos of 4 corners*
0 Add a 4 corners polygon primitive as box body*
4,1,4,$2,$3,$4,$5,$6,$7,$8,$9,$2,$3,0*
0 Add four circle primitives for the rounded corners*
1,1,$1+$1,$2,$3*
1,1,$1+$1,$4,$5*
1,1,$1+$1,$6,$7*
1,1,$1+$1,$8,$9*
0 Add four rect primitives between the rounded corners*
20,1,$1+$1,$2,$3,$4,$5,0*
20,1,$1+$1,$4,$5,$6,$7,0*
20,1,$1+$1,$6,$7,$8,$9,0*
20,1,$1+$1,$8,$9,$2,$3,0*%
G04 Aperture macros list end*
%ADD10RoundRect,0.237500X-0.237500X0.250000X-0.237500X-0.250000X0.237500X-0.250000X0.237500X0.250000X0*%
%ADD11R,1.778000X0.355600*%
%ADD12R,0.965200X0.762000*%
%ADD13RoundRect,0.100000X-0.775000X-0.100000X0.775000X-0.100000X0.775000X0.100000X-0.775000X0.100000X0*%
%ADD14RoundRect,0.100000X-0.100000X-0.775000X0.100000X-0.775000X0.100000X0.775000X-0.100000X0.775000X0*%
%ADD15RoundRect,0.237500X0.250000X0.237500X-0.250000X0.237500X-0.250000X-0.237500X0.250000X-0.237500X0*%
%ADD16R,0.660400X1.625600*%
%ADD17RoundRect,0.237500X0.237500X-0.300000X0.237500X0.300000X-0.237500X0.300000X-0.237500X-0.300000X0*%
G04 APERTURE END LIST*
D10*
X102270000Y-77215500D03*
X102270000Y-79040500D03*
D11*
X110728200Y-104555001D03*
X110728200Y-105204999D03*
X110728200Y-105855001D03*
X110728200Y-106504999D03*
X110728200Y-107154998D03*
X110728200Y-107804999D03*
X110728200Y-108454998D03*
X110728200Y-109104999D03*
X116671800Y-109104999D03*
X116671800Y-108455001D03*
X116671800Y-107804999D03*
X116671800Y-107155001D03*
X116671800Y-106505002D03*
X116671800Y-105855001D03*
X116671800Y-105205002D03*
X116671800Y-104555001D03*
D12*
X112823700Y-71524000D03*
X114576300Y-71524000D03*
D13*
X105575000Y-82364000D03*
X105575000Y-83014000D03*
X105575000Y-83664000D03*
X105575000Y-84314000D03*
X105575000Y-84964000D03*
X105575000Y-85614000D03*
X105575000Y-86264000D03*
X105575000Y-86914000D03*
X105575000Y-87564000D03*
X105575000Y-88214000D03*
X105575000Y-88864000D03*
X105575000Y-89514000D03*
X105575000Y-90164000D03*
X105575000Y-90814000D03*
X105575000Y-91464000D03*
X105575000Y-92114000D03*
X105575000Y-92764000D03*
X105575000Y-93414000D03*
X105575000Y-94064000D03*
X105575000Y-94714000D03*
D14*
X107525000Y-96664000D03*
X108175000Y-96664000D03*
X108825000Y-96664000D03*
X109475000Y-96664000D03*
X110125000Y-96664000D03*
X110775000Y-96664000D03*
X111425000Y-96664000D03*
X112075000Y-96664000D03*
X112725000Y-96664000D03*
X113375000Y-96664000D03*
X114025000Y-96664000D03*
X114675000Y-96664000D03*
X115325000Y-96664000D03*
X115975000Y-96664000D03*
X116625000Y-96664000D03*
X117275000Y-96664000D03*
X117925000Y-96664000D03*
X118575000Y-96664000D03*
X119225000Y-96664000D03*
X119875000Y-96664000D03*
D13*
X121825000Y-94714000D03*
X121825000Y-94064000D03*
X121825000Y-93414000D03*
X121825000Y-92764000D03*
X121825000Y-92114000D03*
X121825000Y-91464000D03*
X121825000Y-90814000D03*
X121825000Y-90164000D03*
X121825000Y-89514000D03*
X121825000Y-88864000D03*
X121825000Y-88214000D03*
X121825000Y-87564000D03*
X121825000Y-86914000D03*
X121825000Y-86264000D03*
X121825000Y-85614000D03*
X121825000Y-84964000D03*
X121825000Y-84314000D03*
X121825000Y-83664000D03*
X121825000Y-83014000D03*
X121825000Y-82364000D03*
D14*
X119875000Y-80414000D03*
X119225000Y-80414000D03*
X118575000Y-80414000D03*
X117925000Y-80414000D03*
X117275000Y-80414000D03*
X116625000Y-80414000D03*
X115975000Y-80414000D03*
X115325000Y-80414000D03*
X114675000Y-80414000D03*
X114025000Y-80414000D03*
X113375000Y-80414000D03*
X112725000Y-80414000D03*
X112075000Y-80414000D03*
X111425000Y-80414000D03*
X110775000Y-80414000D03*
X110125000Y-80414000D03*
X109475000Y-80414000D03*
X108825000Y-80414000D03*
X108175000Y-80414000D03*
X107525000Y-80414000D03*
D10*
X104048000Y-77215500D03*
X104048000Y-79040500D03*
D15*
X110802500Y-71524000D03*
X108977500Y-71524000D03*
D16*
X114650001Y-128828000D03*
X112749999Y-128828000D03*
X113700000Y-130960000D03*
D17*
X112887200Y-77466500D03*
X112887200Y-75741500D03*
X114512800Y-77466500D03*
X114512800Y-75741500D03*
M02*
