M48
; DRILL file {KiCad 8.0.4+dfsg-1} date 2024-12-10T11:05:29+0900
; FORMAT={-:-/ absolute / inch / decimal}
; #@! TF.CreationDate,2024-12-10T11:05:29+09:00
; #@! TF.GenerationSoftware,Kicad,Pcbnew,8.0.4+dfsg-1
; #@! TF.FileFunction,Plated,1,2,PTH
FMAT,2
INCH
; #@! TA.AperFunction,Plated,PTH,ViaDrill
T1C0.0118
; #@! TA.AperFunction,Plated,PTH,ComponentDrill
T2C0.0315
; #@! TA.AperFunction,Plated,PTH,ComponentDrill
T3C0.0394
%
G90
G05
T1
X4.1664Y-5.0609
X4.2464Y-3.2859
X4.2494Y-3.1589
X4.3704Y-3.4059
X4.4131Y-3.8092
X4.4414Y-4.2609
X4.4414Y-4.3559
X4.4414Y-4.5409
X4.4415Y-3.5183
X4.4664Y-3.8659
X4.4741Y-3.7609
X4.4764Y-3.4559
X4.4764Y-4.2159
X4.4764Y-4.8309
X4.4764Y-5.1959
X4.4814Y-4.0759
X4.4964Y-4.7059
X4.4978Y-3.8209
X4.5014Y-3.5559
X4.5164Y-4.4159
X4.5214Y-3.7409
X4.5464Y-4.3309
X4.5764Y-3.6059
X4.5764Y-3.7039
X4.7264Y-5.0559
X4.7514Y-3.5059
X4.8114Y-4.2059
X4.8164Y-3.7059
X4.8614Y-4.6709
X4.8764Y-5.2709
X4.8814Y-3.1509
T2
X4.1764Y-2.9559
X4.1764Y-3.0559
X4.1764Y-3.1559
X4.1764Y-3.2559
X4.1764Y-3.3559
X4.1764Y-3.4559
X4.1764Y-3.5559
X4.1764Y-3.6559
X4.1764Y-3.7559
X4.1764Y-3.8559
X4.1764Y-3.9559
X4.1764Y-4.0559
X4.1764Y-4.1559
X4.1764Y-4.2559
X4.1764Y-4.3559
X4.1764Y-4.4559
X4.1764Y-4.5559
X4.1764Y-4.6559
X4.1764Y-4.7559
X4.1764Y-4.8559
X4.7764Y-2.9559
X4.7764Y-3.0559
X4.7764Y-3.1559
X4.7764Y-3.2559
X4.7764Y-3.3559
X4.7764Y-3.4559
X4.7764Y-3.5559
X4.7764Y-3.6559
X4.7764Y-3.7559
X4.7764Y-3.8559
X4.7764Y-3.9559
X4.7764Y-4.0559
X4.7764Y-4.1559
X4.7764Y-4.2559
X4.7764Y-4.3559
X4.7764Y-4.4559
X4.7764Y-4.5559
X4.7764Y-4.6559
X4.7764Y-4.7559
X4.7764Y-4.8559
T3
X4.3264Y-2.9559
X4.3264Y-3.0559
X4.3264Y-3.1559
X4.3264Y-3.2559
X4.3264Y-3.3559
X4.3264Y-3.4559
X4.3264Y-3.5559
X4.3264Y-3.6559
X4.3264Y-3.7559
X4.3264Y-3.8559
X4.3264Y-3.9559
X4.3264Y-4.0559
X4.3264Y-4.1559
X4.3264Y-4.2559
X4.3264Y-4.3559
X4.3264Y-4.4559
X4.3264Y-4.5559
X4.3264Y-4.6559
X4.3264Y-4.7559
X4.3264Y-4.8559
X4.3264Y-4.9559
X4.3264Y-5.0559
X4.3264Y-5.1559
X4.3264Y-5.2559
X4.6264Y-2.9559
X4.6264Y-3.0559
X4.6264Y-3.1559
X4.6264Y-3.2559
X4.6264Y-3.3559
X4.6264Y-3.4559
X4.6264Y-3.5559
X4.6264Y-3.6559
X4.6264Y-3.7559
X4.6264Y-3.8559
X4.6264Y-3.9559
X4.6264Y-4.0559
X4.6264Y-4.1559
X4.6264Y-4.2559
X4.6264Y-4.3559
X4.6264Y-4.4559
X4.6264Y-4.5559
X4.6264Y-4.6559
X4.6264Y-4.7559
X4.6264Y-4.8559
X4.6264Y-4.9559
X4.6264Y-5.0559
X4.6264Y-5.1559
X4.6264Y-5.2559
M30
