G04 #@! TF.GenerationSoftware,KiCad,Pcbnew,8.0.4+dfsg-1*
G04 #@! TF.CreationDate,2025-03-02T14:53:21+09:00*
G04 #@! TF.ProjectId,bionic-scn2650,62696f6e-6963-42d7-9363-6e323635302e,4*
G04 #@! TF.SameCoordinates,Original*
G04 #@! TF.FileFunction,Copper,L1,Top*
G04 #@! TF.FilePolarity,Positive*
%FSLAX46Y46*%
G04 Gerber Fmt 4.6, Leading zero omitted, Abs format (unit mm)*
G04 Created by KiCad (PCBNEW 8.0.4+dfsg-1) date 2025-03-02 14:53:21*
%MOMM*%
%LPD*%
G01*
G04 APERTURE LIST*
G04 Aperture macros list*
%AMRoundRect*
0 Rectangle with rounded corners*
0 $1 Rounding radius*
0 $2 $3 $4 $5 $6 $7 $8 $9 X,Y pos of 4 corners*
0 Add a 4 corners polygon primitive as box body*
4,1,4,$2,$3,$4,$5,$6,$7,$8,$9,$2,$3,0*
0 Add four circle primitives for the rounded corners*
1,1,$1+$1,$2,$3*
1,1,$1+$1,$4,$5*
1,1,$1+$1,$6,$7*
1,1,$1+$1,$8,$9*
0 Add four rect primitives between the rounded corners*
20,1,$1+$1,$2,$3,$4,$5,0*
20,1,$1+$1,$4,$5,$6,$7,0*
20,1,$1+$1,$6,$7,$8,$9,0*
20,1,$1+$1,$8,$9,$2,$3,0*%
G04 Aperture macros list end*
G04 #@! TA.AperFunction,ComponentPad*
%ADD10O,1.700000X1.700000*%
G04 #@! TD*
G04 #@! TA.AperFunction,ComponentPad*
%ADD11R,1.700000X1.700000*%
G04 #@! TD*
G04 #@! TA.AperFunction,SMDPad,CuDef*
%ADD12R,0.965200X0.762000*%
G04 #@! TD*
G04 #@! TA.AperFunction,SMDPad,CuDef*
%ADD13RoundRect,0.237500X0.250000X0.237500X-0.250000X0.237500X-0.250000X-0.237500X0.250000X-0.237500X0*%
G04 #@! TD*
G04 #@! TA.AperFunction,SMDPad,CuDef*
%ADD14R,0.660400X1.625600*%
G04 #@! TD*
G04 #@! TA.AperFunction,ComponentPad*
%ADD15R,1.600000X1.600000*%
G04 #@! TD*
G04 #@! TA.AperFunction,ComponentPad*
%ADD16O,1.600000X1.600000*%
G04 #@! TD*
G04 #@! TA.AperFunction,SMDPad,CuDef*
%ADD17RoundRect,0.237500X0.237500X-0.300000X0.237500X0.300000X-0.237500X0.300000X-0.237500X-0.300000X0*%
G04 #@! TD*
G04 #@! TA.AperFunction,ViaPad*
%ADD18C,0.600000*%
G04 #@! TD*
G04 #@! TA.AperFunction,Conductor*
%ADD19C,0.600000*%
G04 #@! TD*
G04 #@! TA.AperFunction,Conductor*
%ADD20C,0.200000*%
G04 #@! TD*
G04 APERTURE END LIST*
D10*
X117510000Y-133500000D03*
X117510000Y-130960000D03*
X117510000Y-128420000D03*
X117510000Y-125880000D03*
X117510000Y-123340000D03*
X117510000Y-118260000D03*
X117510000Y-115720000D03*
X117510000Y-113180000D03*
X117510000Y-110640000D03*
X117510000Y-108100000D03*
X117510000Y-105560000D03*
X117510000Y-103020000D03*
X117510000Y-100480000D03*
X117510000Y-95400000D03*
X117510000Y-92860000D03*
X117510000Y-90320000D03*
X117510000Y-87780000D03*
X117510000Y-85240000D03*
X117510000Y-82700000D03*
X117510000Y-80160000D03*
X117510000Y-77620000D03*
D11*
X117510000Y-75080000D03*
X109890000Y-75080000D03*
D10*
X109890000Y-77620000D03*
X109890000Y-80160000D03*
X109890000Y-82700000D03*
X109890000Y-85240000D03*
X109890000Y-87780000D03*
X109890000Y-90320000D03*
X109890000Y-92860000D03*
X109890000Y-95400000D03*
X109890000Y-100480000D03*
X109890000Y-103020000D03*
X109890000Y-105560000D03*
X109890000Y-108100000D03*
X109890000Y-110640000D03*
X109890000Y-113180000D03*
X109890000Y-115720000D03*
X109890000Y-118260000D03*
X109890000Y-123340000D03*
X109890000Y-125880000D03*
X109890000Y-128420000D03*
X109890000Y-130960000D03*
X109890000Y-133500000D03*
D12*
X112823700Y-72032000D03*
X114576300Y-72032000D03*
D13*
X110802500Y-72032000D03*
X108977500Y-72032000D03*
D14*
X114650001Y-128066000D03*
X112749999Y-128066000D03*
X113700000Y-130198000D03*
D15*
X106080000Y-75080000D03*
D16*
X106080000Y-77620000D03*
X106080000Y-80160000D03*
X106080000Y-82700000D03*
X106080000Y-85240000D03*
X106080000Y-87780000D03*
X106080000Y-90320000D03*
X106080000Y-92860000D03*
X106080000Y-95400000D03*
X106080000Y-97940000D03*
X106080000Y-100480000D03*
X106080000Y-103020000D03*
X106080000Y-105560000D03*
X106080000Y-108100000D03*
X106080000Y-110640000D03*
X106080000Y-113180000D03*
X106080000Y-115720000D03*
X106080000Y-118260000D03*
X106080000Y-120800000D03*
X106080000Y-123340000D03*
X121320000Y-123340000D03*
X121320000Y-120800000D03*
X121320000Y-118260000D03*
X121320000Y-115720000D03*
X121320000Y-113180000D03*
X121320000Y-110640000D03*
X121320000Y-108100000D03*
X121320000Y-105560000D03*
X121320000Y-103020000D03*
X121320000Y-100480000D03*
X121320000Y-97940000D03*
X121320000Y-95400000D03*
X121320000Y-92860000D03*
X121320000Y-90320000D03*
X121320000Y-87780000D03*
X121320000Y-85240000D03*
X121320000Y-82700000D03*
X121320000Y-80160000D03*
X121320000Y-77620000D03*
X121320000Y-75080000D03*
D17*
X123987000Y-77593500D03*
X123987000Y-75868500D03*
D18*
X118145000Y-97305000D03*
X112811000Y-115339000D03*
X105826000Y-128547000D03*
X120685000Y-89050000D03*
X120050000Y-128420000D03*
X113573000Y-106957000D03*
X107858000Y-83462000D03*
X122336000Y-94130000D03*
X123860000Y-133881000D03*
X112811000Y-110640000D03*
X115986000Y-104163000D03*
X113700000Y-131976000D03*
X113446000Y-98194000D03*
X113700000Y-87780000D03*
X113700000Y-122705000D03*
X113573000Y-103528000D03*
X123987000Y-80033000D03*
X114716000Y-112164000D03*
X112814000Y-89366000D03*
X114208000Y-119530000D03*
X123479000Y-118641000D03*
X111007600Y-86510000D03*
X114843000Y-95019000D03*
X122209000Y-106830000D03*
X115351000Y-90320000D03*
X115541500Y-92288500D03*
X107540500Y-79842500D03*
X116240000Y-94079200D03*
X112811000Y-108227000D03*
X112430000Y-97051000D03*
X113643000Y-95746000D03*
X115189000Y-109970000D03*
X114243000Y-97051000D03*
D19*
X117510000Y-133500000D02*
X118780000Y-133500000D01*
X118780000Y-133500000D02*
X124876000Y-127404000D01*
X124876000Y-127404000D02*
X124876000Y-78636000D01*
D20*
X115351000Y-90320000D02*
X117510000Y-90320000D01*
X113643000Y-95746000D02*
X113643000Y-94073000D01*
X113643000Y-94073000D02*
X109890000Y-90320000D01*
X115541500Y-92288500D02*
X116120000Y-91710000D01*
X116120000Y-91710000D02*
X117948800Y-91710000D01*
X117948800Y-91710000D02*
X119034000Y-90624800D01*
X119034000Y-90624800D02*
X119034000Y-86764000D01*
X119034000Y-86764000D02*
X117510000Y-85240000D01*
X112430000Y-97051000D02*
X112430000Y-95400000D01*
X112430000Y-95400000D02*
X109890000Y-92860000D01*
X124876000Y-78636000D02*
X125257000Y-78255000D01*
X125257000Y-78255000D02*
X125257000Y-74064000D01*
X125257000Y-74064000D02*
X123225000Y-72032000D01*
X123225000Y-72032000D02*
X114576300Y-72032000D01*
X112749999Y-133434001D02*
X112684000Y-133500000D01*
D19*
X124876000Y-78636000D02*
X123860000Y-77620000D01*
D20*
X112749999Y-128066000D02*
X112749999Y-133434001D01*
D19*
X123860000Y-77620000D02*
X121320000Y-77620000D01*
X112684000Y-133500000D02*
X117510000Y-133500000D01*
X109890000Y-133500000D02*
X112684000Y-133500000D01*
D20*
X109890000Y-130960000D02*
X111414000Y-129436000D01*
X111414000Y-129436000D02*
X111414000Y-120647600D01*
X111414000Y-120647600D02*
X110296400Y-119530000D01*
X107985000Y-118260000D02*
X107985000Y-115085000D01*
X107985000Y-115085000D02*
X106080000Y-113180000D01*
X110296400Y-119530000D02*
X109255000Y-119530000D01*
X109255000Y-119530000D02*
X107985000Y-118260000D01*
X115016058Y-93114000D02*
X117256000Y-93114000D01*
X117256000Y-93114000D02*
X117510000Y-92860000D01*
X112814000Y-90911942D02*
X115016058Y-93114000D01*
X112814000Y-89366000D02*
X112814000Y-90911942D01*
X111160000Y-119530000D02*
X109890000Y-118260000D01*
X114208000Y-119530000D02*
X111160000Y-119530000D01*
X123898000Y-118222000D02*
X123898000Y-85278000D01*
X123479000Y-118641000D02*
X123898000Y-118222000D01*
X123898000Y-85278000D02*
X121320000Y-82700000D01*
X111814000Y-91043314D02*
X111814000Y-87316400D01*
X114843000Y-94072314D02*
X111814000Y-91043314D01*
X114843000Y-95019000D02*
X114843000Y-94072314D01*
X111814000Y-87316400D02*
X111007600Y-86510000D01*
X121853900Y-114450000D02*
X123098000Y-113205900D01*
X119542000Y-115466000D02*
X120558000Y-114450000D01*
X117510000Y-118260000D02*
X119542000Y-116228000D01*
X120558000Y-114450000D02*
X121853900Y-114450000D01*
X119542000Y-116228000D02*
X119542000Y-115466000D01*
X123098000Y-113205900D02*
X123098000Y-89558000D01*
X123098000Y-89558000D02*
X121320000Y-87780000D01*
X119542000Y-108100000D02*
X119542000Y-113688000D01*
X122209000Y-106830000D02*
X120812000Y-106830000D01*
X120812000Y-106830000D02*
X119542000Y-108100000D01*
X119542000Y-113688000D02*
X117510000Y-115720000D01*
X103502000Y-80960000D02*
X103502000Y-100442000D01*
X107540500Y-79842500D02*
X106588000Y-78890000D01*
X105572000Y-78890000D02*
X103502000Y-80960000D01*
X106588000Y-78890000D02*
X105572000Y-78890000D01*
X103502000Y-100442000D02*
X106080000Y-103020000D01*
X118119600Y-94079200D02*
X116240000Y-94079200D01*
X119034000Y-91386800D02*
X119034000Y-93164800D01*
X117510000Y-80160000D02*
X119434000Y-82084000D01*
X119034000Y-93164800D02*
X118119600Y-94079200D01*
X119434000Y-90986800D02*
X119034000Y-91386800D01*
X119434000Y-82084000D02*
X119434000Y-90986800D01*
X112557000Y-107973000D02*
X112557000Y-98067000D01*
X112557000Y-98067000D02*
X109890000Y-95400000D01*
X112811000Y-108227000D02*
X112557000Y-107973000D01*
X115189000Y-109970000D02*
X115224000Y-109935000D01*
X115224000Y-102766000D02*
X117510000Y-100480000D01*
X115224000Y-109935000D02*
X115224000Y-102766000D01*
X114243000Y-97051000D02*
X114243000Y-94038000D01*
X111414000Y-89304000D02*
X109890000Y-87780000D01*
X114243000Y-94038000D02*
X111414000Y-91209000D01*
X111414000Y-91209000D02*
X111414000Y-89304000D01*
X119415000Y-93349486D02*
X119434000Y-93330485D01*
X119434000Y-93330485D02*
X119434000Y-91596400D01*
X117510000Y-110640000D02*
X115624000Y-108754000D01*
X119434000Y-91596400D02*
X119948400Y-91082000D01*
X119415000Y-102893000D02*
X119415000Y-93349486D01*
X119948400Y-91082000D02*
X119948400Y-76451600D01*
X115624000Y-105668000D02*
X117002000Y-104290000D01*
X119948400Y-76451600D02*
X121320000Y-75080000D01*
X115624000Y-108754000D02*
X115624000Y-105668000D01*
X117002000Y-104290000D02*
X118018000Y-104290000D01*
X118018000Y-104290000D02*
X119415000Y-102893000D01*
X115570000Y-101404000D02*
X114589000Y-102385000D01*
X110398000Y-78890000D02*
X112214000Y-80706000D01*
X114589000Y-110259000D02*
X117510000Y-113180000D01*
X112303000Y-90966628D02*
X115570000Y-94233629D01*
X109382000Y-78890000D02*
X110398000Y-78890000D01*
X107858000Y-77366000D02*
X109382000Y-78890000D01*
X112303000Y-90955000D02*
X112303000Y-90966628D01*
X114589000Y-102385000D02*
X114589000Y-110259000D01*
X115570000Y-94233629D02*
X115570000Y-101404000D01*
X107858000Y-76858000D02*
X107858000Y-77366000D01*
X112214000Y-80706000D02*
X112214000Y-90866000D01*
X112214000Y-90866000D02*
X112303000Y-90955000D01*
X106080000Y-75080000D02*
X107858000Y-76858000D01*
X105375686Y-101750000D02*
X106603818Y-101750000D01*
X106603818Y-101750000D02*
X107604000Y-102750182D01*
X107604000Y-102750182D02*
X107604000Y-105814000D01*
X103902000Y-82338000D02*
X103902000Y-100276314D01*
X103902000Y-100276314D02*
X105375686Y-101750000D01*
X106080000Y-80160000D02*
X103902000Y-82338000D01*
X107604000Y-105814000D02*
X109890000Y-108100000D01*
X108239000Y-100861000D02*
X106588000Y-99210000D01*
X105572000Y-99210000D02*
X104302000Y-97940000D01*
X104302000Y-97940000D02*
X104302000Y-84478000D01*
X109890000Y-105560000D02*
X108239000Y-103909000D01*
X106588000Y-99210000D02*
X105572000Y-99210000D01*
X104302000Y-84478000D02*
X106080000Y-82700000D01*
X108239000Y-103909000D02*
X108239000Y-100861000D01*
X111414000Y-101496000D02*
X111414000Y-100226000D01*
X107877000Y-97832000D02*
X107877000Y-87037000D01*
X109890000Y-103020000D02*
X111414000Y-101496000D01*
X109255000Y-99210000D02*
X107877000Y-97832000D01*
X110398000Y-99210000D02*
X109255000Y-99210000D01*
X107877000Y-87037000D02*
X106080000Y-85240000D01*
X111414000Y-100226000D02*
X110398000Y-99210000D01*
X107477000Y-98321000D02*
X109636000Y-100480000D01*
X107477000Y-89177000D02*
X107477000Y-98321000D01*
X106080000Y-87780000D02*
X107477000Y-89177000D01*
X109636000Y-100480000D02*
X109890000Y-100480000D01*
X120812000Y-116990000D02*
X119415000Y-118387000D01*
X123498000Y-115320000D02*
X121828000Y-116990000D01*
X123498000Y-87418000D02*
X123498000Y-115320000D01*
X119415000Y-123975000D02*
X117510000Y-125880000D01*
X121320000Y-85240000D02*
X123498000Y-87418000D01*
X121828000Y-116990000D02*
X120812000Y-116990000D01*
X119415000Y-118387000D02*
X119415000Y-123975000D01*
X119923000Y-102950686D02*
X119923000Y-91844000D01*
X119923000Y-91844000D02*
X121320000Y-90447000D01*
X117510000Y-108100000D02*
X119034000Y-106576000D01*
X119034000Y-103839686D02*
X119923000Y-102950686D01*
X119034000Y-106576000D02*
X119034000Y-103839686D01*
X121320000Y-90447000D02*
X121320000Y-90320000D01*
X110525000Y-111910000D02*
X109255000Y-111910000D01*
X115605000Y-121435000D02*
X115605000Y-116990000D01*
X109255000Y-111910000D02*
X107985000Y-110640000D01*
X115605000Y-116990000D02*
X110525000Y-111910000D01*
X117510000Y-123340000D02*
X115605000Y-121435000D01*
X107985000Y-110640000D02*
X106080000Y-110640000D01*
X114650001Y-128481001D02*
X117129000Y-130960000D01*
X117129000Y-130960000D02*
X117510000Y-130960000D01*
X114650001Y-128066000D02*
X114650001Y-128481001D01*
X110802500Y-72032000D02*
X112823700Y-72032000D01*
G04 #@! TA.AperFunction,Conductor*
G36*
X118960445Y-93901490D02*
G01*
X119003710Y-93944755D01*
X119014500Y-93989700D01*
X119014500Y-102686099D01*
X118995593Y-102744290D01*
X118985504Y-102756102D01*
X118819314Y-102922291D01*
X118764799Y-102950068D01*
X118704367Y-102940497D01*
X118661102Y-102897232D01*
X118650735Y-102861425D01*
X118645756Y-102807690D01*
X118587405Y-102602611D01*
X118492366Y-102411745D01*
X118363872Y-102241593D01*
X118309623Y-102192139D01*
X118206307Y-102097952D01*
X118206300Y-102097946D01*
X118025024Y-101985705D01*
X118025019Y-101985702D01*
X117945016Y-101954709D01*
X117826198Y-101908679D01*
X117826197Y-101908678D01*
X117826195Y-101908678D01*
X117616610Y-101869500D01*
X117403390Y-101869500D01*
X117193804Y-101908678D01*
X116994980Y-101985702D01*
X116994975Y-101985705D01*
X116813699Y-102097946D01*
X116813692Y-102097952D01*
X116656135Y-102241586D01*
X116656131Y-102241589D01*
X116656128Y-102241593D01*
X116656125Y-102241597D01*
X116527635Y-102411743D01*
X116527630Y-102411752D01*
X116432596Y-102602608D01*
X116432595Y-102602611D01*
X116427435Y-102620747D01*
X116374244Y-102807688D01*
X116374244Y-102807689D01*
X116374244Y-102807690D01*
X116354571Y-103020000D01*
X116374244Y-103232310D01*
X116432595Y-103437389D01*
X116527634Y-103628255D01*
X116656128Y-103798407D01*
X116721308Y-103857826D01*
X116751573Y-103911001D01*
X116744802Y-103971811D01*
X116724615Y-104000991D01*
X115793504Y-104932103D01*
X115738987Y-104959880D01*
X115678555Y-104950309D01*
X115635290Y-104907044D01*
X115624500Y-104862099D01*
X115624500Y-102972900D01*
X115643407Y-102914709D01*
X115653490Y-102902902D01*
X116983326Y-101573065D01*
X117037841Y-101545290D01*
X117089090Y-101550756D01*
X117193802Y-101591321D01*
X117403390Y-101630500D01*
X117616610Y-101630500D01*
X117826198Y-101591321D01*
X118025019Y-101514298D01*
X118206302Y-101402052D01*
X118363872Y-101258407D01*
X118492366Y-101088255D01*
X118587405Y-100897389D01*
X118645756Y-100692310D01*
X118665429Y-100480000D01*
X118645756Y-100267690D01*
X118587405Y-100062611D01*
X118492366Y-99871745D01*
X118363872Y-99701593D01*
X118306563Y-99649349D01*
X118206307Y-99557952D01*
X118206300Y-99557946D01*
X118025024Y-99445705D01*
X118025019Y-99445702D01*
X117826195Y-99368678D01*
X117616610Y-99329500D01*
X117403390Y-99329500D01*
X117193804Y-99368678D01*
X116994980Y-99445702D01*
X116994975Y-99445705D01*
X116813699Y-99557946D01*
X116813692Y-99557952D01*
X116656135Y-99701586D01*
X116656131Y-99701589D01*
X116656128Y-99701593D01*
X116656125Y-99701597D01*
X116527635Y-99871743D01*
X116527630Y-99871752D01*
X116432596Y-100062608D01*
X116374244Y-100267688D01*
X116354571Y-100480000D01*
X116374244Y-100692311D01*
X116432598Y-100897401D01*
X116434249Y-100901661D01*
X116432870Y-100902195D01*
X116440977Y-100956647D01*
X116413348Y-101010256D01*
X116139504Y-101284101D01*
X116084987Y-101311879D01*
X116024555Y-101302308D01*
X115981290Y-101259043D01*
X115970500Y-101214098D01*
X115970500Y-94762289D01*
X115989407Y-94704098D01*
X116038907Y-94668134D01*
X116082422Y-94664136D01*
X116083235Y-94664243D01*
X116083238Y-94664244D01*
X116240000Y-94684882D01*
X116240001Y-94684882D01*
X116271352Y-94680754D01*
X116396762Y-94664244D01*
X116397180Y-94664070D01*
X116397500Y-94664045D01*
X116403030Y-94662564D01*
X116403304Y-94663588D01*
X116458175Y-94659266D01*
X116510346Y-94691231D01*
X116533765Y-94747757D01*
X116523693Y-94799659D01*
X116432595Y-94982611D01*
X116374244Y-95187688D01*
X116354571Y-95400000D01*
X116374244Y-95612311D01*
X116377764Y-95624682D01*
X116432595Y-95817389D01*
X116527634Y-96008255D01*
X116656128Y-96178407D01*
X116656135Y-96178413D01*
X116813692Y-96322047D01*
X116813699Y-96322053D01*
X116842930Y-96340152D01*
X116994981Y-96434298D01*
X117193802Y-96511321D01*
X117403390Y-96550500D01*
X117616610Y-96550500D01*
X117826198Y-96511321D01*
X118025019Y-96434298D01*
X118206302Y-96322052D01*
X118363872Y-96178407D01*
X118492366Y-96008255D01*
X118587405Y-95817389D01*
X118645756Y-95612310D01*
X118665429Y-95400000D01*
X118645756Y-95187690D01*
X118587405Y-94982611D01*
X118492366Y-94791745D01*
X118363872Y-94621593D01*
X118315517Y-94577512D01*
X118285253Y-94524338D01*
X118292024Y-94463528D01*
X118332714Y-94418616D01*
X118365513Y-94399680D01*
X118845498Y-93919694D01*
X118900013Y-93891919D01*
X118960445Y-93901490D01*
G37*
G04 #@! TD.AperFunction*
G04 #@! TA.AperFunction,Conductor*
G36*
X123331295Y-78239407D02*
G01*
X123351986Y-78259679D01*
X123365500Y-78277500D01*
X123483342Y-78366862D01*
X123620923Y-78421117D01*
X123707382Y-78431500D01*
X123781257Y-78431500D01*
X123839448Y-78450407D01*
X123851261Y-78460496D01*
X124246504Y-78855739D01*
X124274281Y-78910256D01*
X124275500Y-78925743D01*
X124275500Y-84850099D01*
X124256593Y-84908290D01*
X124207093Y-84944254D01*
X124145907Y-84944254D01*
X124106496Y-84920103D01*
X122377336Y-83190943D01*
X122349559Y-83136426D01*
X122352118Y-83093848D01*
X122406397Y-82903083D01*
X122425215Y-82700000D01*
X122406397Y-82496917D01*
X122350582Y-82300750D01*
X122259673Y-82118179D01*
X122136764Y-81955421D01*
X121986041Y-81818019D01*
X121812637Y-81710652D01*
X121622456Y-81636976D01*
X121622455Y-81636975D01*
X121622453Y-81636975D01*
X121421976Y-81599500D01*
X121218024Y-81599500D01*
X121017546Y-81636975D01*
X120947632Y-81664059D01*
X120827363Y-81710652D01*
X120718676Y-81777948D01*
X120653959Y-81818019D01*
X120514596Y-81945065D01*
X120458854Y-81970295D01*
X120398929Y-81957943D01*
X120357709Y-81912726D01*
X120348900Y-81871903D01*
X120348900Y-80988096D01*
X120367807Y-80929905D01*
X120417307Y-80893941D01*
X120478493Y-80893941D01*
X120514592Y-80914932D01*
X120653959Y-81041981D01*
X120827363Y-81149348D01*
X121017544Y-81223024D01*
X121218024Y-81260500D01*
X121421976Y-81260500D01*
X121622456Y-81223024D01*
X121812637Y-81149348D01*
X121986041Y-81041981D01*
X122136764Y-80904579D01*
X122259673Y-80741821D01*
X122350582Y-80559250D01*
X122406397Y-80363083D01*
X122425215Y-80160000D01*
X122406397Y-79956917D01*
X122350582Y-79760750D01*
X122259673Y-79578179D01*
X122136764Y-79415421D01*
X121986041Y-79278019D01*
X121812637Y-79170652D01*
X121622456Y-79096976D01*
X121622455Y-79096975D01*
X121622453Y-79096975D01*
X121421976Y-79059500D01*
X121218024Y-79059500D01*
X121017546Y-79096975D01*
X120947632Y-79124059D01*
X120827363Y-79170652D01*
X120687168Y-79257457D01*
X120653959Y-79278019D01*
X120514596Y-79405065D01*
X120458854Y-79430295D01*
X120398929Y-79417943D01*
X120357709Y-79372726D01*
X120348900Y-79331903D01*
X120348900Y-78448096D01*
X120367807Y-78389905D01*
X120417307Y-78353941D01*
X120478493Y-78353941D01*
X120514592Y-78374932D01*
X120653959Y-78501981D01*
X120827363Y-78609348D01*
X121017544Y-78683024D01*
X121218024Y-78720500D01*
X121421976Y-78720500D01*
X121622456Y-78683024D01*
X121812637Y-78609348D01*
X121986041Y-78501981D01*
X122136764Y-78364579D01*
X122215860Y-78259837D01*
X122266016Y-78224796D01*
X122294863Y-78220500D01*
X123273104Y-78220500D01*
X123331295Y-78239407D01*
G37*
G04 #@! TD.AperFunction*
G04 #@! TA.AperFunction,Conductor*
G36*
X125134309Y-70100877D02*
G01*
X125324457Y-70117512D01*
X125341437Y-70120505D01*
X125521635Y-70168789D01*
X125537839Y-70174687D01*
X125706902Y-70253523D01*
X125721842Y-70262149D01*
X125874641Y-70369140D01*
X125887861Y-70380232D01*
X126019767Y-70512138D01*
X126030859Y-70525358D01*
X126137850Y-70678157D01*
X126146478Y-70693101D01*
X126225308Y-70862151D01*
X126231211Y-70878368D01*
X126279492Y-71058555D01*
X126282488Y-71075550D01*
X126299123Y-71265690D01*
X126299500Y-71274318D01*
X126299500Y-137305681D01*
X126299123Y-137314309D01*
X126282488Y-137504449D01*
X126279492Y-137521444D01*
X126231211Y-137701631D01*
X126225308Y-137717848D01*
X126146478Y-137886898D01*
X126137850Y-137901842D01*
X126030859Y-138054641D01*
X126019767Y-138067861D01*
X125887861Y-138199767D01*
X125874641Y-138210859D01*
X125721842Y-138317850D01*
X125706898Y-138326478D01*
X125537848Y-138405308D01*
X125521631Y-138411211D01*
X125341444Y-138459492D01*
X125324449Y-138462488D01*
X125134309Y-138479123D01*
X125125681Y-138479500D01*
X102274319Y-138479500D01*
X102265691Y-138479123D01*
X102075550Y-138462488D01*
X102058555Y-138459492D01*
X101878368Y-138411211D01*
X101862154Y-138405309D01*
X101693100Y-138326477D01*
X101678157Y-138317850D01*
X101525358Y-138210859D01*
X101512138Y-138199767D01*
X101380232Y-138067861D01*
X101369140Y-138054641D01*
X101262149Y-137901842D01*
X101253523Y-137886902D01*
X101174687Y-137717839D01*
X101168788Y-137701631D01*
X101149843Y-137630926D01*
X101120505Y-137521437D01*
X101117512Y-137504457D01*
X101100877Y-137314309D01*
X101100500Y-137305681D01*
X101100500Y-123340000D01*
X104974785Y-123340000D01*
X104993603Y-123543083D01*
X105049418Y-123739250D01*
X105140327Y-123921821D01*
X105263236Y-124084579D01*
X105413959Y-124221981D01*
X105587363Y-124329348D01*
X105777544Y-124403024D01*
X105978024Y-124440500D01*
X106181976Y-124440500D01*
X106382456Y-124403024D01*
X106572637Y-124329348D01*
X106746041Y-124221981D01*
X106896764Y-124084579D01*
X107019673Y-123921821D01*
X107110582Y-123739250D01*
X107166397Y-123543083D01*
X107185215Y-123340000D01*
X107166397Y-123136917D01*
X107110582Y-122940750D01*
X107019673Y-122758179D01*
X106896764Y-122595421D01*
X106746041Y-122458019D01*
X106572637Y-122350652D01*
X106382456Y-122276976D01*
X106382455Y-122276975D01*
X106382453Y-122276975D01*
X106181976Y-122239500D01*
X105978024Y-122239500D01*
X105777546Y-122276975D01*
X105737353Y-122292546D01*
X105587363Y-122350652D01*
X105478676Y-122417948D01*
X105413959Y-122458019D01*
X105263237Y-122595420D01*
X105140328Y-122758177D01*
X105140323Y-122758186D01*
X105058450Y-122922611D01*
X105049418Y-122940750D01*
X104993603Y-123136917D01*
X104974785Y-123340000D01*
X101100500Y-123340000D01*
X101100500Y-120800000D01*
X104974785Y-120800000D01*
X104993603Y-121003083D01*
X105049418Y-121199250D01*
X105140327Y-121381821D01*
X105263236Y-121544579D01*
X105413959Y-121681981D01*
X105587363Y-121789348D01*
X105777544Y-121863024D01*
X105978024Y-121900500D01*
X106181976Y-121900500D01*
X106382456Y-121863024D01*
X106572637Y-121789348D01*
X106746041Y-121681981D01*
X106896764Y-121544579D01*
X107019673Y-121381821D01*
X107110582Y-121199250D01*
X107166397Y-121003083D01*
X107185215Y-120800000D01*
X107166397Y-120596917D01*
X107110582Y-120400750D01*
X107019673Y-120218179D01*
X106896764Y-120055421D01*
X106746041Y-119918019D01*
X106572637Y-119810652D01*
X106382456Y-119736976D01*
X106382455Y-119736975D01*
X106382453Y-119736975D01*
X106181976Y-119699500D01*
X105978024Y-119699500D01*
X105777546Y-119736975D01*
X105707632Y-119764059D01*
X105587363Y-119810652D01*
X105437881Y-119903207D01*
X105413959Y-119918019D01*
X105263237Y-120055420D01*
X105140328Y-120218177D01*
X105140323Y-120218186D01*
X105049419Y-120400747D01*
X105049418Y-120400750D01*
X104993603Y-120596917D01*
X104974785Y-120800000D01*
X101100500Y-120800000D01*
X101100500Y-118260000D01*
X104974785Y-118260000D01*
X104993603Y-118463083D01*
X105049418Y-118659250D01*
X105140327Y-118841821D01*
X105263236Y-119004579D01*
X105413959Y-119141981D01*
X105587363Y-119249348D01*
X105777544Y-119323024D01*
X105978024Y-119360500D01*
X106181976Y-119360500D01*
X106382456Y-119323024D01*
X106572637Y-119249348D01*
X106746041Y-119141981D01*
X106896764Y-119004579D01*
X107019673Y-118841821D01*
X107110582Y-118659250D01*
X107166397Y-118463083D01*
X107185215Y-118260000D01*
X107166397Y-118056917D01*
X107110582Y-117860750D01*
X107019673Y-117678179D01*
X106896764Y-117515421D01*
X106746041Y-117378019D01*
X106572637Y-117270652D01*
X106382456Y-117196976D01*
X106382455Y-117196975D01*
X106382453Y-117196975D01*
X106181976Y-117159500D01*
X105978024Y-117159500D01*
X105777546Y-117196975D01*
X105737353Y-117212546D01*
X105587363Y-117270652D01*
X105437881Y-117363207D01*
X105413959Y-117378019D01*
X105263237Y-117515420D01*
X105140328Y-117678177D01*
X105140323Y-117678186D01*
X105058450Y-117842611D01*
X105049418Y-117860750D01*
X104993603Y-118056917D01*
X104974785Y-118260000D01*
X101100500Y-118260000D01*
X101100500Y-115720000D01*
X104974785Y-115720000D01*
X104993603Y-115923083D01*
X105041409Y-116091102D01*
X105049419Y-116119252D01*
X105129823Y-116280727D01*
X105140327Y-116301821D01*
X105263236Y-116464579D01*
X105413959Y-116601981D01*
X105587363Y-116709348D01*
X105777544Y-116783024D01*
X105978024Y-116820500D01*
X106181976Y-116820500D01*
X106382456Y-116783024D01*
X106572637Y-116709348D01*
X106746041Y-116601981D01*
X106896764Y-116464579D01*
X107019673Y-116301821D01*
X107110582Y-116119250D01*
X107166397Y-115923083D01*
X107185215Y-115720000D01*
X107166397Y-115516917D01*
X107110582Y-115320750D01*
X107019673Y-115138179D01*
X106896764Y-114975421D01*
X106746041Y-114838019D01*
X106572637Y-114730652D01*
X106382456Y-114656976D01*
X106382455Y-114656975D01*
X106382453Y-114656975D01*
X106181976Y-114619500D01*
X105978024Y-114619500D01*
X105777546Y-114656975D01*
X105737353Y-114672546D01*
X105587363Y-114730652D01*
X105478676Y-114797948D01*
X105413959Y-114838019D01*
X105263237Y-114975420D01*
X105140328Y-115138177D01*
X105140323Y-115138186D01*
X105054067Y-115311413D01*
X105049418Y-115320750D01*
X104993603Y-115516917D01*
X104974785Y-115720000D01*
X101100500Y-115720000D01*
X101100500Y-113180000D01*
X104974785Y-113180000D01*
X104993603Y-113383083D01*
X105047880Y-113573846D01*
X105049419Y-113579252D01*
X105129823Y-113740727D01*
X105140327Y-113761821D01*
X105263236Y-113924579D01*
X105413959Y-114061981D01*
X105587363Y-114169348D01*
X105777544Y-114243024D01*
X105978024Y-114280500D01*
X106181976Y-114280500D01*
X106382456Y-114243024D01*
X106462259Y-114212107D01*
X106523351Y-114208718D01*
X106568026Y-114234419D01*
X107555504Y-115221897D01*
X107583281Y-115276414D01*
X107584500Y-115291901D01*
X107584500Y-118207273D01*
X107584500Y-118312727D01*
X107591315Y-118338160D01*
X107611794Y-118414592D01*
X107664516Y-118505908D01*
X107664518Y-118505910D01*
X107664520Y-118505913D01*
X109009087Y-119850480D01*
X109009089Y-119850481D01*
X109009091Y-119850483D01*
X109100408Y-119903205D01*
X109100406Y-119903205D01*
X109100410Y-119903206D01*
X109100412Y-119903207D01*
X109202273Y-119930500D01*
X109307727Y-119930500D01*
X110089499Y-119930500D01*
X110147690Y-119949407D01*
X110159503Y-119959496D01*
X110984504Y-120784497D01*
X111012281Y-120839014D01*
X111013500Y-120854501D01*
X111013500Y-122623261D01*
X110994593Y-122681452D01*
X110945093Y-122717416D01*
X110883907Y-122717416D01*
X110835497Y-122682922D01*
X110743880Y-122561603D01*
X110743877Y-122561600D01*
X110743872Y-122561593D01*
X110677611Y-122501188D01*
X110586307Y-122417952D01*
X110586300Y-122417946D01*
X110405024Y-122305705D01*
X110405019Y-122305702D01*
X110319657Y-122272633D01*
X110206198Y-122228679D01*
X110206197Y-122228678D01*
X110206195Y-122228678D01*
X109996610Y-122189500D01*
X109783390Y-122189500D01*
X109573804Y-122228678D01*
X109374980Y-122305702D01*
X109374975Y-122305705D01*
X109193699Y-122417946D01*
X109193692Y-122417952D01*
X109036135Y-122561586D01*
X109036131Y-122561589D01*
X109036128Y-122561593D01*
X109036125Y-122561597D01*
X108907635Y-122731743D01*
X108907630Y-122731752D01*
X108812596Y-122922608D01*
X108754244Y-123127688D01*
X108754244Y-123127690D01*
X108734571Y-123340000D01*
X108754244Y-123552310D01*
X108812595Y-123757389D01*
X108907634Y-123948255D01*
X109036128Y-124118407D01*
X109102388Y-124178811D01*
X109193692Y-124262047D01*
X109193699Y-124262053D01*
X109297389Y-124326255D01*
X109374981Y-124374298D01*
X109573802Y-124451321D01*
X109783390Y-124490500D01*
X109996610Y-124490500D01*
X110206198Y-124451321D01*
X110405019Y-124374298D01*
X110586302Y-124262052D01*
X110743872Y-124118407D01*
X110835498Y-123997075D01*
X110885653Y-123962034D01*
X110946827Y-123963165D01*
X110995654Y-124000037D01*
X111013500Y-124056738D01*
X111013500Y-125163261D01*
X110994593Y-125221452D01*
X110945093Y-125257416D01*
X110883907Y-125257416D01*
X110835497Y-125222922D01*
X110743880Y-125101603D01*
X110743877Y-125101600D01*
X110743872Y-125101593D01*
X110689623Y-125052139D01*
X110586307Y-124957952D01*
X110586300Y-124957946D01*
X110405024Y-124845705D01*
X110405019Y-124845702D01*
X110325016Y-124814709D01*
X110206198Y-124768679D01*
X110206197Y-124768678D01*
X110206195Y-124768678D01*
X109996610Y-124729500D01*
X109783390Y-124729500D01*
X109573804Y-124768678D01*
X109374980Y-124845702D01*
X109374975Y-124845705D01*
X109193699Y-124957946D01*
X109193692Y-124957952D01*
X109036135Y-125101586D01*
X109036131Y-125101589D01*
X109036128Y-125101593D01*
X109036125Y-125101597D01*
X108907635Y-125271743D01*
X108907630Y-125271752D01*
X108812596Y-125462608D01*
X108754244Y-125667688D01*
X108754244Y-125667690D01*
X108734571Y-125880000D01*
X108754244Y-126092310D01*
X108812595Y-126297389D01*
X108907634Y-126488255D01*
X109036128Y-126658407D01*
X109036135Y-126658413D01*
X109193692Y-126802047D01*
X109193699Y-126802053D01*
X109297389Y-126866255D01*
X109374981Y-126914298D01*
X109573802Y-126991321D01*
X109783390Y-127030500D01*
X109996610Y-127030500D01*
X110206198Y-126991321D01*
X110405019Y-126914298D01*
X110586302Y-126802052D01*
X110743872Y-126658407D01*
X110835498Y-126537075D01*
X110885653Y-126502034D01*
X110946827Y-126503165D01*
X110995654Y-126540037D01*
X111013500Y-126596738D01*
X111013500Y-127703261D01*
X110994593Y-127761452D01*
X110945093Y-127797416D01*
X110883907Y-127797416D01*
X110835497Y-127762922D01*
X110743880Y-127641603D01*
X110743877Y-127641600D01*
X110743872Y-127641593D01*
X110689623Y-127592139D01*
X110586307Y-127497952D01*
X110586300Y-127497946D01*
X110405024Y-127385705D01*
X110405019Y-127385702D01*
X110206198Y-127308679D01*
X110206197Y-127308678D01*
X110206195Y-127308678D01*
X109996610Y-127269500D01*
X109783390Y-127269500D01*
X109573804Y-127308678D01*
X109374980Y-127385702D01*
X109374975Y-127385705D01*
X109193699Y-127497946D01*
X109193692Y-127497952D01*
X109036135Y-127641586D01*
X109036131Y-127641589D01*
X109036128Y-127641593D01*
X109036125Y-127641597D01*
X108907635Y-127811743D01*
X108907630Y-127811752D01*
X108812596Y-128002608D01*
X108754244Y-128207688D01*
X108754244Y-128207690D01*
X108734571Y-128420000D01*
X108754244Y-128632310D01*
X108812595Y-128837389D01*
X108907634Y-129028255D01*
X109036128Y-129198407D01*
X109036135Y-129198413D01*
X109193692Y-129342047D01*
X109193699Y-129342053D01*
X109297389Y-129406255D01*
X109374981Y-129454298D01*
X109573802Y-129531321D01*
X109783390Y-129570500D01*
X109996610Y-129570500D01*
X110206198Y-129531321D01*
X110405019Y-129454298D01*
X110586302Y-129342052D01*
X110743872Y-129198407D01*
X110835498Y-129077075D01*
X110885653Y-129042034D01*
X110946827Y-129043165D01*
X110995654Y-129080037D01*
X111013500Y-129136738D01*
X111013500Y-129229098D01*
X110994593Y-129287289D01*
X110984504Y-129299102D01*
X110416673Y-129866932D01*
X110362156Y-129894709D01*
X110310907Y-129889243D01*
X110206198Y-129848679D01*
X110206197Y-129848678D01*
X110206195Y-129848678D01*
X109996610Y-129809500D01*
X109783390Y-129809500D01*
X109573804Y-129848678D01*
X109374980Y-129925702D01*
X109374975Y-129925705D01*
X109193699Y-130037946D01*
X109193692Y-130037952D01*
X109036135Y-130181586D01*
X109036131Y-130181589D01*
X109036128Y-130181593D01*
X109036125Y-130181597D01*
X108907635Y-130351743D01*
X108907630Y-130351752D01*
X108812596Y-130542608D01*
X108754244Y-130747688D01*
X108747925Y-130815882D01*
X108734571Y-130960000D01*
X108754244Y-131172310D01*
X108812595Y-131377389D01*
X108907634Y-131568255D01*
X109036128Y-131738407D01*
X109036135Y-131738413D01*
X109193692Y-131882047D01*
X109193699Y-131882053D01*
X109297389Y-131946255D01*
X109374981Y-131994298D01*
X109573802Y-132071321D01*
X109783390Y-132110500D01*
X109996610Y-132110500D01*
X110206198Y-132071321D01*
X110405019Y-131994298D01*
X110586302Y-131882052D01*
X110743872Y-131738407D01*
X110872366Y-131568255D01*
X110967405Y-131377389D01*
X111025756Y-131172310D01*
X111045429Y-130960000D01*
X111025756Y-130747690D01*
X110967405Y-130542611D01*
X110967401Y-130542604D01*
X110965752Y-130538344D01*
X110967132Y-130537809D01*
X110959019Y-130483364D01*
X110986648Y-130429743D01*
X111734480Y-129681913D01*
X111765105Y-129628867D01*
X111787169Y-129590653D01*
X111787179Y-129590634D01*
X111787206Y-129590588D01*
X111787207Y-129590587D01*
X111814500Y-129488727D01*
X111814500Y-120594873D01*
X111787207Y-120493013D01*
X111787207Y-120493012D01*
X111787207Y-120493011D01*
X111734483Y-120401691D01*
X111734479Y-120401686D01*
X111432297Y-120099503D01*
X111404520Y-120044987D01*
X111414091Y-119984555D01*
X111457356Y-119941290D01*
X111502301Y-119930500D01*
X113710929Y-119930500D01*
X113769120Y-119949407D01*
X113777687Y-119956723D01*
X113779716Y-119958280D01*
X113779718Y-119958282D01*
X113905159Y-120054536D01*
X113905160Y-120054536D01*
X113905161Y-120054537D01*
X114013719Y-120099503D01*
X114051238Y-120115044D01*
X114168809Y-120130522D01*
X114207999Y-120135682D01*
X114208000Y-120135682D01*
X114208001Y-120135682D01*
X114239352Y-120131554D01*
X114364762Y-120115044D01*
X114510841Y-120054536D01*
X114636282Y-119958282D01*
X114732536Y-119832841D01*
X114793044Y-119686762D01*
X114813682Y-119530000D01*
X114793044Y-119373238D01*
X114732537Y-119227161D01*
X114732537Y-119227160D01*
X114636284Y-119101721D01*
X114636282Y-119101718D01*
X114636277Y-119101714D01*
X114636276Y-119101713D01*
X114510838Y-119005462D01*
X114364766Y-118944957D01*
X114364758Y-118944955D01*
X114208001Y-118924318D01*
X114207999Y-118924318D01*
X114051241Y-118944955D01*
X114051233Y-118944957D01*
X113905161Y-119005462D01*
X113905160Y-119005462D01*
X113774570Y-119105668D01*
X113773509Y-119104286D01*
X113726416Y-119128281D01*
X113710929Y-119129500D01*
X111366901Y-119129500D01*
X111308710Y-119110593D01*
X111296897Y-119100504D01*
X110986650Y-118790257D01*
X110958873Y-118735740D01*
X110967111Y-118682182D01*
X110965752Y-118681656D01*
X110967400Y-118677398D01*
X110967405Y-118677389D01*
X111025756Y-118472310D01*
X111045429Y-118260000D01*
X111025756Y-118047690D01*
X110967405Y-117842611D01*
X110872366Y-117651745D01*
X110743872Y-117481593D01*
X110659185Y-117404390D01*
X110586307Y-117337952D01*
X110586300Y-117337946D01*
X110405024Y-117225705D01*
X110405019Y-117225702D01*
X110325016Y-117194709D01*
X110206198Y-117148679D01*
X110206197Y-117148678D01*
X110206195Y-117148678D01*
X109996610Y-117109500D01*
X109783390Y-117109500D01*
X109573804Y-117148678D01*
X109374980Y-117225702D01*
X109374975Y-117225705D01*
X109193699Y-117337946D01*
X109193692Y-117337952D01*
X109036135Y-117481586D01*
X109036131Y-117481589D01*
X109036128Y-117481593D01*
X109036125Y-117481597D01*
X108907635Y-117651743D01*
X108907630Y-117651752D01*
X108812596Y-117842608D01*
X108754244Y-118047688D01*
X108738495Y-118217651D01*
X108714299Y-118273849D01*
X108661691Y-118305092D01*
X108600767Y-118299446D01*
X108569913Y-118278520D01*
X108414496Y-118123103D01*
X108386719Y-118068586D01*
X108385500Y-118053099D01*
X108385500Y-115720000D01*
X108734571Y-115720000D01*
X108754244Y-115932310D01*
X108812595Y-116137389D01*
X108907634Y-116328255D01*
X109036128Y-116498407D01*
X109036135Y-116498413D01*
X109193692Y-116642047D01*
X109193699Y-116642053D01*
X109238060Y-116669520D01*
X109374981Y-116754298D01*
X109573802Y-116831321D01*
X109783390Y-116870500D01*
X109996610Y-116870500D01*
X110206198Y-116831321D01*
X110405019Y-116754298D01*
X110586302Y-116642052D01*
X110743872Y-116498407D01*
X110872366Y-116328255D01*
X110967405Y-116137389D01*
X111025756Y-115932310D01*
X111045429Y-115720000D01*
X111025756Y-115507690D01*
X110967405Y-115302611D01*
X110872366Y-115111745D01*
X110743872Y-114941593D01*
X110670730Y-114874915D01*
X110586307Y-114797952D01*
X110586300Y-114797946D01*
X110405024Y-114685705D01*
X110405019Y-114685702D01*
X110325016Y-114654709D01*
X110206198Y-114608679D01*
X110206197Y-114608678D01*
X110206195Y-114608678D01*
X109996610Y-114569500D01*
X109783390Y-114569500D01*
X109573804Y-114608678D01*
X109374980Y-114685702D01*
X109374975Y-114685705D01*
X109193699Y-114797946D01*
X109193692Y-114797952D01*
X109036135Y-114941586D01*
X109036131Y-114941589D01*
X109036128Y-114941593D01*
X109036125Y-114941597D01*
X108907635Y-115111743D01*
X108907630Y-115111752D01*
X108812596Y-115302608D01*
X108754244Y-115507688D01*
X108742735Y-115631893D01*
X108734571Y-115720000D01*
X108385500Y-115720000D01*
X108385500Y-115032274D01*
X108385500Y-115032273D01*
X108358207Y-114930413D01*
X108358207Y-114930412D01*
X108358207Y-114930411D01*
X108305483Y-114839091D01*
X108305482Y-114839090D01*
X108305481Y-114839089D01*
X108305480Y-114839087D01*
X107137336Y-113670943D01*
X107109559Y-113616426D01*
X107112118Y-113573848D01*
X107166397Y-113383083D01*
X107185215Y-113180000D01*
X107166397Y-112976917D01*
X107110582Y-112780750D01*
X107019673Y-112598179D01*
X106896764Y-112435421D01*
X106746041Y-112298019D01*
X106572637Y-112190652D01*
X106382456Y-112116976D01*
X106382455Y-112116975D01*
X106382453Y-112116975D01*
X106181976Y-112079500D01*
X105978024Y-112079500D01*
X105777546Y-112116975D01*
X105737353Y-112132546D01*
X105587363Y-112190652D01*
X105478676Y-112257948D01*
X105413959Y-112298019D01*
X105263237Y-112435420D01*
X105140328Y-112598177D01*
X105140323Y-112598186D01*
X105058450Y-112762611D01*
X105049418Y-112780750D01*
X104993603Y-112976917D01*
X104974785Y-113180000D01*
X101100500Y-113180000D01*
X101100500Y-110640000D01*
X104974785Y-110640000D01*
X104993603Y-110843083D01*
X105049418Y-111039250D01*
X105140327Y-111221821D01*
X105263236Y-111384579D01*
X105413959Y-111521981D01*
X105587363Y-111629348D01*
X105777544Y-111703024D01*
X105978024Y-111740500D01*
X106181976Y-111740500D01*
X106382456Y-111703024D01*
X106572637Y-111629348D01*
X106746041Y-111521981D01*
X106896764Y-111384579D01*
X107019673Y-111221821D01*
X107082637Y-111095371D01*
X107125500Y-111051709D01*
X107171258Y-111040500D01*
X107778099Y-111040500D01*
X107836290Y-111059407D01*
X107848103Y-111069496D01*
X109009087Y-112230480D01*
X109009089Y-112230481D01*
X109023316Y-112238695D01*
X109064257Y-112284164D01*
X109070654Y-112345014D01*
X109040521Y-112397587D01*
X109036130Y-112401590D01*
X109036128Y-112401592D01*
X108907640Y-112571736D01*
X108907630Y-112571752D01*
X108812596Y-112762608D01*
X108754244Y-112967688D01*
X108754244Y-112967690D01*
X108734571Y-113180000D01*
X108754244Y-113392310D01*
X108812595Y-113597389D01*
X108907634Y-113788255D01*
X109036128Y-113958407D01*
X109036135Y-113958413D01*
X109193692Y-114102047D01*
X109193699Y-114102053D01*
X109238060Y-114129520D01*
X109374981Y-114214298D01*
X109573802Y-114291321D01*
X109783390Y-114330500D01*
X109996610Y-114330500D01*
X110206198Y-114291321D01*
X110405019Y-114214298D01*
X110586302Y-114102052D01*
X110743872Y-113958407D01*
X110872366Y-113788255D01*
X110967405Y-113597389D01*
X111025756Y-113392310D01*
X111041505Y-113222346D01*
X111065700Y-113166151D01*
X111118307Y-113134907D01*
X111179231Y-113140553D01*
X111210086Y-113161479D01*
X115175504Y-117126897D01*
X115203281Y-117181414D01*
X115204500Y-117196901D01*
X115204500Y-121382273D01*
X115204500Y-121487727D01*
X115219733Y-121544579D01*
X115231794Y-121589592D01*
X115284516Y-121680908D01*
X115284517Y-121680909D01*
X115284518Y-121680910D01*
X115284520Y-121680913D01*
X115850539Y-122246932D01*
X116413348Y-122809741D01*
X116441125Y-122864258D01*
X116432904Y-122917818D01*
X116434249Y-122918339D01*
X116432598Y-122922598D01*
X116374244Y-123127688D01*
X116374244Y-123127690D01*
X116354571Y-123340000D01*
X116374244Y-123552310D01*
X116432595Y-123757389D01*
X116527634Y-123948255D01*
X116656128Y-124118407D01*
X116722388Y-124178811D01*
X116813692Y-124262047D01*
X116813699Y-124262053D01*
X116917389Y-124326255D01*
X116994981Y-124374298D01*
X117193802Y-124451321D01*
X117403390Y-124490500D01*
X117616610Y-124490500D01*
X117826198Y-124451321D01*
X118025019Y-124374298D01*
X118206302Y-124262052D01*
X118363872Y-124118407D01*
X118492366Y-123948255D01*
X118587405Y-123757389D01*
X118645756Y-123552310D01*
X118665429Y-123340000D01*
X118645756Y-123127690D01*
X118587405Y-122922611D01*
X118492366Y-122731745D01*
X118363872Y-122561593D01*
X118297611Y-122501188D01*
X118206307Y-122417952D01*
X118206300Y-122417946D01*
X118025024Y-122305705D01*
X118025019Y-122305702D01*
X117939657Y-122272633D01*
X117826198Y-122228679D01*
X117826197Y-122228678D01*
X117826195Y-122228678D01*
X117616610Y-122189500D01*
X117403390Y-122189500D01*
X117193802Y-122228678D01*
X117089091Y-122269243D01*
X117028000Y-122272633D01*
X116983325Y-122246932D01*
X116034496Y-121298103D01*
X116006719Y-121243586D01*
X116005500Y-121228099D01*
X116005500Y-116937274D01*
X116005500Y-116937273D01*
X115978207Y-116835412D01*
X115978205Y-116835409D01*
X115978205Y-116835407D01*
X115925483Y-116744091D01*
X115925481Y-116744089D01*
X115925480Y-116744087D01*
X110770913Y-111589520D01*
X110770910Y-111589518D01*
X110756680Y-111581302D01*
X110715739Y-111535831D01*
X110709345Y-111474981D01*
X110739489Y-111422401D01*
X110743872Y-111418407D01*
X110872366Y-111248255D01*
X110967405Y-111057389D01*
X111025756Y-110852310D01*
X111045429Y-110640000D01*
X111025756Y-110427690D01*
X110967405Y-110222611D01*
X110872366Y-110031745D01*
X110743872Y-109861593D01*
X110689623Y-109812139D01*
X110586307Y-109717952D01*
X110586300Y-109717946D01*
X110405024Y-109605705D01*
X110405019Y-109605702D01*
X110319657Y-109572633D01*
X110206198Y-109528679D01*
X110206197Y-109528678D01*
X110206195Y-109528678D01*
X109996610Y-109489500D01*
X109783390Y-109489500D01*
X109573804Y-109528678D01*
X109374980Y-109605702D01*
X109374975Y-109605705D01*
X109193699Y-109717946D01*
X109193692Y-109717952D01*
X109036135Y-109861586D01*
X109036131Y-109861589D01*
X109036128Y-109861593D01*
X109036125Y-109861597D01*
X108907635Y-110031743D01*
X108907630Y-110031752D01*
X108812596Y-110222608D01*
X108754244Y-110427688D01*
X108738495Y-110597651D01*
X108714299Y-110653849D01*
X108661691Y-110685092D01*
X108600767Y-110679446D01*
X108569914Y-110658520D01*
X108230913Y-110319520D01*
X108230908Y-110319516D01*
X108139591Y-110266794D01*
X108139593Y-110266794D01*
X108100070Y-110256204D01*
X108037727Y-110239500D01*
X108037725Y-110239500D01*
X107171258Y-110239500D01*
X107113067Y-110220593D01*
X107082637Y-110184628D01*
X107053821Y-110126758D01*
X107019673Y-110058179D01*
X106896764Y-109895421D01*
X106746041Y-109758019D01*
X106572637Y-109650652D01*
X106382456Y-109576976D01*
X106382455Y-109576975D01*
X106382453Y-109576975D01*
X106181976Y-109539500D01*
X105978024Y-109539500D01*
X105777546Y-109576975D01*
X105737353Y-109592546D01*
X105587363Y-109650652D01*
X105478676Y-109717948D01*
X105413959Y-109758019D01*
X105263237Y-109895420D01*
X105140328Y-110058177D01*
X105140323Y-110058186D01*
X105058450Y-110222611D01*
X105049418Y-110240750D01*
X104993603Y-110436917D01*
X104974785Y-110640000D01*
X101100500Y-110640000D01*
X101100500Y-108100000D01*
X104974785Y-108100000D01*
X104993603Y-108303083D01*
X105049418Y-108499250D01*
X105140327Y-108681821D01*
X105263236Y-108844579D01*
X105413959Y-108981981D01*
X105587363Y-109089348D01*
X105777544Y-109163024D01*
X105978024Y-109200500D01*
X106181976Y-109200500D01*
X106382456Y-109163024D01*
X106572637Y-109089348D01*
X106746041Y-108981981D01*
X106896764Y-108844579D01*
X107019673Y-108681821D01*
X107110582Y-108499250D01*
X107166397Y-108303083D01*
X107185215Y-108100000D01*
X107166397Y-107896917D01*
X107110582Y-107700750D01*
X107019673Y-107518179D01*
X106896764Y-107355421D01*
X106746041Y-107218019D01*
X106572637Y-107110652D01*
X106382456Y-107036976D01*
X106382455Y-107036975D01*
X106382453Y-107036975D01*
X106181976Y-106999500D01*
X105978024Y-106999500D01*
X105777546Y-107036975D01*
X105737353Y-107052546D01*
X105587363Y-107110652D01*
X105413959Y-107218019D01*
X105263236Y-107355421D01*
X105223388Y-107408188D01*
X105140328Y-107518177D01*
X105140323Y-107518186D01*
X105058450Y-107682611D01*
X105049418Y-107700750D01*
X104993603Y-107896917D01*
X104974785Y-108100000D01*
X101100500Y-108100000D01*
X101100500Y-80907273D01*
X103101500Y-80907273D01*
X103101500Y-100389273D01*
X103101500Y-100494727D01*
X103113770Y-100540520D01*
X103128794Y-100596592D01*
X103181516Y-100687908D01*
X103181518Y-100687910D01*
X103181520Y-100687913D01*
X104124107Y-101630500D01*
X105022663Y-102529056D01*
X105050440Y-102583573D01*
X105047880Y-102626152D01*
X104993603Y-102816915D01*
X104993603Y-102816917D01*
X104974785Y-103020000D01*
X104993603Y-103223083D01*
X105049418Y-103419250D01*
X105140327Y-103601821D01*
X105263236Y-103764579D01*
X105413959Y-103901981D01*
X105587363Y-104009348D01*
X105777544Y-104083024D01*
X105978024Y-104120500D01*
X106181976Y-104120500D01*
X106382456Y-104083024D01*
X106572637Y-104009348D01*
X106746041Y-103901981D01*
X106896764Y-103764579D01*
X107019673Y-103601821D01*
X107019682Y-103601801D01*
X107020324Y-103600768D01*
X107020721Y-103600431D01*
X107022431Y-103598168D01*
X107022941Y-103598553D01*
X107067030Y-103561243D01*
X107128048Y-103556719D01*
X107180071Y-103588925D01*
X107203229Y-103645559D01*
X107203500Y-103652878D01*
X107203500Y-104927121D01*
X107184593Y-104985312D01*
X107135093Y-105021276D01*
X107073907Y-105021276D01*
X107024407Y-104985312D01*
X107020329Y-104979239D01*
X107019676Y-104978186D01*
X107019673Y-104978179D01*
X106896764Y-104815421D01*
X106746041Y-104678019D01*
X106572637Y-104570652D01*
X106382456Y-104496976D01*
X106382455Y-104496975D01*
X106382453Y-104496975D01*
X106181976Y-104459500D01*
X105978024Y-104459500D01*
X105777546Y-104496975D01*
X105737353Y-104512546D01*
X105587363Y-104570652D01*
X105428532Y-104668996D01*
X105413959Y-104678019D01*
X105263237Y-104815420D01*
X105140328Y-104978177D01*
X105140323Y-104978186D01*
X105058450Y-105142611D01*
X105049418Y-105160750D01*
X104993603Y-105356917D01*
X104974785Y-105560000D01*
X104993603Y-105763083D01*
X105049418Y-105959250D01*
X105140327Y-106141821D01*
X105263236Y-106304579D01*
X105413959Y-106441981D01*
X105587363Y-106549348D01*
X105777544Y-106623024D01*
X105978024Y-106660500D01*
X106181976Y-106660500D01*
X106382456Y-106623024D01*
X106572637Y-106549348D01*
X106746041Y-106441981D01*
X106896764Y-106304579D01*
X107019673Y-106141821D01*
X107081576Y-106017501D01*
X107124437Y-105973841D01*
X107184778Y-105963711D01*
X107239549Y-105990983D01*
X107255932Y-106012131D01*
X107283516Y-106059908D01*
X107283517Y-106059909D01*
X107283518Y-106059910D01*
X107283520Y-106059913D01*
X108045517Y-106821910D01*
X108793348Y-107569741D01*
X108821125Y-107624258D01*
X108812904Y-107677818D01*
X108814249Y-107678339D01*
X108812598Y-107682598D01*
X108754244Y-107887688D01*
X108734571Y-108100000D01*
X108748350Y-108248708D01*
X108754244Y-108312310D01*
X108812595Y-108517389D01*
X108907634Y-108708255D01*
X109036128Y-108878407D01*
X109036135Y-108878413D01*
X109193692Y-109022047D01*
X109193699Y-109022053D01*
X109297389Y-109086255D01*
X109374981Y-109134298D01*
X109573802Y-109211321D01*
X109783390Y-109250500D01*
X109996610Y-109250500D01*
X110206198Y-109211321D01*
X110405019Y-109134298D01*
X110586302Y-109022052D01*
X110743872Y-108878407D01*
X110872366Y-108708255D01*
X110967405Y-108517389D01*
X111025756Y-108312310D01*
X111045429Y-108100000D01*
X111025756Y-107887690D01*
X110967405Y-107682611D01*
X110872366Y-107491745D01*
X110743872Y-107321593D01*
X110674424Y-107258282D01*
X110586307Y-107177952D01*
X110586300Y-107177946D01*
X110405024Y-107065705D01*
X110405019Y-107065702D01*
X110319657Y-107032633D01*
X110206198Y-106988679D01*
X110206197Y-106988678D01*
X110206195Y-106988678D01*
X109996610Y-106949500D01*
X109783390Y-106949500D01*
X109573802Y-106988678D01*
X109469091Y-107029243D01*
X109408000Y-107032633D01*
X109363325Y-107006932D01*
X108033496Y-105677103D01*
X108005719Y-105622586D01*
X108004500Y-105607099D01*
X108004500Y-104479900D01*
X108023407Y-104421709D01*
X108072907Y-104385745D01*
X108134093Y-104385745D01*
X108173503Y-104409895D01*
X108485779Y-104722172D01*
X108793348Y-105029741D01*
X108821125Y-105084258D01*
X108812904Y-105137818D01*
X108814249Y-105138339D01*
X108812598Y-105142598D01*
X108754244Y-105347688D01*
X108734571Y-105560000D01*
X108754244Y-105772311D01*
X108771766Y-105833893D01*
X108812595Y-105977389D01*
X108907634Y-106168255D01*
X109036128Y-106338407D01*
X109062483Y-106362433D01*
X109193692Y-106482047D01*
X109193699Y-106482053D01*
X109238060Y-106509520D01*
X109374981Y-106594298D01*
X109573802Y-106671321D01*
X109783390Y-106710500D01*
X109996610Y-106710500D01*
X110206198Y-106671321D01*
X110405019Y-106594298D01*
X110586302Y-106482052D01*
X110743872Y-106338407D01*
X110872366Y-106168255D01*
X110967405Y-105977389D01*
X111025756Y-105772310D01*
X111045429Y-105560000D01*
X111025756Y-105347690D01*
X110967405Y-105142611D01*
X110872366Y-104951745D01*
X110743872Y-104781593D01*
X110678691Y-104722172D01*
X110586307Y-104637952D01*
X110586300Y-104637946D01*
X110405024Y-104525705D01*
X110405019Y-104525702D01*
X110319657Y-104492633D01*
X110206198Y-104448679D01*
X110206197Y-104448678D01*
X110206195Y-104448678D01*
X109996610Y-104409500D01*
X109783390Y-104409500D01*
X109573802Y-104448678D01*
X109469091Y-104489243D01*
X109408000Y-104492633D01*
X109363325Y-104466932D01*
X108668496Y-103772103D01*
X108640719Y-103717586D01*
X108639500Y-103702099D01*
X108639500Y-103510689D01*
X108658407Y-103452498D01*
X108707907Y-103416534D01*
X108769093Y-103416534D01*
X108818593Y-103452498D01*
X108827121Y-103466561D01*
X108907630Y-103628248D01*
X108907632Y-103628252D01*
X108907634Y-103628255D01*
X109036128Y-103798407D01*
X109036135Y-103798413D01*
X109193692Y-103942047D01*
X109193699Y-103942053D01*
X109268544Y-103988395D01*
X109374981Y-104054298D01*
X109573802Y-104131321D01*
X109783390Y-104170500D01*
X109996610Y-104170500D01*
X110206198Y-104131321D01*
X110405019Y-104054298D01*
X110586302Y-103942052D01*
X110743872Y-103798407D01*
X110872366Y-103628255D01*
X110967405Y-103437389D01*
X111025756Y-103232310D01*
X111045429Y-103020000D01*
X111025756Y-102807690D01*
X110967405Y-102602611D01*
X110967401Y-102602604D01*
X110965752Y-102598344D01*
X110967132Y-102597809D01*
X110959019Y-102543364D01*
X110986648Y-102489743D01*
X111734480Y-101741913D01*
X111765105Y-101688867D01*
X111787169Y-101650653D01*
X111787179Y-101650634D01*
X111787206Y-101650588D01*
X111787207Y-101650587D01*
X111814500Y-101548727D01*
X111814500Y-100173273D01*
X111787207Y-100071413D01*
X111787207Y-100071412D01*
X111787207Y-100071411D01*
X111734483Y-99980091D01*
X111734481Y-99980089D01*
X111734480Y-99980087D01*
X110643913Y-98889520D01*
X110643910Y-98889518D01*
X110643908Y-98889516D01*
X110552591Y-98836794D01*
X110552593Y-98836794D01*
X110513070Y-98826204D01*
X110450727Y-98809500D01*
X110450725Y-98809500D01*
X109461901Y-98809500D01*
X109403710Y-98790593D01*
X109391897Y-98780504D01*
X108306496Y-97695103D01*
X108278719Y-97640586D01*
X108277500Y-97625099D01*
X108277500Y-92860000D01*
X108734571Y-92860000D01*
X108754244Y-93072310D01*
X108812595Y-93277389D01*
X108907634Y-93468255D01*
X109036128Y-93638407D01*
X109036135Y-93638413D01*
X109193692Y-93782047D01*
X109193699Y-93782053D01*
X109297389Y-93846255D01*
X109374981Y-93894298D01*
X109573802Y-93971321D01*
X109783390Y-94010500D01*
X109996610Y-94010500D01*
X110206198Y-93971321D01*
X110310908Y-93930755D01*
X110371998Y-93927366D01*
X110416674Y-93953067D01*
X112000504Y-95536897D01*
X112028281Y-95591414D01*
X112029500Y-95606901D01*
X112029500Y-96553929D01*
X112010593Y-96612120D01*
X112003273Y-96620690D01*
X111930371Y-96715697D01*
X111879947Y-96750352D01*
X111818782Y-96748750D01*
X111781826Y-96725433D01*
X110986650Y-95930257D01*
X110958873Y-95875740D01*
X110967111Y-95822182D01*
X110965752Y-95821656D01*
X110967400Y-95817398D01*
X110967405Y-95817389D01*
X111025756Y-95612310D01*
X111045429Y-95400000D01*
X111025756Y-95187690D01*
X110967405Y-94982611D01*
X110872366Y-94791745D01*
X110743872Y-94621593D01*
X110637189Y-94524338D01*
X110586307Y-94477952D01*
X110586300Y-94477946D01*
X110405024Y-94365705D01*
X110405019Y-94365702D01*
X110206195Y-94288678D01*
X109996610Y-94249500D01*
X109783390Y-94249500D01*
X109573804Y-94288678D01*
X109374980Y-94365702D01*
X109374975Y-94365705D01*
X109193699Y-94477946D01*
X109193692Y-94477952D01*
X109036135Y-94621586D01*
X109036131Y-94621589D01*
X109036128Y-94621593D01*
X109036125Y-94621597D01*
X108907635Y-94791743D01*
X108907630Y-94791752D01*
X108812596Y-94982608D01*
X108754244Y-95187688D01*
X108734571Y-95400000D01*
X108754244Y-95612311D01*
X108757764Y-95624682D01*
X108812595Y-95817389D01*
X108907634Y-96008255D01*
X109036128Y-96178407D01*
X109036135Y-96178413D01*
X109193692Y-96322047D01*
X109193699Y-96322053D01*
X109222930Y-96340152D01*
X109374981Y-96434298D01*
X109573802Y-96511321D01*
X109783390Y-96550500D01*
X109996610Y-96550500D01*
X110206198Y-96511321D01*
X110310908Y-96470755D01*
X110371998Y-96467366D01*
X110416674Y-96493067D01*
X112127504Y-98203896D01*
X112155281Y-98258413D01*
X112156500Y-98273900D01*
X112156500Y-107920273D01*
X112156500Y-108025727D01*
X112176401Y-108100000D01*
X112183794Y-108127591D01*
X112195176Y-108147306D01*
X112207895Y-108207155D01*
X112207592Y-108209720D01*
X112205318Y-108227000D01*
X112225955Y-108383758D01*
X112225957Y-108383766D01*
X112286462Y-108529838D01*
X112286462Y-108529839D01*
X112286464Y-108529841D01*
X112382718Y-108655282D01*
X112508159Y-108751536D01*
X112654238Y-108812044D01*
X112771809Y-108827522D01*
X112810999Y-108832682D01*
X112811000Y-108832682D01*
X112811001Y-108832682D01*
X112842352Y-108828554D01*
X112967762Y-108812044D01*
X113113841Y-108751536D01*
X113239282Y-108655282D01*
X113335536Y-108529841D01*
X113396044Y-108383762D01*
X113416682Y-108227000D01*
X113396044Y-108070238D01*
X113335537Y-107924161D01*
X113335537Y-107924160D01*
X113239286Y-107798723D01*
X113239285Y-107798722D01*
X113239282Y-107798718D01*
X113239277Y-107798714D01*
X113239276Y-107798713D01*
X113185897Y-107757754D01*
X113113841Y-107702464D01*
X113113839Y-107702463D01*
X113018614Y-107663019D01*
X112972088Y-107623282D01*
X112957500Y-107571555D01*
X112957500Y-98127714D01*
X112957501Y-98127701D01*
X112957501Y-98014275D01*
X112957501Y-98014273D01*
X112930207Y-97912413D01*
X112915692Y-97887273D01*
X112877480Y-97821087D01*
X112802913Y-97746520D01*
X112802910Y-97746518D01*
X112755565Y-97699173D01*
X112727788Y-97644656D01*
X112737359Y-97584224D01*
X112765300Y-97550629D01*
X112858282Y-97479282D01*
X112954536Y-97353841D01*
X113015044Y-97207762D01*
X113035682Y-97051000D01*
X113015044Y-96894238D01*
X113007894Y-96876976D01*
X112954537Y-96748161D01*
X112954537Y-96748160D01*
X112854332Y-96617570D01*
X112855713Y-96616509D01*
X112831719Y-96569416D01*
X112830500Y-96553929D01*
X112830500Y-95347274D01*
X112830500Y-95347273D01*
X112803207Y-95245413D01*
X112750480Y-95154087D01*
X112675913Y-95079519D01*
X112675913Y-95079520D01*
X110986650Y-93390257D01*
X110958873Y-93335740D01*
X110967111Y-93282182D01*
X110965752Y-93281656D01*
X110967400Y-93277398D01*
X110967405Y-93277389D01*
X111025756Y-93072310D01*
X111045429Y-92860000D01*
X111025756Y-92647690D01*
X110967405Y-92442611D01*
X110872366Y-92251745D01*
X110743872Y-92081593D01*
X110689623Y-92032139D01*
X110586307Y-91937952D01*
X110586300Y-91937946D01*
X110405024Y-91825705D01*
X110405019Y-91825702D01*
X110245648Y-91763962D01*
X110206198Y-91748679D01*
X110206197Y-91748678D01*
X110206195Y-91748678D01*
X109996610Y-91709500D01*
X109783390Y-91709500D01*
X109573804Y-91748678D01*
X109374980Y-91825702D01*
X109374975Y-91825705D01*
X109193699Y-91937946D01*
X109193692Y-91937952D01*
X109036135Y-92081586D01*
X109036131Y-92081589D01*
X109036128Y-92081593D01*
X109036125Y-92081597D01*
X108907635Y-92251743D01*
X108907630Y-92251752D01*
X108867701Y-92331942D01*
X108812595Y-92442611D01*
X108807435Y-92460747D01*
X108754244Y-92647688D01*
X108754244Y-92647690D01*
X108734571Y-92860000D01*
X108277500Y-92860000D01*
X108277500Y-86984274D01*
X108277500Y-86984273D01*
X108250207Y-86882413D01*
X108250207Y-86882412D01*
X108223843Y-86836750D01*
X108197480Y-86791087D01*
X108122913Y-86716520D01*
X108122910Y-86716518D01*
X107635739Y-86229347D01*
X107137336Y-85730943D01*
X107109559Y-85676426D01*
X107112118Y-85633848D01*
X107166397Y-85443083D01*
X107185215Y-85240000D01*
X107166397Y-85036917D01*
X107110582Y-84840750D01*
X107019673Y-84658179D01*
X106896764Y-84495421D01*
X106746041Y-84358019D01*
X106572637Y-84250652D01*
X106382456Y-84176976D01*
X106382455Y-84176975D01*
X106382453Y-84176975D01*
X106181976Y-84139500D01*
X105978024Y-84139500D01*
X105777546Y-84176975D01*
X105707632Y-84204059D01*
X105587363Y-84250652D01*
X105413959Y-84358019D01*
X105263236Y-84495421D01*
X105252004Y-84510295D01*
X105140328Y-84658177D01*
X105140323Y-84658186D01*
X105058450Y-84822611D01*
X105049418Y-84840750D01*
X104993603Y-85036917D01*
X104974785Y-85240000D01*
X104993603Y-85443083D01*
X105049418Y-85639250D01*
X105140327Y-85821821D01*
X105263236Y-85984579D01*
X105413959Y-86121981D01*
X105587363Y-86229348D01*
X105777544Y-86303024D01*
X105978024Y-86340500D01*
X106181976Y-86340500D01*
X106382456Y-86303024D01*
X106462258Y-86272107D01*
X106523350Y-86268717D01*
X106568026Y-86294418D01*
X107447504Y-87173896D01*
X107475281Y-87228413D01*
X107476500Y-87243900D01*
X107476500Y-88371099D01*
X107457593Y-88429290D01*
X107408093Y-88465254D01*
X107346907Y-88465254D01*
X107307496Y-88441103D01*
X107137336Y-88270943D01*
X107109559Y-88216426D01*
X107112118Y-88173848D01*
X107166397Y-87983083D01*
X107185215Y-87780000D01*
X107166397Y-87576917D01*
X107110582Y-87380750D01*
X107019673Y-87198179D01*
X106896764Y-87035421D01*
X106746041Y-86898019D01*
X106572637Y-86790652D01*
X106382456Y-86716976D01*
X106382455Y-86716975D01*
X106382453Y-86716975D01*
X106181976Y-86679500D01*
X105978024Y-86679500D01*
X105777546Y-86716975D01*
X105707632Y-86744059D01*
X105587363Y-86790652D01*
X105413959Y-86898019D01*
X105263236Y-87035421D01*
X105252004Y-87050295D01*
X105140328Y-87198177D01*
X105140323Y-87198186D01*
X105058450Y-87362611D01*
X105049418Y-87380750D01*
X104993603Y-87576917D01*
X104974785Y-87780000D01*
X104993603Y-87983083D01*
X105049418Y-88179250D01*
X105140327Y-88361821D01*
X105263236Y-88524579D01*
X105413959Y-88661981D01*
X105587363Y-88769348D01*
X105777544Y-88843024D01*
X105978024Y-88880500D01*
X106181976Y-88880500D01*
X106382456Y-88843024D01*
X106462259Y-88812107D01*
X106523351Y-88808718D01*
X106568026Y-88834419D01*
X107047504Y-89313897D01*
X107075281Y-89368414D01*
X107076500Y-89383901D01*
X107076500Y-89518055D01*
X107057593Y-89576246D01*
X107008093Y-89612210D01*
X106946907Y-89612210D01*
X106899924Y-89578732D01*
X106899847Y-89578803D01*
X106899521Y-89578446D01*
X106898497Y-89577716D01*
X106897387Y-89576246D01*
X106896764Y-89575421D01*
X106746041Y-89438019D01*
X106572637Y-89330652D01*
X106382456Y-89256976D01*
X106382455Y-89256975D01*
X106382453Y-89256975D01*
X106181976Y-89219500D01*
X105978024Y-89219500D01*
X105777546Y-89256975D01*
X105707632Y-89284059D01*
X105587363Y-89330652D01*
X105413959Y-89438019D01*
X105263236Y-89575421D01*
X105260952Y-89578446D01*
X105140328Y-89738177D01*
X105140323Y-89738186D01*
X105058450Y-89902611D01*
X105049418Y-89920750D01*
X104993603Y-90116917D01*
X104974785Y-90320000D01*
X104993603Y-90523083D01*
X105049418Y-90719250D01*
X105140327Y-90901821D01*
X105263236Y-91064579D01*
X105413959Y-91201981D01*
X105587363Y-91309348D01*
X105777544Y-91383024D01*
X105978024Y-91420500D01*
X106181976Y-91420500D01*
X106382456Y-91383024D01*
X106572637Y-91309348D01*
X106746041Y-91201981D01*
X106896764Y-91064579D01*
X106898494Y-91062287D01*
X106899482Y-91061596D01*
X106899847Y-91061197D01*
X106899937Y-91061279D01*
X106948645Y-91027242D01*
X107009820Y-91028368D01*
X107058650Y-91065237D01*
X107076500Y-91121944D01*
X107076500Y-92058055D01*
X107057593Y-92116246D01*
X107008093Y-92152210D01*
X106946907Y-92152210D01*
X106899924Y-92118732D01*
X106899847Y-92118803D01*
X106899521Y-92118446D01*
X106898497Y-92117716D01*
X106897387Y-92116246D01*
X106896764Y-92115421D01*
X106746041Y-91978019D01*
X106572637Y-91870652D01*
X106382456Y-91796976D01*
X106382455Y-91796975D01*
X106382453Y-91796975D01*
X106181976Y-91759500D01*
X105978024Y-91759500D01*
X105777546Y-91796975D01*
X105707632Y-91824059D01*
X105587363Y-91870652D01*
X105478676Y-91937948D01*
X105413959Y-91978019D01*
X105263967Y-92114755D01*
X105263236Y-92115421D01*
X105242212Y-92143261D01*
X105140328Y-92278177D01*
X105140323Y-92278186D01*
X105049419Y-92460747D01*
X105049418Y-92460750D01*
X104993603Y-92656917D01*
X104974785Y-92860000D01*
X104993603Y-93063083D01*
X105049418Y-93259250D01*
X105140327Y-93441821D01*
X105263236Y-93604579D01*
X105413959Y-93741981D01*
X105587363Y-93849348D01*
X105777544Y-93923024D01*
X105978024Y-93960500D01*
X106181976Y-93960500D01*
X106382456Y-93923024D01*
X106572637Y-93849348D01*
X106746041Y-93741981D01*
X106896764Y-93604579D01*
X106898494Y-93602287D01*
X106899482Y-93601596D01*
X106899847Y-93601197D01*
X106899937Y-93601279D01*
X106948645Y-93567242D01*
X107009820Y-93568368D01*
X107058650Y-93605237D01*
X107076500Y-93661944D01*
X107076500Y-94598055D01*
X107057593Y-94656246D01*
X107008093Y-94692210D01*
X106946907Y-94692210D01*
X106899924Y-94658732D01*
X106899847Y-94658803D01*
X106899521Y-94658446D01*
X106898497Y-94657716D01*
X106897387Y-94656246D01*
X106896764Y-94655421D01*
X106746041Y-94518019D01*
X106572637Y-94410652D01*
X106382456Y-94336976D01*
X106382455Y-94336975D01*
X106382453Y-94336975D01*
X106181976Y-94299500D01*
X105978024Y-94299500D01*
X105777546Y-94336975D01*
X105707632Y-94364059D01*
X105587363Y-94410652D01*
X105430977Y-94507482D01*
X105413959Y-94518019D01*
X105263967Y-94654755D01*
X105263236Y-94655421D01*
X105256704Y-94664071D01*
X105140328Y-94818177D01*
X105140323Y-94818186D01*
X105058450Y-94982611D01*
X105049418Y-95000750D01*
X104993603Y-95196917D01*
X104974785Y-95400000D01*
X104993603Y-95603083D01*
X105049418Y-95799250D01*
X105140327Y-95981821D01*
X105263236Y-96144579D01*
X105413959Y-96281981D01*
X105587363Y-96389348D01*
X105777544Y-96463024D01*
X105978024Y-96500500D01*
X106181976Y-96500500D01*
X106382456Y-96463024D01*
X106572637Y-96389348D01*
X106746041Y-96281981D01*
X106896764Y-96144579D01*
X106898494Y-96142287D01*
X106899482Y-96141596D01*
X106899847Y-96141197D01*
X106899937Y-96141279D01*
X106948645Y-96107242D01*
X107009820Y-96108368D01*
X107058650Y-96145237D01*
X107076500Y-96201944D01*
X107076500Y-97138055D01*
X107057593Y-97196246D01*
X107008093Y-97232210D01*
X106946907Y-97232210D01*
X106899924Y-97198732D01*
X106899847Y-97198803D01*
X106899521Y-97198446D01*
X106898497Y-97197716D01*
X106897387Y-97196246D01*
X106896764Y-97195421D01*
X106746041Y-97058019D01*
X106572637Y-96950652D01*
X106382456Y-96876976D01*
X106382455Y-96876975D01*
X106382453Y-96876975D01*
X106181976Y-96839500D01*
X105978024Y-96839500D01*
X105777546Y-96876975D01*
X105707632Y-96904059D01*
X105587363Y-96950652D01*
X105425297Y-97050999D01*
X105413959Y-97058019D01*
X105263967Y-97194755D01*
X105263236Y-97195421D01*
X105235894Y-97231628D01*
X105140328Y-97358177D01*
X105140323Y-97358186D01*
X105080023Y-97479286D01*
X105049418Y-97540750D01*
X105031111Y-97605092D01*
X104993603Y-97736917D01*
X104985221Y-97827377D01*
X104961025Y-97883575D01*
X104908417Y-97914818D01*
X104847493Y-97909172D01*
X104816639Y-97888246D01*
X104731496Y-97803103D01*
X104703719Y-97748586D01*
X104702500Y-97733099D01*
X104702500Y-84684899D01*
X104721407Y-84626708D01*
X104731490Y-84614901D01*
X105591974Y-83754416D01*
X105646489Y-83726641D01*
X105697738Y-83732106D01*
X105777544Y-83763024D01*
X105978024Y-83800500D01*
X106181976Y-83800500D01*
X106382456Y-83763024D01*
X106572637Y-83689348D01*
X106746041Y-83581981D01*
X106896764Y-83444579D01*
X107019673Y-83281821D01*
X107110582Y-83099250D01*
X107166397Y-82903083D01*
X107185215Y-82700000D01*
X108734571Y-82700000D01*
X108754244Y-82912310D01*
X108812595Y-83117389D01*
X108907634Y-83308255D01*
X109036128Y-83478407D01*
X109036135Y-83478413D01*
X109193692Y-83622047D01*
X109193699Y-83622053D01*
X109274525Y-83672098D01*
X109374981Y-83734298D01*
X109573802Y-83811321D01*
X109783390Y-83850500D01*
X109996610Y-83850500D01*
X110206198Y-83811321D01*
X110405019Y-83734298D01*
X110586302Y-83622052D01*
X110743872Y-83478407D01*
X110872366Y-83308255D01*
X110967405Y-83117389D01*
X111025756Y-82912310D01*
X111045429Y-82700000D01*
X111025756Y-82487690D01*
X110967405Y-82282611D01*
X110872366Y-82091745D01*
X110743872Y-81921593D01*
X110689365Y-81871903D01*
X110586307Y-81777952D01*
X110586300Y-81777946D01*
X110405024Y-81665705D01*
X110405019Y-81665702D01*
X110312548Y-81629879D01*
X110206198Y-81588679D01*
X110206197Y-81588678D01*
X110206195Y-81588678D01*
X109996610Y-81549500D01*
X109783390Y-81549500D01*
X109573804Y-81588678D01*
X109374980Y-81665702D01*
X109374975Y-81665705D01*
X109193699Y-81777946D01*
X109193692Y-81777952D01*
X109036135Y-81921586D01*
X109036131Y-81921589D01*
X109036128Y-81921593D01*
X109036125Y-81921597D01*
X108907635Y-82091743D01*
X108907630Y-82091752D01*
X108812596Y-82282608D01*
X108754244Y-82487688D01*
X108748943Y-82544900D01*
X108734571Y-82700000D01*
X107185215Y-82700000D01*
X107166397Y-82496917D01*
X107110582Y-82300750D01*
X107019673Y-82118179D01*
X106896764Y-81955421D01*
X106746041Y-81818019D01*
X106572637Y-81710652D01*
X106382456Y-81636976D01*
X106382455Y-81636975D01*
X106382453Y-81636975D01*
X106181976Y-81599500D01*
X105978024Y-81599500D01*
X105777546Y-81636975D01*
X105707632Y-81664059D01*
X105587363Y-81710652D01*
X105413959Y-81818019D01*
X105263236Y-81955421D01*
X105252004Y-81970295D01*
X105140328Y-82118177D01*
X105140323Y-82118186D01*
X105058450Y-82282611D01*
X105049418Y-82300750D01*
X104993603Y-82496917D01*
X104974785Y-82700000D01*
X104993603Y-82903083D01*
X104996229Y-82912311D01*
X105047880Y-83093845D01*
X105045619Y-83154989D01*
X105022663Y-83190942D01*
X104471504Y-83742102D01*
X104416987Y-83769879D01*
X104356555Y-83760308D01*
X104313290Y-83717043D01*
X104302500Y-83672098D01*
X104302500Y-82544900D01*
X104321407Y-82486709D01*
X104331490Y-82474902D01*
X105591975Y-81214416D01*
X105646490Y-81186641D01*
X105697735Y-81192106D01*
X105777544Y-81223024D01*
X105978024Y-81260500D01*
X106181976Y-81260500D01*
X106382456Y-81223024D01*
X106572637Y-81149348D01*
X106746041Y-81041981D01*
X106896764Y-80904579D01*
X107019673Y-80741821D01*
X107110582Y-80559250D01*
X107142486Y-80447117D01*
X107176595Y-80396324D01*
X107234047Y-80375280D01*
X107275590Y-80382747D01*
X107383738Y-80427544D01*
X107501309Y-80443022D01*
X107540499Y-80448182D01*
X107540500Y-80448182D01*
X107540501Y-80448182D01*
X107571852Y-80444054D01*
X107697262Y-80427544D01*
X107843341Y-80367036D01*
X107968782Y-80270782D01*
X108065036Y-80145341D01*
X108125544Y-79999262D01*
X108146182Y-79842500D01*
X108125544Y-79685738D01*
X108107134Y-79641293D01*
X108065037Y-79539661D01*
X108065037Y-79539660D01*
X107968786Y-79414223D01*
X107968785Y-79414222D01*
X107968782Y-79414218D01*
X107968777Y-79414214D01*
X107968776Y-79414213D01*
X107897604Y-79359601D01*
X107843341Y-79317964D01*
X107843340Y-79317963D01*
X107843338Y-79317962D01*
X107697266Y-79257457D01*
X107697258Y-79257455D01*
X107534067Y-79235971D01*
X107534294Y-79234243D01*
X107484028Y-79217911D01*
X107472215Y-79207822D01*
X107174649Y-78910256D01*
X106833913Y-78569520D01*
X106833910Y-78569518D01*
X106829991Y-78565599D01*
X106802214Y-78511082D01*
X106811785Y-78450650D01*
X106833297Y-78422436D01*
X106896764Y-78364579D01*
X107019673Y-78201821D01*
X107110582Y-78019250D01*
X107166397Y-77823083D01*
X107185215Y-77620000D01*
X107166397Y-77416917D01*
X107110582Y-77220750D01*
X107019673Y-77038179D01*
X106896764Y-76875421D01*
X106746041Y-76738019D01*
X106572637Y-76630652D01*
X106382456Y-76556976D01*
X106382455Y-76556975D01*
X106382453Y-76556975D01*
X106181976Y-76519500D01*
X105978024Y-76519500D01*
X105777546Y-76556975D01*
X105753055Y-76566463D01*
X105587363Y-76630652D01*
X105413959Y-76738019D01*
X105263236Y-76875421D01*
X105230543Y-76918714D01*
X105140328Y-77038177D01*
X105140323Y-77038186D01*
X105058450Y-77202611D01*
X105049418Y-77220750D01*
X104993603Y-77416917D01*
X104974785Y-77620000D01*
X104993603Y-77823083D01*
X105049418Y-78019250D01*
X105140327Y-78201821D01*
X105263236Y-78364579D01*
X105326701Y-78422435D01*
X105356966Y-78475608D01*
X105350195Y-78536418D01*
X105330008Y-78565599D01*
X103181516Y-80714091D01*
X103128795Y-80805406D01*
X103128793Y-80805410D01*
X103128793Y-80805412D01*
X103102222Y-80904579D01*
X103101500Y-80907273D01*
X101100500Y-80907273D01*
X101100500Y-74235130D01*
X104979500Y-74235130D01*
X104979500Y-75924860D01*
X104979501Y-75924863D01*
X104982414Y-75949990D01*
X104987709Y-75961981D01*
X105027794Y-76052765D01*
X105107235Y-76132206D01*
X105210009Y-76177585D01*
X105235135Y-76180500D01*
X106573098Y-76180499D01*
X106631289Y-76199406D01*
X106643102Y-76209495D01*
X107428504Y-76994896D01*
X107456281Y-77049413D01*
X107457500Y-77064900D01*
X107457500Y-77313273D01*
X107457500Y-77418727D01*
X107468940Y-77461422D01*
X107484794Y-77520592D01*
X107537516Y-77611908D01*
X107537517Y-77611909D01*
X107537518Y-77611910D01*
X107537520Y-77611913D01*
X108300541Y-78374934D01*
X109061519Y-79135912D01*
X109061520Y-79135913D01*
X109061519Y-79135913D01*
X109104614Y-79179007D01*
X109132392Y-79233523D01*
X109122821Y-79293955D01*
X109101308Y-79322172D01*
X109036129Y-79381591D01*
X109036128Y-79381592D01*
X108907640Y-79551736D01*
X108907630Y-79551752D01*
X108812596Y-79742608D01*
X108754244Y-79947688D01*
X108734571Y-80160000D01*
X108754244Y-80372311D01*
X108769959Y-80427542D01*
X108812595Y-80577389D01*
X108907634Y-80768255D01*
X109036128Y-80938407D01*
X109036135Y-80938413D01*
X109193692Y-81082047D01*
X109193699Y-81082053D01*
X109236750Y-81108709D01*
X109374981Y-81194298D01*
X109573802Y-81271321D01*
X109783390Y-81310500D01*
X109996610Y-81310500D01*
X110206198Y-81271321D01*
X110405019Y-81194298D01*
X110586302Y-81082052D01*
X110743872Y-80938407D01*
X110872366Y-80768255D01*
X110967405Y-80577389D01*
X111025756Y-80372310D01*
X111030735Y-80318576D01*
X111054930Y-80262381D01*
X111107537Y-80231137D01*
X111168461Y-80236783D01*
X111199316Y-80257709D01*
X111784504Y-80842897D01*
X111812281Y-80897414D01*
X111813500Y-80912901D01*
X111813500Y-86510499D01*
X111794593Y-86568690D01*
X111745093Y-86604654D01*
X111683907Y-86604654D01*
X111644496Y-86580503D01*
X111642278Y-86578285D01*
X111614501Y-86523768D01*
X111613618Y-86512554D01*
X111600123Y-86410046D01*
X111592644Y-86353238D01*
X111557634Y-86268717D01*
X111532137Y-86207161D01*
X111532137Y-86207160D01*
X111435884Y-86081721D01*
X111435882Y-86081718D01*
X111435877Y-86081714D01*
X111435876Y-86081713D01*
X111342293Y-86009905D01*
X111310441Y-85985464D01*
X111310440Y-85985463D01*
X111310438Y-85985462D01*
X111164366Y-85924957D01*
X111164358Y-85924955D01*
X111007601Y-85904318D01*
X111004340Y-85904318D01*
X111002118Y-85903596D01*
X111001167Y-85903471D01*
X111001190Y-85903294D01*
X110946149Y-85885411D01*
X110910185Y-85835911D01*
X110910185Y-85774725D01*
X110915719Y-85761190D01*
X110930780Y-85730943D01*
X110967405Y-85657389D01*
X111025756Y-85452310D01*
X111045429Y-85240000D01*
X111025756Y-85027690D01*
X110967405Y-84822611D01*
X110872366Y-84631745D01*
X110743872Y-84461593D01*
X110689365Y-84411903D01*
X110586307Y-84317952D01*
X110586300Y-84317946D01*
X110405024Y-84205705D01*
X110405019Y-84205702D01*
X110206195Y-84128678D01*
X109996610Y-84089500D01*
X109783390Y-84089500D01*
X109573804Y-84128678D01*
X109374980Y-84205702D01*
X109374975Y-84205705D01*
X109193699Y-84317946D01*
X109193692Y-84317952D01*
X109036135Y-84461586D01*
X109036131Y-84461589D01*
X109036128Y-84461593D01*
X109036125Y-84461597D01*
X108907635Y-84631743D01*
X108907630Y-84631752D01*
X108812596Y-84822608D01*
X108754244Y-85027688D01*
X108753389Y-85036917D01*
X108734571Y-85240000D01*
X108754244Y-85452310D01*
X108812595Y-85657389D01*
X108907634Y-85848255D01*
X109036128Y-86018407D01*
X109036135Y-86018413D01*
X109193692Y-86162047D01*
X109193699Y-86162053D01*
X109266548Y-86207159D01*
X109374981Y-86274298D01*
X109573802Y-86351321D01*
X109783390Y-86390500D01*
X109996610Y-86390500D01*
X110206198Y-86351321D01*
X110278738Y-86323218D01*
X110339828Y-86319828D01*
X110391245Y-86352993D01*
X110413348Y-86410046D01*
X110412653Y-86428455D01*
X110401918Y-86509999D01*
X110401918Y-86510000D01*
X110412653Y-86591544D01*
X110401503Y-86651705D01*
X110357120Y-86693822D01*
X110296458Y-86701808D01*
X110278741Y-86696782D01*
X110206198Y-86668679D01*
X110206197Y-86668678D01*
X110206195Y-86668678D01*
X109996610Y-86629500D01*
X109783390Y-86629500D01*
X109573804Y-86668678D01*
X109374980Y-86745702D01*
X109374975Y-86745705D01*
X109193699Y-86857946D01*
X109193692Y-86857952D01*
X109036135Y-87001586D01*
X109036131Y-87001589D01*
X109036128Y-87001593D01*
X109036125Y-87001597D01*
X108907635Y-87171743D01*
X108907630Y-87171752D01*
X108812596Y-87362608D01*
X108754244Y-87567688D01*
X108750378Y-87609414D01*
X108734571Y-87780000D01*
X108754244Y-87992310D01*
X108812595Y-88197389D01*
X108907634Y-88388255D01*
X109036128Y-88558407D01*
X109036135Y-88558413D01*
X109193692Y-88702047D01*
X109193699Y-88702053D01*
X109288413Y-88760697D01*
X109374981Y-88814298D01*
X109573802Y-88891321D01*
X109783390Y-88930500D01*
X109996610Y-88930500D01*
X110206198Y-88891321D01*
X110310908Y-88850755D01*
X110371998Y-88847366D01*
X110416674Y-88873067D01*
X110984504Y-89440897D01*
X111012281Y-89495414D01*
X111013500Y-89510901D01*
X111013500Y-89603261D01*
X110994593Y-89661452D01*
X110945093Y-89697416D01*
X110883907Y-89697416D01*
X110835497Y-89662922D01*
X110743880Y-89541603D01*
X110743877Y-89541600D01*
X110743872Y-89541593D01*
X110689365Y-89491903D01*
X110586307Y-89397952D01*
X110586300Y-89397946D01*
X110405024Y-89285705D01*
X110405019Y-89285702D01*
X110234130Y-89219500D01*
X110206198Y-89208679D01*
X110206197Y-89208678D01*
X110206195Y-89208678D01*
X109996610Y-89169500D01*
X109783390Y-89169500D01*
X109573804Y-89208678D01*
X109374980Y-89285702D01*
X109374975Y-89285705D01*
X109193699Y-89397946D01*
X109193692Y-89397952D01*
X109036135Y-89541586D01*
X109036131Y-89541589D01*
X109036128Y-89541593D01*
X109036125Y-89541597D01*
X108907635Y-89711743D01*
X108907630Y-89711752D01*
X108812596Y-89902608D01*
X108754244Y-90107688D01*
X108734571Y-90319999D01*
X108734571Y-90320000D01*
X108754244Y-90532310D01*
X108812595Y-90737389D01*
X108907634Y-90928255D01*
X109036128Y-91098407D01*
X109036135Y-91098413D01*
X109193692Y-91242047D01*
X109193699Y-91242053D01*
X109281699Y-91296540D01*
X109374981Y-91354298D01*
X109573802Y-91431321D01*
X109783390Y-91470500D01*
X109996610Y-91470500D01*
X110206198Y-91431321D01*
X110310908Y-91390755D01*
X110371998Y-91387366D01*
X110416674Y-91413067D01*
X113213504Y-94209897D01*
X113241281Y-94264414D01*
X113242500Y-94279901D01*
X113242500Y-95248929D01*
X113223593Y-95307120D01*
X113216276Y-95315687D01*
X113118462Y-95443160D01*
X113118462Y-95443161D01*
X113057957Y-95589233D01*
X113057955Y-95589241D01*
X113037318Y-95745999D01*
X113037318Y-95746000D01*
X113057955Y-95902758D01*
X113057957Y-95902766D01*
X113118462Y-96048838D01*
X113118462Y-96048839D01*
X113189394Y-96141279D01*
X113214718Y-96174282D01*
X113214722Y-96174285D01*
X113214723Y-96174286D01*
X113244082Y-96196813D01*
X113340159Y-96270536D01*
X113340160Y-96270536D01*
X113340161Y-96270537D01*
X113443499Y-96313341D01*
X113486238Y-96331044D01*
X113603809Y-96346522D01*
X113642999Y-96351682D01*
X113643000Y-96351682D01*
X113730578Y-96340152D01*
X113790739Y-96351302D01*
X113832856Y-96395684D01*
X113842500Y-96438305D01*
X113842500Y-96553929D01*
X113823593Y-96612120D01*
X113816276Y-96620687D01*
X113718462Y-96748160D01*
X113718462Y-96748161D01*
X113657957Y-96894233D01*
X113657955Y-96894241D01*
X113637318Y-97050999D01*
X113637318Y-97051000D01*
X113657955Y-97207758D01*
X113657957Y-97207766D01*
X113718462Y-97353838D01*
X113718462Y-97353839D01*
X113814713Y-97479276D01*
X113814718Y-97479282D01*
X113940159Y-97575536D01*
X113940160Y-97575536D01*
X113940161Y-97575537D01*
X114011513Y-97605092D01*
X114086238Y-97636044D01*
X114203809Y-97651522D01*
X114242999Y-97656682D01*
X114243000Y-97656682D01*
X114243001Y-97656682D01*
X114274352Y-97652554D01*
X114399762Y-97636044D01*
X114545841Y-97575536D01*
X114671282Y-97479282D01*
X114767536Y-97353841D01*
X114828044Y-97207762D01*
X114848682Y-97051000D01*
X114828044Y-96894238D01*
X114820894Y-96876976D01*
X114767537Y-96748161D01*
X114767537Y-96748160D01*
X114667332Y-96617570D01*
X114668713Y-96616509D01*
X114644719Y-96569416D01*
X114643500Y-96553929D01*
X114643500Y-95711305D01*
X114662407Y-95653114D01*
X114711907Y-95617150D01*
X114755421Y-95613152D01*
X114843000Y-95624682D01*
X114843001Y-95624682D01*
X114896755Y-95617605D01*
X114999762Y-95604044D01*
X115032614Y-95590435D01*
X115093611Y-95585635D01*
X115145780Y-95617605D01*
X115169195Y-95674132D01*
X115169500Y-95681900D01*
X115169500Y-101197099D01*
X115150593Y-101255290D01*
X115140504Y-101267103D01*
X114268516Y-102139091D01*
X114215793Y-102230411D01*
X114215792Y-102230411D01*
X114215793Y-102230412D01*
X114203733Y-102275421D01*
X114188500Y-102332273D01*
X114188500Y-110206273D01*
X114188500Y-110311727D01*
X114211690Y-110398276D01*
X114215794Y-110413592D01*
X114268516Y-110504908D01*
X114268517Y-110504909D01*
X114268518Y-110504910D01*
X114268520Y-110504913D01*
X115344909Y-111581302D01*
X116413348Y-112649741D01*
X116441125Y-112704258D01*
X116432904Y-112757818D01*
X116434249Y-112758339D01*
X116432598Y-112762598D01*
X116374244Y-112967688D01*
X116374244Y-112967690D01*
X116354571Y-113180000D01*
X116374244Y-113392310D01*
X116432595Y-113597389D01*
X116527634Y-113788255D01*
X116656128Y-113958407D01*
X116656135Y-113958413D01*
X116813692Y-114102047D01*
X116813699Y-114102053D01*
X116858060Y-114129520D01*
X116994981Y-114214298D01*
X117193802Y-114291321D01*
X117403390Y-114330500D01*
X117616610Y-114330500D01*
X117826198Y-114291321D01*
X118025019Y-114214298D01*
X118206302Y-114102052D01*
X118363872Y-113958407D01*
X118492366Y-113788255D01*
X118587405Y-113597389D01*
X118645756Y-113392310D01*
X118665429Y-113180000D01*
X118645756Y-112967690D01*
X118587405Y-112762611D01*
X118492366Y-112571745D01*
X118363872Y-112401593D01*
X118301808Y-112345014D01*
X118206307Y-112257952D01*
X118206300Y-112257946D01*
X118025024Y-112145705D01*
X118025019Y-112145702D01*
X117939657Y-112112633D01*
X117826198Y-112068679D01*
X117826197Y-112068678D01*
X117826195Y-112068678D01*
X117616610Y-112029500D01*
X117403390Y-112029500D01*
X117193802Y-112068678D01*
X117089091Y-112109243D01*
X117028000Y-112112633D01*
X116983325Y-112086932D01*
X115514566Y-110618173D01*
X115486789Y-110563656D01*
X115496360Y-110503224D01*
X115524303Y-110469627D01*
X115617282Y-110398282D01*
X115713536Y-110272841D01*
X115774044Y-110126762D01*
X115794682Y-109970000D01*
X115774044Y-109813238D01*
X115722109Y-109687857D01*
X115717309Y-109626864D01*
X115749278Y-109574695D01*
X115805806Y-109551280D01*
X115865301Y-109565563D01*
X115883578Y-109579971D01*
X116413348Y-110109741D01*
X116441125Y-110164258D01*
X116432904Y-110217818D01*
X116434249Y-110218339D01*
X116432598Y-110222598D01*
X116374244Y-110427688D01*
X116374244Y-110427690D01*
X116354571Y-110640000D01*
X116374244Y-110852310D01*
X116432595Y-111057389D01*
X116527634Y-111248255D01*
X116656128Y-111418407D01*
X116656135Y-111418413D01*
X116813692Y-111562047D01*
X116813699Y-111562053D01*
X116858057Y-111589518D01*
X116994981Y-111674298D01*
X117193802Y-111751321D01*
X117403390Y-111790500D01*
X117616610Y-111790500D01*
X117826198Y-111751321D01*
X118025019Y-111674298D01*
X118206302Y-111562052D01*
X118363872Y-111418407D01*
X118492366Y-111248255D01*
X118587405Y-111057389D01*
X118645756Y-110852310D01*
X118665429Y-110640000D01*
X118645756Y-110427690D01*
X118587405Y-110222611D01*
X118492366Y-110031745D01*
X118363872Y-109861593D01*
X118309623Y-109812139D01*
X118206307Y-109717952D01*
X118206300Y-109717946D01*
X118025024Y-109605705D01*
X118025019Y-109605702D01*
X117939657Y-109572633D01*
X117826198Y-109528679D01*
X117826197Y-109528678D01*
X117826195Y-109528678D01*
X117616610Y-109489500D01*
X117403390Y-109489500D01*
X117193802Y-109528678D01*
X117089091Y-109569243D01*
X117028000Y-109572633D01*
X116983325Y-109546932D01*
X116053496Y-108617103D01*
X116025719Y-108562586D01*
X116024500Y-108547099D01*
X116024500Y-105874899D01*
X116043407Y-105816708D01*
X116053490Y-105804902D01*
X116200686Y-105657706D01*
X116255200Y-105629930D01*
X116315632Y-105639501D01*
X116358896Y-105682766D01*
X116369264Y-105718575D01*
X116374244Y-105772310D01*
X116432595Y-105977389D01*
X116527634Y-106168255D01*
X116656128Y-106338407D01*
X116682483Y-106362433D01*
X116813692Y-106482047D01*
X116813699Y-106482053D01*
X116858060Y-106509520D01*
X116994981Y-106594298D01*
X117193802Y-106671321D01*
X117403390Y-106710500D01*
X117616610Y-106710500D01*
X117826198Y-106671321D01*
X118025019Y-106594298D01*
X118206302Y-106482052D01*
X118363872Y-106338407D01*
X118455498Y-106217075D01*
X118505653Y-106182034D01*
X118566827Y-106183165D01*
X118615654Y-106220037D01*
X118633500Y-106276738D01*
X118633500Y-106369098D01*
X118614593Y-106427289D01*
X118604504Y-106439102D01*
X118036673Y-107006932D01*
X117982156Y-107034709D01*
X117930907Y-107029243D01*
X117826198Y-106988679D01*
X117826197Y-106988678D01*
X117826195Y-106988678D01*
X117616610Y-106949500D01*
X117403390Y-106949500D01*
X117193804Y-106988678D01*
X116994980Y-107065702D01*
X116994975Y-107065705D01*
X116813699Y-107177946D01*
X116813692Y-107177952D01*
X116656135Y-107321586D01*
X116656131Y-107321589D01*
X116656128Y-107321593D01*
X116656125Y-107321597D01*
X116527635Y-107491743D01*
X116527630Y-107491752D01*
X116432596Y-107682608D01*
X116374244Y-107887688D01*
X116354571Y-108100000D01*
X116368350Y-108248708D01*
X116374244Y-108312310D01*
X116432595Y-108517389D01*
X116527634Y-108708255D01*
X116656128Y-108878407D01*
X116656135Y-108878413D01*
X116813692Y-109022047D01*
X116813699Y-109022053D01*
X116917389Y-109086255D01*
X116994981Y-109134298D01*
X117193802Y-109211321D01*
X117403390Y-109250500D01*
X117616610Y-109250500D01*
X117826198Y-109211321D01*
X118025019Y-109134298D01*
X118206302Y-109022052D01*
X118363872Y-108878407D01*
X118492366Y-108708255D01*
X118587405Y-108517389D01*
X118645756Y-108312310D01*
X118665429Y-108100000D01*
X118645756Y-107887690D01*
X118587405Y-107682611D01*
X118587399Y-107682598D01*
X118585752Y-107678344D01*
X118587132Y-107677809D01*
X118579019Y-107623364D01*
X118606648Y-107569743D01*
X119354480Y-106821913D01*
X119385105Y-106768867D01*
X119407169Y-106730653D01*
X119407179Y-106730634D01*
X119407206Y-106730588D01*
X119407207Y-106730587D01*
X119434500Y-106628727D01*
X119434500Y-104046586D01*
X119453407Y-103988395D01*
X119463490Y-103976588D01*
X120110804Y-103329273D01*
X120165319Y-103301498D01*
X120225751Y-103311069D01*
X120269016Y-103354334D01*
X120276026Y-103372185D01*
X120288645Y-103416534D01*
X120289418Y-103419250D01*
X120380327Y-103601821D01*
X120503236Y-103764579D01*
X120653959Y-103901981D01*
X120827363Y-104009348D01*
X121017544Y-104083024D01*
X121218024Y-104120500D01*
X121421976Y-104120500D01*
X121622456Y-104083024D01*
X121812637Y-104009348D01*
X121986041Y-103901981D01*
X122136764Y-103764579D01*
X122259673Y-103601821D01*
X122350582Y-103419250D01*
X122406397Y-103223083D01*
X122425215Y-103020000D01*
X122406397Y-102816917D01*
X122350582Y-102620750D01*
X122259673Y-102438179D01*
X122136764Y-102275421D01*
X121986041Y-102138019D01*
X121812637Y-102030652D01*
X121622456Y-101956976D01*
X121622455Y-101956975D01*
X121622453Y-101956975D01*
X121421976Y-101919500D01*
X121218024Y-101919500D01*
X121017546Y-101956975D01*
X120977353Y-101972546D01*
X120827363Y-102030652D01*
X120653959Y-102138019D01*
X120505414Y-102273436D01*
X120503234Y-102275423D01*
X120501503Y-102277716D01*
X120500514Y-102278406D01*
X120500153Y-102278803D01*
X120500063Y-102278721D01*
X120451347Y-102312759D01*
X120390172Y-102311628D01*
X120341345Y-102274755D01*
X120323500Y-102218055D01*
X120323500Y-101281944D01*
X120342407Y-101223753D01*
X120391907Y-101187789D01*
X120453093Y-101187789D01*
X120500075Y-101221267D01*
X120500153Y-101221197D01*
X120500481Y-101221557D01*
X120501505Y-101222286D01*
X120503236Y-101224579D01*
X120653959Y-101361981D01*
X120827363Y-101469348D01*
X121017544Y-101543024D01*
X121218024Y-101580500D01*
X121421976Y-101580500D01*
X121622456Y-101543024D01*
X121812637Y-101469348D01*
X121986041Y-101361981D01*
X122136764Y-101224579D01*
X122259673Y-101061821D01*
X122350582Y-100879250D01*
X122406397Y-100683083D01*
X122425215Y-100480000D01*
X122406397Y-100276917D01*
X122350582Y-100080750D01*
X122259673Y-99898179D01*
X122136764Y-99735421D01*
X121986041Y-99598019D01*
X121812637Y-99490652D01*
X121622456Y-99416976D01*
X121622455Y-99416975D01*
X121622453Y-99416975D01*
X121421976Y-99379500D01*
X121218024Y-99379500D01*
X121017546Y-99416975D01*
X120947632Y-99444059D01*
X120827363Y-99490652D01*
X120653959Y-99598019D01*
X120503241Y-99735417D01*
X120503234Y-99735423D01*
X120501503Y-99737716D01*
X120500514Y-99738406D01*
X120500153Y-99738803D01*
X120500063Y-99738721D01*
X120451347Y-99772759D01*
X120390172Y-99771628D01*
X120341345Y-99734755D01*
X120323500Y-99678055D01*
X120323500Y-98741944D01*
X120342407Y-98683753D01*
X120391907Y-98647789D01*
X120453093Y-98647789D01*
X120500075Y-98681267D01*
X120500153Y-98681197D01*
X120500481Y-98681557D01*
X120501505Y-98682286D01*
X120503236Y-98684579D01*
X120653959Y-98821981D01*
X120827363Y-98929348D01*
X121017544Y-99003024D01*
X121218024Y-99040500D01*
X121421976Y-99040500D01*
X121622456Y-99003024D01*
X121812637Y-98929348D01*
X121986041Y-98821981D01*
X122136764Y-98684579D01*
X122259673Y-98521821D01*
X122350582Y-98339250D01*
X122406397Y-98143083D01*
X122425215Y-97940000D01*
X122406397Y-97736917D01*
X122350582Y-97540750D01*
X122259673Y-97358179D01*
X122136764Y-97195421D01*
X121986041Y-97058019D01*
X121812637Y-96950652D01*
X121622456Y-96876976D01*
X121622455Y-96876975D01*
X121622453Y-96876975D01*
X121421976Y-96839500D01*
X121218024Y-96839500D01*
X121017546Y-96876975D01*
X120947632Y-96904059D01*
X120827363Y-96950652D01*
X120665297Y-97050999D01*
X120653959Y-97058019D01*
X120503234Y-97195423D01*
X120501503Y-97197716D01*
X120500514Y-97198406D01*
X120500153Y-97198803D01*
X120500063Y-97198721D01*
X120451347Y-97232759D01*
X120390172Y-97231628D01*
X120341345Y-97194755D01*
X120323500Y-97138055D01*
X120323500Y-96201944D01*
X120342407Y-96143753D01*
X120391907Y-96107789D01*
X120453093Y-96107789D01*
X120500075Y-96141267D01*
X120500153Y-96141197D01*
X120500481Y-96141557D01*
X120501505Y-96142286D01*
X120503236Y-96144579D01*
X120653959Y-96281981D01*
X120827363Y-96389348D01*
X121017544Y-96463024D01*
X121218024Y-96500500D01*
X121421976Y-96500500D01*
X121622456Y-96463024D01*
X121812637Y-96389348D01*
X121986041Y-96281981D01*
X122136764Y-96144579D01*
X122259673Y-95981821D01*
X122350582Y-95799250D01*
X122406397Y-95603083D01*
X122425215Y-95400000D01*
X122406397Y-95196917D01*
X122350582Y-95000750D01*
X122259673Y-94818179D01*
X122136764Y-94655421D01*
X121986041Y-94518019D01*
X121812637Y-94410652D01*
X121622456Y-94336976D01*
X121622455Y-94336975D01*
X121622453Y-94336975D01*
X121421976Y-94299500D01*
X121218024Y-94299500D01*
X121017546Y-94336975D01*
X120947632Y-94364059D01*
X120827363Y-94410652D01*
X120670977Y-94507482D01*
X120653959Y-94518019D01*
X120503234Y-94655423D01*
X120501503Y-94657716D01*
X120500514Y-94658406D01*
X120500153Y-94658803D01*
X120500063Y-94658721D01*
X120451347Y-94692759D01*
X120390172Y-94691628D01*
X120341345Y-94654755D01*
X120323500Y-94598055D01*
X120323500Y-93661944D01*
X120342407Y-93603753D01*
X120391907Y-93567789D01*
X120453093Y-93567789D01*
X120500075Y-93601267D01*
X120500153Y-93601197D01*
X120500481Y-93601557D01*
X120501505Y-93602286D01*
X120503236Y-93604579D01*
X120653959Y-93741981D01*
X120827363Y-93849348D01*
X121017544Y-93923024D01*
X121218024Y-93960500D01*
X121421976Y-93960500D01*
X121622456Y-93923024D01*
X121812637Y-93849348D01*
X121986041Y-93741981D01*
X122136764Y-93604579D01*
X122259673Y-93441821D01*
X122350582Y-93259250D01*
X122406397Y-93063083D01*
X122425215Y-92860000D01*
X122406397Y-92656917D01*
X122350582Y-92460750D01*
X122259673Y-92278179D01*
X122136764Y-92115421D01*
X121986041Y-91978019D01*
X121812637Y-91870652D01*
X121622456Y-91796976D01*
X121622455Y-91796975D01*
X121622453Y-91796975D01*
X121421976Y-91759500D01*
X121218024Y-91759500D01*
X121017546Y-91796975D01*
X120947632Y-91824059D01*
X120827363Y-91870652D01*
X120718676Y-91937948D01*
X120653959Y-91978019D01*
X120503234Y-92115423D01*
X120501503Y-92117716D01*
X120500514Y-92118406D01*
X120500153Y-92118803D01*
X120500063Y-92118721D01*
X120451347Y-92152759D01*
X120390172Y-92151628D01*
X120341345Y-92114755D01*
X120323500Y-92058055D01*
X120323500Y-92050900D01*
X120342407Y-91992709D01*
X120352490Y-91980902D01*
X120924111Y-91409280D01*
X120978626Y-91381505D01*
X121012784Y-91383568D01*
X121013044Y-91382183D01*
X121218024Y-91420500D01*
X121421976Y-91420500D01*
X121622456Y-91383024D01*
X121812637Y-91309348D01*
X121986041Y-91201981D01*
X122136764Y-91064579D01*
X122259673Y-90901821D01*
X122350582Y-90719250D01*
X122406397Y-90523083D01*
X122425215Y-90320000D01*
X122406397Y-90116917D01*
X122350582Y-89920750D01*
X122259673Y-89738179D01*
X122136764Y-89575421D01*
X121986041Y-89438019D01*
X121812637Y-89330652D01*
X121622456Y-89256976D01*
X121622455Y-89256975D01*
X121622453Y-89256975D01*
X121421976Y-89219500D01*
X121218024Y-89219500D01*
X121017546Y-89256975D01*
X120947632Y-89284059D01*
X120827363Y-89330652D01*
X120718676Y-89397948D01*
X120653959Y-89438019D01*
X120514596Y-89565065D01*
X120458854Y-89590295D01*
X120398929Y-89577943D01*
X120357709Y-89532726D01*
X120348900Y-89491903D01*
X120348900Y-88608096D01*
X120367807Y-88549905D01*
X120417307Y-88513941D01*
X120478493Y-88513941D01*
X120514592Y-88534932D01*
X120653959Y-88661981D01*
X120827363Y-88769348D01*
X121017544Y-88843024D01*
X121218024Y-88880500D01*
X121421976Y-88880500D01*
X121622456Y-88843024D01*
X121702258Y-88812107D01*
X121763350Y-88808717D01*
X121808026Y-88834418D01*
X122668504Y-89694896D01*
X122696281Y-89749413D01*
X122697500Y-89764900D01*
X122697500Y-106247173D01*
X122678593Y-106305364D01*
X122629093Y-106341328D01*
X122567907Y-106341328D01*
X122538236Y-106325717D01*
X122511841Y-106305464D01*
X122511838Y-106305463D01*
X122511836Y-106305461D01*
X122365766Y-106244957D01*
X122365763Y-106244956D01*
X122365762Y-106244956D01*
X122357688Y-106243893D01*
X122355531Y-106243609D01*
X122300307Y-106217266D01*
X122271113Y-106163494D01*
X122279101Y-106102833D01*
X122279787Y-106101425D01*
X122350582Y-105959250D01*
X122406397Y-105763083D01*
X122425215Y-105560000D01*
X122406397Y-105356917D01*
X122350582Y-105160750D01*
X122259673Y-104978179D01*
X122136764Y-104815421D01*
X121986041Y-104678019D01*
X121812637Y-104570652D01*
X121622456Y-104496976D01*
X121622455Y-104496975D01*
X121622453Y-104496975D01*
X121421976Y-104459500D01*
X121218024Y-104459500D01*
X121017546Y-104496975D01*
X120977353Y-104512546D01*
X120827363Y-104570652D01*
X120668532Y-104668996D01*
X120653959Y-104678019D01*
X120503237Y-104815420D01*
X120380328Y-104978177D01*
X120380323Y-104978186D01*
X120298450Y-105142611D01*
X120289418Y-105160750D01*
X120233603Y-105356917D01*
X120214785Y-105560000D01*
X120233603Y-105763083D01*
X120289418Y-105959250D01*
X120380327Y-106141821D01*
X120503236Y-106304579D01*
X120566701Y-106362435D01*
X120596966Y-106415608D01*
X120590195Y-106476418D01*
X120570008Y-106505599D01*
X119221516Y-107854091D01*
X119168793Y-107945411D01*
X119168792Y-107945411D01*
X119168793Y-107945412D01*
X119141500Y-108047273D01*
X119141500Y-113481098D01*
X119122593Y-113539289D01*
X119112504Y-113551102D01*
X118036673Y-114626932D01*
X117982156Y-114654709D01*
X117930907Y-114649243D01*
X117826198Y-114608679D01*
X117826197Y-114608678D01*
X117826195Y-114608678D01*
X117616610Y-114569500D01*
X117403390Y-114569500D01*
X117193804Y-114608678D01*
X116994980Y-114685702D01*
X116994975Y-114685705D01*
X116813699Y-114797946D01*
X116813692Y-114797952D01*
X116656135Y-114941586D01*
X116656131Y-114941589D01*
X116656128Y-114941593D01*
X116656125Y-114941597D01*
X116527635Y-115111743D01*
X116527630Y-115111752D01*
X116432596Y-115302608D01*
X116374244Y-115507688D01*
X116362735Y-115631893D01*
X116354571Y-115720000D01*
X116374244Y-115932310D01*
X116432595Y-116137389D01*
X116527634Y-116328255D01*
X116656128Y-116498407D01*
X116656135Y-116498413D01*
X116813692Y-116642047D01*
X116813699Y-116642053D01*
X116858060Y-116669520D01*
X116994981Y-116754298D01*
X117193802Y-116831321D01*
X117403390Y-116870500D01*
X117616610Y-116870500D01*
X117826198Y-116831321D01*
X118025019Y-116754298D01*
X118206302Y-116642052D01*
X118363872Y-116498407D01*
X118492366Y-116328255D01*
X118587405Y-116137389D01*
X118645756Y-115932310D01*
X118665429Y-115720000D01*
X118645756Y-115507690D01*
X118587405Y-115302611D01*
X118587401Y-115302604D01*
X118585752Y-115298344D01*
X118587132Y-115297809D01*
X118579019Y-115243364D01*
X118606648Y-115189743D01*
X119862480Y-113933913D01*
X119915207Y-113842588D01*
X119942500Y-113740727D01*
X119942500Y-113635273D01*
X119942500Y-110640000D01*
X120214785Y-110640000D01*
X120233603Y-110843083D01*
X120289418Y-111039250D01*
X120380327Y-111221821D01*
X120503236Y-111384579D01*
X120653959Y-111521981D01*
X120827363Y-111629348D01*
X121017544Y-111703024D01*
X121218024Y-111740500D01*
X121421976Y-111740500D01*
X121622456Y-111703024D01*
X121812637Y-111629348D01*
X121986041Y-111521981D01*
X122136764Y-111384579D01*
X122259673Y-111221821D01*
X122350582Y-111039250D01*
X122406397Y-110843083D01*
X122425215Y-110640000D01*
X122406397Y-110436917D01*
X122350582Y-110240750D01*
X122259673Y-110058179D01*
X122136764Y-109895421D01*
X121986041Y-109758019D01*
X121812637Y-109650652D01*
X121622456Y-109576976D01*
X121622455Y-109576975D01*
X121622453Y-109576975D01*
X121421976Y-109539500D01*
X121218024Y-109539500D01*
X121017546Y-109576975D01*
X120977353Y-109592546D01*
X120827363Y-109650652D01*
X120718676Y-109717948D01*
X120653959Y-109758019D01*
X120503237Y-109895420D01*
X120380328Y-110058177D01*
X120380323Y-110058186D01*
X120298450Y-110222611D01*
X120289418Y-110240750D01*
X120233603Y-110436917D01*
X120214785Y-110640000D01*
X119942500Y-110640000D01*
X119942500Y-108306899D01*
X119961407Y-108248708D01*
X119971484Y-108236908D01*
X120056642Y-108151750D01*
X120111156Y-108123975D01*
X120171588Y-108133546D01*
X120214853Y-108176811D01*
X120225220Y-108212619D01*
X120233603Y-108303083D01*
X120289418Y-108499250D01*
X120380327Y-108681821D01*
X120503236Y-108844579D01*
X120653959Y-108981981D01*
X120827363Y-109089348D01*
X121017544Y-109163024D01*
X121218024Y-109200500D01*
X121421976Y-109200500D01*
X121622456Y-109163024D01*
X121812637Y-109089348D01*
X121986041Y-108981981D01*
X122136764Y-108844579D01*
X122259673Y-108681821D01*
X122350582Y-108499250D01*
X122406397Y-108303083D01*
X122425215Y-108100000D01*
X122406397Y-107896917D01*
X122350582Y-107700750D01*
X122279834Y-107558669D01*
X122270822Y-107498153D01*
X122299102Y-107443896D01*
X122353873Y-107416623D01*
X122355520Y-107416392D01*
X122365762Y-107415044D01*
X122511841Y-107354536D01*
X122538233Y-107334284D01*
X122595907Y-107313860D01*
X122654573Y-107331237D01*
X122691821Y-107379778D01*
X122697500Y-107412826D01*
X122697500Y-112998999D01*
X122678593Y-113057190D01*
X122668504Y-113069003D01*
X122585557Y-113151950D01*
X122531040Y-113179727D01*
X122470608Y-113170156D01*
X122427343Y-113126891D01*
X122416975Y-113091082D01*
X122406397Y-112976917D01*
X122350582Y-112780750D01*
X122259673Y-112598179D01*
X122136764Y-112435421D01*
X121986041Y-112298019D01*
X121812637Y-112190652D01*
X121622456Y-112116976D01*
X121622455Y-112116975D01*
X121622453Y-112116975D01*
X121421976Y-112079500D01*
X121218024Y-112079500D01*
X121017546Y-112116975D01*
X120977353Y-112132546D01*
X120827363Y-112190652D01*
X120718676Y-112257948D01*
X120653959Y-112298019D01*
X120503237Y-112435420D01*
X120380328Y-112598177D01*
X120380323Y-112598186D01*
X120298450Y-112762611D01*
X120289418Y-112780750D01*
X120233603Y-112976917D01*
X120214785Y-113180000D01*
X120233603Y-113383083D01*
X120287880Y-113573846D01*
X120289419Y-113579252D01*
X120369823Y-113740727D01*
X120380327Y-113761821D01*
X120493490Y-113911674D01*
X120513469Y-113969504D01*
X120495640Y-114028034D01*
X120446813Y-114064906D01*
X120440110Y-114066959D01*
X120403412Y-114076792D01*
X120403408Y-114076794D01*
X120312091Y-114129516D01*
X119221516Y-115220091D01*
X119168793Y-115311411D01*
X119168792Y-115311411D01*
X119168793Y-115311412D01*
X119141500Y-115413273D01*
X119141500Y-116021098D01*
X119122593Y-116079289D01*
X119112504Y-116091102D01*
X118036673Y-117166932D01*
X117982156Y-117194709D01*
X117930907Y-117189243D01*
X117826198Y-117148679D01*
X117826197Y-117148678D01*
X117826195Y-117148678D01*
X117616610Y-117109500D01*
X117403390Y-117109500D01*
X117193804Y-117148678D01*
X116994980Y-117225702D01*
X116994975Y-117225705D01*
X116813699Y-117337946D01*
X116813692Y-117337952D01*
X116656135Y-117481586D01*
X116656131Y-117481589D01*
X116656128Y-117481593D01*
X116656125Y-117481597D01*
X116527635Y-117651743D01*
X116527630Y-117651752D01*
X116432596Y-117842608D01*
X116374244Y-118047688D01*
X116354571Y-118260000D01*
X116374244Y-118472311D01*
X116383805Y-118505913D01*
X116432595Y-118677389D01*
X116527634Y-118868255D01*
X116656128Y-119038407D01*
X116724245Y-119100504D01*
X116813692Y-119182047D01*
X116813699Y-119182053D01*
X116884744Y-119226042D01*
X116994981Y-119294298D01*
X117193802Y-119371321D01*
X117403390Y-119410500D01*
X117616610Y-119410500D01*
X117826198Y-119371321D01*
X118025019Y-119294298D01*
X118206302Y-119182052D01*
X118363872Y-119038407D01*
X118492366Y-118868255D01*
X118587405Y-118677389D01*
X118645756Y-118472310D01*
X118665429Y-118260000D01*
X118645756Y-118047690D01*
X118587405Y-117842611D01*
X118587401Y-117842604D01*
X118585752Y-117838344D01*
X118587132Y-117837809D01*
X118579019Y-117783364D01*
X118606648Y-117729743D01*
X119862480Y-116473913D01*
X119915207Y-116382588D01*
X119942500Y-116280727D01*
X119942500Y-116175273D01*
X119942500Y-115672899D01*
X119961407Y-115614708D01*
X119971484Y-115602908D01*
X120057713Y-115516679D01*
X120112227Y-115488904D01*
X120172659Y-115498475D01*
X120215924Y-115541740D01*
X120226291Y-115595818D01*
X120214785Y-115720000D01*
X120233603Y-115923083D01*
X120281409Y-116091102D01*
X120289419Y-116119252D01*
X120369823Y-116280727D01*
X120380327Y-116301821D01*
X120503236Y-116464579D01*
X120566701Y-116522435D01*
X120596966Y-116575608D01*
X120590195Y-116636418D01*
X120570008Y-116665599D01*
X119094516Y-118141091D01*
X119041793Y-118232411D01*
X119041792Y-118232411D01*
X119041793Y-118232412D01*
X119014500Y-118334273D01*
X119014500Y-123768098D01*
X118995593Y-123826289D01*
X118985504Y-123838102D01*
X118036673Y-124786932D01*
X117982156Y-124814709D01*
X117930907Y-124809243D01*
X117826198Y-124768679D01*
X117826197Y-124768678D01*
X117826195Y-124768678D01*
X117616610Y-124729500D01*
X117403390Y-124729500D01*
X117193804Y-124768678D01*
X116994980Y-124845702D01*
X116994975Y-124845705D01*
X116813699Y-124957946D01*
X116813692Y-124957952D01*
X116656135Y-125101586D01*
X116656131Y-125101589D01*
X116656128Y-125101593D01*
X116656125Y-125101597D01*
X116527635Y-125271743D01*
X116527630Y-125271752D01*
X116432596Y-125462608D01*
X116374244Y-125667688D01*
X116374244Y-125667690D01*
X116354571Y-125880000D01*
X116374244Y-126092310D01*
X116432595Y-126297389D01*
X116527634Y-126488255D01*
X116656128Y-126658407D01*
X116656135Y-126658413D01*
X116813692Y-126802047D01*
X116813699Y-126802053D01*
X116917389Y-126866255D01*
X116994981Y-126914298D01*
X117193802Y-126991321D01*
X117403390Y-127030500D01*
X117616610Y-127030500D01*
X117826198Y-126991321D01*
X118025019Y-126914298D01*
X118206302Y-126802052D01*
X118363872Y-126658407D01*
X118492366Y-126488255D01*
X118587405Y-126297389D01*
X118645756Y-126092310D01*
X118665429Y-125880000D01*
X118645756Y-125667690D01*
X118587405Y-125462611D01*
X118587401Y-125462604D01*
X118585752Y-125458344D01*
X118587132Y-125457809D01*
X118579019Y-125403364D01*
X118606648Y-125349743D01*
X119735480Y-124220913D01*
X119788207Y-124129588D01*
X119815500Y-124027727D01*
X119815500Y-123922273D01*
X119815500Y-123090000D01*
X120041128Y-123090000D01*
X121004314Y-123090000D01*
X120999920Y-123094394D01*
X120947259Y-123185606D01*
X120920000Y-123287339D01*
X120920000Y-123392661D01*
X120947259Y-123494394D01*
X120999920Y-123585606D01*
X121004314Y-123590000D01*
X120041128Y-123590000D01*
X120093733Y-123786323D01*
X120189865Y-123992481D01*
X120320334Y-124178811D01*
X120481188Y-124339665D01*
X120667518Y-124470134D01*
X120873676Y-124566266D01*
X121070000Y-124618872D01*
X121070000Y-123655686D01*
X121074394Y-123660080D01*
X121165606Y-123712741D01*
X121267339Y-123740000D01*
X121372661Y-123740000D01*
X121474394Y-123712741D01*
X121565606Y-123660080D01*
X121570000Y-123655686D01*
X121570000Y-124618871D01*
X121766323Y-124566266D01*
X121972481Y-124470134D01*
X122158811Y-124339665D01*
X122319665Y-124178811D01*
X122450134Y-123992481D01*
X122546266Y-123786323D01*
X122598872Y-123590000D01*
X121635686Y-123590000D01*
X121640080Y-123585606D01*
X121692741Y-123494394D01*
X121720000Y-123392661D01*
X121720000Y-123287339D01*
X121692741Y-123185606D01*
X121640080Y-123094394D01*
X121635686Y-123090000D01*
X122598872Y-123090000D01*
X122546266Y-122893676D01*
X122450134Y-122687518D01*
X122319665Y-122501188D01*
X122158811Y-122340334D01*
X121972481Y-122209865D01*
X121766323Y-122113733D01*
X121577151Y-122063044D01*
X121525836Y-122029720D01*
X121503910Y-121972598D01*
X121519746Y-121913498D01*
X121567296Y-121874992D01*
X121584568Y-121870106D01*
X121622456Y-121863024D01*
X121812637Y-121789348D01*
X121986041Y-121681981D01*
X122136764Y-121544579D01*
X122259673Y-121381821D01*
X122350582Y-121199250D01*
X122406397Y-121003083D01*
X122425215Y-120800000D01*
X122406397Y-120596917D01*
X122350582Y-120400750D01*
X122259673Y-120218179D01*
X122136764Y-120055421D01*
X121986041Y-119918019D01*
X121812637Y-119810652D01*
X121622456Y-119736976D01*
X121622455Y-119736975D01*
X121622453Y-119736975D01*
X121421976Y-119699500D01*
X121218024Y-119699500D01*
X121017546Y-119736975D01*
X120947632Y-119764059D01*
X120827363Y-119810652D01*
X120677881Y-119903207D01*
X120653959Y-119918019D01*
X120503237Y-120055420D01*
X120380328Y-120218177D01*
X120380323Y-120218186D01*
X120289419Y-120400747D01*
X120289418Y-120400750D01*
X120233603Y-120596917D01*
X120214785Y-120800000D01*
X120233603Y-121003083D01*
X120289418Y-121199250D01*
X120380327Y-121381821D01*
X120503236Y-121544579D01*
X120653959Y-121681981D01*
X120827363Y-121789348D01*
X121017544Y-121863024D01*
X121055418Y-121870103D01*
X121109141Y-121899380D01*
X121135398Y-121954645D01*
X121124156Y-122014789D01*
X121079709Y-122056838D01*
X121062848Y-122063044D01*
X120873676Y-122113733D01*
X120667518Y-122209865D01*
X120481188Y-122340334D01*
X120320334Y-122501188D01*
X120189865Y-122687518D01*
X120093733Y-122893676D01*
X120041128Y-123090000D01*
X119815500Y-123090000D01*
X119815500Y-118593899D01*
X119834407Y-118535708D01*
X119844484Y-118523908D01*
X120056641Y-118311750D01*
X120111156Y-118283975D01*
X120171588Y-118293546D01*
X120214853Y-118336811D01*
X120225220Y-118372619D01*
X120233603Y-118463083D01*
X120289418Y-118659250D01*
X120380327Y-118841821D01*
X120503236Y-119004579D01*
X120653959Y-119141981D01*
X120827363Y-119249348D01*
X121017544Y-119323024D01*
X121218024Y-119360500D01*
X121421976Y-119360500D01*
X121622456Y-119323024D01*
X121812637Y-119249348D01*
X121986041Y-119141981D01*
X122136764Y-119004579D01*
X122259673Y-118841821D01*
X122350582Y-118659250D01*
X122406397Y-118463083D01*
X122425215Y-118260000D01*
X122406397Y-118056917D01*
X122350582Y-117860750D01*
X122259673Y-117678179D01*
X122136764Y-117515421D01*
X122073297Y-117457564D01*
X122043033Y-117404390D01*
X122049804Y-117343581D01*
X122069991Y-117314400D01*
X122073908Y-117310482D01*
X122073913Y-117310480D01*
X123328496Y-116055895D01*
X123383013Y-116028119D01*
X123443445Y-116037690D01*
X123486710Y-116080955D01*
X123497500Y-116125900D01*
X123497500Y-117946061D01*
X123478593Y-118004252D01*
X123429093Y-118040216D01*
X123411423Y-118044214D01*
X123322240Y-118055955D01*
X123322233Y-118055957D01*
X123176161Y-118116462D01*
X123176160Y-118116462D01*
X123050723Y-118212713D01*
X123050713Y-118212723D01*
X122954462Y-118338160D01*
X122954462Y-118338161D01*
X122893957Y-118484233D01*
X122893955Y-118484241D01*
X122873318Y-118640999D01*
X122873318Y-118641000D01*
X122893955Y-118797758D01*
X122893957Y-118797766D01*
X122954462Y-118943838D01*
X122954462Y-118943839D01*
X123027031Y-119038413D01*
X123050718Y-119069282D01*
X123176159Y-119165536D01*
X123176160Y-119165536D01*
X123176161Y-119165537D01*
X123322233Y-119226042D01*
X123322238Y-119226044D01*
X123439809Y-119241522D01*
X123478999Y-119246682D01*
X123479000Y-119246682D01*
X123479001Y-119246682D01*
X123510352Y-119242554D01*
X123635762Y-119226044D01*
X123781841Y-119165536D01*
X123907282Y-119069282D01*
X124003536Y-118943841D01*
X124064044Y-118797762D01*
X124078347Y-118689118D01*
X124104688Y-118633894D01*
X124158459Y-118604699D01*
X124219121Y-118612685D01*
X124263503Y-118654802D01*
X124275500Y-118702041D01*
X124275500Y-127114257D01*
X124256593Y-127172448D01*
X124246504Y-127184261D01*
X118592885Y-132837879D01*
X118538368Y-132865656D01*
X118477936Y-132856085D01*
X118443878Y-132827536D01*
X118363880Y-132721603D01*
X118363877Y-132721600D01*
X118363872Y-132721593D01*
X118309623Y-132672139D01*
X118206307Y-132577952D01*
X118206300Y-132577946D01*
X118025024Y-132465705D01*
X118025019Y-132465702D01*
X117826195Y-132388678D01*
X117616610Y-132349500D01*
X117403390Y-132349500D01*
X117193804Y-132388678D01*
X116994980Y-132465702D01*
X116994975Y-132465705D01*
X116813699Y-132577946D01*
X116813692Y-132577952D01*
X116656135Y-132721586D01*
X116656131Y-132721589D01*
X116656128Y-132721593D01*
X116551484Y-132860161D01*
X116501329Y-132895204D01*
X116472482Y-132899500D01*
X113249499Y-132899500D01*
X113191308Y-132880593D01*
X113155344Y-132831093D01*
X113150499Y-132800500D01*
X113150499Y-131602579D01*
X113169406Y-131544388D01*
X113218906Y-131508424D01*
X113260081Y-131504146D01*
X113321976Y-131510800D01*
X113449999Y-131510800D01*
X113450000Y-131510799D01*
X113450000Y-130448001D01*
X113950000Y-130448001D01*
X113950000Y-131510799D01*
X113950001Y-131510800D01*
X114078024Y-131510800D01*
X114137570Y-131504398D01*
X114137581Y-131504396D01*
X114272288Y-131454153D01*
X114272290Y-131454152D01*
X114387384Y-131367992D01*
X114387392Y-131367984D01*
X114473552Y-131252890D01*
X114473553Y-131252888D01*
X114523796Y-131118181D01*
X114523798Y-131118170D01*
X114530200Y-131058624D01*
X114530200Y-130448001D01*
X114530199Y-130448000D01*
X113950001Y-130448000D01*
X113950000Y-130448001D01*
X113450000Y-130448001D01*
X113450000Y-128885201D01*
X113950000Y-128885201D01*
X113950000Y-129947999D01*
X113950001Y-129948000D01*
X114530199Y-129948000D01*
X114530200Y-129947999D01*
X114530200Y-129337375D01*
X114530199Y-129337373D01*
X114524987Y-129288880D01*
X114537567Y-129229002D01*
X114582939Y-129187954D01*
X114623418Y-129179299D01*
X114740898Y-129179299D01*
X114799089Y-129198206D01*
X114810902Y-129208295D01*
X116339351Y-130736744D01*
X116367128Y-130791261D01*
X116367925Y-130815882D01*
X116354571Y-130960000D01*
X116374244Y-131172310D01*
X116432595Y-131377389D01*
X116527634Y-131568255D01*
X116656128Y-131738407D01*
X116656135Y-131738413D01*
X116813692Y-131882047D01*
X116813699Y-131882053D01*
X116917389Y-131946255D01*
X116994981Y-131994298D01*
X117193802Y-132071321D01*
X117403390Y-132110500D01*
X117616610Y-132110500D01*
X117826198Y-132071321D01*
X118025019Y-131994298D01*
X118206302Y-131882052D01*
X118363872Y-131738407D01*
X118492366Y-131568255D01*
X118587405Y-131377389D01*
X118645756Y-131172310D01*
X118665429Y-130960000D01*
X118645756Y-130747690D01*
X118587405Y-130542611D01*
X118492366Y-130351745D01*
X118363872Y-130181593D01*
X118227413Y-130057193D01*
X118206307Y-130037952D01*
X118206300Y-130037946D01*
X118025024Y-129925705D01*
X118025019Y-129925702D01*
X117945016Y-129894709D01*
X117826198Y-129848679D01*
X117826197Y-129848678D01*
X117826195Y-129848678D01*
X117616610Y-129809500D01*
X117403390Y-129809500D01*
X117193804Y-129848678D01*
X116994980Y-129925702D01*
X116994978Y-129925703D01*
X116855444Y-130012099D01*
X116796016Y-130026657D01*
X116739381Y-130003503D01*
X116733324Y-129997931D01*
X115309696Y-128574303D01*
X115281919Y-128519786D01*
X115280700Y-128504299D01*
X115280700Y-128420000D01*
X116354571Y-128420000D01*
X116374244Y-128632310D01*
X116432595Y-128837389D01*
X116527634Y-129028255D01*
X116656128Y-129198407D01*
X116656135Y-129198413D01*
X116813692Y-129342047D01*
X116813699Y-129342053D01*
X116917389Y-129406255D01*
X116994981Y-129454298D01*
X117193802Y-129531321D01*
X117403390Y-129570500D01*
X117616610Y-129570500D01*
X117826198Y-129531321D01*
X118025019Y-129454298D01*
X118206302Y-129342052D01*
X118363872Y-129198407D01*
X118492366Y-129028255D01*
X118587405Y-128837389D01*
X118645756Y-128632310D01*
X118665429Y-128420000D01*
X118645756Y-128207690D01*
X118587405Y-128002611D01*
X118492366Y-127811745D01*
X118363872Y-127641593D01*
X118309623Y-127592139D01*
X118206307Y-127497952D01*
X118206300Y-127497946D01*
X118025024Y-127385705D01*
X118025019Y-127385702D01*
X117826198Y-127308679D01*
X117826197Y-127308678D01*
X117826195Y-127308678D01*
X117616610Y-127269500D01*
X117403390Y-127269500D01*
X117193804Y-127308678D01*
X116994980Y-127385702D01*
X116994975Y-127385705D01*
X116813699Y-127497946D01*
X116813692Y-127497952D01*
X116656135Y-127641586D01*
X116656131Y-127641589D01*
X116656128Y-127641593D01*
X116656125Y-127641597D01*
X116527635Y-127811743D01*
X116527630Y-127811752D01*
X116432596Y-128002608D01*
X116374244Y-128207688D01*
X116374244Y-128207690D01*
X116354571Y-128420000D01*
X115280700Y-128420000D01*
X115280700Y-127208339D01*
X115280700Y-127208336D01*
X115277786Y-127183209D01*
X115232407Y-127080435D01*
X115152966Y-127000994D01*
X115050192Y-126955615D01*
X115050191Y-126955614D01*
X115050189Y-126955614D01*
X115025069Y-126952700D01*
X114274940Y-126952700D01*
X114274937Y-126952701D01*
X114249810Y-126955614D01*
X114147036Y-127000994D01*
X114067595Y-127080435D01*
X114022215Y-127183211D01*
X114019301Y-127208330D01*
X114019301Y-127208332D01*
X114019301Y-127208335D01*
X114019301Y-128002611D01*
X114019302Y-128786200D01*
X114000395Y-128844391D01*
X113965343Y-128869857D01*
X113950000Y-128885201D01*
X113450000Y-128885201D01*
X113435704Y-128870905D01*
X113421508Y-128866293D01*
X113385544Y-128816793D01*
X113380699Y-128786200D01*
X113380698Y-127208339D01*
X113380698Y-127208336D01*
X113377784Y-127183209D01*
X113332405Y-127080435D01*
X113252964Y-127000994D01*
X113150190Y-126955615D01*
X113150189Y-126955614D01*
X113150187Y-126955614D01*
X113125067Y-126952700D01*
X112374938Y-126952700D01*
X112374935Y-126952701D01*
X112349808Y-126955614D01*
X112247034Y-127000994D01*
X112167593Y-127080435D01*
X112122213Y-127183211D01*
X112119299Y-127208330D01*
X112119299Y-128923660D01*
X112119300Y-128923663D01*
X112122213Y-128948790D01*
X112147555Y-129006185D01*
X112167593Y-129051565D01*
X112247034Y-129131006D01*
X112290487Y-129150192D01*
X112336082Y-129190991D01*
X112349499Y-129240756D01*
X112349499Y-132800500D01*
X112330592Y-132858691D01*
X112281092Y-132894655D01*
X112250499Y-132899500D01*
X110927518Y-132899500D01*
X110869327Y-132880593D01*
X110848516Y-132860163D01*
X110743872Y-132721593D01*
X110689623Y-132672139D01*
X110586307Y-132577952D01*
X110586300Y-132577946D01*
X110405024Y-132465705D01*
X110405019Y-132465702D01*
X110206195Y-132388678D01*
X109996610Y-132349500D01*
X109783390Y-132349500D01*
X109573804Y-132388678D01*
X109374980Y-132465702D01*
X109374975Y-132465705D01*
X109193699Y-132577946D01*
X109193692Y-132577952D01*
X109036135Y-132721586D01*
X109036131Y-132721589D01*
X109036128Y-132721593D01*
X109036125Y-132721597D01*
X108907635Y-132891743D01*
X108907630Y-132891752D01*
X108812596Y-133082608D01*
X108754244Y-133287688D01*
X108754244Y-133287690D01*
X108734571Y-133500000D01*
X108754244Y-133712310D01*
X108798745Y-133868713D01*
X108812596Y-133917391D01*
X108903772Y-134100500D01*
X108907634Y-134108255D01*
X109036128Y-134278407D01*
X109036135Y-134278413D01*
X109193692Y-134422047D01*
X109193699Y-134422053D01*
X109297389Y-134486255D01*
X109374981Y-134534298D01*
X109573802Y-134611321D01*
X109783390Y-134650500D01*
X109996610Y-134650500D01*
X110206198Y-134611321D01*
X110405019Y-134534298D01*
X110586302Y-134422052D01*
X110743872Y-134278407D01*
X110848515Y-134139838D01*
X110898671Y-134104796D01*
X110927518Y-134100500D01*
X112604943Y-134100500D01*
X116472482Y-134100500D01*
X116530673Y-134119407D01*
X116551483Y-134139836D01*
X116656128Y-134278407D01*
X116656135Y-134278413D01*
X116813692Y-134422047D01*
X116813699Y-134422053D01*
X116917389Y-134486255D01*
X116994981Y-134534298D01*
X117193802Y-134611321D01*
X117403390Y-134650500D01*
X117616610Y-134650500D01*
X117826198Y-134611321D01*
X118025019Y-134534298D01*
X118206302Y-134422052D01*
X118363872Y-134278407D01*
X118468515Y-134139838D01*
X118518671Y-134104796D01*
X118547518Y-134100500D01*
X118694864Y-134100500D01*
X118694880Y-134100501D01*
X118700943Y-134100501D01*
X118859056Y-134100501D01*
X118859057Y-134100501D01*
X119011785Y-134059577D01*
X119061904Y-134030639D01*
X119148716Y-133980520D01*
X119260520Y-133868716D01*
X119260521Y-133868713D01*
X125244713Y-127884521D01*
X125244716Y-127884520D01*
X125356520Y-127772716D01*
X125397584Y-127701590D01*
X125427181Y-127650328D01*
X125427191Y-127650309D01*
X125427218Y-127650263D01*
X125435577Y-127635785D01*
X125476501Y-127483057D01*
X125476501Y-127324943D01*
X125476501Y-127318881D01*
X125476500Y-127318863D01*
X125476500Y-78723044D01*
X125476501Y-78723031D01*
X125476501Y-78642899D01*
X125495408Y-78584708D01*
X125505491Y-78572901D01*
X125577480Y-78500913D01*
X125588739Y-78481412D01*
X125630207Y-78409587D01*
X125657500Y-78307727D01*
X125657500Y-74011273D01*
X125630207Y-73909413D01*
X125630207Y-73909412D01*
X125630207Y-73909411D01*
X125577483Y-73818091D01*
X125577481Y-73818089D01*
X125577480Y-73818087D01*
X123470913Y-71711520D01*
X123470910Y-71711518D01*
X123470908Y-71711516D01*
X123379591Y-71658794D01*
X123379593Y-71658794D01*
X123340070Y-71648204D01*
X123277727Y-71631500D01*
X123277725Y-71631500D01*
X115443287Y-71631500D01*
X115385096Y-71612593D01*
X115352723Y-71572489D01*
X115311106Y-71478235D01*
X115231665Y-71398794D01*
X115128891Y-71353415D01*
X115128890Y-71353414D01*
X115128888Y-71353414D01*
X115103768Y-71350500D01*
X114048839Y-71350500D01*
X114048836Y-71350501D01*
X114023709Y-71353414D01*
X113920935Y-71398794D01*
X113841494Y-71478235D01*
X113799878Y-71572488D01*
X113796113Y-71581014D01*
X113795526Y-71583173D01*
X113794403Y-71584886D01*
X113793108Y-71587821D01*
X113792622Y-71587606D01*
X113762003Y-71634357D01*
X113704797Y-71656062D01*
X113645758Y-71639996D01*
X113607438Y-71592297D01*
X113604472Y-71583166D01*
X113603885Y-71581011D01*
X113603885Y-71581009D01*
X113558506Y-71478235D01*
X113479065Y-71398794D01*
X113376291Y-71353415D01*
X113376290Y-71353414D01*
X113376288Y-71353414D01*
X113351168Y-71350500D01*
X112296239Y-71350500D01*
X112296236Y-71350501D01*
X112271109Y-71353414D01*
X112168335Y-71398794D01*
X112088894Y-71478235D01*
X112047276Y-71572489D01*
X112006477Y-71618084D01*
X111956713Y-71631500D01*
X111633921Y-71631500D01*
X111575730Y-71612593D01*
X111541824Y-71568819D01*
X111525862Y-71528342D01*
X111436500Y-71410500D01*
X111318658Y-71321138D01*
X111181079Y-71266883D01*
X111094620Y-71256500D01*
X111094618Y-71256500D01*
X110510382Y-71256500D01*
X110510379Y-71256500D01*
X110423920Y-71266883D01*
X110286341Y-71321138D01*
X110168503Y-71410497D01*
X110168496Y-71410504D01*
X110079455Y-71527922D01*
X110029229Y-71562864D01*
X109968056Y-71561610D01*
X109919304Y-71524639D01*
X109906596Y-71499239D01*
X109900450Y-71480692D01*
X109809946Y-71333964D01*
X109688035Y-71212053D01*
X109541306Y-71121548D01*
X109377648Y-71067318D01*
X109276655Y-71057000D01*
X109227501Y-71057000D01*
X109227500Y-71057001D01*
X109227500Y-73006998D01*
X109227501Y-73006999D01*
X109276654Y-73006999D01*
X109377642Y-72996682D01*
X109377654Y-72996679D01*
X109541306Y-72942451D01*
X109688035Y-72851946D01*
X109809946Y-72730035D01*
X109900451Y-72583306D01*
X109906596Y-72564761D01*
X109942845Y-72515469D01*
X110001144Y-72496899D01*
X110059225Y-72516142D01*
X110079456Y-72536078D01*
X110168500Y-72653500D01*
X110286342Y-72742862D01*
X110423923Y-72797117D01*
X110510382Y-72807500D01*
X110510384Y-72807500D01*
X111094616Y-72807500D01*
X111094618Y-72807500D01*
X111181077Y-72797117D01*
X111318658Y-72742862D01*
X111436500Y-72653500D01*
X111525862Y-72535658D01*
X111541824Y-72495180D01*
X111580760Y-72447984D01*
X111633921Y-72432500D01*
X111956713Y-72432500D01*
X112014904Y-72451407D01*
X112047276Y-72491510D01*
X112088894Y-72585765D01*
X112168335Y-72665206D01*
X112271109Y-72710585D01*
X112296235Y-72713500D01*
X113351164Y-72713499D01*
X113376291Y-72710585D01*
X113479065Y-72665206D01*
X113558506Y-72585765D01*
X113603885Y-72482991D01*
X113603886Y-72482978D01*
X113604469Y-72480838D01*
X113605592Y-72479122D01*
X113606892Y-72476179D01*
X113607378Y-72476393D01*
X113637986Y-72429650D01*
X113695190Y-72407938D01*
X113754230Y-72423996D01*
X113792556Y-72471691D01*
X113795525Y-72480826D01*
X113796112Y-72482984D01*
X113796114Y-72482990D01*
X113796115Y-72482991D01*
X113841494Y-72585765D01*
X113920935Y-72665206D01*
X114023709Y-72710585D01*
X114048835Y-72713500D01*
X115103764Y-72713499D01*
X115128891Y-72710585D01*
X115231665Y-72665206D01*
X115311106Y-72585765D01*
X115352723Y-72491510D01*
X115393523Y-72445916D01*
X115443287Y-72432500D01*
X123018099Y-72432500D01*
X123076290Y-72451407D01*
X123088103Y-72461496D01*
X124827504Y-74200897D01*
X124855281Y-74255414D01*
X124856500Y-74270901D01*
X124856500Y-74918510D01*
X124837593Y-74976701D01*
X124788093Y-75012665D01*
X124726907Y-75012665D01*
X124687496Y-74988514D01*
X124685035Y-74986053D01*
X124538306Y-74895548D01*
X124374648Y-74841318D01*
X124273655Y-74831000D01*
X124237001Y-74831000D01*
X124237000Y-74831001D01*
X124237000Y-76019500D01*
X124218093Y-76077691D01*
X124168593Y-76113655D01*
X124138000Y-76118500D01*
X123012002Y-76118500D01*
X123012001Y-76118501D01*
X123012001Y-76217654D01*
X123022317Y-76318642D01*
X123022320Y-76318654D01*
X123076548Y-76482306D01*
X123167053Y-76629035D01*
X123288962Y-76750944D01*
X123330252Y-76776412D01*
X123369854Y-76823053D01*
X123374477Y-76884063D01*
X123357164Y-76920491D01*
X123311797Y-76980318D01*
X123261572Y-77015261D01*
X123232913Y-77019500D01*
X122294863Y-77019500D01*
X122236672Y-77000593D01*
X122215861Y-76980163D01*
X122136764Y-76875421D01*
X121986041Y-76738019D01*
X121812637Y-76630652D01*
X121622456Y-76556976D01*
X121622455Y-76556975D01*
X121622453Y-76556975D01*
X121421976Y-76519500D01*
X121218024Y-76519500D01*
X121017546Y-76556975D01*
X120993055Y-76566463D01*
X120827363Y-76630652D01*
X120718676Y-76697948D01*
X120653959Y-76738019D01*
X120514596Y-76865065D01*
X120458854Y-76890295D01*
X120398929Y-76877943D01*
X120357709Y-76832726D01*
X120348900Y-76791903D01*
X120348900Y-76658500D01*
X120367807Y-76600309D01*
X120377896Y-76588497D01*
X120831973Y-76134419D01*
X120886490Y-76106641D01*
X120937735Y-76112106D01*
X121017544Y-76143024D01*
X121218024Y-76180500D01*
X121421976Y-76180500D01*
X121622456Y-76143024D01*
X121812637Y-76069348D01*
X121986041Y-75961981D01*
X122136764Y-75824579D01*
X122259673Y-75661821D01*
X122330618Y-75519344D01*
X123012000Y-75519344D01*
X123012000Y-75618499D01*
X123012001Y-75618500D01*
X123736999Y-75618500D01*
X123737000Y-75618499D01*
X123737000Y-74831000D01*
X123700357Y-74831000D01*
X123700351Y-74831001D01*
X123599357Y-74841317D01*
X123599345Y-74841320D01*
X123435693Y-74895548D01*
X123288964Y-74986053D01*
X123167053Y-75107964D01*
X123076548Y-75254693D01*
X123022318Y-75418351D01*
X123012000Y-75519344D01*
X122330618Y-75519344D01*
X122350582Y-75479250D01*
X122406397Y-75283083D01*
X122425215Y-75080000D01*
X122406397Y-74876917D01*
X122350582Y-74680750D01*
X122259673Y-74498179D01*
X122136764Y-74335421D01*
X121986041Y-74198019D01*
X121812637Y-74090652D01*
X121622456Y-74016976D01*
X121622455Y-74016975D01*
X121622453Y-74016975D01*
X121421976Y-73979500D01*
X121218024Y-73979500D01*
X121017546Y-74016975D01*
X120989619Y-74027794D01*
X120827363Y-74090652D01*
X120679548Y-74182175D01*
X120653959Y-74198019D01*
X120503237Y-74335420D01*
X120380328Y-74498177D01*
X120380323Y-74498186D01*
X120289419Y-74680747D01*
X120289418Y-74680750D01*
X120233603Y-74876917D01*
X120214785Y-75080000D01*
X120233603Y-75283083D01*
X120263172Y-75387007D01*
X120287880Y-75473845D01*
X120285619Y-75534989D01*
X120262663Y-75570941D01*
X119627920Y-76205686D01*
X119627916Y-76205691D01*
X119575193Y-76297011D01*
X119575192Y-76297011D01*
X119575193Y-76297012D01*
X119547900Y-76398873D01*
X119547900Y-81392499D01*
X119528993Y-81450690D01*
X119479493Y-81486654D01*
X119418307Y-81486654D01*
X119378896Y-81462503D01*
X118606650Y-80690257D01*
X118578873Y-80635740D01*
X118587111Y-80582182D01*
X118585752Y-80581656D01*
X118587400Y-80577398D01*
X118587405Y-80577389D01*
X118645756Y-80372310D01*
X118665429Y-80160000D01*
X118645756Y-79947690D01*
X118587405Y-79742611D01*
X118492366Y-79551745D01*
X118363872Y-79381593D01*
X118294073Y-79317962D01*
X118206307Y-79237952D01*
X118206300Y-79237946D01*
X118025024Y-79125705D01*
X118025019Y-79125702D01*
X117826195Y-79048678D01*
X117616610Y-79009500D01*
X117403390Y-79009500D01*
X117193804Y-79048678D01*
X116994980Y-79125702D01*
X116994975Y-79125705D01*
X116813699Y-79237946D01*
X116813692Y-79237952D01*
X116656135Y-79381586D01*
X116656131Y-79381589D01*
X116656128Y-79381593D01*
X116656125Y-79381597D01*
X116527635Y-79551743D01*
X116527630Y-79551752D01*
X116432596Y-79742608D01*
X116374244Y-79947688D01*
X116354571Y-80160000D01*
X116374244Y-80372311D01*
X116389959Y-80427542D01*
X116432595Y-80577389D01*
X116527634Y-80768255D01*
X116656128Y-80938407D01*
X116656135Y-80938413D01*
X116813692Y-81082047D01*
X116813699Y-81082053D01*
X116856750Y-81108709D01*
X116994981Y-81194298D01*
X117193802Y-81271321D01*
X117403390Y-81310500D01*
X117616610Y-81310500D01*
X117826198Y-81271321D01*
X117930908Y-81230755D01*
X117991998Y-81227366D01*
X118036674Y-81253067D01*
X119004504Y-82220897D01*
X119032281Y-82275414D01*
X119033500Y-82290901D01*
X119033500Y-85958099D01*
X119014593Y-86016290D01*
X118965093Y-86052254D01*
X118903907Y-86052254D01*
X118864496Y-86028103D01*
X118606650Y-85770257D01*
X118578873Y-85715740D01*
X118587111Y-85662182D01*
X118585752Y-85661656D01*
X118587400Y-85657398D01*
X118587405Y-85657389D01*
X118645756Y-85452310D01*
X118665429Y-85240000D01*
X118645756Y-85027690D01*
X118587405Y-84822611D01*
X118492366Y-84631745D01*
X118363872Y-84461593D01*
X118309365Y-84411903D01*
X118206307Y-84317952D01*
X118206300Y-84317946D01*
X118025024Y-84205705D01*
X118025019Y-84205702D01*
X117826195Y-84128678D01*
X117616610Y-84089500D01*
X117403390Y-84089500D01*
X117193804Y-84128678D01*
X116994980Y-84205702D01*
X116994975Y-84205705D01*
X116813699Y-84317946D01*
X116813692Y-84317952D01*
X116656135Y-84461586D01*
X116656131Y-84461589D01*
X116656128Y-84461593D01*
X116656125Y-84461597D01*
X116527635Y-84631743D01*
X116527630Y-84631752D01*
X116432596Y-84822608D01*
X116374244Y-85027688D01*
X116373389Y-85036917D01*
X116354571Y-85240000D01*
X116374244Y-85452310D01*
X116432595Y-85657389D01*
X116527634Y-85848255D01*
X116656128Y-86018407D01*
X116656135Y-86018413D01*
X116813692Y-86162047D01*
X116813699Y-86162053D01*
X116886548Y-86207159D01*
X116994981Y-86274298D01*
X117193802Y-86351321D01*
X117403390Y-86390500D01*
X117616610Y-86390500D01*
X117826198Y-86351321D01*
X117930908Y-86310755D01*
X117991998Y-86307366D01*
X118036674Y-86333067D01*
X118604504Y-86900897D01*
X118632281Y-86955414D01*
X118633500Y-86970901D01*
X118633500Y-87063261D01*
X118614593Y-87121452D01*
X118565093Y-87157416D01*
X118503907Y-87157416D01*
X118455497Y-87122922D01*
X118363880Y-87001603D01*
X118363877Y-87001600D01*
X118363872Y-87001593D01*
X118309365Y-86951903D01*
X118206307Y-86857952D01*
X118206300Y-86857946D01*
X118025024Y-86745705D01*
X118025019Y-86745702D01*
X117923191Y-86706254D01*
X117826198Y-86668679D01*
X117826197Y-86668678D01*
X117826195Y-86668678D01*
X117616610Y-86629500D01*
X117403390Y-86629500D01*
X117193804Y-86668678D01*
X116994980Y-86745702D01*
X116994975Y-86745705D01*
X116813699Y-86857946D01*
X116813692Y-86857952D01*
X116656135Y-87001586D01*
X116656131Y-87001589D01*
X116656128Y-87001593D01*
X116656125Y-87001597D01*
X116527635Y-87171743D01*
X116527630Y-87171752D01*
X116432596Y-87362608D01*
X116374244Y-87567688D01*
X116370378Y-87609414D01*
X116354571Y-87780000D01*
X116374244Y-87992310D01*
X116432595Y-88197389D01*
X116527634Y-88388255D01*
X116656128Y-88558407D01*
X116656135Y-88558413D01*
X116813692Y-88702047D01*
X116813699Y-88702053D01*
X116908413Y-88760697D01*
X116994981Y-88814298D01*
X117193802Y-88891321D01*
X117403390Y-88930500D01*
X117616610Y-88930500D01*
X117826198Y-88891321D01*
X118025019Y-88814298D01*
X118206302Y-88702052D01*
X118363872Y-88558407D01*
X118455498Y-88437075D01*
X118505653Y-88402034D01*
X118566827Y-88403165D01*
X118615654Y-88440037D01*
X118633500Y-88496738D01*
X118633500Y-89603261D01*
X118614593Y-89661452D01*
X118565093Y-89697416D01*
X118503907Y-89697416D01*
X118455497Y-89662922D01*
X118363880Y-89541603D01*
X118363877Y-89541600D01*
X118363872Y-89541593D01*
X118309365Y-89491903D01*
X118206307Y-89397952D01*
X118206300Y-89397946D01*
X118025024Y-89285705D01*
X118025019Y-89285702D01*
X117854130Y-89219500D01*
X117826198Y-89208679D01*
X117826197Y-89208678D01*
X117826195Y-89208678D01*
X117616610Y-89169500D01*
X117403390Y-89169500D01*
X117193804Y-89208678D01*
X116994980Y-89285702D01*
X116994975Y-89285705D01*
X116813699Y-89397946D01*
X116813692Y-89397952D01*
X116656135Y-89541586D01*
X116656131Y-89541589D01*
X116656128Y-89541593D01*
X116656125Y-89541597D01*
X116527635Y-89711743D01*
X116527630Y-89711752D01*
X116451508Y-89864628D01*
X116408646Y-89908290D01*
X116362887Y-89919500D01*
X115848071Y-89919500D01*
X115789880Y-89900593D01*
X115781312Y-89893276D01*
X115743977Y-89864628D01*
X115653841Y-89795464D01*
X115653840Y-89795463D01*
X115653838Y-89795462D01*
X115507766Y-89734957D01*
X115507758Y-89734955D01*
X115351001Y-89714318D01*
X115350999Y-89714318D01*
X115194241Y-89734955D01*
X115194233Y-89734957D01*
X115048161Y-89795462D01*
X115048160Y-89795462D01*
X114922723Y-89891713D01*
X114922713Y-89891723D01*
X114826462Y-90017160D01*
X114826462Y-90017161D01*
X114765957Y-90163233D01*
X114765955Y-90163241D01*
X114745318Y-90319999D01*
X114745318Y-90320000D01*
X114765955Y-90476758D01*
X114765957Y-90476766D01*
X114826462Y-90622838D01*
X114826462Y-90622839D01*
X114922713Y-90748276D01*
X114922718Y-90748282D01*
X115048159Y-90844536D01*
X115194238Y-90905044D01*
X115311809Y-90920522D01*
X115350999Y-90925682D01*
X115351000Y-90925682D01*
X115351001Y-90925682D01*
X115382352Y-90921554D01*
X115507762Y-90905044D01*
X115653841Y-90844536D01*
X115779282Y-90748282D01*
X115779281Y-90748282D01*
X115784430Y-90744332D01*
X115785490Y-90745713D01*
X115832584Y-90721719D01*
X115848071Y-90720500D01*
X116362887Y-90720500D01*
X116421078Y-90739407D01*
X116451508Y-90775372D01*
X116527634Y-90928255D01*
X116656128Y-91098407D01*
X116698835Y-91137339D01*
X116729100Y-91190514D01*
X116722329Y-91251324D01*
X116681109Y-91296540D01*
X116632138Y-91309500D01*
X116178806Y-91309500D01*
X116178790Y-91309499D01*
X116172727Y-91309499D01*
X116067273Y-91309499D01*
X116021418Y-91321786D01*
X115975563Y-91334073D01*
X115975562Y-91334072D01*
X115965416Y-91336791D01*
X115965409Y-91336794D01*
X115874087Y-91389519D01*
X115799519Y-91464086D01*
X115799520Y-91464087D01*
X115799518Y-91464089D01*
X115609783Y-91653822D01*
X115555268Y-91681599D01*
X115544054Y-91682481D01*
X115384741Y-91703455D01*
X115384733Y-91703457D01*
X115238661Y-91763962D01*
X115238660Y-91763962D01*
X115113223Y-91860213D01*
X115113213Y-91860223D01*
X115016962Y-91985660D01*
X115016962Y-91985661D01*
X114956457Y-92131733D01*
X114956455Y-92131740D01*
X114941212Y-92247523D01*
X114914871Y-92302748D01*
X114861100Y-92331942D01*
X114800438Y-92323956D01*
X114773055Y-92304604D01*
X113243496Y-90775045D01*
X113215719Y-90720528D01*
X113214500Y-90705041D01*
X113214500Y-89863071D01*
X113233407Y-89804880D01*
X113240715Y-89796324D01*
X113242282Y-89794282D01*
X113338536Y-89668841D01*
X113399044Y-89522762D01*
X113419682Y-89366000D01*
X113399044Y-89209238D01*
X113399042Y-89209233D01*
X113338537Y-89063161D01*
X113338537Y-89063160D01*
X113242286Y-88937723D01*
X113242285Y-88937722D01*
X113242282Y-88937718D01*
X113242277Y-88937714D01*
X113242276Y-88937713D01*
X113158027Y-88873067D01*
X113116841Y-88841464D01*
X113116840Y-88841463D01*
X113116838Y-88841462D01*
X112970766Y-88780957D01*
X112970758Y-88780955D01*
X112814001Y-88760318D01*
X112813998Y-88760318D01*
X112726421Y-88771847D01*
X112666261Y-88760697D01*
X112624144Y-88716314D01*
X112614500Y-88673694D01*
X112614500Y-82700000D01*
X116354571Y-82700000D01*
X116374244Y-82912310D01*
X116432595Y-83117389D01*
X116527634Y-83308255D01*
X116656128Y-83478407D01*
X116656135Y-83478413D01*
X116813692Y-83622047D01*
X116813699Y-83622053D01*
X116894525Y-83672098D01*
X116994981Y-83734298D01*
X117193802Y-83811321D01*
X117403390Y-83850500D01*
X117616610Y-83850500D01*
X117826198Y-83811321D01*
X118025019Y-83734298D01*
X118206302Y-83622052D01*
X118363872Y-83478407D01*
X118492366Y-83308255D01*
X118587405Y-83117389D01*
X118645756Y-82912310D01*
X118665429Y-82700000D01*
X118645756Y-82487690D01*
X118587405Y-82282611D01*
X118492366Y-82091745D01*
X118363872Y-81921593D01*
X118309365Y-81871903D01*
X118206307Y-81777952D01*
X118206300Y-81777946D01*
X118025024Y-81665705D01*
X118025019Y-81665702D01*
X117932548Y-81629879D01*
X117826198Y-81588679D01*
X117826197Y-81588678D01*
X117826195Y-81588678D01*
X117616610Y-81549500D01*
X117403390Y-81549500D01*
X117193804Y-81588678D01*
X116994980Y-81665702D01*
X116994975Y-81665705D01*
X116813699Y-81777946D01*
X116813692Y-81777952D01*
X116656135Y-81921586D01*
X116656131Y-81921589D01*
X116656128Y-81921593D01*
X116656125Y-81921597D01*
X116527635Y-82091743D01*
X116527630Y-82091752D01*
X116432596Y-82282608D01*
X116374244Y-82487688D01*
X116368943Y-82544900D01*
X116354571Y-82700000D01*
X112614500Y-82700000D01*
X112614500Y-80653274D01*
X112614500Y-80653273D01*
X112592974Y-80572937D01*
X112587207Y-80551412D01*
X112587207Y-80551411D01*
X112534483Y-80460091D01*
X112534481Y-80460089D01*
X112534480Y-80460087D01*
X110675381Y-78600988D01*
X110647606Y-78546474D01*
X110657177Y-78486042D01*
X110678685Y-78457832D01*
X110743872Y-78398407D01*
X110872366Y-78228255D01*
X110967405Y-78037389D01*
X111025756Y-77832310D01*
X111045429Y-77620000D01*
X111025756Y-77407690D01*
X110967405Y-77202611D01*
X110872366Y-77011745D01*
X110743872Y-76841593D01*
X110649433Y-76755500D01*
X110586307Y-76697952D01*
X110586300Y-76697946D01*
X110449383Y-76613171D01*
X110409862Y-76566463D01*
X110405343Y-76505444D01*
X110437553Y-76453424D01*
X110494189Y-76430270D01*
X110501500Y-76430000D01*
X110787824Y-76430000D01*
X110847370Y-76423598D01*
X110847381Y-76423596D01*
X110982088Y-76373353D01*
X110982090Y-76373352D01*
X111097184Y-76287192D01*
X111097192Y-76287184D01*
X111183352Y-76172090D01*
X111183353Y-76172088D01*
X111233596Y-76037381D01*
X111233598Y-76037370D01*
X111240000Y-75977824D01*
X116159999Y-75977824D01*
X116166401Y-76037370D01*
X116166403Y-76037381D01*
X116216646Y-76172088D01*
X116216647Y-76172090D01*
X116302807Y-76287184D01*
X116302815Y-76287192D01*
X116417909Y-76373352D01*
X116417911Y-76373353D01*
X116552618Y-76423596D01*
X116552629Y-76423598D01*
X116612176Y-76430000D01*
X116898500Y-76430000D01*
X116956691Y-76448907D01*
X116992655Y-76498407D01*
X116992655Y-76559593D01*
X116956691Y-76609093D01*
X116950617Y-76613171D01*
X116813699Y-76697946D01*
X116813692Y-76697952D01*
X116656135Y-76841586D01*
X116656131Y-76841589D01*
X116656128Y-76841593D01*
X116656125Y-76841597D01*
X116527635Y-77011743D01*
X116527630Y-77011752D01*
X116432596Y-77202608D01*
X116374244Y-77407688D01*
X116374244Y-77407690D01*
X116354571Y-77620000D01*
X116374244Y-77832310D01*
X116427434Y-78019252D01*
X116432596Y-78037391D01*
X116523772Y-78220500D01*
X116527634Y-78228255D01*
X116656128Y-78398407D01*
X116721305Y-78457824D01*
X116813692Y-78542047D01*
X116813699Y-78542053D01*
X116908887Y-78600991D01*
X116994981Y-78654298D01*
X117193802Y-78731321D01*
X117403390Y-78770500D01*
X117616610Y-78770500D01*
X117826198Y-78731321D01*
X118025019Y-78654298D01*
X118206302Y-78542052D01*
X118363872Y-78398407D01*
X118492366Y-78228255D01*
X118587405Y-78037389D01*
X118645756Y-77832310D01*
X118665429Y-77620000D01*
X118645756Y-77407690D01*
X118587405Y-77202611D01*
X118492366Y-77011745D01*
X118363872Y-76841593D01*
X118269433Y-76755500D01*
X118206307Y-76697952D01*
X118206300Y-76697946D01*
X118069383Y-76613171D01*
X118029862Y-76566463D01*
X118025343Y-76505444D01*
X118057553Y-76453424D01*
X118114189Y-76430270D01*
X118121500Y-76430000D01*
X118407824Y-76430000D01*
X118467370Y-76423598D01*
X118467381Y-76423596D01*
X118602088Y-76373353D01*
X118602090Y-76373352D01*
X118717184Y-76287192D01*
X118717192Y-76287184D01*
X118803352Y-76172090D01*
X118803353Y-76172088D01*
X118853596Y-76037381D01*
X118853598Y-76037370D01*
X118860000Y-75977824D01*
X118860000Y-75330001D01*
X118859999Y-75330000D01*
X117943012Y-75330000D01*
X117975925Y-75272993D01*
X118010000Y-75145826D01*
X118010000Y-75014174D01*
X117975925Y-74887007D01*
X117943012Y-74830000D01*
X118859999Y-74830000D01*
X118860000Y-74829999D01*
X118860000Y-74182175D01*
X118853598Y-74122629D01*
X118853596Y-74122618D01*
X118803353Y-73987911D01*
X118803352Y-73987909D01*
X118717192Y-73872815D01*
X118717184Y-73872807D01*
X118602090Y-73786647D01*
X118602088Y-73786646D01*
X118467381Y-73736403D01*
X118467370Y-73736401D01*
X118407824Y-73730000D01*
X117760001Y-73730000D01*
X117760000Y-73730001D01*
X117760000Y-74646988D01*
X117702993Y-74614075D01*
X117575826Y-74580000D01*
X117444174Y-74580000D01*
X117317007Y-74614075D01*
X117260000Y-74646988D01*
X117260000Y-73730001D01*
X117259999Y-73730000D01*
X116612176Y-73730000D01*
X116552629Y-73736401D01*
X116552618Y-73736403D01*
X116417911Y-73786646D01*
X116417909Y-73786647D01*
X116302815Y-73872807D01*
X116302807Y-73872815D01*
X116216647Y-73987909D01*
X116216646Y-73987911D01*
X116166403Y-74122618D01*
X116166401Y-74122629D01*
X116160000Y-74182175D01*
X116160000Y-74829999D01*
X116160001Y-74830000D01*
X117076988Y-74830000D01*
X117044075Y-74887007D01*
X117010000Y-75014174D01*
X117010000Y-75145826D01*
X117044075Y-75272993D01*
X117076988Y-75330000D01*
X116160001Y-75330000D01*
X116160000Y-75330001D01*
X116160000Y-75977824D01*
X116159999Y-75977824D01*
X111240000Y-75977824D01*
X111240000Y-75330001D01*
X111239999Y-75330000D01*
X110323012Y-75330000D01*
X110355925Y-75272993D01*
X110390000Y-75145826D01*
X110390000Y-75014174D01*
X110355925Y-74887007D01*
X110323012Y-74830000D01*
X111239999Y-74830000D01*
X111240000Y-74829999D01*
X111240000Y-74182175D01*
X111233598Y-74122629D01*
X111233596Y-74122618D01*
X111183353Y-73987911D01*
X111183352Y-73987909D01*
X111097192Y-73872815D01*
X111097184Y-73872807D01*
X110982090Y-73786647D01*
X110982088Y-73786646D01*
X110847381Y-73736403D01*
X110847370Y-73736401D01*
X110787824Y-73730000D01*
X110140001Y-73730000D01*
X110140000Y-73730001D01*
X110140000Y-74646988D01*
X110082993Y-74614075D01*
X109955826Y-74580000D01*
X109824174Y-74580000D01*
X109697007Y-74614075D01*
X109640000Y-74646988D01*
X109640000Y-73730001D01*
X109639999Y-73730000D01*
X108992176Y-73730000D01*
X108932629Y-73736401D01*
X108932618Y-73736403D01*
X108797911Y-73786646D01*
X108797909Y-73786647D01*
X108682815Y-73872807D01*
X108682807Y-73872815D01*
X108596647Y-73987909D01*
X108596646Y-73987911D01*
X108546403Y-74122618D01*
X108546401Y-74122629D01*
X108540000Y-74182175D01*
X108540000Y-74829999D01*
X108540001Y-74830000D01*
X109456988Y-74830000D01*
X109424075Y-74887007D01*
X109390000Y-75014174D01*
X109390000Y-75145826D01*
X109424075Y-75272993D01*
X109456988Y-75330000D01*
X108540001Y-75330000D01*
X108540000Y-75330001D01*
X108540000Y-75977824D01*
X108539999Y-75977824D01*
X108546401Y-76037370D01*
X108546403Y-76037381D01*
X108596646Y-76172088D01*
X108596647Y-76172090D01*
X108682807Y-76287184D01*
X108682815Y-76287192D01*
X108797909Y-76373352D01*
X108797911Y-76373353D01*
X108932618Y-76423596D01*
X108932629Y-76423598D01*
X108992176Y-76430000D01*
X109278500Y-76430000D01*
X109336691Y-76448907D01*
X109372655Y-76498407D01*
X109372655Y-76559593D01*
X109336691Y-76609093D01*
X109330617Y-76613171D01*
X109193699Y-76697946D01*
X109193692Y-76697952D01*
X109036135Y-76841586D01*
X109036131Y-76841589D01*
X109036128Y-76841593D01*
X109036125Y-76841597D01*
X108907635Y-77011743D01*
X108907630Y-77011752D01*
X108812596Y-77202608D01*
X108754244Y-77407688D01*
X108749265Y-77461422D01*
X108725068Y-77517620D01*
X108672460Y-77548862D01*
X108611536Y-77543216D01*
X108580683Y-77522290D01*
X108287496Y-77229103D01*
X108259719Y-77174586D01*
X108258500Y-77159099D01*
X108258500Y-76918714D01*
X108258501Y-76918701D01*
X108258501Y-76805272D01*
X108258500Y-76805270D01*
X108250767Y-76776412D01*
X108231207Y-76703413D01*
X108189198Y-76630652D01*
X108188264Y-76629035D01*
X108178483Y-76612092D01*
X108178482Y-76612091D01*
X108178480Y-76612087D01*
X108103913Y-76537520D01*
X108103910Y-76537518D01*
X107209495Y-75643103D01*
X107181718Y-75588586D01*
X107180499Y-75573099D01*
X107180499Y-74235139D01*
X107180499Y-74235136D01*
X107177585Y-74210009D01*
X107132206Y-74107235D01*
X107052765Y-74027794D01*
X106949991Y-73982415D01*
X106949990Y-73982414D01*
X106949988Y-73982414D01*
X106924868Y-73979500D01*
X105235139Y-73979500D01*
X105235136Y-73979501D01*
X105210009Y-73982414D01*
X105107235Y-74027794D01*
X105027794Y-74107235D01*
X104982414Y-74210011D01*
X104979500Y-74235130D01*
X101100500Y-74235130D01*
X101100500Y-72282001D01*
X107990001Y-72282001D01*
X107990001Y-72318654D01*
X108000317Y-72419642D01*
X108000320Y-72419654D01*
X108054548Y-72583306D01*
X108145053Y-72730035D01*
X108266964Y-72851946D01*
X108413693Y-72942451D01*
X108577351Y-72996681D01*
X108678345Y-73006999D01*
X108727500Y-73006998D01*
X108727500Y-72282001D01*
X108727499Y-72282000D01*
X107990002Y-72282000D01*
X107990001Y-72282001D01*
X101100500Y-72282001D01*
X101100500Y-71745344D01*
X107990000Y-71745344D01*
X107990000Y-71781999D01*
X107990001Y-71782000D01*
X108727499Y-71782000D01*
X108727500Y-71781999D01*
X108727500Y-71056999D01*
X108678347Y-71057000D01*
X108678344Y-71057001D01*
X108577357Y-71067317D01*
X108577345Y-71067320D01*
X108413693Y-71121548D01*
X108266964Y-71212053D01*
X108145053Y-71333964D01*
X108054548Y-71480693D01*
X108000318Y-71644351D01*
X107990000Y-71745344D01*
X101100500Y-71745344D01*
X101100500Y-71274318D01*
X101100877Y-71265690D01*
X101102249Y-71250009D01*
X101117512Y-71075540D01*
X101120505Y-71058564D01*
X101168790Y-70878360D01*
X101174686Y-70862163D01*
X101253526Y-70693091D01*
X101262146Y-70678161D01*
X101369145Y-70525351D01*
X101380226Y-70512144D01*
X101512144Y-70380226D01*
X101525351Y-70369145D01*
X101678161Y-70262146D01*
X101693091Y-70253526D01*
X101862163Y-70174686D01*
X101878360Y-70168790D01*
X102058564Y-70120505D01*
X102075540Y-70117512D01*
X102265691Y-70100877D01*
X102274319Y-70100500D01*
X102296929Y-70100500D01*
X125103071Y-70100500D01*
X125125681Y-70100500D01*
X125134309Y-70100877D01*
G37*
G04 #@! TD.AperFunction*
M02*
