G04 #@! TF.GenerationSoftware,KiCad,Pcbnew,8.0.4+dfsg-1*
G04 #@! TF.CreationDate,2025-02-20T14:08:20+09:00*
G04 #@! TF.ProjectId,bionic-hd6120,62696f6e-6963-42d6-9864-363132302e6b,3*
G04 #@! TF.SameCoordinates,Original*
G04 #@! TF.FileFunction,Legend,Top*
G04 #@! TF.FilePolarity,Positive*
%FSLAX46Y46*%
G04 Gerber Fmt 4.6, Leading zero omitted, Abs format (unit mm)*
G04 Created by KiCad (PCBNEW 8.0.4+dfsg-1) date 2025-02-20 14:08:20*
%MOMM*%
%LPD*%
G01*
G04 APERTURE LIST*
%ADD10C,0.150000*%
%ADD11C,0.120000*%
%ADD12C,0.152400*%
G04 APERTURE END LIST*
D10*
G36*
X106815392Y-135683563D02*
G01*
X106892198Y-135690137D01*
X106974376Y-135703811D01*
X107045659Y-135723797D01*
X107115049Y-135755090D01*
X107140248Y-135771131D01*
X107196027Y-135822719D01*
X107235869Y-135888092D01*
X107259774Y-135967250D01*
X107267618Y-136047821D01*
X107267743Y-136060192D01*
X107259836Y-136137873D01*
X107232873Y-136213404D01*
X107186776Y-136278545D01*
X107130591Y-136326122D01*
X107063243Y-136360319D01*
X106984732Y-136381134D01*
X106967690Y-136383692D01*
X106967690Y-136393950D01*
X107047890Y-136411627D01*
X107117396Y-136436815D01*
X107189241Y-136478861D01*
X107244378Y-136532642D01*
X107282807Y-136598158D01*
X107304528Y-136675409D01*
X107309874Y-136745660D01*
X107305251Y-136818981D01*
X107288168Y-136896774D01*
X107258498Y-136966222D01*
X107216240Y-137027326D01*
X107178350Y-137065862D01*
X107116392Y-137111115D01*
X107045284Y-137145253D01*
X106965024Y-137168276D01*
X106888946Y-137179164D01*
X106820412Y-137182000D01*
X106277460Y-137182000D01*
X106277460Y-137018235D01*
X106470168Y-137018235D01*
X106786340Y-137018235D01*
X106861473Y-137013855D01*
X106941302Y-136996065D01*
X107016436Y-136956652D01*
X107069029Y-136897533D01*
X107099082Y-136818707D01*
X107106909Y-136737966D01*
X107098760Y-136663135D01*
X107067470Y-136590080D01*
X107012713Y-136535288D01*
X106934489Y-136498761D01*
X106851375Y-136482272D01*
X106773151Y-136478214D01*
X106470168Y-136478214D01*
X106470168Y-137018235D01*
X106277460Y-137018235D01*
X106277460Y-136314449D01*
X106470168Y-136314449D01*
X106762526Y-136314449D01*
X106837494Y-136310946D01*
X106915875Y-136296713D01*
X106987454Y-136265183D01*
X106996999Y-136258395D01*
X107044678Y-136200759D01*
X107067115Y-136126089D01*
X107070639Y-136073015D01*
X107061331Y-135997322D01*
X107026331Y-135928965D01*
X106991870Y-135898259D01*
X106919811Y-135865887D01*
X106839926Y-135850324D01*
X106763036Y-135845344D01*
X106742010Y-135845136D01*
X106470168Y-135845136D01*
X106470168Y-136314449D01*
X106277460Y-136314449D01*
X106277460Y-135681371D01*
X106731019Y-135681371D01*
X106815392Y-135683563D01*
G37*
G36*
X108050663Y-135587582D02*
G01*
X108125295Y-135609952D01*
X108158134Y-135677061D01*
X108159840Y-135704452D01*
X108141498Y-135776580D01*
X108127233Y-135793113D01*
X108058869Y-135821801D01*
X108050663Y-135822055D01*
X107979264Y-135802646D01*
X107943080Y-135738332D01*
X107940387Y-135704452D01*
X107958587Y-135628784D01*
X108024817Y-135589408D01*
X108050663Y-135587582D01*
G37*
G36*
X107956141Y-136203807D02*
G01*
X107678803Y-136182191D01*
X107678803Y-136056528D01*
X108143353Y-136056528D01*
X108143353Y-137034721D01*
X108506054Y-137055237D01*
X108506054Y-137182000D01*
X107601500Y-137182000D01*
X107601500Y-137055237D01*
X107956141Y-137034721D01*
X107956141Y-136203807D01*
G37*
G36*
X109375096Y-136038697D02*
G01*
X109450736Y-136055544D01*
X109520657Y-136083622D01*
X109584859Y-136122932D01*
X109643343Y-136173473D01*
X109661567Y-136192816D01*
X109710249Y-136256400D01*
X109748859Y-136327352D01*
X109777396Y-136405671D01*
X109795862Y-136491357D01*
X109803556Y-136568390D01*
X109804815Y-136617066D01*
X109801363Y-136699648D01*
X109791005Y-136776577D01*
X109773742Y-136847854D01*
X109743912Y-136925924D01*
X109704139Y-136995854D01*
X109663399Y-137047910D01*
X109607207Y-137101448D01*
X109544422Y-137143909D01*
X109475041Y-137175293D01*
X109399067Y-137195601D01*
X109316497Y-137204831D01*
X109287509Y-137205447D01*
X109206747Y-137199818D01*
X109131523Y-137182933D01*
X109061838Y-137154790D01*
X108997692Y-137115390D01*
X108939083Y-137064733D01*
X108920778Y-137045346D01*
X108871972Y-136981396D01*
X108833263Y-136909900D01*
X108804652Y-136830855D01*
X108788523Y-136759219D01*
X108779407Y-136682342D01*
X108777163Y-136617066D01*
X108970970Y-136617066D01*
X108973788Y-136694390D01*
X108986310Y-136785657D01*
X109008850Y-136863404D01*
X109051112Y-136941573D01*
X109109027Y-136998615D01*
X109182595Y-137034531D01*
X109271816Y-137049319D01*
X109291539Y-137049742D01*
X109366414Y-137042981D01*
X109445970Y-137015517D01*
X109509926Y-136966925D01*
X109558283Y-136897207D01*
X109585738Y-136826221D01*
X109603209Y-136741714D01*
X109610696Y-136643686D01*
X109611008Y-136617066D01*
X109608181Y-136540528D01*
X109595616Y-136450187D01*
X109572999Y-136373231D01*
X109530591Y-136295856D01*
X109472478Y-136239393D01*
X109398657Y-136203843D01*
X109309131Y-136189204D01*
X109289341Y-136188786D01*
X109214722Y-136195478D01*
X109135441Y-136222664D01*
X109071704Y-136270761D01*
X109023514Y-136339771D01*
X108996154Y-136410036D01*
X108978743Y-136493684D01*
X108971281Y-136590717D01*
X108970970Y-136617066D01*
X108777163Y-136617066D01*
X108780571Y-136535249D01*
X108790795Y-136459014D01*
X108812060Y-136374899D01*
X108843139Y-136298821D01*
X108884033Y-136230780D01*
X108916748Y-136189885D01*
X108972531Y-136136596D01*
X109035193Y-136094333D01*
X109104732Y-136063094D01*
X109181149Y-136042881D01*
X109264444Y-136033694D01*
X109293737Y-136033081D01*
X109375096Y-136038697D01*
G37*
G36*
X110833200Y-137182000D02*
G01*
X110833200Y-136455866D01*
X110827216Y-136378924D01*
X110804238Y-136303808D01*
X110755649Y-136239907D01*
X110683604Y-136201566D01*
X110603181Y-136189047D01*
X110588102Y-136188786D01*
X110513913Y-136195174D01*
X110435088Y-136221128D01*
X110371718Y-136267045D01*
X110323804Y-136332926D01*
X110291347Y-136418771D01*
X110276509Y-136501821D01*
X110271563Y-136597648D01*
X110271563Y-137182000D01*
X110083985Y-137182000D01*
X110083985Y-136056528D01*
X110235293Y-136056528D01*
X110263137Y-136206371D01*
X110273395Y-136206371D01*
X110317951Y-136147480D01*
X110381850Y-136094173D01*
X110458581Y-136057450D01*
X110534564Y-136039173D01*
X110619976Y-136033081D01*
X110713914Y-136039521D01*
X110795327Y-136058841D01*
X110864215Y-136091041D01*
X110932711Y-136149404D01*
X110973418Y-136210584D01*
X111001599Y-136284644D01*
X111017255Y-136371583D01*
X111020778Y-136445241D01*
X111020778Y-137182000D01*
X110833200Y-137182000D01*
G37*
G36*
X111831542Y-135587582D02*
G01*
X111906175Y-135609952D01*
X111939013Y-135677061D01*
X111940719Y-135704452D01*
X111922378Y-135776580D01*
X111908112Y-135793113D01*
X111839748Y-135821801D01*
X111831542Y-135822055D01*
X111760143Y-135802646D01*
X111723959Y-135738332D01*
X111721267Y-135704452D01*
X111739466Y-135628784D01*
X111805696Y-135589408D01*
X111831542Y-135587582D01*
G37*
G36*
X111737020Y-136203807D02*
G01*
X111459683Y-136182191D01*
X111459683Y-136056528D01*
X111924232Y-136056528D01*
X111924232Y-137034721D01*
X112286933Y-137055237D01*
X112286933Y-137182000D01*
X111382380Y-137182000D01*
X111382380Y-137055237D01*
X111737020Y-137034721D01*
X111737020Y-136203807D01*
G37*
G36*
X113532938Y-136093898D02*
G01*
X113469191Y-136256563D01*
X113393948Y-136230437D01*
X113322828Y-136211775D01*
X113247744Y-136199704D01*
X113192952Y-136196846D01*
X113103393Y-136203504D01*
X113025775Y-136223476D01*
X112960099Y-136256764D01*
X112894795Y-136317098D01*
X112855987Y-136380344D01*
X112829119Y-136456906D01*
X112814192Y-136546782D01*
X112810834Y-136622928D01*
X112814102Y-136697764D01*
X112828628Y-136786095D01*
X112854774Y-136861340D01*
X112903799Y-136936993D01*
X112970981Y-136992200D01*
X113056319Y-137026960D01*
X113137664Y-137040046D01*
X113182694Y-137041682D01*
X113264095Y-137037698D01*
X113346367Y-137025745D01*
X113419068Y-137008750D01*
X113492436Y-136985654D01*
X113513521Y-136977935D01*
X113513521Y-137142799D01*
X113440545Y-137170207D01*
X113359739Y-137189785D01*
X113282610Y-137200491D01*
X113199485Y-137205202D01*
X113174634Y-137205447D01*
X113094747Y-137201789D01*
X113020639Y-137190814D01*
X112939336Y-137167986D01*
X112866354Y-137134623D01*
X112801692Y-137090723D01*
X112763207Y-137055604D01*
X112713528Y-136994827D01*
X112674129Y-136924880D01*
X112645007Y-136845763D01*
X112628590Y-136772826D01*
X112619311Y-136693521D01*
X112617027Y-136625492D01*
X112620677Y-136538418D01*
X112631625Y-136458088D01*
X112649871Y-136384502D01*
X112681401Y-136305101D01*
X112723442Y-136235412D01*
X112766504Y-136184756D01*
X112826821Y-136133210D01*
X112895664Y-136092329D01*
X112973035Y-136062113D01*
X113058931Y-136042561D01*
X113137025Y-136034414D01*
X113186724Y-136033081D01*
X113266027Y-136035991D01*
X113343332Y-136044722D01*
X113418638Y-136059273D01*
X113491945Y-136079644D01*
X113532938Y-136093898D01*
G37*
G36*
X114827303Y-137182000D02*
G01*
X114634595Y-137182000D01*
X114634595Y-136483343D01*
X114031926Y-136483343D01*
X114031926Y-137182000D01*
X113839218Y-137182000D01*
X113839218Y-135681371D01*
X114031926Y-135681371D01*
X114031926Y-136314449D01*
X114634595Y-136314449D01*
X114634595Y-135681371D01*
X114827303Y-135681371D01*
X114827303Y-137182000D01*
G37*
G36*
X115531300Y-135684405D02*
G01*
X115606125Y-135693507D01*
X115693295Y-135713418D01*
X115773400Y-135742809D01*
X115846439Y-135781682D01*
X115912411Y-135830035D01*
X115960101Y-135875545D01*
X116012557Y-135939875D01*
X116056122Y-136011736D01*
X116090796Y-136091129D01*
X116116579Y-136178053D01*
X116130804Y-136253014D01*
X116139339Y-136332796D01*
X116142184Y-136417397D01*
X116139236Y-136507288D01*
X116130392Y-136591764D01*
X116115651Y-136670824D01*
X116095015Y-136744469D01*
X116060928Y-136828910D01*
X116017628Y-136904889D01*
X115965115Y-136972407D01*
X115953507Y-136984896D01*
X115890572Y-137041678D01*
X115819462Y-137088837D01*
X115740176Y-137126372D01*
X115652716Y-137154282D01*
X115576861Y-137169681D01*
X115495775Y-137178920D01*
X115409456Y-137182000D01*
X115099512Y-137182000D01*
X115099512Y-137018235D01*
X115292219Y-137018235D01*
X115391138Y-137018235D01*
X115489086Y-137013012D01*
X115577399Y-136997343D01*
X115656079Y-136971229D01*
X115725124Y-136934669D01*
X115784535Y-136887664D01*
X115834312Y-136830213D01*
X115874455Y-136762316D01*
X115904963Y-136683973D01*
X115925838Y-136595185D01*
X115937078Y-136495951D01*
X115939218Y-136423992D01*
X115934756Y-136320544D01*
X115921367Y-136227271D01*
X115899052Y-136144174D01*
X115867812Y-136071252D01*
X115827646Y-136008505D01*
X115760206Y-135940670D01*
X115676898Y-135890925D01*
X115604004Y-135865487D01*
X115522184Y-135850224D01*
X115431438Y-135845136D01*
X115292219Y-135845136D01*
X115292219Y-137018235D01*
X115099512Y-137018235D01*
X115099512Y-135681371D01*
X115451954Y-135681371D01*
X115531300Y-135684405D01*
G37*
G36*
X117112832Y-135660655D02*
G01*
X117187344Y-135670743D01*
X117214899Y-135677341D01*
X117214899Y-135837076D01*
X117140812Y-135823139D01*
X117061932Y-135817830D01*
X117043807Y-135817659D01*
X116961285Y-135822734D01*
X116886825Y-135837958D01*
X116810147Y-135868547D01*
X116744443Y-135912951D01*
X116696860Y-135962006D01*
X116651259Y-136033098D01*
X116620210Y-136106926D01*
X116600002Y-136177540D01*
X116584947Y-136256420D01*
X116575044Y-136343563D01*
X116570830Y-136419229D01*
X116583287Y-136419229D01*
X116631851Y-136350993D01*
X116691950Y-136299517D01*
X116763584Y-136264800D01*
X116846754Y-136246843D01*
X116899459Y-136244107D01*
X116983140Y-136249962D01*
X117058511Y-136267529D01*
X117134475Y-136301944D01*
X117199585Y-136351655D01*
X117214166Y-136366473D01*
X117264015Y-136433243D01*
X117295949Y-136500832D01*
X117316979Y-136576978D01*
X117327104Y-136661678D01*
X117328105Y-136700597D01*
X117323739Y-136785034D01*
X117310640Y-136862490D01*
X117288809Y-136932965D01*
X117252301Y-137006363D01*
X117203908Y-137070258D01*
X117145504Y-137122934D01*
X117078966Y-137162672D01*
X117004294Y-137189472D01*
X116921487Y-137203334D01*
X116870516Y-137205447D01*
X116789506Y-137199355D01*
X116714909Y-137181078D01*
X116646727Y-137150617D01*
X116584958Y-137107971D01*
X116529604Y-137053141D01*
X116512579Y-137032157D01*
X116467258Y-136961986D01*
X116431314Y-136881718D01*
X116408524Y-136807114D01*
X116392245Y-136725498D01*
X116385423Y-136663594D01*
X116566800Y-136663594D01*
X116571998Y-136738790D01*
X116590272Y-136817036D01*
X116621702Y-136888559D01*
X116649965Y-136932505D01*
X116701038Y-136987229D01*
X116767370Y-137027028D01*
X116843791Y-137044717D01*
X116868685Y-137045712D01*
X116944848Y-137036911D01*
X117015736Y-137006898D01*
X117073116Y-136955586D01*
X117111949Y-136891852D01*
X117134602Y-136821827D01*
X117145604Y-136739804D01*
X117146755Y-136699498D01*
X117141162Y-136621455D01*
X117121828Y-136547452D01*
X117084609Y-136481504D01*
X117076047Y-136471253D01*
X117014790Y-136422584D01*
X116943702Y-136397703D01*
X116874913Y-136391385D01*
X116797282Y-136399507D01*
X116727881Y-136423872D01*
X116666708Y-136464479D01*
X116655461Y-136474550D01*
X116604983Y-136534245D01*
X116573814Y-136605686D01*
X116566800Y-136663594D01*
X116385423Y-136663594D01*
X116382478Y-136636870D01*
X116379352Y-136560918D01*
X116379222Y-136541228D01*
X116381794Y-136434266D01*
X116389509Y-136334204D01*
X116402367Y-136241043D01*
X116420369Y-136154783D01*
X116443515Y-136075423D01*
X116471803Y-136002965D01*
X116505236Y-135937407D01*
X116565028Y-135852010D01*
X116636393Y-135782139D01*
X116719330Y-135727795D01*
X116813840Y-135688978D01*
X116919923Y-135665688D01*
X116997074Y-135658787D01*
X117037579Y-135657924D01*
X117112832Y-135660655D01*
G37*
G36*
X118261968Y-137182000D02*
G01*
X118080618Y-137182000D01*
X118080618Y-136248870D01*
X118081255Y-136169326D01*
X118082633Y-136094356D01*
X118084427Y-136020970D01*
X118086789Y-135939160D01*
X118088678Y-135879941D01*
X118033634Y-135936171D01*
X117974518Y-135989915D01*
X117964114Y-135999009D01*
X117812805Y-136126870D01*
X117712788Y-135997177D01*
X118107362Y-135681371D01*
X118261968Y-135681371D01*
X118261968Y-137182000D01*
G37*
G36*
X119842830Y-137182000D02*
G01*
X118903838Y-137182000D01*
X118903838Y-137021166D01*
X119264707Y-136629889D01*
X119324102Y-136564152D01*
X119376806Y-136503872D01*
X119431220Y-136438738D01*
X119482526Y-136372678D01*
X119525104Y-136310276D01*
X119529222Y-136303458D01*
X119563032Y-136234221D01*
X119584320Y-136160690D01*
X119593085Y-136082867D01*
X119593336Y-136066787D01*
X119585587Y-135993204D01*
X119556447Y-135921088D01*
X119527757Y-135884704D01*
X119467153Y-135841295D01*
X119391312Y-135820016D01*
X119351169Y-135817659D01*
X119268874Y-135826406D01*
X119197092Y-135848410D01*
X119125520Y-135883808D01*
X119064340Y-135924809D01*
X119023639Y-135957610D01*
X118918493Y-135834878D01*
X118981274Y-135783900D01*
X119045969Y-135741563D01*
X119112578Y-135707865D01*
X119195036Y-135678834D01*
X119280250Y-135662244D01*
X119353367Y-135657924D01*
X119436690Y-135663131D01*
X119511948Y-135678751D01*
X119588084Y-135709354D01*
X119653686Y-135753558D01*
X119668440Y-135766734D01*
X119718930Y-135825833D01*
X119754994Y-135894321D01*
X119776632Y-135972196D01*
X119783732Y-136048038D01*
X119783845Y-136059459D01*
X119777906Y-136136546D01*
X119760089Y-136214849D01*
X119733897Y-136286362D01*
X119723029Y-136310419D01*
X119681492Y-136382570D01*
X119635734Y-136447232D01*
X119588038Y-136508023D01*
X119531649Y-136575094D01*
X119480278Y-136633272D01*
X119423343Y-136695468D01*
X119133915Y-137002847D01*
X119133915Y-137010907D01*
X119842830Y-137010907D01*
X119842830Y-137182000D01*
G37*
G36*
X120717446Y-135664918D02*
G01*
X120794696Y-135685899D01*
X120863728Y-135720869D01*
X120924543Y-135769826D01*
X120977141Y-135832770D01*
X120992847Y-135856860D01*
X121028099Y-135923339D01*
X121057376Y-135998440D01*
X121080678Y-136082163D01*
X121095018Y-136155350D01*
X121105534Y-136234056D01*
X121112225Y-136318279D01*
X121115093Y-136408021D01*
X121115213Y-136431319D01*
X121113325Y-136525061D01*
X121107662Y-136612755D01*
X121098224Y-136694402D01*
X121085011Y-136770000D01*
X121058112Y-136872058D01*
X121022719Y-136960508D01*
X120978831Y-137035350D01*
X120926449Y-137096585D01*
X120865573Y-137144212D01*
X120796203Y-137178231D01*
X120718338Y-137198643D01*
X120631978Y-137205447D01*
X120547520Y-137198453D01*
X120471099Y-137177471D01*
X120402715Y-137142502D01*
X120342367Y-137093545D01*
X120290058Y-137030601D01*
X120274407Y-137006511D01*
X120239366Y-136940014D01*
X120210265Y-136864860D01*
X120187102Y-136781047D01*
X120172848Y-136707762D01*
X120162395Y-136628937D01*
X120155744Y-136544570D01*
X120152893Y-136454662D01*
X120152774Y-136431319D01*
X120152789Y-136430586D01*
X120343650Y-136430586D01*
X120344737Y-136509515D01*
X120348000Y-136582719D01*
X120355138Y-136666174D01*
X120365675Y-136740685D01*
X120382805Y-136818291D01*
X120408976Y-136892553D01*
X120413259Y-136901731D01*
X120453032Y-136964723D01*
X120509656Y-137014076D01*
X120578857Y-137040650D01*
X120631978Y-137045712D01*
X120710920Y-137034294D01*
X120777110Y-137000040D01*
X120830549Y-136942949D01*
X120854728Y-136901364D01*
X120882422Y-136829374D01*
X120900746Y-136753855D01*
X120912198Y-136681181D01*
X120920180Y-136599652D01*
X120924692Y-136509269D01*
X120925803Y-136430586D01*
X120924692Y-136352425D01*
X120920180Y-136262612D01*
X120912198Y-136181565D01*
X120898039Y-136095878D01*
X120878882Y-136022814D01*
X120854728Y-135962373D01*
X120814153Y-135899061D01*
X120756464Y-135849456D01*
X120686023Y-135822747D01*
X120631978Y-135817659D01*
X120554393Y-135829019D01*
X120489384Y-135863100D01*
X120436953Y-135919900D01*
X120413259Y-135961274D01*
X120386136Y-136032693D01*
X120368190Y-136107835D01*
X120356973Y-136180272D01*
X120349156Y-136261636D01*
X120344737Y-136351927D01*
X120343650Y-136430586D01*
X120152789Y-136430586D01*
X120154646Y-136337666D01*
X120160262Y-136250055D01*
X120169621Y-136168486D01*
X120182724Y-136092959D01*
X120209399Y-135990998D01*
X120244497Y-135902631D01*
X120288018Y-135827860D01*
X120339963Y-135766683D01*
X120400332Y-135719101D01*
X120469124Y-135685114D01*
X120546339Y-135664722D01*
X120631978Y-135657924D01*
X120717446Y-135664918D01*
G37*
X105913333Y-130684580D02*
X105865714Y-130732200D01*
X105865714Y-130732200D02*
X105722857Y-130779819D01*
X105722857Y-130779819D02*
X105627619Y-130779819D01*
X105627619Y-130779819D02*
X105484762Y-130732200D01*
X105484762Y-130732200D02*
X105389524Y-130636961D01*
X105389524Y-130636961D02*
X105341905Y-130541723D01*
X105341905Y-130541723D02*
X105294286Y-130351247D01*
X105294286Y-130351247D02*
X105294286Y-130208390D01*
X105294286Y-130208390D02*
X105341905Y-130017914D01*
X105341905Y-130017914D02*
X105389524Y-129922676D01*
X105389524Y-129922676D02*
X105484762Y-129827438D01*
X105484762Y-129827438D02*
X105627619Y-129779819D01*
X105627619Y-129779819D02*
X105722857Y-129779819D01*
X105722857Y-129779819D02*
X105865714Y-129827438D01*
X105865714Y-129827438D02*
X105913333Y-129875057D01*
X106246667Y-129779819D02*
X106865714Y-129779819D01*
X106865714Y-129779819D02*
X106532381Y-130160771D01*
X106532381Y-130160771D02*
X106675238Y-130160771D01*
X106675238Y-130160771D02*
X106770476Y-130208390D01*
X106770476Y-130208390D02*
X106818095Y-130256009D01*
X106818095Y-130256009D02*
X106865714Y-130351247D01*
X106865714Y-130351247D02*
X106865714Y-130589342D01*
X106865714Y-130589342D02*
X106818095Y-130684580D01*
X106818095Y-130684580D02*
X106770476Y-130732200D01*
X106770476Y-130732200D02*
X106675238Y-130779819D01*
X106675238Y-130779819D02*
X106389524Y-130779819D01*
X106389524Y-130779819D02*
X106294286Y-130732200D01*
X106294286Y-130732200D02*
X106246667Y-130684580D01*
X115882905Y-72232819D02*
X115882905Y-71232819D01*
X115882905Y-71232819D02*
X116121000Y-71232819D01*
X116121000Y-71232819D02*
X116263857Y-71280438D01*
X116263857Y-71280438D02*
X116359095Y-71375676D01*
X116359095Y-71375676D02*
X116406714Y-71470914D01*
X116406714Y-71470914D02*
X116454333Y-71661390D01*
X116454333Y-71661390D02*
X116454333Y-71804247D01*
X116454333Y-71804247D02*
X116406714Y-71994723D01*
X116406714Y-71994723D02*
X116359095Y-72089961D01*
X116359095Y-72089961D02*
X116263857Y-72185200D01*
X116263857Y-72185200D02*
X116121000Y-72232819D01*
X116121000Y-72232819D02*
X115882905Y-72232819D01*
X117406714Y-72232819D02*
X116835286Y-72232819D01*
X117121000Y-72232819D02*
X117121000Y-71232819D01*
X117121000Y-71232819D02*
X117025762Y-71375676D01*
X117025762Y-71375676D02*
X116930524Y-71470914D01*
X116930524Y-71470914D02*
X116835286Y-71518533D01*
X103842419Y-79308766D02*
X103366228Y-79642099D01*
X103842419Y-79880194D02*
X102842419Y-79880194D01*
X102842419Y-79880194D02*
X102842419Y-79499242D01*
X102842419Y-79499242D02*
X102890038Y-79404004D01*
X102890038Y-79404004D02*
X102937657Y-79356385D01*
X102937657Y-79356385D02*
X103032895Y-79308766D01*
X103032895Y-79308766D02*
X103175752Y-79308766D01*
X103175752Y-79308766D02*
X103270990Y-79356385D01*
X103270990Y-79356385D02*
X103318609Y-79404004D01*
X103318609Y-79404004D02*
X103366228Y-79499242D01*
X103366228Y-79499242D02*
X103366228Y-79880194D01*
X102937657Y-78927813D02*
X102890038Y-78880194D01*
X102890038Y-78880194D02*
X102842419Y-78784956D01*
X102842419Y-78784956D02*
X102842419Y-78546861D01*
X102842419Y-78546861D02*
X102890038Y-78451623D01*
X102890038Y-78451623D02*
X102937657Y-78404004D01*
X102937657Y-78404004D02*
X103032895Y-78356385D01*
X103032895Y-78356385D02*
X103128133Y-78356385D01*
X103128133Y-78356385D02*
X103270990Y-78404004D01*
X103270990Y-78404004D02*
X103842419Y-78975432D01*
X103842419Y-78975432D02*
X103842419Y-78356385D01*
X124270380Y-77024166D02*
X124318000Y-77071785D01*
X124318000Y-77071785D02*
X124365619Y-77214642D01*
X124365619Y-77214642D02*
X124365619Y-77309880D01*
X124365619Y-77309880D02*
X124318000Y-77452737D01*
X124318000Y-77452737D02*
X124222761Y-77547975D01*
X124222761Y-77547975D02*
X124127523Y-77595594D01*
X124127523Y-77595594D02*
X123937047Y-77643213D01*
X123937047Y-77643213D02*
X123794190Y-77643213D01*
X123794190Y-77643213D02*
X123603714Y-77595594D01*
X123603714Y-77595594D02*
X123508476Y-77547975D01*
X123508476Y-77547975D02*
X123413238Y-77452737D01*
X123413238Y-77452737D02*
X123365619Y-77309880D01*
X123365619Y-77309880D02*
X123365619Y-77214642D01*
X123365619Y-77214642D02*
X123413238Y-77071785D01*
X123413238Y-77071785D02*
X123460857Y-77024166D01*
X124365619Y-76071785D02*
X124365619Y-76643213D01*
X124365619Y-76357499D02*
X123365619Y-76357499D01*
X123365619Y-76357499D02*
X123508476Y-76452737D01*
X123508476Y-76452737D02*
X123603714Y-76547975D01*
X123603714Y-76547975D02*
X123651333Y-76643213D01*
X106357779Y-129588495D02*
X105548256Y-129588495D01*
X105548256Y-129588495D02*
X105453018Y-129636114D01*
X105453018Y-129636114D02*
X105405399Y-129683733D01*
X105405399Y-129683733D02*
X105357779Y-129778971D01*
X105357779Y-129778971D02*
X105357779Y-129969447D01*
X105357779Y-129969447D02*
X105405399Y-130064685D01*
X105405399Y-130064685D02*
X105453018Y-130112304D01*
X105453018Y-130112304D02*
X105548256Y-130159923D01*
X105548256Y-130159923D02*
X106357779Y-130159923D01*
X106357779Y-130540876D02*
X106357779Y-131159923D01*
X106357779Y-131159923D02*
X105976827Y-130826590D01*
X105976827Y-130826590D02*
X105976827Y-130969447D01*
X105976827Y-130969447D02*
X105929208Y-131064685D01*
X105929208Y-131064685D02*
X105881589Y-131112304D01*
X105881589Y-131112304D02*
X105786351Y-131159923D01*
X105786351Y-131159923D02*
X105548256Y-131159923D01*
X105548256Y-131159923D02*
X105453018Y-131112304D01*
X105453018Y-131112304D02*
X105405399Y-131064685D01*
X105405399Y-131064685D02*
X105357779Y-130969447D01*
X105357779Y-130969447D02*
X105357779Y-130683733D01*
X105357779Y-130683733D02*
X105405399Y-130588495D01*
X105405399Y-130588495D02*
X105453018Y-130540876D01*
X105341779Y-127048400D02*
X105103684Y-127048400D01*
X105198922Y-126810305D02*
X105103684Y-127048400D01*
X105103684Y-127048400D02*
X105198922Y-127286495D01*
X104913208Y-126905543D02*
X105103684Y-127048400D01*
X105103684Y-127048400D02*
X104913208Y-127191257D01*
X112938095Y-77074819D02*
X112938095Y-77884342D01*
X112938095Y-77884342D02*
X112985714Y-77979580D01*
X112985714Y-77979580D02*
X113033333Y-78027200D01*
X113033333Y-78027200D02*
X113128571Y-78074819D01*
X113128571Y-78074819D02*
X113319047Y-78074819D01*
X113319047Y-78074819D02*
X113414285Y-78027200D01*
X113414285Y-78027200D02*
X113461904Y-77979580D01*
X113461904Y-77979580D02*
X113509523Y-77884342D01*
X113509523Y-77884342D02*
X113509523Y-77074819D01*
X114509523Y-78074819D02*
X113938095Y-78074819D01*
X114223809Y-78074819D02*
X114223809Y-77074819D01*
X114223809Y-77074819D02*
X114128571Y-77217676D01*
X114128571Y-77217676D02*
X114033333Y-77312914D01*
X114033333Y-77312914D02*
X113938095Y-77360533D01*
X106929333Y-72232819D02*
X106596000Y-71756628D01*
X106357905Y-72232819D02*
X106357905Y-71232819D01*
X106357905Y-71232819D02*
X106738857Y-71232819D01*
X106738857Y-71232819D02*
X106834095Y-71280438D01*
X106834095Y-71280438D02*
X106881714Y-71328057D01*
X106881714Y-71328057D02*
X106929333Y-71423295D01*
X106929333Y-71423295D02*
X106929333Y-71566152D01*
X106929333Y-71566152D02*
X106881714Y-71661390D01*
X106881714Y-71661390D02*
X106834095Y-71709009D01*
X106834095Y-71709009D02*
X106738857Y-71756628D01*
X106738857Y-71756628D02*
X106357905Y-71756628D01*
X107881714Y-72232819D02*
X107310286Y-72232819D01*
X107596000Y-72232819D02*
X107596000Y-71232819D01*
X107596000Y-71232819D02*
X107500762Y-71375676D01*
X107500762Y-71375676D02*
X107405524Y-71470914D01*
X107405524Y-71470914D02*
X107310286Y-71518533D01*
X112938095Y-125386419D02*
X112938095Y-126195942D01*
X112938095Y-126195942D02*
X112985714Y-126291180D01*
X112985714Y-126291180D02*
X113033333Y-126338800D01*
X113033333Y-126338800D02*
X113128571Y-126386419D01*
X113128571Y-126386419D02*
X113319047Y-126386419D01*
X113319047Y-126386419D02*
X113414285Y-126338800D01*
X113414285Y-126338800D02*
X113461904Y-126291180D01*
X113461904Y-126291180D02*
X113509523Y-126195942D01*
X113509523Y-126195942D02*
X113509523Y-125386419D01*
X113938095Y-125481657D02*
X113985714Y-125434038D01*
X113985714Y-125434038D02*
X114080952Y-125386419D01*
X114080952Y-125386419D02*
X114319047Y-125386419D01*
X114319047Y-125386419D02*
X114414285Y-125434038D01*
X114414285Y-125434038D02*
X114461904Y-125481657D01*
X114461904Y-125481657D02*
X114509523Y-125576895D01*
X114509523Y-125576895D02*
X114509523Y-125672133D01*
X114509523Y-125672133D02*
X114461904Y-125814990D01*
X114461904Y-125814990D02*
X113890476Y-126386419D01*
X113890476Y-126386419D02*
X114509523Y-126386419D01*
D11*
X105570000Y-132783767D02*
X105570000Y-132491233D01*
X106590000Y-132783767D02*
X106590000Y-132491233D01*
D12*
X112137900Y-72463800D02*
G75*
G02*
X111985500Y-72463800I-76200J0D01*
G01*
X111985500Y-72463800D02*
G75*
G02*
X112137900Y-72463800I76200J0D01*
G01*
D11*
X102865100Y-81530876D02*
X102865100Y-82040324D01*
X103910100Y-81530876D02*
X103910100Y-82040324D01*
X123400800Y-74363767D02*
X123400800Y-74071233D01*
X124420800Y-74363767D02*
X124420800Y-74071233D01*
D12*
X102345499Y-129037655D02*
X102345499Y-131155145D01*
X104707699Y-131155145D02*
X104707699Y-129037655D01*
D11*
X104750000Y-73690000D02*
X104750000Y-124730000D01*
X104750000Y-124730000D02*
X122650000Y-124730000D01*
X107240000Y-73750000D02*
X107240000Y-124670000D01*
X107240000Y-124670000D02*
X120160000Y-124670000D01*
X112700000Y-73750000D02*
X107240000Y-73750000D01*
X120160000Y-73750000D02*
X114700000Y-73750000D01*
X120160000Y-124670000D02*
X120160000Y-73750000D01*
X122650000Y-73690000D02*
X104750000Y-73690000D01*
X122650000Y-124730000D02*
X122650000Y-73690000D01*
X114700000Y-73750000D02*
G75*
G02*
X112700000Y-73750000I-1000000J0D01*
G01*
X110144724Y-71255500D02*
X109635276Y-71255500D01*
X110144724Y-72300500D02*
X109635276Y-72300500D01*
D12*
X112048000Y-128559000D02*
X112048000Y-130213000D01*
X112048000Y-130213000D02*
X113037060Y-130213000D01*
X113987061Y-128559000D02*
X113412939Y-128559000D01*
X114362940Y-130213000D02*
X115352000Y-130213000D01*
X115352000Y-130213000D02*
X115352000Y-128559000D01*
M02*
