G04 #@! TF.GenerationSoftware,KiCad,Pcbnew,8.0.4+dfsg-1*
G04 #@! TF.CreationDate,2025-02-23T14:16:04+09:00*
G04 #@! TF.ProjectId,bionic-mc68hc11d,62696f6e-6963-42d6-9d63-363868633131,8*
G04 #@! TF.SameCoordinates,Original*
G04 #@! TF.FileFunction,Copper,L2,Bot*
G04 #@! TF.FilePolarity,Positive*
%FSLAX46Y46*%
G04 Gerber Fmt 4.6, Leading zero omitted, Abs format (unit mm)*
G04 Created by KiCad (PCBNEW 8.0.4+dfsg-1) date 2025-02-23 14:16:04*
%MOMM*%
%LPD*%
G01*
G04 APERTURE LIST*
G04 #@! TA.AperFunction,ComponentPad*
%ADD10R,1.600000X1.600000*%
G04 #@! TD*
G04 #@! TA.AperFunction,ComponentPad*
%ADD11O,1.600000X1.600000*%
G04 #@! TD*
G04 #@! TA.AperFunction,ComponentPad*
%ADD12O,1.700000X1.700000*%
G04 #@! TD*
G04 #@! TA.AperFunction,ComponentPad*
%ADD13R,1.700000X1.700000*%
G04 #@! TD*
G04 #@! TA.AperFunction,ViaPad*
%ADD14C,0.600000*%
G04 #@! TD*
G04 #@! TA.AperFunction,Conductor*
%ADD15C,0.200000*%
G04 #@! TD*
G04 APERTURE END LIST*
D10*
X149260000Y-62380000D03*
D11*
X149260000Y-64920000D03*
X149260000Y-67460000D03*
X149260000Y-70000000D03*
X149260000Y-72540000D03*
X149260000Y-75080000D03*
X149260000Y-77620000D03*
X149260000Y-80160000D03*
X149260000Y-82700000D03*
X149260000Y-85240000D03*
X149260000Y-87780000D03*
X149260000Y-90320000D03*
X149260000Y-92860000D03*
X149260000Y-95400000D03*
X149260000Y-97940000D03*
X149260000Y-100480000D03*
X149260000Y-103020000D03*
X149260000Y-105560000D03*
X149260000Y-108100000D03*
X149260000Y-110640000D03*
X164500000Y-110640000D03*
X164500000Y-108100000D03*
X164500000Y-105560000D03*
X164500000Y-103020000D03*
X164500000Y-100480000D03*
X164500000Y-97940000D03*
X164500000Y-95400000D03*
X164500000Y-92860000D03*
X164500000Y-90320000D03*
X164500000Y-87780000D03*
X164500000Y-85240000D03*
X164500000Y-82700000D03*
X164500000Y-80160000D03*
X164500000Y-77620000D03*
X164500000Y-75080000D03*
X164500000Y-72540000D03*
X164500000Y-70000000D03*
X164500000Y-67460000D03*
X164500000Y-64920000D03*
X164500000Y-62380000D03*
D12*
X160690000Y-120800000D03*
X160690000Y-118260000D03*
X160690000Y-115720000D03*
X160690000Y-113180000D03*
X160690000Y-110640000D03*
X160690000Y-108100000D03*
X160690000Y-105560000D03*
X160690000Y-103020000D03*
X160690000Y-100480000D03*
X160690000Y-97940000D03*
X160690000Y-95400000D03*
X160690000Y-92860000D03*
X160690000Y-90320000D03*
X160690000Y-87780000D03*
X160690000Y-85240000D03*
X160690000Y-82700000D03*
X160690000Y-80160000D03*
X160690000Y-77620000D03*
X160690000Y-75080000D03*
X160690000Y-72540000D03*
X160690000Y-70000000D03*
X160690000Y-67460000D03*
X160690000Y-64920000D03*
D13*
X160690000Y-62380000D03*
X153070000Y-62380000D03*
D12*
X153070000Y-64920000D03*
X153070000Y-67460000D03*
X153070000Y-70000000D03*
X153070000Y-72540000D03*
X153070000Y-75080000D03*
X153070000Y-77620000D03*
X153070000Y-80160000D03*
X153070000Y-82700000D03*
X153070000Y-85240000D03*
X153070000Y-87780000D03*
X153070000Y-90320000D03*
X153070000Y-92860000D03*
X153070000Y-95400000D03*
X153070000Y-97940000D03*
X153070000Y-100480000D03*
X153070000Y-103020000D03*
X153070000Y-105560000D03*
X153070000Y-108100000D03*
X153070000Y-110640000D03*
X153070000Y-113180000D03*
X153070000Y-115720000D03*
X153070000Y-118260000D03*
X153070000Y-120800000D03*
D14*
X156880000Y-119530000D03*
X163230000Y-115720000D03*
X165770000Y-96670000D03*
X156880000Y-88288000D03*
X157769000Y-102512000D03*
X167802000Y-113180000D03*
X150911000Y-91590000D03*
X155610000Y-104798000D03*
X165516000Y-76350000D03*
X167802000Y-114958000D03*
D15*
X153070000Y-64920000D02*
X149260000Y-64920000D01*
X153070000Y-67460000D02*
X149260000Y-67460000D01*
X153070000Y-70000000D02*
X149260000Y-70000000D01*
X153070000Y-72540000D02*
X149260000Y-72540000D01*
X153070000Y-75080000D02*
X149260000Y-75080000D01*
X153070000Y-77620000D02*
X149260000Y-77620000D01*
X153070000Y-80160000D02*
X149260000Y-80160000D01*
X153070000Y-82700000D02*
X149260000Y-82700000D01*
X161325000Y-96670000D02*
X159420000Y-96670000D01*
X164500000Y-97940000D02*
X162595000Y-97940000D01*
X159420000Y-96670000D02*
X153070000Y-90320000D01*
X162595000Y-97940000D02*
X161325000Y-96670000D01*
X161325000Y-106830000D02*
X159420000Y-106830000D01*
X162595000Y-105560000D02*
X161325000Y-106830000D01*
X159420000Y-106830000D02*
X153070000Y-100480000D01*
X164500000Y-105560000D02*
X162595000Y-105560000D01*
X147482000Y-104798000D02*
X149260000Y-103020000D01*
X153070000Y-115720000D02*
X151095686Y-115720000D01*
X151095686Y-115720000D02*
X147482000Y-112106314D01*
X147482000Y-112106314D02*
X147482000Y-104798000D01*
X147082000Y-95038000D02*
X147082000Y-112272000D01*
X149260000Y-92860000D02*
X147082000Y-95038000D01*
X147082000Y-112272000D02*
X153070000Y-118260000D01*
X149260000Y-110640000D02*
X150531500Y-111911500D01*
X150531500Y-111911500D02*
X153706500Y-111911500D01*
X157515000Y-115720000D02*
X160690000Y-115720000D01*
X153706500Y-111911500D02*
X157515000Y-115720000D01*
X152435000Y-109370000D02*
X151165000Y-108100000D01*
X160690000Y-113180000D02*
X157515000Y-113180000D01*
X157515000Y-113180000D02*
X153705000Y-109370000D01*
X153705000Y-109370000D02*
X152435000Y-109370000D01*
X151165000Y-108100000D02*
X149260000Y-108100000D01*
X157515000Y-110640000D02*
X160690000Y-110640000D01*
X153705000Y-106830000D02*
X157515000Y-110640000D01*
X152435000Y-106830000D02*
X153705000Y-106830000D01*
X149260000Y-105560000D02*
X151165000Y-105560000D01*
X151165000Y-105560000D02*
X152435000Y-106830000D01*
X164500000Y-64920000D02*
X166678000Y-67098000D01*
X165262000Y-101750000D02*
X163992000Y-101750000D01*
X162722000Y-103020000D02*
X160690000Y-103020000D01*
X163992000Y-101750000D02*
X162722000Y-103020000D01*
X166678000Y-67098000D02*
X166678000Y-100334000D01*
X166678000Y-100334000D02*
X165262000Y-101750000D01*
X150530000Y-99210000D02*
X149260000Y-100480000D01*
X159420000Y-99210000D02*
X150530000Y-99210000D01*
X160690000Y-97940000D02*
X159420000Y-99210000D01*
X166278000Y-74318000D02*
X164500000Y-72540000D01*
X162722000Y-95400000D02*
X163992000Y-94130000D01*
X165008000Y-94130000D02*
X166278000Y-92860000D01*
X166278000Y-92860000D02*
X166278000Y-74318000D01*
X160690000Y-95400000D02*
X162722000Y-95400000D01*
X163992000Y-94130000D02*
X165008000Y-94130000D01*
X150530000Y-86510000D02*
X149260000Y-87780000D01*
X160690000Y-90320000D02*
X157515000Y-90320000D01*
X153705000Y-86510000D02*
X150530000Y-86510000D01*
X157515000Y-90320000D02*
X153705000Y-86510000D01*
X160690000Y-87780000D02*
X157515000Y-87780000D01*
X153705000Y-83970000D02*
X148733500Y-83970000D01*
X147736000Y-88796000D02*
X149260000Y-90320000D01*
X147736000Y-84967500D02*
X147736000Y-88796000D01*
X148733500Y-83970000D02*
X147736000Y-84967500D01*
X157515000Y-87780000D02*
X153705000Y-83970000D01*
X162214000Y-84224000D02*
X162214000Y-90574000D01*
X162214000Y-90574000D02*
X164500000Y-92860000D01*
X160690000Y-82700000D02*
X162214000Y-84224000D01*
X162630300Y-82100300D02*
X160690000Y-80160000D01*
X162630300Y-88450300D02*
X162630300Y-82100300D01*
X164500000Y-90320000D02*
X162630300Y-88450300D01*
X163060400Y-86340400D02*
X164500000Y-87780000D01*
X163060400Y-79990400D02*
X163060400Y-86340400D01*
X160690000Y-77620000D02*
X163060400Y-79990400D01*
X162214000Y-77874000D02*
X164500000Y-80160000D01*
X160690000Y-70000000D02*
X162214000Y-71524000D01*
X162214000Y-71524000D02*
X162214000Y-77874000D01*
X164500000Y-77620000D02*
X162630300Y-75750300D01*
X162630300Y-69400300D02*
X160690000Y-67460000D01*
X162630300Y-75750300D02*
X162630300Y-69400300D01*
X163060400Y-67290400D02*
X163060400Y-73640400D01*
X163060400Y-73640400D02*
X164500000Y-75080000D01*
X160690000Y-64920000D02*
X163060400Y-67290400D01*
G04 #@! TA.AperFunction,Conductor*
G36*
X163638900Y-73225869D02*
G01*
X163683236Y-73284579D01*
X163833959Y-73421981D01*
X164007363Y-73529348D01*
X164197544Y-73603024D01*
X164398024Y-73640500D01*
X164601976Y-73640500D01*
X164802456Y-73603024D01*
X164882258Y-73572107D01*
X164943350Y-73568717D01*
X164988026Y-73594418D01*
X165848504Y-74454896D01*
X165876281Y-74509413D01*
X165877500Y-74524900D01*
X165877500Y-92653099D01*
X165858593Y-92711290D01*
X165848503Y-92723103D01*
X165763359Y-92808246D01*
X165708842Y-92836023D01*
X165648410Y-92826451D01*
X165605146Y-92783187D01*
X165594779Y-92747381D01*
X165586397Y-92656917D01*
X165530582Y-92460750D01*
X165439673Y-92278179D01*
X165316764Y-92115421D01*
X165166041Y-91978019D01*
X164992637Y-91870652D01*
X164802456Y-91796976D01*
X164802455Y-91796975D01*
X164802453Y-91796975D01*
X164601976Y-91759500D01*
X164398024Y-91759500D01*
X164197552Y-91796974D01*
X164197546Y-91796975D01*
X164197544Y-91796976D01*
X164131296Y-91822639D01*
X164117738Y-91827892D01*
X164056647Y-91831281D01*
X164011973Y-91805580D01*
X162643496Y-90437103D01*
X162615719Y-90382586D01*
X162614500Y-90367099D01*
X162614500Y-89239901D01*
X162633407Y-89181710D01*
X162682907Y-89145746D01*
X162744093Y-89145746D01*
X162783504Y-89169897D01*
X163442663Y-89829056D01*
X163470440Y-89883573D01*
X163467880Y-89926152D01*
X163413603Y-90116915D01*
X163413603Y-90116917D01*
X163394785Y-90320000D01*
X163413603Y-90523083D01*
X163469418Y-90719250D01*
X163560327Y-90901821D01*
X163683236Y-91064579D01*
X163833959Y-91201981D01*
X164007363Y-91309348D01*
X164197544Y-91383024D01*
X164398024Y-91420500D01*
X164601976Y-91420500D01*
X164802456Y-91383024D01*
X164992637Y-91309348D01*
X165166041Y-91201981D01*
X165316764Y-91064579D01*
X165439673Y-90901821D01*
X165530582Y-90719250D01*
X165586397Y-90523083D01*
X165605215Y-90320000D01*
X165586397Y-90116917D01*
X165530582Y-89920750D01*
X165439673Y-89738179D01*
X165316764Y-89575421D01*
X165166041Y-89438019D01*
X164992637Y-89330652D01*
X164802456Y-89256976D01*
X164802455Y-89256975D01*
X164802453Y-89256975D01*
X164601976Y-89219500D01*
X164398024Y-89219500D01*
X164197552Y-89256974D01*
X164197546Y-89256975D01*
X164197544Y-89256976D01*
X164131296Y-89282639D01*
X164117738Y-89287892D01*
X164056647Y-89291281D01*
X164011973Y-89265580D01*
X163059796Y-88313403D01*
X163032019Y-88258886D01*
X163030800Y-88243399D01*
X163030800Y-87116201D01*
X163049707Y-87058010D01*
X163099207Y-87022046D01*
X163160393Y-87022046D01*
X163199804Y-87046197D01*
X163442663Y-87289056D01*
X163470440Y-87343573D01*
X163467880Y-87386152D01*
X163413603Y-87576915D01*
X163413603Y-87576917D01*
X163394785Y-87780000D01*
X163413603Y-87983083D01*
X163469418Y-88179250D01*
X163560327Y-88361821D01*
X163683236Y-88524579D01*
X163833959Y-88661981D01*
X164007363Y-88769348D01*
X164197544Y-88843024D01*
X164398024Y-88880500D01*
X164601976Y-88880500D01*
X164802456Y-88843024D01*
X164992637Y-88769348D01*
X165166041Y-88661981D01*
X165316764Y-88524579D01*
X165439673Y-88361821D01*
X165530582Y-88179250D01*
X165586397Y-87983083D01*
X165605215Y-87780000D01*
X165586397Y-87576917D01*
X165530582Y-87380750D01*
X165439673Y-87198179D01*
X165316764Y-87035421D01*
X165166041Y-86898019D01*
X164992637Y-86790652D01*
X164802456Y-86716976D01*
X164802455Y-86716975D01*
X164802453Y-86716975D01*
X164601976Y-86679500D01*
X164398024Y-86679500D01*
X164197552Y-86716974D01*
X164197546Y-86716975D01*
X164197544Y-86716976D01*
X164131296Y-86742639D01*
X164117738Y-86747892D01*
X164056647Y-86751281D01*
X164011973Y-86725580D01*
X163489896Y-86203503D01*
X163462119Y-86148986D01*
X163460900Y-86133499D01*
X163460900Y-85985533D01*
X163479807Y-85927342D01*
X163529307Y-85891378D01*
X163590493Y-85891378D01*
X163638900Y-85925869D01*
X163683236Y-85984579D01*
X163833959Y-86121981D01*
X164007363Y-86229348D01*
X164197544Y-86303024D01*
X164398024Y-86340500D01*
X164601976Y-86340500D01*
X164802456Y-86303024D01*
X164992637Y-86229348D01*
X165166041Y-86121981D01*
X165316764Y-85984579D01*
X165439673Y-85821821D01*
X165530582Y-85639250D01*
X165586397Y-85443083D01*
X165605215Y-85240000D01*
X165586397Y-85036917D01*
X165530582Y-84840750D01*
X165439673Y-84658179D01*
X165316764Y-84495421D01*
X165166041Y-84358019D01*
X164992637Y-84250652D01*
X164802456Y-84176976D01*
X164802455Y-84176975D01*
X164802453Y-84176975D01*
X164601976Y-84139500D01*
X164398024Y-84139500D01*
X164197546Y-84176975D01*
X164127632Y-84204059D01*
X164007363Y-84250652D01*
X163898676Y-84317948D01*
X163833959Y-84358019D01*
X163683234Y-84495423D01*
X163638903Y-84554127D01*
X163588747Y-84589170D01*
X163527572Y-84588039D01*
X163478745Y-84551166D01*
X163460900Y-84494466D01*
X163460900Y-83445533D01*
X163479807Y-83387342D01*
X163529307Y-83351378D01*
X163590493Y-83351378D01*
X163638900Y-83385869D01*
X163683236Y-83444579D01*
X163833959Y-83581981D01*
X164007363Y-83689348D01*
X164197544Y-83763024D01*
X164398024Y-83800500D01*
X164601976Y-83800500D01*
X164802456Y-83763024D01*
X164992637Y-83689348D01*
X165166041Y-83581981D01*
X165316764Y-83444579D01*
X165439673Y-83281821D01*
X165530582Y-83099250D01*
X165586397Y-82903083D01*
X165605215Y-82700000D01*
X165586397Y-82496917D01*
X165530582Y-82300750D01*
X165439673Y-82118179D01*
X165316764Y-81955421D01*
X165166041Y-81818019D01*
X164992637Y-81710652D01*
X164802456Y-81636976D01*
X164802455Y-81636975D01*
X164802453Y-81636975D01*
X164601976Y-81599500D01*
X164398024Y-81599500D01*
X164197546Y-81636975D01*
X164127632Y-81664059D01*
X164007363Y-81710652D01*
X163898676Y-81777948D01*
X163833959Y-81818019D01*
X163683234Y-81955423D01*
X163638903Y-82014127D01*
X163588747Y-82049170D01*
X163527572Y-82048039D01*
X163478745Y-82011166D01*
X163460900Y-81954466D01*
X163460900Y-80905533D01*
X163479807Y-80847342D01*
X163529307Y-80811378D01*
X163590493Y-80811378D01*
X163638900Y-80845869D01*
X163683236Y-80904579D01*
X163833959Y-81041981D01*
X164007363Y-81149348D01*
X164197544Y-81223024D01*
X164398024Y-81260500D01*
X164601976Y-81260500D01*
X164802456Y-81223024D01*
X164992637Y-81149348D01*
X165166041Y-81041981D01*
X165316764Y-80904579D01*
X165439673Y-80741821D01*
X165530582Y-80559250D01*
X165586397Y-80363083D01*
X165605215Y-80160000D01*
X165586397Y-79956917D01*
X165530582Y-79760750D01*
X165439673Y-79578179D01*
X165316764Y-79415421D01*
X165166041Y-79278019D01*
X164992637Y-79170652D01*
X164802456Y-79096976D01*
X164802455Y-79096975D01*
X164802453Y-79096975D01*
X164601976Y-79059500D01*
X164398024Y-79059500D01*
X164197552Y-79096974D01*
X164197546Y-79096975D01*
X164197544Y-79096976D01*
X164131296Y-79122639D01*
X164117738Y-79127892D01*
X164056647Y-79131281D01*
X164011973Y-79105580D01*
X162643496Y-77737103D01*
X162615719Y-77682586D01*
X162614500Y-77667099D01*
X162614500Y-76539901D01*
X162633407Y-76481710D01*
X162682907Y-76445746D01*
X162744093Y-76445746D01*
X162783504Y-76469897D01*
X163442663Y-77129056D01*
X163470440Y-77183573D01*
X163467880Y-77226152D01*
X163413603Y-77416915D01*
X163413603Y-77416917D01*
X163394785Y-77620000D01*
X163413603Y-77823083D01*
X163469418Y-78019250D01*
X163560327Y-78201821D01*
X163683236Y-78364579D01*
X163833959Y-78501981D01*
X164007363Y-78609348D01*
X164197544Y-78683024D01*
X164398024Y-78720500D01*
X164601976Y-78720500D01*
X164802456Y-78683024D01*
X164992637Y-78609348D01*
X165166041Y-78501981D01*
X165316764Y-78364579D01*
X165439673Y-78201821D01*
X165530582Y-78019250D01*
X165586397Y-77823083D01*
X165605215Y-77620000D01*
X165586397Y-77416917D01*
X165530582Y-77220750D01*
X165439673Y-77038179D01*
X165316764Y-76875421D01*
X165166041Y-76738019D01*
X164992637Y-76630652D01*
X164802456Y-76556976D01*
X164802455Y-76556975D01*
X164802453Y-76556975D01*
X164601976Y-76519500D01*
X164398024Y-76519500D01*
X164197552Y-76556974D01*
X164197546Y-76556975D01*
X164197544Y-76556976D01*
X164131296Y-76582639D01*
X164117738Y-76587892D01*
X164056647Y-76591281D01*
X164011973Y-76565580D01*
X163059796Y-75613403D01*
X163032019Y-75558886D01*
X163030800Y-75543399D01*
X163030800Y-74416201D01*
X163049707Y-74358010D01*
X163099207Y-74322046D01*
X163160393Y-74322046D01*
X163199804Y-74346197D01*
X163442663Y-74589056D01*
X163470440Y-74643573D01*
X163467880Y-74686152D01*
X163413603Y-74876915D01*
X163413603Y-74876917D01*
X163394785Y-75080000D01*
X163413603Y-75283083D01*
X163469418Y-75479250D01*
X163560327Y-75661821D01*
X163683236Y-75824579D01*
X163833959Y-75961981D01*
X164007363Y-76069348D01*
X164197544Y-76143024D01*
X164398024Y-76180500D01*
X164601976Y-76180500D01*
X164802456Y-76143024D01*
X164992637Y-76069348D01*
X165166041Y-75961981D01*
X165316764Y-75824579D01*
X165439673Y-75661821D01*
X165530582Y-75479250D01*
X165586397Y-75283083D01*
X165605215Y-75080000D01*
X165586397Y-74876917D01*
X165530582Y-74680750D01*
X165439673Y-74498179D01*
X165316764Y-74335421D01*
X165166041Y-74198019D01*
X164992637Y-74090652D01*
X164802456Y-74016976D01*
X164802455Y-74016975D01*
X164802453Y-74016975D01*
X164601976Y-73979500D01*
X164398024Y-73979500D01*
X164197552Y-74016974D01*
X164197546Y-74016975D01*
X164197544Y-74016976D01*
X164131296Y-74042639D01*
X164117738Y-74047892D01*
X164056647Y-74051281D01*
X164011973Y-74025580D01*
X163489896Y-73503503D01*
X163462119Y-73448986D01*
X163460900Y-73433499D01*
X163460900Y-73285533D01*
X163479807Y-73227342D01*
X163529307Y-73191378D01*
X163590493Y-73191378D01*
X163638900Y-73225869D01*
G37*
G04 #@! TD.AperFunction*
G04 #@! TA.AperFunction,Conductor*
G36*
X154359231Y-85200553D02*
G01*
X154390086Y-85221479D01*
X157194518Y-88025910D01*
X157194520Y-88025913D01*
X157269087Y-88100480D01*
X157269089Y-88100481D01*
X157360409Y-88153205D01*
X157360413Y-88153207D01*
X157462270Y-88180500D01*
X157462272Y-88180501D01*
X157462273Y-88180501D01*
X157573790Y-88180501D01*
X157573806Y-88180500D01*
X159542887Y-88180500D01*
X159601078Y-88199407D01*
X159631508Y-88235372D01*
X159690919Y-88354687D01*
X159707634Y-88388255D01*
X159836128Y-88558407D01*
X159886784Y-88604586D01*
X159993692Y-88702047D01*
X159993699Y-88702053D01*
X160060272Y-88743273D01*
X160174981Y-88814298D01*
X160373802Y-88891321D01*
X160583390Y-88930500D01*
X160796610Y-88930500D01*
X161006198Y-88891321D01*
X161205019Y-88814298D01*
X161386302Y-88702052D01*
X161543872Y-88558407D01*
X161635498Y-88437075D01*
X161685653Y-88402034D01*
X161746827Y-88403165D01*
X161795654Y-88440037D01*
X161813500Y-88496738D01*
X161813500Y-89603261D01*
X161794593Y-89661452D01*
X161745093Y-89697416D01*
X161683907Y-89697416D01*
X161635497Y-89662922D01*
X161543880Y-89541603D01*
X161543877Y-89541600D01*
X161543872Y-89541593D01*
X161489623Y-89492139D01*
X161386307Y-89397952D01*
X161386300Y-89397946D01*
X161205024Y-89285705D01*
X161205019Y-89285702D01*
X161006195Y-89208678D01*
X160796610Y-89169500D01*
X160583390Y-89169500D01*
X160373804Y-89208678D01*
X160174980Y-89285702D01*
X160174975Y-89285705D01*
X159993699Y-89397946D01*
X159993692Y-89397952D01*
X159836135Y-89541586D01*
X159836131Y-89541589D01*
X159836128Y-89541593D01*
X159836125Y-89541597D01*
X159707635Y-89711743D01*
X159707630Y-89711752D01*
X159631508Y-89864628D01*
X159588646Y-89908290D01*
X159542887Y-89919500D01*
X157721900Y-89919500D01*
X157663709Y-89900593D01*
X157651896Y-89890504D01*
X155861872Y-88100480D01*
X153950913Y-86189520D01*
X153950910Y-86189518D01*
X153936680Y-86181302D01*
X153895739Y-86135831D01*
X153889345Y-86074981D01*
X153919489Y-86022401D01*
X153923872Y-86018407D01*
X154052366Y-85848255D01*
X154147405Y-85657389D01*
X154205756Y-85452310D01*
X154221505Y-85282346D01*
X154245700Y-85226151D01*
X154298307Y-85194907D01*
X154359231Y-85200553D01*
G37*
G04 #@! TD.AperFunction*
G04 #@! TA.AperFunction,Conductor*
G36*
X168313875Y-57375805D02*
G01*
X168489097Y-57389594D01*
X168504430Y-57392023D01*
X168671550Y-57432145D01*
X168686317Y-57436943D01*
X168845104Y-57502715D01*
X168858926Y-57509758D01*
X169005469Y-57599560D01*
X169018032Y-57608688D01*
X169148717Y-57720303D01*
X169159699Y-57731285D01*
X169271311Y-57861967D01*
X169280440Y-57874532D01*
X169370238Y-58021068D01*
X169377287Y-58034902D01*
X169443054Y-58193678D01*
X169447855Y-58208453D01*
X169487975Y-58375564D01*
X169490405Y-58390907D01*
X169504195Y-58566123D01*
X169504500Y-58573891D01*
X169504500Y-124606108D01*
X169504195Y-124613876D01*
X169490405Y-124789092D01*
X169487975Y-124804435D01*
X169447855Y-124971546D01*
X169443054Y-124986321D01*
X169377287Y-125145097D01*
X169370234Y-125158939D01*
X169280442Y-125305465D01*
X169271311Y-125318032D01*
X169159699Y-125448714D01*
X169148714Y-125459699D01*
X169018032Y-125571311D01*
X169005465Y-125580442D01*
X168858939Y-125670234D01*
X168845097Y-125677287D01*
X168686321Y-125743054D01*
X168671546Y-125747855D01*
X168504435Y-125787975D01*
X168489092Y-125790405D01*
X168329743Y-125802946D01*
X168313874Y-125804195D01*
X168306108Y-125804500D01*
X145453892Y-125804500D01*
X145446125Y-125804195D01*
X145427014Y-125802691D01*
X145270907Y-125790405D01*
X145255564Y-125787975D01*
X145088453Y-125747855D01*
X145073678Y-125743054D01*
X144914902Y-125677287D01*
X144901068Y-125670238D01*
X144754532Y-125580440D01*
X144741967Y-125571311D01*
X144642706Y-125486535D01*
X144611282Y-125459696D01*
X144600303Y-125448717D01*
X144488688Y-125318032D01*
X144479560Y-125305469D01*
X144389758Y-125158926D01*
X144382715Y-125145104D01*
X144316943Y-124986317D01*
X144312144Y-124971546D01*
X144272024Y-124804435D01*
X144269594Y-124789097D01*
X144255805Y-124613875D01*
X144255500Y-124606108D01*
X144255500Y-120800000D01*
X151914571Y-120800000D01*
X151934244Y-121012310D01*
X151992595Y-121217389D01*
X152087634Y-121408255D01*
X152216128Y-121578407D01*
X152216135Y-121578413D01*
X152373692Y-121722047D01*
X152373699Y-121722053D01*
X152477389Y-121786255D01*
X152554981Y-121834298D01*
X152753802Y-121911321D01*
X152963390Y-121950500D01*
X153176610Y-121950500D01*
X153386198Y-121911321D01*
X153585019Y-121834298D01*
X153766302Y-121722052D01*
X153923872Y-121578407D01*
X154052366Y-121408255D01*
X154147405Y-121217389D01*
X154205756Y-121012310D01*
X154225429Y-120800000D01*
X159534571Y-120800000D01*
X159554244Y-121012310D01*
X159612595Y-121217389D01*
X159707634Y-121408255D01*
X159836128Y-121578407D01*
X159836135Y-121578413D01*
X159993692Y-121722047D01*
X159993699Y-121722053D01*
X160097389Y-121786255D01*
X160174981Y-121834298D01*
X160373802Y-121911321D01*
X160583390Y-121950500D01*
X160796610Y-121950500D01*
X161006198Y-121911321D01*
X161205019Y-121834298D01*
X161386302Y-121722052D01*
X161543872Y-121578407D01*
X161672366Y-121408255D01*
X161767405Y-121217389D01*
X161825756Y-121012310D01*
X161845429Y-120800000D01*
X161825756Y-120587690D01*
X161767405Y-120382611D01*
X161672366Y-120191745D01*
X161543872Y-120021593D01*
X161489623Y-119972139D01*
X161386307Y-119877952D01*
X161386300Y-119877946D01*
X161205024Y-119765705D01*
X161205019Y-119765702D01*
X161006195Y-119688678D01*
X160796610Y-119649500D01*
X160583390Y-119649500D01*
X160373804Y-119688678D01*
X160174980Y-119765702D01*
X160174975Y-119765705D01*
X159993699Y-119877946D01*
X159993692Y-119877952D01*
X159836135Y-120021586D01*
X159836131Y-120021589D01*
X159836128Y-120021593D01*
X159836125Y-120021597D01*
X159707635Y-120191743D01*
X159707630Y-120191752D01*
X159612596Y-120382608D01*
X159554244Y-120587688D01*
X159554244Y-120587690D01*
X159534571Y-120800000D01*
X154225429Y-120800000D01*
X154205756Y-120587690D01*
X154147405Y-120382611D01*
X154052366Y-120191745D01*
X153923872Y-120021593D01*
X153869623Y-119972139D01*
X153766307Y-119877952D01*
X153766300Y-119877946D01*
X153585024Y-119765705D01*
X153585019Y-119765702D01*
X153386195Y-119688678D01*
X153176610Y-119649500D01*
X152963390Y-119649500D01*
X152753804Y-119688678D01*
X152554980Y-119765702D01*
X152554975Y-119765705D01*
X152373699Y-119877946D01*
X152373692Y-119877952D01*
X152216135Y-120021586D01*
X152216131Y-120021589D01*
X152216128Y-120021593D01*
X152216125Y-120021597D01*
X152087635Y-120191743D01*
X152087630Y-120191752D01*
X151992596Y-120382608D01*
X151934244Y-120587688D01*
X151934244Y-120587690D01*
X151914571Y-120800000D01*
X144255500Y-120800000D01*
X144255500Y-94985273D01*
X146681500Y-94985273D01*
X146681500Y-112219273D01*
X146681500Y-112324727D01*
X146683156Y-112330907D01*
X146708794Y-112426592D01*
X146761516Y-112517908D01*
X146761517Y-112517909D01*
X146761518Y-112517910D01*
X146761520Y-112517913D01*
X149508235Y-115264628D01*
X151973348Y-117729741D01*
X152001125Y-117784258D01*
X151992904Y-117837818D01*
X151994249Y-117838339D01*
X151992598Y-117842598D01*
X151934244Y-118047688D01*
X151934244Y-118047690D01*
X151914571Y-118260000D01*
X151934244Y-118472310D01*
X151992595Y-118677389D01*
X152087634Y-118868255D01*
X152216128Y-119038407D01*
X152216135Y-119038413D01*
X152373692Y-119182047D01*
X152373699Y-119182053D01*
X152477389Y-119246255D01*
X152554981Y-119294298D01*
X152753802Y-119371321D01*
X152963390Y-119410500D01*
X153176610Y-119410500D01*
X153386198Y-119371321D01*
X153585019Y-119294298D01*
X153766302Y-119182052D01*
X153923872Y-119038407D01*
X154052366Y-118868255D01*
X154147405Y-118677389D01*
X154205756Y-118472310D01*
X154225429Y-118260000D01*
X159534571Y-118260000D01*
X159554244Y-118472310D01*
X159612595Y-118677389D01*
X159707634Y-118868255D01*
X159836128Y-119038407D01*
X159836135Y-119038413D01*
X159993692Y-119182047D01*
X159993699Y-119182053D01*
X160097389Y-119246255D01*
X160174981Y-119294298D01*
X160373802Y-119371321D01*
X160583390Y-119410500D01*
X160796610Y-119410500D01*
X161006198Y-119371321D01*
X161205019Y-119294298D01*
X161386302Y-119182052D01*
X161543872Y-119038407D01*
X161672366Y-118868255D01*
X161767405Y-118677389D01*
X161825756Y-118472310D01*
X161845429Y-118260000D01*
X161825756Y-118047690D01*
X161767405Y-117842611D01*
X161672366Y-117651745D01*
X161543872Y-117481593D01*
X161489623Y-117432139D01*
X161386307Y-117337952D01*
X161386300Y-117337946D01*
X161205024Y-117225705D01*
X161205019Y-117225702D01*
X161119657Y-117192633D01*
X161006198Y-117148679D01*
X161006197Y-117148678D01*
X161006195Y-117148678D01*
X160796610Y-117109500D01*
X160583390Y-117109500D01*
X160373804Y-117148678D01*
X160174980Y-117225702D01*
X160174975Y-117225705D01*
X159993699Y-117337946D01*
X159993692Y-117337952D01*
X159836135Y-117481586D01*
X159836131Y-117481589D01*
X159836128Y-117481593D01*
X159836125Y-117481597D01*
X159707635Y-117651743D01*
X159707630Y-117651752D01*
X159612596Y-117842608D01*
X159554244Y-118047688D01*
X159554244Y-118047690D01*
X159534571Y-118260000D01*
X154225429Y-118260000D01*
X154205756Y-118047690D01*
X154147405Y-117842611D01*
X154052366Y-117651745D01*
X153923872Y-117481593D01*
X153869623Y-117432139D01*
X153766307Y-117337952D01*
X153766300Y-117337946D01*
X153585024Y-117225705D01*
X153585019Y-117225702D01*
X153499657Y-117192633D01*
X153386198Y-117148679D01*
X153386197Y-117148678D01*
X153386195Y-117148678D01*
X153176610Y-117109500D01*
X152963390Y-117109500D01*
X152753802Y-117148678D01*
X152649091Y-117189243D01*
X152588000Y-117192633D01*
X152543325Y-117166932D01*
X151665897Y-116289504D01*
X151638120Y-116234987D01*
X151647691Y-116174555D01*
X151690956Y-116131290D01*
X151735901Y-116120500D01*
X151922887Y-116120500D01*
X151981078Y-116139407D01*
X152011508Y-116175372D01*
X152068338Y-116289504D01*
X152087634Y-116328255D01*
X152216128Y-116498407D01*
X152216135Y-116498413D01*
X152373692Y-116642047D01*
X152373699Y-116642053D01*
X152477389Y-116706255D01*
X152554981Y-116754298D01*
X152753802Y-116831321D01*
X152963390Y-116870500D01*
X153176610Y-116870500D01*
X153386198Y-116831321D01*
X153585019Y-116754298D01*
X153766302Y-116642052D01*
X153923872Y-116498407D01*
X154052366Y-116328255D01*
X154147405Y-116137389D01*
X154205756Y-115932310D01*
X154225429Y-115720000D01*
X154205756Y-115507690D01*
X154147405Y-115302611D01*
X154052366Y-115111745D01*
X153923872Y-114941593D01*
X153869623Y-114892139D01*
X153766307Y-114797952D01*
X153766300Y-114797946D01*
X153585024Y-114685705D01*
X153585019Y-114685702D01*
X153386195Y-114608678D01*
X153176610Y-114569500D01*
X152963390Y-114569500D01*
X152753804Y-114608678D01*
X152554980Y-114685702D01*
X152554975Y-114685705D01*
X152373699Y-114797946D01*
X152373692Y-114797952D01*
X152216135Y-114941586D01*
X152216131Y-114941589D01*
X152216128Y-114941593D01*
X152216125Y-114941597D01*
X152087635Y-115111743D01*
X152087630Y-115111752D01*
X152011508Y-115264628D01*
X151968646Y-115308290D01*
X151922887Y-115319500D01*
X151302586Y-115319500D01*
X151244395Y-115300593D01*
X151232582Y-115290504D01*
X147911496Y-111969417D01*
X147883719Y-111914900D01*
X147882500Y-111899413D01*
X147882500Y-105560000D01*
X148154785Y-105560000D01*
X148173603Y-105763083D01*
X148229418Y-105959250D01*
X148320327Y-106141821D01*
X148443236Y-106304579D01*
X148593959Y-106441981D01*
X148767363Y-106549348D01*
X148957544Y-106623024D01*
X149158024Y-106660500D01*
X149361976Y-106660500D01*
X149562456Y-106623024D01*
X149752637Y-106549348D01*
X149926041Y-106441981D01*
X150076764Y-106304579D01*
X150199673Y-106141821D01*
X150262637Y-106015371D01*
X150305500Y-105971709D01*
X150351258Y-105960500D01*
X150958099Y-105960500D01*
X151016290Y-105979407D01*
X151028103Y-105989496D01*
X152189087Y-107150480D01*
X152189090Y-107150482D01*
X152203316Y-107158695D01*
X152244257Y-107204164D01*
X152250654Y-107265014D01*
X152220521Y-107317587D01*
X152216130Y-107321590D01*
X152216128Y-107321592D01*
X152087640Y-107491736D01*
X152087630Y-107491752D01*
X151992596Y-107682608D01*
X151934244Y-107887688D01*
X151918495Y-108057651D01*
X151894299Y-108113849D01*
X151841691Y-108145092D01*
X151780767Y-108139446D01*
X151749914Y-108118520D01*
X151410913Y-107779520D01*
X151410908Y-107779516D01*
X151319591Y-107726794D01*
X151319593Y-107726794D01*
X151280070Y-107716204D01*
X151217727Y-107699500D01*
X151217725Y-107699500D01*
X150351258Y-107699500D01*
X150293067Y-107680593D01*
X150262637Y-107644628D01*
X150199676Y-107518186D01*
X150199673Y-107518179D01*
X150076764Y-107355421D01*
X149926041Y-107218019D01*
X149752637Y-107110652D01*
X149562456Y-107036976D01*
X149562455Y-107036975D01*
X149562453Y-107036975D01*
X149361976Y-106999500D01*
X149158024Y-106999500D01*
X148957546Y-107036975D01*
X148887632Y-107064059D01*
X148767363Y-107110652D01*
X148617881Y-107203207D01*
X148593959Y-107218019D01*
X148443237Y-107355420D01*
X148320328Y-107518177D01*
X148320323Y-107518186D01*
X148238450Y-107682611D01*
X148229418Y-107700750D01*
X148173603Y-107896917D01*
X148154785Y-108100000D01*
X148173603Y-108303083D01*
X148229418Y-108499250D01*
X148320327Y-108681821D01*
X148443236Y-108844579D01*
X148593959Y-108981981D01*
X148767363Y-109089348D01*
X148957544Y-109163024D01*
X149158024Y-109200500D01*
X149361976Y-109200500D01*
X149562456Y-109163024D01*
X149752637Y-109089348D01*
X149926041Y-108981981D01*
X150076764Y-108844579D01*
X150199673Y-108681821D01*
X150262637Y-108555371D01*
X150305500Y-108511709D01*
X150351258Y-108500500D01*
X150958099Y-108500500D01*
X151016290Y-108519407D01*
X151028103Y-108529496D01*
X152189087Y-109690480D01*
X152189089Y-109690481D01*
X152203316Y-109698695D01*
X152244257Y-109744164D01*
X152250654Y-109805014D01*
X152220521Y-109857587D01*
X152216130Y-109861590D01*
X152216128Y-109861592D01*
X152087640Y-110031736D01*
X152087630Y-110031752D01*
X151992596Y-110222608D01*
X151934244Y-110427688D01*
X151934244Y-110427690D01*
X151914571Y-110640000D01*
X151934244Y-110852310D01*
X151992595Y-111057389D01*
X152087634Y-111248255D01*
X152087639Y-111248262D01*
X152087640Y-111248263D01*
X152166235Y-111352339D01*
X152186215Y-111410170D01*
X152168387Y-111468700D01*
X152119560Y-111505573D01*
X152087232Y-111511000D01*
X150738399Y-111511000D01*
X150680208Y-111492093D01*
X150668395Y-111482003D01*
X150317335Y-111130942D01*
X150289558Y-111076426D01*
X150292117Y-111033853D01*
X150346397Y-110843083D01*
X150365215Y-110640000D01*
X150346397Y-110436917D01*
X150290582Y-110240750D01*
X150199673Y-110058179D01*
X150076764Y-109895421D01*
X149926041Y-109758019D01*
X149752637Y-109650652D01*
X149562456Y-109576976D01*
X149562455Y-109576975D01*
X149562453Y-109576975D01*
X149361976Y-109539500D01*
X149158024Y-109539500D01*
X148957546Y-109576975D01*
X148887632Y-109604059D01*
X148767363Y-109650652D01*
X148658676Y-109717948D01*
X148593959Y-109758019D01*
X148443237Y-109895420D01*
X148320328Y-110058177D01*
X148320323Y-110058186D01*
X148238450Y-110222611D01*
X148229418Y-110240750D01*
X148173603Y-110436917D01*
X148154785Y-110640000D01*
X148173603Y-110843083D01*
X148229418Y-111039250D01*
X148320327Y-111221821D01*
X148443236Y-111384579D01*
X148593959Y-111521981D01*
X148767363Y-111629348D01*
X148957544Y-111703024D01*
X149158024Y-111740500D01*
X149361976Y-111740500D01*
X149562456Y-111703024D01*
X149642258Y-111672107D01*
X149703350Y-111668717D01*
X149748026Y-111694418D01*
X150211018Y-112157410D01*
X150211020Y-112157413D01*
X150285587Y-112231980D01*
X150285589Y-112231981D01*
X150376909Y-112284705D01*
X150376913Y-112284707D01*
X150478770Y-112312000D01*
X150478772Y-112312001D01*
X150478773Y-112312001D01*
X150590290Y-112312001D01*
X150590306Y-112312000D01*
X152084966Y-112312000D01*
X152143157Y-112330907D01*
X152179121Y-112380407D01*
X152179121Y-112441593D01*
X152163970Y-112470661D01*
X152087635Y-112571743D01*
X152087630Y-112571752D01*
X151992596Y-112762608D01*
X151934244Y-112967688D01*
X151934244Y-112967690D01*
X151914571Y-113180000D01*
X151934244Y-113392310D01*
X151992595Y-113597389D01*
X152087634Y-113788255D01*
X152216128Y-113958407D01*
X152216135Y-113958413D01*
X152373692Y-114102047D01*
X152373699Y-114102053D01*
X152477389Y-114166255D01*
X152554981Y-114214298D01*
X152753802Y-114291321D01*
X152963390Y-114330500D01*
X153176610Y-114330500D01*
X153386198Y-114291321D01*
X153585019Y-114214298D01*
X153766302Y-114102052D01*
X153923872Y-113958407D01*
X154052366Y-113788255D01*
X154147405Y-113597389D01*
X154205756Y-113392310D01*
X154221505Y-113222346D01*
X154245700Y-113166151D01*
X154298307Y-113134907D01*
X154359231Y-113140553D01*
X154390086Y-113161479D01*
X157194520Y-115965913D01*
X157194519Y-115965913D01*
X157269087Y-116040480D01*
X157360413Y-116093207D01*
X157462273Y-116120500D01*
X157567727Y-116120500D01*
X159542887Y-116120500D01*
X159601078Y-116139407D01*
X159631508Y-116175372D01*
X159688338Y-116289504D01*
X159707634Y-116328255D01*
X159836128Y-116498407D01*
X159836135Y-116498413D01*
X159993692Y-116642047D01*
X159993699Y-116642053D01*
X160097389Y-116706255D01*
X160174981Y-116754298D01*
X160373802Y-116831321D01*
X160583390Y-116870500D01*
X160796610Y-116870500D01*
X161006198Y-116831321D01*
X161205019Y-116754298D01*
X161386302Y-116642052D01*
X161543872Y-116498407D01*
X161672366Y-116328255D01*
X161767405Y-116137389D01*
X161825756Y-115932310D01*
X161845429Y-115720000D01*
X161825756Y-115507690D01*
X161767405Y-115302611D01*
X161672366Y-115111745D01*
X161543872Y-114941593D01*
X161489623Y-114892139D01*
X161386307Y-114797952D01*
X161386300Y-114797946D01*
X161205024Y-114685705D01*
X161205019Y-114685702D01*
X161006195Y-114608678D01*
X160796610Y-114569500D01*
X160583390Y-114569500D01*
X160373804Y-114608678D01*
X160174980Y-114685702D01*
X160174975Y-114685705D01*
X159993699Y-114797946D01*
X159993692Y-114797952D01*
X159836135Y-114941586D01*
X159836131Y-114941589D01*
X159836128Y-114941593D01*
X159836125Y-114941597D01*
X159707635Y-115111743D01*
X159707630Y-115111752D01*
X159631508Y-115264628D01*
X159588646Y-115308290D01*
X159542887Y-115319500D01*
X157721901Y-115319500D01*
X157663710Y-115300593D01*
X157651897Y-115290504D01*
X155861873Y-113500480D01*
X153952413Y-111591020D01*
X153952410Y-111591018D01*
X153936254Y-111581690D01*
X153895313Y-111536219D01*
X153888919Y-111475369D01*
X153919065Y-111422789D01*
X153923872Y-111418407D01*
X154052366Y-111248255D01*
X154147405Y-111057389D01*
X154205756Y-110852310D01*
X154221505Y-110682346D01*
X154245700Y-110626151D01*
X154298307Y-110594907D01*
X154359231Y-110600553D01*
X154390086Y-110621479D01*
X155798108Y-112029500D01*
X157194518Y-113425910D01*
X157194520Y-113425913D01*
X157269087Y-113500480D01*
X157269089Y-113500481D01*
X157360409Y-113553205D01*
X157360413Y-113553207D01*
X157462270Y-113580500D01*
X157462272Y-113580501D01*
X157462273Y-113580501D01*
X157573790Y-113580501D01*
X157573806Y-113580500D01*
X159542887Y-113580500D01*
X159601078Y-113599407D01*
X159631508Y-113635372D01*
X159707634Y-113788255D01*
X159836128Y-113958407D01*
X159836135Y-113958413D01*
X159993692Y-114102047D01*
X159993699Y-114102053D01*
X160097389Y-114166255D01*
X160174981Y-114214298D01*
X160373802Y-114291321D01*
X160583390Y-114330500D01*
X160796610Y-114330500D01*
X161006198Y-114291321D01*
X161205019Y-114214298D01*
X161386302Y-114102052D01*
X161543872Y-113958407D01*
X161672366Y-113788255D01*
X161767405Y-113597389D01*
X161825756Y-113392310D01*
X161845429Y-113180000D01*
X161825756Y-112967690D01*
X161767405Y-112762611D01*
X161672366Y-112571745D01*
X161543872Y-112401593D01*
X161459555Y-112324727D01*
X161386307Y-112257952D01*
X161386300Y-112257946D01*
X161205024Y-112145705D01*
X161205019Y-112145702D01*
X161006195Y-112068678D01*
X160796610Y-112029500D01*
X160583390Y-112029500D01*
X160373804Y-112068678D01*
X160174980Y-112145702D01*
X160174975Y-112145705D01*
X159993699Y-112257946D01*
X159993692Y-112257952D01*
X159836135Y-112401586D01*
X159836131Y-112401589D01*
X159836128Y-112401593D01*
X159836125Y-112401597D01*
X159707635Y-112571743D01*
X159707630Y-112571752D01*
X159631508Y-112724628D01*
X159588646Y-112768290D01*
X159542887Y-112779500D01*
X157721900Y-112779500D01*
X157663709Y-112760593D01*
X157651896Y-112750504D01*
X155861872Y-110960480D01*
X153950913Y-109049520D01*
X153950910Y-109049518D01*
X153936680Y-109041302D01*
X153895739Y-108995831D01*
X153889345Y-108934981D01*
X153919489Y-108882401D01*
X153923872Y-108878407D01*
X154052366Y-108708255D01*
X154147405Y-108517389D01*
X154205756Y-108312310D01*
X154221505Y-108142346D01*
X154245700Y-108086151D01*
X154298307Y-108054907D01*
X154359231Y-108060553D01*
X154390086Y-108081479D01*
X157194518Y-110885910D01*
X157194520Y-110885913D01*
X157269087Y-110960480D01*
X157269089Y-110960481D01*
X157360409Y-111013205D01*
X157360413Y-111013207D01*
X157462270Y-111040500D01*
X157462272Y-111040501D01*
X157462273Y-111040501D01*
X157573790Y-111040501D01*
X157573806Y-111040500D01*
X159542887Y-111040500D01*
X159601078Y-111059407D01*
X159631508Y-111095372D01*
X159707634Y-111248255D01*
X159836128Y-111418407D01*
X159898612Y-111475369D01*
X159993692Y-111562047D01*
X159993699Y-111562053D01*
X160097389Y-111626255D01*
X160174981Y-111674298D01*
X160373802Y-111751321D01*
X160583390Y-111790500D01*
X160796610Y-111790500D01*
X161006198Y-111751321D01*
X161205019Y-111674298D01*
X161386302Y-111562052D01*
X161543872Y-111418407D01*
X161672366Y-111248255D01*
X161767405Y-111057389D01*
X161825756Y-110852310D01*
X161845429Y-110640000D01*
X163394785Y-110640000D01*
X163413603Y-110843083D01*
X163469418Y-111039250D01*
X163560327Y-111221821D01*
X163683236Y-111384579D01*
X163833959Y-111521981D01*
X164007363Y-111629348D01*
X164197544Y-111703024D01*
X164398024Y-111740500D01*
X164601976Y-111740500D01*
X164802456Y-111703024D01*
X164992637Y-111629348D01*
X165166041Y-111521981D01*
X165316764Y-111384579D01*
X165439673Y-111221821D01*
X165530582Y-111039250D01*
X165586397Y-110843083D01*
X165605215Y-110640000D01*
X165586397Y-110436917D01*
X165530582Y-110240750D01*
X165439673Y-110058179D01*
X165316764Y-109895421D01*
X165166041Y-109758019D01*
X164992637Y-109650652D01*
X164802456Y-109576976D01*
X164802455Y-109576975D01*
X164802453Y-109576975D01*
X164601976Y-109539500D01*
X164398024Y-109539500D01*
X164197546Y-109576975D01*
X164127632Y-109604059D01*
X164007363Y-109650652D01*
X163898676Y-109717948D01*
X163833959Y-109758019D01*
X163683237Y-109895420D01*
X163560328Y-110058177D01*
X163560323Y-110058186D01*
X163478450Y-110222611D01*
X163469418Y-110240750D01*
X163413603Y-110436917D01*
X163394785Y-110640000D01*
X161845429Y-110640000D01*
X161825756Y-110427690D01*
X161767405Y-110222611D01*
X161672366Y-110031745D01*
X161543872Y-109861593D01*
X161481808Y-109805014D01*
X161386307Y-109717952D01*
X161386300Y-109717946D01*
X161205024Y-109605705D01*
X161205019Y-109605702D01*
X161006195Y-109528678D01*
X160796610Y-109489500D01*
X160583390Y-109489500D01*
X160373804Y-109528678D01*
X160174980Y-109605702D01*
X160174975Y-109605705D01*
X159993699Y-109717946D01*
X159993692Y-109717952D01*
X159836135Y-109861586D01*
X159836131Y-109861589D01*
X159836128Y-109861593D01*
X159836125Y-109861597D01*
X159707635Y-110031743D01*
X159707630Y-110031752D01*
X159631508Y-110184628D01*
X159588646Y-110228290D01*
X159542887Y-110239500D01*
X157721900Y-110239500D01*
X157663709Y-110220593D01*
X157651896Y-110210504D01*
X155940642Y-108499250D01*
X153950913Y-106509520D01*
X153950910Y-106509518D01*
X153936680Y-106501302D01*
X153895739Y-106455831D01*
X153889345Y-106394981D01*
X153919489Y-106342401D01*
X153923872Y-106338407D01*
X154052366Y-106168255D01*
X154147405Y-105977389D01*
X154205756Y-105772310D01*
X154225429Y-105560000D01*
X154205756Y-105347690D01*
X154147405Y-105142611D01*
X154052366Y-104951745D01*
X153923872Y-104781593D01*
X153869623Y-104732139D01*
X153766307Y-104637952D01*
X153766300Y-104637946D01*
X153585024Y-104525705D01*
X153585019Y-104525702D01*
X153386195Y-104448678D01*
X153176610Y-104409500D01*
X152963390Y-104409500D01*
X152753804Y-104448678D01*
X152554980Y-104525702D01*
X152554975Y-104525705D01*
X152373699Y-104637946D01*
X152373692Y-104637952D01*
X152216135Y-104781586D01*
X152216131Y-104781589D01*
X152216128Y-104781593D01*
X152216125Y-104781597D01*
X152087635Y-104951743D01*
X152087630Y-104951752D01*
X151992596Y-105142608D01*
X151934244Y-105347688D01*
X151918495Y-105517651D01*
X151894299Y-105573849D01*
X151841691Y-105605092D01*
X151780767Y-105599446D01*
X151749914Y-105578520D01*
X151410913Y-105239520D01*
X151410908Y-105239516D01*
X151319591Y-105186794D01*
X151319593Y-105186794D01*
X151280070Y-105176204D01*
X151217727Y-105159500D01*
X151217725Y-105159500D01*
X150351258Y-105159500D01*
X150293067Y-105140593D01*
X150262637Y-105104628D01*
X150199676Y-104978186D01*
X150199673Y-104978179D01*
X150076764Y-104815421D01*
X149926041Y-104678019D01*
X149752637Y-104570652D01*
X149562456Y-104496976D01*
X149562455Y-104496975D01*
X149562453Y-104496975D01*
X149361976Y-104459500D01*
X149158024Y-104459500D01*
X148957546Y-104496975D01*
X148887632Y-104524059D01*
X148767363Y-104570652D01*
X148658676Y-104637948D01*
X148593959Y-104678019D01*
X148443237Y-104815420D01*
X148320328Y-104978177D01*
X148320323Y-104978186D01*
X148230040Y-105159500D01*
X148229418Y-105160750D01*
X148173603Y-105356917D01*
X148154785Y-105560000D01*
X147882500Y-105560000D01*
X147882500Y-105004899D01*
X147901407Y-104946708D01*
X147911490Y-104934901D01*
X148771974Y-104074416D01*
X148826489Y-104046641D01*
X148877738Y-104052106D01*
X148957544Y-104083024D01*
X149158024Y-104120500D01*
X149361976Y-104120500D01*
X149562456Y-104083024D01*
X149752637Y-104009348D01*
X149926041Y-103901981D01*
X150076764Y-103764579D01*
X150199673Y-103601821D01*
X150290582Y-103419250D01*
X150346397Y-103223083D01*
X150365215Y-103020000D01*
X151914571Y-103020000D01*
X151919366Y-103071753D01*
X151934244Y-103232310D01*
X151992595Y-103437389D01*
X152087634Y-103628255D01*
X152216128Y-103798407D01*
X152216135Y-103798413D01*
X152373692Y-103942047D01*
X152373699Y-103942053D01*
X152454525Y-103992098D01*
X152554981Y-104054298D01*
X152753802Y-104131321D01*
X152963390Y-104170500D01*
X153176610Y-104170500D01*
X153386198Y-104131321D01*
X153585019Y-104054298D01*
X153766302Y-103942052D01*
X153923872Y-103798407D01*
X154052366Y-103628255D01*
X154147405Y-103437389D01*
X154205756Y-103232310D01*
X154225429Y-103020000D01*
X154205756Y-102807690D01*
X154147405Y-102602611D01*
X154052366Y-102411745D01*
X153923872Y-102241593D01*
X153847494Y-102171965D01*
X153766307Y-102097952D01*
X153766300Y-102097946D01*
X153585024Y-101985705D01*
X153585019Y-101985702D01*
X153386195Y-101908678D01*
X153176610Y-101869500D01*
X152963390Y-101869500D01*
X152753804Y-101908678D01*
X152554980Y-101985702D01*
X152554975Y-101985705D01*
X152373699Y-102097946D01*
X152373692Y-102097952D01*
X152216135Y-102241586D01*
X152216131Y-102241589D01*
X152216128Y-102241593D01*
X152216125Y-102241597D01*
X152087635Y-102411743D01*
X152087630Y-102411752D01*
X151992596Y-102602608D01*
X151992595Y-102602611D01*
X151987790Y-102619500D01*
X151934244Y-102807688D01*
X151914571Y-103020000D01*
X150365215Y-103020000D01*
X150346397Y-102816917D01*
X150290582Y-102620750D01*
X150199673Y-102438179D01*
X150076764Y-102275421D01*
X149926041Y-102138019D01*
X149752637Y-102030652D01*
X149562456Y-101956976D01*
X149562455Y-101956975D01*
X149562453Y-101956975D01*
X149361976Y-101919500D01*
X149158024Y-101919500D01*
X148957546Y-101956975D01*
X148887632Y-101984059D01*
X148767363Y-102030652D01*
X148617881Y-102123207D01*
X148593959Y-102138019D01*
X148443237Y-102275420D01*
X148320328Y-102438177D01*
X148320323Y-102438186D01*
X148238450Y-102602611D01*
X148229418Y-102620750D01*
X148173603Y-102816917D01*
X148154785Y-103020000D01*
X148173603Y-103223083D01*
X148176229Y-103232311D01*
X148227880Y-103413845D01*
X148225619Y-103474989D01*
X148202663Y-103510942D01*
X147651504Y-104062102D01*
X147596987Y-104089879D01*
X147536555Y-104080308D01*
X147493290Y-104037043D01*
X147482500Y-103992098D01*
X147482500Y-97940000D01*
X148154785Y-97940000D01*
X148173603Y-98143083D01*
X148229418Y-98339250D01*
X148320327Y-98521821D01*
X148443236Y-98684579D01*
X148593959Y-98821981D01*
X148767363Y-98929348D01*
X148957544Y-99003024D01*
X149158024Y-99040500D01*
X149361976Y-99040500D01*
X149562456Y-99003024D01*
X149752637Y-98929348D01*
X149926041Y-98821981D01*
X150076764Y-98684579D01*
X150199673Y-98521821D01*
X150290582Y-98339250D01*
X150346397Y-98143083D01*
X150365215Y-97940000D01*
X150346397Y-97736917D01*
X150290582Y-97540750D01*
X150199673Y-97358179D01*
X150076764Y-97195421D01*
X149926041Y-97058019D01*
X149752637Y-96950652D01*
X149562456Y-96876976D01*
X149562455Y-96876975D01*
X149562453Y-96876975D01*
X149361976Y-96839500D01*
X149158024Y-96839500D01*
X148957546Y-96876975D01*
X148887632Y-96904059D01*
X148767363Y-96950652D01*
X148617881Y-97043207D01*
X148593959Y-97058019D01*
X148443237Y-97195420D01*
X148320328Y-97358177D01*
X148320323Y-97358186D01*
X148230040Y-97539500D01*
X148229418Y-97540750D01*
X148173603Y-97736917D01*
X148154785Y-97940000D01*
X147482500Y-97940000D01*
X147482500Y-95400000D01*
X148154785Y-95400000D01*
X148173603Y-95603083D01*
X148229418Y-95799250D01*
X148320327Y-95981821D01*
X148443236Y-96144579D01*
X148593959Y-96281981D01*
X148767363Y-96389348D01*
X148957544Y-96463024D01*
X149158024Y-96500500D01*
X149361976Y-96500500D01*
X149562456Y-96463024D01*
X149752637Y-96389348D01*
X149926041Y-96281981D01*
X150076764Y-96144579D01*
X150199673Y-95981821D01*
X150290582Y-95799250D01*
X150346397Y-95603083D01*
X150365215Y-95400000D01*
X151914571Y-95400000D01*
X151919366Y-95451753D01*
X151934244Y-95612310D01*
X151992595Y-95817389D01*
X152087634Y-96008255D01*
X152216128Y-96178407D01*
X152216135Y-96178413D01*
X152373692Y-96322047D01*
X152373699Y-96322053D01*
X152418057Y-96349518D01*
X152554981Y-96434298D01*
X152753802Y-96511321D01*
X152963390Y-96550500D01*
X153176610Y-96550500D01*
X153386198Y-96511321D01*
X153585019Y-96434298D01*
X153766302Y-96322052D01*
X153923872Y-96178407D01*
X154052366Y-96008255D01*
X154147405Y-95817389D01*
X154205756Y-95612310D01*
X154225429Y-95400000D01*
X154205756Y-95187690D01*
X154147405Y-94982611D01*
X154052366Y-94791745D01*
X153923872Y-94621593D01*
X153839185Y-94544390D01*
X153766307Y-94477952D01*
X153766300Y-94477946D01*
X153585024Y-94365705D01*
X153585019Y-94365702D01*
X153386195Y-94288678D01*
X153176610Y-94249500D01*
X152963390Y-94249500D01*
X152753804Y-94288678D01*
X152554980Y-94365702D01*
X152554975Y-94365705D01*
X152373699Y-94477946D01*
X152373692Y-94477952D01*
X152216135Y-94621586D01*
X152216131Y-94621589D01*
X152216128Y-94621593D01*
X152216125Y-94621597D01*
X152087635Y-94791743D01*
X152087630Y-94791752D01*
X151992596Y-94982608D01*
X151992595Y-94982611D01*
X151987790Y-94999500D01*
X151934244Y-95187688D01*
X151914571Y-95400000D01*
X150365215Y-95400000D01*
X150346397Y-95196917D01*
X150290582Y-95000750D01*
X150199673Y-94818179D01*
X150076764Y-94655421D01*
X149926041Y-94518019D01*
X149752637Y-94410652D01*
X149562456Y-94336976D01*
X149562455Y-94336975D01*
X149562453Y-94336975D01*
X149361976Y-94299500D01*
X149158024Y-94299500D01*
X148957546Y-94336975D01*
X148887632Y-94364059D01*
X148767363Y-94410652D01*
X148617881Y-94503207D01*
X148593959Y-94518019D01*
X148443237Y-94655420D01*
X148320328Y-94818177D01*
X148320323Y-94818186D01*
X148230647Y-94998281D01*
X148229418Y-95000750D01*
X148173603Y-95196917D01*
X148154785Y-95400000D01*
X147482500Y-95400000D01*
X147482500Y-95244900D01*
X147501407Y-95186709D01*
X147511490Y-95174902D01*
X148771975Y-93914416D01*
X148826490Y-93886641D01*
X148877735Y-93892106D01*
X148957544Y-93923024D01*
X149158024Y-93960500D01*
X149361976Y-93960500D01*
X149562456Y-93923024D01*
X149752637Y-93849348D01*
X149926041Y-93741981D01*
X150076764Y-93604579D01*
X150199673Y-93441821D01*
X150290582Y-93259250D01*
X150346397Y-93063083D01*
X150365215Y-92860000D01*
X151914571Y-92860000D01*
X151934244Y-93072310D01*
X151992595Y-93277389D01*
X152087634Y-93468255D01*
X152216128Y-93638407D01*
X152216135Y-93638413D01*
X152373692Y-93782047D01*
X152373699Y-93782053D01*
X152418060Y-93809520D01*
X152554981Y-93894298D01*
X152753802Y-93971321D01*
X152963390Y-94010500D01*
X153176610Y-94010500D01*
X153386198Y-93971321D01*
X153585019Y-93894298D01*
X153766302Y-93782052D01*
X153923872Y-93638407D01*
X154052366Y-93468255D01*
X154147405Y-93277389D01*
X154205756Y-93072310D01*
X154225429Y-92860000D01*
X154205756Y-92647690D01*
X154147405Y-92442611D01*
X154052366Y-92251745D01*
X153923872Y-92081593D01*
X153869623Y-92032139D01*
X153766307Y-91937952D01*
X153766300Y-91937946D01*
X153585024Y-91825705D01*
X153585019Y-91825702D01*
X153386195Y-91748678D01*
X153176610Y-91709500D01*
X152963390Y-91709500D01*
X152753804Y-91748678D01*
X152554980Y-91825702D01*
X152554975Y-91825705D01*
X152373699Y-91937946D01*
X152373692Y-91937952D01*
X152216135Y-92081586D01*
X152216131Y-92081589D01*
X152216128Y-92081593D01*
X152216125Y-92081597D01*
X152087635Y-92251743D01*
X152087630Y-92251752D01*
X151992596Y-92442608D01*
X151934244Y-92647688D01*
X151934244Y-92647690D01*
X151914571Y-92860000D01*
X150365215Y-92860000D01*
X150346397Y-92656917D01*
X150290582Y-92460750D01*
X150199673Y-92278179D01*
X150076764Y-92115421D01*
X149926041Y-91978019D01*
X149752637Y-91870652D01*
X149562456Y-91796976D01*
X149562455Y-91796975D01*
X149562453Y-91796975D01*
X149361976Y-91759500D01*
X149158024Y-91759500D01*
X148957546Y-91796975D01*
X148935334Y-91805580D01*
X148767363Y-91870652D01*
X148658676Y-91937948D01*
X148593959Y-91978019D01*
X148443237Y-92115420D01*
X148320328Y-92278177D01*
X148320323Y-92278186D01*
X148238450Y-92442611D01*
X148229418Y-92460750D01*
X148173603Y-92656917D01*
X148154785Y-92860000D01*
X148173603Y-93063083D01*
X148176229Y-93072311D01*
X148227880Y-93253845D01*
X148225619Y-93314989D01*
X148202663Y-93350941D01*
X146761520Y-94792086D01*
X146761516Y-94792091D01*
X146708793Y-94883411D01*
X146708792Y-94883411D01*
X146708793Y-94883412D01*
X146708793Y-94883413D01*
X146681500Y-94985273D01*
X144255500Y-94985273D01*
X144255500Y-84914773D01*
X147335500Y-84914773D01*
X147335500Y-88743273D01*
X147335500Y-88848727D01*
X147346913Y-88891321D01*
X147362794Y-88950592D01*
X147415516Y-89041908D01*
X147415517Y-89041909D01*
X147415518Y-89041910D01*
X147415520Y-89041913D01*
X147811626Y-89438019D01*
X148202663Y-89829056D01*
X148230440Y-89883573D01*
X148227880Y-89926152D01*
X148173603Y-90116915D01*
X148173603Y-90116917D01*
X148154785Y-90320000D01*
X148173603Y-90523083D01*
X148229418Y-90719250D01*
X148320327Y-90901821D01*
X148443236Y-91064579D01*
X148593959Y-91201981D01*
X148767363Y-91309348D01*
X148957544Y-91383024D01*
X149158024Y-91420500D01*
X149361976Y-91420500D01*
X149562456Y-91383024D01*
X149752637Y-91309348D01*
X149926041Y-91201981D01*
X150076764Y-91064579D01*
X150199673Y-90901821D01*
X150290582Y-90719250D01*
X150346397Y-90523083D01*
X150365215Y-90320000D01*
X150346397Y-90116917D01*
X150290582Y-89920750D01*
X150199673Y-89738179D01*
X150076764Y-89575421D01*
X149926041Y-89438019D01*
X149752637Y-89330652D01*
X149562456Y-89256976D01*
X149562455Y-89256975D01*
X149562453Y-89256975D01*
X149361976Y-89219500D01*
X149158024Y-89219500D01*
X148957552Y-89256974D01*
X148957546Y-89256975D01*
X148957544Y-89256976D01*
X148891296Y-89282639D01*
X148877738Y-89287892D01*
X148816647Y-89291281D01*
X148771973Y-89265580D01*
X148165496Y-88659103D01*
X148137719Y-88604586D01*
X148136500Y-88589099D01*
X148136500Y-88412878D01*
X148155407Y-88354687D01*
X148204907Y-88318723D01*
X148266093Y-88318723D01*
X148315593Y-88354687D01*
X148319676Y-88360768D01*
X148320321Y-88361809D01*
X148320327Y-88361821D01*
X148443236Y-88524579D01*
X148593959Y-88661981D01*
X148767363Y-88769348D01*
X148957544Y-88843024D01*
X149158024Y-88880500D01*
X149361976Y-88880500D01*
X149562456Y-88843024D01*
X149752637Y-88769348D01*
X149926041Y-88661981D01*
X150076764Y-88524579D01*
X150199673Y-88361821D01*
X150290582Y-88179250D01*
X150346397Y-87983083D01*
X150365215Y-87780000D01*
X150346397Y-87576917D01*
X150292118Y-87386148D01*
X150294379Y-87325008D01*
X150317334Y-87289058D01*
X150666897Y-86939496D01*
X150721413Y-86911719D01*
X150736900Y-86910500D01*
X152086099Y-86910500D01*
X152144290Y-86929407D01*
X152180254Y-86978907D01*
X152180254Y-87040093D01*
X152165103Y-87069161D01*
X152087635Y-87171743D01*
X152087630Y-87171752D01*
X151992596Y-87362608D01*
X151934244Y-87567688D01*
X151934244Y-87567690D01*
X151914571Y-87780000D01*
X151934244Y-87992310D01*
X151992595Y-88197389D01*
X152087634Y-88388255D01*
X152216128Y-88558407D01*
X152266784Y-88604586D01*
X152373692Y-88702047D01*
X152373699Y-88702053D01*
X152440272Y-88743273D01*
X152554981Y-88814298D01*
X152753802Y-88891321D01*
X152963390Y-88930500D01*
X153176610Y-88930500D01*
X153386198Y-88891321D01*
X153585019Y-88814298D01*
X153766302Y-88702052D01*
X153923872Y-88558407D01*
X154052366Y-88388255D01*
X154147405Y-88197389D01*
X154205756Y-87992310D01*
X154221505Y-87822346D01*
X154245700Y-87766151D01*
X154298307Y-87734907D01*
X154359231Y-87740553D01*
X154390086Y-87761479D01*
X155798108Y-89169500D01*
X157194518Y-90565910D01*
X157194520Y-90565913D01*
X157269087Y-90640480D01*
X157360411Y-90693206D01*
X157360413Y-90693207D01*
X157462270Y-90720500D01*
X157462272Y-90720501D01*
X157462273Y-90720501D01*
X157573790Y-90720501D01*
X157573806Y-90720500D01*
X159542887Y-90720500D01*
X159601078Y-90739407D01*
X159631508Y-90775372D01*
X159707634Y-90928255D01*
X159836128Y-91098407D01*
X159836135Y-91098413D01*
X159993692Y-91242047D01*
X159993699Y-91242053D01*
X160097389Y-91306255D01*
X160174981Y-91354298D01*
X160373802Y-91431321D01*
X160583390Y-91470500D01*
X160796610Y-91470500D01*
X161006198Y-91431321D01*
X161205019Y-91354298D01*
X161386302Y-91242052D01*
X161543872Y-91098407D01*
X161672366Y-90928255D01*
X161721567Y-90829444D01*
X161764427Y-90785785D01*
X161824768Y-90775655D01*
X161879539Y-90802927D01*
X161889030Y-90815177D01*
X161889569Y-90814764D01*
X161893517Y-90819909D01*
X161893518Y-90819910D01*
X161893520Y-90819913D01*
X162783107Y-91709500D01*
X163442663Y-92369056D01*
X163470440Y-92423573D01*
X163467880Y-92466152D01*
X163413603Y-92656915D01*
X163413603Y-92656917D01*
X163394785Y-92860000D01*
X163413603Y-93063083D01*
X163469418Y-93259250D01*
X163560327Y-93441821D01*
X163683236Y-93604579D01*
X163746701Y-93662435D01*
X163776966Y-93715608D01*
X163770195Y-93776418D01*
X163750008Y-93805599D01*
X162585103Y-94970504D01*
X162530586Y-94998281D01*
X162515099Y-94999500D01*
X161837113Y-94999500D01*
X161778922Y-94980593D01*
X161748492Y-94944628D01*
X161672536Y-94792087D01*
X161672366Y-94791745D01*
X161543872Y-94621593D01*
X161459185Y-94544390D01*
X161386307Y-94477952D01*
X161386300Y-94477946D01*
X161205024Y-94365705D01*
X161205019Y-94365702D01*
X161006195Y-94288678D01*
X160796610Y-94249500D01*
X160583390Y-94249500D01*
X160373804Y-94288678D01*
X160174980Y-94365702D01*
X160174975Y-94365705D01*
X159993699Y-94477946D01*
X159993692Y-94477952D01*
X159836135Y-94621586D01*
X159836131Y-94621589D01*
X159836128Y-94621593D01*
X159836125Y-94621597D01*
X159707635Y-94791743D01*
X159707630Y-94791752D01*
X159612596Y-94982608D01*
X159612595Y-94982611D01*
X159607790Y-94999500D01*
X159554244Y-95187688D01*
X159534571Y-95400000D01*
X159539366Y-95451753D01*
X159554244Y-95612310D01*
X159610979Y-95811710D01*
X159612596Y-95817391D01*
X159707630Y-96008247D01*
X159707635Y-96008256D01*
X159785103Y-96110839D01*
X159805082Y-96168670D01*
X159787253Y-96227201D01*
X159738427Y-96264073D01*
X159706099Y-96269500D01*
X159626901Y-96269500D01*
X159568710Y-96250593D01*
X159556897Y-96240504D01*
X156176393Y-92860000D01*
X159534571Y-92860000D01*
X159554244Y-93072310D01*
X159612595Y-93277389D01*
X159707634Y-93468255D01*
X159836128Y-93638407D01*
X159836135Y-93638413D01*
X159993692Y-93782047D01*
X159993699Y-93782053D01*
X160038060Y-93809520D01*
X160174981Y-93894298D01*
X160373802Y-93971321D01*
X160583390Y-94010500D01*
X160796610Y-94010500D01*
X161006198Y-93971321D01*
X161205019Y-93894298D01*
X161386302Y-93782052D01*
X161543872Y-93638407D01*
X161672366Y-93468255D01*
X161767405Y-93277389D01*
X161825756Y-93072310D01*
X161845429Y-92860000D01*
X161825756Y-92647690D01*
X161767405Y-92442611D01*
X161672366Y-92251745D01*
X161543872Y-92081593D01*
X161489623Y-92032139D01*
X161386307Y-91937952D01*
X161386300Y-91937946D01*
X161205024Y-91825705D01*
X161205019Y-91825702D01*
X161006195Y-91748678D01*
X160796610Y-91709500D01*
X160583390Y-91709500D01*
X160373804Y-91748678D01*
X160174980Y-91825702D01*
X160174975Y-91825705D01*
X159993699Y-91937946D01*
X159993692Y-91937952D01*
X159836135Y-92081586D01*
X159836131Y-92081589D01*
X159836128Y-92081593D01*
X159836125Y-92081597D01*
X159707635Y-92251743D01*
X159707630Y-92251752D01*
X159612596Y-92442608D01*
X159554244Y-92647688D01*
X159554244Y-92647690D01*
X159534571Y-92860000D01*
X156176393Y-92860000D01*
X154166650Y-90850257D01*
X154138873Y-90795740D01*
X154147111Y-90742182D01*
X154145752Y-90741656D01*
X154147400Y-90737398D01*
X154147405Y-90737389D01*
X154205756Y-90532310D01*
X154225429Y-90320000D01*
X154205756Y-90107690D01*
X154147405Y-89902611D01*
X154052366Y-89711745D01*
X153923872Y-89541593D01*
X153869623Y-89492139D01*
X153766307Y-89397952D01*
X153766300Y-89397946D01*
X153585024Y-89285705D01*
X153585019Y-89285702D01*
X153386195Y-89208678D01*
X153176610Y-89169500D01*
X152963390Y-89169500D01*
X152753804Y-89208678D01*
X152554980Y-89285702D01*
X152554975Y-89285705D01*
X152373699Y-89397946D01*
X152373692Y-89397952D01*
X152216135Y-89541586D01*
X152216131Y-89541589D01*
X152216128Y-89541593D01*
X152216125Y-89541597D01*
X152087635Y-89711743D01*
X152087630Y-89711752D01*
X151992596Y-89902608D01*
X151934244Y-90107688D01*
X151934244Y-90107690D01*
X151914571Y-90320000D01*
X151934244Y-90532310D01*
X151992595Y-90737389D01*
X152087634Y-90928255D01*
X152216128Y-91098407D01*
X152216135Y-91098413D01*
X152373692Y-91242047D01*
X152373699Y-91242053D01*
X152477389Y-91306255D01*
X152554981Y-91354298D01*
X152753802Y-91431321D01*
X152963390Y-91470500D01*
X153176610Y-91470500D01*
X153386198Y-91431321D01*
X153490908Y-91390755D01*
X153551998Y-91387366D01*
X153596674Y-91413067D01*
X159174087Y-96990480D01*
X159174089Y-96990481D01*
X159174090Y-96990482D01*
X159174091Y-96990483D01*
X159265408Y-97043205D01*
X159265406Y-97043205D01*
X159265410Y-97043206D01*
X159265412Y-97043207D01*
X159367273Y-97070500D01*
X159472727Y-97070500D01*
X159706099Y-97070500D01*
X159764290Y-97089407D01*
X159800254Y-97138907D01*
X159800254Y-97200093D01*
X159785103Y-97229161D01*
X159707635Y-97331743D01*
X159707630Y-97331752D01*
X159612596Y-97522608D01*
X159554244Y-97727688D01*
X159534571Y-97940000D01*
X159554244Y-98152311D01*
X159612598Y-98357401D01*
X159614249Y-98361661D01*
X159612873Y-98362193D01*
X159620975Y-98416662D01*
X159593348Y-98470257D01*
X159283104Y-98780503D01*
X159228587Y-98808281D01*
X159213100Y-98809500D01*
X154053901Y-98809500D01*
X153995710Y-98790593D01*
X153959746Y-98741093D01*
X153959746Y-98679907D01*
X153974897Y-98650839D01*
X154052366Y-98548255D01*
X154147405Y-98357389D01*
X154205756Y-98152310D01*
X154225429Y-97940000D01*
X154205756Y-97727690D01*
X154147405Y-97522611D01*
X154052366Y-97331745D01*
X153923872Y-97161593D01*
X153844688Y-97089407D01*
X153766307Y-97017952D01*
X153766300Y-97017946D01*
X153585024Y-96905705D01*
X153585019Y-96905702D01*
X153386195Y-96828678D01*
X153176610Y-96789500D01*
X152963390Y-96789500D01*
X152753804Y-96828678D01*
X152554980Y-96905702D01*
X152554975Y-96905705D01*
X152373699Y-97017946D01*
X152373692Y-97017952D01*
X152216135Y-97161586D01*
X152216131Y-97161589D01*
X152216128Y-97161593D01*
X152216125Y-97161597D01*
X152087635Y-97331743D01*
X152087630Y-97331752D01*
X151992596Y-97522608D01*
X151934244Y-97727688D01*
X151934244Y-97727690D01*
X151914571Y-97940000D01*
X151934244Y-98152310D01*
X151987434Y-98339252D01*
X151992596Y-98357391D01*
X152087630Y-98548247D01*
X152087635Y-98548256D01*
X152165103Y-98650839D01*
X152185082Y-98708670D01*
X152167253Y-98767201D01*
X152118427Y-98804073D01*
X152086099Y-98809500D01*
X150582727Y-98809500D01*
X150477273Y-98809500D01*
X150414929Y-98826204D01*
X150375407Y-98836794D01*
X150284091Y-98889516D01*
X150284086Y-98889520D01*
X149748024Y-99425580D01*
X149693508Y-99453357D01*
X149642259Y-99447891D01*
X149562460Y-99416977D01*
X149562447Y-99416974D01*
X149361976Y-99379500D01*
X149158024Y-99379500D01*
X148957546Y-99416975D01*
X148957541Y-99416977D01*
X148767363Y-99490652D01*
X148617881Y-99583207D01*
X148593959Y-99598019D01*
X148443237Y-99735420D01*
X148320328Y-99898177D01*
X148320323Y-99898186D01*
X148238450Y-100062611D01*
X148229418Y-100080750D01*
X148173603Y-100276917D01*
X148154785Y-100480000D01*
X148173603Y-100683083D01*
X148229418Y-100879250D01*
X148320327Y-101061821D01*
X148443236Y-101224579D01*
X148593959Y-101361981D01*
X148767363Y-101469348D01*
X148957544Y-101543024D01*
X149158024Y-101580500D01*
X149361976Y-101580500D01*
X149562456Y-101543024D01*
X149752637Y-101469348D01*
X149926041Y-101361981D01*
X150076764Y-101224579D01*
X150199673Y-101061821D01*
X150290582Y-100879250D01*
X150346397Y-100683083D01*
X150365215Y-100480000D01*
X150346397Y-100276917D01*
X150292118Y-100086148D01*
X150294379Y-100025008D01*
X150317334Y-99989058D01*
X150666897Y-99639496D01*
X150721413Y-99611719D01*
X150736900Y-99610500D01*
X152086099Y-99610500D01*
X152144290Y-99629407D01*
X152180254Y-99678907D01*
X152180254Y-99740093D01*
X152165103Y-99769161D01*
X152087635Y-99871743D01*
X152087630Y-99871752D01*
X151992596Y-100062608D01*
X151934244Y-100267688D01*
X151934244Y-100267690D01*
X151914571Y-100480000D01*
X151934244Y-100692310D01*
X151992595Y-100897389D01*
X152087634Y-101088255D01*
X152216128Y-101258407D01*
X152216135Y-101258413D01*
X152373692Y-101402047D01*
X152373699Y-101402053D01*
X152418060Y-101429520D01*
X152554981Y-101514298D01*
X152753802Y-101591321D01*
X152963390Y-101630500D01*
X153176610Y-101630500D01*
X153386198Y-101591321D01*
X153490908Y-101550755D01*
X153551998Y-101547366D01*
X153596674Y-101573067D01*
X159174087Y-107150480D01*
X159174089Y-107150481D01*
X159174090Y-107150482D01*
X159174091Y-107150483D01*
X159265408Y-107203205D01*
X159265406Y-107203205D01*
X159265410Y-107203206D01*
X159265412Y-107203207D01*
X159367273Y-107230500D01*
X159472727Y-107230500D01*
X159706099Y-107230500D01*
X159764290Y-107249407D01*
X159800254Y-107298907D01*
X159800254Y-107360093D01*
X159785103Y-107389161D01*
X159707635Y-107491743D01*
X159707630Y-107491752D01*
X159612596Y-107682608D01*
X159554244Y-107887688D01*
X159554244Y-107887690D01*
X159534571Y-108100000D01*
X159554244Y-108312310D01*
X159612595Y-108517389D01*
X159707634Y-108708255D01*
X159836128Y-108878407D01*
X159836135Y-108878413D01*
X159993692Y-109022047D01*
X159993699Y-109022053D01*
X160038057Y-109049518D01*
X160174981Y-109134298D01*
X160373802Y-109211321D01*
X160583390Y-109250500D01*
X160796610Y-109250500D01*
X161006198Y-109211321D01*
X161205019Y-109134298D01*
X161386302Y-109022052D01*
X161543872Y-108878407D01*
X161672366Y-108708255D01*
X161767405Y-108517389D01*
X161825756Y-108312310D01*
X161845429Y-108100000D01*
X163394785Y-108100000D01*
X163413603Y-108303083D01*
X163469418Y-108499250D01*
X163560327Y-108681821D01*
X163683236Y-108844579D01*
X163833959Y-108981981D01*
X164007363Y-109089348D01*
X164197544Y-109163024D01*
X164398024Y-109200500D01*
X164601976Y-109200500D01*
X164802456Y-109163024D01*
X164992637Y-109089348D01*
X165166041Y-108981981D01*
X165316764Y-108844579D01*
X165439673Y-108681821D01*
X165530582Y-108499250D01*
X165586397Y-108303083D01*
X165605215Y-108100000D01*
X165586397Y-107896917D01*
X165530582Y-107700750D01*
X165439673Y-107518179D01*
X165316764Y-107355421D01*
X165166041Y-107218019D01*
X164992637Y-107110652D01*
X164802456Y-107036976D01*
X164802455Y-107036975D01*
X164802453Y-107036975D01*
X164601976Y-106999500D01*
X164398024Y-106999500D01*
X164197546Y-107036975D01*
X164127632Y-107064059D01*
X164007363Y-107110652D01*
X163857881Y-107203207D01*
X163833959Y-107218019D01*
X163683237Y-107355420D01*
X163560328Y-107518177D01*
X163560323Y-107518186D01*
X163478450Y-107682611D01*
X163469418Y-107700750D01*
X163413603Y-107896917D01*
X163394785Y-108100000D01*
X161845429Y-108100000D01*
X161825756Y-107887690D01*
X161767405Y-107682611D01*
X161672366Y-107491745D01*
X161543872Y-107321593D01*
X161539485Y-107317593D01*
X161509220Y-107264422D01*
X161515989Y-107203612D01*
X161556681Y-107158696D01*
X161570913Y-107150480D01*
X162731897Y-105989496D01*
X162786414Y-105961719D01*
X162801901Y-105960500D01*
X163408742Y-105960500D01*
X163466933Y-105979407D01*
X163497362Y-106015371D01*
X163560327Y-106141821D01*
X163683236Y-106304579D01*
X163833959Y-106441981D01*
X164007363Y-106549348D01*
X164197544Y-106623024D01*
X164398024Y-106660500D01*
X164601976Y-106660500D01*
X164802456Y-106623024D01*
X164992637Y-106549348D01*
X165166041Y-106441981D01*
X165316764Y-106304579D01*
X165439673Y-106141821D01*
X165530582Y-105959250D01*
X165586397Y-105763083D01*
X165605215Y-105560000D01*
X165586397Y-105356917D01*
X165530582Y-105160750D01*
X165439673Y-104978179D01*
X165316764Y-104815421D01*
X165166041Y-104678019D01*
X164992637Y-104570652D01*
X164802456Y-104496976D01*
X164802455Y-104496975D01*
X164802453Y-104496975D01*
X164601976Y-104459500D01*
X164398024Y-104459500D01*
X164197546Y-104496975D01*
X164127632Y-104524059D01*
X164007363Y-104570652D01*
X163898676Y-104637948D01*
X163833959Y-104678019D01*
X163683237Y-104815420D01*
X163560328Y-104978177D01*
X163560323Y-104978186D01*
X163497363Y-105104628D01*
X163454500Y-105148291D01*
X163408742Y-105159500D01*
X162647727Y-105159500D01*
X162542273Y-105159500D01*
X162479929Y-105176204D01*
X162440407Y-105186794D01*
X162349091Y-105239516D01*
X162349086Y-105239520D01*
X162010085Y-105578520D01*
X161955569Y-105606297D01*
X161895137Y-105596726D01*
X161851872Y-105553461D01*
X161841505Y-105517653D01*
X161825756Y-105347690D01*
X161767405Y-105142611D01*
X161672366Y-104951745D01*
X161543872Y-104781593D01*
X161489623Y-104732139D01*
X161386307Y-104637952D01*
X161386300Y-104637946D01*
X161205024Y-104525705D01*
X161205019Y-104525702D01*
X161006195Y-104448678D01*
X160796610Y-104409500D01*
X160583390Y-104409500D01*
X160373804Y-104448678D01*
X160174980Y-104525702D01*
X160174975Y-104525705D01*
X159993699Y-104637946D01*
X159993692Y-104637952D01*
X159836135Y-104781586D01*
X159836131Y-104781589D01*
X159836128Y-104781593D01*
X159836125Y-104781597D01*
X159707635Y-104951743D01*
X159707630Y-104951752D01*
X159612596Y-105142608D01*
X159554244Y-105347688D01*
X159554244Y-105347689D01*
X159554244Y-105347690D01*
X159534571Y-105560000D01*
X159554244Y-105772310D01*
X159608136Y-105961719D01*
X159612596Y-105977391D01*
X159707630Y-106168247D01*
X159707635Y-106168256D01*
X159785103Y-106270839D01*
X159805082Y-106328670D01*
X159787253Y-106387201D01*
X159738427Y-106424073D01*
X159706099Y-106429500D01*
X159626901Y-106429500D01*
X159568710Y-106410593D01*
X159556897Y-106400504D01*
X154166650Y-101010257D01*
X154138873Y-100955740D01*
X154147111Y-100902182D01*
X154145752Y-100901656D01*
X154147400Y-100897398D01*
X154147405Y-100897389D01*
X154205756Y-100692310D01*
X154225429Y-100480000D01*
X159534571Y-100480000D01*
X159554244Y-100692310D01*
X159612595Y-100897389D01*
X159707634Y-101088255D01*
X159836128Y-101258407D01*
X159836135Y-101258413D01*
X159993692Y-101402047D01*
X159993699Y-101402053D01*
X160038060Y-101429520D01*
X160174981Y-101514298D01*
X160373802Y-101591321D01*
X160583390Y-101630500D01*
X160796610Y-101630500D01*
X161006198Y-101591321D01*
X161205019Y-101514298D01*
X161386302Y-101402052D01*
X161543872Y-101258407D01*
X161672366Y-101088255D01*
X161767405Y-100897389D01*
X161825756Y-100692310D01*
X161845429Y-100480000D01*
X161825756Y-100267690D01*
X161767405Y-100062611D01*
X161672366Y-99871745D01*
X161543872Y-99701593D01*
X161445286Y-99611719D01*
X161386307Y-99557952D01*
X161386300Y-99557946D01*
X161205024Y-99445705D01*
X161205019Y-99445702D01*
X161153078Y-99425580D01*
X161006198Y-99368679D01*
X161006197Y-99368678D01*
X161006195Y-99368678D01*
X160796610Y-99329500D01*
X160583390Y-99329500D01*
X160373804Y-99368678D01*
X160174980Y-99445702D01*
X160174975Y-99445705D01*
X159993699Y-99557946D01*
X159993692Y-99557952D01*
X159836135Y-99701586D01*
X159836131Y-99701589D01*
X159836128Y-99701593D01*
X159836125Y-99701597D01*
X159707635Y-99871743D01*
X159707630Y-99871752D01*
X159612596Y-100062608D01*
X159554244Y-100267688D01*
X159554244Y-100267690D01*
X159534571Y-100480000D01*
X154225429Y-100480000D01*
X154205756Y-100267690D01*
X154147405Y-100062611D01*
X154052366Y-99871745D01*
X153974896Y-99769159D01*
X153954918Y-99711330D01*
X153972747Y-99652799D01*
X154021573Y-99615927D01*
X154053901Y-99610500D01*
X159472725Y-99610500D01*
X159472727Y-99610500D01*
X159574588Y-99583207D01*
X159574590Y-99583205D01*
X159574592Y-99583205D01*
X159665908Y-99530483D01*
X159665908Y-99530482D01*
X159665913Y-99530480D01*
X160163326Y-99033065D01*
X160217841Y-99005290D01*
X160269090Y-99010756D01*
X160373802Y-99051321D01*
X160583390Y-99090500D01*
X160796610Y-99090500D01*
X161006198Y-99051321D01*
X161205019Y-98974298D01*
X161386302Y-98862052D01*
X161543872Y-98718407D01*
X161672366Y-98548255D01*
X161767405Y-98357389D01*
X161825756Y-98152310D01*
X161841505Y-97982346D01*
X161865700Y-97926151D01*
X161918307Y-97894907D01*
X161979231Y-97900553D01*
X162010085Y-97921479D01*
X162349086Y-98260479D01*
X162349091Y-98260483D01*
X162440408Y-98313205D01*
X162440406Y-98313205D01*
X162440410Y-98313206D01*
X162440412Y-98313207D01*
X162542273Y-98340500D01*
X162647727Y-98340500D01*
X163408742Y-98340500D01*
X163466933Y-98359407D01*
X163497362Y-98395371D01*
X163560327Y-98521821D01*
X163683236Y-98684579D01*
X163833959Y-98821981D01*
X164007363Y-98929348D01*
X164197544Y-99003024D01*
X164398024Y-99040500D01*
X164601976Y-99040500D01*
X164802456Y-99003024D01*
X164992637Y-98929348D01*
X165166041Y-98821981D01*
X165316764Y-98684579D01*
X165439673Y-98521821D01*
X165530582Y-98339250D01*
X165586397Y-98143083D01*
X165605215Y-97940000D01*
X165586397Y-97736917D01*
X165530582Y-97540750D01*
X165439673Y-97358179D01*
X165316764Y-97195421D01*
X165166041Y-97058019D01*
X164992637Y-96950652D01*
X164802456Y-96876976D01*
X164802455Y-96876975D01*
X164802453Y-96876975D01*
X164601976Y-96839500D01*
X164398024Y-96839500D01*
X164197546Y-96876975D01*
X164127632Y-96904059D01*
X164007363Y-96950652D01*
X163857881Y-97043207D01*
X163833959Y-97058019D01*
X163683237Y-97195420D01*
X163560328Y-97358177D01*
X163560323Y-97358186D01*
X163497363Y-97484628D01*
X163454500Y-97528291D01*
X163408742Y-97539500D01*
X162801901Y-97539500D01*
X162743710Y-97520593D01*
X162731897Y-97510504D01*
X162172045Y-96950652D01*
X161570913Y-96349520D01*
X161570910Y-96349518D01*
X161556680Y-96341302D01*
X161515739Y-96295831D01*
X161509345Y-96234981D01*
X161539489Y-96182401D01*
X161543872Y-96178407D01*
X161672366Y-96008255D01*
X161748492Y-95855372D01*
X161791354Y-95811710D01*
X161837113Y-95800500D01*
X162774725Y-95800500D01*
X162774727Y-95800500D01*
X162876588Y-95773207D01*
X162876590Y-95773205D01*
X162876592Y-95773205D01*
X162967908Y-95720483D01*
X162967908Y-95720482D01*
X162967913Y-95720480D01*
X163236639Y-95451752D01*
X163291156Y-95423975D01*
X163351588Y-95433546D01*
X163394853Y-95476811D01*
X163405220Y-95512619D01*
X163413603Y-95603083D01*
X163469418Y-95799250D01*
X163560327Y-95981821D01*
X163683236Y-96144579D01*
X163833959Y-96281981D01*
X164007363Y-96389348D01*
X164197544Y-96463024D01*
X164398024Y-96500500D01*
X164601976Y-96500500D01*
X164802456Y-96463024D01*
X164992637Y-96389348D01*
X165166041Y-96281981D01*
X165316764Y-96144579D01*
X165439673Y-95981821D01*
X165530582Y-95799250D01*
X165586397Y-95603083D01*
X165605215Y-95400000D01*
X165586397Y-95196917D01*
X165530582Y-95000750D01*
X165439673Y-94818179D01*
X165316764Y-94655421D01*
X165253297Y-94597564D01*
X165223033Y-94544390D01*
X165229804Y-94483581D01*
X165249991Y-94454400D01*
X165253908Y-94450482D01*
X165253913Y-94450480D01*
X166108498Y-93595894D01*
X166163013Y-93568119D01*
X166223445Y-93577690D01*
X166266710Y-93620955D01*
X166277500Y-93665900D01*
X166277500Y-100127098D01*
X166258593Y-100185289D01*
X166248503Y-100197102D01*
X165762288Y-100683316D01*
X165707772Y-100711093D01*
X165647340Y-100701522D01*
X165604075Y-100658257D01*
X165593708Y-100604182D01*
X165605215Y-100480000D01*
X165586397Y-100276917D01*
X165530582Y-100080750D01*
X165439673Y-99898179D01*
X165316764Y-99735421D01*
X165166041Y-99598019D01*
X164992637Y-99490652D01*
X164802456Y-99416976D01*
X164802455Y-99416975D01*
X164802453Y-99416975D01*
X164601976Y-99379500D01*
X164398024Y-99379500D01*
X164197546Y-99416975D01*
X164197541Y-99416977D01*
X164007363Y-99490652D01*
X163857881Y-99583207D01*
X163833959Y-99598019D01*
X163683237Y-99735420D01*
X163560328Y-99898177D01*
X163560323Y-99898186D01*
X163478450Y-100062611D01*
X163469418Y-100080750D01*
X163413603Y-100276917D01*
X163394785Y-100480000D01*
X163413603Y-100683083D01*
X163469418Y-100879250D01*
X163560327Y-101061821D01*
X163683236Y-101224579D01*
X163746701Y-101282435D01*
X163776966Y-101335608D01*
X163770195Y-101396418D01*
X163750008Y-101425599D01*
X162585103Y-102590504D01*
X162530586Y-102618281D01*
X162515099Y-102619500D01*
X161837113Y-102619500D01*
X161778922Y-102600593D01*
X161748492Y-102564628D01*
X161672369Y-102411752D01*
X161672366Y-102411745D01*
X161543872Y-102241593D01*
X161467494Y-102171965D01*
X161386307Y-102097952D01*
X161386300Y-102097946D01*
X161205024Y-101985705D01*
X161205019Y-101985702D01*
X161006195Y-101908678D01*
X160796610Y-101869500D01*
X160583390Y-101869500D01*
X160373804Y-101908678D01*
X160174980Y-101985702D01*
X160174975Y-101985705D01*
X159993699Y-102097946D01*
X159993692Y-102097952D01*
X159836135Y-102241586D01*
X159836131Y-102241589D01*
X159836128Y-102241593D01*
X159836125Y-102241597D01*
X159707635Y-102411743D01*
X159707630Y-102411752D01*
X159612596Y-102602608D01*
X159612595Y-102602611D01*
X159607790Y-102619500D01*
X159554244Y-102807688D01*
X159534571Y-103020000D01*
X159539366Y-103071753D01*
X159554244Y-103232310D01*
X159612595Y-103437389D01*
X159707634Y-103628255D01*
X159836128Y-103798407D01*
X159836135Y-103798413D01*
X159993692Y-103942047D01*
X159993699Y-103942053D01*
X160074525Y-103992098D01*
X160174981Y-104054298D01*
X160373802Y-104131321D01*
X160583390Y-104170500D01*
X160796610Y-104170500D01*
X161006198Y-104131321D01*
X161205019Y-104054298D01*
X161386302Y-103942052D01*
X161543872Y-103798407D01*
X161672366Y-103628255D01*
X161748492Y-103475372D01*
X161791354Y-103431710D01*
X161837113Y-103420500D01*
X162774725Y-103420500D01*
X162774727Y-103420500D01*
X162876588Y-103393207D01*
X162876590Y-103393205D01*
X162876592Y-103393205D01*
X162967908Y-103340483D01*
X162967908Y-103340482D01*
X162967913Y-103340480D01*
X163236639Y-103071752D01*
X163291156Y-103043975D01*
X163351588Y-103053546D01*
X163394853Y-103096811D01*
X163405220Y-103132619D01*
X163413603Y-103223083D01*
X163469418Y-103419250D01*
X163560327Y-103601821D01*
X163683236Y-103764579D01*
X163833959Y-103901981D01*
X164007363Y-104009348D01*
X164197544Y-104083024D01*
X164398024Y-104120500D01*
X164601976Y-104120500D01*
X164802456Y-104083024D01*
X164992637Y-104009348D01*
X165166041Y-103901981D01*
X165316764Y-103764579D01*
X165439673Y-103601821D01*
X165530582Y-103419250D01*
X165586397Y-103223083D01*
X165605215Y-103020000D01*
X165586397Y-102816917D01*
X165530582Y-102620750D01*
X165439673Y-102438179D01*
X165326508Y-102288324D01*
X165306530Y-102230496D01*
X165324359Y-102171965D01*
X165373186Y-102135093D01*
X165379872Y-102133044D01*
X165416588Y-102123207D01*
X165507913Y-102070480D01*
X166998480Y-100579913D01*
X167010645Y-100558842D01*
X167051207Y-100488587D01*
X167078500Y-100386727D01*
X167078500Y-67045273D01*
X167078289Y-67044487D01*
X167069984Y-67013491D01*
X167069974Y-67013456D01*
X167051207Y-66943412D01*
X167051205Y-66943409D01*
X167051205Y-66943407D01*
X166998483Y-66852091D01*
X166998482Y-66852090D01*
X166998481Y-66852089D01*
X166998480Y-66852087D01*
X165557336Y-65410943D01*
X165529559Y-65356426D01*
X165532118Y-65313848D01*
X165586397Y-65123083D01*
X165605215Y-64920000D01*
X165586397Y-64716917D01*
X165530582Y-64520750D01*
X165439673Y-64338179D01*
X165316764Y-64175421D01*
X165166041Y-64038019D01*
X164992637Y-63930652D01*
X164802456Y-63856976D01*
X164802455Y-63856975D01*
X164802453Y-63856975D01*
X164601976Y-63819500D01*
X164398024Y-63819500D01*
X164197546Y-63856975D01*
X164127632Y-63884059D01*
X164007363Y-63930652D01*
X163898676Y-63997948D01*
X163833959Y-64038019D01*
X163683237Y-64175420D01*
X163560328Y-64338177D01*
X163560323Y-64338186D01*
X163478450Y-64502611D01*
X163469418Y-64520750D01*
X163413603Y-64716917D01*
X163394785Y-64920000D01*
X163413603Y-65123083D01*
X163469418Y-65319250D01*
X163560327Y-65501821D01*
X163683236Y-65664579D01*
X163833959Y-65801981D01*
X164007363Y-65909348D01*
X164197544Y-65983024D01*
X164398024Y-66020500D01*
X164601976Y-66020500D01*
X164802456Y-65983024D01*
X164882259Y-65952107D01*
X164943351Y-65948718D01*
X164988026Y-65974419D01*
X166248504Y-67234897D01*
X166276281Y-67289414D01*
X166277500Y-67304901D01*
X166277500Y-73512099D01*
X166258593Y-73570290D01*
X166209093Y-73606254D01*
X166147907Y-73606254D01*
X166108496Y-73582103D01*
X165557336Y-73030943D01*
X165529559Y-72976426D01*
X165532118Y-72933848D01*
X165586397Y-72743083D01*
X165605215Y-72540000D01*
X165586397Y-72336917D01*
X165530582Y-72140750D01*
X165439673Y-71958179D01*
X165316764Y-71795421D01*
X165166041Y-71658019D01*
X164992637Y-71550652D01*
X164802456Y-71476976D01*
X164802455Y-71476975D01*
X164802453Y-71476975D01*
X164601976Y-71439500D01*
X164398024Y-71439500D01*
X164197546Y-71476975D01*
X164127632Y-71504059D01*
X164007363Y-71550652D01*
X163898676Y-71617948D01*
X163833959Y-71658019D01*
X163683234Y-71795423D01*
X163638903Y-71854127D01*
X163588747Y-71889170D01*
X163527572Y-71888039D01*
X163478745Y-71851166D01*
X163460900Y-71794466D01*
X163460900Y-70745533D01*
X163479807Y-70687342D01*
X163529307Y-70651378D01*
X163590493Y-70651378D01*
X163638900Y-70685869D01*
X163683236Y-70744579D01*
X163833959Y-70881981D01*
X164007363Y-70989348D01*
X164197544Y-71063024D01*
X164398024Y-71100500D01*
X164601976Y-71100500D01*
X164802456Y-71063024D01*
X164992637Y-70989348D01*
X165166041Y-70881981D01*
X165316764Y-70744579D01*
X165439673Y-70581821D01*
X165530582Y-70399250D01*
X165586397Y-70203083D01*
X165605215Y-70000000D01*
X165586397Y-69796917D01*
X165530582Y-69600750D01*
X165439673Y-69418179D01*
X165316764Y-69255421D01*
X165166041Y-69118019D01*
X164992637Y-69010652D01*
X164802456Y-68936976D01*
X164802455Y-68936975D01*
X164802453Y-68936975D01*
X164601976Y-68899500D01*
X164398024Y-68899500D01*
X164197546Y-68936975D01*
X164127632Y-68964059D01*
X164007363Y-69010652D01*
X163898676Y-69077948D01*
X163833959Y-69118019D01*
X163683234Y-69255423D01*
X163638903Y-69314127D01*
X163588747Y-69349170D01*
X163527572Y-69348039D01*
X163478745Y-69311166D01*
X163460900Y-69254466D01*
X163460900Y-68205533D01*
X163479807Y-68147342D01*
X163529307Y-68111378D01*
X163590493Y-68111378D01*
X163638900Y-68145869D01*
X163683236Y-68204579D01*
X163833959Y-68341981D01*
X164007363Y-68449348D01*
X164197544Y-68523024D01*
X164398024Y-68560500D01*
X164601976Y-68560500D01*
X164802456Y-68523024D01*
X164992637Y-68449348D01*
X165166041Y-68341981D01*
X165316764Y-68204579D01*
X165439673Y-68041821D01*
X165530582Y-67859250D01*
X165586397Y-67663083D01*
X165605215Y-67460000D01*
X165586397Y-67256917D01*
X165530582Y-67060750D01*
X165439673Y-66878179D01*
X165316764Y-66715421D01*
X165166041Y-66578019D01*
X164992637Y-66470652D01*
X164802456Y-66396976D01*
X164802455Y-66396975D01*
X164802453Y-66396975D01*
X164601976Y-66359500D01*
X164398024Y-66359500D01*
X164197546Y-66396975D01*
X164127632Y-66424059D01*
X164007363Y-66470652D01*
X163898676Y-66537948D01*
X163833959Y-66578019D01*
X163683237Y-66715420D01*
X163560328Y-66878177D01*
X163560323Y-66878186D01*
X163506723Y-66985830D01*
X163463860Y-67029493D01*
X163403519Y-67039622D01*
X163348748Y-67012349D01*
X163348190Y-67011797D01*
X161786650Y-65450257D01*
X161758873Y-65395740D01*
X161767111Y-65342182D01*
X161765752Y-65341656D01*
X161767400Y-65337398D01*
X161767405Y-65337389D01*
X161825756Y-65132310D01*
X161845429Y-64920000D01*
X161825756Y-64707690D01*
X161767405Y-64502611D01*
X161672366Y-64311745D01*
X161543872Y-64141593D01*
X161489623Y-64092139D01*
X161386307Y-63997952D01*
X161386300Y-63997946D01*
X161249383Y-63913171D01*
X161209862Y-63866463D01*
X161205343Y-63805444D01*
X161237553Y-63753424D01*
X161294189Y-63730270D01*
X161301500Y-63730000D01*
X161587824Y-63730000D01*
X161647370Y-63723598D01*
X161647381Y-63723596D01*
X161782088Y-63673353D01*
X161782090Y-63673352D01*
X161897184Y-63587192D01*
X161897192Y-63587184D01*
X161983352Y-63472090D01*
X161983353Y-63472088D01*
X162033596Y-63337381D01*
X162033598Y-63337370D01*
X162040000Y-63277824D01*
X162040000Y-62630001D01*
X162039999Y-62630000D01*
X161123012Y-62630000D01*
X161155925Y-62572993D01*
X161190000Y-62445826D01*
X161190000Y-62380000D01*
X163394785Y-62380000D01*
X163413603Y-62583083D01*
X163469418Y-62779250D01*
X163560327Y-62961821D01*
X163683236Y-63124579D01*
X163833959Y-63261981D01*
X164007363Y-63369348D01*
X164197544Y-63443024D01*
X164398024Y-63480500D01*
X164601976Y-63480500D01*
X164802456Y-63443024D01*
X164992637Y-63369348D01*
X165166041Y-63261981D01*
X165316764Y-63124579D01*
X165439673Y-62961821D01*
X165530582Y-62779250D01*
X165586397Y-62583083D01*
X165605215Y-62380000D01*
X165586397Y-62176917D01*
X165530582Y-61980750D01*
X165439673Y-61798179D01*
X165316764Y-61635421D01*
X165166041Y-61498019D01*
X164992637Y-61390652D01*
X164802456Y-61316976D01*
X164802455Y-61316975D01*
X164802453Y-61316975D01*
X164601976Y-61279500D01*
X164398024Y-61279500D01*
X164197546Y-61316975D01*
X164143509Y-61337909D01*
X164007363Y-61390652D01*
X163859548Y-61482175D01*
X163833959Y-61498019D01*
X163683237Y-61635420D01*
X163560328Y-61798177D01*
X163560323Y-61798186D01*
X163469791Y-61980000D01*
X163469418Y-61980750D01*
X163413603Y-62176917D01*
X163394785Y-62380000D01*
X161190000Y-62380000D01*
X161190000Y-62314174D01*
X161155925Y-62187007D01*
X161123012Y-62130000D01*
X162039999Y-62130000D01*
X162040000Y-62129999D01*
X162040000Y-61482175D01*
X162033598Y-61422629D01*
X162033596Y-61422618D01*
X161983353Y-61287911D01*
X161983352Y-61287909D01*
X161897192Y-61172815D01*
X161897184Y-61172807D01*
X161782090Y-61086647D01*
X161782088Y-61086646D01*
X161647381Y-61036403D01*
X161647370Y-61036401D01*
X161587824Y-61030000D01*
X160940001Y-61030000D01*
X160940000Y-61030001D01*
X160940000Y-61946988D01*
X160882993Y-61914075D01*
X160755826Y-61880000D01*
X160624174Y-61880000D01*
X160497007Y-61914075D01*
X160440000Y-61946988D01*
X160440000Y-61030001D01*
X160439999Y-61030000D01*
X159792176Y-61030000D01*
X159732629Y-61036401D01*
X159732618Y-61036403D01*
X159597911Y-61086646D01*
X159597909Y-61086647D01*
X159482815Y-61172807D01*
X159482807Y-61172815D01*
X159396647Y-61287909D01*
X159396646Y-61287911D01*
X159346403Y-61422618D01*
X159346401Y-61422629D01*
X159340000Y-61482175D01*
X159340000Y-62129999D01*
X159340001Y-62130000D01*
X160256988Y-62130000D01*
X160224075Y-62187007D01*
X160190000Y-62314174D01*
X160190000Y-62445826D01*
X160224075Y-62572993D01*
X160256988Y-62630000D01*
X159340001Y-62630000D01*
X159340000Y-62630001D01*
X159340000Y-63277824D01*
X159339999Y-63277824D01*
X159346401Y-63337370D01*
X159346403Y-63337381D01*
X159396646Y-63472088D01*
X159396647Y-63472090D01*
X159482807Y-63587184D01*
X159482815Y-63587192D01*
X159597909Y-63673352D01*
X159597911Y-63673353D01*
X159732618Y-63723596D01*
X159732629Y-63723598D01*
X159792176Y-63730000D01*
X160078500Y-63730000D01*
X160136691Y-63748907D01*
X160172655Y-63798407D01*
X160172655Y-63859593D01*
X160136691Y-63909093D01*
X160130617Y-63913171D01*
X159993699Y-63997946D01*
X159993692Y-63997952D01*
X159836135Y-64141586D01*
X159836131Y-64141589D01*
X159836128Y-64141593D01*
X159836125Y-64141597D01*
X159707635Y-64311743D01*
X159707630Y-64311752D01*
X159612596Y-64502608D01*
X159554244Y-64707688D01*
X159554244Y-64707690D01*
X159534571Y-64920000D01*
X159554244Y-65132310D01*
X159612595Y-65337389D01*
X159707634Y-65528255D01*
X159836128Y-65698407D01*
X159836135Y-65698413D01*
X159993692Y-65842047D01*
X159993699Y-65842053D01*
X160097389Y-65906255D01*
X160174981Y-65954298D01*
X160373802Y-66031321D01*
X160583390Y-66070500D01*
X160796610Y-66070500D01*
X161006198Y-66031321D01*
X161110908Y-65990755D01*
X161171998Y-65987366D01*
X161216674Y-66013067D01*
X162630904Y-67427297D01*
X162658681Y-67481814D01*
X162659900Y-67497301D01*
X162659900Y-68624499D01*
X162640993Y-68682690D01*
X162591493Y-68718654D01*
X162530307Y-68718654D01*
X162490896Y-68694503D01*
X161786650Y-67990257D01*
X161758873Y-67935740D01*
X161767111Y-67882182D01*
X161765752Y-67881656D01*
X161767400Y-67877398D01*
X161767405Y-67877389D01*
X161825756Y-67672310D01*
X161845429Y-67460000D01*
X161825756Y-67247690D01*
X161767405Y-67042611D01*
X161672366Y-66851745D01*
X161543872Y-66681593D01*
X161489623Y-66632139D01*
X161386307Y-66537952D01*
X161386300Y-66537946D01*
X161205024Y-66425705D01*
X161205019Y-66425702D01*
X161006195Y-66348678D01*
X160796610Y-66309500D01*
X160583390Y-66309500D01*
X160373804Y-66348678D01*
X160174980Y-66425702D01*
X160174975Y-66425705D01*
X159993699Y-66537946D01*
X159993692Y-66537952D01*
X159836135Y-66681586D01*
X159836131Y-66681589D01*
X159836128Y-66681593D01*
X159836125Y-66681597D01*
X159707635Y-66851743D01*
X159707630Y-66851752D01*
X159612596Y-67042608D01*
X159554244Y-67247688D01*
X159550378Y-67289414D01*
X159534571Y-67460000D01*
X159554244Y-67672310D01*
X159612595Y-67877389D01*
X159707634Y-68068255D01*
X159836128Y-68238407D01*
X159836135Y-68238413D01*
X159993692Y-68382047D01*
X159993699Y-68382053D01*
X160097389Y-68446255D01*
X160174981Y-68494298D01*
X160373802Y-68571321D01*
X160583390Y-68610500D01*
X160796610Y-68610500D01*
X161006198Y-68571321D01*
X161110908Y-68530755D01*
X161171998Y-68527366D01*
X161216674Y-68553067D01*
X162200804Y-69537196D01*
X162228581Y-69591713D01*
X162229800Y-69607200D01*
X162229800Y-70734399D01*
X162210893Y-70792590D01*
X162161393Y-70828554D01*
X162100207Y-70828554D01*
X162060796Y-70804403D01*
X161786650Y-70530257D01*
X161758873Y-70475740D01*
X161767111Y-70422182D01*
X161765752Y-70421656D01*
X161767400Y-70417398D01*
X161767405Y-70417389D01*
X161825756Y-70212310D01*
X161845429Y-70000000D01*
X161825756Y-69787690D01*
X161767405Y-69582611D01*
X161672366Y-69391745D01*
X161543872Y-69221593D01*
X161489623Y-69172139D01*
X161386307Y-69077952D01*
X161386300Y-69077946D01*
X161205024Y-68965705D01*
X161205019Y-68965702D01*
X161006195Y-68888678D01*
X160796610Y-68849500D01*
X160583390Y-68849500D01*
X160373804Y-68888678D01*
X160174980Y-68965702D01*
X160174975Y-68965705D01*
X159993699Y-69077946D01*
X159993692Y-69077952D01*
X159836135Y-69221586D01*
X159836131Y-69221589D01*
X159836128Y-69221593D01*
X159836125Y-69221597D01*
X159707635Y-69391743D01*
X159707630Y-69391752D01*
X159612596Y-69582608D01*
X159554244Y-69787688D01*
X159554244Y-69787690D01*
X159534571Y-70000000D01*
X159554244Y-70212310D01*
X159612595Y-70417389D01*
X159707634Y-70608255D01*
X159836128Y-70778407D01*
X159836135Y-70778413D01*
X159993692Y-70922047D01*
X159993699Y-70922053D01*
X160076639Y-70973407D01*
X160174981Y-71034298D01*
X160373802Y-71111321D01*
X160583390Y-71150500D01*
X160796610Y-71150500D01*
X161006198Y-71111321D01*
X161110908Y-71070755D01*
X161171998Y-71067366D01*
X161216674Y-71093067D01*
X161784504Y-71660897D01*
X161812281Y-71715414D01*
X161813500Y-71730901D01*
X161813500Y-71823261D01*
X161794593Y-71881452D01*
X161745093Y-71917416D01*
X161683907Y-71917416D01*
X161635497Y-71882922D01*
X161543880Y-71761603D01*
X161543877Y-71761600D01*
X161543872Y-71761593D01*
X161489623Y-71712139D01*
X161386307Y-71617952D01*
X161386300Y-71617946D01*
X161205024Y-71505705D01*
X161205019Y-71505702D01*
X161006195Y-71428678D01*
X160796610Y-71389500D01*
X160583390Y-71389500D01*
X160373804Y-71428678D01*
X160174980Y-71505702D01*
X160174975Y-71505705D01*
X159993699Y-71617946D01*
X159993692Y-71617952D01*
X159836135Y-71761586D01*
X159836131Y-71761589D01*
X159836128Y-71761593D01*
X159836125Y-71761597D01*
X159707635Y-71931743D01*
X159707630Y-71931752D01*
X159612596Y-72122608D01*
X159554244Y-72327688D01*
X159554244Y-72327690D01*
X159534571Y-72540000D01*
X159554244Y-72752310D01*
X159612595Y-72957389D01*
X159707634Y-73148255D01*
X159836128Y-73318407D01*
X159836135Y-73318413D01*
X159993692Y-73462047D01*
X159993699Y-73462053D01*
X160013813Y-73474507D01*
X160174981Y-73574298D01*
X160373802Y-73651321D01*
X160583390Y-73690500D01*
X160796610Y-73690500D01*
X161006198Y-73651321D01*
X161205019Y-73574298D01*
X161386302Y-73462052D01*
X161543872Y-73318407D01*
X161635498Y-73197075D01*
X161685653Y-73162034D01*
X161746827Y-73163165D01*
X161795654Y-73200037D01*
X161813500Y-73256738D01*
X161813500Y-74363261D01*
X161794593Y-74421452D01*
X161745093Y-74457416D01*
X161683907Y-74457416D01*
X161635497Y-74422922D01*
X161543880Y-74301603D01*
X161543877Y-74301600D01*
X161543872Y-74301593D01*
X161489623Y-74252139D01*
X161386307Y-74157952D01*
X161386300Y-74157946D01*
X161205024Y-74045705D01*
X161205019Y-74045702D01*
X161006195Y-73968678D01*
X160796610Y-73929500D01*
X160583390Y-73929500D01*
X160373804Y-73968678D01*
X160174980Y-74045702D01*
X160174975Y-74045705D01*
X159993699Y-74157946D01*
X159993692Y-74157952D01*
X159836135Y-74301586D01*
X159836131Y-74301589D01*
X159836128Y-74301593D01*
X159836125Y-74301597D01*
X159707635Y-74471743D01*
X159707630Y-74471752D01*
X159612596Y-74662608D01*
X159554244Y-74867688D01*
X159554244Y-74867690D01*
X159534571Y-75080000D01*
X159554244Y-75292310D01*
X159612595Y-75497389D01*
X159707634Y-75688255D01*
X159836128Y-75858407D01*
X159836135Y-75858413D01*
X159993692Y-76002047D01*
X159993699Y-76002053D01*
X160097389Y-76066255D01*
X160174981Y-76114298D01*
X160373802Y-76191321D01*
X160583390Y-76230500D01*
X160796610Y-76230500D01*
X161006198Y-76191321D01*
X161205019Y-76114298D01*
X161386302Y-76002052D01*
X161543872Y-75858407D01*
X161635498Y-75737075D01*
X161685653Y-75702034D01*
X161746827Y-75703165D01*
X161795654Y-75740037D01*
X161813500Y-75796738D01*
X161813500Y-76903261D01*
X161794593Y-76961452D01*
X161745093Y-76997416D01*
X161683907Y-76997416D01*
X161635497Y-76962922D01*
X161543880Y-76841603D01*
X161543877Y-76841600D01*
X161543872Y-76841593D01*
X161489623Y-76792139D01*
X161386307Y-76697952D01*
X161386300Y-76697946D01*
X161205024Y-76585705D01*
X161205019Y-76585702D01*
X161006195Y-76508678D01*
X160796610Y-76469500D01*
X160583390Y-76469500D01*
X160373804Y-76508678D01*
X160174980Y-76585702D01*
X160174975Y-76585705D01*
X159993699Y-76697946D01*
X159993692Y-76697952D01*
X159836135Y-76841586D01*
X159836131Y-76841589D01*
X159836128Y-76841593D01*
X159836125Y-76841597D01*
X159707635Y-77011743D01*
X159707630Y-77011752D01*
X159612596Y-77202608D01*
X159554244Y-77407688D01*
X159554244Y-77407690D01*
X159534571Y-77620000D01*
X159554244Y-77832310D01*
X159612595Y-78037389D01*
X159707634Y-78228255D01*
X159836128Y-78398407D01*
X159836135Y-78398413D01*
X159993692Y-78542047D01*
X159993699Y-78542053D01*
X160097389Y-78606255D01*
X160174981Y-78654298D01*
X160373802Y-78731321D01*
X160583390Y-78770500D01*
X160796610Y-78770500D01*
X161006198Y-78731321D01*
X161110908Y-78690755D01*
X161171998Y-78687366D01*
X161216674Y-78713067D01*
X162630904Y-80127297D01*
X162658681Y-80181814D01*
X162659900Y-80197301D01*
X162659900Y-81324499D01*
X162640993Y-81382690D01*
X162591493Y-81418654D01*
X162530307Y-81418654D01*
X162490896Y-81394503D01*
X161786650Y-80690257D01*
X161758873Y-80635740D01*
X161767111Y-80582182D01*
X161765752Y-80581656D01*
X161767400Y-80577398D01*
X161767405Y-80577389D01*
X161825756Y-80372310D01*
X161845429Y-80160000D01*
X161825756Y-79947690D01*
X161767405Y-79742611D01*
X161672366Y-79551745D01*
X161543872Y-79381593D01*
X161489623Y-79332139D01*
X161386307Y-79237952D01*
X161386300Y-79237946D01*
X161205024Y-79125705D01*
X161205019Y-79125702D01*
X161006195Y-79048678D01*
X160796610Y-79009500D01*
X160583390Y-79009500D01*
X160373804Y-79048678D01*
X160174980Y-79125702D01*
X160174975Y-79125705D01*
X159993699Y-79237946D01*
X159993692Y-79237952D01*
X159836135Y-79381586D01*
X159836131Y-79381589D01*
X159836128Y-79381593D01*
X159836125Y-79381597D01*
X159707635Y-79551743D01*
X159707630Y-79551752D01*
X159612596Y-79742608D01*
X159554244Y-79947688D01*
X159554244Y-79947690D01*
X159534571Y-80160000D01*
X159554244Y-80372310D01*
X159612595Y-80577389D01*
X159707634Y-80768255D01*
X159836128Y-80938407D01*
X159836135Y-80938413D01*
X159993692Y-81082047D01*
X159993699Y-81082053D01*
X160097389Y-81146255D01*
X160174981Y-81194298D01*
X160373802Y-81271321D01*
X160583390Y-81310500D01*
X160796610Y-81310500D01*
X161006198Y-81271321D01*
X161110908Y-81230755D01*
X161171998Y-81227366D01*
X161216674Y-81253067D01*
X162200804Y-82237196D01*
X162228581Y-82291713D01*
X162229800Y-82307200D01*
X162229800Y-83434399D01*
X162210893Y-83492590D01*
X162161393Y-83528554D01*
X162100207Y-83528554D01*
X162060796Y-83504403D01*
X161786650Y-83230257D01*
X161758873Y-83175740D01*
X161767111Y-83122182D01*
X161765752Y-83121656D01*
X161767400Y-83117398D01*
X161767405Y-83117389D01*
X161825756Y-82912310D01*
X161845429Y-82700000D01*
X161825756Y-82487690D01*
X161767405Y-82282611D01*
X161672366Y-82091745D01*
X161543872Y-81921593D01*
X161489623Y-81872139D01*
X161386307Y-81777952D01*
X161386300Y-81777946D01*
X161205024Y-81665705D01*
X161205019Y-81665702D01*
X161006195Y-81588678D01*
X160796610Y-81549500D01*
X160583390Y-81549500D01*
X160373804Y-81588678D01*
X160174980Y-81665702D01*
X160174975Y-81665705D01*
X159993699Y-81777946D01*
X159993692Y-81777952D01*
X159836135Y-81921586D01*
X159836131Y-81921589D01*
X159836128Y-81921593D01*
X159836125Y-81921597D01*
X159707635Y-82091743D01*
X159707630Y-82091752D01*
X159612596Y-82282608D01*
X159554244Y-82487688D01*
X159554244Y-82487690D01*
X159534571Y-82700000D01*
X159554244Y-82912310D01*
X159612595Y-83117389D01*
X159707634Y-83308255D01*
X159836128Y-83478407D01*
X159836135Y-83478413D01*
X159993692Y-83622047D01*
X159993699Y-83622053D01*
X160038057Y-83649518D01*
X160174981Y-83734298D01*
X160373802Y-83811321D01*
X160583390Y-83850500D01*
X160796610Y-83850500D01*
X161006198Y-83811321D01*
X161110908Y-83770755D01*
X161171998Y-83767366D01*
X161216674Y-83793067D01*
X161784504Y-84360897D01*
X161812281Y-84415414D01*
X161813500Y-84430901D01*
X161813500Y-84523261D01*
X161794593Y-84581452D01*
X161745093Y-84617416D01*
X161683907Y-84617416D01*
X161635497Y-84582922D01*
X161543880Y-84461603D01*
X161543877Y-84461600D01*
X161543872Y-84461593D01*
X161489623Y-84412139D01*
X161386307Y-84317952D01*
X161386300Y-84317946D01*
X161205024Y-84205705D01*
X161205019Y-84205702D01*
X161006195Y-84128678D01*
X160796610Y-84089500D01*
X160583390Y-84089500D01*
X160373804Y-84128678D01*
X160174980Y-84205702D01*
X160174975Y-84205705D01*
X159993699Y-84317946D01*
X159993692Y-84317952D01*
X159836135Y-84461586D01*
X159836131Y-84461589D01*
X159836128Y-84461593D01*
X159836125Y-84461597D01*
X159707635Y-84631743D01*
X159707630Y-84631752D01*
X159612596Y-84822608D01*
X159554244Y-85027688D01*
X159544449Y-85133393D01*
X159534571Y-85240000D01*
X159554244Y-85452310D01*
X159612595Y-85657389D01*
X159707634Y-85848255D01*
X159836128Y-86018407D01*
X159836135Y-86018413D01*
X159993692Y-86162047D01*
X159993699Y-86162053D01*
X160038057Y-86189518D01*
X160174981Y-86274298D01*
X160373802Y-86351321D01*
X160583390Y-86390500D01*
X160796610Y-86390500D01*
X161006198Y-86351321D01*
X161205019Y-86274298D01*
X161386302Y-86162052D01*
X161543872Y-86018407D01*
X161635498Y-85897075D01*
X161685653Y-85862034D01*
X161746827Y-85863165D01*
X161795654Y-85900037D01*
X161813500Y-85956738D01*
X161813500Y-87063261D01*
X161794593Y-87121452D01*
X161745093Y-87157416D01*
X161683907Y-87157416D01*
X161635497Y-87122922D01*
X161543880Y-87001603D01*
X161543877Y-87001600D01*
X161543872Y-87001593D01*
X161445286Y-86911719D01*
X161386307Y-86857952D01*
X161386300Y-86857946D01*
X161205024Y-86745705D01*
X161205019Y-86745702D01*
X161153078Y-86725580D01*
X161006198Y-86668679D01*
X161006197Y-86668678D01*
X161006195Y-86668678D01*
X160796610Y-86629500D01*
X160583390Y-86629500D01*
X160373804Y-86668678D01*
X160174980Y-86745702D01*
X160174975Y-86745705D01*
X159993699Y-86857946D01*
X159993692Y-86857952D01*
X159836135Y-87001586D01*
X159836131Y-87001589D01*
X159836128Y-87001593D01*
X159836125Y-87001597D01*
X159707635Y-87171743D01*
X159707630Y-87171752D01*
X159631508Y-87324628D01*
X159588646Y-87368290D01*
X159542887Y-87379500D01*
X157721900Y-87379500D01*
X157663709Y-87360593D01*
X157651896Y-87350504D01*
X155910704Y-85609312D01*
X153950913Y-83649520D01*
X153950910Y-83649518D01*
X153936680Y-83641302D01*
X153895739Y-83595831D01*
X153889345Y-83534981D01*
X153919489Y-83482401D01*
X153923872Y-83478407D01*
X154052366Y-83308255D01*
X154147405Y-83117389D01*
X154205756Y-82912310D01*
X154225429Y-82700000D01*
X154205756Y-82487690D01*
X154147405Y-82282611D01*
X154052366Y-82091745D01*
X153923872Y-81921593D01*
X153869623Y-81872139D01*
X153766307Y-81777952D01*
X153766300Y-81777946D01*
X153585024Y-81665705D01*
X153585019Y-81665702D01*
X153386195Y-81588678D01*
X153176610Y-81549500D01*
X152963390Y-81549500D01*
X152753804Y-81588678D01*
X152554980Y-81665702D01*
X152554975Y-81665705D01*
X152373699Y-81777946D01*
X152373692Y-81777952D01*
X152216135Y-81921586D01*
X152216131Y-81921589D01*
X152216128Y-81921593D01*
X152216125Y-81921597D01*
X152087635Y-82091743D01*
X152087630Y-82091752D01*
X152011508Y-82244628D01*
X151968646Y-82288290D01*
X151922887Y-82299500D01*
X150351258Y-82299500D01*
X150293067Y-82280593D01*
X150262637Y-82244628D01*
X150199676Y-82118186D01*
X150199673Y-82118179D01*
X150076764Y-81955421D01*
X149926041Y-81818019D01*
X149752637Y-81710652D01*
X149562456Y-81636976D01*
X149562455Y-81636975D01*
X149562453Y-81636975D01*
X149361976Y-81599500D01*
X149158024Y-81599500D01*
X148957546Y-81636975D01*
X148887632Y-81664059D01*
X148767363Y-81710652D01*
X148658676Y-81777948D01*
X148593959Y-81818019D01*
X148444284Y-81954466D01*
X148443236Y-81955421D01*
X148403388Y-82008188D01*
X148320328Y-82118177D01*
X148320323Y-82118186D01*
X148230040Y-82299500D01*
X148229418Y-82300750D01*
X148173603Y-82496917D01*
X148154785Y-82700000D01*
X148173603Y-82903083D01*
X148229418Y-83099250D01*
X148320327Y-83281821D01*
X148443236Y-83444579D01*
X148498152Y-83494642D01*
X148528418Y-83547817D01*
X148521647Y-83608627D01*
X148491729Y-83646340D01*
X148487596Y-83649511D01*
X147415516Y-84721591D01*
X147362793Y-84812911D01*
X147362792Y-84812911D01*
X147362793Y-84812912D01*
X147362793Y-84812913D01*
X147335500Y-84914773D01*
X144255500Y-84914773D01*
X144255500Y-80160000D01*
X148154785Y-80160000D01*
X148173603Y-80363083D01*
X148229418Y-80559250D01*
X148320327Y-80741821D01*
X148443236Y-80904579D01*
X148593959Y-81041981D01*
X148767363Y-81149348D01*
X148957544Y-81223024D01*
X149158024Y-81260500D01*
X149361976Y-81260500D01*
X149562456Y-81223024D01*
X149752637Y-81149348D01*
X149926041Y-81041981D01*
X150076764Y-80904579D01*
X150199673Y-80741821D01*
X150262637Y-80615371D01*
X150305500Y-80571709D01*
X150351258Y-80560500D01*
X151922887Y-80560500D01*
X151981078Y-80579407D01*
X152011508Y-80615372D01*
X152087634Y-80768255D01*
X152216128Y-80938407D01*
X152216135Y-80938413D01*
X152373692Y-81082047D01*
X152373699Y-81082053D01*
X152477389Y-81146255D01*
X152554981Y-81194298D01*
X152753802Y-81271321D01*
X152963390Y-81310500D01*
X153176610Y-81310500D01*
X153386198Y-81271321D01*
X153585019Y-81194298D01*
X153766302Y-81082052D01*
X153923872Y-80938407D01*
X154052366Y-80768255D01*
X154147405Y-80577389D01*
X154205756Y-80372310D01*
X154225429Y-80160000D01*
X154205756Y-79947690D01*
X154147405Y-79742611D01*
X154052366Y-79551745D01*
X153923872Y-79381593D01*
X153869623Y-79332139D01*
X153766307Y-79237952D01*
X153766300Y-79237946D01*
X153585024Y-79125705D01*
X153585019Y-79125702D01*
X153386195Y-79048678D01*
X153176610Y-79009500D01*
X152963390Y-79009500D01*
X152753804Y-79048678D01*
X152554980Y-79125702D01*
X152554975Y-79125705D01*
X152373699Y-79237946D01*
X152373692Y-79237952D01*
X152216135Y-79381586D01*
X152216131Y-79381589D01*
X152216128Y-79381593D01*
X152216125Y-79381597D01*
X152087635Y-79551743D01*
X152087630Y-79551752D01*
X152011508Y-79704628D01*
X151968646Y-79748290D01*
X151922887Y-79759500D01*
X150351258Y-79759500D01*
X150293067Y-79740593D01*
X150262637Y-79704628D01*
X150199676Y-79578186D01*
X150199673Y-79578179D01*
X150076764Y-79415421D01*
X149926041Y-79278019D01*
X149752637Y-79170652D01*
X149562456Y-79096976D01*
X149562455Y-79096975D01*
X149562453Y-79096975D01*
X149361976Y-79059500D01*
X149158024Y-79059500D01*
X148957546Y-79096975D01*
X148935334Y-79105580D01*
X148767363Y-79170652D01*
X148658676Y-79237948D01*
X148593959Y-79278019D01*
X148443237Y-79415420D01*
X148320328Y-79578177D01*
X148320323Y-79578186D01*
X148235622Y-79748290D01*
X148229418Y-79760750D01*
X148173603Y-79956917D01*
X148154785Y-80160000D01*
X144255500Y-80160000D01*
X144255500Y-77620000D01*
X148154785Y-77620000D01*
X148173603Y-77823083D01*
X148229418Y-78019250D01*
X148320327Y-78201821D01*
X148443236Y-78364579D01*
X148593959Y-78501981D01*
X148767363Y-78609348D01*
X148957544Y-78683024D01*
X149158024Y-78720500D01*
X149361976Y-78720500D01*
X149562456Y-78683024D01*
X149752637Y-78609348D01*
X149926041Y-78501981D01*
X150076764Y-78364579D01*
X150199673Y-78201821D01*
X150262637Y-78075371D01*
X150305500Y-78031709D01*
X150351258Y-78020500D01*
X151922887Y-78020500D01*
X151981078Y-78039407D01*
X152011508Y-78075372D01*
X152087634Y-78228255D01*
X152216128Y-78398407D01*
X152216135Y-78398413D01*
X152373692Y-78542047D01*
X152373699Y-78542053D01*
X152477389Y-78606255D01*
X152554981Y-78654298D01*
X152753802Y-78731321D01*
X152963390Y-78770500D01*
X153176610Y-78770500D01*
X153386198Y-78731321D01*
X153585019Y-78654298D01*
X153766302Y-78542052D01*
X153923872Y-78398407D01*
X154052366Y-78228255D01*
X154147405Y-78037389D01*
X154205756Y-77832310D01*
X154225429Y-77620000D01*
X154205756Y-77407690D01*
X154147405Y-77202611D01*
X154052366Y-77011745D01*
X153923872Y-76841593D01*
X153869623Y-76792139D01*
X153766307Y-76697952D01*
X153766300Y-76697946D01*
X153585024Y-76585705D01*
X153585019Y-76585702D01*
X153386195Y-76508678D01*
X153176610Y-76469500D01*
X152963390Y-76469500D01*
X152753804Y-76508678D01*
X152554980Y-76585702D01*
X152554975Y-76585705D01*
X152373699Y-76697946D01*
X152373692Y-76697952D01*
X152216135Y-76841586D01*
X152216131Y-76841589D01*
X152216128Y-76841593D01*
X152216125Y-76841597D01*
X152087635Y-77011743D01*
X152087630Y-77011752D01*
X152011508Y-77164628D01*
X151968646Y-77208290D01*
X151922887Y-77219500D01*
X150351258Y-77219500D01*
X150293067Y-77200593D01*
X150262637Y-77164628D01*
X150199676Y-77038186D01*
X150199673Y-77038179D01*
X150076764Y-76875421D01*
X149926041Y-76738019D01*
X149752637Y-76630652D01*
X149562456Y-76556976D01*
X149562455Y-76556975D01*
X149562453Y-76556975D01*
X149361976Y-76519500D01*
X149158024Y-76519500D01*
X148957546Y-76556975D01*
X148935334Y-76565580D01*
X148767363Y-76630652D01*
X148658676Y-76697948D01*
X148593959Y-76738019D01*
X148443237Y-76875420D01*
X148320328Y-77038177D01*
X148320323Y-77038186D01*
X148238450Y-77202611D01*
X148229418Y-77220750D01*
X148173603Y-77416917D01*
X148154785Y-77620000D01*
X144255500Y-77620000D01*
X144255500Y-75080000D01*
X148154785Y-75080000D01*
X148173603Y-75283083D01*
X148229418Y-75479250D01*
X148320327Y-75661821D01*
X148443236Y-75824579D01*
X148593959Y-75961981D01*
X148767363Y-76069348D01*
X148957544Y-76143024D01*
X149158024Y-76180500D01*
X149361976Y-76180500D01*
X149562456Y-76143024D01*
X149752637Y-76069348D01*
X149926041Y-75961981D01*
X150076764Y-75824579D01*
X150199673Y-75661821D01*
X150262637Y-75535371D01*
X150305500Y-75491709D01*
X150351258Y-75480500D01*
X151922887Y-75480500D01*
X151981078Y-75499407D01*
X152011508Y-75535372D01*
X152074468Y-75661813D01*
X152087634Y-75688255D01*
X152216128Y-75858407D01*
X152216135Y-75858413D01*
X152373692Y-76002047D01*
X152373699Y-76002053D01*
X152477389Y-76066255D01*
X152554981Y-76114298D01*
X152753802Y-76191321D01*
X152963390Y-76230500D01*
X153176610Y-76230500D01*
X153386198Y-76191321D01*
X153585019Y-76114298D01*
X153766302Y-76002052D01*
X153923872Y-75858407D01*
X154052366Y-75688255D01*
X154147405Y-75497389D01*
X154205756Y-75292310D01*
X154225429Y-75080000D01*
X154205756Y-74867690D01*
X154147405Y-74662611D01*
X154052366Y-74471745D01*
X153923872Y-74301593D01*
X153869623Y-74252139D01*
X153766307Y-74157952D01*
X153766300Y-74157946D01*
X153585024Y-74045705D01*
X153585019Y-74045702D01*
X153386195Y-73968678D01*
X153176610Y-73929500D01*
X152963390Y-73929500D01*
X152753804Y-73968678D01*
X152554980Y-74045702D01*
X152554975Y-74045705D01*
X152373699Y-74157946D01*
X152373692Y-74157952D01*
X152216135Y-74301586D01*
X152216131Y-74301589D01*
X152216128Y-74301593D01*
X152216125Y-74301597D01*
X152087635Y-74471743D01*
X152087630Y-74471752D01*
X152011508Y-74624628D01*
X151968646Y-74668290D01*
X151922887Y-74679500D01*
X150351258Y-74679500D01*
X150293067Y-74660593D01*
X150262637Y-74624628D01*
X150212978Y-74524900D01*
X150199673Y-74498179D01*
X150076764Y-74335421D01*
X149926041Y-74198019D01*
X149752637Y-74090652D01*
X149562456Y-74016976D01*
X149562455Y-74016975D01*
X149562453Y-74016975D01*
X149361976Y-73979500D01*
X149158024Y-73979500D01*
X148957546Y-74016975D01*
X148935334Y-74025580D01*
X148767363Y-74090652D01*
X148593959Y-74198019D01*
X148443236Y-74335421D01*
X148426178Y-74358010D01*
X148320328Y-74498177D01*
X148320323Y-74498186D01*
X148238450Y-74662611D01*
X148229418Y-74680750D01*
X148173603Y-74876917D01*
X148154785Y-75080000D01*
X144255500Y-75080000D01*
X144255500Y-72540000D01*
X148154785Y-72540000D01*
X148173603Y-72743083D01*
X148229418Y-72939250D01*
X148320327Y-73121821D01*
X148443236Y-73284579D01*
X148593959Y-73421981D01*
X148767363Y-73529348D01*
X148957544Y-73603024D01*
X149158024Y-73640500D01*
X149361976Y-73640500D01*
X149562456Y-73603024D01*
X149752637Y-73529348D01*
X149926041Y-73421981D01*
X150076764Y-73284579D01*
X150199673Y-73121821D01*
X150262637Y-72995371D01*
X150305500Y-72951709D01*
X150351258Y-72940500D01*
X151922887Y-72940500D01*
X151981078Y-72959407D01*
X152011508Y-72995372D01*
X152087634Y-73148255D01*
X152216128Y-73318407D01*
X152216135Y-73318413D01*
X152373692Y-73462047D01*
X152373699Y-73462053D01*
X152393813Y-73474507D01*
X152554981Y-73574298D01*
X152753802Y-73651321D01*
X152963390Y-73690500D01*
X153176610Y-73690500D01*
X153386198Y-73651321D01*
X153585019Y-73574298D01*
X153766302Y-73462052D01*
X153923872Y-73318407D01*
X154052366Y-73148255D01*
X154147405Y-72957389D01*
X154205756Y-72752310D01*
X154225429Y-72540000D01*
X154205756Y-72327690D01*
X154147405Y-72122611D01*
X154052366Y-71931745D01*
X153923872Y-71761593D01*
X153869623Y-71712139D01*
X153766307Y-71617952D01*
X153766300Y-71617946D01*
X153585024Y-71505705D01*
X153585019Y-71505702D01*
X153386195Y-71428678D01*
X153176610Y-71389500D01*
X152963390Y-71389500D01*
X152753804Y-71428678D01*
X152554980Y-71505702D01*
X152554975Y-71505705D01*
X152373699Y-71617946D01*
X152373692Y-71617952D01*
X152216135Y-71761586D01*
X152216131Y-71761589D01*
X152216128Y-71761593D01*
X152216125Y-71761597D01*
X152087635Y-71931743D01*
X152087630Y-71931752D01*
X152011508Y-72084628D01*
X151968646Y-72128290D01*
X151922887Y-72139500D01*
X150351258Y-72139500D01*
X150293067Y-72120593D01*
X150262637Y-72084628D01*
X150199676Y-71958186D01*
X150199673Y-71958179D01*
X150076764Y-71795421D01*
X149926041Y-71658019D01*
X149752637Y-71550652D01*
X149562456Y-71476976D01*
X149562455Y-71476975D01*
X149562453Y-71476975D01*
X149361976Y-71439500D01*
X149158024Y-71439500D01*
X148957546Y-71476975D01*
X148887632Y-71504059D01*
X148767363Y-71550652D01*
X148658676Y-71617948D01*
X148593959Y-71658019D01*
X148444284Y-71794466D01*
X148443236Y-71795421D01*
X148422212Y-71823261D01*
X148320328Y-71958177D01*
X148320323Y-71958186D01*
X148238450Y-72122611D01*
X148229418Y-72140750D01*
X148173603Y-72336917D01*
X148154785Y-72540000D01*
X144255500Y-72540000D01*
X144255500Y-70000000D01*
X148154785Y-70000000D01*
X148173603Y-70203083D01*
X148229418Y-70399250D01*
X148320327Y-70581821D01*
X148443236Y-70744579D01*
X148593959Y-70881981D01*
X148767363Y-70989348D01*
X148957544Y-71063024D01*
X149158024Y-71100500D01*
X149361976Y-71100500D01*
X149562456Y-71063024D01*
X149752637Y-70989348D01*
X149926041Y-70881981D01*
X150076764Y-70744579D01*
X150199673Y-70581821D01*
X150262637Y-70455371D01*
X150305500Y-70411709D01*
X150351258Y-70400500D01*
X151922887Y-70400500D01*
X151981078Y-70419407D01*
X152011508Y-70455372D01*
X152087634Y-70608255D01*
X152216128Y-70778407D01*
X152216135Y-70778413D01*
X152373692Y-70922047D01*
X152373699Y-70922053D01*
X152456639Y-70973407D01*
X152554981Y-71034298D01*
X152753802Y-71111321D01*
X152963390Y-71150500D01*
X153176610Y-71150500D01*
X153386198Y-71111321D01*
X153585019Y-71034298D01*
X153766302Y-70922052D01*
X153923872Y-70778407D01*
X154052366Y-70608255D01*
X154147405Y-70417389D01*
X154205756Y-70212310D01*
X154225429Y-70000000D01*
X154205756Y-69787690D01*
X154147405Y-69582611D01*
X154052366Y-69391745D01*
X153923872Y-69221593D01*
X153869623Y-69172139D01*
X153766307Y-69077952D01*
X153766300Y-69077946D01*
X153585024Y-68965705D01*
X153585019Y-68965702D01*
X153386195Y-68888678D01*
X153176610Y-68849500D01*
X152963390Y-68849500D01*
X152753804Y-68888678D01*
X152554980Y-68965702D01*
X152554975Y-68965705D01*
X152373699Y-69077946D01*
X152373692Y-69077952D01*
X152216135Y-69221586D01*
X152216131Y-69221589D01*
X152216128Y-69221593D01*
X152216125Y-69221597D01*
X152087635Y-69391743D01*
X152087630Y-69391752D01*
X152011508Y-69544628D01*
X151968646Y-69588290D01*
X151922887Y-69599500D01*
X150351258Y-69599500D01*
X150293067Y-69580593D01*
X150262637Y-69544628D01*
X150199676Y-69418186D01*
X150199673Y-69418179D01*
X150076764Y-69255421D01*
X149926041Y-69118019D01*
X149752637Y-69010652D01*
X149562456Y-68936976D01*
X149562455Y-68936975D01*
X149562453Y-68936975D01*
X149361976Y-68899500D01*
X149158024Y-68899500D01*
X148957546Y-68936975D01*
X148887632Y-68964059D01*
X148767363Y-69010652D01*
X148658676Y-69077948D01*
X148593959Y-69118019D01*
X148444284Y-69254466D01*
X148443236Y-69255421D01*
X148403388Y-69308188D01*
X148320328Y-69418177D01*
X148320323Y-69418186D01*
X148230040Y-69599500D01*
X148229418Y-69600750D01*
X148173603Y-69796917D01*
X148154785Y-70000000D01*
X144255500Y-70000000D01*
X144255500Y-67460000D01*
X148154785Y-67460000D01*
X148173603Y-67663083D01*
X148229418Y-67859250D01*
X148320327Y-68041821D01*
X148443236Y-68204579D01*
X148593959Y-68341981D01*
X148767363Y-68449348D01*
X148957544Y-68523024D01*
X149158024Y-68560500D01*
X149361976Y-68560500D01*
X149562456Y-68523024D01*
X149752637Y-68449348D01*
X149926041Y-68341981D01*
X150076764Y-68204579D01*
X150199673Y-68041821D01*
X150262637Y-67915371D01*
X150305500Y-67871709D01*
X150351258Y-67860500D01*
X151922887Y-67860500D01*
X151981078Y-67879407D01*
X152011508Y-67915372D01*
X152087634Y-68068255D01*
X152216128Y-68238407D01*
X152216135Y-68238413D01*
X152373692Y-68382047D01*
X152373699Y-68382053D01*
X152477389Y-68446255D01*
X152554981Y-68494298D01*
X152753802Y-68571321D01*
X152963390Y-68610500D01*
X153176610Y-68610500D01*
X153386198Y-68571321D01*
X153585019Y-68494298D01*
X153766302Y-68382052D01*
X153923872Y-68238407D01*
X154052366Y-68068255D01*
X154147405Y-67877389D01*
X154205756Y-67672310D01*
X154225429Y-67460000D01*
X154205756Y-67247690D01*
X154147405Y-67042611D01*
X154052366Y-66851745D01*
X153923872Y-66681593D01*
X153869623Y-66632139D01*
X153766307Y-66537952D01*
X153766300Y-66537946D01*
X153585024Y-66425705D01*
X153585019Y-66425702D01*
X153386195Y-66348678D01*
X153176610Y-66309500D01*
X152963390Y-66309500D01*
X152753804Y-66348678D01*
X152554980Y-66425702D01*
X152554975Y-66425705D01*
X152373699Y-66537946D01*
X152373692Y-66537952D01*
X152216135Y-66681586D01*
X152216131Y-66681589D01*
X152216128Y-66681593D01*
X152216125Y-66681597D01*
X152087635Y-66851743D01*
X152087630Y-66851752D01*
X152011508Y-67004628D01*
X151968646Y-67048290D01*
X151922887Y-67059500D01*
X150351258Y-67059500D01*
X150293067Y-67040593D01*
X150262637Y-67004628D01*
X150232155Y-66943412D01*
X150199673Y-66878179D01*
X150076764Y-66715421D01*
X149926041Y-66578019D01*
X149752637Y-66470652D01*
X149562456Y-66396976D01*
X149562455Y-66396975D01*
X149562453Y-66396975D01*
X149361976Y-66359500D01*
X149158024Y-66359500D01*
X148957546Y-66396975D01*
X148887632Y-66424059D01*
X148767363Y-66470652D01*
X148658676Y-66537948D01*
X148593959Y-66578019D01*
X148443237Y-66715420D01*
X148320328Y-66878177D01*
X148320323Y-66878186D01*
X148235622Y-67048290D01*
X148229418Y-67060750D01*
X148173603Y-67256917D01*
X148154785Y-67460000D01*
X144255500Y-67460000D01*
X144255500Y-63227824D01*
X147959999Y-63227824D01*
X147966401Y-63287370D01*
X147966403Y-63287381D01*
X148016646Y-63422088D01*
X148016647Y-63422090D01*
X148102807Y-63537184D01*
X148102815Y-63537192D01*
X148217909Y-63623352D01*
X148217911Y-63623353D01*
X148352618Y-63673596D01*
X148352629Y-63673598D01*
X148412176Y-63680000D01*
X148884769Y-63680000D01*
X148942960Y-63698907D01*
X148978924Y-63748407D01*
X148978924Y-63809593D01*
X148942960Y-63859093D01*
X148920535Y-63871313D01*
X148767363Y-63930652D01*
X148658676Y-63997948D01*
X148593959Y-64038019D01*
X148443237Y-64175420D01*
X148320328Y-64338177D01*
X148320323Y-64338186D01*
X148238450Y-64502611D01*
X148229418Y-64520750D01*
X148173603Y-64716917D01*
X148154785Y-64920000D01*
X148173603Y-65123083D01*
X148229418Y-65319250D01*
X148320327Y-65501821D01*
X148443236Y-65664579D01*
X148593959Y-65801981D01*
X148767363Y-65909348D01*
X148957544Y-65983024D01*
X149158024Y-66020500D01*
X149361976Y-66020500D01*
X149562456Y-65983024D01*
X149752637Y-65909348D01*
X149926041Y-65801981D01*
X150076764Y-65664579D01*
X150199673Y-65501821D01*
X150262637Y-65375371D01*
X150305500Y-65331709D01*
X150351258Y-65320500D01*
X151922887Y-65320500D01*
X151981078Y-65339407D01*
X152011508Y-65375372D01*
X152087634Y-65528255D01*
X152216128Y-65698407D01*
X152216135Y-65698413D01*
X152373692Y-65842047D01*
X152373699Y-65842053D01*
X152477389Y-65906255D01*
X152554981Y-65954298D01*
X152753802Y-66031321D01*
X152963390Y-66070500D01*
X153176610Y-66070500D01*
X153386198Y-66031321D01*
X153585019Y-65954298D01*
X153766302Y-65842052D01*
X153923872Y-65698407D01*
X154052366Y-65528255D01*
X154147405Y-65337389D01*
X154205756Y-65132310D01*
X154225429Y-64920000D01*
X154205756Y-64707690D01*
X154147405Y-64502611D01*
X154052366Y-64311745D01*
X153923872Y-64141593D01*
X153869623Y-64092139D01*
X153766307Y-63997952D01*
X153766300Y-63997946D01*
X153629383Y-63913171D01*
X153589862Y-63866463D01*
X153585343Y-63805444D01*
X153617553Y-63753424D01*
X153674189Y-63730270D01*
X153681500Y-63730000D01*
X153967824Y-63730000D01*
X154027370Y-63723598D01*
X154027381Y-63723596D01*
X154162088Y-63673353D01*
X154162090Y-63673352D01*
X154277184Y-63587192D01*
X154277192Y-63587184D01*
X154363352Y-63472090D01*
X154363353Y-63472088D01*
X154413596Y-63337381D01*
X154413598Y-63337370D01*
X154420000Y-63277824D01*
X154420000Y-62630001D01*
X154419999Y-62630000D01*
X153503012Y-62630000D01*
X153535925Y-62572993D01*
X153570000Y-62445826D01*
X153570000Y-62314174D01*
X153535925Y-62187007D01*
X153503012Y-62130000D01*
X154419999Y-62130000D01*
X154420000Y-62129999D01*
X154420000Y-61482175D01*
X154413598Y-61422629D01*
X154413596Y-61422618D01*
X154363353Y-61287911D01*
X154363352Y-61287909D01*
X154277192Y-61172815D01*
X154277184Y-61172807D01*
X154162090Y-61086647D01*
X154162088Y-61086646D01*
X154027381Y-61036403D01*
X154027370Y-61036401D01*
X153967824Y-61030000D01*
X153320001Y-61030000D01*
X153320000Y-61030001D01*
X153320000Y-61946988D01*
X153262993Y-61914075D01*
X153135826Y-61880000D01*
X153004174Y-61880000D01*
X152877007Y-61914075D01*
X152820000Y-61946988D01*
X152820000Y-61030001D01*
X152819999Y-61030000D01*
X152172176Y-61030000D01*
X152112629Y-61036401D01*
X152112618Y-61036403D01*
X151977911Y-61086646D01*
X151977909Y-61086647D01*
X151862815Y-61172807D01*
X151862807Y-61172815D01*
X151776647Y-61287909D01*
X151776646Y-61287911D01*
X151726403Y-61422618D01*
X151726401Y-61422629D01*
X151720000Y-61482175D01*
X151720000Y-62129999D01*
X151720001Y-62130000D01*
X152636988Y-62130000D01*
X152604075Y-62187007D01*
X152570000Y-62314174D01*
X152570000Y-62445826D01*
X152604075Y-62572993D01*
X152636988Y-62630000D01*
X151720001Y-62630000D01*
X151720000Y-62630001D01*
X151720000Y-63277824D01*
X151719999Y-63277824D01*
X151726401Y-63337370D01*
X151726403Y-63337381D01*
X151776646Y-63472088D01*
X151776647Y-63472090D01*
X151862807Y-63587184D01*
X151862815Y-63587192D01*
X151977909Y-63673352D01*
X151977911Y-63673353D01*
X152112618Y-63723596D01*
X152112629Y-63723598D01*
X152172176Y-63730000D01*
X152458500Y-63730000D01*
X152516691Y-63748907D01*
X152552655Y-63798407D01*
X152552655Y-63859593D01*
X152516691Y-63909093D01*
X152510617Y-63913171D01*
X152373699Y-63997946D01*
X152373692Y-63997952D01*
X152216135Y-64141586D01*
X152216131Y-64141589D01*
X152216128Y-64141593D01*
X152216125Y-64141597D01*
X152087635Y-64311743D01*
X152087630Y-64311752D01*
X152011508Y-64464628D01*
X151968646Y-64508290D01*
X151922887Y-64519500D01*
X150351258Y-64519500D01*
X150293067Y-64500593D01*
X150262637Y-64464628D01*
X150199676Y-64338186D01*
X150199673Y-64338179D01*
X150076764Y-64175421D01*
X149926041Y-64038019D01*
X149752637Y-63930652D01*
X149599466Y-63871313D01*
X149552037Y-63832663D01*
X149536383Y-63773514D01*
X149558486Y-63716461D01*
X149609902Y-63683295D01*
X149635231Y-63680000D01*
X150107824Y-63680000D01*
X150167370Y-63673598D01*
X150167381Y-63673596D01*
X150302088Y-63623353D01*
X150302090Y-63623352D01*
X150417184Y-63537192D01*
X150417192Y-63537184D01*
X150503352Y-63422090D01*
X150503353Y-63422088D01*
X150553596Y-63287381D01*
X150553598Y-63287370D01*
X150560000Y-63227824D01*
X150560000Y-62630001D01*
X150559999Y-62630000D01*
X149575686Y-62630000D01*
X149580080Y-62625606D01*
X149632741Y-62534394D01*
X149660000Y-62432661D01*
X149660000Y-62327339D01*
X149632741Y-62225606D01*
X149580080Y-62134394D01*
X149575686Y-62130000D01*
X150559999Y-62130000D01*
X150560000Y-62129999D01*
X150560000Y-61532175D01*
X150553598Y-61472629D01*
X150553596Y-61472618D01*
X150503353Y-61337911D01*
X150503352Y-61337909D01*
X150417192Y-61222815D01*
X150417184Y-61222807D01*
X150302090Y-61136647D01*
X150302088Y-61136646D01*
X150167381Y-61086403D01*
X150167370Y-61086401D01*
X150107824Y-61080000D01*
X149510001Y-61080000D01*
X149510000Y-61080001D01*
X149510000Y-62064314D01*
X149505606Y-62059920D01*
X149414394Y-62007259D01*
X149312661Y-61980000D01*
X149207339Y-61980000D01*
X149105606Y-62007259D01*
X149014394Y-62059920D01*
X149010000Y-62064314D01*
X149010000Y-61080001D01*
X149009999Y-61080000D01*
X148412176Y-61080000D01*
X148352629Y-61086401D01*
X148352618Y-61086403D01*
X148217911Y-61136646D01*
X148217909Y-61136647D01*
X148102815Y-61222807D01*
X148102807Y-61222815D01*
X148016647Y-61337909D01*
X148016646Y-61337911D01*
X147966403Y-61472618D01*
X147966401Y-61472629D01*
X147960000Y-61532175D01*
X147960000Y-62129999D01*
X147960001Y-62130000D01*
X148944314Y-62130000D01*
X148939920Y-62134394D01*
X148887259Y-62225606D01*
X148860000Y-62327339D01*
X148860000Y-62432661D01*
X148887259Y-62534394D01*
X148939920Y-62625606D01*
X148944314Y-62630000D01*
X147960001Y-62630000D01*
X147960000Y-62630001D01*
X147960000Y-63227824D01*
X147959999Y-63227824D01*
X144255500Y-63227824D01*
X144255500Y-58573891D01*
X144255805Y-58566124D01*
X144256682Y-58554982D01*
X144269595Y-58390900D01*
X144272022Y-58375571D01*
X144312146Y-58208445D01*
X144316942Y-58193686D01*
X144382718Y-58034890D01*
X144389755Y-58021078D01*
X144479564Y-57874523D01*
X144488684Y-57861971D01*
X144600309Y-57731275D01*
X144611275Y-57720309D01*
X144741971Y-57608684D01*
X144754523Y-57599564D01*
X144901078Y-57509755D01*
X144914890Y-57502718D01*
X145073686Y-57436942D01*
X145088445Y-57432146D01*
X145255571Y-57392022D01*
X145270900Y-57389595D01*
X145446125Y-57375805D01*
X145453892Y-57375500D01*
X145474531Y-57375500D01*
X168285469Y-57375500D01*
X168306108Y-57375500D01*
X168313875Y-57375805D01*
G37*
G04 #@! TD.AperFunction*
M02*
