ISO-10303-21;
HEADER;
FILE_DESCRIPTION(('LS601-CU 6x6 tact switch with built-in LED and cap'),'2;1');
FILE_NAME('LS601-CU.step','2026-09-11T12:41:31',('Tadashi G. Takaoka'),(''),'handmade STEP writer','',''); 
FILE_SCHEMA(('AUTOMOTIVE_DESIGN { 1 0 10303 214 3 1 1 }'));
ENDSEC;
DATA;
#1 = APPLICATION_CONTEXT('core data for automotive mechanical design processes');
#2 = APPLICATION_PROTOCOL_DEFINITION('international standard','automotive_design',2000,#1);
#3 = PRODUCT_CONTEXT('',#1,'mechanical');
#4 = PRODUCT('LS601-CU','LS601-CU','6.0x6.0 tact switch, LED built-in, with square cap',(#3));
#5 = PRODUCT_DEFINITION_FORMATION_WITH_SPECIFIED_SOURCE('','',#4,.NOT_KNOWN.);
#6 = PRODUCT_DEFINITION_CONTEXT('part definition',#1,'design');
#7 = PRODUCT_DEFINITION('design','',#5,#6);
#8 = PRODUCT_DEFINITION_SHAPE('','',#7);
#9 = ( GEOMETRIC_REPRESENTATION_CONTEXT(3) GLOBAL_UNCERTAINTY_ASSIGNED_CONTEXT((#13)) GLOBAL_UNIT_ASSIGNED_CONTEXT((#10,#11,#12)) REPRESENTATION_CONTEXT('','3D') );
#10 = ( LENGTH_UNIT() NAMED_UNIT(*) SI_UNIT(.MILLI.,.METRE.) );
#11 = ( NAMED_UNIT(*) PLANE_ANGLE_UNIT() SI_UNIT($,.RADIAN.) );
#12 = ( NAMED_UNIT(*) SI_UNIT($,.STERADIAN.) SOLID_ANGLE_UNIT() );
#13 = UNCERTAINTY_MEASURE_WITH_UNIT(LENGTH_MEASURE(1.E-07),#10,'distance_accuracy_value','confusion accuracy');
#14 = PRODUCT_RELATED_PRODUCT_CATEGORY('part','',(#4));
#15 = CARTESIAN_POINT('',(0.,0.,0.));
#16 = DIRECTION('',(0.,0.,1.));
#17 = DIRECTION('',(1.,0.,0.));
#18 = AXIS2_PLACEMENT_3D('',#15,#16,#17);
#19 = CARTESIAN_POINT('',(-3.05,3.025,0.));
#20 = DIRECTION('',(0.,0.,-1.));
#21 = DIRECTION('',(0.,1.,0.));
#22 = AXIS2_PLACEMENT_3D('',#19,#20,#21);
#23 = PLANE('',#22);
#24 = VECTOR('',#17,1.);
#25 = LINE('',#19,#24);
#26 = VERTEX_POINT('',#19);
#27 = CARTESIAN_POINT('',(3.05,3.025,0.));
#28 = VERTEX_POINT('',#27);
#29 = EDGE_CURVE('',#26,#28,#25,.T.);
#30 = ORIENTED_EDGE('',*,*,#29,.T.);
#31 = VECTOR('',#21,1.);
#32 = CARTESIAN_POINT('',(3.05,-3.025,0.));
#33 = LINE('',#32,#31);
#34 = VERTEX_POINT('',#32);
#35 = EDGE_CURVE('',#34,#28,#33,.T.);
#36 = ORIENTED_EDGE('',*,*,#35,.F.);
#37 = VECTOR('',#17,1.);
#38 = CARTESIAN_POINT('',(-3.05,-3.025,0.));
#39 = LINE('',#38,#37);
#40 = VERTEX_POINT('',#38);
#41 = EDGE_CURVE('',#40,#34,#39,.T.);
#42 = ORIENTED_EDGE('',*,*,#41,.F.);
#43 = VECTOR('',#21,1.);
#44 = LINE('',#38,#43);
#45 = EDGE_CURVE('',#40,#26,#44,.T.);
#46 = ORIENTED_EDGE('',*,*,#45,.T.);
#47 = EDGE_LOOP('',(#30,#36,#42,#46));
#48 = FACE_OUTER_BOUND('',#47,.T.);
#49 = ADVANCED_FACE('',(#48),#23,.T.);
#50 = CARTESIAN_POINT('',(-3.05,-3.025,4.65));
#51 = DIRECTION('',(0.,-1.,0.));
#52 = AXIS2_PLACEMENT_3D('',#50,#16,#51);
#53 = PLANE('',#52);
#54 = VECTOR('',#17,1.);
#55 = LINE('',#50,#54);
#56 = VERTEX_POINT('',#50);
#57 = CARTESIAN_POINT('',(3.05,-3.025,4.65));
#58 = VERTEX_POINT('',#57);
#59 = EDGE_CURVE('',#56,#58,#55,.T.);
#60 = ORIENTED_EDGE('',*,*,#59,.T.);
#61 = VECTOR('',#21,1.);
#62 = LINE('',#57,#61);
#63 = CARTESIAN_POINT('',(3.05,3.025,4.65));
#64 = VERTEX_POINT('',#63);
#65 = EDGE_CURVE('',#58,#64,#62,.T.);
#66 = ORIENTED_EDGE('',*,*,#65,.T.);
#67 = VECTOR('',#17,1.);
#68 = CARTESIAN_POINT('',(-3.05,3.025,4.65));
#69 = LINE('',#68,#67);
#70 = VERTEX_POINT('',#68);
#71 = EDGE_CURVE('',#70,#64,#69,.T.);
#72 = ORIENTED_EDGE('',*,*,#71,.F.);
#73 = VECTOR('',#21,1.);
#74 = LINE('',#50,#73);
#75 = EDGE_CURVE('',#56,#70,#74,.T.);
#76 = ORIENTED_EDGE('',*,*,#75,.F.);
#77 = EDGE_LOOP('',(#60,#66,#72,#76));
#78 = FACE_OUTER_BOUND('',#77,.T.);
#79 = ADVANCED_FACE('',(#78),#53,.T.);
#80 = AXIS2_PLACEMENT_3D('',#38,#51,#20);
#81 = PLANE('',#80);
#82 = ORIENTED_EDGE('',*,*,#41,.T.);
#83 = VECTOR('',#16,1.);
#84 = LINE('',#32,#83);
#85 = EDGE_CURVE('',#34,#58,#84,.T.);
#86 = ORIENTED_EDGE('',*,*,#85,.T.);
#87 = ORIENTED_EDGE('',*,*,#59,.F.);
#88 = VECTOR('',#16,1.);
#89 = LINE('',#38,#88);
#90 = EDGE_CURVE('',#40,#56,#89,.T.);
#91 = ORIENTED_EDGE('',*,*,#90,.F.);
#92 = EDGE_LOOP('',(#82,#86,#87,#91));
#93 = FACE_OUTER_BOUND('',#92,.T.);
#94 = ADVANCED_FACE('',(#93),#81,.T.);
#95 = AXIS2_PLACEMENT_3D('',#27,#21,#16);
#96 = PLANE('',#95);
#97 = ORIENTED_EDGE('',*,*,#29,.F.);
#98 = VECTOR('',#16,1.);
#99 = LINE('',#19,#98);
#100 = EDGE_CURVE('',#26,#70,#99,.T.);
#101 = ORIENTED_EDGE('',*,*,#100,.T.);
#102 = ORIENTED_EDGE('',*,*,#71,.T.);
#103 = VECTOR('',#16,1.);
#104 = LINE('',#27,#103);
#105 = EDGE_CURVE('',#28,#64,#104,.T.);
#106 = ORIENTED_EDGE('',*,*,#105,.F.);
#107 = EDGE_LOOP('',(#97,#101,#102,#106));
#108 = FACE_OUTER_BOUND('',#107,.T.);
#109 = ADVANCED_FACE('',(#108),#96,.T.);
#110 = DIRECTION('',(-1.,0.,0.));
#111 = AXIS2_PLACEMENT_3D('',#19,#110,#16);
#112 = PLANE('',#111);
#113 = ORIENTED_EDGE('',*,*,#45,.F.);
#114 = ORIENTED_EDGE('',*,*,#90,.T.);
#115 = ORIENTED_EDGE('',*,*,#75,.T.);
#116 = ORIENTED_EDGE('',*,*,#100,.F.);
#117 = EDGE_LOOP('',(#113,#114,#115,#116));
#118 = FACE_OUTER_BOUND('',#117,.T.);
#119 = ADVANCED_FACE('',(#118),#112,.T.);
#120 = AXIS2_PLACEMENT_3D('',#32,#17,#20);
#121 = PLANE('',#120);
#122 = ORIENTED_EDGE('',*,*,#35,.T.);
#123 = ORIENTED_EDGE('',*,*,#105,.T.);
#124 = ORIENTED_EDGE('',*,*,#65,.F.);
#125 = ORIENTED_EDGE('',*,*,#85,.F.);
#126 = EDGE_LOOP('',(#122,#123,#124,#125));
#127 = FACE_OUTER_BOUND('',#126,.T.);
#128 = ADVANCED_FACE('',(#127),#121,.T.);
#129 = CLOSED_SHELL('',(#49,#79,#94,#109,#119,#128));
#130 = MANIFOLD_SOLID_BREP('base',#129);
#131 = CARTESIAN_POINT('',(-0.95,-3.025,0.));
#132 = AXIS2_PLACEMENT_3D('',#131,#20,#21);
#133 = PLANE('',#132);
#134 = VECTOR('',#17,1.);
#135 = LINE('',#131,#134);
#136 = VERTEX_POINT('',#131);
#137 = CARTESIAN_POINT('',(0.95,-3.025,0.));
#138 = VERTEX_POINT('',#137);
#139 = EDGE_CURVE('',#136,#138,#135,.T.);
#140 = ORIENTED_EDGE('',*,*,#139,.T.);
#141 = VECTOR('',#21,1.);
#142 = CARTESIAN_POINT('',(0.95,-3.35,0.));
#143 = LINE('',#142,#141);
#144 = VERTEX_POINT('',#142);
#145 = EDGE_CURVE('',#144,#138,#143,.T.);
#146 = ORIENTED_EDGE('',*,*,#145,.F.);
#147 = VECTOR('',#17,1.);
#148 = CARTESIAN_POINT('',(-0.95,-3.35,0.));
#149 = LINE('',#148,#147);
#150 = VERTEX_POINT('',#148);
#151 = EDGE_CURVE('',#150,#144,#149,.T.);
#152 = ORIENTED_EDGE('',*,*,#151,.F.);
#153 = VECTOR('',#21,1.);
#154 = LINE('',#148,#153);
#155 = EDGE_CURVE('',#150,#136,#154,.T.);
#156 = ORIENTED_EDGE('',*,*,#155,.T.);
#157 = EDGE_LOOP('',(#140,#146,#152,#156));
#158 = FACE_OUTER_BOUND('',#157,.T.);
#159 = ADVANCED_FACE('',(#158),#133,.T.);
#160 = CARTESIAN_POINT('',(-0.95,-3.35,1.3));
#161 = AXIS2_PLACEMENT_3D('',#160,#16,#51);
#162 = PLANE('',#161);
#163 = VECTOR('',#17,1.);
#164 = LINE('',#160,#163);
#165 = VERTEX_POINT('',#160);
#166 = CARTESIAN_POINT('',(0.95,-3.35,1.3));
#167 = VERTEX_POINT('',#166);
#168 = EDGE_CURVE('',#165,#167,#164,.T.);
#169 = ORIENTED_EDGE('',*,*,#168,.T.);
#170 = VECTOR('',#21,1.);
#171 = LINE('',#166,#170);
#172 = CARTESIAN_POINT('',(0.95,-3.025,1.3));
#173 = VERTEX_POINT('',#172);
#174 = EDGE_CURVE('',#167,#173,#171,.T.);
#175 = ORIENTED_EDGE('',*,*,#174,.T.);
#176 = VECTOR('',#17,1.);
#177 = CARTESIAN_POINT('',(-0.95,-3.025,1.3));
#178 = LINE('',#177,#176);
#179 = VERTEX_POINT('',#177);
#180 = EDGE_CURVE('',#179,#173,#178,.T.);
#181 = ORIENTED_EDGE('',*,*,#180,.F.);
#182 = VECTOR('',#21,1.);
#183 = LINE('',#160,#182);
#184 = EDGE_CURVE('',#165,#179,#183,.T.);
#185 = ORIENTED_EDGE('',*,*,#184,.F.);
#186 = EDGE_LOOP('',(#169,#175,#181,#185));
#187 = FACE_OUTER_BOUND('',#186,.T.);
#188 = ADVANCED_FACE('',(#187),#162,.T.);
#189 = AXIS2_PLACEMENT_3D('',#148,#51,#20);
#190 = PLANE('',#189);
#191 = ORIENTED_EDGE('',*,*,#151,.T.);
#192 = VECTOR('',#16,1.);
#193 = LINE('',#142,#192);
#194 = EDGE_CURVE('',#144,#167,#193,.T.);
#195 = ORIENTED_EDGE('',*,*,#194,.T.);
#196 = ORIENTED_EDGE('',*,*,#168,.F.);
#197 = VECTOR('',#16,1.);
#198 = LINE('',#148,#197);
#199 = EDGE_CURVE('',#150,#165,#198,.T.);
#200 = ORIENTED_EDGE('',*,*,#199,.F.);
#201 = EDGE_LOOP('',(#191,#195,#196,#200));
#202 = FACE_OUTER_BOUND('',#201,.T.);
#203 = ADVANCED_FACE('',(#202),#190,.T.);
#204 = AXIS2_PLACEMENT_3D('',#137,#21,#16);
#205 = PLANE('',#204);
#206 = ORIENTED_EDGE('',*,*,#139,.F.);
#207 = VECTOR('',#16,1.);
#208 = LINE('',#131,#207);
#209 = EDGE_CURVE('',#136,#179,#208,.T.);
#210 = ORIENTED_EDGE('',*,*,#209,.T.);
#211 = ORIENTED_EDGE('',*,*,#180,.T.);
#212 = VECTOR('',#16,1.);
#213 = LINE('',#137,#212);
#214 = EDGE_CURVE('',#138,#173,#213,.T.);
#215 = ORIENTED_EDGE('',*,*,#214,.F.);
#216 = EDGE_LOOP('',(#206,#210,#211,#215));
#217 = FACE_OUTER_BOUND('',#216,.T.);
#218 = ADVANCED_FACE('',(#217),#205,.T.);
#219 = AXIS2_PLACEMENT_3D('',#131,#110,#16);
#220 = PLANE('',#219);
#221 = ORIENTED_EDGE('',*,*,#155,.F.);
#222 = ORIENTED_EDGE('',*,*,#199,.T.);
#223 = ORIENTED_EDGE('',*,*,#184,.T.);
#224 = ORIENTED_EDGE('',*,*,#209,.F.);
#225 = EDGE_LOOP('',(#221,#222,#223,#224));
#226 = FACE_OUTER_BOUND('',#225,.T.);
#227 = ADVANCED_FACE('',(#226),#220,.T.);
#228 = AXIS2_PLACEMENT_3D('',#142,#17,#20);
#229 = PLANE('',#228);
#230 = ORIENTED_EDGE('',*,*,#145,.T.);
#231 = ORIENTED_EDGE('',*,*,#214,.T.);
#232 = ORIENTED_EDGE('',*,*,#174,.F.);
#233 = ORIENTED_EDGE('',*,*,#194,.F.);
#234 = EDGE_LOOP('',(#230,#231,#232,#233));
#235 = FACE_OUTER_BOUND('',#234,.T.);
#236 = ADVANCED_FACE('',(#235),#229,.T.);
#237 = CLOSED_SHELL('',(#159,#188,#203,#218,#227,#236));
#238 = MANIFOLD_SOLID_BREP('boss',#237);
#239 = CARTESIAN_POINT('',(-0.95,3.35,0.));
#240 = AXIS2_PLACEMENT_3D('',#239,#20,#21);
#241 = PLANE('',#240);
#242 = VECTOR('',#17,1.);
#243 = LINE('',#239,#242);
#244 = VERTEX_POINT('',#239);
#245 = CARTESIAN_POINT('',(0.95,3.35,0.));
#246 = VERTEX_POINT('',#245);
#247 = EDGE_CURVE('',#244,#246,#243,.T.);
#248 = ORIENTED_EDGE('',*,*,#247,.T.);
#249 = VECTOR('',#21,1.);
#250 = CARTESIAN_POINT('',(0.95,3.025,0.));
#251 = LINE('',#250,#249);
#252 = VERTEX_POINT('',#250);
#253 = EDGE_CURVE('',#252,#246,#251,.T.);
#254 = ORIENTED_EDGE('',*,*,#253,.F.);
#255 = VECTOR('',#17,1.);
#256 = CARTESIAN_POINT('',(-0.95,3.025,0.));
#257 = LINE('',#256,#255);
#258 = VERTEX_POINT('',#256);
#259 = EDGE_CURVE('',#258,#252,#257,.T.);
#260 = ORIENTED_EDGE('',*,*,#259,.F.);
#261 = VECTOR('',#21,1.);
#262 = LINE('',#256,#261);
#263 = EDGE_CURVE('',#258,#244,#262,.T.);
#264 = ORIENTED_EDGE('',*,*,#263,.T.);
#265 = EDGE_LOOP('',(#248,#254,#260,#264));
#266 = FACE_OUTER_BOUND('',#265,.T.);
#267 = ADVANCED_FACE('',(#266),#241,.T.);
#268 = CARTESIAN_POINT('',(-0.95,3.025,1.3));
#269 = AXIS2_PLACEMENT_3D('',#268,#16,#51);
#270 = PLANE('',#269);
#271 = VECTOR('',#17,1.);
#272 = LINE('',#268,#271);
#273 = VERTEX_POINT('',#268);
#274 = CARTESIAN_POINT('',(0.95,3.025,1.3));
#275 = VERTEX_POINT('',#274);
#276 = EDGE_CURVE('',#273,#275,#272,.T.);
#277 = ORIENTED_EDGE('',*,*,#276,.T.);
#278 = VECTOR('',#21,1.);
#279 = LINE('',#274,#278);
#280 = CARTESIAN_POINT('',(0.95,3.35,1.3));
#281 = VERTEX_POINT('',#280);
#282 = EDGE_CURVE('',#275,#281,#279,.T.);
#283 = ORIENTED_EDGE('',*,*,#282,.T.);
#284 = VECTOR('',#17,1.);
#285 = CARTESIAN_POINT('',(-0.95,3.35,1.3));
#286 = LINE('',#285,#284);
#287 = VERTEX_POINT('',#285);
#288 = EDGE_CURVE('',#287,#281,#286,.T.);
#289 = ORIENTED_EDGE('',*,*,#288,.F.);
#290 = VECTOR('',#21,1.);
#291 = LINE('',#268,#290);
#292 = EDGE_CURVE('',#273,#287,#291,.T.);
#293 = ORIENTED_EDGE('',*,*,#292,.F.);
#294 = EDGE_LOOP('',(#277,#283,#289,#293));
#295 = FACE_OUTER_BOUND('',#294,.T.);
#296 = ADVANCED_FACE('',(#295),#270,.T.);
#297 = AXIS2_PLACEMENT_3D('',#256,#51,#20);
#298 = PLANE('',#297);
#299 = ORIENTED_EDGE('',*,*,#259,.T.);
#300 = VECTOR('',#16,1.);
#301 = LINE('',#250,#300);
#302 = EDGE_CURVE('',#252,#275,#301,.T.);
#303 = ORIENTED_EDGE('',*,*,#302,.T.);
#304 = ORIENTED_EDGE('',*,*,#276,.F.);
#305 = VECTOR('',#16,1.);
#306 = LINE('',#256,#305);
#307 = EDGE_CURVE('',#258,#273,#306,.T.);
#308 = ORIENTED_EDGE('',*,*,#307,.F.);
#309 = EDGE_LOOP('',(#299,#303,#304,#308));
#310 = FACE_OUTER_BOUND('',#309,.T.);
#311 = ADVANCED_FACE('',(#310),#298,.T.);
#312 = AXIS2_PLACEMENT_3D('',#245,#21,#16);
#313 = PLANE('',#312);
#314 = ORIENTED_EDGE('',*,*,#247,.F.);
#315 = VECTOR('',#16,1.);
#316 = LINE('',#239,#315);
#317 = EDGE_CURVE('',#244,#287,#316,.T.);
#318 = ORIENTED_EDGE('',*,*,#317,.T.);
#319 = ORIENTED_EDGE('',*,*,#288,.T.);
#320 = VECTOR('',#16,1.);
#321 = LINE('',#245,#320);
#322 = EDGE_CURVE('',#246,#281,#321,.T.);
#323 = ORIENTED_EDGE('',*,*,#322,.F.);
#324 = EDGE_LOOP('',(#314,#318,#319,#323));
#325 = FACE_OUTER_BOUND('',#324,.T.);
#326 = ADVANCED_FACE('',(#325),#313,.T.);
#327 = AXIS2_PLACEMENT_3D('',#239,#110,#16);
#328 = PLANE('',#327);
#329 = ORIENTED_EDGE('',*,*,#263,.F.);
#330 = ORIENTED_EDGE('',*,*,#307,.T.);
#331 = ORIENTED_EDGE('',*,*,#292,.T.);
#332 = ORIENTED_EDGE('',*,*,#317,.F.);
#333 = EDGE_LOOP('',(#329,#330,#331,#332));
#334 = FACE_OUTER_BOUND('',#333,.T.);
#335 = ADVANCED_FACE('',(#334),#328,.T.);
#336 = AXIS2_PLACEMENT_3D('',#250,#17,#20);
#337 = PLANE('',#336);
#338 = ORIENTED_EDGE('',*,*,#253,.T.);
#339 = ORIENTED_EDGE('',*,*,#322,.T.);
#340 = ORIENTED_EDGE('',*,*,#282,.F.);
#341 = ORIENTED_EDGE('',*,*,#302,.F.);
#342 = EDGE_LOOP('',(#338,#339,#340,#341));
#343 = FACE_OUTER_BOUND('',#342,.T.);
#344 = ADVANCED_FACE('',(#343),#337,.T.);
#345 = CLOSED_SHELL('',(#267,#296,#311,#326,#335,#344));
#346 = MANIFOLD_SOLID_BREP('boss',#345);
#347 = CARTESIAN_POINT('',(-2.85,2.25,4.65));
#348 = AXIS2_PLACEMENT_3D('',#347,#20,#21);
#349 = PLANE('',#348);
#350 = VECTOR('',#17,1.);
#351 = LINE('',#347,#350);
#352 = VERTEX_POINT('',#347);
#353 = CARTESIAN_POINT('',(2.85,2.25,4.65));
#354 = VERTEX_POINT('',#353);
#355 = EDGE_CURVE('',#352,#354,#351,.T.);
#356 = ORIENTED_EDGE('',*,*,#355,.T.);
#357 = VECTOR('',#21,1.);
#358 = CARTESIAN_POINT('',(2.85,-2.25,4.65));
#359 = LINE('',#358,#357);
#360 = VERTEX_POINT('',#358);
#361 = EDGE_CURVE('',#360,#354,#359,.T.);
#362 = ORIENTED_EDGE('',*,*,#361,.F.);
#363 = VECTOR('',#17,1.);
#364 = CARTESIAN_POINT('',(-2.85,-2.25,4.65));
#365 = LINE('',#364,#363);
#366 = VERTEX_POINT('',#364);
#367 = EDGE_CURVE('',#366,#360,#365,.T.);
#368 = ORIENTED_EDGE('',*,*,#367,.F.);
#369 = VECTOR('',#21,1.);
#370 = LINE('',#364,#369);
#371 = EDGE_CURVE('',#366,#352,#370,.T.);
#372 = ORIENTED_EDGE('',*,*,#371,.T.);
#373 = EDGE_LOOP('',(#356,#362,#368,#372));
#374 = FACE_OUTER_BOUND('',#373,.T.);
#375 = ADVANCED_FACE('',(#374),#349,.T.);
#376 = CARTESIAN_POINT('',(-2.85,-2.25,7.2));
#377 = AXIS2_PLACEMENT_3D('',#376,#16,#51);
#378 = PLANE('',#377);
#379 = VECTOR('',#17,1.);
#380 = LINE('',#376,#379);
#381 = VERTEX_POINT('',#376);
#382 = CARTESIAN_POINT('',(2.85,-2.25,7.2));
#383 = VERTEX_POINT('',#382);
#384 = EDGE_CURVE('',#381,#383,#380,.T.);
#385 = ORIENTED_EDGE('',*,*,#384,.T.);
#386 = VECTOR('',#21,1.);
#387 = LINE('',#382,#386);
#388 = CARTESIAN_POINT('',(2.85,2.25,7.2));
#389 = VERTEX_POINT('',#388);
#390 = EDGE_CURVE('',#383,#389,#387,.T.);
#391 = ORIENTED_EDGE('',*,*,#390,.T.);
#392 = VECTOR('',#17,1.);
#393 = CARTESIAN_POINT('',(-2.85,2.25,7.2));
#394 = LINE('',#393,#392);
#395 = VERTEX_POINT('',#393);
#396 = EDGE_CURVE('',#395,#389,#394,.T.);
#397 = ORIENTED_EDGE('',*,*,#396,.F.);
#398 = VECTOR('',#21,1.);
#399 = LINE('',#376,#398);
#400 = EDGE_CURVE('',#381,#395,#399,.T.);
#401 = ORIENTED_EDGE('',*,*,#400,.F.);
#402 = EDGE_LOOP('',(#385,#391,#397,#401));
#403 = FACE_OUTER_BOUND('',#402,.T.);
#404 = ADVANCED_FACE('',(#403),#378,.T.);
#405 = AXIS2_PLACEMENT_3D('',#364,#51,#20);
#406 = PLANE('',#405);
#407 = ORIENTED_EDGE('',*,*,#367,.T.);
#408 = VECTOR('',#16,1.);
#409 = LINE('',#358,#408);
#410 = EDGE_CURVE('',#360,#383,#409,.T.);
#411 = ORIENTED_EDGE('',*,*,#410,.T.);
#412 = ORIENTED_EDGE('',*,*,#384,.F.);
#413 = VECTOR('',#16,1.);
#414 = LINE('',#364,#413);
#415 = EDGE_CURVE('',#366,#381,#414,.T.);
#416 = ORIENTED_EDGE('',*,*,#415,.F.);
#417 = EDGE_LOOP('',(#407,#411,#412,#416));
#418 = FACE_OUTER_BOUND('',#417,.T.);
#419 = ADVANCED_FACE('',(#418),#406,.T.);
#420 = AXIS2_PLACEMENT_3D('',#353,#21,#16);
#421 = PLANE('',#420);
#422 = ORIENTED_EDGE('',*,*,#355,.F.);
#423 = VECTOR('',#16,1.);
#424 = LINE('',#347,#423);
#425 = EDGE_CURVE('',#352,#395,#424,.T.);
#426 = ORIENTED_EDGE('',*,*,#425,.T.);
#427 = ORIENTED_EDGE('',*,*,#396,.T.);
#428 = VECTOR('',#16,1.);
#429 = LINE('',#353,#428);
#430 = EDGE_CURVE('',#354,#389,#429,.T.);
#431 = ORIENTED_EDGE('',*,*,#430,.F.);
#432 = EDGE_LOOP('',(#422,#426,#427,#431));
#433 = FACE_OUTER_BOUND('',#432,.T.);
#434 = ADVANCED_FACE('',(#433),#421,.T.);
#435 = AXIS2_PLACEMENT_3D('',#347,#110,#16);
#436 = PLANE('',#435);
#437 = ORIENTED_EDGE('',*,*,#371,.F.);
#438 = ORIENTED_EDGE('',*,*,#415,.T.);
#439 = ORIENTED_EDGE('',*,*,#400,.T.);
#440 = ORIENTED_EDGE('',*,*,#425,.F.);
#441 = EDGE_LOOP('',(#437,#438,#439,#440));
#442 = FACE_OUTER_BOUND('',#441,.T.);
#443 = ADVANCED_FACE('',(#442),#436,.T.);
#444 = AXIS2_PLACEMENT_3D('',#358,#17,#20);
#445 = PLANE('',#444);
#446 = ORIENTED_EDGE('',*,*,#361,.T.);
#447 = ORIENTED_EDGE('',*,*,#430,.T.);
#448 = ORIENTED_EDGE('',*,*,#390,.F.);
#449 = ORIENTED_EDGE('',*,*,#410,.F.);
#450 = EDGE_LOOP('',(#446,#447,#448,#449));
#451 = FACE_OUTER_BOUND('',#450,.T.);
#452 = ADVANCED_FACE('',(#451),#445,.T.);
#453 = CLOSED_SHELL('',(#375,#404,#419,#434,#443,#452));
#454 = MANIFOLD_SOLID_BREP('stem',#453);
#455 = CARTESIAN_POINT('',(-3.55,-3.55,7.7));
#456 = AXIS2_PLACEMENT_3D('',#455,#16,#51);
#457 = PLANE('',#456);
#458 = VECTOR('',#17,1.);
#459 = LINE('',#455,#458);
#460 = VERTEX_POINT('',#455);
#461 = CARTESIAN_POINT('',(3.55,-3.55,7.7));
#462 = VERTEX_POINT('',#461);
#463 = EDGE_CURVE('',#460,#462,#459,.T.);
#464 = ORIENTED_EDGE('',*,*,#463,.T.);
#465 = VECTOR('',#21,1.);
#466 = LINE('',#461,#465);
#467 = CARTESIAN_POINT('',(3.55,3.55,7.7));
#468 = VERTEX_POINT('',#467);
#469 = EDGE_CURVE('',#462,#468,#466,.T.);
#470 = ORIENTED_EDGE('',*,*,#469,.T.);
#471 = VECTOR('',#17,1.);
#472 = CARTESIAN_POINT('',(-3.55,3.55,7.7));
#473 = LINE('',#472,#471);
#474 = VERTEX_POINT('',#472);
#475 = EDGE_CURVE('',#474,#468,#473,.T.);
#476 = ORIENTED_EDGE('',*,*,#475,.F.);
#477 = VECTOR('',#21,1.);
#478 = LINE('',#455,#477);
#479 = EDGE_CURVE('',#460,#474,#478,.T.);
#480 = ORIENTED_EDGE('',*,*,#479,.F.);
#481 = EDGE_LOOP('',(#464,#470,#476,#480));
#482 = FACE_OUTER_BOUND('',#481,.T.);
#483 = ADVANCED_FACE('',(#482),#457,.T.);
#484 = CARTESIAN_POINT('',(-3.55,-3.55,4.9));
#485 = AXIS2_PLACEMENT_3D('',#484,#51,#20);
#486 = PLANE('',#485);
#487 = VECTOR('',#17,1.);
#488 = LINE('',#484,#487);
#489 = VERTEX_POINT('',#484);
#490 = CARTESIAN_POINT('',(3.55,-3.55,4.9));
#491 = VERTEX_POINT('',#490);
#492 = EDGE_CURVE('',#489,#491,#488,.T.);
#493 = ORIENTED_EDGE('',*,*,#492,.T.);
#494 = VECTOR('',#16,1.);
#495 = LINE('',#490,#494);
#496 = EDGE_CURVE('',#491,#462,#495,.T.);
#497 = ORIENTED_EDGE('',*,*,#496,.T.);
#498 = ORIENTED_EDGE('',*,*,#463,.F.);
#499 = VECTOR('',#16,1.);
#500 = LINE('',#484,#499);
#501 = EDGE_CURVE('',#489,#460,#500,.T.);
#502 = ORIENTED_EDGE('',*,*,#501,.F.);
#503 = EDGE_LOOP('',(#493,#497,#498,#502));
#504 = FACE_OUTER_BOUND('',#503,.T.);
#505 = ADVANCED_FACE('',(#504),#486,.T.);
#506 = AXIS2_PLACEMENT_3D('',#490,#17,#20);
#507 = PLANE('',#506);
#508 = VECTOR('',#21,1.);
#509 = LINE('',#490,#508);
#510 = CARTESIAN_POINT('',(3.55,3.55,4.9));
#511 = VERTEX_POINT('',#510);
#512 = EDGE_CURVE('',#491,#511,#509,.T.);
#513 = ORIENTED_EDGE('',*,*,#512,.T.);
#514 = VECTOR('',#16,1.);
#515 = LINE('',#510,#514);
#516 = EDGE_CURVE('',#511,#468,#515,.T.);
#517 = ORIENTED_EDGE('',*,*,#516,.T.);
#518 = ORIENTED_EDGE('',*,*,#469,.F.);
#519 = ORIENTED_EDGE('',*,*,#496,.F.);
#520 = EDGE_LOOP('',(#513,#517,#518,#519));
#521 = FACE_OUTER_BOUND('',#520,.T.);
#522 = ADVANCED_FACE('',(#521),#507,.T.);
#523 = AXIS2_PLACEMENT_3D('',#510,#21,#16);
#524 = PLANE('',#523);
#525 = VECTOR('',#17,1.);
#526 = CARTESIAN_POINT('',(-3.55,3.55,4.9));
#527 = LINE('',#526,#525);
#528 = VERTEX_POINT('',#526);
#529 = EDGE_CURVE('',#528,#511,#527,.T.);
#530 = ORIENTED_EDGE('',*,*,#529,.F.);
#531 = VECTOR('',#16,1.);
#532 = LINE('',#526,#531);
#533 = EDGE_CURVE('',#528,#474,#532,.T.);
#534 = ORIENTED_EDGE('',*,*,#533,.T.);
#535 = ORIENTED_EDGE('',*,*,#475,.T.);
#536 = ORIENTED_EDGE('',*,*,#516,.F.);
#537 = EDGE_LOOP('',(#530,#534,#535,#536));
#538 = FACE_OUTER_BOUND('',#537,.T.);
#539 = ADVANCED_FACE('',(#538),#524,.T.);
#540 = AXIS2_PLACEMENT_3D('',#526,#110,#16);
#541 = PLANE('',#540);
#542 = VECTOR('',#21,1.);
#543 = LINE('',#484,#542);
#544 = EDGE_CURVE('',#489,#528,#543,.T.);
#545 = ORIENTED_EDGE('',*,*,#544,.F.);
#546 = ORIENTED_EDGE('',*,*,#501,.T.);
#547 = ORIENTED_EDGE('',*,*,#479,.T.);
#548 = ORIENTED_EDGE('',*,*,#533,.F.);
#549 = EDGE_LOOP('',(#545,#546,#547,#548));
#550 = FACE_OUTER_BOUND('',#549,.T.);
#551 = ADVANCED_FACE('',(#550),#541,.T.);
#552 = CARTESIAN_POINT('',(-2.95,-2.35,7.25));
#553 = AXIS2_PLACEMENT_3D('',#552,#21,#16);
#554 = PLANE('',#553);
#555 = VECTOR('',#17,1.);
#556 = LINE('',#552,#555);
#557 = VERTEX_POINT('',#552);
#558 = CARTESIAN_POINT('',(2.95,-2.35,7.25));
#559 = VERTEX_POINT('',#558);
#560 = EDGE_CURVE('',#557,#559,#556,.T.);
#561 = ORIENTED_EDGE('',*,*,#560,.T.);
#562 = VECTOR('',#16,1.);
#563 = CARTESIAN_POINT('',(2.95,-2.35,4.9));
#564 = LINE('',#563,#562);
#565 = VERTEX_POINT('',#563);
#566 = EDGE_CURVE('',#565,#559,#564,.T.);
#567 = ORIENTED_EDGE('',*,*,#566,.F.);
#568 = VECTOR('',#17,1.);
#569 = CARTESIAN_POINT('',(-2.95,-2.35,4.9));
#570 = LINE('',#569,#568);
#571 = VERTEX_POINT('',#569);
#572 = EDGE_CURVE('',#571,#565,#570,.T.);
#573 = ORIENTED_EDGE('',*,*,#572,.F.);
#574 = VECTOR('',#16,1.);
#575 = LINE('',#569,#574);
#576 = EDGE_CURVE('',#571,#557,#575,.T.);
#577 = ORIENTED_EDGE('',*,*,#576,.T.);
#578 = EDGE_LOOP('',(#561,#567,#573,#577));
#579 = FACE_OUTER_BOUND('',#578,.T.);
#580 = ADVANCED_FACE('',(#579),#554,.T.);
#581 = AXIS2_PLACEMENT_3D('',#558,#110,#16);
#582 = PLANE('',#581);
#583 = VECTOR('',#21,1.);
#584 = LINE('',#558,#583);
#585 = CARTESIAN_POINT('',(2.95,2.35,7.25));
#586 = VERTEX_POINT('',#585);
#587 = EDGE_CURVE('',#559,#586,#584,.T.);
#588 = ORIENTED_EDGE('',*,*,#587,.T.);
#589 = VECTOR('',#16,1.);
#590 = CARTESIAN_POINT('',(2.95,2.35,4.9));
#591 = LINE('',#590,#589);
#592 = VERTEX_POINT('',#590);
#593 = EDGE_CURVE('',#592,#586,#591,.T.);
#594 = ORIENTED_EDGE('',*,*,#593,.F.);
#595 = VECTOR('',#21,1.);
#596 = LINE('',#563,#595);
#597 = EDGE_CURVE('',#565,#592,#596,.T.);
#598 = ORIENTED_EDGE('',*,*,#597,.F.);
#599 = ORIENTED_EDGE('',*,*,#566,.T.);
#600 = EDGE_LOOP('',(#588,#594,#598,#599));
#601 = FACE_OUTER_BOUND('',#600,.T.);
#602 = ADVANCED_FACE('',(#601),#582,.T.);
#603 = AXIS2_PLACEMENT_3D('',#585,#51,#20);
#604 = PLANE('',#603);
#605 = VECTOR('',#17,1.);
#606 = CARTESIAN_POINT('',(-2.95,2.35,7.25));
#607 = LINE('',#606,#605);
#608 = VERTEX_POINT('',#606);
#609 = EDGE_CURVE('',#608,#586,#607,.T.);
#610 = ORIENTED_EDGE('',*,*,#609,.F.);
#611 = VECTOR('',#16,1.);
#612 = CARTESIAN_POINT('',(-2.95,2.35,4.9));
#613 = LINE('',#612,#611);
#614 = VERTEX_POINT('',#612);
#615 = EDGE_CURVE('',#614,#608,#613,.T.);
#616 = ORIENTED_EDGE('',*,*,#615,.F.);
#617 = VECTOR('',#17,1.);
#618 = LINE('',#612,#617);
#619 = EDGE_CURVE('',#614,#592,#618,.T.);
#620 = ORIENTED_EDGE('',*,*,#619,.T.);
#621 = ORIENTED_EDGE('',*,*,#593,.T.);
#622 = EDGE_LOOP('',(#610,#616,#620,#621));
#623 = FACE_OUTER_BOUND('',#622,.T.);
#624 = ADVANCED_FACE('',(#623),#604,.T.);
#625 = AXIS2_PLACEMENT_3D('',#606,#17,#20);
#626 = PLANE('',#625);
#627 = VECTOR('',#21,1.);
#628 = LINE('',#552,#627);
#629 = EDGE_CURVE('',#557,#608,#628,.T.);
#630 = ORIENTED_EDGE('',*,*,#629,.F.);
#631 = ORIENTED_EDGE('',*,*,#576,.F.);
#632 = VECTOR('',#21,1.);
#633 = LINE('',#569,#632);
#634 = EDGE_CURVE('',#571,#614,#633,.T.);
#635 = ORIENTED_EDGE('',*,*,#634,.T.);
#636 = ORIENTED_EDGE('',*,*,#615,.T.);
#637 = EDGE_LOOP('',(#630,#631,#635,#636));
#638 = FACE_OUTER_BOUND('',#637,.T.);
#639 = ADVANCED_FACE('',(#638),#626,.T.);
#640 = AXIS2_PLACEMENT_3D('',#606,#20,#21);
#641 = PLANE('',#640);
#642 = ORIENTED_EDGE('',*,*,#609,.T.);
#643 = ORIENTED_EDGE('',*,*,#587,.F.);
#644 = ORIENTED_EDGE('',*,*,#560,.F.);
#645 = ORIENTED_EDGE('',*,*,#629,.T.);
#646 = EDGE_LOOP('',(#642,#643,#644,#645));
#647 = FACE_OUTER_BOUND('',#646,.T.);
#648 = ADVANCED_FACE('',(#647),#641,.T.);
#649 = AXIS2_PLACEMENT_3D('',#484,#20,#21);
#650 = PLANE('',#649);
#651 = DIRECTION('',(0.447213596,0.894427191,0.));
#652 = VECTOR('',#651,1.);
#653 = LINE('',#484,#652);
#654 = EDGE_CURVE('',#489,#571,#653,.T.);
#655 = ORIENTED_EDGE('',*,*,#654,.T.);
#656 = ORIENTED_EDGE('',*,*,#572,.T.);
#657 = DIRECTION('',(0.447213596,-0.894427191,0.));
#658 = VECTOR('',#657,1.);
#659 = LINE('',#563,#658);
#660 = EDGE_CURVE('',#565,#491,#659,.T.);
#661 = ORIENTED_EDGE('',*,*,#660,.T.);
#662 = ORIENTED_EDGE('',*,*,#492,.F.);
#663 = EDGE_LOOP('',(#655,#656,#661,#662));
#664 = FACE_OUTER_BOUND('',#663,.T.);
#665 = ADVANCED_FACE('',(#664),#650,.T.);
#666 = AXIS2_PLACEMENT_3D('',#490,#20,#21);
#667 = PLANE('',#666);
#668 = ORIENTED_EDGE('',*,*,#660,.F.);
#669 = ORIENTED_EDGE('',*,*,#597,.T.);
#670 = VECTOR('',#651,1.);
#671 = LINE('',#590,#670);
#672 = EDGE_CURVE('',#592,#511,#671,.T.);
#673 = ORIENTED_EDGE('',*,*,#672,.T.);
#674 = ORIENTED_EDGE('',*,*,#512,.F.);
#675 = EDGE_LOOP('',(#668,#669,#673,#674));
#676 = FACE_OUTER_BOUND('',#675,.T.);
#677 = ADVANCED_FACE('',(#676),#667,.T.);
#678 = AXIS2_PLACEMENT_3D('',#510,#20,#21);
#679 = PLANE('',#678);
#680 = ORIENTED_EDGE('',*,*,#672,.F.);
#681 = ORIENTED_EDGE('',*,*,#619,.F.);
#682 = VECTOR('',#657,1.);
#683 = LINE('',#526,#682);
#684 = EDGE_CURVE('',#528,#614,#683,.T.);
#685 = ORIENTED_EDGE('',*,*,#684,.F.);
#686 = ORIENTED_EDGE('',*,*,#529,.T.);
#687 = EDGE_LOOP('',(#680,#681,#685,#686));
#688 = FACE_OUTER_BOUND('',#687,.T.);
#689 = ADVANCED_FACE('',(#688),#679,.T.);
#690 = AXIS2_PLACEMENT_3D('',#526,#20,#21);
#691 = PLANE('',#690);
#692 = ORIENTED_EDGE('',*,*,#684,.T.);
#693 = ORIENTED_EDGE('',*,*,#634,.F.);
#694 = ORIENTED_EDGE('',*,*,#654,.F.);
#695 = ORIENTED_EDGE('',*,*,#544,.T.);
#696 = EDGE_LOOP('',(#692,#693,#694,#695));
#697 = FACE_OUTER_BOUND('',#696,.T.);
#698 = ADVANCED_FACE('',(#697),#691,.T.);
#699 = CLOSED_SHELL('',(#483,#505,#522,#539,#551,#580,#602,#624,#639,#648,#665,#677,#689,#698));
#700 = MANIFOLD_SOLID_BREP('cap',#699);
#701 = CARTESIAN_POINT('',(-2.974329415,-2.6,0.366896473));
#702 = AXIS2_PLACEMENT_3D('',#701,#51,#20);
#703 = PLANE('',#702);
#704 = DIRECTION('',(0.668964732,0.,0.743294146));
#705 = VECTOR('',#704,1.);
#706 = CARTESIAN_POINT('',(-3.921868512,-2.6,-0.685924746));
#707 = LINE('',#706,#705);
#708 = VERTEX_POINT('',#706);
#709 = VERTEX_POINT('',#701);
#710 = EDGE_CURVE('',#708,#709,#707,.T.);
#711 = ORIENTED_EDGE('',*,*,#710,.F.);
#712 = DIRECTION('',(0.48191875,0.,-0.876215909));
#713 = VECTOR('',#712,1.);
#714 = LINE('',#706,#713);
#715 = CARTESIAN_POINT('',(-3.35,-2.6,-1.725685677));
#716 = VERTEX_POINT('',#715);
#717 = EDGE_CURVE('',#708,#716,#714,.T.);
#718 = ORIENTED_EDGE('',*,*,#717,.T.);
#719 = VECTOR('',#16,1.);
#720 = CARTESIAN_POINT('',(-3.35,-2.6,-3.8));
#721 = LINE('',#720,#719);
#722 = VERTEX_POINT('',#720);
#723 = EDGE_CURVE('',#722,#716,#721,.T.);
#724 = ORIENTED_EDGE('',*,*,#723,.F.);
#725 = VECTOR('',#17,1.);
#726 = LINE('',#720,#725);
#727 = CARTESIAN_POINT('',(-3.15,-2.6,-3.8));
#728 = VERTEX_POINT('',#727);
#729 = EDGE_CURVE('',#722,#728,#726,.T.);
#730 = ORIENTED_EDGE('',*,*,#729,.T.);
#731 = VECTOR('',#16,1.);
#732 = LINE('',#727,#731);
#733 = CARTESIAN_POINT('',(-3.15,-2.6,-1.674314323));
#734 = VERTEX_POINT('',#733);
#735 = EDGE_CURVE('',#728,#734,#732,.T.);
#736 = ORIENTED_EDGE('',*,*,#735,.T.);
#737 = VECTOR('',#712,1.);
#738 = CARTESIAN_POINT('',(-3.678131488,-2.6,-0.714075254));
#739 = LINE('',#738,#737);
#740 = VERTEX_POINT('',#738);
#741 = EDGE_CURVE('',#740,#734,#739,.T.);
#742 = ORIENTED_EDGE('',*,*,#741,.F.);
#743 = VECTOR('',#704,1.);
#744 = LINE('',#738,#743);
#745 = CARTESIAN_POINT('',(-2.825670585,-2.6,0.233103527));
#746 = VERTEX_POINT('',#745);
#747 = EDGE_CURVE('',#740,#746,#744,.T.);
#748 = ORIENTED_EDGE('',*,*,#747,.T.);
#749 = DIRECTION('',(0.743294146,0.,-0.668964732));
#750 = VECTOR('',#749,1.);
#751 = LINE('',#701,#750);
#752 = EDGE_CURVE('',#709,#746,#751,.T.);
#753 = ORIENTED_EDGE('',*,*,#752,.F.);
#754 = EDGE_LOOP('',(#711,#718,#724,#730,#736,#742,#748,#753));
#755 = FACE_OUTER_BOUND('',#754,.T.);
#756 = ADVANCED_FACE('',(#755),#703,.T.);
#757 = CARTESIAN_POINT('',(-2.825670585,-1.9,0.233103527));
#758 = AXIS2_PLACEMENT_3D('',#757,#21,#16);
#759 = PLANE('',#758);
#760 = VECTOR('',#704,1.);
#761 = CARTESIAN_POINT('',(-3.678131488,-1.9,-0.714075254));
#762 = LINE('',#761,#760);
#763 = VERTEX_POINT('',#761);
#764 = VERTEX_POINT('',#757);
#765 = EDGE_CURVE('',#763,#764,#762,.T.);
#766 = ORIENTED_EDGE('',*,*,#765,.F.);
#767 = VECTOR('',#712,1.);
#768 = LINE('',#761,#767);
#769 = CARTESIAN_POINT('',(-3.15,-1.9,-1.674314323));
#770 = VERTEX_POINT('',#769);
#771 = EDGE_CURVE('',#763,#770,#768,.T.);
#772 = ORIENTED_EDGE('',*,*,#771,.T.);
#773 = VECTOR('',#16,1.);
#774 = CARTESIAN_POINT('',(-3.15,-1.9,-3.8));
#775 = LINE('',#774,#773);
#776 = VERTEX_POINT('',#774);
#777 = EDGE_CURVE('',#776,#770,#775,.T.);
#778 = ORIENTED_EDGE('',*,*,#777,.F.);
#779 = VECTOR('',#17,1.);
#780 = CARTESIAN_POINT('',(-3.35,-1.9,-3.8));
#781 = LINE('',#780,#779);
#782 = VERTEX_POINT('',#780);
#783 = EDGE_CURVE('',#782,#776,#781,.T.);
#784 = ORIENTED_EDGE('',*,*,#783,.F.);
#785 = VECTOR('',#16,1.);
#786 = LINE('',#780,#785);
#787 = CARTESIAN_POINT('',(-3.35,-1.9,-1.725685677));
#788 = VERTEX_POINT('',#787);
#789 = EDGE_CURVE('',#782,#788,#786,.T.);
#790 = ORIENTED_EDGE('',*,*,#789,.T.);
#791 = VECTOR('',#712,1.);
#792 = CARTESIAN_POINT('',(-3.921868512,-1.9,-0.685924746));
#793 = LINE('',#792,#791);
#794 = VERTEX_POINT('',#792);
#795 = EDGE_CURVE('',#794,#788,#793,.T.);
#796 = ORIENTED_EDGE('',*,*,#795,.F.);
#797 = VECTOR('',#704,1.);
#798 = LINE('',#792,#797);
#799 = CARTESIAN_POINT('',(-2.974329415,-1.9,0.366896473));
#800 = VERTEX_POINT('',#799);
#801 = EDGE_CURVE('',#794,#800,#798,.T.);
#802 = ORIENTED_EDGE('',*,*,#801,.T.);
#803 = VECTOR('',#749,1.);
#804 = LINE('',#799,#803);
#805 = EDGE_CURVE('',#800,#764,#804,.T.);
#806 = ORIENTED_EDGE('',*,*,#805,.T.);
#807 = EDGE_LOOP('',(#766,#772,#778,#784,#790,#796,#802,#806));
#808 = FACE_OUTER_BOUND('',#807,.T.);
#809 = ADVANCED_FACE('',(#808),#759,.T.);
#810 = AXIS2_PLACEMENT_3D('',#745,#749,#21);
#811 = PLANE('',#810);
#812 = ORIENTED_EDGE('',*,*,#747,.F.);
#813 = VECTOR('',#21,1.);
#814 = LINE('',#738,#813);
#815 = EDGE_CURVE('',#740,#763,#814,.T.);
#816 = ORIENTED_EDGE('',*,*,#815,.T.);
#817 = ORIENTED_EDGE('',*,*,#765,.T.);
#818 = VECTOR('',#21,1.);
#819 = LINE('',#745,#818);
#820 = EDGE_CURVE('',#746,#764,#819,.T.);
#821 = ORIENTED_EDGE('',*,*,#820,.F.);
#822 = EDGE_LOOP('',(#812,#816,#817,#821));
#823 = FACE_OUTER_BOUND('',#822,.T.);
#824 = ADVANCED_FACE('',(#823),#811,.T.);
#825 = DIRECTION('',(0.876215909,0.,0.48191875));
#826 = AXIS2_PLACEMENT_3D('',#738,#825,#51);
#827 = PLANE('',#826);
#828 = ORIENTED_EDGE('',*,*,#741,.T.);
#829 = VECTOR('',#21,1.);
#830 = LINE('',#733,#829);
#831 = EDGE_CURVE('',#734,#770,#830,.T.);
#832 = ORIENTED_EDGE('',*,*,#831,.T.);
#833 = ORIENTED_EDGE('',*,*,#771,.F.);
#834 = ORIENTED_EDGE('',*,*,#815,.F.);
#835 = EDGE_LOOP('',(#828,#832,#833,#834));
#836 = FACE_OUTER_BOUND('',#835,.T.);
#837 = ADVANCED_FACE('',(#836),#827,.T.);
#838 = AXIS2_PLACEMENT_3D('',#733,#17,#20);
#839 = PLANE('',#838);
#840 = ORIENTED_EDGE('',*,*,#735,.F.);
#841 = VECTOR('',#21,1.);
#842 = LINE('',#727,#841);
#843 = EDGE_CURVE('',#728,#776,#842,.T.);
#844 = ORIENTED_EDGE('',*,*,#843,.T.);
#845 = ORIENTED_EDGE('',*,*,#777,.T.);
#846 = ORIENTED_EDGE('',*,*,#831,.F.);
#847 = EDGE_LOOP('',(#840,#844,#845,#846));
#848 = FACE_OUTER_BOUND('',#847,.T.);
#849 = ADVANCED_FACE('',(#848),#839,.T.);
#850 = AXIS2_PLACEMENT_3D('',#727,#20,#21);
#851 = PLANE('',#850);
#852 = ORIENTED_EDGE('',*,*,#729,.F.);
#853 = VECTOR('',#21,1.);
#854 = LINE('',#720,#853);
#855 = EDGE_CURVE('',#722,#782,#854,.T.);
#856 = ORIENTED_EDGE('',*,*,#855,.T.);
#857 = ORIENTED_EDGE('',*,*,#783,.T.);
#858 = ORIENTED_EDGE('',*,*,#843,.F.);
#859 = EDGE_LOOP('',(#852,#856,#857,#858));
#860 = FACE_OUTER_BOUND('',#859,.T.);
#861 = ADVANCED_FACE('',(#860),#851,.T.);
#862 = AXIS2_PLACEMENT_3D('',#720,#110,#16);
#863 = PLANE('',#862);
#864 = ORIENTED_EDGE('',*,*,#723,.T.);
#865 = VECTOR('',#21,1.);
#866 = LINE('',#715,#865);
#867 = EDGE_CURVE('',#716,#788,#866,.T.);
#868 = ORIENTED_EDGE('',*,*,#867,.T.);
#869 = ORIENTED_EDGE('',*,*,#789,.F.);
#870 = ORIENTED_EDGE('',*,*,#855,.F.);
#871 = EDGE_LOOP('',(#864,#868,#869,#870));
#872 = FACE_OUTER_BOUND('',#871,.T.);
#873 = ADVANCED_FACE('',(#872),#863,.T.);
#874 = DIRECTION('',(-0.876215909,0.,-0.48191875));
#875 = AXIS2_PLACEMENT_3D('',#715,#874,#21);
#876 = PLANE('',#875);
#877 = ORIENTED_EDGE('',*,*,#717,.F.);
#878 = VECTOR('',#21,1.);
#879 = LINE('',#706,#878);
#880 = EDGE_CURVE('',#708,#794,#879,.T.);
#881 = ORIENTED_EDGE('',*,*,#880,.T.);
#882 = ORIENTED_EDGE('',*,*,#795,.T.);
#883 = ORIENTED_EDGE('',*,*,#867,.F.);
#884 = EDGE_LOOP('',(#877,#881,#882,#883));
#885 = FACE_OUTER_BOUND('',#884,.T.);
#886 = ADVANCED_FACE('',(#885),#876,.T.);
#887 = DIRECTION('',(-0.743294146,0.,0.668964732));
#888 = AXIS2_PLACEMENT_3D('',#706,#887,#51);
#889 = PLANE('',#888);
#890 = ORIENTED_EDGE('',*,*,#710,.T.);
#891 = VECTOR('',#21,1.);
#892 = LINE('',#701,#891);
#893 = EDGE_CURVE('',#709,#800,#892,.T.);
#894 = ORIENTED_EDGE('',*,*,#893,.T.);
#895 = ORIENTED_EDGE('',*,*,#801,.F.);
#896 = ORIENTED_EDGE('',*,*,#880,.F.);
#897 = EDGE_LOOP('',(#890,#894,#895,#896));
#898 = FACE_OUTER_BOUND('',#897,.T.);
#899 = ADVANCED_FACE('',(#898),#889,.T.);
#900 = AXIS2_PLACEMENT_3D('',#701,#704,#51);
#901 = PLANE('',#900);
#902 = ORIENTED_EDGE('',*,*,#752,.T.);
#903 = ORIENTED_EDGE('',*,*,#820,.T.);
#904 = ORIENTED_EDGE('',*,*,#805,.F.);
#905 = ORIENTED_EDGE('',*,*,#893,.F.);
#906 = EDGE_LOOP('',(#902,#903,#904,#905));
#907 = FACE_OUTER_BOUND('',#906,.T.);
#908 = ADVANCED_FACE('',(#907),#901,.T.);
#909 = CLOSED_SHELL('',(#756,#809,#824,#837,#849,#861,#873,#886,#899,#908));
#910 = MANIFOLD_SOLID_BREP('terminal',#909);
#911 = CARTESIAN_POINT('',(-2.974329415,1.9,0.366896473));
#912 = AXIS2_PLACEMENT_3D('',#911,#51,#20);
#913 = PLANE('',#912);
#914 = VECTOR('',#704,1.);
#915 = CARTESIAN_POINT('',(-3.921868512,1.9,-0.685924746));
#916 = LINE('',#915,#914);
#917 = VERTEX_POINT('',#915);
#918 = VERTEX_POINT('',#911);
#919 = EDGE_CURVE('',#917,#918,#916,.T.);
#920 = ORIENTED_EDGE('',*,*,#919,.F.);
#921 = VECTOR('',#712,1.);
#922 = LINE('',#915,#921);
#923 = CARTESIAN_POINT('',(-3.35,1.9,-1.725685677));
#924 = VERTEX_POINT('',#923);
#925 = EDGE_CURVE('',#917,#924,#922,.T.);
#926 = ORIENTED_EDGE('',*,*,#925,.T.);
#927 = VECTOR('',#16,1.);
#928 = CARTESIAN_POINT('',(-3.35,1.9,-3.8));
#929 = LINE('',#928,#927);
#930 = VERTEX_POINT('',#928);
#931 = EDGE_CURVE('',#930,#924,#929,.T.);
#932 = ORIENTED_EDGE('',*,*,#931,.F.);
#933 = VECTOR('',#17,1.);
#934 = LINE('',#928,#933);
#935 = CARTESIAN_POINT('',(-3.15,1.9,-3.8));
#936 = VERTEX_POINT('',#935);
#937 = EDGE_CURVE('',#930,#936,#934,.T.);
#938 = ORIENTED_EDGE('',*,*,#937,.T.);
#939 = VECTOR('',#16,1.);
#940 = LINE('',#935,#939);
#941 = CARTESIAN_POINT('',(-3.15,1.9,-1.674314323));
#942 = VERTEX_POINT('',#941);
#943 = EDGE_CURVE('',#936,#942,#940,.T.);
#944 = ORIENTED_EDGE('',*,*,#943,.T.);
#945 = VECTOR('',#712,1.);
#946 = CARTESIAN_POINT('',(-3.678131488,1.9,-0.714075254));
#947 = LINE('',#946,#945);
#948 = VERTEX_POINT('',#946);
#949 = EDGE_CURVE('',#948,#942,#947,.T.);
#950 = ORIENTED_EDGE('',*,*,#949,.F.);
#951 = VECTOR('',#704,1.);
#952 = LINE('',#946,#951);
#953 = CARTESIAN_POINT('',(-2.825670585,1.9,0.233103527));
#954 = VERTEX_POINT('',#953);
#955 = EDGE_CURVE('',#948,#954,#952,.T.);
#956 = ORIENTED_EDGE('',*,*,#955,.T.);
#957 = VECTOR('',#749,1.);
#958 = LINE('',#911,#957);
#959 = EDGE_CURVE('',#918,#954,#958,.T.);
#960 = ORIENTED_EDGE('',*,*,#959,.F.);
#961 = EDGE_LOOP('',(#920,#926,#932,#938,#944,#950,#956,#960));
#962 = FACE_OUTER_BOUND('',#961,.T.);
#963 = ADVANCED_FACE('',(#962),#913,.T.);
#964 = CARTESIAN_POINT('',(-2.825670585,2.6,0.233103527));
#965 = AXIS2_PLACEMENT_3D('',#964,#21,#16);
#966 = PLANE('',#965);
#967 = VECTOR('',#704,1.);
#968 = CARTESIAN_POINT('',(-3.678131488,2.6,-0.714075254));
#969 = LINE('',#968,#967);
#970 = VERTEX_POINT('',#968);
#971 = VERTEX_POINT('',#964);
#972 = EDGE_CURVE('',#970,#971,#969,.T.);
#973 = ORIENTED_EDGE('',*,*,#972,.F.);
#974 = VECTOR('',#712,1.);
#975 = LINE('',#968,#974);
#976 = CARTESIAN_POINT('',(-3.15,2.6,-1.674314323));
#977 = VERTEX_POINT('',#976);
#978 = EDGE_CURVE('',#970,#977,#975,.T.);
#979 = ORIENTED_EDGE('',*,*,#978,.T.);
#980 = VECTOR('',#16,1.);
#981 = CARTESIAN_POINT('',(-3.15,2.6,-3.8));
#982 = LINE('',#981,#980);
#983 = VERTEX_POINT('',#981);
#984 = EDGE_CURVE('',#983,#977,#982,.T.);
#985 = ORIENTED_EDGE('',*,*,#984,.F.);
#986 = VECTOR('',#17,1.);
#987 = CARTESIAN_POINT('',(-3.35,2.6,-3.8));
#988 = LINE('',#987,#986);
#989 = VERTEX_POINT('',#987);
#990 = EDGE_CURVE('',#989,#983,#988,.T.);
#991 = ORIENTED_EDGE('',*,*,#990,.F.);
#992 = VECTOR('',#16,1.);
#993 = LINE('',#987,#992);
#994 = CARTESIAN_POINT('',(-3.35,2.6,-1.725685677));
#995 = VERTEX_POINT('',#994);
#996 = EDGE_CURVE('',#989,#995,#993,.T.);
#997 = ORIENTED_EDGE('',*,*,#996,.T.);
#998 = VECTOR('',#712,1.);
#999 = CARTESIAN_POINT('',(-3.921868512,2.6,-0.685924746));
#1000 = LINE('',#999,#998);
#1001 = VERTEX_POINT('',#999);
#1002 = EDGE_CURVE('',#1001,#995,#1000,.T.);
#1003 = ORIENTED_EDGE('',*,*,#1002,.F.);
#1004 = VECTOR('',#704,1.);
#1005 = LINE('',#999,#1004);
#1006 = CARTESIAN_POINT('',(-2.974329415,2.6,0.366896473));
#1007 = VERTEX_POINT('',#1006);
#1008 = EDGE_CURVE('',#1001,#1007,#1005,.T.);
#1009 = ORIENTED_EDGE('',*,*,#1008,.T.);
#1010 = VECTOR('',#749,1.);
#1011 = LINE('',#1006,#1010);
#1012 = EDGE_CURVE('',#1007,#971,#1011,.T.);
#1013 = ORIENTED_EDGE('',*,*,#1012,.T.);
#1014 = EDGE_LOOP('',(#973,#979,#985,#991,#997,#1003,#1009,#1013));
#1015 = FACE_OUTER_BOUND('',#1014,.T.);
#1016 = ADVANCED_FACE('',(#1015),#966,.T.);
#1017 = AXIS2_PLACEMENT_3D('',#953,#749,#21);
#1018 = PLANE('',#1017);
#1019 = ORIENTED_EDGE('',*,*,#955,.F.);
#1020 = VECTOR('',#21,1.);
#1021 = LINE('',#946,#1020);
#1022 = EDGE_CURVE('',#948,#970,#1021,.T.);
#1023 = ORIENTED_EDGE('',*,*,#1022,.T.);
#1024 = ORIENTED_EDGE('',*,*,#972,.T.);
#1025 = VECTOR('',#21,1.);
#1026 = LINE('',#953,#1025);
#1027 = EDGE_CURVE('',#954,#971,#1026,.T.);
#1028 = ORIENTED_EDGE('',*,*,#1027,.F.);
#1029 = EDGE_LOOP('',(#1019,#1023,#1024,#1028));
#1030 = FACE_OUTER_BOUND('',#1029,.T.);
#1031 = ADVANCED_FACE('',(#1030),#1018,.T.);
#1032 = AXIS2_PLACEMENT_3D('',#946,#825,#51);
#1033 = PLANE('',#1032);
#1034 = ORIENTED_EDGE('',*,*,#949,.T.);
#1035 = VECTOR('',#21,1.);
#1036 = LINE('',#941,#1035);
#1037 = EDGE_CURVE('',#942,#977,#1036,.T.);
#1038 = ORIENTED_EDGE('',*,*,#1037,.T.);
#1039 = ORIENTED_EDGE('',*,*,#978,.F.);
#1040 = ORIENTED_EDGE('',*,*,#1022,.F.);
#1041 = EDGE_LOOP('',(#1034,#1038,#1039,#1040));
#1042 = FACE_OUTER_BOUND('',#1041,.T.);
#1043 = ADVANCED_FACE('',(#1042),#1033,.T.);
#1044 = AXIS2_PLACEMENT_3D('',#941,#17,#20);
#1045 = PLANE('',#1044);
#1046 = ORIENTED_EDGE('',*,*,#943,.F.);
#1047 = VECTOR('',#21,1.);
#1048 = LINE('',#935,#1047);
#1049 = EDGE_CURVE('',#936,#983,#1048,.T.);
#1050 = ORIENTED_EDGE('',*,*,#1049,.T.);
#1051 = ORIENTED_EDGE('',*,*,#984,.T.);
#1052 = ORIENTED_EDGE('',*,*,#1037,.F.);
#1053 = EDGE_LOOP('',(#1046,#1050,#1051,#1052));
#1054 = FACE_OUTER_BOUND('',#1053,.T.);
#1055 = ADVANCED_FACE('',(#1054),#1045,.T.);
#1056 = AXIS2_PLACEMENT_3D('',#935,#20,#21);
#1057 = PLANE('',#1056);
#1058 = ORIENTED_EDGE('',*,*,#937,.F.);
#1059 = VECTOR('',#21,1.);
#1060 = LINE('',#928,#1059);
#1061 = EDGE_CURVE('',#930,#989,#1060,.T.);
#1062 = ORIENTED_EDGE('',*,*,#1061,.T.);
#1063 = ORIENTED_EDGE('',*,*,#990,.T.);
#1064 = ORIENTED_EDGE('',*,*,#1049,.F.);
#1065 = EDGE_LOOP('',(#1058,#1062,#1063,#1064));
#1066 = FACE_OUTER_BOUND('',#1065,.T.);
#1067 = ADVANCED_FACE('',(#1066),#1057,.T.);
#1068 = AXIS2_PLACEMENT_3D('',#928,#110,#16);
#1069 = PLANE('',#1068);
#1070 = ORIENTED_EDGE('',*,*,#931,.T.);
#1071 = VECTOR('',#21,1.);
#1072 = LINE('',#923,#1071);
#1073 = EDGE_CURVE('',#924,#995,#1072,.T.);
#1074 = ORIENTED_EDGE('',*,*,#1073,.T.);
#1075 = ORIENTED_EDGE('',*,*,#996,.F.);
#1076 = ORIENTED_EDGE('',*,*,#1061,.F.);
#1077 = EDGE_LOOP('',(#1070,#1074,#1075,#1076));
#1078 = FACE_OUTER_BOUND('',#1077,.T.);
#1079 = ADVANCED_FACE('',(#1078),#1069,.T.);
#1080 = AXIS2_PLACEMENT_3D('',#923,#874,#21);
#1081 = PLANE('',#1080);
#1082 = ORIENTED_EDGE('',*,*,#925,.F.);
#1083 = VECTOR('',#21,1.);
#1084 = LINE('',#915,#1083);
#1085 = EDGE_CURVE('',#917,#1001,#1084,.T.);
#1086 = ORIENTED_EDGE('',*,*,#1085,.T.);
#1087 = ORIENTED_EDGE('',*,*,#1002,.T.);
#1088 = ORIENTED_EDGE('',*,*,#1073,.F.);
#1089 = EDGE_LOOP('',(#1082,#1086,#1087,#1088));
#1090 = FACE_OUTER_BOUND('',#1089,.T.);
#1091 = ADVANCED_FACE('',(#1090),#1081,.T.);
#1092 = AXIS2_PLACEMENT_3D('',#915,#887,#51);
#1093 = PLANE('',#1092);
#1094 = ORIENTED_EDGE('',*,*,#919,.T.);
#1095 = VECTOR('',#21,1.);
#1096 = LINE('',#911,#1095);
#1097 = EDGE_CURVE('',#918,#1007,#1096,.T.);
#1098 = ORIENTED_EDGE('',*,*,#1097,.T.);
#1099 = ORIENTED_EDGE('',*,*,#1008,.F.);
#1100 = ORIENTED_EDGE('',*,*,#1085,.F.);
#1101 = EDGE_LOOP('',(#1094,#1098,#1099,#1100));
#1102 = FACE_OUTER_BOUND('',#1101,.T.);
#1103 = ADVANCED_FACE('',(#1102),#1093,.T.);
#1104 = AXIS2_PLACEMENT_3D('',#911,#704,#51);
#1105 = PLANE('',#1104);
#1106 = ORIENTED_EDGE('',*,*,#959,.T.);
#1107 = ORIENTED_EDGE('',*,*,#1027,.T.);
#1108 = ORIENTED_EDGE('',*,*,#1012,.F.);
#1109 = ORIENTED_EDGE('',*,*,#1097,.F.);
#1110 = EDGE_LOOP('',(#1106,#1107,#1108,#1109));
#1111 = FACE_OUTER_BOUND('',#1110,.T.);
#1112 = ADVANCED_FACE('',(#1111),#1105,.T.);
#1113 = CLOSED_SHELL('',(#963,#1016,#1031,#1043,#1055,#1067,#1079,#1091,#1103,#1112));
#1114 = MANIFOLD_SOLID_BREP('terminal',#1113);
#1115 = CARTESIAN_POINT('',(2.825670585,-2.6,0.233103527));
#1116 = AXIS2_PLACEMENT_3D('',#1115,#51,#20);
#1117 = PLANE('',#1116);
#1118 = DIRECTION('',(0.668964732,0.,-0.743294146));
#1119 = VECTOR('',#1118,1.);
#1120 = LINE('',#1115,#1119);
#1121 = VERTEX_POINT('',#1115);
#1122 = CARTESIAN_POINT('',(3.678131488,-2.6,-0.714075254));
#1123 = VERTEX_POINT('',#1122);
#1124 = EDGE_CURVE('',#1121,#1123,#1120,.T.);
#1125 = ORIENTED_EDGE('',*,*,#1124,.T.);
#1126 = DIRECTION('',(0.48191875,0.,0.876215909));
#1127 = VECTOR('',#1126,1.);
#1128 = CARTESIAN_POINT('',(3.15,-2.6,-1.674314323));
#1129 = LINE('',#1128,#1127);
#1130 = VERTEX_POINT('',#1128);
#1131 = EDGE_CURVE('',#1130,#1123,#1129,.T.);
#1132 = ORIENTED_EDGE('',*,*,#1131,.F.);
#1133 = VECTOR('',#16,1.);
#1134 = CARTESIAN_POINT('',(3.15,-2.6,-3.8));
#1135 = LINE('',#1134,#1133);
#1136 = VERTEX_POINT('',#1134);
#1137 = EDGE_CURVE('',#1136,#1130,#1135,.T.);
#1138 = ORIENTED_EDGE('',*,*,#1137,.F.);
#1139 = VECTOR('',#17,1.);
#1140 = LINE('',#1134,#1139);
#1141 = CARTESIAN_POINT('',(3.35,-2.6,-3.8));
#1142 = VERTEX_POINT('',#1141);
#1143 = EDGE_CURVE('',#1136,#1142,#1140,.T.);
#1144 = ORIENTED_EDGE('',*,*,#1143,.T.);
#1145 = VECTOR('',#16,1.);
#1146 = LINE('',#1141,#1145);
#1147 = CARTESIAN_POINT('',(3.35,-2.6,-1.725685677));
#1148 = VERTEX_POINT('',#1147);
#1149 = EDGE_CURVE('',#1142,#1148,#1146,.T.);
#1150 = ORIENTED_EDGE('',*,*,#1149,.T.);
#1151 = VECTOR('',#1126,1.);
#1152 = LINE('',#1147,#1151);
#1153 = CARTESIAN_POINT('',(3.921868512,-2.6,-0.685924746));
#1154 = VERTEX_POINT('',#1153);
#1155 = EDGE_CURVE('',#1148,#1154,#1152,.T.);
#1156 = ORIENTED_EDGE('',*,*,#1155,.T.);
#1157 = VECTOR('',#1118,1.);
#1158 = CARTESIAN_POINT('',(2.974329415,-2.6,0.366896473));
#1159 = LINE('',#1158,#1157);
#1160 = VERTEX_POINT('',#1158);
#1161 = EDGE_CURVE('',#1160,#1154,#1159,.T.);
#1162 = ORIENTED_EDGE('',*,*,#1161,.F.);
#1163 = DIRECTION('',(0.743294146,0.,0.668964732));
#1164 = VECTOR('',#1163,1.);
#1165 = LINE('',#1115,#1164);
#1166 = EDGE_CURVE('',#1121,#1160,#1165,.T.);
#1167 = ORIENTED_EDGE('',*,*,#1166,.F.);
#1168 = EDGE_LOOP('',(#1125,#1132,#1138,#1144,#1150,#1156,#1162,#1167));
#1169 = FACE_OUTER_BOUND('',#1168,.T.);
#1170 = ADVANCED_FACE('',(#1169),#1117,.T.);
#1171 = CARTESIAN_POINT('',(2.974329415,-1.9,0.366896473));
#1172 = AXIS2_PLACEMENT_3D('',#1171,#21,#16);
#1173 = PLANE('',#1172);
#1174 = VECTOR('',#1118,1.);
#1175 = LINE('',#1171,#1174);
#1176 = VERTEX_POINT('',#1171);
#1177 = CARTESIAN_POINT('',(3.921868512,-1.9,-0.685924746));
#1178 = VERTEX_POINT('',#1177);
#1179 = EDGE_CURVE('',#1176,#1178,#1175,.T.);
#1180 = ORIENTED_EDGE('',*,*,#1179,.T.);
#1181 = VECTOR('',#1126,1.);
#1182 = CARTESIAN_POINT('',(3.35,-1.9,-1.725685677));
#1183 = LINE('',#1182,#1181);
#1184 = VERTEX_POINT('',#1182);
#1185 = EDGE_CURVE('',#1184,#1178,#1183,.T.);
#1186 = ORIENTED_EDGE('',*,*,#1185,.F.);
#1187 = VECTOR('',#16,1.);
#1188 = CARTESIAN_POINT('',(3.35,-1.9,-3.8));
#1189 = LINE('',#1188,#1187);
#1190 = VERTEX_POINT('',#1188);
#1191 = EDGE_CURVE('',#1190,#1184,#1189,.T.);
#1192 = ORIENTED_EDGE('',*,*,#1191,.F.);
#1193 = VECTOR('',#17,1.);
#1194 = CARTESIAN_POINT('',(3.15,-1.9,-3.8));
#1195 = LINE('',#1194,#1193);
#1196 = VERTEX_POINT('',#1194);
#1197 = EDGE_CURVE('',#1196,#1190,#1195,.T.);
#1198 = ORIENTED_EDGE('',*,*,#1197,.F.);
#1199 = VECTOR('',#16,1.);
#1200 = LINE('',#1194,#1199);
#1201 = CARTESIAN_POINT('',(3.15,-1.9,-1.674314323));
#1202 = VERTEX_POINT('',#1201);
#1203 = EDGE_CURVE('',#1196,#1202,#1200,.T.);
#1204 = ORIENTED_EDGE('',*,*,#1203,.T.);
#1205 = VECTOR('',#1126,1.);
#1206 = LINE('',#1201,#1205);
#1207 = CARTESIAN_POINT('',(3.678131488,-1.9,-0.714075254));
#1208 = VERTEX_POINT('',#1207);
#1209 = EDGE_CURVE('',#1202,#1208,#1206,.T.);
#1210 = ORIENTED_EDGE('',*,*,#1209,.T.);
#1211 = VECTOR('',#1118,1.);
#1212 = CARTESIAN_POINT('',(2.825670585,-1.9,0.233103527));
#1213 = LINE('',#1212,#1211);
#1214 = VERTEX_POINT('',#1212);
#1215 = EDGE_CURVE('',#1214,#1208,#1213,.T.);
#1216 = ORIENTED_EDGE('',*,*,#1215,.F.);
#1217 = VECTOR('',#1163,1.);
#1218 = LINE('',#1212,#1217);
#1219 = EDGE_CURVE('',#1214,#1176,#1218,.T.);
#1220 = ORIENTED_EDGE('',*,*,#1219,.T.);
#1221 = EDGE_LOOP('',(#1180,#1186,#1192,#1198,#1204,#1210,#1216,#1220));
#1222 = FACE_OUTER_BOUND('',#1221,.T.);
#1223 = ADVANCED_FACE('',(#1222),#1173,.T.);
#1224 = AXIS2_PLACEMENT_3D('',#1158,#1163,#51);
#1225 = PLANE('',#1224);
#1226 = ORIENTED_EDGE('',*,*,#1161,.T.);
#1227 = VECTOR('',#21,1.);
#1228 = LINE('',#1153,#1227);
#1229 = EDGE_CURVE('',#1154,#1178,#1228,.T.);
#1230 = ORIENTED_EDGE('',*,*,#1229,.T.);
#1231 = ORIENTED_EDGE('',*,*,#1179,.F.);
#1232 = VECTOR('',#21,1.);
#1233 = LINE('',#1158,#1232);
#1234 = EDGE_CURVE('',#1160,#1176,#1233,.T.);
#1235 = ORIENTED_EDGE('',*,*,#1234,.F.);
#1236 = EDGE_LOOP('',(#1226,#1230,#1231,#1235));
#1237 = FACE_OUTER_BOUND('',#1236,.T.);
#1238 = ADVANCED_FACE('',(#1237),#1225,.T.);
#1239 = DIRECTION('',(0.876215909,0.,-0.48191875));
#1240 = AXIS2_PLACEMENT_3D('',#1153,#1239,#21);
#1241 = PLANE('',#1240);
#1242 = ORIENTED_EDGE('',*,*,#1155,.F.);
#1243 = VECTOR('',#21,1.);
#1244 = LINE('',#1147,#1243);
#1245 = EDGE_CURVE('',#1148,#1184,#1244,.T.);
#1246 = ORIENTED_EDGE('',*,*,#1245,.T.);
#1247 = ORIENTED_EDGE('',*,*,#1185,.T.);
#1248 = ORIENTED_EDGE('',*,*,#1229,.F.);
#1249 = EDGE_LOOP('',(#1242,#1246,#1247,#1248));
#1250 = FACE_OUTER_BOUND('',#1249,.T.);
#1251 = ADVANCED_FACE('',(#1250),#1241,.T.);
#1252 = AXIS2_PLACEMENT_3D('',#1147,#17,#20);
#1253 = PLANE('',#1252);
#1254 = ORIENTED_EDGE('',*,*,#1149,.F.);
#1255 = VECTOR('',#21,1.);
#1256 = LINE('',#1141,#1255);
#1257 = EDGE_CURVE('',#1142,#1190,#1256,.T.);
#1258 = ORIENTED_EDGE('',*,*,#1257,.T.);
#1259 = ORIENTED_EDGE('',*,*,#1191,.T.);
#1260 = ORIENTED_EDGE('',*,*,#1245,.F.);
#1261 = EDGE_LOOP('',(#1254,#1258,#1259,#1260));
#1262 = FACE_OUTER_BOUND('',#1261,.T.);
#1263 = ADVANCED_FACE('',(#1262),#1253,.T.);
#1264 = AXIS2_PLACEMENT_3D('',#1141,#20,#21);
#1265 = PLANE('',#1264);
#1266 = ORIENTED_EDGE('',*,*,#1143,.F.);
#1267 = VECTOR('',#21,1.);
#1268 = LINE('',#1134,#1267);
#1269 = EDGE_CURVE('',#1136,#1196,#1268,.T.);
#1270 = ORIENTED_EDGE('',*,*,#1269,.T.);
#1271 = ORIENTED_EDGE('',*,*,#1197,.T.);
#1272 = ORIENTED_EDGE('',*,*,#1257,.F.);
#1273 = EDGE_LOOP('',(#1266,#1270,#1271,#1272));
#1274 = FACE_OUTER_BOUND('',#1273,.T.);
#1275 = ADVANCED_FACE('',(#1274),#1265,.T.);
#1276 = AXIS2_PLACEMENT_3D('',#1134,#110,#16);
#1277 = PLANE('',#1276);
#1278 = ORIENTED_EDGE('',*,*,#1137,.T.);
#1279 = VECTOR('',#21,1.);
#1280 = LINE('',#1128,#1279);
#1281 = EDGE_CURVE('',#1130,#1202,#1280,.T.);
#1282 = ORIENTED_EDGE('',*,*,#1281,.T.);
#1283 = ORIENTED_EDGE('',*,*,#1203,.F.);
#1284 = ORIENTED_EDGE('',*,*,#1269,.F.);
#1285 = EDGE_LOOP('',(#1278,#1282,#1283,#1284));
#1286 = FACE_OUTER_BOUND('',#1285,.T.);
#1287 = ADVANCED_FACE('',(#1286),#1277,.T.);
#1288 = DIRECTION('',(-0.876215909,0.,0.48191875));
#1289 = AXIS2_PLACEMENT_3D('',#1128,#1288,#51);
#1290 = PLANE('',#1289);
#1291 = ORIENTED_EDGE('',*,*,#1131,.T.);
#1292 = VECTOR('',#21,1.);
#1293 = LINE('',#1122,#1292);
#1294 = EDGE_CURVE('',#1123,#1208,#1293,.T.);
#1295 = ORIENTED_EDGE('',*,*,#1294,.T.);
#1296 = ORIENTED_EDGE('',*,*,#1209,.F.);
#1297 = ORIENTED_EDGE('',*,*,#1281,.F.);
#1298 = EDGE_LOOP('',(#1291,#1295,#1296,#1297));
#1299 = FACE_OUTER_BOUND('',#1298,.T.);
#1300 = ADVANCED_FACE('',(#1299),#1290,.T.);
#1301 = DIRECTION('',(-0.743294146,0.,-0.668964732));
#1302 = AXIS2_PLACEMENT_3D('',#1122,#1301,#21);
#1303 = PLANE('',#1302);
#1304 = ORIENTED_EDGE('',*,*,#1124,.F.);
#1305 = VECTOR('',#21,1.);
#1306 = LINE('',#1115,#1305);
#1307 = EDGE_CURVE('',#1121,#1214,#1306,.T.);
#1308 = ORIENTED_EDGE('',*,*,#1307,.T.);
#1309 = ORIENTED_EDGE('',*,*,#1215,.T.);
#1310 = ORIENTED_EDGE('',*,*,#1294,.F.);
#1311 = EDGE_LOOP('',(#1304,#1308,#1309,#1310));
#1312 = FACE_OUTER_BOUND('',#1311,.T.);
#1313 = ADVANCED_FACE('',(#1312),#1303,.T.);
#1314 = DIRECTION('',(-0.668964732,0.,0.743294146));
#1315 = AXIS2_PLACEMENT_3D('',#1115,#1314,#51);
#1316 = PLANE('',#1315);
#1317 = ORIENTED_EDGE('',*,*,#1166,.T.);
#1318 = ORIENTED_EDGE('',*,*,#1234,.T.);
#1319 = ORIENTED_EDGE('',*,*,#1219,.F.);
#1320 = ORIENTED_EDGE('',*,*,#1307,.F.);
#1321 = EDGE_LOOP('',(#1317,#1318,#1319,#1320));
#1322 = FACE_OUTER_BOUND('',#1321,.T.);
#1323 = ADVANCED_FACE('',(#1322),#1316,.T.);
#1324 = CLOSED_SHELL('',(#1170,#1223,#1238,#1251,#1263,#1275,#1287,#1300,#1313,#1323));
#1325 = MANIFOLD_SOLID_BREP('terminal',#1324);
#1326 = CARTESIAN_POINT('',(2.825670585,1.9,0.233103527));
#1327 = AXIS2_PLACEMENT_3D('',#1326,#51,#20);
#1328 = PLANE('',#1327);
#1329 = VECTOR('',#1118,1.);
#1330 = LINE('',#1326,#1329);
#1331 = VERTEX_POINT('',#1326);
#1332 = CARTESIAN_POINT('',(3.678131488,1.9,-0.714075254));
#1333 = VERTEX_POINT('',#1332);
#1334 = EDGE_CURVE('',#1331,#1333,#1330,.T.);
#1335 = ORIENTED_EDGE('',*,*,#1334,.T.);
#1336 = VECTOR('',#1126,1.);
#1337 = CARTESIAN_POINT('',(3.15,1.9,-1.674314323));
#1338 = LINE('',#1337,#1336);
#1339 = VERTEX_POINT('',#1337);
#1340 = EDGE_CURVE('',#1339,#1333,#1338,.T.);
#1341 = ORIENTED_EDGE('',*,*,#1340,.F.);
#1342 = VECTOR('',#16,1.);
#1343 = CARTESIAN_POINT('',(3.15,1.9,-3.8));
#1344 = LINE('',#1343,#1342);
#1345 = VERTEX_POINT('',#1343);
#1346 = EDGE_CURVE('',#1345,#1339,#1344,.T.);
#1347 = ORIENTED_EDGE('',*,*,#1346,.F.);
#1348 = VECTOR('',#17,1.);
#1349 = LINE('',#1343,#1348);
#1350 = CARTESIAN_POINT('',(3.35,1.9,-3.8));
#1351 = VERTEX_POINT('',#1350);
#1352 = EDGE_CURVE('',#1345,#1351,#1349,.T.);
#1353 = ORIENTED_EDGE('',*,*,#1352,.T.);
#1354 = VECTOR('',#16,1.);
#1355 = LINE('',#1350,#1354);
#1356 = CARTESIAN_POINT('',(3.35,1.9,-1.725685677));
#1357 = VERTEX_POINT('',#1356);
#1358 = EDGE_CURVE('',#1351,#1357,#1355,.T.);
#1359 = ORIENTED_EDGE('',*,*,#1358,.T.);
#1360 = VECTOR('',#1126,1.);
#1361 = LINE('',#1356,#1360);
#1362 = CARTESIAN_POINT('',(3.921868512,1.9,-0.685924746));
#1363 = VERTEX_POINT('',#1362);
#1364 = EDGE_CURVE('',#1357,#1363,#1361,.T.);
#1365 = ORIENTED_EDGE('',*,*,#1364,.T.);
#1366 = VECTOR('',#1118,1.);
#1367 = CARTESIAN_POINT('',(2.974329415,1.9,0.366896473));
#1368 = LINE('',#1367,#1366);
#1369 = VERTEX_POINT('',#1367);
#1370 = EDGE_CURVE('',#1369,#1363,#1368,.T.);
#1371 = ORIENTED_EDGE('',*,*,#1370,.F.);
#1372 = VECTOR('',#1163,1.);
#1373 = LINE('',#1326,#1372);
#1374 = EDGE_CURVE('',#1331,#1369,#1373,.T.);
#1375 = ORIENTED_EDGE('',*,*,#1374,.F.);
#1376 = EDGE_LOOP('',(#1335,#1341,#1347,#1353,#1359,#1365,#1371,#1375));
#1377 = FACE_OUTER_BOUND('',#1376,.T.);
#1378 = ADVANCED_FACE('',(#1377),#1328,.T.);
#1379 = CARTESIAN_POINT('',(2.974329415,2.6,0.366896473));
#1380 = AXIS2_PLACEMENT_3D('',#1379,#21,#16);
#1381 = PLANE('',#1380);
#1382 = VECTOR('',#1118,1.);
#1383 = LINE('',#1379,#1382);
#1384 = VERTEX_POINT('',#1379);
#1385 = CARTESIAN_POINT('',(3.921868512,2.6,-0.685924746));
#1386 = VERTEX_POINT('',#1385);
#1387 = EDGE_CURVE('',#1384,#1386,#1383,.T.);
#1388 = ORIENTED_EDGE('',*,*,#1387,.T.);
#1389 = VECTOR('',#1126,1.);
#1390 = CARTESIAN_POINT('',(3.35,2.6,-1.725685677));
#1391 = LINE('',#1390,#1389);
#1392 = VERTEX_POINT('',#1390);
#1393 = EDGE_CURVE('',#1392,#1386,#1391,.T.);
#1394 = ORIENTED_EDGE('',*,*,#1393,.F.);
#1395 = VECTOR('',#16,1.);
#1396 = CARTESIAN_POINT('',(3.35,2.6,-3.8));
#1397 = LINE('',#1396,#1395);
#1398 = VERTEX_POINT('',#1396);
#1399 = EDGE_CURVE('',#1398,#1392,#1397,.T.);
#1400 = ORIENTED_EDGE('',*,*,#1399,.F.);
#1401 = VECTOR('',#17,1.);
#1402 = CARTESIAN_POINT('',(3.15,2.6,-3.8));
#1403 = LINE('',#1402,#1401);
#1404 = VERTEX_POINT('',#1402);
#1405 = EDGE_CURVE('',#1404,#1398,#1403,.T.);
#1406 = ORIENTED_EDGE('',*,*,#1405,.F.);
#1407 = VECTOR('',#16,1.);
#1408 = LINE('',#1402,#1407);
#1409 = CARTESIAN_POINT('',(3.15,2.6,-1.674314323));
#1410 = VERTEX_POINT('',#1409);
#1411 = EDGE_CURVE('',#1404,#1410,#1408,.T.);
#1412 = ORIENTED_EDGE('',*,*,#1411,.T.);
#1413 = VECTOR('',#1126,1.);
#1414 = LINE('',#1409,#1413);
#1415 = CARTESIAN_POINT('',(3.678131488,2.6,-0.714075254));
#1416 = VERTEX_POINT('',#1415);
#1417 = EDGE_CURVE('',#1410,#1416,#1414,.T.);
#1418 = ORIENTED_EDGE('',*,*,#1417,.T.);
#1419 = VECTOR('',#1118,1.);
#1420 = CARTESIAN_POINT('',(2.825670585,2.6,0.233103527));
#1421 = LINE('',#1420,#1419);
#1422 = VERTEX_POINT('',#1420);
#1423 = EDGE_CURVE('',#1422,#1416,#1421,.T.);
#1424 = ORIENTED_EDGE('',*,*,#1423,.F.);
#1425 = VECTOR('',#1163,1.);
#1426 = LINE('',#1420,#1425);
#1427 = EDGE_CURVE('',#1422,#1384,#1426,.T.);
#1428 = ORIENTED_EDGE('',*,*,#1427,.T.);
#1429 = EDGE_LOOP('',(#1388,#1394,#1400,#1406,#1412,#1418,#1424,#1428));
#1430 = FACE_OUTER_BOUND('',#1429,.T.);
#1431 = ADVANCED_FACE('',(#1430),#1381,.T.);
#1432 = AXIS2_PLACEMENT_3D('',#1367,#1163,#51);
#1433 = PLANE('',#1432);
#1434 = ORIENTED_EDGE('',*,*,#1370,.T.);
#1435 = VECTOR('',#21,1.);
#1436 = LINE('',#1362,#1435);
#1437 = EDGE_CURVE('',#1363,#1386,#1436,.T.);
#1438 = ORIENTED_EDGE('',*,*,#1437,.T.);
#1439 = ORIENTED_EDGE('',*,*,#1387,.F.);
#1440 = VECTOR('',#21,1.);
#1441 = LINE('',#1367,#1440);
#1442 = EDGE_CURVE('',#1369,#1384,#1441,.T.);
#1443 = ORIENTED_EDGE('',*,*,#1442,.F.);
#1444 = EDGE_LOOP('',(#1434,#1438,#1439,#1443));
#1445 = FACE_OUTER_BOUND('',#1444,.T.);
#1446 = ADVANCED_FACE('',(#1445),#1433,.T.);
#1447 = AXIS2_PLACEMENT_3D('',#1362,#1239,#21);
#1448 = PLANE('',#1447);
#1449 = ORIENTED_EDGE('',*,*,#1364,.F.);
#1450 = VECTOR('',#21,1.);
#1451 = LINE('',#1356,#1450);
#1452 = EDGE_CURVE('',#1357,#1392,#1451,.T.);
#1453 = ORIENTED_EDGE('',*,*,#1452,.T.);
#1454 = ORIENTED_EDGE('',*,*,#1393,.T.);
#1455 = ORIENTED_EDGE('',*,*,#1437,.F.);
#1456 = EDGE_LOOP('',(#1449,#1453,#1454,#1455));
#1457 = FACE_OUTER_BOUND('',#1456,.T.);
#1458 = ADVANCED_FACE('',(#1457),#1448,.T.);
#1459 = AXIS2_PLACEMENT_3D('',#1356,#17,#20);
#1460 = PLANE('',#1459);
#1461 = ORIENTED_EDGE('',*,*,#1358,.F.);
#1462 = VECTOR('',#21,1.);
#1463 = LINE('',#1350,#1462);
#1464 = EDGE_CURVE('',#1351,#1398,#1463,.T.);
#1465 = ORIENTED_EDGE('',*,*,#1464,.T.);
#1466 = ORIENTED_EDGE('',*,*,#1399,.T.);
#1467 = ORIENTED_EDGE('',*,*,#1452,.F.);
#1468 = EDGE_LOOP('',(#1461,#1465,#1466,#1467));
#1469 = FACE_OUTER_BOUND('',#1468,.T.);
#1470 = ADVANCED_FACE('',(#1469),#1460,.T.);
#1471 = AXIS2_PLACEMENT_3D('',#1350,#20,#21);
#1472 = PLANE('',#1471);
#1473 = ORIENTED_EDGE('',*,*,#1352,.F.);
#1474 = VECTOR('',#21,1.);
#1475 = LINE('',#1343,#1474);
#1476 = EDGE_CURVE('',#1345,#1404,#1475,.T.);
#1477 = ORIENTED_EDGE('',*,*,#1476,.T.);
#1478 = ORIENTED_EDGE('',*,*,#1405,.T.);
#1479 = ORIENTED_EDGE('',*,*,#1464,.F.);
#1480 = EDGE_LOOP('',(#1473,#1477,#1478,#1479));
#1481 = FACE_OUTER_BOUND('',#1480,.T.);
#1482 = ADVANCED_FACE('',(#1481),#1472,.T.);
#1483 = AXIS2_PLACEMENT_3D('',#1343,#110,#16);
#1484 = PLANE('',#1483);
#1485 = ORIENTED_EDGE('',*,*,#1346,.T.);
#1486 = VECTOR('',#21,1.);
#1487 = LINE('',#1337,#1486);
#1488 = EDGE_CURVE('',#1339,#1410,#1487,.T.);
#1489 = ORIENTED_EDGE('',*,*,#1488,.T.);
#1490 = ORIENTED_EDGE('',*,*,#1411,.F.);
#1491 = ORIENTED_EDGE('',*,*,#1476,.F.);
#1492 = EDGE_LOOP('',(#1485,#1489,#1490,#1491));
#1493 = FACE_OUTER_BOUND('',#1492,.T.);
#1494 = ADVANCED_FACE('',(#1493),#1484,.T.);
#1495 = AXIS2_PLACEMENT_3D('',#1337,#1288,#51);
#1496 = PLANE('',#1495);
#1497 = ORIENTED_EDGE('',*,*,#1340,.T.);
#1498 = VECTOR('',#21,1.);
#1499 = LINE('',#1332,#1498);
#1500 = EDGE_CURVE('',#1333,#1416,#1499,.T.);
#1501 = ORIENTED_EDGE('',*,*,#1500,.T.);
#1502 = ORIENTED_EDGE('',*,*,#1417,.F.);
#1503 = ORIENTED_EDGE('',*,*,#1488,.F.);
#1504 = EDGE_LOOP('',(#1497,#1501,#1502,#1503));
#1505 = FACE_OUTER_BOUND('',#1504,.T.);
#1506 = ADVANCED_FACE('',(#1505),#1496,.T.);
#1507 = AXIS2_PLACEMENT_3D('',#1332,#1301,#21);
#1508 = PLANE('',#1507);
#1509 = ORIENTED_EDGE('',*,*,#1334,.F.);
#1510 = VECTOR('',#21,1.);
#1511 = LINE('',#1326,#1510);
#1512 = EDGE_CURVE('',#1331,#1422,#1511,.T.);
#1513 = ORIENTED_EDGE('',*,*,#1512,.T.);
#1514 = ORIENTED_EDGE('',*,*,#1423,.T.);
#1515 = ORIENTED_EDGE('',*,*,#1500,.F.);
#1516 = EDGE_LOOP('',(#1509,#1513,#1514,#1515));
#1517 = FACE_OUTER_BOUND('',#1516,.T.);
#1518 = ADVANCED_FACE('',(#1517),#1508,.T.);
#1519 = AXIS2_PLACEMENT_3D('',#1326,#1314,#51);
#1520 = PLANE('',#1519);
#1521 = ORIENTED_EDGE('',*,*,#1374,.T.);
#1522 = ORIENTED_EDGE('',*,*,#1442,.T.);
#1523 = ORIENTED_EDGE('',*,*,#1427,.F.);
#1524 = ORIENTED_EDGE('',*,*,#1512,.F.);
#1525 = EDGE_LOOP('',(#1521,#1522,#1523,#1524));
#1526 = FACE_OUTER_BOUND('',#1525,.T.);
#1527 = ADVANCED_FACE('',(#1526),#1520,.T.);
#1528 = CLOSED_SHELL('',(#1378,#1431,#1446,#1458,#1470,#1482,#1494,#1506,#1518,#1527));
#1529 = MANIFOLD_SOLID_BREP('terminal',#1528);
#1530 = CARTESIAN_POINT('',(-0.25,-2.7,-4.2));
#1531 = AXIS2_PLACEMENT_3D('',#1530,#20,#21);
#1532 = PLANE('',#1531);
#1533 = VECTOR('',#17,1.);
#1534 = LINE('',#1530,#1533);
#1535 = VERTEX_POINT('',#1530);
#1536 = CARTESIAN_POINT('',(0.25,-2.7,-4.2));
#1537 = VERTEX_POINT('',#1536);
#1538 = EDGE_CURVE('',#1535,#1537,#1534,.T.);
#1539 = ORIENTED_EDGE('',*,*,#1538,.T.);
#1540 = VECTOR('',#21,1.);
#1541 = CARTESIAN_POINT('',(0.25,-2.9,-4.2));
#1542 = LINE('',#1541,#1540);
#1543 = VERTEX_POINT('',#1541);
#1544 = EDGE_CURVE('',#1543,#1537,#1542,.T.);
#1545 = ORIENTED_EDGE('',*,*,#1544,.F.);
#1546 = VECTOR('',#17,1.);
#1547 = CARTESIAN_POINT('',(-0.25,-2.9,-4.2));
#1548 = LINE('',#1547,#1546);
#1549 = VERTEX_POINT('',#1547);
#1550 = EDGE_CURVE('',#1549,#1543,#1548,.T.);
#1551 = ORIENTED_EDGE('',*,*,#1550,.F.);
#1552 = VECTOR('',#21,1.);
#1553 = LINE('',#1547,#1552);
#1554 = EDGE_CURVE('',#1549,#1535,#1553,.T.);
#1555 = ORIENTED_EDGE('',*,*,#1554,.T.);
#1556 = EDGE_LOOP('',(#1539,#1545,#1551,#1555));
#1557 = FACE_OUTER_BOUND('',#1556,.T.);
#1558 = ADVANCED_FACE('',(#1557),#1532,.T.);
#1559 = CARTESIAN_POINT('',(-0.25,-2.9,0.));
#1560 = AXIS2_PLACEMENT_3D('',#1559,#16,#51);
#1561 = PLANE('',#1560);
#1562 = VECTOR('',#17,1.);
#1563 = LINE('',#1559,#1562);
#1564 = VERTEX_POINT('',#1559);
#1565 = CARTESIAN_POINT('',(0.25,-2.9,0.));
#1566 = VERTEX_POINT('',#1565);
#1567 = EDGE_CURVE('',#1564,#1566,#1563,.T.);
#1568 = ORIENTED_EDGE('',*,*,#1567,.T.);
#1569 = VECTOR('',#21,1.);
#1570 = LINE('',#1565,#1569);
#1571 = CARTESIAN_POINT('',(0.25,-2.7,0.));
#1572 = VERTEX_POINT('',#1571);
#1573 = EDGE_CURVE('',#1566,#1572,#1570,.T.);
#1574 = ORIENTED_EDGE('',*,*,#1573,.T.);
#1575 = VECTOR('',#17,1.);
#1576 = CARTESIAN_POINT('',(-0.25,-2.7,0.));
#1577 = LINE('',#1576,#1575);
#1578 = VERTEX_POINT('',#1576);
#1579 = EDGE_CURVE('',#1578,#1572,#1577,.T.);
#1580 = ORIENTED_EDGE('',*,*,#1579,.F.);
#1581 = VECTOR('',#21,1.);
#1582 = LINE('',#1559,#1581);
#1583 = EDGE_CURVE('',#1564,#1578,#1582,.T.);
#1584 = ORIENTED_EDGE('',*,*,#1583,.F.);
#1585 = EDGE_LOOP('',(#1568,#1574,#1580,#1584));
#1586 = FACE_OUTER_BOUND('',#1585,.T.);
#1587 = ADVANCED_FACE('',(#1586),#1561,.T.);
#1588 = AXIS2_PLACEMENT_3D('',#1547,#51,#20);
#1589 = PLANE('',#1588);
#1590 = ORIENTED_EDGE('',*,*,#1550,.T.);
#1591 = VECTOR('',#16,1.);
#1592 = LINE('',#1541,#1591);
#1593 = EDGE_CURVE('',#1543,#1566,#1592,.T.);
#1594 = ORIENTED_EDGE('',*,*,#1593,.T.);
#1595 = ORIENTED_EDGE('',*,*,#1567,.F.);
#1596 = VECTOR('',#16,1.);
#1597 = LINE('',#1547,#1596);
#1598 = EDGE_CURVE('',#1549,#1564,#1597,.T.);
#1599 = ORIENTED_EDGE('',*,*,#1598,.F.);
#1600 = EDGE_LOOP('',(#1590,#1594,#1595,#1599));
#1601 = FACE_OUTER_BOUND('',#1600,.T.);
#1602 = ADVANCED_FACE('',(#1601),#1589,.T.);
#1603 = AXIS2_PLACEMENT_3D('',#1536,#21,#16);
#1604 = PLANE('',#1603);
#1605 = ORIENTED_EDGE('',*,*,#1538,.F.);
#1606 = VECTOR('',#16,1.);
#1607 = LINE('',#1530,#1606);
#1608 = EDGE_CURVE('',#1535,#1578,#1607,.T.);
#1609 = ORIENTED_EDGE('',*,*,#1608,.T.);
#1610 = ORIENTED_EDGE('',*,*,#1579,.T.);
#1611 = VECTOR('',#16,1.);
#1612 = LINE('',#1536,#1611);
#1613 = EDGE_CURVE('',#1537,#1572,#1612,.T.);
#1614 = ORIENTED_EDGE('',*,*,#1613,.F.);
#1615 = EDGE_LOOP('',(#1605,#1609,#1610,#1614));
#1616 = FACE_OUTER_BOUND('',#1615,.T.);
#1617 = ADVANCED_FACE('',(#1616),#1604,.T.);
#1618 = AXIS2_PLACEMENT_3D('',#1530,#110,#16);
#1619 = PLANE('',#1618);
#1620 = ORIENTED_EDGE('',*,*,#1554,.F.);
#1621 = ORIENTED_EDGE('',*,*,#1598,.T.);
#1622 = ORIENTED_EDGE('',*,*,#1583,.T.);
#1623 = ORIENTED_EDGE('',*,*,#1608,.F.);
#1624 = EDGE_LOOP('',(#1620,#1621,#1622,#1623));
#1625 = FACE_OUTER_BOUND('',#1624,.T.);
#1626 = ADVANCED_FACE('',(#1625),#1619,.T.);
#1627 = AXIS2_PLACEMENT_3D('',#1541,#17,#20);
#1628 = PLANE('',#1627);
#1629 = ORIENTED_EDGE('',*,*,#1544,.T.);
#1630 = ORIENTED_EDGE('',*,*,#1613,.T.);
#1631 = ORIENTED_EDGE('',*,*,#1573,.F.);
#1632 = ORIENTED_EDGE('',*,*,#1593,.F.);
#1633 = EDGE_LOOP('',(#1629,#1630,#1631,#1632));
#1634 = FACE_OUTER_BOUND('',#1633,.T.);
#1635 = ADVANCED_FACE('',(#1634),#1628,.T.);
#1636 = CLOSED_SHELL('',(#1558,#1587,#1602,#1617,#1626,#1635));
#1637 = MANIFOLD_SOLID_BREP('led_lead',#1636);
#1638 = CARTESIAN_POINT('',(-0.2,-2.7,-5.8));
#1639 = AXIS2_PLACEMENT_3D('',#1638,#20,#21);
#1640 = PLANE('',#1639);
#1641 = VECTOR('',#17,1.);
#1642 = LINE('',#1638,#1641);
#1643 = VERTEX_POINT('',#1638);
#1644 = CARTESIAN_POINT('',(0.2,-2.7,-5.8));
#1645 = VERTEX_POINT('',#1644);
#1646 = EDGE_CURVE('',#1643,#1645,#1642,.T.);
#1647 = ORIENTED_EDGE('',*,*,#1646,.T.);
#1648 = VECTOR('',#21,1.);
#1649 = CARTESIAN_POINT('',(0.2,-2.9,-5.8));
#1650 = LINE('',#1649,#1648);
#1651 = VERTEX_POINT('',#1649);
#1652 = EDGE_CURVE('',#1651,#1645,#1650,.T.);
#1653 = ORIENTED_EDGE('',*,*,#1652,.F.);
#1654 = VECTOR('',#17,1.);
#1655 = CARTESIAN_POINT('',(-0.2,-2.9,-5.8));
#1656 = LINE('',#1655,#1654);
#1657 = VERTEX_POINT('',#1655);
#1658 = EDGE_CURVE('',#1657,#1651,#1656,.T.);
#1659 = ORIENTED_EDGE('',*,*,#1658,.F.);
#1660 = VECTOR('',#21,1.);
#1661 = LINE('',#1655,#1660);
#1662 = EDGE_CURVE('',#1657,#1643,#1661,.T.);
#1663 = ORIENTED_EDGE('',*,*,#1662,.T.);
#1664 = EDGE_LOOP('',(#1647,#1653,#1659,#1663));
#1665 = FACE_OUTER_BOUND('',#1664,.T.);
#1666 = ADVANCED_FACE('',(#1665),#1640,.T.);
#1667 = CARTESIAN_POINT('',(-0.2,-2.9,-4.2));
#1668 = AXIS2_PLACEMENT_3D('',#1667,#16,#51);
#1669 = PLANE('',#1668);
#1670 = VECTOR('',#17,1.);
#1671 = LINE('',#1667,#1670);
#1672 = VERTEX_POINT('',#1667);
#1673 = CARTESIAN_POINT('',(0.2,-2.9,-4.2));
#1674 = VERTEX_POINT('',#1673);
#1675 = EDGE_CURVE('',#1672,#1674,#1671,.T.);
#1676 = ORIENTED_EDGE('',*,*,#1675,.T.);
#1677 = VECTOR('',#21,1.);
#1678 = LINE('',#1673,#1677);
#1679 = CARTESIAN_POINT('',(0.2,-2.7,-4.2));
#1680 = VERTEX_POINT('',#1679);
#1681 = EDGE_CURVE('',#1674,#1680,#1678,.T.);
#1682 = ORIENTED_EDGE('',*,*,#1681,.T.);
#1683 = VECTOR('',#17,1.);
#1684 = CARTESIAN_POINT('',(-0.2,-2.7,-4.2));
#1685 = LINE('',#1684,#1683);
#1686 = VERTEX_POINT('',#1684);
#1687 = EDGE_CURVE('',#1686,#1680,#1685,.T.);
#1688 = ORIENTED_EDGE('',*,*,#1687,.F.);
#1689 = VECTOR('',#21,1.);
#1690 = LINE('',#1667,#1689);
#1691 = EDGE_CURVE('',#1672,#1686,#1690,.T.);
#1692 = ORIENTED_EDGE('',*,*,#1691,.F.);
#1693 = EDGE_LOOP('',(#1676,#1682,#1688,#1692));
#1694 = FACE_OUTER_BOUND('',#1693,.T.);
#1695 = ADVANCED_FACE('',(#1694),#1669,.T.);
#1696 = AXIS2_PLACEMENT_3D('',#1655,#51,#20);
#1697 = PLANE('',#1696);
#1698 = ORIENTED_EDGE('',*,*,#1658,.T.);
#1699 = VECTOR('',#16,1.);
#1700 = LINE('',#1649,#1699);
#1701 = EDGE_CURVE('',#1651,#1674,#1700,.T.);
#1702 = ORIENTED_EDGE('',*,*,#1701,.T.);
#1703 = ORIENTED_EDGE('',*,*,#1675,.F.);
#1704 = VECTOR('',#16,1.);
#1705 = LINE('',#1655,#1704);
#1706 = EDGE_CURVE('',#1657,#1672,#1705,.T.);
#1707 = ORIENTED_EDGE('',*,*,#1706,.F.);
#1708 = EDGE_LOOP('',(#1698,#1702,#1703,#1707));
#1709 = FACE_OUTER_BOUND('',#1708,.T.);
#1710 = ADVANCED_FACE('',(#1709),#1697,.T.);
#1711 = AXIS2_PLACEMENT_3D('',#1644,#21,#16);
#1712 = PLANE('',#1711);
#1713 = ORIENTED_EDGE('',*,*,#1646,.F.);
#1714 = VECTOR('',#16,1.);
#1715 = LINE('',#1638,#1714);
#1716 = EDGE_CURVE('',#1643,#1686,#1715,.T.);
#1717 = ORIENTED_EDGE('',*,*,#1716,.T.);
#1718 = ORIENTED_EDGE('',*,*,#1687,.T.);
#1719 = VECTOR('',#16,1.);
#1720 = LINE('',#1644,#1719);
#1721 = EDGE_CURVE('',#1645,#1680,#1720,.T.);
#1722 = ORIENTED_EDGE('',*,*,#1721,.F.);
#1723 = EDGE_LOOP('',(#1713,#1717,#1718,#1722));
#1724 = FACE_OUTER_BOUND('',#1723,.T.);
#1725 = ADVANCED_FACE('',(#1724),#1712,.T.);
#1726 = AXIS2_PLACEMENT_3D('',#1638,#110,#16);
#1727 = PLANE('',#1726);
#1728 = ORIENTED_EDGE('',*,*,#1662,.F.);
#1729 = ORIENTED_EDGE('',*,*,#1706,.T.);
#1730 = ORIENTED_EDGE('',*,*,#1691,.T.);
#1731 = ORIENTED_EDGE('',*,*,#1716,.F.);
#1732 = EDGE_LOOP('',(#1728,#1729,#1730,#1731));
#1733 = FACE_OUTER_BOUND('',#1732,.T.);
#1734 = ADVANCED_FACE('',(#1733),#1727,.T.);
#1735 = AXIS2_PLACEMENT_3D('',#1649,#17,#20);
#1736 = PLANE('',#1735);
#1737 = ORIENTED_EDGE('',*,*,#1652,.T.);
#1738 = ORIENTED_EDGE('',*,*,#1721,.T.);
#1739 = ORIENTED_EDGE('',*,*,#1681,.F.);
#1740 = ORIENTED_EDGE('',*,*,#1701,.F.);
#1741 = EDGE_LOOP('',(#1737,#1738,#1739,#1740));
#1742 = FACE_OUTER_BOUND('',#1741,.T.);
#1743 = ADVANCED_FACE('',(#1742),#1736,.T.);
#1744 = CLOSED_SHELL('',(#1666,#1695,#1710,#1725,#1734,#1743));
#1745 = MANIFOLD_SOLID_BREP('led_lead',#1744);
#1746 = CARTESIAN_POINT('',(-0.25,2.9,-4.2));
#1747 = AXIS2_PLACEMENT_3D('',#1746,#20,#21);
#1748 = PLANE('',#1747);
#1749 = VECTOR('',#17,1.);
#1750 = LINE('',#1746,#1749);
#1751 = VERTEX_POINT('',#1746);
#1752 = CARTESIAN_POINT('',(0.25,2.9,-4.2));
#1753 = VERTEX_POINT('',#1752);
#1754 = EDGE_CURVE('',#1751,#1753,#1750,.T.);
#1755 = ORIENTED_EDGE('',*,*,#1754,.T.);
#1756 = VECTOR('',#21,1.);
#1757 = CARTESIAN_POINT('',(0.25,2.7,-4.2));
#1758 = LINE('',#1757,#1756);
#1759 = VERTEX_POINT('',#1757);
#1760 = EDGE_CURVE('',#1759,#1753,#1758,.T.);
#1761 = ORIENTED_EDGE('',*,*,#1760,.F.);
#1762 = VECTOR('',#17,1.);
#1763 = CARTESIAN_POINT('',(-0.25,2.7,-4.2));
#1764 = LINE('',#1763,#1762);
#1765 = VERTEX_POINT('',#1763);
#1766 = EDGE_CURVE('',#1765,#1759,#1764,.T.);
#1767 = ORIENTED_EDGE('',*,*,#1766,.F.);
#1768 = VECTOR('',#21,1.);
#1769 = LINE('',#1763,#1768);
#1770 = EDGE_CURVE('',#1765,#1751,#1769,.T.);
#1771 = ORIENTED_EDGE('',*,*,#1770,.T.);
#1772 = EDGE_LOOP('',(#1755,#1761,#1767,#1771));
#1773 = FACE_OUTER_BOUND('',#1772,.T.);
#1774 = ADVANCED_FACE('',(#1773),#1748,.T.);
#1775 = CARTESIAN_POINT('',(-0.25,2.7,0.));
#1776 = AXIS2_PLACEMENT_3D('',#1775,#16,#51);
#1777 = PLANE('',#1776);
#1778 = VECTOR('',#17,1.);
#1779 = LINE('',#1775,#1778);
#1780 = VERTEX_POINT('',#1775);
#1781 = CARTESIAN_POINT('',(0.25,2.7,0.));
#1782 = VERTEX_POINT('',#1781);
#1783 = EDGE_CURVE('',#1780,#1782,#1779,.T.);
#1784 = ORIENTED_EDGE('',*,*,#1783,.T.);
#1785 = VECTOR('',#21,1.);
#1786 = LINE('',#1781,#1785);
#1787 = CARTESIAN_POINT('',(0.25,2.9,0.));
#1788 = VERTEX_POINT('',#1787);
#1789 = EDGE_CURVE('',#1782,#1788,#1786,.T.);
#1790 = ORIENTED_EDGE('',*,*,#1789,.T.);
#1791 = VECTOR('',#17,1.);
#1792 = CARTESIAN_POINT('',(-0.25,2.9,0.));
#1793 = LINE('',#1792,#1791);
#1794 = VERTEX_POINT('',#1792);
#1795 = EDGE_CURVE('',#1794,#1788,#1793,.T.);
#1796 = ORIENTED_EDGE('',*,*,#1795,.F.);
#1797 = VECTOR('',#21,1.);
#1798 = LINE('',#1775,#1797);
#1799 = EDGE_CURVE('',#1780,#1794,#1798,.T.);
#1800 = ORIENTED_EDGE('',*,*,#1799,.F.);
#1801 = EDGE_LOOP('',(#1784,#1790,#1796,#1800));
#1802 = FACE_OUTER_BOUND('',#1801,.T.);
#1803 = ADVANCED_FACE('',(#1802),#1777,.T.);
#1804 = AXIS2_PLACEMENT_3D('',#1763,#51,#20);
#1805 = PLANE('',#1804);
#1806 = ORIENTED_EDGE('',*,*,#1766,.T.);
#1807 = VECTOR('',#16,1.);
#1808 = LINE('',#1757,#1807);
#1809 = EDGE_CURVE('',#1759,#1782,#1808,.T.);
#1810 = ORIENTED_EDGE('',*,*,#1809,.T.);
#1811 = ORIENTED_EDGE('',*,*,#1783,.F.);
#1812 = VECTOR('',#16,1.);
#1813 = LINE('',#1763,#1812);
#1814 = EDGE_CURVE('',#1765,#1780,#1813,.T.);
#1815 = ORIENTED_EDGE('',*,*,#1814,.F.);
#1816 = EDGE_LOOP('',(#1806,#1810,#1811,#1815));
#1817 = FACE_OUTER_BOUND('',#1816,.T.);
#1818 = ADVANCED_FACE('',(#1817),#1805,.T.);
#1819 = AXIS2_PLACEMENT_3D('',#1752,#21,#16);
#1820 = PLANE('',#1819);
#1821 = ORIENTED_EDGE('',*,*,#1754,.F.);
#1822 = VECTOR('',#16,1.);
#1823 = LINE('',#1746,#1822);
#1824 = EDGE_CURVE('',#1751,#1794,#1823,.T.);
#1825 = ORIENTED_EDGE('',*,*,#1824,.T.);
#1826 = ORIENTED_EDGE('',*,*,#1795,.T.);
#1827 = VECTOR('',#16,1.);
#1828 = LINE('',#1752,#1827);
#1829 = EDGE_CURVE('',#1753,#1788,#1828,.T.);
#1830 = ORIENTED_EDGE('',*,*,#1829,.F.);
#1831 = EDGE_LOOP('',(#1821,#1825,#1826,#1830));
#1832 = FACE_OUTER_BOUND('',#1831,.T.);
#1833 = ADVANCED_FACE('',(#1832),#1820,.T.);
#1834 = AXIS2_PLACEMENT_3D('',#1746,#110,#16);
#1835 = PLANE('',#1834);
#1836 = ORIENTED_EDGE('',*,*,#1770,.F.);
#1837 = ORIENTED_EDGE('',*,*,#1814,.T.);
#1838 = ORIENTED_EDGE('',*,*,#1799,.T.);
#1839 = ORIENTED_EDGE('',*,*,#1824,.F.);
#1840 = EDGE_LOOP('',(#1836,#1837,#1838,#1839));
#1841 = FACE_OUTER_BOUND('',#1840,.T.);
#1842 = ADVANCED_FACE('',(#1841),#1835,.T.);
#1843 = AXIS2_PLACEMENT_3D('',#1757,#17,#20);
#1844 = PLANE('',#1843);
#1845 = ORIENTED_EDGE('',*,*,#1760,.T.);
#1846 = ORIENTED_EDGE('',*,*,#1829,.T.);
#1847 = ORIENTED_EDGE('',*,*,#1789,.F.);
#1848 = ORIENTED_EDGE('',*,*,#1809,.F.);
#1849 = EDGE_LOOP('',(#1845,#1846,#1847,#1848));
#1850 = FACE_OUTER_BOUND('',#1849,.T.);
#1851 = ADVANCED_FACE('',(#1850),#1844,.T.);
#1852 = CLOSED_SHELL('',(#1774,#1803,#1818,#1833,#1842,#1851));
#1853 = MANIFOLD_SOLID_BREP('led_lead',#1852);
#1854 = CARTESIAN_POINT('',(-0.2,2.9,-5.8));
#1855 = AXIS2_PLACEMENT_3D('',#1854,#20,#21);
#1856 = PLANE('',#1855);
#1857 = VECTOR('',#17,1.);
#1858 = LINE('',#1854,#1857);
#1859 = VERTEX_POINT('',#1854);
#1860 = CARTESIAN_POINT('',(0.2,2.9,-5.8));
#1861 = VERTEX_POINT('',#1860);
#1862 = EDGE_CURVE('',#1859,#1861,#1858,.T.);
#1863 = ORIENTED_EDGE('',*,*,#1862,.T.);
#1864 = VECTOR('',#21,1.);
#1865 = CARTESIAN_POINT('',(0.2,2.7,-5.8));
#1866 = LINE('',#1865,#1864);
#1867 = VERTEX_POINT('',#1865);
#1868 = EDGE_CURVE('',#1867,#1861,#1866,.T.);
#1869 = ORIENTED_EDGE('',*,*,#1868,.F.);
#1870 = VECTOR('',#17,1.);
#1871 = CARTESIAN_POINT('',(-0.2,2.7,-5.8));
#1872 = LINE('',#1871,#1870);
#1873 = VERTEX_POINT('',#1871);
#1874 = EDGE_CURVE('',#1873,#1867,#1872,.T.);
#1875 = ORIENTED_EDGE('',*,*,#1874,.F.);
#1876 = VECTOR('',#21,1.);
#1877 = LINE('',#1871,#1876);
#1878 = EDGE_CURVE('',#1873,#1859,#1877,.T.);
#1879 = ORIENTED_EDGE('',*,*,#1878,.T.);
#1880 = EDGE_LOOP('',(#1863,#1869,#1875,#1879));
#1881 = FACE_OUTER_BOUND('',#1880,.T.);
#1882 = ADVANCED_FACE('',(#1881),#1856,.T.);
#1883 = CARTESIAN_POINT('',(-0.2,2.7,-4.2));
#1884 = AXIS2_PLACEMENT_3D('',#1883,#16,#51);
#1885 = PLANE('',#1884);
#1886 = VECTOR('',#17,1.);
#1887 = LINE('',#1883,#1886);
#1888 = VERTEX_POINT('',#1883);
#1889 = CARTESIAN_POINT('',(0.2,2.7,-4.2));
#1890 = VERTEX_POINT('',#1889);
#1891 = EDGE_CURVE('',#1888,#1890,#1887,.T.);
#1892 = ORIENTED_EDGE('',*,*,#1891,.T.);
#1893 = VECTOR('',#21,1.);
#1894 = LINE('',#1889,#1893);
#1895 = CARTESIAN_POINT('',(0.2,2.9,-4.2));
#1896 = VERTEX_POINT('',#1895);
#1897 = EDGE_CURVE('',#1890,#1896,#1894,.T.);
#1898 = ORIENTED_EDGE('',*,*,#1897,.T.);
#1899 = VECTOR('',#17,1.);
#1900 = CARTESIAN_POINT('',(-0.2,2.9,-4.2));
#1901 = LINE('',#1900,#1899);
#1902 = VERTEX_POINT('',#1900);
#1903 = EDGE_CURVE('',#1902,#1896,#1901,.T.);
#1904 = ORIENTED_EDGE('',*,*,#1903,.F.);
#1905 = VECTOR('',#21,1.);
#1906 = LINE('',#1883,#1905);
#1907 = EDGE_CURVE('',#1888,#1902,#1906,.T.);
#1908 = ORIENTED_EDGE('',*,*,#1907,.F.);
#1909 = EDGE_LOOP('',(#1892,#1898,#1904,#1908));
#1910 = FACE_OUTER_BOUND('',#1909,.T.);
#1911 = ADVANCED_FACE('',(#1910),#1885,.T.);
#1912 = AXIS2_PLACEMENT_3D('',#1871,#51,#20);
#1913 = PLANE('',#1912);
#1914 = ORIENTED_EDGE('',*,*,#1874,.T.);
#1915 = VECTOR('',#16,1.);
#1916 = LINE('',#1865,#1915);
#1917 = EDGE_CURVE('',#1867,#1890,#1916,.T.);
#1918 = ORIENTED_EDGE('',*,*,#1917,.T.);
#1919 = ORIENTED_EDGE('',*,*,#1891,.F.);
#1920 = VECTOR('',#16,1.);
#1921 = LINE('',#1871,#1920);
#1922 = EDGE_CURVE('',#1873,#1888,#1921,.T.);
#1923 = ORIENTED_EDGE('',*,*,#1922,.F.);
#1924 = EDGE_LOOP('',(#1914,#1918,#1919,#1923));
#1925 = FACE_OUTER_BOUND('',#1924,.T.);
#1926 = ADVANCED_FACE('',(#1925),#1913,.T.);
#1927 = AXIS2_PLACEMENT_3D('',#1860,#21,#16);
#1928 = PLANE('',#1927);
#1929 = ORIENTED_EDGE('',*,*,#1862,.F.);
#1930 = VECTOR('',#16,1.);
#1931 = LINE('',#1854,#1930);
#1932 = EDGE_CURVE('',#1859,#1902,#1931,.T.);
#1933 = ORIENTED_EDGE('',*,*,#1932,.T.);
#1934 = ORIENTED_EDGE('',*,*,#1903,.T.);
#1935 = VECTOR('',#16,1.);
#1936 = LINE('',#1860,#1935);
#1937 = EDGE_CURVE('',#1861,#1896,#1936,.T.);
#1938 = ORIENTED_EDGE('',*,*,#1937,.F.);
#1939 = EDGE_LOOP('',(#1929,#1933,#1934,#1938));
#1940 = FACE_OUTER_BOUND('',#1939,.T.);
#1941 = ADVANCED_FACE('',(#1940),#1928,.T.);
#1942 = AXIS2_PLACEMENT_3D('',#1854,#110,#16);
#1943 = PLANE('',#1942);
#1944 = ORIENTED_EDGE('',*,*,#1878,.F.);
#1945 = ORIENTED_EDGE('',*,*,#1922,.T.);
#1946 = ORIENTED_EDGE('',*,*,#1907,.T.);
#1947 = ORIENTED_EDGE('',*,*,#1932,.F.);
#1948 = EDGE_LOOP('',(#1944,#1945,#1946,#1947));
#1949 = FACE_OUTER_BOUND('',#1948,.T.);
#1950 = ADVANCED_FACE('',(#1949),#1943,.T.);
#1951 = AXIS2_PLACEMENT_3D('',#1865,#17,#20);
#1952 = PLANE('',#1951);
#1953 = ORIENTED_EDGE('',*,*,#1868,.T.);
#1954 = ORIENTED_EDGE('',*,*,#1937,.T.);
#1955 = ORIENTED_EDGE('',*,*,#1897,.F.);
#1956 = ORIENTED_EDGE('',*,*,#1917,.F.);
#1957 = EDGE_LOOP('',(#1953,#1954,#1955,#1956));
#1958 = FACE_OUTER_BOUND('',#1957,.T.);
#1959 = ADVANCED_FACE('',(#1958),#1952,.T.);
#1960 = CLOSED_SHELL('',(#1882,#1911,#1926,#1941,#1950,#1959));
#1961 = MANIFOLD_SOLID_BREP('led_lead',#1960);
#1962 = ADVANCED_BREP_SHAPE_REPRESENTATION('LS601-CU',(#18,#130,#238,#346,#454,#700,#910,#1114,#1325,#1529,#1637,#1745,#1853,#1961),#9);
#1963 = SHAPE_DEFINITION_REPRESENTATION(#8,#1962);
#1964 = COLOUR_RGB('',0.13,0.13,0.14);
#1965 = FILL_AREA_STYLE_COLOUR('',#1964);
#1966 = FILL_AREA_STYLE('',(#1965));
#1967 = SURFACE_STYLE_FILL_AREA(#1966);
#1968 = SURFACE_SIDE_STYLE('',(#1967));
#1969 = SURFACE_STYLE_USAGE(.BOTH.,#1968);
#1970 = PRESENTATION_STYLE_ASSIGNMENT((#1969));
#1971 = STYLED_ITEM('NONE',(#1970),#130);
#1972 = STYLED_ITEM('NONE',(#1970),#49);
#1973 = STYLED_ITEM('NONE',(#1970),#79);
#1974 = STYLED_ITEM('NONE',(#1970),#94);
#1975 = STYLED_ITEM('NONE',(#1970),#109);
#1976 = STYLED_ITEM('NONE',(#1970),#119);
#1977 = STYLED_ITEM('NONE',(#1970),#128);
#1978 = STYLED_ITEM('NONE',(#1970),#238);
#1979 = STYLED_ITEM('NONE',(#1970),#159);
#1980 = STYLED_ITEM('NONE',(#1970),#188);
#1981 = STYLED_ITEM('NONE',(#1970),#203);
#1982 = STYLED_ITEM('NONE',(#1970),#218);
#1983 = STYLED_ITEM('NONE',(#1970),#227);
#1984 = STYLED_ITEM('NONE',(#1970),#236);
#1985 = STYLED_ITEM('NONE',(#1970),#346);
#1986 = STYLED_ITEM('NONE',(#1970),#267);
#1987 = STYLED_ITEM('NONE',(#1970),#296);
#1988 = STYLED_ITEM('NONE',(#1970),#311);
#1989 = STYLED_ITEM('NONE',(#1970),#326);
#1990 = STYLED_ITEM('NONE',(#1970),#335);
#1991 = STYLED_ITEM('NONE',(#1970),#344);
#1992 = COLOUR_RGB('',0.88,0.87,0.8);
#1993 = FILL_AREA_STYLE_COLOUR('',#1992);
#1994 = FILL_AREA_STYLE('',(#1993));
#1995 = SURFACE_STYLE_FILL_AREA(#1994);
#1996 = SURFACE_SIDE_STYLE('',(#1995));
#1997 = SURFACE_STYLE_USAGE(.BOTH.,#1996);
#1998 = PRESENTATION_STYLE_ASSIGNMENT((#1997));
#1999 = STYLED_ITEM('NONE',(#1998),#454);
#2000 = STYLED_ITEM('NONE',(#1998),#375);
#2001 = STYLED_ITEM('NONE',(#1998),#404);
#2002 = STYLED_ITEM('NONE',(#1998),#419);
#2003 = STYLED_ITEM('NONE',(#1998),#434);
#2004 = STYLED_ITEM('NONE',(#1998),#443);
#2005 = STYLED_ITEM('NONE',(#1998),#452);
#2006 = COLOUR_RGB('',0.94,0.94,0.89);
#2007 = FILL_AREA_STYLE_COLOUR('',#2006);
#2008 = FILL_AREA_STYLE('',(#2007));
#2009 = SURFACE_STYLE_FILL_AREA(#2008);
#2010 = SURFACE_SIDE_STYLE('',(#2009));
#2011 = SURFACE_STYLE_USAGE(.BOTH.,#2010);
#2012 = PRESENTATION_STYLE_ASSIGNMENT((#2011));
#2013 = STYLED_ITEM('NONE',(#2012),#700);
#2014 = STYLED_ITEM('NONE',(#2012),#483);
#2015 = STYLED_ITEM('NONE',(#2012),#505);
#2016 = STYLED_ITEM('NONE',(#2012),#522);
#2017 = STYLED_ITEM('NONE',(#2012),#539);
#2018 = STYLED_ITEM('NONE',(#2012),#551);
#2019 = STYLED_ITEM('NONE',(#2012),#580);
#2020 = STYLED_ITEM('NONE',(#2012),#602);
#2021 = STYLED_ITEM('NONE',(#2012),#624);
#2022 = STYLED_ITEM('NONE',(#2012),#639);
#2023 = STYLED_ITEM('NONE',(#2012),#648);
#2024 = STYLED_ITEM('NONE',(#2012),#665);
#2025 = STYLED_ITEM('NONE',(#2012),#677);
#2026 = STYLED_ITEM('NONE',(#2012),#689);
#2027 = STYLED_ITEM('NONE',(#2012),#698);
#2028 = COLOUR_RGB('',0.75,0.76,0.78);
#2029 = FILL_AREA_STYLE_COLOUR('',#2028);
#2030 = FILL_AREA_STYLE('',(#2029));
#2031 = SURFACE_STYLE_FILL_AREA(#2030);
#2032 = SURFACE_SIDE_STYLE('',(#2031));
#2033 = SURFACE_STYLE_USAGE(.BOTH.,#2032);
#2034 = PRESENTATION_STYLE_ASSIGNMENT((#2033));
#2035 = STYLED_ITEM('NONE',(#2034),#910);
#2036 = STYLED_ITEM('NONE',(#2034),#756);
#2037 = STYLED_ITEM('NONE',(#2034),#809);
#2038 = STYLED_ITEM('NONE',(#2034),#824);
#2039 = STYLED_ITEM('NONE',(#2034),#837);
#2040 = STYLED_ITEM('NONE',(#2034),#849);
#2041 = STYLED_ITEM('NONE',(#2034),#861);
#2042 = STYLED_ITEM('NONE',(#2034),#873);
#2043 = STYLED_ITEM('NONE',(#2034),#886);
#2044 = STYLED_ITEM('NONE',(#2034),#899);
#2045 = STYLED_ITEM('NONE',(#2034),#908);
#2046 = STYLED_ITEM('NONE',(#2034),#1114);
#2047 = STYLED_ITEM('NONE',(#2034),#963);
#2048 = STYLED_ITEM('NONE',(#2034),#1016);
#2049 = STYLED_ITEM('NONE',(#2034),#1031);
#2050 = STYLED_ITEM('NONE',(#2034),#1043);
#2051 = STYLED_ITEM('NONE',(#2034),#1055);
#2052 = STYLED_ITEM('NONE',(#2034),#1067);
#2053 = STYLED_ITEM('NONE',(#2034),#1079);
#2054 = STYLED_ITEM('NONE',(#2034),#1091);
#2055 = STYLED_ITEM('NONE',(#2034),#1103);
#2056 = STYLED_ITEM('NONE',(#2034),#1112);
#2057 = STYLED_ITEM('NONE',(#2034),#1325);
#2058 = STYLED_ITEM('NONE',(#2034),#1170);
#2059 = STYLED_ITEM('NONE',(#2034),#1223);
#2060 = STYLED_ITEM('NONE',(#2034),#1238);
#2061 = STYLED_ITEM('NONE',(#2034),#1251);
#2062 = STYLED_ITEM('NONE',(#2034),#1263);
#2063 = STYLED_ITEM('NONE',(#2034),#1275);
#2064 = STYLED_ITEM('NONE',(#2034),#1287);
#2065 = STYLED_ITEM('NONE',(#2034),#1300);
#2066 = STYLED_ITEM('NONE',(#2034),#1313);
#2067 = STYLED_ITEM('NONE',(#2034),#1323);
#2068 = STYLED_ITEM('NONE',(#2034),#1529);
#2069 = STYLED_ITEM('NONE',(#2034),#1378);
#2070 = STYLED_ITEM('NONE',(#2034),#1431);
#2071 = STYLED_ITEM('NONE',(#2034),#1446);
#2072 = STYLED_ITEM('NONE',(#2034),#1458);
#2073 = STYLED_ITEM('NONE',(#2034),#1470);
#2074 = STYLED_ITEM('NONE',(#2034),#1482);
#2075 = STYLED_ITEM('NONE',(#2034),#1494);
#2076 = STYLED_ITEM('NONE',(#2034),#1506);
#2077 = STYLED_ITEM('NONE',(#2034),#1518);
#2078 = STYLED_ITEM('NONE',(#2034),#1527);
#2079 = STYLED_ITEM('NONE',(#2034),#1637);
#2080 = STYLED_ITEM('NONE',(#2034),#1558);
#2081 = STYLED_ITEM('NONE',(#2034),#1587);
#2082 = STYLED_ITEM('NONE',(#2034),#1602);
#2083 = STYLED_ITEM('NONE',(#2034),#1617);
#2084 = STYLED_ITEM('NONE',(#2034),#1626);
#2085 = STYLED_ITEM('NONE',(#2034),#1635);
#2086 = STYLED_ITEM('NONE',(#2034),#1745);
#2087 = STYLED_ITEM('NONE',(#2034),#1666);
#2088 = STYLED_ITEM('NONE',(#2034),#1695);
#2089 = STYLED_ITEM('NONE',(#2034),#1710);
#2090 = STYLED_ITEM('NONE',(#2034),#1725);
#2091 = STYLED_ITEM('NONE',(#2034),#1734);
#2092 = STYLED_ITEM('NONE',(#2034),#1743);
#2093 = STYLED_ITEM('NONE',(#2034),#1853);
#2094 = STYLED_ITEM('NONE',(#2034),#1774);
#2095 = STYLED_ITEM('NONE',(#2034),#1803);
#2096 = STYLED_ITEM('NONE',(#2034),#1818);
#2097 = STYLED_ITEM('NONE',(#2034),#1833);
#2098 = STYLED_ITEM('NONE',(#2034),#1842);
#2099 = STYLED_ITEM('NONE',(#2034),#1851);
#2100 = STYLED_ITEM('NONE',(#2034),#1961);
#2101 = STYLED_ITEM('NONE',(#2034),#1882);
#2102 = STYLED_ITEM('NONE',(#2034),#1911);
#2103 = STYLED_ITEM('NONE',(#2034),#1926);
#2104 = STYLED_ITEM('NONE',(#2034),#1941);
#2105 = STYLED_ITEM('NONE',(#2034),#1950);
#2106 = STYLED_ITEM('NONE',(#2034),#1959);
#2107 = MECHANICAL_DESIGN_GEOMETRIC_PRESENTATION_REPRESENTATION('',(#1971,#1972,#1973,#1974,#1975,#1976,#1977,#1978,#1979,#1980,#1981,#1982,#1983,#1984,#1985,#1986,#1987,#1988,#1989,#1990,#1991,#1999,#2000,#2001,#2002,#2003,#2004,#2005,#2013,#2014,#2015,#2016,#2017,#2018,#2019,#2020,#2021,#2022,#2023,#2024,#2025,#2026,#2027,#2035,#2036,#2037,#2038,#2039,#2040,#2041,#2042,#2043,#2044,#2045,#2046,#2047,#2048,#2049,#2050,#2051,#2052,#2053,#2054,#2055,#2056,#2057,#2058,#2059,#2060,#2061,#2062,#2063,#2064,#2065,#2066,#2067,#2068,#2069,#2070,#2071,#2072,#2073,#2074,#2075,#2076,#2077,#2078,#2079,#2080,#2081,#2082,#2083,#2084,#2085,#2086,#2087,#2088,#2089,#2090,#2091,#2092,#2093,#2094,#2095,#2096,#2097,#2098,#2099,#2100,#2101,#2102,#2103,#2104,#2105,#2106),#9);
ENDSEC;
END-ISO-10303-21;
