G04 #@! TF.GenerationSoftware,KiCad,Pcbnew,8.0.4+dfsg-1*
G04 #@! TF.CreationDate,2025-03-02T17:51:02+09:00*
G04 #@! TF.ProjectId,bionic-mc68008,62696f6e-6963-42d6-9d63-36383030382e,2*
G04 #@! TF.SameCoordinates,Original*
G04 #@! TF.FileFunction,Copper,L2,Inr*
G04 #@! TF.FilePolarity,Positive*
%FSLAX46Y46*%
G04 Gerber Fmt 4.6, Leading zero omitted, Abs format (unit mm)*
G04 Created by KiCad (PCBNEW 8.0.4+dfsg-1) date 2025-03-02 17:51:02*
%MOMM*%
%LPD*%
G01*
G04 APERTURE LIST*
G04 #@! TA.AperFunction,ComponentPad*
%ADD10R,1.600000X1.600000*%
G04 #@! TD*
G04 #@! TA.AperFunction,ComponentPad*
%ADD11O,1.600000X1.600000*%
G04 #@! TD*
G04 #@! TA.AperFunction,ComponentPad*
%ADD12R,1.700000X1.700000*%
G04 #@! TD*
G04 #@! TA.AperFunction,ComponentPad*
%ADD13O,1.700000X1.700000*%
G04 #@! TD*
G04 #@! TA.AperFunction,ViaPad*
%ADD14C,0.600000*%
G04 #@! TD*
G04 APERTURE END LIST*
D10*
X106080000Y-75080000D03*
D11*
X106080000Y-77620000D03*
X106080000Y-80160000D03*
X106080000Y-82700000D03*
X106080000Y-85240000D03*
X106080000Y-87780000D03*
X106080000Y-90320000D03*
X106080000Y-92860000D03*
X106080000Y-95400000D03*
X106080000Y-97940000D03*
X106080000Y-100480000D03*
X106080000Y-103020000D03*
X106080000Y-105560000D03*
X106080000Y-108100000D03*
X106080000Y-110640000D03*
X106080000Y-113180000D03*
X106080000Y-115720000D03*
X106080000Y-118260000D03*
X106080000Y-120800000D03*
X106080000Y-123340000D03*
X106080000Y-125880000D03*
X106080000Y-128420000D03*
X106080000Y-130960000D03*
X106080000Y-133500000D03*
X121320000Y-133500000D03*
X121320000Y-130960000D03*
X121320000Y-128420000D03*
X121320000Y-125880000D03*
X121320000Y-123340000D03*
X121320000Y-120800000D03*
X121320000Y-118260000D03*
X121320000Y-115720000D03*
X121320000Y-113180000D03*
X121320000Y-110640000D03*
X121320000Y-108100000D03*
X121320000Y-105560000D03*
X121320000Y-103020000D03*
X121320000Y-100480000D03*
X121320000Y-97940000D03*
X121320000Y-95400000D03*
X121320000Y-92860000D03*
X121320000Y-90320000D03*
X121320000Y-87780000D03*
X121320000Y-85240000D03*
X121320000Y-82700000D03*
X121320000Y-80160000D03*
X121320000Y-77620000D03*
X121320000Y-75080000D03*
D12*
X109885400Y-75080000D03*
D13*
X109885400Y-133500000D03*
X117489200Y-133500000D03*
D12*
X117489200Y-75080000D03*
D14*
X107477000Y-94130000D03*
X117891000Y-111783000D03*
X117637000Y-97051000D03*
X119034000Y-86129000D03*
X110652000Y-98956000D03*
X112811000Y-79652000D03*
X116240000Y-127658000D03*
X122971000Y-77366000D03*
X118689800Y-80250200D03*
X108620000Y-84351000D03*
X108018800Y-86651100D03*
X108239000Y-91717000D03*
X111763400Y-94486000D03*
X112049000Y-90309300D03*
X111140800Y-85534200D03*
X114261600Y-84347000D03*
X116875000Y-82700000D03*
X113413900Y-84605000D03*
X118998000Y-84045600D03*
X116889200Y-117752000D03*
X115880900Y-98308200D03*
X113700000Y-122451000D03*
X111318950Y-130991950D03*
X110855800Y-121788500D03*
X113477600Y-81360000D03*
X114309600Y-86264400D03*
X108703736Y-106913736D03*
X112899400Y-92399900D03*
X113713700Y-92512000D03*
X113685300Y-104798000D03*
X112557000Y-97686000D03*
X114269800Y-98279200D03*
X112075000Y-85494000D03*
X111737000Y-109893500D03*
X112453400Y-98554765D03*
X119243500Y-116251200D03*
X118733800Y-122298200D03*
X113362265Y-118216735D03*
X109636000Y-98653100D03*
X105064000Y-104290000D03*
X108874000Y-108100000D03*
X114494848Y-112970122D03*
X112879000Y-113000700D03*
X114025000Y-103020000D03*
X115394100Y-103056100D03*
G04 #@! TA.AperFunction,Conductor*
G36*
X125134309Y-70100877D02*
G01*
X125324457Y-70117512D01*
X125341437Y-70120505D01*
X125521635Y-70168789D01*
X125537839Y-70174687D01*
X125706902Y-70253523D01*
X125721842Y-70262149D01*
X125874641Y-70369140D01*
X125887861Y-70380232D01*
X126019767Y-70512138D01*
X126030859Y-70525358D01*
X126137850Y-70678157D01*
X126146478Y-70693101D01*
X126225308Y-70862151D01*
X126231211Y-70878368D01*
X126279492Y-71058555D01*
X126282488Y-71075550D01*
X126299123Y-71265690D01*
X126299500Y-71274318D01*
X126299500Y-137305681D01*
X126299123Y-137314309D01*
X126282488Y-137504449D01*
X126279492Y-137521444D01*
X126231211Y-137701631D01*
X126225308Y-137717848D01*
X126146478Y-137886898D01*
X126137850Y-137901842D01*
X126030859Y-138054641D01*
X126019767Y-138067861D01*
X125887861Y-138199767D01*
X125874641Y-138210859D01*
X125721842Y-138317850D01*
X125706898Y-138326478D01*
X125537848Y-138405308D01*
X125521631Y-138411211D01*
X125341444Y-138459492D01*
X125324449Y-138462488D01*
X125134309Y-138479123D01*
X125125681Y-138479500D01*
X102274319Y-138479500D01*
X102265691Y-138479123D01*
X102075550Y-138462488D01*
X102058555Y-138459492D01*
X101878368Y-138411211D01*
X101862154Y-138405309D01*
X101693100Y-138326477D01*
X101678157Y-138317850D01*
X101525358Y-138210859D01*
X101512138Y-138199767D01*
X101380232Y-138067861D01*
X101369140Y-138054641D01*
X101262149Y-137901842D01*
X101253523Y-137886902D01*
X101174687Y-137717839D01*
X101168788Y-137701631D01*
X101149843Y-137630926D01*
X101120505Y-137521437D01*
X101117512Y-137504457D01*
X101100877Y-137314309D01*
X101100500Y-137305681D01*
X101100500Y-133500000D01*
X104974785Y-133500000D01*
X104993603Y-133703083D01*
X105049418Y-133899250D01*
X105140327Y-134081821D01*
X105263236Y-134244579D01*
X105413959Y-134381981D01*
X105587363Y-134489348D01*
X105777544Y-134563024D01*
X105978024Y-134600500D01*
X106181976Y-134600500D01*
X106382456Y-134563024D01*
X106572637Y-134489348D01*
X106746041Y-134381981D01*
X106896764Y-134244579D01*
X107019673Y-134081821D01*
X107110582Y-133899250D01*
X107166397Y-133703083D01*
X107185215Y-133500000D01*
X108729971Y-133500000D01*
X108749644Y-133712310D01*
X108807995Y-133917389D01*
X108903034Y-134108255D01*
X109031528Y-134278407D01*
X109031535Y-134278413D01*
X109189092Y-134422047D01*
X109189099Y-134422053D01*
X109292789Y-134486255D01*
X109370381Y-134534298D01*
X109569202Y-134611321D01*
X109778790Y-134650500D01*
X109992010Y-134650500D01*
X110201598Y-134611321D01*
X110400419Y-134534298D01*
X110581702Y-134422052D01*
X110739272Y-134278407D01*
X110867766Y-134108255D01*
X110962805Y-133917389D01*
X111021156Y-133712310D01*
X111040829Y-133500000D01*
X116333771Y-133500000D01*
X116353444Y-133712310D01*
X116411795Y-133917389D01*
X116506834Y-134108255D01*
X116635328Y-134278407D01*
X116635335Y-134278413D01*
X116792892Y-134422047D01*
X116792899Y-134422053D01*
X116896589Y-134486255D01*
X116974181Y-134534298D01*
X117173002Y-134611321D01*
X117382590Y-134650500D01*
X117595810Y-134650500D01*
X117805398Y-134611321D01*
X118004219Y-134534298D01*
X118185502Y-134422052D01*
X118343072Y-134278407D01*
X118471566Y-134108255D01*
X118566605Y-133917389D01*
X118624956Y-133712310D01*
X118644629Y-133500000D01*
X120214785Y-133500000D01*
X120233603Y-133703083D01*
X120289418Y-133899250D01*
X120380327Y-134081821D01*
X120503236Y-134244579D01*
X120653959Y-134381981D01*
X120827363Y-134489348D01*
X121017544Y-134563024D01*
X121218024Y-134600500D01*
X121421976Y-134600500D01*
X121622456Y-134563024D01*
X121812637Y-134489348D01*
X121986041Y-134381981D01*
X122136764Y-134244579D01*
X122259673Y-134081821D01*
X122350582Y-133899250D01*
X122406397Y-133703083D01*
X122425215Y-133500000D01*
X122406397Y-133296917D01*
X122350582Y-133100750D01*
X122259673Y-132918179D01*
X122136764Y-132755421D01*
X121986041Y-132618019D01*
X121812637Y-132510652D01*
X121622456Y-132436976D01*
X121622455Y-132436975D01*
X121622453Y-132436975D01*
X121421976Y-132399500D01*
X121218024Y-132399500D01*
X121017546Y-132436975D01*
X120947632Y-132464059D01*
X120827363Y-132510652D01*
X120718676Y-132577948D01*
X120653959Y-132618019D01*
X120503237Y-132755420D01*
X120380328Y-132918177D01*
X120380323Y-132918186D01*
X120298450Y-133082611D01*
X120289418Y-133100750D01*
X120233603Y-133296917D01*
X120214785Y-133500000D01*
X118644629Y-133500000D01*
X118624956Y-133287690D01*
X118566605Y-133082611D01*
X118471566Y-132891745D01*
X118343072Y-132721593D01*
X118288823Y-132672139D01*
X118185507Y-132577952D01*
X118185500Y-132577946D01*
X118004224Y-132465705D01*
X118004219Y-132465702D01*
X117805395Y-132388678D01*
X117595810Y-132349500D01*
X117382590Y-132349500D01*
X117173004Y-132388678D01*
X116974180Y-132465702D01*
X116974175Y-132465705D01*
X116792899Y-132577946D01*
X116792892Y-132577952D01*
X116635335Y-132721586D01*
X116635331Y-132721589D01*
X116635328Y-132721593D01*
X116635325Y-132721597D01*
X116506835Y-132891743D01*
X116506830Y-132891752D01*
X116411796Y-133082608D01*
X116353444Y-133287688D01*
X116353444Y-133287690D01*
X116333771Y-133500000D01*
X111040829Y-133500000D01*
X111021156Y-133287690D01*
X110962805Y-133082611D01*
X110867766Y-132891745D01*
X110739272Y-132721593D01*
X110685023Y-132672139D01*
X110581707Y-132577952D01*
X110581700Y-132577946D01*
X110400424Y-132465705D01*
X110400419Y-132465702D01*
X110201595Y-132388678D01*
X109992010Y-132349500D01*
X109778790Y-132349500D01*
X109569204Y-132388678D01*
X109370380Y-132465702D01*
X109370375Y-132465705D01*
X109189099Y-132577946D01*
X109189092Y-132577952D01*
X109031535Y-132721586D01*
X109031531Y-132721589D01*
X109031528Y-132721593D01*
X109031525Y-132721597D01*
X108903035Y-132891743D01*
X108903030Y-132891752D01*
X108807996Y-133082608D01*
X108749644Y-133287688D01*
X108749644Y-133287690D01*
X108729971Y-133500000D01*
X107185215Y-133500000D01*
X107166397Y-133296917D01*
X107110582Y-133100750D01*
X107019673Y-132918179D01*
X106896764Y-132755421D01*
X106746041Y-132618019D01*
X106572637Y-132510652D01*
X106382456Y-132436976D01*
X106382455Y-132436975D01*
X106382453Y-132436975D01*
X106181976Y-132399500D01*
X105978024Y-132399500D01*
X105777546Y-132436975D01*
X105707632Y-132464059D01*
X105587363Y-132510652D01*
X105478676Y-132577948D01*
X105413959Y-132618019D01*
X105263237Y-132755420D01*
X105140328Y-132918177D01*
X105140323Y-132918186D01*
X105058450Y-133082611D01*
X105049418Y-133100750D01*
X104993603Y-133296917D01*
X104974785Y-133500000D01*
X101100500Y-133500000D01*
X101100500Y-130960000D01*
X104974785Y-130960000D01*
X104993603Y-131163083D01*
X105049418Y-131359250D01*
X105140327Y-131541821D01*
X105263236Y-131704579D01*
X105413959Y-131841981D01*
X105587363Y-131949348D01*
X105777544Y-132023024D01*
X105978024Y-132060500D01*
X106181976Y-132060500D01*
X106382456Y-132023024D01*
X106572637Y-131949348D01*
X106746041Y-131841981D01*
X106896764Y-131704579D01*
X107019673Y-131541821D01*
X107110582Y-131359250D01*
X107166397Y-131163083D01*
X107182255Y-130991949D01*
X110713268Y-130991949D01*
X110713268Y-130991950D01*
X110733905Y-131148708D01*
X110733907Y-131148716D01*
X110794412Y-131294788D01*
X110794412Y-131294789D01*
X110890663Y-131420226D01*
X110890668Y-131420232D01*
X111016109Y-131516486D01*
X111016110Y-131516486D01*
X111016111Y-131516487D01*
X111077273Y-131541821D01*
X111162188Y-131576994D01*
X111279759Y-131592472D01*
X111318949Y-131597632D01*
X111318950Y-131597632D01*
X111318951Y-131597632D01*
X111350302Y-131593504D01*
X111475712Y-131576994D01*
X111621791Y-131516486D01*
X111747232Y-131420232D01*
X111843486Y-131294791D01*
X111903994Y-131148712D01*
X111924632Y-130991950D01*
X111920426Y-130960000D01*
X120214785Y-130960000D01*
X120233603Y-131163083D01*
X120289418Y-131359250D01*
X120380327Y-131541821D01*
X120503236Y-131704579D01*
X120653959Y-131841981D01*
X120827363Y-131949348D01*
X121017544Y-132023024D01*
X121218024Y-132060500D01*
X121421976Y-132060500D01*
X121622456Y-132023024D01*
X121812637Y-131949348D01*
X121986041Y-131841981D01*
X122136764Y-131704579D01*
X122259673Y-131541821D01*
X122350582Y-131359250D01*
X122406397Y-131163083D01*
X122425215Y-130960000D01*
X122406397Y-130756917D01*
X122350582Y-130560750D01*
X122259673Y-130378179D01*
X122136764Y-130215421D01*
X121986041Y-130078019D01*
X121812637Y-129970652D01*
X121622456Y-129896976D01*
X121622455Y-129896975D01*
X121622453Y-129896975D01*
X121421976Y-129859500D01*
X121218024Y-129859500D01*
X121017546Y-129896975D01*
X120947632Y-129924059D01*
X120827363Y-129970652D01*
X120653959Y-130078019D01*
X120503237Y-130215420D01*
X120380328Y-130378177D01*
X120380323Y-130378186D01*
X120289419Y-130560747D01*
X120289418Y-130560750D01*
X120233603Y-130756917D01*
X120214785Y-130960000D01*
X111920426Y-130960000D01*
X111903994Y-130835188D01*
X111843487Y-130689111D01*
X111843487Y-130689110D01*
X111747236Y-130563673D01*
X111747235Y-130563672D01*
X111747232Y-130563668D01*
X111747227Y-130563664D01*
X111747226Y-130563663D01*
X111621788Y-130467412D01*
X111475716Y-130406907D01*
X111475708Y-130406905D01*
X111318951Y-130386268D01*
X111318949Y-130386268D01*
X111162191Y-130406905D01*
X111162183Y-130406907D01*
X111016111Y-130467412D01*
X111016110Y-130467412D01*
X110890673Y-130563663D01*
X110890663Y-130563673D01*
X110794412Y-130689110D01*
X110794412Y-130689111D01*
X110733907Y-130835183D01*
X110733905Y-130835191D01*
X110713268Y-130991949D01*
X107182255Y-130991949D01*
X107185215Y-130960000D01*
X107166397Y-130756917D01*
X107110582Y-130560750D01*
X107019673Y-130378179D01*
X106896764Y-130215421D01*
X106746041Y-130078019D01*
X106572637Y-129970652D01*
X106382456Y-129896976D01*
X106382455Y-129896975D01*
X106382453Y-129896975D01*
X106181976Y-129859500D01*
X105978024Y-129859500D01*
X105777546Y-129896975D01*
X105707632Y-129924059D01*
X105587363Y-129970652D01*
X105413959Y-130078019D01*
X105263237Y-130215420D01*
X105140328Y-130378177D01*
X105140323Y-130378186D01*
X105049419Y-130560747D01*
X105049418Y-130560750D01*
X104993603Y-130756917D01*
X104974785Y-130960000D01*
X101100500Y-130960000D01*
X101100500Y-128420000D01*
X104974785Y-128420000D01*
X104993603Y-128623083D01*
X105049418Y-128819250D01*
X105140327Y-129001821D01*
X105263236Y-129164579D01*
X105413959Y-129301981D01*
X105587363Y-129409348D01*
X105777544Y-129483024D01*
X105978024Y-129520500D01*
X106181976Y-129520500D01*
X106382456Y-129483024D01*
X106572637Y-129409348D01*
X106746041Y-129301981D01*
X106896764Y-129164579D01*
X107019673Y-129001821D01*
X107110582Y-128819250D01*
X107166397Y-128623083D01*
X107185215Y-128420000D01*
X120214785Y-128420000D01*
X120233603Y-128623083D01*
X120289418Y-128819250D01*
X120380327Y-129001821D01*
X120503236Y-129164579D01*
X120653959Y-129301981D01*
X120827363Y-129409348D01*
X121017544Y-129483024D01*
X121218024Y-129520500D01*
X121421976Y-129520500D01*
X121622456Y-129483024D01*
X121812637Y-129409348D01*
X121986041Y-129301981D01*
X122136764Y-129164579D01*
X122259673Y-129001821D01*
X122350582Y-128819250D01*
X122406397Y-128623083D01*
X122425215Y-128420000D01*
X122406397Y-128216917D01*
X122350582Y-128020750D01*
X122259673Y-127838179D01*
X122136764Y-127675421D01*
X121986041Y-127538019D01*
X121812637Y-127430652D01*
X121622456Y-127356976D01*
X121622455Y-127356975D01*
X121622453Y-127356975D01*
X121421976Y-127319500D01*
X121218024Y-127319500D01*
X121017546Y-127356975D01*
X120947632Y-127384059D01*
X120827363Y-127430652D01*
X120713358Y-127501241D01*
X120653959Y-127538019D01*
X120503237Y-127675420D01*
X120380328Y-127838177D01*
X120380323Y-127838186D01*
X120289419Y-128020747D01*
X120289418Y-128020750D01*
X120233603Y-128216917D01*
X120214785Y-128420000D01*
X107185215Y-128420000D01*
X107166397Y-128216917D01*
X107110582Y-128020750D01*
X107019673Y-127838179D01*
X106896764Y-127675421D01*
X106877653Y-127657999D01*
X115634318Y-127657999D01*
X115634318Y-127658000D01*
X115654955Y-127814758D01*
X115654957Y-127814766D01*
X115715462Y-127960838D01*
X115715462Y-127960839D01*
X115811713Y-128086276D01*
X115811718Y-128086282D01*
X115937159Y-128182536D01*
X116083238Y-128243044D01*
X116200809Y-128258522D01*
X116239999Y-128263682D01*
X116240000Y-128263682D01*
X116240001Y-128263682D01*
X116271352Y-128259554D01*
X116396762Y-128243044D01*
X116542841Y-128182536D01*
X116668282Y-128086282D01*
X116764536Y-127960841D01*
X116825044Y-127814762D01*
X116845682Y-127658000D01*
X116825044Y-127501238D01*
X116764537Y-127355161D01*
X116764537Y-127355160D01*
X116668286Y-127229723D01*
X116668285Y-127229722D01*
X116668282Y-127229718D01*
X116668277Y-127229714D01*
X116668276Y-127229713D01*
X116542838Y-127133462D01*
X116396766Y-127072957D01*
X116396758Y-127072955D01*
X116240001Y-127052318D01*
X116239999Y-127052318D01*
X116083241Y-127072955D01*
X116083233Y-127072957D01*
X115937161Y-127133462D01*
X115937160Y-127133462D01*
X115811723Y-127229713D01*
X115811713Y-127229723D01*
X115715462Y-127355160D01*
X115715462Y-127355161D01*
X115654957Y-127501233D01*
X115654955Y-127501241D01*
X115634318Y-127657999D01*
X106877653Y-127657999D01*
X106746041Y-127538019D01*
X106572637Y-127430652D01*
X106382456Y-127356976D01*
X106382455Y-127356975D01*
X106382453Y-127356975D01*
X106181976Y-127319500D01*
X105978024Y-127319500D01*
X105777546Y-127356975D01*
X105707632Y-127384059D01*
X105587363Y-127430652D01*
X105473358Y-127501241D01*
X105413959Y-127538019D01*
X105263237Y-127675420D01*
X105140328Y-127838177D01*
X105140323Y-127838186D01*
X105049419Y-128020747D01*
X105049418Y-128020750D01*
X104993603Y-128216917D01*
X104974785Y-128420000D01*
X101100500Y-128420000D01*
X101100500Y-125880000D01*
X104974785Y-125880000D01*
X104993603Y-126083083D01*
X105049418Y-126279250D01*
X105140327Y-126461821D01*
X105263236Y-126624579D01*
X105413959Y-126761981D01*
X105587363Y-126869348D01*
X105777544Y-126943024D01*
X105978024Y-126980500D01*
X106181976Y-126980500D01*
X106382456Y-126943024D01*
X106572637Y-126869348D01*
X106746041Y-126761981D01*
X106896764Y-126624579D01*
X107019673Y-126461821D01*
X107110582Y-126279250D01*
X107166397Y-126083083D01*
X107185215Y-125880000D01*
X120214785Y-125880000D01*
X120233603Y-126083083D01*
X120289418Y-126279250D01*
X120380327Y-126461821D01*
X120503236Y-126624579D01*
X120653959Y-126761981D01*
X120827363Y-126869348D01*
X121017544Y-126943024D01*
X121218024Y-126980500D01*
X121421976Y-126980500D01*
X121622456Y-126943024D01*
X121812637Y-126869348D01*
X121986041Y-126761981D01*
X122136764Y-126624579D01*
X122259673Y-126461821D01*
X122350582Y-126279250D01*
X122406397Y-126083083D01*
X122425215Y-125880000D01*
X122406397Y-125676917D01*
X122350582Y-125480750D01*
X122259673Y-125298179D01*
X122136764Y-125135421D01*
X121986041Y-124998019D01*
X121812637Y-124890652D01*
X121622456Y-124816976D01*
X121622455Y-124816975D01*
X121622453Y-124816975D01*
X121421976Y-124779500D01*
X121218024Y-124779500D01*
X121017546Y-124816975D01*
X120947632Y-124844059D01*
X120827363Y-124890652D01*
X120653959Y-124998019D01*
X120503237Y-125135420D01*
X120380328Y-125298177D01*
X120380323Y-125298186D01*
X120289419Y-125480747D01*
X120289418Y-125480750D01*
X120233603Y-125676917D01*
X120214785Y-125880000D01*
X107185215Y-125880000D01*
X107166397Y-125676917D01*
X107110582Y-125480750D01*
X107019673Y-125298179D01*
X106896764Y-125135421D01*
X106746041Y-124998019D01*
X106572637Y-124890652D01*
X106382456Y-124816976D01*
X106382455Y-124816975D01*
X106382453Y-124816975D01*
X106181976Y-124779500D01*
X105978024Y-124779500D01*
X105777546Y-124816975D01*
X105707632Y-124844059D01*
X105587363Y-124890652D01*
X105413959Y-124998019D01*
X105263237Y-125135420D01*
X105140328Y-125298177D01*
X105140323Y-125298186D01*
X105049419Y-125480747D01*
X105049418Y-125480750D01*
X104993603Y-125676917D01*
X104974785Y-125880000D01*
X101100500Y-125880000D01*
X101100500Y-123340000D01*
X104974785Y-123340000D01*
X104993603Y-123543083D01*
X105049418Y-123739250D01*
X105140327Y-123921821D01*
X105263236Y-124084579D01*
X105413959Y-124221981D01*
X105587363Y-124329348D01*
X105777544Y-124403024D01*
X105978024Y-124440500D01*
X106181976Y-124440500D01*
X106382456Y-124403024D01*
X106572637Y-124329348D01*
X106746041Y-124221981D01*
X106896764Y-124084579D01*
X107019673Y-123921821D01*
X107110582Y-123739250D01*
X107166397Y-123543083D01*
X107185215Y-123340000D01*
X120214785Y-123340000D01*
X120233603Y-123543083D01*
X120289418Y-123739250D01*
X120380327Y-123921821D01*
X120503236Y-124084579D01*
X120653959Y-124221981D01*
X120827363Y-124329348D01*
X121017544Y-124403024D01*
X121218024Y-124440500D01*
X121421976Y-124440500D01*
X121622456Y-124403024D01*
X121812637Y-124329348D01*
X121986041Y-124221981D01*
X122136764Y-124084579D01*
X122259673Y-123921821D01*
X122350582Y-123739250D01*
X122406397Y-123543083D01*
X122425215Y-123340000D01*
X122406397Y-123136917D01*
X122350582Y-122940750D01*
X122259673Y-122758179D01*
X122136764Y-122595421D01*
X121986041Y-122458019D01*
X121812637Y-122350652D01*
X121622456Y-122276976D01*
X121622455Y-122276975D01*
X121622453Y-122276975D01*
X121421976Y-122239500D01*
X121218024Y-122239500D01*
X121017546Y-122276975D01*
X120962761Y-122298199D01*
X120827363Y-122350652D01*
X120653959Y-122458019D01*
X120503236Y-122595421D01*
X120463388Y-122648188D01*
X120380328Y-122758177D01*
X120380323Y-122758186D01*
X120289419Y-122940747D01*
X120289418Y-122940750D01*
X120233603Y-123136917D01*
X120214785Y-123340000D01*
X107185215Y-123340000D01*
X107166397Y-123136917D01*
X107110582Y-122940750D01*
X107019673Y-122758179D01*
X106896764Y-122595421D01*
X106746041Y-122458019D01*
X106734703Y-122450999D01*
X113094318Y-122450999D01*
X113094318Y-122451000D01*
X113114955Y-122607758D01*
X113114957Y-122607766D01*
X113175462Y-122753838D01*
X113175462Y-122753839D01*
X113271713Y-122879276D01*
X113271718Y-122879282D01*
X113397159Y-122975536D01*
X113543238Y-123036044D01*
X113660809Y-123051522D01*
X113699999Y-123056682D01*
X113700000Y-123056682D01*
X113700001Y-123056682D01*
X113731352Y-123052554D01*
X113856762Y-123036044D01*
X114002841Y-122975536D01*
X114128282Y-122879282D01*
X114224536Y-122753841D01*
X114285044Y-122607762D01*
X114305682Y-122451000D01*
X114285565Y-122298199D01*
X118128118Y-122298199D01*
X118128118Y-122298200D01*
X118148755Y-122454958D01*
X118148757Y-122454966D01*
X118209262Y-122601038D01*
X118209262Y-122601039D01*
X118209264Y-122601041D01*
X118305518Y-122726482D01*
X118430959Y-122822736D01*
X118430960Y-122822736D01*
X118430961Y-122822737D01*
X118577033Y-122883242D01*
X118577038Y-122883244D01*
X118694609Y-122898722D01*
X118733799Y-122903882D01*
X118733800Y-122903882D01*
X118733801Y-122903882D01*
X118765152Y-122899754D01*
X118890562Y-122883244D01*
X119036641Y-122822736D01*
X119162082Y-122726482D01*
X119258336Y-122601041D01*
X119318844Y-122454962D01*
X119339482Y-122298200D01*
X119338960Y-122294238D01*
X119319729Y-122148160D01*
X119318844Y-122141438D01*
X119269671Y-122022723D01*
X119258337Y-121995361D01*
X119258337Y-121995360D01*
X119162086Y-121869923D01*
X119162085Y-121869922D01*
X119162082Y-121869918D01*
X119162077Y-121869914D01*
X119162076Y-121869913D01*
X119057081Y-121789348D01*
X119036641Y-121773664D01*
X119036640Y-121773663D01*
X119036638Y-121773662D01*
X118890566Y-121713157D01*
X118890558Y-121713155D01*
X118733801Y-121692518D01*
X118733799Y-121692518D01*
X118577041Y-121713155D01*
X118577033Y-121713157D01*
X118430961Y-121773662D01*
X118430960Y-121773662D01*
X118305523Y-121869913D01*
X118305513Y-121869923D01*
X118209262Y-121995360D01*
X118209262Y-121995361D01*
X118148757Y-122141433D01*
X118148755Y-122141441D01*
X118128118Y-122298199D01*
X114285565Y-122298199D01*
X114285044Y-122294238D01*
X114277894Y-122276976D01*
X114224537Y-122148161D01*
X114224537Y-122148160D01*
X114128286Y-122022723D01*
X114128285Y-122022722D01*
X114128282Y-122022718D01*
X114128277Y-122022714D01*
X114128276Y-122022713D01*
X114002838Y-121926462D01*
X113856766Y-121865957D01*
X113856758Y-121865955D01*
X113700001Y-121845318D01*
X113699999Y-121845318D01*
X113543241Y-121865955D01*
X113543233Y-121865957D01*
X113397161Y-121926462D01*
X113397160Y-121926462D01*
X113271723Y-122022713D01*
X113271713Y-122022723D01*
X113175462Y-122148160D01*
X113175462Y-122148161D01*
X113114957Y-122294233D01*
X113114955Y-122294241D01*
X113094318Y-122450999D01*
X106734703Y-122450999D01*
X106572637Y-122350652D01*
X106382456Y-122276976D01*
X106382455Y-122276975D01*
X106382453Y-122276975D01*
X106181976Y-122239500D01*
X105978024Y-122239500D01*
X105777546Y-122276975D01*
X105722761Y-122298199D01*
X105587363Y-122350652D01*
X105413959Y-122458019D01*
X105263236Y-122595421D01*
X105223388Y-122648188D01*
X105140328Y-122758177D01*
X105140323Y-122758186D01*
X105049419Y-122940747D01*
X105049418Y-122940750D01*
X104993603Y-123136917D01*
X104974785Y-123340000D01*
X101100500Y-123340000D01*
X101100500Y-120800000D01*
X104974785Y-120800000D01*
X104993603Y-121003083D01*
X105049418Y-121199250D01*
X105140327Y-121381821D01*
X105263236Y-121544579D01*
X105413959Y-121681981D01*
X105587363Y-121789348D01*
X105777544Y-121863024D01*
X105978024Y-121900500D01*
X106181976Y-121900500D01*
X106382456Y-121863024D01*
X106572637Y-121789348D01*
X106574008Y-121788499D01*
X110250118Y-121788499D01*
X110250118Y-121788500D01*
X110270755Y-121945258D01*
X110270757Y-121945266D01*
X110331262Y-122091338D01*
X110331262Y-122091339D01*
X110374863Y-122148161D01*
X110427518Y-122216782D01*
X110552959Y-122313036D01*
X110699038Y-122373544D01*
X110816609Y-122389022D01*
X110855799Y-122394182D01*
X110855800Y-122394182D01*
X110855801Y-122394182D01*
X110887152Y-122390054D01*
X111012562Y-122373544D01*
X111158641Y-122313036D01*
X111284082Y-122216782D01*
X111380336Y-122091341D01*
X111440844Y-121945262D01*
X111461482Y-121788500D01*
X111440844Y-121631738D01*
X111380337Y-121485661D01*
X111380337Y-121485660D01*
X111284086Y-121360223D01*
X111284085Y-121360222D01*
X111284082Y-121360218D01*
X111284077Y-121360214D01*
X111284076Y-121360213D01*
X111158638Y-121263962D01*
X111012566Y-121203457D01*
X111012558Y-121203455D01*
X110855801Y-121182818D01*
X110855799Y-121182818D01*
X110699041Y-121203455D01*
X110699033Y-121203457D01*
X110552961Y-121263962D01*
X110552960Y-121263962D01*
X110427523Y-121360213D01*
X110427513Y-121360223D01*
X110331262Y-121485660D01*
X110331262Y-121485661D01*
X110270757Y-121631733D01*
X110270755Y-121631741D01*
X110250118Y-121788499D01*
X106574008Y-121788499D01*
X106746041Y-121681981D01*
X106896764Y-121544579D01*
X107019673Y-121381821D01*
X107110582Y-121199250D01*
X107166397Y-121003083D01*
X107185215Y-120800000D01*
X120214785Y-120800000D01*
X120233603Y-121003083D01*
X120289418Y-121199250D01*
X120380327Y-121381821D01*
X120503236Y-121544579D01*
X120653959Y-121681981D01*
X120827363Y-121789348D01*
X121017544Y-121863024D01*
X121218024Y-121900500D01*
X121421976Y-121900500D01*
X121622456Y-121863024D01*
X121812637Y-121789348D01*
X121986041Y-121681981D01*
X122136764Y-121544579D01*
X122259673Y-121381821D01*
X122350582Y-121199250D01*
X122406397Y-121003083D01*
X122425215Y-120800000D01*
X122406397Y-120596917D01*
X122350582Y-120400750D01*
X122259673Y-120218179D01*
X122136764Y-120055421D01*
X121986041Y-119918019D01*
X121812637Y-119810652D01*
X121622456Y-119736976D01*
X121622455Y-119736975D01*
X121622453Y-119736975D01*
X121421976Y-119699500D01*
X121218024Y-119699500D01*
X121017546Y-119736975D01*
X120947632Y-119764059D01*
X120827363Y-119810652D01*
X120653959Y-119918019D01*
X120503237Y-120055420D01*
X120380328Y-120218177D01*
X120380323Y-120218186D01*
X120289419Y-120400747D01*
X120289418Y-120400750D01*
X120233603Y-120596917D01*
X120214785Y-120800000D01*
X107185215Y-120800000D01*
X107166397Y-120596917D01*
X107110582Y-120400750D01*
X107019673Y-120218179D01*
X106896764Y-120055421D01*
X106746041Y-119918019D01*
X106572637Y-119810652D01*
X106382456Y-119736976D01*
X106382455Y-119736975D01*
X106382453Y-119736975D01*
X106181976Y-119699500D01*
X105978024Y-119699500D01*
X105777546Y-119736975D01*
X105707632Y-119764059D01*
X105587363Y-119810652D01*
X105413959Y-119918019D01*
X105263237Y-120055420D01*
X105140328Y-120218177D01*
X105140323Y-120218186D01*
X105049419Y-120400747D01*
X105049418Y-120400750D01*
X104993603Y-120596917D01*
X104974785Y-120800000D01*
X101100500Y-120800000D01*
X101100500Y-118260000D01*
X104974785Y-118260000D01*
X104993603Y-118463083D01*
X105049418Y-118659250D01*
X105140327Y-118841821D01*
X105263236Y-119004579D01*
X105413959Y-119141981D01*
X105587363Y-119249348D01*
X105777544Y-119323024D01*
X105978024Y-119360500D01*
X106181976Y-119360500D01*
X106382456Y-119323024D01*
X106572637Y-119249348D01*
X106746041Y-119141981D01*
X106896764Y-119004579D01*
X107019673Y-118841821D01*
X107110582Y-118659250D01*
X107166397Y-118463083D01*
X107185215Y-118260000D01*
X107181206Y-118216734D01*
X112756583Y-118216734D01*
X112756583Y-118216735D01*
X112777220Y-118373493D01*
X112777222Y-118373501D01*
X112837727Y-118519573D01*
X112837727Y-118519574D01*
X112837729Y-118519576D01*
X112933983Y-118645017D01*
X113059424Y-118741271D01*
X113205503Y-118801779D01*
X113323074Y-118817257D01*
X113362264Y-118822417D01*
X113362265Y-118822417D01*
X113362266Y-118822417D01*
X113393617Y-118818289D01*
X113519027Y-118801779D01*
X113665106Y-118741271D01*
X113790547Y-118645017D01*
X113886801Y-118519576D01*
X113947309Y-118373497D01*
X113967947Y-118216735D01*
X113947309Y-118059973D01*
X113886802Y-117913896D01*
X113886802Y-117913895D01*
X113790551Y-117788458D01*
X113790550Y-117788457D01*
X113790547Y-117788453D01*
X113790542Y-117788449D01*
X113790541Y-117788448D01*
X113743039Y-117751999D01*
X116283518Y-117751999D01*
X116283518Y-117752000D01*
X116304155Y-117908758D01*
X116304157Y-117908766D01*
X116364662Y-118054838D01*
X116364662Y-118054839D01*
X116368604Y-118059976D01*
X116460918Y-118180282D01*
X116586359Y-118276536D01*
X116732438Y-118337044D01*
X116850009Y-118352522D01*
X116889199Y-118357682D01*
X116889200Y-118357682D01*
X116889201Y-118357682D01*
X116920552Y-118353554D01*
X117045962Y-118337044D01*
X117192041Y-118276536D01*
X117213591Y-118260000D01*
X120214785Y-118260000D01*
X120233603Y-118463083D01*
X120289418Y-118659250D01*
X120380327Y-118841821D01*
X120503236Y-119004579D01*
X120653959Y-119141981D01*
X120827363Y-119249348D01*
X121017544Y-119323024D01*
X121218024Y-119360500D01*
X121421976Y-119360500D01*
X121622456Y-119323024D01*
X121812637Y-119249348D01*
X121986041Y-119141981D01*
X122136764Y-119004579D01*
X122259673Y-118841821D01*
X122350582Y-118659250D01*
X122406397Y-118463083D01*
X122425215Y-118260000D01*
X122406397Y-118056917D01*
X122350582Y-117860750D01*
X122259673Y-117678179D01*
X122136764Y-117515421D01*
X121986041Y-117378019D01*
X121812637Y-117270652D01*
X121622456Y-117196976D01*
X121622455Y-117196975D01*
X121622453Y-117196975D01*
X121421976Y-117159500D01*
X121218024Y-117159500D01*
X121017546Y-117196975D01*
X120947632Y-117224059D01*
X120827363Y-117270652D01*
X120653959Y-117378019D01*
X120503237Y-117515420D01*
X120380328Y-117678177D01*
X120380323Y-117678186D01*
X120289419Y-117860747D01*
X120289418Y-117860750D01*
X120233603Y-118056917D01*
X120214785Y-118260000D01*
X117213591Y-118260000D01*
X117317482Y-118180282D01*
X117413736Y-118054841D01*
X117474244Y-117908762D01*
X117494882Y-117752000D01*
X117474244Y-117595238D01*
X117413737Y-117449161D01*
X117413737Y-117449160D01*
X117317486Y-117323723D01*
X117317485Y-117323722D01*
X117317482Y-117323718D01*
X117317477Y-117323714D01*
X117317476Y-117323713D01*
X117192038Y-117227462D01*
X117045966Y-117166957D01*
X117045958Y-117166955D01*
X116889201Y-117146318D01*
X116889199Y-117146318D01*
X116732441Y-117166955D01*
X116732433Y-117166957D01*
X116586361Y-117227462D01*
X116586360Y-117227462D01*
X116460923Y-117323713D01*
X116460913Y-117323723D01*
X116364662Y-117449160D01*
X116364662Y-117449161D01*
X116304157Y-117595233D01*
X116304155Y-117595241D01*
X116283518Y-117751999D01*
X113743039Y-117751999D01*
X113665103Y-117692197D01*
X113519031Y-117631692D01*
X113519023Y-117631690D01*
X113362266Y-117611053D01*
X113362264Y-117611053D01*
X113205506Y-117631690D01*
X113205498Y-117631692D01*
X113059426Y-117692197D01*
X113059425Y-117692197D01*
X112933988Y-117788448D01*
X112933978Y-117788458D01*
X112837727Y-117913895D01*
X112837727Y-117913896D01*
X112777222Y-118059968D01*
X112777220Y-118059976D01*
X112756583Y-118216734D01*
X107181206Y-118216734D01*
X107166397Y-118056917D01*
X107110582Y-117860750D01*
X107019673Y-117678179D01*
X106896764Y-117515421D01*
X106746041Y-117378019D01*
X106572637Y-117270652D01*
X106382456Y-117196976D01*
X106382455Y-117196975D01*
X106382453Y-117196975D01*
X106181976Y-117159500D01*
X105978024Y-117159500D01*
X105777546Y-117196975D01*
X105707632Y-117224059D01*
X105587363Y-117270652D01*
X105413959Y-117378019D01*
X105263237Y-117515420D01*
X105140328Y-117678177D01*
X105140323Y-117678186D01*
X105049419Y-117860747D01*
X105049418Y-117860750D01*
X104993603Y-118056917D01*
X104974785Y-118260000D01*
X101100500Y-118260000D01*
X101100500Y-115720000D01*
X104974785Y-115720000D01*
X104993603Y-115923083D01*
X105049418Y-116119250D01*
X105140327Y-116301821D01*
X105263236Y-116464579D01*
X105413959Y-116601981D01*
X105587363Y-116709348D01*
X105777544Y-116783024D01*
X105978024Y-116820500D01*
X106181976Y-116820500D01*
X106382456Y-116783024D01*
X106572637Y-116709348D01*
X106746041Y-116601981D01*
X106896764Y-116464579D01*
X107019673Y-116301821D01*
X107044880Y-116251199D01*
X118637818Y-116251199D01*
X118637818Y-116251200D01*
X118658455Y-116407958D01*
X118658457Y-116407966D01*
X118718962Y-116554038D01*
X118718962Y-116554039D01*
X118815213Y-116679476D01*
X118815218Y-116679482D01*
X118940659Y-116775736D01*
X118940660Y-116775736D01*
X118940661Y-116775737D01*
X119086733Y-116836242D01*
X119086738Y-116836244D01*
X119204309Y-116851722D01*
X119243499Y-116856882D01*
X119243500Y-116856882D01*
X119243501Y-116856882D01*
X119274852Y-116852754D01*
X119400262Y-116836244D01*
X119546341Y-116775736D01*
X119671782Y-116679482D01*
X119768036Y-116554041D01*
X119828544Y-116407962D01*
X119849182Y-116251200D01*
X119828544Y-116094438D01*
X119768037Y-115948361D01*
X119768037Y-115948360D01*
X119671786Y-115822923D01*
X119671785Y-115822922D01*
X119671782Y-115822918D01*
X119671777Y-115822914D01*
X119671776Y-115822913D01*
X119546338Y-115726662D01*
X119530255Y-115720000D01*
X120214785Y-115720000D01*
X120233603Y-115923083D01*
X120289418Y-116119250D01*
X120380327Y-116301821D01*
X120503236Y-116464579D01*
X120653959Y-116601981D01*
X120827363Y-116709348D01*
X121017544Y-116783024D01*
X121218024Y-116820500D01*
X121421976Y-116820500D01*
X121622456Y-116783024D01*
X121812637Y-116709348D01*
X121986041Y-116601981D01*
X122136764Y-116464579D01*
X122259673Y-116301821D01*
X122350582Y-116119250D01*
X122406397Y-115923083D01*
X122425215Y-115720000D01*
X122406397Y-115516917D01*
X122350582Y-115320750D01*
X122259673Y-115138179D01*
X122136764Y-114975421D01*
X121986041Y-114838019D01*
X121812637Y-114730652D01*
X121622456Y-114656976D01*
X121622455Y-114656975D01*
X121622453Y-114656975D01*
X121421976Y-114619500D01*
X121218024Y-114619500D01*
X121017546Y-114656975D01*
X120947632Y-114684059D01*
X120827363Y-114730652D01*
X120653959Y-114838019D01*
X120503237Y-114975420D01*
X120380328Y-115138177D01*
X120380323Y-115138186D01*
X120289419Y-115320747D01*
X120289418Y-115320750D01*
X120233603Y-115516917D01*
X120214785Y-115720000D01*
X119530255Y-115720000D01*
X119400266Y-115666157D01*
X119400258Y-115666155D01*
X119243501Y-115645518D01*
X119243499Y-115645518D01*
X119086741Y-115666155D01*
X119086733Y-115666157D01*
X118940661Y-115726662D01*
X118940660Y-115726662D01*
X118815223Y-115822913D01*
X118815213Y-115822923D01*
X118718962Y-115948360D01*
X118718962Y-115948361D01*
X118658457Y-116094433D01*
X118658455Y-116094441D01*
X118637818Y-116251199D01*
X107044880Y-116251199D01*
X107110582Y-116119250D01*
X107166397Y-115923083D01*
X107185215Y-115720000D01*
X107166397Y-115516917D01*
X107110582Y-115320750D01*
X107019673Y-115138179D01*
X106896764Y-114975421D01*
X106746041Y-114838019D01*
X106572637Y-114730652D01*
X106382456Y-114656976D01*
X106382455Y-114656975D01*
X106382453Y-114656975D01*
X106181976Y-114619500D01*
X105978024Y-114619500D01*
X105777546Y-114656975D01*
X105707632Y-114684059D01*
X105587363Y-114730652D01*
X105413959Y-114838019D01*
X105263237Y-114975420D01*
X105140328Y-115138177D01*
X105140323Y-115138186D01*
X105049419Y-115320747D01*
X105049418Y-115320750D01*
X104993603Y-115516917D01*
X104974785Y-115720000D01*
X101100500Y-115720000D01*
X101100500Y-110390000D01*
X104801128Y-110390000D01*
X105764314Y-110390000D01*
X105759920Y-110394394D01*
X105707259Y-110485606D01*
X105680000Y-110587339D01*
X105680000Y-110692661D01*
X105707259Y-110794394D01*
X105759920Y-110885606D01*
X105764314Y-110890000D01*
X104801128Y-110890000D01*
X104853733Y-111086323D01*
X104949865Y-111292481D01*
X105080334Y-111478811D01*
X105241188Y-111639665D01*
X105427518Y-111770134D01*
X105633675Y-111866266D01*
X105822848Y-111916955D01*
X105874162Y-111950279D01*
X105896089Y-112007401D01*
X105880254Y-112066501D01*
X105832704Y-112105006D01*
X105815417Y-112109896D01*
X105777545Y-112116975D01*
X105661040Y-112162109D01*
X105587363Y-112190652D01*
X105413959Y-112298019D01*
X105263237Y-112435420D01*
X105140328Y-112598177D01*
X105140323Y-112598186D01*
X105049419Y-112780747D01*
X105049418Y-112780750D01*
X104993603Y-112976917D01*
X104974785Y-113180000D01*
X104993603Y-113383083D01*
X105049418Y-113579250D01*
X105140327Y-113761821D01*
X105263236Y-113924579D01*
X105413959Y-114061981D01*
X105587363Y-114169348D01*
X105777544Y-114243024D01*
X105978024Y-114280500D01*
X106181976Y-114280500D01*
X106382456Y-114243024D01*
X106572637Y-114169348D01*
X106746041Y-114061981D01*
X106896764Y-113924579D01*
X107019673Y-113761821D01*
X107110582Y-113579250D01*
X107166397Y-113383083D01*
X107185215Y-113180000D01*
X107168601Y-113000699D01*
X112273318Y-113000699D01*
X112273318Y-113000700D01*
X112293955Y-113157458D01*
X112293957Y-113157466D01*
X112354462Y-113303538D01*
X112354462Y-113303539D01*
X112450713Y-113428976D01*
X112450718Y-113428982D01*
X112576159Y-113525236D01*
X112722238Y-113585744D01*
X112839809Y-113601222D01*
X112878999Y-113606382D01*
X112879000Y-113606382D01*
X112879001Y-113606382D01*
X112910352Y-113602254D01*
X113035762Y-113585744D01*
X113181841Y-113525236D01*
X113307282Y-113428982D01*
X113403536Y-113303541D01*
X113464044Y-113157462D01*
X113484682Y-113000700D01*
X113480656Y-112970121D01*
X113889166Y-112970121D01*
X113889166Y-112970122D01*
X113909803Y-113126880D01*
X113909805Y-113126888D01*
X113970310Y-113272960D01*
X113970310Y-113272961D01*
X114066561Y-113398398D01*
X114066566Y-113398404D01*
X114192007Y-113494658D01*
X114192008Y-113494658D01*
X114192009Y-113494659D01*
X114265831Y-113525237D01*
X114338086Y-113555166D01*
X114455657Y-113570644D01*
X114494847Y-113575804D01*
X114494848Y-113575804D01*
X114494849Y-113575804D01*
X114526200Y-113571676D01*
X114651610Y-113555166D01*
X114797689Y-113494658D01*
X114923130Y-113398404D01*
X115019384Y-113272963D01*
X115057891Y-113180000D01*
X120214785Y-113180000D01*
X120233603Y-113383083D01*
X120289418Y-113579250D01*
X120380327Y-113761821D01*
X120503236Y-113924579D01*
X120653959Y-114061981D01*
X120827363Y-114169348D01*
X121017544Y-114243024D01*
X121218024Y-114280500D01*
X121421976Y-114280500D01*
X121622456Y-114243024D01*
X121812637Y-114169348D01*
X121986041Y-114061981D01*
X122136764Y-113924579D01*
X122259673Y-113761821D01*
X122350582Y-113579250D01*
X122406397Y-113383083D01*
X122425215Y-113180000D01*
X122406397Y-112976917D01*
X122350582Y-112780750D01*
X122259673Y-112598179D01*
X122136764Y-112435421D01*
X121986041Y-112298019D01*
X121812637Y-112190652D01*
X121622456Y-112116976D01*
X121622455Y-112116975D01*
X121622453Y-112116975D01*
X121421976Y-112079500D01*
X121218024Y-112079500D01*
X121017546Y-112116975D01*
X120947632Y-112144059D01*
X120827363Y-112190652D01*
X120653959Y-112298019D01*
X120503237Y-112435420D01*
X120380328Y-112598177D01*
X120380323Y-112598186D01*
X120289419Y-112780747D01*
X120289418Y-112780750D01*
X120233603Y-112976917D01*
X120214785Y-113180000D01*
X115057891Y-113180000D01*
X115079892Y-113126884D01*
X115100530Y-112970122D01*
X115079892Y-112813360D01*
X115079890Y-112813355D01*
X115019385Y-112667283D01*
X115019385Y-112667282D01*
X114923134Y-112541845D01*
X114923133Y-112541844D01*
X114923130Y-112541840D01*
X114923125Y-112541836D01*
X114923124Y-112541835D01*
X114837539Y-112476164D01*
X114797689Y-112445586D01*
X114797688Y-112445585D01*
X114797686Y-112445584D01*
X114651614Y-112385079D01*
X114651606Y-112385077D01*
X114494849Y-112364440D01*
X114494847Y-112364440D01*
X114338089Y-112385077D01*
X114338081Y-112385079D01*
X114192009Y-112445584D01*
X114192008Y-112445584D01*
X114066571Y-112541835D01*
X114066561Y-112541845D01*
X113970310Y-112667282D01*
X113970310Y-112667283D01*
X113909805Y-112813355D01*
X113909803Y-112813363D01*
X113889166Y-112970121D01*
X113480656Y-112970121D01*
X113464044Y-112843938D01*
X113437871Y-112780750D01*
X113403537Y-112697861D01*
X113403537Y-112697860D01*
X113307286Y-112572423D01*
X113307285Y-112572422D01*
X113307282Y-112572418D01*
X113307277Y-112572414D01*
X113307276Y-112572413D01*
X113181838Y-112476162D01*
X113035766Y-112415657D01*
X113035758Y-112415655D01*
X112879001Y-112395018D01*
X112878999Y-112395018D01*
X112722241Y-112415655D01*
X112722233Y-112415657D01*
X112576161Y-112476162D01*
X112576160Y-112476162D01*
X112450723Y-112572413D01*
X112450713Y-112572423D01*
X112354462Y-112697860D01*
X112354462Y-112697861D01*
X112293957Y-112843933D01*
X112293955Y-112843941D01*
X112273318Y-113000699D01*
X107168601Y-113000699D01*
X107166397Y-112976917D01*
X107110582Y-112780750D01*
X107019673Y-112598179D01*
X106896764Y-112435421D01*
X106746041Y-112298019D01*
X106572637Y-112190652D01*
X106425283Y-112133567D01*
X106382454Y-112116975D01*
X106344582Y-112109896D01*
X106290857Y-112080618D01*
X106264601Y-112025352D01*
X106275844Y-111965209D01*
X106320292Y-111923160D01*
X106337151Y-111916955D01*
X106526324Y-111866266D01*
X106732481Y-111770134D01*
X106918811Y-111639665D01*
X107079665Y-111478811D01*
X107210134Y-111292481D01*
X107306266Y-111086323D01*
X107358872Y-110890000D01*
X106395686Y-110890000D01*
X106400080Y-110885606D01*
X106452741Y-110794394D01*
X106480000Y-110692661D01*
X106480000Y-110587339D01*
X106452741Y-110485606D01*
X106400080Y-110394394D01*
X106395686Y-110390000D01*
X107358872Y-110390000D01*
X107306266Y-110193676D01*
X107210134Y-109987518D01*
X107144302Y-109893499D01*
X111131318Y-109893499D01*
X111131318Y-109893500D01*
X111151955Y-110050258D01*
X111151957Y-110050266D01*
X111212462Y-110196338D01*
X111212462Y-110196339D01*
X111246540Y-110240750D01*
X111308718Y-110321782D01*
X111434159Y-110418036D01*
X111434160Y-110418036D01*
X111434161Y-110418037D01*
X111580233Y-110478542D01*
X111580238Y-110478544D01*
X111697809Y-110494022D01*
X111736999Y-110499182D01*
X111737000Y-110499182D01*
X111737001Y-110499182D01*
X111768352Y-110495054D01*
X111893762Y-110478544D01*
X112039841Y-110418036D01*
X112165282Y-110321782D01*
X112261536Y-110196341D01*
X112322044Y-110050262D01*
X112342682Y-109893500D01*
X112322044Y-109736738D01*
X112261537Y-109590661D01*
X112261537Y-109590660D01*
X112165286Y-109465223D01*
X112165285Y-109465222D01*
X112165282Y-109465218D01*
X112165277Y-109465214D01*
X112165276Y-109465213D01*
X112093684Y-109410279D01*
X112039841Y-109368964D01*
X112039840Y-109368963D01*
X112039838Y-109368962D01*
X111893766Y-109308457D01*
X111893758Y-109308455D01*
X111737001Y-109287818D01*
X111736999Y-109287818D01*
X111580241Y-109308455D01*
X111580233Y-109308457D01*
X111434161Y-109368962D01*
X111434160Y-109368962D01*
X111308723Y-109465213D01*
X111308713Y-109465223D01*
X111212462Y-109590660D01*
X111212462Y-109590661D01*
X111151957Y-109736733D01*
X111151955Y-109736741D01*
X111131318Y-109893499D01*
X107144302Y-109893499D01*
X107079665Y-109801188D01*
X106918811Y-109640334D01*
X106732481Y-109509865D01*
X106526323Y-109413733D01*
X106337151Y-109363044D01*
X106285836Y-109329720D01*
X106263910Y-109272598D01*
X106279746Y-109213498D01*
X106327296Y-109174992D01*
X106344568Y-109170106D01*
X106382456Y-109163024D01*
X106572637Y-109089348D01*
X106746041Y-108981981D01*
X106896764Y-108844579D01*
X107019673Y-108681821D01*
X107110582Y-108499250D01*
X107166397Y-108303083D01*
X107185215Y-108100000D01*
X107166397Y-107896917D01*
X107110582Y-107700750D01*
X107019673Y-107518179D01*
X106896764Y-107355421D01*
X106746041Y-107218019D01*
X106572637Y-107110652D01*
X106382456Y-107036976D01*
X106382455Y-107036975D01*
X106382453Y-107036975D01*
X106181976Y-106999500D01*
X105978024Y-106999500D01*
X105777546Y-107036975D01*
X105707632Y-107064059D01*
X105587363Y-107110652D01*
X105416293Y-107216574D01*
X105413959Y-107218019D01*
X105263237Y-107355420D01*
X105140328Y-107518177D01*
X105140323Y-107518186D01*
X105049791Y-107700000D01*
X105049418Y-107700750D01*
X104993603Y-107896917D01*
X104974785Y-108100000D01*
X104993603Y-108303083D01*
X105049418Y-108499250D01*
X105140327Y-108681821D01*
X105263236Y-108844579D01*
X105413959Y-108981981D01*
X105587363Y-109089348D01*
X105777544Y-109163024D01*
X105815418Y-109170103D01*
X105869141Y-109199380D01*
X105895398Y-109254645D01*
X105884156Y-109314789D01*
X105839709Y-109356838D01*
X105822848Y-109363044D01*
X105633676Y-109413733D01*
X105427518Y-109509865D01*
X105241188Y-109640334D01*
X105080334Y-109801188D01*
X104949865Y-109987518D01*
X104853733Y-110193676D01*
X104801128Y-110390000D01*
X101100500Y-110390000D01*
X101100500Y-106913735D01*
X108098054Y-106913735D01*
X108098054Y-106913736D01*
X108118691Y-107070494D01*
X108118693Y-107070502D01*
X108179198Y-107216574D01*
X108179198Y-107216575D01*
X108179200Y-107216577D01*
X108275454Y-107342018D01*
X108400895Y-107438272D01*
X108400896Y-107438272D01*
X108400897Y-107438273D01*
X108469161Y-107466549D01*
X108515687Y-107506285D01*
X108529971Y-107565780D01*
X108506556Y-107622308D01*
X108491543Y-107636555D01*
X108445723Y-107671713D01*
X108445713Y-107671723D01*
X108349462Y-107797160D01*
X108349462Y-107797161D01*
X108288957Y-107943233D01*
X108288955Y-107943241D01*
X108268318Y-108099999D01*
X108268318Y-108100000D01*
X108288955Y-108256758D01*
X108288957Y-108256766D01*
X108349462Y-108402838D01*
X108349462Y-108402839D01*
X108445713Y-108528276D01*
X108445718Y-108528282D01*
X108571159Y-108624536D01*
X108717238Y-108685044D01*
X108834809Y-108700522D01*
X108873999Y-108705682D01*
X108874000Y-108705682D01*
X108874001Y-108705682D01*
X108905352Y-108701554D01*
X109030762Y-108685044D01*
X109176841Y-108624536D01*
X109302282Y-108528282D01*
X109398536Y-108402841D01*
X109459044Y-108256762D01*
X109479682Y-108100000D01*
X109459044Y-107943238D01*
X109422244Y-107854394D01*
X109420424Y-107850000D01*
X120041128Y-107850000D01*
X121004314Y-107850000D01*
X120999920Y-107854394D01*
X120947259Y-107945606D01*
X120920000Y-108047339D01*
X120920000Y-108152661D01*
X120947259Y-108254394D01*
X120999920Y-108345606D01*
X121004314Y-108350000D01*
X120041128Y-108350000D01*
X120093733Y-108546323D01*
X120189865Y-108752481D01*
X120320334Y-108938811D01*
X120481188Y-109099665D01*
X120667518Y-109230134D01*
X120873675Y-109326266D01*
X121062848Y-109376955D01*
X121114162Y-109410279D01*
X121136089Y-109467401D01*
X121120254Y-109526501D01*
X121072704Y-109565006D01*
X121055417Y-109569896D01*
X121017545Y-109576975D01*
X120901040Y-109622109D01*
X120827363Y-109650652D01*
X120688337Y-109736733D01*
X120653959Y-109758019D01*
X120503237Y-109895420D01*
X120380328Y-110058177D01*
X120380323Y-110058186D01*
X120289791Y-110240000D01*
X120289418Y-110240750D01*
X120233603Y-110436917D01*
X120214785Y-110640000D01*
X120233603Y-110843083D01*
X120289418Y-111039250D01*
X120380327Y-111221821D01*
X120503236Y-111384579D01*
X120653959Y-111521981D01*
X120827363Y-111629348D01*
X121017544Y-111703024D01*
X121218024Y-111740500D01*
X121421976Y-111740500D01*
X121622456Y-111703024D01*
X121812637Y-111629348D01*
X121986041Y-111521981D01*
X122136764Y-111384579D01*
X122259673Y-111221821D01*
X122350582Y-111039250D01*
X122406397Y-110843083D01*
X122425215Y-110640000D01*
X122406397Y-110436917D01*
X122350582Y-110240750D01*
X122259673Y-110058179D01*
X122136764Y-109895421D01*
X121986041Y-109758019D01*
X121812637Y-109650652D01*
X121657776Y-109590659D01*
X121622454Y-109576975D01*
X121584582Y-109569896D01*
X121530857Y-109540618D01*
X121504601Y-109485352D01*
X121515844Y-109425209D01*
X121560292Y-109383160D01*
X121577151Y-109376955D01*
X121766324Y-109326266D01*
X121972481Y-109230134D01*
X122158811Y-109099665D01*
X122319665Y-108938811D01*
X122450134Y-108752481D01*
X122546266Y-108546323D01*
X122598872Y-108350000D01*
X121635686Y-108350000D01*
X121640080Y-108345606D01*
X121692741Y-108254394D01*
X121720000Y-108152661D01*
X121720000Y-108047339D01*
X121692741Y-107945606D01*
X121640080Y-107854394D01*
X121635686Y-107850000D01*
X122598872Y-107850000D01*
X122546266Y-107653676D01*
X122450134Y-107447518D01*
X122319665Y-107261188D01*
X122158811Y-107100334D01*
X121972481Y-106969865D01*
X121766323Y-106873733D01*
X121577151Y-106823044D01*
X121525836Y-106789720D01*
X121503910Y-106732598D01*
X121519746Y-106673498D01*
X121567296Y-106634992D01*
X121584568Y-106630106D01*
X121622456Y-106623024D01*
X121812637Y-106549348D01*
X121986041Y-106441981D01*
X122136764Y-106304579D01*
X122259673Y-106141821D01*
X122350582Y-105959250D01*
X122406397Y-105763083D01*
X122425215Y-105560000D01*
X122406397Y-105356917D01*
X122350582Y-105160750D01*
X122259673Y-104978179D01*
X122136764Y-104815421D01*
X121986041Y-104678019D01*
X121812637Y-104570652D01*
X121622456Y-104496976D01*
X121622455Y-104496975D01*
X121622453Y-104496975D01*
X121421976Y-104459500D01*
X121218024Y-104459500D01*
X121017546Y-104496975D01*
X121015440Y-104497791D01*
X120827363Y-104570652D01*
X120713358Y-104641241D01*
X120653959Y-104678019D01*
X120503237Y-104815420D01*
X120380328Y-104978177D01*
X120380323Y-104978186D01*
X120289419Y-105160747D01*
X120289418Y-105160750D01*
X120233603Y-105356917D01*
X120214785Y-105560000D01*
X120233603Y-105763083D01*
X120289418Y-105959250D01*
X120380327Y-106141821D01*
X120503236Y-106304579D01*
X120653959Y-106441981D01*
X120827363Y-106549348D01*
X121017544Y-106623024D01*
X121055418Y-106630103D01*
X121109141Y-106659380D01*
X121135398Y-106714645D01*
X121124156Y-106774789D01*
X121079709Y-106816838D01*
X121062848Y-106823044D01*
X120873676Y-106873733D01*
X120667518Y-106969865D01*
X120481188Y-107100334D01*
X120320334Y-107261188D01*
X120189865Y-107447518D01*
X120093733Y-107653676D01*
X120041128Y-107850000D01*
X109420424Y-107850000D01*
X109398537Y-107797161D01*
X109398537Y-107797160D01*
X109302286Y-107671723D01*
X109302285Y-107671722D01*
X109302282Y-107671718D01*
X109302277Y-107671714D01*
X109302276Y-107671713D01*
X109237889Y-107622308D01*
X109176841Y-107575464D01*
X109153462Y-107565780D01*
X109108573Y-107547186D01*
X109062047Y-107507449D01*
X109047764Y-107447954D01*
X109071179Y-107391426D01*
X109086183Y-107377187D01*
X109132018Y-107342018D01*
X109228272Y-107216577D01*
X109288780Y-107070498D01*
X109309418Y-106913736D01*
X109288780Y-106756974D01*
X109228273Y-106610897D01*
X109228273Y-106610896D01*
X109132022Y-106485459D01*
X109132021Y-106485458D01*
X109132018Y-106485454D01*
X109132013Y-106485450D01*
X109132012Y-106485449D01*
X109006574Y-106389198D01*
X108860502Y-106328693D01*
X108860494Y-106328691D01*
X108703737Y-106308054D01*
X108703735Y-106308054D01*
X108546977Y-106328691D01*
X108546969Y-106328693D01*
X108400897Y-106389198D01*
X108400896Y-106389198D01*
X108275459Y-106485449D01*
X108275449Y-106485459D01*
X108179198Y-106610896D01*
X108179198Y-106610897D01*
X108118693Y-106756969D01*
X108118691Y-106756977D01*
X108098054Y-106913735D01*
X101100500Y-106913735D01*
X101100500Y-104289999D01*
X104458318Y-104289999D01*
X104458318Y-104290000D01*
X104478955Y-104446758D01*
X104478957Y-104446766D01*
X104539462Y-104592838D01*
X104539462Y-104592839D01*
X104604823Y-104678019D01*
X104635718Y-104718282D01*
X104761159Y-104814536D01*
X104761160Y-104814536D01*
X104761161Y-104814537D01*
X104907233Y-104875042D01*
X104907238Y-104875044D01*
X105036653Y-104892081D01*
X105091877Y-104918422D01*
X105121072Y-104972192D01*
X105113086Y-105032854D01*
X105112351Y-105034362D01*
X105049418Y-105160750D01*
X104993603Y-105356917D01*
X104974785Y-105560000D01*
X104993603Y-105763083D01*
X105049418Y-105959250D01*
X105140327Y-106141821D01*
X105263236Y-106304579D01*
X105413959Y-106441981D01*
X105587363Y-106549348D01*
X105777544Y-106623024D01*
X105978024Y-106660500D01*
X106181976Y-106660500D01*
X106382456Y-106623024D01*
X106572637Y-106549348D01*
X106746041Y-106441981D01*
X106896764Y-106304579D01*
X107019673Y-106141821D01*
X107110582Y-105959250D01*
X107166397Y-105763083D01*
X107185215Y-105560000D01*
X107166397Y-105356917D01*
X107110582Y-105160750D01*
X107019673Y-104978179D01*
X106896764Y-104815421D01*
X106877653Y-104797999D01*
X113079618Y-104797999D01*
X113079618Y-104798000D01*
X113100255Y-104954758D01*
X113100257Y-104954766D01*
X113160762Y-105100838D01*
X113160762Y-105100839D01*
X113257013Y-105226276D01*
X113257018Y-105226282D01*
X113382459Y-105322536D01*
X113528538Y-105383044D01*
X113646109Y-105398522D01*
X113685299Y-105403682D01*
X113685300Y-105403682D01*
X113685301Y-105403682D01*
X113716652Y-105399554D01*
X113842062Y-105383044D01*
X113988141Y-105322536D01*
X114113582Y-105226282D01*
X114209836Y-105100841D01*
X114270344Y-104954762D01*
X114290982Y-104798000D01*
X114270344Y-104641238D01*
X114250297Y-104592841D01*
X114209837Y-104495161D01*
X114209837Y-104495160D01*
X114113586Y-104369723D01*
X114113585Y-104369722D01*
X114113582Y-104369718D01*
X114113577Y-104369714D01*
X114113576Y-104369713D01*
X113988138Y-104273462D01*
X113842066Y-104212957D01*
X113842058Y-104212955D01*
X113685301Y-104192318D01*
X113685299Y-104192318D01*
X113528541Y-104212955D01*
X113528533Y-104212957D01*
X113382461Y-104273462D01*
X113382460Y-104273462D01*
X113257023Y-104369713D01*
X113257013Y-104369723D01*
X113160762Y-104495160D01*
X113160762Y-104495161D01*
X113100257Y-104641233D01*
X113100255Y-104641241D01*
X113079618Y-104797999D01*
X106877653Y-104797999D01*
X106746041Y-104678019D01*
X106572637Y-104570652D01*
X106382456Y-104496976D01*
X106382455Y-104496975D01*
X106382453Y-104496975D01*
X106181976Y-104459500D01*
X105978024Y-104459500D01*
X105773182Y-104497791D01*
X105712508Y-104489898D01*
X105668061Y-104447849D01*
X105656818Y-104387708D01*
X105669682Y-104290000D01*
X105656838Y-104192442D01*
X105667988Y-104132284D01*
X105712370Y-104090166D01*
X105773032Y-104082180D01*
X105773182Y-104082208D01*
X105777541Y-104083022D01*
X105777544Y-104083024D01*
X105978024Y-104120500D01*
X106181976Y-104120500D01*
X106382456Y-104083024D01*
X106572637Y-104009348D01*
X106746041Y-103901981D01*
X106896764Y-103764579D01*
X107019673Y-103601821D01*
X107110582Y-103419250D01*
X107166397Y-103223083D01*
X107185215Y-103020000D01*
X107185215Y-103019999D01*
X113419318Y-103019999D01*
X113419318Y-103020000D01*
X113439955Y-103176758D01*
X113439957Y-103176766D01*
X113500462Y-103322838D01*
X113500462Y-103322839D01*
X113596713Y-103448276D01*
X113596718Y-103448282D01*
X113722159Y-103544536D01*
X113868238Y-103605044D01*
X113985809Y-103620522D01*
X114024999Y-103625682D01*
X114025000Y-103625682D01*
X114025001Y-103625682D01*
X114056352Y-103621554D01*
X114181762Y-103605044D01*
X114327841Y-103544536D01*
X114453282Y-103448282D01*
X114549536Y-103322841D01*
X114610044Y-103176762D01*
X114610044Y-103176757D01*
X114611485Y-103171381D01*
X114644806Y-103120065D01*
X114701926Y-103098135D01*
X114761028Y-103113968D01*
X114799536Y-103161516D01*
X114805266Y-103184076D01*
X114809055Y-103212859D01*
X114809057Y-103212866D01*
X114869562Y-103358938D01*
X114869562Y-103358939D01*
X114965813Y-103484376D01*
X114965818Y-103484382D01*
X115091259Y-103580636D01*
X115091260Y-103580636D01*
X115091261Y-103580637D01*
X115142404Y-103601821D01*
X115237338Y-103641144D01*
X115354909Y-103656622D01*
X115394099Y-103661782D01*
X115394100Y-103661782D01*
X115394101Y-103661782D01*
X115425452Y-103657654D01*
X115550862Y-103641144D01*
X115696941Y-103580636D01*
X115822382Y-103484382D01*
X115918636Y-103358941D01*
X115979144Y-103212862D01*
X115999782Y-103056100D01*
X115995029Y-103020000D01*
X120214785Y-103020000D01*
X120233603Y-103223083D01*
X120289418Y-103419250D01*
X120380327Y-103601821D01*
X120503236Y-103764579D01*
X120653959Y-103901981D01*
X120827363Y-104009348D01*
X121017544Y-104083024D01*
X121218024Y-104120500D01*
X121421976Y-104120500D01*
X121622456Y-104083024D01*
X121812637Y-104009348D01*
X121986041Y-103901981D01*
X122136764Y-103764579D01*
X122259673Y-103601821D01*
X122350582Y-103419250D01*
X122406397Y-103223083D01*
X122425215Y-103020000D01*
X122406397Y-102816917D01*
X122350582Y-102620750D01*
X122259673Y-102438179D01*
X122136764Y-102275421D01*
X121986041Y-102138019D01*
X121812637Y-102030652D01*
X121622456Y-101956976D01*
X121622455Y-101956975D01*
X121622453Y-101956975D01*
X121421976Y-101919500D01*
X121218024Y-101919500D01*
X121017546Y-101956975D01*
X120947632Y-101984059D01*
X120827363Y-102030652D01*
X120653959Y-102138019D01*
X120503237Y-102275420D01*
X120380328Y-102438177D01*
X120380323Y-102438186D01*
X120289419Y-102620747D01*
X120289418Y-102620750D01*
X120233603Y-102816917D01*
X120214785Y-103020000D01*
X115995029Y-103020000D01*
X115979144Y-102899338D01*
X115918637Y-102753261D01*
X115918637Y-102753260D01*
X115822386Y-102627823D01*
X115822385Y-102627822D01*
X115822382Y-102627818D01*
X115822377Y-102627814D01*
X115822376Y-102627813D01*
X115696938Y-102531562D01*
X115550866Y-102471057D01*
X115550858Y-102471055D01*
X115394101Y-102450418D01*
X115394099Y-102450418D01*
X115237341Y-102471055D01*
X115237333Y-102471057D01*
X115091261Y-102531562D01*
X115091260Y-102531562D01*
X114965823Y-102627813D01*
X114965813Y-102627823D01*
X114869562Y-102753260D01*
X114869562Y-102753261D01*
X114809055Y-102899339D01*
X114807611Y-102904728D01*
X114774285Y-102956040D01*
X114717163Y-102977965D01*
X114658063Y-102962126D01*
X114619560Y-102914574D01*
X114613833Y-102892021D01*
X114610044Y-102863241D01*
X114610044Y-102863238D01*
X114549537Y-102717161D01*
X114549537Y-102717160D01*
X114453286Y-102591723D01*
X114453285Y-102591722D01*
X114453282Y-102591718D01*
X114453277Y-102591714D01*
X114453276Y-102591713D01*
X114327838Y-102495462D01*
X114181766Y-102434957D01*
X114181758Y-102434955D01*
X114025001Y-102414318D01*
X114024999Y-102414318D01*
X113868241Y-102434955D01*
X113868233Y-102434957D01*
X113722161Y-102495462D01*
X113722160Y-102495462D01*
X113596723Y-102591713D01*
X113596713Y-102591723D01*
X113500462Y-102717160D01*
X113500462Y-102717161D01*
X113439957Y-102863233D01*
X113439955Y-102863241D01*
X113419318Y-103019999D01*
X107185215Y-103019999D01*
X107166397Y-102816917D01*
X107110582Y-102620750D01*
X107019673Y-102438179D01*
X106896764Y-102275421D01*
X106746041Y-102138019D01*
X106572637Y-102030652D01*
X106382456Y-101956976D01*
X106382455Y-101956975D01*
X106382453Y-101956975D01*
X106181976Y-101919500D01*
X105978024Y-101919500D01*
X105777546Y-101956975D01*
X105707632Y-101984059D01*
X105587363Y-102030652D01*
X105413959Y-102138019D01*
X105263237Y-102275420D01*
X105140328Y-102438177D01*
X105140323Y-102438186D01*
X105049419Y-102620747D01*
X105049418Y-102620750D01*
X104993603Y-102816917D01*
X104974785Y-103020000D01*
X104993603Y-103223083D01*
X105032258Y-103358941D01*
X105049419Y-103419252D01*
X105112351Y-103545637D01*
X105121364Y-103606155D01*
X105093084Y-103660413D01*
X105038313Y-103687685D01*
X105036652Y-103687918D01*
X104907241Y-103704955D01*
X104907233Y-103704957D01*
X104761161Y-103765462D01*
X104761160Y-103765462D01*
X104635723Y-103861713D01*
X104635713Y-103861723D01*
X104539462Y-103987160D01*
X104539462Y-103987161D01*
X104478957Y-104133233D01*
X104478955Y-104133241D01*
X104458318Y-104289999D01*
X101100500Y-104289999D01*
X101100500Y-100480000D01*
X104974785Y-100480000D01*
X104993603Y-100683083D01*
X105049418Y-100879250D01*
X105140327Y-101061821D01*
X105263236Y-101224579D01*
X105413959Y-101361981D01*
X105587363Y-101469348D01*
X105777544Y-101543024D01*
X105978024Y-101580500D01*
X106181976Y-101580500D01*
X106382456Y-101543024D01*
X106572637Y-101469348D01*
X106746041Y-101361981D01*
X106896764Y-101224579D01*
X107019673Y-101061821D01*
X107110582Y-100879250D01*
X107166397Y-100683083D01*
X107185215Y-100480000D01*
X120214785Y-100480000D01*
X120233603Y-100683083D01*
X120289418Y-100879250D01*
X120380327Y-101061821D01*
X120503236Y-101224579D01*
X120653959Y-101361981D01*
X120827363Y-101469348D01*
X121017544Y-101543024D01*
X121218024Y-101580500D01*
X121421976Y-101580500D01*
X121622456Y-101543024D01*
X121812637Y-101469348D01*
X121986041Y-101361981D01*
X122136764Y-101224579D01*
X122259673Y-101061821D01*
X122350582Y-100879250D01*
X122406397Y-100683083D01*
X122425215Y-100480000D01*
X122406397Y-100276917D01*
X122350582Y-100080750D01*
X122259673Y-99898179D01*
X122136764Y-99735421D01*
X121986041Y-99598019D01*
X121812637Y-99490652D01*
X121622456Y-99416976D01*
X121622455Y-99416975D01*
X121622453Y-99416975D01*
X121421976Y-99379500D01*
X121218024Y-99379500D01*
X121017546Y-99416975D01*
X120947632Y-99444059D01*
X120827363Y-99490652D01*
X120653959Y-99598019D01*
X120503237Y-99735420D01*
X120380328Y-99898177D01*
X120380323Y-99898186D01*
X120289419Y-100080747D01*
X120289418Y-100080750D01*
X120233603Y-100276917D01*
X120214785Y-100480000D01*
X107185215Y-100480000D01*
X107166397Y-100276917D01*
X107110582Y-100080750D01*
X107019673Y-99898179D01*
X106896764Y-99735421D01*
X106746041Y-99598019D01*
X106572637Y-99490652D01*
X106382456Y-99416976D01*
X106382455Y-99416975D01*
X106382453Y-99416975D01*
X106181976Y-99379500D01*
X105978024Y-99379500D01*
X105777546Y-99416975D01*
X105707632Y-99444059D01*
X105587363Y-99490652D01*
X105413959Y-99598019D01*
X105263237Y-99735420D01*
X105140328Y-99898177D01*
X105140323Y-99898186D01*
X105049419Y-100080747D01*
X105049418Y-100080750D01*
X104993603Y-100276917D01*
X104974785Y-100480000D01*
X101100500Y-100480000D01*
X101100500Y-97940000D01*
X104974785Y-97940000D01*
X104993603Y-98143083D01*
X105049418Y-98339250D01*
X105140327Y-98521821D01*
X105263236Y-98684579D01*
X105413959Y-98821981D01*
X105587363Y-98929348D01*
X105777544Y-99003024D01*
X105978024Y-99040500D01*
X106181976Y-99040500D01*
X106382456Y-99003024D01*
X106572637Y-98929348D01*
X106746041Y-98821981D01*
X106896764Y-98684579D01*
X106920537Y-98653099D01*
X109030318Y-98653099D01*
X109030318Y-98653100D01*
X109050955Y-98809858D01*
X109050957Y-98809866D01*
X109111462Y-98955938D01*
X109111462Y-98955939D01*
X109132263Y-98983047D01*
X109207718Y-99081382D01*
X109333159Y-99177636D01*
X109479238Y-99238144D01*
X109596809Y-99253622D01*
X109635999Y-99258782D01*
X109636000Y-99258782D01*
X109636001Y-99258782D01*
X109667352Y-99254654D01*
X109792762Y-99238144D01*
X109938841Y-99177636D01*
X110064282Y-99081382D01*
X110160536Y-98955941D01*
X110221044Y-98809862D01*
X110241682Y-98653100D01*
X110228736Y-98554764D01*
X111847718Y-98554764D01*
X111847718Y-98554765D01*
X111868355Y-98711523D01*
X111868357Y-98711531D01*
X111928862Y-98857603D01*
X111928862Y-98857604D01*
X112025113Y-98983041D01*
X112025118Y-98983047D01*
X112150559Y-99079301D01*
X112150560Y-99079301D01*
X112150561Y-99079302D01*
X112296633Y-99139807D01*
X112296638Y-99139809D01*
X112414209Y-99155287D01*
X112453399Y-99160447D01*
X112453400Y-99160447D01*
X112453401Y-99160447D01*
X112484752Y-99156319D01*
X112610162Y-99139809D01*
X112756241Y-99079301D01*
X112881682Y-98983047D01*
X112977936Y-98857606D01*
X113038444Y-98711527D01*
X113059082Y-98554765D01*
X113038444Y-98398003D01*
X113018668Y-98350259D01*
X112989234Y-98279199D01*
X113664118Y-98279199D01*
X113664118Y-98279200D01*
X113684755Y-98435958D01*
X113684757Y-98435966D01*
X113745262Y-98582038D01*
X113745262Y-98582039D01*
X113799789Y-98653100D01*
X113841518Y-98707482D01*
X113841522Y-98707485D01*
X113841523Y-98707486D01*
X113846795Y-98711531D01*
X113966959Y-98803736D01*
X113966960Y-98803736D01*
X113966961Y-98803737D01*
X114097012Y-98857606D01*
X114113038Y-98864244D01*
X114230609Y-98879722D01*
X114269799Y-98884882D01*
X114269800Y-98884882D01*
X114269801Y-98884882D01*
X114301152Y-98880754D01*
X114426562Y-98864244D01*
X114572641Y-98803736D01*
X114698082Y-98707482D01*
X114794336Y-98582041D01*
X114854844Y-98435962D01*
X114871664Y-98308199D01*
X115275218Y-98308199D01*
X115275218Y-98308200D01*
X115295855Y-98464958D01*
X115295857Y-98464966D01*
X115356362Y-98611038D01*
X115356362Y-98611039D01*
X115433466Y-98711523D01*
X115452618Y-98736482D01*
X115578059Y-98832736D01*
X115578060Y-98832736D01*
X115578061Y-98832737D01*
X115638100Y-98857606D01*
X115724138Y-98893244D01*
X115841709Y-98908722D01*
X115880899Y-98913882D01*
X115880900Y-98913882D01*
X115880901Y-98913882D01*
X115912252Y-98909754D01*
X116037662Y-98893244D01*
X116183741Y-98832736D01*
X116309182Y-98736482D01*
X116405436Y-98611041D01*
X116465944Y-98464962D01*
X116486582Y-98308200D01*
X116465944Y-98151438D01*
X116456469Y-98128564D01*
X116405437Y-98005361D01*
X116405437Y-98005360D01*
X116355285Y-97940000D01*
X120214785Y-97940000D01*
X120233603Y-98143083D01*
X120289418Y-98339250D01*
X120380327Y-98521821D01*
X120503236Y-98684579D01*
X120653959Y-98821981D01*
X120827363Y-98929348D01*
X121017544Y-99003024D01*
X121218024Y-99040500D01*
X121421976Y-99040500D01*
X121622456Y-99003024D01*
X121812637Y-98929348D01*
X121986041Y-98821981D01*
X122136764Y-98684579D01*
X122259673Y-98521821D01*
X122350582Y-98339250D01*
X122406397Y-98143083D01*
X122425215Y-97940000D01*
X122406397Y-97736917D01*
X122350582Y-97540750D01*
X122259673Y-97358179D01*
X122136764Y-97195421D01*
X121986041Y-97058019D01*
X121812637Y-96950652D01*
X121622456Y-96876976D01*
X121622455Y-96876975D01*
X121622453Y-96876975D01*
X121421976Y-96839500D01*
X121218024Y-96839500D01*
X121017546Y-96876975D01*
X120947632Y-96904059D01*
X120827363Y-96950652D01*
X120653959Y-97058019D01*
X120503237Y-97195420D01*
X120380328Y-97358177D01*
X120380323Y-97358186D01*
X120289419Y-97540747D01*
X120289418Y-97540750D01*
X120233603Y-97736917D01*
X120214785Y-97940000D01*
X116355285Y-97940000D01*
X116309186Y-97879923D01*
X116309185Y-97879922D01*
X116309182Y-97879918D01*
X116309177Y-97879914D01*
X116309176Y-97879913D01*
X116183738Y-97783662D01*
X116037666Y-97723157D01*
X116037658Y-97723155D01*
X115880901Y-97702518D01*
X115880899Y-97702518D01*
X115724141Y-97723155D01*
X115724133Y-97723157D01*
X115578061Y-97783662D01*
X115578060Y-97783662D01*
X115452623Y-97879913D01*
X115452613Y-97879923D01*
X115356362Y-98005360D01*
X115356362Y-98005361D01*
X115295857Y-98151433D01*
X115295855Y-98151441D01*
X115275218Y-98308199D01*
X114871664Y-98308199D01*
X114875482Y-98279200D01*
X114854844Y-98122438D01*
X114799506Y-97988841D01*
X114794337Y-97976361D01*
X114794337Y-97976360D01*
X114698086Y-97850923D01*
X114698085Y-97850922D01*
X114698082Y-97850918D01*
X114698077Y-97850914D01*
X114698076Y-97850913D01*
X114572638Y-97754662D01*
X114426566Y-97694157D01*
X114426558Y-97694155D01*
X114269801Y-97673518D01*
X114269799Y-97673518D01*
X114113041Y-97694155D01*
X114113033Y-97694157D01*
X113966961Y-97754662D01*
X113966960Y-97754662D01*
X113841523Y-97850913D01*
X113841513Y-97850923D01*
X113745262Y-97976360D01*
X113745262Y-97976361D01*
X113684757Y-98122433D01*
X113684755Y-98122441D01*
X113664118Y-98279199D01*
X112989234Y-98279199D01*
X112977938Y-98251928D01*
X112977937Y-98251927D01*
X112977936Y-98251924D01*
X112974217Y-98247077D01*
X112953793Y-98189405D01*
X112971169Y-98130738D01*
X112982760Y-98116803D01*
X112985273Y-98114288D01*
X112985282Y-98114282D01*
X113081536Y-97988841D01*
X113142044Y-97842762D01*
X113162682Y-97686000D01*
X113142044Y-97529238D01*
X113081537Y-97383161D01*
X113081537Y-97383160D01*
X112985286Y-97257723D01*
X112985285Y-97257722D01*
X112985282Y-97257718D01*
X112985277Y-97257714D01*
X112985276Y-97257713D01*
X112859838Y-97161462D01*
X112713766Y-97100957D01*
X112713758Y-97100955D01*
X112557001Y-97080318D01*
X112556999Y-97080318D01*
X112400241Y-97100955D01*
X112400233Y-97100957D01*
X112254161Y-97161462D01*
X112254160Y-97161462D01*
X112128723Y-97257713D01*
X112128713Y-97257723D01*
X112032462Y-97383160D01*
X112032462Y-97383161D01*
X111971957Y-97529233D01*
X111971955Y-97529241D01*
X111951318Y-97685999D01*
X111951318Y-97686000D01*
X111971955Y-97842758D01*
X111971957Y-97842766D01*
X112032461Y-97988836D01*
X112032463Y-97988838D01*
X112032464Y-97988841D01*
X112036182Y-97993687D01*
X112056606Y-98051361D01*
X112039229Y-98110027D01*
X112027648Y-98123952D01*
X112025119Y-98126480D01*
X111928862Y-98251925D01*
X111928862Y-98251926D01*
X111868357Y-98397998D01*
X111868355Y-98398006D01*
X111847718Y-98554764D01*
X110228736Y-98554764D01*
X110221044Y-98496338D01*
X110196037Y-98435966D01*
X110160537Y-98350261D01*
X110160537Y-98350260D01*
X110064286Y-98224823D01*
X110064285Y-98224822D01*
X110064282Y-98224818D01*
X110064277Y-98224814D01*
X110064276Y-98224813D01*
X109968651Y-98151438D01*
X109938841Y-98128564D01*
X109938840Y-98128563D01*
X109938838Y-98128562D01*
X109792766Y-98068057D01*
X109792758Y-98068055D01*
X109636001Y-98047418D01*
X109635999Y-98047418D01*
X109479241Y-98068055D01*
X109479233Y-98068057D01*
X109333161Y-98128562D01*
X109333160Y-98128562D01*
X109207723Y-98224813D01*
X109207713Y-98224823D01*
X109111462Y-98350260D01*
X109111462Y-98350261D01*
X109050957Y-98496333D01*
X109050955Y-98496341D01*
X109030318Y-98653099D01*
X106920537Y-98653099D01*
X107019673Y-98521821D01*
X107110582Y-98339250D01*
X107166397Y-98143083D01*
X107185215Y-97940000D01*
X107166397Y-97736917D01*
X107110582Y-97540750D01*
X107019673Y-97358179D01*
X106896764Y-97195421D01*
X106746041Y-97058019D01*
X106572637Y-96950652D01*
X106382456Y-96876976D01*
X106382455Y-96876975D01*
X106382453Y-96876975D01*
X106181976Y-96839500D01*
X105978024Y-96839500D01*
X105777546Y-96876975D01*
X105707632Y-96904059D01*
X105587363Y-96950652D01*
X105413959Y-97058019D01*
X105263237Y-97195420D01*
X105140328Y-97358177D01*
X105140323Y-97358186D01*
X105049419Y-97540747D01*
X105049418Y-97540750D01*
X104993603Y-97736917D01*
X104974785Y-97940000D01*
X101100500Y-97940000D01*
X101100500Y-95400000D01*
X104974785Y-95400000D01*
X104993603Y-95603083D01*
X105049418Y-95799250D01*
X105140327Y-95981821D01*
X105263236Y-96144579D01*
X105413959Y-96281981D01*
X105587363Y-96389348D01*
X105777544Y-96463024D01*
X105978024Y-96500500D01*
X106181976Y-96500500D01*
X106382456Y-96463024D01*
X106572637Y-96389348D01*
X106746041Y-96281981D01*
X106896764Y-96144579D01*
X107019673Y-95981821D01*
X107110582Y-95799250D01*
X107166397Y-95603083D01*
X107185215Y-95400000D01*
X120214785Y-95400000D01*
X120233603Y-95603083D01*
X120289418Y-95799250D01*
X120380327Y-95981821D01*
X120503236Y-96144579D01*
X120653959Y-96281981D01*
X120827363Y-96389348D01*
X121017544Y-96463024D01*
X121218024Y-96500500D01*
X121421976Y-96500500D01*
X121622456Y-96463024D01*
X121812637Y-96389348D01*
X121986041Y-96281981D01*
X122136764Y-96144579D01*
X122259673Y-95981821D01*
X122350582Y-95799250D01*
X122406397Y-95603083D01*
X122425215Y-95400000D01*
X122406397Y-95196917D01*
X122350582Y-95000750D01*
X122259673Y-94818179D01*
X122136764Y-94655421D01*
X121986041Y-94518019D01*
X121812637Y-94410652D01*
X121622456Y-94336976D01*
X121622455Y-94336975D01*
X121622453Y-94336975D01*
X121421976Y-94299500D01*
X121218024Y-94299500D01*
X121017546Y-94336975D01*
X120947632Y-94364059D01*
X120827363Y-94410652D01*
X120705673Y-94485999D01*
X120653959Y-94518019D01*
X120503237Y-94655420D01*
X120380328Y-94818177D01*
X120380323Y-94818186D01*
X120289419Y-95000747D01*
X120289418Y-95000750D01*
X120233603Y-95196917D01*
X120214785Y-95400000D01*
X107185215Y-95400000D01*
X107166397Y-95196917D01*
X107110582Y-95000750D01*
X107019673Y-94818179D01*
X106896764Y-94655421D01*
X106746041Y-94518019D01*
X106694327Y-94485999D01*
X111157718Y-94485999D01*
X111157718Y-94486000D01*
X111178355Y-94642758D01*
X111178357Y-94642766D01*
X111238862Y-94788838D01*
X111238862Y-94788839D01*
X111261381Y-94818186D01*
X111335118Y-94914282D01*
X111460559Y-95010536D01*
X111606638Y-95071044D01*
X111724209Y-95086522D01*
X111763399Y-95091682D01*
X111763400Y-95091682D01*
X111763401Y-95091682D01*
X111794752Y-95087554D01*
X111920162Y-95071044D01*
X112066241Y-95010536D01*
X112191682Y-94914282D01*
X112287936Y-94788841D01*
X112348444Y-94642762D01*
X112369082Y-94486000D01*
X112348444Y-94329238D01*
X112287937Y-94183161D01*
X112287937Y-94183160D01*
X112191686Y-94057723D01*
X112191685Y-94057722D01*
X112191682Y-94057718D01*
X112191677Y-94057714D01*
X112191676Y-94057713D01*
X112066238Y-93961462D01*
X111920166Y-93900957D01*
X111920158Y-93900955D01*
X111763401Y-93880318D01*
X111763399Y-93880318D01*
X111606641Y-93900955D01*
X111606633Y-93900957D01*
X111460561Y-93961462D01*
X111460560Y-93961462D01*
X111335123Y-94057713D01*
X111335113Y-94057723D01*
X111238862Y-94183160D01*
X111238862Y-94183161D01*
X111178357Y-94329233D01*
X111178355Y-94329241D01*
X111157718Y-94485999D01*
X106694327Y-94485999D01*
X106572637Y-94410652D01*
X106382456Y-94336976D01*
X106382455Y-94336975D01*
X106382453Y-94336975D01*
X106181976Y-94299500D01*
X105978024Y-94299500D01*
X105777546Y-94336975D01*
X105707632Y-94364059D01*
X105587363Y-94410652D01*
X105465673Y-94485999D01*
X105413959Y-94518019D01*
X105263237Y-94655420D01*
X105140328Y-94818177D01*
X105140323Y-94818186D01*
X105049419Y-95000747D01*
X105049418Y-95000750D01*
X104993603Y-95196917D01*
X104974785Y-95400000D01*
X101100500Y-95400000D01*
X101100500Y-92860000D01*
X104974785Y-92860000D01*
X104993603Y-93063083D01*
X105049418Y-93259250D01*
X105140327Y-93441821D01*
X105263236Y-93604579D01*
X105413959Y-93741981D01*
X105587363Y-93849348D01*
X105777544Y-93923024D01*
X105978024Y-93960500D01*
X106181976Y-93960500D01*
X106382456Y-93923024D01*
X106572637Y-93849348D01*
X106746041Y-93741981D01*
X106896764Y-93604579D01*
X107019673Y-93441821D01*
X107110582Y-93259250D01*
X107166397Y-93063083D01*
X107185215Y-92860000D01*
X107166397Y-92656917D01*
X107110582Y-92460750D01*
X107080282Y-92399899D01*
X112293718Y-92399899D01*
X112293718Y-92399900D01*
X112314355Y-92556658D01*
X112314357Y-92556666D01*
X112374862Y-92702738D01*
X112374862Y-92702739D01*
X112460881Y-92814841D01*
X112471118Y-92828182D01*
X112596559Y-92924436D01*
X112596560Y-92924436D01*
X112596561Y-92924437D01*
X112634824Y-92940286D01*
X112742638Y-92984944D01*
X112860209Y-93000422D01*
X112899399Y-93005582D01*
X112899400Y-93005582D01*
X112899401Y-93005582D01*
X112930752Y-93001454D01*
X113056162Y-92984944D01*
X113190042Y-92929488D01*
X113251037Y-92924688D01*
X113288191Y-92942410D01*
X113410859Y-93036536D01*
X113410860Y-93036536D01*
X113410861Y-93036537D01*
X113474949Y-93063083D01*
X113556938Y-93097044D01*
X113674509Y-93112522D01*
X113713699Y-93117682D01*
X113713700Y-93117682D01*
X113713701Y-93117682D01*
X113745052Y-93113554D01*
X113870462Y-93097044D01*
X114016541Y-93036536D01*
X114141982Y-92940282D01*
X114203584Y-92860000D01*
X120214785Y-92860000D01*
X120233603Y-93063083D01*
X120289418Y-93259250D01*
X120380327Y-93441821D01*
X120503236Y-93604579D01*
X120653959Y-93741981D01*
X120827363Y-93849348D01*
X121017544Y-93923024D01*
X121218024Y-93960500D01*
X121421976Y-93960500D01*
X121622456Y-93923024D01*
X121812637Y-93849348D01*
X121986041Y-93741981D01*
X122136764Y-93604579D01*
X122259673Y-93441821D01*
X122350582Y-93259250D01*
X122406397Y-93063083D01*
X122425215Y-92860000D01*
X122406397Y-92656917D01*
X122350582Y-92460750D01*
X122259673Y-92278179D01*
X122136764Y-92115421D01*
X121986041Y-91978019D01*
X121812637Y-91870652D01*
X121622456Y-91796976D01*
X121622455Y-91796975D01*
X121622453Y-91796975D01*
X121421976Y-91759500D01*
X121218024Y-91759500D01*
X121017546Y-91796975D01*
X120971390Y-91814856D01*
X120827363Y-91870652D01*
X120667737Y-91969488D01*
X120653959Y-91978019D01*
X120503237Y-92115420D01*
X120380328Y-92278177D01*
X120380323Y-92278186D01*
X120289419Y-92460747D01*
X120289418Y-92460750D01*
X120233603Y-92656917D01*
X120214785Y-92860000D01*
X114203584Y-92860000D01*
X114238236Y-92814841D01*
X114298744Y-92668762D01*
X114319382Y-92512000D01*
X114298744Y-92355238D01*
X114276710Y-92302044D01*
X114238237Y-92209161D01*
X114238237Y-92209160D01*
X114141986Y-92083723D01*
X114141985Y-92083722D01*
X114141982Y-92083718D01*
X114141977Y-92083714D01*
X114141976Y-92083713D01*
X114016538Y-91987462D01*
X113870466Y-91926957D01*
X113870458Y-91926955D01*
X113713701Y-91906318D01*
X113713699Y-91906318D01*
X113556941Y-91926955D01*
X113556932Y-91926957D01*
X113423058Y-91982410D01*
X113362061Y-91987211D01*
X113324906Y-91969488D01*
X113202238Y-91875362D01*
X113056166Y-91814857D01*
X113056158Y-91814855D01*
X112899401Y-91794218D01*
X112899399Y-91794218D01*
X112742641Y-91814855D01*
X112742633Y-91814857D01*
X112596561Y-91875362D01*
X112596560Y-91875362D01*
X112471123Y-91971613D01*
X112471113Y-91971623D01*
X112374862Y-92097060D01*
X112374862Y-92097061D01*
X112314357Y-92243133D01*
X112314355Y-92243141D01*
X112293718Y-92399899D01*
X107080282Y-92399899D01*
X107019673Y-92278179D01*
X106896764Y-92115421D01*
X106746041Y-91978019D01*
X106572637Y-91870652D01*
X106382456Y-91796976D01*
X106382455Y-91796975D01*
X106382453Y-91796975D01*
X106181976Y-91759500D01*
X105978024Y-91759500D01*
X105777546Y-91796975D01*
X105731390Y-91814856D01*
X105587363Y-91870652D01*
X105427737Y-91969488D01*
X105413959Y-91978019D01*
X105263237Y-92115420D01*
X105140328Y-92278177D01*
X105140323Y-92278186D01*
X105049419Y-92460747D01*
X105049418Y-92460750D01*
X104993603Y-92656917D01*
X104974785Y-92860000D01*
X101100500Y-92860000D01*
X101100500Y-91716999D01*
X107633318Y-91716999D01*
X107633318Y-91717000D01*
X107653955Y-91873758D01*
X107653957Y-91873766D01*
X107714462Y-92019838D01*
X107714462Y-92019839D01*
X107810713Y-92145276D01*
X107810718Y-92145282D01*
X107936159Y-92241536D01*
X107936160Y-92241536D01*
X107936161Y-92241537D01*
X108024618Y-92278177D01*
X108082238Y-92302044D01*
X108199809Y-92317522D01*
X108238999Y-92322682D01*
X108239000Y-92322682D01*
X108239001Y-92322682D01*
X108270352Y-92318554D01*
X108395762Y-92302044D01*
X108541841Y-92241536D01*
X108667282Y-92145282D01*
X108763536Y-92019841D01*
X108824044Y-91873762D01*
X108844682Y-91717000D01*
X108824044Y-91560238D01*
X108763537Y-91414161D01*
X108763537Y-91414160D01*
X108667286Y-91288723D01*
X108667285Y-91288722D01*
X108667282Y-91288718D01*
X108667277Y-91288714D01*
X108667276Y-91288713D01*
X108554244Y-91201981D01*
X108541841Y-91192464D01*
X108541840Y-91192463D01*
X108541838Y-91192462D01*
X108395766Y-91131957D01*
X108395758Y-91131955D01*
X108239001Y-91111318D01*
X108238999Y-91111318D01*
X108082241Y-91131955D01*
X108082233Y-91131957D01*
X107936161Y-91192462D01*
X107936160Y-91192462D01*
X107810723Y-91288713D01*
X107810713Y-91288723D01*
X107714462Y-91414160D01*
X107714462Y-91414161D01*
X107653957Y-91560233D01*
X107653955Y-91560241D01*
X107633318Y-91716999D01*
X101100500Y-91716999D01*
X101100500Y-90320000D01*
X104974785Y-90320000D01*
X104993603Y-90523083D01*
X105049418Y-90719250D01*
X105140327Y-90901821D01*
X105263236Y-91064579D01*
X105413959Y-91201981D01*
X105587363Y-91309348D01*
X105777544Y-91383024D01*
X105978024Y-91420500D01*
X106181976Y-91420500D01*
X106382456Y-91383024D01*
X106572637Y-91309348D01*
X106746041Y-91201981D01*
X106896764Y-91064579D01*
X107019673Y-90901821D01*
X107110582Y-90719250D01*
X107166397Y-90523083D01*
X107185215Y-90320000D01*
X107184223Y-90309299D01*
X111443318Y-90309299D01*
X111443318Y-90309300D01*
X111463955Y-90466058D01*
X111463957Y-90466066D01*
X111524462Y-90612138D01*
X111524462Y-90612139D01*
X111524464Y-90612141D01*
X111620718Y-90737582D01*
X111746159Y-90833836D01*
X111892238Y-90894344D01*
X112009809Y-90909822D01*
X112048999Y-90914982D01*
X112049000Y-90914982D01*
X112049001Y-90914982D01*
X112080352Y-90910854D01*
X112205762Y-90894344D01*
X112351841Y-90833836D01*
X112477282Y-90737582D01*
X112573536Y-90612141D01*
X112634044Y-90466062D01*
X112653273Y-90320000D01*
X120214785Y-90320000D01*
X120233603Y-90523083D01*
X120289418Y-90719250D01*
X120380327Y-90901821D01*
X120503236Y-91064579D01*
X120653959Y-91201981D01*
X120827363Y-91309348D01*
X121017544Y-91383024D01*
X121218024Y-91420500D01*
X121421976Y-91420500D01*
X121622456Y-91383024D01*
X121812637Y-91309348D01*
X121986041Y-91201981D01*
X122136764Y-91064579D01*
X122259673Y-90901821D01*
X122350582Y-90719250D01*
X122406397Y-90523083D01*
X122425215Y-90320000D01*
X122406397Y-90116917D01*
X122350582Y-89920750D01*
X122259673Y-89738179D01*
X122136764Y-89575421D01*
X121986041Y-89438019D01*
X121812637Y-89330652D01*
X121622456Y-89256976D01*
X121622455Y-89256975D01*
X121622453Y-89256975D01*
X121421976Y-89219500D01*
X121218024Y-89219500D01*
X121017546Y-89256975D01*
X120947632Y-89284059D01*
X120827363Y-89330652D01*
X120653959Y-89438019D01*
X120503237Y-89575420D01*
X120380328Y-89738177D01*
X120380323Y-89738186D01*
X120289419Y-89920747D01*
X120289418Y-89920750D01*
X120233603Y-90116917D01*
X120214785Y-90320000D01*
X112653273Y-90320000D01*
X112654682Y-90309300D01*
X112634044Y-90152538D01*
X112573537Y-90006461D01*
X112573537Y-90006460D01*
X112477286Y-89881023D01*
X112477285Y-89881022D01*
X112477282Y-89881018D01*
X112477277Y-89881014D01*
X112477276Y-89881013D01*
X112351838Y-89784762D01*
X112205766Y-89724257D01*
X112205758Y-89724255D01*
X112049001Y-89703618D01*
X112048999Y-89703618D01*
X111892241Y-89724255D01*
X111892233Y-89724257D01*
X111746161Y-89784762D01*
X111746160Y-89784762D01*
X111620723Y-89881013D01*
X111620713Y-89881023D01*
X111524462Y-90006460D01*
X111524462Y-90006461D01*
X111463957Y-90152533D01*
X111463955Y-90152541D01*
X111443318Y-90309299D01*
X107184223Y-90309299D01*
X107166397Y-90116917D01*
X107110582Y-89920750D01*
X107019673Y-89738179D01*
X106896764Y-89575421D01*
X106746041Y-89438019D01*
X106572637Y-89330652D01*
X106382456Y-89256976D01*
X106382455Y-89256975D01*
X106382453Y-89256975D01*
X106181976Y-89219500D01*
X105978024Y-89219500D01*
X105777546Y-89256975D01*
X105707632Y-89284059D01*
X105587363Y-89330652D01*
X105413959Y-89438019D01*
X105263237Y-89575420D01*
X105140328Y-89738177D01*
X105140323Y-89738186D01*
X105049419Y-89920747D01*
X105049418Y-89920750D01*
X104993603Y-90116917D01*
X104974785Y-90320000D01*
X101100500Y-90320000D01*
X101100500Y-87780000D01*
X104974785Y-87780000D01*
X104993603Y-87983083D01*
X105049418Y-88179250D01*
X105140327Y-88361821D01*
X105263236Y-88524579D01*
X105413959Y-88661981D01*
X105587363Y-88769348D01*
X105777544Y-88843024D01*
X105978024Y-88880500D01*
X106181976Y-88880500D01*
X106382456Y-88843024D01*
X106572637Y-88769348D01*
X106746041Y-88661981D01*
X106896764Y-88524579D01*
X107019673Y-88361821D01*
X107110582Y-88179250D01*
X107166397Y-87983083D01*
X107185215Y-87780000D01*
X120214785Y-87780000D01*
X120233603Y-87983083D01*
X120289418Y-88179250D01*
X120380327Y-88361821D01*
X120503236Y-88524579D01*
X120653959Y-88661981D01*
X120827363Y-88769348D01*
X121017544Y-88843024D01*
X121218024Y-88880500D01*
X121421976Y-88880500D01*
X121622456Y-88843024D01*
X121812637Y-88769348D01*
X121986041Y-88661981D01*
X122136764Y-88524579D01*
X122259673Y-88361821D01*
X122350582Y-88179250D01*
X122406397Y-87983083D01*
X122425215Y-87780000D01*
X122406397Y-87576917D01*
X122350582Y-87380750D01*
X122259673Y-87198179D01*
X122136764Y-87035421D01*
X121986041Y-86898019D01*
X121812637Y-86790652D01*
X121622456Y-86716976D01*
X121622455Y-86716975D01*
X121622453Y-86716975D01*
X121421976Y-86679500D01*
X121218024Y-86679500D01*
X121017546Y-86716975D01*
X120947632Y-86744059D01*
X120827363Y-86790652D01*
X120699079Y-86870082D01*
X120653959Y-86898019D01*
X120503237Y-87035420D01*
X120380328Y-87198177D01*
X120380323Y-87198186D01*
X120351146Y-87256782D01*
X120289418Y-87380750D01*
X120233603Y-87576917D01*
X120214785Y-87780000D01*
X107185215Y-87780000D01*
X107166397Y-87576917D01*
X107110582Y-87380750D01*
X107019673Y-87198179D01*
X106896764Y-87035421D01*
X106746041Y-86898019D01*
X106572637Y-86790652D01*
X106382456Y-86716976D01*
X106382455Y-86716975D01*
X106382453Y-86716975D01*
X106181976Y-86679500D01*
X105978024Y-86679500D01*
X105777546Y-86716975D01*
X105707632Y-86744059D01*
X105587363Y-86790652D01*
X105459079Y-86870082D01*
X105413959Y-86898019D01*
X105263237Y-87035420D01*
X105140328Y-87198177D01*
X105140323Y-87198186D01*
X105111146Y-87256782D01*
X105049418Y-87380750D01*
X104993603Y-87576917D01*
X104974785Y-87780000D01*
X101100500Y-87780000D01*
X101100500Y-86651099D01*
X107413118Y-86651099D01*
X107413118Y-86651100D01*
X107433755Y-86807858D01*
X107433757Y-86807866D01*
X107494262Y-86953938D01*
X107494262Y-86953939D01*
X107590513Y-87079376D01*
X107590518Y-87079382D01*
X107715959Y-87175636D01*
X107715960Y-87175636D01*
X107715961Y-87175637D01*
X107770399Y-87198186D01*
X107862038Y-87236144D01*
X107979609Y-87251622D01*
X108018799Y-87256782D01*
X108018800Y-87256782D01*
X108018801Y-87256782D01*
X108050152Y-87252654D01*
X108175562Y-87236144D01*
X108321641Y-87175636D01*
X108447082Y-87079382D01*
X108543336Y-86953941D01*
X108603844Y-86807862D01*
X108624482Y-86651100D01*
X108603844Y-86494338D01*
X108573535Y-86421166D01*
X108543337Y-86348261D01*
X108543337Y-86348260D01*
X108478988Y-86264399D01*
X113703918Y-86264399D01*
X113703918Y-86264400D01*
X113724555Y-86421158D01*
X113724557Y-86421166D01*
X113785062Y-86567238D01*
X113785062Y-86567239D01*
X113785064Y-86567241D01*
X113881318Y-86692682D01*
X114006759Y-86788936D01*
X114006760Y-86788936D01*
X114006761Y-86788937D01*
X114052450Y-86807862D01*
X114152838Y-86849444D01*
X114270409Y-86864922D01*
X114309599Y-86870082D01*
X114309600Y-86870082D01*
X114309601Y-86870082D01*
X114340952Y-86865954D01*
X114466362Y-86849444D01*
X114612441Y-86788936D01*
X114737882Y-86692682D01*
X114834136Y-86567241D01*
X114894644Y-86421162D01*
X114915282Y-86264400D01*
X114894644Y-86107638D01*
X114834137Y-85961561D01*
X114834137Y-85961560D01*
X114737886Y-85836123D01*
X114737885Y-85836122D01*
X114737882Y-85836118D01*
X114737877Y-85836114D01*
X114737876Y-85836113D01*
X114612438Y-85739862D01*
X114466366Y-85679357D01*
X114466358Y-85679355D01*
X114309601Y-85658718D01*
X114309599Y-85658718D01*
X114152841Y-85679355D01*
X114152833Y-85679357D01*
X114006761Y-85739862D01*
X114006760Y-85739862D01*
X113881323Y-85836113D01*
X113881313Y-85836123D01*
X113785062Y-85961560D01*
X113785062Y-85961561D01*
X113724557Y-86107633D01*
X113724555Y-86107641D01*
X113703918Y-86264399D01*
X108478988Y-86264399D01*
X108447086Y-86222823D01*
X108447085Y-86222822D01*
X108447082Y-86222818D01*
X108447077Y-86222814D01*
X108447076Y-86222813D01*
X108321638Y-86126562D01*
X108175566Y-86066057D01*
X108175558Y-86066055D01*
X108018801Y-86045418D01*
X108018799Y-86045418D01*
X107862041Y-86066055D01*
X107862033Y-86066057D01*
X107715961Y-86126562D01*
X107715960Y-86126562D01*
X107590523Y-86222813D01*
X107590513Y-86222823D01*
X107494262Y-86348260D01*
X107494262Y-86348261D01*
X107433757Y-86494333D01*
X107433755Y-86494341D01*
X107413118Y-86651099D01*
X101100500Y-86651099D01*
X101100500Y-85240000D01*
X104974785Y-85240000D01*
X104993603Y-85443083D01*
X105049418Y-85639250D01*
X105140327Y-85821821D01*
X105263236Y-85984579D01*
X105413959Y-86121981D01*
X105587363Y-86229348D01*
X105777544Y-86303024D01*
X105978024Y-86340500D01*
X106181976Y-86340500D01*
X106382456Y-86303024D01*
X106572637Y-86229348D01*
X106746041Y-86121981D01*
X106896764Y-85984579D01*
X107019673Y-85821821D01*
X107110582Y-85639250D01*
X107140472Y-85534199D01*
X110535118Y-85534199D01*
X110535118Y-85534200D01*
X110555755Y-85690958D01*
X110555757Y-85690966D01*
X110616262Y-85837038D01*
X110616262Y-85837039D01*
X110711811Y-85961561D01*
X110712518Y-85962482D01*
X110837959Y-86058736D01*
X110837960Y-86058736D01*
X110837961Y-86058737D01*
X110956026Y-86107641D01*
X110984038Y-86119244D01*
X111101609Y-86134722D01*
X111140799Y-86139882D01*
X111140800Y-86139882D01*
X111140801Y-86139882D01*
X111172152Y-86135754D01*
X111297562Y-86119244D01*
X111443641Y-86058736D01*
X111569082Y-85962482D01*
X111569087Y-85962476D01*
X111573826Y-85958840D01*
X111631502Y-85938416D01*
X111690168Y-85955793D01*
X111694361Y-85958840D01*
X111699113Y-85962486D01*
X111772159Y-86018536D01*
X111772160Y-86018536D01*
X111772161Y-86018537D01*
X111918233Y-86079042D01*
X111918238Y-86079044D01*
X112035809Y-86094522D01*
X112074999Y-86099682D01*
X112075000Y-86099682D01*
X112075001Y-86099682D01*
X112106352Y-86095554D01*
X112231762Y-86079044D01*
X112377841Y-86018536D01*
X112503282Y-85922282D01*
X112599536Y-85796841D01*
X112660044Y-85650762D01*
X112680682Y-85494000D01*
X112660044Y-85337238D01*
X112619767Y-85240000D01*
X120214785Y-85240000D01*
X120233603Y-85443083D01*
X120289418Y-85639250D01*
X120380327Y-85821821D01*
X120503236Y-85984579D01*
X120653959Y-86121981D01*
X120827363Y-86229348D01*
X121017544Y-86303024D01*
X121218024Y-86340500D01*
X121421976Y-86340500D01*
X121622456Y-86303024D01*
X121812637Y-86229348D01*
X121986041Y-86121981D01*
X122136764Y-85984579D01*
X122259673Y-85821821D01*
X122350582Y-85639250D01*
X122406397Y-85443083D01*
X122425215Y-85240000D01*
X122406397Y-85036917D01*
X122350582Y-84840750D01*
X122259673Y-84658179D01*
X122136764Y-84495421D01*
X121986041Y-84358019D01*
X121812637Y-84250652D01*
X121622456Y-84176976D01*
X121622455Y-84176975D01*
X121622453Y-84176975D01*
X121421976Y-84139500D01*
X121218024Y-84139500D01*
X121017546Y-84176975D01*
X120952025Y-84202358D01*
X120827363Y-84250652D01*
X120653959Y-84358019D01*
X120503236Y-84495421D01*
X120463388Y-84548188D01*
X120380328Y-84658177D01*
X120380323Y-84658186D01*
X120320028Y-84779276D01*
X120289418Y-84840750D01*
X120233603Y-85036917D01*
X120214785Y-85240000D01*
X112619767Y-85240000D01*
X112616188Y-85231360D01*
X112599537Y-85191161D01*
X112599537Y-85191160D01*
X112503286Y-85065723D01*
X112503285Y-85065722D01*
X112503282Y-85065718D01*
X112503277Y-85065714D01*
X112503276Y-85065713D01*
X112377838Y-84969462D01*
X112231766Y-84908957D01*
X112231758Y-84908955D01*
X112075001Y-84888318D01*
X112074999Y-84888318D01*
X111918241Y-84908955D01*
X111918233Y-84908957D01*
X111772161Y-84969462D01*
X111772160Y-84969462D01*
X111641972Y-85069359D01*
X111584296Y-85089783D01*
X111525630Y-85072405D01*
X111521438Y-85069359D01*
X111443638Y-85009662D01*
X111297566Y-84949157D01*
X111297558Y-84949155D01*
X111140801Y-84928518D01*
X111140799Y-84928518D01*
X110984041Y-84949155D01*
X110984033Y-84949157D01*
X110837961Y-85009662D01*
X110837960Y-85009662D01*
X110712523Y-85105913D01*
X110712513Y-85105923D01*
X110616262Y-85231360D01*
X110616262Y-85231361D01*
X110555757Y-85377433D01*
X110555755Y-85377441D01*
X110535118Y-85534199D01*
X107140472Y-85534199D01*
X107166397Y-85443083D01*
X107185215Y-85240000D01*
X107166397Y-85036917D01*
X107110582Y-84840750D01*
X107019673Y-84658179D01*
X106896764Y-84495421D01*
X106746041Y-84358019D01*
X106734703Y-84350999D01*
X108014318Y-84350999D01*
X108014318Y-84351000D01*
X108034955Y-84507758D01*
X108034957Y-84507766D01*
X108095462Y-84653838D01*
X108095462Y-84653839D01*
X108191713Y-84779276D01*
X108191718Y-84779282D01*
X108317159Y-84875536D01*
X108317160Y-84875536D01*
X108317161Y-84875537D01*
X108463233Y-84936042D01*
X108463238Y-84936044D01*
X108562842Y-84949157D01*
X108619999Y-84956682D01*
X108620000Y-84956682D01*
X108620001Y-84956682D01*
X108677158Y-84949157D01*
X108776762Y-84936044D01*
X108922841Y-84875536D01*
X109048282Y-84779282D01*
X109144536Y-84653841D01*
X109164767Y-84604999D01*
X112808218Y-84604999D01*
X112808218Y-84605000D01*
X112828855Y-84761758D01*
X112828857Y-84761766D01*
X112889362Y-84907838D01*
X112889362Y-84907839D01*
X112967495Y-85009664D01*
X112985618Y-85033282D01*
X113111059Y-85129536D01*
X113111060Y-85129536D01*
X113111061Y-85129537D01*
X113257133Y-85190042D01*
X113257138Y-85190044D01*
X113374709Y-85205522D01*
X113413899Y-85210682D01*
X113413900Y-85210682D01*
X113413901Y-85210682D01*
X113445252Y-85206554D01*
X113570662Y-85190044D01*
X113716741Y-85129536D01*
X113842182Y-85033282D01*
X113918232Y-84934171D01*
X113968655Y-84899516D01*
X114029819Y-84901117D01*
X114034658Y-84902975D01*
X114096325Y-84928518D01*
X114104838Y-84932044D01*
X114222409Y-84947522D01*
X114261599Y-84952682D01*
X114261600Y-84952682D01*
X114261601Y-84952682D01*
X114292952Y-84948554D01*
X114418362Y-84932044D01*
X114564441Y-84871536D01*
X114689882Y-84775282D01*
X114786136Y-84649841D01*
X114846644Y-84503762D01*
X114867282Y-84347000D01*
X114846644Y-84190238D01*
X114789584Y-84052483D01*
X114786733Y-84045599D01*
X118392318Y-84045599D01*
X118392318Y-84045600D01*
X118412955Y-84202358D01*
X118412957Y-84202366D01*
X118473462Y-84348438D01*
X118473462Y-84348439D01*
X118550043Y-84448241D01*
X118569718Y-84473882D01*
X118695159Y-84570136D01*
X118695160Y-84570136D01*
X118695161Y-84570137D01*
X118779328Y-84605000D01*
X118841238Y-84630644D01*
X118958809Y-84646122D01*
X118997999Y-84651282D01*
X118998000Y-84651282D01*
X118998001Y-84651282D01*
X119029352Y-84647154D01*
X119154762Y-84630644D01*
X119300841Y-84570136D01*
X119426282Y-84473882D01*
X119522536Y-84348441D01*
X119583044Y-84202362D01*
X119603682Y-84045600D01*
X119603492Y-84044160D01*
X119587504Y-83922718D01*
X119583044Y-83888838D01*
X119522537Y-83742761D01*
X119522537Y-83742760D01*
X119426286Y-83617323D01*
X119426285Y-83617322D01*
X119426282Y-83617318D01*
X119426277Y-83617314D01*
X119426276Y-83617313D01*
X119300838Y-83521062D01*
X119154766Y-83460557D01*
X119154758Y-83460555D01*
X118998001Y-83439918D01*
X118997999Y-83439918D01*
X118841241Y-83460555D01*
X118841233Y-83460557D01*
X118695161Y-83521062D01*
X118695160Y-83521062D01*
X118569723Y-83617313D01*
X118569713Y-83617323D01*
X118473462Y-83742760D01*
X118473462Y-83742761D01*
X118412957Y-83888833D01*
X118412955Y-83888841D01*
X118392318Y-84045599D01*
X114786733Y-84045599D01*
X114786137Y-84044161D01*
X114786137Y-84044160D01*
X114689886Y-83918723D01*
X114689885Y-83918722D01*
X114689882Y-83918718D01*
X114689877Y-83918714D01*
X114689876Y-83918713D01*
X114564438Y-83822462D01*
X114418366Y-83761957D01*
X114418358Y-83761955D01*
X114261601Y-83741318D01*
X114261599Y-83741318D01*
X114104841Y-83761955D01*
X114104833Y-83761957D01*
X113958761Y-83822462D01*
X113958760Y-83822462D01*
X113833323Y-83918713D01*
X113833316Y-83918720D01*
X113757268Y-84017828D01*
X113706843Y-84052483D01*
X113645679Y-84050881D01*
X113640841Y-84049024D01*
X113570667Y-84019957D01*
X113570658Y-84019955D01*
X113413901Y-83999318D01*
X113413899Y-83999318D01*
X113257141Y-84019955D01*
X113257133Y-84019957D01*
X113111061Y-84080462D01*
X113111060Y-84080462D01*
X112985623Y-84176713D01*
X112985613Y-84176723D01*
X112889362Y-84302160D01*
X112889362Y-84302161D01*
X112828857Y-84448233D01*
X112828855Y-84448241D01*
X112808218Y-84604999D01*
X109164767Y-84604999D01*
X109205044Y-84507762D01*
X109225682Y-84351000D01*
X109225155Y-84347000D01*
X109206114Y-84202366D01*
X109205044Y-84194238D01*
X109197894Y-84176976D01*
X109144537Y-84048161D01*
X109144537Y-84048160D01*
X109048286Y-83922723D01*
X109048285Y-83922722D01*
X109048282Y-83922718D01*
X109048277Y-83922714D01*
X109048276Y-83922713D01*
X108922838Y-83826462D01*
X108776766Y-83765957D01*
X108776758Y-83765955D01*
X108620001Y-83745318D01*
X108619999Y-83745318D01*
X108463241Y-83765955D01*
X108463233Y-83765957D01*
X108317161Y-83826462D01*
X108317160Y-83826462D01*
X108191723Y-83922713D01*
X108191713Y-83922723D01*
X108095462Y-84048160D01*
X108095462Y-84048161D01*
X108034957Y-84194233D01*
X108034955Y-84194241D01*
X108014318Y-84350999D01*
X106734703Y-84350999D01*
X106572637Y-84250652D01*
X106382456Y-84176976D01*
X106382455Y-84176975D01*
X106382453Y-84176975D01*
X106181976Y-84139500D01*
X105978024Y-84139500D01*
X105777546Y-84176975D01*
X105712025Y-84202358D01*
X105587363Y-84250652D01*
X105413959Y-84358019D01*
X105263236Y-84495421D01*
X105223388Y-84548188D01*
X105140328Y-84658177D01*
X105140323Y-84658186D01*
X105080028Y-84779276D01*
X105049418Y-84840750D01*
X104993603Y-85036917D01*
X104974785Y-85240000D01*
X101100500Y-85240000D01*
X101100500Y-82700000D01*
X104974785Y-82700000D01*
X104993603Y-82903083D01*
X105049418Y-83099250D01*
X105140327Y-83281821D01*
X105263236Y-83444579D01*
X105413959Y-83581981D01*
X105587363Y-83689348D01*
X105777544Y-83763024D01*
X105978024Y-83800500D01*
X106181976Y-83800500D01*
X106382456Y-83763024D01*
X106572637Y-83689348D01*
X106746041Y-83581981D01*
X106896764Y-83444579D01*
X107019673Y-83281821D01*
X107110582Y-83099250D01*
X107166397Y-82903083D01*
X107185215Y-82700000D01*
X107185215Y-82699999D01*
X116269318Y-82699999D01*
X116269318Y-82700000D01*
X116289955Y-82856758D01*
X116289957Y-82856766D01*
X116350462Y-83002838D01*
X116350462Y-83002839D01*
X116446713Y-83128276D01*
X116446718Y-83128282D01*
X116572159Y-83224536D01*
X116718238Y-83285044D01*
X116835809Y-83300522D01*
X116874999Y-83305682D01*
X116875000Y-83305682D01*
X116875001Y-83305682D01*
X116906352Y-83301554D01*
X117031762Y-83285044D01*
X117177841Y-83224536D01*
X117303282Y-83128282D01*
X117399536Y-83002841D01*
X117460044Y-82856762D01*
X117480682Y-82700000D01*
X120214785Y-82700000D01*
X120233603Y-82903083D01*
X120289418Y-83099250D01*
X120380327Y-83281821D01*
X120503236Y-83444579D01*
X120653959Y-83581981D01*
X120827363Y-83689348D01*
X121017544Y-83763024D01*
X121218024Y-83800500D01*
X121421976Y-83800500D01*
X121622456Y-83763024D01*
X121812637Y-83689348D01*
X121986041Y-83581981D01*
X122136764Y-83444579D01*
X122259673Y-83281821D01*
X122350582Y-83099250D01*
X122406397Y-82903083D01*
X122425215Y-82700000D01*
X122406397Y-82496917D01*
X122350582Y-82300750D01*
X122259673Y-82118179D01*
X122136764Y-81955421D01*
X121986041Y-81818019D01*
X121812637Y-81710652D01*
X121622456Y-81636976D01*
X121622455Y-81636975D01*
X121622453Y-81636975D01*
X121421976Y-81599500D01*
X121218024Y-81599500D01*
X121017546Y-81636975D01*
X120950786Y-81662838D01*
X120827363Y-81710652D01*
X120701996Y-81788276D01*
X120653959Y-81818019D01*
X120503237Y-81955420D01*
X120380328Y-82118177D01*
X120380323Y-82118186D01*
X120289419Y-82300747D01*
X120289418Y-82300750D01*
X120233603Y-82496917D01*
X120214785Y-82700000D01*
X117480682Y-82700000D01*
X117460044Y-82543238D01*
X117399537Y-82397161D01*
X117399537Y-82397160D01*
X117303286Y-82271723D01*
X117303285Y-82271722D01*
X117303282Y-82271718D01*
X117303277Y-82271714D01*
X117303276Y-82271713D01*
X117177838Y-82175462D01*
X117031766Y-82114957D01*
X117031758Y-82114955D01*
X116875001Y-82094318D01*
X116874999Y-82094318D01*
X116718241Y-82114955D01*
X116718233Y-82114957D01*
X116572161Y-82175462D01*
X116572160Y-82175462D01*
X116446723Y-82271713D01*
X116446713Y-82271723D01*
X116350462Y-82397160D01*
X116350462Y-82397161D01*
X116289957Y-82543233D01*
X116289955Y-82543241D01*
X116269318Y-82699999D01*
X107185215Y-82699999D01*
X107166397Y-82496917D01*
X107110582Y-82300750D01*
X107019673Y-82118179D01*
X106896764Y-81955421D01*
X106746041Y-81818019D01*
X106572637Y-81710652D01*
X106382456Y-81636976D01*
X106382455Y-81636975D01*
X106382453Y-81636975D01*
X106181976Y-81599500D01*
X105978024Y-81599500D01*
X105777546Y-81636975D01*
X105710786Y-81662838D01*
X105587363Y-81710652D01*
X105461996Y-81788276D01*
X105413959Y-81818019D01*
X105263237Y-81955420D01*
X105140328Y-82118177D01*
X105140323Y-82118186D01*
X105049419Y-82300747D01*
X105049418Y-82300750D01*
X104993603Y-82496917D01*
X104974785Y-82700000D01*
X101100500Y-82700000D01*
X101100500Y-81359999D01*
X112871918Y-81359999D01*
X112871918Y-81360000D01*
X112892555Y-81516758D01*
X112892557Y-81516766D01*
X112953062Y-81662838D01*
X112953062Y-81662839D01*
X113049313Y-81788276D01*
X113049318Y-81788282D01*
X113174759Y-81884536D01*
X113320838Y-81945044D01*
X113438409Y-81960522D01*
X113477599Y-81965682D01*
X113477600Y-81965682D01*
X113477601Y-81965682D01*
X113508952Y-81961554D01*
X113634362Y-81945044D01*
X113780441Y-81884536D01*
X113905882Y-81788282D01*
X114002136Y-81662841D01*
X114062644Y-81516762D01*
X114083282Y-81360000D01*
X114062644Y-81203238D01*
X114002137Y-81057161D01*
X114002137Y-81057160D01*
X113905886Y-80931723D01*
X113905885Y-80931722D01*
X113905882Y-80931718D01*
X113905877Y-80931714D01*
X113905876Y-80931713D01*
X113780438Y-80835462D01*
X113634366Y-80774957D01*
X113634358Y-80774955D01*
X113477601Y-80754318D01*
X113477599Y-80754318D01*
X113320841Y-80774955D01*
X113320833Y-80774957D01*
X113174761Y-80835462D01*
X113174760Y-80835462D01*
X113049323Y-80931713D01*
X113049313Y-80931723D01*
X112953062Y-81057160D01*
X112953062Y-81057161D01*
X112892557Y-81203233D01*
X112892555Y-81203241D01*
X112871918Y-81359999D01*
X101100500Y-81359999D01*
X101100500Y-80160000D01*
X104974785Y-80160000D01*
X104993603Y-80363083D01*
X105049418Y-80559250D01*
X105140327Y-80741821D01*
X105263236Y-80904579D01*
X105413959Y-81041981D01*
X105587363Y-81149348D01*
X105777544Y-81223024D01*
X105978024Y-81260500D01*
X106181976Y-81260500D01*
X106382456Y-81223024D01*
X106572637Y-81149348D01*
X106746041Y-81041981D01*
X106896764Y-80904579D01*
X107019673Y-80741821D01*
X107110582Y-80559250D01*
X107166397Y-80363083D01*
X107185215Y-80160000D01*
X107166397Y-79956917D01*
X107110582Y-79760750D01*
X107056431Y-79651999D01*
X112205318Y-79651999D01*
X112205318Y-79652000D01*
X112225955Y-79808758D01*
X112225957Y-79808766D01*
X112286462Y-79954838D01*
X112286462Y-79954839D01*
X112286464Y-79954841D01*
X112382718Y-80080282D01*
X112508159Y-80176536D01*
X112654238Y-80237044D01*
X112771809Y-80252522D01*
X112810999Y-80257682D01*
X112811000Y-80257682D01*
X112811001Y-80257682D01*
X112842352Y-80253554D01*
X112867837Y-80250199D01*
X118084118Y-80250199D01*
X118084118Y-80250200D01*
X118104755Y-80406958D01*
X118104757Y-80406966D01*
X118165262Y-80553038D01*
X118165262Y-80553039D01*
X118261513Y-80678476D01*
X118261518Y-80678482D01*
X118386959Y-80774736D01*
X118386960Y-80774736D01*
X118386961Y-80774737D01*
X118533033Y-80835242D01*
X118533038Y-80835244D01*
X118650609Y-80850722D01*
X118689799Y-80855882D01*
X118689800Y-80855882D01*
X118689801Y-80855882D01*
X118721152Y-80851754D01*
X118846562Y-80835244D01*
X118992641Y-80774736D01*
X119118082Y-80678482D01*
X119214336Y-80553041D01*
X119274844Y-80406962D01*
X119295482Y-80250200D01*
X119283607Y-80160000D01*
X120214785Y-80160000D01*
X120233603Y-80363083D01*
X120289418Y-80559250D01*
X120380327Y-80741821D01*
X120503236Y-80904579D01*
X120653959Y-81041981D01*
X120827363Y-81149348D01*
X121017544Y-81223024D01*
X121218024Y-81260500D01*
X121421976Y-81260500D01*
X121622456Y-81223024D01*
X121812637Y-81149348D01*
X121986041Y-81041981D01*
X122136764Y-80904579D01*
X122259673Y-80741821D01*
X122350582Y-80559250D01*
X122406397Y-80363083D01*
X122425215Y-80160000D01*
X122406397Y-79956917D01*
X122350582Y-79760750D01*
X122259673Y-79578179D01*
X122136764Y-79415421D01*
X121986041Y-79278019D01*
X121812637Y-79170652D01*
X121622456Y-79096976D01*
X121622455Y-79096975D01*
X121622453Y-79096975D01*
X121421976Y-79059500D01*
X121218024Y-79059500D01*
X121017546Y-79096975D01*
X120947632Y-79124059D01*
X120827363Y-79170652D01*
X120653959Y-79278019D01*
X120503237Y-79415420D01*
X120380328Y-79578177D01*
X120380323Y-79578186D01*
X120289419Y-79760747D01*
X120289418Y-79760750D01*
X120233603Y-79956917D01*
X120214785Y-80160000D01*
X119283607Y-80160000D01*
X119274844Y-80093438D01*
X119214337Y-79947361D01*
X119214337Y-79947360D01*
X119118086Y-79821923D01*
X119118085Y-79821922D01*
X119118082Y-79821918D01*
X119118077Y-79821914D01*
X119118076Y-79821913D01*
X118992638Y-79725662D01*
X118846566Y-79665157D01*
X118846558Y-79665155D01*
X118689801Y-79644518D01*
X118689799Y-79644518D01*
X118533041Y-79665155D01*
X118533033Y-79665157D01*
X118386961Y-79725662D01*
X118386960Y-79725662D01*
X118261523Y-79821913D01*
X118261513Y-79821923D01*
X118165262Y-79947360D01*
X118165262Y-79947361D01*
X118104757Y-80093433D01*
X118104755Y-80093441D01*
X118084118Y-80250199D01*
X112867837Y-80250199D01*
X112967762Y-80237044D01*
X113113841Y-80176536D01*
X113239282Y-80080282D01*
X113335536Y-79954841D01*
X113396044Y-79808762D01*
X113416682Y-79652000D01*
X113396044Y-79495238D01*
X113335537Y-79349161D01*
X113335537Y-79349160D01*
X113239286Y-79223723D01*
X113239285Y-79223722D01*
X113239282Y-79223718D01*
X113239277Y-79223714D01*
X113239276Y-79223713D01*
X113113838Y-79127462D01*
X112967766Y-79066957D01*
X112967758Y-79066955D01*
X112811001Y-79046318D01*
X112810999Y-79046318D01*
X112654241Y-79066955D01*
X112654233Y-79066957D01*
X112508161Y-79127462D01*
X112508160Y-79127462D01*
X112382723Y-79223713D01*
X112382713Y-79223723D01*
X112286462Y-79349160D01*
X112286462Y-79349161D01*
X112225957Y-79495233D01*
X112225955Y-79495241D01*
X112205318Y-79651999D01*
X107056431Y-79651999D01*
X107019673Y-79578179D01*
X106896764Y-79415421D01*
X106746041Y-79278019D01*
X106572637Y-79170652D01*
X106382456Y-79096976D01*
X106382455Y-79096975D01*
X106382453Y-79096975D01*
X106181976Y-79059500D01*
X105978024Y-79059500D01*
X105777546Y-79096975D01*
X105707632Y-79124059D01*
X105587363Y-79170652D01*
X105413959Y-79278019D01*
X105263237Y-79415420D01*
X105140328Y-79578177D01*
X105140323Y-79578186D01*
X105049419Y-79760747D01*
X105049418Y-79760750D01*
X104993603Y-79956917D01*
X104974785Y-80160000D01*
X101100500Y-80160000D01*
X101100500Y-77620000D01*
X104974785Y-77620000D01*
X104993603Y-77823083D01*
X105049418Y-78019250D01*
X105140327Y-78201821D01*
X105263236Y-78364579D01*
X105413959Y-78501981D01*
X105587363Y-78609348D01*
X105777544Y-78683024D01*
X105978024Y-78720500D01*
X106181976Y-78720500D01*
X106382456Y-78683024D01*
X106572637Y-78609348D01*
X106746041Y-78501981D01*
X106896764Y-78364579D01*
X107019673Y-78201821D01*
X107110582Y-78019250D01*
X107166397Y-77823083D01*
X107185215Y-77620000D01*
X120214785Y-77620000D01*
X120233603Y-77823083D01*
X120289418Y-78019250D01*
X120380327Y-78201821D01*
X120503236Y-78364579D01*
X120653959Y-78501981D01*
X120827363Y-78609348D01*
X121017544Y-78683024D01*
X121218024Y-78720500D01*
X121421976Y-78720500D01*
X121622456Y-78683024D01*
X121812637Y-78609348D01*
X121986041Y-78501981D01*
X122136764Y-78364579D01*
X122259673Y-78201821D01*
X122350582Y-78019250D01*
X122397673Y-77853741D01*
X122431782Y-77802948D01*
X122489235Y-77781904D01*
X122548084Y-77798648D01*
X122553151Y-77802288D01*
X122668159Y-77890536D01*
X122814238Y-77951044D01*
X122931809Y-77966522D01*
X122970999Y-77971682D01*
X122971000Y-77971682D01*
X122971001Y-77971682D01*
X123002352Y-77967554D01*
X123127762Y-77951044D01*
X123273841Y-77890536D01*
X123399282Y-77794282D01*
X123495536Y-77668841D01*
X123556044Y-77522762D01*
X123576682Y-77366000D01*
X123556044Y-77209238D01*
X123503494Y-77082372D01*
X123495537Y-77063161D01*
X123495537Y-77063160D01*
X123399286Y-76937723D01*
X123399285Y-76937722D01*
X123399282Y-76937718D01*
X123399277Y-76937714D01*
X123399276Y-76937713D01*
X123273838Y-76841462D01*
X123127766Y-76780957D01*
X123127758Y-76780955D01*
X122971001Y-76760318D01*
X122970999Y-76760318D01*
X122814241Y-76780955D01*
X122814233Y-76780957D01*
X122668161Y-76841462D01*
X122668160Y-76841462D01*
X122542723Y-76937713D01*
X122542713Y-76937723D01*
X122446460Y-77063164D01*
X122445021Y-77065656D01*
X122443492Y-77067031D01*
X122442514Y-77068307D01*
X122442277Y-77068125D01*
X122399544Y-77106589D01*
X122338693Y-77112974D01*
X122285710Y-77082372D01*
X122270674Y-77060273D01*
X122259673Y-77038179D01*
X122136764Y-76875421D01*
X121986041Y-76738019D01*
X121812637Y-76630652D01*
X121622456Y-76556976D01*
X121622455Y-76556975D01*
X121622453Y-76556975D01*
X121421976Y-76519500D01*
X121218024Y-76519500D01*
X121017546Y-76556975D01*
X120947632Y-76584059D01*
X120827363Y-76630652D01*
X120653959Y-76738019D01*
X120503237Y-76875420D01*
X120380328Y-77038177D01*
X120380323Y-77038186D01*
X120289419Y-77220747D01*
X120289418Y-77220750D01*
X120233603Y-77416917D01*
X120214785Y-77620000D01*
X107185215Y-77620000D01*
X107166397Y-77416917D01*
X107110582Y-77220750D01*
X107019673Y-77038179D01*
X106896764Y-76875421D01*
X106746041Y-76738019D01*
X106572637Y-76630652D01*
X106382456Y-76556976D01*
X106382455Y-76556975D01*
X106382453Y-76556975D01*
X106181976Y-76519500D01*
X105978024Y-76519500D01*
X105777546Y-76556975D01*
X105707632Y-76584059D01*
X105587363Y-76630652D01*
X105413959Y-76738019D01*
X105263237Y-76875420D01*
X105140328Y-77038177D01*
X105140323Y-77038186D01*
X105049419Y-77220747D01*
X105049418Y-77220750D01*
X104993603Y-77416917D01*
X104974785Y-77620000D01*
X101100500Y-77620000D01*
X101100500Y-74235130D01*
X104979500Y-74235130D01*
X104979500Y-75924860D01*
X104979501Y-75924863D01*
X104982414Y-75949990D01*
X104987709Y-75961981D01*
X105027794Y-76052765D01*
X105107235Y-76132206D01*
X105210009Y-76177585D01*
X105235135Y-76180500D01*
X106924864Y-76180499D01*
X106949991Y-76177585D01*
X107052765Y-76132206D01*
X107132206Y-76052765D01*
X107165296Y-75977824D01*
X108535399Y-75977824D01*
X108541801Y-76037370D01*
X108541803Y-76037381D01*
X108592046Y-76172088D01*
X108592047Y-76172090D01*
X108678207Y-76287184D01*
X108678215Y-76287192D01*
X108793309Y-76373352D01*
X108793311Y-76373353D01*
X108928018Y-76423596D01*
X108928029Y-76423598D01*
X108987576Y-76430000D01*
X109635399Y-76430000D01*
X109635400Y-76429999D01*
X109635400Y-75513012D01*
X109692407Y-75545925D01*
X109819574Y-75580000D01*
X109951226Y-75580000D01*
X110078393Y-75545925D01*
X110135400Y-75513012D01*
X110135400Y-76429999D01*
X110135401Y-76430000D01*
X110783224Y-76430000D01*
X110842770Y-76423598D01*
X110842781Y-76423596D01*
X110977488Y-76373353D01*
X110977490Y-76373352D01*
X111092584Y-76287192D01*
X111092592Y-76287184D01*
X111178752Y-76172090D01*
X111178753Y-76172088D01*
X111228996Y-76037381D01*
X111228998Y-76037370D01*
X111235400Y-75977824D01*
X116139199Y-75977824D01*
X116145601Y-76037370D01*
X116145603Y-76037381D01*
X116195846Y-76172088D01*
X116195847Y-76172090D01*
X116282007Y-76287184D01*
X116282015Y-76287192D01*
X116397109Y-76373352D01*
X116397111Y-76373353D01*
X116531818Y-76423596D01*
X116531829Y-76423598D01*
X116591376Y-76430000D01*
X117239199Y-76430000D01*
X117239200Y-76429999D01*
X117239200Y-75513012D01*
X117296207Y-75545925D01*
X117423374Y-75580000D01*
X117555026Y-75580000D01*
X117682193Y-75545925D01*
X117739200Y-75513012D01*
X117739200Y-76429999D01*
X117739201Y-76430000D01*
X118387024Y-76430000D01*
X118446570Y-76423598D01*
X118446581Y-76423596D01*
X118581288Y-76373353D01*
X118581290Y-76373352D01*
X118696384Y-76287192D01*
X118696392Y-76287184D01*
X118782552Y-76172090D01*
X118782553Y-76172088D01*
X118832796Y-76037381D01*
X118832798Y-76037370D01*
X118839200Y-75977824D01*
X118839200Y-75330001D01*
X118839199Y-75330000D01*
X117922212Y-75330000D01*
X117955125Y-75272993D01*
X117989200Y-75145826D01*
X117989200Y-75080000D01*
X120214785Y-75080000D01*
X120233603Y-75283083D01*
X120289418Y-75479250D01*
X120380327Y-75661821D01*
X120503236Y-75824579D01*
X120653959Y-75961981D01*
X120827363Y-76069348D01*
X121017544Y-76143024D01*
X121218024Y-76180500D01*
X121421976Y-76180500D01*
X121622456Y-76143024D01*
X121812637Y-76069348D01*
X121986041Y-75961981D01*
X122136764Y-75824579D01*
X122259673Y-75661821D01*
X122350582Y-75479250D01*
X122406397Y-75283083D01*
X122425215Y-75080000D01*
X122406397Y-74876917D01*
X122350582Y-74680750D01*
X122259673Y-74498179D01*
X122136764Y-74335421D01*
X121986041Y-74198019D01*
X121812637Y-74090652D01*
X121622456Y-74016976D01*
X121622455Y-74016975D01*
X121622453Y-74016975D01*
X121421976Y-73979500D01*
X121218024Y-73979500D01*
X121017546Y-74016975D01*
X120989619Y-74027794D01*
X120827363Y-74090652D01*
X120679548Y-74182175D01*
X120653959Y-74198019D01*
X120503237Y-74335420D01*
X120380328Y-74498177D01*
X120380323Y-74498186D01*
X120289419Y-74680747D01*
X120289418Y-74680750D01*
X120233603Y-74876917D01*
X120214785Y-75080000D01*
X117989200Y-75080000D01*
X117989200Y-75014174D01*
X117955125Y-74887007D01*
X117922212Y-74830000D01*
X118839199Y-74830000D01*
X118839200Y-74829999D01*
X118839200Y-74182175D01*
X118832798Y-74122629D01*
X118832796Y-74122618D01*
X118782553Y-73987911D01*
X118782552Y-73987909D01*
X118696392Y-73872815D01*
X118696384Y-73872807D01*
X118581290Y-73786647D01*
X118581288Y-73786646D01*
X118446581Y-73736403D01*
X118446570Y-73736401D01*
X118387024Y-73730000D01*
X117739201Y-73730000D01*
X117739200Y-73730001D01*
X117739200Y-74646988D01*
X117682193Y-74614075D01*
X117555026Y-74580000D01*
X117423374Y-74580000D01*
X117296207Y-74614075D01*
X117239200Y-74646988D01*
X117239200Y-73730001D01*
X117239199Y-73730000D01*
X116591376Y-73730000D01*
X116531829Y-73736401D01*
X116531818Y-73736403D01*
X116397111Y-73786646D01*
X116397109Y-73786647D01*
X116282015Y-73872807D01*
X116282007Y-73872815D01*
X116195847Y-73987909D01*
X116195846Y-73987911D01*
X116145603Y-74122618D01*
X116145601Y-74122629D01*
X116139200Y-74182175D01*
X116139200Y-74829999D01*
X116139201Y-74830000D01*
X117056188Y-74830000D01*
X117023275Y-74887007D01*
X116989200Y-75014174D01*
X116989200Y-75145826D01*
X117023275Y-75272993D01*
X117056188Y-75330000D01*
X116139201Y-75330000D01*
X116139200Y-75330001D01*
X116139200Y-75977824D01*
X116139199Y-75977824D01*
X111235400Y-75977824D01*
X111235400Y-75330001D01*
X111235399Y-75330000D01*
X110318412Y-75330000D01*
X110351325Y-75272993D01*
X110385400Y-75145826D01*
X110385400Y-75014174D01*
X110351325Y-74887007D01*
X110318412Y-74830000D01*
X111235399Y-74830000D01*
X111235400Y-74829999D01*
X111235400Y-74182175D01*
X111228998Y-74122629D01*
X111228996Y-74122618D01*
X111178753Y-73987911D01*
X111178752Y-73987909D01*
X111092592Y-73872815D01*
X111092584Y-73872807D01*
X110977490Y-73786647D01*
X110977488Y-73786646D01*
X110842781Y-73736403D01*
X110842770Y-73736401D01*
X110783224Y-73730000D01*
X110135401Y-73730000D01*
X110135400Y-73730001D01*
X110135400Y-74646988D01*
X110078393Y-74614075D01*
X109951226Y-74580000D01*
X109819574Y-74580000D01*
X109692407Y-74614075D01*
X109635400Y-74646988D01*
X109635400Y-73730001D01*
X109635399Y-73730000D01*
X108987576Y-73730000D01*
X108928029Y-73736401D01*
X108928018Y-73736403D01*
X108793311Y-73786646D01*
X108793309Y-73786647D01*
X108678215Y-73872807D01*
X108678207Y-73872815D01*
X108592047Y-73987909D01*
X108592046Y-73987911D01*
X108541803Y-74122618D01*
X108541801Y-74122629D01*
X108535400Y-74182175D01*
X108535400Y-74829999D01*
X108535401Y-74830000D01*
X109452388Y-74830000D01*
X109419475Y-74887007D01*
X109385400Y-75014174D01*
X109385400Y-75145826D01*
X109419475Y-75272993D01*
X109452388Y-75330000D01*
X108535401Y-75330000D01*
X108535400Y-75330001D01*
X108535400Y-75977824D01*
X108535399Y-75977824D01*
X107165296Y-75977824D01*
X107177585Y-75949991D01*
X107180500Y-75924865D01*
X107180499Y-74235136D01*
X107177585Y-74210009D01*
X107132206Y-74107235D01*
X107052765Y-74027794D01*
X106949991Y-73982415D01*
X106949990Y-73982414D01*
X106949988Y-73982414D01*
X106924868Y-73979500D01*
X105235139Y-73979500D01*
X105235136Y-73979501D01*
X105210009Y-73982414D01*
X105107235Y-74027794D01*
X105027794Y-74107235D01*
X104982414Y-74210011D01*
X104979500Y-74235130D01*
X101100500Y-74235130D01*
X101100500Y-71274318D01*
X101100877Y-71265690D01*
X101109936Y-71162139D01*
X101117512Y-71075540D01*
X101120505Y-71058564D01*
X101168790Y-70878360D01*
X101174686Y-70862163D01*
X101253526Y-70693091D01*
X101262146Y-70678161D01*
X101369145Y-70525351D01*
X101380226Y-70512144D01*
X101512144Y-70380226D01*
X101525351Y-70369145D01*
X101678161Y-70262146D01*
X101693091Y-70253526D01*
X101862163Y-70174686D01*
X101878360Y-70168790D01*
X102058564Y-70120505D01*
X102075540Y-70117512D01*
X102265691Y-70100877D01*
X102274319Y-70100500D01*
X102296929Y-70100500D01*
X125103071Y-70100500D01*
X125125681Y-70100500D01*
X125134309Y-70100877D01*
G37*
G04 #@! TD.AperFunction*
M02*
