M48
; DRILL file {KiCad 8.0.4+dfsg-1} date 2025-03-02T17:51:04+0900
; FORMAT={-:-/ absolute / inch / decimal}
; #@! TF.CreationDate,2025-03-02T17:51:04+09:00
; #@! TF.GenerationSoftware,Kicad,Pcbnew,8.0.4+dfsg-1
; #@! TF.FileFunction,Plated,1,4,PTH
FMAT,2
INCH
; #@! TA.AperFunction,Plated,PTH,ViaDrill
T1C0.0118
; #@! TA.AperFunction,Plated,PTH,ComponentDrill
T2C0.0315
; #@! TA.AperFunction,Plated,PTH,ComponentDrill
T3C0.0394
%
G90
G05
T1
X4.1364Y-4.1059
X4.2314Y-3.7059
X4.2527Y-3.4115
X4.2614Y-3.6109
X4.2764Y-3.3209
X4.2797Y-4.2092
X4.2864Y-4.2559
X4.3164Y-3.884
X4.3564Y-3.8959
X4.3644Y-4.7948
X4.3756Y-3.3675
X4.3826Y-5.1572
X4.3991Y-4.3265
X4.4001Y-3.7199
X4.4114Y-3.5555
X4.4124Y-3.3659
X4.4273Y-3.8801
X4.4314Y-3.8459
X4.4414Y-3.1359
X4.4441Y-4.4488
X4.4449Y-3.6378
X4.4631Y-4.6542
X4.4651Y-3.3309
X4.4676Y-3.2031
X4.4758Y-4.1259
X4.4764Y-4.8209
X4.4769Y-3.6422
X4.4892Y-4.0559
X4.4985Y-3.3207
X4.4988Y-3.8693
X4.5004Y-3.3962
X4.5077Y-4.4476
X4.5431Y-4.0573
X4.5622Y-3.8704
X4.5764Y-5.0259
X4.6014Y-3.2559
X4.6019Y-4.6359
X4.6314Y-3.8209
X4.6414Y-4.4009
X4.6728Y-3.1595
X4.6746Y-4.8149
X4.685Y-3.3089
X4.6864Y-3.3909
X4.6946Y-4.5768
X4.8414Y-3.0459
T2
X4.1764Y-2.9559
X4.1764Y-3.0559
X4.1764Y-3.1559
X4.1764Y-3.2559
X4.1764Y-3.3559
X4.1764Y-3.4559
X4.1764Y-3.5559
X4.1764Y-3.6559
X4.1764Y-3.7559
X4.1764Y-3.8559
X4.1764Y-3.9559
X4.1764Y-4.0559
X4.1764Y-4.1559
X4.1764Y-4.2559
X4.1764Y-4.3559
X4.1764Y-4.4559
X4.1764Y-4.5559
X4.1764Y-4.6559
X4.1764Y-4.7559
X4.1764Y-4.8559
X4.1764Y-4.9559
X4.1764Y-5.0559
X4.1764Y-5.1559
X4.1764Y-5.2559
X4.7764Y-2.9559
X4.7764Y-3.0559
X4.7764Y-3.1559
X4.7764Y-3.2559
X4.7764Y-3.3559
X4.7764Y-3.4559
X4.7764Y-3.5559
X4.7764Y-3.6559
X4.7764Y-3.7559
X4.7764Y-3.8559
X4.7764Y-3.9559
X4.7764Y-4.0559
X4.7764Y-4.1559
X4.7764Y-4.2559
X4.7764Y-4.3559
X4.7764Y-4.4559
X4.7764Y-4.5559
X4.7764Y-4.6559
X4.7764Y-4.7559
X4.7764Y-4.8559
X4.7764Y-4.9559
X4.7764Y-5.0559
X4.7764Y-5.1559
X4.7764Y-5.2559
T3
X4.3262Y-2.9559
X4.3262Y-5.2559
X4.6256Y-2.9559
X4.6256Y-5.2559
M30
