G04 #@! TF.GenerationSoftware,KiCad,Pcbnew,9.0.6-9.0.6~ubuntu25.10.1*
G04 #@! TF.CreationDate,2025-12-24T16:01:02+09:00*
G04 #@! TF.ProjectId,bionic-mc68008,62696f6e-6963-42d6-9d63-36383030382e,2*
G04 #@! TF.SameCoordinates,Original*
G04 #@! TF.FileFunction,Copper,L2,Inr*
G04 #@! TF.FilePolarity,Positive*
%FSLAX46Y46*%
G04 Gerber Fmt 4.6, Leading zero omitted, Abs format (unit mm)*
G04 Created by KiCad (PCBNEW 9.0.6-9.0.6~ubuntu25.10.1) date 2025-12-24 16:01:02*
%MOMM*%
%LPD*%
G01*
G04 APERTURE LIST*
G04 #@! TA.AperFunction,ComponentPad*
%ADD10R,1.600000X1.600000*%
G04 #@! TD*
G04 #@! TA.AperFunction,ComponentPad*
%ADD11O,1.600000X1.600000*%
G04 #@! TD*
G04 #@! TA.AperFunction,ComponentPad*
%ADD12R,1.700000X1.700000*%
G04 #@! TD*
G04 #@! TA.AperFunction,ComponentPad*
%ADD13O,1.700000X1.700000*%
G04 #@! TD*
G04 #@! TA.AperFunction,ViaPad*
%ADD14C,0.600000*%
G04 #@! TD*
G04 #@! TA.AperFunction,ViaPad*
%ADD15C,0.450000*%
G04 #@! TD*
G04 #@! TA.AperFunction,Conductor*
%ADD16C,0.150000*%
G04 #@! TD*
G04 APERTURE END LIST*
D10*
X106080000Y-75080000D03*
D11*
X106080000Y-77620000D03*
X106080000Y-80160000D03*
X106080000Y-82700000D03*
X106080000Y-85240000D03*
X106080000Y-87780000D03*
X106080000Y-90320000D03*
X106080000Y-92860000D03*
X106080000Y-95400000D03*
X106080000Y-97940000D03*
X106080000Y-100480000D03*
X106080000Y-103020000D03*
X106080000Y-105560000D03*
X106080000Y-108100000D03*
X106080000Y-110640000D03*
X106080000Y-113180000D03*
X106080000Y-115720000D03*
X106080000Y-118260000D03*
X106080000Y-120800000D03*
X106080000Y-123340000D03*
X106080000Y-125880000D03*
X106080000Y-128420000D03*
X106080000Y-130960000D03*
X106080000Y-133500000D03*
X121320000Y-133500000D03*
X121320000Y-130960000D03*
X121320000Y-128420000D03*
X121320000Y-125880000D03*
X121320000Y-123340000D03*
X121320000Y-120800000D03*
X121320000Y-118260000D03*
X121320000Y-115720000D03*
X121320000Y-113180000D03*
X121320000Y-110640000D03*
X121320000Y-108100000D03*
X121320000Y-105560000D03*
X121320000Y-103020000D03*
X121320000Y-100480000D03*
X121320000Y-97940000D03*
X121320000Y-95400000D03*
X121320000Y-92860000D03*
X121320000Y-90320000D03*
X121320000Y-87780000D03*
X121320000Y-85240000D03*
X121320000Y-82700000D03*
X121320000Y-80160000D03*
X121320000Y-77620000D03*
X121320000Y-75080000D03*
D12*
X109885400Y-75080000D03*
D13*
X109885400Y-133500000D03*
X117489200Y-133500000D03*
D12*
X117489200Y-75080000D03*
D14*
X103921000Y-102639000D03*
X109509000Y-98194000D03*
X111949000Y-125526000D03*
X108620000Y-82954000D03*
X108798000Y-101814000D03*
D15*
X111414000Y-71778000D03*
X124241000Y-104163000D03*
X122267000Y-111910000D03*
X123733000Y-111656000D03*
X108366900Y-103690400D03*
X102021700Y-87741900D03*
X109703000Y-109053600D03*
X102905000Y-96416000D03*
X124252000Y-108735000D03*
X123987000Y-78890000D03*
X103159000Y-97632200D03*
X125130000Y-81430000D03*
X102651000Y-89608800D03*
X114025000Y-87653000D03*
X112725000Y-105699700D03*
X114074751Y-102570000D03*
X114773950Y-102569950D03*
X112925000Y-103566100D03*
X109915400Y-106584190D03*
X114068300Y-92860000D03*
X110731400Y-125626000D03*
X102473200Y-92974300D03*
X108645400Y-106957000D03*
X125765000Y-84859000D03*
X117094550Y-117488950D03*
X107662600Y-101468200D03*
X116557500Y-103337500D03*
X118749000Y-108862000D03*
X118526000Y-119530000D03*
X118653000Y-104036000D03*
X117256000Y-77620000D03*
X113375000Y-87399000D03*
X114589000Y-85240000D03*
X115351000Y-113180000D03*
X111425001Y-105712400D03*
X111425000Y-95400000D03*
X123225000Y-115974000D03*
X115338300Y-94257000D03*
X115338300Y-104493200D03*
X114224999Y-95413400D03*
X115974999Y-81518900D03*
X117129000Y-81049000D03*
X119650000Y-117021750D03*
X118729200Y-89392900D03*
X113375000Y-104239300D03*
X116748000Y-94003000D03*
X113598400Y-90320000D03*
X115325000Y-86751300D03*
X111875000Y-91844000D03*
X112061301Y-85353301D03*
X112733533Y-87141612D03*
X114025000Y-105687000D03*
X112049000Y-99083000D03*
X113375002Y-85113000D03*
X116240000Y-130071000D03*
D16*
X112725000Y-105699700D02*
X112725000Y-105601000D01*
X104556000Y-103147000D02*
X104556000Y-99464000D01*
X112725000Y-105601000D02*
X111400700Y-104276700D01*
X111400700Y-104276700D02*
X105685700Y-104276700D01*
X105685700Y-104276700D02*
X104556000Y-103147000D01*
X104556000Y-99464000D02*
X106080000Y-97940000D01*
X114068300Y-92860000D02*
X121320000Y-92860000D01*
X113598400Y-90320000D02*
X106080000Y-90320000D01*
X113898651Y-102393900D02*
X107949600Y-102393900D01*
X107949600Y-102393900D02*
X106080000Y-100524300D01*
X106080000Y-100524300D02*
X106080000Y-100480000D01*
X114074751Y-102570000D02*
X113898651Y-102393900D01*
X114323900Y-103020000D02*
X106080000Y-103020000D01*
X114773950Y-102569950D02*
X114323900Y-103020000D01*
X109915400Y-106584190D02*
X108399590Y-108100000D01*
X108399590Y-108100000D02*
X106080000Y-108100000D01*
X119796000Y-120800000D02*
X121320000Y-120800000D01*
X118526000Y-119530000D02*
X119796000Y-120800000D01*
X119650000Y-112310000D02*
X121320000Y-110640000D01*
X119650000Y-117021750D02*
X119650000Y-112310000D01*
X112684000Y-92860000D02*
X106080000Y-92860000D01*
X115325000Y-86751300D02*
X115338300Y-86764600D01*
X115338300Y-86764600D02*
X115338300Y-90205700D01*
X115338300Y-90205700D02*
X112684000Y-92860000D01*
X105633511Y-91590000D02*
X103921000Y-89877489D01*
X103921000Y-89877489D02*
X103921000Y-84859000D01*
X111875000Y-91844000D02*
X111621000Y-91590000D01*
X103921000Y-84859000D02*
X106080000Y-82700000D01*
X111621000Y-91590000D02*
X105633511Y-91590000D01*
X112061301Y-85353301D02*
X112049000Y-85341000D01*
X112049000Y-85341000D02*
X112049000Y-82446000D01*
X114335000Y-80160000D02*
X121320000Y-80160000D01*
X112049000Y-82446000D02*
X114335000Y-80160000D01*
X112733533Y-87141612D02*
X112724221Y-87132300D01*
X112724221Y-87132300D02*
X106727700Y-87132300D01*
X106727700Y-87132300D02*
X106080000Y-87780000D01*
G04 #@! TA.AperFunction,Conductor*
G36*
X125134309Y-70100877D02*
G01*
X125324457Y-70117512D01*
X125341437Y-70120505D01*
X125521635Y-70168789D01*
X125537839Y-70174687D01*
X125706902Y-70253523D01*
X125721842Y-70262149D01*
X125874641Y-70369140D01*
X125887861Y-70380232D01*
X126019767Y-70512138D01*
X126030859Y-70525358D01*
X126137850Y-70678157D01*
X126146478Y-70693101D01*
X126225308Y-70862151D01*
X126231211Y-70878368D01*
X126279492Y-71058555D01*
X126282488Y-71075550D01*
X126299123Y-71265690D01*
X126299500Y-71274318D01*
X126299500Y-84564308D01*
X126280593Y-84622499D01*
X126231093Y-84658463D01*
X126169907Y-84658463D01*
X126120407Y-84622499D01*
X126114764Y-84613809D01*
X126108072Y-84602218D01*
X126105485Y-84597737D01*
X126026263Y-84518515D01*
X126026260Y-84518513D01*
X125929240Y-84462498D01*
X125929242Y-84462498D01*
X125887251Y-84451247D01*
X125821018Y-84433500D01*
X125708982Y-84433500D01*
X125642748Y-84451247D01*
X125600758Y-84462498D01*
X125503739Y-84518513D01*
X125424513Y-84597739D01*
X125368498Y-84694758D01*
X125366305Y-84702942D01*
X125339500Y-84802982D01*
X125339500Y-84915018D01*
X125356574Y-84978739D01*
X125368498Y-85023241D01*
X125408219Y-85092038D01*
X125424515Y-85120263D01*
X125503737Y-85199485D01*
X125503739Y-85199486D01*
X125600759Y-85255501D01*
X125600757Y-85255501D01*
X125600761Y-85255502D01*
X125600763Y-85255503D01*
X125708982Y-85284500D01*
X125708984Y-85284500D01*
X125821016Y-85284500D01*
X125821018Y-85284500D01*
X125929237Y-85255503D01*
X125929239Y-85255501D01*
X125929241Y-85255501D01*
X125958064Y-85238859D01*
X126026263Y-85199485D01*
X126105485Y-85120263D01*
X126114764Y-85104190D01*
X126160232Y-85063250D01*
X126221082Y-85056854D01*
X126274071Y-85087446D01*
X126298958Y-85143342D01*
X126299500Y-85153691D01*
X126299500Y-137305681D01*
X126299123Y-137314309D01*
X126282488Y-137504449D01*
X126279492Y-137521444D01*
X126231211Y-137701631D01*
X126225308Y-137717848D01*
X126146478Y-137886898D01*
X126137850Y-137901842D01*
X126030859Y-138054641D01*
X126019767Y-138067861D01*
X125887861Y-138199767D01*
X125874641Y-138210859D01*
X125721842Y-138317850D01*
X125706898Y-138326478D01*
X125537848Y-138405308D01*
X125521631Y-138411211D01*
X125341444Y-138459492D01*
X125324449Y-138462488D01*
X125134309Y-138479123D01*
X125125681Y-138479500D01*
X102274319Y-138479500D01*
X102265691Y-138479123D01*
X102075550Y-138462488D01*
X102058555Y-138459492D01*
X101878368Y-138411211D01*
X101862154Y-138405309D01*
X101693100Y-138326477D01*
X101678157Y-138317850D01*
X101525358Y-138210859D01*
X101512138Y-138199767D01*
X101380232Y-138067861D01*
X101369140Y-138054641D01*
X101262149Y-137901842D01*
X101253523Y-137886902D01*
X101174687Y-137717839D01*
X101168788Y-137701631D01*
X101149843Y-137630926D01*
X101120505Y-137521437D01*
X101117512Y-137504457D01*
X101100877Y-137314309D01*
X101100500Y-137305681D01*
X101100500Y-133401456D01*
X105079500Y-133401456D01*
X105079500Y-133598543D01*
X105117949Y-133791834D01*
X105117949Y-133791836D01*
X105193367Y-133973913D01*
X105193368Y-133973914D01*
X105302861Y-134137782D01*
X105442218Y-134277139D01*
X105606086Y-134386632D01*
X105788165Y-134462051D01*
X105981459Y-134500500D01*
X105981460Y-134500500D01*
X106178540Y-134500500D01*
X106178541Y-134500500D01*
X106371835Y-134462051D01*
X106553914Y-134386632D01*
X106717782Y-134277139D01*
X106857139Y-134137782D01*
X106966632Y-133973914D01*
X107042051Y-133791835D01*
X107080500Y-133598541D01*
X107080500Y-133401459D01*
X107060318Y-133299999D01*
X108854611Y-133299999D01*
X108854612Y-133300000D01*
X109423520Y-133300000D01*
X109419475Y-133307007D01*
X109385400Y-133434174D01*
X109385400Y-133565826D01*
X109419475Y-133692993D01*
X109423520Y-133700000D01*
X108854611Y-133700000D01*
X108875749Y-133806269D01*
X108875751Y-133806277D01*
X108954901Y-133997360D01*
X108954908Y-133997374D01*
X109069805Y-134169329D01*
X109216070Y-134315594D01*
X109388025Y-134430491D01*
X109388039Y-134430498D01*
X109579123Y-134509648D01*
X109579130Y-134509650D01*
X109685400Y-134530787D01*
X109685400Y-133961879D01*
X109692407Y-133965925D01*
X109819574Y-134000000D01*
X109951226Y-134000000D01*
X110078393Y-133965925D01*
X110085400Y-133961879D01*
X110085400Y-134530786D01*
X110191669Y-134509650D01*
X110191676Y-134509648D01*
X110382760Y-134430498D01*
X110382774Y-134430491D01*
X110554729Y-134315594D01*
X110700994Y-134169329D01*
X110815891Y-133997374D01*
X110815898Y-133997360D01*
X110895048Y-133806277D01*
X110895050Y-133806269D01*
X110916189Y-133700000D01*
X110347280Y-133700000D01*
X110351325Y-133692993D01*
X110385400Y-133565826D01*
X110385400Y-133434174D01*
X110351325Y-133307007D01*
X110347280Y-133300000D01*
X110916188Y-133300000D01*
X110916188Y-133299999D01*
X116458411Y-133299999D01*
X116458412Y-133300000D01*
X117027320Y-133300000D01*
X117023275Y-133307007D01*
X116989200Y-133434174D01*
X116989200Y-133565826D01*
X117023275Y-133692993D01*
X117027320Y-133700000D01*
X116458411Y-133700000D01*
X116479549Y-133806269D01*
X116479551Y-133806277D01*
X116558701Y-133997360D01*
X116558708Y-133997374D01*
X116673605Y-134169329D01*
X116819870Y-134315594D01*
X116991825Y-134430491D01*
X116991839Y-134430498D01*
X117182923Y-134509648D01*
X117182930Y-134509650D01*
X117289200Y-134530787D01*
X117289200Y-133961879D01*
X117296207Y-133965925D01*
X117423374Y-134000000D01*
X117555026Y-134000000D01*
X117682193Y-133965925D01*
X117689200Y-133961879D01*
X117689200Y-134530786D01*
X117795469Y-134509650D01*
X117795476Y-134509648D01*
X117986560Y-134430498D01*
X117986574Y-134430491D01*
X118158529Y-134315594D01*
X118304794Y-134169329D01*
X118419691Y-133997374D01*
X118419698Y-133997360D01*
X118498848Y-133806277D01*
X118498850Y-133806269D01*
X118519989Y-133700000D01*
X117951080Y-133700000D01*
X117955125Y-133692993D01*
X117989200Y-133565826D01*
X117989200Y-133434174D01*
X117980433Y-133401456D01*
X120319500Y-133401456D01*
X120319500Y-133598543D01*
X120357949Y-133791834D01*
X120357949Y-133791836D01*
X120433367Y-133973913D01*
X120433368Y-133973914D01*
X120542861Y-134137782D01*
X120682218Y-134277139D01*
X120846086Y-134386632D01*
X121028165Y-134462051D01*
X121221459Y-134500500D01*
X121221460Y-134500500D01*
X121418540Y-134500500D01*
X121418541Y-134500500D01*
X121611835Y-134462051D01*
X121793914Y-134386632D01*
X121957782Y-134277139D01*
X122097139Y-134137782D01*
X122206632Y-133973914D01*
X122282051Y-133791835D01*
X122320500Y-133598541D01*
X122320500Y-133401459D01*
X122282051Y-133208165D01*
X122206632Y-133026086D01*
X122097139Y-132862218D01*
X121957782Y-132722861D01*
X121793914Y-132613368D01*
X121793915Y-132613368D01*
X121793913Y-132613367D01*
X121611835Y-132537949D01*
X121418543Y-132499500D01*
X121418541Y-132499500D01*
X121221459Y-132499500D01*
X121221456Y-132499500D01*
X121028165Y-132537949D01*
X121028163Y-132537949D01*
X120846086Y-132613367D01*
X120682218Y-132722861D01*
X120682214Y-132722864D01*
X120542864Y-132862214D01*
X120542861Y-132862218D01*
X120433367Y-133026086D01*
X120357949Y-133208163D01*
X120357949Y-133208165D01*
X120319500Y-133401456D01*
X117980433Y-133401456D01*
X117955125Y-133307007D01*
X117951080Y-133300000D01*
X118519988Y-133300000D01*
X118498850Y-133193730D01*
X118498848Y-133193722D01*
X118419698Y-133002639D01*
X118419691Y-133002625D01*
X118304794Y-132830670D01*
X118158529Y-132684405D01*
X117986574Y-132569508D01*
X117986560Y-132569501D01*
X117795477Y-132490351D01*
X117795469Y-132490349D01*
X117689200Y-132469211D01*
X117689200Y-133038120D01*
X117682193Y-133034075D01*
X117555026Y-133000000D01*
X117423374Y-133000000D01*
X117296207Y-133034075D01*
X117289200Y-133038120D01*
X117289200Y-132469211D01*
X117289199Y-132469211D01*
X117182930Y-132490349D01*
X117182922Y-132490351D01*
X116991839Y-132569501D01*
X116991825Y-132569508D01*
X116819870Y-132684405D01*
X116673605Y-132830670D01*
X116558708Y-133002625D01*
X116558701Y-133002639D01*
X116479551Y-133193722D01*
X116479549Y-133193730D01*
X116458411Y-133299999D01*
X110916188Y-133299999D01*
X110895050Y-133193730D01*
X110895048Y-133193722D01*
X110815898Y-133002639D01*
X110815891Y-133002625D01*
X110700994Y-132830670D01*
X110554729Y-132684405D01*
X110382774Y-132569508D01*
X110382760Y-132569501D01*
X110191677Y-132490351D01*
X110191669Y-132490349D01*
X110085400Y-132469211D01*
X110085400Y-133038120D01*
X110078393Y-133034075D01*
X109951226Y-133000000D01*
X109819574Y-133000000D01*
X109692407Y-133034075D01*
X109685400Y-133038120D01*
X109685400Y-132469211D01*
X109685399Y-132469211D01*
X109579130Y-132490349D01*
X109579122Y-132490351D01*
X109388039Y-132569501D01*
X109388025Y-132569508D01*
X109216070Y-132684405D01*
X109069805Y-132830670D01*
X108954908Y-133002625D01*
X108954901Y-133002639D01*
X108875751Y-133193722D01*
X108875749Y-133193730D01*
X108854611Y-133299999D01*
X107060318Y-133299999D01*
X107042051Y-133208165D01*
X106966632Y-133026086D01*
X106857139Y-132862218D01*
X106717782Y-132722861D01*
X106553914Y-132613368D01*
X106553915Y-132613368D01*
X106553913Y-132613367D01*
X106371835Y-132537949D01*
X106178543Y-132499500D01*
X106178541Y-132499500D01*
X105981459Y-132499500D01*
X105981456Y-132499500D01*
X105788165Y-132537949D01*
X105788163Y-132537949D01*
X105606086Y-132613367D01*
X105442218Y-132722861D01*
X105442214Y-132722864D01*
X105302864Y-132862214D01*
X105302861Y-132862218D01*
X105193367Y-133026086D01*
X105117949Y-133208163D01*
X105117949Y-133208165D01*
X105079500Y-133401456D01*
X101100500Y-133401456D01*
X101100500Y-130861456D01*
X105079500Y-130861456D01*
X105079500Y-131058543D01*
X105117949Y-131251834D01*
X105117949Y-131251836D01*
X105193367Y-131433913D01*
X105193368Y-131433914D01*
X105302861Y-131597782D01*
X105442218Y-131737139D01*
X105606086Y-131846632D01*
X105788165Y-131922051D01*
X105981459Y-131960500D01*
X105981460Y-131960500D01*
X106178540Y-131960500D01*
X106178541Y-131960500D01*
X106371835Y-131922051D01*
X106553914Y-131846632D01*
X106717782Y-131737139D01*
X106857139Y-131597782D01*
X106966632Y-131433914D01*
X107042051Y-131251835D01*
X107080500Y-131058541D01*
X107080500Y-130861459D01*
X107080499Y-130861456D01*
X120319500Y-130861456D01*
X120319500Y-131058543D01*
X120357949Y-131251834D01*
X120357949Y-131251836D01*
X120433367Y-131433913D01*
X120433368Y-131433914D01*
X120542861Y-131597782D01*
X120682218Y-131737139D01*
X120846086Y-131846632D01*
X121028165Y-131922051D01*
X121221459Y-131960500D01*
X121221460Y-131960500D01*
X121418540Y-131960500D01*
X121418541Y-131960500D01*
X121611835Y-131922051D01*
X121793914Y-131846632D01*
X121957782Y-131737139D01*
X122097139Y-131597782D01*
X122206632Y-131433914D01*
X122282051Y-131251835D01*
X122320500Y-131058541D01*
X122320500Y-130861459D01*
X122282051Y-130668165D01*
X122206632Y-130486086D01*
X122097139Y-130322218D01*
X121957782Y-130182861D01*
X121793914Y-130073368D01*
X121793915Y-130073368D01*
X121793913Y-130073367D01*
X121611835Y-129997949D01*
X121418543Y-129959500D01*
X121418541Y-129959500D01*
X121221459Y-129959500D01*
X121221456Y-129959500D01*
X121028165Y-129997949D01*
X121028163Y-129997949D01*
X120846086Y-130073367D01*
X120682218Y-130182861D01*
X120682214Y-130182864D01*
X120542864Y-130322214D01*
X120542861Y-130322218D01*
X120433367Y-130486086D01*
X120357949Y-130668163D01*
X120357949Y-130668165D01*
X120319500Y-130861456D01*
X107080499Y-130861456D01*
X107042051Y-130668165D01*
X106966632Y-130486086D01*
X106857139Y-130322218D01*
X106717782Y-130182861D01*
X106553914Y-130073368D01*
X106553915Y-130073368D01*
X106553913Y-130073367D01*
X106412957Y-130014982D01*
X115814500Y-130014982D01*
X115814500Y-130127018D01*
X115829463Y-130182861D01*
X115843498Y-130235241D01*
X115899513Y-130332260D01*
X115899515Y-130332263D01*
X115978737Y-130411485D01*
X115978739Y-130411486D01*
X116075759Y-130467501D01*
X116075757Y-130467501D01*
X116075761Y-130467502D01*
X116075763Y-130467503D01*
X116183982Y-130496500D01*
X116183984Y-130496500D01*
X116296016Y-130496500D01*
X116296018Y-130496500D01*
X116404237Y-130467503D01*
X116404239Y-130467501D01*
X116404241Y-130467501D01*
X116433064Y-130450859D01*
X116501263Y-130411485D01*
X116580485Y-130332263D01*
X116636503Y-130235237D01*
X116665500Y-130127018D01*
X116665500Y-130014982D01*
X116636503Y-129906763D01*
X116636501Y-129906760D01*
X116636501Y-129906758D01*
X116580486Y-129809739D01*
X116580485Y-129809737D01*
X116501263Y-129730515D01*
X116501260Y-129730513D01*
X116404240Y-129674498D01*
X116404242Y-129674498D01*
X116362251Y-129663247D01*
X116296018Y-129645500D01*
X116183982Y-129645500D01*
X116117748Y-129663247D01*
X116075758Y-129674498D01*
X115978739Y-129730513D01*
X115899513Y-129809739D01*
X115843498Y-129906758D01*
X115843497Y-129906763D01*
X115814500Y-130014982D01*
X106412957Y-130014982D01*
X106371835Y-129997949D01*
X106178543Y-129959500D01*
X106178541Y-129959500D01*
X105981459Y-129959500D01*
X105981456Y-129959500D01*
X105788165Y-129997949D01*
X105788163Y-129997949D01*
X105606086Y-130073367D01*
X105442218Y-130182861D01*
X105442214Y-130182864D01*
X105302864Y-130322214D01*
X105302861Y-130322218D01*
X105193367Y-130486086D01*
X105117949Y-130668163D01*
X105117949Y-130668165D01*
X105079500Y-130861456D01*
X101100500Y-130861456D01*
X101100500Y-128321456D01*
X105079500Y-128321456D01*
X105079500Y-128518543D01*
X105117949Y-128711834D01*
X105117949Y-128711836D01*
X105193367Y-128893913D01*
X105193368Y-128893914D01*
X105302861Y-129057782D01*
X105442218Y-129197139D01*
X105606086Y-129306632D01*
X105788165Y-129382051D01*
X105981459Y-129420500D01*
X105981460Y-129420500D01*
X106178540Y-129420500D01*
X106178541Y-129420500D01*
X106371835Y-129382051D01*
X106553914Y-129306632D01*
X106717782Y-129197139D01*
X106857139Y-129057782D01*
X106966632Y-128893914D01*
X107042051Y-128711835D01*
X107080500Y-128518541D01*
X107080500Y-128321459D01*
X107080499Y-128321456D01*
X120319500Y-128321456D01*
X120319500Y-128518543D01*
X120357949Y-128711834D01*
X120357949Y-128711836D01*
X120433367Y-128893913D01*
X120433368Y-128893914D01*
X120542861Y-129057782D01*
X120682218Y-129197139D01*
X120846086Y-129306632D01*
X121028165Y-129382051D01*
X121221459Y-129420500D01*
X121221460Y-129420500D01*
X121418540Y-129420500D01*
X121418541Y-129420500D01*
X121611835Y-129382051D01*
X121793914Y-129306632D01*
X121957782Y-129197139D01*
X122097139Y-129057782D01*
X122206632Y-128893914D01*
X122282051Y-128711835D01*
X122320500Y-128518541D01*
X122320500Y-128321459D01*
X122282051Y-128128165D01*
X122206632Y-127946086D01*
X122097139Y-127782218D01*
X121957782Y-127642861D01*
X121793914Y-127533368D01*
X121793915Y-127533368D01*
X121793913Y-127533367D01*
X121611835Y-127457949D01*
X121418543Y-127419500D01*
X121418541Y-127419500D01*
X121221459Y-127419500D01*
X121221456Y-127419500D01*
X121028165Y-127457949D01*
X121028163Y-127457949D01*
X120846086Y-127533367D01*
X120682218Y-127642861D01*
X120682214Y-127642864D01*
X120542864Y-127782214D01*
X120542861Y-127782218D01*
X120433367Y-127946086D01*
X120357949Y-128128163D01*
X120357949Y-128128165D01*
X120319500Y-128321456D01*
X107080499Y-128321456D01*
X107042051Y-128128165D01*
X106966632Y-127946086D01*
X106857139Y-127782218D01*
X106717782Y-127642861D01*
X106553914Y-127533368D01*
X106553915Y-127533368D01*
X106553913Y-127533367D01*
X106371835Y-127457949D01*
X106178543Y-127419500D01*
X106178541Y-127419500D01*
X105981459Y-127419500D01*
X105981456Y-127419500D01*
X105788165Y-127457949D01*
X105788163Y-127457949D01*
X105606086Y-127533367D01*
X105442218Y-127642861D01*
X105442214Y-127642864D01*
X105302864Y-127782214D01*
X105302861Y-127782218D01*
X105193367Y-127946086D01*
X105117949Y-128128163D01*
X105117949Y-128128165D01*
X105079500Y-128321456D01*
X101100500Y-128321456D01*
X101100500Y-125781456D01*
X105079500Y-125781456D01*
X105079500Y-125978543D01*
X105117949Y-126171834D01*
X105117949Y-126171836D01*
X105193367Y-126353913D01*
X105193368Y-126353914D01*
X105302861Y-126517782D01*
X105442218Y-126657139D01*
X105606086Y-126766632D01*
X105788165Y-126842051D01*
X105981459Y-126880500D01*
X105981460Y-126880500D01*
X106178540Y-126880500D01*
X106178541Y-126880500D01*
X106371835Y-126842051D01*
X106553914Y-126766632D01*
X106717782Y-126657139D01*
X106857139Y-126517782D01*
X106966632Y-126353914D01*
X107042051Y-126171835D01*
X107080500Y-125978541D01*
X107080500Y-125781459D01*
X107042051Y-125588165D01*
X107034519Y-125569982D01*
X110305900Y-125569982D01*
X110305900Y-125682018D01*
X110324376Y-125750972D01*
X110334898Y-125790241D01*
X110390913Y-125887260D01*
X110390915Y-125887263D01*
X110470137Y-125966485D01*
X110470139Y-125966486D01*
X110567159Y-126022501D01*
X110567157Y-126022501D01*
X110567161Y-126022502D01*
X110567163Y-126022503D01*
X110675382Y-126051500D01*
X110675384Y-126051500D01*
X110787416Y-126051500D01*
X110787418Y-126051500D01*
X110895637Y-126022503D01*
X110895639Y-126022501D01*
X110895641Y-126022501D01*
X110924464Y-126005859D01*
X110992663Y-125966485D01*
X111071885Y-125887263D01*
X111127903Y-125790237D01*
X111130256Y-125781456D01*
X120319500Y-125781456D01*
X120319500Y-125978543D01*
X120357949Y-126171834D01*
X120357949Y-126171836D01*
X120433367Y-126353913D01*
X120433368Y-126353914D01*
X120542861Y-126517782D01*
X120682218Y-126657139D01*
X120846086Y-126766632D01*
X121028165Y-126842051D01*
X121221459Y-126880500D01*
X121221460Y-126880500D01*
X121418540Y-126880500D01*
X121418541Y-126880500D01*
X121611835Y-126842051D01*
X121793914Y-126766632D01*
X121957782Y-126657139D01*
X122097139Y-126517782D01*
X122206632Y-126353914D01*
X122282051Y-126171835D01*
X122320500Y-125978541D01*
X122320500Y-125781459D01*
X122282051Y-125588165D01*
X122206632Y-125406086D01*
X122097139Y-125242218D01*
X121957782Y-125102861D01*
X121793914Y-124993368D01*
X121793915Y-124993368D01*
X121793913Y-124993367D01*
X121611835Y-124917949D01*
X121418543Y-124879500D01*
X121418541Y-124879500D01*
X121221459Y-124879500D01*
X121221456Y-124879500D01*
X121028165Y-124917949D01*
X121028163Y-124917949D01*
X120846086Y-124993367D01*
X120682218Y-125102861D01*
X120682214Y-125102864D01*
X120542864Y-125242214D01*
X120542861Y-125242218D01*
X120433367Y-125406086D01*
X120357949Y-125588163D01*
X120357949Y-125588165D01*
X120319500Y-125781456D01*
X111130256Y-125781456D01*
X111156900Y-125682018D01*
X111156900Y-125569982D01*
X111127903Y-125461763D01*
X111127901Y-125461760D01*
X111127901Y-125461758D01*
X111071886Y-125364739D01*
X111071885Y-125364737D01*
X110992663Y-125285515D01*
X110992660Y-125285513D01*
X110895640Y-125229498D01*
X110895642Y-125229498D01*
X110853651Y-125218247D01*
X110787418Y-125200500D01*
X110675382Y-125200500D01*
X110609148Y-125218247D01*
X110567158Y-125229498D01*
X110470139Y-125285513D01*
X110390913Y-125364739D01*
X110334898Y-125461758D01*
X110334897Y-125461763D01*
X110305900Y-125569982D01*
X107034519Y-125569982D01*
X106966632Y-125406086D01*
X106857139Y-125242218D01*
X106717782Y-125102861D01*
X106553914Y-124993368D01*
X106553915Y-124993368D01*
X106553913Y-124993367D01*
X106371835Y-124917949D01*
X106178543Y-124879500D01*
X106178541Y-124879500D01*
X105981459Y-124879500D01*
X105981456Y-124879500D01*
X105788165Y-124917949D01*
X105788163Y-124917949D01*
X105606086Y-124993367D01*
X105442218Y-125102861D01*
X105442214Y-125102864D01*
X105302864Y-125242214D01*
X105302861Y-125242218D01*
X105193367Y-125406086D01*
X105117949Y-125588163D01*
X105117949Y-125588165D01*
X105079500Y-125781456D01*
X101100500Y-125781456D01*
X101100500Y-123241456D01*
X105079500Y-123241456D01*
X105079500Y-123438543D01*
X105117949Y-123631834D01*
X105117949Y-123631836D01*
X105193367Y-123813913D01*
X105193368Y-123813914D01*
X105302861Y-123977782D01*
X105442218Y-124117139D01*
X105606086Y-124226632D01*
X105788165Y-124302051D01*
X105981459Y-124340500D01*
X105981460Y-124340500D01*
X106178540Y-124340500D01*
X106178541Y-124340500D01*
X106371835Y-124302051D01*
X106553914Y-124226632D01*
X106717782Y-124117139D01*
X106857139Y-123977782D01*
X106966632Y-123813914D01*
X107042051Y-123631835D01*
X107080500Y-123438541D01*
X107080500Y-123241459D01*
X107080499Y-123241456D01*
X120319500Y-123241456D01*
X120319500Y-123438543D01*
X120357949Y-123631834D01*
X120357949Y-123631836D01*
X120433367Y-123813913D01*
X120433368Y-123813914D01*
X120542861Y-123977782D01*
X120682218Y-124117139D01*
X120846086Y-124226632D01*
X121028165Y-124302051D01*
X121221459Y-124340500D01*
X121221460Y-124340500D01*
X121418540Y-124340500D01*
X121418541Y-124340500D01*
X121611835Y-124302051D01*
X121793914Y-124226632D01*
X121957782Y-124117139D01*
X122097139Y-123977782D01*
X122206632Y-123813914D01*
X122282051Y-123631835D01*
X122320500Y-123438541D01*
X122320500Y-123241459D01*
X122282051Y-123048165D01*
X122206632Y-122866086D01*
X122097139Y-122702218D01*
X121957782Y-122562861D01*
X121793914Y-122453368D01*
X121793915Y-122453368D01*
X121793913Y-122453367D01*
X121611835Y-122377949D01*
X121418543Y-122339500D01*
X121418541Y-122339500D01*
X121221459Y-122339500D01*
X121221456Y-122339500D01*
X121028165Y-122377949D01*
X121028163Y-122377949D01*
X120846086Y-122453367D01*
X120682218Y-122562861D01*
X120682214Y-122562864D01*
X120542864Y-122702214D01*
X120542861Y-122702218D01*
X120433367Y-122866086D01*
X120357949Y-123048163D01*
X120357949Y-123048165D01*
X120319500Y-123241456D01*
X107080499Y-123241456D01*
X107042051Y-123048165D01*
X106966632Y-122866086D01*
X106857139Y-122702218D01*
X106717782Y-122562861D01*
X106553914Y-122453368D01*
X106553915Y-122453368D01*
X106553913Y-122453367D01*
X106371835Y-122377949D01*
X106178543Y-122339500D01*
X106178541Y-122339500D01*
X105981459Y-122339500D01*
X105981456Y-122339500D01*
X105788165Y-122377949D01*
X105788163Y-122377949D01*
X105606086Y-122453367D01*
X105442218Y-122562861D01*
X105442214Y-122562864D01*
X105302864Y-122702214D01*
X105302861Y-122702218D01*
X105193367Y-122866086D01*
X105117949Y-123048163D01*
X105117949Y-123048165D01*
X105079500Y-123241456D01*
X101100500Y-123241456D01*
X101100500Y-120701456D01*
X105079500Y-120701456D01*
X105079500Y-120898543D01*
X105117949Y-121091834D01*
X105117949Y-121091836D01*
X105193367Y-121273913D01*
X105193368Y-121273914D01*
X105302861Y-121437782D01*
X105442218Y-121577139D01*
X105606086Y-121686632D01*
X105788165Y-121762051D01*
X105981459Y-121800500D01*
X105981460Y-121800500D01*
X106178540Y-121800500D01*
X106178541Y-121800500D01*
X106371835Y-121762051D01*
X106553914Y-121686632D01*
X106717782Y-121577139D01*
X106857139Y-121437782D01*
X106966632Y-121273914D01*
X107042051Y-121091835D01*
X107080500Y-120898541D01*
X107080500Y-120701459D01*
X107042051Y-120508165D01*
X106966632Y-120326086D01*
X106857139Y-120162218D01*
X106717782Y-120022861D01*
X106553914Y-119913368D01*
X106553915Y-119913368D01*
X106553913Y-119913367D01*
X106371835Y-119837949D01*
X106178543Y-119799500D01*
X106178541Y-119799500D01*
X105981459Y-119799500D01*
X105981456Y-119799500D01*
X105788165Y-119837949D01*
X105788163Y-119837949D01*
X105606086Y-119913367D01*
X105442218Y-120022861D01*
X105442214Y-120022864D01*
X105302864Y-120162214D01*
X105302861Y-120162218D01*
X105193367Y-120326086D01*
X105117949Y-120508163D01*
X105117949Y-120508165D01*
X105079500Y-120701456D01*
X101100500Y-120701456D01*
X101100500Y-119473982D01*
X118100500Y-119473982D01*
X118100500Y-119586018D01*
X118102875Y-119594880D01*
X118129498Y-119694241D01*
X118185513Y-119791260D01*
X118185515Y-119791263D01*
X118264737Y-119870485D01*
X118264739Y-119870486D01*
X118361759Y-119926501D01*
X118361757Y-119926501D01*
X118361761Y-119926502D01*
X118361763Y-119926503D01*
X118469982Y-119955500D01*
X118520877Y-119955500D01*
X118579068Y-119974407D01*
X118590880Y-119984495D01*
X119639941Y-121033557D01*
X119669595Y-121045839D01*
X119669597Y-121045841D01*
X119669598Y-121045841D01*
X119705399Y-121060670D01*
X119741200Y-121075500D01*
X120285033Y-121075500D01*
X120343224Y-121094407D01*
X120376497Y-121136615D01*
X120433368Y-121273914D01*
X120542861Y-121437782D01*
X120682218Y-121577139D01*
X120846086Y-121686632D01*
X121028165Y-121762051D01*
X121221459Y-121800500D01*
X121221460Y-121800500D01*
X121418540Y-121800500D01*
X121418541Y-121800500D01*
X121611835Y-121762051D01*
X121793914Y-121686632D01*
X121957782Y-121577139D01*
X122097139Y-121437782D01*
X122206632Y-121273914D01*
X122282051Y-121091835D01*
X122320500Y-120898541D01*
X122320500Y-120701459D01*
X122282051Y-120508165D01*
X122206632Y-120326086D01*
X122097139Y-120162218D01*
X121957782Y-120022861D01*
X121793914Y-119913368D01*
X121793915Y-119913368D01*
X121793913Y-119913367D01*
X121611835Y-119837949D01*
X121418543Y-119799500D01*
X121418541Y-119799500D01*
X121221459Y-119799500D01*
X121221456Y-119799500D01*
X121028165Y-119837949D01*
X121028163Y-119837949D01*
X120846086Y-119913367D01*
X120682218Y-120022861D01*
X120682214Y-120022864D01*
X120542864Y-120162214D01*
X120542861Y-120162218D01*
X120433367Y-120326087D01*
X120376497Y-120463385D01*
X120336761Y-120509911D01*
X120285033Y-120524500D01*
X119951124Y-120524500D01*
X119892933Y-120505593D01*
X119881120Y-120495504D01*
X118980496Y-119594880D01*
X118952719Y-119540363D01*
X118951500Y-119524876D01*
X118951500Y-119473983D01*
X118951500Y-119473982D01*
X118922503Y-119365763D01*
X118922501Y-119365760D01*
X118922501Y-119365758D01*
X118866486Y-119268739D01*
X118866485Y-119268737D01*
X118787263Y-119189515D01*
X118787260Y-119189513D01*
X118690240Y-119133498D01*
X118690242Y-119133498D01*
X118648251Y-119122247D01*
X118582018Y-119104500D01*
X118469982Y-119104500D01*
X118403748Y-119122247D01*
X118361758Y-119133498D01*
X118264739Y-119189513D01*
X118185513Y-119268739D01*
X118129498Y-119365758D01*
X118129497Y-119365763D01*
X118100500Y-119473982D01*
X101100500Y-119473982D01*
X101100500Y-118161456D01*
X105079500Y-118161456D01*
X105079500Y-118358543D01*
X105117949Y-118551834D01*
X105117949Y-118551836D01*
X105193367Y-118733913D01*
X105193368Y-118733914D01*
X105302861Y-118897782D01*
X105442218Y-119037139D01*
X105606086Y-119146632D01*
X105788165Y-119222051D01*
X105981459Y-119260500D01*
X105981460Y-119260500D01*
X106178540Y-119260500D01*
X106178541Y-119260500D01*
X106371835Y-119222051D01*
X106553914Y-119146632D01*
X106717782Y-119037139D01*
X106857139Y-118897782D01*
X106966632Y-118733914D01*
X107042051Y-118551835D01*
X107080500Y-118358541D01*
X107080500Y-118161459D01*
X107080499Y-118161456D01*
X120319500Y-118161456D01*
X120319500Y-118358543D01*
X120357949Y-118551834D01*
X120357949Y-118551836D01*
X120433367Y-118733913D01*
X120433368Y-118733914D01*
X120542861Y-118897782D01*
X120682218Y-119037139D01*
X120846086Y-119146632D01*
X121028165Y-119222051D01*
X121221459Y-119260500D01*
X121221460Y-119260500D01*
X121418540Y-119260500D01*
X121418541Y-119260500D01*
X121611835Y-119222051D01*
X121793914Y-119146632D01*
X121957782Y-119037139D01*
X122097139Y-118897782D01*
X122206632Y-118733914D01*
X122282051Y-118551835D01*
X122320500Y-118358541D01*
X122320500Y-118161459D01*
X122282051Y-117968165D01*
X122206632Y-117786086D01*
X122097139Y-117622218D01*
X121957782Y-117482861D01*
X121793914Y-117373368D01*
X121793915Y-117373368D01*
X121793913Y-117373367D01*
X121611835Y-117297949D01*
X121418543Y-117259500D01*
X121418541Y-117259500D01*
X121221459Y-117259500D01*
X121221456Y-117259500D01*
X121028165Y-117297949D01*
X121028163Y-117297949D01*
X120846086Y-117373367D01*
X120682218Y-117482861D01*
X120682214Y-117482864D01*
X120542864Y-117622214D01*
X120542861Y-117622218D01*
X120433367Y-117786086D01*
X120357949Y-117968163D01*
X120357949Y-117968165D01*
X120319500Y-118161456D01*
X107080499Y-118161456D01*
X107042051Y-117968165D01*
X106966632Y-117786086D01*
X106857139Y-117622218D01*
X106717782Y-117482861D01*
X106643058Y-117432932D01*
X116669050Y-117432932D01*
X116669050Y-117544968D01*
X116689748Y-117622214D01*
X116698048Y-117653191D01*
X116754063Y-117750210D01*
X116754065Y-117750213D01*
X116833287Y-117829435D01*
X116833289Y-117829436D01*
X116930309Y-117885451D01*
X116930307Y-117885451D01*
X116930311Y-117885452D01*
X116930313Y-117885453D01*
X117038532Y-117914450D01*
X117038534Y-117914450D01*
X117150566Y-117914450D01*
X117150568Y-117914450D01*
X117258787Y-117885453D01*
X117258789Y-117885451D01*
X117258791Y-117885451D01*
X117287614Y-117868809D01*
X117355813Y-117829435D01*
X117435035Y-117750213D01*
X117491053Y-117653187D01*
X117520050Y-117544968D01*
X117520050Y-117432932D01*
X117491053Y-117324713D01*
X117491051Y-117324710D01*
X117491051Y-117324708D01*
X117435036Y-117227689D01*
X117435035Y-117227687D01*
X117355813Y-117148465D01*
X117355810Y-117148463D01*
X117258790Y-117092448D01*
X117258792Y-117092448D01*
X117216801Y-117081197D01*
X117150568Y-117063450D01*
X117038532Y-117063450D01*
X116972298Y-117081197D01*
X116930308Y-117092448D01*
X116833289Y-117148463D01*
X116754063Y-117227689D01*
X116698048Y-117324708D01*
X116698047Y-117324713D01*
X116669050Y-117432932D01*
X106643058Y-117432932D01*
X106553914Y-117373368D01*
X106553915Y-117373368D01*
X106553913Y-117373367D01*
X106371835Y-117297949D01*
X106178543Y-117259500D01*
X106178541Y-117259500D01*
X105981459Y-117259500D01*
X105981456Y-117259500D01*
X105788165Y-117297949D01*
X105788163Y-117297949D01*
X105606086Y-117373367D01*
X105442218Y-117482861D01*
X105442214Y-117482864D01*
X105302864Y-117622214D01*
X105302861Y-117622218D01*
X105193367Y-117786086D01*
X105117949Y-117968163D01*
X105117949Y-117968165D01*
X105079500Y-118161456D01*
X101100500Y-118161456D01*
X101100500Y-116965732D01*
X119224500Y-116965732D01*
X119224500Y-117077768D01*
X119243443Y-117148463D01*
X119253498Y-117185991D01*
X119309513Y-117283010D01*
X119309515Y-117283013D01*
X119388737Y-117362235D01*
X119388739Y-117362236D01*
X119485759Y-117418251D01*
X119485757Y-117418251D01*
X119485761Y-117418252D01*
X119485763Y-117418253D01*
X119593982Y-117447250D01*
X119593984Y-117447250D01*
X119706016Y-117447250D01*
X119706018Y-117447250D01*
X119814237Y-117418253D01*
X119814239Y-117418251D01*
X119814241Y-117418251D01*
X119843064Y-117401609D01*
X119911263Y-117362235D01*
X119990485Y-117283013D01*
X120046503Y-117185987D01*
X120075500Y-117077768D01*
X120075500Y-116965732D01*
X120046503Y-116857513D01*
X120046501Y-116857510D01*
X120046501Y-116857508D01*
X119990485Y-116760487D01*
X119954496Y-116724497D01*
X119926719Y-116669980D01*
X119925500Y-116654494D01*
X119925500Y-115621456D01*
X120319500Y-115621456D01*
X120319500Y-115818543D01*
X120357949Y-116011834D01*
X120357949Y-116011836D01*
X120433367Y-116193913D01*
X120433368Y-116193914D01*
X120542861Y-116357782D01*
X120682218Y-116497139D01*
X120846086Y-116606632D01*
X121028165Y-116682051D01*
X121221459Y-116720500D01*
X121221460Y-116720500D01*
X121418540Y-116720500D01*
X121418541Y-116720500D01*
X121611835Y-116682051D01*
X121793914Y-116606632D01*
X121957782Y-116497139D01*
X122097139Y-116357782D01*
X122206632Y-116193914D01*
X122282051Y-116011835D01*
X122300720Y-115917982D01*
X122799500Y-115917982D01*
X122799500Y-116030018D01*
X122825072Y-116125455D01*
X122828498Y-116138241D01*
X122884513Y-116235260D01*
X122884515Y-116235263D01*
X122963737Y-116314485D01*
X122963739Y-116314486D01*
X123060759Y-116370501D01*
X123060757Y-116370501D01*
X123060761Y-116370502D01*
X123060763Y-116370503D01*
X123168982Y-116399500D01*
X123168984Y-116399500D01*
X123281016Y-116399500D01*
X123281018Y-116399500D01*
X123389237Y-116370503D01*
X123389239Y-116370501D01*
X123389241Y-116370501D01*
X123418064Y-116353859D01*
X123486263Y-116314485D01*
X123565485Y-116235263D01*
X123621503Y-116138237D01*
X123650500Y-116030018D01*
X123650500Y-115917982D01*
X123621503Y-115809763D01*
X123621501Y-115809760D01*
X123621501Y-115809758D01*
X123565486Y-115712739D01*
X123565485Y-115712737D01*
X123486263Y-115633515D01*
X123486260Y-115633513D01*
X123389240Y-115577498D01*
X123389242Y-115577498D01*
X123347251Y-115566247D01*
X123281018Y-115548500D01*
X123168982Y-115548500D01*
X123102748Y-115566247D01*
X123060758Y-115577498D01*
X122963739Y-115633513D01*
X122884513Y-115712739D01*
X122828498Y-115809758D01*
X122828497Y-115809763D01*
X122799500Y-115917982D01*
X122300720Y-115917982D01*
X122320500Y-115818541D01*
X122320500Y-115621459D01*
X122282051Y-115428165D01*
X122206632Y-115246086D01*
X122097139Y-115082218D01*
X121957782Y-114942861D01*
X121793914Y-114833368D01*
X121793915Y-114833368D01*
X121793913Y-114833367D01*
X121611835Y-114757949D01*
X121418543Y-114719500D01*
X121418541Y-114719500D01*
X121221459Y-114719500D01*
X121221456Y-114719500D01*
X121028165Y-114757949D01*
X121028163Y-114757949D01*
X120846086Y-114833367D01*
X120682218Y-114942861D01*
X120682214Y-114942864D01*
X120542864Y-115082214D01*
X120542861Y-115082218D01*
X120433367Y-115246086D01*
X120357949Y-115428163D01*
X120357949Y-115428165D01*
X120319500Y-115621456D01*
X119925500Y-115621456D01*
X119925500Y-112465123D01*
X119944407Y-112406932D01*
X119954496Y-112395119D01*
X120353130Y-111996485D01*
X120782977Y-111566637D01*
X120837492Y-111538862D01*
X120890861Y-111545178D01*
X121028165Y-111602051D01*
X121221459Y-111640500D01*
X121221460Y-111640500D01*
X121418540Y-111640500D01*
X121418541Y-111640500D01*
X121611835Y-111602051D01*
X121791405Y-111527670D01*
X121852401Y-111522870D01*
X121904570Y-111554840D01*
X121927985Y-111611368D01*
X121915027Y-111668635D01*
X121870497Y-111745761D01*
X121851165Y-111817909D01*
X121841500Y-111853982D01*
X121841500Y-111966018D01*
X121849664Y-111996485D01*
X121870498Y-112074241D01*
X121915436Y-112152075D01*
X121928158Y-112211923D01*
X121903271Y-112267819D01*
X121850283Y-112298412D01*
X121791815Y-112293039D01*
X121611689Y-112218429D01*
X121520000Y-112200190D01*
X121520000Y-112833589D01*
X121474394Y-112807259D01*
X121372661Y-112780000D01*
X121267339Y-112780000D01*
X121165606Y-112807259D01*
X121120000Y-112833589D01*
X121120000Y-112200190D01*
X121028311Y-112218429D01*
X121028309Y-112218429D01*
X120846326Y-112293808D01*
X120846314Y-112293814D01*
X120682537Y-112403249D01*
X120682533Y-112403252D01*
X120543252Y-112542533D01*
X120543249Y-112542537D01*
X120433814Y-112706314D01*
X120433808Y-112706326D01*
X120358429Y-112888309D01*
X120358429Y-112888311D01*
X120340190Y-112980000D01*
X120973589Y-112980000D01*
X120947259Y-113025606D01*
X120920000Y-113127339D01*
X120920000Y-113232661D01*
X120947259Y-113334394D01*
X120973590Y-113380000D01*
X120340191Y-113380000D01*
X120358429Y-113471688D01*
X120358429Y-113471690D01*
X120433808Y-113653673D01*
X120433814Y-113653685D01*
X120543249Y-113817462D01*
X120543252Y-113817466D01*
X120682533Y-113956747D01*
X120682537Y-113956750D01*
X120846314Y-114066185D01*
X120846326Y-114066191D01*
X121028304Y-114141568D01*
X121028315Y-114141571D01*
X121120000Y-114159807D01*
X121120000Y-113526410D01*
X121165606Y-113552741D01*
X121267339Y-113580000D01*
X121372661Y-113580000D01*
X121474394Y-113552741D01*
X121520000Y-113526410D01*
X121520000Y-114159806D01*
X121611684Y-114141571D01*
X121611695Y-114141568D01*
X121793673Y-114066191D01*
X121793685Y-114066185D01*
X121957462Y-113956750D01*
X121957466Y-113956747D01*
X122096747Y-113817466D01*
X122096750Y-113817462D01*
X122206185Y-113653685D01*
X122206191Y-113653673D01*
X122281570Y-113471690D01*
X122281570Y-113471688D01*
X122299809Y-113380000D01*
X121666410Y-113380000D01*
X121692741Y-113334394D01*
X121720000Y-113232661D01*
X121720000Y-113127339D01*
X121692741Y-113025606D01*
X121666411Y-112980000D01*
X122299809Y-112980000D01*
X122281570Y-112888311D01*
X122281570Y-112888309D01*
X122206191Y-112706326D01*
X122206185Y-112706314D01*
X122096750Y-112542537D01*
X122096747Y-112542533D01*
X122033379Y-112479165D01*
X122005602Y-112424648D01*
X122015173Y-112364216D01*
X122058438Y-112320951D01*
X122118870Y-112311380D01*
X122128992Y-112313531D01*
X122210982Y-112335500D01*
X122210984Y-112335500D01*
X122323016Y-112335500D01*
X122323018Y-112335500D01*
X122431237Y-112306503D01*
X122431239Y-112306501D01*
X122431241Y-112306501D01*
X122460064Y-112289859D01*
X122528263Y-112250485D01*
X122607485Y-112171263D01*
X122659310Y-112081500D01*
X122663501Y-112074241D01*
X122663501Y-112074239D01*
X122663503Y-112074237D01*
X122692500Y-111966018D01*
X122692500Y-111853982D01*
X122663503Y-111745763D01*
X122663501Y-111745760D01*
X122663501Y-111745758D01*
X122607487Y-111648740D01*
X122607486Y-111648739D01*
X122607485Y-111648737D01*
X122558730Y-111599982D01*
X123307500Y-111599982D01*
X123307500Y-111712018D01*
X123316542Y-111745763D01*
X123336498Y-111820241D01*
X123392513Y-111917260D01*
X123392515Y-111917263D01*
X123471737Y-111996485D01*
X123471739Y-111996486D01*
X123568759Y-112052501D01*
X123568757Y-112052501D01*
X123568761Y-112052502D01*
X123568763Y-112052503D01*
X123676982Y-112081500D01*
X123676984Y-112081500D01*
X123789016Y-112081500D01*
X123789018Y-112081500D01*
X123897237Y-112052503D01*
X123897239Y-112052501D01*
X123897241Y-112052501D01*
X123926064Y-112035859D01*
X123994263Y-111996485D01*
X124073485Y-111917263D01*
X124129503Y-111820237D01*
X124158500Y-111712018D01*
X124158500Y-111599982D01*
X124129503Y-111491763D01*
X124129501Y-111491760D01*
X124129501Y-111491758D01*
X124073486Y-111394739D01*
X124073485Y-111394737D01*
X123994263Y-111315515D01*
X123994260Y-111315513D01*
X123897240Y-111259498D01*
X123897242Y-111259498D01*
X123855251Y-111248247D01*
X123789018Y-111230500D01*
X123676982Y-111230500D01*
X123610748Y-111248247D01*
X123568758Y-111259498D01*
X123471739Y-111315513D01*
X123392513Y-111394739D01*
X123336498Y-111491758D01*
X123323877Y-111538862D01*
X123307500Y-111599982D01*
X122558730Y-111599982D01*
X122528263Y-111569515D01*
X122523282Y-111566639D01*
X122431240Y-111513498D01*
X122431242Y-111513498D01*
X122389251Y-111502247D01*
X122323018Y-111484500D01*
X122210982Y-111484500D01*
X122188253Y-111490590D01*
X122129971Y-111506206D01*
X122068870Y-111503003D01*
X122021320Y-111464497D01*
X122005485Y-111405397D01*
X122027412Y-111348275D01*
X122034346Y-111340575D01*
X122097131Y-111277790D01*
X122097139Y-111277782D01*
X122206632Y-111113914D01*
X122282051Y-110931835D01*
X122320500Y-110738541D01*
X122320500Y-110541459D01*
X122282051Y-110348165D01*
X122206632Y-110166086D01*
X122097139Y-110002218D01*
X121957782Y-109862861D01*
X121793914Y-109753368D01*
X121793915Y-109753368D01*
X121793913Y-109753367D01*
X121611835Y-109677949D01*
X121418543Y-109639500D01*
X121418541Y-109639500D01*
X121221459Y-109639500D01*
X121221456Y-109639500D01*
X121028165Y-109677949D01*
X121028163Y-109677949D01*
X120846086Y-109753367D01*
X120682218Y-109862861D01*
X120682214Y-109862864D01*
X120542864Y-110002214D01*
X120542861Y-110002218D01*
X120433367Y-110166086D01*
X120357949Y-110348163D01*
X120357949Y-110348165D01*
X120319500Y-110541456D01*
X120319500Y-110738543D01*
X120357949Y-110931834D01*
X120357949Y-110931836D01*
X120414819Y-111069135D01*
X120419619Y-111130132D01*
X120393359Y-111177023D01*
X119493942Y-112076442D01*
X119416446Y-112153938D01*
X119416444Y-112153940D01*
X119416443Y-112153942D01*
X119397286Y-112200190D01*
X119374500Y-112255200D01*
X119374500Y-116654494D01*
X119355593Y-116712685D01*
X119345504Y-116724497D01*
X119309514Y-116760487D01*
X119253498Y-116857508D01*
X119253497Y-116857513D01*
X119224500Y-116965732D01*
X101100500Y-116965732D01*
X101100500Y-115621456D01*
X105079500Y-115621456D01*
X105079500Y-115818543D01*
X105117949Y-116011834D01*
X105117949Y-116011836D01*
X105193367Y-116193913D01*
X105193368Y-116193914D01*
X105302861Y-116357782D01*
X105442218Y-116497139D01*
X105606086Y-116606632D01*
X105788165Y-116682051D01*
X105981459Y-116720500D01*
X105981460Y-116720500D01*
X106178540Y-116720500D01*
X106178541Y-116720500D01*
X106371835Y-116682051D01*
X106553914Y-116606632D01*
X106717782Y-116497139D01*
X106857139Y-116357782D01*
X106966632Y-116193914D01*
X107042051Y-116011835D01*
X107080500Y-115818541D01*
X107080500Y-115621459D01*
X107042051Y-115428165D01*
X106966632Y-115246086D01*
X106857139Y-115082218D01*
X106717782Y-114942861D01*
X106553914Y-114833368D01*
X106553915Y-114833368D01*
X106553913Y-114833367D01*
X106371835Y-114757949D01*
X106178543Y-114719500D01*
X106178541Y-114719500D01*
X105981459Y-114719500D01*
X105981456Y-114719500D01*
X105788165Y-114757949D01*
X105788163Y-114757949D01*
X105606086Y-114833367D01*
X105442218Y-114942861D01*
X105442214Y-114942864D01*
X105302864Y-115082214D01*
X105302861Y-115082218D01*
X105193367Y-115246086D01*
X105117949Y-115428163D01*
X105117949Y-115428165D01*
X105079500Y-115621456D01*
X101100500Y-115621456D01*
X101100500Y-113081456D01*
X105079500Y-113081456D01*
X105079500Y-113278543D01*
X105117949Y-113471834D01*
X105117949Y-113471836D01*
X105193367Y-113653913D01*
X105193368Y-113653914D01*
X105302861Y-113817782D01*
X105442218Y-113957139D01*
X105606086Y-114066632D01*
X105788165Y-114142051D01*
X105981459Y-114180500D01*
X105981460Y-114180500D01*
X106178540Y-114180500D01*
X106178541Y-114180500D01*
X106371835Y-114142051D01*
X106553914Y-114066632D01*
X106717782Y-113957139D01*
X106857139Y-113817782D01*
X106966632Y-113653914D01*
X107042051Y-113471835D01*
X107080500Y-113278541D01*
X107080500Y-113123982D01*
X114925500Y-113123982D01*
X114925500Y-113236018D01*
X114951072Y-113331455D01*
X114954498Y-113344241D01*
X115001475Y-113425606D01*
X115010515Y-113441263D01*
X115089737Y-113520485D01*
X115089739Y-113520486D01*
X115186759Y-113576501D01*
X115186757Y-113576501D01*
X115186761Y-113576502D01*
X115186763Y-113576503D01*
X115294982Y-113605500D01*
X115294984Y-113605500D01*
X115407016Y-113605500D01*
X115407018Y-113605500D01*
X115515237Y-113576503D01*
X115515239Y-113576501D01*
X115515241Y-113576501D01*
X115556394Y-113552741D01*
X115612263Y-113520485D01*
X115691485Y-113441263D01*
X115747503Y-113344237D01*
X115776500Y-113236018D01*
X115776500Y-113123982D01*
X115747503Y-113015763D01*
X115747501Y-113015760D01*
X115747501Y-113015758D01*
X115691486Y-112918739D01*
X115691485Y-112918737D01*
X115612263Y-112839515D01*
X115612260Y-112839513D01*
X115515240Y-112783498D01*
X115515242Y-112783498D01*
X115473251Y-112772247D01*
X115407018Y-112754500D01*
X115294982Y-112754500D01*
X115228748Y-112772247D01*
X115186758Y-112783498D01*
X115089739Y-112839513D01*
X115010513Y-112918739D01*
X114954498Y-113015758D01*
X114938286Y-113076263D01*
X114925500Y-113123982D01*
X107080500Y-113123982D01*
X107080500Y-113081459D01*
X107042051Y-112888165D01*
X106966632Y-112706086D01*
X106857139Y-112542218D01*
X106717782Y-112402861D01*
X106561463Y-112298412D01*
X106553913Y-112293367D01*
X106371835Y-112217949D01*
X106178543Y-112179500D01*
X106178541Y-112179500D01*
X105981459Y-112179500D01*
X105981456Y-112179500D01*
X105788165Y-112217949D01*
X105788163Y-112217949D01*
X105606086Y-112293367D01*
X105442218Y-112402861D01*
X105442214Y-112402864D01*
X105302864Y-112542214D01*
X105302861Y-112542218D01*
X105193367Y-112706086D01*
X105117949Y-112888163D01*
X105117949Y-112888165D01*
X105079500Y-113081456D01*
X101100500Y-113081456D01*
X101100500Y-110541456D01*
X105079500Y-110541456D01*
X105079500Y-110738543D01*
X105117949Y-110931834D01*
X105117949Y-110931836D01*
X105193367Y-111113913D01*
X105229699Y-111168288D01*
X105302861Y-111277782D01*
X105442218Y-111417139D01*
X105606086Y-111526632D01*
X105788165Y-111602051D01*
X105981459Y-111640500D01*
X105981460Y-111640500D01*
X106178540Y-111640500D01*
X106178541Y-111640500D01*
X106371835Y-111602051D01*
X106553914Y-111526632D01*
X106717782Y-111417139D01*
X106857139Y-111277782D01*
X106966632Y-111113914D01*
X107042051Y-110931835D01*
X107080500Y-110738541D01*
X107080500Y-110541459D01*
X107042051Y-110348165D01*
X106966632Y-110166086D01*
X106857139Y-110002218D01*
X106717782Y-109862861D01*
X106553914Y-109753368D01*
X106553915Y-109753368D01*
X106553913Y-109753367D01*
X106371835Y-109677949D01*
X106178543Y-109639500D01*
X106178541Y-109639500D01*
X105981459Y-109639500D01*
X105981456Y-109639500D01*
X105788165Y-109677949D01*
X105788163Y-109677949D01*
X105606086Y-109753367D01*
X105442218Y-109862861D01*
X105442214Y-109862864D01*
X105302864Y-110002214D01*
X105302861Y-110002218D01*
X105193367Y-110166086D01*
X105117949Y-110348163D01*
X105117949Y-110348165D01*
X105079500Y-110541456D01*
X101100500Y-110541456D01*
X101100500Y-108001456D01*
X105079500Y-108001456D01*
X105079500Y-108001459D01*
X105079500Y-108198541D01*
X105107339Y-108338498D01*
X105117949Y-108391834D01*
X105117949Y-108391836D01*
X105193367Y-108573913D01*
X105211292Y-108600739D01*
X105302861Y-108737782D01*
X105442218Y-108877139D01*
X105606086Y-108986632D01*
X105788165Y-109062051D01*
X105981459Y-109100500D01*
X105981460Y-109100500D01*
X106178540Y-109100500D01*
X106178541Y-109100500D01*
X106371835Y-109062051D01*
X106527478Y-108997582D01*
X109277500Y-108997582D01*
X109277500Y-109109618D01*
X109283364Y-109131503D01*
X109306498Y-109217841D01*
X109362513Y-109314860D01*
X109362515Y-109314863D01*
X109441737Y-109394085D01*
X109441739Y-109394086D01*
X109538759Y-109450101D01*
X109538757Y-109450101D01*
X109538761Y-109450102D01*
X109538763Y-109450103D01*
X109646982Y-109479100D01*
X109646984Y-109479100D01*
X109759016Y-109479100D01*
X109759018Y-109479100D01*
X109867237Y-109450103D01*
X109867239Y-109450101D01*
X109867241Y-109450101D01*
X109896064Y-109433459D01*
X109964263Y-109394085D01*
X110043485Y-109314863D01*
X110099503Y-109217837D01*
X110128500Y-109109618D01*
X110128500Y-108997582D01*
X110099503Y-108889363D01*
X110099501Y-108889360D01*
X110099501Y-108889358D01*
X110076197Y-108848995D01*
X110076196Y-108848994D01*
X110073194Y-108843794D01*
X110051363Y-108805982D01*
X118323500Y-108805982D01*
X118323500Y-108918018D01*
X118341885Y-108986632D01*
X118352498Y-109026241D01*
X118400637Y-109109618D01*
X118408515Y-109123263D01*
X118487737Y-109202485D01*
X118487739Y-109202486D01*
X118584759Y-109258501D01*
X118584757Y-109258501D01*
X118584761Y-109258502D01*
X118584763Y-109258503D01*
X118692982Y-109287500D01*
X118692984Y-109287500D01*
X118805016Y-109287500D01*
X118805018Y-109287500D01*
X118913237Y-109258503D01*
X118913239Y-109258501D01*
X118913241Y-109258501D01*
X118942064Y-109241859D01*
X119010263Y-109202485D01*
X119089485Y-109123263D01*
X119145503Y-109026237D01*
X119174500Y-108918018D01*
X119174500Y-108805982D01*
X119145503Y-108697763D01*
X119145501Y-108697760D01*
X119145501Y-108697758D01*
X119089486Y-108600739D01*
X119089485Y-108600737D01*
X119010263Y-108521515D01*
X119010260Y-108521513D01*
X118913240Y-108465498D01*
X118913242Y-108465498D01*
X118871251Y-108454247D01*
X118805018Y-108436500D01*
X118692982Y-108436500D01*
X118626748Y-108454247D01*
X118584758Y-108465498D01*
X118487739Y-108521513D01*
X118408513Y-108600739D01*
X118352498Y-108697758D01*
X118352497Y-108697763D01*
X118323500Y-108805982D01*
X110051363Y-108805982D01*
X110043485Y-108792337D01*
X109964263Y-108713115D01*
X109937673Y-108697763D01*
X109867240Y-108657098D01*
X109867242Y-108657098D01*
X109825251Y-108645847D01*
X109759018Y-108628100D01*
X109646982Y-108628100D01*
X109580748Y-108645847D01*
X109538758Y-108657098D01*
X109441739Y-108713113D01*
X109362513Y-108792339D01*
X109306498Y-108889358D01*
X109298819Y-108918018D01*
X109277500Y-108997582D01*
X106527478Y-108997582D01*
X106553914Y-108986632D01*
X106717782Y-108877139D01*
X106857139Y-108737782D01*
X106966632Y-108573914D01*
X107011539Y-108465498D01*
X107023503Y-108436615D01*
X107063239Y-108390089D01*
X107114967Y-108375500D01*
X108454389Y-108375500D01*
X108454390Y-108375500D01*
X108555648Y-108333557D01*
X108633147Y-108256058D01*
X108887749Y-108001456D01*
X120319500Y-108001456D01*
X120319500Y-108001459D01*
X120319500Y-108198541D01*
X120347339Y-108338498D01*
X120357949Y-108391834D01*
X120357949Y-108391836D01*
X120433367Y-108573913D01*
X120451292Y-108600739D01*
X120542861Y-108737782D01*
X120682218Y-108877139D01*
X120846086Y-108986632D01*
X121028165Y-109062051D01*
X121221459Y-109100500D01*
X121221460Y-109100500D01*
X121418540Y-109100500D01*
X121418541Y-109100500D01*
X121611835Y-109062051D01*
X121793914Y-108986632D01*
X121957782Y-108877139D01*
X122097139Y-108737782D01*
X122136428Y-108678982D01*
X123826500Y-108678982D01*
X123826500Y-108791018D01*
X123826854Y-108792338D01*
X123855498Y-108899241D01*
X123911513Y-108996260D01*
X123911515Y-108996263D01*
X123990737Y-109075485D01*
X123990739Y-109075486D01*
X124087759Y-109131501D01*
X124087757Y-109131501D01*
X124087761Y-109131502D01*
X124087763Y-109131503D01*
X124195982Y-109160500D01*
X124195984Y-109160500D01*
X124308016Y-109160500D01*
X124308018Y-109160500D01*
X124416237Y-109131503D01*
X124416239Y-109131501D01*
X124416241Y-109131501D01*
X124454146Y-109109616D01*
X124513263Y-109075485D01*
X124592485Y-108996263D01*
X124637661Y-108918016D01*
X124648501Y-108899241D01*
X124648501Y-108899239D01*
X124648503Y-108899237D01*
X124677500Y-108791018D01*
X124677500Y-108678982D01*
X124648503Y-108570763D01*
X124648501Y-108570760D01*
X124648501Y-108570758D01*
X124592486Y-108473739D01*
X124592485Y-108473737D01*
X124513263Y-108394515D01*
X124508623Y-108391836D01*
X124416240Y-108338498D01*
X124416242Y-108338498D01*
X124374251Y-108327247D01*
X124308018Y-108309500D01*
X124195982Y-108309500D01*
X124129748Y-108327247D01*
X124087758Y-108338498D01*
X123990739Y-108394513D01*
X123911513Y-108473739D01*
X123855498Y-108570758D01*
X123847465Y-108600739D01*
X123826500Y-108678982D01*
X122136428Y-108678982D01*
X122206632Y-108573914D01*
X122282051Y-108391835D01*
X122320500Y-108198541D01*
X122320500Y-108001459D01*
X122282051Y-107808165D01*
X122206632Y-107626086D01*
X122097139Y-107462218D01*
X121957782Y-107322861D01*
X121801240Y-107218263D01*
X121793913Y-107213367D01*
X121611835Y-107137949D01*
X121418543Y-107099500D01*
X121418541Y-107099500D01*
X121221459Y-107099500D01*
X121221456Y-107099500D01*
X121028165Y-107137949D01*
X121028163Y-107137949D01*
X120846086Y-107213367D01*
X120682218Y-107322861D01*
X120682214Y-107322864D01*
X120542864Y-107462214D01*
X120542861Y-107462218D01*
X120433367Y-107626086D01*
X120357949Y-107808163D01*
X120357949Y-107808165D01*
X120319500Y-108001456D01*
X108887749Y-108001456D01*
X108962614Y-107926591D01*
X109850520Y-107038686D01*
X109905037Y-107010909D01*
X109920524Y-107009690D01*
X109971416Y-107009690D01*
X109971418Y-107009690D01*
X110079637Y-106980693D01*
X110079639Y-106980691D01*
X110079641Y-106980691D01*
X110108464Y-106964049D01*
X110176663Y-106924675D01*
X110255885Y-106845453D01*
X110311903Y-106748427D01*
X110340900Y-106640208D01*
X110340900Y-106528172D01*
X110311903Y-106419953D01*
X110311901Y-106419950D01*
X110311901Y-106419948D01*
X110255886Y-106322929D01*
X110255885Y-106322927D01*
X110176663Y-106243705D01*
X110176660Y-106243703D01*
X110079640Y-106187688D01*
X110079642Y-106187688D01*
X110037651Y-106176437D01*
X109971418Y-106158690D01*
X109859382Y-106158690D01*
X109793148Y-106176437D01*
X109751158Y-106187688D01*
X109654139Y-106243703D01*
X109574913Y-106322929D01*
X109518898Y-106419948D01*
X109511748Y-106446632D01*
X109491541Y-106522050D01*
X109489900Y-106528173D01*
X109489900Y-106579066D01*
X109470993Y-106637257D01*
X109460904Y-106649069D01*
X109221330Y-106888642D01*
X109166815Y-106916419D01*
X109106383Y-106906848D01*
X109063118Y-106863583D01*
X109055703Y-106844267D01*
X109041903Y-106792763D01*
X109041901Y-106792760D01*
X109041901Y-106792758D01*
X108985886Y-106695739D01*
X108985885Y-106695737D01*
X108906663Y-106616515D01*
X108906660Y-106616513D01*
X108809640Y-106560498D01*
X108809642Y-106560498D01*
X108767651Y-106549247D01*
X108701418Y-106531500D01*
X108589382Y-106531500D01*
X108523148Y-106549247D01*
X108481158Y-106560498D01*
X108384139Y-106616513D01*
X108304913Y-106695739D01*
X108248898Y-106792758D01*
X108248897Y-106792763D01*
X108219900Y-106900982D01*
X108219900Y-107013018D01*
X108226778Y-107038686D01*
X108248898Y-107121241D01*
X108302088Y-107213367D01*
X108304915Y-107218263D01*
X108384137Y-107297485D01*
X108384139Y-107297486D01*
X108481159Y-107353501D01*
X108481157Y-107353501D01*
X108481161Y-107353502D01*
X108481163Y-107353503D01*
X108532662Y-107367302D01*
X108583975Y-107400625D01*
X108605902Y-107457746D01*
X108590067Y-107516847D01*
X108577042Y-107532931D01*
X108314472Y-107795503D01*
X108259955Y-107823281D01*
X108244468Y-107824500D01*
X107114967Y-107824500D01*
X107056776Y-107805593D01*
X107023503Y-107763385D01*
X106966632Y-107626087D01*
X106966632Y-107626086D01*
X106857139Y-107462218D01*
X106717782Y-107322861D01*
X106561240Y-107218263D01*
X106553913Y-107213367D01*
X106371835Y-107137949D01*
X106178543Y-107099500D01*
X106178541Y-107099500D01*
X105981459Y-107099500D01*
X105981456Y-107099500D01*
X105788165Y-107137949D01*
X105788163Y-107137949D01*
X105606086Y-107213367D01*
X105442218Y-107322861D01*
X105442214Y-107322864D01*
X105302864Y-107462214D01*
X105302861Y-107462218D01*
X105193367Y-107626086D01*
X105117949Y-107808163D01*
X105117949Y-107808165D01*
X105079500Y-108001456D01*
X101100500Y-108001456D01*
X101100500Y-102573108D01*
X103420500Y-102573108D01*
X103420500Y-102704892D01*
X103428351Y-102734191D01*
X103454609Y-102832190D01*
X103520496Y-102946309D01*
X103520498Y-102946311D01*
X103520500Y-102946314D01*
X103613686Y-103039500D01*
X103613688Y-103039501D01*
X103613690Y-103039503D01*
X103727810Y-103105390D01*
X103727808Y-103105390D01*
X103727812Y-103105391D01*
X103727814Y-103105392D01*
X103855108Y-103139500D01*
X103855110Y-103139500D01*
X103986890Y-103139500D01*
X103986892Y-103139500D01*
X104114186Y-103105392D01*
X104131999Y-103095107D01*
X104191845Y-103082385D01*
X104247742Y-103107270D01*
X104276514Y-103153035D01*
X104280500Y-103166654D01*
X104280500Y-103201800D01*
X104313506Y-103281482D01*
X104315550Y-103286418D01*
X104315553Y-103286426D01*
X104322441Y-103303055D01*
X104322442Y-103303056D01*
X104322443Y-103303058D01*
X105529641Y-104510257D01*
X105551524Y-104519321D01*
X105556746Y-104521484D01*
X105556973Y-104521578D01*
X105578085Y-104539613D01*
X105603487Y-104561306D01*
X105603489Y-104561315D01*
X105603495Y-104561320D01*
X105610420Y-104590179D01*
X105617773Y-104620800D01*
X105617769Y-104620807D01*
X105617772Y-104620816D01*
X105606308Y-104648484D01*
X105594361Y-104677330D01*
X105594352Y-104677337D01*
X105594351Y-104677341D01*
X105594343Y-104677345D01*
X105574080Y-104695353D01*
X105442537Y-104783248D01*
X105303252Y-104922533D01*
X105303249Y-104922537D01*
X105193814Y-105086314D01*
X105193808Y-105086326D01*
X105118429Y-105268309D01*
X105118429Y-105268311D01*
X105100190Y-105360000D01*
X105733589Y-105360000D01*
X105707259Y-105405606D01*
X105680000Y-105507339D01*
X105680000Y-105612661D01*
X105707259Y-105714394D01*
X105733590Y-105760000D01*
X105100191Y-105760000D01*
X105118429Y-105851688D01*
X105118429Y-105851690D01*
X105193808Y-106033673D01*
X105193814Y-106033685D01*
X105303249Y-106197462D01*
X105303252Y-106197466D01*
X105442533Y-106336747D01*
X105442537Y-106336750D01*
X105606314Y-106446185D01*
X105606326Y-106446191D01*
X105788304Y-106521568D01*
X105788315Y-106521571D01*
X105880000Y-106539807D01*
X105880000Y-105906410D01*
X105925606Y-105932741D01*
X106027339Y-105960000D01*
X106132661Y-105960000D01*
X106234394Y-105932741D01*
X106280000Y-105906410D01*
X106280000Y-106539806D01*
X106371684Y-106521571D01*
X106371695Y-106521568D01*
X106553673Y-106446191D01*
X106553685Y-106446185D01*
X106717462Y-106336750D01*
X106717466Y-106336747D01*
X106856747Y-106197466D01*
X106856750Y-106197462D01*
X106966185Y-106033685D01*
X106966191Y-106033673D01*
X107041570Y-105851690D01*
X107041570Y-105851688D01*
X107059809Y-105760000D01*
X106426410Y-105760000D01*
X106452741Y-105714394D01*
X106468285Y-105656382D01*
X110999501Y-105656382D01*
X110999501Y-105768418D01*
X111021692Y-105851237D01*
X111028499Y-105876641D01*
X111084514Y-105973660D01*
X111084516Y-105973663D01*
X111163738Y-106052885D01*
X111163740Y-106052886D01*
X111260760Y-106108901D01*
X111260758Y-106108901D01*
X111260762Y-106108902D01*
X111260764Y-106108903D01*
X111368983Y-106137900D01*
X111368985Y-106137900D01*
X111481017Y-106137900D01*
X111481019Y-106137900D01*
X111589238Y-106108903D01*
X111589240Y-106108901D01*
X111589242Y-106108901D01*
X111633232Y-106083503D01*
X111686264Y-106052885D01*
X111765486Y-105973663D01*
X111821504Y-105876637D01*
X111850501Y-105768418D01*
X111850501Y-105656382D01*
X111821504Y-105548163D01*
X111821502Y-105548160D01*
X111821502Y-105548158D01*
X111765487Y-105451139D01*
X111765486Y-105451137D01*
X111686264Y-105371915D01*
X111665627Y-105360000D01*
X111589241Y-105315898D01*
X111589243Y-105315898D01*
X111541844Y-105303198D01*
X111481019Y-105286900D01*
X111368983Y-105286900D01*
X111308158Y-105303198D01*
X111260759Y-105315898D01*
X111163740Y-105371913D01*
X111084514Y-105451139D01*
X111028499Y-105548158D01*
X111028498Y-105548163D01*
X110999501Y-105656382D01*
X106468285Y-105656382D01*
X106480000Y-105612661D01*
X106480000Y-105507339D01*
X106452741Y-105405606D01*
X106426411Y-105360000D01*
X107059809Y-105360000D01*
X107041570Y-105268311D01*
X107041570Y-105268309D01*
X106966191Y-105086326D01*
X106966185Y-105086314D01*
X106856750Y-104922537D01*
X106856747Y-104922533D01*
X106717466Y-104783252D01*
X106717462Y-104783249D01*
X106643031Y-104733515D01*
X106605152Y-104685465D01*
X106602750Y-104624327D01*
X106636743Y-104573453D01*
X106694147Y-104552276D01*
X106698033Y-104552200D01*
X111245577Y-104552200D01*
X111303768Y-104571107D01*
X111315581Y-104581196D01*
X112275686Y-105541301D01*
X112303463Y-105595818D01*
X112301311Y-105636920D01*
X112299500Y-105643679D01*
X112299500Y-105643682D01*
X112299500Y-105755718D01*
X112325072Y-105851155D01*
X112328498Y-105863941D01*
X112383959Y-105960000D01*
X112384515Y-105960963D01*
X112463737Y-106040185D01*
X112463739Y-106040186D01*
X112560759Y-106096201D01*
X112560757Y-106096201D01*
X112560761Y-106096202D01*
X112560763Y-106096203D01*
X112668982Y-106125200D01*
X112668984Y-106125200D01*
X112781016Y-106125200D01*
X112781018Y-106125200D01*
X112889237Y-106096203D01*
X112889239Y-106096201D01*
X112889241Y-106096201D01*
X112918064Y-106079559D01*
X112986263Y-106040185D01*
X113065485Y-105960963D01*
X113112183Y-105880080D01*
X113121501Y-105863941D01*
X113121501Y-105863939D01*
X113121503Y-105863937D01*
X113150500Y-105755718D01*
X113150500Y-105643682D01*
X113147097Y-105630982D01*
X113599500Y-105630982D01*
X113599500Y-105743018D01*
X113606306Y-105768418D01*
X113628498Y-105851241D01*
X113675553Y-105932741D01*
X113684515Y-105948263D01*
X113763737Y-106027485D01*
X113785734Y-106040185D01*
X113860759Y-106083501D01*
X113860757Y-106083501D01*
X113860761Y-106083502D01*
X113860763Y-106083503D01*
X113968982Y-106112500D01*
X113968984Y-106112500D01*
X114081016Y-106112500D01*
X114081018Y-106112500D01*
X114189237Y-106083503D01*
X114189239Y-106083501D01*
X114189241Y-106083501D01*
X114242267Y-106052886D01*
X114286263Y-106027485D01*
X114365485Y-105948263D01*
X114406838Y-105876637D01*
X114421501Y-105851241D01*
X114421501Y-105851239D01*
X114421503Y-105851237D01*
X114450500Y-105743018D01*
X114450500Y-105630982D01*
X114421503Y-105522763D01*
X114386107Y-105461456D01*
X120319500Y-105461456D01*
X120319500Y-105658543D01*
X120357949Y-105851834D01*
X120357949Y-105851836D01*
X120433367Y-106033913D01*
X120466501Y-106083501D01*
X120542861Y-106197782D01*
X120682218Y-106337139D01*
X120846086Y-106446632D01*
X121028165Y-106522051D01*
X121221459Y-106560500D01*
X121221460Y-106560500D01*
X121418540Y-106560500D01*
X121418541Y-106560500D01*
X121611835Y-106522051D01*
X121793914Y-106446632D01*
X121957782Y-106337139D01*
X122097139Y-106197782D01*
X122206632Y-106033914D01*
X122282051Y-105851835D01*
X122320500Y-105658541D01*
X122320500Y-105461459D01*
X122282051Y-105268165D01*
X122206632Y-105086086D01*
X122097139Y-104922218D01*
X121957782Y-104782861D01*
X121826817Y-104695353D01*
X121793913Y-104673367D01*
X121611835Y-104597949D01*
X121418543Y-104559500D01*
X121418541Y-104559500D01*
X121221459Y-104559500D01*
X121221456Y-104559500D01*
X121028165Y-104597949D01*
X121028163Y-104597949D01*
X120846086Y-104673367D01*
X120682218Y-104782861D01*
X120682214Y-104782864D01*
X120542864Y-104922214D01*
X120542861Y-104922218D01*
X120433367Y-105086086D01*
X120357949Y-105268163D01*
X120357949Y-105268165D01*
X120319500Y-105461456D01*
X114386107Y-105461456D01*
X114365485Y-105425737D01*
X114286263Y-105346515D01*
X114286260Y-105346513D01*
X114189240Y-105290498D01*
X114189242Y-105290498D01*
X114137697Y-105276687D01*
X114081018Y-105261500D01*
X113968982Y-105261500D01*
X113912303Y-105276687D01*
X113860758Y-105290498D01*
X113763739Y-105346513D01*
X113684513Y-105425739D01*
X113628498Y-105522758D01*
X113628497Y-105522763D01*
X113599500Y-105630982D01*
X113147097Y-105630982D01*
X113121503Y-105535463D01*
X113121501Y-105535460D01*
X113121501Y-105535458D01*
X113073806Y-105452850D01*
X113065485Y-105438437D01*
X112986263Y-105359215D01*
X112986260Y-105359213D01*
X112889240Y-105303198D01*
X112889236Y-105303196D01*
X112815925Y-105283552D01*
X112771545Y-105257930D01*
X112171052Y-104657437D01*
X111556758Y-104043143D01*
X111455500Y-104001200D01*
X111455499Y-104001200D01*
X108850258Y-104001200D01*
X108792067Y-103982293D01*
X108756103Y-103932793D01*
X108756103Y-103871607D01*
X108760977Y-103860659D01*
X108760919Y-103860635D01*
X108763401Y-103854642D01*
X108763401Y-103854639D01*
X108763403Y-103854637D01*
X108792400Y-103746418D01*
X108792400Y-103634382D01*
X108763403Y-103526163D01*
X108715965Y-103443998D01*
X108703244Y-103384153D01*
X108728130Y-103328257D01*
X108781118Y-103297664D01*
X108801702Y-103295500D01*
X112427978Y-103295500D01*
X112486169Y-103314407D01*
X112522133Y-103363907D01*
X112523604Y-103420120D01*
X112499500Y-103510082D01*
X112499500Y-103622118D01*
X112514470Y-103677986D01*
X112528498Y-103730341D01*
X112581480Y-103822107D01*
X112584515Y-103827363D01*
X112663737Y-103906585D01*
X112674058Y-103912544D01*
X112760759Y-103962601D01*
X112760757Y-103962601D01*
X112760761Y-103962602D01*
X112760763Y-103962603D01*
X112868982Y-103991600D01*
X112868984Y-103991600D01*
X112871842Y-103991600D01*
X112873789Y-103992232D01*
X112875416Y-103992447D01*
X112875376Y-103992748D01*
X112930033Y-104010507D01*
X112965997Y-104060007D01*
X112967468Y-104116220D01*
X112949500Y-104183282D01*
X112949500Y-104295318D01*
X112971249Y-104376486D01*
X112978498Y-104403541D01*
X113034513Y-104500560D01*
X113034515Y-104500563D01*
X113113737Y-104579785D01*
X113113739Y-104579786D01*
X113210759Y-104635801D01*
X113210757Y-104635801D01*
X113210761Y-104635802D01*
X113210763Y-104635803D01*
X113318982Y-104664800D01*
X113318984Y-104664800D01*
X113431016Y-104664800D01*
X113431018Y-104664800D01*
X113539237Y-104635803D01*
X113539239Y-104635801D01*
X113539241Y-104635801D01*
X113568064Y-104619159D01*
X113636263Y-104579785D01*
X113715485Y-104500563D01*
X113752078Y-104437182D01*
X114912800Y-104437182D01*
X114912800Y-104549218D01*
X114932925Y-104624327D01*
X114941798Y-104657441D01*
X114997813Y-104754460D01*
X114997815Y-104754463D01*
X115077037Y-104833685D01*
X115077039Y-104833686D01*
X115174059Y-104889701D01*
X115174057Y-104889701D01*
X115174061Y-104889702D01*
X115174063Y-104889703D01*
X115282282Y-104918700D01*
X115282284Y-104918700D01*
X115394316Y-104918700D01*
X115394318Y-104918700D01*
X115502537Y-104889703D01*
X115502539Y-104889701D01*
X115502541Y-104889701D01*
X115531364Y-104873059D01*
X115599563Y-104833685D01*
X115678785Y-104754463D01*
X115723309Y-104677345D01*
X115734801Y-104657441D01*
X115734801Y-104657439D01*
X115734803Y-104657437D01*
X115763800Y-104549218D01*
X115763800Y-104437182D01*
X115734803Y-104328963D01*
X115734801Y-104328960D01*
X115734801Y-104328958D01*
X115678786Y-104231939D01*
X115678785Y-104231937D01*
X115599563Y-104152715D01*
X115599560Y-104152713D01*
X115502540Y-104096698D01*
X115502542Y-104096698D01*
X115456189Y-104084278D01*
X115399615Y-104069119D01*
X115396742Y-104068349D01*
X115394318Y-104067700D01*
X115282282Y-104067700D01*
X115216048Y-104085447D01*
X115174058Y-104096698D01*
X115077039Y-104152713D01*
X114997813Y-104231939D01*
X114941798Y-104328958D01*
X114941797Y-104328963D01*
X114912800Y-104437182D01*
X113752078Y-104437182D01*
X113771503Y-104403537D01*
X113800500Y-104295318D01*
X113800500Y-104183282D01*
X113771503Y-104075063D01*
X113771501Y-104075060D01*
X113771501Y-104075058D01*
X113717802Y-103982050D01*
X113716608Y-103979982D01*
X118227500Y-103979982D01*
X118227500Y-104092018D01*
X118231510Y-104106982D01*
X118256498Y-104200241D01*
X118311391Y-104295316D01*
X118312515Y-104297263D01*
X118391737Y-104376485D01*
X118391739Y-104376486D01*
X118488759Y-104432501D01*
X118488757Y-104432501D01*
X118488761Y-104432502D01*
X118488763Y-104432503D01*
X118596982Y-104461500D01*
X118596984Y-104461500D01*
X118709016Y-104461500D01*
X118709018Y-104461500D01*
X118817237Y-104432503D01*
X118817239Y-104432501D01*
X118817241Y-104432501D01*
X118846064Y-104415859D01*
X118914263Y-104376485D01*
X118993485Y-104297263D01*
X119049503Y-104200237D01*
X119074490Y-104106982D01*
X123815500Y-104106982D01*
X123815500Y-104219018D01*
X123835944Y-104295316D01*
X123844498Y-104327241D01*
X123888551Y-104403541D01*
X123900515Y-104424263D01*
X123979737Y-104503485D01*
X124007161Y-104519318D01*
X124076759Y-104559501D01*
X124076757Y-104559501D01*
X124076761Y-104559502D01*
X124076763Y-104559503D01*
X124184982Y-104588500D01*
X124184984Y-104588500D01*
X124297016Y-104588500D01*
X124297018Y-104588500D01*
X124405237Y-104559503D01*
X124405239Y-104559501D01*
X124405241Y-104559501D01*
X124439687Y-104539613D01*
X124502263Y-104503485D01*
X124581485Y-104424263D01*
X124620859Y-104356064D01*
X124637501Y-104327241D01*
X124637501Y-104327239D01*
X124637503Y-104327237D01*
X124666500Y-104219018D01*
X124666500Y-104106982D01*
X124637503Y-103998763D01*
X124637501Y-103998760D01*
X124637501Y-103998758D01*
X124584311Y-103906632D01*
X124581485Y-103901737D01*
X124502263Y-103822515D01*
X124502260Y-103822513D01*
X124405240Y-103766498D01*
X124405242Y-103766498D01*
X124363251Y-103755247D01*
X124297018Y-103737500D01*
X124184982Y-103737500D01*
X124118748Y-103755247D01*
X124076758Y-103766498D01*
X123979739Y-103822513D01*
X123900513Y-103901739D01*
X123844498Y-103998758D01*
X123832605Y-104043143D01*
X123815500Y-104106982D01*
X119074490Y-104106982D01*
X119078500Y-104092018D01*
X119078500Y-103979982D01*
X119049503Y-103871763D01*
X119049501Y-103871760D01*
X119049501Y-103871758D01*
X118993486Y-103774739D01*
X118993485Y-103774737D01*
X118914263Y-103695515D01*
X118914260Y-103695513D01*
X118817240Y-103639498D01*
X118817242Y-103639498D01*
X118752377Y-103622118D01*
X118709018Y-103610500D01*
X118596982Y-103610500D01*
X118553623Y-103622118D01*
X118488758Y-103639498D01*
X118391739Y-103695513D01*
X118312513Y-103774739D01*
X118256498Y-103871758D01*
X118247166Y-103906586D01*
X118227500Y-103979982D01*
X113716608Y-103979982D01*
X113715485Y-103978037D01*
X113636263Y-103898815D01*
X113589408Y-103871763D01*
X113539240Y-103842798D01*
X113539242Y-103842798D01*
X113481636Y-103827363D01*
X113431018Y-103813800D01*
X113428158Y-103813800D01*
X113426210Y-103813167D01*
X113424584Y-103812953D01*
X113424623Y-103812651D01*
X113369967Y-103794893D01*
X113334003Y-103745393D01*
X113332531Y-103689179D01*
X113350500Y-103622118D01*
X113350500Y-103510082D01*
X113326395Y-103420120D01*
X113329598Y-103359022D01*
X113368103Y-103311472D01*
X113422022Y-103295500D01*
X114378699Y-103295500D01*
X114378700Y-103295500D01*
X114412542Y-103281482D01*
X116132000Y-103281482D01*
X116132000Y-103393518D01*
X116141544Y-103429137D01*
X116160998Y-103501741D01*
X116217013Y-103598760D01*
X116217015Y-103598763D01*
X116296237Y-103677985D01*
X116296239Y-103677986D01*
X116393259Y-103734001D01*
X116393257Y-103734001D01*
X116393261Y-103734002D01*
X116393263Y-103734003D01*
X116501482Y-103763000D01*
X116501484Y-103763000D01*
X116613516Y-103763000D01*
X116613518Y-103763000D01*
X116721737Y-103734003D01*
X116721739Y-103734001D01*
X116721741Y-103734001D01*
X116750564Y-103717359D01*
X116818763Y-103677985D01*
X116897985Y-103598763D01*
X116939902Y-103526160D01*
X116954001Y-103501741D01*
X116954001Y-103501739D01*
X116954003Y-103501737D01*
X116983000Y-103393518D01*
X116983000Y-103281482D01*
X116954003Y-103173263D01*
X116954001Y-103173260D01*
X116954001Y-103173258D01*
X116904096Y-103086821D01*
X116897985Y-103076237D01*
X116818763Y-102997015D01*
X116818164Y-102996669D01*
X116721740Y-102940998D01*
X116721742Y-102940998D01*
X116648823Y-102921460D01*
X116648808Y-102921456D01*
X120319500Y-102921456D01*
X120319500Y-103118543D01*
X120357949Y-103311834D01*
X120357949Y-103311836D01*
X120433367Y-103493913D01*
X120433368Y-103493914D01*
X120542861Y-103657782D01*
X120682218Y-103797139D01*
X120846086Y-103906632D01*
X121028165Y-103982051D01*
X121221459Y-104020500D01*
X121221460Y-104020500D01*
X121418540Y-104020500D01*
X121418541Y-104020500D01*
X121611835Y-103982051D01*
X121793914Y-103906632D01*
X121957782Y-103797139D01*
X122097139Y-103657782D01*
X122206632Y-103493914D01*
X122282051Y-103311835D01*
X122320500Y-103118541D01*
X122320500Y-102921459D01*
X122282051Y-102728165D01*
X122206632Y-102546086D01*
X122097139Y-102382218D01*
X121957782Y-102242861D01*
X121826808Y-102155347D01*
X121793913Y-102133367D01*
X121611835Y-102057949D01*
X121418543Y-102019500D01*
X121418541Y-102019500D01*
X121221459Y-102019500D01*
X121221456Y-102019500D01*
X121028165Y-102057949D01*
X121028163Y-102057949D01*
X120846086Y-102133367D01*
X120682218Y-102242861D01*
X120682214Y-102242864D01*
X120542864Y-102382214D01*
X120542861Y-102382218D01*
X120433367Y-102546086D01*
X120357949Y-102728163D01*
X120357949Y-102728165D01*
X120319500Y-102921456D01*
X116648808Y-102921456D01*
X116613518Y-102912000D01*
X116501482Y-102912000D01*
X116466177Y-102921460D01*
X116393258Y-102940998D01*
X116296239Y-102997013D01*
X116217013Y-103076239D01*
X116160998Y-103173258D01*
X116152496Y-103204989D01*
X116132000Y-103281482D01*
X114412542Y-103281482D01*
X114479958Y-103253557D01*
X114557457Y-103176058D01*
X114557456Y-103176058D01*
X114709069Y-103024446D01*
X114763586Y-102996669D01*
X114779072Y-102995450D01*
X114829966Y-102995450D01*
X114829968Y-102995450D01*
X114938187Y-102966453D01*
X114938189Y-102966451D01*
X114938191Y-102966451D01*
X114982278Y-102940997D01*
X115035213Y-102910435D01*
X115114435Y-102831213D01*
X115170453Y-102734187D01*
X115199450Y-102625968D01*
X115199450Y-102513932D01*
X115170453Y-102405713D01*
X115170451Y-102405710D01*
X115170451Y-102405708D01*
X115114436Y-102308689D01*
X115114435Y-102308687D01*
X115035213Y-102229465D01*
X115035210Y-102229463D01*
X114938190Y-102173448D01*
X114938192Y-102173448D01*
X114870636Y-102155347D01*
X114829968Y-102144450D01*
X114717932Y-102144450D01*
X114677264Y-102155347D01*
X114609708Y-102173448D01*
X114512686Y-102229464D01*
X114494327Y-102247824D01*
X114439810Y-102275600D01*
X114379378Y-102266028D01*
X114354324Y-102247825D01*
X114336014Y-102229515D01*
X114336011Y-102229513D01*
X114238991Y-102173498D01*
X114238993Y-102173498D01*
X114197002Y-102162247D01*
X114130769Y-102144500D01*
X114036155Y-102144500D01*
X113998269Y-102136964D01*
X113953452Y-102118400D01*
X113953451Y-102118400D01*
X108104723Y-102118400D01*
X108097125Y-102115931D01*
X108089236Y-102117181D01*
X108068580Y-102106656D01*
X108046532Y-102099493D01*
X108034725Y-102089409D01*
X107907403Y-101962088D01*
X107879627Y-101907572D01*
X107889198Y-101847140D01*
X107920164Y-101814520D01*
X107918717Y-101812634D01*
X107923856Y-101808690D01*
X107923858Y-101808687D01*
X107923863Y-101808685D01*
X108003085Y-101729463D01*
X108059103Y-101632437D01*
X108088100Y-101524218D01*
X108088100Y-101412182D01*
X108059103Y-101303963D01*
X108059101Y-101303960D01*
X108059101Y-101303958D01*
X108003086Y-101206939D01*
X108003085Y-101206937D01*
X107923863Y-101127715D01*
X107906657Y-101117781D01*
X107826840Y-101071698D01*
X107826842Y-101071698D01*
X107784851Y-101060447D01*
X107718618Y-101042700D01*
X107606582Y-101042700D01*
X107540348Y-101060447D01*
X107498358Y-101071698D01*
X107401339Y-101127713D01*
X107322109Y-101206943D01*
X107318166Y-101212083D01*
X107316053Y-101210462D01*
X107278945Y-101243848D01*
X107218093Y-101250219D01*
X107168710Y-101223395D01*
X107152252Y-101206937D01*
X106993663Y-101048347D01*
X106965887Y-100993832D01*
X106972203Y-100940463D01*
X107042051Y-100771835D01*
X107080500Y-100578541D01*
X107080500Y-100381459D01*
X107080499Y-100381456D01*
X120319500Y-100381456D01*
X120319500Y-100578543D01*
X120357949Y-100771834D01*
X120357949Y-100771836D01*
X120433367Y-100953913D01*
X120433368Y-100953914D01*
X120542861Y-101117782D01*
X120682218Y-101257139D01*
X120846086Y-101366632D01*
X121028165Y-101442051D01*
X121221459Y-101480500D01*
X121221460Y-101480500D01*
X121418540Y-101480500D01*
X121418541Y-101480500D01*
X121611835Y-101442051D01*
X121793914Y-101366632D01*
X121957782Y-101257139D01*
X122097139Y-101117782D01*
X122206632Y-100953914D01*
X122282051Y-100771835D01*
X122320500Y-100578541D01*
X122320500Y-100381459D01*
X122282051Y-100188165D01*
X122206632Y-100006086D01*
X122097139Y-99842218D01*
X121957782Y-99702861D01*
X121793914Y-99593368D01*
X121793915Y-99593368D01*
X121793913Y-99593367D01*
X121611835Y-99517949D01*
X121418543Y-99479500D01*
X121418541Y-99479500D01*
X121221459Y-99479500D01*
X121221456Y-99479500D01*
X121028165Y-99517949D01*
X121028163Y-99517949D01*
X120846086Y-99593367D01*
X120682218Y-99702861D01*
X120682214Y-99702864D01*
X120542864Y-99842214D01*
X120542861Y-99842218D01*
X120433367Y-100006086D01*
X120357949Y-100188163D01*
X120357949Y-100188165D01*
X120319500Y-100381456D01*
X107080499Y-100381456D01*
X107042051Y-100188165D01*
X106966632Y-100006086D01*
X106857139Y-99842218D01*
X106717782Y-99702861D01*
X106553914Y-99593368D01*
X106553915Y-99593368D01*
X106553913Y-99593367D01*
X106371835Y-99517949D01*
X106178543Y-99479500D01*
X106178541Y-99479500D01*
X105981459Y-99479500D01*
X105981456Y-99479500D01*
X105788165Y-99517949D01*
X105788163Y-99517949D01*
X105606086Y-99593367D01*
X105442218Y-99702861D01*
X105442214Y-99702864D01*
X105302864Y-99842214D01*
X105302861Y-99842218D01*
X105193367Y-100006086D01*
X105117949Y-100188163D01*
X105117949Y-100188165D01*
X105079500Y-100381456D01*
X105079500Y-100578543D01*
X105117949Y-100771834D01*
X105117949Y-100771836D01*
X105193367Y-100953913D01*
X105193368Y-100953914D01*
X105302861Y-101117782D01*
X105442218Y-101257139D01*
X105606086Y-101366632D01*
X105788165Y-101442051D01*
X105981459Y-101480500D01*
X105981460Y-101480500D01*
X106178540Y-101480500D01*
X106178541Y-101480500D01*
X106371835Y-101442051D01*
X106477812Y-101398153D01*
X106538806Y-101393353D01*
X106585698Y-101419613D01*
X107741581Y-102575497D01*
X107769358Y-102630013D01*
X107759787Y-102690445D01*
X107716522Y-102733710D01*
X107671577Y-102744500D01*
X107114967Y-102744500D01*
X107056776Y-102725593D01*
X107023503Y-102683385D01*
X106966632Y-102546087D01*
X106966632Y-102546086D01*
X106857139Y-102382218D01*
X106717782Y-102242861D01*
X106586808Y-102155347D01*
X106553913Y-102133367D01*
X106371835Y-102057949D01*
X106178543Y-102019500D01*
X106178541Y-102019500D01*
X105981459Y-102019500D01*
X105981456Y-102019500D01*
X105788165Y-102057949D01*
X105788163Y-102057949D01*
X105606086Y-102133367D01*
X105442218Y-102242861D01*
X105442214Y-102242864D01*
X105302864Y-102382214D01*
X105302861Y-102382218D01*
X105193367Y-102546086D01*
X105117949Y-102728163D01*
X105117949Y-102728165D01*
X105079500Y-102921456D01*
X105079500Y-103041876D01*
X105072336Y-103063923D01*
X105068710Y-103086821D01*
X105063061Y-103092469D01*
X105060593Y-103100067D01*
X105041836Y-103113694D01*
X105025445Y-103130086D01*
X105017555Y-103131335D01*
X105011093Y-103136031D01*
X104987908Y-103136031D01*
X104965013Y-103139657D01*
X104957896Y-103136031D01*
X104949907Y-103136031D01*
X104910496Y-103111880D01*
X104860496Y-103061880D01*
X104832719Y-103007363D01*
X104831500Y-102991876D01*
X104831500Y-99619123D01*
X104850407Y-99560932D01*
X104860496Y-99549119D01*
X105179173Y-99230442D01*
X105382632Y-99026982D01*
X111623500Y-99026982D01*
X111623500Y-99139018D01*
X111647997Y-99230442D01*
X111652498Y-99247241D01*
X111708513Y-99344260D01*
X111708515Y-99344263D01*
X111787737Y-99423485D01*
X111787739Y-99423486D01*
X111884759Y-99479501D01*
X111884757Y-99479501D01*
X111884761Y-99479502D01*
X111884763Y-99479503D01*
X111992982Y-99508500D01*
X111992984Y-99508500D01*
X112105016Y-99508500D01*
X112105018Y-99508500D01*
X112213237Y-99479503D01*
X112213239Y-99479501D01*
X112213241Y-99479501D01*
X112242064Y-99462859D01*
X112310263Y-99423485D01*
X112389485Y-99344263D01*
X112445503Y-99247237D01*
X112474500Y-99139018D01*
X112474500Y-99026982D01*
X112445503Y-98918763D01*
X112445501Y-98918760D01*
X112445501Y-98918758D01*
X112389486Y-98821739D01*
X112389485Y-98821737D01*
X112310263Y-98742515D01*
X112310260Y-98742513D01*
X112213240Y-98686498D01*
X112213242Y-98686498D01*
X112171251Y-98675247D01*
X112105018Y-98657500D01*
X111992982Y-98657500D01*
X111926748Y-98675247D01*
X111884758Y-98686498D01*
X111787739Y-98742513D01*
X111708513Y-98821739D01*
X111652498Y-98918758D01*
X111636286Y-98979263D01*
X111623500Y-99026982D01*
X105382632Y-99026982D01*
X105542977Y-98866637D01*
X105597492Y-98838862D01*
X105650861Y-98845178D01*
X105788165Y-98902051D01*
X105981459Y-98940500D01*
X105981460Y-98940500D01*
X106178540Y-98940500D01*
X106178541Y-98940500D01*
X106371835Y-98902051D01*
X106553914Y-98826632D01*
X106717782Y-98717139D01*
X106857139Y-98577782D01*
X106966632Y-98413914D01*
X107042051Y-98231835D01*
X107062684Y-98128108D01*
X109008500Y-98128108D01*
X109008500Y-98259892D01*
X109037771Y-98369135D01*
X109042609Y-98387190D01*
X109108496Y-98501309D01*
X109108498Y-98501311D01*
X109108500Y-98501314D01*
X109201686Y-98594500D01*
X109201688Y-98594501D01*
X109201690Y-98594503D01*
X109315810Y-98660390D01*
X109315808Y-98660390D01*
X109315812Y-98660391D01*
X109315814Y-98660392D01*
X109443108Y-98694500D01*
X109443110Y-98694500D01*
X109574890Y-98694500D01*
X109574892Y-98694500D01*
X109702186Y-98660392D01*
X109702188Y-98660390D01*
X109702190Y-98660390D01*
X109816309Y-98594503D01*
X109816309Y-98594502D01*
X109816314Y-98594500D01*
X109909500Y-98501314D01*
X109909503Y-98501309D01*
X109975390Y-98387190D01*
X109975390Y-98387188D01*
X109975392Y-98387186D01*
X110009500Y-98259892D01*
X110009500Y-98128108D01*
X109975392Y-98000814D01*
X109909500Y-97886686D01*
X109864270Y-97841456D01*
X120319500Y-97841456D01*
X120319500Y-98038543D01*
X120357949Y-98231834D01*
X120357949Y-98231836D01*
X120433367Y-98413913D01*
X120469699Y-98468288D01*
X120542861Y-98577782D01*
X120682218Y-98717139D01*
X120846086Y-98826632D01*
X121028165Y-98902051D01*
X121221459Y-98940500D01*
X121221460Y-98940500D01*
X121418540Y-98940500D01*
X121418541Y-98940500D01*
X121611835Y-98902051D01*
X121793914Y-98826632D01*
X121957782Y-98717139D01*
X122097139Y-98577782D01*
X122206632Y-98413914D01*
X122282051Y-98231835D01*
X122320500Y-98038541D01*
X122320500Y-97841459D01*
X122282051Y-97648165D01*
X122206632Y-97466086D01*
X122097139Y-97302218D01*
X121957782Y-97162861D01*
X121793914Y-97053368D01*
X121793915Y-97053368D01*
X121793913Y-97053367D01*
X121611835Y-96977949D01*
X121418543Y-96939500D01*
X121418541Y-96939500D01*
X121221459Y-96939500D01*
X121221456Y-96939500D01*
X121028165Y-96977949D01*
X121028163Y-96977949D01*
X120846086Y-97053367D01*
X120682218Y-97162861D01*
X120682214Y-97162864D01*
X120542864Y-97302214D01*
X120542861Y-97302218D01*
X120433367Y-97466086D01*
X120357949Y-97648163D01*
X120357949Y-97648165D01*
X120319500Y-97841456D01*
X109864270Y-97841456D01*
X109816314Y-97793500D01*
X109816311Y-97793498D01*
X109816309Y-97793496D01*
X109702189Y-97727609D01*
X109702191Y-97727609D01*
X109652799Y-97714375D01*
X109574892Y-97693500D01*
X109443108Y-97693500D01*
X109365200Y-97714375D01*
X109315809Y-97727609D01*
X109201690Y-97793496D01*
X109108496Y-97886690D01*
X109042609Y-98000809D01*
X109027366Y-98057700D01*
X109008500Y-98128108D01*
X107062684Y-98128108D01*
X107080500Y-98038541D01*
X107080500Y-97841459D01*
X107042051Y-97648165D01*
X106966632Y-97466086D01*
X106857139Y-97302218D01*
X106717782Y-97162861D01*
X106553914Y-97053368D01*
X106553915Y-97053368D01*
X106553913Y-97053367D01*
X106371835Y-96977949D01*
X106178543Y-96939500D01*
X106178541Y-96939500D01*
X105981459Y-96939500D01*
X105981456Y-96939500D01*
X105788165Y-96977949D01*
X105788163Y-96977949D01*
X105606086Y-97053367D01*
X105442218Y-97162861D01*
X105442214Y-97162864D01*
X105302864Y-97302214D01*
X105302861Y-97302218D01*
X105193367Y-97466086D01*
X105117949Y-97648163D01*
X105117949Y-97648165D01*
X105079500Y-97841456D01*
X105079500Y-98038543D01*
X105117949Y-98231834D01*
X105117949Y-98231836D01*
X105174819Y-98369135D01*
X105179619Y-98430132D01*
X105153359Y-98477023D01*
X104399942Y-99230442D01*
X104322446Y-99307938D01*
X104322444Y-99307940D01*
X104322443Y-99307942D01*
X104307398Y-99344263D01*
X104280500Y-99409200D01*
X104280500Y-102097156D01*
X104261593Y-102155347D01*
X104212093Y-102191311D01*
X104150907Y-102191311D01*
X104132000Y-102182893D01*
X104114187Y-102172608D01*
X104049766Y-102155347D01*
X103986892Y-102138500D01*
X103855108Y-102138500D01*
X103792234Y-102155347D01*
X103727809Y-102172609D01*
X103613690Y-102238496D01*
X103520496Y-102331690D01*
X103454609Y-102445809D01*
X103454608Y-102445814D01*
X103420500Y-102573108D01*
X101100500Y-102573108D01*
X101100500Y-97576182D01*
X102733500Y-97576182D01*
X102733500Y-97688218D01*
X102744055Y-97727609D01*
X102762498Y-97796441D01*
X102818513Y-97893460D01*
X102818515Y-97893463D01*
X102897737Y-97972685D01*
X102897739Y-97972686D01*
X102994759Y-98028701D01*
X102994757Y-98028701D01*
X102994761Y-98028702D01*
X102994763Y-98028703D01*
X103102982Y-98057700D01*
X103102984Y-98057700D01*
X103215016Y-98057700D01*
X103215018Y-98057700D01*
X103323237Y-98028703D01*
X103323239Y-98028701D01*
X103323241Y-98028701D01*
X103371542Y-98000814D01*
X103420263Y-97972685D01*
X103499485Y-97893463D01*
X103555503Y-97796437D01*
X103584500Y-97688218D01*
X103584500Y-97576182D01*
X103555503Y-97467963D01*
X103555501Y-97467960D01*
X103555501Y-97467958D01*
X103499486Y-97370939D01*
X103499485Y-97370937D01*
X103420263Y-97291715D01*
X103420260Y-97291713D01*
X103323240Y-97235698D01*
X103323242Y-97235698D01*
X103281251Y-97224447D01*
X103215018Y-97206700D01*
X103102982Y-97206700D01*
X103036748Y-97224447D01*
X102994758Y-97235698D01*
X102897739Y-97291713D01*
X102818513Y-97370939D01*
X102762498Y-97467958D01*
X102762497Y-97467963D01*
X102733500Y-97576182D01*
X101100500Y-97576182D01*
X101100500Y-96359982D01*
X102479500Y-96359982D01*
X102479500Y-96472018D01*
X102505072Y-96567455D01*
X102508498Y-96580241D01*
X102564513Y-96677260D01*
X102564515Y-96677263D01*
X102643737Y-96756485D01*
X102643739Y-96756486D01*
X102740759Y-96812501D01*
X102740757Y-96812501D01*
X102740761Y-96812502D01*
X102740763Y-96812503D01*
X102848982Y-96841500D01*
X102848984Y-96841500D01*
X102961016Y-96841500D01*
X102961018Y-96841500D01*
X103069237Y-96812503D01*
X103069239Y-96812501D01*
X103069241Y-96812501D01*
X103098064Y-96795859D01*
X103166263Y-96756485D01*
X103245485Y-96677263D01*
X103301503Y-96580237D01*
X103330500Y-96472018D01*
X103330500Y-96359982D01*
X103301503Y-96251763D01*
X103301501Y-96251760D01*
X103301501Y-96251758D01*
X103245486Y-96154739D01*
X103245485Y-96154737D01*
X103166263Y-96075515D01*
X103166260Y-96075513D01*
X103069240Y-96019498D01*
X103069242Y-96019498D01*
X103027251Y-96008247D01*
X102961018Y-95990500D01*
X102848982Y-95990500D01*
X102782748Y-96008247D01*
X102740758Y-96019498D01*
X102643739Y-96075513D01*
X102564513Y-96154739D01*
X102508498Y-96251758D01*
X102508497Y-96251763D01*
X102479500Y-96359982D01*
X101100500Y-96359982D01*
X101100500Y-95301456D01*
X105079500Y-95301456D01*
X105079500Y-95498543D01*
X105117949Y-95691834D01*
X105117949Y-95691836D01*
X105193367Y-95873913D01*
X105193368Y-95873914D01*
X105302861Y-96037782D01*
X105442218Y-96177139D01*
X105606086Y-96286632D01*
X105788165Y-96362051D01*
X105981459Y-96400500D01*
X105981460Y-96400500D01*
X106178540Y-96400500D01*
X106178541Y-96400500D01*
X106371835Y-96362051D01*
X106553914Y-96286632D01*
X106717782Y-96177139D01*
X106857139Y-96037782D01*
X106966632Y-95873914D01*
X107042051Y-95691835D01*
X107080500Y-95498541D01*
X107080500Y-95343982D01*
X110999500Y-95343982D01*
X110999500Y-95456018D01*
X111025072Y-95551455D01*
X111028498Y-95564241D01*
X111084513Y-95661260D01*
X111084515Y-95661263D01*
X111163737Y-95740485D01*
X111186948Y-95753886D01*
X111260759Y-95796501D01*
X111260757Y-95796501D01*
X111260761Y-95796502D01*
X111260763Y-95796503D01*
X111368982Y-95825500D01*
X111368984Y-95825500D01*
X111481016Y-95825500D01*
X111481018Y-95825500D01*
X111589237Y-95796503D01*
X111589239Y-95796501D01*
X111589241Y-95796501D01*
X111618064Y-95779859D01*
X111686263Y-95740485D01*
X111765485Y-95661263D01*
X111821503Y-95564237D01*
X111850500Y-95456018D01*
X111850500Y-95357382D01*
X113799499Y-95357382D01*
X113799499Y-95469418D01*
X113807303Y-95498543D01*
X113828497Y-95577641D01*
X113884512Y-95674660D01*
X113884514Y-95674663D01*
X113963736Y-95753885D01*
X113963738Y-95753886D01*
X114060758Y-95809901D01*
X114060756Y-95809901D01*
X114060760Y-95809902D01*
X114060762Y-95809903D01*
X114168981Y-95838900D01*
X114168983Y-95838900D01*
X114281015Y-95838900D01*
X114281017Y-95838900D01*
X114389236Y-95809903D01*
X114389238Y-95809901D01*
X114389240Y-95809901D01*
X114418063Y-95793259D01*
X114486262Y-95753885D01*
X114565484Y-95674663D01*
X114621502Y-95577637D01*
X114650499Y-95469418D01*
X114650499Y-95357382D01*
X114635514Y-95301456D01*
X120319500Y-95301456D01*
X120319500Y-95498543D01*
X120357949Y-95691834D01*
X120357949Y-95691836D01*
X120433367Y-95873913D01*
X120433368Y-95873914D01*
X120542861Y-96037782D01*
X120682218Y-96177139D01*
X120846086Y-96286632D01*
X121028165Y-96362051D01*
X121221459Y-96400500D01*
X121221460Y-96400500D01*
X121418540Y-96400500D01*
X121418541Y-96400500D01*
X121611835Y-96362051D01*
X121793914Y-96286632D01*
X121957782Y-96177139D01*
X122097139Y-96037782D01*
X122206632Y-95873914D01*
X122282051Y-95691835D01*
X122320500Y-95498541D01*
X122320500Y-95301459D01*
X122282051Y-95108165D01*
X122206632Y-94926086D01*
X122097139Y-94762218D01*
X121957782Y-94622861D01*
X121801240Y-94518263D01*
X121793913Y-94513367D01*
X121611835Y-94437949D01*
X121418543Y-94399500D01*
X121418541Y-94399500D01*
X121221459Y-94399500D01*
X121221456Y-94399500D01*
X121028165Y-94437949D01*
X121028163Y-94437949D01*
X120846086Y-94513367D01*
X120682218Y-94622861D01*
X120682214Y-94622864D01*
X120542864Y-94762214D01*
X120542861Y-94762218D01*
X120433367Y-94926086D01*
X120357949Y-95108163D01*
X120357949Y-95108165D01*
X120319500Y-95301456D01*
X114635514Y-95301456D01*
X114621502Y-95249163D01*
X114565484Y-95152137D01*
X114486262Y-95072915D01*
X114463053Y-95059515D01*
X114389239Y-95016898D01*
X114389241Y-95016898D01*
X114339226Y-95003497D01*
X114281017Y-94987900D01*
X114168981Y-94987900D01*
X114110772Y-95003497D01*
X114060757Y-95016898D01*
X113963738Y-95072913D01*
X113884512Y-95152139D01*
X113828497Y-95249158D01*
X113828496Y-95249163D01*
X113799499Y-95357382D01*
X111850500Y-95357382D01*
X111850500Y-95343982D01*
X111821503Y-95235763D01*
X111821501Y-95235760D01*
X111821501Y-95235758D01*
X111765486Y-95138739D01*
X111765485Y-95138737D01*
X111686263Y-95059515D01*
X111686260Y-95059513D01*
X111589240Y-95003498D01*
X111589242Y-95003498D01*
X111547251Y-94992247D01*
X111481018Y-94974500D01*
X111368982Y-94974500D01*
X111302748Y-94992247D01*
X111260758Y-95003498D01*
X111163739Y-95059513D01*
X111084513Y-95138739D01*
X111028498Y-95235758D01*
X111012286Y-95296263D01*
X110999500Y-95343982D01*
X107080500Y-95343982D01*
X107080500Y-95301459D01*
X107042051Y-95108165D01*
X106966632Y-94926086D01*
X106857139Y-94762218D01*
X106717782Y-94622861D01*
X106561240Y-94518263D01*
X106553913Y-94513367D01*
X106371835Y-94437949D01*
X106178543Y-94399500D01*
X106178541Y-94399500D01*
X105981459Y-94399500D01*
X105981456Y-94399500D01*
X105788165Y-94437949D01*
X105788163Y-94437949D01*
X105606086Y-94513367D01*
X105442218Y-94622861D01*
X105442214Y-94622864D01*
X105302864Y-94762214D01*
X105302861Y-94762218D01*
X105193367Y-94926086D01*
X105117949Y-95108163D01*
X105117949Y-95108165D01*
X105079500Y-95301456D01*
X101100500Y-95301456D01*
X101100500Y-94200982D01*
X114912800Y-94200982D01*
X114912800Y-94313018D01*
X114920964Y-94343485D01*
X114941798Y-94421241D01*
X114994988Y-94513367D01*
X114997815Y-94518263D01*
X115077037Y-94597485D01*
X115077039Y-94597486D01*
X115174059Y-94653501D01*
X115174057Y-94653501D01*
X115174061Y-94653502D01*
X115174063Y-94653503D01*
X115282282Y-94682500D01*
X115282284Y-94682500D01*
X115394316Y-94682500D01*
X115394318Y-94682500D01*
X115502537Y-94653503D01*
X115502539Y-94653501D01*
X115502541Y-94653501D01*
X115555610Y-94622861D01*
X115599563Y-94597485D01*
X115678785Y-94518263D01*
X115734803Y-94421237D01*
X115763800Y-94313018D01*
X115763800Y-94200982D01*
X115734803Y-94092763D01*
X115734801Y-94092760D01*
X115734801Y-94092758D01*
X115678787Y-93995740D01*
X115678786Y-93995739D01*
X115678785Y-93995737D01*
X115630030Y-93946982D01*
X116322500Y-93946982D01*
X116322500Y-94059018D01*
X116331541Y-94092758D01*
X116351498Y-94167241D01*
X116407513Y-94264260D01*
X116407515Y-94264263D01*
X116486737Y-94343485D01*
X116486739Y-94343486D01*
X116583759Y-94399501D01*
X116583757Y-94399501D01*
X116583761Y-94399502D01*
X116583763Y-94399503D01*
X116691982Y-94428500D01*
X116691984Y-94428500D01*
X116804016Y-94428500D01*
X116804018Y-94428500D01*
X116912237Y-94399503D01*
X116912239Y-94399501D01*
X116912241Y-94399501D01*
X116941064Y-94382859D01*
X117009263Y-94343485D01*
X117088485Y-94264263D01*
X117144503Y-94167237D01*
X117173500Y-94059018D01*
X117173500Y-93946982D01*
X117144503Y-93838763D01*
X117144501Y-93838760D01*
X117144501Y-93838758D01*
X117088486Y-93741739D01*
X117088485Y-93741737D01*
X117009263Y-93662515D01*
X117009260Y-93662513D01*
X116912240Y-93606498D01*
X116912242Y-93606498D01*
X116870251Y-93595247D01*
X116804018Y-93577500D01*
X116691982Y-93577500D01*
X116625748Y-93595247D01*
X116583758Y-93606498D01*
X116486739Y-93662513D01*
X116407513Y-93741739D01*
X116351498Y-93838758D01*
X116335286Y-93899263D01*
X116322500Y-93946982D01*
X115630030Y-93946982D01*
X115599563Y-93916515D01*
X115599560Y-93916513D01*
X115502540Y-93860498D01*
X115502542Y-93860498D01*
X115460551Y-93849247D01*
X115394318Y-93831500D01*
X115282282Y-93831500D01*
X115216048Y-93849247D01*
X115174058Y-93860498D01*
X115077039Y-93916513D01*
X114997813Y-93995739D01*
X114941798Y-94092758D01*
X114941797Y-94092763D01*
X114912800Y-94200982D01*
X101100500Y-94200982D01*
X101100500Y-92918282D01*
X102047700Y-92918282D01*
X102047700Y-93030318D01*
X102073272Y-93125755D01*
X102076698Y-93138541D01*
X102112463Y-93200486D01*
X102132715Y-93235563D01*
X102211937Y-93314785D01*
X102211939Y-93314786D01*
X102308959Y-93370801D01*
X102308957Y-93370801D01*
X102308961Y-93370802D01*
X102308963Y-93370803D01*
X102417182Y-93399800D01*
X102417184Y-93399800D01*
X102529216Y-93399800D01*
X102529218Y-93399800D01*
X102637437Y-93370803D01*
X102637439Y-93370801D01*
X102637441Y-93370801D01*
X102666264Y-93354159D01*
X102734463Y-93314785D01*
X102813685Y-93235563D01*
X102854716Y-93164496D01*
X102869701Y-93138541D01*
X102869701Y-93138539D01*
X102869703Y-93138537D01*
X102898700Y-93030318D01*
X102898700Y-92918282D01*
X102869703Y-92810063D01*
X102869701Y-92810060D01*
X102869701Y-92810058D01*
X102813686Y-92713039D01*
X102813685Y-92713037D01*
X102734463Y-92633815D01*
X102734460Y-92633813D01*
X102637440Y-92577798D01*
X102637442Y-92577798D01*
X102591891Y-92565593D01*
X102529218Y-92548800D01*
X102417182Y-92548800D01*
X102354509Y-92565593D01*
X102308958Y-92577798D01*
X102211939Y-92633813D01*
X102132713Y-92713039D01*
X102076698Y-92810058D01*
X102076697Y-92810063D01*
X102047700Y-92918282D01*
X101100500Y-92918282D01*
X101100500Y-89552782D01*
X102225500Y-89552782D01*
X102225500Y-89664818D01*
X102243873Y-89733386D01*
X102254498Y-89773041D01*
X102296672Y-89846087D01*
X102310515Y-89870063D01*
X102389737Y-89949285D01*
X102389739Y-89949286D01*
X102486759Y-90005301D01*
X102486757Y-90005301D01*
X102486761Y-90005302D01*
X102486763Y-90005303D01*
X102594982Y-90034300D01*
X102594984Y-90034300D01*
X102707016Y-90034300D01*
X102707018Y-90034300D01*
X102815237Y-90005303D01*
X102815239Y-90005301D01*
X102815241Y-90005301D01*
X102859905Y-89979514D01*
X102912263Y-89949285D01*
X102991485Y-89870063D01*
X103047503Y-89773037D01*
X103076500Y-89664818D01*
X103076500Y-89552782D01*
X103047503Y-89444563D01*
X103047501Y-89444560D01*
X103047501Y-89444558D01*
X102991486Y-89347539D01*
X102991485Y-89347537D01*
X102912263Y-89268315D01*
X102912260Y-89268313D01*
X102815240Y-89212298D01*
X102815242Y-89212298D01*
X102773251Y-89201047D01*
X102707018Y-89183300D01*
X102594982Y-89183300D01*
X102528748Y-89201047D01*
X102486758Y-89212298D01*
X102389739Y-89268313D01*
X102310513Y-89347539D01*
X102254498Y-89444558D01*
X102253330Y-89448918D01*
X102225500Y-89552782D01*
X101100500Y-89552782D01*
X101100500Y-87685882D01*
X101596200Y-87685882D01*
X101596200Y-87797918D01*
X101608411Y-87843489D01*
X101625198Y-87906141D01*
X101675627Y-87993485D01*
X101681215Y-88003163D01*
X101760437Y-88082385D01*
X101760439Y-88082386D01*
X101857459Y-88138401D01*
X101857457Y-88138401D01*
X101857461Y-88138402D01*
X101857463Y-88138403D01*
X101965682Y-88167400D01*
X101965684Y-88167400D01*
X102077716Y-88167400D01*
X102077718Y-88167400D01*
X102185937Y-88138403D01*
X102185939Y-88138401D01*
X102185941Y-88138401D01*
X102214764Y-88121759D01*
X102282963Y-88082385D01*
X102362185Y-88003163D01*
X102401559Y-87934964D01*
X102418201Y-87906141D01*
X102418201Y-87906139D01*
X102418203Y-87906137D01*
X102447200Y-87797918D01*
X102447200Y-87685882D01*
X102418203Y-87577663D01*
X102418201Y-87577660D01*
X102418201Y-87577658D01*
X102370506Y-87495050D01*
X102362185Y-87480637D01*
X102282963Y-87401415D01*
X102266204Y-87391739D01*
X102185940Y-87345398D01*
X102185942Y-87345398D01*
X102143951Y-87334147D01*
X102077718Y-87316400D01*
X101965682Y-87316400D01*
X101899448Y-87334147D01*
X101857458Y-87345398D01*
X101760439Y-87401413D01*
X101681213Y-87480639D01*
X101625198Y-87577658D01*
X101620020Y-87596983D01*
X101596200Y-87685882D01*
X101100500Y-87685882D01*
X101100500Y-84804200D01*
X103645500Y-84804200D01*
X103645500Y-89932289D01*
X103685214Y-90028165D01*
X103687443Y-90033547D01*
X105477452Y-91823557D01*
X105507110Y-91835841D01*
X105524147Y-91842898D01*
X105524151Y-91842900D01*
X105541918Y-91858075D01*
X105570674Y-91882633D01*
X105570674Y-91882635D01*
X105570676Y-91882637D01*
X105576393Y-91906450D01*
X105584959Y-91942127D01*
X105584958Y-91942128D01*
X105584959Y-91942132D01*
X105571249Y-91975229D01*
X105561546Y-91998656D01*
X105561543Y-91998657D01*
X105561543Y-91998660D01*
X105561538Y-91998662D01*
X105541266Y-92016678D01*
X105442218Y-92082860D01*
X105302864Y-92222214D01*
X105302861Y-92222218D01*
X105193367Y-92386086D01*
X105117949Y-92568163D01*
X105117949Y-92568165D01*
X105079500Y-92761456D01*
X105079500Y-92958543D01*
X105117949Y-93151834D01*
X105117949Y-93151836D01*
X105193367Y-93333913D01*
X105193368Y-93333914D01*
X105302861Y-93497782D01*
X105442218Y-93637139D01*
X105606086Y-93746632D01*
X105788165Y-93822051D01*
X105981459Y-93860500D01*
X105981460Y-93860500D01*
X106178540Y-93860500D01*
X106178541Y-93860500D01*
X106371835Y-93822051D01*
X106553914Y-93746632D01*
X106717782Y-93637139D01*
X106857139Y-93497782D01*
X106966632Y-93333914D01*
X107007371Y-93235560D01*
X107023503Y-93196615D01*
X107063239Y-93150089D01*
X107114967Y-93135500D01*
X112738799Y-93135500D01*
X112738800Y-93135500D01*
X112840058Y-93093557D01*
X112917557Y-93016058D01*
X112917556Y-93016058D01*
X113129632Y-92803982D01*
X113642800Y-92803982D01*
X113642800Y-92916018D01*
X113668372Y-93011455D01*
X113671798Y-93024241D01*
X113727813Y-93121260D01*
X113727815Y-93121263D01*
X113807037Y-93200485D01*
X113807039Y-93200486D01*
X113904059Y-93256501D01*
X113904057Y-93256501D01*
X113904061Y-93256502D01*
X113904063Y-93256503D01*
X114012282Y-93285500D01*
X114012284Y-93285500D01*
X114124316Y-93285500D01*
X114124318Y-93285500D01*
X114232537Y-93256503D01*
X114232539Y-93256501D01*
X114232541Y-93256501D01*
X114268811Y-93235560D01*
X114329563Y-93200485D01*
X114347557Y-93182490D01*
X114365553Y-93164496D01*
X114420070Y-93136719D01*
X114435556Y-93135500D01*
X120285033Y-93135500D01*
X120343224Y-93154407D01*
X120376497Y-93196615D01*
X120425445Y-93314786D01*
X120433368Y-93333914D01*
X120542861Y-93497782D01*
X120682218Y-93637139D01*
X120846086Y-93746632D01*
X121028165Y-93822051D01*
X121221459Y-93860500D01*
X121221460Y-93860500D01*
X121418540Y-93860500D01*
X121418541Y-93860500D01*
X121611835Y-93822051D01*
X121793914Y-93746632D01*
X121957782Y-93637139D01*
X122097139Y-93497782D01*
X122206632Y-93333914D01*
X122282051Y-93151835D01*
X122320500Y-92958541D01*
X122320500Y-92761459D01*
X122282051Y-92568165D01*
X122206632Y-92386086D01*
X122097139Y-92222218D01*
X121957782Y-92082861D01*
X121831760Y-91998656D01*
X121793913Y-91973367D01*
X121611835Y-91897949D01*
X121418543Y-91859500D01*
X121418541Y-91859500D01*
X121221459Y-91859500D01*
X121221456Y-91859500D01*
X121028165Y-91897949D01*
X121028163Y-91897949D01*
X120846086Y-91973367D01*
X120682218Y-92082861D01*
X120682214Y-92082864D01*
X120542864Y-92222214D01*
X120542861Y-92222218D01*
X120433367Y-92386087D01*
X120376497Y-92523385D01*
X120336761Y-92569911D01*
X120285033Y-92584500D01*
X114435556Y-92584500D01*
X114377365Y-92565593D01*
X114365553Y-92555504D01*
X114329562Y-92519514D01*
X114232540Y-92463498D01*
X114232542Y-92463498D01*
X114190551Y-92452247D01*
X114124318Y-92434500D01*
X114012282Y-92434500D01*
X113946048Y-92452247D01*
X113904058Y-92463498D01*
X113807039Y-92519513D01*
X113727813Y-92598739D01*
X113671798Y-92695758D01*
X113671797Y-92695763D01*
X113642800Y-92803982D01*
X113129632Y-92803982D01*
X115571857Y-90361759D01*
X115605541Y-90280438D01*
X115613800Y-90260500D01*
X115613800Y-90221456D01*
X120319500Y-90221456D01*
X120319500Y-90418543D01*
X120357949Y-90611834D01*
X120357949Y-90611836D01*
X120433367Y-90793913D01*
X120433368Y-90793914D01*
X120542861Y-90957782D01*
X120682218Y-91097139D01*
X120846086Y-91206632D01*
X121028165Y-91282051D01*
X121221459Y-91320500D01*
X121221460Y-91320500D01*
X121418540Y-91320500D01*
X121418541Y-91320500D01*
X121611835Y-91282051D01*
X121793914Y-91206632D01*
X121957782Y-91097139D01*
X122097139Y-90957782D01*
X122206632Y-90793914D01*
X122282051Y-90611835D01*
X122320500Y-90418541D01*
X122320500Y-90221459D01*
X122282051Y-90028165D01*
X122206632Y-89846086D01*
X122097139Y-89682218D01*
X121957782Y-89542861D01*
X121848288Y-89469699D01*
X121793913Y-89433367D01*
X121611835Y-89357949D01*
X121418543Y-89319500D01*
X121418541Y-89319500D01*
X121221459Y-89319500D01*
X121221456Y-89319500D01*
X121028165Y-89357949D01*
X121028163Y-89357949D01*
X120846086Y-89433367D01*
X120682218Y-89542861D01*
X120682214Y-89542864D01*
X120542864Y-89682214D01*
X120542861Y-89682218D01*
X120433367Y-89846086D01*
X120357949Y-90028163D01*
X120357949Y-90028165D01*
X120319500Y-90221456D01*
X115613800Y-90221456D01*
X115613800Y-89336882D01*
X118303700Y-89336882D01*
X118303700Y-89448918D01*
X118328872Y-89542861D01*
X118332698Y-89557141D01*
X118388713Y-89654160D01*
X118388715Y-89654163D01*
X118467937Y-89733385D01*
X118467939Y-89733386D01*
X118564959Y-89789401D01*
X118564957Y-89789401D01*
X118564961Y-89789402D01*
X118564963Y-89789403D01*
X118673182Y-89818400D01*
X118673184Y-89818400D01*
X118785216Y-89818400D01*
X118785218Y-89818400D01*
X118893437Y-89789403D01*
X118893439Y-89789401D01*
X118893441Y-89789401D01*
X118938522Y-89763373D01*
X118990463Y-89733385D01*
X119069685Y-89654163D01*
X119125703Y-89557137D01*
X119154700Y-89448918D01*
X119154700Y-89336882D01*
X119125703Y-89228663D01*
X119125701Y-89228660D01*
X119125701Y-89228658D01*
X119069686Y-89131639D01*
X119069685Y-89131637D01*
X118990463Y-89052415D01*
X118990460Y-89052413D01*
X118893440Y-88996398D01*
X118893442Y-88996398D01*
X118851451Y-88985147D01*
X118785218Y-88967400D01*
X118673182Y-88967400D01*
X118606948Y-88985147D01*
X118564958Y-88996398D01*
X118467939Y-89052413D01*
X118388713Y-89131639D01*
X118332698Y-89228658D01*
X118332697Y-89228663D01*
X118303700Y-89336882D01*
X115613800Y-89336882D01*
X115613800Y-87681456D01*
X120319500Y-87681456D01*
X120319500Y-87878543D01*
X120342364Y-87993485D01*
X120353506Y-88049501D01*
X120357949Y-88071834D01*
X120357949Y-88071836D01*
X120433367Y-88253913D01*
X120433368Y-88253914D01*
X120542861Y-88417782D01*
X120682218Y-88557139D01*
X120846086Y-88666632D01*
X121028165Y-88742051D01*
X121221459Y-88780500D01*
X121221460Y-88780500D01*
X121418540Y-88780500D01*
X121418541Y-88780500D01*
X121611835Y-88742051D01*
X121793914Y-88666632D01*
X121957782Y-88557139D01*
X122097139Y-88417782D01*
X122206632Y-88253914D01*
X122282051Y-88071835D01*
X122320500Y-87878541D01*
X122320500Y-87681459D01*
X122282051Y-87488165D01*
X122206632Y-87306086D01*
X122097139Y-87142218D01*
X121957782Y-87002861D01*
X121807762Y-86902621D01*
X121793913Y-86893367D01*
X121611835Y-86817949D01*
X121418543Y-86779500D01*
X121418541Y-86779500D01*
X121221459Y-86779500D01*
X121221456Y-86779500D01*
X121028165Y-86817949D01*
X121028163Y-86817949D01*
X120846086Y-86893367D01*
X120682218Y-87002861D01*
X120682214Y-87002864D01*
X120542864Y-87142214D01*
X120542861Y-87142218D01*
X120433367Y-87306086D01*
X120357949Y-87488163D01*
X120357949Y-87488165D01*
X120319500Y-87681456D01*
X115613800Y-87681456D01*
X115613800Y-87105255D01*
X115632707Y-87047064D01*
X115642790Y-87035257D01*
X115665485Y-87012563D01*
X115721503Y-86915537D01*
X115750500Y-86807318D01*
X115750500Y-86695282D01*
X115721503Y-86587063D01*
X115721501Y-86587060D01*
X115721501Y-86587058D01*
X115665486Y-86490039D01*
X115665485Y-86490037D01*
X115586263Y-86410815D01*
X115586260Y-86410813D01*
X115489240Y-86354798D01*
X115489242Y-86354798D01*
X115447251Y-86343547D01*
X115381018Y-86325800D01*
X115268982Y-86325800D01*
X115202748Y-86343547D01*
X115160758Y-86354798D01*
X115063739Y-86410813D01*
X114984513Y-86490039D01*
X114928498Y-86587058D01*
X114928497Y-86587063D01*
X114899500Y-86695282D01*
X114899500Y-86807318D01*
X114919069Y-86880351D01*
X114928498Y-86915541D01*
X114978915Y-87002864D01*
X114984515Y-87012563D01*
X115033805Y-87061853D01*
X115061581Y-87116368D01*
X115062800Y-87131855D01*
X115062800Y-90050576D01*
X115043893Y-90108767D01*
X115033804Y-90120580D01*
X112598881Y-92555504D01*
X112544364Y-92583281D01*
X112528877Y-92584500D01*
X107114967Y-92584500D01*
X107056776Y-92565593D01*
X107023503Y-92523385D01*
X106997951Y-92461699D01*
X106966632Y-92386086D01*
X106857139Y-92222218D01*
X106717782Y-92082861D01*
X106663834Y-92046814D01*
X106625956Y-91998765D01*
X106623554Y-91937627D01*
X106657547Y-91886753D01*
X106714951Y-91865576D01*
X106718837Y-91865500D01*
X111364286Y-91865500D01*
X111422477Y-91884407D01*
X111458441Y-91933907D01*
X111459904Y-91938847D01*
X111469154Y-91973367D01*
X111478498Y-92008241D01*
X111534513Y-92105260D01*
X111534515Y-92105263D01*
X111613737Y-92184485D01*
X111613739Y-92184486D01*
X111710759Y-92240501D01*
X111710757Y-92240501D01*
X111710761Y-92240502D01*
X111710763Y-92240503D01*
X111818982Y-92269500D01*
X111818984Y-92269500D01*
X111931016Y-92269500D01*
X111931018Y-92269500D01*
X112039237Y-92240503D01*
X112039239Y-92240501D01*
X112039241Y-92240501D01*
X112068064Y-92223859D01*
X112136263Y-92184485D01*
X112215485Y-92105263D01*
X112271503Y-92008237D01*
X112300500Y-91900018D01*
X112300500Y-91787982D01*
X112271503Y-91679763D01*
X112271501Y-91679760D01*
X112271501Y-91679758D01*
X112215486Y-91582739D01*
X112215485Y-91582737D01*
X112136263Y-91503515D01*
X112136260Y-91503513D01*
X112039240Y-91447498D01*
X112039242Y-91447498D01*
X111997251Y-91436247D01*
X111931018Y-91418500D01*
X111931016Y-91418500D01*
X111880123Y-91418500D01*
X111821932Y-91399593D01*
X111810120Y-91389504D01*
X111777061Y-91356446D01*
X111777058Y-91356443D01*
X111675800Y-91314500D01*
X111675799Y-91314500D01*
X106718837Y-91314500D01*
X106660646Y-91295593D01*
X106624682Y-91246093D01*
X106624682Y-91184907D01*
X106660646Y-91135407D01*
X106663835Y-91133185D01*
X106717782Y-91097139D01*
X106857139Y-90957782D01*
X106966632Y-90793914D01*
X107007025Y-90696393D01*
X107023503Y-90656615D01*
X107063239Y-90610089D01*
X107114967Y-90595500D01*
X113231144Y-90595500D01*
X113289335Y-90614407D01*
X113301147Y-90624496D01*
X113337137Y-90660485D01*
X113434159Y-90716501D01*
X113434157Y-90716501D01*
X113434161Y-90716502D01*
X113434163Y-90716503D01*
X113542382Y-90745500D01*
X113542384Y-90745500D01*
X113654416Y-90745500D01*
X113654418Y-90745500D01*
X113762637Y-90716503D01*
X113762639Y-90716501D01*
X113762641Y-90716501D01*
X113791464Y-90699859D01*
X113859663Y-90660485D01*
X113938885Y-90581263D01*
X113994903Y-90484237D01*
X114023900Y-90376018D01*
X114023900Y-90263982D01*
X113994903Y-90155763D01*
X113994901Y-90155760D01*
X113994901Y-90155758D01*
X113938886Y-90058739D01*
X113938885Y-90058737D01*
X113859663Y-89979515D01*
X113859660Y-89979513D01*
X113762640Y-89923498D01*
X113762642Y-89923498D01*
X113720651Y-89912247D01*
X113654418Y-89894500D01*
X113542382Y-89894500D01*
X113476148Y-89912247D01*
X113434158Y-89923498D01*
X113337137Y-89979514D01*
X113301147Y-90015504D01*
X113246630Y-90043281D01*
X113231144Y-90044500D01*
X107114967Y-90044500D01*
X107056776Y-90025593D01*
X107023503Y-89983385D01*
X106997951Y-89921699D01*
X106966632Y-89846086D01*
X106857139Y-89682218D01*
X106717782Y-89542861D01*
X106608288Y-89469699D01*
X106553913Y-89433367D01*
X106371835Y-89357949D01*
X106178543Y-89319500D01*
X106178541Y-89319500D01*
X105981459Y-89319500D01*
X105981456Y-89319500D01*
X105788165Y-89357949D01*
X105788163Y-89357949D01*
X105606086Y-89433367D01*
X105442218Y-89542861D01*
X105442214Y-89542864D01*
X105302864Y-89682214D01*
X105302861Y-89682218D01*
X105193367Y-89846086D01*
X105117949Y-90028163D01*
X105117949Y-90028165D01*
X105079500Y-90221456D01*
X105079500Y-90407365D01*
X105060593Y-90465556D01*
X105011093Y-90501520D01*
X104949907Y-90501520D01*
X104910496Y-90477369D01*
X104225496Y-89792369D01*
X104197719Y-89737852D01*
X104196500Y-89722365D01*
X104196500Y-87681456D01*
X105079500Y-87681456D01*
X105079500Y-87878543D01*
X105102364Y-87993485D01*
X105113506Y-88049501D01*
X105117949Y-88071834D01*
X105117949Y-88071836D01*
X105193367Y-88253913D01*
X105193368Y-88253914D01*
X105302861Y-88417782D01*
X105442218Y-88557139D01*
X105606086Y-88666632D01*
X105788165Y-88742051D01*
X105981459Y-88780500D01*
X105981460Y-88780500D01*
X106178540Y-88780500D01*
X106178541Y-88780500D01*
X106371835Y-88742051D01*
X106553914Y-88666632D01*
X106717782Y-88557139D01*
X106857139Y-88417782D01*
X106966632Y-88253914D01*
X107042051Y-88071835D01*
X107080500Y-87878541D01*
X107080500Y-87681459D01*
X107064783Y-87602445D01*
X107049600Y-87526114D01*
X107056792Y-87465353D01*
X107098324Y-87420423D01*
X107146698Y-87407800D01*
X112356965Y-87407800D01*
X112415156Y-87426707D01*
X112426968Y-87436796D01*
X112472270Y-87482097D01*
X112569292Y-87538113D01*
X112569290Y-87538113D01*
X112569294Y-87538114D01*
X112569296Y-87538115D01*
X112677515Y-87567112D01*
X112677517Y-87567112D01*
X112789550Y-87567112D01*
X112789551Y-87567112D01*
X112881744Y-87542409D01*
X112942844Y-87545610D01*
X112990394Y-87584115D01*
X112993102Y-87588534D01*
X113034515Y-87660263D01*
X113113737Y-87739485D01*
X113113739Y-87739486D01*
X113210759Y-87795501D01*
X113210757Y-87795501D01*
X113210761Y-87795502D01*
X113210763Y-87795503D01*
X113318982Y-87824500D01*
X113318984Y-87824500D01*
X113431015Y-87824500D01*
X113431018Y-87824500D01*
X113532298Y-87797362D01*
X113593395Y-87800564D01*
X113640945Y-87839069D01*
X113643653Y-87843489D01*
X113684513Y-87914260D01*
X113684515Y-87914263D01*
X113763737Y-87993485D01*
X113763739Y-87993486D01*
X113860759Y-88049501D01*
X113860757Y-88049501D01*
X113860761Y-88049502D01*
X113860763Y-88049503D01*
X113968982Y-88078500D01*
X113968984Y-88078500D01*
X114081016Y-88078500D01*
X114081018Y-88078500D01*
X114189237Y-88049503D01*
X114189239Y-88049501D01*
X114189241Y-88049501D01*
X114218064Y-88032859D01*
X114286263Y-87993485D01*
X114365485Y-87914263D01*
X114421503Y-87817237D01*
X114450500Y-87709018D01*
X114450500Y-87596982D01*
X114421503Y-87488763D01*
X114421501Y-87488760D01*
X114421501Y-87488758D01*
X114365486Y-87391739D01*
X114365485Y-87391737D01*
X114286263Y-87312515D01*
X114261495Y-87298215D01*
X114189240Y-87256498D01*
X114189242Y-87256498D01*
X114147251Y-87245247D01*
X114081018Y-87227500D01*
X113968982Y-87227500D01*
X113867705Y-87254637D01*
X113806603Y-87251434D01*
X113759053Y-87212929D01*
X113756346Y-87208510D01*
X113715486Y-87137739D01*
X113715485Y-87137737D01*
X113636263Y-87058515D01*
X113636260Y-87058513D01*
X113539240Y-87002498D01*
X113539242Y-87002498D01*
X113497251Y-86991247D01*
X113431018Y-86973500D01*
X113318982Y-86973500D01*
X113226789Y-86998203D01*
X113165687Y-86995000D01*
X113118137Y-86956495D01*
X113115430Y-86952076D01*
X113084638Y-86898743D01*
X113074018Y-86880349D01*
X112994796Y-86801127D01*
X112994793Y-86801125D01*
X112897773Y-86745110D01*
X112897775Y-86745110D01*
X112855784Y-86733859D01*
X112789551Y-86716112D01*
X112677515Y-86716112D01*
X112611281Y-86733859D01*
X112569291Y-86745110D01*
X112472270Y-86801126D01*
X112445591Y-86827805D01*
X112391074Y-86855581D01*
X112375589Y-86856800D01*
X106672898Y-86856800D01*
X106607150Y-86884033D01*
X106546153Y-86888833D01*
X106531380Y-86884033D01*
X106371835Y-86817949D01*
X106178543Y-86779500D01*
X106178541Y-86779500D01*
X105981459Y-86779500D01*
X105981456Y-86779500D01*
X105788165Y-86817949D01*
X105788163Y-86817949D01*
X105606086Y-86893367D01*
X105442218Y-87002861D01*
X105442214Y-87002864D01*
X105302864Y-87142214D01*
X105302861Y-87142218D01*
X105193367Y-87306086D01*
X105117949Y-87488163D01*
X105117949Y-87488165D01*
X105079500Y-87681456D01*
X104196500Y-87681456D01*
X104196500Y-85141456D01*
X105079500Y-85141456D01*
X105079500Y-85338543D01*
X105093578Y-85409317D01*
X105113506Y-85509501D01*
X105117949Y-85531834D01*
X105117949Y-85531836D01*
X105193367Y-85713913D01*
X105217349Y-85749804D01*
X105302861Y-85877782D01*
X105442218Y-86017139D01*
X105606086Y-86126632D01*
X105788165Y-86202051D01*
X105981459Y-86240500D01*
X105981460Y-86240500D01*
X106178540Y-86240500D01*
X106178541Y-86240500D01*
X106371835Y-86202051D01*
X106553914Y-86126632D01*
X106717782Y-86017139D01*
X106857139Y-85877782D01*
X106966632Y-85713914D01*
X107042051Y-85531835D01*
X107080500Y-85338541D01*
X107080500Y-85297283D01*
X111635801Y-85297283D01*
X111635801Y-85409319D01*
X111660436Y-85501260D01*
X111664799Y-85517542D01*
X111720814Y-85614561D01*
X111720816Y-85614564D01*
X111800038Y-85693786D01*
X111800040Y-85693787D01*
X111897060Y-85749802D01*
X111897058Y-85749802D01*
X111897062Y-85749803D01*
X111897064Y-85749804D01*
X112005283Y-85778801D01*
X112005285Y-85778801D01*
X112117317Y-85778801D01*
X112117319Y-85778801D01*
X112225538Y-85749804D01*
X112225540Y-85749802D01*
X112225542Y-85749802D01*
X112287701Y-85713914D01*
X112322564Y-85693786D01*
X112401786Y-85614564D01*
X112457804Y-85517538D01*
X112486801Y-85409319D01*
X112486801Y-85297283D01*
X112457804Y-85189064D01*
X112457802Y-85189061D01*
X112457802Y-85189059D01*
X112411493Y-85108851D01*
X112411492Y-85108850D01*
X112401786Y-85092038D01*
X112366730Y-85056982D01*
X112949502Y-85056982D01*
X112949502Y-85169018D01*
X112957666Y-85199485D01*
X112978500Y-85277241D01*
X113034515Y-85374260D01*
X113034517Y-85374263D01*
X113113739Y-85453485D01*
X113113741Y-85453486D01*
X113210761Y-85509501D01*
X113210759Y-85509501D01*
X113210763Y-85509502D01*
X113210765Y-85509503D01*
X113318984Y-85538500D01*
X113318986Y-85538500D01*
X113431018Y-85538500D01*
X113431020Y-85538500D01*
X113539239Y-85509503D01*
X113539241Y-85509501D01*
X113539243Y-85509501D01*
X113568066Y-85492859D01*
X113636265Y-85453485D01*
X113715487Y-85374263D01*
X113759931Y-85297284D01*
X113771503Y-85277241D01*
X113771503Y-85277239D01*
X113771505Y-85277237D01*
X113796492Y-85183982D01*
X114163500Y-85183982D01*
X114163500Y-85296018D01*
X114184465Y-85374260D01*
X114192498Y-85404241D01*
X114248513Y-85501260D01*
X114248515Y-85501263D01*
X114327737Y-85580485D01*
X114327739Y-85580486D01*
X114424759Y-85636501D01*
X114424757Y-85636501D01*
X114424761Y-85636502D01*
X114424763Y-85636503D01*
X114532982Y-85665500D01*
X114532984Y-85665500D01*
X114645016Y-85665500D01*
X114645018Y-85665500D01*
X114753237Y-85636503D01*
X114753239Y-85636501D01*
X114753241Y-85636501D01*
X114791236Y-85614564D01*
X114850263Y-85580485D01*
X114929485Y-85501263D01*
X114985503Y-85404237D01*
X115014500Y-85296018D01*
X115014500Y-85183982D01*
X115003105Y-85141456D01*
X120319500Y-85141456D01*
X120319500Y-85338543D01*
X120333578Y-85409317D01*
X120353506Y-85509501D01*
X120357949Y-85531834D01*
X120357949Y-85531836D01*
X120433367Y-85713913D01*
X120457349Y-85749804D01*
X120542861Y-85877782D01*
X120682218Y-86017139D01*
X120846086Y-86126632D01*
X121028165Y-86202051D01*
X121221459Y-86240500D01*
X121221460Y-86240500D01*
X121418540Y-86240500D01*
X121418541Y-86240500D01*
X121611835Y-86202051D01*
X121793914Y-86126632D01*
X121957782Y-86017139D01*
X122097139Y-85877782D01*
X122206632Y-85713914D01*
X122282051Y-85531835D01*
X122320500Y-85338541D01*
X122320500Y-85141459D01*
X122282051Y-84948165D01*
X122206632Y-84766086D01*
X122097139Y-84602218D01*
X121957782Y-84462861D01*
X121793914Y-84353368D01*
X121793915Y-84353368D01*
X121793913Y-84353367D01*
X121611835Y-84277949D01*
X121418543Y-84239500D01*
X121418541Y-84239500D01*
X121221459Y-84239500D01*
X121221456Y-84239500D01*
X121028165Y-84277949D01*
X121028163Y-84277949D01*
X120846086Y-84353367D01*
X120682218Y-84462861D01*
X120682214Y-84462864D01*
X120542864Y-84602214D01*
X120542861Y-84602218D01*
X120433367Y-84766086D01*
X120357949Y-84948163D01*
X120357949Y-84948165D01*
X120319500Y-85141456D01*
X115003105Y-85141456D01*
X114985503Y-85075763D01*
X114985501Y-85075760D01*
X114985501Y-85075758D01*
X114929486Y-84978739D01*
X114929485Y-84978737D01*
X114850263Y-84899515D01*
X114850260Y-84899513D01*
X114753240Y-84843498D01*
X114753242Y-84843498D01*
X114711251Y-84832247D01*
X114645018Y-84814500D01*
X114532982Y-84814500D01*
X114466748Y-84832247D01*
X114424758Y-84843498D01*
X114327739Y-84899513D01*
X114248513Y-84978739D01*
X114192498Y-85075758D01*
X114183631Y-85108851D01*
X114163500Y-85183982D01*
X113796492Y-85183982D01*
X113800502Y-85169018D01*
X113800502Y-85056982D01*
X113771505Y-84948763D01*
X113771503Y-84948760D01*
X113771503Y-84948758D01*
X113715488Y-84851739D01*
X113715487Y-84851737D01*
X113636265Y-84772515D01*
X113625130Y-84766086D01*
X113539242Y-84716498D01*
X113539244Y-84716498D01*
X113488654Y-84702943D01*
X113431020Y-84687500D01*
X113318984Y-84687500D01*
X113261350Y-84702943D01*
X113210760Y-84716498D01*
X113113741Y-84772513D01*
X113034515Y-84851739D01*
X112978500Y-84948758D01*
X112969126Y-84983744D01*
X112949502Y-85056982D01*
X112366730Y-85056982D01*
X112351550Y-85041802D01*
X112349695Y-85039727D01*
X112338410Y-85014139D01*
X112325719Y-84989230D01*
X112325348Y-84984520D01*
X112325006Y-84983744D01*
X112325212Y-84982790D01*
X112324500Y-84973744D01*
X112324500Y-82601456D01*
X120319500Y-82601456D01*
X120319500Y-82798543D01*
X120357949Y-82991834D01*
X120357949Y-82991836D01*
X120433367Y-83173913D01*
X120433368Y-83173914D01*
X120542861Y-83337782D01*
X120682218Y-83477139D01*
X120846086Y-83586632D01*
X121028165Y-83662051D01*
X121221459Y-83700500D01*
X121221460Y-83700500D01*
X121418540Y-83700500D01*
X121418541Y-83700500D01*
X121611835Y-83662051D01*
X121793914Y-83586632D01*
X121957782Y-83477139D01*
X122097139Y-83337782D01*
X122206632Y-83173914D01*
X122282051Y-82991835D01*
X122320500Y-82798541D01*
X122320500Y-82601459D01*
X122282051Y-82408165D01*
X122206632Y-82226086D01*
X122097139Y-82062218D01*
X121957782Y-81922861D01*
X121793914Y-81813368D01*
X121793915Y-81813368D01*
X121793913Y-81813367D01*
X121611835Y-81737949D01*
X121418543Y-81699500D01*
X121418541Y-81699500D01*
X121221459Y-81699500D01*
X121221456Y-81699500D01*
X121028165Y-81737949D01*
X121028163Y-81737949D01*
X120846086Y-81813367D01*
X120682218Y-81922861D01*
X120682214Y-81922864D01*
X120542864Y-82062214D01*
X120542861Y-82062218D01*
X120433367Y-82226086D01*
X120357949Y-82408163D01*
X120357949Y-82408165D01*
X120319500Y-82601456D01*
X112324500Y-82601456D01*
X112324500Y-82601123D01*
X112333873Y-82572275D01*
X112333873Y-82566002D01*
X112338211Y-82558921D01*
X112343407Y-82542932D01*
X112353496Y-82531119D01*
X112358024Y-82526591D01*
X113421734Y-81462882D01*
X115549499Y-81462882D01*
X115549499Y-81574918D01*
X115554677Y-81594241D01*
X115578497Y-81683141D01*
X115628926Y-81770485D01*
X115634514Y-81780163D01*
X115713736Y-81859385D01*
X115713738Y-81859386D01*
X115810758Y-81915401D01*
X115810756Y-81915401D01*
X115810760Y-81915402D01*
X115810762Y-81915403D01*
X115918981Y-81944400D01*
X115918983Y-81944400D01*
X116031015Y-81944400D01*
X116031017Y-81944400D01*
X116139236Y-81915403D01*
X116139238Y-81915401D01*
X116139240Y-81915401D01*
X116168063Y-81898759D01*
X116236262Y-81859385D01*
X116315484Y-81780163D01*
X116362055Y-81699500D01*
X116371500Y-81683141D01*
X116371500Y-81683139D01*
X116371502Y-81683137D01*
X116400499Y-81574918D01*
X116400499Y-81462882D01*
X116371502Y-81354663D01*
X116371500Y-81354660D01*
X116371500Y-81354658D01*
X116323805Y-81272050D01*
X116315484Y-81257637D01*
X116236262Y-81178415D01*
X116219503Y-81168739D01*
X116139239Y-81122398D01*
X116139241Y-81122398D01*
X116074376Y-81105018D01*
X116031017Y-81093400D01*
X115918981Y-81093400D01*
X115875622Y-81105018D01*
X115810757Y-81122398D01*
X115713738Y-81178413D01*
X115634512Y-81257639D01*
X115578497Y-81354658D01*
X115569165Y-81389486D01*
X115549499Y-81462882D01*
X113421734Y-81462882D01*
X113498227Y-81386389D01*
X114420120Y-80464496D01*
X114474637Y-80436719D01*
X114490124Y-80435500D01*
X117022628Y-80435500D01*
X117080819Y-80454407D01*
X117116783Y-80503907D01*
X117116783Y-80565093D01*
X117080819Y-80614593D01*
X117048252Y-80630126D01*
X117003481Y-80642122D01*
X116964758Y-80652498D01*
X116867739Y-80708513D01*
X116788513Y-80787739D01*
X116732498Y-80884758D01*
X116732497Y-80884763D01*
X116703500Y-80992982D01*
X116703500Y-81105018D01*
X116720574Y-81168739D01*
X116732498Y-81213241D01*
X116788513Y-81310260D01*
X116788515Y-81310263D01*
X116867737Y-81389485D01*
X116867739Y-81389486D01*
X116964759Y-81445501D01*
X116964757Y-81445501D01*
X116964761Y-81445502D01*
X116964763Y-81445503D01*
X117072982Y-81474500D01*
X117072984Y-81474500D01*
X117185016Y-81474500D01*
X117185018Y-81474500D01*
X117293237Y-81445503D01*
X117293239Y-81445501D01*
X117293241Y-81445501D01*
X117322064Y-81428859D01*
X117390263Y-81389485D01*
X117405766Y-81373982D01*
X124704500Y-81373982D01*
X124704500Y-81486018D01*
X124728320Y-81574916D01*
X124733498Y-81594241D01*
X124789513Y-81691260D01*
X124789515Y-81691263D01*
X124868737Y-81770485D01*
X124868739Y-81770486D01*
X124965759Y-81826501D01*
X124965757Y-81826501D01*
X124965761Y-81826502D01*
X124965763Y-81826503D01*
X125073982Y-81855500D01*
X125073984Y-81855500D01*
X125186016Y-81855500D01*
X125186018Y-81855500D01*
X125294237Y-81826503D01*
X125294239Y-81826501D01*
X125294241Y-81826501D01*
X125323064Y-81809859D01*
X125391263Y-81770485D01*
X125470485Y-81691263D01*
X125526503Y-81594237D01*
X125555500Y-81486018D01*
X125555500Y-81373982D01*
X125526503Y-81265763D01*
X125526501Y-81265760D01*
X125526501Y-81265758D01*
X125470486Y-81168739D01*
X125470485Y-81168737D01*
X125391263Y-81089515D01*
X125391260Y-81089513D01*
X125294240Y-81033498D01*
X125294242Y-81033498D01*
X125252251Y-81022247D01*
X125186018Y-81004500D01*
X125073982Y-81004500D01*
X125007748Y-81022247D01*
X124965758Y-81033498D01*
X124868739Y-81089513D01*
X124789513Y-81168739D01*
X124733498Y-81265758D01*
X124733497Y-81265763D01*
X124704500Y-81373982D01*
X117405766Y-81373982D01*
X117469485Y-81310263D01*
X117525503Y-81213237D01*
X117554500Y-81105018D01*
X117554500Y-80992982D01*
X117525503Y-80884763D01*
X117525501Y-80884760D01*
X117525501Y-80884758D01*
X117469486Y-80787739D01*
X117469485Y-80787737D01*
X117390263Y-80708515D01*
X117390260Y-80708513D01*
X117293240Y-80652498D01*
X117293242Y-80652498D01*
X117254518Y-80642122D01*
X117209747Y-80630126D01*
X117158435Y-80596803D01*
X117136508Y-80539681D01*
X117152344Y-80480581D01*
X117199894Y-80442076D01*
X117235372Y-80435500D01*
X120285033Y-80435500D01*
X120343224Y-80454407D01*
X120376497Y-80496615D01*
X120417996Y-80596803D01*
X120433368Y-80633914D01*
X120542861Y-80797782D01*
X120682218Y-80937139D01*
X120846086Y-81046632D01*
X121028165Y-81122051D01*
X121221459Y-81160500D01*
X121221460Y-81160500D01*
X121418540Y-81160500D01*
X121418541Y-81160500D01*
X121611835Y-81122051D01*
X121793914Y-81046632D01*
X121957782Y-80937139D01*
X122097139Y-80797782D01*
X122206632Y-80633914D01*
X122282051Y-80451835D01*
X122320500Y-80258541D01*
X122320500Y-80061459D01*
X122282051Y-79868165D01*
X122206632Y-79686086D01*
X122097139Y-79522218D01*
X121957782Y-79382861D01*
X121793914Y-79273368D01*
X121793915Y-79273368D01*
X121793913Y-79273367D01*
X121611835Y-79197949D01*
X121418543Y-79159500D01*
X121418541Y-79159500D01*
X121221459Y-79159500D01*
X121221456Y-79159500D01*
X121028165Y-79197949D01*
X121028163Y-79197949D01*
X120846086Y-79273367D01*
X120682218Y-79382861D01*
X120682214Y-79382864D01*
X120542864Y-79522214D01*
X120542861Y-79522218D01*
X120433367Y-79686087D01*
X120376497Y-79823385D01*
X120336761Y-79869911D01*
X120285033Y-79884500D01*
X114280199Y-79884500D01*
X114208599Y-79914157D01*
X114208599Y-79914158D01*
X114178941Y-79926443D01*
X111892942Y-82212443D01*
X111892941Y-82212442D01*
X111815446Y-82289938D01*
X111815444Y-82289940D01*
X111815443Y-82289942D01*
X111815443Y-82289943D01*
X111773500Y-82391200D01*
X111773500Y-84998346D01*
X111754593Y-85056537D01*
X111744505Y-85068348D01*
X111720815Y-85092038D01*
X111664799Y-85189059D01*
X111662005Y-85199486D01*
X111635801Y-85297283D01*
X107080500Y-85297283D01*
X107080500Y-85141459D01*
X107042051Y-84948165D01*
X106966632Y-84766086D01*
X106857139Y-84602218D01*
X106717782Y-84462861D01*
X106553914Y-84353368D01*
X106553915Y-84353368D01*
X106553913Y-84353367D01*
X106371835Y-84277949D01*
X106178543Y-84239500D01*
X106178541Y-84239500D01*
X105981459Y-84239500D01*
X105981456Y-84239500D01*
X105788165Y-84277949D01*
X105788163Y-84277949D01*
X105606086Y-84353367D01*
X105442218Y-84462861D01*
X105442214Y-84462864D01*
X105302864Y-84602214D01*
X105302861Y-84602218D01*
X105193367Y-84766086D01*
X105117949Y-84948163D01*
X105117949Y-84948165D01*
X105079500Y-85141456D01*
X104196500Y-85141456D01*
X104196500Y-85014123D01*
X104215407Y-84955932D01*
X104225496Y-84944119D01*
X104816248Y-84353367D01*
X105542977Y-83626637D01*
X105597492Y-83598862D01*
X105650861Y-83605178D01*
X105788165Y-83662051D01*
X105981459Y-83700500D01*
X105981460Y-83700500D01*
X106178540Y-83700500D01*
X106178541Y-83700500D01*
X106371835Y-83662051D01*
X106553914Y-83586632D01*
X106717782Y-83477139D01*
X106857139Y-83337782D01*
X106966632Y-83173914D01*
X107042051Y-82991835D01*
X107080500Y-82798541D01*
X107080500Y-82601459D01*
X107042051Y-82408165D01*
X106966632Y-82226086D01*
X106857139Y-82062218D01*
X106717782Y-81922861D01*
X106553914Y-81813368D01*
X106553915Y-81813368D01*
X106553913Y-81813367D01*
X106371835Y-81737949D01*
X106178543Y-81699500D01*
X106178541Y-81699500D01*
X105981459Y-81699500D01*
X105981456Y-81699500D01*
X105788165Y-81737949D01*
X105788163Y-81737949D01*
X105606086Y-81813367D01*
X105442218Y-81922861D01*
X105442214Y-81922864D01*
X105302864Y-82062214D01*
X105302861Y-82062218D01*
X105193367Y-82226086D01*
X105117949Y-82408163D01*
X105117949Y-82408165D01*
X105079500Y-82601456D01*
X105079500Y-82798543D01*
X105117949Y-82991834D01*
X105117949Y-82991836D01*
X105174819Y-83129134D01*
X105179619Y-83190131D01*
X105153359Y-83237022D01*
X103764942Y-84625442D01*
X103687446Y-84702938D01*
X103687444Y-84702940D01*
X103687443Y-84702942D01*
X103645500Y-84804200D01*
X101100500Y-84804200D01*
X101100500Y-80061456D01*
X105079500Y-80061456D01*
X105079500Y-80258543D01*
X105117949Y-80451834D01*
X105117949Y-80451836D01*
X105193367Y-80633913D01*
X105193368Y-80633914D01*
X105302861Y-80797782D01*
X105442218Y-80937139D01*
X105606086Y-81046632D01*
X105788165Y-81122051D01*
X105981459Y-81160500D01*
X105981460Y-81160500D01*
X106178540Y-81160500D01*
X106178541Y-81160500D01*
X106371835Y-81122051D01*
X106553914Y-81046632D01*
X106717782Y-80937139D01*
X106857139Y-80797782D01*
X106966632Y-80633914D01*
X107042051Y-80451835D01*
X107080500Y-80258541D01*
X107080500Y-80061459D01*
X107042051Y-79868165D01*
X106966632Y-79686086D01*
X106857139Y-79522218D01*
X106717782Y-79382861D01*
X106553914Y-79273368D01*
X106553915Y-79273368D01*
X106553913Y-79273367D01*
X106371835Y-79197949D01*
X106178543Y-79159500D01*
X106178541Y-79159500D01*
X105981459Y-79159500D01*
X105981456Y-79159500D01*
X105788165Y-79197949D01*
X105788163Y-79197949D01*
X105606086Y-79273367D01*
X105442218Y-79382861D01*
X105442214Y-79382864D01*
X105302864Y-79522214D01*
X105302861Y-79522218D01*
X105193367Y-79686086D01*
X105117949Y-79868163D01*
X105117949Y-79868165D01*
X105079500Y-80061456D01*
X101100500Y-80061456D01*
X101100500Y-78833982D01*
X123561500Y-78833982D01*
X123561500Y-78946018D01*
X123587072Y-79041455D01*
X123590498Y-79054241D01*
X123646513Y-79151260D01*
X123646515Y-79151263D01*
X123725737Y-79230485D01*
X123725739Y-79230486D01*
X123822759Y-79286501D01*
X123822757Y-79286501D01*
X123822761Y-79286502D01*
X123822763Y-79286503D01*
X123930982Y-79315500D01*
X123930984Y-79315500D01*
X124043016Y-79315500D01*
X124043018Y-79315500D01*
X124151237Y-79286503D01*
X124151239Y-79286501D01*
X124151241Y-79286501D01*
X124180064Y-79269859D01*
X124248263Y-79230485D01*
X124327485Y-79151263D01*
X124383503Y-79054237D01*
X124412500Y-78946018D01*
X124412500Y-78833982D01*
X124383503Y-78725763D01*
X124383501Y-78725760D01*
X124383501Y-78725758D01*
X124327486Y-78628739D01*
X124327485Y-78628737D01*
X124248263Y-78549515D01*
X124248260Y-78549513D01*
X124151240Y-78493498D01*
X124151242Y-78493498D01*
X124109251Y-78482247D01*
X124043018Y-78464500D01*
X123930982Y-78464500D01*
X123864748Y-78482247D01*
X123822758Y-78493498D01*
X123725739Y-78549513D01*
X123646513Y-78628739D01*
X123590498Y-78725758D01*
X123590497Y-78725763D01*
X123561500Y-78833982D01*
X101100500Y-78833982D01*
X101100500Y-77521456D01*
X105079500Y-77521456D01*
X105079500Y-77718543D01*
X105117949Y-77911834D01*
X105117949Y-77911836D01*
X105193367Y-78093913D01*
X105193368Y-78093914D01*
X105302861Y-78257782D01*
X105442218Y-78397139D01*
X105606086Y-78506632D01*
X105788165Y-78582051D01*
X105981459Y-78620500D01*
X105981460Y-78620500D01*
X106178540Y-78620500D01*
X106178541Y-78620500D01*
X106371835Y-78582051D01*
X106553914Y-78506632D01*
X106717782Y-78397139D01*
X106857139Y-78257782D01*
X106966632Y-78093914D01*
X107042051Y-77911835D01*
X107080500Y-77718541D01*
X107080500Y-77563982D01*
X116830500Y-77563982D01*
X116830500Y-77676018D01*
X116856072Y-77771455D01*
X116859498Y-77784241D01*
X116915513Y-77881260D01*
X116915515Y-77881263D01*
X116994737Y-77960485D01*
X116994739Y-77960486D01*
X117091759Y-78016501D01*
X117091757Y-78016501D01*
X117091761Y-78016502D01*
X117091763Y-78016503D01*
X117199982Y-78045500D01*
X117199984Y-78045500D01*
X117312016Y-78045500D01*
X117312018Y-78045500D01*
X117420237Y-78016503D01*
X117420239Y-78016501D01*
X117420241Y-78016501D01*
X117449064Y-77999859D01*
X117517263Y-77960485D01*
X117596485Y-77881263D01*
X117652503Y-77784237D01*
X117681500Y-77676018D01*
X117681500Y-77563982D01*
X117670105Y-77521456D01*
X120319500Y-77521456D01*
X120319500Y-77718543D01*
X120357949Y-77911834D01*
X120357949Y-77911836D01*
X120433367Y-78093913D01*
X120433368Y-78093914D01*
X120542861Y-78257782D01*
X120682218Y-78397139D01*
X120846086Y-78506632D01*
X121028165Y-78582051D01*
X121221459Y-78620500D01*
X121221460Y-78620500D01*
X121418540Y-78620500D01*
X121418541Y-78620500D01*
X121611835Y-78582051D01*
X121793914Y-78506632D01*
X121957782Y-78397139D01*
X122097139Y-78257782D01*
X122206632Y-78093914D01*
X122282051Y-77911835D01*
X122320500Y-77718541D01*
X122320500Y-77521459D01*
X122282051Y-77328165D01*
X122206632Y-77146086D01*
X122097139Y-76982218D01*
X121957782Y-76842861D01*
X121793914Y-76733368D01*
X121793915Y-76733368D01*
X121793913Y-76733367D01*
X121611835Y-76657949D01*
X121418543Y-76619500D01*
X121418541Y-76619500D01*
X121221459Y-76619500D01*
X121221456Y-76619500D01*
X121028165Y-76657949D01*
X121028163Y-76657949D01*
X120846086Y-76733367D01*
X120682218Y-76842861D01*
X120682214Y-76842864D01*
X120542864Y-76982214D01*
X120542861Y-76982218D01*
X120433367Y-77146086D01*
X120357949Y-77328163D01*
X120357949Y-77328165D01*
X120319500Y-77521456D01*
X117670105Y-77521456D01*
X117652503Y-77455763D01*
X117652501Y-77455760D01*
X117652501Y-77455758D01*
X117596486Y-77358739D01*
X117596485Y-77358737D01*
X117517263Y-77279515D01*
X117517260Y-77279513D01*
X117420240Y-77223498D01*
X117420242Y-77223498D01*
X117378251Y-77212247D01*
X117312018Y-77194500D01*
X117199982Y-77194500D01*
X117133748Y-77212247D01*
X117091758Y-77223498D01*
X116994739Y-77279513D01*
X116915513Y-77358739D01*
X116859498Y-77455758D01*
X116859497Y-77455763D01*
X116830500Y-77563982D01*
X107080500Y-77563982D01*
X107080500Y-77521459D01*
X107042051Y-77328165D01*
X106966632Y-77146086D01*
X106857139Y-76982218D01*
X106717782Y-76842861D01*
X106553914Y-76733368D01*
X106553915Y-76733368D01*
X106553913Y-76733367D01*
X106371835Y-76657949D01*
X106178543Y-76619500D01*
X106178541Y-76619500D01*
X105981459Y-76619500D01*
X105981456Y-76619500D01*
X105788165Y-76657949D01*
X105788163Y-76657949D01*
X105606086Y-76733367D01*
X105442218Y-76842861D01*
X105442214Y-76842864D01*
X105302864Y-76982214D01*
X105302861Y-76982218D01*
X105193367Y-77146086D01*
X105117949Y-77328163D01*
X105117949Y-77328165D01*
X105079500Y-77521456D01*
X101100500Y-77521456D01*
X101100500Y-74260253D01*
X105079500Y-74260253D01*
X105079500Y-75899746D01*
X105079501Y-75899758D01*
X105091132Y-75958227D01*
X105091134Y-75958233D01*
X105135445Y-76024548D01*
X105135448Y-76024552D01*
X105201769Y-76068867D01*
X105246231Y-76077711D01*
X105260241Y-76080498D01*
X105260246Y-76080498D01*
X105260252Y-76080500D01*
X105260253Y-76080500D01*
X106899747Y-76080500D01*
X106899748Y-76080500D01*
X106958231Y-76068867D01*
X107024552Y-76024552D01*
X107068867Y-75958231D01*
X107080500Y-75899748D01*
X107080500Y-74260252D01*
X107080499Y-74260250D01*
X107080499Y-74260244D01*
X107073429Y-74224704D01*
X107070555Y-74210253D01*
X108834900Y-74210253D01*
X108834900Y-75949746D01*
X108834901Y-75949758D01*
X108846532Y-76008227D01*
X108846534Y-76008233D01*
X108869131Y-76042051D01*
X108890848Y-76074552D01*
X108957169Y-76118867D01*
X109001631Y-76127711D01*
X109015641Y-76130498D01*
X109015646Y-76130498D01*
X109015652Y-76130500D01*
X109015653Y-76130500D01*
X110755147Y-76130500D01*
X110755148Y-76130500D01*
X110813631Y-76118867D01*
X110879952Y-76074552D01*
X110924267Y-76008231D01*
X110935900Y-75949748D01*
X110935900Y-74210253D01*
X116438700Y-74210253D01*
X116438700Y-75949746D01*
X116438701Y-75949758D01*
X116450332Y-76008227D01*
X116450334Y-76008233D01*
X116472931Y-76042051D01*
X116494648Y-76074552D01*
X116560969Y-76118867D01*
X116605431Y-76127711D01*
X116619441Y-76130498D01*
X116619446Y-76130498D01*
X116619452Y-76130500D01*
X116619453Y-76130500D01*
X118358947Y-76130500D01*
X118358948Y-76130500D01*
X118417431Y-76118867D01*
X118483752Y-76074552D01*
X118528067Y-76008231D01*
X118539700Y-75949748D01*
X118539700Y-74981456D01*
X120319500Y-74981456D01*
X120319500Y-75178543D01*
X120357949Y-75371834D01*
X120357949Y-75371836D01*
X120433367Y-75553913D01*
X120433368Y-75553914D01*
X120542861Y-75717782D01*
X120682218Y-75857139D01*
X120846086Y-75966632D01*
X121028165Y-76042051D01*
X121221459Y-76080500D01*
X121221460Y-76080500D01*
X121418540Y-76080500D01*
X121418541Y-76080500D01*
X121611835Y-76042051D01*
X121793914Y-75966632D01*
X121957782Y-75857139D01*
X122097139Y-75717782D01*
X122206632Y-75553914D01*
X122282051Y-75371835D01*
X122320500Y-75178541D01*
X122320500Y-74981459D01*
X122282051Y-74788165D01*
X122206632Y-74606086D01*
X122097139Y-74442218D01*
X121957782Y-74302861D01*
X121819183Y-74210252D01*
X121793913Y-74193367D01*
X121611835Y-74117949D01*
X121418543Y-74079500D01*
X121418541Y-74079500D01*
X121221459Y-74079500D01*
X121221456Y-74079500D01*
X121028165Y-74117949D01*
X121028163Y-74117949D01*
X120846086Y-74193367D01*
X120682218Y-74302861D01*
X120682214Y-74302864D01*
X120542864Y-74442214D01*
X120542861Y-74442218D01*
X120433367Y-74606086D01*
X120357949Y-74788163D01*
X120357949Y-74788165D01*
X120319500Y-74981456D01*
X118539700Y-74981456D01*
X118539700Y-74210252D01*
X118538012Y-74201768D01*
X118536341Y-74193367D01*
X118528067Y-74151769D01*
X118483752Y-74085448D01*
X118474852Y-74079501D01*
X118417433Y-74041134D01*
X118417431Y-74041133D01*
X118417428Y-74041132D01*
X118417427Y-74041132D01*
X118358958Y-74029501D01*
X118358948Y-74029500D01*
X116619452Y-74029500D01*
X116619451Y-74029500D01*
X116619441Y-74029501D01*
X116560972Y-74041132D01*
X116560966Y-74041134D01*
X116494651Y-74085445D01*
X116494645Y-74085451D01*
X116450334Y-74151766D01*
X116450332Y-74151772D01*
X116438701Y-74210241D01*
X116438700Y-74210253D01*
X110935900Y-74210253D01*
X110935900Y-74210252D01*
X110934212Y-74201768D01*
X110932541Y-74193367D01*
X110924267Y-74151769D01*
X110879952Y-74085448D01*
X110871052Y-74079501D01*
X110813633Y-74041134D01*
X110813631Y-74041133D01*
X110813628Y-74041132D01*
X110813627Y-74041132D01*
X110755158Y-74029501D01*
X110755148Y-74029500D01*
X109015652Y-74029500D01*
X109015651Y-74029500D01*
X109015641Y-74029501D01*
X108957172Y-74041132D01*
X108957166Y-74041134D01*
X108890851Y-74085445D01*
X108890845Y-74085451D01*
X108846534Y-74151766D01*
X108846532Y-74151772D01*
X108834901Y-74210241D01*
X108834900Y-74210253D01*
X107070555Y-74210253D01*
X107068867Y-74201769D01*
X107024552Y-74135448D01*
X107024548Y-74135445D01*
X106958233Y-74091134D01*
X106958231Y-74091133D01*
X106958228Y-74091132D01*
X106958227Y-74091132D01*
X106899758Y-74079501D01*
X106899748Y-74079500D01*
X105260252Y-74079500D01*
X105260251Y-74079500D01*
X105260241Y-74079501D01*
X105201772Y-74091132D01*
X105201766Y-74091134D01*
X105135451Y-74135445D01*
X105135445Y-74135451D01*
X105091134Y-74201766D01*
X105091132Y-74201772D01*
X105079501Y-74260241D01*
X105079500Y-74260253D01*
X101100500Y-74260253D01*
X101100500Y-71274318D01*
X101100877Y-71265690D01*
X101109936Y-71162139D01*
X101117512Y-71075540D01*
X101120505Y-71058564D01*
X101168790Y-70878360D01*
X101174686Y-70862163D01*
X101253526Y-70693091D01*
X101262146Y-70678161D01*
X101369145Y-70525351D01*
X101380226Y-70512144D01*
X101512144Y-70380226D01*
X101525351Y-70369145D01*
X101678161Y-70262146D01*
X101693091Y-70253526D01*
X101862163Y-70174686D01*
X101878360Y-70168790D01*
X102058564Y-70120505D01*
X102075540Y-70117512D01*
X102265691Y-70100877D01*
X102274319Y-70100500D01*
X102296929Y-70100500D01*
X125103071Y-70100500D01*
X125125681Y-70100500D01*
X125134309Y-70100877D01*
G37*
G04 #@! TD.AperFunction*
M02*
