G04 #@! TF.GenerationSoftware,KiCad,Pcbnew,9.0.6-9.0.6~ubuntu25.10.1*
G04 #@! TF.CreationDate,2025-12-24T16:01:02+09:00*
G04 #@! TF.ProjectId,bionic-mc68008,62696f6e-6963-42d6-9d63-36383030382e,2*
G04 #@! TF.SameCoordinates,Original*
G04 #@! TF.FileFunction,Paste,Bot*
G04 #@! TF.FilePolarity,Positive*
%FSLAX46Y46*%
G04 Gerber Fmt 4.6, Leading zero omitted, Abs format (unit mm)*
G04 Created by KiCad (PCBNEW 9.0.6-9.0.6~ubuntu25.10.1) date 2025-12-24 16:01:02*
%MOMM*%
%LPD*%
G01*
G04 APERTURE LIST*
G04 Aperture macros list*
%AMRoundRect*
0 Rectangle with rounded corners*
0 $1 Rounding radius*
0 $2 $3 $4 $5 $6 $7 $8 $9 X,Y pos of 4 corners*
0 Add a 4 corners polygon primitive as box body*
4,1,4,$2,$3,$4,$5,$6,$7,$8,$9,$2,$3,0*
0 Add four circle primitives for the rounded corners*
1,1,$1+$1,$2,$3*
1,1,$1+$1,$4,$5*
1,1,$1+$1,$6,$7*
1,1,$1+$1,$8,$9*
0 Add four rect primitives between the rounded corners*
20,1,$1+$1,$2,$3,$4,$5,0*
20,1,$1+$1,$4,$5,$6,$7,0*
20,1,$1+$1,$6,$7,$8,$9,0*
20,1,$1+$1,$8,$9,$2,$3,0*%
G04 Aperture macros list end*
%ADD10RoundRect,0.237500X0.237500X-0.300000X0.237500X0.300000X-0.237500X0.300000X-0.237500X-0.300000X0*%
%ADD11R,2.510000X1.000000*%
G04 APERTURE END LIST*
D10*
X103540000Y-105560000D03*
X103540000Y-103835000D03*
D11*
X111130000Y-77620000D03*
X108640800Y-80160000D03*
X111130000Y-82700000D03*
X108640800Y-85240000D03*
X111130000Y-87780000D03*
X108640800Y-90320000D03*
X111130000Y-92860000D03*
X108640800Y-95400000D03*
X108640800Y-100480000D03*
X111130000Y-103020000D03*
X108640800Y-105560000D03*
X111130000Y-108100000D03*
X108640800Y-110640000D03*
X111130000Y-113180000D03*
X108640800Y-115720000D03*
X111130000Y-118260000D03*
X111130000Y-123340000D03*
X108640800Y-125880000D03*
X111130000Y-128420000D03*
X108640800Y-130960000D03*
X116244600Y-130960000D03*
X118733800Y-128420000D03*
X116244600Y-125880000D03*
X118733800Y-123340000D03*
X118733800Y-118260000D03*
X116244600Y-115720000D03*
X118733800Y-113180000D03*
X116244600Y-110640000D03*
X118733800Y-108100000D03*
X116244600Y-105560000D03*
X118733800Y-103020000D03*
X116244600Y-100480000D03*
X116244600Y-95400000D03*
X118733800Y-92860000D03*
X116244600Y-90320000D03*
X118733800Y-87780000D03*
X116244600Y-85240000D03*
X118733800Y-82700000D03*
X116244600Y-80160000D03*
X118733800Y-77620000D03*
M02*
