G04 #@! TF.GenerationSoftware,KiCad,Pcbnew,9.0.6-9.0.6~ubuntu25.10.1*
G04 #@! TF.CreationDate,2025-11-10T22:03:23+09:00*
G04 #@! TF.ProjectId,bionic-z280,62696f6e-6963-42d7-9a32-38302e6b6963,1*
G04 #@! TF.SameCoordinates,Original*
G04 #@! TF.FileFunction,Legend,Bot*
G04 #@! TF.FilePolarity,Positive*
%FSLAX46Y46*%
G04 Gerber Fmt 4.6, Leading zero omitted, Abs format (unit mm)*
G04 Created by KiCad (PCBNEW 9.0.6-9.0.6~ubuntu25.10.1) date 2025-11-10 22:03:23*
%MOMM*%
%LPD*%
G01*
G04 APERTURE LIST*
%ADD10C,0.100000*%
%ADD11C,0.125000*%
%ADD12C,0.150000*%
%ADD13C,0.120000*%
G04 APERTURE END LIST*
D10*
X117395238Y-136406895D02*
X117395238Y-136978323D01*
X117395238Y-136978323D02*
X117433333Y-137092609D01*
X117433333Y-137092609D02*
X117509524Y-137168800D01*
X117509524Y-137168800D02*
X117623809Y-137206895D01*
X117623809Y-137206895D02*
X117700000Y-137206895D01*
X116633333Y-137206895D02*
X117014285Y-137206895D01*
X117014285Y-137206895D02*
X117014285Y-136406895D01*
X115909523Y-137130704D02*
X115947619Y-137168800D01*
X115947619Y-137168800D02*
X116061904Y-137206895D01*
X116061904Y-137206895D02*
X116138095Y-137206895D01*
X116138095Y-137206895D02*
X116252381Y-137168800D01*
X116252381Y-137168800D02*
X116328571Y-137092609D01*
X116328571Y-137092609D02*
X116366666Y-137016419D01*
X116366666Y-137016419D02*
X116404762Y-136864038D01*
X116404762Y-136864038D02*
X116404762Y-136749752D01*
X116404762Y-136749752D02*
X116366666Y-136597371D01*
X116366666Y-136597371D02*
X116328571Y-136521180D01*
X116328571Y-136521180D02*
X116252381Y-136444990D01*
X116252381Y-136444990D02*
X116138095Y-136406895D01*
X116138095Y-136406895D02*
X116061904Y-136406895D01*
X116061904Y-136406895D02*
X115947619Y-136444990D01*
X115947619Y-136444990D02*
X115909523Y-136483085D01*
X115338095Y-136406895D02*
X115338095Y-136978323D01*
X115338095Y-136978323D02*
X115376190Y-137092609D01*
X115376190Y-137092609D02*
X115452381Y-137168800D01*
X115452381Y-137168800D02*
X115566666Y-137206895D01*
X115566666Y-137206895D02*
X115642857Y-137206895D01*
X114576190Y-137206895D02*
X114957142Y-137206895D01*
X114957142Y-137206895D02*
X114957142Y-136406895D01*
X113852380Y-137130704D02*
X113890476Y-137168800D01*
X113890476Y-137168800D02*
X114004761Y-137206895D01*
X114004761Y-137206895D02*
X114080952Y-137206895D01*
X114080952Y-137206895D02*
X114195238Y-137168800D01*
X114195238Y-137168800D02*
X114271428Y-137092609D01*
X114271428Y-137092609D02*
X114309523Y-137016419D01*
X114309523Y-137016419D02*
X114347619Y-136864038D01*
X114347619Y-136864038D02*
X114347619Y-136749752D01*
X114347619Y-136749752D02*
X114309523Y-136597371D01*
X114309523Y-136597371D02*
X114271428Y-136521180D01*
X114271428Y-136521180D02*
X114195238Y-136444990D01*
X114195238Y-136444990D02*
X114080952Y-136406895D01*
X114080952Y-136406895D02*
X114004761Y-136406895D01*
X114004761Y-136406895D02*
X113890476Y-136444990D01*
X113890476Y-136444990D02*
X113852380Y-136483085D01*
X113280952Y-136406895D02*
X113280952Y-136978323D01*
X113280952Y-136978323D02*
X113319047Y-137092609D01*
X113319047Y-137092609D02*
X113395238Y-137168800D01*
X113395238Y-137168800D02*
X113509523Y-137206895D01*
X113509523Y-137206895D02*
X113585714Y-137206895D01*
X112519047Y-137206895D02*
X112899999Y-137206895D01*
X112899999Y-137206895D02*
X112899999Y-136406895D01*
X111795237Y-137130704D02*
X111833333Y-137168800D01*
X111833333Y-137168800D02*
X111947618Y-137206895D01*
X111947618Y-137206895D02*
X112023809Y-137206895D01*
X112023809Y-137206895D02*
X112138095Y-137168800D01*
X112138095Y-137168800D02*
X112214285Y-137092609D01*
X112214285Y-137092609D02*
X112252380Y-137016419D01*
X112252380Y-137016419D02*
X112290476Y-136864038D01*
X112290476Y-136864038D02*
X112290476Y-136749752D01*
X112290476Y-136749752D02*
X112252380Y-136597371D01*
X112252380Y-136597371D02*
X112214285Y-136521180D01*
X112214285Y-136521180D02*
X112138095Y-136444990D01*
X112138095Y-136444990D02*
X112023809Y-136406895D01*
X112023809Y-136406895D02*
X111947618Y-136406895D01*
X111947618Y-136406895D02*
X111833333Y-136444990D01*
X111833333Y-136444990D02*
X111795237Y-136483085D01*
X111223809Y-136406895D02*
X111223809Y-136978323D01*
X111223809Y-136978323D02*
X111261904Y-137092609D01*
X111261904Y-137092609D02*
X111338095Y-137168800D01*
X111338095Y-137168800D02*
X111452380Y-137206895D01*
X111452380Y-137206895D02*
X111528571Y-137206895D01*
X110461904Y-137206895D02*
X110842856Y-137206895D01*
X110842856Y-137206895D02*
X110842856Y-136406895D01*
X109738094Y-137130704D02*
X109776190Y-137168800D01*
X109776190Y-137168800D02*
X109890475Y-137206895D01*
X109890475Y-137206895D02*
X109966666Y-137206895D01*
X109966666Y-137206895D02*
X110080952Y-137168800D01*
X110080952Y-137168800D02*
X110157142Y-137092609D01*
X110157142Y-137092609D02*
X110195237Y-137016419D01*
X110195237Y-137016419D02*
X110233333Y-136864038D01*
X110233333Y-136864038D02*
X110233333Y-136749752D01*
X110233333Y-136749752D02*
X110195237Y-136597371D01*
X110195237Y-136597371D02*
X110157142Y-136521180D01*
X110157142Y-136521180D02*
X110080952Y-136444990D01*
X110080952Y-136444990D02*
X109966666Y-136406895D01*
X109966666Y-136406895D02*
X109890475Y-136406895D01*
X109890475Y-136406895D02*
X109776190Y-136444990D01*
X109776190Y-136444990D02*
X109738094Y-136483085D01*
D11*
X102648240Y-137258119D02*
X102981573Y-136781928D01*
X103219668Y-137258119D02*
X103219668Y-136258119D01*
X103219668Y-136258119D02*
X102838716Y-136258119D01*
X102838716Y-136258119D02*
X102743478Y-136305738D01*
X102743478Y-136305738D02*
X102695859Y-136353357D01*
X102695859Y-136353357D02*
X102648240Y-136448595D01*
X102648240Y-136448595D02*
X102648240Y-136591452D01*
X102648240Y-136591452D02*
X102695859Y-136686690D01*
X102695859Y-136686690D02*
X102743478Y-136734309D01*
X102743478Y-136734309D02*
X102838716Y-136781928D01*
X102838716Y-136781928D02*
X103219668Y-136781928D01*
X101838716Y-137210500D02*
X101933954Y-137258119D01*
X101933954Y-137258119D02*
X102124430Y-137258119D01*
X102124430Y-137258119D02*
X102219668Y-137210500D01*
X102219668Y-137210500D02*
X102267287Y-137115261D01*
X102267287Y-137115261D02*
X102267287Y-136734309D01*
X102267287Y-136734309D02*
X102219668Y-136639071D01*
X102219668Y-136639071D02*
X102124430Y-136591452D01*
X102124430Y-136591452D02*
X101933954Y-136591452D01*
X101933954Y-136591452D02*
X101838716Y-136639071D01*
X101838716Y-136639071D02*
X101791097Y-136734309D01*
X101791097Y-136734309D02*
X101791097Y-136829547D01*
X101791097Y-136829547D02*
X102267287Y-136924785D01*
X101457763Y-136591452D02*
X101219668Y-137258119D01*
X101219668Y-137258119D02*
X100981573Y-136591452D01*
X100600620Y-137162880D02*
X100553001Y-137210500D01*
X100553001Y-137210500D02*
X100600620Y-137258119D01*
X100600620Y-137258119D02*
X100648239Y-137210500D01*
X100648239Y-137210500D02*
X100600620Y-137162880D01*
X100600620Y-137162880D02*
X100600620Y-137258119D01*
X98838716Y-137258119D02*
X99410144Y-137258119D01*
X99124430Y-137258119D02*
X99124430Y-136258119D01*
X99124430Y-136258119D02*
X99219668Y-136400976D01*
X99219668Y-136400976D02*
X99314906Y-136496214D01*
X99314906Y-136496214D02*
X99410144Y-136543833D01*
D12*
X117843333Y-72204819D02*
X117843333Y-72919104D01*
X117843333Y-72919104D02*
X117890952Y-73061961D01*
X117890952Y-73061961D02*
X117986190Y-73157200D01*
X117986190Y-73157200D02*
X118129047Y-73204819D01*
X118129047Y-73204819D02*
X118224285Y-73204819D01*
X117414761Y-72300057D02*
X117367142Y-72252438D01*
X117367142Y-72252438D02*
X117271904Y-72204819D01*
X117271904Y-72204819D02*
X117033809Y-72204819D01*
X117033809Y-72204819D02*
X116938571Y-72252438D01*
X116938571Y-72252438D02*
X116890952Y-72300057D01*
X116890952Y-72300057D02*
X116843333Y-72395295D01*
X116843333Y-72395295D02*
X116843333Y-72490533D01*
X116843333Y-72490533D02*
X116890952Y-72633390D01*
X116890952Y-72633390D02*
X117462380Y-73204819D01*
X117462380Y-73204819D02*
X116843333Y-73204819D01*
X98983366Y-110897980D02*
X99030985Y-110945600D01*
X99030985Y-110945600D02*
X99173842Y-110993219D01*
X99173842Y-110993219D02*
X99269080Y-110993219D01*
X99269080Y-110993219D02*
X99411937Y-110945600D01*
X99411937Y-110945600D02*
X99507175Y-110850361D01*
X99507175Y-110850361D02*
X99554794Y-110755123D01*
X99554794Y-110755123D02*
X99602413Y-110564647D01*
X99602413Y-110564647D02*
X99602413Y-110421790D01*
X99602413Y-110421790D02*
X99554794Y-110231314D01*
X99554794Y-110231314D02*
X99507175Y-110136076D01*
X99507175Y-110136076D02*
X99411937Y-110040838D01*
X99411937Y-110040838D02*
X99269080Y-109993219D01*
X99269080Y-109993219D02*
X99173842Y-109993219D01*
X99173842Y-109993219D02*
X99030985Y-110040838D01*
X99030985Y-110040838D02*
X98983366Y-110088457D01*
X98030985Y-110993219D02*
X98602413Y-110993219D01*
X98316699Y-110993219D02*
X98316699Y-109993219D01*
X98316699Y-109993219D02*
X98411937Y-110136076D01*
X98411937Y-110136076D02*
X98507175Y-110231314D01*
X98507175Y-110231314D02*
X98602413Y-110278933D01*
X110223333Y-72204819D02*
X110223333Y-72919104D01*
X110223333Y-72919104D02*
X110270952Y-73061961D01*
X110270952Y-73061961D02*
X110366190Y-73157200D01*
X110366190Y-73157200D02*
X110509047Y-73204819D01*
X110509047Y-73204819D02*
X110604285Y-73204819D01*
X109223333Y-73204819D02*
X109794761Y-73204819D01*
X109509047Y-73204819D02*
X109509047Y-72204819D01*
X109509047Y-72204819D02*
X109604285Y-72347676D01*
X109604285Y-72347676D02*
X109699523Y-72442914D01*
X109699523Y-72442914D02*
X109794761Y-72490533D01*
X98957966Y-112498180D02*
X99005585Y-112545800D01*
X99005585Y-112545800D02*
X99148442Y-112593419D01*
X99148442Y-112593419D02*
X99243680Y-112593419D01*
X99243680Y-112593419D02*
X99386537Y-112545800D01*
X99386537Y-112545800D02*
X99481775Y-112450561D01*
X99481775Y-112450561D02*
X99529394Y-112355323D01*
X99529394Y-112355323D02*
X99577013Y-112164847D01*
X99577013Y-112164847D02*
X99577013Y-112021990D01*
X99577013Y-112021990D02*
X99529394Y-111831514D01*
X99529394Y-111831514D02*
X99481775Y-111736276D01*
X99481775Y-111736276D02*
X99386537Y-111641038D01*
X99386537Y-111641038D02*
X99243680Y-111593419D01*
X99243680Y-111593419D02*
X99148442Y-111593419D01*
X99148442Y-111593419D02*
X99005585Y-111641038D01*
X99005585Y-111641038D02*
X98957966Y-111688657D01*
X98577013Y-111688657D02*
X98529394Y-111641038D01*
X98529394Y-111641038D02*
X98434156Y-111593419D01*
X98434156Y-111593419D02*
X98196061Y-111593419D01*
X98196061Y-111593419D02*
X98100823Y-111641038D01*
X98100823Y-111641038D02*
X98053204Y-111688657D01*
X98053204Y-111688657D02*
X98005585Y-111783895D01*
X98005585Y-111783895D02*
X98005585Y-111879133D01*
X98005585Y-111879133D02*
X98053204Y-112021990D01*
X98053204Y-112021990D02*
X98624632Y-112593419D01*
X98624632Y-112593419D02*
X98005585Y-112593419D01*
D13*
X116180000Y-74320000D02*
X116180000Y-73750000D01*
X116180000Y-79400000D02*
X116180000Y-74320000D01*
X116180000Y-84480000D02*
X116180000Y-80920000D01*
X116180000Y-89560000D02*
X116180000Y-86000000D01*
X116180000Y-94640000D02*
X116180000Y-91080000D01*
X116180000Y-99720000D02*
X116180000Y-96160000D01*
X116180000Y-104800000D02*
X116180000Y-101240000D01*
X116180000Y-109880000D02*
X116180000Y-106320000D01*
X116180000Y-114960000D02*
X116180000Y-111400000D01*
X116180000Y-121560000D02*
X116180000Y-116480000D01*
X116180000Y-125120000D02*
X116180000Y-121560000D01*
X116180000Y-130200000D02*
X116180000Y-126640000D01*
X116180000Y-134830000D02*
X116180000Y-131720000D01*
X118840000Y-73750000D02*
X116180000Y-73750000D01*
X118840000Y-76860000D02*
X118840000Y-73750000D01*
X118840000Y-81940000D02*
X118840000Y-78380000D01*
X118840000Y-87020000D02*
X118840000Y-83460000D01*
X118840000Y-92100000D02*
X118840000Y-88540000D01*
X118840000Y-98700000D02*
X118840000Y-93620000D01*
X118840000Y-102260000D02*
X118840000Y-98700000D01*
X118840000Y-107340000D02*
X118840000Y-103780000D01*
X118840000Y-112420000D02*
X118840000Y-108860000D01*
X118840000Y-117500000D02*
X118840000Y-113940000D01*
X118840000Y-122580000D02*
X118840000Y-119020000D01*
X118840000Y-127660000D02*
X118840000Y-124100000D01*
X118840000Y-134260000D02*
X118840000Y-129180000D01*
X118840000Y-134830000D02*
X116180000Y-134830000D01*
X118840000Y-134830000D02*
X118840000Y-134260000D01*
X101528367Y-110028400D02*
X101235833Y-110028400D01*
X101528367Y-111048400D02*
X101235833Y-111048400D01*
X108560000Y-75840000D02*
X108560000Y-73750000D01*
X108560000Y-79400000D02*
X108560000Y-75840000D01*
X108560000Y-84480000D02*
X108560000Y-80920000D01*
X108560000Y-89560000D02*
X108560000Y-86000000D01*
X108560000Y-94640000D02*
X108560000Y-91080000D01*
X108560000Y-99720000D02*
X108560000Y-96160000D01*
X108560000Y-104800000D02*
X108560000Y-101240000D01*
X108560000Y-109880000D02*
X108560000Y-106320000D01*
X108560000Y-114960000D02*
X108560000Y-111400000D01*
X108560000Y-121560000D02*
X108560000Y-116480000D01*
X108560000Y-125120000D02*
X108560000Y-121560000D01*
X108560000Y-130200000D02*
X108560000Y-126640000D01*
X108560000Y-134830000D02*
X108560000Y-131720000D01*
X111220000Y-73750000D02*
X108560000Y-73750000D01*
X111220000Y-76860000D02*
X111220000Y-73750000D01*
X111220000Y-81940000D02*
X111220000Y-78380000D01*
X111220000Y-87020000D02*
X111220000Y-83460000D01*
X111220000Y-92100000D02*
X111220000Y-88540000D01*
X111220000Y-98700000D02*
X111220000Y-93620000D01*
X111220000Y-102260000D02*
X111220000Y-98700000D01*
X111220000Y-107340000D02*
X111220000Y-103780000D01*
X111220000Y-112420000D02*
X111220000Y-108860000D01*
X111220000Y-117500000D02*
X111220000Y-113940000D01*
X111220000Y-122580000D02*
X111220000Y-119020000D01*
X111220000Y-127660000D02*
X111220000Y-124100000D01*
X111220000Y-134260000D02*
X111220000Y-129180000D01*
X111220000Y-134830000D02*
X108560000Y-134830000D01*
X111220000Y-134830000D02*
X111220000Y-134260000D01*
X101528367Y-111628600D02*
X101235833Y-111628600D01*
X101528367Y-112648600D02*
X101235833Y-112648600D01*
M02*
