G04 #@! TF.GenerationSoftware,KiCad,Pcbnew,9.0.6-9.0.6~ubuntu25.10.1*
G04 #@! TF.CreationDate,2025-11-10T22:03:23+09:00*
G04 #@! TF.ProjectId,bionic-z280,62696f6e-6963-42d7-9a32-38302e6b6963,1*
G04 #@! TF.SameCoordinates,Original*
G04 #@! TF.FileFunction,Copper,L2,Bot*
G04 #@! TF.FilePolarity,Positive*
%FSLAX46Y46*%
G04 Gerber Fmt 4.6, Leading zero omitted, Abs format (unit mm)*
G04 Created by KiCad (PCBNEW 9.0.6-9.0.6~ubuntu25.10.1) date 2025-11-10 22:03:23*
%MOMM*%
%LPD*%
G01*
G04 APERTURE LIST*
G04 Aperture macros list*
%AMRoundRect*
0 Rectangle with rounded corners*
0 $1 Rounding radius*
0 $2 $3 $4 $5 $6 $7 $8 $9 X,Y pos of 4 corners*
0 Add a 4 corners polygon primitive as box body*
4,1,4,$2,$3,$4,$5,$6,$7,$8,$9,$2,$3,0*
0 Add four circle primitives for the rounded corners*
1,1,$1+$1,$2,$3*
1,1,$1+$1,$4,$5*
1,1,$1+$1,$6,$7*
1,1,$1+$1,$8,$9*
0 Add four rect primitives between the rounded corners*
20,1,$1+$1,$2,$3,$4,$5,0*
20,1,$1+$1,$4,$5,$6,$7,0*
20,1,$1+$1,$6,$7,$8,$9,0*
20,1,$1+$1,$8,$9,$2,$3,0*%
G04 Aperture macros list end*
G04 #@! TA.AperFunction,ComponentPad*
%ADD10O,1.700000X1.700000*%
G04 #@! TD*
G04 #@! TA.AperFunction,SMDPad,CuDef*
%ADD11R,2.510000X1.000000*%
G04 #@! TD*
G04 #@! TA.AperFunction,ComponentPad*
%ADD12R,1.700000X1.700000*%
G04 #@! TD*
G04 #@! TA.AperFunction,SMDPad,CuDef*
%ADD13RoundRect,0.237500X-0.300000X-0.237500X0.300000X-0.237500X0.300000X0.237500X-0.300000X0.237500X0*%
G04 #@! TD*
G04 #@! TA.AperFunction,ViaPad*
%ADD14C,0.600000*%
G04 #@! TD*
G04 #@! TA.AperFunction,Conductor*
%ADD15C,0.200000*%
G04 #@! TD*
G04 #@! TA.AperFunction,Conductor*
%ADD16C,0.400000*%
G04 #@! TD*
G04 APERTURE END LIST*
D10*
X117510000Y-133500000D03*
D11*
X116265400Y-130960000D03*
X118754600Y-128420000D03*
X116265400Y-125880000D03*
X118754600Y-123340000D03*
X118754600Y-118260000D03*
X116265400Y-115720000D03*
X118754600Y-113180000D03*
X116265400Y-110640000D03*
X118754600Y-108100000D03*
X116265400Y-105560000D03*
X118754600Y-103020000D03*
X116265400Y-100480000D03*
X116265400Y-95400000D03*
X118754600Y-92860000D03*
X116265400Y-90320000D03*
X118754600Y-87780000D03*
X116265400Y-85240000D03*
X118754600Y-82700000D03*
X116265400Y-80160000D03*
X118754600Y-77620000D03*
D12*
X117510000Y-75080000D03*
D13*
X100519600Y-110538400D03*
X102244600Y-110538400D03*
D12*
X109890000Y-75080000D03*
D11*
X111134600Y-77620000D03*
X108645400Y-80160000D03*
X111134600Y-82700000D03*
X108645400Y-85240000D03*
X111134600Y-87780000D03*
X108645400Y-90320000D03*
X111134600Y-92860000D03*
X108645400Y-95400000D03*
X108645400Y-100480000D03*
X111134600Y-103020000D03*
X108645400Y-105560000D03*
X111134600Y-108100000D03*
X108645400Y-110640000D03*
X111134600Y-113180000D03*
X108645400Y-115720000D03*
X111134600Y-118260000D03*
X111134600Y-123340000D03*
X108645400Y-125880000D03*
X111134600Y-128420000D03*
X108645400Y-130960000D03*
D10*
X109890000Y-133500000D03*
D13*
X100519600Y-112138600D03*
X102244600Y-112138600D03*
D14*
X106121200Y-114373800D03*
X106689600Y-108862000D03*
X100517400Y-99946600D03*
X100517400Y-108811200D03*
X110626600Y-71600200D03*
X127060400Y-93571200D03*
X113674600Y-109039800D03*
X119135600Y-105585400D03*
X103463800Y-82674600D03*
X113674600Y-112164000D03*
X126374600Y-72540000D03*
X109636000Y-91717000D03*
X127009600Y-98676600D03*
X108950200Y-119123600D03*
X122539200Y-113459400D03*
X113700000Y-107185600D03*
X111490200Y-96644600D03*
X102244600Y-113688000D03*
X123352000Y-98600400D03*
X114690600Y-118234600D03*
X111795000Y-100784800D03*
X104860800Y-123340000D03*
X121142200Y-89354800D03*
X118322800Y-98321000D03*
X123072600Y-90980400D03*
X108518400Y-112900600D03*
X104810000Y-128750200D03*
X114411200Y-132204600D03*
X101076200Y-131061600D03*
X126374600Y-128369200D03*
X101000000Y-75080000D03*
X119491200Y-80693400D03*
X113725400Y-85214600D03*
X122102119Y-107569504D03*
X123156335Y-88549535D03*
X106867400Y-127394400D03*
X127670000Y-101191200D03*
X127070000Y-103045400D03*
X119237200Y-90063459D03*
X119259600Y-96974800D03*
X104614335Y-104561865D03*
X120601265Y-91938065D03*
X124901400Y-86992600D03*
X113522200Y-126480000D03*
X120624600Y-104518600D03*
X108264400Y-101699200D03*
X104784600Y-103075100D03*
X113496800Y-122374800D03*
X123275800Y-93368000D03*
X119952078Y-89616520D03*
X108645400Y-99641800D03*
X106080000Y-108262000D03*
X105384600Y-107617400D03*
X113852400Y-89405600D03*
X114614400Y-94272800D03*
X123199600Y-94841200D03*
X114314765Y-123268965D03*
X115732000Y-128978800D03*
X103514600Y-103731200D03*
X123402800Y-106033000D03*
X118100322Y-84718300D03*
X120583400Y-117802800D03*
X103514600Y-95450800D03*
X113476565Y-92788965D03*
X102493000Y-117478200D03*
X118773505Y-85150538D03*
X112480800Y-89735800D03*
X114436600Y-95400000D03*
X103514600Y-102475100D03*
X118154600Y-83741400D03*
X103451100Y-94218900D03*
X116214600Y-84401800D03*
X122564600Y-80617200D03*
X102612900Y-122387500D03*
D15*
X106689600Y-112875200D02*
X108569200Y-114754800D01*
X115782800Y-114754800D02*
X117357600Y-113180000D01*
X106121200Y-115550800D02*
X107179400Y-116609000D01*
X106689600Y-108862000D02*
X106689600Y-112875200D01*
X110931400Y-115720000D02*
X116265400Y-115720000D01*
X117357600Y-113180000D02*
X118754600Y-113180000D01*
X106121200Y-114373800D02*
X106121200Y-115550800D01*
X108569200Y-114754800D02*
X115782800Y-114754800D01*
X110042400Y-116609000D02*
X110931400Y-115720000D01*
X107179400Y-116609000D02*
X110042400Y-116609000D01*
X127070000Y-93561600D02*
X127070000Y-78010600D01*
X127070000Y-78010600D02*
X120659600Y-71600200D01*
D16*
X100517400Y-108811200D02*
X100517400Y-99946600D01*
D15*
X100516300Y-99947700D02*
X100517400Y-99946600D01*
D16*
X100517400Y-127607200D02*
X100517400Y-108811200D01*
D15*
X127060400Y-93571200D02*
X127070000Y-93561600D01*
D16*
X109890000Y-133500000D02*
X106410200Y-133500000D01*
X106410200Y-133500000D02*
X100517400Y-127607200D01*
D15*
X107756400Y-71600200D02*
X100517400Y-78839200D01*
X120659600Y-71600200D02*
X110626600Y-71600200D01*
X110626600Y-71600200D02*
X107756400Y-71600200D01*
X100517400Y-78839200D02*
X100517400Y-99946600D01*
X122102119Y-107569504D02*
X121647296Y-107569504D01*
X121647296Y-107569504D02*
X120050000Y-109166800D01*
X120050000Y-109166800D02*
X115274800Y-109166800D01*
X115274800Y-109166800D02*
X113801600Y-110640000D01*
X113801600Y-110640000D02*
X108645400Y-110640000D01*
X123141265Y-88549535D02*
X119694400Y-91996400D01*
X119694400Y-91996400D02*
X113293600Y-91996400D01*
X113293600Y-91996400D02*
X112430000Y-92860000D01*
X112430000Y-92860000D02*
X111134600Y-92860000D01*
X123156335Y-88549535D02*
X123141265Y-88549535D01*
X107893000Y-128420000D02*
X111134600Y-128420000D01*
X106867400Y-127394400D02*
X107893000Y-128420000D01*
X127670000Y-101191200D02*
X127670000Y-104151372D01*
X127670000Y-104151372D02*
X120317772Y-111503600D01*
X120317772Y-111503600D02*
X117941800Y-111503600D01*
X117941800Y-111503600D02*
X116265400Y-113180000D01*
X116265400Y-113180000D02*
X111134600Y-113180000D01*
X111769600Y-85240000D02*
X108645400Y-85240000D01*
X125485600Y-103045400D02*
X119415000Y-96974800D01*
X118655541Y-89481800D02*
X116011400Y-89481800D01*
X116011400Y-89481800D02*
X111769600Y-85240000D01*
X119237200Y-90063459D02*
X118655541Y-89481800D01*
X119415000Y-96974800D02*
X119259600Y-96974800D01*
X127070000Y-103045400D02*
X125485600Y-103045400D01*
X104624665Y-104561865D02*
X108162800Y-108100000D01*
X108162800Y-108100000D02*
X111134600Y-108100000D01*
X104614335Y-104561865D02*
X104624665Y-104561865D01*
X116417800Y-77620000D02*
X117256000Y-76781800D01*
X123885400Y-80388600D02*
X123885400Y-88669000D01*
X120616335Y-91938065D02*
X120601265Y-91938065D01*
X117256000Y-76781800D02*
X120278600Y-76781800D01*
X111134600Y-77620000D02*
X116417800Y-77620000D01*
X120278600Y-76781800D02*
X123885400Y-80388600D01*
X123885400Y-88669000D02*
X120616335Y-91938065D01*
X124901400Y-94003000D02*
X122640800Y-96263600D01*
X122640800Y-96263600D02*
X113471400Y-96263600D01*
X113471400Y-96263600D02*
X112607800Y-95400000D01*
X112607800Y-95400000D02*
X108645400Y-95400000D01*
X124901400Y-86992600D02*
X124901400Y-94003000D01*
X112176000Y-130960000D02*
X108645400Y-130960000D01*
X113522200Y-126480000D02*
X113522200Y-129613800D01*
X113522200Y-129613800D02*
X112176000Y-130960000D01*
X120659600Y-104483600D02*
X120659600Y-102512000D01*
X120659600Y-102512000D02*
X116100400Y-97952800D01*
X105927600Y-96104314D02*
X105927600Y-81633200D01*
X107776086Y-97952800D02*
X105927600Y-96104314D01*
X105927600Y-81633200D02*
X107400800Y-80160000D01*
X107400800Y-80160000D02*
X108645400Y-80160000D01*
X120624600Y-104518600D02*
X120659600Y-104483600D01*
X116100400Y-97952800D02*
X107776086Y-97952800D01*
X108264400Y-101699200D02*
X109585200Y-103020000D01*
X109585200Y-103020000D02*
X111134600Y-103020000D01*
X107299200Y-105560000D02*
X108645400Y-105560000D01*
X104814300Y-103075100D02*
X107299200Y-105560000D01*
X104784600Y-103075100D02*
X104814300Y-103075100D01*
X112531600Y-123340000D02*
X111134600Y-123340000D01*
X113496800Y-122374800D02*
X112531600Y-123340000D01*
X108645400Y-92809200D02*
X108645400Y-90320000D01*
X122971000Y-93672800D02*
X109509000Y-93672800D01*
X109509000Y-93672800D02*
X108645400Y-92809200D01*
X123275800Y-93368000D02*
X122971000Y-93672800D01*
X119952078Y-89616520D02*
X119417358Y-89081800D01*
X112861800Y-83208000D02*
X112353800Y-82700000D01*
X112861800Y-85766514D02*
X112861800Y-83208000D01*
X112353800Y-82700000D02*
X111134600Y-82700000D01*
X119417358Y-89081800D02*
X116177086Y-89081800D01*
X116177086Y-89081800D02*
X112861800Y-85766514D01*
X108645400Y-99641800D02*
X108645400Y-100480000D01*
X106080000Y-113154600D02*
X108645400Y-115720000D01*
X106080000Y-108262000D02*
X106080000Y-113154600D01*
X108137400Y-118260000D02*
X111134600Y-118260000D01*
X105384600Y-107617400D02*
X105394200Y-107627000D01*
X105394200Y-107627000D02*
X105394200Y-115516800D01*
X105394200Y-115516800D02*
X108137400Y-118260000D01*
X112226800Y-87780000D02*
X111134600Y-87780000D01*
X122640800Y-94282400D02*
X114624000Y-94282400D01*
X123199600Y-94841200D02*
X122640800Y-94282400D01*
X113852400Y-89405600D02*
X112226800Y-87780000D01*
X114624000Y-94282400D02*
X114614400Y-94272800D01*
X114304435Y-123268965D02*
X111693400Y-125880000D01*
X114314765Y-123268965D02*
X114304435Y-123268965D01*
X111693400Y-125880000D02*
X108645400Y-125880000D01*
X116265400Y-130960000D02*
X116265000Y-130960000D01*
X116265400Y-129512200D02*
X116265400Y-130960000D01*
X115732000Y-128978800D02*
X116265400Y-129512200D01*
X107426200Y-106525200D02*
X115681200Y-106525200D01*
X117256000Y-108100000D02*
X118754600Y-108100000D01*
X103514600Y-103731200D02*
X104632200Y-103731200D01*
X104632200Y-103731200D02*
X107426200Y-106525200D01*
X115681200Y-106525200D02*
X117256000Y-108100000D01*
X123402800Y-106033000D02*
X123402800Y-107852886D01*
X120615686Y-110640000D02*
X116265400Y-110640000D01*
X123402800Y-107852886D02*
X120615686Y-110640000D01*
X118102000Y-86136800D02*
X118754600Y-86789400D01*
X118102000Y-84719978D02*
X118102000Y-86136800D01*
X118754600Y-86789400D02*
X118754600Y-87780000D01*
X118100322Y-84718300D02*
X118102000Y-84719978D01*
X120126200Y-118260000D02*
X118754600Y-118260000D01*
X120583400Y-117802800D02*
X120126200Y-118260000D01*
X116097929Y-103020000D02*
X118754600Y-103020000D01*
X106816600Y-98752800D02*
X111830729Y-98752800D01*
X103514600Y-95450800D02*
X106816600Y-98752800D01*
X111830729Y-98752800D02*
X116097929Y-103020000D01*
X113476565Y-92788965D02*
X113547600Y-92860000D01*
X113547600Y-92860000D02*
X118754600Y-92860000D01*
X106602200Y-121587400D02*
X115605000Y-121587400D01*
X117357600Y-123340000D02*
X118754600Y-123340000D01*
X115605000Y-121587400D02*
X117357600Y-123340000D01*
X102493000Y-117478200D02*
X106602200Y-121587400D01*
X118754600Y-85131633D02*
X118754600Y-82700000D01*
X118773505Y-85150538D02*
X118754600Y-85131633D01*
X113065000Y-90320000D02*
X116265400Y-90320000D01*
X112480800Y-89735800D02*
X113065000Y-90320000D01*
X114436600Y-95400000D02*
X116265400Y-95400000D01*
X110931400Y-105560000D02*
X116265400Y-105560000D01*
X105585900Y-102475100D02*
X107654800Y-104544000D01*
X109915400Y-104544000D02*
X110931400Y-105560000D01*
X103514600Y-102475100D02*
X105585900Y-102475100D01*
X107654800Y-104544000D02*
X109915400Y-104544000D01*
X118129200Y-83716000D02*
X117154400Y-83716000D01*
X117154400Y-83716000D02*
X116265400Y-82827000D01*
X116265400Y-82827000D02*
X116265400Y-80160000D01*
X118154600Y-83741400D02*
X118129200Y-83716000D01*
X107610400Y-98352800D02*
X114138200Y-98352800D01*
X114138200Y-98352800D02*
X116265400Y-100480000D01*
X103451100Y-94218900D02*
X103476500Y-94218900D01*
X103476500Y-94218900D02*
X107610400Y-98352800D01*
X116214600Y-84401800D02*
X116265400Y-84452600D01*
X116265400Y-84452600D02*
X116265400Y-85240000D01*
X122564600Y-80312400D02*
X119872200Y-77620000D01*
X122564600Y-80617200D02*
X122564600Y-80312400D01*
X119872200Y-77620000D02*
X118754600Y-77620000D01*
X107019800Y-126794400D02*
X111863016Y-126794400D01*
X112777416Y-125880000D02*
X116265400Y-125880000D01*
X111863016Y-126794400D02*
X112777416Y-125880000D01*
X102612900Y-122387500D02*
X107019800Y-126794400D01*
G04 #@! TA.AperFunction,Conductor*
G36*
X114655845Y-110448889D02*
G01*
X114699110Y-110492154D01*
X114709900Y-110537099D01*
X114709900Y-111184860D01*
X114709901Y-111184863D01*
X114712814Y-111209990D01*
X114730155Y-111249262D01*
X114758194Y-111312765D01*
X114837635Y-111392206D01*
X114940409Y-111437585D01*
X114965535Y-111440500D01*
X117199499Y-111440499D01*
X117257690Y-111459406D01*
X117293654Y-111508906D01*
X117293654Y-111570092D01*
X117269503Y-111609503D01*
X116128503Y-112750504D01*
X116073986Y-112778281D01*
X116058499Y-112779500D01*
X112789099Y-112779500D01*
X112730908Y-112760593D01*
X112694944Y-112711093D01*
X112690099Y-112680500D01*
X112690099Y-112635139D01*
X112690099Y-112635136D01*
X112687185Y-112610009D01*
X112641806Y-112507235D01*
X112562365Y-112427794D01*
X112459591Y-112382415D01*
X112459590Y-112382414D01*
X112459588Y-112382414D01*
X112434468Y-112379500D01*
X109834739Y-112379500D01*
X109834736Y-112379501D01*
X109809609Y-112382414D01*
X109706835Y-112427794D01*
X109627394Y-112507235D01*
X109582014Y-112610011D01*
X109579100Y-112635130D01*
X109579100Y-113724860D01*
X109579101Y-113724863D01*
X109582014Y-113749990D01*
X109592307Y-113773300D01*
X109627394Y-113852765D01*
X109706835Y-113932206D01*
X109809609Y-113977585D01*
X109834735Y-113980500D01*
X112434464Y-113980499D01*
X112459591Y-113977585D01*
X112562365Y-113932206D01*
X112641806Y-113852765D01*
X112687185Y-113749991D01*
X112690100Y-113724865D01*
X112690100Y-113679500D01*
X112709007Y-113621309D01*
X112758507Y-113585345D01*
X112789100Y-113580500D01*
X116151699Y-113580500D01*
X116209890Y-113599407D01*
X116245854Y-113648907D01*
X116245854Y-113710093D01*
X116221703Y-113749504D01*
X115645903Y-114325304D01*
X115591386Y-114353081D01*
X115575899Y-114354300D01*
X108776101Y-114354300D01*
X108717910Y-114335393D01*
X108706097Y-114325304D01*
X107119096Y-112738303D01*
X107091319Y-112683786D01*
X107090100Y-112668299D01*
X107090100Y-111487827D01*
X107109007Y-111429636D01*
X107158507Y-111393672D01*
X107219693Y-111393672D01*
X107229071Y-111397255D01*
X107320409Y-111437585D01*
X107345535Y-111440500D01*
X109945264Y-111440499D01*
X109970391Y-111437585D01*
X110073165Y-111392206D01*
X110152606Y-111312765D01*
X110197985Y-111209991D01*
X110200900Y-111184865D01*
X110200900Y-111139500D01*
X110219807Y-111081309D01*
X110269307Y-111045345D01*
X110299900Y-111040500D01*
X113854325Y-111040500D01*
X113854327Y-111040500D01*
X113956188Y-111013207D01*
X113956190Y-111013205D01*
X113956192Y-111013205D01*
X114047508Y-110960483D01*
X114047508Y-110960482D01*
X114047513Y-110960480D01*
X114540898Y-110467093D01*
X114595413Y-110439318D01*
X114655845Y-110448889D01*
G37*
G04 #@! TD.AperFunction*
G04 #@! TA.AperFunction,Conductor*
G36*
X124454901Y-87395337D02*
G01*
X124471905Y-87412341D01*
X124499681Y-87466856D01*
X124500900Y-87482343D01*
X124500900Y-93796098D01*
X124481993Y-93854289D01*
X124471904Y-93866102D01*
X123839212Y-94498793D01*
X123784695Y-94526570D01*
X123724263Y-94516999D01*
X123683473Y-94478291D01*
X123680121Y-94472486D01*
X123680120Y-94472484D01*
X123568316Y-94360680D01*
X123431384Y-94281623D01*
X123278657Y-94240700D01*
X123278655Y-94240700D01*
X123206501Y-94240700D01*
X123198903Y-94238231D01*
X123191014Y-94239481D01*
X123170358Y-94228956D01*
X123148310Y-94221793D01*
X123136497Y-94211704D01*
X123118687Y-94193894D01*
X123090910Y-94139377D01*
X123100481Y-94078945D01*
X123139191Y-94038154D01*
X123216908Y-93993283D01*
X123216908Y-93993282D01*
X123216913Y-93993280D01*
X123216916Y-93993276D01*
X123222059Y-93989331D01*
X123223931Y-93991771D01*
X123267213Y-93969719D01*
X123282700Y-93968500D01*
X123354855Y-93968500D01*
X123354857Y-93968500D01*
X123507584Y-93927577D01*
X123644516Y-93848520D01*
X123756320Y-93736716D01*
X123835377Y-93599784D01*
X123876300Y-93447057D01*
X123876300Y-93288943D01*
X123835377Y-93136216D01*
X123756320Y-92999284D01*
X123644516Y-92887480D01*
X123507584Y-92808423D01*
X123354857Y-92767500D01*
X123196743Y-92767500D01*
X123044016Y-92808423D01*
X122907084Y-92887480D01*
X122795280Y-92999284D01*
X122716223Y-93136216D01*
X122706287Y-93173300D01*
X122699421Y-93198923D01*
X122666097Y-93250238D01*
X122608975Y-93272164D01*
X122603794Y-93272300D01*
X120409100Y-93272300D01*
X120350909Y-93253393D01*
X120314945Y-93203893D01*
X120310100Y-93173300D01*
X120310100Y-92937499D01*
X120310099Y-92610748D01*
X120329006Y-92552558D01*
X120378506Y-92516594D01*
X120434721Y-92515123D01*
X120522208Y-92538565D01*
X120522209Y-92538565D01*
X120680320Y-92538565D01*
X120680322Y-92538565D01*
X120833049Y-92497642D01*
X120969981Y-92418585D01*
X121081785Y-92306781D01*
X121160842Y-92169849D01*
X121201765Y-92017122D01*
X121201765Y-91960035D01*
X121220672Y-91901844D01*
X121230755Y-91890037D01*
X124205880Y-88914913D01*
X124258607Y-88823588D01*
X124285900Y-88721727D01*
X124285900Y-88616273D01*
X124285900Y-87465343D01*
X124304807Y-87407152D01*
X124354307Y-87371188D01*
X124415493Y-87371188D01*
X124454901Y-87395337D01*
G37*
G04 #@! TD.AperFunction*
G04 #@! TA.AperFunction,Conductor*
G36*
X128309309Y-70100877D02*
G01*
X128499457Y-70117512D01*
X128516437Y-70120505D01*
X128696635Y-70168789D01*
X128712839Y-70174687D01*
X128881902Y-70253523D01*
X128896842Y-70262149D01*
X129049641Y-70369140D01*
X129062861Y-70380232D01*
X129194767Y-70512138D01*
X129205859Y-70525358D01*
X129312850Y-70678157D01*
X129321478Y-70693101D01*
X129400308Y-70862151D01*
X129406211Y-70878368D01*
X129454492Y-71058555D01*
X129457488Y-71075550D01*
X129474123Y-71265690D01*
X129474500Y-71274318D01*
X129474500Y-137305681D01*
X129474123Y-137314309D01*
X129457488Y-137504449D01*
X129454492Y-137521444D01*
X129406211Y-137701631D01*
X129400308Y-137717848D01*
X129321478Y-137886898D01*
X129312850Y-137901842D01*
X129205859Y-138054641D01*
X129194767Y-138067861D01*
X129062861Y-138199767D01*
X129049641Y-138210859D01*
X128896842Y-138317850D01*
X128881898Y-138326478D01*
X128712848Y-138405308D01*
X128696631Y-138411211D01*
X128516444Y-138459492D01*
X128499449Y-138462488D01*
X128309309Y-138479123D01*
X128300681Y-138479500D01*
X99099319Y-138479500D01*
X99090691Y-138479123D01*
X98900550Y-138462488D01*
X98883555Y-138459492D01*
X98703368Y-138411211D01*
X98687154Y-138405309D01*
X98518100Y-138326477D01*
X98503157Y-138317850D01*
X98350358Y-138210859D01*
X98337138Y-138199767D01*
X98205232Y-138067861D01*
X98194140Y-138054641D01*
X98087149Y-137901842D01*
X98078523Y-137886902D01*
X97999687Y-137717839D01*
X97993788Y-137701631D01*
X97974843Y-137630926D01*
X97945505Y-137521437D01*
X97942512Y-137504457D01*
X97925877Y-137314309D01*
X97925500Y-137305681D01*
X97925500Y-110258779D01*
X99681600Y-110258779D01*
X99681600Y-110818020D01*
X99691983Y-110904479D01*
X99745624Y-111040500D01*
X99746238Y-111042058D01*
X99835600Y-111159900D01*
X99868524Y-111184867D01*
X99953442Y-111249262D01*
X99958679Y-111252207D01*
X100000133Y-111297210D01*
X100007219Y-111357983D01*
X99977229Y-111411315D01*
X99958682Y-111424791D01*
X99953443Y-111427736D01*
X99835603Y-111517097D01*
X99835597Y-111517103D01*
X99746238Y-111634941D01*
X99691983Y-111772520D01*
X99681600Y-111858979D01*
X99681600Y-112418220D01*
X99691983Y-112504679D01*
X99733521Y-112610011D01*
X99746238Y-112642258D01*
X99835600Y-112760100D01*
X99861183Y-112779500D01*
X99953443Y-112849463D01*
X99954214Y-112849767D01*
X99954707Y-112850174D01*
X99959347Y-112852783D01*
X99958879Y-112853615D01*
X100001413Y-112888701D01*
X100016900Y-112941866D01*
X100016900Y-127541308D01*
X100016900Y-127673092D01*
X100041021Y-127763115D01*
X100051009Y-127800390D01*
X100116896Y-127914509D01*
X100116898Y-127914511D01*
X100116900Y-127914514D01*
X106102886Y-133900500D01*
X106102888Y-133900501D01*
X106102890Y-133900503D01*
X106217010Y-133966390D01*
X106217008Y-133966390D01*
X106217012Y-133966391D01*
X106217014Y-133966392D01*
X106344308Y-134000500D01*
X106476093Y-134000500D01*
X108793113Y-134000500D01*
X108851304Y-134019407D01*
X108881322Y-134054554D01*
X108906004Y-134102994D01*
X109012447Y-134249501D01*
X109140499Y-134377553D01*
X109287006Y-134483996D01*
X109448361Y-134566211D01*
X109620591Y-134622171D01*
X109692136Y-134633502D01*
X109799451Y-134650500D01*
X109799454Y-134650500D01*
X109980549Y-134650500D01*
X110069977Y-134636335D01*
X110159409Y-134622171D01*
X110331639Y-134566211D01*
X110492994Y-134483996D01*
X110639501Y-134377553D01*
X110767553Y-134249501D01*
X110873996Y-134102994D01*
X110956211Y-133941639D01*
X111012171Y-133769409D01*
X111040500Y-133590546D01*
X111040500Y-133409454D01*
X111040500Y-133409450D01*
X116359500Y-133409450D01*
X116359500Y-133590549D01*
X116387828Y-133769406D01*
X116387829Y-133769409D01*
X116443789Y-133941639D01*
X116526004Y-134102994D01*
X116632447Y-134249501D01*
X116760499Y-134377553D01*
X116907006Y-134483996D01*
X117068361Y-134566211D01*
X117240591Y-134622171D01*
X117312136Y-134633502D01*
X117419451Y-134650500D01*
X117419454Y-134650500D01*
X117600549Y-134650500D01*
X117689977Y-134636335D01*
X117779409Y-134622171D01*
X117951639Y-134566211D01*
X118112994Y-134483996D01*
X118259501Y-134377553D01*
X118387553Y-134249501D01*
X118493996Y-134102994D01*
X118576211Y-133941639D01*
X118632171Y-133769409D01*
X118660500Y-133590546D01*
X118660500Y-133409454D01*
X118660500Y-133409450D01*
X118632171Y-133230593D01*
X118632171Y-133230591D01*
X118576211Y-133058361D01*
X118493996Y-132897006D01*
X118387553Y-132750499D01*
X118259501Y-132622447D01*
X118112994Y-132516004D01*
X118112993Y-132516003D01*
X118112991Y-132516002D01*
X117951637Y-132433788D01*
X117779406Y-132377828D01*
X117600549Y-132349500D01*
X117600546Y-132349500D01*
X117419454Y-132349500D01*
X117419451Y-132349500D01*
X117240593Y-132377828D01*
X117068362Y-132433788D01*
X116907008Y-132516002D01*
X116833752Y-132569225D01*
X116760499Y-132622447D01*
X116632447Y-132750499D01*
X116579225Y-132823752D01*
X116526002Y-132897008D01*
X116443788Y-133058362D01*
X116387828Y-133230593D01*
X116359500Y-133409450D01*
X111040500Y-133409450D01*
X111012171Y-133230593D01*
X111012171Y-133230591D01*
X110956211Y-133058361D01*
X110873996Y-132897006D01*
X110767553Y-132750499D01*
X110639501Y-132622447D01*
X110492994Y-132516004D01*
X110492993Y-132516003D01*
X110492991Y-132516002D01*
X110331637Y-132433788D01*
X110159406Y-132377828D01*
X109980549Y-132349500D01*
X109980546Y-132349500D01*
X109799454Y-132349500D01*
X109799451Y-132349500D01*
X109620593Y-132377828D01*
X109448362Y-132433788D01*
X109287008Y-132516002D01*
X109213752Y-132569225D01*
X109140499Y-132622447D01*
X109012447Y-132750499D01*
X108959225Y-132823752D01*
X108906002Y-132897008D01*
X108881323Y-132945445D01*
X108838058Y-132988710D01*
X108793113Y-132999500D01*
X106658522Y-132999500D01*
X106600331Y-132980593D01*
X106588518Y-132970504D01*
X101046896Y-127428882D01*
X101019119Y-127374365D01*
X101017900Y-127358878D01*
X101017900Y-117399143D01*
X101892500Y-117399143D01*
X101892500Y-117557257D01*
X101933423Y-117709984D01*
X102012480Y-117846916D01*
X102124284Y-117958720D01*
X102261216Y-118037777D01*
X102413943Y-118078700D01*
X102486099Y-118078700D01*
X102544290Y-118097607D01*
X102556103Y-118107696D01*
X106281720Y-121833313D01*
X106281719Y-121833313D01*
X106355387Y-121906980D01*
X106356287Y-121907880D01*
X106447613Y-121960607D01*
X106549473Y-121987900D01*
X106654927Y-121987900D01*
X112855306Y-121987900D01*
X112913497Y-122006807D01*
X112949461Y-122056307D01*
X112949461Y-122117493D01*
X112941044Y-122136398D01*
X112937223Y-122143015D01*
X112896300Y-122295744D01*
X112896300Y-122367899D01*
X112877393Y-122426090D01*
X112867303Y-122437903D01*
X112709891Y-122595314D01*
X112655375Y-122623091D01*
X112594943Y-122613520D01*
X112569887Y-122595316D01*
X112562365Y-122587794D01*
X112459591Y-122542415D01*
X112459590Y-122542414D01*
X112459588Y-122542414D01*
X112434468Y-122539500D01*
X109834739Y-122539500D01*
X109834736Y-122539501D01*
X109809609Y-122542414D01*
X109706835Y-122587794D01*
X109627394Y-122667235D01*
X109582014Y-122770011D01*
X109579100Y-122795130D01*
X109579100Y-123884860D01*
X109579101Y-123884863D01*
X109582014Y-123909990D01*
X109607356Y-123967385D01*
X109627394Y-124012765D01*
X109706835Y-124092206D01*
X109809609Y-124137585D01*
X109834735Y-124140500D01*
X112434464Y-124140499D01*
X112459591Y-124137585D01*
X112562365Y-124092206D01*
X112641806Y-124012765D01*
X112687185Y-123909991D01*
X112690100Y-123884865D01*
X112690099Y-123768104D01*
X112709006Y-123709915D01*
X112739597Y-123682370D01*
X112777513Y-123660480D01*
X113433697Y-123004296D01*
X113435950Y-123003147D01*
X113437206Y-123000956D01*
X113449755Y-122996113D01*
X113488214Y-122976519D01*
X113493016Y-122975878D01*
X113498340Y-122975300D01*
X113575857Y-122975300D01*
X113628657Y-122961152D01*
X113636230Y-122960330D01*
X113659078Y-122965105D01*
X113682393Y-122966327D01*
X113688469Y-122971247D01*
X113696121Y-122972847D01*
X113711798Y-122990139D01*
X113729943Y-123004832D01*
X113731966Y-123012383D01*
X113737218Y-123018176D01*
X113739737Y-123041385D01*
X113745779Y-123063933D01*
X113743646Y-123077398D01*
X113743821Y-123079004D01*
X113743228Y-123080038D01*
X113742542Y-123084374D01*
X113714265Y-123189908D01*
X113714265Y-123251734D01*
X113695358Y-123309925D01*
X113685269Y-123321738D01*
X111556503Y-125450504D01*
X111501986Y-125478281D01*
X111486499Y-125479500D01*
X110299899Y-125479500D01*
X110241708Y-125460593D01*
X110205744Y-125411093D01*
X110200899Y-125380500D01*
X110200899Y-125335139D01*
X110200899Y-125335136D01*
X110197985Y-125310009D01*
X110152606Y-125207235D01*
X110073165Y-125127794D01*
X109970391Y-125082415D01*
X109970390Y-125082414D01*
X109970388Y-125082414D01*
X109945268Y-125079500D01*
X107345539Y-125079500D01*
X107345536Y-125079501D01*
X107320409Y-125082414D01*
X107217635Y-125127794D01*
X107138194Y-125207235D01*
X107092814Y-125310011D01*
X107089900Y-125335130D01*
X107089900Y-126059099D01*
X107070993Y-126117290D01*
X107021493Y-126153254D01*
X106960307Y-126153254D01*
X106920896Y-126129103D01*
X103242396Y-122450603D01*
X103214619Y-122396086D01*
X103213400Y-122380599D01*
X103213400Y-122308444D01*
X103209997Y-122295743D01*
X103172477Y-122155716D01*
X103093420Y-122018784D01*
X102981616Y-121906980D01*
X102844684Y-121827923D01*
X102691957Y-121787000D01*
X102533843Y-121787000D01*
X102381116Y-121827923D01*
X102244184Y-121906980D01*
X102132380Y-122018784D01*
X102053323Y-122155716D01*
X102012400Y-122308443D01*
X102012400Y-122466557D01*
X102053323Y-122619284D01*
X102132380Y-122756216D01*
X102244184Y-122868020D01*
X102381116Y-122947077D01*
X102533843Y-122988000D01*
X102605999Y-122988000D01*
X102664190Y-123006907D01*
X102676003Y-123016996D01*
X106465782Y-126806774D01*
X106493559Y-126861291D01*
X106483988Y-126921723D01*
X106465782Y-126946781D01*
X106386882Y-127025681D01*
X106386880Y-127025683D01*
X106386880Y-127025684D01*
X106307823Y-127162616D01*
X106266900Y-127315343D01*
X106266900Y-127473457D01*
X106307823Y-127626184D01*
X106386880Y-127763116D01*
X106498684Y-127874920D01*
X106635616Y-127953977D01*
X106788343Y-127994900D01*
X106860499Y-127994900D01*
X106918690Y-128013807D01*
X106930503Y-128023896D01*
X107572520Y-128665913D01*
X107572519Y-128665913D01*
X107647087Y-128740480D01*
X107738413Y-128793207D01*
X107840273Y-128820500D01*
X107945727Y-128820500D01*
X109480101Y-128820500D01*
X109538292Y-128839407D01*
X109574256Y-128888907D01*
X109579101Y-128919500D01*
X109579101Y-128964863D01*
X109582014Y-128989990D01*
X109592133Y-129012907D01*
X109627394Y-129092765D01*
X109706835Y-129172206D01*
X109809609Y-129217585D01*
X109834735Y-129220500D01*
X112434464Y-129220499D01*
X112459591Y-129217585D01*
X112562365Y-129172206D01*
X112641806Y-129092765D01*
X112687185Y-128989991D01*
X112690100Y-128964865D01*
X112690099Y-127875136D01*
X112687185Y-127850009D01*
X112641806Y-127747235D01*
X112562365Y-127667794D01*
X112459591Y-127622415D01*
X112459590Y-127622414D01*
X112459588Y-127622414D01*
X112434468Y-127619500D01*
X109834739Y-127619500D01*
X109834736Y-127619501D01*
X109809609Y-127622414D01*
X109706835Y-127667794D01*
X109627394Y-127747235D01*
X109582014Y-127850011D01*
X109579100Y-127875130D01*
X109579100Y-127920500D01*
X109560193Y-127978691D01*
X109510693Y-128014655D01*
X109480100Y-128019500D01*
X108099901Y-128019500D01*
X108041710Y-128000593D01*
X108029897Y-127990504D01*
X107496896Y-127457503D01*
X107493814Y-127451454D01*
X107488231Y-127447600D01*
X107481080Y-127426462D01*
X107469119Y-127402986D01*
X107467929Y-127389881D01*
X107467900Y-127388676D01*
X107467900Y-127315343D01*
X107465960Y-127308105D01*
X107465676Y-127296282D01*
X107471211Y-127277738D01*
X107472226Y-127258413D01*
X107479754Y-127249117D01*
X107483177Y-127237653D01*
X107498558Y-127225902D01*
X107510736Y-127210867D01*
X107522989Y-127207237D01*
X107531797Y-127200509D01*
X107546940Y-127200144D01*
X107564647Y-127194900D01*
X111915741Y-127194900D01*
X111915743Y-127194900D01*
X112017604Y-127167607D01*
X112017606Y-127167605D01*
X112017608Y-127167605D01*
X112108924Y-127114883D01*
X112108924Y-127114882D01*
X112108929Y-127114880D01*
X112752698Y-126471110D01*
X112807213Y-126443335D01*
X112867645Y-126452906D01*
X112910910Y-126496171D01*
X112921700Y-126541116D01*
X112921700Y-126559057D01*
X112962623Y-126711784D01*
X113041680Y-126848716D01*
X113092705Y-126899741D01*
X113120481Y-126954256D01*
X113121700Y-126969743D01*
X113121700Y-129406899D01*
X113102793Y-129465090D01*
X113092704Y-129476903D01*
X112039103Y-130530504D01*
X111984586Y-130558281D01*
X111969099Y-130559500D01*
X110299899Y-130559500D01*
X110241708Y-130540593D01*
X110205744Y-130491093D01*
X110200899Y-130460500D01*
X110200899Y-130415139D01*
X110200899Y-130415136D01*
X110197985Y-130390009D01*
X110152606Y-130287235D01*
X110073165Y-130207794D01*
X109970391Y-130162415D01*
X109970390Y-130162414D01*
X109970388Y-130162414D01*
X109945268Y-130159500D01*
X107345539Y-130159500D01*
X107345536Y-130159501D01*
X107320409Y-130162414D01*
X107217635Y-130207794D01*
X107138194Y-130287235D01*
X107092814Y-130390011D01*
X107089900Y-130415130D01*
X107089900Y-131504860D01*
X107089901Y-131504863D01*
X107092814Y-131529990D01*
X107118156Y-131587385D01*
X107138194Y-131632765D01*
X107217635Y-131712206D01*
X107320409Y-131757585D01*
X107345535Y-131760500D01*
X109945264Y-131760499D01*
X109970391Y-131757585D01*
X110073165Y-131712206D01*
X110152606Y-131632765D01*
X110197985Y-131529991D01*
X110200900Y-131504865D01*
X110200900Y-131459500D01*
X110219807Y-131401309D01*
X110269307Y-131365345D01*
X110299900Y-131360500D01*
X112228725Y-131360500D01*
X112228727Y-131360500D01*
X112330588Y-131333207D01*
X112330590Y-131333205D01*
X112330592Y-131333205D01*
X112421908Y-131280483D01*
X112421908Y-131280482D01*
X112421913Y-131280480D01*
X113287263Y-130415130D01*
X114709900Y-130415130D01*
X114709900Y-131504860D01*
X114709901Y-131504863D01*
X114712814Y-131529990D01*
X114738156Y-131587385D01*
X114758194Y-131632765D01*
X114837635Y-131712206D01*
X114940409Y-131757585D01*
X114965535Y-131760500D01*
X117565264Y-131760499D01*
X117590391Y-131757585D01*
X117693165Y-131712206D01*
X117772606Y-131632765D01*
X117817985Y-131529991D01*
X117820900Y-131504865D01*
X117820899Y-130415136D01*
X117817985Y-130390009D01*
X117772606Y-130287235D01*
X117693165Y-130207794D01*
X117590391Y-130162415D01*
X117590390Y-130162414D01*
X117590388Y-130162414D01*
X117565269Y-130159500D01*
X117565265Y-130159500D01*
X116764900Y-130159500D01*
X116706709Y-130140593D01*
X116670745Y-130091093D01*
X116665900Y-130060500D01*
X116665900Y-129572914D01*
X116665901Y-129572901D01*
X116665901Y-129459476D01*
X116665901Y-129459474D01*
X116638607Y-129357613D01*
X116585880Y-129266287D01*
X116511313Y-129191720D01*
X116511310Y-129191718D01*
X116507855Y-129188262D01*
X116507849Y-129188257D01*
X116361496Y-129041903D01*
X116333719Y-128987387D01*
X116332500Y-128971900D01*
X116332500Y-128899744D01*
X116332500Y-128899743D01*
X116291577Y-128747016D01*
X116212520Y-128610084D01*
X116100716Y-128498280D01*
X115963784Y-128419223D01*
X115811057Y-128378300D01*
X115652943Y-128378300D01*
X115500216Y-128419223D01*
X115363284Y-128498280D01*
X115251480Y-128610084D01*
X115172423Y-128747016D01*
X115131500Y-128899743D01*
X115131500Y-129057857D01*
X115172423Y-129210584D01*
X115251480Y-129347516D01*
X115363284Y-129459320D01*
X115500216Y-129538377D01*
X115652943Y-129579300D01*
X115725100Y-129579300D01*
X115732697Y-129581768D01*
X115740587Y-129580519D01*
X115761242Y-129591043D01*
X115783291Y-129598207D01*
X115795104Y-129608296D01*
X115835904Y-129649096D01*
X115863681Y-129703613D01*
X115864900Y-129719100D01*
X115864900Y-130060500D01*
X115845993Y-130118691D01*
X115796493Y-130154655D01*
X115765900Y-130159500D01*
X114965539Y-130159500D01*
X114965536Y-130159501D01*
X114940409Y-130162414D01*
X114837635Y-130207794D01*
X114758194Y-130287235D01*
X114712814Y-130390011D01*
X114709900Y-130415130D01*
X113287263Y-130415130D01*
X113842680Y-129859713D01*
X113895407Y-129768388D01*
X113922700Y-129666527D01*
X113922700Y-129561073D01*
X113922700Y-127875130D01*
X117199100Y-127875130D01*
X117199100Y-128964860D01*
X117199101Y-128964863D01*
X117202014Y-128989990D01*
X117212133Y-129012907D01*
X117247394Y-129092765D01*
X117326835Y-129172206D01*
X117429609Y-129217585D01*
X117454735Y-129220500D01*
X120054464Y-129220499D01*
X120079591Y-129217585D01*
X120182365Y-129172206D01*
X120261806Y-129092765D01*
X120307185Y-128989991D01*
X120310100Y-128964865D01*
X120310099Y-127875136D01*
X120307185Y-127850009D01*
X120261806Y-127747235D01*
X120182365Y-127667794D01*
X120079591Y-127622415D01*
X120079590Y-127622414D01*
X120079588Y-127622414D01*
X120054468Y-127619500D01*
X117454739Y-127619500D01*
X117454736Y-127619501D01*
X117429609Y-127622414D01*
X117326835Y-127667794D01*
X117247394Y-127747235D01*
X117202014Y-127850011D01*
X117199100Y-127875130D01*
X113922700Y-127875130D01*
X113922700Y-126969743D01*
X113941607Y-126911552D01*
X113951690Y-126899745D01*
X114002720Y-126848716D01*
X114081777Y-126711784D01*
X114122700Y-126559057D01*
X114122700Y-126400943D01*
X114122700Y-126400942D01*
X114121853Y-126394509D01*
X114124392Y-126394174D01*
X114127026Y-126344013D01*
X114165536Y-126296467D01*
X114219447Y-126280500D01*
X114610901Y-126280500D01*
X114669092Y-126299407D01*
X114705056Y-126348907D01*
X114709901Y-126379500D01*
X114709901Y-126424863D01*
X114712814Y-126449990D01*
X114733205Y-126496171D01*
X114758194Y-126552765D01*
X114837635Y-126632206D01*
X114940409Y-126677585D01*
X114965535Y-126680500D01*
X117565264Y-126680499D01*
X117590391Y-126677585D01*
X117693165Y-126632206D01*
X117772606Y-126552765D01*
X117817985Y-126449991D01*
X117820900Y-126424865D01*
X117820899Y-125335136D01*
X117817985Y-125310009D01*
X117772606Y-125207235D01*
X117693165Y-125127794D01*
X117590391Y-125082415D01*
X117590390Y-125082414D01*
X117590388Y-125082414D01*
X117565268Y-125079500D01*
X114965539Y-125079500D01*
X114965536Y-125079501D01*
X114940409Y-125082414D01*
X114837635Y-125127794D01*
X114758194Y-125207235D01*
X114712814Y-125310011D01*
X114709900Y-125335130D01*
X114709900Y-125380500D01*
X114690993Y-125438691D01*
X114641493Y-125474655D01*
X114610900Y-125479500D01*
X112899300Y-125479500D01*
X112841109Y-125460593D01*
X112805145Y-125411093D01*
X112805145Y-125349907D01*
X112829296Y-125310496D01*
X114241332Y-123898461D01*
X114295849Y-123870684D01*
X114311336Y-123869465D01*
X114393820Y-123869465D01*
X114393822Y-123869465D01*
X114546549Y-123828542D01*
X114683481Y-123749485D01*
X114795285Y-123637681D01*
X114874342Y-123500749D01*
X114915265Y-123348022D01*
X114915265Y-123189908D01*
X114874342Y-123037181D01*
X114795285Y-122900249D01*
X114683481Y-122788445D01*
X114546549Y-122709388D01*
X114393822Y-122668465D01*
X114235708Y-122668465D01*
X114235705Y-122668465D01*
X114190270Y-122680639D01*
X114129169Y-122677436D01*
X114081620Y-122638930D01*
X114065785Y-122579829D01*
X114069020Y-122559396D01*
X114097300Y-122453857D01*
X114097300Y-122295743D01*
X114056377Y-122143016D01*
X114052555Y-122136397D01*
X114039837Y-122076549D01*
X114064725Y-122020654D01*
X114117713Y-121990063D01*
X114138294Y-121987900D01*
X115398099Y-121987900D01*
X115456290Y-122006807D01*
X115468103Y-122016896D01*
X116306528Y-122855320D01*
X117037118Y-123585910D01*
X117037120Y-123585913D01*
X117111687Y-123660480D01*
X117157216Y-123686766D01*
X117163937Y-123692436D01*
X117175666Y-123711318D01*
X117190540Y-123727837D01*
X117192939Y-123739126D01*
X117196222Y-123744410D01*
X117195672Y-123751980D01*
X117199100Y-123768104D01*
X117199100Y-123884861D01*
X117199101Y-123884864D01*
X117202014Y-123909990D01*
X117227356Y-123967385D01*
X117247394Y-124012765D01*
X117326835Y-124092206D01*
X117429609Y-124137585D01*
X117454735Y-124140500D01*
X120054464Y-124140499D01*
X120079591Y-124137585D01*
X120182365Y-124092206D01*
X120261806Y-124012765D01*
X120307185Y-123909991D01*
X120310100Y-123884865D01*
X120310099Y-122795136D01*
X120307185Y-122770009D01*
X120261806Y-122667235D01*
X120182365Y-122587794D01*
X120079591Y-122542415D01*
X120079590Y-122542414D01*
X120079588Y-122542414D01*
X120054468Y-122539500D01*
X117454739Y-122539500D01*
X117454736Y-122539501D01*
X117429609Y-122542414D01*
X117326834Y-122587794D01*
X117319309Y-122595319D01*
X117264790Y-122623092D01*
X117204359Y-122613516D01*
X117179306Y-122595314D01*
X116571892Y-121987900D01*
X115850913Y-121266920D01*
X115850910Y-121266918D01*
X115850908Y-121266916D01*
X115759591Y-121214194D01*
X115759593Y-121214194D01*
X115720070Y-121203604D01*
X115657727Y-121186900D01*
X115657725Y-121186900D01*
X106809101Y-121186900D01*
X106750910Y-121167993D01*
X106739097Y-121157904D01*
X103122496Y-117541303D01*
X103094719Y-117486786D01*
X103093500Y-117471299D01*
X103093500Y-117399144D01*
X103072905Y-117322282D01*
X103052577Y-117246416D01*
X102973520Y-117109484D01*
X102861716Y-116997680D01*
X102724784Y-116918623D01*
X102572057Y-116877700D01*
X102413943Y-116877700D01*
X102261216Y-116918623D01*
X102124284Y-116997680D01*
X102012480Y-117109484D01*
X101933423Y-117246416D01*
X101892500Y-117399143D01*
X101017900Y-117399143D01*
X101017900Y-112943601D01*
X101036807Y-112885410D01*
X101059564Y-112862895D01*
X101069382Y-112855919D01*
X101085758Y-112849462D01*
X101193843Y-112767498D01*
X101195090Y-112766613D01*
X101222876Y-112757909D01*
X101250397Y-112748340D01*
X101251940Y-112748806D01*
X101253478Y-112748325D01*
X101281086Y-112757620D01*
X101308963Y-112766051D01*
X101310290Y-112767453D01*
X101311464Y-112767849D01*
X101313871Y-112771237D01*
X101336687Y-112795346D01*
X101362156Y-112836638D01*
X101484064Y-112958546D01*
X101630793Y-113049051D01*
X101794451Y-113103281D01*
X101895445Y-113113599D01*
X101994600Y-113113599D01*
X101994600Y-112388601D01*
X102494600Y-112388601D01*
X102494600Y-113113598D01*
X102494601Y-113113599D01*
X102593754Y-113113599D01*
X102694742Y-113103282D01*
X102694754Y-113103279D01*
X102858406Y-113049051D01*
X103005135Y-112958546D01*
X103127046Y-112836635D01*
X103217551Y-112689906D01*
X103271781Y-112526248D01*
X103282100Y-112425255D01*
X103282100Y-112388601D01*
X103282099Y-112388600D01*
X102494601Y-112388600D01*
X102494600Y-112388601D01*
X101994600Y-112388601D01*
X101994600Y-110788401D01*
X102494600Y-110788401D01*
X102494600Y-111888599D01*
X102494601Y-111888600D01*
X103282098Y-111888600D01*
X103282099Y-111888599D01*
X103282099Y-111851945D01*
X103271782Y-111750957D01*
X103271779Y-111750945D01*
X103217551Y-111587293D01*
X103127046Y-111440564D01*
X103094986Y-111408504D01*
X103067209Y-111353987D01*
X103076780Y-111293555D01*
X103094986Y-111268496D01*
X103127045Y-111236436D01*
X103127046Y-111236435D01*
X103217551Y-111089706D01*
X103271781Y-110926048D01*
X103282100Y-110825055D01*
X103282100Y-110788401D01*
X103282099Y-110788400D01*
X102494601Y-110788400D01*
X102494600Y-110788401D01*
X101994600Y-110788401D01*
X101994600Y-109563401D01*
X102494600Y-109563401D01*
X102494600Y-110288399D01*
X102494601Y-110288400D01*
X103282098Y-110288400D01*
X103282099Y-110288399D01*
X103282099Y-110251745D01*
X103271782Y-110150757D01*
X103271779Y-110150745D01*
X103217551Y-109987093D01*
X103127046Y-109840364D01*
X103005135Y-109718453D01*
X102858406Y-109627948D01*
X102694748Y-109573718D01*
X102593755Y-109563400D01*
X102494601Y-109563400D01*
X102494600Y-109563401D01*
X101994600Y-109563401D01*
X101994600Y-109563400D01*
X101895445Y-109563400D01*
X101895445Y-109563401D01*
X101794457Y-109573717D01*
X101794445Y-109573720D01*
X101630793Y-109627948D01*
X101484064Y-109718453D01*
X101362155Y-109840362D01*
X101336686Y-109881653D01*
X101322352Y-109893822D01*
X101311465Y-109909148D01*
X101299594Y-109913144D01*
X101290044Y-109921254D01*
X101271293Y-109922674D01*
X101253479Y-109928673D01*
X101242031Y-109924891D01*
X101229033Y-109925876D01*
X101195090Y-109910386D01*
X101193823Y-109909485D01*
X101085758Y-109827538D01*
X101069379Y-109821079D01*
X101059564Y-109814106D01*
X101048147Y-109798739D01*
X101033382Y-109786557D01*
X101029696Y-109773902D01*
X101023076Y-109764991D01*
X101022923Y-109750646D01*
X101017900Y-109733399D01*
X101017900Y-109171836D01*
X101031163Y-109122336D01*
X101076977Y-109042984D01*
X101117900Y-108890257D01*
X101117900Y-108732143D01*
X101076977Y-108579416D01*
X101051982Y-108536123D01*
X101031163Y-108500062D01*
X101017900Y-108450563D01*
X101017900Y-102396043D01*
X102914100Y-102396043D01*
X102914100Y-102554157D01*
X102955023Y-102706884D01*
X103034080Y-102843816D01*
X103145884Y-102955620D01*
X103145886Y-102955621D01*
X103252914Y-103017414D01*
X103293855Y-103062883D01*
X103300251Y-103123733D01*
X103269658Y-103176721D01*
X103252914Y-103188886D01*
X103145886Y-103250678D01*
X103145884Y-103250680D01*
X103034080Y-103362484D01*
X102955023Y-103499416D01*
X102914100Y-103652143D01*
X102914100Y-103810257D01*
X102955023Y-103962984D01*
X103034080Y-104099916D01*
X103145884Y-104211720D01*
X103282816Y-104290777D01*
X103435543Y-104331700D01*
X103435545Y-104331700D01*
X103593655Y-104331700D01*
X103593657Y-104331700D01*
X103746384Y-104290777D01*
X103883316Y-104211720D01*
X103918907Y-104176128D01*
X103973421Y-104148352D01*
X104033853Y-104157923D01*
X104077118Y-104201187D01*
X104086690Y-104261619D01*
X104074647Y-104295631D01*
X104054758Y-104330080D01*
X104054758Y-104330081D01*
X104013835Y-104482808D01*
X104013835Y-104640922D01*
X104054758Y-104793649D01*
X104133815Y-104930581D01*
X104245619Y-105042385D01*
X104382551Y-105121442D01*
X104535278Y-105162365D01*
X104617764Y-105162365D01*
X104675955Y-105181272D01*
X104687768Y-105191361D01*
X107842318Y-108345910D01*
X107842320Y-108345913D01*
X107916887Y-108420480D01*
X107969249Y-108450711D01*
X108008213Y-108473207D01*
X108110074Y-108500501D01*
X108110076Y-108500501D01*
X108221590Y-108500501D01*
X108221606Y-108500500D01*
X109480101Y-108500500D01*
X109538292Y-108519407D01*
X109574256Y-108568907D01*
X109579101Y-108599500D01*
X109579101Y-108644863D01*
X109582014Y-108669990D01*
X109602277Y-108715880D01*
X109627394Y-108772765D01*
X109706835Y-108852206D01*
X109809609Y-108897585D01*
X109834735Y-108900500D01*
X112434464Y-108900499D01*
X112459591Y-108897585D01*
X112562365Y-108852206D01*
X112641806Y-108772765D01*
X112687185Y-108669991D01*
X112690100Y-108644865D01*
X112690099Y-107555136D01*
X112687185Y-107530009D01*
X112641806Y-107427235D01*
X112562365Y-107347794D01*
X112459591Y-107302415D01*
X112459590Y-107302414D01*
X112459588Y-107302414D01*
X112434468Y-107299500D01*
X109834739Y-107299500D01*
X109834736Y-107299501D01*
X109809609Y-107302414D01*
X109706835Y-107347794D01*
X109627394Y-107427235D01*
X109582014Y-107530011D01*
X109579100Y-107555130D01*
X109579100Y-107600500D01*
X109560193Y-107658691D01*
X109510693Y-107694655D01*
X109480100Y-107699500D01*
X108369700Y-107699500D01*
X108311509Y-107680593D01*
X108299696Y-107670504D01*
X107723896Y-107094704D01*
X107696119Y-107040187D01*
X107705690Y-106979755D01*
X107748955Y-106936490D01*
X107793900Y-106925700D01*
X115474299Y-106925700D01*
X115532490Y-106944607D01*
X115544303Y-106954696D01*
X116238165Y-107648557D01*
X116935518Y-108345910D01*
X116935520Y-108345913D01*
X117010087Y-108420480D01*
X117062449Y-108450711D01*
X117097227Y-108470790D01*
X117101409Y-108473205D01*
X117101413Y-108473207D01*
X117125723Y-108479720D01*
X117127080Y-108480602D01*
X117128701Y-108480568D01*
X117152608Y-108497179D01*
X117177037Y-108513043D01*
X117177618Y-108514556D01*
X117178948Y-108515481D01*
X117185896Y-108536123D01*
X117198964Y-108570165D01*
X117199078Y-108573260D01*
X117199100Y-108574327D01*
X117199101Y-108644864D01*
X117200918Y-108660534D01*
X117201017Y-108665213D01*
X117193461Y-108690249D01*
X117188300Y-108715880D01*
X117184739Y-108719155D01*
X117183341Y-108723789D01*
X117162512Y-108739603D01*
X117143271Y-108757305D01*
X117137556Y-108758551D01*
X117134610Y-108760789D01*
X117126518Y-108760959D01*
X117102039Y-108766300D01*
X115222073Y-108766300D01*
X115120213Y-108793593D01*
X115120212Y-108793593D01*
X115120210Y-108793594D01*
X115120209Y-108793594D01*
X115028889Y-108846318D01*
X113664703Y-110210504D01*
X113610186Y-110238281D01*
X113594699Y-110239500D01*
X110299899Y-110239500D01*
X110241708Y-110220593D01*
X110205744Y-110171093D01*
X110200899Y-110140500D01*
X110200899Y-110095139D01*
X110200899Y-110095136D01*
X110197985Y-110070009D01*
X110152606Y-109967235D01*
X110073165Y-109887794D01*
X109970391Y-109842415D01*
X109970390Y-109842414D01*
X109970388Y-109842414D01*
X109945268Y-109839500D01*
X107345539Y-109839500D01*
X107345536Y-109839501D01*
X107320409Y-109842414D01*
X107229088Y-109882737D01*
X107168218Y-109888945D01*
X107115325Y-109858189D01*
X107090611Y-109802217D01*
X107090100Y-109792172D01*
X107090100Y-109351743D01*
X107109007Y-109293552D01*
X107119090Y-109281745D01*
X107170120Y-109230716D01*
X107249177Y-109093784D01*
X107290100Y-108941057D01*
X107290100Y-108782943D01*
X107249177Y-108630216D01*
X107170120Y-108493284D01*
X107058316Y-108381480D01*
X106921384Y-108302423D01*
X106768657Y-108261500D01*
X106768655Y-108261500D01*
X106764676Y-108260976D01*
X106709451Y-108234633D01*
X106681974Y-108188446D01*
X106680500Y-108182945D01*
X106680500Y-108182943D01*
X106639577Y-108030216D01*
X106560520Y-107893284D01*
X106448716Y-107781480D01*
X106311784Y-107702423D01*
X106159057Y-107661500D01*
X106084100Y-107661500D01*
X106025909Y-107642593D01*
X105989945Y-107593093D01*
X105985100Y-107562500D01*
X105985100Y-107538344D01*
X105973501Y-107495055D01*
X105944177Y-107385616D01*
X105865120Y-107248684D01*
X105753316Y-107136880D01*
X105616384Y-107057823D01*
X105463657Y-107016900D01*
X105305543Y-107016900D01*
X105152816Y-107057823D01*
X105015884Y-107136880D01*
X104904080Y-107248684D01*
X104825023Y-107385616D01*
X104784100Y-107538343D01*
X104784100Y-107696457D01*
X104825023Y-107849184D01*
X104904080Y-107986116D01*
X104964705Y-108046741D01*
X104992481Y-108101256D01*
X104993700Y-108116743D01*
X104993700Y-115464073D01*
X104993700Y-115569527D01*
X105013949Y-115645100D01*
X105020994Y-115671392D01*
X105073716Y-115762708D01*
X105073718Y-115762710D01*
X105073720Y-115762713D01*
X107816918Y-118505910D01*
X107816920Y-118505913D01*
X107891487Y-118580480D01*
X107891489Y-118580481D01*
X107982809Y-118633205D01*
X107982813Y-118633207D01*
X108084670Y-118660500D01*
X108084672Y-118660501D01*
X108084673Y-118660501D01*
X108196190Y-118660501D01*
X108196206Y-118660500D01*
X109480101Y-118660500D01*
X109538292Y-118679407D01*
X109574256Y-118728907D01*
X109579101Y-118759500D01*
X109579101Y-118804863D01*
X109582014Y-118829990D01*
X109607356Y-118887385D01*
X109627394Y-118932765D01*
X109706835Y-119012206D01*
X109809609Y-119057585D01*
X109834735Y-119060500D01*
X112434464Y-119060499D01*
X112459591Y-119057585D01*
X112562365Y-119012206D01*
X112641806Y-118932765D01*
X112687185Y-118829991D01*
X112690100Y-118804865D01*
X112690099Y-117715136D01*
X112690098Y-117715130D01*
X117199100Y-117715130D01*
X117199100Y-118804860D01*
X117199101Y-118804863D01*
X117202014Y-118829990D01*
X117227356Y-118887385D01*
X117247394Y-118932765D01*
X117326835Y-119012206D01*
X117429609Y-119057585D01*
X117454735Y-119060500D01*
X120054464Y-119060499D01*
X120079591Y-119057585D01*
X120182365Y-119012206D01*
X120261806Y-118932765D01*
X120307185Y-118829991D01*
X120310100Y-118804865D01*
X120310099Y-118673441D01*
X120329006Y-118615251D01*
X120359601Y-118587703D01*
X120372113Y-118580480D01*
X120446683Y-118505910D01*
X120520298Y-118432296D01*
X120574814Y-118404519D01*
X120590301Y-118403300D01*
X120662455Y-118403300D01*
X120662457Y-118403300D01*
X120815184Y-118362377D01*
X120952116Y-118283320D01*
X121063920Y-118171516D01*
X121142977Y-118034584D01*
X121183900Y-117881857D01*
X121183900Y-117723743D01*
X121142977Y-117571016D01*
X121063920Y-117434084D01*
X120952116Y-117322280D01*
X120815184Y-117243223D01*
X120662457Y-117202300D01*
X120504343Y-117202300D01*
X120351616Y-117243223D01*
X120214681Y-117322282D01*
X120106459Y-117430504D01*
X120051943Y-117458281D01*
X120036456Y-117459500D01*
X117454739Y-117459500D01*
X117454736Y-117459501D01*
X117429609Y-117462414D01*
X117326835Y-117507794D01*
X117247394Y-117587235D01*
X117202014Y-117690011D01*
X117199100Y-117715130D01*
X112690098Y-117715130D01*
X112687185Y-117690009D01*
X112641806Y-117587235D01*
X112562365Y-117507794D01*
X112459591Y-117462415D01*
X112459590Y-117462414D01*
X112459588Y-117462414D01*
X112434468Y-117459500D01*
X109834739Y-117459500D01*
X109834736Y-117459501D01*
X109809609Y-117462414D01*
X109706835Y-117507794D01*
X109627394Y-117587235D01*
X109582014Y-117690011D01*
X109579100Y-117715130D01*
X109579100Y-117760500D01*
X109560193Y-117818691D01*
X109510693Y-117854655D01*
X109480100Y-117859500D01*
X108344300Y-117859500D01*
X108286109Y-117840593D01*
X108274296Y-117830504D01*
X107622296Y-117178504D01*
X107594519Y-117123987D01*
X107604090Y-117063555D01*
X107647355Y-117020290D01*
X107692300Y-117009500D01*
X110095125Y-117009500D01*
X110095127Y-117009500D01*
X110196988Y-116982207D01*
X110196990Y-116982205D01*
X110196992Y-116982205D01*
X110288308Y-116929483D01*
X110288308Y-116929482D01*
X110288313Y-116929480D01*
X111068297Y-116149496D01*
X111122814Y-116121719D01*
X111138301Y-116120500D01*
X114610901Y-116120500D01*
X114669092Y-116139407D01*
X114705056Y-116188907D01*
X114709901Y-116219500D01*
X114709901Y-116264863D01*
X114712814Y-116289990D01*
X114738156Y-116347385D01*
X114758194Y-116392765D01*
X114837635Y-116472206D01*
X114940409Y-116517585D01*
X114965535Y-116520500D01*
X117565264Y-116520499D01*
X117590391Y-116517585D01*
X117693165Y-116472206D01*
X117772606Y-116392765D01*
X117817985Y-116289991D01*
X117820900Y-116264865D01*
X117820899Y-115175136D01*
X117817985Y-115150009D01*
X117772606Y-115047235D01*
X117693165Y-114967794D01*
X117590391Y-114922415D01*
X117590390Y-114922414D01*
X117590388Y-114922414D01*
X117565269Y-114919500D01*
X117565265Y-114919500D01*
X116423500Y-114919500D01*
X116365309Y-114900593D01*
X116329345Y-114851093D01*
X116329345Y-114789907D01*
X116353496Y-114750497D01*
X117179306Y-113924685D01*
X117233823Y-113896907D01*
X117294255Y-113906478D01*
X117319310Y-113924681D01*
X117326835Y-113932206D01*
X117429609Y-113977585D01*
X117454735Y-113980500D01*
X120054464Y-113980499D01*
X120079591Y-113977585D01*
X120182365Y-113932206D01*
X120261806Y-113852765D01*
X120307185Y-113749991D01*
X120310100Y-113724865D01*
X120310099Y-112635136D01*
X120307185Y-112610009D01*
X120261806Y-112507235D01*
X120182365Y-112427794D01*
X120079591Y-112382415D01*
X120079590Y-112382414D01*
X120079588Y-112382414D01*
X120054469Y-112379500D01*
X120054465Y-112379500D01*
X117871298Y-112379500D01*
X117813107Y-112360593D01*
X117777143Y-112311093D01*
X117777143Y-112249907D01*
X117801295Y-112210496D01*
X118078696Y-111933096D01*
X118133212Y-111905319D01*
X118148699Y-111904100D01*
X120370497Y-111904100D01*
X120370499Y-111904100D01*
X120472360Y-111876807D01*
X120472362Y-111876805D01*
X120472364Y-111876805D01*
X120563680Y-111824083D01*
X120563680Y-111824082D01*
X120563685Y-111824080D01*
X127915910Y-104471853D01*
X127915913Y-104471852D01*
X127990480Y-104397285D01*
X128043207Y-104305959D01*
X128048336Y-104286816D01*
X128070501Y-104204099D01*
X128070501Y-104098645D01*
X128070501Y-104092583D01*
X128070500Y-104092565D01*
X128070500Y-101680943D01*
X128089407Y-101622752D01*
X128099490Y-101610945D01*
X128150520Y-101559916D01*
X128229577Y-101422984D01*
X128270500Y-101270257D01*
X128270500Y-101112143D01*
X128229577Y-100959416D01*
X128150520Y-100822484D01*
X128038716Y-100710680D01*
X127901784Y-100631623D01*
X127749057Y-100590700D01*
X127590943Y-100590700D01*
X127438216Y-100631623D01*
X127301284Y-100710680D01*
X127189480Y-100822484D01*
X127110423Y-100959416D01*
X127069500Y-101112143D01*
X127069500Y-101270257D01*
X127110423Y-101422984D01*
X127189480Y-101559916D01*
X127240505Y-101610941D01*
X127268281Y-101665456D01*
X127269500Y-101680943D01*
X127269500Y-102348153D01*
X127250593Y-102406344D01*
X127201093Y-102442308D01*
X127155784Y-102443498D01*
X127155489Y-102445747D01*
X127149057Y-102444900D01*
X126990943Y-102444900D01*
X126838216Y-102485823D01*
X126719861Y-102554155D01*
X126701281Y-102564882D01*
X126650259Y-102615904D01*
X126595742Y-102643681D01*
X126580256Y-102644900D01*
X125692501Y-102644900D01*
X125634310Y-102625993D01*
X125622497Y-102615904D01*
X119863396Y-96856803D01*
X119837773Y-96812420D01*
X119831423Y-96788719D01*
X119834628Y-96727617D01*
X119873135Y-96680069D01*
X119927051Y-96664100D01*
X122693525Y-96664100D01*
X122693527Y-96664100D01*
X122795388Y-96636807D01*
X122795390Y-96636805D01*
X122795392Y-96636805D01*
X122886708Y-96584083D01*
X122886708Y-96584082D01*
X122886713Y-96584080D01*
X125221880Y-94248913D01*
X125253733Y-94193743D01*
X125274605Y-94157592D01*
X125274605Y-94157590D01*
X125274607Y-94157588D01*
X125301900Y-94055727D01*
X125301900Y-93950273D01*
X125301900Y-87482343D01*
X125320807Y-87424152D01*
X125330890Y-87412345D01*
X125381920Y-87361316D01*
X125460977Y-87224384D01*
X125501900Y-87071657D01*
X125501900Y-86913543D01*
X125460977Y-86760816D01*
X125381920Y-86623884D01*
X125270116Y-86512080D01*
X125133184Y-86433023D01*
X124980457Y-86392100D01*
X124822343Y-86392100D01*
X124669616Y-86433023D01*
X124532684Y-86512080D01*
X124454901Y-86589862D01*
X124400387Y-86617638D01*
X124339955Y-86608067D01*
X124296690Y-86564802D01*
X124285900Y-86519857D01*
X124285900Y-80335874D01*
X124285900Y-80335873D01*
X124258607Y-80234013D01*
X124205880Y-80142687D01*
X124193195Y-80130002D01*
X124131313Y-80068119D01*
X124131313Y-80068120D01*
X120524513Y-76461320D01*
X120524510Y-76461318D01*
X120524509Y-76461317D01*
X120524508Y-76461316D01*
X120433191Y-76408594D01*
X120433193Y-76408594D01*
X120393670Y-76398004D01*
X120331327Y-76381300D01*
X118844516Y-76381300D01*
X118786325Y-76362393D01*
X118750361Y-76312893D01*
X118750361Y-76251707D01*
X118765263Y-76222970D01*
X118803354Y-76172087D01*
X118853596Y-76037381D01*
X118853598Y-76037370D01*
X118860000Y-75977824D01*
X118860000Y-75330001D01*
X118859999Y-75330000D01*
X117943012Y-75330000D01*
X117975925Y-75272993D01*
X118010000Y-75145826D01*
X118010000Y-75014174D01*
X117975925Y-74887007D01*
X117943012Y-74830000D01*
X118859999Y-74830000D01*
X118860000Y-74829999D01*
X118860000Y-74182175D01*
X118853598Y-74122629D01*
X118853596Y-74122618D01*
X118803353Y-73987911D01*
X118803352Y-73987909D01*
X118717192Y-73872815D01*
X118717184Y-73872807D01*
X118602090Y-73786647D01*
X118602088Y-73786646D01*
X118467381Y-73736403D01*
X118467370Y-73736401D01*
X118407824Y-73730000D01*
X117760001Y-73730000D01*
X117760000Y-73730001D01*
X117760000Y-74646988D01*
X117702993Y-74614075D01*
X117575826Y-74580000D01*
X117444174Y-74580000D01*
X117317007Y-74614075D01*
X117260000Y-74646988D01*
X117260000Y-73730001D01*
X117259999Y-73730000D01*
X116612176Y-73730000D01*
X116552629Y-73736401D01*
X116552618Y-73736403D01*
X116417911Y-73786646D01*
X116417909Y-73786647D01*
X116302815Y-73872807D01*
X116302807Y-73872815D01*
X116216647Y-73987909D01*
X116216646Y-73987911D01*
X116166403Y-74122618D01*
X116166401Y-74122629D01*
X116160000Y-74182175D01*
X116160000Y-74829999D01*
X116160001Y-74830000D01*
X117076988Y-74830000D01*
X117044075Y-74887007D01*
X117010000Y-75014174D01*
X117010000Y-75145826D01*
X117044075Y-75272993D01*
X117076988Y-75330000D01*
X116160001Y-75330000D01*
X116160000Y-75330001D01*
X116160000Y-75977824D01*
X116159999Y-75977824D01*
X116166401Y-76037370D01*
X116166403Y-76037381D01*
X116216646Y-76172088D01*
X116216647Y-76172090D01*
X116302807Y-76287184D01*
X116302815Y-76287192D01*
X116417909Y-76373352D01*
X116417911Y-76373353D01*
X116552618Y-76423596D01*
X116552629Y-76423598D01*
X116612176Y-76430000D01*
X116802400Y-76430000D01*
X116860591Y-76448907D01*
X116896555Y-76498407D01*
X116896555Y-76559593D01*
X116872405Y-76599001D01*
X116524172Y-76947235D01*
X116280903Y-77190504D01*
X116226386Y-77218281D01*
X116210899Y-77219500D01*
X112789099Y-77219500D01*
X112730908Y-77200593D01*
X112694944Y-77151093D01*
X112690099Y-77120500D01*
X112690099Y-77075139D01*
X112690099Y-77075136D01*
X112687185Y-77050009D01*
X112641806Y-76947235D01*
X112562365Y-76867794D01*
X112459591Y-76822415D01*
X112459590Y-76822414D01*
X112459588Y-76822414D01*
X112434468Y-76819500D01*
X109834739Y-76819500D01*
X109834736Y-76819501D01*
X109809609Y-76822414D01*
X109706835Y-76867794D01*
X109627394Y-76947235D01*
X109582014Y-77050011D01*
X109579100Y-77075130D01*
X109579100Y-78164860D01*
X109579101Y-78164863D01*
X109582014Y-78189990D01*
X109587323Y-78202013D01*
X109627394Y-78292765D01*
X109706835Y-78372206D01*
X109809609Y-78417585D01*
X109834735Y-78420500D01*
X112434464Y-78420499D01*
X112459591Y-78417585D01*
X112562365Y-78372206D01*
X112641806Y-78292765D01*
X112687185Y-78189991D01*
X112690100Y-78164865D01*
X112690100Y-78119500D01*
X112709007Y-78061309D01*
X112758507Y-78025345D01*
X112789100Y-78020500D01*
X116470525Y-78020500D01*
X116470527Y-78020500D01*
X116572388Y-77993207D01*
X116572390Y-77993205D01*
X116572392Y-77993205D01*
X116663708Y-77940483D01*
X116663708Y-77940482D01*
X116663713Y-77940480D01*
X117030096Y-77574095D01*
X117084613Y-77546318D01*
X117145045Y-77555889D01*
X117188310Y-77599154D01*
X117199100Y-77644099D01*
X117199100Y-78164860D01*
X117199101Y-78164863D01*
X117202014Y-78189990D01*
X117207323Y-78202013D01*
X117247394Y-78292765D01*
X117326835Y-78372206D01*
X117429609Y-78417585D01*
X117454735Y-78420500D01*
X120054464Y-78420499D01*
X120054467Y-78420498D01*
X120057314Y-78420334D01*
X120057378Y-78421443D01*
X120113315Y-78432689D01*
X120134770Y-78448963D01*
X121978596Y-80292788D01*
X122006373Y-80347305D01*
X122004219Y-80388415D01*
X121964100Y-80538143D01*
X121964100Y-80696257D01*
X122005023Y-80848984D01*
X122084080Y-80985916D01*
X122195884Y-81097720D01*
X122332816Y-81176777D01*
X122485543Y-81217700D01*
X122485545Y-81217700D01*
X122643655Y-81217700D01*
X122643657Y-81217700D01*
X122796384Y-81176777D01*
X122933316Y-81097720D01*
X123045120Y-80985916D01*
X123124177Y-80848984D01*
X123165100Y-80696257D01*
X123165100Y-80538143D01*
X123149656Y-80480505D01*
X123152859Y-80419406D01*
X123191364Y-80371856D01*
X123250464Y-80356020D01*
X123307586Y-80377947D01*
X123315287Y-80384880D01*
X123455904Y-80525497D01*
X123483681Y-80580014D01*
X123484900Y-80595501D01*
X123484900Y-87886871D01*
X123465993Y-87945062D01*
X123416493Y-87981026D01*
X123360277Y-87982497D01*
X123235392Y-87949035D01*
X123077278Y-87949035D01*
X122924551Y-87989958D01*
X122787619Y-88069015D01*
X122675815Y-88180819D01*
X122596758Y-88317751D01*
X122560582Y-88452764D01*
X122555835Y-88470479D01*
X122555835Y-88527564D01*
X122536928Y-88585755D01*
X122526839Y-88597568D01*
X119557503Y-91566904D01*
X119502986Y-91594681D01*
X119487499Y-91595900D01*
X113346327Y-91595900D01*
X113240873Y-91595900D01*
X113178529Y-91612604D01*
X113139007Y-91623194D01*
X113047691Y-91675916D01*
X113047686Y-91675920D01*
X112647394Y-92076211D01*
X112592878Y-92103988D01*
X112537404Y-92096772D01*
X112459591Y-92062415D01*
X112459588Y-92062414D01*
X112434468Y-92059500D01*
X109834739Y-92059500D01*
X109834736Y-92059501D01*
X109809609Y-92062414D01*
X109706835Y-92107794D01*
X109627394Y-92187235D01*
X109582014Y-92290011D01*
X109579100Y-92315130D01*
X109579100Y-92937499D01*
X109560193Y-92995690D01*
X109510693Y-93031654D01*
X109449507Y-93031654D01*
X109410096Y-93007503D01*
X109074896Y-92672303D01*
X109047119Y-92617786D01*
X109045900Y-92602299D01*
X109045900Y-91219499D01*
X109064807Y-91161308D01*
X109114307Y-91125344D01*
X109144900Y-91120499D01*
X109945261Y-91120499D01*
X109945264Y-91120499D01*
X109970391Y-91117585D01*
X110073165Y-91072206D01*
X110152606Y-90992765D01*
X110197985Y-90889991D01*
X110200900Y-90864865D01*
X110200899Y-89775136D01*
X110197985Y-89750009D01*
X110152606Y-89647235D01*
X110073165Y-89567794D01*
X109970391Y-89522415D01*
X109970390Y-89522414D01*
X109970388Y-89522414D01*
X109945268Y-89519500D01*
X107345539Y-89519500D01*
X107345536Y-89519501D01*
X107320409Y-89522414D01*
X107217635Y-89567794D01*
X107138194Y-89647235D01*
X107092814Y-89750011D01*
X107089900Y-89775130D01*
X107089900Y-90864860D01*
X107089901Y-90864863D01*
X107092814Y-90889990D01*
X107118156Y-90947385D01*
X107138194Y-90992765D01*
X107217635Y-91072206D01*
X107320409Y-91117585D01*
X107345535Y-91120500D01*
X108145900Y-91120499D01*
X108204091Y-91139406D01*
X108240055Y-91188906D01*
X108244900Y-91219499D01*
X108244900Y-92756473D01*
X108244900Y-92861927D01*
X108251747Y-92887480D01*
X108272194Y-92963792D01*
X108324916Y-93055108D01*
X108324918Y-93055110D01*
X108324920Y-93055113D01*
X109263087Y-93993280D01*
X109263089Y-93993281D01*
X109263091Y-93993283D01*
X109354408Y-94046005D01*
X109354406Y-94046005D01*
X109354410Y-94046006D01*
X109354412Y-94046007D01*
X109456273Y-94073300D01*
X109561727Y-94073300D01*
X113917153Y-94073300D01*
X113975344Y-94092207D01*
X114011308Y-94141707D01*
X114012496Y-94187012D01*
X114014747Y-94187309D01*
X114013900Y-94193742D01*
X114013900Y-94193743D01*
X114013900Y-94351857D01*
X114054823Y-94504584D01*
X114133880Y-94641516D01*
X114194717Y-94702353D01*
X114222493Y-94756868D01*
X114212922Y-94817300D01*
X114174212Y-94858091D01*
X114067886Y-94919478D01*
X114067884Y-94919480D01*
X113956080Y-95031284D01*
X113877023Y-95168216D01*
X113836100Y-95320943D01*
X113836100Y-95479057D01*
X113877023Y-95631784D01*
X113924837Y-95714601D01*
X113927036Y-95724947D01*
X113933255Y-95733507D01*
X113933255Y-95754204D01*
X113937558Y-95774449D01*
X113933255Y-95784113D01*
X113933255Y-95794693D01*
X113921088Y-95811438D01*
X113912671Y-95830344D01*
X113903510Y-95835633D01*
X113897291Y-95844193D01*
X113877606Y-95850588D01*
X113859683Y-95860937D01*
X113839100Y-95863100D01*
X113678301Y-95863100D01*
X113620110Y-95844193D01*
X113608297Y-95834104D01*
X113238292Y-95464099D01*
X112853713Y-95079520D01*
X112853710Y-95079518D01*
X112853709Y-95079517D01*
X112853708Y-95079516D01*
X112762391Y-95026794D01*
X112762393Y-95026794D01*
X112722870Y-95016204D01*
X112660527Y-94999500D01*
X112660525Y-94999500D01*
X110299899Y-94999500D01*
X110241708Y-94980593D01*
X110205744Y-94931093D01*
X110200899Y-94900500D01*
X110200899Y-94855139D01*
X110200899Y-94855136D01*
X110197985Y-94830009D01*
X110152606Y-94727235D01*
X110073165Y-94647794D01*
X109970391Y-94602415D01*
X109970390Y-94602414D01*
X109970388Y-94602414D01*
X109945268Y-94599500D01*
X107345539Y-94599500D01*
X107345536Y-94599501D01*
X107320409Y-94602414D01*
X107217635Y-94647794D01*
X107138194Y-94727235D01*
X107092814Y-94830011D01*
X107089900Y-94855130D01*
X107089900Y-95944860D01*
X107089901Y-95944863D01*
X107092814Y-95969990D01*
X107110647Y-96010377D01*
X107138194Y-96072765D01*
X107217635Y-96152206D01*
X107320409Y-96197585D01*
X107345535Y-96200500D01*
X109945264Y-96200499D01*
X109970391Y-96197585D01*
X110073165Y-96152206D01*
X110152606Y-96072765D01*
X110197985Y-95969991D01*
X110200900Y-95944865D01*
X110200900Y-95899500D01*
X110219807Y-95841309D01*
X110269307Y-95805345D01*
X110299900Y-95800500D01*
X112400899Y-95800500D01*
X112459090Y-95819407D01*
X112470903Y-95829496D01*
X113225487Y-96584080D01*
X113225489Y-96584081D01*
X113225490Y-96584082D01*
X113225491Y-96584083D01*
X113316808Y-96636805D01*
X113316806Y-96636805D01*
X113316810Y-96636806D01*
X113316812Y-96636807D01*
X113418673Y-96664100D01*
X113524127Y-96664100D01*
X118592149Y-96664100D01*
X118650340Y-96683007D01*
X118686304Y-96732507D01*
X118687775Y-96788722D01*
X118659100Y-96895743D01*
X118659100Y-97053857D01*
X118700023Y-97206584D01*
X118779080Y-97343516D01*
X118890884Y-97455320D01*
X119027816Y-97534377D01*
X119180543Y-97575300D01*
X119180545Y-97575300D01*
X119338657Y-97575300D01*
X119370554Y-97566753D01*
X119431655Y-97569954D01*
X119466182Y-97592375D01*
X125239687Y-103365880D01*
X125239689Y-103365881D01*
X125239690Y-103365882D01*
X125239691Y-103365883D01*
X125331008Y-103418605D01*
X125331006Y-103418605D01*
X125331010Y-103418606D01*
X125331012Y-103418607D01*
X125432873Y-103445900D01*
X126580256Y-103445900D01*
X126638447Y-103464807D01*
X126650259Y-103474896D01*
X126679141Y-103503777D01*
X126701284Y-103525920D01*
X126838216Y-103604977D01*
X126990943Y-103645900D01*
X126990945Y-103645900D01*
X127149058Y-103645900D01*
X127155491Y-103645053D01*
X127155826Y-103647599D01*
X127205946Y-103650209D01*
X127253509Y-103688697D01*
X127269500Y-103742646D01*
X127269500Y-103944471D01*
X127250593Y-104002662D01*
X127240504Y-104014475D01*
X123972304Y-107282675D01*
X123917787Y-107310452D01*
X123857355Y-107300881D01*
X123814090Y-107257616D01*
X123803300Y-107212671D01*
X123803300Y-106522743D01*
X123822207Y-106464552D01*
X123832290Y-106452745D01*
X123883320Y-106401716D01*
X123962377Y-106264784D01*
X124003300Y-106112057D01*
X124003300Y-105953943D01*
X123962377Y-105801216D01*
X123883320Y-105664284D01*
X123771516Y-105552480D01*
X123634584Y-105473423D01*
X123481857Y-105432500D01*
X123323743Y-105432500D01*
X123171016Y-105473423D01*
X123034084Y-105552480D01*
X122922280Y-105664284D01*
X122843223Y-105801216D01*
X122802300Y-105953943D01*
X122802300Y-106112057D01*
X122843223Y-106264784D01*
X122922280Y-106401716D01*
X122973305Y-106452741D01*
X123001081Y-106507256D01*
X123002300Y-106522743D01*
X123002300Y-107645985D01*
X122983393Y-107704176D01*
X122973303Y-107715989D01*
X122840117Y-107849174D01*
X122785601Y-107876951D01*
X122725169Y-107867379D01*
X122681904Y-107824115D01*
X122672333Y-107763683D01*
X122674481Y-107753571D01*
X122702619Y-107648561D01*
X122702619Y-107490447D01*
X122661696Y-107337720D01*
X122582639Y-107200788D01*
X122470835Y-107088984D01*
X122333903Y-107009927D01*
X122181176Y-106969004D01*
X122023062Y-106969004D01*
X121870335Y-107009927D01*
X121733400Y-107088986D01*
X121682379Y-107140007D01*
X121627862Y-107167784D01*
X121612376Y-107169003D01*
X121594566Y-107169003D01*
X121492709Y-107196296D01*
X121492705Y-107196298D01*
X121401383Y-107249023D01*
X121326815Y-107323590D01*
X121326816Y-107323591D01*
X121326814Y-107323593D01*
X120479103Y-108171303D01*
X120424586Y-108199080D01*
X120364154Y-108189509D01*
X120320889Y-108146244D01*
X120310099Y-108101299D01*
X120310099Y-107555139D01*
X120310099Y-107555136D01*
X120307185Y-107530009D01*
X120261806Y-107427235D01*
X120182365Y-107347794D01*
X120079591Y-107302415D01*
X120079590Y-107302414D01*
X120079588Y-107302414D01*
X120054468Y-107299500D01*
X117454739Y-107299500D01*
X117454736Y-107299501D01*
X117429609Y-107302414D01*
X117326833Y-107347795D01*
X117268514Y-107406114D01*
X117213997Y-107433891D01*
X117153565Y-107424319D01*
X117128507Y-107406114D01*
X116251896Y-106529503D01*
X116224119Y-106474986D01*
X116233690Y-106414554D01*
X116276955Y-106371289D01*
X116321900Y-106360499D01*
X117565261Y-106360499D01*
X117565264Y-106360499D01*
X117590391Y-106357585D01*
X117693165Y-106312206D01*
X117772606Y-106232765D01*
X117817985Y-106129991D01*
X117820900Y-106104865D01*
X117820899Y-105015136D01*
X117817985Y-104990009D01*
X117772606Y-104887235D01*
X117693165Y-104807794D01*
X117590391Y-104762415D01*
X117590390Y-104762414D01*
X117590388Y-104762414D01*
X117565268Y-104759500D01*
X114965539Y-104759500D01*
X114965536Y-104759501D01*
X114940409Y-104762414D01*
X114837635Y-104807794D01*
X114758194Y-104887235D01*
X114712814Y-104990011D01*
X114709900Y-105015130D01*
X114709900Y-105060500D01*
X114690993Y-105118691D01*
X114641493Y-105154655D01*
X114610900Y-105159500D01*
X111138301Y-105159500D01*
X111080110Y-105140593D01*
X111068297Y-105130504D01*
X110688176Y-104750383D01*
X110161313Y-104223520D01*
X110161310Y-104223518D01*
X110161309Y-104223517D01*
X110161308Y-104223516D01*
X110069991Y-104170794D01*
X110069993Y-104170794D01*
X110021955Y-104157923D01*
X109968127Y-104143500D01*
X109968125Y-104143500D01*
X107861701Y-104143500D01*
X107803510Y-104124593D01*
X107791697Y-104114504D01*
X106820610Y-103143417D01*
X105831813Y-102154620D01*
X105831810Y-102154618D01*
X105831809Y-102154617D01*
X105831808Y-102154616D01*
X105740491Y-102101894D01*
X105740493Y-102101894D01*
X105700970Y-102091304D01*
X105638627Y-102074600D01*
X105638625Y-102074600D01*
X104004344Y-102074600D01*
X103946153Y-102055693D01*
X103934341Y-102045604D01*
X103883318Y-101994582D01*
X103883316Y-101994580D01*
X103746384Y-101915523D01*
X103593657Y-101874600D01*
X103435543Y-101874600D01*
X103282816Y-101915523D01*
X103145884Y-101994580D01*
X103034080Y-102106384D01*
X102955023Y-102243316D01*
X102914100Y-102396043D01*
X101017900Y-102396043D01*
X101017900Y-100307236D01*
X101031163Y-100257736D01*
X101076977Y-100178384D01*
X101117900Y-100025657D01*
X101117900Y-99867543D01*
X101076977Y-99714816D01*
X100997920Y-99577884D01*
X100982779Y-99562743D01*
X100946896Y-99526859D01*
X100919119Y-99472342D01*
X100917900Y-99456856D01*
X100917900Y-94139843D01*
X102850600Y-94139843D01*
X102850600Y-94297957D01*
X102891523Y-94450684D01*
X102970580Y-94587616D01*
X103082384Y-94699420D01*
X103200207Y-94767444D01*
X103241147Y-94812913D01*
X103247543Y-94873763D01*
X103216950Y-94926751D01*
X103200207Y-94938916D01*
X103145885Y-94970279D01*
X103145884Y-94970280D01*
X103034080Y-95082084D01*
X102955023Y-95219016D01*
X102914100Y-95371743D01*
X102914100Y-95529857D01*
X102955023Y-95682584D01*
X103034080Y-95819516D01*
X103145884Y-95931320D01*
X103282816Y-96010377D01*
X103435543Y-96051300D01*
X103507699Y-96051300D01*
X103565890Y-96070207D01*
X103577703Y-96080296D01*
X106570687Y-99073280D01*
X106570689Y-99073281D01*
X106570690Y-99073282D01*
X106570691Y-99073283D01*
X106662008Y-99126005D01*
X106662006Y-99126005D01*
X106662010Y-99126006D01*
X106662012Y-99126007D01*
X106763873Y-99153300D01*
X106869327Y-99153300D01*
X108062565Y-99153300D01*
X108120756Y-99172207D01*
X108156720Y-99221707D01*
X108156720Y-99282893D01*
X108148305Y-99301792D01*
X108085823Y-99410016D01*
X108044900Y-99562744D01*
X108044900Y-99580500D01*
X108025993Y-99638691D01*
X107976493Y-99674655D01*
X107945900Y-99679500D01*
X107345539Y-99679500D01*
X107345536Y-99679501D01*
X107320409Y-99682414D01*
X107217635Y-99727794D01*
X107138194Y-99807235D01*
X107092814Y-99910011D01*
X107089900Y-99935130D01*
X107089900Y-101024860D01*
X107089901Y-101024863D01*
X107092814Y-101049990D01*
X107107443Y-101083121D01*
X107138194Y-101152765D01*
X107217635Y-101232206D01*
X107320409Y-101277585D01*
X107345535Y-101280500D01*
X107641267Y-101280499D01*
X107699456Y-101299406D01*
X107735420Y-101348906D01*
X107735421Y-101410091D01*
X107727003Y-101428998D01*
X107704823Y-101467414D01*
X107680038Y-101559915D01*
X107663900Y-101620143D01*
X107663900Y-101778257D01*
X107704823Y-101930984D01*
X107783880Y-102067916D01*
X107895684Y-102179720D01*
X108032616Y-102258777D01*
X108185343Y-102299700D01*
X108257499Y-102299700D01*
X108315690Y-102318607D01*
X108327503Y-102328696D01*
X109339287Y-103340480D01*
X109339289Y-103340481D01*
X109339290Y-103340482D01*
X109339291Y-103340483D01*
X109430608Y-103393205D01*
X109430609Y-103393205D01*
X109430612Y-103393207D01*
X109505724Y-103413332D01*
X109557038Y-103446656D01*
X109578965Y-103503777D01*
X109579101Y-103508959D01*
X109579101Y-103564863D01*
X109582014Y-103589990D01*
X109588632Y-103604977D01*
X109627394Y-103692765D01*
X109706835Y-103772206D01*
X109809609Y-103817585D01*
X109834735Y-103820500D01*
X112434464Y-103820499D01*
X112459591Y-103817585D01*
X112562365Y-103772206D01*
X112641806Y-103692765D01*
X112687185Y-103589991D01*
X112690100Y-103564865D01*
X112690099Y-102475136D01*
X112687185Y-102450009D01*
X112641806Y-102347235D01*
X112562365Y-102267794D01*
X112459591Y-102222415D01*
X112459590Y-102222414D01*
X112459588Y-102222414D01*
X112434468Y-102219500D01*
X109834739Y-102219500D01*
X109834736Y-102219501D01*
X109809609Y-102222414D01*
X109706833Y-102267795D01*
X109623114Y-102351514D01*
X109568597Y-102379291D01*
X109508165Y-102369719D01*
X109483107Y-102351514D01*
X108893896Y-101762303D01*
X108866119Y-101707786D01*
X108864900Y-101692299D01*
X108864900Y-101620144D01*
X108864900Y-101620143D01*
X108823977Y-101467416D01*
X108801796Y-101428998D01*
X108789075Y-101369151D01*
X108813961Y-101313255D01*
X108866949Y-101282662D01*
X108887533Y-101280499D01*
X109945261Y-101280499D01*
X109945264Y-101280499D01*
X109970391Y-101277585D01*
X110073165Y-101232206D01*
X110152606Y-101152765D01*
X110197985Y-101049991D01*
X110200900Y-101024865D01*
X110200899Y-99935136D01*
X110197985Y-99910009D01*
X110152606Y-99807235D01*
X110073165Y-99727794D01*
X109970391Y-99682415D01*
X109970390Y-99682414D01*
X109970388Y-99682414D01*
X109945269Y-99679500D01*
X109945265Y-99679500D01*
X109344900Y-99679500D01*
X109286709Y-99660593D01*
X109250745Y-99611093D01*
X109245900Y-99580500D01*
X109245900Y-99562744D01*
X109245900Y-99562743D01*
X109204977Y-99410016D01*
X109142497Y-99301797D01*
X109129777Y-99241952D01*
X109154664Y-99186056D01*
X109207652Y-99155463D01*
X109228235Y-99153300D01*
X111623828Y-99153300D01*
X111682019Y-99172207D01*
X111693832Y-99182296D01*
X115852016Y-103340480D01*
X115852018Y-103340481D01*
X115852019Y-103340482D01*
X115852020Y-103340483D01*
X115943337Y-103393205D01*
X115943335Y-103393205D01*
X115943339Y-103393206D01*
X115943341Y-103393207D01*
X116045202Y-103420500D01*
X116150656Y-103420500D01*
X117100101Y-103420500D01*
X117158292Y-103439407D01*
X117194256Y-103488907D01*
X117199101Y-103519500D01*
X117199101Y-103564863D01*
X117202014Y-103589990D01*
X117208632Y-103604977D01*
X117247394Y-103692765D01*
X117326835Y-103772206D01*
X117429609Y-103817585D01*
X117454735Y-103820500D01*
X120054464Y-103820499D01*
X120079591Y-103817585D01*
X120120113Y-103799692D01*
X120125291Y-103799164D01*
X120129507Y-103796102D01*
X120155314Y-103796102D01*
X120180980Y-103793484D01*
X120185483Y-103796102D01*
X120190693Y-103796102D01*
X120211572Y-103811271D01*
X120233874Y-103824239D01*
X120235977Y-103829003D01*
X120240193Y-103832066D01*
X120248166Y-103856607D01*
X120258589Y-103880210D01*
X120259100Y-103890257D01*
X120259100Y-103993857D01*
X120240193Y-104052048D01*
X120230109Y-104063854D01*
X120144080Y-104149884D01*
X120065023Y-104286816D01*
X120024100Y-104439543D01*
X120024100Y-104597657D01*
X120065023Y-104750384D01*
X120144080Y-104887316D01*
X120255884Y-104999120D01*
X120392816Y-105078177D01*
X120545543Y-105119100D01*
X120545545Y-105119100D01*
X120703655Y-105119100D01*
X120703657Y-105119100D01*
X120856384Y-105078177D01*
X120993316Y-104999120D01*
X121105120Y-104887316D01*
X121184177Y-104750384D01*
X121225100Y-104597657D01*
X121225100Y-104439543D01*
X121184177Y-104286816D01*
X121105120Y-104149884D01*
X121098736Y-104143500D01*
X121089095Y-104133858D01*
X121061318Y-104079341D01*
X121060100Y-104063856D01*
X121060100Y-102459274D01*
X121057618Y-102450011D01*
X121032807Y-102357413D01*
X121029401Y-102351514D01*
X120980080Y-102266087D01*
X120905513Y-102191519D01*
X120905513Y-102191520D01*
X116346313Y-97632320D01*
X116346310Y-97632318D01*
X116346309Y-97632317D01*
X116346308Y-97632316D01*
X116254991Y-97579594D01*
X116254993Y-97579594D01*
X116207067Y-97566753D01*
X116153127Y-97552300D01*
X116153125Y-97552300D01*
X107982987Y-97552300D01*
X107924796Y-97533393D01*
X107912983Y-97523304D01*
X106357096Y-95967417D01*
X106329319Y-95912900D01*
X106328100Y-95897413D01*
X106328100Y-84695130D01*
X107089900Y-84695130D01*
X107089900Y-85784860D01*
X107089901Y-85784863D01*
X107092814Y-85809990D01*
X107101042Y-85828624D01*
X107138194Y-85912765D01*
X107217635Y-85992206D01*
X107320409Y-86037585D01*
X107345535Y-86040500D01*
X109945264Y-86040499D01*
X109970391Y-86037585D01*
X110073165Y-85992206D01*
X110152606Y-85912765D01*
X110197985Y-85809991D01*
X110200900Y-85784865D01*
X110200900Y-85739500D01*
X110219807Y-85681309D01*
X110269307Y-85645345D01*
X110299900Y-85640500D01*
X111562699Y-85640500D01*
X111620890Y-85659407D01*
X111632703Y-85669496D01*
X115313703Y-89350496D01*
X115341480Y-89405013D01*
X115331909Y-89465445D01*
X115288644Y-89508710D01*
X115243699Y-89519500D01*
X114965539Y-89519500D01*
X114965536Y-89519501D01*
X114940409Y-89522414D01*
X114837635Y-89567794D01*
X114758194Y-89647235D01*
X114712814Y-89750011D01*
X114709900Y-89775130D01*
X114709900Y-89820500D01*
X114705055Y-89835411D01*
X114705055Y-89851093D01*
X114695838Y-89863778D01*
X114690993Y-89878691D01*
X114678307Y-89887907D01*
X114669091Y-89900593D01*
X114654178Y-89905438D01*
X114641493Y-89914655D01*
X114610900Y-89919500D01*
X114420571Y-89919500D01*
X114362380Y-89900593D01*
X114326416Y-89851093D01*
X114326416Y-89789907D01*
X114334834Y-89771000D01*
X114411977Y-89637384D01*
X114452900Y-89484657D01*
X114452900Y-89326543D01*
X114411977Y-89173816D01*
X114332920Y-89036884D01*
X114221116Y-88925080D01*
X114084184Y-88846023D01*
X113931457Y-88805100D01*
X113931455Y-88805100D01*
X113859300Y-88805100D01*
X113801109Y-88786193D01*
X113789296Y-88776104D01*
X112719095Y-87705902D01*
X112691318Y-87651385D01*
X112690099Y-87635898D01*
X112690099Y-87235139D01*
X112690099Y-87235136D01*
X112687185Y-87210009D01*
X112641806Y-87107235D01*
X112562365Y-87027794D01*
X112459591Y-86982415D01*
X112459590Y-86982414D01*
X112459588Y-86982414D01*
X112434468Y-86979500D01*
X109834739Y-86979500D01*
X109834736Y-86979501D01*
X109809609Y-86982414D01*
X109706835Y-87027794D01*
X109627394Y-87107235D01*
X109582014Y-87210011D01*
X109579100Y-87235130D01*
X109579100Y-88324860D01*
X109579101Y-88324863D01*
X109582014Y-88349990D01*
X109607356Y-88407385D01*
X109627394Y-88452765D01*
X109706835Y-88532206D01*
X109809609Y-88577585D01*
X109834735Y-88580500D01*
X112419898Y-88580499D01*
X112478089Y-88599406D01*
X112489902Y-88609495D01*
X113222904Y-89342496D01*
X113250681Y-89397013D01*
X113251900Y-89412500D01*
X113251900Y-89484657D01*
X113292823Y-89637384D01*
X113369966Y-89771000D01*
X113372165Y-89781347D01*
X113378384Y-89789907D01*
X113378384Y-89810604D01*
X113382687Y-89830849D01*
X113378384Y-89840513D01*
X113378384Y-89851093D01*
X113366217Y-89867838D01*
X113357800Y-89886744D01*
X113348639Y-89892033D01*
X113342420Y-89900593D01*
X113322735Y-89906988D01*
X113304812Y-89917337D01*
X113284229Y-89919500D01*
X113271899Y-89919500D01*
X113213708Y-89900593D01*
X113201895Y-89890503D01*
X113110296Y-89798903D01*
X113082519Y-89744386D01*
X113081300Y-89728900D01*
X113081300Y-89656744D01*
X113078752Y-89647235D01*
X113040377Y-89504016D01*
X112961320Y-89367084D01*
X112849516Y-89255280D01*
X112712584Y-89176223D01*
X112559857Y-89135300D01*
X112401743Y-89135300D01*
X112249016Y-89176223D01*
X112112084Y-89255280D01*
X112000280Y-89367084D01*
X111921223Y-89504016D01*
X111880300Y-89656743D01*
X111880300Y-89814857D01*
X111921223Y-89967584D01*
X112000280Y-90104516D01*
X112112084Y-90216320D01*
X112249016Y-90295377D01*
X112401743Y-90336300D01*
X112473900Y-90336300D01*
X112532091Y-90355207D01*
X112543904Y-90365296D01*
X112744518Y-90565910D01*
X112744520Y-90565913D01*
X112819087Y-90640480D01*
X112839420Y-90652219D01*
X112859753Y-90663959D01*
X112859754Y-90663959D01*
X112910413Y-90693207D01*
X113012270Y-90720500D01*
X113012272Y-90720501D01*
X113012273Y-90720501D01*
X113123790Y-90720501D01*
X113123806Y-90720500D01*
X114610901Y-90720500D01*
X114669092Y-90739407D01*
X114705056Y-90788907D01*
X114709901Y-90819500D01*
X114709901Y-90864863D01*
X114712814Y-90889990D01*
X114738156Y-90947385D01*
X114758194Y-90992765D01*
X114837635Y-91072206D01*
X114940409Y-91117585D01*
X114965535Y-91120500D01*
X117565264Y-91120499D01*
X117590391Y-91117585D01*
X117693165Y-91072206D01*
X117772606Y-90992765D01*
X117817985Y-90889991D01*
X117820900Y-90864865D01*
X117820899Y-89981299D01*
X117839806Y-89923109D01*
X117889306Y-89887145D01*
X117919899Y-89882300D01*
X118448640Y-89882300D01*
X118456237Y-89884768D01*
X118464127Y-89883519D01*
X118484782Y-89894043D01*
X118506831Y-89901207D01*
X118518644Y-89911296D01*
X118607704Y-90000356D01*
X118635481Y-90054873D01*
X118636700Y-90070360D01*
X118636700Y-90142516D01*
X118677623Y-90295243D01*
X118756680Y-90432175D01*
X118868484Y-90543979D01*
X119005416Y-90623036D01*
X119158143Y-90663959D01*
X119158145Y-90663959D01*
X119316255Y-90663959D01*
X119316257Y-90663959D01*
X119468984Y-90623036D01*
X119605916Y-90543979D01*
X119717720Y-90432175D01*
X119796777Y-90295243D01*
X119798076Y-90290395D01*
X119831401Y-90239081D01*
X119888523Y-90217156D01*
X119893702Y-90217020D01*
X120031133Y-90217020D01*
X120031135Y-90217020D01*
X120183862Y-90176097D01*
X120320794Y-90097040D01*
X120432598Y-89985236D01*
X120511655Y-89848304D01*
X120552578Y-89695577D01*
X120552578Y-89537463D01*
X120511655Y-89384736D01*
X120432598Y-89247804D01*
X120320794Y-89136000D01*
X120183862Y-89056943D01*
X120031135Y-89016020D01*
X120031133Y-89016020D01*
X119958979Y-89016020D01*
X119900788Y-88997113D01*
X119888976Y-88987024D01*
X119663270Y-88761319D01*
X119658998Y-88758041D01*
X119624342Y-88707616D01*
X119625944Y-88646452D01*
X119663191Y-88597910D01*
X119719264Y-88580499D01*
X120054464Y-88580499D01*
X120079591Y-88577585D01*
X120182365Y-88532206D01*
X120261806Y-88452765D01*
X120307185Y-88349991D01*
X120310100Y-88324865D01*
X120310099Y-87235136D01*
X120307185Y-87210009D01*
X120261806Y-87107235D01*
X120182365Y-87027794D01*
X120079591Y-86982415D01*
X120079590Y-86982414D01*
X120079588Y-86982414D01*
X120054469Y-86979500D01*
X120054465Y-86979500D01*
X119254100Y-86979500D01*
X119195909Y-86960593D01*
X119159945Y-86911093D01*
X119155100Y-86880500D01*
X119155100Y-86736674D01*
X119155100Y-86736673D01*
X119127807Y-86634813D01*
X119127807Y-86634812D01*
X119092004Y-86572801D01*
X119075080Y-86543487D01*
X119000513Y-86468920D01*
X119000510Y-86468918D01*
X118994547Y-86462955D01*
X118994541Y-86462948D01*
X118531496Y-85999902D01*
X118503719Y-85945386D01*
X118502500Y-85929899D01*
X118502500Y-85828624D01*
X118521407Y-85770433D01*
X118570907Y-85734469D01*
X118627121Y-85732998D01*
X118694448Y-85751038D01*
X118694449Y-85751038D01*
X118852560Y-85751038D01*
X118852562Y-85751038D01*
X119005289Y-85710115D01*
X119142221Y-85631058D01*
X119254025Y-85519254D01*
X119333082Y-85382322D01*
X119374005Y-85229595D01*
X119374005Y-85071481D01*
X119333082Y-84918754D01*
X119254025Y-84781822D01*
X119243296Y-84771093D01*
X119184096Y-84711892D01*
X119156319Y-84657375D01*
X119155100Y-84641889D01*
X119155100Y-83599499D01*
X119174007Y-83541308D01*
X119223507Y-83505344D01*
X119254100Y-83500499D01*
X120054461Y-83500499D01*
X120054464Y-83500499D01*
X120079591Y-83497585D01*
X120182365Y-83452206D01*
X120261806Y-83372765D01*
X120307185Y-83269991D01*
X120310100Y-83244865D01*
X120310099Y-82155136D01*
X120307185Y-82130009D01*
X120261806Y-82027235D01*
X120182365Y-81947794D01*
X120079591Y-81902415D01*
X120079590Y-81902414D01*
X120079588Y-81902414D01*
X120054468Y-81899500D01*
X117454739Y-81899500D01*
X117454736Y-81899501D01*
X117429609Y-81902414D01*
X117326835Y-81947794D01*
X117247394Y-82027235D01*
X117202014Y-82130011D01*
X117199100Y-82155130D01*
X117199100Y-82955299D01*
X117180193Y-83013490D01*
X117130693Y-83049454D01*
X117069507Y-83049454D01*
X117030096Y-83025303D01*
X116694896Y-82690103D01*
X116667119Y-82635586D01*
X116665900Y-82620099D01*
X116665900Y-81059499D01*
X116684807Y-81001308D01*
X116734307Y-80965344D01*
X116764900Y-80960499D01*
X117565261Y-80960499D01*
X117565264Y-80960499D01*
X117590391Y-80957585D01*
X117693165Y-80912206D01*
X117772606Y-80832765D01*
X117817985Y-80729991D01*
X117820900Y-80704865D01*
X117820899Y-79615136D01*
X117817985Y-79590009D01*
X117772606Y-79487235D01*
X117693165Y-79407794D01*
X117590391Y-79362415D01*
X117590390Y-79362414D01*
X117590388Y-79362414D01*
X117565268Y-79359500D01*
X114965539Y-79359500D01*
X114965536Y-79359501D01*
X114940409Y-79362414D01*
X114837635Y-79407794D01*
X114758194Y-79487235D01*
X114712814Y-79590011D01*
X114709900Y-79615130D01*
X114709900Y-80704860D01*
X114709901Y-80704863D01*
X114712814Y-80729990D01*
X114738156Y-80787385D01*
X114758194Y-80832765D01*
X114837635Y-80912206D01*
X114940409Y-80957585D01*
X114965535Y-80960500D01*
X115765900Y-80960499D01*
X115824091Y-80979406D01*
X115860055Y-81028906D01*
X115864900Y-81059499D01*
X115864900Y-82774273D01*
X115864900Y-82879727D01*
X115885149Y-82955299D01*
X115892194Y-82981592D01*
X115944916Y-83072908D01*
X115944918Y-83072910D01*
X115944920Y-83072913D01*
X116551695Y-83679688D01*
X116579471Y-83734203D01*
X116569900Y-83794635D01*
X116526635Y-83837900D01*
X116466203Y-83847471D01*
X116452714Y-83843667D01*
X116452652Y-83843903D01*
X116446385Y-83842223D01*
X116446384Y-83842223D01*
X116293657Y-83801300D01*
X116135543Y-83801300D01*
X115998950Y-83837900D01*
X115982816Y-83842223D01*
X115845884Y-83921280D01*
X115734080Y-84033084D01*
X115655023Y-84170016D01*
X115614100Y-84322744D01*
X115614100Y-84340500D01*
X115595193Y-84398691D01*
X115545693Y-84434655D01*
X115515100Y-84439500D01*
X114965539Y-84439500D01*
X114965536Y-84439501D01*
X114940409Y-84442414D01*
X114837635Y-84487794D01*
X114758194Y-84567235D01*
X114712814Y-84670011D01*
X114709900Y-84695130D01*
X114709900Y-85784860D01*
X114709901Y-85784863D01*
X114712814Y-85809990D01*
X114721042Y-85828624D01*
X114758194Y-85912765D01*
X114837635Y-85992206D01*
X114940409Y-86037585D01*
X114965535Y-86040500D01*
X117565264Y-86040499D01*
X117590391Y-86037585D01*
X117590392Y-86037584D01*
X117591095Y-86037503D01*
X117651077Y-86049581D01*
X117692504Y-86094608D01*
X117701500Y-86135844D01*
X117701500Y-86189527D01*
X117725570Y-86279359D01*
X117728794Y-86291392D01*
X117781516Y-86382708D01*
X117781518Y-86382710D01*
X117781520Y-86382713D01*
X118135481Y-86736673D01*
X118209304Y-86810496D01*
X118237081Y-86865013D01*
X118227510Y-86925445D01*
X118184245Y-86968710D01*
X118139300Y-86979500D01*
X117454739Y-86979500D01*
X117454736Y-86979501D01*
X117429609Y-86982414D01*
X117326835Y-87027794D01*
X117247394Y-87107235D01*
X117202014Y-87210011D01*
X117199100Y-87235130D01*
X117199100Y-88324860D01*
X117199101Y-88324863D01*
X117202014Y-88349990D01*
X117227356Y-88407385D01*
X117247394Y-88452765D01*
X117306927Y-88512298D01*
X117334703Y-88566813D01*
X117325132Y-88627245D01*
X117281867Y-88670510D01*
X117236922Y-88681300D01*
X116383987Y-88681300D01*
X116325796Y-88662393D01*
X116313983Y-88652304D01*
X113291296Y-85629617D01*
X113263519Y-85575100D01*
X113262300Y-85559613D01*
X113262300Y-83155274D01*
X113262300Y-83155273D01*
X113235007Y-83053413D01*
X113232721Y-83049454D01*
X113182280Y-82962087D01*
X113107713Y-82887519D01*
X113107713Y-82887520D01*
X112719095Y-82498902D01*
X112691318Y-82444385D01*
X112690099Y-82428898D01*
X112690099Y-82155139D01*
X112690099Y-82155136D01*
X112687185Y-82130009D01*
X112641806Y-82027235D01*
X112562365Y-81947794D01*
X112459591Y-81902415D01*
X112459590Y-81902414D01*
X112459588Y-81902414D01*
X112434468Y-81899500D01*
X109834739Y-81899500D01*
X109834736Y-81899501D01*
X109809609Y-81902414D01*
X109706835Y-81947794D01*
X109627394Y-82027235D01*
X109582014Y-82130011D01*
X109579100Y-82155130D01*
X109579100Y-83244860D01*
X109579101Y-83244863D01*
X109582014Y-83269990D01*
X109607356Y-83327385D01*
X109627394Y-83372765D01*
X109706835Y-83452206D01*
X109809609Y-83497585D01*
X109834735Y-83500500D01*
X112362300Y-83500499D01*
X112420491Y-83519406D01*
X112456455Y-83568906D01*
X112461300Y-83599499D01*
X112461300Y-85126299D01*
X112442393Y-85184490D01*
X112392893Y-85220454D01*
X112331707Y-85220454D01*
X112292297Y-85196303D01*
X112015513Y-84919520D01*
X112015508Y-84919516D01*
X111924191Y-84866794D01*
X111924193Y-84866794D01*
X111884670Y-84856204D01*
X111822327Y-84839500D01*
X111822325Y-84839500D01*
X110299899Y-84839500D01*
X110241708Y-84820593D01*
X110205744Y-84771093D01*
X110200899Y-84740500D01*
X110200899Y-84695139D01*
X110200899Y-84695136D01*
X110197985Y-84670009D01*
X110152606Y-84567235D01*
X110073165Y-84487794D01*
X109970391Y-84442415D01*
X109970390Y-84442414D01*
X109970388Y-84442414D01*
X109945268Y-84439500D01*
X107345539Y-84439500D01*
X107345536Y-84439501D01*
X107320409Y-84442414D01*
X107217635Y-84487794D01*
X107138194Y-84567235D01*
X107092814Y-84670011D01*
X107089900Y-84695130D01*
X106328100Y-84695130D01*
X106328100Y-81840101D01*
X106347007Y-81781910D01*
X106357096Y-81770097D01*
X106739906Y-81387287D01*
X107167847Y-80959345D01*
X107222362Y-80931570D01*
X107277834Y-80938786D01*
X107320409Y-80957585D01*
X107345535Y-80960500D01*
X109945264Y-80960499D01*
X109970391Y-80957585D01*
X110073165Y-80912206D01*
X110152606Y-80832765D01*
X110197985Y-80729991D01*
X110200900Y-80704865D01*
X110200899Y-79615136D01*
X110197985Y-79590009D01*
X110152606Y-79487235D01*
X110073165Y-79407794D01*
X109970391Y-79362415D01*
X109970390Y-79362414D01*
X109970388Y-79362414D01*
X109945268Y-79359500D01*
X107345539Y-79359500D01*
X107345536Y-79359501D01*
X107320409Y-79362414D01*
X107217635Y-79407794D01*
X107138194Y-79487235D01*
X107092814Y-79590011D01*
X107089900Y-79615130D01*
X107089900Y-79863498D01*
X107070993Y-79921689D01*
X107060904Y-79933502D01*
X105607117Y-81387290D01*
X105607116Y-81387291D01*
X105554393Y-81478611D01*
X105554392Y-81478611D01*
X105554393Y-81478612D01*
X105527100Y-81580473D01*
X105527100Y-95464099D01*
X105508193Y-95522290D01*
X105458693Y-95558254D01*
X105397507Y-95558254D01*
X105358096Y-95534103D01*
X104080596Y-94256603D01*
X104052819Y-94202086D01*
X104051600Y-94186599D01*
X104051600Y-94139844D01*
X104051475Y-94139377D01*
X104010677Y-93987116D01*
X103931620Y-93850184D01*
X103819816Y-93738380D01*
X103682884Y-93659323D01*
X103530157Y-93618400D01*
X103372043Y-93618400D01*
X103219316Y-93659323D01*
X103082384Y-93738380D01*
X102970580Y-93850184D01*
X102891523Y-93987116D01*
X102850600Y-94139843D01*
X100917900Y-94139843D01*
X100917900Y-79046101D01*
X100936807Y-78987910D01*
X100946896Y-78976097D01*
X103945169Y-75977824D01*
X108539999Y-75977824D01*
X108546401Y-76037370D01*
X108546403Y-76037381D01*
X108596646Y-76172088D01*
X108596647Y-76172090D01*
X108682807Y-76287184D01*
X108682815Y-76287192D01*
X108797909Y-76373352D01*
X108797911Y-76373353D01*
X108932618Y-76423596D01*
X108932629Y-76423598D01*
X108992176Y-76430000D01*
X109639999Y-76430000D01*
X109640000Y-76429999D01*
X109640000Y-75513012D01*
X109697007Y-75545925D01*
X109824174Y-75580000D01*
X109955826Y-75580000D01*
X110082993Y-75545925D01*
X110140000Y-75513012D01*
X110140000Y-76429999D01*
X110140001Y-76430000D01*
X110787824Y-76430000D01*
X110847370Y-76423598D01*
X110847381Y-76423596D01*
X110982088Y-76373353D01*
X110982090Y-76373352D01*
X111097184Y-76287192D01*
X111097192Y-76287184D01*
X111183352Y-76172090D01*
X111183353Y-76172088D01*
X111233596Y-76037381D01*
X111233598Y-76037370D01*
X111240000Y-75977824D01*
X111240000Y-75330001D01*
X111239999Y-75330000D01*
X110323012Y-75330000D01*
X110355925Y-75272993D01*
X110390000Y-75145826D01*
X110390000Y-75014174D01*
X110355925Y-74887007D01*
X110323012Y-74830000D01*
X111239999Y-74830000D01*
X111240000Y-74829999D01*
X111240000Y-74182175D01*
X111233598Y-74122629D01*
X111233596Y-74122618D01*
X111183353Y-73987911D01*
X111183352Y-73987909D01*
X111097192Y-73872815D01*
X111097184Y-73872807D01*
X110982090Y-73786647D01*
X110982088Y-73786646D01*
X110847381Y-73736403D01*
X110847370Y-73736401D01*
X110787824Y-73730000D01*
X110140001Y-73730000D01*
X110140000Y-73730001D01*
X110140000Y-74646988D01*
X110082993Y-74614075D01*
X109955826Y-74580000D01*
X109824174Y-74580000D01*
X109697007Y-74614075D01*
X109640000Y-74646988D01*
X109640000Y-73730001D01*
X109639999Y-73730000D01*
X108992176Y-73730000D01*
X108932629Y-73736401D01*
X108932618Y-73736403D01*
X108797911Y-73786646D01*
X108797909Y-73786647D01*
X108682815Y-73872807D01*
X108682807Y-73872815D01*
X108596647Y-73987909D01*
X108596646Y-73987911D01*
X108546403Y-74122618D01*
X108546401Y-74122629D01*
X108540000Y-74182175D01*
X108540000Y-74829999D01*
X108540001Y-74830000D01*
X109456988Y-74830000D01*
X109424075Y-74887007D01*
X109390000Y-75014174D01*
X109390000Y-75145826D01*
X109424075Y-75272993D01*
X109456988Y-75330000D01*
X108540001Y-75330000D01*
X108540000Y-75330001D01*
X108540000Y-75977824D01*
X108539999Y-75977824D01*
X103945169Y-75977824D01*
X107893297Y-72029696D01*
X107947814Y-72001919D01*
X107963301Y-72000700D01*
X110136856Y-72000700D01*
X110195047Y-72019607D01*
X110206859Y-72029696D01*
X110257881Y-72080717D01*
X110257884Y-72080720D01*
X110394816Y-72159777D01*
X110547543Y-72200700D01*
X110547545Y-72200700D01*
X110705655Y-72200700D01*
X110705657Y-72200700D01*
X110858384Y-72159777D01*
X110995316Y-72080720D01*
X111020829Y-72055206D01*
X111046341Y-72029696D01*
X111100858Y-72001919D01*
X111116344Y-72000700D01*
X120452699Y-72000700D01*
X120510890Y-72019607D01*
X120522703Y-72029696D01*
X126640504Y-78147496D01*
X126668281Y-78202013D01*
X126669500Y-78217500D01*
X126669500Y-93071856D01*
X126650593Y-93130047D01*
X126640504Y-93141859D01*
X126579882Y-93202481D01*
X126579880Y-93202483D01*
X126579880Y-93202484D01*
X126500823Y-93339416D01*
X126459900Y-93492143D01*
X126459900Y-93650257D01*
X126500823Y-93802984D01*
X126579880Y-93939916D01*
X126691684Y-94051720D01*
X126828616Y-94130777D01*
X126981343Y-94171700D01*
X126981345Y-94171700D01*
X127139455Y-94171700D01*
X127139457Y-94171700D01*
X127292184Y-94130777D01*
X127429116Y-94051720D01*
X127540920Y-93939916D01*
X127619977Y-93802984D01*
X127660900Y-93650257D01*
X127660900Y-93492143D01*
X127619977Y-93339416D01*
X127540920Y-93202484D01*
X127537359Y-93198923D01*
X127499496Y-93161059D01*
X127471719Y-93106542D01*
X127470500Y-93091056D01*
X127470500Y-78071314D01*
X127470501Y-78071301D01*
X127470501Y-77957872D01*
X127470500Y-77957870D01*
X127443207Y-77856013D01*
X127396196Y-77774588D01*
X127390480Y-77764687D01*
X127315913Y-77690120D01*
X127315910Y-77690118D01*
X120905513Y-71279720D01*
X120905510Y-71279718D01*
X120905508Y-71279716D01*
X120814191Y-71226994D01*
X120814193Y-71226994D01*
X120774670Y-71216404D01*
X120712327Y-71199700D01*
X120712325Y-71199700D01*
X111116344Y-71199700D01*
X111058153Y-71180793D01*
X111046341Y-71170704D01*
X110995318Y-71119682D01*
X110995316Y-71119680D01*
X110858384Y-71040623D01*
X110705657Y-70999700D01*
X110547543Y-70999700D01*
X110394816Y-71040623D01*
X110257881Y-71119682D01*
X110206859Y-71170704D01*
X110152342Y-71198481D01*
X110136856Y-71199700D01*
X107809127Y-71199700D01*
X107703673Y-71199700D01*
X107641329Y-71216404D01*
X107601807Y-71226994D01*
X107510491Y-71279716D01*
X100196916Y-78593291D01*
X100144193Y-78684611D01*
X100144192Y-78684611D01*
X100144193Y-78684612D01*
X100116900Y-78786473D01*
X100116900Y-99456856D01*
X100097993Y-99515047D01*
X100087904Y-99526859D01*
X100036882Y-99577881D01*
X100036880Y-99577883D01*
X100036880Y-99577884D01*
X99957823Y-99714816D01*
X99916900Y-99867543D01*
X99916900Y-100025657D01*
X99957823Y-100178384D01*
X99993219Y-100239692D01*
X100003637Y-100257736D01*
X100016900Y-100307236D01*
X100016900Y-108450563D01*
X100003637Y-108500062D01*
X99957823Y-108579414D01*
X99930541Y-108681234D01*
X99916900Y-108732143D01*
X99916900Y-108890257D01*
X99957823Y-109042984D01*
X100003637Y-109122336D01*
X100016900Y-109171836D01*
X100016900Y-109735134D01*
X99997993Y-109793325D01*
X99958971Y-109823551D01*
X99959346Y-109824218D01*
X99954838Y-109826752D01*
X99954221Y-109827230D01*
X99953956Y-109827335D01*
X99953441Y-109827538D01*
X99835603Y-109916897D01*
X99835597Y-109916903D01*
X99746238Y-110034741D01*
X99691983Y-110172320D01*
X99681600Y-110258779D01*
X97925500Y-110258779D01*
X97925500Y-71274318D01*
X97925877Y-71265690D01*
X97929262Y-71226994D01*
X97942512Y-71075540D01*
X97945505Y-71058564D01*
X97993790Y-70878360D01*
X97999686Y-70862163D01*
X98078526Y-70693091D01*
X98087146Y-70678161D01*
X98194145Y-70525351D01*
X98205226Y-70512144D01*
X98337144Y-70380226D01*
X98350351Y-70369145D01*
X98503161Y-70262146D01*
X98518091Y-70253526D01*
X98687163Y-70174686D01*
X98703360Y-70168790D01*
X98883564Y-70120505D01*
X98900540Y-70117512D01*
X99090691Y-70100877D01*
X99099319Y-70100500D01*
X99121929Y-70100500D01*
X128278071Y-70100500D01*
X128300681Y-70100500D01*
X128309309Y-70100877D01*
G37*
G04 #@! TD.AperFunction*
M02*
