G04 #@! TF.GenerationSoftware,KiCad,Pcbnew,8.0.8+dfsg-1*
G04 #@! TF.CreationDate,2025-06-05T15:25:50+09:00*
G04 #@! TF.ProjectId,bionic-tms32010,62696f6e-6963-42d7-946d-733332303130,2*
G04 #@! TF.SameCoordinates,Original*
G04 #@! TF.FileFunction,Copper,L1,Top*
G04 #@! TF.FilePolarity,Positive*
%FSLAX46Y46*%
G04 Gerber Fmt 4.6, Leading zero omitted, Abs format (unit mm)*
G04 Created by KiCad (PCBNEW 8.0.8+dfsg-1) date 2025-06-05 15:25:50*
%MOMM*%
%LPD*%
G01*
G04 APERTURE LIST*
G04 Aperture macros list*
%AMRoundRect*
0 Rectangle with rounded corners*
0 $1 Rounding radius*
0 $2 $3 $4 $5 $6 $7 $8 $9 X,Y pos of 4 corners*
0 Add a 4 corners polygon primitive as box body*
4,1,4,$2,$3,$4,$5,$6,$7,$8,$9,$2,$3,0*
0 Add four circle primitives for the rounded corners*
1,1,$1+$1,$2,$3*
1,1,$1+$1,$4,$5*
1,1,$1+$1,$6,$7*
1,1,$1+$1,$8,$9*
0 Add four rect primitives between the rounded corners*
20,1,$1+$1,$2,$3,$4,$5,0*
20,1,$1+$1,$4,$5,$6,$7,0*
20,1,$1+$1,$6,$7,$8,$9,0*
20,1,$1+$1,$8,$9,$2,$3,0*%
G04 Aperture macros list end*
G04 #@! TA.AperFunction,SMDPad,CuDef*
%ADD10RoundRect,0.237500X0.250000X0.237500X-0.250000X0.237500X-0.250000X-0.237500X0.250000X-0.237500X0*%
G04 #@! TD*
G04 #@! TA.AperFunction,SMDPad,CuDef*
%ADD11R,0.660400X1.625600*%
G04 #@! TD*
G04 #@! TA.AperFunction,ComponentPad*
%ADD12R,1.600000X1.600000*%
G04 #@! TD*
G04 #@! TA.AperFunction,ComponentPad*
%ADD13O,1.600000X1.600000*%
G04 #@! TD*
G04 #@! TA.AperFunction,SMDPad,CuDef*
%ADD14R,0.965200X0.762000*%
G04 #@! TD*
G04 #@! TA.AperFunction,ComponentPad*
%ADD15O,1.700000X1.700000*%
G04 #@! TD*
G04 #@! TA.AperFunction,ComponentPad*
%ADD16R,1.700000X1.700000*%
G04 #@! TD*
G04 #@! TA.AperFunction,SMDPad,CuDef*
%ADD17RoundRect,0.237500X0.237500X-0.300000X0.237500X0.300000X-0.237500X0.300000X-0.237500X-0.300000X0*%
G04 #@! TD*
G04 #@! TA.AperFunction,ViaPad*
%ADD18C,0.600000*%
G04 #@! TD*
G04 #@! TA.AperFunction,Conductor*
%ADD19C,0.200000*%
G04 #@! TD*
G04 #@! TA.AperFunction,Conductor*
%ADD20C,0.600000*%
G04 #@! TD*
G04 APERTURE END LIST*
D10*
X110802500Y-71651000D03*
X108977500Y-71651000D03*
D11*
X114650001Y-128497000D03*
X112749999Y-128497000D03*
X113700000Y-130629000D03*
D12*
X106080000Y-75080000D03*
D13*
X106080000Y-77620000D03*
X106080000Y-80160000D03*
X106080000Y-82700000D03*
X106080000Y-85240000D03*
X106080000Y-87780000D03*
X106080000Y-90320000D03*
X106080000Y-92860000D03*
X106080000Y-95400000D03*
X106080000Y-97940000D03*
X106080000Y-100480000D03*
X106080000Y-103020000D03*
X106080000Y-105560000D03*
X106080000Y-108100000D03*
X106080000Y-110640000D03*
X106080000Y-113180000D03*
X106080000Y-115720000D03*
X106080000Y-118260000D03*
X106080000Y-120800000D03*
X106080000Y-123340000D03*
X121320000Y-123340000D03*
X121320000Y-120800000D03*
X121320000Y-118260000D03*
X121320000Y-115720000D03*
X121320000Y-113180000D03*
X121320000Y-110640000D03*
X121320000Y-108100000D03*
X121320000Y-105560000D03*
X121320000Y-103020000D03*
X121320000Y-100480000D03*
X121320000Y-97940000D03*
X121320000Y-95400000D03*
X121320000Y-92860000D03*
X121320000Y-90320000D03*
X121320000Y-87780000D03*
X121320000Y-85240000D03*
X121320000Y-82700000D03*
X121320000Y-80160000D03*
X121320000Y-77620000D03*
X121320000Y-75080000D03*
D14*
X112950700Y-71651000D03*
X114703300Y-71651000D03*
D15*
X117510000Y-133500000D03*
X117510000Y-130960000D03*
X117510000Y-128420000D03*
X117510000Y-125880000D03*
X117510000Y-123340000D03*
X117510000Y-118260000D03*
X117510000Y-115720000D03*
X117510000Y-113180000D03*
X117510000Y-110640000D03*
X117510000Y-108100000D03*
X117510000Y-105560000D03*
X117510000Y-103020000D03*
X117510000Y-100480000D03*
X117510000Y-95400000D03*
X117510000Y-92860000D03*
X117510000Y-90320000D03*
X117510000Y-87780000D03*
X117510000Y-85240000D03*
X117510000Y-82700000D03*
X117510000Y-80160000D03*
X117510000Y-77620000D03*
D16*
X117510000Y-75080000D03*
D17*
X123860000Y-100480000D03*
X123860000Y-98755000D03*
D16*
X109890000Y-75080000D03*
D15*
X109890000Y-77620000D03*
X109890000Y-80160000D03*
X109890000Y-82700000D03*
X109890000Y-85240000D03*
X109890000Y-87780000D03*
X109890000Y-90320000D03*
X109890000Y-92860000D03*
X109890000Y-95400000D03*
X109890000Y-100480000D03*
X109890000Y-103020000D03*
X109890000Y-105560000D03*
X109890000Y-108100000D03*
X109890000Y-110640000D03*
X109890000Y-113180000D03*
X109890000Y-115720000D03*
X109890000Y-118260000D03*
X109890000Y-123340000D03*
X109890000Y-125880000D03*
X109890000Y-128420000D03*
X109890000Y-130960000D03*
X109890000Y-133500000D03*
D18*
X102502000Y-114499200D03*
X114081000Y-116990000D03*
X107858000Y-119403000D03*
X122590000Y-132357000D03*
X107858000Y-88923000D03*
X123479000Y-119403000D03*
X123860000Y-97432000D03*
X113700000Y-120800000D03*
X113700000Y-132357000D03*
X104810000Y-129690000D03*
X123606000Y-104290000D03*
X113580000Y-78890000D03*
X102143000Y-80541000D03*
X115478000Y-104290000D03*
X102168400Y-83258800D03*
X113573000Y-81430000D03*
X114878000Y-107084000D03*
X103560235Y-76751235D03*
X113573000Y-83970000D03*
X102057200Y-108531800D03*
X114757400Y-117879000D03*
D19*
X102502000Y-114499200D02*
X102551000Y-114499200D01*
X102551000Y-114499200D02*
X105041800Y-116990000D01*
X105041800Y-116990000D02*
X114081000Y-116990000D01*
X102057200Y-108531800D02*
X102066800Y-108531800D01*
X107858000Y-113180000D02*
X109890000Y-113180000D01*
X102066800Y-108531800D02*
X105445000Y-111910000D01*
X106588000Y-111910000D02*
X107858000Y-113180000D01*
X105445000Y-111910000D02*
X106588000Y-111910000D01*
X111776000Y-95355600D02*
X110550400Y-94130000D01*
X114757400Y-116696458D02*
X111776000Y-113715058D01*
X109255000Y-94130000D02*
X107985000Y-92860000D01*
X114757400Y-117879000D02*
X114757400Y-116696458D01*
X111776000Y-113715058D02*
X111776000Y-95355600D01*
X110550400Y-94130000D02*
X109255000Y-94130000D01*
X107985000Y-92860000D02*
X106080000Y-92860000D01*
X121320000Y-123340000D02*
X119738314Y-123340000D01*
X112208000Y-92638000D02*
X109890000Y-90320000D01*
X119738314Y-123340000D02*
X115357400Y-118959086D01*
X112208000Y-113581372D02*
X112208000Y-92638000D01*
X115357400Y-118959086D02*
X115357400Y-116730772D01*
X115357400Y-116730772D02*
X112208000Y-113581372D01*
X109890000Y-87780000D02*
X112608000Y-90498000D01*
X112608000Y-90498000D02*
X112608000Y-113415686D01*
X112608000Y-113415686D02*
X115757400Y-116565086D01*
X117764000Y-120800000D02*
X121320000Y-120800000D01*
X115757400Y-116565086D02*
X115757400Y-118793400D01*
X115757400Y-118793400D02*
X117764000Y-120800000D01*
D20*
X106080000Y-80160000D02*
X107477000Y-80160000D01*
X106080000Y-97940000D02*
X107477000Y-97940000D01*
X106080000Y-97940000D02*
X104810000Y-97940000D01*
D19*
X121396200Y-71651000D02*
X114703300Y-71651000D01*
X125434800Y-75689600D02*
X121396200Y-71651000D01*
X112749999Y-133484801D02*
X112734800Y-133500000D01*
D20*
X109890000Y-133500000D02*
X112734800Y-133500000D01*
D19*
X125015700Y-101483300D02*
X125434800Y-101064200D01*
X125434800Y-101064200D02*
X125434800Y-75689600D01*
D20*
X125015700Y-101483300D02*
X125003000Y-101496000D01*
X125003000Y-126007000D02*
X117510000Y-133500000D01*
X123860000Y-100480000D02*
X121320000Y-100480000D01*
X125015700Y-101483300D02*
X124012400Y-100480000D01*
X124012400Y-100480000D02*
X123860000Y-100480000D01*
D19*
X112749999Y-128497000D02*
X112749999Y-133484801D01*
D20*
X112734800Y-133500000D02*
X117510000Y-133500000D01*
X125003000Y-101496000D02*
X125003000Y-126007000D01*
D19*
X112950700Y-71651000D02*
X110802500Y-71651000D01*
X102143000Y-80541000D02*
X102768400Y-81166400D01*
X106715000Y-106830000D02*
X107985000Y-108100000D01*
X107985000Y-108100000D02*
X109890000Y-108100000D01*
X119415000Y-77620000D02*
X121320000Y-77620000D01*
X102768400Y-81166400D02*
X102768400Y-104169218D01*
X118145000Y-78890000D02*
X119415000Y-77620000D01*
X113580000Y-78890000D02*
X118145000Y-78890000D01*
X102768400Y-104169218D02*
X105429182Y-106830000D01*
X105429182Y-106830000D02*
X106715000Y-106830000D01*
X115478000Y-104290000D02*
X115478000Y-90725654D01*
X118025000Y-89170000D02*
X119415000Y-87780000D01*
X115478000Y-90725654D02*
X117033654Y-89170000D01*
X119415000Y-87780000D02*
X121320000Y-87780000D01*
X117033654Y-89170000D02*
X118025000Y-89170000D01*
X119415000Y-80160000D02*
X121320000Y-80160000D01*
X107858000Y-110640000D02*
X109890000Y-110640000D01*
X113573000Y-81430000D02*
X118145000Y-81430000D01*
X105445000Y-109370000D02*
X106588000Y-109370000D01*
X102168400Y-83258800D02*
X102168400Y-106093400D01*
X102168400Y-106093400D02*
X105445000Y-109370000D01*
X106588000Y-109370000D02*
X107858000Y-110640000D01*
X118145000Y-81430000D02*
X119415000Y-80160000D01*
X112938000Y-86590942D02*
X114208000Y-87860942D01*
X109890000Y-77620000D02*
X112938000Y-80668000D01*
X114208000Y-87860942D02*
X114208000Y-107846000D01*
X118145000Y-109370000D02*
X119415000Y-110640000D01*
X115732000Y-109370000D02*
X118145000Y-109370000D01*
X112938000Y-80668000D02*
X112938000Y-86590942D01*
X114208000Y-107846000D02*
X115732000Y-109370000D01*
X119415000Y-110640000D02*
X121320000Y-110640000D01*
X114843000Y-88820654D02*
X117033654Y-86630000D01*
X114878000Y-107084000D02*
X114843000Y-107049000D01*
X117033654Y-86630000D02*
X118025000Y-86630000D01*
X119415000Y-85240000D02*
X121320000Y-85240000D01*
X118025000Y-86630000D02*
X119415000Y-85240000D01*
X114843000Y-107049000D02*
X114843000Y-88820654D01*
X105445000Y-104290000D02*
X106588000Y-104290000D01*
X103168400Y-102013400D02*
X105445000Y-104290000D01*
X106588000Y-104290000D02*
X107858000Y-105560000D01*
X103168400Y-77143070D02*
X103168400Y-102013400D01*
X107858000Y-105560000D02*
X109890000Y-105560000D01*
X103560235Y-76751235D02*
X103168400Y-77143070D01*
X113808000Y-108868400D02*
X113808000Y-88026628D01*
X116849600Y-111910000D02*
X113808000Y-108868400D01*
X121320000Y-113180000D02*
X119415000Y-113180000D01*
X118145000Y-111910000D02*
X116849600Y-111910000D01*
X112538000Y-82808000D02*
X109890000Y-80160000D01*
X119415000Y-113180000D02*
X118145000Y-111910000D01*
X113808000Y-88026628D02*
X112538000Y-86756628D01*
X112538000Y-86756628D02*
X112538000Y-82808000D01*
X113573000Y-83970000D02*
X118145000Y-83970000D01*
X118145000Y-83970000D02*
X119415000Y-82700000D01*
X119415000Y-82700000D02*
X121320000Y-82700000D01*
X103968400Y-78588600D02*
X104937000Y-77620000D01*
X103968400Y-98368400D02*
X103968400Y-78588600D01*
X106588000Y-99210000D02*
X104810000Y-99210000D01*
X107858000Y-100480000D02*
X106588000Y-99210000D01*
X109890000Y-100480000D02*
X107858000Y-100480000D01*
X104810000Y-99210000D02*
X103968400Y-98368400D01*
X104937000Y-77620000D02*
X106080000Y-77620000D01*
X116748000Y-116990000D02*
X113008000Y-113250000D01*
X113008000Y-113250000D02*
X113008000Y-88358000D01*
X118145000Y-116990000D02*
X116748000Y-116990000D01*
X119415000Y-118260000D02*
X118145000Y-116990000D01*
X121320000Y-118260000D02*
X119415000Y-118260000D01*
X113008000Y-88358000D02*
X109890000Y-85240000D01*
X107858000Y-103020000D02*
X106588000Y-101750000D01*
X103568400Y-99889218D02*
X103568400Y-77591600D01*
X103568400Y-77591600D02*
X106080000Y-75080000D01*
X105429182Y-101750000D02*
X103568400Y-99889218D01*
X109890000Y-103020000D02*
X107858000Y-103020000D01*
X106588000Y-101750000D02*
X105429182Y-101750000D01*
X112138000Y-86922314D02*
X113408000Y-88192314D01*
X113408000Y-88192314D02*
X113408000Y-110983000D01*
X113408000Y-110983000D02*
X116925800Y-114500800D01*
X109890000Y-82700000D02*
X112138000Y-84948000D01*
X119415000Y-115720000D02*
X121320000Y-115720000D01*
X112138000Y-84948000D02*
X112138000Y-86922314D01*
X118195800Y-114500800D02*
X119415000Y-115720000D01*
X116925800Y-114500800D02*
X118195800Y-114500800D01*
X114650001Y-128497000D02*
X114650001Y-128862001D01*
X114650001Y-128862001D02*
X116748000Y-130960000D01*
X116748000Y-130960000D02*
X117510000Y-130960000D01*
X119440400Y-98549600D02*
X119440400Y-92199600D01*
X117510000Y-100480000D02*
X119440400Y-98549600D01*
X119440400Y-92199600D02*
X121320000Y-90320000D01*
X117510000Y-103020000D02*
X121320000Y-103020000D01*
X117510000Y-108100000D02*
X121320000Y-108100000D01*
X121320000Y-105560000D02*
X117510000Y-105560000D01*
G04 #@! TA.AperFunction,Conductor*
G36*
X125133875Y-70075805D02*
G01*
X125309097Y-70089594D01*
X125324430Y-70092023D01*
X125491550Y-70132145D01*
X125506317Y-70136943D01*
X125665104Y-70202715D01*
X125678926Y-70209758D01*
X125825469Y-70299560D01*
X125838032Y-70308688D01*
X125968717Y-70420303D01*
X125979699Y-70431285D01*
X126091311Y-70561967D01*
X126100440Y-70574532D01*
X126190238Y-70721068D01*
X126197287Y-70734902D01*
X126263054Y-70893678D01*
X126267855Y-70908453D01*
X126307975Y-71075564D01*
X126310405Y-71090907D01*
X126324195Y-71266123D01*
X126324500Y-71273891D01*
X126324500Y-137306108D01*
X126324195Y-137313876D01*
X126310405Y-137489092D01*
X126307975Y-137504435D01*
X126267855Y-137671546D01*
X126263054Y-137686321D01*
X126197287Y-137845097D01*
X126190234Y-137858939D01*
X126100442Y-138005465D01*
X126091311Y-138018032D01*
X125979699Y-138148714D01*
X125968714Y-138159699D01*
X125838032Y-138271311D01*
X125825465Y-138280442D01*
X125678939Y-138370234D01*
X125665097Y-138377287D01*
X125506321Y-138443054D01*
X125491546Y-138447855D01*
X125324435Y-138487975D01*
X125309092Y-138490405D01*
X125149743Y-138502946D01*
X125133874Y-138504195D01*
X125126108Y-138504500D01*
X102273892Y-138504500D01*
X102266125Y-138504195D01*
X102247014Y-138502691D01*
X102090907Y-138490405D01*
X102075564Y-138487975D01*
X101908453Y-138447855D01*
X101893678Y-138443054D01*
X101734902Y-138377287D01*
X101721068Y-138370238D01*
X101574532Y-138280440D01*
X101561967Y-138271311D01*
X101462706Y-138186535D01*
X101431282Y-138159696D01*
X101420303Y-138148717D01*
X101308688Y-138018032D01*
X101299560Y-138005469D01*
X101209758Y-137858926D01*
X101202715Y-137845104D01*
X101136943Y-137686317D01*
X101132144Y-137671546D01*
X101092024Y-137504435D01*
X101089594Y-137489097D01*
X101075805Y-137313875D01*
X101075500Y-137306108D01*
X101075500Y-133500000D01*
X108734571Y-133500000D01*
X108754244Y-133712311D01*
X108812596Y-133917391D01*
X108903772Y-134100500D01*
X108907634Y-134108255D01*
X109036128Y-134278407D01*
X109036135Y-134278413D01*
X109193692Y-134422047D01*
X109193699Y-134422053D01*
X109297389Y-134486255D01*
X109374981Y-134534298D01*
X109573802Y-134611321D01*
X109783390Y-134650500D01*
X109996610Y-134650500D01*
X110206198Y-134611321D01*
X110405019Y-134534298D01*
X110586302Y-134422052D01*
X110743872Y-134278407D01*
X110848515Y-134139838D01*
X110898671Y-134104796D01*
X110927518Y-134100500D01*
X112655743Y-134100500D01*
X116472482Y-134100500D01*
X116530673Y-134119407D01*
X116551483Y-134139836D01*
X116656128Y-134278407D01*
X116656135Y-134278413D01*
X116813692Y-134422047D01*
X116813699Y-134422053D01*
X116917389Y-134486255D01*
X116994981Y-134534298D01*
X117193802Y-134611321D01*
X117403390Y-134650500D01*
X117616610Y-134650500D01*
X117826198Y-134611321D01*
X118025019Y-134534298D01*
X118206302Y-134422052D01*
X118363872Y-134278407D01*
X118492366Y-134108255D01*
X118587405Y-133917389D01*
X118645756Y-133712310D01*
X118665429Y-133500000D01*
X118645756Y-133287690D01*
X118645240Y-133285875D01*
X118645269Y-133285085D01*
X118644914Y-133283185D01*
X118645342Y-133283104D01*
X118647500Y-133224732D01*
X118670454Y-133188779D01*
X125371713Y-126487521D01*
X125371716Y-126487520D01*
X125483520Y-126375716D01*
X125550802Y-126259179D01*
X125562577Y-126238785D01*
X125603500Y-126086058D01*
X125603500Y-125927943D01*
X125603500Y-101622788D01*
X125606874Y-101597163D01*
X125608440Y-101591321D01*
X125616201Y-101562357D01*
X125616201Y-101490199D01*
X125635108Y-101432008D01*
X125645191Y-101420201D01*
X125755280Y-101310113D01*
X125771261Y-101282433D01*
X125808005Y-101218792D01*
X125808005Y-101218790D01*
X125808007Y-101218788D01*
X125835300Y-101116927D01*
X125835300Y-101011473D01*
X125835300Y-75636873D01*
X125808007Y-75535013D01*
X125808007Y-75535012D01*
X125808007Y-75535011D01*
X125755283Y-75443691D01*
X125755281Y-75443689D01*
X125755280Y-75443687D01*
X121642113Y-71330520D01*
X121642110Y-71330518D01*
X121642108Y-71330516D01*
X121550791Y-71277794D01*
X121550793Y-71277794D01*
X121507234Y-71266123D01*
X121448927Y-71250500D01*
X121448925Y-71250500D01*
X115570287Y-71250500D01*
X115512096Y-71231593D01*
X115479723Y-71191489D01*
X115438106Y-71097235D01*
X115358665Y-71017794D01*
X115255891Y-70972415D01*
X115255890Y-70972414D01*
X115255888Y-70972414D01*
X115230768Y-70969500D01*
X114175839Y-70969500D01*
X114175836Y-70969501D01*
X114150709Y-70972414D01*
X114047935Y-71017794D01*
X113968494Y-71097235D01*
X113926878Y-71191488D01*
X113923113Y-71200014D01*
X113922526Y-71202173D01*
X113921403Y-71203886D01*
X113920108Y-71206821D01*
X113919622Y-71206606D01*
X113889003Y-71253357D01*
X113831797Y-71275062D01*
X113772758Y-71258996D01*
X113734438Y-71211297D01*
X113731472Y-71202166D01*
X113730885Y-71200011D01*
X113730885Y-71200009D01*
X113685506Y-71097235D01*
X113606065Y-71017794D01*
X113503291Y-70972415D01*
X113503290Y-70972414D01*
X113503288Y-70972414D01*
X113478168Y-70969500D01*
X112423239Y-70969500D01*
X112423236Y-70969501D01*
X112398109Y-70972414D01*
X112295335Y-71017794D01*
X112215894Y-71097235D01*
X112174276Y-71191489D01*
X112133477Y-71237084D01*
X112083713Y-71250500D01*
X111633921Y-71250500D01*
X111575730Y-71231593D01*
X111541824Y-71187819D01*
X111525862Y-71147342D01*
X111436500Y-71029500D01*
X111318658Y-70940138D01*
X111181079Y-70885883D01*
X111094620Y-70875500D01*
X111094618Y-70875500D01*
X110510382Y-70875500D01*
X110510379Y-70875500D01*
X110423920Y-70885883D01*
X110286341Y-70940138D01*
X110168503Y-71029497D01*
X110168496Y-71029504D01*
X110079455Y-71146922D01*
X110029229Y-71181864D01*
X109968056Y-71180610D01*
X109919304Y-71143639D01*
X109906596Y-71118239D01*
X109900450Y-71099692D01*
X109809946Y-70952964D01*
X109688035Y-70831053D01*
X109541306Y-70740548D01*
X109377648Y-70686318D01*
X109276655Y-70676000D01*
X109227501Y-70676000D01*
X109227500Y-70676001D01*
X109227500Y-72625998D01*
X109227501Y-72625999D01*
X109276654Y-72625999D01*
X109377642Y-72615682D01*
X109377654Y-72615679D01*
X109541306Y-72561451D01*
X109688035Y-72470946D01*
X109809946Y-72349035D01*
X109900451Y-72202306D01*
X109906596Y-72183761D01*
X109942845Y-72134469D01*
X110001144Y-72115899D01*
X110059225Y-72135142D01*
X110079456Y-72155078D01*
X110168500Y-72272500D01*
X110286342Y-72361862D01*
X110423923Y-72416117D01*
X110510382Y-72426500D01*
X110510384Y-72426500D01*
X111094616Y-72426500D01*
X111094618Y-72426500D01*
X111181077Y-72416117D01*
X111318658Y-72361862D01*
X111436500Y-72272500D01*
X111525862Y-72154658D01*
X111541824Y-72114180D01*
X111580760Y-72066984D01*
X111633921Y-72051500D01*
X112083713Y-72051500D01*
X112141904Y-72070407D01*
X112174276Y-72110510D01*
X112215894Y-72204765D01*
X112295335Y-72284206D01*
X112398109Y-72329585D01*
X112423235Y-72332500D01*
X113478164Y-72332499D01*
X113503291Y-72329585D01*
X113606065Y-72284206D01*
X113685506Y-72204765D01*
X113730885Y-72101991D01*
X113730886Y-72101978D01*
X113731469Y-72099838D01*
X113732592Y-72098122D01*
X113733892Y-72095179D01*
X113734378Y-72095393D01*
X113764986Y-72048650D01*
X113822190Y-72026938D01*
X113881230Y-72042996D01*
X113919556Y-72090691D01*
X113922525Y-72099826D01*
X113923112Y-72101984D01*
X113923114Y-72101990D01*
X113923115Y-72101991D01*
X113968494Y-72204765D01*
X114047935Y-72284206D01*
X114150709Y-72329585D01*
X114175835Y-72332500D01*
X115230764Y-72332499D01*
X115255891Y-72329585D01*
X115358665Y-72284206D01*
X115438106Y-72204765D01*
X115479723Y-72110510D01*
X115520523Y-72064916D01*
X115570287Y-72051500D01*
X121189299Y-72051500D01*
X121247490Y-72070407D01*
X121259303Y-72080496D01*
X125005304Y-75826497D01*
X125033081Y-75881014D01*
X125034300Y-75896501D01*
X125034300Y-100413657D01*
X125015393Y-100471848D01*
X124965893Y-100507812D01*
X124904707Y-100507812D01*
X124865296Y-100483661D01*
X124664496Y-100282861D01*
X124636719Y-100228344D01*
X124635500Y-100212857D01*
X124635500Y-100137883D01*
X124635500Y-100137882D01*
X124625117Y-100051423D01*
X124570862Y-99913842D01*
X124489834Y-99806990D01*
X124469740Y-99749201D01*
X124487451Y-99690635D01*
X124516748Y-99662912D01*
X124558035Y-99637446D01*
X124679946Y-99515535D01*
X124770451Y-99368806D01*
X124824681Y-99205148D01*
X124835000Y-99104155D01*
X124835000Y-99005001D01*
X124834999Y-99005000D01*
X122885002Y-99005000D01*
X122885001Y-99005001D01*
X122885001Y-99104154D01*
X122895317Y-99205142D01*
X122895320Y-99205154D01*
X122949548Y-99368806D01*
X123040053Y-99515535D01*
X123161962Y-99637444D01*
X123203252Y-99662912D01*
X123242854Y-99709553D01*
X123247477Y-99770563D01*
X123230164Y-99806991D01*
X123204892Y-99840318D01*
X123154666Y-99875261D01*
X123126008Y-99879500D01*
X122294863Y-99879500D01*
X122236672Y-99860593D01*
X122215861Y-99840163D01*
X122136764Y-99735421D01*
X121986041Y-99598019D01*
X121812637Y-99490652D01*
X121622456Y-99416976D01*
X121622455Y-99416975D01*
X121622453Y-99416975D01*
X121421976Y-99379500D01*
X121218024Y-99379500D01*
X121017546Y-99416975D01*
X120977353Y-99432546D01*
X120827363Y-99490652D01*
X120677881Y-99583207D01*
X120653959Y-99598019D01*
X120503237Y-99735420D01*
X120380328Y-99898177D01*
X120380323Y-99898186D01*
X120298450Y-100062611D01*
X120289418Y-100080750D01*
X120233603Y-100276917D01*
X120214785Y-100480000D01*
X120233603Y-100683083D01*
X120289418Y-100879250D01*
X120380327Y-101061821D01*
X120503236Y-101224579D01*
X120653959Y-101361981D01*
X120827363Y-101469348D01*
X121017544Y-101543024D01*
X121218024Y-101580500D01*
X121421976Y-101580500D01*
X121622456Y-101543024D01*
X121812637Y-101469348D01*
X121986041Y-101361981D01*
X122136764Y-101224579D01*
X122215860Y-101119837D01*
X122266016Y-101084796D01*
X122294863Y-101080500D01*
X123126008Y-101080500D01*
X123184199Y-101099407D01*
X123204891Y-101119680D01*
X123238500Y-101164000D01*
X123356342Y-101253362D01*
X123493923Y-101307617D01*
X123580382Y-101318000D01*
X123960157Y-101318000D01*
X124018348Y-101336907D01*
X124030161Y-101346996D01*
X124373504Y-101690339D01*
X124401281Y-101744856D01*
X124402500Y-101760343D01*
X124402500Y-125717256D01*
X124383593Y-125775447D01*
X124373504Y-125787260D01*
X118779016Y-131381747D01*
X118724499Y-131409524D01*
X118664067Y-131399953D01*
X118620802Y-131356688D01*
X118611231Y-131296256D01*
X118613787Y-131284665D01*
X118645756Y-131172310D01*
X118665429Y-130960000D01*
X118645756Y-130747690D01*
X118587405Y-130542611D01*
X118492366Y-130351745D01*
X118363872Y-130181593D01*
X118309623Y-130132139D01*
X118206307Y-130037952D01*
X118206300Y-130037946D01*
X118025024Y-129925705D01*
X118025019Y-129925702D01*
X117826195Y-129848678D01*
X117616610Y-129809500D01*
X117403390Y-129809500D01*
X117193804Y-129848678D01*
X116994980Y-129925702D01*
X116994975Y-129925705D01*
X116813699Y-130037946D01*
X116813698Y-130037947D01*
X116663137Y-130175203D01*
X116607396Y-130200433D01*
X116547470Y-130188081D01*
X116526437Y-130172045D01*
X115935583Y-129581191D01*
X115309696Y-128955303D01*
X115281919Y-128900786D01*
X115280700Y-128885299D01*
X115280700Y-128420000D01*
X116354571Y-128420000D01*
X116374244Y-128632310D01*
X116432595Y-128837389D01*
X116527634Y-129028255D01*
X116656128Y-129198407D01*
X116726734Y-129262773D01*
X116813692Y-129342047D01*
X116813699Y-129342053D01*
X116874647Y-129379790D01*
X116994981Y-129454298D01*
X117193802Y-129531321D01*
X117403390Y-129570500D01*
X117616610Y-129570500D01*
X117826198Y-129531321D01*
X118025019Y-129454298D01*
X118206302Y-129342052D01*
X118363872Y-129198407D01*
X118492366Y-129028255D01*
X118587405Y-128837389D01*
X118645756Y-128632310D01*
X118665429Y-128420000D01*
X118645756Y-128207690D01*
X118587405Y-128002611D01*
X118492366Y-127811745D01*
X118363872Y-127641593D01*
X118309623Y-127592139D01*
X118206307Y-127497952D01*
X118206300Y-127497946D01*
X118025024Y-127385705D01*
X118025019Y-127385702D01*
X117826195Y-127308678D01*
X117616610Y-127269500D01*
X117403390Y-127269500D01*
X117193804Y-127308678D01*
X116994980Y-127385702D01*
X116994975Y-127385705D01*
X116813699Y-127497946D01*
X116813692Y-127497952D01*
X116656135Y-127641586D01*
X116656131Y-127641589D01*
X116656128Y-127641593D01*
X116656125Y-127641597D01*
X116527635Y-127811743D01*
X116527630Y-127811752D01*
X116432596Y-128002608D01*
X116374244Y-128207688D01*
X116374244Y-128207690D01*
X116354571Y-128420000D01*
X115280700Y-128420000D01*
X115280700Y-127639339D01*
X115280700Y-127639336D01*
X115277786Y-127614209D01*
X115232407Y-127511435D01*
X115152966Y-127431994D01*
X115050192Y-127386615D01*
X115050191Y-127386614D01*
X115050189Y-127386614D01*
X115025069Y-127383700D01*
X114274940Y-127383700D01*
X114274937Y-127383701D01*
X114249810Y-127386614D01*
X114147036Y-127431994D01*
X114067595Y-127511435D01*
X114022215Y-127614211D01*
X114019301Y-127639330D01*
X114019301Y-127639332D01*
X114019302Y-129217200D01*
X114000395Y-129275391D01*
X113965343Y-129300857D01*
X113950000Y-129316201D01*
X113950000Y-130378999D01*
X113950001Y-130379000D01*
X114530199Y-130379000D01*
X114530200Y-130378999D01*
X114530200Y-129768375D01*
X114530199Y-129768373D01*
X114524987Y-129719880D01*
X114537567Y-129660002D01*
X114582939Y-129618954D01*
X114623418Y-129610299D01*
X114790898Y-129610299D01*
X114849089Y-129629206D01*
X114860902Y-129639295D01*
X116348240Y-131126632D01*
X116373457Y-131169543D01*
X116374243Y-131172308D01*
X116374244Y-131172310D01*
X116432595Y-131377389D01*
X116527634Y-131568255D01*
X116656128Y-131738407D01*
X116656135Y-131738413D01*
X116813692Y-131882047D01*
X116813699Y-131882053D01*
X116906357Y-131939424D01*
X116994981Y-131994298D01*
X117193802Y-132071321D01*
X117403390Y-132110500D01*
X117616610Y-132110500D01*
X117826198Y-132071321D01*
X117826213Y-132071315D01*
X117827485Y-132070954D01*
X117828049Y-132070974D01*
X117830697Y-132070480D01*
X117830808Y-132071076D01*
X117888629Y-132073213D01*
X117936767Y-132110980D01*
X117953514Y-132169829D01*
X117932471Y-132227282D01*
X117924585Y-132236178D01*
X117817506Y-132343257D01*
X117762989Y-132371034D01*
X117729311Y-132370567D01*
X117616610Y-132349500D01*
X117403390Y-132349500D01*
X117193804Y-132388678D01*
X116994980Y-132465702D01*
X116994975Y-132465705D01*
X116813699Y-132577946D01*
X116813692Y-132577952D01*
X116656135Y-132721586D01*
X116656131Y-132721589D01*
X116656128Y-132721593D01*
X116551484Y-132860161D01*
X116501329Y-132895204D01*
X116472482Y-132899500D01*
X113249499Y-132899500D01*
X113191308Y-132880593D01*
X113155344Y-132831093D01*
X113150499Y-132800500D01*
X113150499Y-132033579D01*
X113169406Y-131975388D01*
X113218906Y-131939424D01*
X113260081Y-131935146D01*
X113321976Y-131941800D01*
X113449999Y-131941800D01*
X113450000Y-131941799D01*
X113450000Y-130879001D01*
X113950000Y-130879001D01*
X113950000Y-131941799D01*
X113950001Y-131941800D01*
X114078024Y-131941800D01*
X114137570Y-131935398D01*
X114137581Y-131935396D01*
X114272288Y-131885153D01*
X114272290Y-131885152D01*
X114387384Y-131798992D01*
X114387392Y-131798984D01*
X114473552Y-131683890D01*
X114473553Y-131683888D01*
X114523796Y-131549181D01*
X114523798Y-131549170D01*
X114530200Y-131489624D01*
X114530200Y-130879001D01*
X114530199Y-130879000D01*
X113950001Y-130879000D01*
X113950000Y-130879001D01*
X113450000Y-130879001D01*
X113450000Y-129316201D01*
X113435704Y-129301905D01*
X113421508Y-129297293D01*
X113385544Y-129247793D01*
X113380699Y-129217200D01*
X113380698Y-127639339D01*
X113380698Y-127639336D01*
X113377784Y-127614209D01*
X113332405Y-127511435D01*
X113252964Y-127431994D01*
X113150190Y-127386615D01*
X113150189Y-127386614D01*
X113150187Y-127386614D01*
X113125067Y-127383700D01*
X112374938Y-127383700D01*
X112374935Y-127383701D01*
X112349808Y-127386614D01*
X112247034Y-127431994D01*
X112167593Y-127511435D01*
X112122213Y-127614211D01*
X112119299Y-127639330D01*
X112119299Y-129354660D01*
X112119300Y-129354663D01*
X112122213Y-129379790D01*
X112147555Y-129437185D01*
X112167593Y-129482565D01*
X112247034Y-129562006D01*
X112290487Y-129581192D01*
X112336082Y-129621991D01*
X112349499Y-129671756D01*
X112349499Y-132800500D01*
X112330592Y-132858691D01*
X112281092Y-132894655D01*
X112250499Y-132899500D01*
X110927518Y-132899500D01*
X110869327Y-132880593D01*
X110848516Y-132860163D01*
X110743872Y-132721593D01*
X110689623Y-132672139D01*
X110586307Y-132577952D01*
X110586300Y-132577946D01*
X110405024Y-132465705D01*
X110405019Y-132465702D01*
X110206195Y-132388678D01*
X109996610Y-132349500D01*
X109783390Y-132349500D01*
X109573804Y-132388678D01*
X109374980Y-132465702D01*
X109374975Y-132465705D01*
X109193699Y-132577946D01*
X109193692Y-132577952D01*
X109036135Y-132721586D01*
X109036131Y-132721589D01*
X109036128Y-132721593D01*
X109036125Y-132721597D01*
X108907635Y-132891743D01*
X108907630Y-132891752D01*
X108812596Y-133082608D01*
X108754244Y-133287688D01*
X108734571Y-133500000D01*
X101075500Y-133500000D01*
X101075500Y-130960000D01*
X108734571Y-130960000D01*
X108754244Y-131172310D01*
X108812595Y-131377389D01*
X108907634Y-131568255D01*
X109036128Y-131738407D01*
X109036135Y-131738413D01*
X109193692Y-131882047D01*
X109193699Y-131882053D01*
X109286357Y-131939424D01*
X109374981Y-131994298D01*
X109573802Y-132071321D01*
X109783390Y-132110500D01*
X109996610Y-132110500D01*
X110206198Y-132071321D01*
X110405019Y-131994298D01*
X110586302Y-131882052D01*
X110743872Y-131738407D01*
X110872366Y-131568255D01*
X110967405Y-131377389D01*
X111025756Y-131172310D01*
X111045429Y-130960000D01*
X111025756Y-130747690D01*
X110967405Y-130542611D01*
X110872366Y-130351745D01*
X110743872Y-130181593D01*
X110689623Y-130132139D01*
X110586307Y-130037952D01*
X110586300Y-130037946D01*
X110405024Y-129925705D01*
X110405019Y-129925702D01*
X110206195Y-129848678D01*
X109996610Y-129809500D01*
X109783390Y-129809500D01*
X109573804Y-129848678D01*
X109374980Y-129925702D01*
X109374975Y-129925705D01*
X109193699Y-130037946D01*
X109193692Y-130037952D01*
X109036135Y-130181586D01*
X109036131Y-130181589D01*
X109036128Y-130181593D01*
X109036125Y-130181597D01*
X108907635Y-130351743D01*
X108907630Y-130351752D01*
X108812596Y-130542608D01*
X108754244Y-130747688D01*
X108734571Y-130960000D01*
X101075500Y-130960000D01*
X101075500Y-128420000D01*
X108734571Y-128420000D01*
X108754244Y-128632310D01*
X108812595Y-128837389D01*
X108907634Y-129028255D01*
X109036128Y-129198407D01*
X109106734Y-129262773D01*
X109193692Y-129342047D01*
X109193699Y-129342053D01*
X109254647Y-129379790D01*
X109374981Y-129454298D01*
X109573802Y-129531321D01*
X109783390Y-129570500D01*
X109996610Y-129570500D01*
X110206198Y-129531321D01*
X110405019Y-129454298D01*
X110586302Y-129342052D01*
X110743872Y-129198407D01*
X110872366Y-129028255D01*
X110967405Y-128837389D01*
X111025756Y-128632310D01*
X111045429Y-128420000D01*
X111025756Y-128207690D01*
X110967405Y-128002611D01*
X110872366Y-127811745D01*
X110743872Y-127641593D01*
X110689623Y-127592139D01*
X110586307Y-127497952D01*
X110586300Y-127497946D01*
X110405024Y-127385705D01*
X110405019Y-127385702D01*
X110206195Y-127308678D01*
X109996610Y-127269500D01*
X109783390Y-127269500D01*
X109573804Y-127308678D01*
X109374980Y-127385702D01*
X109374975Y-127385705D01*
X109193699Y-127497946D01*
X109193692Y-127497952D01*
X109036135Y-127641586D01*
X109036131Y-127641589D01*
X109036128Y-127641593D01*
X109036125Y-127641597D01*
X108907635Y-127811743D01*
X108907630Y-127811752D01*
X108812596Y-128002608D01*
X108754244Y-128207688D01*
X108754244Y-128207690D01*
X108734571Y-128420000D01*
X101075500Y-128420000D01*
X101075500Y-125880000D01*
X108734571Y-125880000D01*
X108754244Y-126092310D01*
X108795920Y-126238785D01*
X108812596Y-126297391D01*
X108907268Y-126487521D01*
X108907634Y-126488255D01*
X109036128Y-126658407D01*
X109036135Y-126658413D01*
X109193692Y-126802047D01*
X109193699Y-126802053D01*
X109297389Y-126866255D01*
X109374981Y-126914298D01*
X109573802Y-126991321D01*
X109783390Y-127030500D01*
X109996610Y-127030500D01*
X110206198Y-126991321D01*
X110405019Y-126914298D01*
X110586302Y-126802052D01*
X110743872Y-126658407D01*
X110872366Y-126488255D01*
X110967405Y-126297389D01*
X111025756Y-126092310D01*
X111045429Y-125880000D01*
X116354571Y-125880000D01*
X116374244Y-126092310D01*
X116415920Y-126238785D01*
X116432596Y-126297391D01*
X116527268Y-126487521D01*
X116527634Y-126488255D01*
X116656128Y-126658407D01*
X116656135Y-126658413D01*
X116813692Y-126802047D01*
X116813699Y-126802053D01*
X116917389Y-126866255D01*
X116994981Y-126914298D01*
X117193802Y-126991321D01*
X117403390Y-127030500D01*
X117616610Y-127030500D01*
X117826198Y-126991321D01*
X118025019Y-126914298D01*
X118206302Y-126802052D01*
X118363872Y-126658407D01*
X118492366Y-126488255D01*
X118587405Y-126297389D01*
X118645756Y-126092310D01*
X118665429Y-125880000D01*
X118645756Y-125667690D01*
X118587405Y-125462611D01*
X118492366Y-125271745D01*
X118363872Y-125101593D01*
X118309623Y-125052139D01*
X118206307Y-124957952D01*
X118206300Y-124957946D01*
X118025024Y-124845705D01*
X118025019Y-124845702D01*
X117826195Y-124768678D01*
X117616610Y-124729500D01*
X117403390Y-124729500D01*
X117193804Y-124768678D01*
X116994980Y-124845702D01*
X116994975Y-124845705D01*
X116813699Y-124957946D01*
X116813692Y-124957952D01*
X116656135Y-125101586D01*
X116656131Y-125101589D01*
X116656128Y-125101593D01*
X116656125Y-125101597D01*
X116527635Y-125271743D01*
X116527630Y-125271752D01*
X116432596Y-125462608D01*
X116374244Y-125667688D01*
X116374244Y-125667690D01*
X116354571Y-125880000D01*
X111045429Y-125880000D01*
X111025756Y-125667690D01*
X110967405Y-125462611D01*
X110872366Y-125271745D01*
X110743872Y-125101593D01*
X110689623Y-125052139D01*
X110586307Y-124957952D01*
X110586300Y-124957946D01*
X110405024Y-124845705D01*
X110405019Y-124845702D01*
X110206195Y-124768678D01*
X109996610Y-124729500D01*
X109783390Y-124729500D01*
X109573804Y-124768678D01*
X109374980Y-124845702D01*
X109374975Y-124845705D01*
X109193699Y-124957946D01*
X109193692Y-124957952D01*
X109036135Y-125101586D01*
X109036131Y-125101589D01*
X109036128Y-125101593D01*
X109036125Y-125101597D01*
X108907635Y-125271743D01*
X108907630Y-125271752D01*
X108812596Y-125462608D01*
X108754244Y-125667688D01*
X108754244Y-125667690D01*
X108734571Y-125880000D01*
X101075500Y-125880000D01*
X101075500Y-123340000D01*
X104974785Y-123340000D01*
X104993603Y-123543083D01*
X105049418Y-123739250D01*
X105140327Y-123921821D01*
X105263236Y-124084579D01*
X105413959Y-124221981D01*
X105587363Y-124329348D01*
X105777544Y-124403024D01*
X105978024Y-124440500D01*
X106181976Y-124440500D01*
X106382456Y-124403024D01*
X106572637Y-124329348D01*
X106746041Y-124221981D01*
X106896764Y-124084579D01*
X107019673Y-123921821D01*
X107110582Y-123739250D01*
X107166397Y-123543083D01*
X107185215Y-123340000D01*
X108734571Y-123340000D01*
X108754244Y-123552310D01*
X108812595Y-123757389D01*
X108907634Y-123948255D01*
X109036128Y-124118407D01*
X109036135Y-124118413D01*
X109193692Y-124262047D01*
X109193699Y-124262053D01*
X109297389Y-124326255D01*
X109374981Y-124374298D01*
X109573802Y-124451321D01*
X109783390Y-124490500D01*
X109996610Y-124490500D01*
X110206198Y-124451321D01*
X110405019Y-124374298D01*
X110586302Y-124262052D01*
X110743872Y-124118407D01*
X110872366Y-123948255D01*
X110967405Y-123757389D01*
X111025756Y-123552310D01*
X111045429Y-123340000D01*
X111025756Y-123127690D01*
X110967405Y-122922611D01*
X110872366Y-122731745D01*
X110743872Y-122561593D01*
X110689623Y-122512139D01*
X110586307Y-122417952D01*
X110586300Y-122417946D01*
X110405024Y-122305705D01*
X110405019Y-122305702D01*
X110206195Y-122228678D01*
X109996610Y-122189500D01*
X109783390Y-122189500D01*
X109573804Y-122228678D01*
X109374980Y-122305702D01*
X109374975Y-122305705D01*
X109193699Y-122417946D01*
X109193692Y-122417952D01*
X109036135Y-122561586D01*
X109036131Y-122561589D01*
X109036128Y-122561593D01*
X109036125Y-122561597D01*
X108907635Y-122731743D01*
X108907630Y-122731752D01*
X108812596Y-122922608D01*
X108754244Y-123127688D01*
X108754244Y-123127690D01*
X108734571Y-123340000D01*
X107185215Y-123340000D01*
X107166397Y-123136917D01*
X107110582Y-122940750D01*
X107019673Y-122758179D01*
X106896764Y-122595421D01*
X106746041Y-122458019D01*
X106572637Y-122350652D01*
X106382456Y-122276976D01*
X106382455Y-122276975D01*
X106382453Y-122276975D01*
X106181976Y-122239500D01*
X105978024Y-122239500D01*
X105777546Y-122276975D01*
X105707632Y-122304059D01*
X105587363Y-122350652D01*
X105478676Y-122417948D01*
X105413959Y-122458019D01*
X105263237Y-122595420D01*
X105140328Y-122758177D01*
X105140323Y-122758186D01*
X105054952Y-122929636D01*
X105049418Y-122940750D01*
X104993603Y-123136917D01*
X104974785Y-123340000D01*
X101075500Y-123340000D01*
X101075500Y-120800000D01*
X104974785Y-120800000D01*
X104993603Y-121003083D01*
X105049418Y-121199250D01*
X105140327Y-121381821D01*
X105263236Y-121544579D01*
X105413959Y-121681981D01*
X105587363Y-121789348D01*
X105777544Y-121863024D01*
X105978024Y-121900500D01*
X106181976Y-121900500D01*
X106382456Y-121863024D01*
X106572637Y-121789348D01*
X106746041Y-121681981D01*
X106896764Y-121544579D01*
X107019673Y-121381821D01*
X107110582Y-121199250D01*
X107166397Y-121003083D01*
X107185215Y-120800000D01*
X107166397Y-120596917D01*
X107110582Y-120400750D01*
X107019673Y-120218179D01*
X106896764Y-120055421D01*
X106746041Y-119918019D01*
X106572637Y-119810652D01*
X106382456Y-119736976D01*
X106382455Y-119736975D01*
X106382453Y-119736975D01*
X106181976Y-119699500D01*
X105978024Y-119699500D01*
X105777546Y-119736975D01*
X105707632Y-119764059D01*
X105587363Y-119810652D01*
X105413959Y-119918019D01*
X105263237Y-120055420D01*
X105140328Y-120218177D01*
X105140323Y-120218186D01*
X105050040Y-120399500D01*
X105049418Y-120400750D01*
X104993603Y-120596917D01*
X104974785Y-120800000D01*
X101075500Y-120800000D01*
X101075500Y-114499199D01*
X101896318Y-114499199D01*
X101896318Y-114499200D01*
X101916955Y-114655958D01*
X101916957Y-114655966D01*
X101977462Y-114802038D01*
X101977462Y-114802039D01*
X102073713Y-114927476D01*
X102073718Y-114927482D01*
X102073722Y-114927485D01*
X102073723Y-114927486D01*
X102092108Y-114941593D01*
X102199159Y-115023736D01*
X102345238Y-115084244D01*
X102502000Y-115104882D01*
X102531611Y-115100983D01*
X102591772Y-115112132D01*
X102614539Y-115129132D01*
X104795887Y-117310480D01*
X104795889Y-117310481D01*
X104795890Y-117310482D01*
X104795891Y-117310483D01*
X104887208Y-117363205D01*
X104887206Y-117363205D01*
X104887210Y-117363206D01*
X104887212Y-117363207D01*
X104989073Y-117390500D01*
X105158754Y-117390500D01*
X105216945Y-117409407D01*
X105252909Y-117458907D01*
X105252909Y-117520093D01*
X105237760Y-117549155D01*
X105188348Y-117614589D01*
X105140328Y-117678177D01*
X105140323Y-117678186D01*
X105050040Y-117859500D01*
X105049418Y-117860750D01*
X104993603Y-118056917D01*
X104974785Y-118260000D01*
X104993603Y-118463083D01*
X105049418Y-118659250D01*
X105140327Y-118841821D01*
X105263236Y-119004579D01*
X105413959Y-119141981D01*
X105587363Y-119249348D01*
X105777544Y-119323024D01*
X105978024Y-119360500D01*
X106181976Y-119360500D01*
X106382456Y-119323024D01*
X106572637Y-119249348D01*
X106746041Y-119141981D01*
X106896764Y-119004579D01*
X107019673Y-118841821D01*
X107110582Y-118659250D01*
X107166397Y-118463083D01*
X107185215Y-118260000D01*
X107166397Y-118056917D01*
X107110582Y-117860750D01*
X107019673Y-117678179D01*
X106922240Y-117549157D01*
X106902263Y-117491330D01*
X106920092Y-117432799D01*
X106968918Y-117395927D01*
X107001246Y-117390500D01*
X108906099Y-117390500D01*
X108964290Y-117409407D01*
X109000254Y-117458907D01*
X109000254Y-117520093D01*
X108985104Y-117549159D01*
X108949971Y-117595682D01*
X108907635Y-117651743D01*
X108907630Y-117651752D01*
X108812596Y-117842608D01*
X108754244Y-118047688D01*
X108734571Y-118260000D01*
X108754244Y-118472311D01*
X108757656Y-118484302D01*
X108812595Y-118677389D01*
X108907634Y-118868255D01*
X109036128Y-119038407D01*
X109036135Y-119038413D01*
X109193692Y-119182047D01*
X109193699Y-119182053D01*
X109297389Y-119246255D01*
X109374981Y-119294298D01*
X109573802Y-119371321D01*
X109783390Y-119410500D01*
X109996610Y-119410500D01*
X110206198Y-119371321D01*
X110405019Y-119294298D01*
X110586302Y-119182052D01*
X110743872Y-119038407D01*
X110872366Y-118868255D01*
X110967405Y-118677389D01*
X111025756Y-118472310D01*
X111045429Y-118260000D01*
X111025756Y-118047690D01*
X110967405Y-117842611D01*
X110872366Y-117651745D01*
X110794896Y-117549159D01*
X110774918Y-117491330D01*
X110792747Y-117432799D01*
X110841573Y-117395927D01*
X110873901Y-117390500D01*
X113583929Y-117390500D01*
X113642120Y-117409407D01*
X113650687Y-117416723D01*
X113652716Y-117418280D01*
X113652718Y-117418282D01*
X113778159Y-117514536D01*
X113778160Y-117514536D01*
X113778161Y-117514537D01*
X113861751Y-117549161D01*
X113924238Y-117575044D01*
X114081000Y-117595682D01*
X114087433Y-117596529D01*
X114087122Y-117598890D01*
X114135438Y-117614589D01*
X114171402Y-117664089D01*
X114172755Y-117715746D01*
X114173203Y-117715805D01*
X114172831Y-117718629D01*
X114172875Y-117720300D01*
X114172356Y-117722236D01*
X114151718Y-117878999D01*
X114151718Y-117879000D01*
X114172355Y-118035758D01*
X114172357Y-118035766D01*
X114232862Y-118181838D01*
X114232862Y-118181839D01*
X114329113Y-118307276D01*
X114329118Y-118307282D01*
X114454559Y-118403536D01*
X114454560Y-118403536D01*
X114454561Y-118403537D01*
X114598318Y-118463083D01*
X114600638Y-118464044D01*
X114718209Y-118479522D01*
X114757399Y-118484682D01*
X114757400Y-118484682D01*
X114844978Y-118473152D01*
X114905139Y-118484302D01*
X114947256Y-118528684D01*
X114956900Y-118571305D01*
X114956900Y-118906359D01*
X114956900Y-119011813D01*
X114980970Y-119101645D01*
X114984194Y-119113678D01*
X115036916Y-119204994D01*
X115036918Y-119204996D01*
X115036920Y-119204999D01*
X117888430Y-122056509D01*
X117916206Y-122111024D01*
X117906635Y-122171456D01*
X117863370Y-122214721D01*
X117802938Y-122224292D01*
X117800234Y-122223825D01*
X117616610Y-122189500D01*
X117403390Y-122189500D01*
X117193804Y-122228678D01*
X116994980Y-122305702D01*
X116994975Y-122305705D01*
X116813699Y-122417946D01*
X116813692Y-122417952D01*
X116656135Y-122561586D01*
X116656131Y-122561589D01*
X116656128Y-122561593D01*
X116656125Y-122561597D01*
X116527635Y-122731743D01*
X116527630Y-122731752D01*
X116432596Y-122922608D01*
X116374244Y-123127688D01*
X116374244Y-123127690D01*
X116354571Y-123340000D01*
X116374244Y-123552310D01*
X116432595Y-123757389D01*
X116527634Y-123948255D01*
X116656128Y-124118407D01*
X116656135Y-124118413D01*
X116813692Y-124262047D01*
X116813699Y-124262053D01*
X116917389Y-124326255D01*
X116994981Y-124374298D01*
X117193802Y-124451321D01*
X117403390Y-124490500D01*
X117616610Y-124490500D01*
X117826198Y-124451321D01*
X118025019Y-124374298D01*
X118206302Y-124262052D01*
X118363872Y-124118407D01*
X118492366Y-123948255D01*
X118587405Y-123757389D01*
X118645756Y-123552310D01*
X118665429Y-123340000D01*
X118645756Y-123127690D01*
X118625261Y-123055659D01*
X118627522Y-122994518D01*
X118665290Y-122946380D01*
X118724140Y-122929636D01*
X118781592Y-122950680D01*
X118790477Y-122958556D01*
X119492401Y-123660480D01*
X119492403Y-123660481D01*
X119492405Y-123660483D01*
X119583722Y-123713205D01*
X119583720Y-123713205D01*
X119583724Y-123713206D01*
X119583726Y-123713207D01*
X119685587Y-123740500D01*
X119791041Y-123740500D01*
X120228742Y-123740500D01*
X120286933Y-123759407D01*
X120317362Y-123795371D01*
X120380327Y-123921821D01*
X120503236Y-124084579D01*
X120653959Y-124221981D01*
X120827363Y-124329348D01*
X121017544Y-124403024D01*
X121218024Y-124440500D01*
X121421976Y-124440500D01*
X121622456Y-124403024D01*
X121812637Y-124329348D01*
X121986041Y-124221981D01*
X122136764Y-124084579D01*
X122259673Y-123921821D01*
X122350582Y-123739250D01*
X122406397Y-123543083D01*
X122425215Y-123340000D01*
X122406397Y-123136917D01*
X122350582Y-122940750D01*
X122259673Y-122758179D01*
X122136764Y-122595421D01*
X121986041Y-122458019D01*
X121812637Y-122350652D01*
X121622456Y-122276976D01*
X121622455Y-122276975D01*
X121622453Y-122276975D01*
X121421976Y-122239500D01*
X121218024Y-122239500D01*
X121017546Y-122276975D01*
X120947632Y-122304059D01*
X120827363Y-122350652D01*
X120718676Y-122417948D01*
X120653959Y-122458019D01*
X120503237Y-122595420D01*
X120380328Y-122758177D01*
X120380323Y-122758186D01*
X120317363Y-122884628D01*
X120274500Y-122928291D01*
X120228742Y-122939500D01*
X119945215Y-122939500D01*
X119887024Y-122920593D01*
X119875211Y-122910504D01*
X118334211Y-121369504D01*
X118306434Y-121314987D01*
X118316005Y-121254555D01*
X118359270Y-121211290D01*
X118404215Y-121200500D01*
X120228742Y-121200500D01*
X120286933Y-121219407D01*
X120317362Y-121255371D01*
X120380327Y-121381821D01*
X120503236Y-121544579D01*
X120653959Y-121681981D01*
X120827363Y-121789348D01*
X121017544Y-121863024D01*
X121218024Y-121900500D01*
X121421976Y-121900500D01*
X121622456Y-121863024D01*
X121812637Y-121789348D01*
X121986041Y-121681981D01*
X122136764Y-121544579D01*
X122259673Y-121381821D01*
X122350582Y-121199250D01*
X122406397Y-121003083D01*
X122425215Y-120800000D01*
X122406397Y-120596917D01*
X122350582Y-120400750D01*
X122259673Y-120218179D01*
X122136764Y-120055421D01*
X121986041Y-119918019D01*
X121812637Y-119810652D01*
X121622456Y-119736976D01*
X121622455Y-119736975D01*
X121622453Y-119736975D01*
X121421976Y-119699500D01*
X121218024Y-119699500D01*
X121017546Y-119736975D01*
X120947632Y-119764059D01*
X120827363Y-119810652D01*
X120653959Y-119918019D01*
X120503237Y-120055420D01*
X120380328Y-120218177D01*
X120380323Y-120218186D01*
X120317363Y-120344628D01*
X120274500Y-120388291D01*
X120228742Y-120399500D01*
X117970901Y-120399500D01*
X117912710Y-120380593D01*
X117900897Y-120370504D01*
X117048853Y-119518460D01*
X117021076Y-119463943D01*
X117030647Y-119403511D01*
X117073912Y-119360246D01*
X117134344Y-119350675D01*
X117154618Y-119356141D01*
X117193802Y-119371321D01*
X117403390Y-119410500D01*
X117616610Y-119410500D01*
X117826198Y-119371321D01*
X118025019Y-119294298D01*
X118206302Y-119182052D01*
X118363872Y-119038407D01*
X118492366Y-118868255D01*
X118587405Y-118677389D01*
X118645756Y-118472310D01*
X118661505Y-118302346D01*
X118685700Y-118246151D01*
X118738307Y-118214907D01*
X118799231Y-118220553D01*
X118830085Y-118241479D01*
X119169086Y-118580479D01*
X119169091Y-118580483D01*
X119260408Y-118633205D01*
X119260406Y-118633205D01*
X119260410Y-118633206D01*
X119260412Y-118633207D01*
X119362273Y-118660500D01*
X120228742Y-118660500D01*
X120286933Y-118679407D01*
X120317362Y-118715371D01*
X120380327Y-118841821D01*
X120503236Y-119004579D01*
X120653959Y-119141981D01*
X120827363Y-119249348D01*
X121017544Y-119323024D01*
X121218024Y-119360500D01*
X121421976Y-119360500D01*
X121622456Y-119323024D01*
X121812637Y-119249348D01*
X121986041Y-119141981D01*
X122136764Y-119004579D01*
X122259673Y-118841821D01*
X122350582Y-118659250D01*
X122406397Y-118463083D01*
X122425215Y-118260000D01*
X122406397Y-118056917D01*
X122350582Y-117860750D01*
X122259673Y-117678179D01*
X122136764Y-117515421D01*
X121986041Y-117378019D01*
X121812637Y-117270652D01*
X121622456Y-117196976D01*
X121622455Y-117196975D01*
X121622453Y-117196975D01*
X121421976Y-117159500D01*
X121218024Y-117159500D01*
X121017546Y-117196975D01*
X120996057Y-117205300D01*
X120827363Y-117270652D01*
X120653959Y-117378019D01*
X120503237Y-117515420D01*
X120380328Y-117678177D01*
X120380323Y-117678186D01*
X120317363Y-117804628D01*
X120274500Y-117848291D01*
X120228742Y-117859500D01*
X119621901Y-117859500D01*
X119563710Y-117840593D01*
X119551897Y-117830504D01*
X118992045Y-117270652D01*
X118390913Y-116669520D01*
X118390910Y-116669518D01*
X118376680Y-116661302D01*
X118335739Y-116615831D01*
X118329345Y-116554981D01*
X118359489Y-116502401D01*
X118363872Y-116498407D01*
X118492366Y-116328255D01*
X118587405Y-116137389D01*
X118645756Y-115932310D01*
X118661505Y-115762346D01*
X118685700Y-115706151D01*
X118738307Y-115674907D01*
X118799231Y-115680553D01*
X118830085Y-115701479D01*
X119169086Y-116040479D01*
X119169091Y-116040483D01*
X119260408Y-116093205D01*
X119260406Y-116093205D01*
X119260410Y-116093206D01*
X119260412Y-116093207D01*
X119362273Y-116120500D01*
X119467727Y-116120500D01*
X120228742Y-116120500D01*
X120286933Y-116139407D01*
X120317362Y-116175371D01*
X120380327Y-116301821D01*
X120503236Y-116464579D01*
X120653959Y-116601981D01*
X120827363Y-116709348D01*
X121017544Y-116783024D01*
X121218024Y-116820500D01*
X121421976Y-116820500D01*
X121622456Y-116783024D01*
X121812637Y-116709348D01*
X121986041Y-116601981D01*
X122136764Y-116464579D01*
X122259673Y-116301821D01*
X122350582Y-116119250D01*
X122406397Y-115923083D01*
X122425215Y-115720000D01*
X122406397Y-115516917D01*
X122350582Y-115320750D01*
X122259673Y-115138179D01*
X122136764Y-114975421D01*
X121986041Y-114838019D01*
X121812637Y-114730652D01*
X121622456Y-114656976D01*
X121622455Y-114656975D01*
X121622453Y-114656975D01*
X121421976Y-114619500D01*
X121218024Y-114619500D01*
X121017546Y-114656975D01*
X120947632Y-114684059D01*
X120827363Y-114730652D01*
X120653959Y-114838019D01*
X120503236Y-114975421D01*
X120463388Y-115028188D01*
X120380328Y-115138177D01*
X120380323Y-115138186D01*
X120317363Y-115264628D01*
X120274500Y-115308291D01*
X120228742Y-115319500D01*
X119621901Y-115319500D01*
X119563710Y-115300593D01*
X119551897Y-115290504D01*
X119008105Y-114746712D01*
X118441713Y-114180320D01*
X118441710Y-114180318D01*
X118362261Y-114134447D01*
X118321321Y-114088977D01*
X118314926Y-114028127D01*
X118345065Y-113975551D01*
X118363872Y-113958407D01*
X118492366Y-113788255D01*
X118587405Y-113597389D01*
X118645756Y-113392310D01*
X118661505Y-113222346D01*
X118685700Y-113166151D01*
X118738307Y-113134907D01*
X118799231Y-113140553D01*
X118830085Y-113161479D01*
X119169086Y-113500479D01*
X119169091Y-113500483D01*
X119260408Y-113553205D01*
X119260406Y-113553205D01*
X119260410Y-113553206D01*
X119260412Y-113553207D01*
X119362273Y-113580500D01*
X119467727Y-113580500D01*
X120228742Y-113580500D01*
X120286933Y-113599407D01*
X120317362Y-113635371D01*
X120380327Y-113761821D01*
X120503236Y-113924579D01*
X120653959Y-114061981D01*
X120827363Y-114169348D01*
X121017544Y-114243024D01*
X121218024Y-114280500D01*
X121421976Y-114280500D01*
X121622456Y-114243024D01*
X121812637Y-114169348D01*
X121986041Y-114061981D01*
X122136764Y-113924579D01*
X122259673Y-113761821D01*
X122350582Y-113579250D01*
X122406397Y-113383083D01*
X122425215Y-113180000D01*
X122406397Y-112976917D01*
X122350582Y-112780750D01*
X122259673Y-112598179D01*
X122136764Y-112435421D01*
X121986041Y-112298019D01*
X121812637Y-112190652D01*
X121622456Y-112116976D01*
X121622455Y-112116975D01*
X121622453Y-112116975D01*
X121421976Y-112079500D01*
X121218024Y-112079500D01*
X121017546Y-112116975D01*
X120947632Y-112144059D01*
X120827363Y-112190652D01*
X120718676Y-112257948D01*
X120653959Y-112298019D01*
X120503237Y-112435420D01*
X120380328Y-112598177D01*
X120380323Y-112598186D01*
X120317363Y-112724628D01*
X120274500Y-112768291D01*
X120228742Y-112779500D01*
X119621901Y-112779500D01*
X119563710Y-112760593D01*
X119551897Y-112750504D01*
X118992045Y-112190652D01*
X118390913Y-111589520D01*
X118384122Y-111585599D01*
X118376680Y-111581302D01*
X118335739Y-111535831D01*
X118329345Y-111474981D01*
X118359489Y-111422401D01*
X118363872Y-111418407D01*
X118492366Y-111248255D01*
X118587405Y-111057389D01*
X118645756Y-110852310D01*
X118661505Y-110682346D01*
X118685700Y-110626151D01*
X118738307Y-110594907D01*
X118799231Y-110600553D01*
X118830085Y-110621479D01*
X119169086Y-110960479D01*
X119169091Y-110960483D01*
X119260408Y-111013205D01*
X119260406Y-111013205D01*
X119260410Y-111013206D01*
X119260412Y-111013207D01*
X119362273Y-111040500D01*
X120228742Y-111040500D01*
X120286933Y-111059407D01*
X120317362Y-111095371D01*
X120380327Y-111221821D01*
X120503236Y-111384579D01*
X120653959Y-111521981D01*
X120827363Y-111629348D01*
X121017544Y-111703024D01*
X121218024Y-111740500D01*
X121421976Y-111740500D01*
X121622456Y-111703024D01*
X121812637Y-111629348D01*
X121986041Y-111521981D01*
X122136764Y-111384579D01*
X122259673Y-111221821D01*
X122350582Y-111039250D01*
X122406397Y-110843083D01*
X122425215Y-110640000D01*
X122406397Y-110436917D01*
X122350582Y-110240750D01*
X122259673Y-110058179D01*
X122136764Y-109895421D01*
X121986041Y-109758019D01*
X121812637Y-109650652D01*
X121622456Y-109576976D01*
X121622455Y-109576975D01*
X121622453Y-109576975D01*
X121421976Y-109539500D01*
X121218024Y-109539500D01*
X121017546Y-109576975D01*
X120947632Y-109604059D01*
X120827363Y-109650652D01*
X120677881Y-109743207D01*
X120653959Y-109758019D01*
X120503237Y-109895420D01*
X120380328Y-110058177D01*
X120380323Y-110058186D01*
X120317363Y-110184628D01*
X120274500Y-110228291D01*
X120228742Y-110239500D01*
X119621901Y-110239500D01*
X119563710Y-110220593D01*
X119551897Y-110210504D01*
X118992045Y-109650652D01*
X118390913Y-109049520D01*
X118384122Y-109045599D01*
X118376680Y-109041302D01*
X118335739Y-108995831D01*
X118329345Y-108934981D01*
X118359489Y-108882401D01*
X118363872Y-108878407D01*
X118492366Y-108708255D01*
X118568492Y-108555372D01*
X118611354Y-108511710D01*
X118657113Y-108500500D01*
X120228742Y-108500500D01*
X120286933Y-108519407D01*
X120317362Y-108555371D01*
X120380327Y-108681821D01*
X120503236Y-108844579D01*
X120653959Y-108981981D01*
X120827363Y-109089348D01*
X121017544Y-109163024D01*
X121218024Y-109200500D01*
X121421976Y-109200500D01*
X121622456Y-109163024D01*
X121812637Y-109089348D01*
X121986041Y-108981981D01*
X122136764Y-108844579D01*
X122259673Y-108681821D01*
X122350582Y-108499250D01*
X122406397Y-108303083D01*
X122425215Y-108100000D01*
X122406397Y-107896917D01*
X122350582Y-107700750D01*
X122259673Y-107518179D01*
X122136764Y-107355421D01*
X121986041Y-107218019D01*
X121812637Y-107110652D01*
X121622456Y-107036976D01*
X121622455Y-107036975D01*
X121622453Y-107036975D01*
X121421976Y-106999500D01*
X121218024Y-106999500D01*
X121017546Y-107036975D01*
X120947632Y-107064059D01*
X120827363Y-107110652D01*
X120677881Y-107203207D01*
X120653959Y-107218019D01*
X120503237Y-107355420D01*
X120380328Y-107518177D01*
X120380323Y-107518186D01*
X120317363Y-107644628D01*
X120274500Y-107688291D01*
X120228742Y-107699500D01*
X118657113Y-107699500D01*
X118598922Y-107680593D01*
X118568492Y-107644628D01*
X118492369Y-107491752D01*
X118492366Y-107491745D01*
X118363872Y-107321593D01*
X118269972Y-107235991D01*
X118206307Y-107177952D01*
X118206300Y-107177946D01*
X118025024Y-107065705D01*
X118025019Y-107065702D01*
X117826195Y-106988678D01*
X117616610Y-106949500D01*
X117403390Y-106949500D01*
X117193804Y-106988678D01*
X116994980Y-107065702D01*
X116994975Y-107065705D01*
X116813699Y-107177946D01*
X116813692Y-107177952D01*
X116656135Y-107321586D01*
X116656131Y-107321589D01*
X116656128Y-107321593D01*
X116656125Y-107321597D01*
X116527635Y-107491743D01*
X116527630Y-107491752D01*
X116432596Y-107682608D01*
X116374244Y-107887688D01*
X116354571Y-108100000D01*
X116374244Y-108312311D01*
X116392093Y-108375041D01*
X116432595Y-108517389D01*
X116527634Y-108708255D01*
X116545190Y-108731503D01*
X116605103Y-108810839D01*
X116625082Y-108868670D01*
X116607253Y-108927201D01*
X116558427Y-108964073D01*
X116526099Y-108969500D01*
X115938901Y-108969500D01*
X115880710Y-108950593D01*
X115868897Y-108940504D01*
X114784891Y-107856498D01*
X114757114Y-107801981D01*
X114766685Y-107741549D01*
X114809950Y-107698284D01*
X114867817Y-107688341D01*
X114878000Y-107689682D01*
X115034762Y-107669044D01*
X115180841Y-107608536D01*
X115306282Y-107512282D01*
X115402536Y-107386841D01*
X115463044Y-107240762D01*
X115483682Y-107084000D01*
X115481273Y-107065705D01*
X115471133Y-106988679D01*
X115463044Y-106927238D01*
X115402537Y-106781161D01*
X115402537Y-106781160D01*
X115306286Y-106655723D01*
X115306285Y-106655722D01*
X115306282Y-106655718D01*
X115306277Y-106655714D01*
X115282230Y-106637261D01*
X115247576Y-106586835D01*
X115243500Y-106558721D01*
X115243500Y-105560000D01*
X116354571Y-105560000D01*
X116363995Y-105661709D01*
X116374244Y-105772310D01*
X116432595Y-105977389D01*
X116527634Y-106168255D01*
X116656128Y-106338407D01*
X116657122Y-106339313D01*
X116813692Y-106482047D01*
X116813699Y-106482053D01*
X116858057Y-106509518D01*
X116994981Y-106594298D01*
X117193802Y-106671321D01*
X117403390Y-106710500D01*
X117616610Y-106710500D01*
X117826198Y-106671321D01*
X118025019Y-106594298D01*
X118206302Y-106482052D01*
X118363872Y-106338407D01*
X118492366Y-106168255D01*
X118568492Y-106015372D01*
X118611354Y-105971710D01*
X118657113Y-105960500D01*
X120228742Y-105960500D01*
X120286933Y-105979407D01*
X120317362Y-106015371D01*
X120380327Y-106141821D01*
X120503236Y-106304579D01*
X120653959Y-106441981D01*
X120827363Y-106549348D01*
X121017544Y-106623024D01*
X121218024Y-106660500D01*
X121421976Y-106660500D01*
X121622456Y-106623024D01*
X121812637Y-106549348D01*
X121986041Y-106441981D01*
X122136764Y-106304579D01*
X122259673Y-106141821D01*
X122350582Y-105959250D01*
X122406397Y-105763083D01*
X122425215Y-105560000D01*
X122406397Y-105356917D01*
X122350582Y-105160750D01*
X122259673Y-104978179D01*
X122136764Y-104815421D01*
X121986041Y-104678019D01*
X121812637Y-104570652D01*
X121622456Y-104496976D01*
X121622455Y-104496975D01*
X121622453Y-104496975D01*
X121421976Y-104459500D01*
X121218024Y-104459500D01*
X121017546Y-104496975D01*
X120947632Y-104524059D01*
X120827363Y-104570652D01*
X120677881Y-104663207D01*
X120653959Y-104678019D01*
X120503237Y-104815420D01*
X120380328Y-104978177D01*
X120380323Y-104978186D01*
X120317363Y-105104628D01*
X120274500Y-105148291D01*
X120228742Y-105159500D01*
X118657113Y-105159500D01*
X118598922Y-105140593D01*
X118568492Y-105104628D01*
X118492369Y-104951752D01*
X118492366Y-104951745D01*
X118363872Y-104781593D01*
X118253487Y-104680963D01*
X118206307Y-104637952D01*
X118206300Y-104637946D01*
X118025024Y-104525705D01*
X118025019Y-104525702D01*
X117826195Y-104448678D01*
X117616610Y-104409500D01*
X117403390Y-104409500D01*
X117193804Y-104448678D01*
X116994980Y-104525702D01*
X116994975Y-104525705D01*
X116813699Y-104637946D01*
X116813692Y-104637952D01*
X116656135Y-104781586D01*
X116656131Y-104781589D01*
X116656128Y-104781593D01*
X116656125Y-104781597D01*
X116527635Y-104951743D01*
X116527630Y-104951752D01*
X116432596Y-105142608D01*
X116374244Y-105347688D01*
X116354571Y-105560000D01*
X115243500Y-105560000D01*
X115243500Y-104977697D01*
X115262407Y-104919506D01*
X115311907Y-104883542D01*
X115355420Y-104879544D01*
X115478000Y-104895682D01*
X115478001Y-104895682D01*
X115509352Y-104891554D01*
X115634762Y-104875044D01*
X115780841Y-104814536D01*
X115906282Y-104718282D01*
X116002536Y-104592841D01*
X116063044Y-104446762D01*
X116083682Y-104290000D01*
X116063044Y-104133238D01*
X116002537Y-103987161D01*
X116002537Y-103987160D01*
X115902332Y-103856570D01*
X115903713Y-103855509D01*
X115879719Y-103808416D01*
X115878500Y-103792929D01*
X115878500Y-103020000D01*
X116354571Y-103020000D01*
X116374244Y-103232311D01*
X116397449Y-103313867D01*
X116432595Y-103437389D01*
X116527634Y-103628255D01*
X116656128Y-103798407D01*
X116719929Y-103856570D01*
X116813692Y-103942047D01*
X116813699Y-103942053D01*
X116858060Y-103969520D01*
X116994981Y-104054298D01*
X117193802Y-104131321D01*
X117403390Y-104170500D01*
X117616610Y-104170500D01*
X117826198Y-104131321D01*
X118025019Y-104054298D01*
X118206302Y-103942052D01*
X118363872Y-103798407D01*
X118492366Y-103628255D01*
X118568492Y-103475372D01*
X118611354Y-103431710D01*
X118657113Y-103420500D01*
X120228742Y-103420500D01*
X120286933Y-103439407D01*
X120317362Y-103475371D01*
X120380327Y-103601821D01*
X120503236Y-103764579D01*
X120653959Y-103901981D01*
X120827363Y-104009348D01*
X121017544Y-104083024D01*
X121218024Y-104120500D01*
X121421976Y-104120500D01*
X121622456Y-104083024D01*
X121812637Y-104009348D01*
X121986041Y-103901981D01*
X122136764Y-103764579D01*
X122259673Y-103601821D01*
X122350582Y-103419250D01*
X122406397Y-103223083D01*
X122425215Y-103020000D01*
X122406397Y-102816917D01*
X122350582Y-102620750D01*
X122259673Y-102438179D01*
X122136764Y-102275421D01*
X121986041Y-102138019D01*
X121812637Y-102030652D01*
X121622456Y-101956976D01*
X121622455Y-101956975D01*
X121622453Y-101956975D01*
X121421976Y-101919500D01*
X121218024Y-101919500D01*
X121017546Y-101956975D01*
X120947632Y-101984059D01*
X120827363Y-102030652D01*
X120677881Y-102123207D01*
X120653959Y-102138019D01*
X120503237Y-102275420D01*
X120380328Y-102438177D01*
X120380323Y-102438186D01*
X120317363Y-102564628D01*
X120274500Y-102608291D01*
X120228742Y-102619500D01*
X118657113Y-102619500D01*
X118598922Y-102600593D01*
X118568492Y-102564628D01*
X118492369Y-102411752D01*
X118492366Y-102411745D01*
X118363872Y-102241593D01*
X118269972Y-102155991D01*
X118206307Y-102097952D01*
X118206300Y-102097946D01*
X118025024Y-101985705D01*
X118025019Y-101985702D01*
X117826195Y-101908678D01*
X117616610Y-101869500D01*
X117403390Y-101869500D01*
X117193804Y-101908678D01*
X116994980Y-101985702D01*
X116994975Y-101985705D01*
X116813699Y-102097946D01*
X116813692Y-102097952D01*
X116656135Y-102241586D01*
X116656131Y-102241589D01*
X116656128Y-102241593D01*
X116656125Y-102241597D01*
X116527635Y-102411743D01*
X116527630Y-102411752D01*
X116432596Y-102602608D01*
X116374244Y-102807688D01*
X116354571Y-103020000D01*
X115878500Y-103020000D01*
X115878500Y-100480000D01*
X116354571Y-100480000D01*
X116368017Y-100625114D01*
X116374244Y-100692310D01*
X116427434Y-100879252D01*
X116432596Y-100897391D01*
X116523772Y-101080500D01*
X116527634Y-101088255D01*
X116656128Y-101258407D01*
X116721497Y-101317999D01*
X116813692Y-101402047D01*
X116813699Y-101402053D01*
X116858060Y-101429520D01*
X116994981Y-101514298D01*
X117193802Y-101591321D01*
X117403390Y-101630500D01*
X117616610Y-101630500D01*
X117826198Y-101591321D01*
X118025019Y-101514298D01*
X118206302Y-101402052D01*
X118363872Y-101258407D01*
X118492366Y-101088255D01*
X118587405Y-100897389D01*
X118645756Y-100692310D01*
X118665429Y-100480000D01*
X118645756Y-100267690D01*
X118587405Y-100062611D01*
X118587401Y-100062604D01*
X118585752Y-100058344D01*
X118587132Y-100057809D01*
X118579019Y-100003364D01*
X118606648Y-99949743D01*
X119760880Y-98795513D01*
X119813607Y-98704188D01*
X119840900Y-98602327D01*
X119840900Y-98496873D01*
X119840900Y-97940000D01*
X120214785Y-97940000D01*
X120233603Y-98143083D01*
X120289418Y-98339250D01*
X120380327Y-98521821D01*
X120503236Y-98684579D01*
X120653959Y-98821981D01*
X120827363Y-98929348D01*
X121017544Y-99003024D01*
X121218024Y-99040500D01*
X121421976Y-99040500D01*
X121622456Y-99003024D01*
X121812637Y-98929348D01*
X121986041Y-98821981D01*
X122136764Y-98684579D01*
X122259673Y-98521821D01*
X122317422Y-98405844D01*
X122885000Y-98405844D01*
X122885000Y-98504999D01*
X122885001Y-98505000D01*
X123609999Y-98505000D01*
X123610000Y-98504999D01*
X123610000Y-97717501D01*
X124110000Y-97717501D01*
X124110000Y-98504999D01*
X124110001Y-98505000D01*
X124834998Y-98505000D01*
X124834999Y-98504999D01*
X124834999Y-98405845D01*
X124824682Y-98304857D01*
X124824679Y-98304845D01*
X124770451Y-98141193D01*
X124679946Y-97994464D01*
X124558035Y-97872553D01*
X124411306Y-97782048D01*
X124247648Y-97727818D01*
X124146655Y-97717500D01*
X124110001Y-97717500D01*
X124110000Y-97717501D01*
X123610000Y-97717501D01*
X123610000Y-97717500D01*
X123573357Y-97717500D01*
X123573351Y-97717501D01*
X123472357Y-97727817D01*
X123472345Y-97727820D01*
X123308693Y-97782048D01*
X123161964Y-97872553D01*
X123040053Y-97994464D01*
X122949548Y-98141193D01*
X122895318Y-98304851D01*
X122885000Y-98405844D01*
X122317422Y-98405844D01*
X122350582Y-98339250D01*
X122406397Y-98143083D01*
X122425215Y-97940000D01*
X122406397Y-97736917D01*
X122350582Y-97540750D01*
X122259673Y-97358179D01*
X122136764Y-97195421D01*
X121986041Y-97058019D01*
X121812637Y-96950652D01*
X121622456Y-96876976D01*
X121622455Y-96876975D01*
X121622453Y-96876975D01*
X121421976Y-96839500D01*
X121218024Y-96839500D01*
X121017546Y-96876975D01*
X120947632Y-96904059D01*
X120827363Y-96950652D01*
X120653959Y-97058019D01*
X120503237Y-97195420D01*
X120380328Y-97358177D01*
X120380323Y-97358186D01*
X120289791Y-97540000D01*
X120289418Y-97540750D01*
X120233603Y-97736917D01*
X120214785Y-97940000D01*
X119840900Y-97940000D01*
X119840900Y-95400000D01*
X120214785Y-95400000D01*
X120233603Y-95603083D01*
X120289418Y-95799250D01*
X120380327Y-95981821D01*
X120503236Y-96144579D01*
X120653959Y-96281981D01*
X120827363Y-96389348D01*
X121017544Y-96463024D01*
X121218024Y-96500500D01*
X121421976Y-96500500D01*
X121622456Y-96463024D01*
X121812637Y-96389348D01*
X121986041Y-96281981D01*
X122136764Y-96144579D01*
X122259673Y-95981821D01*
X122350582Y-95799250D01*
X122406397Y-95603083D01*
X122425215Y-95400000D01*
X122406397Y-95196917D01*
X122350582Y-95000750D01*
X122259673Y-94818179D01*
X122136764Y-94655421D01*
X121986041Y-94518019D01*
X121812637Y-94410652D01*
X121622456Y-94336976D01*
X121622455Y-94336975D01*
X121622453Y-94336975D01*
X121421976Y-94299500D01*
X121218024Y-94299500D01*
X121017546Y-94336975D01*
X120947632Y-94364059D01*
X120827363Y-94410652D01*
X120718676Y-94477948D01*
X120653959Y-94518019D01*
X120503237Y-94655420D01*
X120380328Y-94818177D01*
X120380323Y-94818186D01*
X120298450Y-94982611D01*
X120289418Y-95000750D01*
X120233603Y-95196917D01*
X120214785Y-95400000D01*
X119840900Y-95400000D01*
X119840900Y-92860000D01*
X120214785Y-92860000D01*
X120233603Y-93063083D01*
X120289418Y-93259250D01*
X120380327Y-93441821D01*
X120503236Y-93604579D01*
X120653959Y-93741981D01*
X120827363Y-93849348D01*
X121017544Y-93923024D01*
X121218024Y-93960500D01*
X121421976Y-93960500D01*
X121622456Y-93923024D01*
X121812637Y-93849348D01*
X121986041Y-93741981D01*
X122136764Y-93604579D01*
X122259673Y-93441821D01*
X122350582Y-93259250D01*
X122406397Y-93063083D01*
X122425215Y-92860000D01*
X122406397Y-92656917D01*
X122350582Y-92460750D01*
X122259673Y-92278179D01*
X122136764Y-92115421D01*
X121986041Y-91978019D01*
X121812637Y-91870652D01*
X121622456Y-91796976D01*
X121622455Y-91796975D01*
X121622453Y-91796975D01*
X121421976Y-91759500D01*
X121218024Y-91759500D01*
X121017546Y-91796975D01*
X120947632Y-91824059D01*
X120827363Y-91870652D01*
X120718676Y-91937948D01*
X120653959Y-91978019D01*
X120503237Y-92115420D01*
X120380328Y-92278177D01*
X120380323Y-92278186D01*
X120298450Y-92442611D01*
X120289418Y-92460750D01*
X120233603Y-92656917D01*
X120214785Y-92860000D01*
X119840900Y-92860000D01*
X119840900Y-92406500D01*
X119859807Y-92348309D01*
X119869890Y-92336502D01*
X120831975Y-91374416D01*
X120886490Y-91346641D01*
X120937735Y-91352106D01*
X121017544Y-91383024D01*
X121218024Y-91420500D01*
X121421976Y-91420500D01*
X121622456Y-91383024D01*
X121812637Y-91309348D01*
X121986041Y-91201981D01*
X122136764Y-91064579D01*
X122259673Y-90901821D01*
X122350582Y-90719250D01*
X122406397Y-90523083D01*
X122425215Y-90320000D01*
X122406397Y-90116917D01*
X122350582Y-89920750D01*
X122259673Y-89738179D01*
X122136764Y-89575421D01*
X121986041Y-89438019D01*
X121812637Y-89330652D01*
X121622456Y-89256976D01*
X121622455Y-89256975D01*
X121622453Y-89256975D01*
X121421976Y-89219500D01*
X121218024Y-89219500D01*
X121017546Y-89256975D01*
X120947632Y-89284059D01*
X120827363Y-89330652D01*
X120668924Y-89428753D01*
X120653959Y-89438019D01*
X120503237Y-89575420D01*
X120380328Y-89738177D01*
X120380323Y-89738186D01*
X120298450Y-89902611D01*
X120289418Y-89920750D01*
X120233603Y-90116917D01*
X120214785Y-90320000D01*
X120233603Y-90523083D01*
X120236229Y-90532311D01*
X120287880Y-90713845D01*
X120285619Y-90774989D01*
X120262663Y-90810941D01*
X119119920Y-91953686D01*
X119119916Y-91953691D01*
X119067194Y-92045008D01*
X119067192Y-92045012D01*
X119055067Y-92090261D01*
X119055068Y-92090262D01*
X119039900Y-92146872D01*
X119039900Y-98342698D01*
X119020993Y-98400889D01*
X119010904Y-98412702D01*
X118036673Y-99386932D01*
X117982156Y-99414709D01*
X117930907Y-99409243D01*
X117826198Y-99368679D01*
X117826197Y-99368678D01*
X117826195Y-99368678D01*
X117616610Y-99329500D01*
X117403390Y-99329500D01*
X117193804Y-99368678D01*
X116994980Y-99445702D01*
X116994975Y-99445705D01*
X116813699Y-99557946D01*
X116813692Y-99557952D01*
X116656135Y-99701586D01*
X116656131Y-99701589D01*
X116656128Y-99701593D01*
X116656125Y-99701597D01*
X116527635Y-99871743D01*
X116527630Y-99871752D01*
X116432596Y-100062608D01*
X116374244Y-100267688D01*
X116354571Y-100480000D01*
X115878500Y-100480000D01*
X115878500Y-95400000D01*
X116354571Y-95400000D01*
X116368193Y-95547014D01*
X116374244Y-95612310D01*
X116432595Y-95817389D01*
X116527634Y-96008255D01*
X116656128Y-96178407D01*
X116656135Y-96178413D01*
X116813692Y-96322047D01*
X116813699Y-96322053D01*
X116917389Y-96386255D01*
X116994981Y-96434298D01*
X117193802Y-96511321D01*
X117403390Y-96550500D01*
X117616610Y-96550500D01*
X117826198Y-96511321D01*
X118025019Y-96434298D01*
X118206302Y-96322052D01*
X118363872Y-96178407D01*
X118492366Y-96008255D01*
X118587405Y-95817389D01*
X118645756Y-95612310D01*
X118665429Y-95400000D01*
X118645756Y-95187690D01*
X118587405Y-94982611D01*
X118492366Y-94791745D01*
X118363872Y-94621593D01*
X118301808Y-94565014D01*
X118206307Y-94477952D01*
X118206300Y-94477946D01*
X118025024Y-94365705D01*
X118025019Y-94365702D01*
X117826195Y-94288678D01*
X117616610Y-94249500D01*
X117403390Y-94249500D01*
X117193804Y-94288678D01*
X116994980Y-94365702D01*
X116994975Y-94365705D01*
X116813699Y-94477946D01*
X116813692Y-94477952D01*
X116656135Y-94621586D01*
X116656131Y-94621589D01*
X116656128Y-94621593D01*
X116656125Y-94621597D01*
X116527635Y-94791743D01*
X116527630Y-94791752D01*
X116432596Y-94982608D01*
X116374244Y-95187688D01*
X116354571Y-95400000D01*
X115878500Y-95400000D01*
X115878500Y-92860000D01*
X116354571Y-92860000D01*
X116374244Y-93072310D01*
X116432595Y-93277389D01*
X116527634Y-93468255D01*
X116656128Y-93638407D01*
X116708193Y-93685871D01*
X116813692Y-93782047D01*
X116813699Y-93782053D01*
X116858057Y-93809518D01*
X116994981Y-93894298D01*
X117193802Y-93971321D01*
X117403390Y-94010500D01*
X117616610Y-94010500D01*
X117826198Y-93971321D01*
X118025019Y-93894298D01*
X118206302Y-93782052D01*
X118363872Y-93638407D01*
X118492366Y-93468255D01*
X118587405Y-93277389D01*
X118645756Y-93072310D01*
X118665429Y-92860000D01*
X118645756Y-92647690D01*
X118587405Y-92442611D01*
X118492366Y-92251745D01*
X118363872Y-92081593D01*
X118309623Y-92032139D01*
X118206307Y-91937952D01*
X118206300Y-91937946D01*
X118025024Y-91825705D01*
X118025019Y-91825702D01*
X117826195Y-91748678D01*
X117616610Y-91709500D01*
X117403390Y-91709500D01*
X117193804Y-91748678D01*
X116994980Y-91825702D01*
X116994975Y-91825705D01*
X116813699Y-91937946D01*
X116813692Y-91937952D01*
X116656135Y-92081586D01*
X116656131Y-92081589D01*
X116656128Y-92081593D01*
X116656125Y-92081597D01*
X116527635Y-92251743D01*
X116527630Y-92251752D01*
X116432596Y-92442608D01*
X116374244Y-92647688D01*
X116374244Y-92647690D01*
X116354571Y-92860000D01*
X115878500Y-92860000D01*
X115878500Y-90932553D01*
X115897407Y-90874362D01*
X115907484Y-90862562D01*
X116224887Y-90545158D01*
X116279402Y-90517383D01*
X116339834Y-90526954D01*
X116383099Y-90570219D01*
X116390108Y-90588067D01*
X116432595Y-90737389D01*
X116527634Y-90928255D01*
X116656128Y-91098407D01*
X116656135Y-91098413D01*
X116813692Y-91242047D01*
X116813699Y-91242053D01*
X116917389Y-91306255D01*
X116994981Y-91354298D01*
X117193802Y-91431321D01*
X117403390Y-91470500D01*
X117616610Y-91470500D01*
X117826198Y-91431321D01*
X118025019Y-91354298D01*
X118206302Y-91242052D01*
X118363872Y-91098407D01*
X118492366Y-90928255D01*
X118587405Y-90737389D01*
X118645756Y-90532310D01*
X118665429Y-90320000D01*
X118645756Y-90107690D01*
X118587405Y-89902611D01*
X118492366Y-89711745D01*
X118363872Y-89541593D01*
X118363862Y-89541584D01*
X118360792Y-89538216D01*
X118361951Y-89537158D01*
X118334862Y-89489563D01*
X118341632Y-89428753D01*
X118361816Y-89399575D01*
X119551897Y-88209496D01*
X119606414Y-88181719D01*
X119621901Y-88180500D01*
X120228742Y-88180500D01*
X120286933Y-88199407D01*
X120317362Y-88235371D01*
X120380327Y-88361821D01*
X120503236Y-88524579D01*
X120653959Y-88661981D01*
X120827363Y-88769348D01*
X121017544Y-88843024D01*
X121218024Y-88880500D01*
X121421976Y-88880500D01*
X121622456Y-88843024D01*
X121812637Y-88769348D01*
X121986041Y-88661981D01*
X122136764Y-88524579D01*
X122259673Y-88361821D01*
X122350582Y-88179250D01*
X122406397Y-87983083D01*
X122425215Y-87780000D01*
X122406397Y-87576917D01*
X122350582Y-87380750D01*
X122259673Y-87198179D01*
X122136764Y-87035421D01*
X121986041Y-86898019D01*
X121812637Y-86790652D01*
X121622456Y-86716976D01*
X121622455Y-86716975D01*
X121622453Y-86716975D01*
X121421976Y-86679500D01*
X121218024Y-86679500D01*
X121017546Y-86716975D01*
X120947632Y-86744059D01*
X120827363Y-86790652D01*
X120668924Y-86888753D01*
X120653959Y-86898019D01*
X120503237Y-87035420D01*
X120380328Y-87198177D01*
X120380323Y-87198186D01*
X120317363Y-87324628D01*
X120274500Y-87368291D01*
X120228742Y-87379500D01*
X119467727Y-87379500D01*
X119362273Y-87379500D01*
X119299929Y-87396204D01*
X119260407Y-87406794D01*
X119169091Y-87459516D01*
X119169086Y-87459520D01*
X118830085Y-87798520D01*
X118775569Y-87826297D01*
X118715137Y-87816726D01*
X118671872Y-87773461D01*
X118661505Y-87737653D01*
X118645756Y-87567690D01*
X118587405Y-87362611D01*
X118492366Y-87171745D01*
X118363872Y-87001593D01*
X118363862Y-87001584D01*
X118360792Y-86998216D01*
X118361951Y-86997158D01*
X118334862Y-86949563D01*
X118341632Y-86888753D01*
X118361816Y-86859575D01*
X119551897Y-85669496D01*
X119606414Y-85641719D01*
X119621901Y-85640500D01*
X120228742Y-85640500D01*
X120286933Y-85659407D01*
X120317362Y-85695371D01*
X120380327Y-85821821D01*
X120503236Y-85984579D01*
X120653959Y-86121981D01*
X120827363Y-86229348D01*
X121017544Y-86303024D01*
X121218024Y-86340500D01*
X121421976Y-86340500D01*
X121622456Y-86303024D01*
X121812637Y-86229348D01*
X121986041Y-86121981D01*
X122136764Y-85984579D01*
X122259673Y-85821821D01*
X122350582Y-85639250D01*
X122406397Y-85443083D01*
X122425215Y-85240000D01*
X122406397Y-85036917D01*
X122350582Y-84840750D01*
X122259673Y-84658179D01*
X122136764Y-84495421D01*
X121986041Y-84358019D01*
X121812637Y-84250652D01*
X121622456Y-84176976D01*
X121622455Y-84176975D01*
X121622453Y-84176975D01*
X121421976Y-84139500D01*
X121218024Y-84139500D01*
X121017546Y-84176975D01*
X120957363Y-84200290D01*
X120827363Y-84250652D01*
X120718676Y-84317948D01*
X120653959Y-84358019D01*
X120503237Y-84495420D01*
X120380328Y-84658177D01*
X120380323Y-84658186D01*
X120317363Y-84784628D01*
X120274500Y-84828291D01*
X120228742Y-84839500D01*
X119467727Y-84839500D01*
X119362273Y-84839500D01*
X119299929Y-84856204D01*
X119260407Y-84866794D01*
X119169091Y-84919516D01*
X119169086Y-84919520D01*
X118830085Y-85258520D01*
X118775569Y-85286297D01*
X118715137Y-85276726D01*
X118671872Y-85233461D01*
X118661505Y-85197653D01*
X118645756Y-85027690D01*
X118587405Y-84822611D01*
X118492366Y-84631745D01*
X118363872Y-84461593D01*
X118359485Y-84457593D01*
X118329220Y-84404422D01*
X118335989Y-84343612D01*
X118376681Y-84298696D01*
X118390913Y-84290480D01*
X119551897Y-83129496D01*
X119606414Y-83101719D01*
X119621901Y-83100500D01*
X120228742Y-83100500D01*
X120286933Y-83119407D01*
X120317362Y-83155371D01*
X120380327Y-83281821D01*
X120503236Y-83444579D01*
X120653959Y-83581981D01*
X120827363Y-83689348D01*
X121017544Y-83763024D01*
X121218024Y-83800500D01*
X121421976Y-83800500D01*
X121622456Y-83763024D01*
X121812637Y-83689348D01*
X121986041Y-83581981D01*
X122136764Y-83444579D01*
X122259673Y-83281821D01*
X122350582Y-83099250D01*
X122406397Y-82903083D01*
X122425215Y-82700000D01*
X122406397Y-82496917D01*
X122350582Y-82300750D01*
X122259673Y-82118179D01*
X122136764Y-81955421D01*
X121986041Y-81818019D01*
X121812637Y-81710652D01*
X121622456Y-81636976D01*
X121622455Y-81636975D01*
X121622453Y-81636975D01*
X121421976Y-81599500D01*
X121218024Y-81599500D01*
X121017546Y-81636975D01*
X120947632Y-81664059D01*
X120827363Y-81710652D01*
X120718676Y-81777948D01*
X120653959Y-81818019D01*
X120503237Y-81955420D01*
X120380328Y-82118177D01*
X120380323Y-82118186D01*
X120317363Y-82244628D01*
X120274500Y-82288291D01*
X120228742Y-82299500D01*
X119467727Y-82299500D01*
X119362273Y-82299500D01*
X119299929Y-82316204D01*
X119260407Y-82326794D01*
X119169091Y-82379516D01*
X119169086Y-82379520D01*
X118830085Y-82718520D01*
X118775569Y-82746297D01*
X118715137Y-82736726D01*
X118671872Y-82693461D01*
X118661505Y-82657653D01*
X118645756Y-82487690D01*
X118587405Y-82282611D01*
X118492366Y-82091745D01*
X118363872Y-81921593D01*
X118359485Y-81917593D01*
X118329220Y-81864422D01*
X118335989Y-81803612D01*
X118376681Y-81758696D01*
X118390913Y-81750480D01*
X119551897Y-80589496D01*
X119606414Y-80561719D01*
X119621901Y-80560500D01*
X120228742Y-80560500D01*
X120286933Y-80579407D01*
X120317362Y-80615371D01*
X120380327Y-80741821D01*
X120503236Y-80904579D01*
X120653959Y-81041981D01*
X120827363Y-81149348D01*
X121017544Y-81223024D01*
X121218024Y-81260500D01*
X121421976Y-81260500D01*
X121622456Y-81223024D01*
X121812637Y-81149348D01*
X121986041Y-81041981D01*
X122136764Y-80904579D01*
X122259673Y-80741821D01*
X122350582Y-80559250D01*
X122406397Y-80363083D01*
X122425215Y-80160000D01*
X122406397Y-79956917D01*
X122350582Y-79760750D01*
X122259673Y-79578179D01*
X122136764Y-79415421D01*
X121986041Y-79278019D01*
X121812637Y-79170652D01*
X121622456Y-79096976D01*
X121622455Y-79096975D01*
X121622453Y-79096975D01*
X121421976Y-79059500D01*
X121218024Y-79059500D01*
X121017546Y-79096975D01*
X120947632Y-79124059D01*
X120827363Y-79170652D01*
X120718676Y-79237948D01*
X120653959Y-79278019D01*
X120503237Y-79415420D01*
X120380328Y-79578177D01*
X120380323Y-79578186D01*
X120317363Y-79704628D01*
X120274500Y-79748291D01*
X120228742Y-79759500D01*
X119467727Y-79759500D01*
X119362273Y-79759500D01*
X119299929Y-79776204D01*
X119260407Y-79786794D01*
X119169091Y-79839516D01*
X119169086Y-79839520D01*
X118830085Y-80178520D01*
X118775569Y-80206297D01*
X118715137Y-80196726D01*
X118671872Y-80153461D01*
X118661505Y-80117653D01*
X118645756Y-79947690D01*
X118587405Y-79742611D01*
X118492366Y-79551745D01*
X118363872Y-79381593D01*
X118359485Y-79377593D01*
X118329220Y-79324422D01*
X118335989Y-79263612D01*
X118376681Y-79218696D01*
X118390913Y-79210480D01*
X119551897Y-78049496D01*
X119606414Y-78021719D01*
X119621901Y-78020500D01*
X120228742Y-78020500D01*
X120286933Y-78039407D01*
X120317362Y-78075371D01*
X120380327Y-78201821D01*
X120503236Y-78364579D01*
X120653959Y-78501981D01*
X120827363Y-78609348D01*
X121017544Y-78683024D01*
X121218024Y-78720500D01*
X121421976Y-78720500D01*
X121622456Y-78683024D01*
X121812637Y-78609348D01*
X121986041Y-78501981D01*
X122136764Y-78364579D01*
X122259673Y-78201821D01*
X122350582Y-78019250D01*
X122406397Y-77823083D01*
X122425215Y-77620000D01*
X122406397Y-77416917D01*
X122350582Y-77220750D01*
X122259673Y-77038179D01*
X122136764Y-76875421D01*
X121986041Y-76738019D01*
X121812637Y-76630652D01*
X121622456Y-76556976D01*
X121622455Y-76556975D01*
X121622453Y-76556975D01*
X121421976Y-76519500D01*
X121218024Y-76519500D01*
X121017546Y-76556975D01*
X120993055Y-76566463D01*
X120827363Y-76630652D01*
X120718676Y-76697948D01*
X120653959Y-76738019D01*
X120503237Y-76875420D01*
X120380328Y-77038177D01*
X120380323Y-77038186D01*
X120317363Y-77164628D01*
X120274500Y-77208291D01*
X120228742Y-77219500D01*
X119467727Y-77219500D01*
X119362273Y-77219500D01*
X119299929Y-77236204D01*
X119260407Y-77246794D01*
X119169091Y-77299516D01*
X119169086Y-77299520D01*
X118830085Y-77638520D01*
X118775569Y-77666297D01*
X118715137Y-77656726D01*
X118671872Y-77613461D01*
X118661505Y-77577653D01*
X118645756Y-77407690D01*
X118587405Y-77202611D01*
X118492366Y-77011745D01*
X118363872Y-76841593D01*
X118302838Y-76785953D01*
X118206307Y-76697952D01*
X118206300Y-76697946D01*
X118069383Y-76613171D01*
X118029862Y-76566463D01*
X118025343Y-76505444D01*
X118057553Y-76453424D01*
X118114189Y-76430270D01*
X118121500Y-76430000D01*
X118407824Y-76430000D01*
X118467370Y-76423598D01*
X118467381Y-76423596D01*
X118602088Y-76373353D01*
X118602090Y-76373352D01*
X118717184Y-76287192D01*
X118717192Y-76287184D01*
X118803352Y-76172090D01*
X118803353Y-76172088D01*
X118853596Y-76037381D01*
X118853598Y-76037370D01*
X118860000Y-75977824D01*
X118860000Y-75330001D01*
X118859999Y-75330000D01*
X117943012Y-75330000D01*
X117975925Y-75272993D01*
X118010000Y-75145826D01*
X118010000Y-75080000D01*
X120214785Y-75080000D01*
X120233603Y-75283083D01*
X120289418Y-75479250D01*
X120380327Y-75661821D01*
X120503236Y-75824579D01*
X120653959Y-75961981D01*
X120827363Y-76069348D01*
X121017544Y-76143024D01*
X121218024Y-76180500D01*
X121421976Y-76180500D01*
X121622456Y-76143024D01*
X121812637Y-76069348D01*
X121986041Y-75961981D01*
X122136764Y-75824579D01*
X122259673Y-75661821D01*
X122350582Y-75479250D01*
X122406397Y-75283083D01*
X122425215Y-75080000D01*
X122406397Y-74876917D01*
X122350582Y-74680750D01*
X122259673Y-74498179D01*
X122136764Y-74335421D01*
X121986041Y-74198019D01*
X121812637Y-74090652D01*
X121622456Y-74016976D01*
X121622455Y-74016975D01*
X121622453Y-74016975D01*
X121421976Y-73979500D01*
X121218024Y-73979500D01*
X121017546Y-74016975D01*
X120989619Y-74027794D01*
X120827363Y-74090652D01*
X120679548Y-74182175D01*
X120653959Y-74198019D01*
X120503237Y-74335420D01*
X120380328Y-74498177D01*
X120380323Y-74498186D01*
X120289419Y-74680747D01*
X120289418Y-74680750D01*
X120233603Y-74876917D01*
X120214785Y-75080000D01*
X118010000Y-75080000D01*
X118010000Y-75014174D01*
X117975925Y-74887007D01*
X117943012Y-74830000D01*
X118859999Y-74830000D01*
X118860000Y-74829999D01*
X118860000Y-74182175D01*
X118853598Y-74122629D01*
X118853596Y-74122618D01*
X118803353Y-73987911D01*
X118803352Y-73987909D01*
X118717192Y-73872815D01*
X118717184Y-73872807D01*
X118602090Y-73786647D01*
X118602088Y-73786646D01*
X118467381Y-73736403D01*
X118467370Y-73736401D01*
X118407824Y-73730000D01*
X117760001Y-73730000D01*
X117760000Y-73730001D01*
X117760000Y-74646988D01*
X117702993Y-74614075D01*
X117575826Y-74580000D01*
X117444174Y-74580000D01*
X117317007Y-74614075D01*
X117260000Y-74646988D01*
X117260000Y-73730001D01*
X117259999Y-73730000D01*
X116612176Y-73730000D01*
X116552629Y-73736401D01*
X116552618Y-73736403D01*
X116417911Y-73786646D01*
X116417909Y-73786647D01*
X116302815Y-73872807D01*
X116302807Y-73872815D01*
X116216647Y-73987909D01*
X116216646Y-73987911D01*
X116166403Y-74122618D01*
X116166401Y-74122629D01*
X116160000Y-74182175D01*
X116160000Y-74829999D01*
X116160001Y-74830000D01*
X117076988Y-74830000D01*
X117044075Y-74887007D01*
X117010000Y-75014174D01*
X117010000Y-75145826D01*
X117044075Y-75272993D01*
X117076988Y-75330000D01*
X116160001Y-75330000D01*
X116160000Y-75330001D01*
X116160000Y-75977824D01*
X116159999Y-75977824D01*
X116166401Y-76037370D01*
X116166403Y-76037381D01*
X116216646Y-76172088D01*
X116216647Y-76172090D01*
X116302807Y-76287184D01*
X116302815Y-76287192D01*
X116417909Y-76373352D01*
X116417911Y-76373353D01*
X116552618Y-76423596D01*
X116552629Y-76423598D01*
X116612176Y-76430000D01*
X116898500Y-76430000D01*
X116956691Y-76448907D01*
X116992655Y-76498407D01*
X116992655Y-76559593D01*
X116956691Y-76609093D01*
X116950617Y-76613171D01*
X116813699Y-76697946D01*
X116813692Y-76697952D01*
X116656135Y-76841586D01*
X116656131Y-76841589D01*
X116656128Y-76841593D01*
X116656125Y-76841597D01*
X116527635Y-77011743D01*
X116527630Y-77011752D01*
X116432596Y-77202608D01*
X116374244Y-77407688D01*
X116374244Y-77407689D01*
X116374244Y-77407690D01*
X116354571Y-77620000D01*
X116374244Y-77832310D01*
X116432595Y-78037389D01*
X116527634Y-78228255D01*
X116585557Y-78304957D01*
X116605103Y-78330839D01*
X116625082Y-78388670D01*
X116607253Y-78447201D01*
X116558427Y-78484073D01*
X116526099Y-78489500D01*
X114077071Y-78489500D01*
X114018880Y-78470593D01*
X114010312Y-78463276D01*
X113925766Y-78398402D01*
X113882841Y-78365464D01*
X113882840Y-78365463D01*
X113882838Y-78365462D01*
X113736766Y-78304957D01*
X113736758Y-78304955D01*
X113580001Y-78284318D01*
X113579999Y-78284318D01*
X113423241Y-78304955D01*
X113423233Y-78304957D01*
X113277161Y-78365462D01*
X113277160Y-78365462D01*
X113151723Y-78461713D01*
X113151719Y-78461716D01*
X113151718Y-78461718D01*
X113151716Y-78461721D01*
X113055462Y-78587160D01*
X113055462Y-78587161D01*
X112994957Y-78733233D01*
X112994955Y-78733241D01*
X112974318Y-78889999D01*
X112974318Y-78890000D01*
X112994955Y-79046758D01*
X112994957Y-79046766D01*
X113055462Y-79192838D01*
X113055462Y-79192839D01*
X113151713Y-79318276D01*
X113151718Y-79318282D01*
X113277159Y-79414536D01*
X113277160Y-79414536D01*
X113277161Y-79414537D01*
X113360751Y-79449161D01*
X113423238Y-79475044D01*
X113540809Y-79490522D01*
X113579999Y-79495682D01*
X113580000Y-79495682D01*
X113580001Y-79495682D01*
X113611352Y-79491554D01*
X113736762Y-79475044D01*
X113882841Y-79414536D01*
X114008282Y-79318282D01*
X114008281Y-79318282D01*
X114013430Y-79314332D01*
X114014490Y-79315713D01*
X114061584Y-79291719D01*
X114077071Y-79290500D01*
X116526099Y-79290500D01*
X116584290Y-79309407D01*
X116620254Y-79358907D01*
X116620254Y-79420093D01*
X116605104Y-79449159D01*
X116569971Y-79495682D01*
X116527635Y-79551743D01*
X116527630Y-79551752D01*
X116432596Y-79742608D01*
X116374244Y-79947688D01*
X116354571Y-80160000D01*
X116374244Y-80372311D01*
X116383718Y-80405606D01*
X116432595Y-80577389D01*
X116527634Y-80768255D01*
X116585557Y-80844957D01*
X116605103Y-80870839D01*
X116625082Y-80928670D01*
X116607253Y-80987201D01*
X116558427Y-81024073D01*
X116526099Y-81029500D01*
X114070071Y-81029500D01*
X114011880Y-81010593D01*
X114003312Y-81003276D01*
X113997493Y-80998811D01*
X113875841Y-80905464D01*
X113875840Y-80905463D01*
X113875838Y-80905462D01*
X113729766Y-80844957D01*
X113729758Y-80844955D01*
X113573001Y-80824318D01*
X113572999Y-80824318D01*
X113450422Y-80840455D01*
X113390261Y-80829305D01*
X113348144Y-80784922D01*
X113338500Y-80742302D01*
X113338500Y-80615274D01*
X113338500Y-80615273D01*
X113311207Y-80513413D01*
X113311207Y-80513412D01*
X113311207Y-80513411D01*
X113258483Y-80422091D01*
X113258482Y-80422090D01*
X113258481Y-80422089D01*
X113258480Y-80422087D01*
X110986650Y-78150257D01*
X110958873Y-78095740D01*
X110967111Y-78042182D01*
X110965752Y-78041656D01*
X110967400Y-78037398D01*
X110967405Y-78037389D01*
X111025756Y-77832310D01*
X111045429Y-77620000D01*
X111025756Y-77407690D01*
X110967405Y-77202611D01*
X110872366Y-77011745D01*
X110743872Y-76841593D01*
X110682838Y-76785953D01*
X110586307Y-76697952D01*
X110586300Y-76697946D01*
X110449383Y-76613171D01*
X110409862Y-76566463D01*
X110405343Y-76505444D01*
X110437553Y-76453424D01*
X110494189Y-76430270D01*
X110501500Y-76430000D01*
X110787824Y-76430000D01*
X110847370Y-76423598D01*
X110847381Y-76423596D01*
X110982088Y-76373353D01*
X110982090Y-76373352D01*
X111097184Y-76287192D01*
X111097192Y-76287184D01*
X111183352Y-76172090D01*
X111183353Y-76172088D01*
X111233596Y-76037381D01*
X111233598Y-76037370D01*
X111240000Y-75977824D01*
X111240000Y-75330001D01*
X111239999Y-75330000D01*
X110323012Y-75330000D01*
X110355925Y-75272993D01*
X110390000Y-75145826D01*
X110390000Y-75014174D01*
X110355925Y-74887007D01*
X110323012Y-74830000D01*
X111239999Y-74830000D01*
X111240000Y-74829999D01*
X111240000Y-74182175D01*
X111233598Y-74122629D01*
X111233596Y-74122618D01*
X111183353Y-73987911D01*
X111183352Y-73987909D01*
X111097192Y-73872815D01*
X111097184Y-73872807D01*
X110982090Y-73786647D01*
X110982088Y-73786646D01*
X110847381Y-73736403D01*
X110847370Y-73736401D01*
X110787824Y-73730000D01*
X110140001Y-73730000D01*
X110140000Y-73730001D01*
X110140000Y-74646988D01*
X110082993Y-74614075D01*
X109955826Y-74580000D01*
X109824174Y-74580000D01*
X109697007Y-74614075D01*
X109640000Y-74646988D01*
X109640000Y-73730001D01*
X109639999Y-73730000D01*
X108992176Y-73730000D01*
X108932629Y-73736401D01*
X108932618Y-73736403D01*
X108797911Y-73786646D01*
X108797909Y-73786647D01*
X108682815Y-73872807D01*
X108682807Y-73872815D01*
X108596647Y-73987909D01*
X108596646Y-73987911D01*
X108546403Y-74122618D01*
X108546401Y-74122629D01*
X108540000Y-74182175D01*
X108540000Y-74829999D01*
X108540001Y-74830000D01*
X109456988Y-74830000D01*
X109424075Y-74887007D01*
X109390000Y-75014174D01*
X109390000Y-75145826D01*
X109424075Y-75272993D01*
X109456988Y-75330000D01*
X108540001Y-75330000D01*
X108540000Y-75330001D01*
X108540000Y-75977824D01*
X108539999Y-75977824D01*
X108546401Y-76037370D01*
X108546403Y-76037381D01*
X108596646Y-76172088D01*
X108596647Y-76172090D01*
X108682807Y-76287184D01*
X108682815Y-76287192D01*
X108797909Y-76373352D01*
X108797911Y-76373353D01*
X108932618Y-76423596D01*
X108932629Y-76423598D01*
X108992176Y-76430000D01*
X109278500Y-76430000D01*
X109336691Y-76448907D01*
X109372655Y-76498407D01*
X109372655Y-76559593D01*
X109336691Y-76609093D01*
X109330617Y-76613171D01*
X109193699Y-76697946D01*
X109193692Y-76697952D01*
X109036135Y-76841586D01*
X109036131Y-76841589D01*
X109036128Y-76841593D01*
X109036125Y-76841597D01*
X108907635Y-77011743D01*
X108907630Y-77011752D01*
X108812596Y-77202608D01*
X108754244Y-77407688D01*
X108754244Y-77407689D01*
X108754244Y-77407690D01*
X108734571Y-77620000D01*
X108754244Y-77832310D01*
X108812595Y-78037389D01*
X108907634Y-78228255D01*
X109036128Y-78398407D01*
X109036135Y-78398413D01*
X109193692Y-78542047D01*
X109193699Y-78542053D01*
X109266548Y-78587159D01*
X109374981Y-78654298D01*
X109573802Y-78731321D01*
X109783390Y-78770500D01*
X109996610Y-78770500D01*
X110206198Y-78731321D01*
X110310908Y-78690755D01*
X110371998Y-78687366D01*
X110416674Y-78713067D01*
X112508504Y-80804897D01*
X112536281Y-80859414D01*
X112537500Y-80874901D01*
X112537500Y-82002099D01*
X112518593Y-82060290D01*
X112469093Y-82096254D01*
X112407907Y-82096254D01*
X112368496Y-82072103D01*
X110986650Y-80690257D01*
X110958873Y-80635740D01*
X110967111Y-80582182D01*
X110965752Y-80581656D01*
X110967400Y-80577398D01*
X110967405Y-80577389D01*
X111025756Y-80372310D01*
X111045429Y-80160000D01*
X111025756Y-79947690D01*
X110967405Y-79742611D01*
X110872366Y-79551745D01*
X110743872Y-79381593D01*
X110645286Y-79291719D01*
X110586307Y-79237952D01*
X110586300Y-79237946D01*
X110405024Y-79125705D01*
X110405019Y-79125702D01*
X110206195Y-79048678D01*
X109996610Y-79009500D01*
X109783390Y-79009500D01*
X109573804Y-79048678D01*
X109374980Y-79125702D01*
X109374975Y-79125705D01*
X109193699Y-79237946D01*
X109193692Y-79237952D01*
X109036135Y-79381586D01*
X109036131Y-79381589D01*
X109036128Y-79381593D01*
X109036125Y-79381597D01*
X108907635Y-79551743D01*
X108907630Y-79551752D01*
X108812596Y-79742608D01*
X108754244Y-79947688D01*
X108734571Y-80160000D01*
X108754244Y-80372311D01*
X108763718Y-80405606D01*
X108812595Y-80577389D01*
X108907634Y-80768255D01*
X109036128Y-80938407D01*
X109089652Y-80987201D01*
X109193692Y-81082047D01*
X109193699Y-81082053D01*
X109264744Y-81126042D01*
X109374981Y-81194298D01*
X109573802Y-81271321D01*
X109783390Y-81310500D01*
X109996610Y-81310500D01*
X110206198Y-81271321D01*
X110310908Y-81230755D01*
X110371998Y-81227366D01*
X110416674Y-81253067D01*
X112108504Y-82944896D01*
X112136281Y-82999413D01*
X112137500Y-83014900D01*
X112137500Y-84142099D01*
X112118593Y-84200290D01*
X112069093Y-84236254D01*
X112007907Y-84236254D01*
X111968496Y-84212103D01*
X110986650Y-83230257D01*
X110958873Y-83175740D01*
X110967111Y-83122182D01*
X110965752Y-83121656D01*
X110967400Y-83117398D01*
X110967405Y-83117389D01*
X111025756Y-82912310D01*
X111045429Y-82700000D01*
X111025756Y-82487690D01*
X110967405Y-82282611D01*
X110872366Y-82091745D01*
X110743872Y-81921593D01*
X110645286Y-81831719D01*
X110586307Y-81777952D01*
X110586300Y-81777946D01*
X110405024Y-81665705D01*
X110405019Y-81665702D01*
X110312592Y-81629896D01*
X110206198Y-81588679D01*
X110206197Y-81588678D01*
X110206195Y-81588678D01*
X109996610Y-81549500D01*
X109783390Y-81549500D01*
X109573804Y-81588678D01*
X109374980Y-81665702D01*
X109374975Y-81665705D01*
X109193699Y-81777946D01*
X109193692Y-81777952D01*
X109036135Y-81921586D01*
X109036131Y-81921589D01*
X109036128Y-81921593D01*
X109036125Y-81921597D01*
X108907635Y-82091743D01*
X108907630Y-82091752D01*
X108812596Y-82282608D01*
X108754244Y-82487688D01*
X108734571Y-82700000D01*
X108746664Y-82830513D01*
X108754244Y-82912310D01*
X108812595Y-83117389D01*
X108907634Y-83308255D01*
X109036128Y-83478407D01*
X109036135Y-83478413D01*
X109193692Y-83622047D01*
X109193699Y-83622053D01*
X109297389Y-83686255D01*
X109374981Y-83734298D01*
X109573802Y-83811321D01*
X109783390Y-83850500D01*
X109996610Y-83850500D01*
X110206198Y-83811321D01*
X110310908Y-83770755D01*
X110371998Y-83767366D01*
X110416674Y-83793067D01*
X111708504Y-85084897D01*
X111736281Y-85139414D01*
X111737500Y-85154901D01*
X111737500Y-86282099D01*
X111718593Y-86340290D01*
X111669093Y-86376254D01*
X111607907Y-86376254D01*
X111568496Y-86352103D01*
X110986650Y-85770257D01*
X110958873Y-85715740D01*
X110967111Y-85662182D01*
X110965752Y-85661656D01*
X110967400Y-85657398D01*
X110967405Y-85657389D01*
X111025756Y-85452310D01*
X111045429Y-85240000D01*
X111025756Y-85027690D01*
X110967405Y-84822611D01*
X110872366Y-84631745D01*
X110743872Y-84461593D01*
X110645286Y-84371719D01*
X110586307Y-84317952D01*
X110586300Y-84317946D01*
X110405024Y-84205705D01*
X110405019Y-84205702D01*
X110206195Y-84128678D01*
X109996610Y-84089500D01*
X109783390Y-84089500D01*
X109573804Y-84128678D01*
X109374980Y-84205702D01*
X109374975Y-84205705D01*
X109193699Y-84317946D01*
X109193692Y-84317952D01*
X109036135Y-84461586D01*
X109036131Y-84461589D01*
X109036128Y-84461593D01*
X109036125Y-84461597D01*
X108907635Y-84631743D01*
X108907630Y-84631752D01*
X108812596Y-84822608D01*
X108754244Y-85027688D01*
X108754244Y-85027689D01*
X108754244Y-85027690D01*
X108734571Y-85240000D01*
X108754244Y-85452310D01*
X108812595Y-85657389D01*
X108907634Y-85848255D01*
X109036128Y-86018407D01*
X109036135Y-86018413D01*
X109193692Y-86162047D01*
X109193699Y-86162053D01*
X109263274Y-86205132D01*
X109374981Y-86274298D01*
X109573802Y-86351321D01*
X109783390Y-86390500D01*
X109996610Y-86390500D01*
X110206198Y-86351321D01*
X110310908Y-86310755D01*
X110371998Y-86307366D01*
X110416674Y-86333067D01*
X112578504Y-88494897D01*
X112606281Y-88549414D01*
X112607500Y-88564901D01*
X112607500Y-89692099D01*
X112588593Y-89750290D01*
X112539093Y-89786254D01*
X112477907Y-89786254D01*
X112438496Y-89762103D01*
X110986650Y-88310257D01*
X110958873Y-88255740D01*
X110967111Y-88202182D01*
X110965752Y-88201656D01*
X110967400Y-88197398D01*
X110967405Y-88197389D01*
X111025756Y-87992310D01*
X111045429Y-87780000D01*
X111025756Y-87567690D01*
X110967405Y-87362611D01*
X110872366Y-87171745D01*
X110743872Y-87001593D01*
X110668506Y-86932887D01*
X110586307Y-86857952D01*
X110586300Y-86857946D01*
X110405024Y-86745705D01*
X110405019Y-86745702D01*
X110206195Y-86668678D01*
X109996610Y-86629500D01*
X109783390Y-86629500D01*
X109573804Y-86668678D01*
X109374980Y-86745702D01*
X109374975Y-86745705D01*
X109193699Y-86857946D01*
X109193692Y-86857952D01*
X109036135Y-87001586D01*
X109036131Y-87001589D01*
X109036128Y-87001593D01*
X109036125Y-87001597D01*
X108907635Y-87171743D01*
X108907630Y-87171752D01*
X108812596Y-87362608D01*
X108754244Y-87567688D01*
X108754244Y-87567689D01*
X108754244Y-87567690D01*
X108734571Y-87780000D01*
X108754244Y-87992310D01*
X108812595Y-88197389D01*
X108907634Y-88388255D01*
X109036128Y-88558407D01*
X109036135Y-88558413D01*
X109193692Y-88702047D01*
X109193699Y-88702053D01*
X109263274Y-88745132D01*
X109374981Y-88814298D01*
X109573802Y-88891321D01*
X109783390Y-88930500D01*
X109996610Y-88930500D01*
X110206198Y-88891321D01*
X110310908Y-88850755D01*
X110371998Y-88847366D01*
X110416674Y-88873067D01*
X112178504Y-90634897D01*
X112206281Y-90689414D01*
X112207500Y-90704901D01*
X112207500Y-91832099D01*
X112188593Y-91890290D01*
X112139093Y-91926254D01*
X112077907Y-91926254D01*
X112038496Y-91902103D01*
X110986650Y-90850257D01*
X110958873Y-90795740D01*
X110967111Y-90742182D01*
X110965752Y-90741656D01*
X110967400Y-90737398D01*
X110967405Y-90737389D01*
X111025756Y-90532310D01*
X111045429Y-90320000D01*
X111025756Y-90107690D01*
X110967405Y-89902611D01*
X110872366Y-89711745D01*
X110743872Y-89541593D01*
X110668506Y-89472887D01*
X110586307Y-89397952D01*
X110586300Y-89397946D01*
X110405024Y-89285705D01*
X110405019Y-89285702D01*
X110206195Y-89208678D01*
X109996610Y-89169500D01*
X109783390Y-89169500D01*
X109573804Y-89208678D01*
X109374980Y-89285702D01*
X109374975Y-89285705D01*
X109193699Y-89397946D01*
X109193692Y-89397952D01*
X109036135Y-89541586D01*
X109036131Y-89541589D01*
X109036128Y-89541593D01*
X109036125Y-89541597D01*
X108907635Y-89711743D01*
X108907630Y-89711752D01*
X108812596Y-89902608D01*
X108754244Y-90107688D01*
X108734571Y-90320000D01*
X108754244Y-90532310D01*
X108812595Y-90737389D01*
X108907634Y-90928255D01*
X109036128Y-91098407D01*
X109036135Y-91098413D01*
X109193692Y-91242047D01*
X109193699Y-91242053D01*
X109297389Y-91306255D01*
X109374981Y-91354298D01*
X109573802Y-91431321D01*
X109783390Y-91470500D01*
X109996610Y-91470500D01*
X110206198Y-91431321D01*
X110310908Y-91390755D01*
X110371998Y-91387366D01*
X110416674Y-91413067D01*
X111778504Y-92774897D01*
X111806281Y-92829414D01*
X111807500Y-92844901D01*
X111807500Y-94581699D01*
X111788593Y-94639890D01*
X111739093Y-94675854D01*
X111677907Y-94675854D01*
X111638496Y-94651703D01*
X111236293Y-94249500D01*
X110796313Y-93809520D01*
X110766299Y-93792191D01*
X110725359Y-93746721D01*
X110718964Y-93685871D01*
X110741363Y-93642249D01*
X110741113Y-93642060D01*
X110742201Y-93640618D01*
X110742649Y-93639747D01*
X110743856Y-93638420D01*
X110743872Y-93638407D01*
X110872366Y-93468255D01*
X110967405Y-93277389D01*
X111025756Y-93072310D01*
X111045429Y-92860000D01*
X111025756Y-92647690D01*
X110967405Y-92442611D01*
X110872366Y-92251745D01*
X110743872Y-92081593D01*
X110689623Y-92032139D01*
X110586307Y-91937952D01*
X110586300Y-91937946D01*
X110405024Y-91825705D01*
X110405019Y-91825702D01*
X110206195Y-91748678D01*
X109996610Y-91709500D01*
X109783390Y-91709500D01*
X109573804Y-91748678D01*
X109374980Y-91825702D01*
X109374975Y-91825705D01*
X109193699Y-91937946D01*
X109193692Y-91937952D01*
X109036135Y-92081586D01*
X109036131Y-92081589D01*
X109036128Y-92081593D01*
X109036125Y-92081597D01*
X108907635Y-92251743D01*
X108907630Y-92251752D01*
X108812596Y-92442608D01*
X108754244Y-92647688D01*
X108738495Y-92817651D01*
X108714299Y-92873849D01*
X108661691Y-92905092D01*
X108600767Y-92899446D01*
X108569914Y-92878520D01*
X108230913Y-92539520D01*
X108230908Y-92539516D01*
X108139591Y-92486794D01*
X108139593Y-92486794D01*
X108100070Y-92476204D01*
X108037727Y-92459500D01*
X108037725Y-92459500D01*
X107171258Y-92459500D01*
X107113067Y-92440593D01*
X107082637Y-92404628D01*
X107063150Y-92365493D01*
X107019673Y-92278179D01*
X106896764Y-92115421D01*
X106746041Y-91978019D01*
X106572637Y-91870652D01*
X106382456Y-91796976D01*
X106382455Y-91796975D01*
X106382453Y-91796975D01*
X106181976Y-91759500D01*
X105978024Y-91759500D01*
X105777546Y-91796975D01*
X105707632Y-91824059D01*
X105587363Y-91870652D01*
X105478676Y-91937948D01*
X105413959Y-91978019D01*
X105263237Y-92115420D01*
X105140328Y-92278177D01*
X105140323Y-92278186D01*
X105058450Y-92442611D01*
X105049418Y-92460750D01*
X104993603Y-92656917D01*
X104974785Y-92860000D01*
X104993603Y-93063083D01*
X105049418Y-93259250D01*
X105140327Y-93441821D01*
X105263236Y-93604579D01*
X105413959Y-93741981D01*
X105587363Y-93849348D01*
X105777544Y-93923024D01*
X105978024Y-93960500D01*
X106181976Y-93960500D01*
X106382456Y-93923024D01*
X106572637Y-93849348D01*
X106746041Y-93741981D01*
X106896764Y-93604579D01*
X107019673Y-93441821D01*
X107082637Y-93315371D01*
X107125500Y-93271709D01*
X107171258Y-93260500D01*
X107778099Y-93260500D01*
X107836290Y-93279407D01*
X107848103Y-93289496D01*
X109009087Y-94450480D01*
X109009089Y-94450481D01*
X109023316Y-94458695D01*
X109064257Y-94504164D01*
X109070654Y-94565014D01*
X109040521Y-94617587D01*
X109036130Y-94621590D01*
X109036128Y-94621592D01*
X108907640Y-94791736D01*
X108907630Y-94791752D01*
X108812596Y-94982608D01*
X108754244Y-95187688D01*
X108734571Y-95400000D01*
X108748193Y-95547014D01*
X108754244Y-95612310D01*
X108812595Y-95817389D01*
X108907634Y-96008255D01*
X109036128Y-96178407D01*
X109036135Y-96178413D01*
X109193692Y-96322047D01*
X109193699Y-96322053D01*
X109297389Y-96386255D01*
X109374981Y-96434298D01*
X109573802Y-96511321D01*
X109783390Y-96550500D01*
X109996610Y-96550500D01*
X110206198Y-96511321D01*
X110405019Y-96434298D01*
X110586302Y-96322052D01*
X110743872Y-96178407D01*
X110872366Y-96008255D01*
X110967405Y-95817389D01*
X111025756Y-95612310D01*
X111043659Y-95419100D01*
X111067854Y-95362905D01*
X111120461Y-95331661D01*
X111181385Y-95337307D01*
X111212240Y-95358233D01*
X111346504Y-95492497D01*
X111374281Y-95547014D01*
X111375500Y-95562501D01*
X111375500Y-113662331D01*
X111375500Y-113767785D01*
X111380983Y-113788247D01*
X111402794Y-113869650D01*
X111455516Y-113960966D01*
X111455517Y-113960967D01*
X111455518Y-113960968D01*
X111455520Y-113960971D01*
X112632726Y-115138177D01*
X113802219Y-116307670D01*
X113829996Y-116362187D01*
X113820425Y-116422619D01*
X113781721Y-116463407D01*
X113778160Y-116465462D01*
X113647570Y-116565668D01*
X113646509Y-116564286D01*
X113599416Y-116588281D01*
X113583929Y-116589500D01*
X110873901Y-116589500D01*
X110815710Y-116570593D01*
X110779746Y-116521093D01*
X110779746Y-116459907D01*
X110794897Y-116430839D01*
X110872366Y-116328255D01*
X110967405Y-116137389D01*
X111025756Y-115932310D01*
X111045429Y-115720000D01*
X111025756Y-115507690D01*
X110967405Y-115302611D01*
X110872366Y-115111745D01*
X110743872Y-114941593D01*
X110653856Y-114859532D01*
X110586307Y-114797952D01*
X110586300Y-114797946D01*
X110405024Y-114685705D01*
X110405019Y-114685702D01*
X110328261Y-114655966D01*
X110206198Y-114608679D01*
X110206197Y-114608678D01*
X110206195Y-114608678D01*
X109996610Y-114569500D01*
X109783390Y-114569500D01*
X109573804Y-114608678D01*
X109374980Y-114685702D01*
X109374975Y-114685705D01*
X109193699Y-114797946D01*
X109193692Y-114797952D01*
X109036135Y-114941586D01*
X109036131Y-114941589D01*
X109036128Y-114941593D01*
X109036125Y-114941597D01*
X108907635Y-115111743D01*
X108907630Y-115111752D01*
X108812596Y-115302608D01*
X108754244Y-115507688D01*
X108754244Y-115507690D01*
X108734571Y-115720000D01*
X108754244Y-115932310D01*
X108812595Y-116137389D01*
X108907634Y-116328255D01*
X108933258Y-116362187D01*
X108985103Y-116430839D01*
X109005082Y-116488670D01*
X108987253Y-116547201D01*
X108938427Y-116584073D01*
X108906099Y-116589500D01*
X107001246Y-116589500D01*
X106943055Y-116570593D01*
X106907091Y-116521093D01*
X106907091Y-116459907D01*
X106922239Y-116430844D01*
X107019673Y-116301821D01*
X107110582Y-116119250D01*
X107166397Y-115923083D01*
X107185215Y-115720000D01*
X107166397Y-115516917D01*
X107110582Y-115320750D01*
X107019673Y-115138179D01*
X106896764Y-114975421D01*
X106746041Y-114838019D01*
X106572637Y-114730652D01*
X106382456Y-114656976D01*
X106382455Y-114656975D01*
X106382453Y-114656975D01*
X106181976Y-114619500D01*
X105978024Y-114619500D01*
X105777546Y-114656975D01*
X105707632Y-114684059D01*
X105587363Y-114730652D01*
X105413959Y-114838019D01*
X105263236Y-114975421D01*
X105223388Y-115028188D01*
X105140328Y-115138177D01*
X105140323Y-115138186D01*
X105050040Y-115319500D01*
X105049418Y-115320750D01*
X104993603Y-115516917D01*
X104974785Y-115720000D01*
X104993603Y-115923083D01*
X104996229Y-115932311D01*
X105049419Y-116119254D01*
X105088313Y-116197364D01*
X105097326Y-116257882D01*
X105069045Y-116312139D01*
X105014274Y-116339411D01*
X104953933Y-116329281D01*
X104929688Y-116311495D01*
X103129971Y-114511778D01*
X103102194Y-114457261D01*
X103101822Y-114454695D01*
X103087044Y-114342441D01*
X103087044Y-114342438D01*
X103065871Y-114291321D01*
X103026537Y-114196361D01*
X103026537Y-114196360D01*
X102930286Y-114070923D01*
X102930285Y-114070922D01*
X102930282Y-114070918D01*
X102930277Y-114070914D01*
X102930276Y-114070913D01*
X102859104Y-114016301D01*
X102804841Y-113974664D01*
X102804840Y-113974663D01*
X102804838Y-113974662D01*
X102658766Y-113914157D01*
X102658758Y-113914155D01*
X102502001Y-113893518D01*
X102501999Y-113893518D01*
X102345241Y-113914155D01*
X102345233Y-113914157D01*
X102199161Y-113974662D01*
X102199160Y-113974662D01*
X102073723Y-114070913D01*
X102073713Y-114070923D01*
X101977462Y-114196360D01*
X101977462Y-114196361D01*
X101916957Y-114342433D01*
X101916955Y-114342441D01*
X101896318Y-114499199D01*
X101075500Y-114499199D01*
X101075500Y-108531799D01*
X101451518Y-108531799D01*
X101451518Y-108531800D01*
X101472155Y-108688558D01*
X101472157Y-108688566D01*
X101532662Y-108834638D01*
X101532662Y-108834639D01*
X101628913Y-108960076D01*
X101628918Y-108960082D01*
X101754359Y-109056336D01*
X101900438Y-109116844D01*
X102057200Y-109137482D01*
X102063690Y-109137482D01*
X102063690Y-109140337D01*
X102112144Y-109149310D01*
X102134923Y-109166316D01*
X105199087Y-112230480D01*
X105199089Y-112230481D01*
X105199090Y-112230482D01*
X105199091Y-112230483D01*
X105258756Y-112264931D01*
X105299697Y-112310400D01*
X105306093Y-112371251D01*
X105275954Y-112423827D01*
X105263238Y-112435419D01*
X105140328Y-112598177D01*
X105140323Y-112598186D01*
X105050040Y-112779500D01*
X105049418Y-112780750D01*
X104993603Y-112976917D01*
X104974785Y-113180000D01*
X104993603Y-113383083D01*
X105049418Y-113579250D01*
X105140327Y-113761821D01*
X105263236Y-113924579D01*
X105413959Y-114061981D01*
X105587363Y-114169348D01*
X105777544Y-114243024D01*
X105978024Y-114280500D01*
X106181976Y-114280500D01*
X106382456Y-114243024D01*
X106572637Y-114169348D01*
X106746041Y-114061981D01*
X106896764Y-113924579D01*
X107019673Y-113761821D01*
X107110582Y-113579250D01*
X107166397Y-113383083D01*
X107174779Y-113292619D01*
X107198974Y-113236425D01*
X107251581Y-113205181D01*
X107312505Y-113210826D01*
X107343359Y-113231753D01*
X107612086Y-113500479D01*
X107612091Y-113500483D01*
X107703408Y-113553205D01*
X107703406Y-113553205D01*
X107703410Y-113553206D01*
X107703412Y-113553207D01*
X107805273Y-113580500D01*
X107910727Y-113580500D01*
X108742887Y-113580500D01*
X108801078Y-113599407D01*
X108831508Y-113635372D01*
X108907634Y-113788255D01*
X109036128Y-113958407D01*
X109038941Y-113960971D01*
X109193692Y-114102047D01*
X109193699Y-114102053D01*
X109297389Y-114166255D01*
X109374981Y-114214298D01*
X109573802Y-114291321D01*
X109783390Y-114330500D01*
X109996610Y-114330500D01*
X110206198Y-114291321D01*
X110405019Y-114214298D01*
X110586302Y-114102052D01*
X110743872Y-113958407D01*
X110872366Y-113788255D01*
X110967405Y-113597389D01*
X111025756Y-113392310D01*
X111045429Y-113180000D01*
X111025756Y-112967690D01*
X110967405Y-112762611D01*
X110872366Y-112571745D01*
X110743872Y-112401593D01*
X110689623Y-112352139D01*
X110586307Y-112257952D01*
X110586300Y-112257946D01*
X110405024Y-112145705D01*
X110405019Y-112145702D01*
X110206195Y-112068678D01*
X109996610Y-112029500D01*
X109783390Y-112029500D01*
X109573804Y-112068678D01*
X109374980Y-112145702D01*
X109374975Y-112145705D01*
X109193699Y-112257946D01*
X109193692Y-112257952D01*
X109036135Y-112401586D01*
X109036131Y-112401589D01*
X109036128Y-112401593D01*
X109036125Y-112401597D01*
X108907635Y-112571743D01*
X108907630Y-112571752D01*
X108831508Y-112724628D01*
X108788646Y-112768290D01*
X108742887Y-112779500D01*
X108064901Y-112779500D01*
X108006710Y-112760593D01*
X107994897Y-112750504D01*
X107435045Y-112190652D01*
X106833913Y-111589520D01*
X106833910Y-111589518D01*
X106829991Y-111585599D01*
X106802214Y-111531082D01*
X106811785Y-111470650D01*
X106833297Y-111442436D01*
X106896764Y-111384579D01*
X107019673Y-111221821D01*
X107110582Y-111039250D01*
X107166397Y-110843083D01*
X107174779Y-110752619D01*
X107198974Y-110696425D01*
X107251581Y-110665181D01*
X107312505Y-110670826D01*
X107343359Y-110691753D01*
X107612086Y-110960479D01*
X107612091Y-110960483D01*
X107703408Y-111013205D01*
X107703406Y-111013205D01*
X107703410Y-111013206D01*
X107703412Y-111013207D01*
X107805273Y-111040500D01*
X107910727Y-111040500D01*
X108742887Y-111040500D01*
X108801078Y-111059407D01*
X108831508Y-111095372D01*
X108907634Y-111248255D01*
X109036128Y-111418407D01*
X109098186Y-111474981D01*
X109193692Y-111562047D01*
X109193699Y-111562053D01*
X109238057Y-111589518D01*
X109374981Y-111674298D01*
X109573802Y-111751321D01*
X109783390Y-111790500D01*
X109996610Y-111790500D01*
X110206198Y-111751321D01*
X110405019Y-111674298D01*
X110586302Y-111562052D01*
X110743872Y-111418407D01*
X110872366Y-111248255D01*
X110967405Y-111057389D01*
X111025756Y-110852310D01*
X111045429Y-110640000D01*
X111025756Y-110427690D01*
X110967405Y-110222611D01*
X110872366Y-110031745D01*
X110743872Y-109861593D01*
X110664688Y-109789407D01*
X110586307Y-109717952D01*
X110586300Y-109717946D01*
X110405024Y-109605705D01*
X110405019Y-109605702D01*
X110206195Y-109528678D01*
X109996610Y-109489500D01*
X109783390Y-109489500D01*
X109573804Y-109528678D01*
X109374980Y-109605702D01*
X109374975Y-109605705D01*
X109193699Y-109717946D01*
X109193692Y-109717952D01*
X109036135Y-109861586D01*
X109036131Y-109861589D01*
X109036128Y-109861593D01*
X109036125Y-109861597D01*
X108907635Y-110031743D01*
X108907630Y-110031752D01*
X108831508Y-110184628D01*
X108788646Y-110228290D01*
X108742887Y-110239500D01*
X108064901Y-110239500D01*
X108006710Y-110220593D01*
X107994897Y-110210504D01*
X107435045Y-109650652D01*
X106833913Y-109049520D01*
X106833910Y-109049518D01*
X106829991Y-109045599D01*
X106802214Y-108991082D01*
X106811785Y-108930650D01*
X106833297Y-108902436D01*
X106896764Y-108844579D01*
X107019673Y-108681821D01*
X107110582Y-108499250D01*
X107166397Y-108303083D01*
X107185215Y-108100000D01*
X107185214Y-108099993D01*
X107185548Y-108096393D01*
X107209744Y-108040195D01*
X107262351Y-108008951D01*
X107323275Y-108014597D01*
X107354129Y-108035523D01*
X107739086Y-108420479D01*
X107739091Y-108420483D01*
X107830408Y-108473205D01*
X107830406Y-108473205D01*
X107830410Y-108473206D01*
X107830412Y-108473207D01*
X107932273Y-108500500D01*
X108742887Y-108500500D01*
X108801078Y-108519407D01*
X108831508Y-108555372D01*
X108892064Y-108676986D01*
X108907634Y-108708255D01*
X109036128Y-108878407D01*
X109098186Y-108934981D01*
X109193692Y-109022047D01*
X109193699Y-109022053D01*
X109238057Y-109049518D01*
X109374981Y-109134298D01*
X109573802Y-109211321D01*
X109783390Y-109250500D01*
X109996610Y-109250500D01*
X110206198Y-109211321D01*
X110405019Y-109134298D01*
X110586302Y-109022052D01*
X110743872Y-108878407D01*
X110872366Y-108708255D01*
X110967405Y-108517389D01*
X111025756Y-108312310D01*
X111045429Y-108100000D01*
X111025756Y-107887690D01*
X110967405Y-107682611D01*
X110872366Y-107491745D01*
X110743872Y-107321593D01*
X110649972Y-107235991D01*
X110586307Y-107177952D01*
X110586300Y-107177946D01*
X110405024Y-107065705D01*
X110405019Y-107065702D01*
X110206195Y-106988678D01*
X109996610Y-106949500D01*
X109783390Y-106949500D01*
X109573804Y-106988678D01*
X109374980Y-107065702D01*
X109374975Y-107065705D01*
X109193699Y-107177946D01*
X109193692Y-107177952D01*
X109036135Y-107321586D01*
X109036131Y-107321589D01*
X109036128Y-107321593D01*
X109036125Y-107321597D01*
X108907635Y-107491743D01*
X108907630Y-107491752D01*
X108831508Y-107644628D01*
X108788646Y-107688290D01*
X108742887Y-107699500D01*
X108191901Y-107699500D01*
X108133710Y-107680593D01*
X108121897Y-107670504D01*
X107562045Y-107110652D01*
X106960913Y-106509520D01*
X106960910Y-106509518D01*
X106901242Y-106475068D01*
X106860302Y-106429598D01*
X106853907Y-106368748D01*
X106884047Y-106316171D01*
X106896764Y-106304579D01*
X107019673Y-106141821D01*
X107110582Y-105959250D01*
X107166397Y-105763083D01*
X107174779Y-105672619D01*
X107198974Y-105616425D01*
X107251581Y-105585181D01*
X107312505Y-105590826D01*
X107343359Y-105611753D01*
X107612086Y-105880479D01*
X107612091Y-105880483D01*
X107703408Y-105933205D01*
X107703406Y-105933205D01*
X107703410Y-105933206D01*
X107703412Y-105933207D01*
X107805273Y-105960500D01*
X108742887Y-105960500D01*
X108801078Y-105979407D01*
X108831508Y-106015372D01*
X108907634Y-106168255D01*
X109036128Y-106338407D01*
X109037122Y-106339313D01*
X109193692Y-106482047D01*
X109193699Y-106482053D01*
X109238057Y-106509518D01*
X109374981Y-106594298D01*
X109573802Y-106671321D01*
X109783390Y-106710500D01*
X109996610Y-106710500D01*
X110206198Y-106671321D01*
X110405019Y-106594298D01*
X110586302Y-106482052D01*
X110743872Y-106338407D01*
X110872366Y-106168255D01*
X110967405Y-105977389D01*
X111025756Y-105772310D01*
X111045429Y-105560000D01*
X111025756Y-105347690D01*
X110967405Y-105142611D01*
X110872366Y-104951745D01*
X110743872Y-104781593D01*
X110633487Y-104680963D01*
X110586307Y-104637952D01*
X110586300Y-104637946D01*
X110405024Y-104525705D01*
X110405019Y-104525702D01*
X110206195Y-104448678D01*
X109996610Y-104409500D01*
X109783390Y-104409500D01*
X109573804Y-104448678D01*
X109374980Y-104525702D01*
X109374975Y-104525705D01*
X109193699Y-104637946D01*
X109193692Y-104637952D01*
X109036135Y-104781586D01*
X109036131Y-104781589D01*
X109036128Y-104781593D01*
X109036125Y-104781597D01*
X108907635Y-104951743D01*
X108907630Y-104951752D01*
X108831508Y-105104628D01*
X108788646Y-105148290D01*
X108742887Y-105159500D01*
X108064901Y-105159500D01*
X108006710Y-105140593D01*
X107994897Y-105130504D01*
X107435045Y-104570652D01*
X106833913Y-103969520D01*
X106833910Y-103969518D01*
X106829991Y-103965599D01*
X106802214Y-103911082D01*
X106811785Y-103850650D01*
X106833297Y-103822436D01*
X106896764Y-103764579D01*
X107019673Y-103601821D01*
X107110582Y-103419250D01*
X107166397Y-103223083D01*
X107174779Y-103132619D01*
X107198974Y-103076425D01*
X107251581Y-103045181D01*
X107312505Y-103050826D01*
X107343359Y-103071753D01*
X107612086Y-103340479D01*
X107612091Y-103340483D01*
X107703408Y-103393205D01*
X107703406Y-103393205D01*
X107703410Y-103393206D01*
X107703412Y-103393207D01*
X107805273Y-103420500D01*
X108742887Y-103420500D01*
X108801078Y-103439407D01*
X108831508Y-103475372D01*
X108907634Y-103628255D01*
X109036128Y-103798407D01*
X109099929Y-103856570D01*
X109193692Y-103942047D01*
X109193699Y-103942053D01*
X109238060Y-103969520D01*
X109374981Y-104054298D01*
X109573802Y-104131321D01*
X109783390Y-104170500D01*
X109996610Y-104170500D01*
X110206198Y-104131321D01*
X110405019Y-104054298D01*
X110586302Y-103942052D01*
X110743872Y-103798407D01*
X110872366Y-103628255D01*
X110967405Y-103437389D01*
X111025756Y-103232310D01*
X111045429Y-103020000D01*
X111025756Y-102807690D01*
X110967405Y-102602611D01*
X110872366Y-102411745D01*
X110743872Y-102241593D01*
X110649972Y-102155991D01*
X110586307Y-102097952D01*
X110586300Y-102097946D01*
X110405024Y-101985705D01*
X110405019Y-101985702D01*
X110206195Y-101908678D01*
X109996610Y-101869500D01*
X109783390Y-101869500D01*
X109573804Y-101908678D01*
X109374980Y-101985702D01*
X109374975Y-101985705D01*
X109193699Y-102097946D01*
X109193692Y-102097952D01*
X109036135Y-102241586D01*
X109036131Y-102241589D01*
X109036128Y-102241593D01*
X109036125Y-102241597D01*
X108907635Y-102411743D01*
X108907630Y-102411752D01*
X108831508Y-102564628D01*
X108788646Y-102608290D01*
X108742887Y-102619500D01*
X108064901Y-102619500D01*
X108006710Y-102600593D01*
X107994897Y-102590504D01*
X107435045Y-102030652D01*
X106833913Y-101429520D01*
X106833910Y-101429518D01*
X106829991Y-101425599D01*
X106802214Y-101371082D01*
X106811785Y-101310650D01*
X106833297Y-101282436D01*
X106896764Y-101224579D01*
X107019673Y-101061821D01*
X107110582Y-100879250D01*
X107166397Y-100683083D01*
X107174779Y-100592619D01*
X107198974Y-100536425D01*
X107251581Y-100505181D01*
X107312505Y-100510826D01*
X107343359Y-100531753D01*
X107612086Y-100800479D01*
X107612091Y-100800483D01*
X107703408Y-100853205D01*
X107703406Y-100853205D01*
X107703410Y-100853206D01*
X107703412Y-100853207D01*
X107805273Y-100880500D01*
X108742887Y-100880500D01*
X108801078Y-100899407D01*
X108831508Y-100935372D01*
X108905912Y-101084796D01*
X108907634Y-101088255D01*
X109036128Y-101258407D01*
X109101497Y-101317999D01*
X109193692Y-101402047D01*
X109193699Y-101402053D01*
X109238060Y-101429520D01*
X109374981Y-101514298D01*
X109573802Y-101591321D01*
X109783390Y-101630500D01*
X109996610Y-101630500D01*
X110206198Y-101591321D01*
X110405019Y-101514298D01*
X110586302Y-101402052D01*
X110743872Y-101258407D01*
X110872366Y-101088255D01*
X110967405Y-100897389D01*
X111025756Y-100692310D01*
X111045429Y-100480000D01*
X111025756Y-100267690D01*
X110967405Y-100062611D01*
X110872366Y-99871745D01*
X110743872Y-99701593D01*
X110664688Y-99629407D01*
X110586307Y-99557952D01*
X110586300Y-99557946D01*
X110405024Y-99445705D01*
X110405019Y-99445702D01*
X110325016Y-99414709D01*
X110206198Y-99368679D01*
X110206197Y-99368678D01*
X110206195Y-99368678D01*
X109996610Y-99329500D01*
X109783390Y-99329500D01*
X109573804Y-99368678D01*
X109374980Y-99445702D01*
X109374975Y-99445705D01*
X109193699Y-99557946D01*
X109193692Y-99557952D01*
X109036135Y-99701586D01*
X109036131Y-99701589D01*
X109036128Y-99701593D01*
X109036125Y-99701597D01*
X108907635Y-99871743D01*
X108907630Y-99871752D01*
X108831508Y-100024628D01*
X108788646Y-100068290D01*
X108742887Y-100079500D01*
X108064901Y-100079500D01*
X108006710Y-100060593D01*
X107994897Y-100050504D01*
X106971439Y-99027046D01*
X106943662Y-98972529D01*
X106953233Y-98912097D01*
X106971439Y-98887038D01*
X107079665Y-98778811D01*
X107210134Y-98592481D01*
X107306266Y-98386323D01*
X107358872Y-98190000D01*
X106395686Y-98190000D01*
X106400080Y-98185606D01*
X106452741Y-98094394D01*
X106480000Y-97992661D01*
X106480000Y-97887339D01*
X106452741Y-97785606D01*
X106400080Y-97694394D01*
X106395686Y-97690000D01*
X107358872Y-97690000D01*
X107306266Y-97493676D01*
X107210134Y-97287518D01*
X107079665Y-97101188D01*
X106918811Y-96940334D01*
X106732481Y-96809865D01*
X106526323Y-96713733D01*
X106337151Y-96663044D01*
X106285836Y-96629720D01*
X106263910Y-96572598D01*
X106279746Y-96513498D01*
X106327296Y-96474992D01*
X106344568Y-96470106D01*
X106382456Y-96463024D01*
X106572637Y-96389348D01*
X106746041Y-96281981D01*
X106896764Y-96144579D01*
X107019673Y-95981821D01*
X107110582Y-95799250D01*
X107166397Y-95603083D01*
X107185215Y-95400000D01*
X107166397Y-95196917D01*
X107110582Y-95000750D01*
X107019673Y-94818179D01*
X106896764Y-94655421D01*
X106746041Y-94518019D01*
X106572637Y-94410652D01*
X106382456Y-94336976D01*
X106382455Y-94336975D01*
X106382453Y-94336975D01*
X106181976Y-94299500D01*
X105978024Y-94299500D01*
X105777546Y-94336975D01*
X105707632Y-94364059D01*
X105587363Y-94410652D01*
X105478676Y-94477948D01*
X105413959Y-94518019D01*
X105263237Y-94655420D01*
X105140328Y-94818177D01*
X105140323Y-94818186D01*
X105058450Y-94982611D01*
X105049418Y-95000750D01*
X104993603Y-95196917D01*
X104974785Y-95400000D01*
X104993603Y-95603083D01*
X105049418Y-95799250D01*
X105140327Y-95981821D01*
X105263236Y-96144579D01*
X105413959Y-96281981D01*
X105587363Y-96389348D01*
X105777544Y-96463024D01*
X105815418Y-96470103D01*
X105869141Y-96499380D01*
X105895398Y-96554645D01*
X105884156Y-96614789D01*
X105839709Y-96656838D01*
X105822848Y-96663044D01*
X105633676Y-96713733D01*
X105427518Y-96809865D01*
X105241188Y-96940334D01*
X105080334Y-97101188D01*
X104949865Y-97287518D01*
X104853733Y-97493676D01*
X104801128Y-97690000D01*
X105764314Y-97690000D01*
X105759920Y-97694394D01*
X105707259Y-97785606D01*
X105680000Y-97887339D01*
X105680000Y-97992661D01*
X105707259Y-98094394D01*
X105759920Y-98185606D01*
X105764314Y-98190000D01*
X104801128Y-98190000D01*
X104853733Y-98386323D01*
X104879459Y-98441494D01*
X104886915Y-98502223D01*
X104857252Y-98555737D01*
X104801799Y-98581595D01*
X104741738Y-98569920D01*
X104719730Y-98553337D01*
X104397896Y-98231503D01*
X104370119Y-98176986D01*
X104368900Y-98161499D01*
X104368900Y-90320000D01*
X104974785Y-90320000D01*
X104993603Y-90523083D01*
X105049418Y-90719250D01*
X105140327Y-90901821D01*
X105263236Y-91064579D01*
X105413959Y-91201981D01*
X105587363Y-91309348D01*
X105777544Y-91383024D01*
X105978024Y-91420500D01*
X106181976Y-91420500D01*
X106382456Y-91383024D01*
X106572637Y-91309348D01*
X106746041Y-91201981D01*
X106896764Y-91064579D01*
X107019673Y-90901821D01*
X107110582Y-90719250D01*
X107166397Y-90523083D01*
X107185215Y-90320000D01*
X107166397Y-90116917D01*
X107110582Y-89920750D01*
X107019673Y-89738179D01*
X106896764Y-89575421D01*
X106746041Y-89438019D01*
X106572637Y-89330652D01*
X106382456Y-89256976D01*
X106382455Y-89256975D01*
X106382453Y-89256975D01*
X106181976Y-89219500D01*
X105978024Y-89219500D01*
X105777546Y-89256975D01*
X105707632Y-89284059D01*
X105587363Y-89330652D01*
X105428924Y-89428753D01*
X105413959Y-89438019D01*
X105263237Y-89575420D01*
X105140328Y-89738177D01*
X105140323Y-89738186D01*
X105058450Y-89902611D01*
X105049418Y-89920750D01*
X104993603Y-90116917D01*
X104974785Y-90320000D01*
X104368900Y-90320000D01*
X104368900Y-87780000D01*
X104974785Y-87780000D01*
X104993603Y-87983083D01*
X105049418Y-88179250D01*
X105140327Y-88361821D01*
X105263236Y-88524579D01*
X105413959Y-88661981D01*
X105587363Y-88769348D01*
X105777544Y-88843024D01*
X105978024Y-88880500D01*
X106181976Y-88880500D01*
X106382456Y-88843024D01*
X106572637Y-88769348D01*
X106746041Y-88661981D01*
X106896764Y-88524579D01*
X107019673Y-88361821D01*
X107110582Y-88179250D01*
X107166397Y-87983083D01*
X107185215Y-87780000D01*
X107166397Y-87576917D01*
X107110582Y-87380750D01*
X107019673Y-87198179D01*
X106896764Y-87035421D01*
X106746041Y-86898019D01*
X106572637Y-86790652D01*
X106382456Y-86716976D01*
X106382455Y-86716975D01*
X106382453Y-86716975D01*
X106181976Y-86679500D01*
X105978024Y-86679500D01*
X105777546Y-86716975D01*
X105707632Y-86744059D01*
X105587363Y-86790652D01*
X105428924Y-86888753D01*
X105413959Y-86898019D01*
X105263237Y-87035420D01*
X105140328Y-87198177D01*
X105140323Y-87198186D01*
X105050040Y-87379500D01*
X105049418Y-87380750D01*
X104993603Y-87576917D01*
X104974785Y-87780000D01*
X104368900Y-87780000D01*
X104368900Y-85240000D01*
X104974785Y-85240000D01*
X104993603Y-85443083D01*
X105049418Y-85639250D01*
X105140327Y-85821821D01*
X105263236Y-85984579D01*
X105413959Y-86121981D01*
X105587363Y-86229348D01*
X105777544Y-86303024D01*
X105978024Y-86340500D01*
X106181976Y-86340500D01*
X106382456Y-86303024D01*
X106572637Y-86229348D01*
X106746041Y-86121981D01*
X106896764Y-85984579D01*
X107019673Y-85821821D01*
X107110582Y-85639250D01*
X107166397Y-85443083D01*
X107185215Y-85240000D01*
X107166397Y-85036917D01*
X107110582Y-84840750D01*
X107019673Y-84658179D01*
X106896764Y-84495421D01*
X106746041Y-84358019D01*
X106572637Y-84250652D01*
X106382456Y-84176976D01*
X106382455Y-84176975D01*
X106382453Y-84176975D01*
X106181976Y-84139500D01*
X105978024Y-84139500D01*
X105777546Y-84176975D01*
X105717363Y-84200290D01*
X105587363Y-84250652D01*
X105478676Y-84317948D01*
X105413959Y-84358019D01*
X105263237Y-84495420D01*
X105140328Y-84658177D01*
X105140323Y-84658186D01*
X105050040Y-84839500D01*
X105049418Y-84840750D01*
X104993603Y-85036917D01*
X104974785Y-85240000D01*
X104368900Y-85240000D01*
X104368900Y-78795500D01*
X104387807Y-78737309D01*
X104397890Y-78725502D01*
X104970315Y-78153076D01*
X105024832Y-78125300D01*
X105085264Y-78134871D01*
X105128529Y-78178136D01*
X105128940Y-78178953D01*
X105140327Y-78201821D01*
X105263236Y-78364579D01*
X105413959Y-78501981D01*
X105587363Y-78609348D01*
X105777544Y-78683024D01*
X105815418Y-78690103D01*
X105869141Y-78719380D01*
X105895398Y-78774645D01*
X105884156Y-78834789D01*
X105839709Y-78876838D01*
X105822848Y-78883044D01*
X105633676Y-78933733D01*
X105427518Y-79029865D01*
X105241188Y-79160334D01*
X105080334Y-79321188D01*
X104949865Y-79507518D01*
X104853733Y-79713676D01*
X104801128Y-79910000D01*
X105764314Y-79910000D01*
X105759920Y-79914394D01*
X105707259Y-80005606D01*
X105680000Y-80107339D01*
X105680000Y-80212661D01*
X105707259Y-80314394D01*
X105759920Y-80405606D01*
X105764314Y-80410000D01*
X104801128Y-80410000D01*
X104853733Y-80606323D01*
X104949865Y-80812481D01*
X105080334Y-80998811D01*
X105241188Y-81159665D01*
X105427518Y-81290134D01*
X105633675Y-81386266D01*
X105822848Y-81436955D01*
X105874162Y-81470279D01*
X105896089Y-81527401D01*
X105880254Y-81586501D01*
X105832704Y-81625006D01*
X105815417Y-81629896D01*
X105777545Y-81636975D01*
X105703393Y-81665702D01*
X105587363Y-81710652D01*
X105478676Y-81777948D01*
X105413959Y-81818019D01*
X105263237Y-81955420D01*
X105140328Y-82118177D01*
X105140323Y-82118186D01*
X105050040Y-82299500D01*
X105049418Y-82300750D01*
X104993603Y-82496917D01*
X104974785Y-82700000D01*
X104993603Y-82903083D01*
X105049418Y-83099250D01*
X105140327Y-83281821D01*
X105263236Y-83444579D01*
X105413959Y-83581981D01*
X105587363Y-83689348D01*
X105777544Y-83763024D01*
X105978024Y-83800500D01*
X106181976Y-83800500D01*
X106382456Y-83763024D01*
X106572637Y-83689348D01*
X106746041Y-83581981D01*
X106896764Y-83444579D01*
X107019673Y-83281821D01*
X107110582Y-83099250D01*
X107166397Y-82903083D01*
X107185215Y-82700000D01*
X107166397Y-82496917D01*
X107110582Y-82300750D01*
X107019673Y-82118179D01*
X106896764Y-81955421D01*
X106746041Y-81818019D01*
X106572637Y-81710652D01*
X106425283Y-81653567D01*
X106382454Y-81636975D01*
X106344582Y-81629896D01*
X106290857Y-81600618D01*
X106264601Y-81545352D01*
X106275844Y-81485209D01*
X106320292Y-81443160D01*
X106337151Y-81436955D01*
X106526324Y-81386266D01*
X106732481Y-81290134D01*
X106918811Y-81159665D01*
X107079665Y-80998811D01*
X107210134Y-80812481D01*
X107306266Y-80606323D01*
X107358872Y-80410000D01*
X106395686Y-80410000D01*
X106400080Y-80405606D01*
X106452741Y-80314394D01*
X106480000Y-80212661D01*
X106480000Y-80107339D01*
X106452741Y-80005606D01*
X106400080Y-79914394D01*
X106395686Y-79910000D01*
X107358872Y-79910000D01*
X107306266Y-79713676D01*
X107210134Y-79507518D01*
X107079665Y-79321188D01*
X106918811Y-79160334D01*
X106732481Y-79029865D01*
X106526323Y-78933733D01*
X106337151Y-78883044D01*
X106285836Y-78849720D01*
X106263910Y-78792598D01*
X106279746Y-78733498D01*
X106327296Y-78694992D01*
X106344568Y-78690106D01*
X106382456Y-78683024D01*
X106572637Y-78609348D01*
X106746041Y-78501981D01*
X106896764Y-78364579D01*
X107019673Y-78201821D01*
X107110582Y-78019250D01*
X107166397Y-77823083D01*
X107185215Y-77620000D01*
X107166397Y-77416917D01*
X107110582Y-77220750D01*
X107019673Y-77038179D01*
X106896764Y-76875421D01*
X106746041Y-76738019D01*
X106572637Y-76630652D01*
X106382456Y-76556976D01*
X106382455Y-76556975D01*
X106382453Y-76556975D01*
X106181976Y-76519500D01*
X105978024Y-76519500D01*
X105777546Y-76556975D01*
X105753055Y-76566463D01*
X105587363Y-76630652D01*
X105478676Y-76697948D01*
X105413959Y-76738019D01*
X105263237Y-76875420D01*
X105140328Y-77038177D01*
X105140323Y-77038186D01*
X105077363Y-77164628D01*
X105034500Y-77208291D01*
X104988742Y-77219500D01*
X104884273Y-77219500D01*
X104833342Y-77233146D01*
X104782410Y-77246793D01*
X104717183Y-77284453D01*
X104657335Y-77297174D01*
X104601439Y-77272287D01*
X104570846Y-77219299D01*
X104577242Y-77158449D01*
X104597677Y-77128713D01*
X105516896Y-76209494D01*
X105571413Y-76181718D01*
X105586900Y-76180499D01*
X106924861Y-76180499D01*
X106924864Y-76180499D01*
X106949991Y-76177585D01*
X107052765Y-76132206D01*
X107132206Y-76052765D01*
X107177585Y-75949991D01*
X107180500Y-75924865D01*
X107180499Y-74235136D01*
X107177585Y-74210009D01*
X107132206Y-74107235D01*
X107052765Y-74027794D01*
X106949991Y-73982415D01*
X106949990Y-73982414D01*
X106949988Y-73982414D01*
X106924868Y-73979500D01*
X105235139Y-73979500D01*
X105235136Y-73979501D01*
X105210009Y-73982414D01*
X105107235Y-74027794D01*
X105027794Y-74107235D01*
X104982414Y-74210011D01*
X104979500Y-74235130D01*
X104979500Y-75573098D01*
X104960593Y-75631289D01*
X104950504Y-75643102D01*
X104190837Y-76402769D01*
X104136320Y-76430546D01*
X104075888Y-76420975D01*
X104042291Y-76393033D01*
X104027189Y-76373352D01*
X103988517Y-76322953D01*
X103988512Y-76322949D01*
X103988511Y-76322948D01*
X103863073Y-76226697D01*
X103717001Y-76166192D01*
X103716993Y-76166190D01*
X103560236Y-76145553D01*
X103560234Y-76145553D01*
X103403476Y-76166190D01*
X103403468Y-76166192D01*
X103257396Y-76226697D01*
X103257395Y-76226697D01*
X103131958Y-76322948D01*
X103131948Y-76322958D01*
X103035697Y-76448395D01*
X103035697Y-76448396D01*
X102975192Y-76594468D01*
X102975190Y-76594476D01*
X102953706Y-76757668D01*
X102951978Y-76757440D01*
X102935646Y-76807707D01*
X102925557Y-76819519D01*
X102847920Y-76897156D01*
X102847916Y-76897161D01*
X102795195Y-76988476D01*
X102795190Y-76988487D01*
X102788960Y-77011743D01*
X102788960Y-77011744D01*
X102767900Y-77090343D01*
X102767900Y-80077311D01*
X102748993Y-80135502D01*
X102699493Y-80171466D01*
X102638307Y-80171466D01*
X102590358Y-80137578D01*
X102571286Y-80112723D01*
X102571285Y-80112722D01*
X102571282Y-80112718D01*
X102571277Y-80112714D01*
X102571276Y-80112713D01*
X102445838Y-80016462D01*
X102299766Y-79955957D01*
X102299758Y-79955955D01*
X102143001Y-79935318D01*
X102142999Y-79935318D01*
X101986241Y-79955955D01*
X101986233Y-79955957D01*
X101840161Y-80016462D01*
X101840160Y-80016462D01*
X101714723Y-80112713D01*
X101714713Y-80112723D01*
X101618462Y-80238160D01*
X101618462Y-80238161D01*
X101557957Y-80384233D01*
X101557955Y-80384241D01*
X101537318Y-80540999D01*
X101537318Y-80541000D01*
X101557955Y-80697758D01*
X101557957Y-80697766D01*
X101618462Y-80843838D01*
X101618462Y-80843839D01*
X101691031Y-80938413D01*
X101714718Y-80969282D01*
X101840159Y-81065536D01*
X101840160Y-81065536D01*
X101840161Y-81065537D01*
X101986233Y-81126042D01*
X101986238Y-81126044D01*
X102143000Y-81146682D01*
X102149433Y-81147529D01*
X102149205Y-81149256D01*
X102199472Y-81165589D01*
X102211285Y-81175678D01*
X102338904Y-81303297D01*
X102366681Y-81357814D01*
X102367900Y-81373301D01*
X102367900Y-82566494D01*
X102348993Y-82624685D01*
X102299493Y-82660649D01*
X102255979Y-82664647D01*
X102168402Y-82653118D01*
X102168399Y-82653118D01*
X102011641Y-82673755D01*
X102011633Y-82673757D01*
X101865561Y-82734262D01*
X101865560Y-82734262D01*
X101740123Y-82830513D01*
X101740113Y-82830523D01*
X101643862Y-82955960D01*
X101643862Y-82955961D01*
X101583357Y-83102033D01*
X101583355Y-83102041D01*
X101562718Y-83258799D01*
X101562718Y-83258800D01*
X101583355Y-83415558D01*
X101583357Y-83415566D01*
X101643862Y-83561638D01*
X101643862Y-83561639D01*
X101744068Y-83692231D01*
X101742683Y-83693293D01*
X101766679Y-83740369D01*
X101767900Y-83755871D01*
X101767900Y-106040673D01*
X101767900Y-106146127D01*
X101791970Y-106235959D01*
X101795194Y-106247992D01*
X101847916Y-106339308D01*
X101847918Y-106339310D01*
X101847920Y-106339313D01*
X105199087Y-109690480D01*
X105199089Y-109690481D01*
X105199091Y-109690483D01*
X105258756Y-109724931D01*
X105299697Y-109770400D01*
X105306093Y-109831251D01*
X105275954Y-109883827D01*
X105263238Y-109895419D01*
X105140328Y-110058177D01*
X105140323Y-110058186D01*
X105050040Y-110239500D01*
X105049418Y-110240750D01*
X104993603Y-110436917D01*
X104978964Y-110594907D01*
X104974451Y-110643607D01*
X104950255Y-110699805D01*
X104897648Y-110731048D01*
X104836723Y-110725402D01*
X104805869Y-110704476D01*
X102691145Y-108589752D01*
X102663368Y-108535235D01*
X102662996Y-108532670D01*
X102662881Y-108531802D01*
X102662882Y-108531800D01*
X102642244Y-108375038D01*
X102581737Y-108228961D01*
X102581737Y-108228960D01*
X102485486Y-108103523D01*
X102485485Y-108103522D01*
X102485482Y-108103518D01*
X102485477Y-108103514D01*
X102485476Y-108103513D01*
X102396869Y-108035523D01*
X102360041Y-108007264D01*
X102360040Y-108007263D01*
X102360038Y-108007262D01*
X102213966Y-107946757D01*
X102213958Y-107946755D01*
X102057201Y-107926118D01*
X102057199Y-107926118D01*
X101900441Y-107946755D01*
X101900433Y-107946757D01*
X101754361Y-108007262D01*
X101754360Y-108007262D01*
X101628923Y-108103513D01*
X101628913Y-108103523D01*
X101532662Y-108228960D01*
X101532662Y-108228961D01*
X101472157Y-108375033D01*
X101472155Y-108375041D01*
X101451518Y-108531799D01*
X101075500Y-108531799D01*
X101075500Y-71901001D01*
X107990001Y-71901001D01*
X107990001Y-71937654D01*
X108000317Y-72038642D01*
X108000320Y-72038654D01*
X108054548Y-72202306D01*
X108145053Y-72349035D01*
X108266964Y-72470946D01*
X108413693Y-72561451D01*
X108577351Y-72615681D01*
X108678345Y-72625999D01*
X108727500Y-72625998D01*
X108727500Y-71901001D01*
X108727499Y-71901000D01*
X107990002Y-71901000D01*
X107990001Y-71901001D01*
X101075500Y-71901001D01*
X101075500Y-71364344D01*
X107990000Y-71364344D01*
X107990000Y-71400999D01*
X107990001Y-71401000D01*
X108727499Y-71401000D01*
X108727500Y-71400999D01*
X108727500Y-70675999D01*
X108678347Y-70676000D01*
X108678344Y-70676001D01*
X108577357Y-70686317D01*
X108577345Y-70686320D01*
X108413693Y-70740548D01*
X108266964Y-70831053D01*
X108145053Y-70952964D01*
X108054548Y-71099693D01*
X108000318Y-71263351D01*
X107990000Y-71364344D01*
X101075500Y-71364344D01*
X101075500Y-71273891D01*
X101075805Y-71266124D01*
X101078090Y-71237084D01*
X101089595Y-71090900D01*
X101092022Y-71075571D01*
X101132146Y-70908445D01*
X101136942Y-70893686D01*
X101202718Y-70734890D01*
X101209755Y-70721078D01*
X101299564Y-70574523D01*
X101308684Y-70561971D01*
X101420309Y-70431275D01*
X101431275Y-70420309D01*
X101561971Y-70308684D01*
X101574523Y-70299564D01*
X101721078Y-70209755D01*
X101734890Y-70202718D01*
X101893686Y-70136942D01*
X101908445Y-70132146D01*
X102075571Y-70092022D01*
X102090900Y-70089595D01*
X102266125Y-70075805D01*
X102273892Y-70075500D01*
X102294531Y-70075500D01*
X125105469Y-70075500D01*
X125126108Y-70075500D01*
X125133875Y-70075805D01*
G37*
G04 #@! TD.AperFunction*
M02*
