G04 #@! TF.GenerationSoftware,KiCad,Pcbnew,8.0.4+dfsg-1*
G04 #@! TF.CreationDate,2025-02-16T13:52:07+09:00*
G04 #@! TF.ProjectId,bionic-p8080,62696f6e-6963-42d7-9038-3038302e6b69,1*
G04 #@! TF.SameCoordinates,Original*
G04 #@! TF.FileFunction,Copper,L1,Top*
G04 #@! TF.FilePolarity,Positive*
%FSLAX46Y46*%
G04 Gerber Fmt 4.6, Leading zero omitted, Abs format (unit mm)*
G04 Created by KiCad (PCBNEW 8.0.4+dfsg-1) date 2025-02-16 13:52:07*
%MOMM*%
%LPD*%
G01*
G04 APERTURE LIST*
G04 Aperture macros list*
%AMRoundRect*
0 Rectangle with rounded corners*
0 $1 Rounding radius*
0 $2 $3 $4 $5 $6 $7 $8 $9 X,Y pos of 4 corners*
0 Add a 4 corners polygon primitive as box body*
4,1,4,$2,$3,$4,$5,$6,$7,$8,$9,$2,$3,0*
0 Add four circle primitives for the rounded corners*
1,1,$1+$1,$2,$3*
1,1,$1+$1,$4,$5*
1,1,$1+$1,$6,$7*
1,1,$1+$1,$8,$9*
0 Add four rect primitives between the rounded corners*
20,1,$1+$1,$2,$3,$4,$5,0*
20,1,$1+$1,$4,$5,$6,$7,0*
20,1,$1+$1,$6,$7,$8,$9,0*
20,1,$1+$1,$8,$9,$2,$3,0*%
%AMFreePoly0*
4,1,13,0.500000,1.050000,1.000000,0.350000,1.000000,-0.450000,0.500000,-1.150000,0.500000,-2.750000,-0.500000,-2.750000,-0.500000,-1.150000,-1.000000,-0.450000,-1.000000,0.350000,-0.500000,1.050000,-0.500000,2.750000,0.500000,2.750000,0.500000,1.050000,0.500000,1.050000,$1*%
G04 Aperture macros list end*
G04 #@! TA.AperFunction,SMDPad,CuDef*
%ADD10R,0.355600X0.990600*%
G04 #@! TD*
G04 #@! TA.AperFunction,SMDPad,CuDef*
%ADD11R,0.762000X1.041400*%
G04 #@! TD*
G04 #@! TA.AperFunction,SMDPad,CuDef*
%ADD12RoundRect,0.250000X1.100000X-0.412500X1.100000X0.412500X-1.100000X0.412500X-1.100000X-0.412500X0*%
G04 #@! TD*
G04 #@! TA.AperFunction,SMDPad,CuDef*
%ADD13RoundRect,0.237500X-0.250000X-0.237500X0.250000X-0.237500X0.250000X0.237500X-0.250000X0.237500X0*%
G04 #@! TD*
G04 #@! TA.AperFunction,SMDPad,CuDef*
%ADD14RoundRect,0.237500X0.250000X0.237500X-0.250000X0.237500X-0.250000X-0.237500X0.250000X-0.237500X0*%
G04 #@! TD*
G04 #@! TA.AperFunction,ComponentPad*
%ADD15R,1.600000X1.600000*%
G04 #@! TD*
G04 #@! TA.AperFunction,ComponentPad*
%ADD16O,1.600000X1.600000*%
G04 #@! TD*
G04 #@! TA.AperFunction,SMDPad,CuDef*
%ADD17RoundRect,0.237500X-0.237500X0.300000X-0.237500X-0.300000X0.237500X-0.300000X0.237500X0.300000X0*%
G04 #@! TD*
G04 #@! TA.AperFunction,SMDPad,CuDef*
%ADD18R,0.700000X1.600000*%
G04 #@! TD*
G04 #@! TA.AperFunction,SMDPad,CuDef*
%ADD19FreePoly0,180.000000*%
G04 #@! TD*
G04 #@! TA.AperFunction,SMDPad,CuDef*
%ADD20R,0.700000X1.700000*%
G04 #@! TD*
G04 #@! TA.AperFunction,SMDPad,CuDef*
%ADD21R,0.355600X1.206500*%
G04 #@! TD*
G04 #@! TA.AperFunction,SMDPad,CuDef*
%ADD22R,1.371600X2.743200*%
G04 #@! TD*
G04 #@! TA.AperFunction,SMDPad,CuDef*
%ADD23R,0.965200X0.762000*%
G04 #@! TD*
G04 #@! TA.AperFunction,SMDPad,CuDef*
%ADD24R,0.660400X1.625600*%
G04 #@! TD*
G04 #@! TA.AperFunction,SMDPad,CuDef*
%ADD25RoundRect,0.237500X-0.300000X-0.237500X0.300000X-0.237500X0.300000X0.237500X-0.300000X0.237500X0*%
G04 #@! TD*
G04 #@! TA.AperFunction,SMDPad,CuDef*
%ADD26RoundRect,0.237500X0.237500X-0.300000X0.237500X0.300000X-0.237500X0.300000X-0.237500X-0.300000X0*%
G04 #@! TD*
G04 #@! TA.AperFunction,SMDPad,CuDef*
%ADD27R,1.041400X0.762000*%
G04 #@! TD*
G04 #@! TA.AperFunction,ComponentPad*
%ADD28R,1.700000X1.700000*%
G04 #@! TD*
G04 #@! TA.AperFunction,ComponentPad*
%ADD29O,1.700000X1.700000*%
G04 #@! TD*
G04 #@! TA.AperFunction,ViaPad*
%ADD30C,0.600000*%
G04 #@! TD*
G04 #@! TA.AperFunction,Conductor*
%ADD31C,0.600000*%
G04 #@! TD*
G04 #@! TA.AperFunction,Conductor*
%ADD32C,0.200000*%
G04 #@! TD*
G04 #@! TA.AperFunction,Conductor*
%ADD33C,0.320000*%
G04 #@! TD*
G04 #@! TA.AperFunction,Conductor*
%ADD34C,0.300000*%
G04 #@! TD*
G04 APERTURE END LIST*
D10*
X113050001Y-118336200D03*
X113700000Y-118336200D03*
X114349999Y-118336200D03*
X114349999Y-115999400D03*
X113700000Y-115999400D03*
X113050001Y-115999400D03*
D11*
X102181100Y-128064400D03*
X105660900Y-128064400D03*
D12*
X124647400Y-118501700D03*
X124647400Y-115376700D03*
D13*
X116597500Y-71778000D03*
X118422500Y-71778000D03*
D14*
X114587100Y-120266600D03*
X112762100Y-120266600D03*
D15*
X106080000Y-75080000D03*
D16*
X106080000Y-77620000D03*
X106080000Y-80160000D03*
X106080000Y-82700000D03*
X106080000Y-85240000D03*
X106080000Y-87780000D03*
X106080000Y-90320000D03*
X106080000Y-92860000D03*
X106080000Y-95400000D03*
X106080000Y-97940000D03*
X106080000Y-100480000D03*
X106080000Y-103020000D03*
X106080000Y-105560000D03*
X106080000Y-108100000D03*
X106080000Y-110640000D03*
X106080000Y-113180000D03*
X106080000Y-115720000D03*
X106080000Y-118260000D03*
X106080000Y-120800000D03*
X106080000Y-123340000D03*
X121320000Y-123340000D03*
X121320000Y-120800000D03*
X121320000Y-118260000D03*
X121320000Y-115720000D03*
X121320000Y-113180000D03*
X121320000Y-110640000D03*
X121320000Y-108100000D03*
X121320000Y-105560000D03*
X121320000Y-103020000D03*
X121320000Y-100480000D03*
X121320000Y-97940000D03*
X121320000Y-95400000D03*
X121320000Y-92860000D03*
X121320000Y-90320000D03*
X121320000Y-87780000D03*
X121320000Y-85240000D03*
X121320000Y-82700000D03*
X121320000Y-80160000D03*
X121320000Y-77620000D03*
X121320000Y-75080000D03*
D17*
X106842000Y-133500000D03*
X106842000Y-135225000D03*
D18*
X124850600Y-130437400D03*
D19*
X123350600Y-132387400D03*
D18*
X121850600Y-130437400D03*
D20*
X121850600Y-134287400D03*
X124850600Y-134287400D03*
D21*
X102860002Y-135278000D03*
X103510000Y-135278000D03*
X104160002Y-135278000D03*
X104810000Y-135278000D03*
X104810000Y-131074300D03*
X104160002Y-131074300D03*
X103510000Y-131074300D03*
X102860002Y-131074300D03*
D22*
X121497800Y-127277000D03*
X124647400Y-127277000D03*
D23*
X114576300Y-71778000D03*
X112823700Y-71778000D03*
D24*
X114650001Y-128447000D03*
X112749999Y-128447000D03*
X113700000Y-130579000D03*
D17*
X106842000Y-130072100D03*
X106842000Y-131797100D03*
X119745200Y-131646900D03*
X119745200Y-133371900D03*
D25*
X103083900Y-137360800D03*
X104808900Y-137360800D03*
D13*
X112812900Y-114069000D03*
X114637900Y-114069000D03*
D26*
X103616200Y-121636000D03*
X103616200Y-119911000D03*
D27*
X124647400Y-120825400D03*
X124647400Y-124305200D03*
D17*
X103616200Y-123340000D03*
X103616200Y-125065000D03*
D28*
X109890000Y-75080000D03*
D29*
X109890000Y-77620000D03*
X109890000Y-80160000D03*
X109890000Y-82700000D03*
X109890000Y-85240000D03*
X109890000Y-87780000D03*
X109890000Y-90320000D03*
X109890000Y-92860000D03*
X109890000Y-95400000D03*
X109890000Y-97940000D03*
X109890000Y-100480000D03*
X109890000Y-103020000D03*
X109890000Y-105560000D03*
X109890000Y-108100000D03*
X109890000Y-110640000D03*
X109890000Y-113180000D03*
X109890000Y-115720000D03*
X109890000Y-118260000D03*
X109890000Y-120800000D03*
X109890000Y-123340000D03*
X109890000Y-125880000D03*
X109890000Y-128420000D03*
X109890000Y-130960000D03*
X109890000Y-133500000D03*
X117510000Y-133500000D03*
X117510000Y-130960000D03*
X117510000Y-128420000D03*
X117510000Y-125880000D03*
X117510000Y-123340000D03*
X117510000Y-120800000D03*
X117510000Y-118260000D03*
X117510000Y-115720000D03*
X117510000Y-113180000D03*
X117510000Y-110640000D03*
X117510000Y-108100000D03*
X117510000Y-105560000D03*
X117510000Y-103020000D03*
X117510000Y-100480000D03*
X117510000Y-97940000D03*
X117510000Y-95400000D03*
X117510000Y-92860000D03*
X117510000Y-90320000D03*
X117510000Y-87780000D03*
X117510000Y-85240000D03*
X117510000Y-82700000D03*
X117510000Y-80160000D03*
X117510000Y-77620000D03*
D28*
X117510000Y-75080000D03*
D30*
X116240000Y-124610000D03*
X125714200Y-113535600D03*
X121396200Y-132407800D03*
X125409400Y-132357000D03*
X113928600Y-134998600D03*
X104149600Y-134084200D03*
X112684000Y-122777756D03*
X115706600Y-117853600D03*
X113700000Y-132280800D03*
X105927600Y-131823600D03*
X112995000Y-107846000D03*
X112395000Y-111021000D03*
X115630400Y-121689000D03*
X124647400Y-119682400D03*
X121853400Y-129309000D03*
X114335000Y-97178000D03*
X114878000Y-94257000D03*
X104241200Y-116990000D03*
X102193800Y-126108600D03*
X104581400Y-132433200D03*
X102854200Y-134262000D03*
X111541000Y-119530000D03*
D31*
X117510000Y-133500000D02*
X119719800Y-131290200D01*
X119719800Y-131290200D02*
X119719800Y-129055000D01*
X119719800Y-129055000D02*
X121497800Y-127277000D01*
X120507200Y-136497200D02*
X121853400Y-136497200D01*
X121853400Y-136497200D02*
X123709800Y-136497200D01*
D32*
X121850600Y-134287400D02*
X121850600Y-136494400D01*
X121850600Y-136494400D02*
X121853400Y-136497200D01*
D31*
X117510000Y-133500000D02*
X120507200Y-136497200D01*
D32*
X105954100Y-131797100D02*
X106842000Y-131797100D01*
X105927600Y-131823600D02*
X105954100Y-131797100D01*
X103510000Y-130050200D02*
X103514600Y-130045600D01*
X103510000Y-131074300D02*
X103510000Y-130050200D01*
X113700000Y-115999400D02*
X113700000Y-116507400D01*
X113700000Y-116507400D02*
X114309600Y-117117000D01*
X114309600Y-117117000D02*
X114970000Y-117117000D01*
X114970000Y-117117000D02*
X115706600Y-117853600D01*
X112684000Y-128381001D02*
X112749999Y-128447000D01*
X112684000Y-122777756D02*
X112684000Y-128381001D01*
X115630400Y-124000400D02*
X116240000Y-124610000D01*
X115046200Y-120266600D02*
X114587100Y-120266600D01*
X115630400Y-121689000D02*
X115630400Y-124000400D01*
X115630400Y-121689000D02*
X115630400Y-120850800D01*
X115630400Y-120850800D02*
X115046200Y-120266600D01*
X121320000Y-118260000D02*
X119542000Y-120038000D01*
X119542000Y-120038000D02*
X119542000Y-121308000D01*
X119542000Y-121308000D02*
X117510000Y-123340000D01*
X117510000Y-125880000D02*
X119542000Y-123848000D01*
X119542000Y-123848000D02*
X119542000Y-123213000D01*
X119542000Y-123213000D02*
X120685000Y-122070000D01*
X120685000Y-122070000D02*
X121828000Y-122070000D01*
X121828000Y-122070000D02*
X122590000Y-121308000D01*
X122590000Y-116990000D02*
X121320000Y-115720000D01*
X122590000Y-121308000D02*
X122590000Y-116990000D01*
X111541000Y-119530000D02*
X112277600Y-120266600D01*
X112277600Y-120266600D02*
X112762100Y-120266600D01*
X112995000Y-107846000D02*
X112995000Y-108043000D01*
X112995000Y-108043000D02*
X110398000Y-110640000D01*
X110398000Y-110640000D02*
X109890000Y-110640000D01*
X106080000Y-118260000D02*
X108220000Y-116120000D01*
X108220000Y-112945000D02*
X109255000Y-111910000D01*
X113595000Y-108840000D02*
X113595000Y-106935000D01*
X113595000Y-106935000D02*
X117510000Y-103020000D01*
X108220000Y-116120000D02*
X108220000Y-112945000D01*
X110525000Y-111910000D02*
X113595000Y-108840000D01*
X109255000Y-111910000D02*
X110525000Y-111910000D01*
X117510000Y-105560000D02*
X113192000Y-109878000D01*
X113192000Y-111744346D02*
X110486346Y-114450000D01*
X113192000Y-109878000D02*
X113192000Y-111744346D01*
X110486346Y-114450000D02*
X109533654Y-114450000D01*
X109533654Y-114450000D02*
X108620000Y-115363654D01*
X108620000Y-115363654D02*
X108620000Y-118260000D01*
X108620000Y-118260000D02*
X106080000Y-120800000D01*
X112395000Y-111021000D02*
X112176000Y-111021000D01*
X112176000Y-111021000D02*
X110017000Y-113180000D01*
X110017000Y-113180000D02*
X109890000Y-113180000D01*
X114335000Y-98575000D02*
X109890000Y-103020000D01*
X114335000Y-97178000D02*
X114335000Y-98575000D01*
X114878000Y-95492000D02*
X109890000Y-100480000D01*
X114878000Y-94257000D02*
X114878000Y-95492000D01*
X104241200Y-116990000D02*
X104241200Y-109938800D01*
X104241200Y-109938800D02*
X106080000Y-108100000D01*
X117510000Y-100480000D02*
X112846000Y-105144000D01*
X107820000Y-113980000D02*
X106080000Y-115720000D01*
X112846000Y-105144000D02*
X112846000Y-106965471D01*
X112846000Y-106965471D02*
X112595000Y-107216471D01*
X112595000Y-107216471D02*
X112595000Y-107236500D01*
X112595000Y-107236500D02*
X110461500Y-109370000D01*
X110461500Y-109370000D02*
X109255000Y-109370000D01*
X109255000Y-109370000D02*
X107820000Y-110805000D01*
X107820000Y-110805000D02*
X107820000Y-113980000D01*
X109890000Y-108100000D02*
X112303000Y-105687000D01*
X112303000Y-105687000D02*
X112303000Y-101496000D01*
X115478000Y-77874000D02*
X117002000Y-76350000D01*
X120050000Y-76350000D02*
X121320000Y-75080000D01*
X112303000Y-101496000D02*
X115478000Y-98321000D01*
X115478000Y-98321000D02*
X115478000Y-77874000D01*
X117002000Y-76350000D02*
X120050000Y-76350000D01*
X109890000Y-77620000D02*
X108620000Y-78890000D01*
X108620000Y-78890000D02*
X105445000Y-78890000D01*
X105445000Y-78890000D02*
X103552800Y-80782200D01*
X103552800Y-80782200D02*
X103552800Y-95412800D01*
X103552800Y-95412800D02*
X106080000Y-97940000D01*
X117510000Y-92860000D02*
X118145000Y-92860000D01*
X118145000Y-92860000D02*
X120685000Y-95400000D01*
X120685000Y-95400000D02*
X121320000Y-95400000D01*
X117510000Y-77620000D02*
X118780000Y-78890000D01*
X125098000Y-82033000D02*
X125098000Y-109402000D01*
X118780000Y-78890000D02*
X121955000Y-78890000D01*
X121955000Y-78890000D02*
X125098000Y-82033000D01*
X125098000Y-109402000D02*
X121320000Y-113180000D01*
X117510000Y-80160000D02*
X119542000Y-80160000D01*
X119542000Y-80160000D02*
X120812000Y-81430000D01*
X120812000Y-81430000D02*
X121828000Y-81430000D01*
X121828000Y-81430000D02*
X124698000Y-84300000D01*
X124698000Y-84300000D02*
X124698000Y-107262000D01*
X124698000Y-107262000D02*
X121320000Y-110640000D01*
X121320000Y-108100000D02*
X124298000Y-105122000D01*
X124298000Y-105122000D02*
X124298000Y-86395500D01*
X124298000Y-86395500D02*
X121872500Y-83970000D01*
X121872500Y-83970000D02*
X120685000Y-83970000D01*
X120685000Y-83970000D02*
X119415000Y-82700000D01*
X119415000Y-82700000D02*
X117510000Y-82700000D01*
X117510000Y-85240000D02*
X119542000Y-85240000D01*
X119542000Y-85240000D02*
X120812000Y-86510000D01*
X123898000Y-100442000D02*
X121320000Y-103020000D01*
X120812000Y-86510000D02*
X121828000Y-86510000D01*
X123898000Y-88580000D02*
X123898000Y-100442000D01*
X121828000Y-86510000D02*
X123898000Y-88580000D01*
X121320000Y-100480000D02*
X123498000Y-98302000D01*
X123498000Y-98302000D02*
X123498000Y-90593000D01*
X123498000Y-90593000D02*
X121955000Y-89050000D01*
X121955000Y-89050000D02*
X118780000Y-89050000D01*
X118780000Y-89050000D02*
X117510000Y-87780000D01*
X117510000Y-90320000D02*
X119542000Y-90320000D01*
X119542000Y-90320000D02*
X120812000Y-91590000D01*
X120812000Y-91590000D02*
X121971000Y-91590000D01*
X121971000Y-91590000D02*
X123098000Y-92717000D01*
X123098000Y-92717000D02*
X123098000Y-96162000D01*
X123098000Y-96162000D02*
X121320000Y-97940000D01*
D33*
X103590800Y-132458600D02*
X102832200Y-131700000D01*
D32*
X104160002Y-131889398D02*
X103590800Y-132458600D01*
X113700000Y-114956100D02*
X113700000Y-115999400D01*
X104378200Y-71778000D02*
X101584200Y-74572000D01*
X112749999Y-133489799D02*
X112760200Y-133500000D01*
X112812900Y-114069000D02*
X113700000Y-114956100D01*
X101584200Y-121993800D02*
X102930400Y-123340000D01*
D31*
X106080000Y-123340000D02*
X103616200Y-123340000D01*
D32*
X112823700Y-71778000D02*
X104378200Y-71778000D01*
D33*
X109890000Y-133500000D02*
X106842000Y-133500000D01*
D31*
X103616200Y-123340000D02*
X103616200Y-121636000D01*
X112760200Y-133500000D02*
X109890000Y-133500000D01*
D33*
X102832200Y-131700000D02*
X102832200Y-131074300D01*
D31*
X107985000Y-131645800D02*
X107985000Y-127378600D01*
D32*
X104160002Y-131074300D02*
X104160002Y-131889398D01*
D33*
X106842000Y-133500000D02*
X104632200Y-133500000D01*
D32*
X101584200Y-74572000D02*
X101584200Y-121993800D01*
X112749999Y-128447000D02*
X112749999Y-133489799D01*
D31*
X117510000Y-133500000D02*
X112760200Y-133500000D01*
D32*
X102930400Y-123340000D02*
X103616200Y-123340000D01*
D31*
X109839200Y-133500000D02*
X107985000Y-131645800D01*
D33*
X104632200Y-133500000D02*
X103590800Y-132458600D01*
D31*
X106080000Y-125473600D02*
X106080000Y-123340000D01*
X109890000Y-133500000D02*
X109839200Y-133500000D01*
X107985000Y-127378600D02*
X106080000Y-125473600D01*
D32*
X117510000Y-118260000D02*
X115249400Y-115999400D01*
X114360400Y-114346500D02*
X114360400Y-115988999D01*
X115249400Y-115999400D02*
X114349999Y-115999400D01*
X114637900Y-114069000D02*
X114360400Y-114346500D01*
X114360400Y-115988999D02*
X114349999Y-115999400D01*
X109890000Y-85240000D02*
X107908800Y-87221200D01*
X107908800Y-87221200D02*
X107908800Y-88491200D01*
X107908800Y-88491200D02*
X106080000Y-90320000D01*
X104352800Y-91132800D02*
X106080000Y-92860000D01*
X105648200Y-83970000D02*
X104352800Y-85265400D01*
X106588000Y-83970000D02*
X105648200Y-83970000D01*
X104352800Y-85265400D02*
X104352800Y-91132800D01*
X109890000Y-82700000D02*
X107858000Y-82700000D01*
X107858000Y-82700000D02*
X106588000Y-83970000D01*
X103952800Y-93272800D02*
X106080000Y-95400000D01*
X106588000Y-81430000D02*
X105495800Y-81430000D01*
X103952800Y-82973000D02*
X103952800Y-93272800D01*
X107858000Y-80160000D02*
X106588000Y-81430000D01*
X109890000Y-80160000D02*
X107858000Y-80160000D01*
X105495800Y-81430000D02*
X103952800Y-82973000D01*
D31*
X124647400Y-118501700D02*
X124647400Y-119682400D01*
X124647400Y-119682400D02*
X124647400Y-120825400D01*
D32*
X114587100Y-120266600D02*
X113700000Y-119379500D01*
X113700000Y-119379500D02*
X113700000Y-118336200D01*
X121853400Y-129309000D02*
X121853400Y-130434600D01*
X121853400Y-130434600D02*
X121850600Y-130437400D01*
X116597500Y-71778000D02*
X114576300Y-71778000D01*
X116392400Y-130960000D02*
X117510000Y-130960000D01*
X114650001Y-128447000D02*
X114650001Y-129217601D01*
X114650001Y-129217601D02*
X116392400Y-130960000D01*
D34*
X105839800Y-131074300D02*
X106816600Y-130097500D01*
D32*
X104810000Y-132204600D02*
X104581400Y-132433200D01*
D34*
X104525800Y-126108600D02*
X102193800Y-126108600D01*
X104810000Y-131074300D02*
X105839800Y-131074300D01*
X106816600Y-129220100D02*
X105660900Y-128064400D01*
D32*
X102854200Y-135272198D02*
X102860002Y-135278000D01*
D34*
X105660900Y-128064400D02*
X105660900Y-127243700D01*
X106816600Y-130097500D02*
X106816600Y-129220100D01*
X105660900Y-127243700D02*
X104525800Y-126108600D01*
D32*
X102854200Y-134262000D02*
X102854200Y-135272198D01*
X104810000Y-131074300D02*
X104810000Y-132204600D01*
D31*
X124850600Y-127480200D02*
X124647400Y-127277000D01*
X124850600Y-130437400D02*
X124850600Y-127480200D01*
X124647400Y-127277000D02*
X124647400Y-124305200D01*
D32*
X113050001Y-118336200D02*
X113050001Y-119978699D01*
X113050001Y-119978699D02*
X112762100Y-120266600D01*
X114349999Y-117868599D02*
X114349999Y-118336200D01*
X113050001Y-116568601D02*
X114349999Y-117868599D01*
X113050001Y-115999400D02*
X113050001Y-116568601D01*
X104810000Y-135278000D02*
X104810000Y-137359700D01*
X104810000Y-137359700D02*
X104808900Y-137360800D01*
X103082800Y-136624200D02*
X103082800Y-137359700D01*
X103510000Y-135278000D02*
X103510000Y-136197000D01*
X103510000Y-136197000D02*
X103082800Y-136624200D01*
X103082800Y-137359700D02*
X103083900Y-137360800D01*
D31*
X123709800Y-136497200D02*
X124855600Y-135351400D01*
X124855600Y-135351400D02*
X124855600Y-134287400D01*
G04 #@! TA.AperFunction,Conductor*
G36*
X126258015Y-119265133D02*
G01*
X126306768Y-119302103D01*
X126324500Y-119358641D01*
X126324500Y-137306108D01*
X126324195Y-137313876D01*
X126310405Y-137489092D01*
X126307975Y-137504435D01*
X126267855Y-137671546D01*
X126263054Y-137686321D01*
X126197287Y-137845097D01*
X126190234Y-137858939D01*
X126100442Y-138005465D01*
X126091311Y-138018032D01*
X125979699Y-138148714D01*
X125968714Y-138159699D01*
X125838032Y-138271311D01*
X125825465Y-138280442D01*
X125678939Y-138370234D01*
X125665097Y-138377287D01*
X125506321Y-138443054D01*
X125491546Y-138447855D01*
X125324435Y-138487975D01*
X125309092Y-138490405D01*
X125149743Y-138502946D01*
X125133874Y-138504195D01*
X125126108Y-138504500D01*
X102273892Y-138504500D01*
X102266125Y-138504195D01*
X102247014Y-138502691D01*
X102090907Y-138490405D01*
X102075564Y-138487975D01*
X101908453Y-138447855D01*
X101893678Y-138443054D01*
X101734902Y-138377287D01*
X101721068Y-138370238D01*
X101574532Y-138280440D01*
X101561967Y-138271311D01*
X101462706Y-138186535D01*
X101431282Y-138159696D01*
X101420303Y-138148717D01*
X101308688Y-138018032D01*
X101299560Y-138005469D01*
X101209758Y-137858926D01*
X101202715Y-137845104D01*
X101136943Y-137686317D01*
X101132144Y-137671546D01*
X101124671Y-137640420D01*
X101092023Y-137504430D01*
X101089594Y-137489097D01*
X101075805Y-137313875D01*
X101075500Y-137306108D01*
X101075500Y-137081179D01*
X102245900Y-137081179D01*
X102245900Y-137640420D01*
X102256283Y-137726879D01*
X102301223Y-137840838D01*
X102310538Y-137864458D01*
X102399900Y-137982300D01*
X102517742Y-138071662D01*
X102655323Y-138125917D01*
X102741782Y-138136300D01*
X102741784Y-138136300D01*
X103426016Y-138136300D01*
X103426018Y-138136300D01*
X103512477Y-138125917D01*
X103650058Y-138071662D01*
X103767900Y-137982300D01*
X103857262Y-137864458D01*
X103857265Y-137864450D01*
X103860102Y-137859405D01*
X103905100Y-137817946D01*
X103965873Y-137810854D01*
X104019208Y-137840838D01*
X104032698Y-137859405D01*
X104035537Y-137864456D01*
X104035538Y-137864458D01*
X104124900Y-137982300D01*
X104242742Y-138071662D01*
X104380323Y-138125917D01*
X104466782Y-138136300D01*
X104466784Y-138136300D01*
X105151016Y-138136300D01*
X105151018Y-138136300D01*
X105237477Y-138125917D01*
X105375058Y-138071662D01*
X105492900Y-137982300D01*
X105582262Y-137864458D01*
X105636517Y-137726877D01*
X105646900Y-137640418D01*
X105646900Y-137081182D01*
X105636517Y-136994723D01*
X105629813Y-136977724D01*
X105591575Y-136880759D01*
X105582262Y-136857142D01*
X105492900Y-136739300D01*
X105489100Y-136736418D01*
X105375058Y-136649937D01*
X105273181Y-136609762D01*
X105225984Y-136570825D01*
X105210500Y-136517665D01*
X105210500Y-136124528D01*
X105229407Y-136066337D01*
X105239490Y-136054530D01*
X105240006Y-136054015D01*
X105285385Y-135951241D01*
X105288300Y-135926115D01*
X105288300Y-135475001D01*
X105867001Y-135475001D01*
X105867001Y-135574154D01*
X105877317Y-135675142D01*
X105877320Y-135675154D01*
X105931548Y-135838806D01*
X106022053Y-135985535D01*
X106143964Y-136107446D01*
X106290693Y-136197951D01*
X106454351Y-136252181D01*
X106555344Y-136262499D01*
X106591999Y-136262499D01*
X106592000Y-136262498D01*
X106592000Y-135475001D01*
X107092000Y-135475001D01*
X107092000Y-136262498D01*
X107092001Y-136262499D01*
X107128654Y-136262499D01*
X107229642Y-136252182D01*
X107229654Y-136252179D01*
X107393306Y-136197951D01*
X107540035Y-136107446D01*
X107661946Y-135985535D01*
X107752451Y-135838806D01*
X107806681Y-135675148D01*
X107817000Y-135574155D01*
X107817000Y-135475001D01*
X107816999Y-135475000D01*
X107092001Y-135475000D01*
X107092000Y-135475001D01*
X106592000Y-135475001D01*
X106591999Y-135475000D01*
X105867002Y-135475000D01*
X105867001Y-135475001D01*
X105288300Y-135475001D01*
X105288299Y-134629886D01*
X105285385Y-134604759D01*
X105240006Y-134501985D01*
X105160565Y-134422544D01*
X105057791Y-134377165D01*
X105057790Y-134377164D01*
X105057788Y-134377164D01*
X105032669Y-134374250D01*
X104786984Y-134374250D01*
X104728793Y-134355343D01*
X104707731Y-134334580D01*
X104694991Y-134317562D01*
X104694986Y-134317557D01*
X104579892Y-134231397D01*
X104579890Y-134231396D01*
X104445183Y-134181153D01*
X104445172Y-134181151D01*
X104385626Y-134174750D01*
X104337803Y-134174750D01*
X104337802Y-134174751D01*
X104337802Y-134579817D01*
X104335458Y-134597361D01*
X104335473Y-134597363D01*
X104331700Y-134629880D01*
X104331700Y-135926110D01*
X104331701Y-135926113D01*
X104335473Y-135958641D01*
X104335458Y-135958642D01*
X104337802Y-135976182D01*
X104337802Y-136381249D01*
X104350943Y-136394390D01*
X104368691Y-136400157D01*
X104404655Y-136449657D01*
X104409500Y-136480250D01*
X104409500Y-136516798D01*
X104390593Y-136574989D01*
X104346819Y-136608895D01*
X104242741Y-136649938D01*
X104124903Y-136739297D01*
X104124897Y-136739303D01*
X104035538Y-136857141D01*
X104032696Y-136862197D01*
X103987697Y-136903654D01*
X103926924Y-136910744D01*
X103873590Y-136880759D01*
X103860104Y-136862197D01*
X103857261Y-136857141D01*
X103767902Y-136739303D01*
X103767900Y-136739300D01*
X103767895Y-136739296D01*
X103725395Y-136707067D01*
X103690453Y-136656841D01*
X103691707Y-136595668D01*
X103715212Y-136558180D01*
X103830480Y-136442913D01*
X103837843Y-136430158D01*
X103883310Y-136389219D01*
X103931702Y-136381619D01*
X103931730Y-136381108D01*
X103934135Y-136381236D01*
X103934186Y-136381229D01*
X103934381Y-136381250D01*
X103982201Y-136381250D01*
X103982202Y-136381249D01*
X103982202Y-135976166D01*
X103984544Y-135958639D01*
X103984527Y-135958638D01*
X103985415Y-135950981D01*
X103988300Y-135926115D01*
X103988299Y-134629886D01*
X103985385Y-134604759D01*
X103985384Y-134604758D01*
X103984527Y-134597361D01*
X103984543Y-134597359D01*
X103982202Y-134579832D01*
X103982202Y-134174751D01*
X103982201Y-134174750D01*
X103934378Y-134174750D01*
X103874831Y-134181151D01*
X103874820Y-134181153D01*
X103740113Y-134231396D01*
X103740111Y-134231397D01*
X103619345Y-134321804D01*
X103617949Y-134319939D01*
X103572974Y-134342844D01*
X103512543Y-134333261D01*
X103469287Y-134289987D01*
X103459353Y-134257982D01*
X103449238Y-134181151D01*
X103439244Y-134105238D01*
X103439061Y-134104796D01*
X103378737Y-133959161D01*
X103378737Y-133959160D01*
X103282486Y-133833723D01*
X103282485Y-133833722D01*
X103282482Y-133833718D01*
X103282477Y-133833714D01*
X103282476Y-133833713D01*
X103157038Y-133737462D01*
X103010966Y-133676957D01*
X103010958Y-133676955D01*
X102854201Y-133656318D01*
X102854199Y-133656318D01*
X102697441Y-133676955D01*
X102697433Y-133676957D01*
X102551361Y-133737462D01*
X102551360Y-133737462D01*
X102425923Y-133833713D01*
X102425913Y-133833723D01*
X102329662Y-133959160D01*
X102329662Y-133959161D01*
X102269157Y-134105233D01*
X102269155Y-134105241D01*
X102248518Y-134261999D01*
X102248518Y-134262000D01*
X102269155Y-134418758D01*
X102269157Y-134418766D01*
X102329662Y-134564838D01*
X102329663Y-134564840D01*
X102329664Y-134564841D01*
X102361244Y-134605997D01*
X102381668Y-134663672D01*
X102381702Y-134666264D01*
X102381702Y-135926110D01*
X102381703Y-135926113D01*
X102384616Y-135951240D01*
X102395622Y-135976166D01*
X102429996Y-136054015D01*
X102509437Y-136133456D01*
X102612211Y-136178835D01*
X102637337Y-136181750D01*
X102719851Y-136181749D01*
X102778040Y-136200656D01*
X102814004Y-136250155D01*
X102814005Y-136311341D01*
X102789855Y-136350751D01*
X102762321Y-136378285D01*
X102762316Y-136378291D01*
X102709593Y-136469611D01*
X102709592Y-136469612D01*
X102709593Y-136469613D01*
X102691143Y-136538471D01*
X102657819Y-136589785D01*
X102631835Y-136604945D01*
X102517741Y-136649938D01*
X102399903Y-136739297D01*
X102399897Y-136739303D01*
X102310538Y-136857141D01*
X102256283Y-136994720D01*
X102245900Y-137081179D01*
X101075500Y-137081179D01*
X101075500Y-128632924D01*
X101300099Y-128632924D01*
X101306501Y-128692470D01*
X101306503Y-128692481D01*
X101356746Y-128827188D01*
X101356747Y-128827190D01*
X101442907Y-128942284D01*
X101442915Y-128942292D01*
X101558009Y-129028452D01*
X101558011Y-129028453D01*
X101692718Y-129078696D01*
X101692729Y-129078698D01*
X101752276Y-129085100D01*
X101931099Y-129085100D01*
X101931100Y-129085099D01*
X101931100Y-128314401D01*
X101931099Y-128314400D01*
X101300101Y-128314400D01*
X101300100Y-128314401D01*
X101300100Y-128632924D01*
X101300099Y-128632924D01*
X101075500Y-128632924D01*
X101075500Y-127495875D01*
X101300100Y-127495875D01*
X101300100Y-127814399D01*
X101300101Y-127814400D01*
X101931099Y-127814400D01*
X101931100Y-127814399D01*
X101931100Y-127043701D01*
X101931099Y-127043700D01*
X101752276Y-127043700D01*
X101692729Y-127050101D01*
X101692718Y-127050103D01*
X101558011Y-127100346D01*
X101558009Y-127100347D01*
X101442915Y-127186507D01*
X101442907Y-127186515D01*
X101356747Y-127301609D01*
X101356746Y-127301611D01*
X101306503Y-127436318D01*
X101306501Y-127436329D01*
X101300100Y-127495875D01*
X101075500Y-127495875D01*
X101075500Y-122283179D01*
X101094407Y-122224988D01*
X101143907Y-122189024D01*
X101205093Y-122189024D01*
X101254593Y-122224988D01*
X101260232Y-122233672D01*
X101263720Y-122239713D01*
X102684487Y-123660480D01*
X102684489Y-123660481D01*
X102684491Y-123660483D01*
X102775808Y-123713205D01*
X102775809Y-123713205D01*
X102775812Y-123713207D01*
X102787383Y-123716307D01*
X102838698Y-123749630D01*
X102853858Y-123775615D01*
X102905338Y-123906158D01*
X102986363Y-124013007D01*
X103006458Y-124070798D01*
X102988747Y-124129364D01*
X102959453Y-124157086D01*
X102918162Y-124182555D01*
X102796253Y-124304464D01*
X102705748Y-124451193D01*
X102651518Y-124614851D01*
X102641200Y-124715844D01*
X102641200Y-124814999D01*
X102641201Y-124815000D01*
X104591198Y-124815000D01*
X104591199Y-124814999D01*
X104591199Y-124715845D01*
X104580882Y-124614857D01*
X104580879Y-124614845D01*
X104526651Y-124451193D01*
X104436146Y-124304464D01*
X104314238Y-124182556D01*
X104272946Y-124157087D01*
X104233345Y-124110445D01*
X104228722Y-124049435D01*
X104246035Y-124013007D01*
X104266963Y-123985411D01*
X104271310Y-123979679D01*
X104321537Y-123944738D01*
X104350192Y-123940500D01*
X105105137Y-123940500D01*
X105163328Y-123959407D01*
X105184138Y-123979836D01*
X105263236Y-124084579D01*
X105413959Y-124221981D01*
X105432617Y-124233533D01*
X105472137Y-124280239D01*
X105479500Y-124317704D01*
X105479500Y-125388463D01*
X105479499Y-125388481D01*
X105479499Y-125394543D01*
X105479499Y-125552657D01*
X105511628Y-125672561D01*
X105520423Y-125705385D01*
X105520424Y-125705387D01*
X105531985Y-125725410D01*
X105531986Y-125725413D01*
X105578375Y-125805761D01*
X105599480Y-125842316D01*
X105711284Y-125954120D01*
X105711286Y-125954121D01*
X107355504Y-127598339D01*
X107383281Y-127652856D01*
X107384500Y-127668343D01*
X107384500Y-128933258D01*
X107365593Y-128991449D01*
X107316093Y-129027413D01*
X107254907Y-129027413D01*
X107205407Y-128991449D01*
X107199763Y-128982757D01*
X107177092Y-128943489D01*
X107177091Y-128943488D01*
X107177090Y-128943486D01*
X106371394Y-128137791D01*
X106343618Y-128083275D01*
X106342399Y-128067788D01*
X106342399Y-127498839D01*
X106342399Y-127498836D01*
X106339485Y-127473709D01*
X106294106Y-127370935D01*
X106214665Y-127291494D01*
X106214663Y-127291493D01*
X106170410Y-127271953D01*
X106124816Y-127231152D01*
X106113885Y-127190609D01*
X106112247Y-127190825D01*
X106111400Y-127184393D01*
X106111400Y-127184391D01*
X106080699Y-127069814D01*
X106080699Y-127069813D01*
X106021390Y-126967086D01*
X104802414Y-125748111D01*
X104802411Y-125748109D01*
X104802410Y-125748108D01*
X104802409Y-125748107D01*
X104699692Y-125688803D01*
X104699689Y-125688802D01*
X104699687Y-125688801D01*
X104668027Y-125680318D01*
X104668024Y-125680317D01*
X104653510Y-125676428D01*
X104639076Y-125672560D01*
X104587763Y-125639236D01*
X104565837Y-125582115D01*
X104570727Y-125545792D01*
X104580881Y-125515150D01*
X104580881Y-125515148D01*
X104591200Y-125414155D01*
X104591200Y-125315001D01*
X104591199Y-125315000D01*
X102641202Y-125315000D01*
X102641201Y-125315001D01*
X102641201Y-125414146D01*
X102649032Y-125490810D01*
X102636135Y-125550621D01*
X102590546Y-125591428D01*
X102529678Y-125597646D01*
X102501039Y-125586604D01*
X102496634Y-125584060D01*
X102350566Y-125523557D01*
X102350558Y-125523555D01*
X102193801Y-125502918D01*
X102193799Y-125502918D01*
X102037041Y-125523555D01*
X102037033Y-125523557D01*
X101890961Y-125584062D01*
X101890960Y-125584062D01*
X101765523Y-125680313D01*
X101765513Y-125680323D01*
X101669262Y-125805760D01*
X101669262Y-125805761D01*
X101608757Y-125951833D01*
X101608755Y-125951841D01*
X101588118Y-126108599D01*
X101588118Y-126108600D01*
X101608755Y-126265358D01*
X101608757Y-126265366D01*
X101669262Y-126411438D01*
X101669262Y-126411439D01*
X101669264Y-126411441D01*
X101765518Y-126536882D01*
X101890959Y-126633136D01*
X102037038Y-126693644D01*
X102154609Y-126709122D01*
X102193799Y-126714282D01*
X102193800Y-126714282D01*
X102193801Y-126714282D01*
X102225152Y-126710154D01*
X102350562Y-126693644D01*
X102496641Y-126633136D01*
X102566465Y-126579557D01*
X102624141Y-126559134D01*
X102626732Y-126559100D01*
X104298189Y-126559100D01*
X104356380Y-126578007D01*
X104368193Y-126588096D01*
X104875392Y-127095296D01*
X104903169Y-127149813D01*
X104893598Y-127210245D01*
X104850333Y-127253510D01*
X104805388Y-127264300D01*
X103027077Y-127264300D01*
X102968886Y-127245393D01*
X102947824Y-127224629D01*
X102919292Y-127186515D01*
X102919284Y-127186507D01*
X102804190Y-127100347D01*
X102804188Y-127100346D01*
X102669481Y-127050103D01*
X102669470Y-127050101D01*
X102609924Y-127043700D01*
X102431101Y-127043700D01*
X102431100Y-127043701D01*
X102431100Y-129085099D01*
X102431101Y-129085100D01*
X102609924Y-129085100D01*
X102669470Y-129078698D01*
X102669481Y-129078696D01*
X102804188Y-129028453D01*
X102804190Y-129028452D01*
X102919284Y-128942292D01*
X102919292Y-128942284D01*
X102947824Y-128904171D01*
X102997832Y-128868918D01*
X103027077Y-128864500D01*
X105147840Y-128864500D01*
X105187827Y-128872935D01*
X105209909Y-128882685D01*
X105235035Y-128885600D01*
X105803987Y-128885599D01*
X105862178Y-128904506D01*
X105873991Y-128914595D01*
X106214230Y-129254834D01*
X106242007Y-129309351D01*
X106232436Y-129369783D01*
X106223110Y-129384657D01*
X106131138Y-129505941D01*
X106076883Y-129643520D01*
X106066500Y-129729979D01*
X106066500Y-130169489D01*
X106047593Y-130227680D01*
X106037504Y-130239492D01*
X105682194Y-130594803D01*
X105627677Y-130622581D01*
X105612190Y-130623800D01*
X105387299Y-130623800D01*
X105329108Y-130604893D01*
X105293144Y-130555393D01*
X105288299Y-130524800D01*
X105288299Y-130426189D01*
X105288299Y-130426186D01*
X105285385Y-130401059D01*
X105240006Y-130298285D01*
X105160565Y-130218844D01*
X105057791Y-130173465D01*
X105057790Y-130173464D01*
X105057788Y-130173464D01*
X105032668Y-130170550D01*
X104587339Y-130170550D01*
X104587336Y-130170551D01*
X104562209Y-130173465D01*
X104524987Y-130189899D01*
X104464117Y-130196105D01*
X104445015Y-130189898D01*
X104407801Y-130173467D01*
X104407791Y-130173464D01*
X104382671Y-130170550D01*
X104136982Y-130170550D01*
X104078791Y-130151643D01*
X104057729Y-130130880D01*
X104044989Y-130113862D01*
X104044984Y-130113857D01*
X103929890Y-130027697D01*
X103929888Y-130027696D01*
X103795181Y-129977453D01*
X103795170Y-129977451D01*
X103735624Y-129971050D01*
X103687801Y-129971050D01*
X103687800Y-129971051D01*
X103687800Y-130376132D01*
X103685458Y-130393661D01*
X103685475Y-130393663D01*
X103681702Y-130426180D01*
X103681702Y-130426182D01*
X103681702Y-130426185D01*
X103681702Y-131013674D01*
X103681703Y-131153100D01*
X103662796Y-131211291D01*
X103613296Y-131247255D01*
X103582703Y-131252100D01*
X103437301Y-131252100D01*
X103379110Y-131233193D01*
X103343146Y-131183693D01*
X103338301Y-131153100D01*
X103338301Y-130426189D01*
X103338301Y-130426186D01*
X103335387Y-130401059D01*
X103335386Y-130401058D01*
X103334529Y-130393661D01*
X103334543Y-130393659D01*
X103332200Y-130376118D01*
X103332200Y-129971051D01*
X103332199Y-129971050D01*
X103284376Y-129971050D01*
X103224829Y-129977451D01*
X103224818Y-129977453D01*
X103090111Y-130027696D01*
X103090109Y-130027697D01*
X102975015Y-130113857D01*
X102975007Y-130113865D01*
X102962268Y-130130882D01*
X102912258Y-130166133D01*
X102883017Y-130170550D01*
X102637342Y-130170550D01*
X102637337Y-130170551D01*
X102612211Y-130173464D01*
X102509437Y-130218844D01*
X102429996Y-130298285D01*
X102384616Y-130401061D01*
X102381702Y-130426180D01*
X102381702Y-130963311D01*
X102378329Y-130988932D01*
X102371700Y-131013672D01*
X102371700Y-131013674D01*
X102371700Y-131760626D01*
X102403082Y-131877747D01*
X102459309Y-131975135D01*
X102463708Y-131982754D01*
X103222306Y-132741351D01*
X103222308Y-132741354D01*
X104263708Y-133782754D01*
X104263707Y-133782754D01*
X104349445Y-133868491D01*
X104349450Y-133868495D01*
X104454449Y-133929116D01*
X104454447Y-133929116D01*
X104454451Y-133929117D01*
X104454453Y-133929118D01*
X104571574Y-133960500D01*
X104692826Y-133960500D01*
X106022093Y-133960500D01*
X106080284Y-133979407D01*
X106114189Y-134023178D01*
X106131138Y-134066158D01*
X106131139Y-134066160D01*
X106131140Y-134066161D01*
X106212163Y-134173007D01*
X106232258Y-134230798D01*
X106214547Y-134289364D01*
X106185253Y-134317086D01*
X106143962Y-134342555D01*
X106022053Y-134464464D01*
X105931548Y-134611193D01*
X105877318Y-134774851D01*
X105867000Y-134875844D01*
X105867000Y-134974999D01*
X105867001Y-134975000D01*
X107816998Y-134975000D01*
X107816999Y-134974999D01*
X107816999Y-134875845D01*
X107806682Y-134774857D01*
X107806679Y-134774845D01*
X107752451Y-134611193D01*
X107661946Y-134464464D01*
X107540038Y-134342556D01*
X107498746Y-134317087D01*
X107459145Y-134270445D01*
X107454522Y-134209435D01*
X107471836Y-134173007D01*
X107552862Y-134066158D01*
X107569810Y-134023178D01*
X107608746Y-133975984D01*
X107661907Y-133960500D01*
X108772764Y-133960500D01*
X108830955Y-133979407D01*
X108861383Y-134015370D01*
X108907634Y-134108255D01*
X109036128Y-134278407D01*
X109096300Y-134333261D01*
X109193692Y-134422047D01*
X109193699Y-134422053D01*
X109297389Y-134486255D01*
X109374981Y-134534298D01*
X109573802Y-134611321D01*
X109783390Y-134650500D01*
X109996610Y-134650500D01*
X110206198Y-134611321D01*
X110405019Y-134534298D01*
X110586302Y-134422052D01*
X110743872Y-134278407D01*
X110848515Y-134139838D01*
X110898671Y-134104796D01*
X110927518Y-134100500D01*
X112681143Y-134100500D01*
X116472482Y-134100500D01*
X116530673Y-134119407D01*
X116551483Y-134139836D01*
X116656128Y-134278407D01*
X116716300Y-134333261D01*
X116813692Y-134422047D01*
X116813699Y-134422053D01*
X116917389Y-134486255D01*
X116994981Y-134534298D01*
X117193802Y-134611321D01*
X117403390Y-134650500D01*
X117616610Y-134650500D01*
X117726867Y-134629889D01*
X117729312Y-134629432D01*
X117789986Y-134637324D01*
X117817507Y-134656742D01*
X120026678Y-136865913D01*
X120026680Y-136865916D01*
X120138484Y-136977720D01*
X120138486Y-136977721D01*
X120138489Y-136977724D01*
X120138488Y-136977724D01*
X120225291Y-137027837D01*
X120225293Y-137027839D01*
X120225294Y-137027839D01*
X120254232Y-137044546D01*
X120275415Y-137056777D01*
X120428143Y-137097701D01*
X120428144Y-137097701D01*
X120592320Y-137097701D01*
X120592336Y-137097700D01*
X121774343Y-137097700D01*
X123624664Y-137097700D01*
X123624680Y-137097701D01*
X123630743Y-137097701D01*
X123788856Y-137097701D01*
X123788857Y-137097701D01*
X123941585Y-137056777D01*
X123991704Y-137027839D01*
X124078516Y-136977720D01*
X124190320Y-136865916D01*
X124190321Y-136865913D01*
X125224313Y-135831921D01*
X125224316Y-135831920D01*
X125336120Y-135720116D01*
X125409696Y-135592678D01*
X125415177Y-135583185D01*
X125456101Y-135430457D01*
X125456101Y-135323586D01*
X125464536Y-135283598D01*
X125498185Y-135207391D01*
X125501100Y-135182265D01*
X125501099Y-133392536D01*
X125498185Y-133367409D01*
X125452806Y-133264635D01*
X125373365Y-133185194D01*
X125270591Y-133139815D01*
X125270590Y-133139814D01*
X125270588Y-133139814D01*
X125245469Y-133136900D01*
X124871720Y-133136900D01*
X124813529Y-133117993D01*
X124777565Y-133068493D01*
X124777565Y-133007307D01*
X124781666Y-132996774D01*
X124835144Y-132879672D01*
X124835145Y-132879669D01*
X124855600Y-132737405D01*
X124855600Y-132637401D01*
X124855599Y-132637400D01*
X123600601Y-132637400D01*
X123600600Y-132637401D01*
X123600600Y-135654548D01*
X123615756Y-135684295D01*
X123606185Y-135744727D01*
X123587979Y-135769786D01*
X123490061Y-135867704D01*
X123435544Y-135895481D01*
X123420057Y-135896700D01*
X122350100Y-135896700D01*
X122291909Y-135877793D01*
X122255945Y-135828293D01*
X122251100Y-135797700D01*
X122251100Y-135508099D01*
X122270007Y-135449908D01*
X122310108Y-135417536D01*
X122331041Y-135408293D01*
X122391908Y-135402085D01*
X122444802Y-135432840D01*
X122454312Y-135445334D01*
X122468947Y-135468106D01*
X122577573Y-135562231D01*
X122708327Y-135621944D01*
X122708330Y-135621945D01*
X122850595Y-135642400D01*
X123100599Y-135642400D01*
X123100600Y-135642399D01*
X123100600Y-132637401D01*
X123100599Y-132637400D01*
X121845601Y-132637400D01*
X121845600Y-132637401D01*
X121845600Y-132737412D01*
X121846206Y-132762159D01*
X121846206Y-132762163D01*
X121873614Y-132903261D01*
X121919737Y-132992408D01*
X121929683Y-133052779D01*
X121902245Y-133107467D01*
X121847902Y-133135583D01*
X121831808Y-133136900D01*
X121455739Y-133136900D01*
X121455736Y-133136901D01*
X121430609Y-133139814D01*
X121327835Y-133185194D01*
X121248394Y-133264635D01*
X121203014Y-133367411D01*
X121200100Y-133392530D01*
X121200100Y-135182260D01*
X121200101Y-135182263D01*
X121203014Y-135207390D01*
X121228356Y-135264785D01*
X121248394Y-135310165D01*
X121327835Y-135389606D01*
X121391089Y-135417535D01*
X121436683Y-135458335D01*
X121450100Y-135508099D01*
X121450100Y-135797700D01*
X121431193Y-135855891D01*
X121381693Y-135891855D01*
X121351100Y-135896700D01*
X120796943Y-135896700D01*
X120738752Y-135877793D01*
X120726939Y-135867704D01*
X119437637Y-134578402D01*
X119409860Y-134523885D01*
X119419431Y-134463453D01*
X119462696Y-134420188D01*
X119491271Y-134413327D01*
X119495200Y-134409398D01*
X119495200Y-133621901D01*
X119995200Y-133621901D01*
X119995200Y-134409398D01*
X119995201Y-134409399D01*
X120031854Y-134409399D01*
X120132842Y-134399082D01*
X120132854Y-134399079D01*
X120296506Y-134344851D01*
X120443235Y-134254346D01*
X120565146Y-134132435D01*
X120655651Y-133985706D01*
X120709881Y-133822048D01*
X120720200Y-133721055D01*
X120720200Y-133621901D01*
X120720199Y-133621900D01*
X119995201Y-133621900D01*
X119995200Y-133621901D01*
X119495200Y-133621901D01*
X119495200Y-133220900D01*
X119514107Y-133162709D01*
X119563607Y-133126745D01*
X119594200Y-133121900D01*
X120720198Y-133121900D01*
X120720199Y-133121899D01*
X120720199Y-133022745D01*
X120709882Y-132921757D01*
X120709879Y-132921745D01*
X120655651Y-132758092D01*
X120565146Y-132611364D01*
X120443238Y-132489456D01*
X120401946Y-132463987D01*
X120362345Y-132417345D01*
X120357722Y-132356335D01*
X120375034Y-132319909D01*
X120456062Y-132213058D01*
X120510317Y-132075477D01*
X120520700Y-131989018D01*
X120520700Y-131304782D01*
X120510317Y-131218323D01*
X120456062Y-131080742D01*
X120366700Y-130962900D01*
X120362876Y-130960000D01*
X120359477Y-130957422D01*
X120324537Y-130907194D01*
X120320300Y-130878541D01*
X120320300Y-129344743D01*
X120339207Y-129286552D01*
X120349296Y-129274740D01*
X120650976Y-128973059D01*
X120705493Y-128945281D01*
X120734435Y-128946854D01*
X120734613Y-128945327D01*
X120742008Y-128946184D01*
X120742009Y-128946185D01*
X120767135Y-128949100D01*
X121204335Y-128949099D01*
X121262526Y-128968006D01*
X121298490Y-129017506D01*
X121298490Y-129078691D01*
X121295799Y-129085985D01*
X121268357Y-129152235D01*
X121268355Y-129152241D01*
X121247718Y-129308999D01*
X121247718Y-129309001D01*
X121260064Y-129402785D01*
X121250302Y-129455450D01*
X121252100Y-129456244D01*
X121248395Y-129464633D01*
X121248394Y-129464635D01*
X121208043Y-129556020D01*
X121203014Y-129567411D01*
X121200100Y-129592530D01*
X121200100Y-131282260D01*
X121200101Y-131282263D01*
X121203014Y-131307390D01*
X121214413Y-131333205D01*
X121248394Y-131410165D01*
X121327835Y-131489606D01*
X121430609Y-131534985D01*
X121455735Y-131537900D01*
X121829480Y-131537899D01*
X121887670Y-131556806D01*
X121923634Y-131606306D01*
X121923634Y-131667491D01*
X121919533Y-131678024D01*
X121866056Y-131795124D01*
X121866054Y-131795130D01*
X121845600Y-131937394D01*
X121845600Y-132137399D01*
X121845601Y-132137400D01*
X123100599Y-132137400D01*
X123100600Y-132137399D01*
X123100600Y-129132401D01*
X123100599Y-129132400D01*
X122850601Y-129132400D01*
X122778729Y-129137540D01*
X122640815Y-129178036D01*
X122640810Y-129178038D01*
X122588128Y-129211895D01*
X122528953Y-129227450D01*
X122471936Y-129205251D01*
X122441428Y-129158024D01*
X122440927Y-129158232D01*
X122439791Y-129155491D01*
X122438977Y-129154230D01*
X122438444Y-129152241D01*
X122438444Y-129152238D01*
X122411001Y-129085985D01*
X122377937Y-129006161D01*
X122377934Y-129006156D01*
X122375683Y-129003222D01*
X122374798Y-129000724D01*
X122374692Y-129000540D01*
X122374726Y-129000520D01*
X122355258Y-128945547D01*
X122372635Y-128886881D01*
X122384215Y-128872955D01*
X122435806Y-128821365D01*
X122481185Y-128718591D01*
X122484100Y-128693465D01*
X122484100Y-128671400D01*
X122503007Y-128613209D01*
X122552507Y-128577245D01*
X122583100Y-128572400D01*
X123562101Y-128572400D01*
X123620292Y-128591307D01*
X123656256Y-128640807D01*
X123661101Y-128671400D01*
X123661101Y-128693463D01*
X123664014Y-128718590D01*
X123677416Y-128748942D01*
X123709394Y-128821365D01*
X123788835Y-128900806D01*
X123884026Y-128942836D01*
X123929619Y-128983636D01*
X123942525Y-129043445D01*
X123917811Y-129099417D01*
X123864918Y-129130173D01*
X123844036Y-129132400D01*
X123600601Y-129132400D01*
X123600600Y-129132401D01*
X123600600Y-132137399D01*
X123600601Y-132137400D01*
X124855599Y-132137400D01*
X124855600Y-132137399D01*
X124855600Y-131937387D01*
X124854993Y-131912640D01*
X124854993Y-131912636D01*
X124827585Y-131771538D01*
X124781462Y-131682391D01*
X124771515Y-131622020D01*
X124798954Y-131567332D01*
X124853297Y-131539216D01*
X124869385Y-131537899D01*
X125245464Y-131537899D01*
X125270591Y-131534985D01*
X125373365Y-131489606D01*
X125452806Y-131410165D01*
X125498185Y-131307391D01*
X125501100Y-131282265D01*
X125501099Y-129592536D01*
X125498185Y-129567409D01*
X125459534Y-129479874D01*
X125451100Y-129439887D01*
X125451100Y-128989539D01*
X125470007Y-128931348D01*
X125499474Y-128907562D01*
X125498397Y-128905990D01*
X125505960Y-128900807D01*
X125505965Y-128900806D01*
X125585406Y-128821365D01*
X125630785Y-128718591D01*
X125633700Y-128693465D01*
X125633699Y-125860536D01*
X125630785Y-125835409D01*
X125585406Y-125732635D01*
X125505965Y-125653194D01*
X125403191Y-125607815D01*
X125403190Y-125607814D01*
X125403188Y-125607814D01*
X125378069Y-125604900D01*
X125378065Y-125604900D01*
X125346900Y-125604900D01*
X125288709Y-125585993D01*
X125252745Y-125536493D01*
X125247900Y-125505900D01*
X125247900Y-125043962D01*
X125266807Y-124985771D01*
X125306914Y-124953397D01*
X125340863Y-124938407D01*
X125340865Y-124938406D01*
X125366433Y-124912838D01*
X125420306Y-124858965D01*
X125465685Y-124756191D01*
X125468600Y-124731065D01*
X125468599Y-123879336D01*
X125465685Y-123854209D01*
X125455935Y-123832126D01*
X125447500Y-123792139D01*
X125447500Y-121338459D01*
X125455935Y-121298472D01*
X125465685Y-121276391D01*
X125468600Y-121251265D01*
X125468599Y-120399536D01*
X125465685Y-120374409D01*
X125420306Y-120271635D01*
X125340865Y-120192194D01*
X125339844Y-120191743D01*
X125306910Y-120177201D01*
X125261316Y-120136399D01*
X125247900Y-120086637D01*
X125247900Y-119728249D01*
X125248747Y-119715327D01*
X125253082Y-119682400D01*
X125253082Y-119682399D01*
X125248747Y-119649471D01*
X125247900Y-119636549D01*
X125247900Y-119563700D01*
X125266807Y-119505509D01*
X125316307Y-119469545D01*
X125346900Y-119464700D01*
X125790500Y-119464700D01*
X125790502Y-119464700D01*
X125878964Y-119454077D01*
X126019742Y-119398561D01*
X126140322Y-119307122D01*
X126146616Y-119298821D01*
X126196843Y-119263879D01*
X126258015Y-119265133D01*
G37*
G04 #@! TD.AperFunction*
G04 #@! TA.AperFunction,Conductor*
G36*
X105861884Y-131543707D02*
G01*
X105865857Y-131547100D01*
X106993000Y-131547100D01*
X107051191Y-131566007D01*
X107087155Y-131615507D01*
X107092000Y-131646100D01*
X107092000Y-131948100D01*
X107073093Y-132006291D01*
X107023593Y-132042255D01*
X106993000Y-132047100D01*
X105867002Y-132047100D01*
X105867001Y-132047101D01*
X105867001Y-132146254D01*
X105877317Y-132247242D01*
X105877320Y-132247254D01*
X105931548Y-132410906D01*
X106022053Y-132557635D01*
X106143961Y-132679543D01*
X106173834Y-132697969D01*
X106213435Y-132744611D01*
X106218058Y-132805621D01*
X106200745Y-132842049D01*
X106131140Y-132933838D01*
X106131140Y-132933839D01*
X106131138Y-132933842D01*
X106114189Y-132976821D01*
X106075254Y-133024016D01*
X106022093Y-133039500D01*
X105069329Y-133039500D01*
X105011138Y-133020593D01*
X104975174Y-132971093D01*
X104975174Y-132909907D01*
X105005715Y-132866692D01*
X105005093Y-132866070D01*
X105008713Y-132862449D01*
X105009060Y-132861959D01*
X105009682Y-132861482D01*
X105105936Y-132736041D01*
X105166444Y-132589962D01*
X105187082Y-132433200D01*
X105181841Y-132393397D01*
X105184366Y-132354859D01*
X105210500Y-132257327D01*
X105210500Y-132151873D01*
X105210500Y-131920828D01*
X105229407Y-131862637D01*
X105239490Y-131850830D01*
X105240006Y-131850315D01*
X105285385Y-131747541D01*
X105288300Y-131722415D01*
X105288300Y-131623800D01*
X105307207Y-131565609D01*
X105356707Y-131529645D01*
X105387300Y-131524800D01*
X105803693Y-131524800D01*
X105861884Y-131543707D01*
G37*
G04 #@! TD.AperFunction*
G04 #@! TA.AperFunction,Conductor*
G36*
X125133875Y-70075805D02*
G01*
X125309097Y-70089594D01*
X125324430Y-70092023D01*
X125491550Y-70132145D01*
X125506317Y-70136943D01*
X125665104Y-70202715D01*
X125678926Y-70209758D01*
X125825469Y-70299560D01*
X125838032Y-70308688D01*
X125968717Y-70420303D01*
X125979699Y-70431285D01*
X126091311Y-70561967D01*
X126100440Y-70574532D01*
X126190238Y-70721068D01*
X126197287Y-70734902D01*
X126263054Y-70893678D01*
X126267855Y-70908453D01*
X126307975Y-71075564D01*
X126310405Y-71090907D01*
X126324195Y-71266123D01*
X126324500Y-71273891D01*
X126324500Y-114261582D01*
X126305593Y-114319773D01*
X126256093Y-114355737D01*
X126194907Y-114355737D01*
X126173528Y-114345843D01*
X126066524Y-114279843D01*
X125900093Y-114224693D01*
X125797387Y-114214200D01*
X124897401Y-114214200D01*
X124897400Y-114214201D01*
X124897400Y-116539198D01*
X124897401Y-116539199D01*
X125797386Y-116539199D01*
X125900087Y-116528707D01*
X125900099Y-116528704D01*
X126066522Y-116473557D01*
X126173527Y-116407556D01*
X126232980Y-116393100D01*
X126289576Y-116416350D01*
X126321697Y-116468426D01*
X126324500Y-116491817D01*
X126324500Y-117644758D01*
X126305593Y-117702949D01*
X126256093Y-117738913D01*
X126194907Y-117738913D01*
X126146618Y-117704580D01*
X126142990Y-117699797D01*
X126140322Y-117696278D01*
X126019742Y-117604839D01*
X126019741Y-117604838D01*
X126019739Y-117604837D01*
X125878965Y-117549323D01*
X125790506Y-117538700D01*
X125790502Y-117538700D01*
X123504298Y-117538700D01*
X123504293Y-117538700D01*
X123415834Y-117549323D01*
X123275060Y-117604837D01*
X123275056Y-117604840D01*
X123149319Y-117700190D01*
X123091528Y-117720285D01*
X123032962Y-117702574D01*
X122995992Y-117653821D01*
X122990500Y-117621306D01*
X122990500Y-116937274D01*
X122990500Y-116937273D01*
X122972766Y-116871087D01*
X122972766Y-116871086D01*
X122972766Y-116871085D01*
X122963207Y-116835412D01*
X122963205Y-116835408D01*
X122910483Y-116744091D01*
X122910482Y-116744090D01*
X122910481Y-116744089D01*
X122910480Y-116744087D01*
X122377336Y-116210943D01*
X122349559Y-116156426D01*
X122352118Y-116113848D01*
X122406397Y-115923083D01*
X122425215Y-115720000D01*
X122416570Y-115626701D01*
X122797401Y-115626701D01*
X122797401Y-115839186D01*
X122807892Y-115941887D01*
X122807895Y-115941899D01*
X122863043Y-116108324D01*
X122955080Y-116257540D01*
X123079059Y-116381519D01*
X123228275Y-116473556D01*
X123394706Y-116528706D01*
X123497412Y-116539199D01*
X124397398Y-116539199D01*
X124397400Y-116539198D01*
X124397400Y-115626701D01*
X124397399Y-115626700D01*
X122797402Y-115626700D01*
X122797401Y-115626701D01*
X122416570Y-115626701D01*
X122406397Y-115516917D01*
X122350582Y-115320750D01*
X122259673Y-115138179D01*
X122136764Y-114975421D01*
X122069621Y-114914212D01*
X122797400Y-114914212D01*
X122797400Y-115126699D01*
X122797401Y-115126700D01*
X124397399Y-115126700D01*
X124397400Y-115126699D01*
X124397400Y-114214201D01*
X124397399Y-114214200D01*
X123497413Y-114214200D01*
X123394712Y-114224692D01*
X123394700Y-114224695D01*
X123228275Y-114279843D01*
X123079059Y-114371880D01*
X122955080Y-114495859D01*
X122863043Y-114645075D01*
X122807893Y-114811506D01*
X122797400Y-114914212D01*
X122069621Y-114914212D01*
X121986041Y-114838019D01*
X121812637Y-114730652D01*
X121622456Y-114656976D01*
X121622455Y-114656975D01*
X121622453Y-114656975D01*
X121421976Y-114619500D01*
X121218024Y-114619500D01*
X121017546Y-114656975D01*
X120995334Y-114665580D01*
X120827363Y-114730652D01*
X120718676Y-114797948D01*
X120653959Y-114838019D01*
X120503237Y-114975420D01*
X120380328Y-115138177D01*
X120380323Y-115138186D01*
X120298450Y-115302611D01*
X120289418Y-115320750D01*
X120233603Y-115516917D01*
X120214785Y-115720000D01*
X120233603Y-115923083D01*
X120289418Y-116119250D01*
X120380327Y-116301821D01*
X120503236Y-116464579D01*
X120653959Y-116601981D01*
X120827363Y-116709348D01*
X121017544Y-116783024D01*
X121218024Y-116820500D01*
X121421976Y-116820500D01*
X121622456Y-116783024D01*
X121702259Y-116752107D01*
X121763351Y-116748718D01*
X121808026Y-116774419D01*
X122160504Y-117126897D01*
X122188281Y-117181414D01*
X122189500Y-117196901D01*
X122189500Y-117339283D01*
X122170593Y-117397474D01*
X122121093Y-117433438D01*
X122059907Y-117433438D01*
X122023805Y-117412445D01*
X121986043Y-117378021D01*
X121986041Y-117378019D01*
X121812637Y-117270652D01*
X121622456Y-117196976D01*
X121622455Y-117196975D01*
X121622453Y-117196975D01*
X121421976Y-117159500D01*
X121218024Y-117159500D01*
X121017546Y-117196975D01*
X121017541Y-117196977D01*
X120827363Y-117270652D01*
X120653959Y-117378019D01*
X120503236Y-117515421D01*
X120476550Y-117550759D01*
X120380328Y-117678177D01*
X120380323Y-117678186D01*
X120298450Y-117842611D01*
X120289418Y-117860750D01*
X120233603Y-118056917D01*
X120214785Y-118260000D01*
X120233603Y-118463083D01*
X120236229Y-118472311D01*
X120287880Y-118653845D01*
X120285619Y-118714989D01*
X120262663Y-118750941D01*
X119221520Y-119792086D01*
X119221516Y-119792091D01*
X119168793Y-119883411D01*
X119168792Y-119883411D01*
X119168793Y-119883412D01*
X119141500Y-119985273D01*
X119141500Y-121101098D01*
X119122593Y-121159289D01*
X119112504Y-121171102D01*
X118036673Y-122246932D01*
X117982156Y-122274709D01*
X117930907Y-122269243D01*
X117826198Y-122228679D01*
X117826197Y-122228678D01*
X117826195Y-122228678D01*
X117616610Y-122189500D01*
X117403390Y-122189500D01*
X117193804Y-122228678D01*
X116994980Y-122305702D01*
X116994975Y-122305705D01*
X116813699Y-122417946D01*
X116813692Y-122417952D01*
X116656135Y-122561586D01*
X116656131Y-122561589D01*
X116656128Y-122561593D01*
X116656125Y-122561597D01*
X116527635Y-122731743D01*
X116527630Y-122731752D01*
X116432596Y-122922608D01*
X116374244Y-123127688D01*
X116358224Y-123300580D01*
X116354571Y-123340000D01*
X116374244Y-123552310D01*
X116432595Y-123757389D01*
X116450575Y-123793499D01*
X116494746Y-123882206D01*
X116503759Y-123942724D01*
X116475479Y-123996982D01*
X116420708Y-124024254D01*
X116393203Y-124024487D01*
X116233567Y-124003471D01*
X116233794Y-124001743D01*
X116183528Y-123985411D01*
X116171715Y-123975322D01*
X116059896Y-123863503D01*
X116032119Y-123808986D01*
X116030900Y-123793499D01*
X116030900Y-122186071D01*
X116049807Y-122127880D01*
X116057115Y-122119324D01*
X116112974Y-122046527D01*
X116154936Y-121991841D01*
X116215444Y-121845762D01*
X116236082Y-121689000D01*
X116215444Y-121532238D01*
X116186596Y-121462592D01*
X116154937Y-121386161D01*
X116154937Y-121386160D01*
X116054732Y-121255570D01*
X116056113Y-121254509D01*
X116032119Y-121207416D01*
X116030900Y-121191929D01*
X116030900Y-120911514D01*
X116030901Y-120911501D01*
X116030901Y-120800000D01*
X116354571Y-120800000D01*
X116374244Y-121012311D01*
X116391506Y-121072980D01*
X116432595Y-121217389D01*
X116527634Y-121408255D01*
X116656128Y-121578407D01*
X116656135Y-121578413D01*
X116813692Y-121722047D01*
X116813699Y-121722053D01*
X116858057Y-121749518D01*
X116994981Y-121834298D01*
X117193802Y-121911321D01*
X117403390Y-121950500D01*
X117616610Y-121950500D01*
X117826198Y-121911321D01*
X118025019Y-121834298D01*
X118206302Y-121722052D01*
X118363872Y-121578407D01*
X118492366Y-121408255D01*
X118587405Y-121217389D01*
X118645756Y-121012310D01*
X118665429Y-120800000D01*
X118645756Y-120587690D01*
X118587405Y-120382611D01*
X118492366Y-120191745D01*
X118363872Y-120021593D01*
X118288021Y-119952445D01*
X118206307Y-119877952D01*
X118206300Y-119877946D01*
X118025024Y-119765705D01*
X118025019Y-119765702D01*
X117973078Y-119745580D01*
X117826198Y-119688679D01*
X117826197Y-119688678D01*
X117826195Y-119688678D01*
X117616610Y-119649500D01*
X117403390Y-119649500D01*
X117193804Y-119688678D01*
X116994980Y-119765702D01*
X116994975Y-119765705D01*
X116813699Y-119877946D01*
X116813692Y-119877952D01*
X116656135Y-120021586D01*
X116656131Y-120021589D01*
X116656128Y-120021593D01*
X116656125Y-120021597D01*
X116527635Y-120191743D01*
X116527630Y-120191752D01*
X116443285Y-120361142D01*
X116432595Y-120382611D01*
X116427435Y-120400747D01*
X116374244Y-120587688D01*
X116354571Y-120800000D01*
X116030901Y-120800000D01*
X116030901Y-120798072D01*
X116030900Y-120798070D01*
X116029660Y-120793444D01*
X116003607Y-120696213D01*
X115986799Y-120667101D01*
X115950880Y-120604887D01*
X115876313Y-120530320D01*
X115876310Y-120530318D01*
X115872855Y-120526862D01*
X115404096Y-120058102D01*
X115376319Y-120003586D01*
X115375100Y-119988099D01*
X115375100Y-119986983D01*
X115375100Y-119986982D01*
X115364717Y-119900523D01*
X115310462Y-119762942D01*
X115221100Y-119645100D01*
X115103258Y-119555738D01*
X115086002Y-119548933D01*
X114965679Y-119501483D01*
X114879220Y-119491100D01*
X114879218Y-119491100D01*
X114419001Y-119491100D01*
X114360810Y-119472193D01*
X114348997Y-119462104D01*
X114187896Y-119301003D01*
X114160119Y-119246486D01*
X114169690Y-119186054D01*
X114212955Y-119142789D01*
X114257897Y-119131999D01*
X114572663Y-119131999D01*
X114597790Y-119129085D01*
X114700564Y-119083706D01*
X114780005Y-119004265D01*
X114825384Y-118901491D01*
X114828299Y-118876365D01*
X114828298Y-117796036D01*
X114827696Y-117790845D01*
X114839771Y-117730863D01*
X114884797Y-117689435D01*
X114945575Y-117682384D01*
X114996040Y-117709433D01*
X115071922Y-117785315D01*
X115099699Y-117839832D01*
X115100581Y-117851045D01*
X115121555Y-118010358D01*
X115121557Y-118010366D01*
X115182062Y-118156438D01*
X115182062Y-118156439D01*
X115261527Y-118260000D01*
X115278318Y-118281882D01*
X115403759Y-118378136D01*
X115549838Y-118438644D01*
X115667409Y-118454122D01*
X115706599Y-118459282D01*
X115706600Y-118459282D01*
X115706601Y-118459282D01*
X115737952Y-118455154D01*
X115863362Y-118438644D01*
X116009441Y-118378136D01*
X116134882Y-118281882D01*
X116178902Y-118224513D01*
X116229324Y-118189858D01*
X116290489Y-118191459D01*
X116339031Y-118228706D01*
X116356020Y-118275645D01*
X116374244Y-118472310D01*
X116432595Y-118677389D01*
X116527634Y-118868255D01*
X116656128Y-119038407D01*
X116679037Y-119059291D01*
X116813692Y-119182047D01*
X116813699Y-119182053D01*
X116864661Y-119213607D01*
X116994981Y-119294298D01*
X117193802Y-119371321D01*
X117403390Y-119410500D01*
X117616610Y-119410500D01*
X117826198Y-119371321D01*
X118025019Y-119294298D01*
X118206302Y-119182052D01*
X118363872Y-119038407D01*
X118492366Y-118868255D01*
X118587405Y-118677389D01*
X118645756Y-118472310D01*
X118665429Y-118260000D01*
X118645756Y-118047690D01*
X118587405Y-117842611D01*
X118492366Y-117651745D01*
X118363872Y-117481593D01*
X118288021Y-117412445D01*
X118206307Y-117337952D01*
X118206300Y-117337946D01*
X118025024Y-117225705D01*
X118025019Y-117225702D01*
X117973078Y-117205580D01*
X117826198Y-117148679D01*
X117826197Y-117148678D01*
X117826195Y-117148678D01*
X117616610Y-117109500D01*
X117403390Y-117109500D01*
X117193802Y-117148678D01*
X117089091Y-117189243D01*
X117028000Y-117192633D01*
X116983325Y-117166932D01*
X116245289Y-116428896D01*
X115536393Y-115720000D01*
X116354571Y-115720000D01*
X116374244Y-115932310D01*
X116432595Y-116137389D01*
X116527634Y-116328255D01*
X116656128Y-116498407D01*
X116719929Y-116556570D01*
X116813692Y-116642047D01*
X116813699Y-116642053D01*
X116917389Y-116706255D01*
X116994981Y-116754298D01*
X117193802Y-116831321D01*
X117403390Y-116870500D01*
X117616610Y-116870500D01*
X117826198Y-116831321D01*
X118025019Y-116754298D01*
X118206302Y-116642052D01*
X118363872Y-116498407D01*
X118492366Y-116328255D01*
X118587405Y-116137389D01*
X118645756Y-115932310D01*
X118665429Y-115720000D01*
X118645756Y-115507690D01*
X118587405Y-115302611D01*
X118492366Y-115111745D01*
X118363872Y-114941593D01*
X118278107Y-114863407D01*
X118206307Y-114797952D01*
X118206300Y-114797946D01*
X118025024Y-114685705D01*
X118025019Y-114685702D01*
X117922437Y-114645962D01*
X117826198Y-114608679D01*
X117826197Y-114608678D01*
X117826195Y-114608678D01*
X117616610Y-114569500D01*
X117403390Y-114569500D01*
X117193804Y-114608678D01*
X116994980Y-114685702D01*
X116994975Y-114685705D01*
X116813699Y-114797946D01*
X116813692Y-114797952D01*
X116656135Y-114941586D01*
X116656131Y-114941589D01*
X116656128Y-114941593D01*
X116656125Y-114941597D01*
X116527635Y-115111743D01*
X116527630Y-115111752D01*
X116432596Y-115302608D01*
X116432595Y-115302611D01*
X116426810Y-115322943D01*
X116374244Y-115507688D01*
X116374244Y-115507690D01*
X116354571Y-115720000D01*
X115536393Y-115720000D01*
X115495313Y-115678920D01*
X115495310Y-115678918D01*
X115495309Y-115678917D01*
X115495308Y-115678916D01*
X115403991Y-115626194D01*
X115403993Y-115626194D01*
X115364470Y-115615604D01*
X115302127Y-115598900D01*
X115302125Y-115598900D01*
X114927298Y-115598900D01*
X114869107Y-115579993D01*
X114833143Y-115530493D01*
X114828298Y-115499900D01*
X114828298Y-115459239D01*
X114828298Y-115459236D01*
X114825384Y-115434109D01*
X114780005Y-115331335D01*
X114780002Y-115331332D01*
X114780002Y-115331331D01*
X114778223Y-115328733D01*
X114776738Y-115323937D01*
X114776299Y-115322943D01*
X114776414Y-115322892D01*
X114760900Y-115272788D01*
X114760900Y-114943500D01*
X114779807Y-114885309D01*
X114829307Y-114849345D01*
X114859900Y-114844500D01*
X114930016Y-114844500D01*
X114930018Y-114844500D01*
X115016477Y-114834117D01*
X115154058Y-114779862D01*
X115271900Y-114690500D01*
X115361262Y-114572658D01*
X115415517Y-114435077D01*
X115425900Y-114348618D01*
X115425900Y-113789382D01*
X115415517Y-113702923D01*
X115361262Y-113565342D01*
X115271900Y-113447500D01*
X115154058Y-113358138D01*
X115016479Y-113303883D01*
X114930020Y-113293500D01*
X114930018Y-113293500D01*
X114345782Y-113293500D01*
X114345779Y-113293500D01*
X114259320Y-113303883D01*
X114121741Y-113358138D01*
X114003903Y-113447497D01*
X114003897Y-113447503D01*
X113914538Y-113565341D01*
X113860283Y-113702920D01*
X113849900Y-113789379D01*
X113849900Y-114300599D01*
X113830993Y-114358790D01*
X113781493Y-114394754D01*
X113720307Y-114394754D01*
X113680896Y-114370603D01*
X113629896Y-114319603D01*
X113602119Y-114265086D01*
X113600900Y-114249599D01*
X113600900Y-113789383D01*
X113600900Y-113789382D01*
X113590517Y-113702923D01*
X113536262Y-113565342D01*
X113446900Y-113447500D01*
X113329058Y-113358138D01*
X113191479Y-113303883D01*
X113105020Y-113293500D01*
X113105018Y-113293500D01*
X112520782Y-113293500D01*
X112520777Y-113293500D01*
X112450958Y-113301885D01*
X112390928Y-113290051D01*
X112349319Y-113245192D01*
X112342023Y-113184443D01*
X112344393Y-113180000D01*
X116354571Y-113180000D01*
X116371077Y-113358138D01*
X116374244Y-113392310D01*
X116432595Y-113597389D01*
X116527634Y-113788255D01*
X116656128Y-113958407D01*
X116656135Y-113958413D01*
X116813692Y-114102047D01*
X116813699Y-114102053D01*
X116880351Y-114143322D01*
X116994981Y-114214298D01*
X117193802Y-114291321D01*
X117403390Y-114330500D01*
X117616610Y-114330500D01*
X117826198Y-114291321D01*
X118025019Y-114214298D01*
X118206302Y-114102052D01*
X118363872Y-113958407D01*
X118492366Y-113788255D01*
X118587405Y-113597389D01*
X118645756Y-113392310D01*
X118665429Y-113180000D01*
X118645756Y-112967690D01*
X118587405Y-112762611D01*
X118492366Y-112571745D01*
X118363872Y-112401593D01*
X118309623Y-112352139D01*
X118206307Y-112257952D01*
X118206300Y-112257946D01*
X118025024Y-112145705D01*
X118025019Y-112145702D01*
X117973078Y-112125580D01*
X117826198Y-112068679D01*
X117826197Y-112068678D01*
X117826195Y-112068678D01*
X117616610Y-112029500D01*
X117403390Y-112029500D01*
X117193804Y-112068678D01*
X116994980Y-112145702D01*
X116994975Y-112145705D01*
X116813699Y-112257946D01*
X116813692Y-112257952D01*
X116656135Y-112401586D01*
X116656131Y-112401589D01*
X116656128Y-112401593D01*
X116656125Y-112401597D01*
X116527635Y-112571743D01*
X116527630Y-112571752D01*
X116432596Y-112762608D01*
X116374244Y-112967688D01*
X116354571Y-113180000D01*
X112344393Y-113180000D01*
X112369149Y-113133588D01*
X113437910Y-112064827D01*
X113437913Y-112064826D01*
X113512480Y-111990259D01*
X113565207Y-111898933D01*
X113576370Y-111857273D01*
X113592501Y-111797073D01*
X113592501Y-111691619D01*
X113592501Y-111685557D01*
X113592500Y-111685539D01*
X113592500Y-110640000D01*
X116354571Y-110640000D01*
X116374244Y-110852310D01*
X116432595Y-111057389D01*
X116527634Y-111248255D01*
X116656128Y-111418407D01*
X116716747Y-111473669D01*
X116813692Y-111562047D01*
X116813699Y-111562053D01*
X116882034Y-111604364D01*
X116994981Y-111674298D01*
X117193802Y-111751321D01*
X117403390Y-111790500D01*
X117616610Y-111790500D01*
X117826198Y-111751321D01*
X118025019Y-111674298D01*
X118206302Y-111562052D01*
X118363872Y-111418407D01*
X118492366Y-111248255D01*
X118587405Y-111057389D01*
X118645756Y-110852310D01*
X118665429Y-110640000D01*
X118645756Y-110427690D01*
X118587405Y-110222611D01*
X118492366Y-110031745D01*
X118363872Y-109861593D01*
X118278989Y-109784211D01*
X118206307Y-109717952D01*
X118206300Y-109717946D01*
X118025024Y-109605705D01*
X118025019Y-109605702D01*
X117973078Y-109585580D01*
X117826198Y-109528679D01*
X117826197Y-109528678D01*
X117826195Y-109528678D01*
X117616610Y-109489500D01*
X117403390Y-109489500D01*
X117193804Y-109528678D01*
X116994980Y-109605702D01*
X116994975Y-109605705D01*
X116813699Y-109717946D01*
X116813692Y-109717952D01*
X116656135Y-109861586D01*
X116656131Y-109861589D01*
X116656128Y-109861593D01*
X116656125Y-109861597D01*
X116527635Y-110031743D01*
X116527630Y-110031752D01*
X116432596Y-110222608D01*
X116374244Y-110427688D01*
X116362068Y-110559091D01*
X116354571Y-110640000D01*
X113592500Y-110640000D01*
X113592500Y-110084900D01*
X113611407Y-110026709D01*
X113621490Y-110014902D01*
X115536391Y-108100000D01*
X116354571Y-108100000D01*
X116374244Y-108312310D01*
X116432595Y-108517389D01*
X116527634Y-108708255D01*
X116656128Y-108878407D01*
X116656135Y-108878413D01*
X116813692Y-109022047D01*
X116813699Y-109022053D01*
X116858057Y-109049518D01*
X116994981Y-109134298D01*
X117193802Y-109211321D01*
X117403390Y-109250500D01*
X117616610Y-109250500D01*
X117826198Y-109211321D01*
X118025019Y-109134298D01*
X118206302Y-109022052D01*
X118363872Y-108878407D01*
X118492366Y-108708255D01*
X118587405Y-108517389D01*
X118645756Y-108312310D01*
X118665429Y-108100000D01*
X118645756Y-107887690D01*
X118587405Y-107682611D01*
X118492366Y-107491745D01*
X118363872Y-107321593D01*
X118292909Y-107256901D01*
X118206307Y-107177952D01*
X118206300Y-107177946D01*
X118025024Y-107065705D01*
X118025019Y-107065702D01*
X117973078Y-107045580D01*
X117826198Y-106988679D01*
X117826197Y-106988678D01*
X117826195Y-106988678D01*
X117616610Y-106949500D01*
X117403390Y-106949500D01*
X117193804Y-106988678D01*
X116994980Y-107065702D01*
X116994975Y-107065705D01*
X116813699Y-107177946D01*
X116813692Y-107177952D01*
X116656135Y-107321586D01*
X116656131Y-107321589D01*
X116656128Y-107321593D01*
X116656125Y-107321597D01*
X116527635Y-107491743D01*
X116527630Y-107491752D01*
X116432596Y-107682608D01*
X116374244Y-107887688D01*
X116374244Y-107887689D01*
X116374244Y-107887690D01*
X116354571Y-108100000D01*
X115536391Y-108100000D01*
X116983326Y-106653065D01*
X117037841Y-106625290D01*
X117089090Y-106630756D01*
X117193802Y-106671321D01*
X117403390Y-106710500D01*
X117616610Y-106710500D01*
X117826198Y-106671321D01*
X118025019Y-106594298D01*
X118206302Y-106482052D01*
X118363872Y-106338407D01*
X118492366Y-106168255D01*
X118587405Y-105977389D01*
X118645756Y-105772310D01*
X118665429Y-105560000D01*
X120214785Y-105560000D01*
X120233603Y-105763083D01*
X120289418Y-105959250D01*
X120380327Y-106141821D01*
X120503236Y-106304579D01*
X120653959Y-106441981D01*
X120827363Y-106549348D01*
X121017544Y-106623024D01*
X121218024Y-106660500D01*
X121421976Y-106660500D01*
X121622456Y-106623024D01*
X121812637Y-106549348D01*
X121986041Y-106441981D01*
X122136764Y-106304579D01*
X122259673Y-106141821D01*
X122350582Y-105959250D01*
X122406397Y-105763083D01*
X122425215Y-105560000D01*
X122406397Y-105356917D01*
X122350582Y-105160750D01*
X122259673Y-104978179D01*
X122136764Y-104815421D01*
X121986041Y-104678019D01*
X121812637Y-104570652D01*
X121622456Y-104496976D01*
X121622455Y-104496975D01*
X121622453Y-104496975D01*
X121421976Y-104459500D01*
X121218024Y-104459500D01*
X121017546Y-104496975D01*
X120947632Y-104524059D01*
X120827363Y-104570652D01*
X120718676Y-104637948D01*
X120653959Y-104678019D01*
X120503237Y-104815420D01*
X120380328Y-104978177D01*
X120380323Y-104978186D01*
X120298450Y-105142611D01*
X120289418Y-105160750D01*
X120233603Y-105356917D01*
X120214785Y-105560000D01*
X118665429Y-105560000D01*
X118645756Y-105347690D01*
X118587405Y-105142611D01*
X118492366Y-104951745D01*
X118363872Y-104781593D01*
X118296426Y-104720107D01*
X118206307Y-104637952D01*
X118206300Y-104637946D01*
X118025024Y-104525705D01*
X118025019Y-104525702D01*
X117826195Y-104448678D01*
X117616610Y-104409500D01*
X117403390Y-104409500D01*
X117193804Y-104448678D01*
X116994980Y-104525702D01*
X116994975Y-104525705D01*
X116813699Y-104637946D01*
X116813692Y-104637952D01*
X116656135Y-104781586D01*
X116656131Y-104781589D01*
X116656128Y-104781593D01*
X116656125Y-104781597D01*
X116527635Y-104951743D01*
X116527630Y-104951752D01*
X116432596Y-105142608D01*
X116374244Y-105347688D01*
X116354571Y-105560000D01*
X116374244Y-105772311D01*
X116432598Y-105977401D01*
X116434249Y-105981661D01*
X116432870Y-105982195D01*
X116440977Y-106036647D01*
X116413348Y-106090257D01*
X114164504Y-108339102D01*
X114109987Y-108366879D01*
X114049555Y-108357308D01*
X114006290Y-108314043D01*
X113995500Y-108269098D01*
X113995500Y-107141900D01*
X114014407Y-107083709D01*
X114024490Y-107071902D01*
X116983326Y-104113065D01*
X117037841Y-104085290D01*
X117089090Y-104090756D01*
X117193802Y-104131321D01*
X117403390Y-104170500D01*
X117616610Y-104170500D01*
X117826198Y-104131321D01*
X118025019Y-104054298D01*
X118206302Y-103942052D01*
X118363872Y-103798407D01*
X118492366Y-103628255D01*
X118587405Y-103437389D01*
X118645756Y-103232310D01*
X118665429Y-103020000D01*
X118645756Y-102807690D01*
X118587405Y-102602611D01*
X118492366Y-102411745D01*
X118363872Y-102241593D01*
X118309623Y-102192139D01*
X118206307Y-102097952D01*
X118206300Y-102097946D01*
X118025024Y-101985705D01*
X118025019Y-101985702D01*
X117973078Y-101965580D01*
X117826198Y-101908679D01*
X117826197Y-101908678D01*
X117826195Y-101908678D01*
X117616610Y-101869500D01*
X117403390Y-101869500D01*
X117193804Y-101908678D01*
X116994980Y-101985702D01*
X116994975Y-101985705D01*
X116813699Y-102097946D01*
X116813692Y-102097952D01*
X116656135Y-102241586D01*
X116656131Y-102241589D01*
X116656128Y-102241593D01*
X116656125Y-102241597D01*
X116527635Y-102411743D01*
X116527630Y-102411752D01*
X116432596Y-102602608D01*
X116374244Y-102807688D01*
X116354571Y-103020000D01*
X116374244Y-103232311D01*
X116432598Y-103437401D01*
X116434249Y-103441661D01*
X116432870Y-103442195D01*
X116440977Y-103496647D01*
X116413348Y-103550257D01*
X113415504Y-106548103D01*
X113360987Y-106575880D01*
X113300555Y-106566309D01*
X113257290Y-106523044D01*
X113246500Y-106478099D01*
X113246500Y-105350900D01*
X113265407Y-105292709D01*
X113275490Y-105280902D01*
X116983326Y-101573065D01*
X117037841Y-101545290D01*
X117089090Y-101550756D01*
X117193802Y-101591321D01*
X117403390Y-101630500D01*
X117616610Y-101630500D01*
X117826198Y-101591321D01*
X118025019Y-101514298D01*
X118206302Y-101402052D01*
X118363872Y-101258407D01*
X118492366Y-101088255D01*
X118587405Y-100897389D01*
X118645756Y-100692310D01*
X118665429Y-100480000D01*
X118645756Y-100267690D01*
X118587405Y-100062611D01*
X118492366Y-99871745D01*
X118363872Y-99701593D01*
X118309623Y-99652139D01*
X118206307Y-99557952D01*
X118206300Y-99557946D01*
X118025024Y-99445705D01*
X118025019Y-99445702D01*
X117973078Y-99425580D01*
X117826198Y-99368679D01*
X117826197Y-99368678D01*
X117826195Y-99368678D01*
X117616610Y-99329500D01*
X117403390Y-99329500D01*
X117193804Y-99368678D01*
X116994980Y-99445702D01*
X116994975Y-99445705D01*
X116813699Y-99557946D01*
X116813692Y-99557952D01*
X116656135Y-99701586D01*
X116656131Y-99701589D01*
X116656128Y-99701593D01*
X116656125Y-99701597D01*
X116527635Y-99871743D01*
X116527630Y-99871752D01*
X116432596Y-100062608D01*
X116374244Y-100267688D01*
X116354571Y-100480000D01*
X116374244Y-100692311D01*
X116432598Y-100897401D01*
X116434249Y-100901661D01*
X116432870Y-100902195D01*
X116440977Y-100956647D01*
X116413348Y-101010257D01*
X112872504Y-104551102D01*
X112817987Y-104578879D01*
X112757555Y-104569308D01*
X112714290Y-104526043D01*
X112703500Y-104481098D01*
X112703500Y-101702900D01*
X112722407Y-101644709D01*
X112732490Y-101632902D01*
X115798480Y-98566913D01*
X115851207Y-98475588D01*
X115878500Y-98373727D01*
X115878500Y-98268273D01*
X115878500Y-97940000D01*
X116354571Y-97940000D01*
X116374244Y-98152311D01*
X116379929Y-98172290D01*
X116429442Y-98346309D01*
X116432596Y-98357391D01*
X116491450Y-98475588D01*
X116527634Y-98548255D01*
X116656128Y-98718407D01*
X116656135Y-98718413D01*
X116813692Y-98862047D01*
X116813699Y-98862053D01*
X116917389Y-98926255D01*
X116994981Y-98974298D01*
X117193802Y-99051321D01*
X117403390Y-99090500D01*
X117616610Y-99090500D01*
X117826198Y-99051321D01*
X118025019Y-98974298D01*
X118206302Y-98862052D01*
X118363872Y-98718407D01*
X118492366Y-98548255D01*
X118587405Y-98357389D01*
X118645756Y-98152310D01*
X118665429Y-97940000D01*
X118645756Y-97727690D01*
X118587405Y-97522611D01*
X118492366Y-97331745D01*
X118363872Y-97161593D01*
X118309623Y-97112139D01*
X118206307Y-97017952D01*
X118206300Y-97017946D01*
X118025024Y-96905705D01*
X118025019Y-96905702D01*
X117826195Y-96828678D01*
X117616610Y-96789500D01*
X117403390Y-96789500D01*
X117193804Y-96828678D01*
X116994980Y-96905702D01*
X116994975Y-96905705D01*
X116813699Y-97017946D01*
X116813692Y-97017952D01*
X116656135Y-97161586D01*
X116656131Y-97161589D01*
X116656128Y-97161593D01*
X116656125Y-97161597D01*
X116527635Y-97331743D01*
X116527630Y-97331752D01*
X116432596Y-97522608D01*
X116374244Y-97727688D01*
X116354571Y-97940000D01*
X115878500Y-97940000D01*
X115878500Y-95400000D01*
X116354571Y-95400000D01*
X116374244Y-95612311D01*
X116387446Y-95658709D01*
X116432595Y-95817389D01*
X116527634Y-96008255D01*
X116656128Y-96178407D01*
X116656135Y-96178413D01*
X116813692Y-96322047D01*
X116813699Y-96322053D01*
X116917389Y-96386255D01*
X116994981Y-96434298D01*
X117193802Y-96511321D01*
X117403390Y-96550500D01*
X117616610Y-96550500D01*
X117826198Y-96511321D01*
X118025019Y-96434298D01*
X118206302Y-96322052D01*
X118363872Y-96178407D01*
X118492366Y-96008255D01*
X118587405Y-95817389D01*
X118645756Y-95612310D01*
X118665429Y-95400000D01*
X118645756Y-95187690D01*
X118587405Y-94982611D01*
X118492366Y-94791745D01*
X118363872Y-94621593D01*
X118296132Y-94559839D01*
X118206307Y-94477952D01*
X118206300Y-94477946D01*
X118025024Y-94365705D01*
X118025019Y-94365702D01*
X117826195Y-94288678D01*
X117616610Y-94249500D01*
X117403390Y-94249500D01*
X117193804Y-94288678D01*
X116994980Y-94365702D01*
X116994975Y-94365705D01*
X116813699Y-94477946D01*
X116813692Y-94477952D01*
X116656135Y-94621586D01*
X116656131Y-94621589D01*
X116656128Y-94621593D01*
X116656125Y-94621597D01*
X116527635Y-94791743D01*
X116527630Y-94791752D01*
X116432596Y-94982608D01*
X116374244Y-95187688D01*
X116354571Y-95400000D01*
X115878500Y-95400000D01*
X115878500Y-92860000D01*
X116354571Y-92860000D01*
X116374244Y-93072310D01*
X116432595Y-93277389D01*
X116527634Y-93468255D01*
X116656128Y-93638407D01*
X116701897Y-93680131D01*
X116813692Y-93782047D01*
X116813699Y-93782053D01*
X116889058Y-93828713D01*
X116994981Y-93894298D01*
X117193802Y-93971321D01*
X117403390Y-94010500D01*
X117616610Y-94010500D01*
X117826198Y-93971321D01*
X118025019Y-93894298D01*
X118206302Y-93782052D01*
X118290426Y-93705361D01*
X118346166Y-93680131D01*
X118406092Y-93692483D01*
X118427126Y-93708519D01*
X120199331Y-95480724D01*
X120227108Y-95535241D01*
X120227905Y-95541592D01*
X120233603Y-95603084D01*
X120249430Y-95658708D01*
X120289418Y-95799250D01*
X120380327Y-95981821D01*
X120503236Y-96144579D01*
X120653959Y-96281981D01*
X120827363Y-96389348D01*
X121017544Y-96463024D01*
X121218024Y-96500500D01*
X121421976Y-96500500D01*
X121622456Y-96463024D01*
X121812637Y-96389348D01*
X121986041Y-96281981D01*
X122136764Y-96144579D01*
X122259673Y-95981821D01*
X122350582Y-95799250D01*
X122406397Y-95603083D01*
X122425215Y-95400000D01*
X122406397Y-95196917D01*
X122350582Y-95000750D01*
X122259673Y-94818179D01*
X122136764Y-94655421D01*
X121986041Y-94518019D01*
X121812637Y-94410652D01*
X121622456Y-94336976D01*
X121622455Y-94336975D01*
X121622453Y-94336975D01*
X121421976Y-94299500D01*
X121218024Y-94299500D01*
X121017546Y-94336975D01*
X120995334Y-94345580D01*
X120827363Y-94410652D01*
X120718670Y-94477952D01*
X120653956Y-94518021D01*
X120574964Y-94590031D01*
X120519223Y-94615260D01*
X120459297Y-94602907D01*
X120438265Y-94586872D01*
X118686009Y-92834616D01*
X118658232Y-92780099D01*
X118657438Y-92773773D01*
X118645756Y-92647690D01*
X118587405Y-92442611D01*
X118492366Y-92251745D01*
X118363872Y-92081593D01*
X118280133Y-92005254D01*
X118206307Y-91937952D01*
X118206300Y-91937946D01*
X118025024Y-91825705D01*
X118025019Y-91825702D01*
X117826195Y-91748678D01*
X117616610Y-91709500D01*
X117403390Y-91709500D01*
X117193804Y-91748678D01*
X116994980Y-91825702D01*
X116994975Y-91825705D01*
X116813699Y-91937946D01*
X116813692Y-91937952D01*
X116656135Y-92081586D01*
X116656131Y-92081589D01*
X116656128Y-92081593D01*
X116656125Y-92081597D01*
X116527635Y-92251743D01*
X116527630Y-92251752D01*
X116432596Y-92442608D01*
X116374244Y-92647688D01*
X116374244Y-92647690D01*
X116354571Y-92860000D01*
X115878500Y-92860000D01*
X115878500Y-78080899D01*
X115897407Y-78022708D01*
X115907490Y-78010902D01*
X116200685Y-77717706D01*
X116255200Y-77689930D01*
X116315632Y-77699501D01*
X116358897Y-77742766D01*
X116369264Y-77778575D01*
X116374244Y-77832310D01*
X116432595Y-78037389D01*
X116527634Y-78228255D01*
X116656128Y-78398407D01*
X116656135Y-78398413D01*
X116813692Y-78542047D01*
X116813699Y-78542053D01*
X116839542Y-78558054D01*
X116994981Y-78654298D01*
X117193802Y-78731321D01*
X117403390Y-78770500D01*
X117616610Y-78770500D01*
X117826198Y-78731321D01*
X117930908Y-78690755D01*
X117991998Y-78687366D01*
X118036674Y-78713067D01*
X118534087Y-79210480D01*
X118534089Y-79210481D01*
X118534090Y-79210482D01*
X118534091Y-79210483D01*
X118625408Y-79263205D01*
X118625406Y-79263205D01*
X118625410Y-79263206D01*
X118625412Y-79263207D01*
X118727273Y-79290500D01*
X120398754Y-79290500D01*
X120456945Y-79309407D01*
X120492909Y-79358907D01*
X120492909Y-79420093D01*
X120477760Y-79449155D01*
X120408783Y-79540496D01*
X120380328Y-79578177D01*
X120380323Y-79578186D01*
X120289419Y-79760747D01*
X120233603Y-79956917D01*
X120225221Y-80047377D01*
X120201025Y-80103575D01*
X120148417Y-80134818D01*
X120087493Y-80129172D01*
X120056640Y-80108246D01*
X119787913Y-79839520D01*
X119787908Y-79839516D01*
X119696591Y-79786794D01*
X119696593Y-79786794D01*
X119657070Y-79776204D01*
X119594727Y-79759500D01*
X119594725Y-79759500D01*
X118657113Y-79759500D01*
X118598922Y-79740593D01*
X118568492Y-79704628D01*
X118492369Y-79551752D01*
X118492366Y-79551745D01*
X118363872Y-79381593D01*
X118269902Y-79295927D01*
X118206307Y-79237952D01*
X118206300Y-79237946D01*
X118025024Y-79125705D01*
X118025019Y-79125702D01*
X117826195Y-79048678D01*
X117616610Y-79009500D01*
X117403390Y-79009500D01*
X117193804Y-79048678D01*
X116994980Y-79125702D01*
X116994975Y-79125705D01*
X116813699Y-79237946D01*
X116813692Y-79237952D01*
X116656135Y-79381586D01*
X116656131Y-79381589D01*
X116656128Y-79381593D01*
X116656125Y-79381597D01*
X116527635Y-79551743D01*
X116527630Y-79551752D01*
X116432596Y-79742608D01*
X116374244Y-79947688D01*
X116360113Y-80100195D01*
X116354571Y-80160000D01*
X116374244Y-80372310D01*
X116432595Y-80577389D01*
X116527634Y-80768255D01*
X116656128Y-80938407D01*
X116726734Y-81002773D01*
X116813692Y-81082047D01*
X116813699Y-81082053D01*
X116858060Y-81109520D01*
X116994981Y-81194298D01*
X117193802Y-81271321D01*
X117403390Y-81310500D01*
X117616610Y-81310500D01*
X117826198Y-81271321D01*
X118025019Y-81194298D01*
X118206302Y-81082052D01*
X118363872Y-80938407D01*
X118492366Y-80768255D01*
X118568492Y-80615372D01*
X118611354Y-80571710D01*
X118657113Y-80560500D01*
X119335099Y-80560500D01*
X119393290Y-80579407D01*
X119405103Y-80589496D01*
X120566087Y-81750480D01*
X120566089Y-81750481D01*
X120570008Y-81754400D01*
X120597785Y-81808917D01*
X120588214Y-81869349D01*
X120566700Y-81897565D01*
X120503239Y-81955417D01*
X120380328Y-82118177D01*
X120380323Y-82118186D01*
X120298450Y-82282611D01*
X120289418Y-82300750D01*
X120233603Y-82496917D01*
X120219026Y-82654237D01*
X120214451Y-82703607D01*
X120190255Y-82759805D01*
X120137648Y-82791048D01*
X120076723Y-82785402D01*
X120045870Y-82764476D01*
X119660913Y-82379520D01*
X119660908Y-82379516D01*
X119569591Y-82326794D01*
X119569593Y-82326794D01*
X119530070Y-82316204D01*
X119467727Y-82299500D01*
X119467725Y-82299500D01*
X118657113Y-82299500D01*
X118598922Y-82280593D01*
X118568492Y-82244628D01*
X118545719Y-82198893D01*
X118492366Y-82091745D01*
X118363872Y-81921593D01*
X118279185Y-81844390D01*
X118206307Y-81777952D01*
X118206300Y-81777946D01*
X118025024Y-81665705D01*
X118025019Y-81665702D01*
X117826195Y-81588678D01*
X117616610Y-81549500D01*
X117403390Y-81549500D01*
X117193804Y-81588678D01*
X116994980Y-81665702D01*
X116994975Y-81665705D01*
X116813699Y-81777946D01*
X116813692Y-81777952D01*
X116656135Y-81921586D01*
X116656131Y-81921589D01*
X116656128Y-81921593D01*
X116656125Y-81921597D01*
X116527635Y-82091743D01*
X116527630Y-82091752D01*
X116432596Y-82282608D01*
X116374244Y-82487688D01*
X116354571Y-82700000D01*
X116359366Y-82751753D01*
X116374244Y-82912310D01*
X116432595Y-83117389D01*
X116527634Y-83308255D01*
X116656128Y-83478407D01*
X116721399Y-83537910D01*
X116813692Y-83622047D01*
X116813699Y-83622053D01*
X116910415Y-83681937D01*
X116994981Y-83734298D01*
X117193802Y-83811321D01*
X117403390Y-83850500D01*
X117616610Y-83850500D01*
X117826198Y-83811321D01*
X118025019Y-83734298D01*
X118206302Y-83622052D01*
X118363872Y-83478407D01*
X118492366Y-83308255D01*
X118568492Y-83155372D01*
X118611354Y-83111710D01*
X118657113Y-83100500D01*
X119208099Y-83100500D01*
X119266290Y-83119407D01*
X119278103Y-83129496D01*
X120439087Y-84290480D01*
X120439089Y-84290481D01*
X120439090Y-84290482D01*
X120439091Y-84290483D01*
X120498756Y-84324931D01*
X120539697Y-84370400D01*
X120546093Y-84431251D01*
X120515953Y-84483827D01*
X120503236Y-84495421D01*
X120463750Y-84547709D01*
X120380328Y-84658177D01*
X120380323Y-84658186D01*
X120289419Y-84840747D01*
X120233603Y-85036917D01*
X120225221Y-85127377D01*
X120201025Y-85183575D01*
X120148417Y-85214818D01*
X120087493Y-85209172D01*
X120056640Y-85188246D01*
X119787913Y-84919520D01*
X119787908Y-84919516D01*
X119696591Y-84866794D01*
X119696593Y-84866794D01*
X119657070Y-84856204D01*
X119594727Y-84839500D01*
X119594725Y-84839500D01*
X118657113Y-84839500D01*
X118598922Y-84820593D01*
X118568492Y-84784628D01*
X118492369Y-84631752D01*
X118492366Y-84631745D01*
X118363872Y-84461593D01*
X118279185Y-84384390D01*
X118206307Y-84317952D01*
X118206300Y-84317946D01*
X118025024Y-84205705D01*
X118025019Y-84205702D01*
X117826195Y-84128678D01*
X117616610Y-84089500D01*
X117403390Y-84089500D01*
X117193804Y-84128678D01*
X116994980Y-84205702D01*
X116994975Y-84205705D01*
X116813699Y-84317946D01*
X116813692Y-84317952D01*
X116656135Y-84461586D01*
X116656131Y-84461589D01*
X116656128Y-84461593D01*
X116656125Y-84461597D01*
X116527635Y-84631743D01*
X116527630Y-84631752D01*
X116432596Y-84822608D01*
X116374244Y-85027688D01*
X116354571Y-85240000D01*
X116372296Y-85431293D01*
X116374244Y-85452310D01*
X116432595Y-85657389D01*
X116527634Y-85848255D01*
X116656128Y-86018407D01*
X116726734Y-86082773D01*
X116813692Y-86162047D01*
X116813699Y-86162053D01*
X116858060Y-86189520D01*
X116994981Y-86274298D01*
X117193802Y-86351321D01*
X117403390Y-86390500D01*
X117616610Y-86390500D01*
X117826198Y-86351321D01*
X118025019Y-86274298D01*
X118206302Y-86162052D01*
X118363872Y-86018407D01*
X118492366Y-85848255D01*
X118568492Y-85695372D01*
X118611354Y-85651710D01*
X118657113Y-85640500D01*
X119335099Y-85640500D01*
X119393290Y-85659407D01*
X119405103Y-85669496D01*
X120566087Y-86830480D01*
X120566089Y-86830481D01*
X120570008Y-86834400D01*
X120597785Y-86888917D01*
X120588214Y-86949349D01*
X120566700Y-86977565D01*
X120503239Y-87035417D01*
X120380328Y-87198177D01*
X120380323Y-87198186D01*
X120298450Y-87362611D01*
X120289418Y-87380750D01*
X120233603Y-87576917D01*
X120214785Y-87780000D01*
X120233603Y-87983083D01*
X120236228Y-87992310D01*
X120289419Y-88179252D01*
X120376583Y-88354303D01*
X120380327Y-88361821D01*
X120477759Y-88490842D01*
X120497737Y-88548670D01*
X120479908Y-88607201D01*
X120431082Y-88644073D01*
X120398754Y-88649500D01*
X118986901Y-88649500D01*
X118928710Y-88630593D01*
X118916897Y-88620504D01*
X118606650Y-88310257D01*
X118578873Y-88255740D01*
X118587111Y-88202182D01*
X118585752Y-88201656D01*
X118587400Y-88197398D01*
X118587405Y-88197389D01*
X118645756Y-87992310D01*
X118665429Y-87780000D01*
X118645756Y-87567690D01*
X118587405Y-87362611D01*
X118492366Y-87171745D01*
X118363872Y-87001593D01*
X118306563Y-86949349D01*
X118206307Y-86857952D01*
X118206300Y-86857946D01*
X118025024Y-86745705D01*
X118025019Y-86745702D01*
X117826195Y-86668678D01*
X117616610Y-86629500D01*
X117403390Y-86629500D01*
X117193804Y-86668678D01*
X116994980Y-86745702D01*
X116994975Y-86745705D01*
X116813699Y-86857946D01*
X116813692Y-86857952D01*
X116656135Y-87001586D01*
X116656131Y-87001589D01*
X116656128Y-87001593D01*
X116656125Y-87001597D01*
X116527635Y-87171743D01*
X116527630Y-87171752D01*
X116432596Y-87362608D01*
X116374244Y-87567688D01*
X116354571Y-87780000D01*
X116359366Y-87831753D01*
X116374244Y-87992310D01*
X116432595Y-88197389D01*
X116527634Y-88388255D01*
X116656128Y-88558407D01*
X116656135Y-88558413D01*
X116813692Y-88702047D01*
X116813699Y-88702053D01*
X116837673Y-88716897D01*
X116994981Y-88814298D01*
X117193802Y-88891321D01*
X117403390Y-88930500D01*
X117616610Y-88930500D01*
X117826198Y-88891321D01*
X117930908Y-88850755D01*
X117991998Y-88847366D01*
X118036674Y-88873067D01*
X118534087Y-89370480D01*
X118534089Y-89370481D01*
X118534090Y-89370482D01*
X118534091Y-89370483D01*
X118625408Y-89423205D01*
X118625406Y-89423205D01*
X118625410Y-89423206D01*
X118625412Y-89423207D01*
X118727273Y-89450500D01*
X118832727Y-89450500D01*
X120398754Y-89450500D01*
X120456945Y-89469407D01*
X120492909Y-89518907D01*
X120492909Y-89580093D01*
X120477760Y-89609155D01*
X120408783Y-89700496D01*
X120380328Y-89738177D01*
X120380323Y-89738186D01*
X120289419Y-89920747D01*
X120233603Y-90116917D01*
X120225221Y-90207377D01*
X120201025Y-90263575D01*
X120148417Y-90294818D01*
X120087493Y-90289172D01*
X120056640Y-90268246D01*
X119787913Y-89999520D01*
X119787908Y-89999516D01*
X119696591Y-89946794D01*
X119696593Y-89946794D01*
X119657070Y-89936204D01*
X119594727Y-89919500D01*
X119594725Y-89919500D01*
X118657113Y-89919500D01*
X118598922Y-89900593D01*
X118568492Y-89864628D01*
X118492369Y-89711752D01*
X118492366Y-89711745D01*
X118363872Y-89541593D01*
X118284688Y-89469407D01*
X118206307Y-89397952D01*
X118206300Y-89397946D01*
X118025024Y-89285705D01*
X118025019Y-89285702D01*
X117826195Y-89208678D01*
X117616610Y-89169500D01*
X117403390Y-89169500D01*
X117193804Y-89208678D01*
X116994980Y-89285702D01*
X116994975Y-89285705D01*
X116813699Y-89397946D01*
X116813692Y-89397952D01*
X116656135Y-89541586D01*
X116656131Y-89541589D01*
X116656128Y-89541593D01*
X116656125Y-89541597D01*
X116527635Y-89711743D01*
X116527630Y-89711752D01*
X116432596Y-89902608D01*
X116374244Y-90107688D01*
X116374244Y-90107690D01*
X116354571Y-90320000D01*
X116374244Y-90532310D01*
X116432595Y-90737389D01*
X116527634Y-90928255D01*
X116656128Y-91098407D01*
X116656135Y-91098413D01*
X116813692Y-91242047D01*
X116813699Y-91242053D01*
X116858057Y-91269518D01*
X116994981Y-91354298D01*
X117193802Y-91431321D01*
X117403390Y-91470500D01*
X117616610Y-91470500D01*
X117826198Y-91431321D01*
X118025019Y-91354298D01*
X118206302Y-91242052D01*
X118363872Y-91098407D01*
X118492366Y-90928255D01*
X118568492Y-90775372D01*
X118611354Y-90731710D01*
X118657113Y-90720500D01*
X119335099Y-90720500D01*
X119393290Y-90739407D01*
X119405103Y-90749496D01*
X120566087Y-91910480D01*
X120566089Y-91910481D01*
X120570008Y-91914400D01*
X120597785Y-91968917D01*
X120588214Y-92029349D01*
X120566700Y-92057565D01*
X120503239Y-92115417D01*
X120380328Y-92278177D01*
X120380323Y-92278186D01*
X120298450Y-92442611D01*
X120289418Y-92460750D01*
X120233603Y-92656917D01*
X120214785Y-92860000D01*
X120233603Y-93063083D01*
X120289418Y-93259250D01*
X120380327Y-93441821D01*
X120503236Y-93604579D01*
X120653959Y-93741981D01*
X120827363Y-93849348D01*
X121017544Y-93923024D01*
X121218024Y-93960500D01*
X121421976Y-93960500D01*
X121622456Y-93923024D01*
X121812637Y-93849348D01*
X121986041Y-93741981D01*
X122136764Y-93604579D01*
X122259673Y-93441821D01*
X122350582Y-93259250D01*
X122406397Y-93063083D01*
X122425215Y-92860000D01*
X122425044Y-92858163D01*
X122425215Y-92857408D01*
X122425215Y-92855423D01*
X122425662Y-92855423D01*
X122438495Y-92798479D01*
X122484461Y-92758095D01*
X122545384Y-92752443D01*
X122593625Y-92779017D01*
X122668504Y-92853896D01*
X122696281Y-92908413D01*
X122697500Y-92923900D01*
X122697500Y-95955099D01*
X122678593Y-96013290D01*
X122668504Y-96025103D01*
X121808026Y-96885580D01*
X121753509Y-96913357D01*
X121702260Y-96907891D01*
X121622456Y-96876976D01*
X121421976Y-96839500D01*
X121218024Y-96839500D01*
X121017546Y-96876975D01*
X120963543Y-96897896D01*
X120827363Y-96950652D01*
X120653959Y-97058019D01*
X120503237Y-97195420D01*
X120380328Y-97358177D01*
X120380323Y-97358186D01*
X120298450Y-97522611D01*
X120289418Y-97540750D01*
X120233603Y-97736917D01*
X120214785Y-97940000D01*
X120233603Y-98143083D01*
X120289418Y-98339250D01*
X120380327Y-98521821D01*
X120503236Y-98684579D01*
X120653959Y-98821981D01*
X120827363Y-98929348D01*
X121017544Y-99003024D01*
X121218024Y-99040500D01*
X121421976Y-99040500D01*
X121622456Y-99003024D01*
X121812637Y-98929348D01*
X121986041Y-98821981D01*
X122136764Y-98684579D01*
X122259673Y-98521821D01*
X122350582Y-98339250D01*
X122406397Y-98143083D01*
X122425215Y-97940000D01*
X122406397Y-97736917D01*
X122352118Y-97546148D01*
X122354379Y-97485010D01*
X122377333Y-97449058D01*
X122928496Y-96897896D01*
X122983013Y-96870119D01*
X123043445Y-96879690D01*
X123086710Y-96922955D01*
X123097500Y-96967900D01*
X123097500Y-98095098D01*
X123078593Y-98153289D01*
X123068504Y-98165102D01*
X121808025Y-99425580D01*
X121753508Y-99453357D01*
X121702259Y-99447891D01*
X121622460Y-99416977D01*
X121622447Y-99416974D01*
X121421976Y-99379500D01*
X121218024Y-99379500D01*
X121017546Y-99416975D01*
X121017541Y-99416977D01*
X120827363Y-99490652D01*
X120718676Y-99557948D01*
X120653959Y-99598019D01*
X120503237Y-99735420D01*
X120380328Y-99898177D01*
X120380323Y-99898186D01*
X120298450Y-100062611D01*
X120289418Y-100080750D01*
X120233603Y-100276917D01*
X120214785Y-100480000D01*
X120233603Y-100683083D01*
X120289418Y-100879250D01*
X120380327Y-101061821D01*
X120503236Y-101224579D01*
X120653959Y-101361981D01*
X120827363Y-101469348D01*
X121017544Y-101543024D01*
X121218024Y-101580500D01*
X121421976Y-101580500D01*
X121622456Y-101543024D01*
X121812637Y-101469348D01*
X121986041Y-101361981D01*
X122136764Y-101224579D01*
X122259673Y-101061821D01*
X122350582Y-100879250D01*
X122406397Y-100683083D01*
X122425215Y-100480000D01*
X122406397Y-100276917D01*
X122352118Y-100086148D01*
X122354379Y-100025010D01*
X122377333Y-99989058D01*
X123328497Y-99037895D01*
X123383013Y-99010119D01*
X123443445Y-99019690D01*
X123486710Y-99062955D01*
X123497500Y-99107900D01*
X123497500Y-100235098D01*
X123478593Y-100293289D01*
X123468504Y-100305102D01*
X121808025Y-101965580D01*
X121753508Y-101993357D01*
X121702259Y-101987891D01*
X121622460Y-101956977D01*
X121622447Y-101956974D01*
X121421976Y-101919500D01*
X121218024Y-101919500D01*
X121017546Y-101956975D01*
X121017541Y-101956977D01*
X120827363Y-102030652D01*
X120718676Y-102097948D01*
X120653959Y-102138019D01*
X120503237Y-102275420D01*
X120380328Y-102438177D01*
X120380323Y-102438186D01*
X120298450Y-102602611D01*
X120289418Y-102620750D01*
X120233603Y-102816917D01*
X120214785Y-103020000D01*
X120233603Y-103223083D01*
X120289418Y-103419250D01*
X120380327Y-103601821D01*
X120503236Y-103764579D01*
X120653959Y-103901981D01*
X120827363Y-104009348D01*
X121017544Y-104083024D01*
X121218024Y-104120500D01*
X121421976Y-104120500D01*
X121622456Y-104083024D01*
X121812637Y-104009348D01*
X121986041Y-103901981D01*
X122136764Y-103764579D01*
X122259673Y-103601821D01*
X122350582Y-103419250D01*
X122406397Y-103223083D01*
X122425215Y-103020000D01*
X122406397Y-102816917D01*
X122352118Y-102626148D01*
X122354379Y-102565010D01*
X122377333Y-102529058D01*
X123728496Y-101177896D01*
X123783013Y-101150119D01*
X123843445Y-101159690D01*
X123886710Y-101202955D01*
X123897500Y-101247900D01*
X123897500Y-104915098D01*
X123878593Y-104973289D01*
X123868504Y-104985102D01*
X121808025Y-107045580D01*
X121753508Y-107073357D01*
X121702259Y-107067891D01*
X121622460Y-107036977D01*
X121622447Y-107036974D01*
X121421976Y-106999500D01*
X121218024Y-106999500D01*
X121017546Y-107036975D01*
X121017541Y-107036977D01*
X120827363Y-107110652D01*
X120718676Y-107177948D01*
X120653959Y-107218019D01*
X120503237Y-107355420D01*
X120380328Y-107518177D01*
X120380323Y-107518186D01*
X120298450Y-107682611D01*
X120289418Y-107700750D01*
X120233603Y-107896917D01*
X120214785Y-108100000D01*
X120233603Y-108303083D01*
X120289418Y-108499250D01*
X120380327Y-108681821D01*
X120503236Y-108844579D01*
X120653959Y-108981981D01*
X120827363Y-109089348D01*
X121017544Y-109163024D01*
X121218024Y-109200500D01*
X121421976Y-109200500D01*
X121622456Y-109163024D01*
X121812637Y-109089348D01*
X121986041Y-108981981D01*
X122136764Y-108844579D01*
X122259673Y-108681821D01*
X122350582Y-108499250D01*
X122406397Y-108303083D01*
X122425215Y-108100000D01*
X122406397Y-107896917D01*
X122352118Y-107706148D01*
X122354379Y-107645010D01*
X122377333Y-107609058D01*
X124128497Y-105857895D01*
X124183013Y-105830119D01*
X124243445Y-105839690D01*
X124286710Y-105882955D01*
X124297500Y-105927900D01*
X124297500Y-107055098D01*
X124278593Y-107113289D01*
X124268504Y-107125102D01*
X121808025Y-109585580D01*
X121753508Y-109613357D01*
X121702259Y-109607891D01*
X121622460Y-109576977D01*
X121622447Y-109576974D01*
X121421976Y-109539500D01*
X121218024Y-109539500D01*
X121017546Y-109576975D01*
X121017541Y-109576977D01*
X120827363Y-109650652D01*
X120718676Y-109717948D01*
X120653959Y-109758019D01*
X120503237Y-109895420D01*
X120380328Y-110058177D01*
X120380323Y-110058186D01*
X120298450Y-110222611D01*
X120289418Y-110240750D01*
X120233603Y-110436917D01*
X120214785Y-110640000D01*
X120233603Y-110843083D01*
X120289418Y-111039250D01*
X120380327Y-111221821D01*
X120503236Y-111384579D01*
X120653959Y-111521981D01*
X120827363Y-111629348D01*
X121017544Y-111703024D01*
X121218024Y-111740500D01*
X121421976Y-111740500D01*
X121622456Y-111703024D01*
X121812637Y-111629348D01*
X121986041Y-111521981D01*
X122136764Y-111384579D01*
X122259673Y-111221821D01*
X122350582Y-111039250D01*
X122406397Y-110843083D01*
X122425215Y-110640000D01*
X122406397Y-110436917D01*
X122352118Y-110246148D01*
X122354379Y-110185010D01*
X122377333Y-110149058D01*
X124528497Y-107997895D01*
X124583013Y-107970119D01*
X124643445Y-107979690D01*
X124686710Y-108022955D01*
X124697500Y-108067900D01*
X124697500Y-109195098D01*
X124678593Y-109253289D01*
X124668504Y-109265102D01*
X121808025Y-112125580D01*
X121753508Y-112153357D01*
X121702259Y-112147891D01*
X121622460Y-112116977D01*
X121622447Y-112116974D01*
X121421976Y-112079500D01*
X121218024Y-112079500D01*
X121017546Y-112116975D01*
X120947632Y-112144059D01*
X120827363Y-112190652D01*
X120718676Y-112257948D01*
X120653959Y-112298019D01*
X120503237Y-112435420D01*
X120380328Y-112598177D01*
X120380323Y-112598186D01*
X120298450Y-112762611D01*
X120289418Y-112780750D01*
X120233603Y-112976917D01*
X120214785Y-113180000D01*
X120233603Y-113383083D01*
X120289418Y-113579250D01*
X120380327Y-113761821D01*
X120503236Y-113924579D01*
X120653959Y-114061981D01*
X120827363Y-114169348D01*
X121017544Y-114243024D01*
X121218024Y-114280500D01*
X121421976Y-114280500D01*
X121622456Y-114243024D01*
X121812637Y-114169348D01*
X121986041Y-114061981D01*
X122136764Y-113924579D01*
X122259673Y-113761821D01*
X122350582Y-113579250D01*
X122406397Y-113383083D01*
X122425215Y-113180000D01*
X122406397Y-112976917D01*
X122352118Y-112786148D01*
X122354379Y-112725010D01*
X122377333Y-112689058D01*
X125418480Y-109647913D01*
X125442851Y-109605702D01*
X125471205Y-109556592D01*
X125471205Y-109556590D01*
X125471207Y-109556588D01*
X125498500Y-109454727D01*
X125498500Y-109349273D01*
X125498500Y-81980273D01*
X125471207Y-81878413D01*
X125471207Y-81878412D01*
X125471207Y-81878411D01*
X125418483Y-81787091D01*
X125418481Y-81787089D01*
X125418480Y-81787087D01*
X122200913Y-78569520D01*
X122200910Y-78569518D01*
X122141242Y-78535068D01*
X122100302Y-78489598D01*
X122093907Y-78428748D01*
X122124047Y-78376171D01*
X122136764Y-78364579D01*
X122259673Y-78201821D01*
X122350582Y-78019250D01*
X122406397Y-77823083D01*
X122425215Y-77620000D01*
X122406397Y-77416917D01*
X122350582Y-77220750D01*
X122259673Y-77038179D01*
X122136764Y-76875421D01*
X121986041Y-76738019D01*
X121812637Y-76630652D01*
X121622456Y-76556976D01*
X121622455Y-76556975D01*
X121622453Y-76556975D01*
X121421976Y-76519500D01*
X121218024Y-76519500D01*
X121017546Y-76556975D01*
X120993055Y-76566463D01*
X120827363Y-76630652D01*
X120677881Y-76723207D01*
X120653959Y-76738019D01*
X120503237Y-76875420D01*
X120380328Y-77038177D01*
X120380323Y-77038186D01*
X120298450Y-77202611D01*
X120289418Y-77220750D01*
X120233603Y-77416917D01*
X120214785Y-77620000D01*
X120233603Y-77823083D01*
X120289418Y-78019250D01*
X120380327Y-78201821D01*
X120477759Y-78330842D01*
X120497737Y-78388670D01*
X120479908Y-78447201D01*
X120431082Y-78484073D01*
X120398754Y-78489500D01*
X118986901Y-78489500D01*
X118928710Y-78470593D01*
X118916897Y-78460504D01*
X118606650Y-78150257D01*
X118578873Y-78095740D01*
X118587111Y-78042182D01*
X118585752Y-78041656D01*
X118587400Y-78037398D01*
X118587405Y-78037389D01*
X118645756Y-77832310D01*
X118665429Y-77620000D01*
X118645756Y-77407690D01*
X118587405Y-77202611D01*
X118492366Y-77011745D01*
X118414896Y-76909159D01*
X118394918Y-76851330D01*
X118412747Y-76792799D01*
X118461573Y-76755927D01*
X118493901Y-76750500D01*
X120102725Y-76750500D01*
X120102727Y-76750500D01*
X120204588Y-76723207D01*
X120204590Y-76723205D01*
X120204592Y-76723205D01*
X120295908Y-76670483D01*
X120295908Y-76670482D01*
X120295913Y-76670480D01*
X120831975Y-76134416D01*
X120886490Y-76106641D01*
X120937735Y-76112106D01*
X121017544Y-76143024D01*
X121218024Y-76180500D01*
X121421976Y-76180500D01*
X121622456Y-76143024D01*
X121812637Y-76069348D01*
X121986041Y-75961981D01*
X122136764Y-75824579D01*
X122259673Y-75661821D01*
X122350582Y-75479250D01*
X122406397Y-75283083D01*
X122425215Y-75080000D01*
X122406397Y-74876917D01*
X122350582Y-74680750D01*
X122259673Y-74498179D01*
X122136764Y-74335421D01*
X121986041Y-74198019D01*
X121812637Y-74090652D01*
X121622456Y-74016976D01*
X121622455Y-74016975D01*
X121622453Y-74016975D01*
X121421976Y-73979500D01*
X121218024Y-73979500D01*
X121017546Y-74016975D01*
X120989619Y-74027794D01*
X120827363Y-74090652D01*
X120679548Y-74182175D01*
X120653959Y-74198019D01*
X120503237Y-74335420D01*
X120380328Y-74498177D01*
X120380323Y-74498186D01*
X120289419Y-74680747D01*
X120289418Y-74680750D01*
X120246952Y-74830000D01*
X120233603Y-74876917D01*
X120214785Y-75080000D01*
X120233603Y-75283084D01*
X120287880Y-75473847D01*
X120285619Y-75534990D01*
X120262663Y-75570942D01*
X119913104Y-75920503D01*
X119858587Y-75948281D01*
X119843100Y-75949500D01*
X118959000Y-75949500D01*
X118900809Y-75930593D01*
X118864845Y-75881093D01*
X118860000Y-75850500D01*
X118860000Y-75330001D01*
X118859999Y-75330000D01*
X117943012Y-75330000D01*
X117975925Y-75272993D01*
X118010000Y-75145826D01*
X118010000Y-75014174D01*
X117975925Y-74887007D01*
X117943012Y-74830000D01*
X118859999Y-74830000D01*
X118860000Y-74829999D01*
X118860000Y-74182175D01*
X118853598Y-74122629D01*
X118853596Y-74122618D01*
X118803353Y-73987911D01*
X118803352Y-73987909D01*
X118717192Y-73872815D01*
X118717184Y-73872807D01*
X118602090Y-73786647D01*
X118602088Y-73786646D01*
X118467381Y-73736403D01*
X118467370Y-73736401D01*
X118407824Y-73730000D01*
X117760001Y-73730000D01*
X117760000Y-73730001D01*
X117760000Y-74646988D01*
X117702993Y-74614075D01*
X117575826Y-74580000D01*
X117444174Y-74580000D01*
X117317007Y-74614075D01*
X117260000Y-74646988D01*
X117260000Y-73730001D01*
X117259999Y-73730000D01*
X116612176Y-73730000D01*
X116552629Y-73736401D01*
X116552618Y-73736403D01*
X116417911Y-73786646D01*
X116417909Y-73786647D01*
X116302815Y-73872807D01*
X116302807Y-73872815D01*
X116216647Y-73987909D01*
X116216646Y-73987911D01*
X116166403Y-74122618D01*
X116166401Y-74122629D01*
X116160000Y-74182175D01*
X116160000Y-74829999D01*
X116160001Y-74830000D01*
X117076988Y-74830000D01*
X117044075Y-74887007D01*
X117010000Y-75014174D01*
X117010000Y-75145826D01*
X117044075Y-75272993D01*
X117076988Y-75330000D01*
X116160001Y-75330000D01*
X116160000Y-75330001D01*
X116160000Y-75977824D01*
X116159999Y-75977824D01*
X116166401Y-76037370D01*
X116166403Y-76037381D01*
X116216646Y-76172088D01*
X116216647Y-76172090D01*
X116302807Y-76287184D01*
X116302814Y-76287191D01*
X116323211Y-76302460D01*
X116358465Y-76352469D01*
X116357591Y-76413648D01*
X116333887Y-76451717D01*
X115157520Y-77628086D01*
X115157516Y-77628091D01*
X115104793Y-77719411D01*
X115104792Y-77719411D01*
X115104793Y-77719412D01*
X115077500Y-77821273D01*
X115077500Y-93564694D01*
X115058593Y-93622885D01*
X115009093Y-93658849D01*
X114965579Y-93662847D01*
X114878002Y-93651318D01*
X114877999Y-93651318D01*
X114721241Y-93671955D01*
X114721233Y-93671957D01*
X114575161Y-93732462D01*
X114575160Y-93732462D01*
X114449723Y-93828713D01*
X114449713Y-93828723D01*
X114353462Y-93954160D01*
X114353462Y-93954161D01*
X114292957Y-94100233D01*
X114292955Y-94100241D01*
X114272318Y-94256999D01*
X114272318Y-94257000D01*
X114292955Y-94413758D01*
X114292957Y-94413766D01*
X114353462Y-94559838D01*
X114353462Y-94559839D01*
X114453668Y-94690431D01*
X114452283Y-94691493D01*
X114476279Y-94738569D01*
X114477500Y-94754071D01*
X114477500Y-95285098D01*
X114458593Y-95343289D01*
X114448504Y-95355102D01*
X110416673Y-99386932D01*
X110362156Y-99414709D01*
X110310907Y-99409243D01*
X110206198Y-99368679D01*
X110206197Y-99368678D01*
X110206195Y-99368678D01*
X109996610Y-99329500D01*
X109783390Y-99329500D01*
X109573804Y-99368678D01*
X109374980Y-99445702D01*
X109374975Y-99445705D01*
X109193699Y-99557946D01*
X109193692Y-99557952D01*
X109036135Y-99701586D01*
X109036131Y-99701589D01*
X109036128Y-99701593D01*
X109036125Y-99701597D01*
X108907635Y-99871743D01*
X108907630Y-99871752D01*
X108812596Y-100062608D01*
X108754244Y-100267688D01*
X108754244Y-100267690D01*
X108734571Y-100480000D01*
X108754244Y-100692310D01*
X108812595Y-100897389D01*
X108907634Y-101088255D01*
X109036128Y-101258407D01*
X109036135Y-101258413D01*
X109193692Y-101402047D01*
X109193699Y-101402053D01*
X109297389Y-101466255D01*
X109374981Y-101514298D01*
X109573802Y-101591321D01*
X109783390Y-101630500D01*
X109996610Y-101630500D01*
X110206198Y-101591321D01*
X110405019Y-101514298D01*
X110586302Y-101402052D01*
X110743872Y-101258407D01*
X110872366Y-101088255D01*
X110967405Y-100897389D01*
X111025756Y-100692310D01*
X111045429Y-100480000D01*
X111025756Y-100267690D01*
X110967405Y-100062611D01*
X110967401Y-100062604D01*
X110965752Y-100058344D01*
X110967132Y-100057809D01*
X110959019Y-100003364D01*
X110986648Y-99949743D01*
X113601746Y-97334645D01*
X113656261Y-97306870D01*
X113716693Y-97316441D01*
X113759958Y-97359706D01*
X113763212Y-97366765D01*
X113763692Y-97367925D01*
X113810464Y-97480841D01*
X113813663Y-97485010D01*
X113910668Y-97611431D01*
X113909283Y-97612493D01*
X113933279Y-97659569D01*
X113934500Y-97675071D01*
X113934500Y-98368098D01*
X113915593Y-98426289D01*
X113905504Y-98438102D01*
X110416673Y-101926932D01*
X110362156Y-101954709D01*
X110310907Y-101949243D01*
X110206198Y-101908679D01*
X110206197Y-101908678D01*
X110206195Y-101908678D01*
X109996610Y-101869500D01*
X109783390Y-101869500D01*
X109573804Y-101908678D01*
X109374980Y-101985702D01*
X109374975Y-101985705D01*
X109193699Y-102097946D01*
X109193692Y-102097952D01*
X109036135Y-102241586D01*
X109036131Y-102241589D01*
X109036128Y-102241593D01*
X109036125Y-102241597D01*
X108907635Y-102411743D01*
X108907630Y-102411752D01*
X108812596Y-102602608D01*
X108754244Y-102807688D01*
X108754244Y-102807690D01*
X108734571Y-103020000D01*
X108754244Y-103232310D01*
X108812595Y-103437389D01*
X108907634Y-103628255D01*
X109036128Y-103798407D01*
X109036135Y-103798413D01*
X109193692Y-103942047D01*
X109193699Y-103942053D01*
X109297389Y-104006255D01*
X109374981Y-104054298D01*
X109573802Y-104131321D01*
X109783390Y-104170500D01*
X109996610Y-104170500D01*
X110206198Y-104131321D01*
X110405019Y-104054298D01*
X110586302Y-103942052D01*
X110743872Y-103798407D01*
X110872366Y-103628255D01*
X110967405Y-103437389D01*
X111025756Y-103232310D01*
X111045429Y-103020000D01*
X111025756Y-102807690D01*
X110967405Y-102602611D01*
X110967401Y-102602604D01*
X110965752Y-102598344D01*
X110967132Y-102597809D01*
X110959019Y-102543364D01*
X110986648Y-102489743D01*
X111733497Y-101742895D01*
X111788013Y-101715119D01*
X111848445Y-101724690D01*
X111891710Y-101767955D01*
X111902500Y-101812900D01*
X111902500Y-105480098D01*
X111883593Y-105538289D01*
X111873504Y-105550102D01*
X110416673Y-107006932D01*
X110362156Y-107034709D01*
X110310907Y-107029243D01*
X110206198Y-106988679D01*
X110206197Y-106988678D01*
X110206195Y-106988678D01*
X109996610Y-106949500D01*
X109783390Y-106949500D01*
X109573804Y-106988678D01*
X109374980Y-107065702D01*
X109374975Y-107065705D01*
X109193699Y-107177946D01*
X109193692Y-107177952D01*
X109036135Y-107321586D01*
X109036131Y-107321589D01*
X109036128Y-107321593D01*
X109036125Y-107321597D01*
X108907635Y-107491743D01*
X108907630Y-107491752D01*
X108812596Y-107682608D01*
X108754244Y-107887688D01*
X108754244Y-107887689D01*
X108754244Y-107887690D01*
X108734571Y-108100000D01*
X108754244Y-108312310D01*
X108812595Y-108517389D01*
X108907634Y-108708255D01*
X109036128Y-108878407D01*
X109036135Y-108878413D01*
X109040517Y-108882408D01*
X109070780Y-108935584D01*
X109064008Y-108996394D01*
X109023320Y-109041302D01*
X109009089Y-109049518D01*
X107499516Y-110559091D01*
X107446793Y-110650411D01*
X107446792Y-110650411D01*
X107446793Y-110650412D01*
X107419500Y-110752273D01*
X107419500Y-113773099D01*
X107400593Y-113831290D01*
X107390504Y-113843103D01*
X106568026Y-114665580D01*
X106513509Y-114693357D01*
X106462260Y-114687891D01*
X106382456Y-114656976D01*
X106181976Y-114619500D01*
X105978024Y-114619500D01*
X105777546Y-114656975D01*
X105755334Y-114665580D01*
X105587363Y-114730652D01*
X105478676Y-114797948D01*
X105413959Y-114838019D01*
X105263237Y-114975420D01*
X105140328Y-115138177D01*
X105140323Y-115138186D01*
X105058450Y-115302611D01*
X105049418Y-115320750D01*
X104993603Y-115516917D01*
X104974785Y-115720000D01*
X104993603Y-115923083D01*
X105049418Y-116119250D01*
X105140327Y-116301821D01*
X105263236Y-116464579D01*
X105413959Y-116601981D01*
X105587363Y-116709348D01*
X105777544Y-116783024D01*
X105978024Y-116820500D01*
X106181976Y-116820500D01*
X106382456Y-116783024D01*
X106572637Y-116709348D01*
X106746041Y-116601981D01*
X106896764Y-116464579D01*
X107019673Y-116301821D01*
X107110582Y-116119250D01*
X107166397Y-115923083D01*
X107185215Y-115720000D01*
X107166397Y-115516917D01*
X107112118Y-115326148D01*
X107114379Y-115265010D01*
X107137333Y-115229058D01*
X107650496Y-114715896D01*
X107705013Y-114688119D01*
X107765445Y-114697690D01*
X107808710Y-114740955D01*
X107819500Y-114785900D01*
X107819500Y-115913098D01*
X107800593Y-115971289D01*
X107790504Y-115983102D01*
X106568025Y-117205580D01*
X106513508Y-117233357D01*
X106462259Y-117227891D01*
X106382460Y-117196977D01*
X106382447Y-117196974D01*
X106181976Y-117159500D01*
X105978024Y-117159500D01*
X105777546Y-117196975D01*
X105777541Y-117196977D01*
X105587363Y-117270652D01*
X105413959Y-117378019D01*
X105263236Y-117515421D01*
X105236550Y-117550759D01*
X105140328Y-117678177D01*
X105140323Y-117678186D01*
X105058450Y-117842611D01*
X105049418Y-117860750D01*
X104993603Y-118056917D01*
X104974785Y-118260000D01*
X104993603Y-118463083D01*
X105049418Y-118659250D01*
X105140327Y-118841821D01*
X105263236Y-119004579D01*
X105413959Y-119141981D01*
X105587363Y-119249348D01*
X105777544Y-119323024D01*
X105978024Y-119360500D01*
X106181976Y-119360500D01*
X106382456Y-119323024D01*
X106572637Y-119249348D01*
X106746041Y-119141981D01*
X106896764Y-119004579D01*
X107019673Y-118841821D01*
X107110582Y-118659250D01*
X107166397Y-118463083D01*
X107185215Y-118260000D01*
X107166397Y-118056917D01*
X107112118Y-117866148D01*
X107114379Y-117805010D01*
X107137333Y-117769058D01*
X108050497Y-116855895D01*
X108105013Y-116828119D01*
X108165445Y-116837690D01*
X108208710Y-116880955D01*
X108219500Y-116925900D01*
X108219500Y-118053098D01*
X108200593Y-118111289D01*
X108190504Y-118123102D01*
X106568025Y-119745580D01*
X106513508Y-119773357D01*
X106462259Y-119767891D01*
X106382460Y-119736977D01*
X106382447Y-119736974D01*
X106181976Y-119699500D01*
X105978024Y-119699500D01*
X105777546Y-119736975D01*
X105777541Y-119736977D01*
X105587363Y-119810652D01*
X105469850Y-119883413D01*
X105413959Y-119918019D01*
X105362427Y-119964997D01*
X105263236Y-120055421D01*
X105251838Y-120070514D01*
X105140328Y-120218177D01*
X105140323Y-120218186D01*
X105058450Y-120382611D01*
X105049418Y-120400750D01*
X104993603Y-120596917D01*
X104974785Y-120800000D01*
X104993603Y-121003083D01*
X105041409Y-121171102D01*
X105049419Y-121199252D01*
X105129823Y-121360727D01*
X105140327Y-121381821D01*
X105263236Y-121544579D01*
X105413959Y-121681981D01*
X105587363Y-121789348D01*
X105777544Y-121863024D01*
X105978024Y-121900500D01*
X106181976Y-121900500D01*
X106382456Y-121863024D01*
X106572637Y-121789348D01*
X106746041Y-121681981D01*
X106896764Y-121544579D01*
X107019673Y-121381821D01*
X107110582Y-121199250D01*
X107166397Y-121003083D01*
X107185215Y-120800000D01*
X108734571Y-120800000D01*
X108754244Y-121012311D01*
X108771506Y-121072980D01*
X108812595Y-121217389D01*
X108907634Y-121408255D01*
X109036128Y-121578407D01*
X109036135Y-121578413D01*
X109193692Y-121722047D01*
X109193699Y-121722053D01*
X109238057Y-121749518D01*
X109374981Y-121834298D01*
X109573802Y-121911321D01*
X109783390Y-121950500D01*
X109996610Y-121950500D01*
X110206198Y-121911321D01*
X110405019Y-121834298D01*
X110586302Y-121722052D01*
X110743872Y-121578407D01*
X110872366Y-121408255D01*
X110967405Y-121217389D01*
X111025756Y-121012310D01*
X111045429Y-120800000D01*
X111025756Y-120587690D01*
X110967405Y-120382611D01*
X110872366Y-120191745D01*
X110743872Y-120021593D01*
X110668021Y-119952445D01*
X110586307Y-119877952D01*
X110586300Y-119877946D01*
X110405024Y-119765705D01*
X110405019Y-119765702D01*
X110353078Y-119745580D01*
X110206198Y-119688679D01*
X110206197Y-119688678D01*
X110206195Y-119688678D01*
X109996610Y-119649500D01*
X109783390Y-119649500D01*
X109573804Y-119688678D01*
X109374980Y-119765702D01*
X109374975Y-119765705D01*
X109193699Y-119877946D01*
X109193692Y-119877952D01*
X109036135Y-120021586D01*
X109036131Y-120021589D01*
X109036128Y-120021593D01*
X109036125Y-120021597D01*
X108907635Y-120191743D01*
X108907630Y-120191752D01*
X108823285Y-120361142D01*
X108812595Y-120382611D01*
X108807435Y-120400747D01*
X108754244Y-120587688D01*
X108734571Y-120800000D01*
X107185215Y-120800000D01*
X107166397Y-120596917D01*
X107112118Y-120406148D01*
X107114379Y-120345010D01*
X107137333Y-120309058D01*
X108700812Y-118745579D01*
X108755327Y-118717804D01*
X108815759Y-118727375D01*
X108859024Y-118770640D01*
X108859435Y-118771457D01*
X108907630Y-118868248D01*
X108907632Y-118868252D01*
X108907634Y-118868255D01*
X109036128Y-119038407D01*
X109059037Y-119059291D01*
X109193692Y-119182047D01*
X109193699Y-119182053D01*
X109244661Y-119213607D01*
X109374981Y-119294298D01*
X109573802Y-119371321D01*
X109783390Y-119410500D01*
X109996610Y-119410500D01*
X110206198Y-119371321D01*
X110405019Y-119294298D01*
X110586302Y-119182052D01*
X110743872Y-119038407D01*
X110872366Y-118868255D01*
X110967405Y-118677389D01*
X111025756Y-118472310D01*
X111045429Y-118260000D01*
X111025756Y-118047690D01*
X110967405Y-117842611D01*
X110872366Y-117651745D01*
X110743872Y-117481593D01*
X110668021Y-117412445D01*
X110586307Y-117337952D01*
X110586300Y-117337946D01*
X110405024Y-117225705D01*
X110405019Y-117225702D01*
X110353078Y-117205580D01*
X110206198Y-117148679D01*
X110206197Y-117148678D01*
X110206195Y-117148678D01*
X109996610Y-117109500D01*
X109783390Y-117109500D01*
X109573804Y-117148678D01*
X109374980Y-117225702D01*
X109374975Y-117225705D01*
X109193699Y-117337946D01*
X109193698Y-117337947D01*
X109186196Y-117344787D01*
X109130454Y-117370017D01*
X109070529Y-117357665D01*
X109029309Y-117312448D01*
X109020500Y-117271625D01*
X109020500Y-116708374D01*
X109039407Y-116650183D01*
X109088907Y-116614219D01*
X109150093Y-116614219D01*
X109186196Y-116635213D01*
X109193693Y-116642047D01*
X109193698Y-116642052D01*
X109193699Y-116642053D01*
X109297389Y-116706255D01*
X109374981Y-116754298D01*
X109573802Y-116831321D01*
X109783390Y-116870500D01*
X109996610Y-116870500D01*
X110206198Y-116831321D01*
X110405019Y-116754298D01*
X110586302Y-116642052D01*
X110743872Y-116498407D01*
X110872366Y-116328255D01*
X110967405Y-116137389D01*
X111025756Y-115932310D01*
X111045429Y-115720000D01*
X111025756Y-115507690D01*
X110967405Y-115302611D01*
X110872366Y-115111745D01*
X110743872Y-114941593D01*
X110724064Y-114923535D01*
X110693800Y-114870364D01*
X110700569Y-114809554D01*
X110727814Y-114775212D01*
X110727670Y-114775068D01*
X110728922Y-114773815D01*
X110730497Y-114771831D01*
X110732249Y-114770485D01*
X110732259Y-114770480D01*
X111864989Y-113637748D01*
X111919504Y-113609973D01*
X111979936Y-113619544D01*
X112023201Y-113662809D01*
X112033285Y-113719558D01*
X112024900Y-113789377D01*
X112024900Y-114348620D01*
X112035283Y-114435079D01*
X112059252Y-114495859D01*
X112089538Y-114572658D01*
X112178900Y-114690500D01*
X112296742Y-114779862D01*
X112434323Y-114834117D01*
X112520782Y-114844500D01*
X112980999Y-114844500D01*
X113039190Y-114863407D01*
X113051003Y-114873496D01*
X113212103Y-115034596D01*
X113239880Y-115089113D01*
X113230309Y-115149545D01*
X113187044Y-115192810D01*
X113142099Y-115203600D01*
X112827340Y-115203600D01*
X112827337Y-115203601D01*
X112802210Y-115206514D01*
X112699436Y-115251894D01*
X112619995Y-115331335D01*
X112574615Y-115434111D01*
X112571701Y-115459230D01*
X112571701Y-116539560D01*
X112571702Y-116539563D01*
X112574615Y-116564690D01*
X112591081Y-116601981D01*
X112619995Y-116667465D01*
X112619996Y-116667466D01*
X112669048Y-116716519D01*
X112684780Y-116737022D01*
X112729517Y-116814509D01*
X112729518Y-116814510D01*
X112729519Y-116814511D01*
X112729521Y-116814514D01*
X113024507Y-117109500D01*
X113286403Y-117371396D01*
X113314180Y-117425913D01*
X113304609Y-117486345D01*
X113261344Y-117529610D01*
X113216399Y-117540400D01*
X112827340Y-117540400D01*
X112827337Y-117540401D01*
X112802210Y-117543314D01*
X112699436Y-117588694D01*
X112619995Y-117668135D01*
X112574615Y-117770911D01*
X112571701Y-117796030D01*
X112571701Y-118876360D01*
X112571702Y-118876363D01*
X112574615Y-118901490D01*
X112593808Y-118944957D01*
X112619995Y-119004265D01*
X112620506Y-119004776D01*
X112620972Y-119005692D01*
X112625180Y-119011834D01*
X112624381Y-119012381D01*
X112648282Y-119059291D01*
X112649501Y-119074778D01*
X112649501Y-119392100D01*
X112630594Y-119450291D01*
X112581094Y-119486255D01*
X112550501Y-119491100D01*
X112469979Y-119491100D01*
X112383522Y-119501483D01*
X112272727Y-119545175D01*
X112211657Y-119548933D01*
X112160042Y-119516077D01*
X112138256Y-119465999D01*
X112137578Y-119460851D01*
X112126044Y-119373238D01*
X112098656Y-119307118D01*
X112065537Y-119227161D01*
X112065537Y-119227160D01*
X111992517Y-119131999D01*
X111969282Y-119101718D01*
X111969277Y-119101714D01*
X111969276Y-119101713D01*
X111886767Y-119038402D01*
X111843841Y-119005464D01*
X111843840Y-119005463D01*
X111843838Y-119005462D01*
X111697766Y-118944957D01*
X111697758Y-118944955D01*
X111541001Y-118924318D01*
X111540999Y-118924318D01*
X111384241Y-118944955D01*
X111384233Y-118944957D01*
X111238161Y-119005462D01*
X111238160Y-119005462D01*
X111112723Y-119101713D01*
X111112719Y-119101716D01*
X111112718Y-119101718D01*
X111112716Y-119101721D01*
X111016462Y-119227160D01*
X111016462Y-119227161D01*
X110955957Y-119373233D01*
X110955955Y-119373241D01*
X110935318Y-119529999D01*
X110935318Y-119530000D01*
X110955955Y-119686758D01*
X110955957Y-119686766D01*
X111016462Y-119832838D01*
X111016462Y-119832839D01*
X111099339Y-119940846D01*
X111112718Y-119958282D01*
X111238159Y-120054536D01*
X111238160Y-120054536D01*
X111238161Y-120054537D01*
X111384233Y-120115042D01*
X111384238Y-120115044D01*
X111541000Y-120135682D01*
X111547433Y-120136529D01*
X111547205Y-120138256D01*
X111597473Y-120154589D01*
X111609285Y-120164678D01*
X111947608Y-120503000D01*
X111975386Y-120557517D01*
X111975899Y-120561199D01*
X111984483Y-120632679D01*
X112009538Y-120696213D01*
X112038738Y-120770258D01*
X112128100Y-120888100D01*
X112245942Y-120977462D01*
X112383523Y-121031717D01*
X112469982Y-121042100D01*
X112469984Y-121042100D01*
X113054216Y-121042100D01*
X113054218Y-121042100D01*
X113140677Y-121031717D01*
X113278258Y-120977462D01*
X113396100Y-120888100D01*
X113485462Y-120770258D01*
X113539717Y-120632677D01*
X113550100Y-120546218D01*
X113550100Y-120035001D01*
X113569007Y-119976810D01*
X113618507Y-119940846D01*
X113679693Y-119940846D01*
X113719104Y-119964997D01*
X113770104Y-120015997D01*
X113797881Y-120070514D01*
X113799100Y-120086001D01*
X113799100Y-120546220D01*
X113809483Y-120632679D01*
X113834538Y-120696213D01*
X113863738Y-120770258D01*
X113953100Y-120888100D01*
X114070942Y-120977462D01*
X114208523Y-121031717D01*
X114294982Y-121042100D01*
X114294984Y-121042100D01*
X114879216Y-121042100D01*
X114879218Y-121042100D01*
X114965677Y-121031717D01*
X115094583Y-120980882D01*
X115155650Y-120977124D01*
X115207266Y-121009979D01*
X115229713Y-121066898D01*
X115229900Y-121072980D01*
X115229900Y-121191929D01*
X115210993Y-121250120D01*
X115203676Y-121258687D01*
X115105862Y-121386160D01*
X115105862Y-121386161D01*
X115045357Y-121532233D01*
X115045355Y-121532241D01*
X115024718Y-121688999D01*
X115024718Y-121689000D01*
X115045355Y-121845758D01*
X115045357Y-121845766D01*
X115105862Y-121991838D01*
X115105862Y-121991839D01*
X115206068Y-122122431D01*
X115204683Y-122123493D01*
X115228679Y-122170569D01*
X115229900Y-122186071D01*
X115229900Y-123947673D01*
X115229900Y-124053127D01*
X115247393Y-124118413D01*
X115257194Y-124154992D01*
X115309916Y-124246308D01*
X115309918Y-124246310D01*
X115309920Y-124246313D01*
X115605323Y-124541716D01*
X115633099Y-124596231D01*
X115633981Y-124607447D01*
X115654955Y-124766758D01*
X115654957Y-124766766D01*
X115715462Y-124912838D01*
X115715462Y-124912839D01*
X115811713Y-125038276D01*
X115811718Y-125038282D01*
X115937159Y-125134536D01*
X116083238Y-125195044D01*
X116200809Y-125210522D01*
X116239999Y-125215682D01*
X116240000Y-125215682D01*
X116393204Y-125195512D01*
X116453363Y-125206662D01*
X116495481Y-125251044D01*
X116503467Y-125311706D01*
X116494746Y-125337793D01*
X116432596Y-125462608D01*
X116374244Y-125667688D01*
X116354571Y-125880000D01*
X116374244Y-126092311D01*
X116378879Y-126108600D01*
X116432595Y-126297389D01*
X116527634Y-126488255D01*
X116656128Y-126658407D01*
X116656135Y-126658413D01*
X116813692Y-126802047D01*
X116813699Y-126802053D01*
X116917389Y-126866255D01*
X116994981Y-126914298D01*
X117193802Y-126991321D01*
X117403390Y-127030500D01*
X117616610Y-127030500D01*
X117826198Y-126991321D01*
X118025019Y-126914298D01*
X118206302Y-126802052D01*
X118363872Y-126658407D01*
X118492366Y-126488255D01*
X118587405Y-126297389D01*
X118645756Y-126092310D01*
X118665429Y-125880000D01*
X118645756Y-125667690D01*
X118587405Y-125462611D01*
X118587401Y-125462604D01*
X118585752Y-125458344D01*
X118587132Y-125457809D01*
X118579019Y-125403364D01*
X118606648Y-125349743D01*
X119862480Y-124093913D01*
X119902293Y-124024956D01*
X119915205Y-124002592D01*
X119915205Y-124002590D01*
X119915207Y-124002588D01*
X119942500Y-123900727D01*
X119942500Y-123795273D01*
X119942500Y-123419899D01*
X119961407Y-123361708D01*
X119971490Y-123349902D01*
X120045871Y-123275521D01*
X120100384Y-123247745D01*
X120160816Y-123257316D01*
X120204081Y-123300580D01*
X120214450Y-123336391D01*
X120230981Y-123514786D01*
X120233603Y-123543083D01*
X120282007Y-123713205D01*
X120289419Y-123739252D01*
X120369823Y-123900727D01*
X120380327Y-123921821D01*
X120503236Y-124084579D01*
X120653959Y-124221981D01*
X120827363Y-124329348D01*
X121017544Y-124403024D01*
X121218024Y-124440500D01*
X121421976Y-124440500D01*
X121622456Y-124403024D01*
X121812637Y-124329348D01*
X121986041Y-124221981D01*
X122136764Y-124084579D01*
X122259673Y-123921821D01*
X122350582Y-123739250D01*
X122406397Y-123543083D01*
X122425215Y-123340000D01*
X122406397Y-123136917D01*
X122350582Y-122940750D01*
X122259673Y-122758179D01*
X122136764Y-122595421D01*
X122073297Y-122537564D01*
X122043033Y-122484390D01*
X122049804Y-122423581D01*
X122069991Y-122394401D01*
X122073910Y-122390481D01*
X122073913Y-122390480D01*
X122835910Y-121628481D01*
X122835913Y-121628480D01*
X122910480Y-121553913D01*
X122963207Y-121462587D01*
X122968472Y-121442937D01*
X122990501Y-121360727D01*
X122990501Y-121255273D01*
X122990501Y-121249211D01*
X122990500Y-121249193D01*
X122990500Y-119382093D01*
X123009407Y-119323902D01*
X123058907Y-119287938D01*
X123120093Y-119287938D01*
X123149320Y-119303210D01*
X123154477Y-119307120D01*
X123154478Y-119307122D01*
X123175448Y-119323024D01*
X123275055Y-119398559D01*
X123275060Y-119398562D01*
X123305333Y-119410500D01*
X123415836Y-119454077D01*
X123504298Y-119464700D01*
X123947900Y-119464700D01*
X124006091Y-119483607D01*
X124042055Y-119533107D01*
X124046900Y-119563700D01*
X124046900Y-119636549D01*
X124046053Y-119649471D01*
X124041718Y-119682399D01*
X124041718Y-119682400D01*
X124046053Y-119715327D01*
X124046900Y-119728249D01*
X124046900Y-120086637D01*
X124027993Y-120144828D01*
X123987890Y-120177201D01*
X123953936Y-120192193D01*
X123874494Y-120271635D01*
X123829114Y-120374411D01*
X123826200Y-120399530D01*
X123826200Y-121251260D01*
X123826201Y-121251263D01*
X123829114Y-121276390D01*
X123835756Y-121291431D01*
X123838864Y-121298471D01*
X123838865Y-121298472D01*
X123847300Y-121338460D01*
X123847300Y-123792139D01*
X123838865Y-123832127D01*
X123829115Y-123854207D01*
X123829114Y-123854210D01*
X123826200Y-123879330D01*
X123826200Y-124731060D01*
X123826201Y-124731063D01*
X123829114Y-124756190D01*
X123834629Y-124768679D01*
X123874494Y-124858965D01*
X123874495Y-124858966D01*
X123953934Y-124938406D01*
X123953936Y-124938407D01*
X123987886Y-124953397D01*
X124033483Y-124994196D01*
X124046900Y-125043962D01*
X124046900Y-125505900D01*
X124027993Y-125564091D01*
X123978493Y-125600055D01*
X123947903Y-125604900D01*
X123916739Y-125604900D01*
X123916735Y-125604901D01*
X123891609Y-125607814D01*
X123788835Y-125653194D01*
X123709394Y-125732635D01*
X123664014Y-125835411D01*
X123661100Y-125860530D01*
X123661100Y-125882600D01*
X123642193Y-125940791D01*
X123592693Y-125976755D01*
X123562100Y-125981600D01*
X122583099Y-125981600D01*
X122524908Y-125962693D01*
X122488944Y-125913193D01*
X122484099Y-125882600D01*
X122484099Y-125860539D01*
X122484099Y-125860536D01*
X122481185Y-125835409D01*
X122435806Y-125732635D01*
X122356365Y-125653194D01*
X122253591Y-125607815D01*
X122253590Y-125607814D01*
X122253588Y-125607814D01*
X122228468Y-125604900D01*
X120767139Y-125604900D01*
X120767136Y-125604901D01*
X120742009Y-125607814D01*
X120639235Y-125653194D01*
X120559794Y-125732635D01*
X120514414Y-125835411D01*
X120511500Y-125860530D01*
X120511500Y-127373055D01*
X120492593Y-127431246D01*
X120482504Y-127443059D01*
X119351086Y-128574478D01*
X119351084Y-128574480D01*
X119351083Y-128574479D01*
X119239279Y-128686284D01*
X119197952Y-128757865D01*
X119160225Y-128823209D01*
X119160223Y-128823213D01*
X119160223Y-128823215D01*
X119119299Y-128975943D01*
X119119299Y-128975945D01*
X119119299Y-129142031D01*
X119119300Y-129142044D01*
X119119300Y-130935410D01*
X119100393Y-130993601D01*
X119099184Y-130995229D01*
X119034337Y-131080742D01*
X119012138Y-131137034D01*
X118990045Y-131170718D01*
X118779016Y-131381747D01*
X118724499Y-131409524D01*
X118664067Y-131399953D01*
X118620802Y-131356688D01*
X118611231Y-131296256D01*
X118613787Y-131284665D01*
X118645756Y-131172310D01*
X118665429Y-130960000D01*
X118645756Y-130747690D01*
X118587405Y-130542611D01*
X118492366Y-130351745D01*
X118363872Y-130181593D01*
X118308243Y-130130880D01*
X118206307Y-130037952D01*
X118206300Y-130037946D01*
X118025024Y-129925705D01*
X118025019Y-129925702D01*
X117826195Y-129848678D01*
X117616610Y-129809500D01*
X117403390Y-129809500D01*
X117193804Y-129848678D01*
X116994980Y-129925702D01*
X116994975Y-129925705D01*
X116813699Y-130037946D01*
X116813692Y-130037952D01*
X116656135Y-130181586D01*
X116656119Y-130181603D01*
X116527633Y-130351743D01*
X116525704Y-130354860D01*
X116478992Y-130394377D01*
X116417974Y-130398891D01*
X116371533Y-130372740D01*
X115309696Y-129310903D01*
X115281919Y-129256386D01*
X115280700Y-129240899D01*
X115280700Y-128420000D01*
X116354571Y-128420000D01*
X116374244Y-128632311D01*
X116397449Y-128713867D01*
X116432595Y-128837389D01*
X116527634Y-129028255D01*
X116656128Y-129198407D01*
X116702739Y-129240899D01*
X116813692Y-129342047D01*
X116813699Y-129342053D01*
X116818044Y-129344743D01*
X116994981Y-129454298D01*
X117193802Y-129531321D01*
X117403390Y-129570500D01*
X117616610Y-129570500D01*
X117826198Y-129531321D01*
X118025019Y-129454298D01*
X118206302Y-129342052D01*
X118363872Y-129198407D01*
X118492366Y-129028255D01*
X118587405Y-128837389D01*
X118645756Y-128632310D01*
X118665429Y-128420000D01*
X118645756Y-128207690D01*
X118587405Y-128002611D01*
X118492366Y-127811745D01*
X118363872Y-127641593D01*
X118278989Y-127564211D01*
X118206307Y-127497952D01*
X118206300Y-127497946D01*
X118025024Y-127385705D01*
X118025019Y-127385702D01*
X117966472Y-127363021D01*
X117826198Y-127308679D01*
X117826197Y-127308678D01*
X117826195Y-127308678D01*
X117616610Y-127269500D01*
X117403390Y-127269500D01*
X117193804Y-127308678D01*
X116994980Y-127385702D01*
X116994975Y-127385705D01*
X116813699Y-127497946D01*
X116813692Y-127497952D01*
X116656135Y-127641586D01*
X116656131Y-127641589D01*
X116656128Y-127641593D01*
X116656125Y-127641597D01*
X116527635Y-127811743D01*
X116527630Y-127811752D01*
X116432596Y-128002608D01*
X116374244Y-128207688D01*
X116354571Y-128420000D01*
X115280700Y-128420000D01*
X115280700Y-127589339D01*
X115280700Y-127589336D01*
X115277786Y-127564209D01*
X115232407Y-127461435D01*
X115152966Y-127381994D01*
X115050192Y-127336615D01*
X115050191Y-127336614D01*
X115050189Y-127336614D01*
X115025069Y-127333700D01*
X114274940Y-127333700D01*
X114274937Y-127333701D01*
X114249810Y-127336614D01*
X114147036Y-127381994D01*
X114067595Y-127461435D01*
X114022215Y-127564211D01*
X114019301Y-127589330D01*
X114019301Y-127589332D01*
X114019301Y-127589335D01*
X114019301Y-128420000D01*
X114019302Y-129167200D01*
X114000395Y-129225391D01*
X113965343Y-129250857D01*
X113950000Y-129266201D01*
X113950000Y-130328999D01*
X113950001Y-130329000D01*
X114530199Y-130329000D01*
X114530200Y-130328999D01*
X114530200Y-129903200D01*
X114549107Y-129845009D01*
X114598607Y-129809045D01*
X114659793Y-129809045D01*
X114699201Y-129833194D01*
X116146487Y-131280480D01*
X116146489Y-131280481D01*
X116146491Y-131280483D01*
X116237808Y-131333205D01*
X116237806Y-131333205D01*
X116237810Y-131333206D01*
X116237812Y-131333207D01*
X116339673Y-131360500D01*
X116362887Y-131360500D01*
X116421078Y-131379407D01*
X116451508Y-131415372D01*
X116463584Y-131439624D01*
X116527634Y-131568255D01*
X116656128Y-131738407D01*
X116667739Y-131748992D01*
X116813692Y-131882047D01*
X116813699Y-131882053D01*
X116863099Y-131912640D01*
X116994981Y-131994298D01*
X117193802Y-132071321D01*
X117403390Y-132110500D01*
X117616610Y-132110500D01*
X117826198Y-132071321D01*
X117826213Y-132071315D01*
X117827485Y-132070954D01*
X117828049Y-132070974D01*
X117830697Y-132070480D01*
X117830808Y-132071076D01*
X117888629Y-132073213D01*
X117936767Y-132110980D01*
X117953514Y-132169829D01*
X117932471Y-132227282D01*
X117924585Y-132236178D01*
X117817506Y-132343257D01*
X117762989Y-132371034D01*
X117729311Y-132370567D01*
X117616610Y-132349500D01*
X117403390Y-132349500D01*
X117193804Y-132388678D01*
X116994980Y-132465702D01*
X116994975Y-132465705D01*
X116813699Y-132577946D01*
X116813692Y-132577952D01*
X116656135Y-132721586D01*
X116656131Y-132721589D01*
X116656128Y-132721593D01*
X116551484Y-132860161D01*
X116501329Y-132895204D01*
X116472482Y-132899500D01*
X113249499Y-132899500D01*
X113191308Y-132880593D01*
X113155344Y-132831093D01*
X113150499Y-132800500D01*
X113150499Y-131983579D01*
X113169406Y-131925388D01*
X113218906Y-131889424D01*
X113260081Y-131885146D01*
X113321976Y-131891800D01*
X113449999Y-131891800D01*
X113450000Y-131891799D01*
X113450000Y-130829001D01*
X113950000Y-130829001D01*
X113950000Y-131891799D01*
X113950001Y-131891800D01*
X114078024Y-131891800D01*
X114137570Y-131885398D01*
X114137581Y-131885396D01*
X114272288Y-131835153D01*
X114272290Y-131835152D01*
X114387384Y-131748992D01*
X114387392Y-131748984D01*
X114473552Y-131633890D01*
X114473553Y-131633888D01*
X114523796Y-131499181D01*
X114523798Y-131499170D01*
X114530200Y-131439624D01*
X114530200Y-130829001D01*
X114530199Y-130829000D01*
X113950001Y-130829000D01*
X113950000Y-130829001D01*
X113450000Y-130829001D01*
X113450000Y-129266201D01*
X113435704Y-129251905D01*
X113421508Y-129247293D01*
X113385544Y-129197793D01*
X113380699Y-129167200D01*
X113380698Y-127589339D01*
X113380698Y-127589336D01*
X113377784Y-127564209D01*
X113332405Y-127461435D01*
X113252964Y-127381994D01*
X113150190Y-127336615D01*
X113150188Y-127336614D01*
X113143512Y-127333667D01*
X113097916Y-127292866D01*
X113084500Y-127243102D01*
X113084500Y-123274827D01*
X113103407Y-123216636D01*
X113110715Y-123208080D01*
X113112282Y-123206038D01*
X113208536Y-123080597D01*
X113269044Y-122934518D01*
X113289682Y-122777756D01*
X113269044Y-122620994D01*
X113208537Y-122474917D01*
X113208537Y-122474916D01*
X113112286Y-122349479D01*
X113112285Y-122349478D01*
X113112282Y-122349474D01*
X113112277Y-122349470D01*
X113112276Y-122349469D01*
X113025884Y-122283179D01*
X112986841Y-122253220D01*
X112986840Y-122253219D01*
X112986838Y-122253218D01*
X112840766Y-122192713D01*
X112840758Y-122192711D01*
X112684001Y-122172074D01*
X112683999Y-122172074D01*
X112527241Y-122192711D01*
X112527233Y-122192713D01*
X112381161Y-122253218D01*
X112381160Y-122253218D01*
X112255723Y-122349469D01*
X112255713Y-122349479D01*
X112159462Y-122474916D01*
X112159462Y-122474917D01*
X112098957Y-122620989D01*
X112098955Y-122620997D01*
X112078318Y-122777755D01*
X112078318Y-122777756D01*
X112098955Y-122934514D01*
X112098957Y-122934522D01*
X112159462Y-123080594D01*
X112159462Y-123080595D01*
X112259668Y-123211187D01*
X112258283Y-123212249D01*
X112282279Y-123259325D01*
X112283500Y-123274827D01*
X112283500Y-127304830D01*
X112264593Y-127363021D01*
X112252652Y-127374639D01*
X112253521Y-127375508D01*
X112247035Y-127381993D01*
X112247034Y-127381994D01*
X112197782Y-127431246D01*
X112167593Y-127461435D01*
X112122213Y-127564211D01*
X112119299Y-127589330D01*
X112119299Y-129304660D01*
X112119300Y-129304663D01*
X112122213Y-129329790D01*
X112127628Y-129342053D01*
X112167593Y-129432565D01*
X112247034Y-129512006D01*
X112290487Y-129531192D01*
X112336082Y-129571991D01*
X112349499Y-129621756D01*
X112349499Y-132800500D01*
X112330592Y-132858691D01*
X112281092Y-132894655D01*
X112250499Y-132899500D01*
X110927518Y-132899500D01*
X110869327Y-132880593D01*
X110848516Y-132860163D01*
X110743872Y-132721593D01*
X110678502Y-132662000D01*
X110586307Y-132577952D01*
X110586300Y-132577946D01*
X110405024Y-132465705D01*
X110405019Y-132465702D01*
X110400592Y-132463987D01*
X110206198Y-132388679D01*
X110206197Y-132388678D01*
X110206195Y-132388678D01*
X109996610Y-132349500D01*
X109783390Y-132349500D01*
X109627888Y-132378568D01*
X109567214Y-132370675D01*
X109539693Y-132351258D01*
X109393010Y-132204575D01*
X109365233Y-132150058D01*
X109374804Y-132089626D01*
X109418069Y-132046361D01*
X109478501Y-132036790D01*
X109498773Y-132042255D01*
X109573802Y-132071321D01*
X109783390Y-132110500D01*
X109996610Y-132110500D01*
X110206198Y-132071321D01*
X110405019Y-131994298D01*
X110586302Y-131882052D01*
X110743872Y-131738407D01*
X110872366Y-131568255D01*
X110967405Y-131377389D01*
X111025756Y-131172310D01*
X111045429Y-130960000D01*
X111025756Y-130747690D01*
X110967405Y-130542611D01*
X110872366Y-130351745D01*
X110743872Y-130181593D01*
X110688243Y-130130880D01*
X110586307Y-130037952D01*
X110586300Y-130037946D01*
X110405024Y-129925705D01*
X110405019Y-129925702D01*
X110206195Y-129848678D01*
X109996610Y-129809500D01*
X109783390Y-129809500D01*
X109573804Y-129848678D01*
X109374980Y-129925702D01*
X109374975Y-129925705D01*
X109193699Y-130037946D01*
X109193692Y-130037952D01*
X109036135Y-130181586D01*
X109036131Y-130181589D01*
X109036128Y-130181593D01*
X109036125Y-130181597D01*
X108907635Y-130351743D01*
X108907630Y-130351752D01*
X108812596Y-130542608D01*
X108812595Y-130542611D01*
X108789495Y-130623800D01*
X108779721Y-130658150D01*
X108745610Y-130708945D01*
X108688158Y-130729989D01*
X108629308Y-130713245D01*
X108591540Y-130665107D01*
X108585500Y-130631057D01*
X108585500Y-128748942D01*
X108604407Y-128690751D01*
X108653907Y-128654787D01*
X108715093Y-128654787D01*
X108764593Y-128690751D01*
X108779719Y-128721846D01*
X108812595Y-128837389D01*
X108907634Y-129028255D01*
X109036128Y-129198407D01*
X109082739Y-129240899D01*
X109193692Y-129342047D01*
X109193699Y-129342053D01*
X109198044Y-129344743D01*
X109374981Y-129454298D01*
X109573802Y-129531321D01*
X109783390Y-129570500D01*
X109996610Y-129570500D01*
X110206198Y-129531321D01*
X110405019Y-129454298D01*
X110586302Y-129342052D01*
X110743872Y-129198407D01*
X110872366Y-129028255D01*
X110967405Y-128837389D01*
X111025756Y-128632310D01*
X111045429Y-128420000D01*
X111025756Y-128207690D01*
X110967405Y-128002611D01*
X110872366Y-127811745D01*
X110743872Y-127641593D01*
X110658989Y-127564211D01*
X110586307Y-127497952D01*
X110586300Y-127497946D01*
X110405024Y-127385705D01*
X110405019Y-127385702D01*
X110346472Y-127363021D01*
X110206198Y-127308679D01*
X110206197Y-127308678D01*
X110206195Y-127308678D01*
X109996610Y-127269500D01*
X109783390Y-127269500D01*
X109573804Y-127308678D01*
X109374980Y-127385702D01*
X109374975Y-127385705D01*
X109193699Y-127497946D01*
X109193692Y-127497952D01*
X109036135Y-127641586D01*
X109036131Y-127641589D01*
X109036128Y-127641593D01*
X109036125Y-127641597D01*
X108907635Y-127811743D01*
X108907630Y-127811752D01*
X108812596Y-128002608D01*
X108779721Y-128118150D01*
X108745610Y-128168945D01*
X108688158Y-128189989D01*
X108629308Y-128173245D01*
X108591540Y-128125107D01*
X108585500Y-128091057D01*
X108585500Y-127465644D01*
X108585501Y-127465631D01*
X108585501Y-127299545D01*
X108585501Y-127299543D01*
X108544577Y-127146815D01*
X108500120Y-127069814D01*
X108465520Y-127009884D01*
X108353716Y-126898080D01*
X108353713Y-126898078D01*
X107335635Y-125880000D01*
X108734571Y-125880000D01*
X108754244Y-126092311D01*
X108758879Y-126108600D01*
X108812595Y-126297389D01*
X108907634Y-126488255D01*
X109036128Y-126658407D01*
X109036135Y-126658413D01*
X109193692Y-126802047D01*
X109193699Y-126802053D01*
X109297389Y-126866255D01*
X109374981Y-126914298D01*
X109573802Y-126991321D01*
X109783390Y-127030500D01*
X109996610Y-127030500D01*
X110206198Y-126991321D01*
X110405019Y-126914298D01*
X110586302Y-126802052D01*
X110743872Y-126658407D01*
X110872366Y-126488255D01*
X110967405Y-126297389D01*
X111025756Y-126092310D01*
X111045429Y-125880000D01*
X111025756Y-125667690D01*
X110967405Y-125462611D01*
X110872366Y-125271745D01*
X110743872Y-125101593D01*
X110626064Y-124994196D01*
X110586307Y-124957952D01*
X110586300Y-124957946D01*
X110405024Y-124845705D01*
X110405019Y-124845702D01*
X110325016Y-124814709D01*
X110206198Y-124768679D01*
X110206197Y-124768678D01*
X110206195Y-124768678D01*
X109996610Y-124729500D01*
X109783390Y-124729500D01*
X109573804Y-124768678D01*
X109374980Y-124845702D01*
X109374975Y-124845705D01*
X109193699Y-124957946D01*
X109193692Y-124957952D01*
X109036135Y-125101586D01*
X109036131Y-125101589D01*
X109036128Y-125101593D01*
X109036125Y-125101597D01*
X108907635Y-125271743D01*
X108907630Y-125271752D01*
X108812596Y-125462608D01*
X108754244Y-125667688D01*
X108734571Y-125880000D01*
X107335635Y-125880000D01*
X106709496Y-125253861D01*
X106681719Y-125199344D01*
X106680500Y-125183857D01*
X106680500Y-124317704D01*
X106699407Y-124259513D01*
X106727381Y-124233534D01*
X106746041Y-124221981D01*
X106896764Y-124084579D01*
X107019673Y-123921821D01*
X107110582Y-123739250D01*
X107166397Y-123543083D01*
X107185215Y-123340000D01*
X108734571Y-123340000D01*
X108754244Y-123552310D01*
X108810387Y-123749630D01*
X108812596Y-123757391D01*
X108903772Y-123940500D01*
X108907634Y-123948255D01*
X109036128Y-124118407D01*
X109101498Y-124178000D01*
X109193692Y-124262047D01*
X109193699Y-124262053D01*
X109266548Y-124307159D01*
X109374981Y-124374298D01*
X109573802Y-124451321D01*
X109783390Y-124490500D01*
X109996610Y-124490500D01*
X110206198Y-124451321D01*
X110405019Y-124374298D01*
X110586302Y-124262052D01*
X110743872Y-124118407D01*
X110872366Y-123948255D01*
X110967405Y-123757389D01*
X111025756Y-123552310D01*
X111045429Y-123340000D01*
X111025756Y-123127690D01*
X110967405Y-122922611D01*
X110872366Y-122731745D01*
X110743872Y-122561593D01*
X110648794Y-122474917D01*
X110586307Y-122417952D01*
X110586300Y-122417946D01*
X110405024Y-122305705D01*
X110405019Y-122305702D01*
X110325016Y-122274709D01*
X110206198Y-122228679D01*
X110206197Y-122228678D01*
X110206195Y-122228678D01*
X109996610Y-122189500D01*
X109783390Y-122189500D01*
X109573804Y-122228678D01*
X109374980Y-122305702D01*
X109374975Y-122305705D01*
X109193699Y-122417946D01*
X109193692Y-122417952D01*
X109036135Y-122561586D01*
X109036131Y-122561589D01*
X109036128Y-122561593D01*
X109036125Y-122561597D01*
X108907635Y-122731743D01*
X108907630Y-122731752D01*
X108812596Y-122922608D01*
X108754244Y-123127688D01*
X108738224Y-123300580D01*
X108734571Y-123340000D01*
X107185215Y-123340000D01*
X107166397Y-123136917D01*
X107110582Y-122940750D01*
X107019673Y-122758179D01*
X106896764Y-122595421D01*
X106746041Y-122458019D01*
X106572637Y-122350652D01*
X106382456Y-122276976D01*
X106382455Y-122276975D01*
X106382453Y-122276975D01*
X106181976Y-122239500D01*
X105978024Y-122239500D01*
X105777546Y-122276975D01*
X105761532Y-122283179D01*
X105587363Y-122350652D01*
X105413959Y-122458019D01*
X105263236Y-122595421D01*
X105184139Y-122700162D01*
X105133984Y-122735204D01*
X105105137Y-122739500D01*
X104350192Y-122739500D01*
X104292001Y-122720593D01*
X104271308Y-122700319D01*
X104236816Y-122654834D01*
X104216721Y-122597043D01*
X104216700Y-122595015D01*
X104216700Y-122380985D01*
X104235607Y-122322794D01*
X104236816Y-122321166D01*
X104270326Y-122276976D01*
X104327062Y-122202158D01*
X104381317Y-122064577D01*
X104391700Y-121978118D01*
X104391700Y-121293882D01*
X104381317Y-121207423D01*
X104327062Y-121069842D01*
X104246034Y-120962990D01*
X104225940Y-120905201D01*
X104243651Y-120846635D01*
X104272948Y-120818912D01*
X104314235Y-120793446D01*
X104436146Y-120671535D01*
X104526651Y-120524806D01*
X104580881Y-120361148D01*
X104591200Y-120260155D01*
X104591200Y-120161001D01*
X104591199Y-120161000D01*
X102641202Y-120161000D01*
X102641201Y-120161001D01*
X102641201Y-120260154D01*
X102651517Y-120361142D01*
X102651520Y-120361154D01*
X102705748Y-120524806D01*
X102796253Y-120671535D01*
X102918162Y-120793444D01*
X102959452Y-120818912D01*
X102999054Y-120865553D01*
X103003677Y-120926563D01*
X102986364Y-120962992D01*
X102905338Y-121069841D01*
X102851083Y-121207420D01*
X102840700Y-121293879D01*
X102840700Y-121978120D01*
X102851083Y-122064579D01*
X102905338Y-122202158D01*
X102995584Y-122321166D01*
X103015679Y-122378957D01*
X103015700Y-122380985D01*
X103015700Y-122595014D01*
X102996793Y-122653205D01*
X102995580Y-122654838D01*
X102984847Y-122668990D01*
X102934619Y-122703929D01*
X102873447Y-122702672D01*
X102835963Y-122679170D01*
X102013696Y-121856903D01*
X101985919Y-121802386D01*
X101984700Y-121786899D01*
X101984700Y-119561844D01*
X102641200Y-119561844D01*
X102641200Y-119660999D01*
X102641201Y-119661000D01*
X103366199Y-119661000D01*
X103366200Y-119660999D01*
X103366200Y-118873501D01*
X103866200Y-118873501D01*
X103866200Y-119660999D01*
X103866201Y-119661000D01*
X104591198Y-119661000D01*
X104591199Y-119660999D01*
X104591199Y-119561845D01*
X104580882Y-119460857D01*
X104580879Y-119460845D01*
X104526651Y-119297193D01*
X104436146Y-119150464D01*
X104314235Y-119028553D01*
X104167506Y-118938048D01*
X104003848Y-118883818D01*
X103902855Y-118873500D01*
X103866201Y-118873500D01*
X103866200Y-118873501D01*
X103366200Y-118873501D01*
X103366200Y-118873500D01*
X103329557Y-118873500D01*
X103329551Y-118873501D01*
X103228557Y-118883817D01*
X103228545Y-118883820D01*
X103064893Y-118938048D01*
X102918164Y-119028553D01*
X102796253Y-119150464D01*
X102705748Y-119297193D01*
X102651518Y-119460851D01*
X102641200Y-119561844D01*
X101984700Y-119561844D01*
X101984700Y-116989999D01*
X103635518Y-116989999D01*
X103635518Y-116990000D01*
X103656155Y-117146758D01*
X103656157Y-117146766D01*
X103716662Y-117292838D01*
X103716662Y-117292839D01*
X103808439Y-117412445D01*
X103812918Y-117418282D01*
X103938359Y-117514536D01*
X103938360Y-117514536D01*
X103938361Y-117514537D01*
X104022342Y-117549323D01*
X104084438Y-117575044D01*
X104188121Y-117588694D01*
X104241199Y-117595682D01*
X104241200Y-117595682D01*
X104241201Y-117595682D01*
X104294279Y-117588694D01*
X104397962Y-117575044D01*
X104544041Y-117514536D01*
X104669482Y-117418282D01*
X104765736Y-117292841D01*
X104826244Y-117146762D01*
X104846882Y-116990000D01*
X104826244Y-116833238D01*
X104809782Y-116793495D01*
X104765737Y-116687161D01*
X104765737Y-116687160D01*
X104665532Y-116556570D01*
X104666913Y-116555509D01*
X104642919Y-116508416D01*
X104641700Y-116492929D01*
X104641700Y-113180000D01*
X104974785Y-113180000D01*
X104993603Y-113383083D01*
X105049418Y-113579250D01*
X105140327Y-113761821D01*
X105263236Y-113924579D01*
X105413959Y-114061981D01*
X105587363Y-114169348D01*
X105777544Y-114243024D01*
X105978024Y-114280500D01*
X106181976Y-114280500D01*
X106382456Y-114243024D01*
X106572637Y-114169348D01*
X106746041Y-114061981D01*
X106896764Y-113924579D01*
X107019673Y-113761821D01*
X107110582Y-113579250D01*
X107166397Y-113383083D01*
X107185215Y-113180000D01*
X107166397Y-112976917D01*
X107110582Y-112780750D01*
X107019673Y-112598179D01*
X106896764Y-112435421D01*
X106746041Y-112298019D01*
X106572637Y-112190652D01*
X106382456Y-112116976D01*
X106382455Y-112116975D01*
X106382453Y-112116975D01*
X106181976Y-112079500D01*
X105978024Y-112079500D01*
X105777546Y-112116975D01*
X105707632Y-112144059D01*
X105587363Y-112190652D01*
X105478676Y-112257948D01*
X105413959Y-112298019D01*
X105263237Y-112435420D01*
X105140328Y-112598177D01*
X105140323Y-112598186D01*
X105058450Y-112762611D01*
X105049418Y-112780750D01*
X104993603Y-112976917D01*
X104974785Y-113180000D01*
X104641700Y-113180000D01*
X104641700Y-110640000D01*
X104974785Y-110640000D01*
X104993603Y-110843083D01*
X105049418Y-111039250D01*
X105140327Y-111221821D01*
X105263236Y-111384579D01*
X105413959Y-111521981D01*
X105587363Y-111629348D01*
X105777544Y-111703024D01*
X105978024Y-111740500D01*
X106181976Y-111740500D01*
X106382456Y-111703024D01*
X106572637Y-111629348D01*
X106746041Y-111521981D01*
X106896764Y-111384579D01*
X107019673Y-111221821D01*
X107110582Y-111039250D01*
X107166397Y-110843083D01*
X107185215Y-110640000D01*
X107166397Y-110436917D01*
X107110582Y-110240750D01*
X107019673Y-110058179D01*
X106896764Y-109895421D01*
X106746041Y-109758019D01*
X106572637Y-109650652D01*
X106382456Y-109576976D01*
X106382455Y-109576975D01*
X106382453Y-109576975D01*
X106181976Y-109539500D01*
X105978024Y-109539500D01*
X105777546Y-109576975D01*
X105777541Y-109576977D01*
X105587363Y-109650652D01*
X105478676Y-109717948D01*
X105413959Y-109758019D01*
X105263237Y-109895420D01*
X105140328Y-110058177D01*
X105140323Y-110058186D01*
X105058450Y-110222611D01*
X105049418Y-110240750D01*
X104993603Y-110436917D01*
X104974785Y-110640000D01*
X104641700Y-110640000D01*
X104641700Y-110145700D01*
X104660607Y-110087509D01*
X104670690Y-110075702D01*
X105591975Y-109154416D01*
X105646490Y-109126641D01*
X105697735Y-109132106D01*
X105777544Y-109163024D01*
X105978024Y-109200500D01*
X106181976Y-109200500D01*
X106382456Y-109163024D01*
X106572637Y-109089348D01*
X106746041Y-108981981D01*
X106896764Y-108844579D01*
X107019673Y-108681821D01*
X107110582Y-108499250D01*
X107166397Y-108303083D01*
X107185215Y-108100000D01*
X107166397Y-107896917D01*
X107110582Y-107700750D01*
X107019673Y-107518179D01*
X106896764Y-107355421D01*
X106746041Y-107218019D01*
X106572637Y-107110652D01*
X106382456Y-107036976D01*
X106382455Y-107036975D01*
X106382453Y-107036975D01*
X106181976Y-106999500D01*
X105978024Y-106999500D01*
X105777546Y-107036975D01*
X105777541Y-107036977D01*
X105587363Y-107110652D01*
X105478676Y-107177948D01*
X105413959Y-107218019D01*
X105263237Y-107355420D01*
X105140328Y-107518177D01*
X105140323Y-107518186D01*
X105058450Y-107682611D01*
X105049418Y-107700750D01*
X104993603Y-107896917D01*
X104974785Y-108100000D01*
X104993603Y-108303083D01*
X105025668Y-108415780D01*
X105047880Y-108493845D01*
X105045619Y-108554989D01*
X105022663Y-108590941D01*
X103920720Y-109692886D01*
X103920716Y-109692891D01*
X103867993Y-109784211D01*
X103867992Y-109784211D01*
X103867993Y-109784212D01*
X103840700Y-109886073D01*
X103840700Y-116492929D01*
X103821793Y-116551120D01*
X103814476Y-116559687D01*
X103716662Y-116687160D01*
X103716662Y-116687161D01*
X103656157Y-116833233D01*
X103656155Y-116833241D01*
X103635518Y-116989999D01*
X101984700Y-116989999D01*
X101984700Y-105560000D01*
X104974785Y-105560000D01*
X104993603Y-105763083D01*
X105049418Y-105959250D01*
X105140327Y-106141821D01*
X105263236Y-106304579D01*
X105413959Y-106441981D01*
X105587363Y-106549348D01*
X105777544Y-106623024D01*
X105978024Y-106660500D01*
X106181976Y-106660500D01*
X106382456Y-106623024D01*
X106572637Y-106549348D01*
X106746041Y-106441981D01*
X106896764Y-106304579D01*
X107019673Y-106141821D01*
X107110582Y-105959250D01*
X107166397Y-105763083D01*
X107185215Y-105560000D01*
X108734571Y-105560000D01*
X108754244Y-105772310D01*
X108812595Y-105977389D01*
X108907634Y-106168255D01*
X109036128Y-106338407D01*
X109036135Y-106338413D01*
X109193692Y-106482047D01*
X109193699Y-106482053D01*
X109259902Y-106523044D01*
X109374981Y-106594298D01*
X109573802Y-106671321D01*
X109783390Y-106710500D01*
X109996610Y-106710500D01*
X110206198Y-106671321D01*
X110405019Y-106594298D01*
X110586302Y-106482052D01*
X110743872Y-106338407D01*
X110872366Y-106168255D01*
X110967405Y-105977389D01*
X111025756Y-105772310D01*
X111045429Y-105560000D01*
X111025756Y-105347690D01*
X110967405Y-105142611D01*
X110872366Y-104951745D01*
X110743872Y-104781593D01*
X110676426Y-104720107D01*
X110586307Y-104637952D01*
X110586300Y-104637946D01*
X110405024Y-104525705D01*
X110405019Y-104525702D01*
X110206195Y-104448678D01*
X109996610Y-104409500D01*
X109783390Y-104409500D01*
X109573804Y-104448678D01*
X109374980Y-104525702D01*
X109374975Y-104525705D01*
X109193699Y-104637946D01*
X109193692Y-104637952D01*
X109036135Y-104781586D01*
X109036131Y-104781589D01*
X109036128Y-104781593D01*
X109036125Y-104781597D01*
X108907635Y-104951743D01*
X108907630Y-104951752D01*
X108812596Y-105142608D01*
X108754244Y-105347688D01*
X108753389Y-105356917D01*
X108734571Y-105560000D01*
X107185215Y-105560000D01*
X107166397Y-105356917D01*
X107110582Y-105160750D01*
X107019673Y-104978179D01*
X106896764Y-104815421D01*
X106746041Y-104678019D01*
X106572637Y-104570652D01*
X106382456Y-104496976D01*
X106382455Y-104496975D01*
X106382453Y-104496975D01*
X106181976Y-104459500D01*
X105978024Y-104459500D01*
X105777546Y-104496975D01*
X105707632Y-104524059D01*
X105587363Y-104570652D01*
X105478676Y-104637948D01*
X105413959Y-104678019D01*
X105263237Y-104815420D01*
X105140328Y-104978177D01*
X105140323Y-104978186D01*
X105058450Y-105142611D01*
X105049418Y-105160750D01*
X104993603Y-105356917D01*
X104974785Y-105560000D01*
X101984700Y-105560000D01*
X101984700Y-103020000D01*
X104974785Y-103020000D01*
X104993603Y-103223083D01*
X105049418Y-103419250D01*
X105140327Y-103601821D01*
X105263236Y-103764579D01*
X105413959Y-103901981D01*
X105587363Y-104009348D01*
X105777544Y-104083024D01*
X105978024Y-104120500D01*
X106181976Y-104120500D01*
X106382456Y-104083024D01*
X106572637Y-104009348D01*
X106746041Y-103901981D01*
X106896764Y-103764579D01*
X107019673Y-103601821D01*
X107110582Y-103419250D01*
X107166397Y-103223083D01*
X107185215Y-103020000D01*
X107166397Y-102816917D01*
X107110582Y-102620750D01*
X107019673Y-102438179D01*
X106896764Y-102275421D01*
X106746041Y-102138019D01*
X106572637Y-102030652D01*
X106382456Y-101956976D01*
X106382455Y-101956975D01*
X106382453Y-101956975D01*
X106181976Y-101919500D01*
X105978024Y-101919500D01*
X105777546Y-101956975D01*
X105777541Y-101956977D01*
X105587363Y-102030652D01*
X105478676Y-102097948D01*
X105413959Y-102138019D01*
X105263237Y-102275420D01*
X105140328Y-102438177D01*
X105140323Y-102438186D01*
X105058450Y-102602611D01*
X105049418Y-102620750D01*
X104993603Y-102816917D01*
X104974785Y-103020000D01*
X101984700Y-103020000D01*
X101984700Y-100480000D01*
X104974785Y-100480000D01*
X104993603Y-100683083D01*
X105049418Y-100879250D01*
X105140327Y-101061821D01*
X105263236Y-101224579D01*
X105413959Y-101361981D01*
X105587363Y-101469348D01*
X105777544Y-101543024D01*
X105978024Y-101580500D01*
X106181976Y-101580500D01*
X106382456Y-101543024D01*
X106572637Y-101469348D01*
X106746041Y-101361981D01*
X106896764Y-101224579D01*
X107019673Y-101061821D01*
X107110582Y-100879250D01*
X107166397Y-100683083D01*
X107185215Y-100480000D01*
X107166397Y-100276917D01*
X107110582Y-100080750D01*
X107019673Y-99898179D01*
X106896764Y-99735421D01*
X106746041Y-99598019D01*
X106572637Y-99490652D01*
X106382456Y-99416976D01*
X106382455Y-99416975D01*
X106382453Y-99416975D01*
X106181976Y-99379500D01*
X105978024Y-99379500D01*
X105777546Y-99416975D01*
X105777541Y-99416977D01*
X105587363Y-99490652D01*
X105478676Y-99557948D01*
X105413959Y-99598019D01*
X105263237Y-99735420D01*
X105140328Y-99898177D01*
X105140323Y-99898186D01*
X105058450Y-100062611D01*
X105049418Y-100080750D01*
X104993603Y-100276917D01*
X104974785Y-100480000D01*
X101984700Y-100480000D01*
X101984700Y-80729473D01*
X103152300Y-80729473D01*
X103152300Y-95360073D01*
X103152300Y-95465527D01*
X103172681Y-95541592D01*
X103179594Y-95567392D01*
X103232316Y-95658708D01*
X103232317Y-95658709D01*
X103232318Y-95658710D01*
X103232320Y-95658713D01*
X104140082Y-96566475D01*
X105022663Y-97449056D01*
X105050440Y-97503573D01*
X105047880Y-97546152D01*
X104993603Y-97736915D01*
X104993603Y-97736917D01*
X104974785Y-97940000D01*
X104993603Y-98143083D01*
X105049418Y-98339250D01*
X105140327Y-98521821D01*
X105263236Y-98684579D01*
X105413959Y-98821981D01*
X105587363Y-98929348D01*
X105777544Y-99003024D01*
X105978024Y-99040500D01*
X106181976Y-99040500D01*
X106382456Y-99003024D01*
X106572637Y-98929348D01*
X106746041Y-98821981D01*
X106896764Y-98684579D01*
X107019673Y-98521821D01*
X107110582Y-98339250D01*
X107166397Y-98143083D01*
X107185215Y-97940000D01*
X108734571Y-97940000D01*
X108754244Y-98152311D01*
X108759929Y-98172290D01*
X108809442Y-98346309D01*
X108812596Y-98357391D01*
X108871450Y-98475588D01*
X108907634Y-98548255D01*
X109036128Y-98718407D01*
X109036135Y-98718413D01*
X109193692Y-98862047D01*
X109193699Y-98862053D01*
X109297389Y-98926255D01*
X109374981Y-98974298D01*
X109573802Y-99051321D01*
X109783390Y-99090500D01*
X109996610Y-99090500D01*
X110206198Y-99051321D01*
X110405019Y-98974298D01*
X110586302Y-98862052D01*
X110743872Y-98718407D01*
X110872366Y-98548255D01*
X110967405Y-98357389D01*
X111025756Y-98152310D01*
X111045429Y-97940000D01*
X111025756Y-97727690D01*
X110967405Y-97522611D01*
X110872366Y-97331745D01*
X110743872Y-97161593D01*
X110689623Y-97112139D01*
X110586307Y-97017952D01*
X110586300Y-97017946D01*
X110405024Y-96905705D01*
X110405019Y-96905702D01*
X110206195Y-96828678D01*
X109996610Y-96789500D01*
X109783390Y-96789500D01*
X109573804Y-96828678D01*
X109374980Y-96905702D01*
X109374975Y-96905705D01*
X109193699Y-97017946D01*
X109193692Y-97017952D01*
X109036135Y-97161586D01*
X109036131Y-97161589D01*
X109036128Y-97161593D01*
X109036125Y-97161597D01*
X108907635Y-97331743D01*
X108907630Y-97331752D01*
X108812596Y-97522608D01*
X108754244Y-97727688D01*
X108734571Y-97940000D01*
X107185215Y-97940000D01*
X107166397Y-97736917D01*
X107110582Y-97540750D01*
X107019673Y-97358179D01*
X106896764Y-97195421D01*
X106746041Y-97058019D01*
X106572637Y-96950652D01*
X106382456Y-96876976D01*
X106382455Y-96876975D01*
X106382453Y-96876975D01*
X106181976Y-96839500D01*
X105978024Y-96839500D01*
X105777544Y-96876975D01*
X105697739Y-96907892D01*
X105636648Y-96911282D01*
X105591973Y-96885581D01*
X103982296Y-95275903D01*
X103954519Y-95221386D01*
X103953300Y-95205899D01*
X103953300Y-94078701D01*
X103972207Y-94020510D01*
X104021707Y-93984546D01*
X104082893Y-93984546D01*
X104122304Y-94008697D01*
X105022663Y-94909056D01*
X105050440Y-94963573D01*
X105047880Y-95006152D01*
X104993603Y-95196915D01*
X104988971Y-95246907D01*
X104974785Y-95400000D01*
X104993603Y-95603083D01*
X105049418Y-95799250D01*
X105140327Y-95981821D01*
X105263236Y-96144579D01*
X105413959Y-96281981D01*
X105587363Y-96389348D01*
X105777544Y-96463024D01*
X105978024Y-96500500D01*
X106181976Y-96500500D01*
X106382456Y-96463024D01*
X106572637Y-96389348D01*
X106746041Y-96281981D01*
X106896764Y-96144579D01*
X107019673Y-95981821D01*
X107110582Y-95799250D01*
X107166397Y-95603083D01*
X107185215Y-95400000D01*
X108734571Y-95400000D01*
X108754244Y-95612311D01*
X108767446Y-95658709D01*
X108812595Y-95817389D01*
X108907634Y-96008255D01*
X109036128Y-96178407D01*
X109036135Y-96178413D01*
X109193692Y-96322047D01*
X109193699Y-96322053D01*
X109297389Y-96386255D01*
X109374981Y-96434298D01*
X109573802Y-96511321D01*
X109783390Y-96550500D01*
X109996610Y-96550500D01*
X110206198Y-96511321D01*
X110405019Y-96434298D01*
X110586302Y-96322052D01*
X110743872Y-96178407D01*
X110872366Y-96008255D01*
X110967405Y-95817389D01*
X111025756Y-95612310D01*
X111045429Y-95400000D01*
X111025756Y-95187690D01*
X110967405Y-94982611D01*
X110872366Y-94791745D01*
X110743872Y-94621593D01*
X110676132Y-94559839D01*
X110586307Y-94477952D01*
X110586300Y-94477946D01*
X110405024Y-94365705D01*
X110405019Y-94365702D01*
X110206195Y-94288678D01*
X109996610Y-94249500D01*
X109783390Y-94249500D01*
X109573804Y-94288678D01*
X109374980Y-94365702D01*
X109374975Y-94365705D01*
X109193699Y-94477946D01*
X109193692Y-94477952D01*
X109036135Y-94621586D01*
X109036131Y-94621589D01*
X109036128Y-94621593D01*
X109036125Y-94621597D01*
X108907635Y-94791743D01*
X108907630Y-94791752D01*
X108812596Y-94982608D01*
X108754244Y-95187688D01*
X108734571Y-95400000D01*
X107185215Y-95400000D01*
X107166397Y-95196917D01*
X107110582Y-95000750D01*
X107019673Y-94818179D01*
X106896764Y-94655421D01*
X106746041Y-94518019D01*
X106572637Y-94410652D01*
X106382456Y-94336976D01*
X106382455Y-94336975D01*
X106382453Y-94336975D01*
X106181976Y-94299500D01*
X105978024Y-94299500D01*
X105777552Y-94336974D01*
X105777546Y-94336975D01*
X105777544Y-94336976D01*
X105711296Y-94362639D01*
X105697738Y-94367892D01*
X105636647Y-94371281D01*
X105591973Y-94345580D01*
X104382296Y-93135903D01*
X104354519Y-93081386D01*
X104353300Y-93065899D01*
X104353300Y-91938700D01*
X104372207Y-91880509D01*
X104421707Y-91844545D01*
X104482893Y-91844545D01*
X104522303Y-91868695D01*
X104803714Y-92150107D01*
X105022663Y-92369056D01*
X105050440Y-92423573D01*
X105047880Y-92466152D01*
X104993603Y-92656915D01*
X104993603Y-92656917D01*
X104974785Y-92860000D01*
X104993603Y-93063083D01*
X105049418Y-93259250D01*
X105140327Y-93441821D01*
X105263236Y-93604579D01*
X105413959Y-93741981D01*
X105587363Y-93849348D01*
X105777544Y-93923024D01*
X105978024Y-93960500D01*
X106181976Y-93960500D01*
X106382456Y-93923024D01*
X106572637Y-93849348D01*
X106746041Y-93741981D01*
X106896764Y-93604579D01*
X107019673Y-93441821D01*
X107110582Y-93259250D01*
X107166397Y-93063083D01*
X107185215Y-92860000D01*
X108734571Y-92860000D01*
X108754244Y-93072310D01*
X108812595Y-93277389D01*
X108907634Y-93468255D01*
X109036128Y-93638407D01*
X109081897Y-93680131D01*
X109193692Y-93782047D01*
X109193699Y-93782053D01*
X109269058Y-93828713D01*
X109374981Y-93894298D01*
X109573802Y-93971321D01*
X109783390Y-94010500D01*
X109996610Y-94010500D01*
X110206198Y-93971321D01*
X110405019Y-93894298D01*
X110586302Y-93782052D01*
X110743872Y-93638407D01*
X110872366Y-93468255D01*
X110967405Y-93277389D01*
X111025756Y-93072310D01*
X111045429Y-92860000D01*
X111025756Y-92647690D01*
X110967405Y-92442611D01*
X110872366Y-92251745D01*
X110743872Y-92081593D01*
X110660133Y-92005254D01*
X110586307Y-91937952D01*
X110586300Y-91937946D01*
X110405024Y-91825705D01*
X110405019Y-91825702D01*
X110206195Y-91748678D01*
X109996610Y-91709500D01*
X109783390Y-91709500D01*
X109573804Y-91748678D01*
X109374980Y-91825702D01*
X109374975Y-91825705D01*
X109193699Y-91937946D01*
X109193692Y-91937952D01*
X109036135Y-92081586D01*
X109036131Y-92081589D01*
X109036128Y-92081593D01*
X109036125Y-92081597D01*
X108907635Y-92251743D01*
X108907630Y-92251752D01*
X108812596Y-92442608D01*
X108754244Y-92647688D01*
X108754244Y-92647690D01*
X108734571Y-92860000D01*
X107185215Y-92860000D01*
X107166397Y-92656917D01*
X107110582Y-92460750D01*
X107019673Y-92278179D01*
X106896764Y-92115421D01*
X106746041Y-91978019D01*
X106572637Y-91870652D01*
X106382456Y-91796976D01*
X106382455Y-91796975D01*
X106382453Y-91796975D01*
X106181976Y-91759500D01*
X105978024Y-91759500D01*
X105777544Y-91796975D01*
X105697739Y-91827892D01*
X105636648Y-91831282D01*
X105591973Y-91805581D01*
X104782296Y-90995903D01*
X104754519Y-90941386D01*
X104753300Y-90925899D01*
X104753300Y-90320000D01*
X104974785Y-90320000D01*
X104993603Y-90523083D01*
X105049418Y-90719250D01*
X105140327Y-90901821D01*
X105263236Y-91064579D01*
X105413959Y-91201981D01*
X105587363Y-91309348D01*
X105777544Y-91383024D01*
X105978024Y-91420500D01*
X106181976Y-91420500D01*
X106382456Y-91383024D01*
X106572637Y-91309348D01*
X106746041Y-91201981D01*
X106896764Y-91064579D01*
X107019673Y-90901821D01*
X107110582Y-90719250D01*
X107166397Y-90523083D01*
X107185215Y-90320000D01*
X108734571Y-90320000D01*
X108754244Y-90532310D01*
X108812595Y-90737389D01*
X108907634Y-90928255D01*
X109036128Y-91098407D01*
X109036135Y-91098413D01*
X109193692Y-91242047D01*
X109193699Y-91242053D01*
X109238057Y-91269518D01*
X109374981Y-91354298D01*
X109573802Y-91431321D01*
X109783390Y-91470500D01*
X109996610Y-91470500D01*
X110206198Y-91431321D01*
X110405019Y-91354298D01*
X110586302Y-91242052D01*
X110743872Y-91098407D01*
X110872366Y-90928255D01*
X110967405Y-90737389D01*
X111025756Y-90532310D01*
X111045429Y-90320000D01*
X111025756Y-90107690D01*
X110967405Y-89902611D01*
X110872366Y-89711745D01*
X110743872Y-89541593D01*
X110664688Y-89469407D01*
X110586307Y-89397952D01*
X110586300Y-89397946D01*
X110405024Y-89285705D01*
X110405019Y-89285702D01*
X110206195Y-89208678D01*
X109996610Y-89169500D01*
X109783390Y-89169500D01*
X109573804Y-89208678D01*
X109374980Y-89285702D01*
X109374975Y-89285705D01*
X109193699Y-89397946D01*
X109193692Y-89397952D01*
X109036135Y-89541586D01*
X109036131Y-89541589D01*
X109036128Y-89541593D01*
X109036125Y-89541597D01*
X108907635Y-89711743D01*
X108907630Y-89711752D01*
X108812596Y-89902608D01*
X108754244Y-90107688D01*
X108754244Y-90107690D01*
X108734571Y-90320000D01*
X107185215Y-90320000D01*
X107166397Y-90116917D01*
X107112118Y-89926148D01*
X107114379Y-89865010D01*
X107137333Y-89829058D01*
X108154710Y-88811681D01*
X108154713Y-88811680D01*
X108229280Y-88737113D01*
X108264106Y-88676793D01*
X108282007Y-88645788D01*
X108309300Y-88543927D01*
X108309300Y-88438473D01*
X108309300Y-87780000D01*
X108734571Y-87780000D01*
X108739366Y-87831753D01*
X108754244Y-87992310D01*
X108812595Y-88197389D01*
X108907634Y-88388255D01*
X109036128Y-88558407D01*
X109036135Y-88558413D01*
X109193692Y-88702047D01*
X109193699Y-88702053D01*
X109217673Y-88716897D01*
X109374981Y-88814298D01*
X109573802Y-88891321D01*
X109783390Y-88930500D01*
X109996610Y-88930500D01*
X110206198Y-88891321D01*
X110405019Y-88814298D01*
X110586302Y-88702052D01*
X110743872Y-88558407D01*
X110872366Y-88388255D01*
X110967405Y-88197389D01*
X111025756Y-87992310D01*
X111045429Y-87780000D01*
X111025756Y-87567690D01*
X110967405Y-87362611D01*
X110872366Y-87171745D01*
X110743872Y-87001593D01*
X110686563Y-86949349D01*
X110586307Y-86857952D01*
X110586300Y-86857946D01*
X110405024Y-86745705D01*
X110405019Y-86745702D01*
X110206195Y-86668678D01*
X109996610Y-86629500D01*
X109783390Y-86629500D01*
X109573804Y-86668678D01*
X109374980Y-86745702D01*
X109374975Y-86745705D01*
X109193699Y-86857946D01*
X109193692Y-86857952D01*
X109036135Y-87001586D01*
X109036131Y-87001589D01*
X109036128Y-87001593D01*
X109036125Y-87001597D01*
X108907635Y-87171743D01*
X108907630Y-87171752D01*
X108812596Y-87362608D01*
X108754244Y-87567688D01*
X108734571Y-87780000D01*
X108309300Y-87780000D01*
X108309300Y-87428100D01*
X108328207Y-87369909D01*
X108338290Y-87358102D01*
X109363326Y-86333065D01*
X109417841Y-86305290D01*
X109469090Y-86310756D01*
X109573802Y-86351321D01*
X109783390Y-86390500D01*
X109996610Y-86390500D01*
X110206198Y-86351321D01*
X110405019Y-86274298D01*
X110586302Y-86162052D01*
X110743872Y-86018407D01*
X110872366Y-85848255D01*
X110967405Y-85657389D01*
X111025756Y-85452310D01*
X111045429Y-85240000D01*
X111025756Y-85027690D01*
X110967405Y-84822611D01*
X110872366Y-84631745D01*
X110743872Y-84461593D01*
X110659185Y-84384390D01*
X110586307Y-84317952D01*
X110586300Y-84317946D01*
X110405024Y-84205705D01*
X110405019Y-84205702D01*
X110206195Y-84128678D01*
X109996610Y-84089500D01*
X109783390Y-84089500D01*
X109573804Y-84128678D01*
X109374980Y-84205702D01*
X109374975Y-84205705D01*
X109193699Y-84317946D01*
X109193692Y-84317952D01*
X109036135Y-84461586D01*
X109036131Y-84461589D01*
X109036128Y-84461593D01*
X109036125Y-84461597D01*
X108907635Y-84631743D01*
X108907630Y-84631752D01*
X108812596Y-84822608D01*
X108754244Y-85027688D01*
X108734571Y-85240000D01*
X108754244Y-85452311D01*
X108812598Y-85657401D01*
X108814249Y-85661661D01*
X108812870Y-85662195D01*
X108820977Y-85716647D01*
X108793348Y-85770256D01*
X107588320Y-86975286D01*
X107588316Y-86975291D01*
X107535593Y-87066611D01*
X107535592Y-87066611D01*
X107535593Y-87066612D01*
X107508300Y-87168473D01*
X107508300Y-88284299D01*
X107489393Y-88342490D01*
X107479304Y-88354303D01*
X106568026Y-89265580D01*
X106513509Y-89293357D01*
X106462260Y-89287891D01*
X106382456Y-89256976D01*
X106181976Y-89219500D01*
X105978024Y-89219500D01*
X105777546Y-89256975D01*
X105755334Y-89265580D01*
X105587363Y-89330652D01*
X105437881Y-89423207D01*
X105413959Y-89438019D01*
X105263237Y-89575420D01*
X105140328Y-89738177D01*
X105140323Y-89738186D01*
X105058450Y-89902611D01*
X105049418Y-89920750D01*
X104993603Y-90116917D01*
X104974785Y-90320000D01*
X104753300Y-90320000D01*
X104753300Y-87780000D01*
X104974785Y-87780000D01*
X104993603Y-87983083D01*
X104996228Y-87992310D01*
X105049419Y-88179252D01*
X105136583Y-88354303D01*
X105140327Y-88361821D01*
X105263236Y-88524579D01*
X105413959Y-88661981D01*
X105587363Y-88769348D01*
X105777544Y-88843024D01*
X105978024Y-88880500D01*
X106181976Y-88880500D01*
X106382456Y-88843024D01*
X106572637Y-88769348D01*
X106746041Y-88661981D01*
X106896764Y-88524579D01*
X107019673Y-88361821D01*
X107110582Y-88179250D01*
X107166397Y-87983083D01*
X107185215Y-87780000D01*
X107166397Y-87576917D01*
X107110582Y-87380750D01*
X107019673Y-87198179D01*
X106896764Y-87035421D01*
X106746041Y-86898019D01*
X106572637Y-86790652D01*
X106382456Y-86716976D01*
X106382455Y-86716975D01*
X106382453Y-86716975D01*
X106181976Y-86679500D01*
X105978024Y-86679500D01*
X105777546Y-86716975D01*
X105707632Y-86744059D01*
X105587363Y-86790652D01*
X105478676Y-86857948D01*
X105413959Y-86898019D01*
X105329196Y-86975291D01*
X105263236Y-87035421D01*
X105239682Y-87066612D01*
X105140328Y-87198177D01*
X105140323Y-87198186D01*
X105058450Y-87362611D01*
X105049418Y-87380750D01*
X104993603Y-87576917D01*
X104974785Y-87780000D01*
X104753300Y-87780000D01*
X104753300Y-85472299D01*
X104772207Y-85414108D01*
X104782285Y-85402307D01*
X104823104Y-85361488D01*
X104877618Y-85333713D01*
X104938050Y-85343284D01*
X104981315Y-85386549D01*
X104991682Y-85422355D01*
X104993603Y-85443083D01*
X105049418Y-85639250D01*
X105140327Y-85821821D01*
X105263236Y-85984579D01*
X105413959Y-86121981D01*
X105587363Y-86229348D01*
X105777544Y-86303024D01*
X105978024Y-86340500D01*
X106181976Y-86340500D01*
X106382456Y-86303024D01*
X106572637Y-86229348D01*
X106746041Y-86121981D01*
X106896764Y-85984579D01*
X107019673Y-85821821D01*
X107110582Y-85639250D01*
X107166397Y-85443083D01*
X107185215Y-85240000D01*
X107166397Y-85036917D01*
X107110582Y-84840750D01*
X107019673Y-84658179D01*
X106896764Y-84495421D01*
X106833297Y-84437564D01*
X106803033Y-84384390D01*
X106809804Y-84323581D01*
X106829991Y-84294400D01*
X106833908Y-84290482D01*
X106833913Y-84290480D01*
X107994897Y-83129496D01*
X108049414Y-83101719D01*
X108064901Y-83100500D01*
X108742887Y-83100500D01*
X108801078Y-83119407D01*
X108831508Y-83155372D01*
X108907634Y-83308255D01*
X109036128Y-83478407D01*
X109101399Y-83537910D01*
X109193692Y-83622047D01*
X109193699Y-83622053D01*
X109290415Y-83681937D01*
X109374981Y-83734298D01*
X109573802Y-83811321D01*
X109783390Y-83850500D01*
X109996610Y-83850500D01*
X110206198Y-83811321D01*
X110405019Y-83734298D01*
X110586302Y-83622052D01*
X110743872Y-83478407D01*
X110872366Y-83308255D01*
X110967405Y-83117389D01*
X111025756Y-82912310D01*
X111045429Y-82700000D01*
X111025756Y-82487690D01*
X110967405Y-82282611D01*
X110872366Y-82091745D01*
X110743872Y-81921593D01*
X110659185Y-81844390D01*
X110586307Y-81777952D01*
X110586300Y-81777946D01*
X110405024Y-81665705D01*
X110405019Y-81665702D01*
X110206195Y-81588678D01*
X109996610Y-81549500D01*
X109783390Y-81549500D01*
X109573804Y-81588678D01*
X109374980Y-81665702D01*
X109374975Y-81665705D01*
X109193699Y-81777946D01*
X109193692Y-81777952D01*
X109036135Y-81921586D01*
X109036131Y-81921589D01*
X109036128Y-81921593D01*
X109036125Y-81921597D01*
X108907635Y-82091743D01*
X108907630Y-82091752D01*
X108831508Y-82244628D01*
X108788646Y-82288290D01*
X108742887Y-82299500D01*
X107910727Y-82299500D01*
X107805273Y-82299500D01*
X107742929Y-82316204D01*
X107703407Y-82326794D01*
X107612091Y-82379516D01*
X107612086Y-82379520D01*
X107343359Y-82648246D01*
X107288843Y-82676023D01*
X107228411Y-82666451D01*
X107185146Y-82623187D01*
X107174779Y-82587381D01*
X107166397Y-82496917D01*
X107110582Y-82300750D01*
X107019673Y-82118179D01*
X106896764Y-81955421D01*
X106833297Y-81897564D01*
X106803033Y-81844390D01*
X106809804Y-81783581D01*
X106829991Y-81754400D01*
X106833908Y-81750482D01*
X106833913Y-81750480D01*
X107994897Y-80589496D01*
X108049414Y-80561719D01*
X108064901Y-80560500D01*
X108742887Y-80560500D01*
X108801078Y-80579407D01*
X108831508Y-80615372D01*
X108907634Y-80768255D01*
X109036128Y-80938407D01*
X109106734Y-81002773D01*
X109193692Y-81082047D01*
X109193699Y-81082053D01*
X109238060Y-81109520D01*
X109374981Y-81194298D01*
X109573802Y-81271321D01*
X109783390Y-81310500D01*
X109996610Y-81310500D01*
X110206198Y-81271321D01*
X110405019Y-81194298D01*
X110586302Y-81082052D01*
X110743872Y-80938407D01*
X110872366Y-80768255D01*
X110967405Y-80577389D01*
X111025756Y-80372310D01*
X111045429Y-80160000D01*
X111025756Y-79947690D01*
X110967405Y-79742611D01*
X110872366Y-79551745D01*
X110743872Y-79381593D01*
X110649902Y-79295927D01*
X110586307Y-79237952D01*
X110586300Y-79237946D01*
X110405024Y-79125705D01*
X110405019Y-79125702D01*
X110206195Y-79048678D01*
X109996610Y-79009500D01*
X109783390Y-79009500D01*
X109573804Y-79048678D01*
X109374980Y-79125702D01*
X109374975Y-79125705D01*
X109193699Y-79237946D01*
X109193692Y-79237952D01*
X109036135Y-79381586D01*
X109036131Y-79381589D01*
X109036128Y-79381593D01*
X109036125Y-79381597D01*
X108907635Y-79551743D01*
X108907630Y-79551752D01*
X108831508Y-79704628D01*
X108788646Y-79748290D01*
X108742887Y-79759500D01*
X107910727Y-79759500D01*
X107805273Y-79759500D01*
X107742929Y-79776204D01*
X107703407Y-79786794D01*
X107612091Y-79839516D01*
X107612086Y-79839520D01*
X107343359Y-80108246D01*
X107288843Y-80136023D01*
X107228411Y-80126451D01*
X107185146Y-80083187D01*
X107174779Y-80047381D01*
X107166397Y-79956917D01*
X107110582Y-79760750D01*
X107019673Y-79578179D01*
X106922240Y-79449157D01*
X106902263Y-79391330D01*
X106920092Y-79332799D01*
X106968918Y-79295927D01*
X107001246Y-79290500D01*
X108672725Y-79290500D01*
X108672727Y-79290500D01*
X108774588Y-79263207D01*
X108774590Y-79263205D01*
X108774592Y-79263205D01*
X108865908Y-79210483D01*
X108865908Y-79210482D01*
X108865913Y-79210480D01*
X109363326Y-78713065D01*
X109417841Y-78685290D01*
X109469090Y-78690756D01*
X109573802Y-78731321D01*
X109783390Y-78770500D01*
X109996610Y-78770500D01*
X110206198Y-78731321D01*
X110405019Y-78654298D01*
X110586302Y-78542052D01*
X110743872Y-78398407D01*
X110872366Y-78228255D01*
X110967405Y-78037389D01*
X111025756Y-77832310D01*
X111045429Y-77620000D01*
X111025756Y-77407690D01*
X110967405Y-77202611D01*
X110872366Y-77011745D01*
X110743872Y-76841593D01*
X110649902Y-76755927D01*
X110586307Y-76697952D01*
X110586300Y-76697946D01*
X110449383Y-76613171D01*
X110409862Y-76566463D01*
X110405343Y-76505444D01*
X110437553Y-76453424D01*
X110494189Y-76430270D01*
X110501500Y-76430000D01*
X110787824Y-76430000D01*
X110847370Y-76423598D01*
X110847381Y-76423596D01*
X110982088Y-76373353D01*
X110982090Y-76373352D01*
X111097184Y-76287192D01*
X111097192Y-76287184D01*
X111183352Y-76172090D01*
X111183353Y-76172088D01*
X111233596Y-76037381D01*
X111233598Y-76037370D01*
X111240000Y-75977824D01*
X111240000Y-75330001D01*
X111239999Y-75330000D01*
X110323012Y-75330000D01*
X110355925Y-75272993D01*
X110390000Y-75145826D01*
X110390000Y-75014174D01*
X110355925Y-74887007D01*
X110323012Y-74830000D01*
X111239999Y-74830000D01*
X111240000Y-74829999D01*
X111240000Y-74182175D01*
X111233598Y-74122629D01*
X111233596Y-74122618D01*
X111183353Y-73987911D01*
X111183352Y-73987909D01*
X111097192Y-73872815D01*
X111097184Y-73872807D01*
X110982090Y-73786647D01*
X110982088Y-73786646D01*
X110847381Y-73736403D01*
X110847370Y-73736401D01*
X110787824Y-73730000D01*
X110140001Y-73730000D01*
X110140000Y-73730001D01*
X110140000Y-74646988D01*
X110082993Y-74614075D01*
X109955826Y-74580000D01*
X109824174Y-74580000D01*
X109697007Y-74614075D01*
X109640000Y-74646988D01*
X109640000Y-73730001D01*
X109639999Y-73730000D01*
X108992176Y-73730000D01*
X108932629Y-73736401D01*
X108932618Y-73736403D01*
X108797911Y-73786646D01*
X108797909Y-73786647D01*
X108682815Y-73872807D01*
X108682807Y-73872815D01*
X108596647Y-73987909D01*
X108596646Y-73987911D01*
X108546403Y-74122618D01*
X108546401Y-74122629D01*
X108540000Y-74182175D01*
X108540000Y-74829999D01*
X108540001Y-74830000D01*
X109456988Y-74830000D01*
X109424075Y-74887007D01*
X109390000Y-75014174D01*
X109390000Y-75145826D01*
X109424075Y-75272993D01*
X109456988Y-75330000D01*
X108540001Y-75330000D01*
X108540000Y-75330001D01*
X108540000Y-75977824D01*
X108539999Y-75977824D01*
X108546401Y-76037370D01*
X108546403Y-76037381D01*
X108596646Y-76172088D01*
X108596647Y-76172090D01*
X108682807Y-76287184D01*
X108682815Y-76287192D01*
X108797909Y-76373352D01*
X108797911Y-76373353D01*
X108932618Y-76423596D01*
X108932629Y-76423598D01*
X108992176Y-76430000D01*
X109278500Y-76430000D01*
X109336691Y-76448907D01*
X109372655Y-76498407D01*
X109372655Y-76559593D01*
X109336691Y-76609093D01*
X109330617Y-76613171D01*
X109193699Y-76697946D01*
X109193692Y-76697952D01*
X109036135Y-76841586D01*
X109036131Y-76841589D01*
X109036128Y-76841593D01*
X109036125Y-76841597D01*
X108907635Y-77011743D01*
X108907630Y-77011752D01*
X108812596Y-77202608D01*
X108754244Y-77407688D01*
X108734571Y-77620000D01*
X108754244Y-77832311D01*
X108812598Y-78037401D01*
X108814249Y-78041661D01*
X108812873Y-78042193D01*
X108820975Y-78096662D01*
X108793348Y-78150257D01*
X108483104Y-78460503D01*
X108428587Y-78488281D01*
X108413100Y-78489500D01*
X107248354Y-78489500D01*
X107190163Y-78470593D01*
X107154199Y-78421093D01*
X107154199Y-78359907D01*
X107167258Y-78333716D01*
X107210134Y-78272481D01*
X107306266Y-78066323D01*
X107358872Y-77870000D01*
X106395686Y-77870000D01*
X106400080Y-77865606D01*
X106452741Y-77774394D01*
X106480000Y-77672661D01*
X106480000Y-77567339D01*
X106452741Y-77465606D01*
X106400080Y-77374394D01*
X106395686Y-77370000D01*
X107358872Y-77370000D01*
X107306266Y-77173676D01*
X107210134Y-76967518D01*
X107079665Y-76781188D01*
X106918811Y-76620334D01*
X106732481Y-76489865D01*
X106526323Y-76393733D01*
X106456882Y-76375126D01*
X106405567Y-76341802D01*
X106383641Y-76284680D01*
X106399477Y-76225580D01*
X106447027Y-76187074D01*
X106482503Y-76180499D01*
X106924864Y-76180499D01*
X106949991Y-76177585D01*
X107052765Y-76132206D01*
X107132206Y-76052765D01*
X107177585Y-75949991D01*
X107180500Y-75924865D01*
X107180499Y-74235136D01*
X107177585Y-74210009D01*
X107132206Y-74107235D01*
X107052765Y-74027794D01*
X106949991Y-73982415D01*
X106949990Y-73982414D01*
X106949988Y-73982414D01*
X106924868Y-73979500D01*
X105235139Y-73979500D01*
X105235136Y-73979501D01*
X105210009Y-73982414D01*
X105107235Y-74027794D01*
X105027794Y-74107235D01*
X104982414Y-74210011D01*
X104979500Y-74235130D01*
X104979500Y-75924860D01*
X104979501Y-75924863D01*
X104982414Y-75949990D01*
X104987709Y-75961981D01*
X105027794Y-76052765D01*
X105107235Y-76132206D01*
X105210009Y-76177585D01*
X105235135Y-76180500D01*
X105677494Y-76180499D01*
X105735683Y-76199406D01*
X105771647Y-76248906D01*
X105771647Y-76310091D01*
X105735683Y-76359592D01*
X105703116Y-76375125D01*
X105633679Y-76393731D01*
X105427518Y-76489865D01*
X105241188Y-76620334D01*
X105080334Y-76781188D01*
X104949865Y-76967518D01*
X104853733Y-77173676D01*
X104801128Y-77370000D01*
X105764314Y-77370000D01*
X105759920Y-77374394D01*
X105707259Y-77465606D01*
X105680000Y-77567339D01*
X105680000Y-77672661D01*
X105707259Y-77774394D01*
X105759920Y-77865606D01*
X105764314Y-77870000D01*
X104801128Y-77870000D01*
X104853733Y-78066323D01*
X104949865Y-78272481D01*
X105080334Y-78458811D01*
X105125060Y-78503537D01*
X105152837Y-78558054D01*
X105143266Y-78618486D01*
X105125060Y-78643545D01*
X103232317Y-80536290D01*
X103232316Y-80536291D01*
X103179593Y-80627611D01*
X103179592Y-80627611D01*
X103179593Y-80627612D01*
X103179593Y-80627613D01*
X103152300Y-80729473D01*
X101984700Y-80729473D01*
X101984700Y-74778900D01*
X102003607Y-74720709D01*
X102013696Y-74708896D01*
X104515096Y-72207496D01*
X104569613Y-72179719D01*
X104585100Y-72178500D01*
X111956713Y-72178500D01*
X112014904Y-72197407D01*
X112047276Y-72237510D01*
X112088894Y-72331765D01*
X112168335Y-72411206D01*
X112271109Y-72456585D01*
X112296235Y-72459500D01*
X113351164Y-72459499D01*
X113376291Y-72456585D01*
X113479065Y-72411206D01*
X113558506Y-72331765D01*
X113603885Y-72228991D01*
X113603886Y-72228978D01*
X113604469Y-72226838D01*
X113605592Y-72225122D01*
X113606892Y-72222179D01*
X113607378Y-72222393D01*
X113637986Y-72175650D01*
X113695190Y-72153938D01*
X113754230Y-72169996D01*
X113792556Y-72217691D01*
X113795525Y-72226826D01*
X113796112Y-72228984D01*
X113796114Y-72228990D01*
X113796115Y-72228991D01*
X113841494Y-72331765D01*
X113920935Y-72411206D01*
X114023709Y-72456585D01*
X114048835Y-72459500D01*
X115103764Y-72459499D01*
X115128891Y-72456585D01*
X115231665Y-72411206D01*
X115311106Y-72331765D01*
X115352723Y-72237510D01*
X115393523Y-72191916D01*
X115443287Y-72178500D01*
X115766079Y-72178500D01*
X115824270Y-72197407D01*
X115858175Y-72241180D01*
X115874138Y-72281658D01*
X115963500Y-72399500D01*
X116081342Y-72488862D01*
X116218923Y-72543117D01*
X116305382Y-72553500D01*
X116305384Y-72553500D01*
X116889616Y-72553500D01*
X116889618Y-72553500D01*
X116976077Y-72543117D01*
X117113658Y-72488862D01*
X117231500Y-72399500D01*
X117320544Y-72282077D01*
X117370769Y-72247136D01*
X117431942Y-72248389D01*
X117480695Y-72285359D01*
X117493402Y-72310757D01*
X117499548Y-72329306D01*
X117590053Y-72476035D01*
X117711964Y-72597946D01*
X117858693Y-72688451D01*
X118022351Y-72742681D01*
X118123345Y-72752999D01*
X118172500Y-72752998D01*
X118172500Y-72028001D01*
X118672500Y-72028001D01*
X118672500Y-72752998D01*
X118672501Y-72752999D01*
X118721654Y-72752999D01*
X118822642Y-72742682D01*
X118822654Y-72742679D01*
X118986306Y-72688451D01*
X119133035Y-72597946D01*
X119254946Y-72476035D01*
X119345451Y-72329306D01*
X119399681Y-72165648D01*
X119410000Y-72064655D01*
X119410000Y-72028001D01*
X119409999Y-72028000D01*
X118672501Y-72028000D01*
X118672500Y-72028001D01*
X118172500Y-72028001D01*
X118172500Y-70803001D01*
X118672500Y-70803001D01*
X118672500Y-71527999D01*
X118672501Y-71528000D01*
X119409998Y-71528000D01*
X119409999Y-71527999D01*
X119409999Y-71491345D01*
X119399682Y-71390357D01*
X119399679Y-71390345D01*
X119345451Y-71226693D01*
X119254946Y-71079964D01*
X119133035Y-70958053D01*
X118986306Y-70867548D01*
X118822648Y-70813318D01*
X118721655Y-70803000D01*
X118672501Y-70803000D01*
X118672500Y-70803001D01*
X118172500Y-70803001D01*
X118172500Y-70802999D01*
X118123347Y-70803000D01*
X118123344Y-70803001D01*
X118022357Y-70813317D01*
X118022345Y-70813320D01*
X117858693Y-70867548D01*
X117711964Y-70958053D01*
X117590053Y-71079964D01*
X117499549Y-71226692D01*
X117493402Y-71245243D01*
X117457150Y-71294533D01*
X117398850Y-71313100D01*
X117340770Y-71293854D01*
X117320543Y-71273921D01*
X117277881Y-71217663D01*
X117231500Y-71156500D01*
X117113658Y-71067138D01*
X116976079Y-71012883D01*
X116889620Y-71002500D01*
X116889618Y-71002500D01*
X116305382Y-71002500D01*
X116305379Y-71002500D01*
X116218920Y-71012883D01*
X116081341Y-71067138D01*
X115963503Y-71156497D01*
X115963497Y-71156503D01*
X115874139Y-71274340D01*
X115874138Y-71274341D01*
X115874138Y-71274342D01*
X115858175Y-71314819D01*
X115819240Y-71362016D01*
X115766079Y-71377500D01*
X115443287Y-71377500D01*
X115385096Y-71358593D01*
X115352723Y-71318489D01*
X115311106Y-71224235D01*
X115231665Y-71144794D01*
X115128891Y-71099415D01*
X115128890Y-71099414D01*
X115128888Y-71099414D01*
X115103768Y-71096500D01*
X114048839Y-71096500D01*
X114048836Y-71096501D01*
X114023709Y-71099414D01*
X113920935Y-71144794D01*
X113841494Y-71224235D01*
X113799878Y-71318488D01*
X113796113Y-71327014D01*
X113795526Y-71329173D01*
X113794403Y-71330886D01*
X113793108Y-71333821D01*
X113792622Y-71333606D01*
X113762003Y-71380357D01*
X113704797Y-71402062D01*
X113645758Y-71385996D01*
X113607438Y-71338297D01*
X113604472Y-71329166D01*
X113603885Y-71327011D01*
X113603885Y-71327009D01*
X113558506Y-71224235D01*
X113479065Y-71144794D01*
X113376291Y-71099415D01*
X113376290Y-71099414D01*
X113376288Y-71099414D01*
X113351168Y-71096500D01*
X112296239Y-71096500D01*
X112296236Y-71096501D01*
X112271109Y-71099414D01*
X112168335Y-71144794D01*
X112088894Y-71224235D01*
X112047276Y-71318489D01*
X112006477Y-71364084D01*
X111956713Y-71377500D01*
X104437006Y-71377500D01*
X104436990Y-71377499D01*
X104430927Y-71377499D01*
X104325473Y-71377499D01*
X104325470Y-71377499D01*
X104223613Y-71404792D01*
X104223609Y-71404794D01*
X104132287Y-71457519D01*
X104057719Y-71532086D01*
X104057720Y-71532087D01*
X101263718Y-74326089D01*
X101260236Y-74332121D01*
X101214766Y-74373061D01*
X101153916Y-74379456D01*
X101100928Y-74348863D01*
X101076042Y-74292967D01*
X101075500Y-74282620D01*
X101075500Y-71273891D01*
X101075805Y-71266124D01*
X101079102Y-71224235D01*
X101089595Y-71090900D01*
X101092022Y-71075571D01*
X101132146Y-70908445D01*
X101136942Y-70893686D01*
X101202718Y-70734890D01*
X101209755Y-70721078D01*
X101299564Y-70574523D01*
X101308684Y-70561971D01*
X101420309Y-70431275D01*
X101431275Y-70420309D01*
X101561971Y-70308684D01*
X101574523Y-70299564D01*
X101721078Y-70209755D01*
X101734890Y-70202718D01*
X101893686Y-70136942D01*
X101908445Y-70132146D01*
X102075571Y-70092022D01*
X102090900Y-70089595D01*
X102266125Y-70075805D01*
X102273892Y-70075500D01*
X102294531Y-70075500D01*
X125105469Y-70075500D01*
X125126108Y-70075500D01*
X125133875Y-70075805D01*
G37*
G04 #@! TD.AperFunction*
M02*
