G04 #@! TF.GenerationSoftware,KiCad,Pcbnew,7.0.11+dfsg-1build4*
G04 #@! TF.CreationDate,2024-11-02T00:46:08+09:00*
G04 #@! TF.ProjectId,bionic-z8800,62696f6e-6963-42d7-9a38-3830302e6b69,5*
G04 #@! TF.SameCoordinates,Original*
G04 #@! TF.FileFunction,Copper,L2,Bot*
G04 #@! TF.FilePolarity,Positive*
%FSLAX46Y46*%
G04 Gerber Fmt 4.6, Leading zero omitted, Abs format (unit mm)*
G04 Created by KiCad (PCBNEW 7.0.11+dfsg-1build4) date 2024-11-02 00:46:08*
%MOMM*%
%LPD*%
G01*
G04 APERTURE LIST*
G04 #@! TA.AperFunction,ComponentPad*
%ADD10R,1.600000X1.600000*%
G04 #@! TD*
G04 #@! TA.AperFunction,ComponentPad*
%ADD11O,1.600000X1.600000*%
G04 #@! TD*
G04 #@! TA.AperFunction,ComponentPad*
%ADD12R,1.700000X1.700000*%
G04 #@! TD*
G04 #@! TA.AperFunction,ComponentPad*
%ADD13O,1.700000X1.700000*%
G04 #@! TD*
G04 #@! TA.AperFunction,ViaPad*
%ADD14C,0.600000*%
G04 #@! TD*
G04 #@! TA.AperFunction,Conductor*
%ADD15C,0.200000*%
G04 #@! TD*
G04 APERTURE END LIST*
D10*
X107350000Y-75080000D03*
D11*
X107350000Y-77620000D03*
X107350000Y-80160000D03*
X107350000Y-82700000D03*
X107350000Y-85240000D03*
X107350000Y-87780000D03*
X107350000Y-90320000D03*
X107350000Y-92860000D03*
X107350000Y-95400000D03*
X107350000Y-97940000D03*
X107350000Y-100480000D03*
X107350000Y-103020000D03*
X107350000Y-105560000D03*
X107350000Y-108100000D03*
X107350000Y-110640000D03*
X107350000Y-113180000D03*
X107350000Y-115720000D03*
X107350000Y-118260000D03*
X107350000Y-120800000D03*
X107350000Y-123340000D03*
X107350000Y-125880000D03*
X107350000Y-128420000D03*
X107350000Y-130960000D03*
X107350000Y-133500000D03*
X122590000Y-133500000D03*
X122590000Y-130960000D03*
X122590000Y-128420000D03*
X122590000Y-125880000D03*
X122590000Y-123340000D03*
X122590000Y-120800000D03*
X122590000Y-118260000D03*
X122590000Y-115720000D03*
X122590000Y-113180000D03*
X122590000Y-110640000D03*
X122590000Y-108100000D03*
X122590000Y-105560000D03*
X122590000Y-103020000D03*
X122590000Y-100480000D03*
X122590000Y-97940000D03*
X122590000Y-95400000D03*
X122590000Y-92860000D03*
X122590000Y-90320000D03*
X122590000Y-87780000D03*
X122590000Y-85240000D03*
X122590000Y-82700000D03*
X122590000Y-80160000D03*
X122590000Y-77620000D03*
X122590000Y-75080000D03*
D12*
X111160000Y-75080000D03*
D13*
X111160000Y-77620000D03*
X111160000Y-80160000D03*
X111160000Y-82700000D03*
X111160000Y-85240000D03*
X111160000Y-87780000D03*
X111160000Y-90320000D03*
X111160000Y-92860000D03*
X111160000Y-95400000D03*
X111160000Y-97940000D03*
X111160000Y-100480000D03*
X111160000Y-103020000D03*
X111160000Y-105560000D03*
X111160000Y-108100000D03*
X111160000Y-110640000D03*
X111160000Y-113180000D03*
X111160000Y-115720000D03*
X111160000Y-118260000D03*
X111160000Y-120800000D03*
X111160000Y-123340000D03*
X111160000Y-125880000D03*
X111160000Y-128420000D03*
X111160000Y-130960000D03*
X111160000Y-133500000D03*
X118780000Y-133500000D03*
X118780000Y-130960000D03*
X118780000Y-128420000D03*
X118780000Y-125880000D03*
X118780000Y-123340000D03*
X118780000Y-120800000D03*
X118780000Y-118260000D03*
X118780000Y-115720000D03*
X118780000Y-113180000D03*
X118780000Y-110640000D03*
X118780000Y-108100000D03*
X118780000Y-105560000D03*
X118780000Y-103020000D03*
X118780000Y-100480000D03*
X118780000Y-97940000D03*
X118780000Y-95400000D03*
X118780000Y-92860000D03*
X118780000Y-90320000D03*
X118780000Y-87780000D03*
X118780000Y-85240000D03*
X118780000Y-82700000D03*
X118780000Y-80160000D03*
X118780000Y-77620000D03*
D12*
X118780000Y-75080000D03*
D14*
X114970000Y-130960000D03*
X126400000Y-110640000D03*
X116240000Y-119530000D03*
X104810000Y-110640000D03*
X115986000Y-113688000D03*
X115732000Y-111402000D03*
X116875000Y-107465000D03*
D15*
X110525000Y-77620000D02*
X107985000Y-75080000D01*
X107985000Y-75080000D02*
X107350000Y-75080000D01*
X111160000Y-77620000D02*
X110525000Y-77620000D01*
X107985000Y-77620000D02*
X107350000Y-77620000D01*
X110525000Y-80160000D02*
X107985000Y-77620000D01*
X111160000Y-80160000D02*
X110525000Y-80160000D01*
X110525000Y-82700000D02*
X107985000Y-80160000D01*
X107985000Y-80160000D02*
X107350000Y-80160000D01*
X111160000Y-82700000D02*
X110525000Y-82700000D01*
X107985000Y-82700000D02*
X107350000Y-82700000D01*
X111160000Y-85240000D02*
X110525000Y-85240000D01*
X110525000Y-85240000D02*
X107985000Y-82700000D01*
X111160000Y-87780000D02*
X110398000Y-87780000D01*
X110398000Y-87780000D02*
X107858000Y-85240000D01*
X107858000Y-85240000D02*
X107350000Y-85240000D01*
X107985000Y-87780000D02*
X107350000Y-87780000D01*
X111160000Y-90320000D02*
X110525000Y-90320000D01*
X110525000Y-90320000D02*
X107985000Y-87780000D01*
X107985000Y-90320000D02*
X107350000Y-90320000D01*
X111160000Y-92860000D02*
X110525000Y-92860000D01*
X110525000Y-92860000D02*
X107985000Y-90320000D01*
X107985000Y-92860000D02*
X107350000Y-92860000D01*
X110525000Y-95400000D02*
X107985000Y-92860000D01*
X111160000Y-95400000D02*
X110525000Y-95400000D01*
X119415000Y-101750000D02*
X120685000Y-103020000D01*
X111160000Y-100480000D02*
X112430000Y-101750000D01*
X120685000Y-103020000D02*
X120685000Y-103655000D01*
X120685000Y-103655000D02*
X122590000Y-105560000D01*
X112430000Y-101750000D02*
X119415000Y-101750000D01*
X112430000Y-104290000D02*
X119136346Y-104290000D01*
X120685000Y-106195000D02*
X122590000Y-108100000D01*
X120685000Y-105838654D02*
X120685000Y-106195000D01*
X119136346Y-104290000D02*
X120685000Y-105838654D01*
X111160000Y-103020000D02*
X112430000Y-104290000D01*
X120685000Y-108227000D02*
X120685000Y-111275000D01*
X118018000Y-106830000D02*
X119288000Y-106830000D01*
X111160000Y-105560000D02*
X116748000Y-105560000D01*
X120685000Y-111275000D02*
X122590000Y-113180000D01*
X119288000Y-106830000D02*
X120685000Y-108227000D01*
X116748000Y-105560000D02*
X118018000Y-106830000D01*
X115986000Y-113688000D02*
X116748000Y-114450000D01*
X116748000Y-114450000D02*
X121320000Y-114450000D01*
X121320000Y-114450000D02*
X122590000Y-115720000D01*
X107985000Y-108100000D02*
X107350000Y-108100000D01*
X110525000Y-110640000D02*
X107985000Y-108100000D01*
X111160000Y-110640000D02*
X110525000Y-110640000D01*
X107985000Y-110640000D02*
X107350000Y-110640000D01*
X110525000Y-113180000D02*
X107985000Y-110640000D01*
X111160000Y-113180000D02*
X110525000Y-113180000D01*
X107985000Y-113180000D02*
X107350000Y-113180000D01*
X111160000Y-115720000D02*
X110525000Y-115720000D01*
X110525000Y-115720000D02*
X107985000Y-113180000D01*
X122590000Y-130960000D02*
X121320000Y-129690000D01*
X112684000Y-131214000D02*
X111668000Y-132230000D01*
X121320000Y-129690000D02*
X113192000Y-129690000D01*
X113192000Y-129690000D02*
X112684000Y-130198000D01*
X110525000Y-132230000D02*
X109636000Y-131341000D01*
X112684000Y-130198000D02*
X112684000Y-131214000D01*
X109636000Y-124864000D02*
X111160000Y-123340000D01*
X111668000Y-132230000D02*
X110525000Y-132230000D01*
X109636000Y-131341000D02*
X109636000Y-124864000D01*
X114354000Y-120400000D02*
X114354000Y-112780000D01*
X112684000Y-122070000D02*
X114354000Y-120400000D01*
X112684000Y-126896000D02*
X112684000Y-122070000D01*
X111160000Y-128420000D02*
X112684000Y-126896000D01*
X114354000Y-112780000D02*
X115732000Y-111402000D01*
X118272000Y-124610000D02*
X117383000Y-125499000D01*
X112830000Y-129290000D02*
X111160000Y-130960000D01*
X117383000Y-125499000D02*
X117383000Y-128166000D01*
X120812000Y-122578000D02*
X120812000Y-123213000D01*
X119415000Y-124610000D02*
X118272000Y-124610000D01*
X116259000Y-129290000D02*
X112830000Y-129290000D01*
X120812000Y-123213000D02*
X119415000Y-124610000D01*
X117383000Y-128166000D02*
X116259000Y-129290000D01*
X122590000Y-120800000D02*
X120812000Y-122578000D01*
X118780000Y-125880000D02*
X120050000Y-124610000D01*
X124514000Y-123321000D02*
X124514000Y-99864000D01*
X124514000Y-99864000D02*
X122590000Y-97940000D01*
X123225000Y-124610000D02*
X124514000Y-123321000D01*
X120050000Y-124610000D02*
X123225000Y-124610000D01*
X123225000Y-116990000D02*
X120050000Y-116990000D01*
X122590000Y-103020000D02*
X124114000Y-104544000D01*
X120050000Y-116990000D02*
X118780000Y-118260000D01*
X124114000Y-104544000D02*
X124114000Y-116101000D01*
X124114000Y-116101000D02*
X123225000Y-116990000D01*
X109128000Y-123467000D02*
X109128000Y-131722000D01*
X118780000Y-110640000D02*
X115224000Y-110640000D01*
X109128000Y-131722000D02*
X107350000Y-133500000D01*
X113954000Y-120038000D02*
X111922000Y-122070000D01*
X113954000Y-111910000D02*
X113954000Y-120038000D01*
X115224000Y-110640000D02*
X113954000Y-111910000D01*
X111922000Y-122070000D02*
X110525000Y-122070000D01*
X110525000Y-122070000D02*
X109128000Y-123467000D01*
X110525000Y-119530000D02*
X108728000Y-121327000D01*
X108728000Y-124502000D02*
X107350000Y-125880000D01*
X117129000Y-108100000D02*
X113338000Y-111891000D01*
X113338000Y-111891000D02*
X113338000Y-118241000D01*
X118780000Y-108100000D02*
X117129000Y-108100000D01*
X113338000Y-118241000D02*
X112049000Y-119530000D01*
X112049000Y-119530000D02*
X110525000Y-119530000D01*
X108728000Y-121327000D02*
X108728000Y-124502000D01*
X111922000Y-116990000D02*
X110652000Y-116990000D01*
X108112000Y-119530000D02*
X106778500Y-119530000D01*
X106778500Y-119530000D02*
X105826000Y-120482500D01*
X116875000Y-107465000D02*
X112938000Y-111402000D01*
X112938000Y-115974000D02*
X111922000Y-116990000D01*
X110652000Y-116990000D02*
X108112000Y-119530000D01*
X105826000Y-120482500D02*
X105826000Y-129436000D01*
X105826000Y-129436000D02*
X107350000Y-130960000D01*
X112938000Y-111402000D02*
X112938000Y-115974000D01*
X118780000Y-100480000D02*
X122590000Y-100480000D01*
X119415000Y-95400000D02*
X121955000Y-92860000D01*
X121955000Y-92860000D02*
X122590000Y-92860000D01*
X118780000Y-95400000D02*
X119415000Y-95400000D01*
X121955000Y-90320000D02*
X122590000Y-90320000D01*
X118780000Y-92860000D02*
X119415000Y-92860000D01*
X119415000Y-92860000D02*
X121955000Y-90320000D01*
X118780000Y-90320000D02*
X119415000Y-90320000D01*
X119415000Y-90320000D02*
X121955000Y-87780000D01*
X121955000Y-87780000D02*
X122590000Y-87780000D01*
X118780000Y-87780000D02*
X119415000Y-87780000D01*
X121955000Y-85240000D02*
X122590000Y-85240000D01*
X119415000Y-87780000D02*
X121955000Y-85240000D01*
X121955000Y-82700000D02*
X122590000Y-82700000D01*
X119415000Y-85240000D02*
X121955000Y-82700000D01*
X118780000Y-85240000D02*
X119415000Y-85240000D01*
X118780000Y-82700000D02*
X119415000Y-82700000D01*
X119415000Y-82700000D02*
X121955000Y-80160000D01*
X121955000Y-80160000D02*
X122590000Y-80160000D01*
X118780000Y-80160000D02*
X119542000Y-80160000D01*
X122082000Y-77620000D02*
X122590000Y-77620000D01*
X119542000Y-80160000D02*
X122082000Y-77620000D01*
X118780000Y-77620000D02*
X119415000Y-77620000D01*
X119415000Y-77620000D02*
X121955000Y-75080000D01*
X121955000Y-75080000D02*
X122590000Y-75080000D01*
G04 #@! TA.AperFunction,Conductor*
G36*
X117653488Y-111110185D02*
G01*
X117697449Y-111159229D01*
X117754936Y-111274679D01*
X117754943Y-111274691D01*
X117889020Y-111452238D01*
X118053437Y-111602123D01*
X118053439Y-111602125D01*
X118242595Y-111719245D01*
X118242596Y-111719245D01*
X118242599Y-111719247D01*
X118436524Y-111794374D01*
X118491924Y-111836946D01*
X118515515Y-111902713D01*
X118499804Y-111970793D01*
X118449780Y-112019572D01*
X118436533Y-112025622D01*
X118325389Y-112068680D01*
X118242601Y-112100752D01*
X118242595Y-112100754D01*
X118053439Y-112217874D01*
X118053437Y-112217876D01*
X117889020Y-112367761D01*
X117754943Y-112545308D01*
X117754938Y-112545316D01*
X117655775Y-112744461D01*
X117655769Y-112744476D01*
X117594885Y-112958462D01*
X117594884Y-112958464D01*
X117574357Y-113179999D01*
X117574357Y-113180000D01*
X117594884Y-113401535D01*
X117594885Y-113401537D01*
X117655769Y-113615523D01*
X117655775Y-113615538D01*
X117757497Y-113819821D01*
X117755142Y-113820993D01*
X117770731Y-113877584D01*
X117749923Y-113944283D01*
X117696358Y-113989144D01*
X117646749Y-113999500D01*
X116985965Y-113999500D01*
X116918926Y-113979815D01*
X116898284Y-113963181D01*
X116674047Y-113738944D01*
X116640562Y-113677621D01*
X116638632Y-113666209D01*
X116633994Y-113628012D01*
X116622237Y-113531182D01*
X116566220Y-113383477D01*
X116476483Y-113253470D01*
X116358240Y-113148717D01*
X116358238Y-113148716D01*
X116358237Y-113148715D01*
X116218365Y-113075303D01*
X116064986Y-113037500D01*
X116064985Y-113037500D01*
X115907015Y-113037500D01*
X115907014Y-113037500D01*
X115753634Y-113075303D01*
X115613762Y-113148715D01*
X115495516Y-113253471D01*
X115405781Y-113383475D01*
X115405780Y-113383476D01*
X115349762Y-113531181D01*
X115330722Y-113687999D01*
X115330722Y-113688000D01*
X115349762Y-113844818D01*
X115405671Y-113992236D01*
X115405780Y-113992523D01*
X115495517Y-114122530D01*
X115613760Y-114227283D01*
X115613762Y-114227284D01*
X115753634Y-114300696D01*
X115907014Y-114338500D01*
X115907015Y-114338500D01*
X115948034Y-114338500D01*
X116015073Y-114358185D01*
X116035715Y-114374819D01*
X116406630Y-114745733D01*
X116415895Y-114756100D01*
X116438121Y-114783970D01*
X116438123Y-114783972D01*
X116485363Y-114816180D01*
X116489145Y-114818863D01*
X116535118Y-114852793D01*
X116542654Y-114856776D01*
X116550319Y-114860467D01*
X116550327Y-114860472D01*
X116575188Y-114868140D01*
X116604980Y-114877330D01*
X116609371Y-114878774D01*
X116663301Y-114897646D01*
X116663305Y-114897646D01*
X116671698Y-114899234D01*
X116680095Y-114900500D01*
X116680098Y-114900500D01*
X116737245Y-114900500D01*
X116741883Y-114900587D01*
X116799009Y-114902725D01*
X116799009Y-114902724D01*
X116799010Y-114902725D01*
X116799010Y-114902724D01*
X116808242Y-114901685D01*
X116808335Y-114902513D01*
X116823639Y-114900500D01*
X117646749Y-114900500D01*
X117713788Y-114920185D01*
X117759543Y-114972989D01*
X117769487Y-115042147D01*
X117755945Y-115079406D01*
X117757497Y-115080179D01*
X117655775Y-115284461D01*
X117655769Y-115284476D01*
X117594885Y-115498462D01*
X117594884Y-115498464D01*
X117574357Y-115719999D01*
X117574357Y-115720000D01*
X117594884Y-115941535D01*
X117594885Y-115941537D01*
X117655769Y-116155523D01*
X117655775Y-116155538D01*
X117754938Y-116354683D01*
X117754943Y-116354691D01*
X117889020Y-116532238D01*
X118053437Y-116682123D01*
X118053439Y-116682125D01*
X118242595Y-116799245D01*
X118242596Y-116799245D01*
X118242599Y-116799247D01*
X118436524Y-116874374D01*
X118491924Y-116916946D01*
X118515515Y-116982713D01*
X118499804Y-117050793D01*
X118449780Y-117099572D01*
X118436533Y-117105622D01*
X118325389Y-117148680D01*
X118242601Y-117180752D01*
X118242595Y-117180754D01*
X118053439Y-117297874D01*
X118053437Y-117297876D01*
X117889020Y-117447761D01*
X117754943Y-117625308D01*
X117754938Y-117625316D01*
X117655775Y-117824461D01*
X117655769Y-117824476D01*
X117594885Y-118038462D01*
X117594884Y-118038464D01*
X117574357Y-118259999D01*
X117574357Y-118260000D01*
X117594884Y-118481535D01*
X117594885Y-118481537D01*
X117655769Y-118695523D01*
X117655775Y-118695538D01*
X117754938Y-118894683D01*
X117754943Y-118894691D01*
X117889020Y-119072238D01*
X118053437Y-119222123D01*
X118053439Y-119222125D01*
X118242595Y-119339245D01*
X118242596Y-119339245D01*
X118242599Y-119339247D01*
X118436524Y-119414374D01*
X118491924Y-119456946D01*
X118515515Y-119522713D01*
X118499804Y-119590793D01*
X118449780Y-119639572D01*
X118436533Y-119645622D01*
X118325389Y-119688680D01*
X118242601Y-119720752D01*
X118242595Y-119720754D01*
X118053439Y-119837874D01*
X118053437Y-119837876D01*
X117889020Y-119987761D01*
X117754943Y-120165308D01*
X117754938Y-120165316D01*
X117655775Y-120364461D01*
X117655769Y-120364476D01*
X117594885Y-120578462D01*
X117594884Y-120578464D01*
X117574357Y-120799999D01*
X117574357Y-120800000D01*
X117594884Y-121021535D01*
X117594885Y-121021537D01*
X117655769Y-121235523D01*
X117655775Y-121235538D01*
X117754938Y-121434683D01*
X117754943Y-121434691D01*
X117889020Y-121612238D01*
X118053437Y-121762123D01*
X118053439Y-121762125D01*
X118242595Y-121879245D01*
X118242596Y-121879245D01*
X118242599Y-121879247D01*
X118436524Y-121954374D01*
X118491924Y-121996946D01*
X118515515Y-122062713D01*
X118499804Y-122130793D01*
X118449780Y-122179572D01*
X118436533Y-122185622D01*
X118288488Y-122242975D01*
X118242601Y-122260752D01*
X118242595Y-122260754D01*
X118053439Y-122377874D01*
X118053437Y-122377876D01*
X117889020Y-122527761D01*
X117754943Y-122705308D01*
X117754938Y-122705316D01*
X117655775Y-122904461D01*
X117655769Y-122904476D01*
X117594885Y-123118462D01*
X117594884Y-123118464D01*
X117574357Y-123339999D01*
X117574357Y-123340000D01*
X117594884Y-123561535D01*
X117594885Y-123561537D01*
X117655769Y-123775523D01*
X117655775Y-123775538D01*
X117754938Y-123974683D01*
X117754943Y-123974691D01*
X117762754Y-123985034D01*
X117882861Y-124144082D01*
X117889021Y-124152238D01*
X117889025Y-124152242D01*
X117898963Y-124161302D01*
X117935244Y-124221013D01*
X117933483Y-124290861D01*
X117919316Y-124317298D01*
X117920428Y-124317941D01*
X117919646Y-124319294D01*
X117915014Y-124325327D01*
X117912386Y-124330232D01*
X117910032Y-124333185D01*
X117909380Y-124332665D01*
X117899969Y-124344925D01*
X117087263Y-125157632D01*
X117076898Y-125166895D01*
X117049033Y-125189117D01*
X117049030Y-125189121D01*
X117016823Y-125236357D01*
X117014144Y-125240132D01*
X116980206Y-125286118D01*
X116976216Y-125293667D01*
X116972528Y-125301325D01*
X116955673Y-125355967D01*
X116954225Y-125360368D01*
X116935353Y-125414304D01*
X116933771Y-125422659D01*
X116932500Y-125431100D01*
X116932500Y-125488260D01*
X116932413Y-125492897D01*
X116930275Y-125550009D01*
X116931316Y-125559243D01*
X116930485Y-125559336D01*
X116932500Y-125574635D01*
X116932500Y-127928034D01*
X116912815Y-127995073D01*
X116896181Y-128015715D01*
X116108716Y-128803181D01*
X116047393Y-128836666D01*
X116021035Y-128839500D01*
X112862262Y-128839500D01*
X112848379Y-128838720D01*
X112844371Y-128838268D01*
X112812965Y-128834729D01*
X112756782Y-128845358D01*
X112752218Y-128846133D01*
X112695715Y-128854651D01*
X112687556Y-128857167D01*
X112679529Y-128859976D01*
X112628964Y-128886700D01*
X112624829Y-128888787D01*
X112573358Y-128913575D01*
X112566308Y-128918380D01*
X112559459Y-128923435D01*
X112519059Y-128963836D01*
X112515722Y-128967051D01*
X112480593Y-128999647D01*
X112418061Y-129030817D01*
X112348604Y-129023231D01*
X112294275Y-128979298D01*
X112272322Y-128912967D01*
X112283527Y-128861415D01*
X112282154Y-128860884D01*
X112284224Y-128855536D01*
X112284229Y-128855528D01*
X112345115Y-128641536D01*
X112365643Y-128420000D01*
X112345115Y-128198464D01*
X112321486Y-128115416D01*
X112292742Y-128014390D01*
X112293329Y-127944523D01*
X112324325Y-127892777D01*
X112979749Y-127237353D01*
X112990098Y-127228105D01*
X113017970Y-127205879D01*
X113050184Y-127158628D01*
X113052852Y-127154869D01*
X113086792Y-127108883D01*
X113086793Y-127108877D01*
X113090786Y-127101325D01*
X113094468Y-127093677D01*
X113094472Y-127093673D01*
X113111336Y-127038998D01*
X113112769Y-127034643D01*
X113131646Y-126980700D01*
X113131646Y-126980694D01*
X113133228Y-126972336D01*
X113134500Y-126963899D01*
X113134500Y-126906738D01*
X113134587Y-126902100D01*
X113136724Y-126844989D01*
X113135684Y-126835756D01*
X113136513Y-126835662D01*
X113134500Y-126820364D01*
X113134500Y-122307964D01*
X113154185Y-122240925D01*
X113170814Y-122220288D01*
X114649744Y-120741357D01*
X114660093Y-120732109D01*
X114687970Y-120709879D01*
X114720198Y-120662607D01*
X114722812Y-120658923D01*
X114756793Y-120612882D01*
X114756793Y-120612879D01*
X114756795Y-120612878D01*
X114760787Y-120605324D01*
X114764471Y-120597675D01*
X114767551Y-120587689D01*
X114781330Y-120543014D01*
X114782762Y-120538662D01*
X114801646Y-120484699D01*
X114801646Y-120484696D01*
X114803228Y-120476336D01*
X114804500Y-120467899D01*
X114804500Y-120410754D01*
X114804587Y-120406116D01*
X114806725Y-120348990D01*
X114805685Y-120339758D01*
X114806513Y-120339664D01*
X114804500Y-120324361D01*
X114804500Y-113017965D01*
X114824185Y-112950926D01*
X114840819Y-112930284D01*
X115682284Y-112088819D01*
X115743607Y-112055334D01*
X115769965Y-112052500D01*
X115810985Y-112052500D01*
X115964365Y-112014696D01*
X116024653Y-111983054D01*
X116104240Y-111941283D01*
X116222483Y-111836530D01*
X116312220Y-111706523D01*
X116368237Y-111558818D01*
X116387278Y-111402000D01*
X116368786Y-111249699D01*
X116368237Y-111245181D01*
X116367988Y-111244171D01*
X116368021Y-111243407D01*
X116367333Y-111237736D01*
X116368276Y-111237621D01*
X116371060Y-111174369D01*
X116411381Y-111117308D01*
X116476151Y-111091105D01*
X116488386Y-111090500D01*
X117586449Y-111090500D01*
X117653488Y-111110185D01*
G37*
G04 #@! TD.AperFunction*
G04 #@! TA.AperFunction,Conductor*
G36*
X127674853Y-70075882D02*
G01*
X127704568Y-70078220D01*
X127847136Y-70089440D01*
X127866346Y-70092483D01*
X128029638Y-70131686D01*
X128048130Y-70137694D01*
X128171090Y-70188626D01*
X128203277Y-70201959D01*
X128220614Y-70210793D01*
X128363786Y-70298529D01*
X128379527Y-70309965D01*
X128507217Y-70419022D01*
X128520977Y-70432782D01*
X128630034Y-70560472D01*
X128641470Y-70576213D01*
X128729206Y-70719385D01*
X128738040Y-70736722D01*
X128802302Y-70891862D01*
X128808315Y-70910368D01*
X128847515Y-71073648D01*
X128850559Y-71092866D01*
X128864118Y-71265146D01*
X128864500Y-71274875D01*
X128864500Y-137305124D01*
X128864118Y-137314853D01*
X128850559Y-137487133D01*
X128847515Y-137506351D01*
X128808315Y-137669631D01*
X128802302Y-137688137D01*
X128738040Y-137843277D01*
X128729206Y-137860614D01*
X128641470Y-138003786D01*
X128630034Y-138019527D01*
X128520977Y-138147217D01*
X128507217Y-138160977D01*
X128379527Y-138270034D01*
X128363786Y-138281470D01*
X128220614Y-138369206D01*
X128203277Y-138378040D01*
X128048137Y-138442302D01*
X128029631Y-138448315D01*
X127866351Y-138487515D01*
X127847133Y-138490559D01*
X127674854Y-138504118D01*
X127665125Y-138504500D01*
X102274875Y-138504500D01*
X102265146Y-138504118D01*
X102092866Y-138490559D01*
X102073648Y-138487515D01*
X101910368Y-138448315D01*
X101891862Y-138442302D01*
X101736722Y-138378040D01*
X101719385Y-138369206D01*
X101576213Y-138281470D01*
X101560472Y-138270034D01*
X101432782Y-138160977D01*
X101419022Y-138147217D01*
X101309965Y-138019527D01*
X101298529Y-138003786D01*
X101210793Y-137860614D01*
X101201959Y-137843277D01*
X101188626Y-137811090D01*
X101137694Y-137688130D01*
X101131686Y-137669638D01*
X101092483Y-137506346D01*
X101089440Y-137487132D01*
X101075882Y-137314852D01*
X101075500Y-137305124D01*
X101075500Y-129453036D01*
X105370729Y-129453036D01*
X105381355Y-129509196D01*
X105382132Y-129513765D01*
X105390652Y-129570291D01*
X105393162Y-129578427D01*
X105395976Y-129586470D01*
X105395976Y-129586471D01*
X105395977Y-129586472D01*
X105413961Y-129620500D01*
X105422688Y-129637011D01*
X105424776Y-129641149D01*
X105449574Y-129692641D01*
X105454362Y-129699665D01*
X105459431Y-129706532D01*
X105459434Y-129706538D01*
X105459438Y-129706542D01*
X105499847Y-129746951D01*
X105503064Y-129750290D01*
X105541947Y-129792196D01*
X105549210Y-129797988D01*
X105548689Y-129798641D01*
X105560930Y-129808034D01*
X106226142Y-130473246D01*
X106259627Y-130534569D01*
X106257727Y-130594861D01*
X106214244Y-130747687D01*
X106214244Y-130747689D01*
X106214244Y-130747690D01*
X106194571Y-130960000D01*
X106214244Y-131172310D01*
X106228503Y-131222426D01*
X106272596Y-131377392D01*
X106272596Y-131377394D01*
X106367632Y-131568253D01*
X106456716Y-131686218D01*
X106496128Y-131738407D01*
X106653698Y-131882052D01*
X106834981Y-131994298D01*
X107033802Y-132071321D01*
X107230613Y-132108111D01*
X107292893Y-132139779D01*
X107328166Y-132200092D01*
X107325232Y-132269900D01*
X107285023Y-132327040D01*
X107230613Y-132351888D01*
X107033802Y-132388679D01*
X107033799Y-132388679D01*
X107033799Y-132388680D01*
X106834982Y-132465701D01*
X106834980Y-132465702D01*
X106653699Y-132577947D01*
X106496127Y-132721593D01*
X106367632Y-132891746D01*
X106272596Y-133082605D01*
X106272596Y-133082607D01*
X106214244Y-133287689D01*
X106194571Y-133499999D01*
X106194571Y-133500000D01*
X106214244Y-133712310D01*
X106272596Y-133917392D01*
X106272596Y-133917394D01*
X106367632Y-134108253D01*
X106496127Y-134278406D01*
X106496128Y-134278407D01*
X106653698Y-134422052D01*
X106834981Y-134534298D01*
X107033802Y-134611321D01*
X107243390Y-134650500D01*
X107243392Y-134650500D01*
X107456608Y-134650500D01*
X107456610Y-134650500D01*
X107666198Y-134611321D01*
X107865019Y-134534298D01*
X108046302Y-134422052D01*
X108203872Y-134278407D01*
X108332366Y-134108255D01*
X108418373Y-133935528D01*
X108427403Y-133917394D01*
X108427403Y-133917393D01*
X108427405Y-133917389D01*
X108485756Y-133712310D01*
X108505429Y-133500000D01*
X108485756Y-133287690D01*
X108442271Y-133134858D01*
X108442857Y-133064994D01*
X108473854Y-133013247D01*
X109423744Y-132063357D01*
X109434093Y-132054109D01*
X109461970Y-132031879D01*
X109470011Y-132020083D01*
X109524035Y-131975781D01*
X109593438Y-131967718D01*
X109656183Y-131998458D01*
X109660147Y-132002251D01*
X110183630Y-132525733D01*
X110192895Y-132536100D01*
X110202179Y-132547742D01*
X110215121Y-132563970D01*
X110215125Y-132563973D01*
X110219649Y-132568171D01*
X110255401Y-132628201D01*
X110253023Y-132698030D01*
X110234258Y-132733793D01*
X110134947Y-132865302D01*
X110134938Y-132865316D01*
X110035775Y-133064461D01*
X110035769Y-133064476D01*
X109974885Y-133278462D01*
X109974884Y-133278464D01*
X109954357Y-133499999D01*
X109954357Y-133500000D01*
X109974884Y-133721535D01*
X109974885Y-133721537D01*
X110035769Y-133935523D01*
X110035775Y-133935538D01*
X110134938Y-134134683D01*
X110134943Y-134134691D01*
X110269020Y-134312238D01*
X110433437Y-134462123D01*
X110433439Y-134462125D01*
X110622595Y-134579245D01*
X110622596Y-134579245D01*
X110622599Y-134579247D01*
X110830060Y-134659618D01*
X111048757Y-134700500D01*
X111048759Y-134700500D01*
X111271241Y-134700500D01*
X111271243Y-134700500D01*
X111489940Y-134659618D01*
X111697401Y-134579247D01*
X111886562Y-134462124D01*
X112050981Y-134312236D01*
X112185058Y-134134689D01*
X112284229Y-133935528D01*
X112345115Y-133721536D01*
X112365643Y-133500000D01*
X112345115Y-133278464D01*
X112284229Y-133064472D01*
X112258721Y-133013245D01*
X112185061Y-132865316D01*
X112185056Y-132865308D01*
X112076527Y-132721593D01*
X112050981Y-132687764D01*
X112050978Y-132687761D01*
X112050973Y-132687756D01*
X112041036Y-132678697D01*
X112004755Y-132618985D01*
X112006516Y-132549138D01*
X112020631Y-132522801D01*
X112019516Y-132522158D01*
X112020295Y-132520807D01*
X112024964Y-132514718D01*
X112027629Y-132509747D01*
X112029992Y-132506784D01*
X112030648Y-132507307D01*
X112040032Y-132495070D01*
X112979744Y-131555357D01*
X112990093Y-131546109D01*
X113017970Y-131523879D01*
X113050198Y-131476607D01*
X113052812Y-131472923D01*
X113086793Y-131426882D01*
X113086793Y-131426879D01*
X113086795Y-131426878D01*
X113090787Y-131419324D01*
X113094471Y-131411675D01*
X113094472Y-131411673D01*
X113111330Y-131357014D01*
X113112762Y-131352662D01*
X113131646Y-131298699D01*
X113131646Y-131298696D01*
X113133232Y-131290311D01*
X113134500Y-131281904D01*
X113134500Y-131224738D01*
X113134587Y-131220100D01*
X113136724Y-131162992D01*
X113135684Y-131153761D01*
X113136513Y-131153667D01*
X113134500Y-131138366D01*
X113134500Y-130435966D01*
X113154185Y-130368927D01*
X113170819Y-130348285D01*
X113342285Y-130176819D01*
X113403608Y-130143334D01*
X113429966Y-130140500D01*
X117646749Y-130140500D01*
X117713788Y-130160185D01*
X117759543Y-130212989D01*
X117769487Y-130282147D01*
X117755945Y-130319406D01*
X117757497Y-130320179D01*
X117655775Y-130524461D01*
X117655769Y-130524476D01*
X117594885Y-130738462D01*
X117594884Y-130738464D01*
X117574357Y-130959999D01*
X117574357Y-130960000D01*
X117594884Y-131181535D01*
X117594885Y-131181537D01*
X117655769Y-131395523D01*
X117655775Y-131395538D01*
X117754938Y-131594683D01*
X117754943Y-131594691D01*
X117889020Y-131772238D01*
X118053437Y-131922123D01*
X118053439Y-131922125D01*
X118242595Y-132039245D01*
X118242596Y-132039245D01*
X118242599Y-132039247D01*
X118436524Y-132114374D01*
X118491924Y-132156946D01*
X118515515Y-132222713D01*
X118499804Y-132290793D01*
X118449780Y-132339572D01*
X118436533Y-132345622D01*
X118325389Y-132388680D01*
X118242601Y-132420752D01*
X118242595Y-132420754D01*
X118053439Y-132537874D01*
X118053437Y-132537876D01*
X117889020Y-132687761D01*
X117754943Y-132865308D01*
X117754938Y-132865316D01*
X117655775Y-133064461D01*
X117655769Y-133064476D01*
X117594885Y-133278462D01*
X117594884Y-133278464D01*
X117574357Y-133499999D01*
X117574357Y-133500000D01*
X117594884Y-133721535D01*
X117594885Y-133721537D01*
X117655769Y-133935523D01*
X117655775Y-133935538D01*
X117754938Y-134134683D01*
X117754943Y-134134691D01*
X117889020Y-134312238D01*
X118053437Y-134462123D01*
X118053439Y-134462125D01*
X118242595Y-134579245D01*
X118242596Y-134579245D01*
X118242599Y-134579247D01*
X118450060Y-134659618D01*
X118668757Y-134700500D01*
X118668759Y-134700500D01*
X118891241Y-134700500D01*
X118891243Y-134700500D01*
X119109940Y-134659618D01*
X119317401Y-134579247D01*
X119506562Y-134462124D01*
X119670981Y-134312236D01*
X119805058Y-134134689D01*
X119904229Y-133935528D01*
X119965115Y-133721536D01*
X119985643Y-133500000D01*
X119965115Y-133278464D01*
X119904229Y-133064472D01*
X119878721Y-133013245D01*
X119805061Y-132865316D01*
X119805056Y-132865308D01*
X119670979Y-132687761D01*
X119506562Y-132537876D01*
X119506560Y-132537874D01*
X119317404Y-132420754D01*
X119317395Y-132420750D01*
X119201023Y-132375668D01*
X119123475Y-132345625D01*
X119068075Y-132303054D01*
X119044484Y-132237288D01*
X119060195Y-132169207D01*
X119110219Y-132120428D01*
X119123466Y-132114377D01*
X119317401Y-132039247D01*
X119506562Y-131922124D01*
X119670981Y-131772236D01*
X119805058Y-131594689D01*
X119904229Y-131395528D01*
X119965115Y-131181536D01*
X119985643Y-130960000D01*
X119965115Y-130738464D01*
X119904229Y-130524472D01*
X119878721Y-130473246D01*
X119802503Y-130320179D01*
X119804857Y-130319006D01*
X119789269Y-130262416D01*
X119810077Y-130195717D01*
X119863642Y-130150856D01*
X119913251Y-130140500D01*
X121082034Y-130140500D01*
X121149073Y-130160185D01*
X121169715Y-130176819D01*
X121466142Y-130473246D01*
X121499627Y-130534569D01*
X121497727Y-130594861D01*
X121454244Y-130747687D01*
X121454244Y-130747689D01*
X121454244Y-130747690D01*
X121434571Y-130960000D01*
X121454244Y-131172310D01*
X121468503Y-131222426D01*
X121512596Y-131377392D01*
X121512596Y-131377394D01*
X121607632Y-131568253D01*
X121696716Y-131686218D01*
X121736128Y-131738407D01*
X121893698Y-131882052D01*
X122074981Y-131994298D01*
X122273802Y-132071321D01*
X122470613Y-132108111D01*
X122532893Y-132139779D01*
X122568166Y-132200092D01*
X122565232Y-132269900D01*
X122525023Y-132327040D01*
X122470613Y-132351888D01*
X122273802Y-132388679D01*
X122273799Y-132388679D01*
X122273799Y-132388680D01*
X122074982Y-132465701D01*
X122074980Y-132465702D01*
X121893699Y-132577947D01*
X121736127Y-132721593D01*
X121607632Y-132891746D01*
X121512596Y-133082605D01*
X121512596Y-133082607D01*
X121454244Y-133287689D01*
X121434571Y-133499999D01*
X121434571Y-133500000D01*
X121454244Y-133712310D01*
X121512596Y-133917392D01*
X121512596Y-133917394D01*
X121607632Y-134108253D01*
X121736127Y-134278406D01*
X121736128Y-134278407D01*
X121893698Y-134422052D01*
X122074981Y-134534298D01*
X122273802Y-134611321D01*
X122483390Y-134650500D01*
X122483392Y-134650500D01*
X122696608Y-134650500D01*
X122696610Y-134650500D01*
X122906198Y-134611321D01*
X123105019Y-134534298D01*
X123286302Y-134422052D01*
X123443872Y-134278407D01*
X123572366Y-134108255D01*
X123658373Y-133935528D01*
X123667403Y-133917394D01*
X123667403Y-133917393D01*
X123667405Y-133917389D01*
X123725756Y-133712310D01*
X123745429Y-133500000D01*
X123725756Y-133287690D01*
X123667405Y-133082611D01*
X123667403Y-133082606D01*
X123667403Y-133082605D01*
X123572367Y-132891746D01*
X123443872Y-132721593D01*
X123418025Y-132698030D01*
X123286302Y-132577948D01*
X123105019Y-132465702D01*
X123105017Y-132465701D01*
X122988989Y-132420752D01*
X122906198Y-132388679D01*
X122709385Y-132351888D01*
X122647106Y-132320221D01*
X122611833Y-132259908D01*
X122614767Y-132190100D01*
X122654976Y-132132960D01*
X122709384Y-132108111D01*
X122906198Y-132071321D01*
X123105019Y-131994298D01*
X123286302Y-131882052D01*
X123443872Y-131738407D01*
X123572366Y-131568255D01*
X123588727Y-131535397D01*
X123667403Y-131377394D01*
X123667403Y-131377393D01*
X123667405Y-131377389D01*
X123725756Y-131172310D01*
X123745429Y-130960000D01*
X123725756Y-130747690D01*
X123667405Y-130542611D01*
X123667403Y-130542606D01*
X123667403Y-130542605D01*
X123572367Y-130351746D01*
X123443872Y-130181593D01*
X123420389Y-130160185D01*
X123286302Y-130037948D01*
X123105019Y-129925702D01*
X123105017Y-129925701D01*
X122959884Y-129869477D01*
X122906198Y-129848679D01*
X122709385Y-129811888D01*
X122647106Y-129780221D01*
X122611833Y-129719908D01*
X122614767Y-129650100D01*
X122654976Y-129592960D01*
X122709384Y-129568111D01*
X122906198Y-129531321D01*
X123105019Y-129454298D01*
X123286302Y-129342052D01*
X123443872Y-129198407D01*
X123572366Y-129028255D01*
X123586611Y-128999647D01*
X123667403Y-128837394D01*
X123667403Y-128837393D01*
X123667405Y-128837389D01*
X123725756Y-128632310D01*
X123745429Y-128420000D01*
X123725756Y-128207690D01*
X123667405Y-128002611D01*
X123667403Y-128002606D01*
X123667403Y-128002605D01*
X123572367Y-127811746D01*
X123443872Y-127641593D01*
X123286302Y-127497948D01*
X123105019Y-127385702D01*
X123105017Y-127385701D01*
X122988989Y-127340752D01*
X122906198Y-127308679D01*
X122709385Y-127271888D01*
X122647106Y-127240221D01*
X122611833Y-127179908D01*
X122614767Y-127110100D01*
X122654976Y-127052960D01*
X122709384Y-127028111D01*
X122906198Y-126991321D01*
X123105019Y-126914298D01*
X123286302Y-126802052D01*
X123443872Y-126658407D01*
X123572366Y-126488255D01*
X123658373Y-126315528D01*
X123667403Y-126297394D01*
X123667403Y-126297393D01*
X123667405Y-126297389D01*
X123725756Y-126092310D01*
X123745429Y-125880000D01*
X123725756Y-125667690D01*
X123667405Y-125462611D01*
X123667403Y-125462606D01*
X123667403Y-125462605D01*
X123572367Y-125271746D01*
X123477289Y-125145844D01*
X123452597Y-125080483D01*
X123467162Y-125012148D01*
X123490796Y-124984971D01*
X123488965Y-124983140D01*
X123510015Y-124962087D01*
X123535974Y-124936128D01*
X123539260Y-124932962D01*
X123581194Y-124894055D01*
X123581196Y-124894050D01*
X123586987Y-124886790D01*
X123587643Y-124887313D01*
X123597032Y-124875070D01*
X124809744Y-123662357D01*
X124820093Y-123653109D01*
X124847970Y-123630879D01*
X124880198Y-123583607D01*
X124882812Y-123579923D01*
X124916793Y-123533882D01*
X124916793Y-123533879D01*
X124916795Y-123533878D01*
X124920778Y-123526341D01*
X124924468Y-123518677D01*
X124924472Y-123518673D01*
X124941330Y-123464018D01*
X124942761Y-123459668D01*
X124961646Y-123405700D01*
X124961646Y-123405698D01*
X124963228Y-123397336D01*
X124964500Y-123388899D01*
X124964500Y-123331738D01*
X124964587Y-123327100D01*
X124966724Y-123269992D01*
X124965684Y-123260761D01*
X124966513Y-123260667D01*
X124964500Y-123245366D01*
X124964500Y-99896261D01*
X124965280Y-99882376D01*
X124969270Y-99846965D01*
X124968956Y-99845308D01*
X124958632Y-99790741D01*
X124957870Y-99786253D01*
X124949348Y-99729713D01*
X124949347Y-99729711D01*
X124949347Y-99729709D01*
X124946829Y-99721545D01*
X124944023Y-99713524D01*
X124917306Y-99662978D01*
X124915213Y-99658833D01*
X124890425Y-99607358D01*
X124885620Y-99600310D01*
X124880567Y-99593465D01*
X124880566Y-99593462D01*
X124840152Y-99553048D01*
X124836935Y-99549708D01*
X124798057Y-99507807D01*
X124790790Y-99502012D01*
X124791310Y-99501359D01*
X124779070Y-99491966D01*
X123713856Y-98426753D01*
X123680371Y-98365430D01*
X123682270Y-98305141D01*
X123725756Y-98152310D01*
X123745429Y-97940000D01*
X123725756Y-97727690D01*
X123667405Y-97522611D01*
X123667403Y-97522606D01*
X123667403Y-97522605D01*
X123572367Y-97331746D01*
X123443872Y-97161593D01*
X123286302Y-97017948D01*
X123105019Y-96905702D01*
X123105017Y-96905701D01*
X122988989Y-96860752D01*
X122906198Y-96828679D01*
X122709385Y-96791888D01*
X122647106Y-96760221D01*
X122611833Y-96699908D01*
X122614767Y-96630100D01*
X122654976Y-96572960D01*
X122709384Y-96548111D01*
X122906198Y-96511321D01*
X123105019Y-96434298D01*
X123286302Y-96322052D01*
X123443872Y-96178407D01*
X123572366Y-96008255D01*
X123658373Y-95835528D01*
X123667403Y-95817394D01*
X123667403Y-95817393D01*
X123667405Y-95817389D01*
X123725756Y-95612310D01*
X123745429Y-95400000D01*
X123725756Y-95187690D01*
X123667405Y-94982611D01*
X123667403Y-94982606D01*
X123667403Y-94982605D01*
X123572367Y-94791746D01*
X123443872Y-94621593D01*
X123286302Y-94477948D01*
X123105019Y-94365702D01*
X123105017Y-94365701D01*
X122988989Y-94320752D01*
X122906198Y-94288679D01*
X122709385Y-94251888D01*
X122647106Y-94220221D01*
X122611833Y-94159908D01*
X122614767Y-94090100D01*
X122654976Y-94032960D01*
X122709384Y-94008111D01*
X122906198Y-93971321D01*
X123105019Y-93894298D01*
X123286302Y-93782052D01*
X123443872Y-93638407D01*
X123572366Y-93468255D01*
X123658373Y-93295528D01*
X123667403Y-93277394D01*
X123667403Y-93277393D01*
X123667405Y-93277389D01*
X123725756Y-93072310D01*
X123745429Y-92860000D01*
X123725756Y-92647690D01*
X123667405Y-92442611D01*
X123667403Y-92442606D01*
X123667403Y-92442605D01*
X123572367Y-92251746D01*
X123443872Y-92081593D01*
X123286302Y-91937948D01*
X123105019Y-91825702D01*
X123105017Y-91825701D01*
X122988989Y-91780752D01*
X122906198Y-91748679D01*
X122709385Y-91711888D01*
X122647106Y-91680221D01*
X122611833Y-91619908D01*
X122614767Y-91550100D01*
X122654976Y-91492960D01*
X122709384Y-91468111D01*
X122906198Y-91431321D01*
X123105019Y-91354298D01*
X123286302Y-91242052D01*
X123443872Y-91098407D01*
X123572366Y-90928255D01*
X123658373Y-90755528D01*
X123667403Y-90737394D01*
X123667403Y-90737393D01*
X123667405Y-90737389D01*
X123725756Y-90532310D01*
X123745429Y-90320000D01*
X123725756Y-90107690D01*
X123667405Y-89902611D01*
X123667403Y-89902606D01*
X123667403Y-89902605D01*
X123572367Y-89711746D01*
X123443872Y-89541593D01*
X123286302Y-89397948D01*
X123105019Y-89285702D01*
X123105017Y-89285701D01*
X122988989Y-89240752D01*
X122906198Y-89208679D01*
X122709385Y-89171888D01*
X122647106Y-89140221D01*
X122611833Y-89079908D01*
X122614767Y-89010100D01*
X122654976Y-88952960D01*
X122709384Y-88928111D01*
X122906198Y-88891321D01*
X123105019Y-88814298D01*
X123286302Y-88702052D01*
X123443872Y-88558407D01*
X123572366Y-88388255D01*
X123658373Y-88215528D01*
X123667403Y-88197394D01*
X123667403Y-88197393D01*
X123667405Y-88197389D01*
X123725756Y-87992310D01*
X123745429Y-87780000D01*
X123725756Y-87567690D01*
X123667405Y-87362611D01*
X123667403Y-87362606D01*
X123667403Y-87362605D01*
X123572367Y-87171746D01*
X123443872Y-87001593D01*
X123435607Y-86994058D01*
X123286302Y-86857948D01*
X123105019Y-86745702D01*
X123105017Y-86745701D01*
X122988989Y-86700752D01*
X122906198Y-86668679D01*
X122709385Y-86631888D01*
X122647106Y-86600221D01*
X122611833Y-86539908D01*
X122614767Y-86470100D01*
X122654976Y-86412960D01*
X122709384Y-86388111D01*
X122906198Y-86351321D01*
X123105019Y-86274298D01*
X123286302Y-86162052D01*
X123443872Y-86018407D01*
X123572366Y-85848255D01*
X123658373Y-85675528D01*
X123667403Y-85657394D01*
X123667403Y-85657393D01*
X123667405Y-85657389D01*
X123725756Y-85452310D01*
X123745429Y-85240000D01*
X123725756Y-85027690D01*
X123667405Y-84822611D01*
X123667403Y-84822606D01*
X123667403Y-84822605D01*
X123572367Y-84631746D01*
X123443872Y-84461593D01*
X123286302Y-84317948D01*
X123105019Y-84205702D01*
X123105017Y-84205701D01*
X122988989Y-84160752D01*
X122906198Y-84128679D01*
X122709385Y-84091888D01*
X122647106Y-84060221D01*
X122611833Y-83999908D01*
X122614767Y-83930100D01*
X122654976Y-83872960D01*
X122709384Y-83848111D01*
X122906198Y-83811321D01*
X123105019Y-83734298D01*
X123286302Y-83622052D01*
X123443872Y-83478407D01*
X123572366Y-83308255D01*
X123658373Y-83135528D01*
X123667403Y-83117394D01*
X123667403Y-83117393D01*
X123667405Y-83117389D01*
X123725756Y-82912310D01*
X123745429Y-82700000D01*
X123725756Y-82487690D01*
X123667405Y-82282611D01*
X123667403Y-82282606D01*
X123667403Y-82282605D01*
X123572367Y-82091746D01*
X123443872Y-81921593D01*
X123286302Y-81777948D01*
X123105019Y-81665702D01*
X123105017Y-81665701D01*
X122988989Y-81620752D01*
X122906198Y-81588679D01*
X122709385Y-81551888D01*
X122647106Y-81520221D01*
X122611833Y-81459908D01*
X122614767Y-81390100D01*
X122654976Y-81332960D01*
X122709384Y-81308111D01*
X122906198Y-81271321D01*
X123105019Y-81194298D01*
X123286302Y-81082052D01*
X123443872Y-80938407D01*
X123572366Y-80768255D01*
X123658373Y-80595528D01*
X123667403Y-80577394D01*
X123667403Y-80577393D01*
X123667405Y-80577389D01*
X123725756Y-80372310D01*
X123745429Y-80160000D01*
X123725756Y-79947690D01*
X123667405Y-79742611D01*
X123667403Y-79742606D01*
X123667403Y-79742605D01*
X123572367Y-79551746D01*
X123443872Y-79381593D01*
X123435607Y-79374058D01*
X123286302Y-79237948D01*
X123105019Y-79125702D01*
X123105017Y-79125701D01*
X122988989Y-79080752D01*
X122906198Y-79048679D01*
X122709385Y-79011888D01*
X122647106Y-78980221D01*
X122611833Y-78919908D01*
X122614767Y-78850100D01*
X122654976Y-78792960D01*
X122709384Y-78768111D01*
X122906198Y-78731321D01*
X123105019Y-78654298D01*
X123286302Y-78542052D01*
X123443872Y-78398407D01*
X123572366Y-78228255D01*
X123658373Y-78055528D01*
X123667403Y-78037394D01*
X123667403Y-78037393D01*
X123667405Y-78037389D01*
X123725756Y-77832310D01*
X123745429Y-77620000D01*
X123725756Y-77407690D01*
X123667405Y-77202611D01*
X123667403Y-77202606D01*
X123667403Y-77202605D01*
X123572367Y-77011746D01*
X123443872Y-76841593D01*
X123286302Y-76697948D01*
X123105019Y-76585702D01*
X123105017Y-76585701D01*
X122982946Y-76538411D01*
X122906198Y-76508679D01*
X122709385Y-76471888D01*
X122647106Y-76440221D01*
X122611833Y-76379908D01*
X122614767Y-76310100D01*
X122654976Y-76252960D01*
X122709384Y-76228111D01*
X122906198Y-76191321D01*
X123105019Y-76114298D01*
X123286302Y-76002052D01*
X123443872Y-75858407D01*
X123572366Y-75688255D01*
X123626270Y-75580000D01*
X123667403Y-75497394D01*
X123667403Y-75497393D01*
X123667405Y-75497389D01*
X123725756Y-75292310D01*
X123745429Y-75080000D01*
X123725756Y-74867690D01*
X123667405Y-74662611D01*
X123667403Y-74662606D01*
X123667403Y-74662605D01*
X123572367Y-74471746D01*
X123443872Y-74301593D01*
X123286302Y-74157948D01*
X123105019Y-74045702D01*
X123105017Y-74045701D01*
X122963307Y-73990803D01*
X122906198Y-73968679D01*
X122696610Y-73929500D01*
X122483390Y-73929500D01*
X122273802Y-73968679D01*
X122273799Y-73968679D01*
X122273799Y-73968680D01*
X122074982Y-74045701D01*
X122074980Y-74045702D01*
X121893699Y-74157947D01*
X121736127Y-74301593D01*
X121607632Y-74471746D01*
X121512596Y-74662605D01*
X121512596Y-74662607D01*
X121454244Y-74867689D01*
X121450617Y-74906829D01*
X121424830Y-74971766D01*
X121414827Y-74983068D01*
X120341681Y-76056215D01*
X120280358Y-76089700D01*
X120210666Y-76084716D01*
X120154733Y-76042844D01*
X120130316Y-75977380D01*
X120130000Y-75968534D01*
X120130000Y-75330000D01*
X119213686Y-75330000D01*
X119239493Y-75289844D01*
X119280000Y-75151889D01*
X119280000Y-75008111D01*
X119239493Y-74870156D01*
X119213686Y-74830000D01*
X120130000Y-74830000D01*
X120130000Y-74182172D01*
X120129999Y-74182155D01*
X120123598Y-74122627D01*
X120123596Y-74122620D01*
X120073354Y-73987913D01*
X120073350Y-73987906D01*
X119987190Y-73872812D01*
X119987187Y-73872809D01*
X119872093Y-73786649D01*
X119872086Y-73786645D01*
X119737379Y-73736403D01*
X119737372Y-73736401D01*
X119677844Y-73730000D01*
X119030000Y-73730000D01*
X119030000Y-74644498D01*
X118922315Y-74595320D01*
X118815763Y-74580000D01*
X118744237Y-74580000D01*
X118637685Y-74595320D01*
X118530000Y-74644498D01*
X118530000Y-73730000D01*
X117882155Y-73730000D01*
X117822627Y-73736401D01*
X117822620Y-73736403D01*
X117687913Y-73786645D01*
X117687906Y-73786649D01*
X117572812Y-73872809D01*
X117572809Y-73872812D01*
X117486649Y-73987906D01*
X117486645Y-73987913D01*
X117436403Y-74122620D01*
X117436401Y-74122627D01*
X117430000Y-74182155D01*
X117430000Y-74830000D01*
X118346314Y-74830000D01*
X118320507Y-74870156D01*
X118280000Y-75008111D01*
X118280000Y-75151889D01*
X118320507Y-75289844D01*
X118346314Y-75330000D01*
X117430000Y-75330000D01*
X117430000Y-75977844D01*
X117436401Y-76037372D01*
X117436403Y-76037379D01*
X117486645Y-76172086D01*
X117486649Y-76172093D01*
X117572809Y-76287187D01*
X117572812Y-76287190D01*
X117687906Y-76373350D01*
X117687913Y-76373354D01*
X117822620Y-76423596D01*
X117822627Y-76423598D01*
X117882155Y-76429999D01*
X117882172Y-76430000D01*
X117985655Y-76430000D01*
X118052694Y-76449685D01*
X118098449Y-76502489D01*
X118108393Y-76571647D01*
X118079368Y-76635203D01*
X118057542Y-76653796D01*
X118058014Y-76654420D01*
X118053437Y-76657876D01*
X117889020Y-76807761D01*
X117754943Y-76985308D01*
X117754938Y-76985316D01*
X117655775Y-77184461D01*
X117655769Y-77184476D01*
X117594885Y-77398462D01*
X117594884Y-77398464D01*
X117574357Y-77619999D01*
X117574357Y-77620000D01*
X117594884Y-77841535D01*
X117594885Y-77841537D01*
X117655769Y-78055523D01*
X117655775Y-78055538D01*
X117754938Y-78254683D01*
X117754943Y-78254691D01*
X117889020Y-78432238D01*
X118053437Y-78582123D01*
X118053439Y-78582125D01*
X118242595Y-78699245D01*
X118242596Y-78699245D01*
X118242599Y-78699247D01*
X118436524Y-78774374D01*
X118491924Y-78816946D01*
X118515515Y-78882713D01*
X118499804Y-78950793D01*
X118449780Y-78999572D01*
X118436533Y-79005622D01*
X118325389Y-79048680D01*
X118242601Y-79080752D01*
X118242595Y-79080754D01*
X118053439Y-79197874D01*
X118053437Y-79197876D01*
X117889020Y-79347761D01*
X117754943Y-79525308D01*
X117754938Y-79525316D01*
X117655775Y-79724461D01*
X117655769Y-79724476D01*
X117594885Y-79938462D01*
X117594884Y-79938464D01*
X117574357Y-80159999D01*
X117574357Y-80160000D01*
X117594884Y-80381535D01*
X117594885Y-80381537D01*
X117655769Y-80595523D01*
X117655775Y-80595538D01*
X117754938Y-80794683D01*
X117754943Y-80794691D01*
X117889020Y-80972238D01*
X118053437Y-81122123D01*
X118053439Y-81122125D01*
X118242595Y-81239245D01*
X118242596Y-81239245D01*
X118242599Y-81239247D01*
X118436524Y-81314374D01*
X118491924Y-81356946D01*
X118515515Y-81422713D01*
X118499804Y-81490793D01*
X118449780Y-81539572D01*
X118436533Y-81545622D01*
X118325389Y-81588680D01*
X118242601Y-81620752D01*
X118242595Y-81620754D01*
X118053439Y-81737874D01*
X118053437Y-81737876D01*
X117889020Y-81887761D01*
X117754943Y-82065308D01*
X117754938Y-82065316D01*
X117655775Y-82264461D01*
X117655769Y-82264476D01*
X117594885Y-82478462D01*
X117594884Y-82478464D01*
X117574357Y-82699999D01*
X117574357Y-82700000D01*
X117594884Y-82921535D01*
X117594885Y-82921537D01*
X117655769Y-83135523D01*
X117655775Y-83135538D01*
X117754938Y-83334683D01*
X117754943Y-83334691D01*
X117889020Y-83512238D01*
X118053437Y-83662123D01*
X118053439Y-83662125D01*
X118242595Y-83779245D01*
X118242596Y-83779245D01*
X118242599Y-83779247D01*
X118436524Y-83854374D01*
X118491924Y-83896946D01*
X118515515Y-83962713D01*
X118499804Y-84030793D01*
X118449780Y-84079572D01*
X118436533Y-84085622D01*
X118325389Y-84128680D01*
X118242601Y-84160752D01*
X118242595Y-84160754D01*
X118053439Y-84277874D01*
X118053437Y-84277876D01*
X117889020Y-84427761D01*
X117754943Y-84605308D01*
X117754938Y-84605316D01*
X117655775Y-84804461D01*
X117655769Y-84804476D01*
X117594885Y-85018462D01*
X117594884Y-85018464D01*
X117574357Y-85239999D01*
X117574357Y-85240000D01*
X117594884Y-85461535D01*
X117594885Y-85461537D01*
X117655769Y-85675523D01*
X117655775Y-85675538D01*
X117754938Y-85874683D01*
X117754943Y-85874691D01*
X117889020Y-86052238D01*
X118053437Y-86202123D01*
X118053439Y-86202125D01*
X118242595Y-86319245D01*
X118242596Y-86319245D01*
X118242599Y-86319247D01*
X118436524Y-86394374D01*
X118491924Y-86436946D01*
X118515515Y-86502713D01*
X118499804Y-86570793D01*
X118449780Y-86619572D01*
X118436533Y-86625622D01*
X118325389Y-86668680D01*
X118242601Y-86700752D01*
X118242595Y-86700754D01*
X118053439Y-86817874D01*
X118053437Y-86817876D01*
X117889020Y-86967761D01*
X117754943Y-87145308D01*
X117754938Y-87145316D01*
X117655775Y-87344461D01*
X117655769Y-87344476D01*
X117594885Y-87558462D01*
X117594884Y-87558464D01*
X117574357Y-87779999D01*
X117574357Y-87780000D01*
X117594884Y-88001535D01*
X117594885Y-88001537D01*
X117655769Y-88215523D01*
X117655775Y-88215538D01*
X117754938Y-88414683D01*
X117754943Y-88414691D01*
X117889020Y-88592238D01*
X118053437Y-88742123D01*
X118053439Y-88742125D01*
X118242595Y-88859245D01*
X118242596Y-88859245D01*
X118242599Y-88859247D01*
X118436524Y-88934374D01*
X118491924Y-88976946D01*
X118515515Y-89042713D01*
X118499804Y-89110793D01*
X118449780Y-89159572D01*
X118436533Y-89165622D01*
X118325389Y-89208680D01*
X118242601Y-89240752D01*
X118242595Y-89240754D01*
X118053439Y-89357874D01*
X118053437Y-89357876D01*
X117889020Y-89507761D01*
X117754943Y-89685308D01*
X117754938Y-89685316D01*
X117655775Y-89884461D01*
X117655769Y-89884476D01*
X117594885Y-90098462D01*
X117594884Y-90098464D01*
X117574357Y-90319999D01*
X117574357Y-90320000D01*
X117594884Y-90541535D01*
X117594885Y-90541537D01*
X117655769Y-90755523D01*
X117655775Y-90755538D01*
X117754938Y-90954683D01*
X117754943Y-90954691D01*
X117889020Y-91132238D01*
X118053437Y-91282123D01*
X118053439Y-91282125D01*
X118242595Y-91399245D01*
X118242596Y-91399245D01*
X118242599Y-91399247D01*
X118436524Y-91474374D01*
X118491924Y-91516946D01*
X118515515Y-91582713D01*
X118499804Y-91650793D01*
X118449780Y-91699572D01*
X118436533Y-91705622D01*
X118325389Y-91748680D01*
X118242601Y-91780752D01*
X118242595Y-91780754D01*
X118053439Y-91897874D01*
X118053437Y-91897876D01*
X117889020Y-92047761D01*
X117754943Y-92225308D01*
X117754938Y-92225316D01*
X117655775Y-92424461D01*
X117655769Y-92424476D01*
X117594885Y-92638462D01*
X117594884Y-92638464D01*
X117574357Y-92859999D01*
X117574357Y-92860000D01*
X117594884Y-93081535D01*
X117594885Y-93081537D01*
X117655769Y-93295523D01*
X117655775Y-93295538D01*
X117754938Y-93494683D01*
X117754943Y-93494691D01*
X117889020Y-93672238D01*
X118053437Y-93822123D01*
X118053439Y-93822125D01*
X118242595Y-93939245D01*
X118242596Y-93939245D01*
X118242599Y-93939247D01*
X118436524Y-94014374D01*
X118491924Y-94056946D01*
X118515515Y-94122713D01*
X118499804Y-94190793D01*
X118449780Y-94239572D01*
X118436533Y-94245622D01*
X118325389Y-94288680D01*
X118242601Y-94320752D01*
X118242595Y-94320754D01*
X118053439Y-94437874D01*
X118053437Y-94437876D01*
X117889020Y-94587761D01*
X117754943Y-94765308D01*
X117754938Y-94765316D01*
X117655775Y-94964461D01*
X117655769Y-94964476D01*
X117594885Y-95178462D01*
X117594884Y-95178464D01*
X117574357Y-95399999D01*
X117574357Y-95400000D01*
X117594884Y-95621535D01*
X117594885Y-95621537D01*
X117655769Y-95835523D01*
X117655775Y-95835538D01*
X117754938Y-96034683D01*
X117754943Y-96034691D01*
X117889020Y-96212238D01*
X118053437Y-96362123D01*
X118053439Y-96362125D01*
X118242595Y-96479245D01*
X118242596Y-96479245D01*
X118242599Y-96479247D01*
X118436524Y-96554374D01*
X118491924Y-96596946D01*
X118515515Y-96662713D01*
X118499804Y-96730793D01*
X118449780Y-96779572D01*
X118436533Y-96785622D01*
X118325389Y-96828680D01*
X118242601Y-96860752D01*
X118242595Y-96860754D01*
X118053439Y-96977874D01*
X118053437Y-96977876D01*
X117889020Y-97127761D01*
X117754943Y-97305308D01*
X117754938Y-97305316D01*
X117655775Y-97504461D01*
X117655769Y-97504476D01*
X117594885Y-97718462D01*
X117594884Y-97718464D01*
X117574357Y-97939999D01*
X117574357Y-97940000D01*
X117594884Y-98161535D01*
X117594885Y-98161537D01*
X117655769Y-98375523D01*
X117655775Y-98375538D01*
X117754938Y-98574683D01*
X117754943Y-98574691D01*
X117889020Y-98752238D01*
X118053437Y-98902123D01*
X118053439Y-98902125D01*
X118242595Y-99019245D01*
X118242596Y-99019245D01*
X118242599Y-99019247D01*
X118436524Y-99094374D01*
X118491924Y-99136946D01*
X118515515Y-99202713D01*
X118499804Y-99270793D01*
X118449780Y-99319572D01*
X118436533Y-99325622D01*
X118325389Y-99368680D01*
X118242601Y-99400752D01*
X118242595Y-99400754D01*
X118053439Y-99517874D01*
X118053437Y-99517876D01*
X117889020Y-99667761D01*
X117754943Y-99845308D01*
X117754938Y-99845316D01*
X117655775Y-100044461D01*
X117655769Y-100044476D01*
X117594885Y-100258462D01*
X117594884Y-100258464D01*
X117574357Y-100479999D01*
X117574357Y-100480000D01*
X117594884Y-100701535D01*
X117594885Y-100701537D01*
X117655769Y-100915523D01*
X117655775Y-100915538D01*
X117757497Y-101119821D01*
X117755142Y-101120993D01*
X117770731Y-101177584D01*
X117749923Y-101244283D01*
X117696358Y-101289144D01*
X117646749Y-101299500D01*
X112667965Y-101299500D01*
X112600926Y-101279815D01*
X112580284Y-101263181D01*
X112324326Y-101007223D01*
X112290841Y-100945900D01*
X112292740Y-100885611D01*
X112345115Y-100701536D01*
X112365643Y-100480000D01*
X112345115Y-100258464D01*
X112284229Y-100044472D01*
X112276774Y-100029500D01*
X112185061Y-99845316D01*
X112185056Y-99845308D01*
X112050979Y-99667761D01*
X111886562Y-99517876D01*
X111886560Y-99517874D01*
X111697404Y-99400754D01*
X111697395Y-99400750D01*
X111603956Y-99364552D01*
X111503475Y-99325625D01*
X111448075Y-99283054D01*
X111424484Y-99217288D01*
X111440195Y-99149207D01*
X111490219Y-99100428D01*
X111503466Y-99094377D01*
X111697401Y-99019247D01*
X111886562Y-98902124D01*
X112050981Y-98752236D01*
X112185058Y-98574689D01*
X112284229Y-98375528D01*
X112345115Y-98161536D01*
X112365643Y-97940000D01*
X112345115Y-97718464D01*
X112284229Y-97504472D01*
X112284224Y-97504461D01*
X112185061Y-97305316D01*
X112185056Y-97305308D01*
X112050979Y-97127761D01*
X111886562Y-96977876D01*
X111886560Y-96977874D01*
X111697404Y-96860754D01*
X111697395Y-96860750D01*
X111603956Y-96824552D01*
X111503475Y-96785625D01*
X111448075Y-96743054D01*
X111424484Y-96677288D01*
X111440195Y-96609207D01*
X111490219Y-96560428D01*
X111503466Y-96554377D01*
X111697401Y-96479247D01*
X111886562Y-96362124D01*
X112050981Y-96212236D01*
X112185058Y-96034689D01*
X112284229Y-95835528D01*
X112345115Y-95621536D01*
X112365643Y-95400000D01*
X112345115Y-95178464D01*
X112284229Y-94964472D01*
X112284224Y-94964461D01*
X112185061Y-94765316D01*
X112185056Y-94765308D01*
X112050979Y-94587761D01*
X111886562Y-94437876D01*
X111886560Y-94437874D01*
X111697404Y-94320754D01*
X111697395Y-94320750D01*
X111603956Y-94284552D01*
X111503475Y-94245625D01*
X111448075Y-94203054D01*
X111424484Y-94137288D01*
X111440195Y-94069207D01*
X111490219Y-94020428D01*
X111503466Y-94014377D01*
X111697401Y-93939247D01*
X111886562Y-93822124D01*
X112026282Y-93694751D01*
X112050979Y-93672238D01*
X112185056Y-93494691D01*
X112185058Y-93494689D01*
X112284229Y-93295528D01*
X112345115Y-93081536D01*
X112365643Y-92860000D01*
X112345115Y-92638464D01*
X112284229Y-92424472D01*
X112284224Y-92424461D01*
X112185061Y-92225316D01*
X112185056Y-92225308D01*
X112050979Y-92047761D01*
X111886562Y-91897876D01*
X111886560Y-91897874D01*
X111697404Y-91780754D01*
X111697395Y-91780750D01*
X111603956Y-91744552D01*
X111503475Y-91705625D01*
X111448075Y-91663054D01*
X111424484Y-91597288D01*
X111440195Y-91529207D01*
X111490219Y-91480428D01*
X111503466Y-91474377D01*
X111697401Y-91399247D01*
X111886562Y-91282124D01*
X112026282Y-91154751D01*
X112050979Y-91132238D01*
X112185056Y-90954691D01*
X112185058Y-90954689D01*
X112284229Y-90755528D01*
X112345115Y-90541536D01*
X112365643Y-90320000D01*
X112345115Y-90098464D01*
X112284229Y-89884472D01*
X112284224Y-89884461D01*
X112185061Y-89685316D01*
X112185056Y-89685308D01*
X112050979Y-89507761D01*
X111886562Y-89357876D01*
X111886560Y-89357874D01*
X111697404Y-89240754D01*
X111697395Y-89240750D01*
X111603956Y-89204552D01*
X111503475Y-89165625D01*
X111448075Y-89123054D01*
X111424484Y-89057288D01*
X111440195Y-88989207D01*
X111490219Y-88940428D01*
X111503466Y-88934377D01*
X111697401Y-88859247D01*
X111886562Y-88742124D01*
X112026282Y-88614751D01*
X112050979Y-88592238D01*
X112185056Y-88414691D01*
X112185058Y-88414689D01*
X112284229Y-88215528D01*
X112345115Y-88001536D01*
X112365643Y-87780000D01*
X112345115Y-87558464D01*
X112284229Y-87344472D01*
X112284224Y-87344461D01*
X112185061Y-87145316D01*
X112185056Y-87145308D01*
X112050979Y-86967761D01*
X111886562Y-86817876D01*
X111886560Y-86817874D01*
X111697404Y-86700754D01*
X111697395Y-86700750D01*
X111603956Y-86664552D01*
X111503475Y-86625625D01*
X111448075Y-86583054D01*
X111424484Y-86517288D01*
X111440195Y-86449207D01*
X111490219Y-86400428D01*
X111503466Y-86394377D01*
X111697401Y-86319247D01*
X111886562Y-86202124D01*
X112026282Y-86074751D01*
X112050979Y-86052238D01*
X112185056Y-85874691D01*
X112185058Y-85874689D01*
X112284229Y-85675528D01*
X112345115Y-85461536D01*
X112365643Y-85240000D01*
X112345115Y-85018464D01*
X112284229Y-84804472D01*
X112284224Y-84804461D01*
X112185061Y-84605316D01*
X112185056Y-84605308D01*
X112050979Y-84427761D01*
X111886562Y-84277876D01*
X111886560Y-84277874D01*
X111697404Y-84160754D01*
X111697395Y-84160750D01*
X111603956Y-84124552D01*
X111503475Y-84085625D01*
X111448075Y-84043054D01*
X111424484Y-83977288D01*
X111440195Y-83909207D01*
X111490219Y-83860428D01*
X111503466Y-83854377D01*
X111697401Y-83779247D01*
X111886562Y-83662124D01*
X112026282Y-83534751D01*
X112050979Y-83512238D01*
X112185056Y-83334691D01*
X112185058Y-83334689D01*
X112284229Y-83135528D01*
X112345115Y-82921536D01*
X112365643Y-82700000D01*
X112345115Y-82478464D01*
X112284229Y-82264472D01*
X112284224Y-82264461D01*
X112185061Y-82065316D01*
X112185056Y-82065308D01*
X112050979Y-81887761D01*
X111886562Y-81737876D01*
X111886560Y-81737874D01*
X111697404Y-81620754D01*
X111697395Y-81620750D01*
X111603956Y-81584552D01*
X111503475Y-81545625D01*
X111448075Y-81503054D01*
X111424484Y-81437288D01*
X111440195Y-81369207D01*
X111490219Y-81320428D01*
X111503466Y-81314377D01*
X111697401Y-81239247D01*
X111886562Y-81122124D01*
X112026282Y-80994751D01*
X112050979Y-80972238D01*
X112185056Y-80794691D01*
X112185058Y-80794689D01*
X112284229Y-80595528D01*
X112345115Y-80381536D01*
X112365643Y-80160000D01*
X112345115Y-79938464D01*
X112284229Y-79724472D01*
X112284224Y-79724461D01*
X112185061Y-79525316D01*
X112185056Y-79525308D01*
X112050979Y-79347761D01*
X111886562Y-79197876D01*
X111886560Y-79197874D01*
X111697404Y-79080754D01*
X111697395Y-79080750D01*
X111603956Y-79044552D01*
X111503475Y-79005625D01*
X111448075Y-78963054D01*
X111424484Y-78897288D01*
X111440195Y-78829207D01*
X111490219Y-78780428D01*
X111503466Y-78774377D01*
X111697401Y-78699247D01*
X111886562Y-78582124D01*
X112026282Y-78454751D01*
X112050979Y-78432238D01*
X112185056Y-78254691D01*
X112185058Y-78254689D01*
X112284229Y-78055528D01*
X112345115Y-77841536D01*
X112365643Y-77620000D01*
X112362566Y-77586798D01*
X112345115Y-77398464D01*
X112345114Y-77398462D01*
X112284230Y-77184476D01*
X112284229Y-77184472D01*
X112284224Y-77184461D01*
X112185061Y-76985316D01*
X112185056Y-76985308D01*
X112050979Y-76807761D01*
X111886562Y-76657876D01*
X111881986Y-76654420D01*
X111883171Y-76652850D01*
X111842429Y-76607393D01*
X111831329Y-76538411D01*
X111859285Y-76474378D01*
X111917423Y-76435625D01*
X111954345Y-76430000D01*
X112057828Y-76430000D01*
X112057844Y-76429999D01*
X112117372Y-76423598D01*
X112117379Y-76423596D01*
X112252086Y-76373354D01*
X112252093Y-76373350D01*
X112367187Y-76287190D01*
X112367190Y-76287187D01*
X112453350Y-76172093D01*
X112453354Y-76172086D01*
X112503596Y-76037379D01*
X112503598Y-76037372D01*
X112509999Y-75977844D01*
X112510000Y-75977827D01*
X112510000Y-75330000D01*
X111593686Y-75330000D01*
X111619493Y-75289844D01*
X111660000Y-75151889D01*
X111660000Y-75008111D01*
X111619493Y-74870156D01*
X111593686Y-74830000D01*
X112510000Y-74830000D01*
X112510000Y-74182172D01*
X112509999Y-74182155D01*
X112503598Y-74122627D01*
X112503596Y-74122620D01*
X112453354Y-73987913D01*
X112453350Y-73987906D01*
X112367190Y-73872812D01*
X112367187Y-73872809D01*
X112252093Y-73786649D01*
X112252086Y-73786645D01*
X112117379Y-73736403D01*
X112117372Y-73736401D01*
X112057844Y-73730000D01*
X111410000Y-73730000D01*
X111410000Y-74644498D01*
X111302315Y-74595320D01*
X111195763Y-74580000D01*
X111124237Y-74580000D01*
X111017685Y-74595320D01*
X110910000Y-74644498D01*
X110910000Y-73730000D01*
X110262155Y-73730000D01*
X110202627Y-73736401D01*
X110202620Y-73736403D01*
X110067913Y-73786645D01*
X110067906Y-73786649D01*
X109952812Y-73872809D01*
X109952809Y-73872812D01*
X109866649Y-73987906D01*
X109866645Y-73987913D01*
X109816403Y-74122620D01*
X109816401Y-74122627D01*
X109810000Y-74182155D01*
X109810000Y-74830000D01*
X110726314Y-74830000D01*
X110700507Y-74870156D01*
X110660000Y-75008111D01*
X110660000Y-75151889D01*
X110700507Y-75289844D01*
X110726314Y-75330000D01*
X109810000Y-75330000D01*
X109810000Y-75968535D01*
X109790315Y-76035574D01*
X109737511Y-76081329D01*
X109668353Y-76091273D01*
X109604797Y-76062248D01*
X109598319Y-76056216D01*
X108536819Y-74994716D01*
X108503334Y-74933393D01*
X108500500Y-74907035D01*
X108500500Y-74246739D01*
X108490573Y-74178608D01*
X108490573Y-74178607D01*
X108439198Y-74073517D01*
X108439196Y-74073515D01*
X108439196Y-74073514D01*
X108356485Y-73990803D01*
X108251391Y-73939426D01*
X108183261Y-73929500D01*
X108183260Y-73929500D01*
X106516740Y-73929500D01*
X106516739Y-73929500D01*
X106448608Y-73939426D01*
X106343514Y-73990803D01*
X106260803Y-74073514D01*
X106209426Y-74178608D01*
X106199500Y-74246739D01*
X106199500Y-75913260D01*
X106209426Y-75981391D01*
X106260803Y-76086485D01*
X106343514Y-76169196D01*
X106343515Y-76169196D01*
X106343517Y-76169198D01*
X106448607Y-76220573D01*
X106482673Y-76225536D01*
X106516739Y-76230500D01*
X107183755Y-76230500D01*
X107250794Y-76250185D01*
X107296549Y-76302989D01*
X107306493Y-76372147D01*
X107277468Y-76435703D01*
X107218690Y-76473477D01*
X107206549Y-76476386D01*
X107033802Y-76508679D01*
X107033799Y-76508679D01*
X107033799Y-76508680D01*
X106834982Y-76585701D01*
X106834980Y-76585702D01*
X106653699Y-76697947D01*
X106496127Y-76841593D01*
X106367632Y-77011746D01*
X106272596Y-77202605D01*
X106272596Y-77202607D01*
X106214244Y-77407689D01*
X106194571Y-77619999D01*
X106194571Y-77620000D01*
X106214244Y-77832310D01*
X106272596Y-78037392D01*
X106272596Y-78037394D01*
X106367632Y-78228253D01*
X106496127Y-78398406D01*
X106496128Y-78398407D01*
X106653698Y-78542052D01*
X106834981Y-78654298D01*
X107033802Y-78731321D01*
X107230613Y-78768111D01*
X107292893Y-78799779D01*
X107328166Y-78860092D01*
X107325232Y-78929900D01*
X107285023Y-78987040D01*
X107230613Y-79011888D01*
X107033802Y-79048679D01*
X107033799Y-79048679D01*
X107033799Y-79048680D01*
X106834982Y-79125701D01*
X106834980Y-79125702D01*
X106653699Y-79237947D01*
X106496127Y-79381593D01*
X106367632Y-79551746D01*
X106272596Y-79742605D01*
X106272596Y-79742607D01*
X106214244Y-79947689D01*
X106194571Y-80159999D01*
X106194571Y-80160000D01*
X106214244Y-80372310D01*
X106272596Y-80577392D01*
X106272596Y-80577394D01*
X106367632Y-80768253D01*
X106496127Y-80938406D01*
X106496128Y-80938407D01*
X106653698Y-81082052D01*
X106834981Y-81194298D01*
X107033802Y-81271321D01*
X107230613Y-81308111D01*
X107292893Y-81339779D01*
X107328166Y-81400092D01*
X107325232Y-81469900D01*
X107285023Y-81527040D01*
X107230613Y-81551888D01*
X107033802Y-81588679D01*
X107033799Y-81588679D01*
X107033799Y-81588680D01*
X106834982Y-81665701D01*
X106834980Y-81665702D01*
X106653699Y-81777947D01*
X106496127Y-81921593D01*
X106367632Y-82091746D01*
X106272596Y-82282605D01*
X106272596Y-82282607D01*
X106214244Y-82487689D01*
X106194571Y-82699999D01*
X106194571Y-82700000D01*
X106214244Y-82912310D01*
X106272596Y-83117392D01*
X106272596Y-83117394D01*
X106367632Y-83308253D01*
X106496127Y-83478406D01*
X106496128Y-83478407D01*
X106653698Y-83622052D01*
X106834981Y-83734298D01*
X107033802Y-83811321D01*
X107230613Y-83848111D01*
X107292893Y-83879779D01*
X107328166Y-83940092D01*
X107325232Y-84009900D01*
X107285023Y-84067040D01*
X107230613Y-84091888D01*
X107033802Y-84128679D01*
X107033799Y-84128679D01*
X107033799Y-84128680D01*
X106834982Y-84205701D01*
X106834980Y-84205702D01*
X106653699Y-84317947D01*
X106496127Y-84461593D01*
X106367632Y-84631746D01*
X106272596Y-84822605D01*
X106272596Y-84822607D01*
X106214244Y-85027689D01*
X106194571Y-85239999D01*
X106194571Y-85240000D01*
X106214244Y-85452310D01*
X106272596Y-85657392D01*
X106272596Y-85657394D01*
X106367632Y-85848253D01*
X106496127Y-86018406D01*
X106496128Y-86018407D01*
X106653698Y-86162052D01*
X106834981Y-86274298D01*
X107033802Y-86351321D01*
X107230613Y-86388111D01*
X107292893Y-86419779D01*
X107328166Y-86480092D01*
X107325232Y-86549900D01*
X107285023Y-86607040D01*
X107230613Y-86631888D01*
X107033802Y-86668679D01*
X107033799Y-86668679D01*
X107033799Y-86668680D01*
X106834982Y-86745701D01*
X106834980Y-86745702D01*
X106653699Y-86857947D01*
X106496127Y-87001593D01*
X106367632Y-87171746D01*
X106272596Y-87362605D01*
X106272596Y-87362607D01*
X106214244Y-87567689D01*
X106194571Y-87779999D01*
X106194571Y-87780000D01*
X106214244Y-87992310D01*
X106272596Y-88197392D01*
X106272596Y-88197394D01*
X106367632Y-88388253D01*
X106496127Y-88558406D01*
X106496128Y-88558407D01*
X106653698Y-88702052D01*
X106834981Y-88814298D01*
X107033802Y-88891321D01*
X107230613Y-88928111D01*
X107292893Y-88959779D01*
X107328166Y-89020092D01*
X107325232Y-89089900D01*
X107285023Y-89147040D01*
X107230613Y-89171888D01*
X107033802Y-89208679D01*
X107033799Y-89208679D01*
X107033799Y-89208680D01*
X106834982Y-89285701D01*
X106834980Y-89285702D01*
X106653699Y-89397947D01*
X106496127Y-89541593D01*
X106367632Y-89711746D01*
X106272596Y-89902605D01*
X106272596Y-89902607D01*
X106214244Y-90107689D01*
X106194571Y-90319999D01*
X106194571Y-90320000D01*
X106214244Y-90532310D01*
X106272596Y-90737392D01*
X106272596Y-90737394D01*
X106367632Y-90928253D01*
X106496127Y-91098406D01*
X106496128Y-91098407D01*
X106653698Y-91242052D01*
X106834981Y-91354298D01*
X107033802Y-91431321D01*
X107230613Y-91468111D01*
X107292893Y-91499779D01*
X107328166Y-91560092D01*
X107325232Y-91629900D01*
X107285023Y-91687040D01*
X107230613Y-91711888D01*
X107033802Y-91748679D01*
X107033799Y-91748679D01*
X107033799Y-91748680D01*
X106834982Y-91825701D01*
X106834980Y-91825702D01*
X106653699Y-91937947D01*
X106496127Y-92081593D01*
X106367632Y-92251746D01*
X106272596Y-92442605D01*
X106272596Y-92442607D01*
X106214244Y-92647689D01*
X106194571Y-92859999D01*
X106194571Y-92860000D01*
X106214244Y-93072310D01*
X106272596Y-93277392D01*
X106272596Y-93277394D01*
X106367632Y-93468253D01*
X106496127Y-93638406D01*
X106496128Y-93638407D01*
X106653698Y-93782052D01*
X106834981Y-93894298D01*
X107033802Y-93971321D01*
X107230613Y-94008111D01*
X107292893Y-94039779D01*
X107328166Y-94100092D01*
X107325232Y-94169900D01*
X107285023Y-94227040D01*
X107230613Y-94251888D01*
X107033802Y-94288679D01*
X107033799Y-94288679D01*
X107033799Y-94288680D01*
X106834982Y-94365701D01*
X106834980Y-94365702D01*
X106653699Y-94477947D01*
X106496127Y-94621593D01*
X106367632Y-94791746D01*
X106272596Y-94982605D01*
X106272596Y-94982607D01*
X106214244Y-95187689D01*
X106194571Y-95399999D01*
X106194571Y-95400000D01*
X106214244Y-95612310D01*
X106272596Y-95817392D01*
X106272596Y-95817394D01*
X106367632Y-96008253D01*
X106496127Y-96178406D01*
X106496128Y-96178407D01*
X106653698Y-96322052D01*
X106834981Y-96434298D01*
X107033802Y-96511321D01*
X107230613Y-96548111D01*
X107292893Y-96579779D01*
X107328166Y-96640092D01*
X107325232Y-96709900D01*
X107285023Y-96767040D01*
X107230613Y-96791888D01*
X107033802Y-96828679D01*
X107033799Y-96828679D01*
X107033799Y-96828680D01*
X106834982Y-96905701D01*
X106834980Y-96905702D01*
X106653699Y-97017947D01*
X106496127Y-97161593D01*
X106367632Y-97331746D01*
X106272596Y-97522605D01*
X106272596Y-97522607D01*
X106216870Y-97718462D01*
X106214244Y-97727690D01*
X106194571Y-97940000D01*
X106214244Y-98152310D01*
X106257727Y-98305136D01*
X106272596Y-98357392D01*
X106272596Y-98357394D01*
X106367632Y-98548253D01*
X106496127Y-98718406D01*
X106496128Y-98718407D01*
X106653698Y-98862052D01*
X106834981Y-98974298D01*
X107033802Y-99051321D01*
X107230613Y-99088111D01*
X107292893Y-99119779D01*
X107328166Y-99180092D01*
X107325232Y-99249900D01*
X107285023Y-99307040D01*
X107230613Y-99331888D01*
X107033802Y-99368679D01*
X107033799Y-99368679D01*
X107033799Y-99368680D01*
X106834982Y-99445701D01*
X106834980Y-99445702D01*
X106653699Y-99557947D01*
X106496127Y-99701593D01*
X106367632Y-99871746D01*
X106272596Y-100062605D01*
X106272596Y-100062607D01*
X106216870Y-100258462D01*
X106214244Y-100267690D01*
X106194571Y-100480000D01*
X106214244Y-100692310D01*
X106216868Y-100701534D01*
X106272596Y-100897392D01*
X106272596Y-100897394D01*
X106367632Y-101088253D01*
X106485462Y-101244283D01*
X106496128Y-101258407D01*
X106653698Y-101402052D01*
X106834981Y-101514298D01*
X107033802Y-101591321D01*
X107230613Y-101628111D01*
X107292893Y-101659779D01*
X107328166Y-101720092D01*
X107325232Y-101789900D01*
X107285023Y-101847040D01*
X107230613Y-101871888D01*
X107033802Y-101908679D01*
X107033799Y-101908679D01*
X107033799Y-101908680D01*
X106834982Y-101985701D01*
X106834980Y-101985702D01*
X106653699Y-102097947D01*
X106496127Y-102241593D01*
X106367632Y-102411746D01*
X106272596Y-102602605D01*
X106272596Y-102602607D01*
X106216870Y-102798462D01*
X106214244Y-102807690D01*
X106194571Y-103020000D01*
X106214244Y-103232310D01*
X106266803Y-103417034D01*
X106272596Y-103437392D01*
X106272596Y-103437394D01*
X106367632Y-103628253D01*
X106446557Y-103732765D01*
X106496128Y-103798407D01*
X106653698Y-103942052D01*
X106834981Y-104054298D01*
X107033802Y-104131321D01*
X107230613Y-104168111D01*
X107292893Y-104199779D01*
X107328166Y-104260092D01*
X107325232Y-104329900D01*
X107285023Y-104387040D01*
X107230613Y-104411888D01*
X107033802Y-104448679D01*
X107033799Y-104448679D01*
X107033799Y-104448680D01*
X106834982Y-104525701D01*
X106834980Y-104525702D01*
X106653699Y-104637947D01*
X106496127Y-104781593D01*
X106367632Y-104951746D01*
X106272596Y-105142605D01*
X106272596Y-105142607D01*
X106216870Y-105338462D01*
X106214244Y-105347690D01*
X106194571Y-105560000D01*
X106214244Y-105772310D01*
X106266803Y-105957034D01*
X106272596Y-105977392D01*
X106272596Y-105977394D01*
X106367632Y-106168253D01*
X106492930Y-106334172D01*
X106496128Y-106338407D01*
X106653698Y-106482052D01*
X106834981Y-106594298D01*
X107033802Y-106671321D01*
X107230613Y-106708111D01*
X107292893Y-106739779D01*
X107328166Y-106800092D01*
X107325232Y-106869900D01*
X107285023Y-106927040D01*
X107230613Y-106951888D01*
X107033802Y-106988679D01*
X107033799Y-106988679D01*
X107033799Y-106988680D01*
X106834982Y-107065701D01*
X106834980Y-107065702D01*
X106653699Y-107177947D01*
X106496127Y-107321593D01*
X106367632Y-107491746D01*
X106272596Y-107682605D01*
X106272596Y-107682607D01*
X106214244Y-107887689D01*
X106210618Y-107926827D01*
X106194571Y-108100000D01*
X106214244Y-108312310D01*
X106250179Y-108438608D01*
X106272596Y-108517392D01*
X106272596Y-108517394D01*
X106367632Y-108708253D01*
X106492930Y-108874172D01*
X106496128Y-108878407D01*
X106653698Y-109022052D01*
X106834981Y-109134298D01*
X107033802Y-109211321D01*
X107230613Y-109248111D01*
X107292893Y-109279779D01*
X107328166Y-109340092D01*
X107325232Y-109409900D01*
X107285023Y-109467040D01*
X107230613Y-109491888D01*
X107033802Y-109528679D01*
X107033799Y-109528679D01*
X107033799Y-109528680D01*
X106834982Y-109605701D01*
X106834980Y-109605702D01*
X106653699Y-109717947D01*
X106496127Y-109861593D01*
X106367632Y-110031746D01*
X106272596Y-110222605D01*
X106272596Y-110222607D01*
X106214244Y-110427689D01*
X106194571Y-110639999D01*
X106194571Y-110640000D01*
X106214244Y-110852310D01*
X106272596Y-111057392D01*
X106272596Y-111057394D01*
X106367632Y-111248253D01*
X106446557Y-111352765D01*
X106496128Y-111418407D01*
X106653698Y-111562052D01*
X106834981Y-111674298D01*
X107033802Y-111751321D01*
X107230613Y-111788111D01*
X107292893Y-111819779D01*
X107328166Y-111880092D01*
X107325232Y-111949900D01*
X107285023Y-112007040D01*
X107230613Y-112031888D01*
X107033802Y-112068679D01*
X107033799Y-112068679D01*
X107033799Y-112068680D01*
X106834982Y-112145701D01*
X106834980Y-112145702D01*
X106653699Y-112257947D01*
X106496127Y-112401593D01*
X106367632Y-112571746D01*
X106272596Y-112762605D01*
X106272596Y-112762607D01*
X106214244Y-112967689D01*
X106194571Y-113179999D01*
X106194571Y-113180000D01*
X106214244Y-113392310D01*
X106272596Y-113597392D01*
X106272596Y-113597394D01*
X106367632Y-113788253D01*
X106492930Y-113954172D01*
X106496128Y-113958407D01*
X106653698Y-114102052D01*
X106834981Y-114214298D01*
X107033802Y-114291321D01*
X107230613Y-114328111D01*
X107292893Y-114359779D01*
X107328166Y-114420092D01*
X107325232Y-114489900D01*
X107285023Y-114547040D01*
X107230613Y-114571888D01*
X107033802Y-114608679D01*
X107033799Y-114608679D01*
X107033799Y-114608680D01*
X106834982Y-114685701D01*
X106834980Y-114685702D01*
X106653699Y-114797947D01*
X106496127Y-114941593D01*
X106367632Y-115111746D01*
X106272596Y-115302605D01*
X106272596Y-115302607D01*
X106214244Y-115507689D01*
X106194571Y-115719999D01*
X106194571Y-115720000D01*
X106214244Y-115932310D01*
X106272596Y-116137392D01*
X106272596Y-116137394D01*
X106367632Y-116328253D01*
X106496127Y-116498406D01*
X106496128Y-116498407D01*
X106653698Y-116642052D01*
X106834981Y-116754298D01*
X107033802Y-116831321D01*
X107230613Y-116868111D01*
X107292893Y-116899779D01*
X107328166Y-116960092D01*
X107325232Y-117029900D01*
X107285023Y-117087040D01*
X107230613Y-117111888D01*
X107033802Y-117148679D01*
X107033799Y-117148679D01*
X107033799Y-117148680D01*
X106834982Y-117225701D01*
X106834980Y-117225702D01*
X106653699Y-117337947D01*
X106496127Y-117481593D01*
X106367632Y-117651746D01*
X106272596Y-117842605D01*
X106272596Y-117842607D01*
X106214244Y-118047689D01*
X106194571Y-118259999D01*
X106194571Y-118260000D01*
X106214244Y-118472310D01*
X106272596Y-118677392D01*
X106272596Y-118677394D01*
X106367632Y-118868253D01*
X106489986Y-119030274D01*
X106514678Y-119095635D01*
X106500113Y-119163970D01*
X106478713Y-119192682D01*
X106467560Y-119203835D01*
X106464222Y-119207051D01*
X106422304Y-119245946D01*
X106416513Y-119253208D01*
X106415862Y-119252688D01*
X106406467Y-119264928D01*
X105530263Y-120141132D01*
X105519898Y-120150395D01*
X105492033Y-120172617D01*
X105492030Y-120172621D01*
X105459823Y-120219857D01*
X105457144Y-120223632D01*
X105423206Y-120269618D01*
X105419216Y-120277167D01*
X105415528Y-120284825D01*
X105398673Y-120339467D01*
X105397225Y-120343868D01*
X105378353Y-120397804D01*
X105376771Y-120406159D01*
X105375500Y-120414600D01*
X105375500Y-120471760D01*
X105375413Y-120476397D01*
X105373275Y-120533509D01*
X105374316Y-120542743D01*
X105373485Y-120542836D01*
X105375500Y-120558135D01*
X105375500Y-129403738D01*
X105374720Y-129417623D01*
X105370729Y-129453036D01*
X101075500Y-129453036D01*
X101075500Y-71274875D01*
X101075882Y-71265147D01*
X101089440Y-71092867D01*
X101092482Y-71073655D01*
X101131687Y-70910357D01*
X101137693Y-70891872D01*
X101201960Y-70736719D01*
X101210793Y-70719385D01*
X101298529Y-70576213D01*
X101309965Y-70560472D01*
X101419027Y-70432776D01*
X101432776Y-70419027D01*
X101560475Y-70309962D01*
X101576213Y-70298529D01*
X101719388Y-70210791D01*
X101736719Y-70201960D01*
X101891872Y-70137693D01*
X101910357Y-70131687D01*
X102073655Y-70092482D01*
X102092861Y-70089440D01*
X102240383Y-70077830D01*
X102265147Y-70075882D01*
X102274875Y-70075500D01*
X102294531Y-70075500D01*
X127645469Y-70075500D01*
X127665125Y-70075500D01*
X127674853Y-70075882D01*
G37*
G04 #@! TD.AperFunction*
M02*
