M48
; DRILL file {KiCad 8.0.4+dfsg-1} date 2025-03-06T11:30:59+0900
; FORMAT={-:-/ absolute / inch / decimal}
; #@! TF.CreationDate,2025-03-06T11:30:59+09:00
; #@! TF.GenerationSoftware,Kicad,Pcbnew,8.0.4+dfsg-1
; #@! TF.FileFunction,Plated,1,2,PTH
FMAT,2
INCH
; #@! TA.AperFunction,Plated,PTH,ViaDrill
T1C0.0118
; #@! TA.AperFunction,Plated,PTH,ComponentDrill
T2C0.0157
; #@! TA.AperFunction,Plated,PTH,ComponentDrill
T3C0.0236
; #@! TA.AperFunction,Plated,PTH,ComponentDrill
T4C0.0315
; #@! TA.AperFunction,Plated,PTH,ComponentDrill
T5C0.0394
; #@! TA.AperFunction,Plated,PTH,ComponentDrill
T6C0.0433
; #@! TA.AperFunction,Plated,PTH,ComponentDrill
T7C0.0701
%
G90
G05
T1
X3.0264Y-2.0609
X3.0756Y-2.5659
X3.0814Y-5.0059
X3.1714Y-2.2209
X3.2514Y-3.4809
X3.2764Y-3.4359
X3.3014Y-3.3659
X3.3264Y-4.1059
X3.3364Y-3.7559
X3.3514Y-3.1559
X3.3964Y-3.6859
X3.4264Y-3.9059
X3.4522Y-3.7751
X3.4714Y-2.4559
X3.4714Y-5.0459
X3.4764Y-4.7609
X3.5514Y-3.3209
X3.5514Y-3.7609
X3.6064Y-2.8959
X3.6264Y-3.0709
X3.6439Y-3.9323
X3.6488Y-4.1483
X3.6614Y-3.7259
X3.675Y-3.3559
X3.6764Y-2.6409
X3.68Y-2.9609
X3.7039Y-4.3634
X3.7314Y-2.8059
X3.8364Y-2.1359
X3.8464Y-3.0109
X3.8464Y-3.8359
X3.8564Y-2.7823
X3.8564Y-3.5659
X3.8564Y-3.6609
X3.8714Y-3.0459
X3.8714Y-3.8909
X3.8764Y-4.5859
X3.895Y-3.9359
X3.895Y-4.0059
X3.8964Y-3.0859
X3.8964Y-3.4809
X3.9014Y-4.2309
X3.92Y-3.3894
X3.9267Y-2.6123
X3.9343Y-4.5946
X3.9364Y-4.4059
X3.9464Y-3.4259
X3.9564Y-3.0359
X3.9564Y-4.8209
X3.9647Y-2.8392
X3.9664Y-2.7259
X3.9712Y-2.6128
X3.9714Y-3.3259
X3.9964Y-3.4459
X4.0114Y-3.7059
X4.0164Y-3.0935
X4.0214Y-4.5199
X4.0264Y-2.5107
X4.0284Y-2.6119
X4.0414Y-3.5855
X4.0434Y-3.1229
X4.0714Y-2.4359
X4.0714Y-2.9159
X4.0714Y-3.4059
X4.0714Y-3.8859
X4.0714Y-4.3659
X4.0814Y-3.7659
X4.3964Y-2.4359
X4.3964Y-2.9159
X4.3964Y-3.4059
X4.3964Y-3.8859
X4.3964Y-4.3659
X4.4764Y-3.7209
X4.4814Y-2.5421
X4.5104Y-2.5659
X4.5114Y-2.6159
X4.5114Y-2.6659
X4.5114Y-2.7159
X4.5114Y-2.7659
X4.5124Y-2.8159
X4.5149Y-2.5134
X4.5244Y-3.6328
X4.5314Y-3.8059
X4.5326Y-3.2877
X4.5344Y-3.2199
X4.5364Y-3.0209
X4.5364Y-3.0659
X4.5364Y-3.1159
X4.5364Y-3.1779
X4.5604Y-4.1004
X4.5764Y-3.5579
X4.5784Y-4.2039
X4.5904Y-3.6119
X4.6104Y-4.1399
X4.6134Y-3.5529
X4.6244Y-3.4496
X4.6264Y-2.4359
X4.6264Y-2.9359
X4.6864Y-3.8559
X4.7164Y-3.7194
X4.7444Y-3.7559
X4.7514Y-4.6459
X4.7814Y-2.0709
X4.7814Y-3.9559
X4.7864Y-4.5709
X4.798Y-4.6293
X4.8364Y-4.5959
X4.8764Y-4.3609
X4.8764Y-5.1059
X4.9164Y-2.6209
X4.9164Y-2.7663
X4.9164Y-2.8559
X4.9164Y-2.8909
X4.9176Y-2.8159
X4.9189Y-2.5734
X4.9214Y-3.0409
X4.9214Y-3.0809
X4.9214Y-3.2659
X4.9214Y-3.3159
X4.9214Y-3.3809
X4.9314Y-2.5421
X5.0964Y-3.7159
X5.1014Y-4.6559
X5.2518Y-4.6791
X5.4764Y-3.2009
X5.4764Y-3.9309
X5.5764Y-3.4559
X5.7164Y-3.8909
X6.1764Y-2.5309
X6.2014Y-4.8909
X6.2064Y-4.3509
X6.2114Y-3.4559
T2
X3.3593Y-1.9594
X3.3593Y-2.0126
X3.3927Y-1.9594
X3.3927Y-2.0126
X3.4262Y-1.9594
X3.4262Y-2.0126
X3.4596Y-1.9594
X3.4596Y-2.0126
X3.4931Y-1.9594
X3.4931Y-2.0126
X3.5266Y-1.9594
X3.5266Y-2.0126
X3.56Y-1.9594
X3.56Y-2.0126
X3.571Y-5.1063
X3.571Y-5.1595
X3.5935Y-1.9594
X3.5935Y-2.0126
X3.6044Y-5.1063
X3.6044Y-5.1595
X3.6379Y-5.1063
X3.6379Y-5.1595
X3.6714Y-5.1063
X3.6714Y-5.1595
X3.7048Y-5.1063
X3.7048Y-5.1595
X3.7383Y-5.1063
X3.7383Y-5.1595
X3.7718Y-5.1063
X3.7718Y-5.1595
X3.8052Y-5.1063
X3.8052Y-5.1595
T4
X3.1764Y-2.3559
X3.1764Y-2.4559
X3.1764Y-2.5559
X3.1764Y-2.6559
X3.1764Y-2.7559
X3.1764Y-2.8559
X3.1764Y-2.9559
X3.1764Y-3.0559
X3.1764Y-3.1559
X3.1764Y-3.2559
X3.1764Y-3.3559
X3.1764Y-3.4559
X3.1764Y-3.5559
X3.1764Y-3.6559
X3.1764Y-3.7559
X3.1764Y-3.8559
X3.1764Y-3.9559
X3.1764Y-4.0559
X3.1764Y-4.1559
X3.1764Y-4.2559
X3.1764Y-4.3559
X3.1764Y-4.4559
X3.1764Y-4.5559
X3.1764Y-4.6559
X3.7764Y-2.3559
X3.7764Y-2.4559
X3.7764Y-2.5559
X3.7764Y-2.6559
X3.7764Y-2.7559
X3.7764Y-2.8559
X3.7764Y-2.9559
X3.7764Y-3.0559
X3.7764Y-3.1559
X3.7764Y-3.2559
X3.7764Y-3.3559
X3.7764Y-3.4559
X3.7764Y-3.5559
X3.7764Y-3.6559
X3.7764Y-3.7559
X3.7764Y-3.8559
X3.7764Y-3.9559
X3.7764Y-4.0559
X3.7764Y-4.1559
X3.7764Y-4.2559
X3.7764Y-4.3559
X3.7764Y-4.4559
X3.7764Y-4.5559
X3.7764Y-4.6559
X5.1764Y-2.5559
X5.1764Y-2.6559
X5.1764Y-2.7559
X5.1764Y-2.8559
X5.1764Y-2.9559
X5.1764Y-3.0559
X5.1764Y-3.1559
X5.1764Y-3.2559
X5.1764Y-3.3559
X5.1764Y-3.4559
X5.1764Y-3.5559
X5.1764Y-3.6559
X5.1764Y-3.7559
X5.1764Y-3.8559
X5.1764Y-3.9559
X5.1764Y-4.0559
X5.1764Y-4.1559
X5.1764Y-4.2559
X5.1764Y-4.3559
X5.1764Y-4.4559
X5.1764Y-4.5559
X5.1764Y-4.6559
X5.1764Y-4.7559
X5.1764Y-4.8559
X5.7764Y-2.5559
X5.7764Y-2.6559
X5.7764Y-2.7559
X5.7764Y-2.8559
X5.7764Y-2.9559
X5.7764Y-3.0559
X5.7764Y-3.1559
X5.7764Y-3.2559
X5.7764Y-3.3559
X5.7764Y-3.4559
X5.7764Y-3.5559
X5.7764Y-3.6559
X5.7764Y-3.7559
X5.7764Y-3.8559
X5.7764Y-3.9559
X5.7764Y-4.0559
X5.7764Y-4.1559
X5.7764Y-4.2559
X5.7764Y-4.3559
X5.7764Y-4.4559
X5.7764Y-4.5559
X5.7764Y-4.6559
X5.7764Y-4.7559
X5.7764Y-4.8559
T5
X6.1464Y-1.9065
X6.1464Y-2.0065
X6.1464Y-2.1065
X6.1514Y-2.6555
X6.1514Y-2.7555
X6.1514Y-2.8555
X6.1514Y-2.9555
X6.1514Y-3.0555
X6.1514Y-3.1555
X6.1514Y-3.2555
X6.1514Y-3.3555
X6.1514Y-3.5555
X6.1514Y-3.6555
X6.1514Y-3.7555
X6.1514Y-3.8555
X6.1514Y-3.9555
X6.1514Y-4.0555
X6.1514Y-4.1555
X6.1514Y-4.2555
X6.1539Y-2.3057
X6.1539Y-2.4057
X6.1539Y-4.4559
X6.1539Y-4.5559
X6.1539Y-4.6559
X6.1539Y-4.7559
X6.2514Y-2.6555
X6.2514Y-2.7555
X6.2514Y-2.8555
X6.2514Y-2.9555
X6.2514Y-3.0555
X6.2514Y-3.1555
X6.2514Y-3.2555
X6.2514Y-3.3555
X6.2514Y-3.5555
X6.2514Y-3.6555
X6.2514Y-3.7555
X6.2514Y-3.8555
X6.2514Y-3.9555
X6.2514Y-4.0555
X6.2514Y-4.1555
X6.2514Y-4.2555
X6.2539Y-2.3057
X6.2539Y-2.4057
X6.2539Y-4.4559
X6.2539Y-4.5559
X6.2539Y-4.6559
X6.2539Y-4.7559
T6
X3.9705Y-1.7787
X3.9705Y-1.9559
X4.0984Y-1.7571
X4.0984Y-1.9776
X4.2264Y-1.7787
X4.2264Y-1.9559
T7
X5.4764Y-2.2209
X5.4764Y-5.0358
T3
G00X3.3061Y-1.8252
M15
G01X3.3061Y-1.8567
M16
G05
G00X3.3061Y-1.9444
M15
G01X3.3061Y-2.0035
M16
G05
G00X3.5178Y-5.1154
M15
G01X3.5178Y-5.1744
M16
G05
G00X3.5178Y-5.2622
M15
G01X3.5178Y-5.2937
M16
G05
G00X3.6467Y-1.8252
M15
G01X3.6467Y-1.8567
M16
G05
G00X3.6467Y-1.9444
M15
G01X3.6467Y-2.0035
M16
G05
G00X3.8584Y-5.1154
M15
G01X3.8584Y-5.1744
M16
G05
G00X3.8584Y-5.2622
M15
G01X3.8584Y-5.2937
M16
G05
M30
